<?xml version="1.0" encoding="UTF-8" standalone="no"?>
<!DOCTYPE svg PUBLIC "-//W3C//DTD SVG 1.1//EN"
 "http://www.w3.org/Graphics/SVG/1.1/DTD/svg11.dtd">
<!-- Generated by graphviz version 2.44.1 (20200629.0846)
 -->
<!-- Title: consoleErrPrintC Pages: 1 -->
<svg width="1129pt" height="204pt"
 viewBox="0.00 0.00 1129.00 203.67" xmlns="http://www.w3.org/2000/svg" xmlns:xlink="http://www.w3.org/1999/xlink">
<g id="graph0" class="graph" transform="scale(1 1) rotate(0) translate(4 199.67)">
<title>consoleErrPrintC</title>
<polygon fill="white" stroke="transparent" points="-4,4 -4,-199.67 1125,-199.67 1125,4 -4,4"/>
<!-- Node1 -->
<g id="node1" class="node">
<title>Node1</title>
<g id="a_node1"><a xlink:title=" ">
<polygon fill="#bfbfbf" stroke="black" points="0,-9.3 0,-28.3 91,-28.3 91,-9.3 0,-9.3"/>
<text text-anchor="middle" x="45.5" y="-16.3" font-family="Helvetica,sans-Serif" font-size="10.00">consoleErrPrintC</text>
</a>
</g>
</g>
<!-- Node2 -->
<g id="node2" class="node">
<title>Node2</title>
<g id="a_node2"><a xlink:href="namespaceconsole_1_1err.html#a4cd18e4c409b5b17ecec61ce83b05fba" target="_top" xlink:title=" ">
<polygon fill="white" stroke="black" points="127,-9.3 127,-28.3 231,-28.3 231,-9.3 127,-9.3"/>
<text text-anchor="middle" x="179" y="-16.3" font-family="Helvetica,sans-Serif" font-size="10.00">console::err::printVa</text>
</a>
</g>
</g>
<!-- Node1&#45;&gt;Node2 -->
<g id="edge1" class="edge">
<title>Node1&#45;&gt;Node2</title>
<path fill="none" stroke="midnightblue" d="M91.02,-18.8C99.27,-18.8 108.01,-18.8 116.66,-18.8"/>
<polygon fill="midnightblue" stroke="midnightblue" points="116.72,-22.3 126.72,-18.8 116.72,-15.3 116.72,-22.3"/>
</g>
<!-- Node3 -->
<g id="node3" class="node">
<title>Node3</title>
<g id="a_node3"><a xlink:href="namespaceconsole_1_1ge.html#af642934cb833142f133285fdb75ef7b7" target="_top" xlink:title=" ">
<polygon fill="white" stroke="black" points="267,-66.3 267,-85.3 387,-85.3 387,-66.3 267,-66.3"/>
<text text-anchor="middle" x="327" y="-73.3" font-family="Helvetica,sans-Serif" font-size="10.00">console::ge::printFmtVa</text>
</a>
</g>
</g>
<!-- Node2&#45;&gt;Node3 -->
<g id="edge2" class="edge">
<title>Node2&#45;&gt;Node3</title>
<path fill="none" stroke="midnightblue" d="M204.44,-28.34C228.44,-37.71 265.26,-52.09 292.09,-62.56"/>
<polygon fill="midnightblue" stroke="midnightblue" points="290.9,-65.85 301.48,-66.23 293.44,-59.33 290.9,-65.85"/>
</g>
<!-- Node10 -->
<g id="node10" class="node">
<title>Node10</title>
<g id="a_node10"><a xlink:href="namespaceconsole_1_1out.html#ad9fc97dff4404c2d21aedbb24691e7cb" target="_top" xlink:title=" ">
<polygon fill="white" stroke="black" points="585,-9.3 585,-28.3 695,-28.3 695,-9.3 585,-9.3"/>
<text text-anchor="middle" x="640" y="-16.3" font-family="Helvetica,sans-Serif" font-size="10.00">console::out::putChar</text>
</a>
</g>
</g>
<!-- Node2&#45;&gt;Node10 -->
<g id="edge19" class="edge">
<title>Node2&#45;&gt;Node10</title>
<path fill="none" stroke="midnightblue" d="M231.12,-12.76C302.42,-5.23 435.74,5.57 549,-3.8 559.29,-4.65 570.17,-6.04 580.68,-7.64"/>
<polygon fill="midnightblue" stroke="midnightblue" points="580.18,-11.11 590.61,-9.23 581.28,-4.2 580.18,-11.11"/>
</g>
<!-- Node4 -->
<g id="node4" class="node">
<title>Node4</title>
<g id="a_node4"><a xlink:href="printfmt_8cc.html#a708ec6ee2b8bd2d7a453d8d9436ed3b3" target="_top" xlink:title=" ">
<polygon fill="white" stroke="black" points="457,-142.3 457,-161.3 515,-161.3 515,-142.3 457,-142.3"/>
<text text-anchor="middle" x="486" y="-149.3" font-family="Helvetica,sans-Serif" font-size="10.00">_getIntVa</text>
</a>
</g>
</g>
<!-- Node3&#45;&gt;Node4 -->
<g id="edge3" class="edge">
<title>Node3&#45;&gt;Node4</title>
<path fill="none" stroke="midnightblue" d="M341.59,-85.41C359.53,-97.75 392.43,-119.19 423,-132.8 430.6,-136.19 438.99,-139.2 447.07,-141.78"/>
<polygon fill="midnightblue" stroke="midnightblue" points="446.11,-145.15 456.7,-144.7 448.14,-138.45 446.11,-145.15"/>
</g>
<!-- Node5 -->
<g id="node5" class="node">
<title>Node5</title>
<g id="a_node5"><a xlink:href="printfmt_8cc.html#af4b46892c76c8bfd27efdb20847eb7c8" target="_top" xlink:title=" ">
<polygon fill="white" stroke="black" points="453.5,-104.3 453.5,-123.3 518.5,-123.3 518.5,-104.3 453.5,-104.3"/>
<text text-anchor="middle" x="486" y="-111.3" font-family="Helvetica,sans-Serif" font-size="10.00">_getUIntVa</text>
</a>
</g>
</g>
<!-- Node3&#45;&gt;Node5 -->
<g id="edge4" class="edge">
<title>Node3&#45;&gt;Node5</title>
<path fill="none" stroke="midnightblue" d="M367.62,-85.39C390.72,-90.98 419.84,-98.03 443.3,-103.71"/>
<polygon fill="midnightblue" stroke="midnightblue" points="442.76,-107.18 453.3,-106.13 444.4,-100.38 442.76,-107.18"/>
</g>
<!-- Node6 -->
<g id="node6" class="node">
<title>Node6</title>
<g id="a_node6"><a xlink:href="namespacestr.html#a062221f630647cf300f0dd982c4ed904" target="_top" xlink:title=" ">
<polygon fill="white" stroke="black" points="1063,-99.3 1063,-118.3 1121,-118.3 1121,-99.3 1063,-99.3"/>
<text text-anchor="middle" x="1092" y="-106.3" font-family="Helvetica,sans-Serif" font-size="10.00">str::count</text>
</a>
</g>
</g>
<!-- Node3&#45;&gt;Node6 -->
<g id="edge5" class="edge">
<title>Node3&#45;&gt;Node6</title>
<path fill="none" stroke="midnightblue" d="M334.18,-85.52C347.55,-105.59 381.36,-151.37 423,-170.8 510.33,-211.55 542.63,-189.8 639,-189.8 639,-189.8 639,-189.8 792,-189.8 893.55,-189.8 1007.97,-145.73 1061.02,-122.61"/>
<polygon fill="midnightblue" stroke="midnightblue" points="1062.77,-125.66 1070.5,-118.41 1059.93,-119.26 1062.77,-125.66"/>
</g>
<!-- Node7 -->
<g id="node7" class="node">
<title>Node7</title>
<g id="a_node7"><a xlink:href="printfmt_8cc.html#a0e3e484ece5e75b9f5fbe337f0ae8ae3" target="_top" xlink:title=" ">
<polygon fill="white" stroke="black" points="459.5,-66.3 459.5,-85.3 512.5,-85.3 512.5,-66.3 459.5,-66.3"/>
<text text-anchor="middle" x="486" y="-73.3" font-family="Helvetica,sans-Serif" font-size="10.00">describe</text>
</a>
</g>
</g>
<!-- Node3&#45;&gt;Node7 -->
<g id="edge6" class="edge">
<title>Node3&#45;&gt;Node7</title>
<path fill="none" stroke="midnightblue" d="M387.35,-75.8C408.12,-75.8 430.78,-75.8 449.04,-75.8"/>
<polygon fill="midnightblue" stroke="midnightblue" points="449.24,-79.3 459.24,-75.8 449.24,-72.3 449.24,-79.3"/>
</g>
<!-- Node9 -->
<g id="node9" class="node">
<title>Node9</title>
<g id="a_node9"><a xlink:href="namespaceconsole_1_1ge.html#a7e301813fd34fde772376afc5fdad95d" target="_top" xlink:title=" ">
<polygon fill="white" stroke="black" points="423,-28.3 423,-47.3 549,-47.3 549,-28.3 423,-28.3"/>
<text text-anchor="middle" x="486" y="-35.3" font-family="Helvetica,sans-Serif" font-size="10.00">console::ge::printNumber</text>
</a>
</g>
</g>
<!-- Node3&#45;&gt;Node9 -->
<g id="edge8" class="edge">
<title>Node3&#45;&gt;Node9</title>
<path fill="none" stroke="midnightblue" d="M367.62,-66.21C388.34,-61.2 413.89,-55.01 435.86,-49.7"/>
<polygon fill="midnightblue" stroke="midnightblue" points="436.77,-53.08 445.67,-47.32 435.12,-46.27 436.77,-53.08"/>
</g>
<!-- Node3&#45;&gt;Node10 -->
<g id="edge18" class="edge">
<title>Node3&#45;&gt;Node10</title>
<path fill="none" stroke="midnightblue" d="M339.33,-66.16C356.22,-52.47 389.63,-28.04 423,-18.8 472.52,-5.09 530.9,-6.05 574.48,-9.91"/>
<polygon fill="midnightblue" stroke="midnightblue" points="574.38,-13.42 584.66,-10.89 575.05,-6.45 574.38,-13.42"/>
</g>
<!-- Node8 -->
<g id="node8" class="node">
<title>Node8</title>
<g id="a_node8"><a xlink:href="namespacemonitor.html#a318993193c866642f8389a1c1f285739" target="_top" xlink:title=" ">
<polygon fill="white" stroke="black" points="603,-66.3 603,-85.3 677,-85.3 677,-66.3 603,-66.3"/>
<text text-anchor="middle" x="640" y="-73.3" font-family="Helvetica,sans-Serif" font-size="10.00">monitor::fuck</text>
</a>
</g>
</g>
<!-- Node7&#45;&gt;Node8 -->
<g id="edge7" class="edge">
<title>Node7&#45;&gt;Node8</title>
<path fill="none" stroke="midnightblue" d="M512.78,-75.8C534.62,-75.8 566.46,-75.8 592.7,-75.8"/>
<polygon fill="midnightblue" stroke="midnightblue" points="592.82,-79.3 602.82,-75.8 592.82,-72.3 592.82,-79.3"/>
</g>
<!-- Node9&#45;&gt;Node10 -->
<g id="edge9" class="edge">
<title>Node9&#45;&gt;Node10</title>
<path fill="none" stroke="midnightblue" d="M549.26,-30.02C557.66,-28.97 566.28,-27.89 574.71,-26.84"/>
<polygon fill="midnightblue" stroke="midnightblue" points="575.37,-30.28 584.86,-25.57 574.51,-23.34 575.37,-30.28"/>
</g>
<!-- Node11 -->
<g id="node11" class="node">
<title>Node11</title>
<g id="a_node11"><a xlink:href="namespaceconsole_1_1serial.html#a3a7c1f95ae3c24136ea63bb31fdf0391" target="_top" xlink:title=" ">
<polygon fill="white" stroke="black" points="731,-9.3 731,-28.3 851,-28.3 851,-9.3 731,-9.3"/>
<text text-anchor="middle" x="791" y="-16.3" font-family="Helvetica,sans-Serif" font-size="10.00">console::serial::putChar</text>
</a>
</g>
</g>
<!-- Node10&#45;&gt;Node11 -->
<g id="edge10" class="edge">
<title>Node10&#45;&gt;Node11</title>
<path fill="none" stroke="midnightblue" d="M695.21,-18.8C703.53,-18.8 712.2,-18.8 720.79,-18.8"/>
<polygon fill="midnightblue" stroke="midnightblue" points="720.79,-22.3 730.79,-18.8 720.79,-15.3 720.79,-22.3"/>
</g>
<!-- Node14 -->
<g id="node14" class="node">
<title>Node14</title>
<g id="a_node14"><a xlink:href="namespaceconsole_1_1cga.html#afa19057ca041b39682d5d4831c43dfa0" target="_top" xlink:title=" ">
<polygon fill="white" stroke="black" points="734.5,-47.3 734.5,-66.3 847.5,-66.3 847.5,-47.3 734.5,-47.3"/>
<text text-anchor="middle" x="791" y="-54.3" font-family="Helvetica,sans-Serif" font-size="10.00">console::cga::putChar</text>
</a>
</g>
</g>
<!-- Node10&#45;&gt;Node14 -->
<g id="edge13" class="edge">
<title>Node10&#45;&gt;Node14</title>
<path fill="none" stroke="midnightblue" d="M678.6,-28.39C698.08,-33.36 722.07,-39.48 742.8,-44.76"/>
<polygon fill="midnightblue" stroke="midnightblue" points="742.12,-48.2 752.67,-47.28 743.85,-41.42 742.12,-48.2"/>
</g>
<!-- Node12 -->
<g id="node12" class="node">
<title>Node12</title>
<g id="a_node12"><a xlink:href="namespaceconsole_1_1serial.html#aa5605d4537106bb1c2bab72d7d1a5824" target="_top" xlink:title=" ">
<polygon fill="white" stroke="black" points="905,-9.3 905,-28.3 1009,-28.3 1009,-9.3 905,-9.3"/>
<text text-anchor="middle" x="957" y="-16.3" font-family="Helvetica,sans-Serif" font-size="10.00">console::serial::sout</text>
</a>
</g>
</g>
<!-- Node11&#45;&gt;Node12 -->
<g id="edge11" class="edge">
<title>Node11&#45;&gt;Node12</title>
<path fill="none" stroke="midnightblue" d="M851.21,-18.8C865.31,-18.8 880.39,-18.8 894.59,-18.8"/>
<polygon fill="midnightblue" stroke="midnightblue" points="894.74,-22.3 904.74,-18.8 894.74,-15.3 894.74,-22.3"/>
</g>
<!-- Node13 -->
<g id="node13" class="node">
<title>Node13</title>
<g id="a_node13"><a xlink:href="x86_8h.html#ade961b44e45ddacbc3c3b7609cf36dc6" target="_top" xlink:title=" ">
<polygon fill="white" stroke="black" points="1074.5,-42.3 1074.5,-61.3 1109.5,-61.3 1109.5,-42.3 1074.5,-42.3"/>
<text text-anchor="middle" x="1092" y="-49.3" font-family="Helvetica,sans-Serif" font-size="10.00">outb</text>
</a>
</g>
</g>
<!-- Node12&#45;&gt;Node13 -->
<g id="edge12" class="edge">
<title>Node12&#45;&gt;Node13</title>
<path fill="none" stroke="midnightblue" d="M996.47,-28.35C1018.32,-33.77 1045.11,-40.42 1064.59,-45.25"/>
<polygon fill="midnightblue" stroke="midnightblue" points="1063.76,-48.65 1074.31,-47.66 1065.44,-41.86 1063.76,-48.65"/>
</g>
<!-- Node15 -->
<g id="node15" class="node">
<title>Node15</title>
<g id="a_node15"><a xlink:href="namespacemem.html#a64d9d05b439041901498c606de606431" target="_top" xlink:title=" ">
<polygon fill="white" stroke="black" points="924.5,-90.3 924.5,-109.3 989.5,-109.3 989.5,-90.3 924.5,-90.3"/>
<text text-anchor="middle" x="957" y="-97.3" font-family="Helvetica,sans-Serif" font-size="10.00">mem::copy</text>
</a>
</g>
</g>
<!-- Node14&#45;&gt;Node15 -->
<g id="edge14" class="edge">
<title>Node14&#45;&gt;Node15</title>
<path fill="none" stroke="midnightblue" d="M828.4,-66.35C853.92,-73.04 888.08,-81.99 914.64,-88.96"/>
<polygon fill="midnightblue" stroke="midnightblue" points="913.85,-92.37 924.41,-91.52 915.62,-85.6 913.85,-92.37"/>
</g>
<!-- Node16 -->
<g id="node16" class="node">
<title>Node16</title>
<g id="a_node16"><a xlink:href="namespaceconsole_1_1cga.html#a06463d4dc68819e30615ba299d02a78f" target="_top" xlink:title=" ">
<polygon fill="white" stroke="black" points="887,-47.3 887,-66.3 1027,-66.3 1027,-47.3 887,-47.3"/>
<text text-anchor="middle" x="957" y="-54.3" font-family="Helvetica,sans-Serif" font-size="10.00">console::cga::cursorRefresh</text>
</a>
</g>
</g>
<!-- Node14&#45;&gt;Node16 -->
<g id="edge16" class="edge">
<title>Node14&#45;&gt;Node16</title>
<path fill="none" stroke="midnightblue" d="M847.52,-56.8C856.9,-56.8 866.8,-56.8 876.65,-56.8"/>
<polygon fill="midnightblue" stroke="midnightblue" points="876.87,-60.3 886.87,-56.8 876.87,-53.3 876.87,-60.3"/>
</g>
<!-- Node15&#45;&gt;Node6 -->
<g id="edge15" class="edge">
<title>Node15&#45;&gt;Node6</title>
<path fill="none" stroke="midnightblue" d="M989.52,-101.94C1008.49,-103.22 1032.77,-104.86 1052.82,-106.22"/>
<polygon fill="midnightblue" stroke="midnightblue" points="1052.66,-109.72 1062.87,-106.9 1053.13,-102.73 1052.66,-109.72"/>
</g>
<!-- Node16&#45;&gt;Node13 -->
<g id="edge17" class="edge">
<title>Node16&#45;&gt;Node13</title>
<path fill="none" stroke="midnightblue" d="M1027.23,-54.2C1040.48,-53.7 1053.59,-53.21 1064.45,-52.8"/>
<polygon fill="midnightblue" stroke="midnightblue" points="1064.61,-56.3 1074.47,-52.42 1064.35,-49.3 1064.61,-56.3"/>
</g>
</g>
</svg>
