<?xml version="1.0" encoding="UTF-8" standalone="no"?>
<!DOCTYPE svg PUBLIC "-//W3C//DTD SVG 1.1//EN"
 "http://www.w3.org/Graphics/SVG/1.1/DTD/svg11.dtd">
<!-- Generated by graphviz version 2.44.1 (20200629.0846)
 -->
<!-- Title: lib Pages: 1 -->
<svg width="105pt" height="223pt"
 viewBox="0.00 0.00 105.00 223.00" xmlns="http://www.w3.org/2000/svg" xmlns:xlink="http://www.w3.org/1999/xlink">
<g id="graph0" class="graph" transform="scale(1 1) rotate(0) translate(4 219)">
<title>lib</title>
<polygon fill="white" stroke="transparent" points="-4,4 -4,-219 101,-219 101,4 -4,4"/>
<g id="clust1" class="cluster">
<title>clusterdir_111cd2f11cffd6d6d28d89ee0389ee9e</title>
<g id="a_clust1"><a xlink:href="dir_111cd2f11cffd6d6d28d89ee0389ee9e.html" target="_top" xlink:title="user">
<polygon fill="#ddddee" stroke="black" points="8,-136 8,-207 78,-207 78,-136 8,-136"/>
<text text-anchor="middle" x="43" y="-195" font-family="Helvetica,sans-Serif" font-size="10.00">user</text>
</a>
</g>
</g>
<!-- dir_2560747c518ec91f53c5daf773f8747c -->
<g id="node1" class="node">
<title>dir_2560747c518ec91f53c5daf773f8747c</title>
<g id="a_node1"><a xlink:href="dir_2560747c518ec91f53c5daf773f8747c.html" target="_top" xlink:title="lib">
<polygon fill="#eeeeff" stroke="black" points="70,-180 16,-180 16,-144 70,-144 70,-180"/>
<text text-anchor="middle" x="43" y="-159.5" font-family="Helvetica,sans-Serif" font-size="10.00">lib</text>
</a>
</g>
</g>
<!-- dir_d44c64559bbebec7f509842c48db8b23 -->
<g id="node2" class="node">
<title>dir_d44c64559bbebec7f509842c48db8b23</title>
<g id="a_node2"><a xlink:href="dir_d44c64559bbebec7f509842c48db8b23.html" target="_top" xlink:title="include">
<polygon fill="none" stroke="black" points="69,-36 15,-36 15,0 69,0 69,-36"/>
<text text-anchor="middle" x="42" y="-15.5" font-family="Helvetica,sans-Serif" font-size="10.00">include</text>
</a>
</g>
</g>
<!-- dir_2560747c518ec91f53c5daf773f8747c&#45;&gt;dir_d44c64559bbebec7f509842c48db8b23 -->
<g id="edge1" class="edge">
<title>dir_2560747c518ec91f53c5daf773f8747c&#45;&gt;dir_d44c64559bbebec7f509842c48db8b23</title>
<path fill="none" stroke="black" d="M39.35,-143.91C37.32,-133.57 35.02,-120.09 34,-108 32.66,-92.06 32.8,-87.96 34,-72 34.64,-63.52 35.84,-54.34 37.12,-46.04"/>
<polygon fill="black" stroke="black" points="40.58,-46.55 38.75,-36.11 33.68,-45.41 40.58,-46.55"/>
<g id="a_edge1&#45;headlabel"><a xlink:href="dir_000023_000008.html" target="_top" xlink:title="3">
<text text-anchor="middle" x="42.8" y="-48.05" font-family="Helvetica,sans-Serif" font-size="10.00">3</text>
</a>
</g>
</g>
<!-- dir_5880318873dbba54eaeafe8b295b00fd -->
<g id="node3" class="node">
<title>dir_5880318873dbba54eaeafe8b295b00fd</title>
<g id="a_node3"><a xlink:href="dir_5880318873dbba54eaeafe8b295b00fd.html" target="_top" xlink:title="include">
<polygon fill="none" stroke="black" points="97,-108 43,-108 43,-72 97,-72 97,-108"/>
<text text-anchor="middle" x="70" y="-87.5" font-family="Helvetica,sans-Serif" font-size="10.00">include</text>
</a>
</g>
</g>
<!-- dir_2560747c518ec91f53c5daf773f8747c&#45;&gt;dir_5880318873dbba54eaeafe8b295b00fd -->
<g id="edge2" class="edge">
<title>dir_2560747c518ec91f53c5daf773f8747c&#45;&gt;dir_5880318873dbba54eaeafe8b295b00fd</title>
<path fill="none" stroke="black" d="M49.67,-143.7C52.71,-135.81 56.38,-126.3 59.76,-117.55"/>
<polygon fill="black" stroke="black" points="63.07,-118.69 63.4,-108.1 56.54,-116.17 63.07,-118.69"/>
<g id="a_edge2&#45;headlabel"><a xlink:href="dir_000023_000024.html" target="_top" xlink:title="2">
<text text-anchor="middle" x="64.42" y="-120.57" font-family="Helvetica,sans-Serif" font-size="10.00">2</text>
</a>
</g>
</g>
<!-- dir_5880318873dbba54eaeafe8b295b00fd&#45;&gt;dir_d44c64559bbebec7f509842c48db8b23 -->
<g id="edge3" class="edge">
<title>dir_5880318873dbba54eaeafe8b295b00fd&#45;&gt;dir_d44c64559bbebec7f509842c48db8b23</title>
<path fill="none" stroke="black" d="M63.08,-71.7C59.93,-63.81 56.12,-54.3 52.62,-45.55"/>
<polygon fill="black" stroke="black" points="55.81,-44.09 48.84,-36.1 49.31,-46.69 55.81,-44.09"/>
<g id="a_edge3&#45;headlabel"><a xlink:href="dir_000024_000008.html" target="_top" xlink:title="3">
<text text-anchor="middle" x="59.78" y="-43.87" font-family="Helvetica,sans-Serif" font-size="10.00">3</text>
</a>
</g>
</g>
</g>
</svg>
