<?xml version="1.0" encoding="UTF-8" standalone="no"?>
<!DOCTYPE svg PUBLIC "-//W3C//DTD SVG 1.1//EN"
 "http://www.w3.org/Graphics/SVG/1.1/DTD/svg11.dtd">
<!-- Generated by graphviz version 2.44.1 (20200629.0846)
 -->
<!-- Title: user Pages: 1 -->
<svg width="238pt" height="204pt"
 viewBox="0.00 0.00 238.00 204.00" xmlns="http://www.w3.org/2000/svg" xmlns:xlink="http://www.w3.org/1999/xlink">
<g id="graph0" class="graph" transform="scale(1 1) rotate(0) translate(4 200)">
<title>user</title>
<polygon fill="white" stroke="transparent" points="-4,4 -4,-200 234,-200 234,4 -4,4"/>
<g id="clust1" class="cluster">
<title>clusterdir_111cd2f11cffd6d6d28d89ee0389ee9e</title>
<g id="a_clust1"><a xlink:href="dir_111cd2f11cffd6d6d28d89ee0389ee9e.html" target="_top">
<polygon fill="#eeeeff" stroke="black" points="8,-64 8,-188 222,-188 222,-64 8,-64"/>
</a>
</g>
</g>
<!-- dir_111cd2f11cffd6d6d28d89ee0389ee9e -->
<g id="node1" class="node">
<title>dir_111cd2f11cffd6d6d28d89ee0389ee9e</title>
<text text-anchor="middle" x="187" y="-159.5" font-family="Helvetica,sans-Serif" font-size="10.00">user</text>
</g>
<!-- dir_138147ba65aeb6cc2639f45f2e806c07 -->
<g id="node2" class="node">
<title>dir_138147ba65aeb6cc2639f45f2e806c07</title>
<g id="a_node2"><a xlink:href="dir_138147ba65aeb6cc2639f45f2e806c07.html" target="_top" xlink:title="entry">
<polygon fill="white" stroke="black" points="70,-180 16,-180 16,-144 70,-144 70,-180"/>
<text text-anchor="middle" x="43" y="-159.5" font-family="Helvetica,sans-Serif" font-size="10.00">entry</text>
</a>
</g>
</g>
<!-- dir_5880318873dbba54eaeafe8b295b00fd -->
<g id="node3" class="node">
<title>dir_5880318873dbba54eaeafe8b295b00fd</title>
<g id="a_node3"><a xlink:href="dir_5880318873dbba54eaeafe8b295b00fd.html" target="_top" xlink:title="include">
<polygon fill="white" stroke="black" points="87,-108 33,-108 33,-72 87,-72 87,-108"/>
<text text-anchor="middle" x="60" y="-87.5" font-family="Helvetica,sans-Serif" font-size="10.00">include</text>
</a>
</g>
</g>
<!-- dir_138147ba65aeb6cc2639f45f2e806c07&#45;&gt;dir_5880318873dbba54eaeafe8b295b00fd -->
<g id="edge4" class="edge">
<title>dir_138147ba65aeb6cc2639f45f2e806c07&#45;&gt;dir_5880318873dbba54eaeafe8b295b00fd</title>
<path fill="none" stroke="black" d="M47.2,-143.7C49.1,-135.9 51.38,-126.51 53.48,-117.83"/>
<polygon fill="black" stroke="black" points="56.89,-118.65 55.85,-108.1 50.08,-117 56.89,-118.65"/>
<g id="a_edge4&#45;headlabel"><a xlink:href="dir_000025_000024.html" target="_top" xlink:title="1">
<text text-anchor="middle" x="58.8" y="-120.31" font-family="Helvetica,sans-Serif" font-size="10.00">1</text>
</a>
</g>
</g>
<!-- dir_d44c64559bbebec7f509842c48db8b23 -->
<g id="node5" class="node">
<title>dir_d44c64559bbebec7f509842c48db8b23</title>
<g id="a_node5"><a xlink:href="dir_d44c64559bbebec7f509842c48db8b23.html" target="_top" xlink:title="include">
<polygon fill="none" stroke="black" points="114,-36 60,-36 60,0 114,0 114,-36"/>
<text text-anchor="middle" x="87" y="-15.5" font-family="Helvetica,sans-Serif" font-size="10.00">include</text>
</a>
</g>
</g>
<!-- dir_5880318873dbba54eaeafe8b295b00fd&#45;&gt;dir_d44c64559bbebec7f509842c48db8b23 -->
<g id="edge3" class="edge">
<title>dir_5880318873dbba54eaeafe8b295b00fd&#45;&gt;dir_d44c64559bbebec7f509842c48db8b23</title>
<path fill="none" stroke="black" d="M66.67,-71.7C69.71,-63.81 73.38,-54.3 76.76,-45.55"/>
<polygon fill="black" stroke="black" points="80.07,-46.69 80.4,-36.1 73.54,-44.17 80.07,-46.69"/>
<g id="a_edge3&#45;headlabel"><a xlink:href="dir_000024_000008.html" target="_top" xlink:title="3">
<text text-anchor="middle" x="81.42" y="-48.57" font-family="Helvetica,sans-Serif" font-size="10.00">3</text>
</a>
</g>
</g>
<!-- dir_2560747c518ec91f53c5daf773f8747c -->
<g id="node4" class="node">
<title>dir_2560747c518ec91f53c5daf773f8747c</title>
<g id="a_node4"><a xlink:href="dir_2560747c518ec91f53c5daf773f8747c.html" target="_top" xlink:title="lib">
<polygon fill="white" stroke="black" points="142,-180 88,-180 88,-144 142,-144 142,-180"/>
<text text-anchor="middle" x="115" y="-159.5" font-family="Helvetica,sans-Serif" font-size="10.00">lib</text>
</a>
</g>
</g>
<!-- dir_2560747c518ec91f53c5daf773f8747c&#45;&gt;dir_5880318873dbba54eaeafe8b295b00fd -->
<g id="edge2" class="edge">
<title>dir_2560747c518ec91f53c5daf773f8747c&#45;&gt;dir_5880318873dbba54eaeafe8b295b00fd</title>
<path fill="none" stroke="black" d="M101.4,-143.7C94.88,-135.39 86.93,-125.28 79.75,-116.14"/>
<polygon fill="black" stroke="black" points="82.37,-113.81 73.44,-108.1 76.87,-118.13 82.37,-113.81"/>
<g id="a_edge2&#45;headlabel"><a xlink:href="dir_000023_000024.html" target="_top" xlink:title="2">
<text text-anchor="middle" x="86.82" y="-112.38" font-family="Helvetica,sans-Serif" font-size="10.00">2</text>
</a>
</g>
</g>
<!-- dir_2560747c518ec91f53c5daf773f8747c&#45;&gt;dir_d44c64559bbebec7f509842c48db8b23 -->
<g id="edge1" class="edge">
<title>dir_2560747c518ec91f53c5daf773f8747c&#45;&gt;dir_d44c64559bbebec7f509842c48db8b23</title>
<path fill="none" stroke="black" d="M111.66,-143.82C107.88,-124.43 101.53,-91.94 96,-64 94.86,-58.24 93.63,-52.06 92.45,-46.18"/>
<polygon fill="black" stroke="black" points="95.83,-45.21 90.43,-36.09 88.97,-46.58 95.83,-45.21"/>
<g id="a_edge1&#45;headlabel"><a xlink:href="dir_000023_000008.html" target="_top" xlink:title="3">
<text text-anchor="middle" x="99.32" y="-45.68" font-family="Helvetica,sans-Serif" font-size="10.00">3</text>
</a>
</g>
</g>
</g>
</svg>
