<?xml version="1.0" encoding="UTF-8" standalone="no"?>
<!DOCTYPE svg PUBLIC "-//W3C//DTD SVG 1.1//EN"
 "http://www.w3.org/Graphics/SVG/1.1/DTD/svg11.dtd">
<!-- Generated by graphviz version 2.44.1 (20200629.0846)
 -->
<!-- Title: gdt.c Pages: 1 -->
<svg width="210pt" height="252pt"
 viewBox="0.00 0.00 210.00 252.00" xmlns="http://www.w3.org/2000/svg" xmlns:xlink="http://www.w3.org/1999/xlink">
<g id="graph0" class="graph" transform="scale(1 1) rotate(0) translate(4 248)">
<title>gdt.c</title>
<polygon fill="white" stroke="transparent" points="-4,4 -4,-248 206,-248 206,4 -4,4"/>
<!-- Node1 -->
<g id="node1" class="node">
<title>Node1</title>
<g id="a_node1"><a xlink:title=" ">
<polygon fill="#bfbfbf" stroke="black" points="109,-224.5 109,-243.5 147,-243.5 147,-224.5 109,-224.5"/>
<text text-anchor="middle" x="128" y="-231.5" font-family="Helvetica,sans-Serif" font-size="10.00">gdt.c</text>
</a>
</g>
</g>
<!-- Node2 -->
<g id="node2" class="node">
<title>Node2</title>
<g id="a_node2"><a xlink:href="memlayout_8h.html" target="_top" xlink:title=" ">
<polygon fill="white" stroke="black" points="74.5,-168.5 74.5,-187.5 181.5,-187.5 181.5,-168.5 74.5,-168.5"/>
<text text-anchor="middle" x="128" y="-175.5" font-family="Helvetica,sans-Serif" font-size="10.00">include/memlayout.h</text>
</a>
</g>
</g>
<!-- Node1&#45;&gt;Node2 -->
<g id="edge1" class="edge">
<title>Node1&#45;&gt;Node2</title>
<path fill="none" stroke="midnightblue" d="M128,-224.08C128,-217.01 128,-206.86 128,-197.99"/>
<polygon fill="midnightblue" stroke="midnightblue" points="131.5,-197.75 128,-187.75 124.5,-197.75 131.5,-197.75"/>
</g>
<!-- Node3 -->
<g id="node3" class="node">
<title>Node3</title>
<g id="a_node3"><a xlink:href="types_8h.html" target="_top" xlink:title=" ">
<polygon fill="white" stroke="black" points="86.5,-56.5 86.5,-75.5 169.5,-75.5 169.5,-56.5 86.5,-56.5"/>
<text text-anchor="middle" x="128" y="-63.5" font-family="Helvetica,sans-Serif" font-size="10.00">include/types.h</text>
</a>
</g>
</g>
<!-- Node2&#45;&gt;Node3 -->
<g id="edge2" class="edge">
<title>Node2&#45;&gt;Node3</title>
<path fill="none" stroke="midnightblue" d="M124.14,-168.25C120.44,-159.33 115.11,-145.01 113,-132 110.42,-116.1 115.07,-98.3 119.86,-85.35"/>
<polygon fill="midnightblue" stroke="midnightblue" points="123.23,-86.34 123.75,-75.76 116.74,-83.7 123.23,-86.34"/>
</g>
<!-- Node7 -->
<g id="node7" class="node">
<title>Node7</title>
<g id="a_node7"><a xlink:href="mmu_8h.html" target="_top" xlink:title=" ">
<polygon fill="white" stroke="black" points="122,-112.5 122,-131.5 202,-131.5 202,-112.5 122,-112.5"/>
<text text-anchor="middle" x="162" y="-119.5" font-family="Helvetica,sans-Serif" font-size="10.00">include/mmu.h</text>
</a>
</g>
</g>
<!-- Node2&#45;&gt;Node7 -->
<g id="edge7" class="edge">
<title>Node2&#45;&gt;Node7</title>
<path fill="none" stroke="midnightblue" d="M133.61,-168.08C138.37,-160.53 145.32,-149.49 151.15,-140.23"/>
<polygon fill="midnightblue" stroke="midnightblue" points="154.12,-142.08 156.49,-131.75 148.2,-138.35 154.12,-142.08"/>
</g>
<!-- Node4 -->
<g id="node4" class="node">
<title>Node4</title>
<g id="a_node4"><a xlink:title=" ">
<polygon fill="white" stroke="#bfbfbf" points="0,-0.5 0,-19.5 52,-19.5 52,-0.5 0,-0.5"/>
<text text-anchor="middle" x="26" y="-7.5" font-family="Helvetica,sans-Serif" font-size="10.00">stddef.h</text>
</a>
</g>
</g>
<!-- Node3&#45;&gt;Node4 -->
<g id="edge3" class="edge">
<title>Node3&#45;&gt;Node4</title>
<path fill="none" stroke="midnightblue" d="M111.61,-56.32C95.33,-47.7 70.13,-34.36 51.28,-24.39"/>
<polygon fill="midnightblue" stroke="midnightblue" points="52.82,-21.24 42.35,-19.65 49.55,-27.43 52.82,-21.24"/>
</g>
<!-- Node5 -->
<g id="node5" class="node">
<title>Node5</title>
<g id="a_node5"><a xlink:title=" ">
<polygon fill="white" stroke="#bfbfbf" points="70.5,-0.5 70.5,-19.5 119.5,-19.5 119.5,-0.5 70.5,-0.5"/>
<text text-anchor="middle" x="95" y="-7.5" font-family="Helvetica,sans-Serif" font-size="10.00">stdint.h</text>
</a>
</g>
</g>
<!-- Node3&#45;&gt;Node5 -->
<g id="edge4" class="edge">
<title>Node3&#45;&gt;Node5</title>
<path fill="none" stroke="midnightblue" d="M122.55,-56.08C117.99,-48.61 111.33,-37.72 105.71,-28.52"/>
<polygon fill="midnightblue" stroke="midnightblue" points="108.55,-26.46 100.35,-19.75 102.58,-30.11 108.55,-26.46"/>
</g>
<!-- Node6 -->
<g id="node6" class="node">
<title>Node6</title>
<g id="a_node6"><a xlink:href="ctype_8h.html" target="_top" xlink:title=" ">
<polygon fill="white" stroke="black" points="137.5,-0.5 137.5,-19.5 186.5,-19.5 186.5,-0.5 137.5,-0.5"/>
<text text-anchor="middle" x="162" y="-7.5" font-family="Helvetica,sans-Serif" font-size="10.00">ctype.h</text>
</a>
</g>
</g>
<!-- Node3&#45;&gt;Node6 -->
<g id="edge5" class="edge">
<title>Node3&#45;&gt;Node6</title>
<path fill="none" stroke="midnightblue" d="M128.45,-56.08C131.67,-48.38 138.44,-37.03 145.23,-27.65"/>
<polygon fill="midnightblue" stroke="midnightblue" points="147.99,-29.8 151.36,-19.75 142.46,-25.5 147.99,-29.8"/>
</g>
<!-- Node6&#45;&gt;Node3 -->
<g id="edge6" class="edge">
<title>Node6&#45;&gt;Node3</title>
<path fill="none" stroke="midnightblue" d="M161.62,-19.75C158.45,-27.4 151.7,-38.74 144.92,-48.14"/>
<polygon fill="midnightblue" stroke="midnightblue" points="142.13,-46.03 138.78,-56.08 147.67,-50.31 142.13,-46.03"/>
</g>
<!-- Node7&#45;&gt;Node3 -->
<g id="edge8" class="edge">
<title>Node7&#45;&gt;Node3</title>
<path fill="none" stroke="midnightblue" d="M156.39,-112.08C151.63,-104.53 144.68,-93.49 138.85,-84.23"/>
<polygon fill="midnightblue" stroke="midnightblue" points="141.8,-82.35 133.51,-75.75 135.88,-86.08 141.8,-82.35"/>
</g>
</g>
</svg>
