<?xml version="1.0" encoding="UTF-8" standalone="no"?>
<!DOCTYPE svg PUBLIC "-//W3C//DTD SVG 1.1//EN"
 "http://www.w3.org/Graphics/SVG/1.1/DTD/svg11.dtd">
<!-- Generated by graphviz version 2.44.1 (20200629.0846)
 -->
<!-- Title: pageFault2 Pages: 1 -->
<!--zoomable 204 -->
<svg id="main" version="1.1" xmlns="http://www.w3.org/2000/svg" xmlns:xlink="http://www.w3.org/1999/xlink" xml:space="preserve" onload="init(evt)">
<style type="text/css"><![CDATA[
.edge:hover path { stroke: red; }
.edge:hover polygon { stroke: red; fill: red; }
]]></style>
<script type="text/javascript"><![CDATA[
var edges = document.getElementsByTagName('g');
if (edges && edges.length) {
  for (var i=0;i<edges.length;i++) {
    if (edges[i].id.substr(0,4)=='edge') {
      edges[i].setAttribute('class','edge');
    }
  }
}
]]></script>
        <defs>
                <circle id="rim" cx="0" cy="0" r="7"/>
                <circle id="rim2" cx="0" cy="0" r="3.5"/>
                <g id="zoomPlus">
                        <use xlink:href="#rim" fill="#404040">
                                <set attributeName="fill" to="#808080" begin="zoomplus.mouseover" end="zoomplus.mouseout"/>
                        </use>
                        <path d="M-4,0h8M0,-4v8" fill="none" stroke="white" stroke-width="1.5" pointer-events="none"/>
                </g>
                <g id="zoomMin">
                        <use xlink:href="#rim" fill="#404040">
                                <set attributeName="fill" to="#808080" begin="zoomminus.mouseover" end="zoomminus.mouseout"/>
                        </use>
                        <path d="M-4,0h8" fill="none" stroke="white" stroke-width="1.5" pointer-events="none"/>
                </g>
                <g id="dirArrow">
                        <path fill="none" stroke="white" stroke-width="1.5" d="M0,-3.0v7 M-2.5,-0.5L0,-3.0L2.5,-0.5"/>
                </g>
               <g id="resetDef">
                       <use xlink:href="#rim2" fill="#404040">
                               <set attributeName="fill" to="#808080" begin="reset.mouseover" end="reset.mouseout"/>
                       </use>
               </g>
        </defs>

<script type="text/javascript">
var viewWidth = 1236;
var viewHeight = 204;
var sectionId = 'dynsection-2';
</script>
<script xlink:href="svgpan.js"/>
<svg id="graph" class="graph">
<g id="viewport">
<title>pageFault2</title>
<polygon fill="white" stroke="transparent" points="-4,4 -4,-199.69 1232,-199.69 1232,4 -4,4"/>
<!-- Node1 -->
<g id="node1" class="node">
<title>Node1</title>
<g id="a_node1"><a xlink:title=" ">
<polygon fill="#bfbfbf" stroke="black" points="0,-9.32 0,-28.32 65,-28.32 65,-9.32 0,-9.32"/>
<text text-anchor="middle" x="32.5" y="-16.32" font-family="Helvetica,sans-Serif" font-size="10.00">pageFault2</text>
</a>
</g>
</g>
<!-- Node2 -->
<g id="node2" class="node">
<title>Node2</title>
<g id="a_node2"><a xlink:href="namespaceconsole_1_1out.html#ac6f663e3971b66b8e130ee94755a150e" target="_top" xlink:title=" ">
<polygon fill="white" stroke="black" points="101,-9.32 101,-28.32 196,-28.32 196,-9.32 101,-9.32"/>
<text text-anchor="middle" x="148.5" y="-16.32" font-family="Helvetica,sans-Serif" font-size="10.00">console::out::print</text>
</a>
</g>
</g>
<!-- Node1&#45;&gt;Node2 -->
<g id="edge1" class="edge">
<title>Node1&#45;&gt;Node2</title>
<path fill="none" stroke="midnightblue" d="M65.26,-18.82C73.21,-18.82 81.99,-18.82 90.76,-18.82"/>
<polygon fill="midnightblue" stroke="midnightblue" points="91,-22.32 101,-18.82 91,-15.32 91,-22.32"/>
</g>
<!-- Node3 -->
<g id="node3" class="node">
<title>Node3</title>
<g id="a_node3"><a xlink:href="namespaceconsole_1_1out.html#a8f791bfac54067cadb1b9f18117b987b" target="_top" xlink:title=" ">
<polygon fill="white" stroke="black" points="232,-9.32 232,-28.32 338,-28.32 338,-9.32 232,-9.32"/>
<text text-anchor="middle" x="285" y="-16.32" font-family="Helvetica,sans-Serif" font-size="10.00">console::out::printVa</text>
</a>
</g>
</g>
<!-- Node2&#45;&gt;Node3 -->
<g id="edge2" class="edge">
<title>Node2&#45;&gt;Node3</title>
<path fill="none" stroke="midnightblue" d="M196.16,-18.82C204.45,-18.82 213.2,-18.82 221.84,-18.82"/>
<polygon fill="midnightblue" stroke="midnightblue" points="221.9,-22.32 231.9,-18.82 221.9,-15.32 221.9,-22.32"/>
</g>
<!-- Node4 -->
<g id="node4" class="node">
<title>Node4</title>
<g id="a_node4"><a xlink:href="namespaceconsole_1_1ge.html#af642934cb833142f133285fdb75ef7b7" target="_top" xlink:title=" ">
<polygon fill="white" stroke="black" points="374,-66.32 374,-85.32 494,-85.32 494,-66.32 374,-66.32"/>
<text text-anchor="middle" x="434" y="-73.32" font-family="Helvetica,sans-Serif" font-size="10.00">console::ge::printFmtVa</text>
</a>
</g>
</g>
<!-- Node3&#45;&gt;Node4 -->
<g id="edge3" class="edge">
<title>Node3&#45;&gt;Node4</title>
<path fill="none" stroke="midnightblue" d="M310.6,-28.36C334.77,-37.73 371.85,-52.11 398.86,-62.58"/>
<polygon fill="midnightblue" stroke="midnightblue" points="397.73,-65.9 408.32,-66.25 400.26,-59.37 397.73,-65.9"/>
</g>
<!-- Node11 -->
<g id="node11" class="node">
<title>Node11</title>
<g id="a_node11"><a xlink:href="namespaceconsole_1_1out.html#ad9fc97dff4404c2d21aedbb24691e7cb" target="_top" xlink:title=" ">
<polygon fill="white" stroke="black" points="692,-9.32 692,-28.32 802,-28.32 802,-9.32 692,-9.32"/>
<text text-anchor="middle" x="747" y="-16.32" font-family="Helvetica,sans-Serif" font-size="10.00">console::out::putChar</text>
</a>
</g>
</g>
<!-- Node3&#45;&gt;Node11 -->
<g id="edge20" class="edge">
<title>Node3&#45;&gt;Node11</title>
<path fill="none" stroke="midnightblue" d="M338.17,-12.67C409.89,-5.14 542.92,5.54 656,-3.82 666.29,-4.67 677.17,-6.06 687.68,-7.66"/>
<polygon fill="midnightblue" stroke="midnightblue" points="687.18,-11.13 697.61,-9.25 688.28,-4.22 687.18,-11.13"/>
</g>
<!-- Node5 -->
<g id="node5" class="node">
<title>Node5</title>
<g id="a_node5"><a xlink:href="printfmt_8cc.html#a708ec6ee2b8bd2d7a453d8d9436ed3b3" target="_top" xlink:title=" ">
<polygon fill="white" stroke="black" points="564,-142.32 564,-161.32 622,-161.32 622,-142.32 564,-142.32"/>
<text text-anchor="middle" x="593" y="-149.32" font-family="Helvetica,sans-Serif" font-size="10.00">_getIntVa</text>
</a>
</g>
</g>
<!-- Node4&#45;&gt;Node5 -->
<g id="edge4" class="edge">
<title>Node4&#45;&gt;Node5</title>
<path fill="none" stroke="midnightblue" d="M448.59,-85.43C466.53,-97.77 499.43,-119.21 530,-132.82 537.6,-136.21 545.99,-139.22 554.07,-141.8"/>
<polygon fill="midnightblue" stroke="midnightblue" points="553.11,-145.17 563.7,-144.72 555.14,-138.47 553.11,-145.17"/>
</g>
<!-- Node6 -->
<g id="node6" class="node">
<title>Node6</title>
<g id="a_node6"><a xlink:href="printfmt_8cc.html#af4b46892c76c8bfd27efdb20847eb7c8" target="_top" xlink:title=" ">
<polygon fill="white" stroke="black" points="560.5,-104.32 560.5,-123.32 625.5,-123.32 625.5,-104.32 560.5,-104.32"/>
<text text-anchor="middle" x="593" y="-111.32" font-family="Helvetica,sans-Serif" font-size="10.00">_getUIntVa</text>
</a>
</g>
</g>
<!-- Node4&#45;&gt;Node6 -->
<g id="edge5" class="edge">
<title>Node4&#45;&gt;Node6</title>
<path fill="none" stroke="midnightblue" d="M474.62,-85.41C497.72,-91 526.84,-98.05 550.3,-103.73"/>
<polygon fill="midnightblue" stroke="midnightblue" points="549.76,-107.2 560.3,-106.15 551.4,-100.4 549.76,-107.2"/>
</g>
<!-- Node7 -->
<g id="node7" class="node">
<title>Node7</title>
<g id="a_node7"><a xlink:href="namespacestr.html#a062221f630647cf300f0dd982c4ed904" target="_top" xlink:title=" ">
<polygon fill="white" stroke="black" points="1170,-99.32 1170,-118.32 1228,-118.32 1228,-99.32 1170,-99.32"/>
<text text-anchor="middle" x="1199" y="-106.32" font-family="Helvetica,sans-Serif" font-size="10.00">str::count</text>
</a>
</g>
</g>
<!-- Node4&#45;&gt;Node7 -->
<g id="edge6" class="edge">
<title>Node4&#45;&gt;Node7</title>
<path fill="none" stroke="midnightblue" d="M441.18,-85.54C454.55,-105.61 488.36,-151.39 530,-170.82 617.33,-211.57 649.63,-189.82 746,-189.82 746,-189.82 746,-189.82 899,-189.82 1000.55,-189.82 1114.97,-145.75 1168.02,-122.63"/>
<polygon fill="midnightblue" stroke="midnightblue" points="1169.77,-125.68 1177.5,-118.43 1166.93,-119.28 1169.77,-125.68"/>
</g>
<!-- Node8 -->
<g id="node8" class="node">
<title>Node8</title>
<g id="a_node8"><a xlink:href="printfmt_8cc.html#a0e3e484ece5e75b9f5fbe337f0ae8ae3" target="_top" xlink:title=" ">
<polygon fill="white" stroke="black" points="566.5,-66.32 566.5,-85.32 619.5,-85.32 619.5,-66.32 566.5,-66.32"/>
<text text-anchor="middle" x="593" y="-73.32" font-family="Helvetica,sans-Serif" font-size="10.00">describe</text>
</a>
</g>
</g>
<!-- Node4&#45;&gt;Node8 -->
<g id="edge7" class="edge">
<title>Node4&#45;&gt;Node8</title>
<path fill="none" stroke="midnightblue" d="M494.35,-75.82C515.12,-75.82 537.78,-75.82 556.04,-75.82"/>
<polygon fill="midnightblue" stroke="midnightblue" points="556.24,-79.32 566.24,-75.82 556.24,-72.32 556.24,-79.32"/>
</g>
<!-- Node10 -->
<g id="node10" class="node">
<title>Node10</title>
<g id="a_node10"><a xlink:href="namespaceconsole_1_1ge.html#a7e301813fd34fde772376afc5fdad95d" target="_top" xlink:title=" ">
<polygon fill="white" stroke="black" points="530,-28.32 530,-47.32 656,-47.32 656,-28.32 530,-28.32"/>
<text text-anchor="middle" x="593" y="-35.32" font-family="Helvetica,sans-Serif" font-size="10.00">console::ge::printNumber</text>
</a>
</g>
</g>
<!-- Node4&#45;&gt;Node10 -->
<g id="edge9" class="edge">
<title>Node4&#45;&gt;Node10</title>
<path fill="none" stroke="midnightblue" d="M474.62,-66.23C495.34,-61.22 520.89,-55.03 542.86,-49.72"/>
<polygon fill="midnightblue" stroke="midnightblue" points="543.77,-53.1 552.67,-47.34 542.12,-46.29 543.77,-53.1"/>
</g>
<!-- Node4&#45;&gt;Node11 -->
<g id="edge19" class="edge">
<title>Node4&#45;&gt;Node11</title>
<path fill="none" stroke="midnightblue" d="M446.33,-66.18C463.22,-52.49 496.63,-28.06 530,-18.82 579.52,-5.11 637.9,-6.07 681.48,-9.93"/>
<polygon fill="midnightblue" stroke="midnightblue" points="681.38,-13.44 691.66,-10.91 682.05,-6.47 681.38,-13.44"/>
</g>
<!-- Node9 -->
<g id="node9" class="node">
<title>Node9</title>
<g id="a_node9"><a xlink:href="namespacemonitor.html#a318993193c866642f8389a1c1f285739" target="_top" xlink:title=" ">
<polygon fill="white" stroke="black" points="710,-66.32 710,-85.32 784,-85.32 784,-66.32 710,-66.32"/>
<text text-anchor="middle" x="747" y="-73.32" font-family="Helvetica,sans-Serif" font-size="10.00">monitor::fuck</text>
</a>
</g>
</g>
<!-- Node8&#45;&gt;Node9 -->
<g id="edge8" class="edge">
<title>Node8&#45;&gt;Node9</title>
<path fill="none" stroke="midnightblue" d="M619.78,-75.82C641.62,-75.82 673.46,-75.82 699.7,-75.82"/>
<polygon fill="midnightblue" stroke="midnightblue" points="699.82,-79.32 709.82,-75.82 699.82,-72.32 699.82,-79.32"/>
</g>
<!-- Node10&#45;&gt;Node11 -->
<g id="edge10" class="edge">
<title>Node10&#45;&gt;Node11</title>
<path fill="none" stroke="midnightblue" d="M656.26,-30.04C664.66,-28.99 673.28,-27.91 681.71,-26.86"/>
<polygon fill="midnightblue" stroke="midnightblue" points="682.37,-30.3 691.86,-25.59 681.51,-23.36 682.37,-30.3"/>
</g>
<!-- Node12 -->
<g id="node12" class="node">
<title>Node12</title>
<g id="a_node12"><a xlink:href="namespaceconsole_1_1serial.html#a3a7c1f95ae3c24136ea63bb31fdf0391" target="_top" xlink:title=" ">
<polygon fill="white" stroke="black" points="838,-9.32 838,-28.32 958,-28.32 958,-9.32 838,-9.32"/>
<text text-anchor="middle" x="898" y="-16.32" font-family="Helvetica,sans-Serif" font-size="10.00">console::serial::putChar</text>
</a>
</g>
</g>
<!-- Node11&#45;&gt;Node12 -->
<g id="edge11" class="edge">
<title>Node11&#45;&gt;Node12</title>
<path fill="none" stroke="midnightblue" d="M802.21,-18.82C810.53,-18.82 819.2,-18.82 827.79,-18.82"/>
<polygon fill="midnightblue" stroke="midnightblue" points="827.79,-22.32 837.79,-18.82 827.79,-15.32 827.79,-22.32"/>
</g>
<!-- Node15 -->
<g id="node15" class="node">
<title>Node15</title>
<g id="a_node15"><a xlink:href="namespaceconsole_1_1cga.html#afa19057ca041b39682d5d4831c43dfa0" target="_top" xlink:title=" ">
<polygon fill="white" stroke="black" points="841.5,-47.32 841.5,-66.32 954.5,-66.32 954.5,-47.32 841.5,-47.32"/>
<text text-anchor="middle" x="898" y="-54.32" font-family="Helvetica,sans-Serif" font-size="10.00">console::cga::putChar</text>
</a>
</g>
</g>
<!-- Node11&#45;&gt;Node15 -->
<g id="edge14" class="edge">
<title>Node11&#45;&gt;Node15</title>
<path fill="none" stroke="midnightblue" d="M785.6,-28.41C805.08,-33.38 829.07,-39.5 849.8,-44.78"/>
<polygon fill="midnightblue" stroke="midnightblue" points="849.12,-48.22 859.67,-47.3 850.85,-41.44 849.12,-48.22"/>
</g>
<!-- Node13 -->
<g id="node13" class="node">
<title>Node13</title>
<g id="a_node13"><a xlink:href="namespaceconsole_1_1serial.html#aa5605d4537106bb1c2bab72d7d1a5824" target="_top" xlink:title=" ">
<polygon fill="white" stroke="black" points="1012,-9.32 1012,-28.32 1116,-28.32 1116,-9.32 1012,-9.32"/>
<text text-anchor="middle" x="1064" y="-16.32" font-family="Helvetica,sans-Serif" font-size="10.00">console::serial::sout</text>
</a>
</g>
</g>
<!-- Node12&#45;&gt;Node13 -->
<g id="edge12" class="edge">
<title>Node12&#45;&gt;Node13</title>
<path fill="none" stroke="midnightblue" d="M958.21,-18.82C972.31,-18.82 987.39,-18.82 1001.59,-18.82"/>
<polygon fill="midnightblue" stroke="midnightblue" points="1001.74,-22.32 1011.74,-18.82 1001.74,-15.32 1001.74,-22.32"/>
</g>
<!-- Node14 -->
<g id="node14" class="node">
<title>Node14</title>
<g id="a_node14"><a xlink:href="x86_8h.html#ade961b44e45ddacbc3c3b7609cf36dc6" target="_top" xlink:title=" ">
<polygon fill="white" stroke="black" points="1181.5,-42.32 1181.5,-61.32 1216.5,-61.32 1216.5,-42.32 1181.5,-42.32"/>
<text text-anchor="middle" x="1199" y="-49.32" font-family="Helvetica,sans-Serif" font-size="10.00">outb</text>
</a>
</g>
</g>
<!-- Node13&#45;&gt;Node14 -->
<g id="edge13" class="edge">
<title>Node13&#45;&gt;Node14</title>
<path fill="none" stroke="midnightblue" d="M1103.47,-28.37C1125.32,-33.79 1152.11,-40.44 1171.59,-45.27"/>
<polygon fill="midnightblue" stroke="midnightblue" points="1170.76,-48.67 1181.31,-47.68 1172.44,-41.88 1170.76,-48.67"/>
</g>
<!-- Node16 -->
<g id="node16" class="node">
<title>Node16</title>
<g id="a_node16"><a xlink:href="namespacemem.html#a64d9d05b439041901498c606de606431" target="_top" xlink:title=" ">
<polygon fill="white" stroke="black" points="1031.5,-90.32 1031.5,-109.32 1096.5,-109.32 1096.5,-90.32 1031.5,-90.32"/>
<text text-anchor="middle" x="1064" y="-97.32" font-family="Helvetica,sans-Serif" font-size="10.00">mem::copy</text>
</a>
</g>
</g>
<!-- Node15&#45;&gt;Node16 -->
<g id="edge15" class="edge">
<title>Node15&#45;&gt;Node16</title>
<path fill="none" stroke="midnightblue" d="M935.4,-66.37C960.92,-73.06 995.08,-82.01 1021.64,-88.98"/>
<polygon fill="midnightblue" stroke="midnightblue" points="1020.85,-92.39 1031.41,-91.54 1022.62,-85.62 1020.85,-92.39"/>
</g>
<!-- Node17 -->
<g id="node17" class="node">
<title>Node17</title>
<g id="a_node17"><a xlink:href="namespaceconsole_1_1cga.html#a06463d4dc68819e30615ba299d02a78f" target="_top" xlink:title=" ">
<polygon fill="white" stroke="black" points="994,-47.32 994,-66.32 1134,-66.32 1134,-47.32 994,-47.32"/>
<text text-anchor="middle" x="1064" y="-54.32" font-family="Helvetica,sans-Serif" font-size="10.00">console::cga::cursorRefresh</text>
</a>
</g>
</g>
<!-- Node15&#45;&gt;Node17 -->
<g id="edge17" class="edge">
<title>Node15&#45;&gt;Node17</title>
<path fill="none" stroke="midnightblue" d="M954.52,-56.82C963.9,-56.82 973.8,-56.82 983.65,-56.82"/>
<polygon fill="midnightblue" stroke="midnightblue" points="983.87,-60.32 993.87,-56.82 983.87,-53.32 983.87,-60.32"/>
</g>
<!-- Node16&#45;&gt;Node7 -->
<g id="edge16" class="edge">
<title>Node16&#45;&gt;Node7</title>
<path fill="none" stroke="midnightblue" d="M1096.52,-101.96C1115.49,-103.24 1139.77,-104.88 1159.82,-106.24"/>
<polygon fill="midnightblue" stroke="midnightblue" points="1159.66,-109.74 1169.87,-106.92 1160.13,-102.75 1159.66,-109.74"/>
</g>
<!-- Node17&#45;&gt;Node14 -->
<g id="edge18" class="edge">
<title>Node17&#45;&gt;Node14</title>
<path fill="none" stroke="midnightblue" d="M1134.23,-54.22C1147.48,-53.72 1160.59,-53.23 1171.45,-52.82"/>
<polygon fill="midnightblue" stroke="midnightblue" points="1171.61,-56.32 1181.47,-52.44 1171.35,-49.32 1171.61,-56.32"/>
</g>
</g>
</svg>
        <g id="navigator" transform="translate(0 0)" fill="#404254">
                <rect fill="#f2f5e9" fill-opacity="0.5" stroke="#606060" stroke-width=".5" x="0" y="0" width="60" height="60"/>
                <use id="zoomplus" xlink:href="#zoomPlus" x="17" y="9" onmousedown="handleZoom(evt,'in')"/>
                <use id="zoomminus" xlink:href="#zoomMin" x="42" y="9" onmousedown="handleZoom(evt,'out')"/>
                <use id="reset" xlink:href="#resetDef" x="30" y="36" onmousedown="handleReset()"/>
                <g id="arrowUp" xlink:href="#dirArrow" transform="translate(30 24)" onmousedown="handlePan(0,-1)">
                  <use xlink:href="#rim" fill="#404040">
                        <set attributeName="fill" to="#808080" begin="arrowUp.mouseover" end="arrowUp.mouseout"/>
                  </use>
                  <path fill="none" stroke="white" stroke-width="1.5" d="M0,-3.0v7 M-2.5,-0.5L0,-3.0L2.5,-0.5"/>
                </g>
                <g id="arrowRight" xlink:href="#dirArrow" transform="rotate(90) translate(36 -43)" onmousedown="handlePan(1,0)">
                  <use xlink:href="#rim" fill="#404040">
                        <set attributeName="fill" to="#808080" begin="arrowRight.mouseover" end="arrowRight.mouseout"/>
                  </use>
                  <path fill="none" stroke="white" stroke-width="1.5" d="M0,-3.0v7 M-2.5,-0.5L0,-3.0L2.5,-0.5"/>
                </g>
                <g id="arrowDown" xlink:href="#dirArrow" transform="rotate(180) translate(-30 -48)" onmousedown="handlePan(0,1)">
                  <use xlink:href="#rim" fill="#404040">
                        <set attributeName="fill" to="#808080" begin="arrowDown.mouseover" end="arrowDown.mouseout"/>
                  </use>
                  <path fill="none" stroke="white" stroke-width="1.5" d="M0,-3.0v7 M-2.5,-0.5L0,-3.0L2.5,-0.5"/>
                </g>
                <g id="arrowLeft" xlink:href="#dirArrow" transform="rotate(270) translate(-36 17)" onmousedown="handlePan(-1,0)">
                  <use xlink:href="#rim" fill="#404040">
                        <set attributeName="fill" to="#808080" begin="arrowLeft.mouseover" end="arrowLeft.mouseout"/>
                  </use>
                  <path fill="none" stroke="white" stroke-width="1.5" d="M0,-3.0v7 M-2.5,-0.5L0,-3.0L2.5,-0.5"/>
                </g>
        </g>
        <svg viewBox="0 0 15 15" width="100%" height="30px" preserveAspectRatio="xMaxYMin meet">
         <g id="arrow_out" transform="scale(0.3 0.3)">
          <a xlink:href="hello_8cc_af388020e11810ad40ff598217b3d4a00_cgraph_org.svg" target="_base">
           <rect id="button" ry="5" rx="5" y="6" x="6" height="38" width="38"
                fill="#f2f5e9" fill-opacity="0.5" stroke="#606060" stroke-width="1.0"/>
           <path id="arrow"
             d="M 11.500037,31.436501 C 11.940474,20.09759 22.043105,11.32322 32.158766,21.979434 L 37.068811,17.246167 C 37.068811,17.246167 37.088388,32 37.088388,32 L 22.160133,31.978069 C 22.160133,31.978069 26.997745,27.140456 26.997745,27.140456 C 18.528582,18.264221 13.291696,25.230495 11.500037,31.436501 z"
             style="fill:#404040;"/>
          </a>
         </g>
        </svg>
</svg>
