<?xml version="1.0" encoding="UTF-8" standalone="no"?>
<!DOCTYPE svg PUBLIC "-//W3C//DTD SVG 1.1//EN"
 "http://www.w3.org/Graphics/SVG/1.1/DTD/svg11.dtd">
<!-- Generated by graphviz version 2.44.1 (20200629.0846)
 -->
<!-- Title: pageFault4 Pages: 1 -->
<svg width="1838pt" height="631pt"
 viewBox="0.00 0.00 1838.00 631.38" xmlns="http://www.w3.org/2000/svg" xmlns:xlink="http://www.w3.org/1999/xlink">
<g id="graph0" class="graph" transform="scale(1 1) rotate(0) translate(4 627.38)">
<title>pageFault4</title>
<polygon fill="white" stroke="transparent" points="-4,4 -4,-627.38 1834,-627.38 1834,4 -4,4"/>
<!-- Node1 -->
<g id="node1" class="node">
<title>Node1</title>
<g id="a_node1"><a xlink:title=" ">
<polygon fill="#bfbfbf" stroke="black" points="0,-237.5 0,-256.5 65,-256.5 65,-237.5 0,-237.5"/>
<text text-anchor="middle" x="32.5" y="-244.5" font-family="Helvetica,sans-Serif" font-size="10.00">pageFault4</text>
</a>
</g>
</g>
<!-- Node2 -->
<g id="node2" class="node">
<title>Node2</title>
<g id="a_node2"><a xlink:href="namespaceksyscall.html#a20b510ff748ce75bc0860b4ff4e15a60" target="_top" xlink:title=" ">
<polygon fill="white" stroke="black" points="101,-256.5 101,-275.5 199,-275.5 199,-256.5 101,-256.5"/>
<text text-anchor="middle" x="150" y="-263.5" font-family="Helvetica,sans-Serif" font-size="10.00">ksyscall::putString</text>
</a>
</g>
</g>
<!-- Node1&#45;&gt;Node2 -->
<g id="edge1" class="edge">
<title>Node1&#45;&gt;Node2</title>
<path fill="none" stroke="midnightblue" d="M65.06,-252.19C73.02,-253.5 81.82,-254.95 90.64,-256.4"/>
<polygon fill="midnightblue" stroke="midnightblue" points="90.13,-259.86 100.56,-258.03 91.26,-252.95 90.13,-259.86"/>
</g>
<!-- Node41 -->
<g id="node41" class="node">
<title>Node41</title>
<g id="a_node41"><a xlink:href="stdlib_8hh.html#ab9656f5950c15e0f988c0cde1c3c07dd" target="_top" xlink:title=" ">
<polygon fill="white" stroke="black" points="126.5,-218.5 126.5,-237.5 173.5,-237.5 173.5,-218.5 126.5,-218.5"/>
<text text-anchor="middle" x="150" y="-225.5" font-family="Helvetica,sans-Serif" font-size="10.00">syscall</text>
</a>
</g>
</g>
<!-- Node1&#45;&gt;Node41 -->
<g id="edge58" class="edge">
<title>Node1&#45;&gt;Node41</title>
<path fill="none" stroke="midnightblue" d="M65.06,-241.81C80.95,-239.19 100.19,-236.03 116.25,-233.39"/>
<polygon fill="midnightblue" stroke="midnightblue" points="116.97,-236.82 126.27,-231.74 115.83,-229.91 116.97,-236.82"/>
</g>
<!-- Node3 -->
<g id="node3" class="node">
<title>Node3</title>
<g id="a_node3"><a xlink:href="namespacestr.html#a062221f630647cf300f0dd982c4ed904" target="_top" xlink:title=" ">
<polygon fill="white" stroke="black" points="1772,-209.5 1772,-228.5 1830,-228.5 1830,-209.5 1772,-209.5"/>
<text text-anchor="middle" x="1801" y="-216.5" font-family="Helvetica,sans-Serif" font-size="10.00">str::count</text>
</a>
</g>
</g>
<!-- Node2&#45;&gt;Node3 -->
<g id="edge2" class="edge">
<title>Node2&#45;&gt;Node3</title>
<path fill="none" stroke="midnightblue" d="M174.98,-256.4C222.96,-238.1 334.53,-200 432,-200 432,-200 432,-200 1496,-200 1591.83,-200 1704.32,-209.52 1761.87,-215.08"/>
<polygon fill="midnightblue" stroke="midnightblue" points="1761.66,-218.58 1771.96,-216.07 1762.35,-211.61 1761.66,-218.58"/>
</g>
<!-- Node4 -->
<g id="node4" class="node">
<title>Node4</title>
<g id="a_node4"><a xlink:href="structtask_1_1_task.html#acc107ba9ef939a92f459873765fb73eb" target="_top" xlink:title=" ">
<polygon fill="white" stroke="black" points="246.5,-313.5 246.5,-332.5 347.5,-332.5 347.5,-313.5 246.5,-313.5"/>
<text text-anchor="middle" x="297" y="-320.5" font-family="Helvetica,sans-Serif" font-size="10.00">task::Task::destroy</text>
</a>
</g>
</g>
<!-- Node2&#45;&gt;Node4 -->
<g id="edge3" class="edge">
<title>Node2&#45;&gt;Node4</title>
<path fill="none" stroke="midnightblue" d="M175.27,-275.54C199.11,-284.91 235.68,-299.29 262.33,-309.76"/>
<polygon fill="midnightblue" stroke="midnightblue" points="261.06,-313.03 271.65,-313.43 263.62,-306.51 261.06,-313.03"/>
</g>
<!-- Node12 -->
<g id="node12" class="node">
<title>Node12</title>
<g id="a_node12"><a xlink:href="namespaceconsole_1_1out.html#ac6f663e3971b66b8e130ee94755a150e" target="_top" xlink:title=" ">
<polygon fill="white" stroke="black" points="511.5,-294.5 511.5,-313.5 606.5,-313.5 606.5,-294.5 511.5,-294.5"/>
<text text-anchor="middle" x="559" y="-301.5" font-family="Helvetica,sans-Serif" font-size="10.00">console::out::print</text>
</a>
</g>
</g>
<!-- Node2&#45;&gt;Node12 -->
<g id="edge42" class="edge">
<title>Node2&#45;&gt;Node12</title>
<path fill="none" stroke="midnightblue" d="M199.29,-270.51C274.76,-277.55 420.34,-291.15 500.9,-298.67"/>
<polygon fill="midnightblue" stroke="midnightblue" points="501.06,-302.2 511.34,-299.64 501.71,-295.23 501.06,-302.2"/>
</g>
<!-- Node20 -->
<g id="node20" class="node">
<title>Node20</title>
<g id="a_node20"><a xlink:href="namespaceconsole_1_1out.html#ad9fc97dff4404c2d21aedbb24691e7cb" target="_top" xlink:title=" ">
<polygon fill="white" stroke="black" points="1271,-418.5 1271,-437.5 1381,-437.5 1381,-418.5 1271,-418.5"/>
<text text-anchor="middle" x="1326" y="-425.5" font-family="Helvetica,sans-Serif" font-size="10.00">console::out::putChar</text>
</a>
</g>
</g>
<!-- Node2&#45;&gt;Node20 -->
<g id="edge43" class="edge">
<title>Node2&#45;&gt;Node20</title>
<path fill="none" stroke="midnightblue" d="M153.44,-275.78C168.29,-332.63 251.76,-618 432,-618 432,-618 432,-618 1001,-618 1100.12,-618 1138.38,-641.23 1222,-588 1275.06,-554.22 1306.17,-482.19 1318.63,-447.48"/>
<polygon fill="midnightblue" stroke="midnightblue" points="1322.08,-448.22 1322.02,-437.62 1315.46,-445.94 1322.08,-448.22"/>
</g>
<!-- Node32 -->
<g id="node32" class="node">
<title>Node32</title>
<g id="a_node32"><a xlink:href="namespacevmem_1_1pgdir.html#ac95ef4d1250d2d48baf0c3f907025f45" target="_top" xlink:title=" ">
<polygon fill="white" stroke="black" points="235,-114.5 235,-133.5 359,-133.5 359,-114.5 235,-114.5"/>
<text text-anchor="middle" x="297" y="-121.5" font-family="Helvetica,sans-Serif" font-size="10.00">vmem::pgdir::userCheck</text>
</a>
</g>
</g>
<!-- Node2&#45;&gt;Node32 -->
<g id="edge44" class="edge">
<title>Node2&#45;&gt;Node32</title>
<path fill="none" stroke="midnightblue" d="M183.64,-256.49C189.14,-253.97 194.5,-250.84 199,-247 222.93,-226.55 215.82,-210.96 235,-186 247.68,-169.5 264.39,-152.8 277.11,-140.89"/>
<polygon fill="midnightblue" stroke="midnightblue" points="279.82,-143.16 284.81,-133.81 275.08,-138 279.82,-143.16"/>
</g>
<!-- Node5 -->
<g id="node5" class="node">
<title>Node5</title>
<g id="a_node5"><a xlink:href="x86_8h.html#ab3bac932074f6042165d3016b701900a" target="_top" xlink:title=" ">
<polygon fill="white" stroke="black" points="417,-332.5 417,-351.5 449,-351.5 449,-332.5 417,-332.5"/>
<text text-anchor="middle" x="433" y="-339.5" font-family="Helvetica,sans-Serif" font-size="10.00">lcr3</text>
</a>
</g>
</g>
<!-- Node4&#45;&gt;Node5 -->
<g id="edge4" class="edge">
<title>Node4&#45;&gt;Node5</title>
<path fill="none" stroke="midnightblue" d="M347.52,-330.02C367.7,-332.88 390.16,-336.07 406.84,-338.43"/>
<polygon fill="midnightblue" stroke="midnightblue" points="406.5,-341.92 416.89,-339.86 407.48,-334.99 406.5,-341.92"/>
</g>
<!-- Node6 -->
<g id="node6" class="node">
<title>Node6</title>
<g id="a_node6"><a xlink:href="namespacemonitor.html#ac02f947e274eb7d38cdfa803c21ef579" target="_top" xlink:title=" ">
<polygon fill="white" stroke="black" points="395,-370.5 395,-389.5 471,-389.5 471,-370.5 395,-370.5"/>
<text text-anchor="middle" x="433" y="-377.5" font-family="Helvetica,sans-Serif" font-size="10.00">monitor::main</text>
</a>
</g>
</g>
<!-- Node4&#45;&gt;Node6 -->
<g id="edge5" class="edge">
<title>Node4&#45;&gt;Node6</title>
<path fill="none" stroke="midnightblue" d="M320.43,-332.54C342.27,-341.83 375.66,-356.04 400.23,-366.49"/>
<polygon fill="midnightblue" stroke="midnightblue" points="398.93,-369.73 409.5,-370.43 401.67,-363.29 398.93,-369.73"/>
</g>
<!-- Node4&#45;&gt;Node12 -->
<g id="edge41" class="edge">
<title>Node4&#45;&gt;Node12</title>
<path fill="none" stroke="midnightblue" d="M347.52,-319.38C391.35,-316.18 455.31,-311.5 501.2,-308.15"/>
<polygon fill="midnightblue" stroke="midnightblue" points="501.57,-311.63 511.29,-307.41 501.06,-304.65 501.57,-311.63"/>
</g>
<!-- Node7 -->
<g id="node7" class="node">
<title>Node7</title>
<g id="a_node7"><a xlink:href="namespacemonitor.html#a8b88ed0586263051a6af8dbff388e314" target="_top" xlink:title=" ">
<polygon fill="white" stroke="black" points="509,-370.5 509,-389.5 609,-389.5 609,-370.5 509,-370.5"/>
<text text-anchor="middle" x="559" y="-377.5" font-family="Helvetica,sans-Serif" font-size="10.00">monitor::parseCmd</text>
</a>
</g>
</g>
<!-- Node6&#45;&gt;Node7 -->
<g id="edge6" class="edge">
<title>Node6&#45;&gt;Node7</title>
<path fill="none" stroke="midnightblue" d="M471.2,-380C479.9,-380 489.38,-380 498.77,-380"/>
<polygon fill="midnightblue" stroke="midnightblue" points="498.88,-383.5 508.88,-380 498.88,-376.5 498.88,-383.5"/>
</g>
<!-- Node6&#45;&gt;Node12 -->
<g id="edge12" class="edge">
<title>Node6&#45;&gt;Node12</title>
<path fill="none" stroke="midnightblue" d="M453.79,-370.32C459.42,-367.44 465.51,-364.2 471,-361 493.72,-347.77 518.75,-331.15 536.1,-319.27"/>
<polygon fill="midnightblue" stroke="midnightblue" points="538.17,-322.1 544.42,-313.54 534.2,-316.33 538.17,-322.1"/>
</g>
<!-- Node27 -->
<g id="node27" class="node">
<title>Node27</title>
<g id="a_node27"><a xlink:href="namespaceconsole_1_1err.html#a124c7e8527c0e3fd2b9636411aea7e82" target="_top" xlink:title=" ">
<polygon fill="white" stroke="black" points="513,-522.5 513,-541.5 605,-541.5 605,-522.5 513,-522.5"/>
<text text-anchor="middle" x="559" y="-529.5" font-family="Helvetica,sans-Serif" font-size="10.00">console::err::print</text>
</a>
</g>
</g>
<!-- Node6&#45;&gt;Node27 -->
<g id="edge32" class="edge">
<title>Node6&#45;&gt;Node27</title>
<path fill="none" stroke="midnightblue" d="M441.76,-389.51C462.11,-414.46 517.3,-482.11 543.64,-514.39"/>
<polygon fill="midnightblue" stroke="midnightblue" points="541.21,-516.96 550.25,-522.5 546.64,-512.53 541.21,-516.96"/>
</g>
<!-- Node29 -->
<g id="node29" class="node">
<title>Node29</title>
<g id="a_node29"><a xlink:href="namespaceconsole_1_1in.html#afa763e7729f2e6fbdcf4c14e44ad7a29" target="_top" xlink:title=" ">
<polygon fill="white" stroke="black" points="507,-408.5 507,-427.5 611,-427.5 611,-408.5 507,-408.5"/>
<text text-anchor="middle" x="559" y="-415.5" font-family="Helvetica,sans-Serif" font-size="10.00">console::in::readline</text>
</a>
</g>
</g>
<!-- Node6&#45;&gt;Node29 -->
<g id="edge36" class="edge">
<title>Node6&#45;&gt;Node29</title>
<path fill="none" stroke="midnightblue" d="M465.29,-389.59C481,-394.4 500.24,-400.3 517.11,-405.47"/>
<polygon fill="midnightblue" stroke="midnightblue" points="516.13,-408.83 526.72,-408.41 518.18,-402.14 516.13,-408.83"/>
</g>
<!-- Node8 -->
<g id="node8" class="node">
<title>Node8</title>
<g id="a_node8"><a xlink:href="namespacestr.html#ace5edf7e67a558a1c4ead28a66faba41" target="_top" xlink:title=" ">
<polygon fill="white" stroke="black" points="666.5,-370.5 666.5,-389.5 742.5,-389.5 742.5,-370.5 666.5,-370.5"/>
<text text-anchor="middle" x="704.5" y="-377.5" font-family="Helvetica,sans-Serif" font-size="10.00">str::cmpCase</text>
</a>
</g>
</g>
<!-- Node7&#45;&gt;Node8 -->
<g id="edge7" class="edge">
<title>Node7&#45;&gt;Node8</title>
<path fill="none" stroke="midnightblue" d="M609.38,-380C624.54,-380 641.16,-380 656.17,-380"/>
<polygon fill="midnightblue" stroke="midnightblue" points="656.27,-383.5 666.27,-380 656.27,-376.5 656.27,-383.5"/>
</g>
<!-- Node9 -->
<g id="node9" class="node">
<title>Node9</title>
<g id="a_node9"><a xlink:href="namespacestr.html#a12522233f7d73122d76de5c82e44a183" target="_top" xlink:title=" ">
<polygon fill="white" stroke="black" points="671,-332.5 671,-351.5 738,-351.5 738,-332.5 671,-332.5"/>
<text text-anchor="middle" x="704.5" y="-339.5" font-family="Helvetica,sans-Serif" font-size="10.00">str::splitWs</text>
</a>
</g>
</g>
<!-- Node7&#45;&gt;Node9 -->
<g id="edge8" class="edge">
<title>Node7&#45;&gt;Node9</title>
<path fill="none" stroke="midnightblue" d="M596.21,-370.41C615.9,-365.2 640.38,-358.72 660.97,-353.26"/>
<polygon fill="midnightblue" stroke="midnightblue" points="661.96,-356.62 670.74,-350.68 660.17,-349.85 661.96,-356.62"/>
</g>
<!-- Node10 -->
<g id="node10" class="node">
<title>Node10</title>
<g id="a_node10"><a xlink:href="namespacestr.html#a0e183e333ba05550c6b206906dbf0f10" target="_top" xlink:title=" ">
<polygon fill="white" stroke="black" points="825,-266.5 825,-285.5 877,-285.5 877,-266.5 825,-266.5"/>
<text text-anchor="middle" x="851" y="-273.5" font-family="Helvetica,sans-Serif" font-size="10.00">str::split</text>
</a>
</g>
</g>
<!-- Node9&#45;&gt;Node10 -->
<g id="edge9" class="edge">
<title>Node9&#45;&gt;Node10</title>
<path fill="none" stroke="midnightblue" d="M726.51,-332.4C751.02,-321.21 791.73,-302.62 819.66,-289.86"/>
<polygon fill="midnightblue" stroke="midnightblue" points="821.32,-292.95 828.96,-285.61 818.41,-286.58 821.32,-292.95"/>
</g>
<!-- Node10&#45;&gt;Node3 -->
<g id="edge10" class="edge">
<title>Node10&#45;&gt;Node3</title>
<path fill="none" stroke="midnightblue" d="M877.26,-269.66C894.77,-265.49 918.67,-260.22 940,-257 1036.17,-242.49 1060.74,-238 1158,-238 1158,-238 1158,-238 1496,-238 1591.83,-238 1704.32,-228.48 1761.87,-222.92"/>
<polygon fill="midnightblue" stroke="midnightblue" points="1762.35,-226.39 1771.96,-221.93 1761.66,-219.42 1762.35,-226.39"/>
</g>
<!-- Node11 -->
<g id="node11" class="node">
<title>Node11</title>
<g id="a_node11"><a xlink:href="namespacestr.html#a4b4d986113337f946299cef82449cf52" target="_top" xlink:title=" ">
<polygon fill="white" stroke="black" points="975,-266.5 975,-285.5 1025,-285.5 1025,-266.5 975,-266.5"/>
<text text-anchor="middle" x="1000" y="-273.5" font-family="Helvetica,sans-Serif" font-size="10.00">str::find</text>
</a>
</g>
</g>
<!-- Node10&#45;&gt;Node11 -->
<g id="edge11" class="edge">
<title>Node10&#45;&gt;Node11</title>
<path fill="none" stroke="midnightblue" d="M877.27,-276C901.33,-276 937.73,-276 964.47,-276"/>
<polygon fill="midnightblue" stroke="midnightblue" points="964.55,-279.5 974.55,-276 964.55,-272.5 964.55,-279.5"/>
</g>
<!-- Node13 -->
<g id="node13" class="node">
<title>Node13</title>
<g id="a_node13"><a xlink:href="namespaceconsole_1_1out.html#a8f791bfac54067cadb1b9f18117b987b" target="_top" xlink:title=" ">
<polygon fill="white" stroke="black" points="798,-323.5 798,-342.5 904,-342.5 904,-323.5 798,-323.5"/>
<text text-anchor="middle" x="851" y="-330.5" font-family="Helvetica,sans-Serif" font-size="10.00">console::out::printVa</text>
</a>
</g>
</g>
<!-- Node12&#45;&gt;Node13 -->
<g id="edge13" class="edge">
<title>Node12&#45;&gt;Node13</title>
<path fill="none" stroke="midnightblue" d="M606.56,-308.12C647.52,-311.81 708.75,-317.47 762,-323 770.35,-323.87 779.15,-324.82 787.82,-325.78"/>
<polygon fill="midnightblue" stroke="midnightblue" points="787.57,-329.28 797.9,-326.91 788.35,-322.32 787.57,-329.28"/>
</g>
<!-- Node14 -->
<g id="node14" class="node">
<title>Node14</title>
<g id="a_node14"><a xlink:href="namespaceconsole_1_1ge.html#af642934cb833142f133285fdb75ef7b7" target="_top" xlink:title=" ">
<polygon fill="white" stroke="black" points="940,-399.5 940,-418.5 1060,-418.5 1060,-399.5 940,-399.5"/>
<text text-anchor="middle" x="1000" y="-406.5" font-family="Helvetica,sans-Serif" font-size="10.00">console::ge::printFmtVa</text>
</a>
</g>
</g>
<!-- Node13&#45;&gt;Node14 -->
<g id="edge14" class="edge">
<title>Node13&#45;&gt;Node14</title>
<path fill="none" stroke="midnightblue" d="M870.62,-342.63C896.13,-355.82 942.15,-379.61 971.6,-394.83"/>
<polygon fill="midnightblue" stroke="midnightblue" points="970.04,-397.97 980.53,-399.45 973.26,-391.75 970.04,-397.97"/>
</g>
<!-- Node13&#45;&gt;Node20 -->
<g id="edge31" class="edge">
<title>Node13&#45;&gt;Node20</title>
<path fill="none" stroke="midnightblue" d="M890.47,-323.44C959.98,-308.2 1109.74,-284.71 1222,-333 1243.37,-342.19 1241.12,-355 1258,-371 1273.24,-385.44 1291.43,-400.81 1305.01,-411.95"/>
<polygon fill="midnightblue" stroke="midnightblue" points="1302.84,-414.69 1312.8,-418.29 1307.25,-409.26 1302.84,-414.69"/>
</g>
<!-- Node14&#45;&gt;Node3 -->
<g id="edge17" class="edge">
<title>Node14&#45;&gt;Node3</title>
<path fill="none" stroke="midnightblue" d="M1009.25,-399.41C1024.44,-382.52 1058.71,-347.84 1096,-333 1190.89,-295.24 1222.87,-314 1325,-314 1325,-314 1325,-314 1496,-314 1606.17,-314 1633.07,-291.27 1736,-252 1749.23,-246.95 1763.28,-239.91 1774.84,-233.63"/>
<polygon fill="midnightblue" stroke="midnightblue" points="1776.86,-236.51 1783.89,-228.59 1773.45,-230.4 1776.86,-236.51"/>
</g>
<!-- Node15 -->
<g id="node15" class="node">
<title>Node15</title>
<g id="a_node15"><a xlink:href="printfmt_8cc.html#a708ec6ee2b8bd2d7a453d8d9436ed3b3" target="_top" xlink:title=" ">
<polygon fill="white" stroke="black" points="1130,-494.5 1130,-513.5 1188,-513.5 1188,-494.5 1130,-494.5"/>
<text text-anchor="middle" x="1159" y="-501.5" font-family="Helvetica,sans-Serif" font-size="10.00">_getIntVa</text>
</a>
</g>
</g>
<!-- Node14&#45;&gt;Node15 -->
<g id="edge15" class="edge">
<title>Node14&#45;&gt;Node15</title>
<path fill="none" stroke="midnightblue" d="M1010.37,-418.57C1026.48,-434.5 1061.08,-466.55 1096,-485 1103.5,-488.96 1111.96,-492.24 1120.16,-494.89"/>
<polygon fill="midnightblue" stroke="midnightblue" points="1119.37,-498.31 1129.95,-497.82 1121.37,-491.6 1119.37,-498.31"/>
</g>
<!-- Node16 -->
<g id="node16" class="node">
<title>Node16</title>
<g id="a_node16"><a xlink:href="printfmt_8cc.html#af4b46892c76c8bfd27efdb20847eb7c8" target="_top" xlink:title=" ">
<polygon fill="white" stroke="black" points="1126.5,-456.5 1126.5,-475.5 1191.5,-475.5 1191.5,-456.5 1126.5,-456.5"/>
<text text-anchor="middle" x="1159" y="-463.5" font-family="Helvetica,sans-Serif" font-size="10.00">_getUIntVa</text>
</a>
</g>
</g>
<!-- Node14&#45;&gt;Node16 -->
<g id="edge16" class="edge">
<title>Node14&#45;&gt;Node16</title>
<path fill="none" stroke="midnightblue" d="M1023.45,-418.59C1042.57,-426.62 1070.87,-438.14 1096,-447 1102.56,-449.31 1109.57,-451.62 1116.43,-453.78"/>
<polygon fill="midnightblue" stroke="midnightblue" points="1115.71,-457.22 1126.29,-456.84 1117.78,-450.54 1115.71,-457.22"/>
</g>
<!-- Node17 -->
<g id="node17" class="node">
<title>Node17</title>
<g id="a_node17"><a xlink:href="printfmt_8cc.html#a0e3e484ece5e75b9f5fbe337f0ae8ae3" target="_top" xlink:title=" ">
<polygon fill="white" stroke="black" points="1132.5,-342.5 1132.5,-361.5 1185.5,-361.5 1185.5,-342.5 1132.5,-342.5"/>
<text text-anchor="middle" x="1159" y="-349.5" font-family="Helvetica,sans-Serif" font-size="10.00">describe</text>
</a>
</g>
</g>
<!-- Node14&#45;&gt;Node17 -->
<g id="edge18" class="edge">
<title>Node14&#45;&gt;Node17</title>
<path fill="none" stroke="midnightblue" d="M1027.28,-399.46C1053.44,-389.96 1093.76,-375.32 1122.7,-364.82"/>
<polygon fill="midnightblue" stroke="midnightblue" points="1124.21,-367.99 1132.42,-361.29 1121.82,-361.41 1124.21,-367.99"/>
</g>
<!-- Node19 -->
<g id="node19" class="node">
<title>Node19</title>
<g id="a_node19"><a xlink:href="namespaceconsole_1_1ge.html#a7e301813fd34fde772376afc5fdad95d" target="_top" xlink:title=" ">
<polygon fill="white" stroke="black" points="1096,-418.5 1096,-437.5 1222,-437.5 1222,-418.5 1096,-418.5"/>
<text text-anchor="middle" x="1159" y="-425.5" font-family="Helvetica,sans-Serif" font-size="10.00">console::ge::printNumber</text>
</a>
</g>
</g>
<!-- Node14&#45;&gt;Node19 -->
<g id="edge20" class="edge">
<title>Node14&#45;&gt;Node19</title>
<path fill="none" stroke="midnightblue" d="M1060.35,-416.18C1068.72,-417.2 1077.39,-418.24 1085.96,-419.28"/>
<polygon fill="midnightblue" stroke="midnightblue" points="1085.6,-422.76 1095.95,-420.49 1086.44,-415.81 1085.6,-422.76"/>
</g>
<!-- Node14&#45;&gt;Node20 -->
<g id="edge30" class="edge">
<title>Node14&#45;&gt;Node20</title>
<path fill="none" stroke="midnightblue" d="M1060.23,-406.08C1104.81,-404.59 1167.36,-404 1222,-409 1238.8,-410.54 1256.94,-413.45 1273.25,-416.55"/>
<polygon fill="midnightblue" stroke="midnightblue" points="1272.66,-420 1283.15,-418.49 1274.01,-413.13 1272.66,-420"/>
</g>
<!-- Node18 -->
<g id="node18" class="node">
<title>Node18</title>
<g id="a_node18"><a xlink:href="namespacemonitor.html#a318993193c866642f8389a1c1f285739" target="_top" xlink:title=" ">
<polygon fill="white" stroke="black" points="1289,-342.5 1289,-361.5 1363,-361.5 1363,-342.5 1289,-342.5"/>
<text text-anchor="middle" x="1326" y="-349.5" font-family="Helvetica,sans-Serif" font-size="10.00">monitor::fuck</text>
</a>
</g>
</g>
<!-- Node17&#45;&gt;Node18 -->
<g id="edge19" class="edge">
<title>Node17&#45;&gt;Node18</title>
<path fill="none" stroke="midnightblue" d="M1185.78,-352C1210.59,-352 1248.66,-352 1278.73,-352"/>
<polygon fill="midnightblue" stroke="midnightblue" points="1278.99,-355.5 1288.99,-352 1278.99,-348.5 1278.99,-355.5"/>
</g>
<!-- Node19&#45;&gt;Node20 -->
<g id="edge21" class="edge">
<title>Node19&#45;&gt;Node20</title>
<path fill="none" stroke="midnightblue" d="M1222.38,-428C1234.86,-428 1247.99,-428 1260.53,-428"/>
<polygon fill="midnightblue" stroke="midnightblue" points="1260.91,-431.5 1270.91,-428 1260.91,-424.5 1260.91,-431.5"/>
</g>
<!-- Node21 -->
<g id="node21" class="node">
<title>Node21</title>
<g id="a_node21"><a xlink:href="namespaceconsole_1_1serial.html#a3a7c1f95ae3c24136ea63bb31fdf0391" target="_top" xlink:title=" ">
<polygon fill="white" stroke="black" points="1435,-418.5 1435,-437.5 1555,-437.5 1555,-418.5 1435,-418.5"/>
<text text-anchor="middle" x="1495" y="-425.5" font-family="Helvetica,sans-Serif" font-size="10.00">console::serial::putChar</text>
</a>
</g>
</g>
<!-- Node20&#45;&gt;Node21 -->
<g id="edge22" class="edge">
<title>Node20&#45;&gt;Node21</title>
<path fill="none" stroke="midnightblue" d="M1381.22,-428C1395.02,-428 1410.03,-428 1424.47,-428"/>
<polygon fill="midnightblue" stroke="midnightblue" points="1424.86,-431.5 1434.86,-428 1424.86,-424.5 1424.86,-431.5"/>
</g>
<!-- Node24 -->
<g id="node24" class="node">
<title>Node24</title>
<g id="a_node24"><a xlink:href="namespaceconsole_1_1cga.html#afa19057ca041b39682d5d4831c43dfa0" target="_top" xlink:title=" ">
<polygon fill="white" stroke="black" points="1438.5,-380.5 1438.5,-399.5 1551.5,-399.5 1551.5,-380.5 1438.5,-380.5"/>
<text text-anchor="middle" x="1495" y="-387.5" font-family="Helvetica,sans-Serif" font-size="10.00">console::cga::putChar</text>
</a>
</g>
</g>
<!-- Node20&#45;&gt;Node24 -->
<g id="edge25" class="edge">
<title>Node20&#45;&gt;Node24</title>
<path fill="none" stroke="midnightblue" d="M1369.14,-418.41C1391.38,-413.35 1418.85,-407.1 1442.36,-401.75"/>
<polygon fill="midnightblue" stroke="midnightblue" points="1443.19,-405.15 1452.16,-399.52 1441.63,-398.33 1443.19,-405.15"/>
</g>
<!-- Node22 -->
<g id="node22" class="node">
<title>Node22</title>
<g id="a_node22"><a xlink:href="namespaceconsole_1_1serial.html#aa5605d4537106bb1c2bab72d7d1a5824" target="_top" xlink:title=" ">
<polygon fill="white" stroke="black" points="1614,-418.5 1614,-437.5 1718,-437.5 1718,-418.5 1614,-418.5"/>
<text text-anchor="middle" x="1666" y="-425.5" font-family="Helvetica,sans-Serif" font-size="10.00">console::serial::sout</text>
</a>
</g>
</g>
<!-- Node21&#45;&gt;Node22 -->
<g id="edge23" class="edge">
<title>Node21&#45;&gt;Node22</title>
<path fill="none" stroke="midnightblue" d="M1555.11,-428C1570.8,-428 1587.79,-428 1603.6,-428"/>
<polygon fill="midnightblue" stroke="midnightblue" points="1603.8,-431.5 1613.8,-428 1603.8,-424.5 1603.8,-431.5"/>
</g>
<!-- Node23 -->
<g id="node23" class="node">
<title>Node23</title>
<g id="a_node23"><a xlink:href="x86_8h.html#ade961b44e45ddacbc3c3b7609cf36dc6" target="_top" xlink:title=" ">
<polygon fill="white" stroke="black" points="1783.5,-399.5 1783.5,-418.5 1818.5,-418.5 1818.5,-399.5 1783.5,-399.5"/>
<text text-anchor="middle" x="1801" y="-406.5" font-family="Helvetica,sans-Serif" font-size="10.00">outb</text>
</a>
</g>
</g>
<!-- Node22&#45;&gt;Node23 -->
<g id="edge24" class="edge">
<title>Node22&#45;&gt;Node23</title>
<path fill="none" stroke="midnightblue" d="M1718.04,-420.71C1736.85,-418.02 1757.4,-415.09 1773.22,-412.83"/>
<polygon fill="midnightblue" stroke="midnightblue" points="1773.94,-416.26 1783.34,-411.38 1772.95,-409.33 1773.94,-416.26"/>
</g>
<!-- Node25 -->
<g id="node25" class="node">
<title>Node25</title>
<g id="a_node25"><a xlink:href="namespacemem.html#a64d9d05b439041901498c606de606431" target="_top" xlink:title=" ">
<polygon fill="white" stroke="black" points="1633.5,-342.5 1633.5,-361.5 1698.5,-361.5 1698.5,-342.5 1633.5,-342.5"/>
<text text-anchor="middle" x="1666" y="-349.5" font-family="Helvetica,sans-Serif" font-size="10.00">mem::copy</text>
</a>
</g>
</g>
<!-- Node24&#45;&gt;Node25 -->
<g id="edge26" class="edge">
<title>Node24&#45;&gt;Node25</title>
<path fill="none" stroke="midnightblue" d="M1538.65,-380.41C1564.63,-374.57 1597.68,-367.14 1623.46,-361.34"/>
<polygon fill="midnightblue" stroke="midnightblue" points="1624.32,-364.74 1633.31,-359.13 1622.78,-357.91 1624.32,-364.74"/>
</g>
<!-- Node26 -->
<g id="node26" class="node">
<title>Node26</title>
<g id="a_node26"><a xlink:href="namespaceconsole_1_1cga.html#a06463d4dc68819e30615ba299d02a78f" target="_top" xlink:title=" ">
<polygon fill="white" stroke="black" points="1596,-380.5 1596,-399.5 1736,-399.5 1736,-380.5 1596,-380.5"/>
<text text-anchor="middle" x="1666" y="-387.5" font-family="Helvetica,sans-Serif" font-size="10.00">console::cga::cursorRefresh</text>
</a>
</g>
</g>
<!-- Node24&#45;&gt;Node26 -->
<g id="edge28" class="edge">
<title>Node24&#45;&gt;Node26</title>
<path fill="none" stroke="midnightblue" d="M1551.81,-390C1562.74,-390 1574.39,-390 1585.92,-390"/>
<polygon fill="midnightblue" stroke="midnightblue" points="1585.99,-393.5 1595.99,-390 1585.99,-386.5 1585.99,-393.5"/>
</g>
<!-- Node25&#45;&gt;Node3 -->
<g id="edge27" class="edge">
<title>Node25&#45;&gt;Node3</title>
<path fill="none" stroke="midnightblue" d="M1698.55,-346.02C1711.22,-342.42 1725.31,-336.77 1736,-328 1765.4,-303.87 1784.33,-262.44 1793.49,-238.2"/>
<polygon fill="midnightblue" stroke="midnightblue" points="1796.82,-239.28 1796.91,-228.68 1790.23,-236.91 1796.82,-239.28"/>
</g>
<!-- Node26&#45;&gt;Node23 -->
<g id="edge29" class="edge">
<title>Node26&#45;&gt;Node23</title>
<path fill="none" stroke="midnightblue" d="M1733.89,-399.56C1747.81,-401.54 1761.71,-403.53 1773.15,-405.16"/>
<polygon fill="midnightblue" stroke="midnightblue" points="1772.88,-408.66 1783.28,-406.61 1773.87,-401.73 1772.88,-408.66"/>
</g>
<!-- Node28 -->
<g id="node28" class="node">
<title>Node28</title>
<g id="a_node28"><a xlink:href="namespaceconsole_1_1err.html#a4cd18e4c409b5b17ecec61ce83b05fba" target="_top" xlink:title=" ">
<polygon fill="white" stroke="black" points="799,-570.5 799,-589.5 903,-589.5 903,-570.5 799,-570.5"/>
<text text-anchor="middle" x="851" y="-577.5" font-family="Helvetica,sans-Serif" font-size="10.00">console::err::printVa</text>
</a>
</g>
</g>
<!-- Node27&#45;&gt;Node28 -->
<g id="edge33" class="edge">
<title>Node27&#45;&gt;Node28</title>
<path fill="none" stroke="midnightblue" d="M605.31,-539.5C654.65,-547.67 733.84,-560.77 788.71,-569.85"/>
<polygon fill="midnightblue" stroke="midnightblue" points="788.22,-573.32 798.65,-571.5 789.36,-566.42 788.22,-573.32"/>
</g>
<!-- Node28&#45;&gt;Node14 -->
<g id="edge34" class="edge">
<title>Node28&#45;&gt;Node14</title>
<path fill="none" stroke="midnightblue" d="M860.32,-570.32C884.28,-542.45 953.61,-461.8 984.2,-426.22"/>
<polygon fill="midnightblue" stroke="midnightblue" points="986.9,-428.44 990.77,-418.58 981.59,-423.88 986.9,-428.44"/>
</g>
<!-- Node28&#45;&gt;Node20 -->
<g id="edge35" class="edge">
<title>Node28&#45;&gt;Node20</title>
<path fill="none" stroke="midnightblue" d="M903.28,-589.03C978.02,-599.57 1119.17,-609.4 1222,-556 1268.65,-531.78 1301.51,-476.1 1316.26,-446.81"/>
<polygon fill="midnightblue" stroke="midnightblue" points="1319.49,-448.17 1320.72,-437.64 1313.2,-445.11 1319.49,-448.17"/>
</g>
<!-- Node30 -->
<g id="node30" class="node">
<title>Node30</title>
<g id="a_node30"><a xlink:href="namespaceconsole_1_1in.html#ac28354dad0498aa6bb0c178b10d62c8a" target="_top" xlink:title=" ">
<polygon fill="white" stroke="black" points="647,-408.5 647,-427.5 762,-427.5 762,-408.5 647,-408.5"/>
<text text-anchor="middle" x="704.5" y="-415.5" font-family="Helvetica,sans-Serif" font-size="10.00">console::in::readlineVa</text>
</a>
</g>
</g>
<!-- Node29&#45;&gt;Node30 -->
<g id="edge37" class="edge">
<title>Node29&#45;&gt;Node30</title>
<path fill="none" stroke="midnightblue" d="M611.4,-418C619.52,-418 628.02,-418 636.43,-418"/>
<polygon fill="midnightblue" stroke="midnightblue" points="636.62,-421.5 646.62,-418 636.62,-414.5 636.62,-421.5"/>
</g>
<!-- Node30&#45;&gt;Node13 -->
<g id="edge39" class="edge">
<title>Node30&#45;&gt;Node13</title>
<path fill="none" stroke="midnightblue" d="M739.69,-408.46C747.23,-405.82 755.04,-402.66 762,-399 788.05,-385.3 814.64,-364.18 831.66,-349.53"/>
<polygon fill="midnightblue" stroke="midnightblue" points="834.43,-351.76 839.64,-342.53 829.82,-346.49 834.43,-351.76"/>
</g>
<!-- Node30&#45;&gt;Node20 -->
<g id="edge40" class="edge">
<title>Node30&#45;&gt;Node20</title>
<path fill="none" stroke="midnightblue" d="M721.7,-427.73C786.69,-465.47 1034.07,-596.43 1222,-523 1261.61,-507.52 1295.15,-468.89 1312.44,-445.94"/>
<polygon fill="midnightblue" stroke="midnightblue" points="1315.37,-447.86 1318.44,-437.72 1309.72,-443.73 1315.37,-447.86"/>
</g>
<!-- Node31 -->
<g id="node31" class="node">
<title>Node31</title>
<g id="a_node31"><a xlink:href="namespaceconsole_1_1in.html#a6fc069f2bc57fda183e3b991c31ec5a7" target="_top" xlink:title=" ">
<polygon fill="white" stroke="black" points="799,-408.5 799,-427.5 903,-427.5 903,-408.5 799,-408.5"/>
<text text-anchor="middle" x="851" y="-415.5" font-family="Helvetica,sans-Serif" font-size="10.00">console::in::getChar</text>
</a>
</g>
</g>
<!-- Node30&#45;&gt;Node31 -->
<g id="edge38" class="edge">
<title>Node30&#45;&gt;Node31</title>
<path fill="none" stroke="midnightblue" d="M762.2,-418C770.83,-418 779.78,-418 788.52,-418"/>
<polygon fill="midnightblue" stroke="midnightblue" points="788.64,-421.5 798.64,-418 788.64,-414.5 788.64,-421.5"/>
</g>
<!-- Node33 -->
<g id="node33" class="node">
<title>Node33</title>
<g id="a_node33"><a xlink:href="namespacevmem_1_1pgdir.html#a933a8f939084dabdb1a4b5401bebf8d7" target="_top" xlink:title=" ">
<polygon fill="white" stroke="black" points="1105.5,-85.5 1105.5,-104.5 1212.5,-104.5 1212.5,-85.5 1105.5,-85.5"/>
<text text-anchor="middle" x="1159" y="-92.5" font-family="Helvetica,sans-Serif" font-size="10.00">vmem::pgdir::findPte</text>
</a>
</g>
</g>
<!-- Node32&#45;&gt;Node33 -->
<g id="edge45" class="edge">
<title>Node32&#45;&gt;Node33</title>
<path fill="none" stroke="midnightblue" d="M359.18,-120.32C411.85,-117.47 489.9,-114 558,-114 558,-114 558,-114 852,-114 936.33,-114 1033.48,-106.72 1095.28,-101.18"/>
<polygon fill="midnightblue" stroke="midnightblue" points="1095.62,-104.66 1105.27,-100.27 1094.99,-97.69 1095.62,-104.66"/>
</g>
<!-- Node34 -->
<g id="node34" class="node">
<title>Node34</title>
<g id="a_node34"><a xlink:href="structvmem_1_1_page_info.html#afcdcb7e941219a8ec999353658e3c2aa" target="_top" xlink:title=" ">
<polygon fill="white" stroke="black" points="1268.5,-114.5 1268.5,-133.5 1383.5,-133.5 1383.5,-114.5 1268.5,-114.5"/>
<text text-anchor="middle" x="1326" y="-121.5" font-family="Helvetica,sans-Serif" font-size="10.00">vmem::PageInfo::alloc</text>
</a>
</g>
</g>
<!-- Node33&#45;&gt;Node34 -->
<g id="edge46" class="edge">
<title>Node33&#45;&gt;Node34</title>
<path fill="none" stroke="midnightblue" d="M1212.66,-104.26C1227.9,-106.93 1244.71,-109.89 1260.59,-112.68"/>
<polygon fill="midnightblue" stroke="midnightblue" points="1260.4,-116.2 1270.85,-114.48 1261.61,-109.31 1260.4,-116.2"/>
</g>
<!-- Node35 -->
<g id="node35" class="node">
<title>Node35</title>
<g id="a_node35"><a xlink:href="namespacemem.html#a981dd0cb1408b798a79443c6245e9c55" target="_top" xlink:title=" ">
<polygon fill="white" stroke="black" points="1462.5,-133.5 1462.5,-152.5 1527.5,-152.5 1527.5,-133.5 1462.5,-133.5"/>
<text text-anchor="middle" x="1495" y="-140.5" font-family="Helvetica,sans-Serif" font-size="10.00">mem::clear</text>
</a>
</g>
</g>
<!-- Node33&#45;&gt;Node35 -->
<g id="edge53" class="edge">
<title>Node33&#45;&gt;Node35</title>
<path fill="none" stroke="midnightblue" d="M1174.16,-104.53C1192.54,-116.28 1226.07,-135.6 1258,-143 1324.56,-158.43 1404.55,-153.75 1452.23,-148.62"/>
<polygon fill="midnightblue" stroke="midnightblue" points="1452.64,-152.1 1462.18,-147.49 1451.85,-145.14 1452.64,-152.1"/>
</g>
<!-- Node37 -->
<g id="node37" class="node">
<title>Node37</title>
<g id="a_node37"><a xlink:href="structvmem_1_1_page_info.html#afc863f1d364462ddd2c20bf31f588337" target="_top" xlink:title=" ">
<polygon fill="white" stroke="black" points="1430,-76.5 1430,-95.5 1560,-95.5 1560,-76.5 1430,-76.5"/>
<text text-anchor="middle" x="1495" y="-83.5" font-family="Helvetica,sans-Serif" font-size="10.00">vmem::PageInfo::toKernV</text>
</a>
</g>
</g>
<!-- Node33&#45;&gt;Node37 -->
<g id="edge56" class="edge">
<title>Node33&#45;&gt;Node37</title>
<path fill="none" stroke="midnightblue" d="M1212.55,-93.58C1268.24,-92.08 1356.64,-89.7 1419.5,-88.01"/>
<polygon fill="midnightblue" stroke="midnightblue" points="1419.85,-91.5 1429.75,-87.73 1419.66,-84.5 1419.85,-91.5"/>
</g>
<!-- Node38 -->
<g id="node38" class="node">
<title>Node38</title>
<g id="a_node38"><a xlink:href="structvmem_1_1_page_info.html#accf2071c7875c29c9aa78a01ef5963a1" target="_top" xlink:title=" ">
<polygon fill="white" stroke="black" points="1606,-57.5 1606,-76.5 1726,-76.5 1726,-57.5 1606,-57.5"/>
<text text-anchor="middle" x="1666" y="-64.5" font-family="Helvetica,sans-Serif" font-size="10.00">vmem::PageInfo::toPhy</text>
</a>
</g>
</g>
<!-- Node33&#45;&gt;Node38 -->
<g id="edge57" class="edge">
<title>Node33&#45;&gt;Node38</title>
<path fill="none" stroke="midnightblue" d="M1212.65,-87.91C1266.97,-80.98 1354.23,-70.92 1430,-67 1485.61,-64.12 1548.72,-64.31 1595.53,-65.12"/>
<polygon fill="midnightblue" stroke="midnightblue" points="1595.5,-68.62 1605.56,-65.31 1595.63,-61.62 1595.5,-68.62"/>
</g>
<!-- Node39 -->
<g id="node39" class="node">
<title>Node39</title>
<g id="a_node39"><a xlink:href="namespacevmem_1_1pgdir.html#a972bb045d4c58b0ea9c569e05831bbb6" target="_top" xlink:title=" ">
<polygon fill="white" stroke="black" points="1258,-0.5 1258,-19.5 1394,-19.5 1394,-0.5 1258,-0.5"/>
<text text-anchor="middle" x="1326" y="-7.5" font-family="Helvetica,sans-Serif" font-size="10.00">vmem::pgdir::invalidateTLB</text>
</a>
</g>
</g>
<!-- Node33&#45;&gt;Node39 -->
<g id="edge54" class="edge">
<title>Node33&#45;&gt;Node39</title>
<path fill="none" stroke="midnightblue" d="M1173.43,-85.35C1191.83,-72.43 1226.25,-49.35 1258,-34 1266.41,-29.93 1275.71,-26.17 1284.62,-22.89"/>
<polygon fill="midnightblue" stroke="midnightblue" points="1285.83,-26.18 1294.09,-19.53 1283.49,-19.58 1285.83,-26.18"/>
</g>
<!-- Node34&#45;&gt;Node35 -->
<g id="edge47" class="edge">
<title>Node34&#45;&gt;Node35</title>
<path fill="none" stroke="midnightblue" d="M1383.54,-130.43C1406.04,-132.99 1431.47,-135.89 1452.26,-138.25"/>
<polygon fill="midnightblue" stroke="midnightblue" points="1452.02,-141.75 1462.36,-139.4 1452.82,-134.79 1452.02,-141.75"/>
</g>
<!-- Node34&#45;&gt;Node37 -->
<g id="edge51" class="edge">
<title>Node34&#45;&gt;Node37</title>
<path fill="none" stroke="midnightblue" d="M1369.14,-114.41C1391.38,-109.35 1418.85,-103.1 1442.36,-97.75"/>
<polygon fill="midnightblue" stroke="midnightblue" points="1443.19,-101.15 1452.16,-95.52 1441.63,-94.33 1443.19,-101.15"/>
</g>
<!-- Node35&#45;&gt;Node3 -->
<g id="edge48" class="edge">
<title>Node35&#45;&gt;Node3</title>
<path fill="none" stroke="midnightblue" d="M1527.82,-145.65C1574.5,-150.22 1663.84,-161.55 1736,-186 1749.73,-190.65 1764.16,-197.86 1775.83,-204.36"/>
<polygon fill="midnightblue" stroke="midnightblue" points="1774.12,-207.41 1784.54,-209.35 1777.61,-201.34 1774.12,-207.41"/>
</g>
<!-- Node36 -->
<g id="node36" class="node">
<title>Node36</title>
<g id="a_node36"><a xlink:href="namespacemem.html#adbaba9127c03fb914f752bfe19d6d089" target="_top" xlink:title=" ">
<polygon fill="white" stroke="black" points="1637,-114.5 1637,-133.5 1695,-133.5 1695,-114.5 1637,-114.5"/>
<text text-anchor="middle" x="1666" y="-121.5" font-family="Helvetica,sans-Serif" font-size="10.00">mem::set</text>
</a>
</g>
</g>
<!-- Node35&#45;&gt;Node36 -->
<g id="edge49" class="edge">
<title>Node35&#45;&gt;Node36</title>
<path fill="none" stroke="midnightblue" d="M1527.79,-139.43C1555.93,-136.26 1597.05,-131.64 1626.94,-128.28"/>
<polygon fill="midnightblue" stroke="midnightblue" points="1627.45,-131.74 1637,-127.15 1626.67,-124.79 1627.45,-131.74"/>
</g>
<!-- Node36&#45;&gt;Node3 -->
<g id="edge50" class="edge">
<title>Node36&#45;&gt;Node3</title>
<path fill="none" stroke="midnightblue" d="M1695,-130.29C1708.16,-134.08 1723.64,-139.79 1736,-148 1757.27,-162.12 1776.08,-184.9 1787.71,-200.84"/>
<polygon fill="midnightblue" stroke="midnightblue" points="1785.07,-203.17 1793.7,-209.32 1790.79,-199.13 1785.07,-203.17"/>
</g>
<!-- Node37&#45;&gt;Node38 -->
<g id="edge52" class="edge">
<title>Node37&#45;&gt;Node38</title>
<path fill="none" stroke="midnightblue" d="M1560.37,-78.76C1571.92,-77.46 1583.99,-76.11 1595.67,-74.79"/>
<polygon fill="midnightblue" stroke="midnightblue" points="1596.26,-78.25 1605.8,-73.66 1595.47,-71.29 1596.26,-78.25"/>
</g>
<!-- Node40 -->
<g id="node40" class="node">
<title>Node40</title>
<g id="a_node40"><a xlink:href="x86_8h.html#a2c1c4c8523ed258a75c563a8f94d1686" target="_top" xlink:title=" ">
<polygon fill="white" stroke="black" points="1474,-0.5 1474,-19.5 1516,-19.5 1516,-0.5 1474,-0.5"/>
<text text-anchor="middle" x="1495" y="-7.5" font-family="Helvetica,sans-Serif" font-size="10.00">invlpg</text>
</a>
</g>
</g>
<!-- Node39&#45;&gt;Node40 -->
<g id="edge55" class="edge">
<title>Node39&#45;&gt;Node40</title>
<path fill="none" stroke="midnightblue" d="M1394.44,-10C1418.58,-10 1444.58,-10 1463.95,-10"/>
<polygon fill="midnightblue" stroke="midnightblue" points="1463.98,-13.5 1473.98,-10 1463.98,-6.5 1463.98,-13.5"/>
</g>
</g>
</svg>
