<?xml version="1.0" encoding="UTF-8" standalone="no"?>
<!DOCTYPE svg PUBLIC "-//W3C//DTD SVG 1.1//EN"
 "http://www.w3.org/Graphics/SVG/1.1/DTD/svg11.dtd">
<!-- Generated by graphviz version 2.44.1 (20200629.0846)
 -->
<!-- Title: trap.hh Pages: 1 -->
<svg width="749pt" height="252pt"
 viewBox="0.00 0.00 748.80 252.00" xmlns="http://www.w3.org/2000/svg" xmlns:xlink="http://www.w3.org/1999/xlink">
<g id="graph0" class="graph" transform="scale(1 1) rotate(0) translate(4 248)">
<title>trap.hh</title>
<polygon fill="white" stroke="transparent" points="-4,4 -4,-248 744.8,-248 744.8,4 -4,4"/>
<!-- Node1 -->
<g id="node1" class="node">
<title>Node1</title>
<g id="a_node1"><a xlink:title=" ">
<polygon fill="#bfbfbf" stroke="black" points="354.3,-224.5 354.3,-243.5 401.3,-243.5 401.3,-224.5 354.3,-224.5"/>
<text text-anchor="middle" x="377.8" y="-231.5" font-family="Helvetica,sans-Serif" font-size="10.00">trap.hh</text>
</a>
</g>
</g>
<!-- Node2 -->
<g id="node2" class="node">
<title>Node2</title>
<g id="a_node2"><a xlink:href="mp_8cc.html" target="_top" xlink:title=" ">
<polygon fill="white" stroke="black" points="29.8,-0.5 29.8,-19.5 73.8,-19.5 73.8,-0.5 29.8,-0.5"/>
<text text-anchor="middle" x="51.8" y="-7.5" font-family="Helvetica,sans-Serif" font-size="10.00">mp.cc</text>
</a>
</g>
</g>
<!-- Node1&#45;&gt;Node2 -->
<g id="edge1" class="edge">
<title>Node1&#45;&gt;Node2</title>
<path fill="none" stroke="midnightblue" d="M343.79,-230.65C267.23,-223.31 81.99,-193.62 3.8,-76 -10.02,-55.21 18.58,-31.9 37.3,-19.63"/>
<polygon fill="midnightblue" stroke="midnightblue" points="343.57,-234.14 353.84,-231.54 344.19,-227.17 343.57,-234.14"/>
</g>
<!-- Node3 -->
<g id="node3" class="node">
<title>Node3</title>
<g id="a_node3"><a xlink:href="kernel_2trap_8hh.html" target="_top" xlink:title=" ">
<polygon fill="white" stroke="black" points="354.3,-168.5 354.3,-187.5 401.3,-187.5 401.3,-168.5 354.3,-168.5"/>
<text text-anchor="middle" x="377.8" y="-175.5" font-family="Helvetica,sans-Serif" font-size="10.00">trap.hh</text>
</a>
</g>
</g>
<!-- Node1&#45;&gt;Node3 -->
<g id="edge2" class="edge">
<title>Node1&#45;&gt;Node3</title>
<path fill="none" stroke="midnightblue" d="M377.8,-213.8C377.8,-204.91 377.8,-194.78 377.8,-187.75"/>
<polygon fill="midnightblue" stroke="midnightblue" points="374.3,-214.08 377.8,-224.08 381.3,-214.08 374.3,-214.08"/>
</g>
<!-- Node13 -->
<g id="node13" class="node">
<title>Node13</title>
<g id="a_node13"><a xlink:href="stdlib_8hh.html" target="_top" xlink:title=" ">
<polygon fill="white" stroke="black" points="537.3,-168.5 537.3,-187.5 590.3,-187.5 590.3,-168.5 537.3,-168.5"/>
<text text-anchor="middle" x="563.8" y="-175.5" font-family="Helvetica,sans-Serif" font-size="10.00">stdlib.hh</text>
</a>
</g>
</g>
<!-- Node1&#45;&gt;Node13 -->
<g id="edge19" class="edge">
<title>Node1&#45;&gt;Node13</title>
<path fill="none" stroke="midnightblue" d="M411.4,-223.25C447.45,-212.78 504.01,-196.36 537.14,-186.74"/>
<polygon fill="midnightblue" stroke="midnightblue" points="409.99,-220.01 401.36,-226.16 411.94,-226.73 409.99,-220.01"/>
</g>
<!-- Node4 -->
<g id="node4" class="node">
<title>Node4</title>
<g id="a_node4"><a xlink:href="monitor_8hh.html" target="_top" xlink:title=" ">
<polygon fill="white" stroke="black" points="346.8,-112.5 346.8,-131.5 408.8,-131.5 408.8,-112.5 346.8,-112.5"/>
<text text-anchor="middle" x="377.8" y="-119.5" font-family="Helvetica,sans-Serif" font-size="10.00">monitor.hh</text>
</a>
</g>
</g>
<!-- Node3&#45;&gt;Node4 -->
<g id="edge3" class="edge">
<title>Node3&#45;&gt;Node4</title>
<path fill="none" stroke="midnightblue" d="M377.8,-157.8C377.8,-148.91 377.8,-138.78 377.8,-131.75"/>
<polygon fill="midnightblue" stroke="midnightblue" points="374.3,-158.08 377.8,-168.08 381.3,-158.08 374.3,-158.08"/>
</g>
<!-- Node8 -->
<g id="node8" class="node">
<title>Node8</title>
<g id="a_node8"><a xlink:href="trap_8cc.html" target="_top" xlink:title=" ">
<polygon fill="white" stroke="black" points="459.3,-56.5 459.3,-75.5 506.3,-75.5 506.3,-56.5 459.3,-56.5"/>
<text text-anchor="middle" x="482.8" y="-63.5" font-family="Helvetica,sans-Serif" font-size="10.00">trap.cc</text>
</a>
</g>
</g>
<!-- Node3&#45;&gt;Node8 -->
<g id="edge18" class="edge">
<title>Node3&#45;&gt;Node8</title>
<path fill="none" stroke="midnightblue" d="M393.17,-160.9C415.75,-137.25 457.08,-93.95 474.6,-75.59"/>
<polygon fill="midnightblue" stroke="midnightblue" points="390.41,-158.72 386.04,-168.37 395.48,-163.55 390.41,-158.72"/>
</g>
<!-- Node9 -->
<g id="node9" class="node">
<title>Node9</title>
<g id="a_node9"><a xlink:href="kernel_2task_8hh.html" target="_top" xlink:title=" ">
<polygon fill="white" stroke="black" points="250.3,-112.5 250.3,-131.5 299.3,-131.5 299.3,-112.5 250.3,-112.5"/>
<text text-anchor="middle" x="274.8" y="-119.5" font-family="Helvetica,sans-Serif" font-size="10.00">task.hh</text>
</a>
</g>
</g>
<!-- Node3&#45;&gt;Node9 -->
<g id="edge8" class="edge">
<title>Node3&#45;&gt;Node9</title>
<path fill="none" stroke="midnightblue" d="M352.22,-163.59C333.18,-153.61 307.74,-140.27 291.31,-131.65"/>
<polygon fill="midnightblue" stroke="midnightblue" points="350.77,-166.78 361.25,-168.32 354.02,-160.58 350.77,-166.78"/>
</g>
<!-- Node5 -->
<g id="node5" class="node">
<title>Node5</title>
<g id="a_node5"><a xlink:href="init_8cc.html" target="_top" xlink:title=" ">
<polygon fill="white" stroke="black" points="223.3,-0.5 223.3,-19.5 266.3,-19.5 266.3,-0.5 223.3,-0.5"/>
<text text-anchor="middle" x="244.8" y="-7.5" font-family="Helvetica,sans-Serif" font-size="10.00">init.cc</text>
</a>
</g>
</g>
<!-- Node4&#45;&gt;Node5 -->
<g id="edge4" class="edge">
<title>Node4&#45;&gt;Node5</title>
<path fill="none" stroke="midnightblue" d="M395.47,-105.14C408.64,-91.37 422.5,-71.29 410.8,-56 393.25,-33.06 307.39,-19.09 266.51,-13.63"/>
<polygon fill="midnightblue" stroke="midnightblue" points="392.7,-102.94 387.99,-112.43 397.59,-107.95 392.7,-102.94"/>
</g>
<!-- Node6 -->
<g id="node6" class="node">
<title>Node6</title>
<g id="a_node6"><a xlink:href="monitor_8cc.html" target="_top" xlink:title=" ">
<polygon fill="white" stroke="black" points="272.8,-56.5 272.8,-75.5 334.8,-75.5 334.8,-56.5 272.8,-56.5"/>
<text text-anchor="middle" x="303.8" y="-63.5" font-family="Helvetica,sans-Serif" font-size="10.00">monitor.cc</text>
</a>
</g>
</g>
<!-- Node4&#45;&gt;Node6 -->
<g id="edge5" class="edge">
<title>Node4&#45;&gt;Node6</title>
<path fill="none" stroke="midnightblue" d="M357.77,-106.38C344.39,-96.62 327.24,-84.11 315.91,-75.83"/>
<polygon fill="midnightblue" stroke="midnightblue" points="355.77,-109.26 365.91,-112.32 359.9,-103.6 355.77,-109.26"/>
</g>
<!-- Node7 -->
<g id="node7" class="node">
<title>Node7</title>
<g id="a_node7"><a xlink:href="task_8cc.html" target="_top" xlink:title=" ">
<polygon fill="white" stroke="black" points="353.3,-56.5 353.3,-75.5 402.3,-75.5 402.3,-56.5 353.3,-56.5"/>
<text text-anchor="middle" x="377.8" y="-63.5" font-family="Helvetica,sans-Serif" font-size="10.00">task.cc</text>
</a>
</g>
</g>
<!-- Node4&#45;&gt;Node7 -->
<g id="edge6" class="edge">
<title>Node4&#45;&gt;Node7</title>
<path fill="none" stroke="midnightblue" d="M377.8,-101.8C377.8,-92.91 377.8,-82.78 377.8,-75.75"/>
<polygon fill="midnightblue" stroke="midnightblue" points="374.3,-102.08 377.8,-112.08 381.3,-102.08 374.3,-102.08"/>
</g>
<!-- Node4&#45;&gt;Node8 -->
<g id="edge7" class="edge">
<title>Node4&#45;&gt;Node8</title>
<path fill="none" stroke="midnightblue" d="M403.61,-107.73C423.05,-97.73 449.15,-84.31 465.97,-75.65"/>
<polygon fill="midnightblue" stroke="midnightblue" points="401.96,-104.64 394.67,-112.32 405.16,-110.86 401.96,-104.64"/>
</g>
<!-- Node9&#45;&gt;Node5 -->
<g id="edge9" class="edge">
<title>Node9&#45;&gt;Node5</title>
<path fill="none" stroke="midnightblue" d="M269.8,-102.67C263.24,-78.62 252,-37.39 247.14,-19.59"/>
<polygon fill="midnightblue" stroke="midnightblue" points="266.44,-103.64 272.45,-112.37 273.19,-101.8 266.44,-103.64"/>
</g>
<!-- Node9&#45;&gt;Node6 -->
<g id="edge14" class="edge">
<title>Node9&#45;&gt;Node6</title>
<path fill="none" stroke="midnightblue" d="M284.48,-102.98C289.4,-93.82 295.16,-83.09 299.1,-75.75"/>
<polygon fill="midnightblue" stroke="midnightblue" points="281.24,-101.62 279.59,-112.08 287.4,-104.93 281.24,-101.62"/>
</g>
<!-- Node9&#45;&gt;Node7 -->
<g id="edge15" class="edge">
<title>Node9&#45;&gt;Node7</title>
<path fill="none" stroke="midnightblue" d="M300.38,-107.59C319.42,-97.61 344.87,-84.27 361.29,-75.65"/>
<polygon fill="midnightblue" stroke="midnightblue" points="298.58,-104.58 291.35,-112.32 301.83,-110.78 298.58,-104.58"/>
</g>
<!-- Node9&#45;&gt;Node8 -->
<g id="edge17" class="edge">
<title>Node9&#45;&gt;Node8</title>
<path fill="none" stroke="midnightblue" d="M309.35,-112.03C351.73,-101.03 422.44,-82.67 459.12,-73.15"/>
<polygon fill="midnightblue" stroke="midnightblue" points="308.28,-108.69 299.48,-114.59 310.04,-115.47 308.28,-108.69"/>
</g>
<!-- Node10 -->
<g id="node10" class="node">
<title>Node10</title>
<g id="a_node10"><a xlink:href="ksyscall_8cc.html" target="_top" xlink:title=" ">
<polygon fill="white" stroke="black" points="12.8,-56.5 12.8,-75.5 78.8,-75.5 78.8,-56.5 12.8,-56.5"/>
<text text-anchor="middle" x="45.8" y="-63.5" font-family="Helvetica,sans-Serif" font-size="10.00">ksyscall.cc</text>
</a>
</g>
</g>
<!-- Node9&#45;&gt;Node10 -->
<g id="edge10" class="edge">
<title>Node9&#45;&gt;Node10</title>
<path fill="none" stroke="midnightblue" d="M240.43,-112.9C196.79,-102.61 122.02,-84.97 78.96,-74.82"/>
<polygon fill="midnightblue" stroke="midnightblue" points="239.76,-116.33 250.29,-115.22 241.36,-109.52 239.76,-116.33"/>
</g>
<!-- Node11 -->
<g id="node11" class="node">
<title>Node11</title>
<g id="a_node11"><a xlink:href="mp_8hh.html" target="_top" xlink:title=" ">
<polygon fill="white" stroke="black" points="96.8,-56.5 96.8,-75.5 140.8,-75.5 140.8,-56.5 96.8,-56.5"/>
<text text-anchor="middle" x="118.8" y="-63.5" font-family="Helvetica,sans-Serif" font-size="10.00">mp.hh</text>
</a>
</g>
</g>
<!-- Node9&#45;&gt;Node11 -->
<g id="edge11" class="edge">
<title>Node9&#45;&gt;Node11</title>
<path fill="none" stroke="midnightblue" d="M240.34,-109.07C210.02,-98.57 166.78,-83.61 140.88,-74.64"/>
<polygon fill="midnightblue" stroke="midnightblue" points="239.49,-112.48 250.08,-112.44 241.78,-105.86 239.49,-112.48"/>
</g>
<!-- Node12 -->
<g id="node12" class="node">
<title>Node12</title>
<g id="a_node12"><a xlink:href="vmem_8cc.html" target="_top" xlink:title=" ">
<polygon fill="white" stroke="black" points="159.3,-56.5 159.3,-75.5 216.3,-75.5 216.3,-56.5 159.3,-56.5"/>
<text text-anchor="middle" x="187.8" y="-63.5" font-family="Helvetica,sans-Serif" font-size="10.00">vmem.cc</text>
</a>
</g>
</g>
<!-- Node9&#45;&gt;Node12 -->
<g id="edge16" class="edge">
<title>Node9&#45;&gt;Node12</title>
<path fill="none" stroke="midnightblue" d="M252.09,-106.9C236.13,-97 215.3,-84.07 201.74,-75.65"/>
<polygon fill="midnightblue" stroke="midnightblue" points="250.48,-110.02 260.82,-112.32 254.17,-104.08 250.48,-110.02"/>
</g>
<!-- Node11&#45;&gt;Node2 -->
<g id="edge13" class="edge">
<title>Node11&#45;&gt;Node2</title>
<path fill="none" stroke="midnightblue" d="M99.97,-49.82C87.96,-40.15 72.83,-27.95 62.76,-19.83"/>
<polygon fill="midnightblue" stroke="midnightblue" points="98.05,-52.77 108.04,-56.32 102.45,-47.32 98.05,-52.77"/>
</g>
<!-- Node11&#45;&gt;Node5 -->
<g id="edge12" class="edge">
<title>Node11&#45;&gt;Node5</title>
<path fill="none" stroke="midnightblue" d="M147.96,-52.5C171.58,-42.38 204.23,-28.39 224.93,-19.52"/>
<polygon fill="midnightblue" stroke="midnightblue" points="146.58,-49.29 138.77,-56.44 149.34,-55.72 146.58,-49.29"/>
</g>
<!-- Node14 -->
<g id="node14" class="node">
<title>Node14</title>
<g id="a_node14"><a xlink:href="umain_8cc.html" target="_top" xlink:title=" ">
<polygon fill="white" stroke="black" points="464.8,-112.5 464.8,-131.5 520.8,-131.5 520.8,-112.5 464.8,-112.5"/>
<text text-anchor="middle" x="492.8" y="-119.5" font-family="Helvetica,sans-Serif" font-size="10.00">umain.cc</text>
</a>
</g>
</g>
<!-- Node13&#45;&gt;Node14 -->
<g id="edge20" class="edge">
<title>Node13&#45;&gt;Node14</title>
<path fill="none" stroke="midnightblue" d="M544.21,-162.1C531.43,-152.38 515.19,-140.03 504.42,-131.83"/>
<polygon fill="midnightblue" stroke="midnightblue" points="542.32,-165.06 552.39,-168.32 546.55,-159.48 542.32,-165.06"/>
</g>
<!-- Node15 -->
<g id="node15" class="node">
<title>Node15</title>
<g id="a_node15"><a xlink:href="hello_8cc.html" target="_top" xlink:title=" ">
<polygon fill="white" stroke="black" points="538.8,-112.5 538.8,-131.5 588.8,-131.5 588.8,-112.5 538.8,-112.5"/>
<text text-anchor="middle" x="563.8" y="-119.5" font-family="Helvetica,sans-Serif" font-size="10.00">hello.cc</text>
</a>
</g>
</g>
<!-- Node13&#45;&gt;Node15 -->
<g id="edge21" class="edge">
<title>Node13&#45;&gt;Node15</title>
<path fill="none" stroke="midnightblue" d="M563.8,-157.8C563.8,-148.91 563.8,-138.78 563.8,-131.75"/>
<polygon fill="midnightblue" stroke="midnightblue" points="560.3,-158.08 563.8,-168.08 567.3,-158.08 560.3,-158.08"/>
</g>
<!-- Node16 -->
<g id="node16" class="node">
<title>Node16</title>
<g id="a_node16"><a xlink:href="user_2lib_2printf_8cc.html" target="_top" xlink:title=" ">
<polygon fill="white" stroke="black" points="606.8,-112.5 606.8,-131.5 658.8,-131.5 658.8,-112.5 606.8,-112.5"/>
<text text-anchor="middle" x="632.8" y="-119.5" font-family="Helvetica,sans-Serif" font-size="10.00">printf.cc</text>
</a>
</g>
</g>
<!-- Node13&#45;&gt;Node16 -->
<g id="edge22" class="edge">
<title>Node13&#45;&gt;Node16</title>
<path fill="none" stroke="midnightblue" d="M582.84,-162.1C595.26,-152.38 611.04,-140.03 621.51,-131.83"/>
<polygon fill="midnightblue" stroke="midnightblue" points="580.61,-159.4 574.89,-168.32 584.92,-164.92 580.61,-159.4"/>
</g>
<!-- Node17 -->
<g id="node17" class="node">
<title>Node17</title>
<g id="a_node17"><a xlink:href="user_2lib_2readline_8cc.html" target="_top" xlink:title=" ">
<polygon fill="white" stroke="black" points="676.8,-112.5 676.8,-131.5 740.8,-131.5 740.8,-112.5 676.8,-112.5"/>
<text text-anchor="middle" x="708.8" y="-119.5" font-family="Helvetica,sans-Serif" font-size="10.00">readline.cc</text>
</a>
</g>
</g>
<!-- Node13&#45;&gt;Node17 -->
<g id="edge23" class="edge">
<title>Node13&#45;&gt;Node17</title>
<path fill="none" stroke="midnightblue" d="M596.28,-164.91C623.54,-154.75 661.79,-140.51 685.93,-131.52"/>
<polygon fill="midnightblue" stroke="midnightblue" points="594.93,-161.67 586.78,-168.44 597.37,-168.23 594.93,-161.67"/>
</g>
</g>
</svg>
