<?xml version="1.0" encoding="UTF-8" standalone="no"?>
<!DOCTYPE svg PUBLIC "-//W3C//DTD SVG 1.1//EN"
 "http://www.w3.org/Graphics/SVG/1.1/DTD/svg11.dtd">
<!-- Generated by graphviz version 2.44.1 (20200629.0846)
 -->
<!-- Title: trap.hh Pages: 1 -->
<svg width="263pt" height="252pt"
 viewBox="0.00 0.00 262.50 252.00" xmlns="http://www.w3.org/2000/svg" xmlns:xlink="http://www.w3.org/1999/xlink">
<g id="graph0" class="graph" transform="scale(1 1) rotate(0) translate(4 248)">
<title>trap.hh</title>
<polygon fill="white" stroke="transparent" points="-4,4 -4,-248 258.5,-248 258.5,4 -4,4"/>
<!-- Node1 -->
<g id="node1" class="node">
<title>Node1</title>
<g id="a_node1"><a xlink:title=" ">
<polygon fill="#bfbfbf" stroke="black" points="95.5,-224.5 95.5,-243.5 142.5,-243.5 142.5,-224.5 95.5,-224.5"/>
<text text-anchor="middle" x="119" y="-231.5" font-family="Helvetica,sans-Serif" font-size="10.00">trap.hh</text>
</a>
</g>
</g>
<!-- Node2 -->
<g id="node2" class="node">
<title>Node2</title>
<g id="a_node2"><a xlink:href="string_8hh.html" target="_top" xlink:title=" ">
<polygon fill="white" stroke="black" points="0,-112.5 0,-131.5 88,-131.5 88,-112.5 0,-112.5"/>
<text text-anchor="middle" x="44" y="-119.5" font-family="Helvetica,sans-Serif" font-size="10.00">include/string.hh</text>
</a>
</g>
</g>
<!-- Node1&#45;&gt;Node2 -->
<g id="edge1" class="edge">
<title>Node1&#45;&gt;Node2</title>
<path fill="none" stroke="midnightblue" d="M113.11,-224.37C100.74,-206.22 71.82,-163.8 55.58,-139.99"/>
<polygon fill="midnightblue" stroke="midnightblue" points="58.38,-137.88 49.86,-131.59 52.6,-141.83 58.38,-137.88"/>
</g>
<!-- Node7 -->
<g id="node7" class="node">
<title>Node7</title>
<g id="a_node7"><a xlink:href="mmu_8h.html" target="_top" xlink:title=" ">
<polygon fill="white" stroke="black" points="106,-112.5 106,-131.5 186,-131.5 186,-112.5 106,-112.5"/>
<text text-anchor="middle" x="146" y="-119.5" font-family="Helvetica,sans-Serif" font-size="10.00">include/mmu.h</text>
</a>
</g>
</g>
<!-- Node1&#45;&gt;Node7 -->
<g id="edge7" class="edge">
<title>Node1&#45;&gt;Node7</title>
<path fill="none" stroke="midnightblue" d="M121.12,-224.37C125.48,-206.62 135.53,-165.67 141.44,-141.6"/>
<polygon fill="midnightblue" stroke="midnightblue" points="144.91,-142.14 143.89,-131.59 138.11,-140.47 144.91,-142.14"/>
</g>
<!-- Node8 -->
<g id="node8" class="node">
<title>Node8</title>
<g id="a_node8"><a xlink:href="memlayout_8h.html" target="_top" xlink:title=" ">
<polygon fill="white" stroke="black" points="147.5,-168.5 147.5,-187.5 254.5,-187.5 254.5,-168.5 147.5,-168.5"/>
<text text-anchor="middle" x="201" y="-175.5" font-family="Helvetica,sans-Serif" font-size="10.00">include/memlayout.h</text>
</a>
</g>
</g>
<!-- Node1&#45;&gt;Node8 -->
<g id="edge9" class="edge">
<title>Node1&#45;&gt;Node8</title>
<path fill="none" stroke="midnightblue" d="M132.17,-224.32C144.85,-215.98 164.23,-203.21 179.21,-193.35"/>
<polygon fill="midnightblue" stroke="midnightblue" points="181.43,-196.08 187.86,-187.65 177.58,-190.23 181.43,-196.08"/>
</g>
<!-- Node3 -->
<g id="node3" class="node">
<title>Node3</title>
<g id="a_node3"><a xlink:href="types_8h.html" target="_top" xlink:title=" ">
<polygon fill="white" stroke="black" points="104.5,-56.5 104.5,-75.5 187.5,-75.5 187.5,-56.5 104.5,-56.5"/>
<text text-anchor="middle" x="146" y="-63.5" font-family="Helvetica,sans-Serif" font-size="10.00">include/types.h</text>
</a>
</g>
</g>
<!-- Node2&#45;&gt;Node3 -->
<g id="edge2" class="edge">
<title>Node2&#45;&gt;Node3</title>
<path fill="none" stroke="midnightblue" d="M60.39,-112.32C76.67,-103.7 101.87,-90.36 120.72,-80.39"/>
<polygon fill="midnightblue" stroke="midnightblue" points="122.45,-83.43 129.65,-75.65 119.18,-77.24 122.45,-83.43"/>
</g>
<!-- Node4 -->
<g id="node4" class="node">
<title>Node4</title>
<g id="a_node4"><a xlink:title=" ">
<polygon fill="white" stroke="#bfbfbf" points="18,-0.5 18,-19.5 70,-19.5 70,-0.5 18,-0.5"/>
<text text-anchor="middle" x="44" y="-7.5" font-family="Helvetica,sans-Serif" font-size="10.00">stddef.h</text>
</a>
</g>
</g>
<!-- Node3&#45;&gt;Node4 -->
<g id="edge3" class="edge">
<title>Node3&#45;&gt;Node4</title>
<path fill="none" stroke="midnightblue" d="M129.61,-56.32C113.33,-47.7 88.13,-34.36 69.28,-24.39"/>
<polygon fill="midnightblue" stroke="midnightblue" points="70.82,-21.24 60.35,-19.65 67.55,-27.43 70.82,-21.24"/>
</g>
<!-- Node5 -->
<g id="node5" class="node">
<title>Node5</title>
<g id="a_node5"><a xlink:title=" ">
<polygon fill="white" stroke="#bfbfbf" points="88.5,-0.5 88.5,-19.5 137.5,-19.5 137.5,-0.5 88.5,-0.5"/>
<text text-anchor="middle" x="113" y="-7.5" font-family="Helvetica,sans-Serif" font-size="10.00">stdint.h</text>
</a>
</g>
</g>
<!-- Node3&#45;&gt;Node5 -->
<g id="edge4" class="edge">
<title>Node3&#45;&gt;Node5</title>
<path fill="none" stroke="midnightblue" d="M140.55,-56.08C135.99,-48.61 129.33,-37.72 123.71,-28.52"/>
<polygon fill="midnightblue" stroke="midnightblue" points="126.55,-26.46 118.35,-19.75 120.58,-30.11 126.55,-26.46"/>
</g>
<!-- Node6 -->
<g id="node6" class="node">
<title>Node6</title>
<g id="a_node6"><a xlink:href="ctype_8h.html" target="_top" xlink:title=" ">
<polygon fill="white" stroke="black" points="155.5,-0.5 155.5,-19.5 204.5,-19.5 204.5,-0.5 155.5,-0.5"/>
<text text-anchor="middle" x="180" y="-7.5" font-family="Helvetica,sans-Serif" font-size="10.00">ctype.h</text>
</a>
</g>
</g>
<!-- Node3&#45;&gt;Node6 -->
<g id="edge5" class="edge">
<title>Node3&#45;&gt;Node6</title>
<path fill="none" stroke="midnightblue" d="M146.45,-56.08C149.67,-48.38 156.44,-37.03 163.23,-27.65"/>
<polygon fill="midnightblue" stroke="midnightblue" points="165.99,-29.8 169.36,-19.75 160.46,-25.5 165.99,-29.8"/>
</g>
<!-- Node6&#45;&gt;Node3 -->
<g id="edge6" class="edge">
<title>Node6&#45;&gt;Node3</title>
<path fill="none" stroke="midnightblue" d="M179.62,-19.75C176.45,-27.4 169.7,-38.74 162.92,-48.14"/>
<polygon fill="midnightblue" stroke="midnightblue" points="160.13,-46.03 156.78,-56.08 165.67,-50.31 160.13,-46.03"/>
</g>
<!-- Node7&#45;&gt;Node3 -->
<g id="edge8" class="edge">
<title>Node7&#45;&gt;Node3</title>
<path fill="none" stroke="midnightblue" d="M146,-112.08C146,-105.01 146,-94.86 146,-85.99"/>
<polygon fill="midnightblue" stroke="midnightblue" points="149.5,-85.75 146,-75.75 142.5,-85.75 149.5,-85.75"/>
</g>
<!-- Node8&#45;&gt;Node3 -->
<g id="edge10" class="edge">
<title>Node8&#45;&gt;Node3</title>
<path fill="none" stroke="midnightblue" d="M202.08,-168.48C203.33,-155.54 204.16,-130.48 195,-112 189.05,-99.99 178.43,-89.63 168.59,-81.88"/>
<polygon fill="midnightblue" stroke="midnightblue" points="170.42,-78.88 160.29,-75.77 166.27,-84.52 170.42,-78.88"/>
</g>
<!-- Node8&#45;&gt;Node7 -->
<g id="edge11" class="edge">
<title>Node8&#45;&gt;Node7</title>
<path fill="none" stroke="midnightblue" d="M191.92,-168.08C183.83,-160.14 171.8,-148.34 162.09,-138.8"/>
<polygon fill="midnightblue" stroke="midnightblue" points="164.5,-136.26 154.91,-131.75 159.6,-141.25 164.5,-136.26"/>
</g>
</g>
</svg>
