<?xml version="1.0" encoding="UTF-8" standalone="no"?>
<!DOCTYPE svg PUBLIC "-//W3C//DTD SVG 1.1//EN"
 "http://www.w3.org/Graphics/SVG/1.1/DTD/svg11.dtd">
<!-- Generated by graphviz version 2.44.1 (20200629.0846)
 -->
<!-- Title: init.cc Pages: 1 -->
<svg width="1114pt" height="476pt"
 viewBox="0.00 0.00 1114.00 476.00" xmlns="http://www.w3.org/2000/svg" xmlns:xlink="http://www.w3.org/1999/xlink">
<g id="graph0" class="graph" transform="scale(1 1) rotate(0) translate(4 472)">
<title>init.cc</title>
<polygon fill="white" stroke="transparent" points="-4,4 -4,-472 1110,-472 1110,4 -4,4"/>
<!-- Node1 -->
<g id="node1" class="node">
<title>Node1</title>
<g id="a_node1"><a xlink:title=" ">
<polygon fill="#bfbfbf" stroke="black" points="575.5,-448.5 575.5,-467.5 618.5,-467.5 618.5,-448.5 575.5,-448.5"/>
<text text-anchor="middle" x="597" y="-455.5" font-family="Helvetica,sans-Serif" font-size="10.00">init.cc</text>
</a>
</g>
</g>
<!-- Node2 -->
<g id="node2" class="node">
<title>Node2</title>
<g id="a_node2"><a xlink:href="string_8hh.html" target="_top" xlink:title=" ">
<polygon fill="white" stroke="black" points="1018,-168.5 1018,-187.5 1106,-187.5 1106,-168.5 1018,-168.5"/>
<text text-anchor="middle" x="1062" y="-175.5" font-family="Helvetica,sans-Serif" font-size="10.00">include/string.hh</text>
</a>
</g>
</g>
<!-- Node1&#45;&gt;Node2 -->
<g id="edge1" class="edge">
<title>Node1&#45;&gt;Node2</title>
<path fill="none" stroke="midnightblue" d="M618.66,-456.55C710,-454.1 1059,-438.73 1059,-347 1059,-347 1059,-347 1059,-289 1059,-256.94 1060.29,-219.63 1061.18,-197.74"/>
<polygon fill="midnightblue" stroke="midnightblue" points="1064.68,-197.69 1061.61,-187.56 1057.69,-197.4 1064.68,-197.69"/>
</g>
<!-- Node7 -->
<g id="node7" class="node">
<title>Node7</title>
<g id="a_node7"><a xlink:href="stdio_8hh.html" target="_top" xlink:title=" ">
<polygon fill="white" stroke="black" points="124.5,-280.5 124.5,-299.5 209.5,-299.5 209.5,-280.5 124.5,-280.5"/>
<text text-anchor="middle" x="167" y="-287.5" font-family="Helvetica,sans-Serif" font-size="10.00">include/stdio.hh</text>
</a>
</g>
</g>
<!-- Node1&#45;&gt;Node7 -->
<g id="edge7" class="edge">
<title>Node1&#45;&gt;Node7</title>
<path fill="none" stroke="midnightblue" d="M575.06,-455.76C512.2,-451.91 332.66,-438.78 281,-412 233.76,-387.51 195.44,-335.54 177.69,-308.37"/>
<polygon fill="midnightblue" stroke="midnightblue" points="180.42,-306.14 172.1,-299.58 174.51,-309.9 180.42,-306.14"/>
</g>
<!-- Node14 -->
<g id="node14" class="node">
<title>Node14</title>
<g id="a_node14"><a xlink:href="panic_8hh.html" target="_top" xlink:title=" ">
<polygon fill="white" stroke="black" points="527.5,-224.5 527.5,-243.5 610.5,-243.5 610.5,-224.5 527.5,-224.5"/>
<text text-anchor="middle" x="569" y="-231.5" font-family="Helvetica,sans-Serif" font-size="10.00">kernel/panic.hh</text>
</a>
</g>
</g>
<!-- Node1&#45;&gt;Node14 -->
<g id="edge16" class="edge">
<title>Node1&#45;&gt;Node14</title>
<path fill="none" stroke="midnightblue" d="M591.19,-448.3C576.21,-425.32 536.56,-360.57 523,-300 521.06,-291.33 519.55,-288.19 523,-280 528.03,-268.05 537.94,-257.69 547.29,-249.93"/>
<polygon fill="midnightblue" stroke="midnightblue" points="549.44,-252.69 555.21,-243.81 545.16,-247.15 549.44,-252.69"/>
</g>
<!-- Node16 -->
<g id="node16" class="node">
<title>Node16</title>
<g id="a_node16"><a xlink:href="console_8hh.html" target="_top" xlink:title=" ">
<polygon fill="white" stroke="black" points="230.5,-224.5 230.5,-243.5 323.5,-243.5 323.5,-224.5 230.5,-224.5"/>
<text text-anchor="middle" x="277" y="-231.5" font-family="Helvetica,sans-Serif" font-size="10.00">kernel/console.hh</text>
</a>
</g>
</g>
<!-- Node1&#45;&gt;Node16 -->
<g id="edge18" class="edge">
<title>Node1&#45;&gt;Node16</title>
<path fill="none" stroke="midnightblue" d="M575.1,-451.53C548.15,-444.36 501.35,-430.5 464,-412 424.12,-392.25 414.24,-385.58 381,-356 343.75,-322.85 307.47,-276.5 289.21,-251.9"/>
<polygon fill="midnightblue" stroke="midnightblue" points="291.86,-249.6 283.13,-243.6 286.22,-253.74 291.86,-249.6"/>
</g>
<!-- Node17 -->
<g id="node17" class="node">
<title>Node17</title>
<g id="a_node17"><a xlink:href="version_8h.html" target="_top" xlink:title=" ">
<polygon fill="white" stroke="black" points="663,-392.5 663,-411.5 749,-411.5 749,-392.5 663,-392.5"/>
<text text-anchor="middle" x="706" y="-399.5" font-family="Helvetica,sans-Serif" font-size="10.00">kernel/version.h</text>
</a>
</g>
</g>
<!-- Node1&#45;&gt;Node17 -->
<g id="edge22" class="edge">
<title>Node1&#45;&gt;Node17</title>
<path fill="none" stroke="midnightblue" d="M614.51,-448.32C632.07,-439.62 659.33,-426.12 679.53,-416.11"/>
<polygon fill="midnightblue" stroke="midnightblue" points="681.12,-419.23 688.53,-411.65 678.02,-412.96 681.12,-419.23"/>
</g>
<!-- Node18 -->
<g id="node18" class="node">
<title>Node18</title>
<g id="a_node18"><a xlink:href="vmem_8hh.html" target="_top" xlink:title=" ">
<polygon fill="white" stroke="black" points="390,-336.5 390,-355.5 476,-355.5 476,-336.5 390,-336.5"/>
<text text-anchor="middle" x="433" y="-343.5" font-family="Helvetica,sans-Serif" font-size="10.00">kernel/vmem.hh</text>
</a>
</g>
</g>
<!-- Node1&#45;&gt;Node18 -->
<g id="edge24" class="edge">
<title>Node1&#45;&gt;Node18</title>
<path fill="none" stroke="midnightblue" d="M575.45,-451.1C552.74,-444.2 516.65,-431.21 490,-412 471.62,-398.75 455.1,-378.53 444.63,-364.16"/>
<polygon fill="midnightblue" stroke="midnightblue" points="447.29,-361.86 438.67,-355.7 441.57,-365.89 447.29,-361.86"/>
</g>
<!-- Node24 -->
<g id="node24" class="node">
<title>Node24</title>
<g id="a_node24"><a xlink:href="monitor_8hh.html" target="_top" xlink:title=" ">
<polygon fill="white" stroke="black" points="603.5,-336.5 603.5,-355.5 694.5,-355.5 694.5,-336.5 603.5,-336.5"/>
<text text-anchor="middle" x="649" y="-343.5" font-family="Helvetica,sans-Serif" font-size="10.00">kernel/monitor.hh</text>
</a>
</g>
</g>
<!-- Node1&#45;&gt;Node24 -->
<g id="edge35" class="edge">
<title>Node1&#45;&gt;Node24</title>
<path fill="none" stroke="midnightblue" d="M599.57,-448.36C603.48,-435.68 611.48,-411.45 621,-392 625.7,-382.39 631.91,-372.23 637.28,-364"/>
<polygon fill="midnightblue" stroke="midnightblue" points="640.21,-365.92 642.87,-355.66 634.4,-362.02 640.21,-365.92"/>
</g>
<!-- Node27 -->
<g id="node27" class="node">
<title>Node27</title>
<g id="a_node27"><a xlink:href="kernel_2task_8hh.html" target="_top" xlink:title=" ">
<polygon fill="white" stroke="black" points="731,-336.5 731,-355.5 809,-355.5 809,-336.5 731,-336.5"/>
<text text-anchor="middle" x="770" y="-343.5" font-family="Helvetica,sans-Serif" font-size="10.00">kernel/task.hh</text>
</a>
</g>
</g>
<!-- Node1&#45;&gt;Node27 -->
<g id="edge45" class="edge">
<title>Node1&#45;&gt;Node27</title>
<path fill="none" stroke="midnightblue" d="M602.62,-448.22C611.83,-434.48 631.37,-407.83 654,-392 675.74,-376.79 703.32,-365.82 726.13,-358.52"/>
<polygon fill="midnightblue" stroke="midnightblue" points="727.38,-361.79 735.91,-355.51 725.33,-355.1 727.38,-361.79"/>
</g>
<!-- Node29 -->
<g id="node29" class="node">
<title>Node29</title>
<g id="a_node29"><a xlink:href="mp_8hh.html" target="_top" xlink:title=" ">
<polygon fill="white" stroke="black" points="767.5,-392.5 767.5,-411.5 840.5,-411.5 840.5,-392.5 767.5,-392.5"/>
<text text-anchor="middle" x="804" y="-399.5" font-family="Helvetica,sans-Serif" font-size="10.00">kernel/mp.hh</text>
</a>
</g>
</g>
<!-- Node1&#45;&gt;Node29 -->
<g id="edge51" class="edge">
<title>Node1&#45;&gt;Node29</title>
<path fill="none" stroke="midnightblue" d="M618.76,-451.32C652.56,-442.51 718.3,-425.36 761.67,-414.04"/>
<polygon fill="midnightblue" stroke="midnightblue" points="762.59,-417.42 771.38,-411.51 760.82,-410.65 762.59,-417.42"/>
</g>
<!-- Node3 -->
<g id="node3" class="node">
<title>Node3</title>
<g id="a_node3"><a xlink:href="types_8h.html" target="_top" xlink:title=" ">
<polygon fill="white" stroke="black" points="764.5,-56.5 764.5,-75.5 847.5,-75.5 847.5,-56.5 764.5,-56.5"/>
<text text-anchor="middle" x="806" y="-63.5" font-family="Helvetica,sans-Serif" font-size="10.00">include/types.h</text>
</a>
</g>
</g>
<!-- Node2&#45;&gt;Node3 -->
<g id="edge2" class="edge">
<title>Node2&#45;&gt;Node3</title>
<path fill="none" stroke="midnightblue" d="M1056.8,-168.28C1047.87,-154.13 1028.23,-126.29 1004,-112 958.98,-85.45 899.69,-74.56 857.76,-70.09"/>
<polygon fill="midnightblue" stroke="midnightblue" points="858.05,-66.61 847.76,-69.12 857.37,-73.57 858.05,-66.61"/>
</g>
<!-- Node4 -->
<g id="node4" class="node">
<title>Node4</title>
<g id="a_node4"><a xlink:title=" ">
<polygon fill="white" stroke="#bfbfbf" points="678,-0.5 678,-19.5 730,-19.5 730,-0.5 678,-0.5"/>
<text text-anchor="middle" x="704" y="-7.5" font-family="Helvetica,sans-Serif" font-size="10.00">stddef.h</text>
</a>
</g>
</g>
<!-- Node3&#45;&gt;Node4 -->
<g id="edge3" class="edge">
<title>Node3&#45;&gt;Node4</title>
<path fill="none" stroke="midnightblue" d="M789.61,-56.32C773.33,-47.7 748.13,-34.36 729.28,-24.39"/>
<polygon fill="midnightblue" stroke="midnightblue" points="730.82,-21.24 720.35,-19.65 727.55,-27.43 730.82,-21.24"/>
</g>
<!-- Node5 -->
<g id="node5" class="node">
<title>Node5</title>
<g id="a_node5"><a xlink:title=" ">
<polygon fill="white" stroke="#bfbfbf" points="748.5,-0.5 748.5,-19.5 797.5,-19.5 797.5,-0.5 748.5,-0.5"/>
<text text-anchor="middle" x="773" y="-7.5" font-family="Helvetica,sans-Serif" font-size="10.00">stdint.h</text>
</a>
</g>
</g>
<!-- Node3&#45;&gt;Node5 -->
<g id="edge4" class="edge">
<title>Node3&#45;&gt;Node5</title>
<path fill="none" stroke="midnightblue" d="M800.55,-56.08C795.99,-48.61 789.33,-37.72 783.71,-28.52"/>
<polygon fill="midnightblue" stroke="midnightblue" points="786.55,-26.46 778.35,-19.75 780.58,-30.11 786.55,-26.46"/>
</g>
<!-- Node6 -->
<g id="node6" class="node">
<title>Node6</title>
<g id="a_node6"><a xlink:href="ctype_8h.html" target="_top" xlink:title=" ">
<polygon fill="white" stroke="black" points="815.5,-0.5 815.5,-19.5 864.5,-19.5 864.5,-0.5 815.5,-0.5"/>
<text text-anchor="middle" x="840" y="-7.5" font-family="Helvetica,sans-Serif" font-size="10.00">ctype.h</text>
</a>
</g>
</g>
<!-- Node3&#45;&gt;Node6 -->
<g id="edge5" class="edge">
<title>Node3&#45;&gt;Node6</title>
<path fill="none" stroke="midnightblue" d="M806.45,-56.08C809.67,-48.38 816.44,-37.03 823.23,-27.65"/>
<polygon fill="midnightblue" stroke="midnightblue" points="825.99,-29.8 829.36,-19.75 820.46,-25.5 825.99,-29.8"/>
</g>
<!-- Node6&#45;&gt;Node3 -->
<g id="edge6" class="edge">
<title>Node6&#45;&gt;Node3</title>
<path fill="none" stroke="midnightblue" d="M839.62,-19.75C836.45,-27.4 829.7,-38.74 822.92,-48.14"/>
<polygon fill="midnightblue" stroke="midnightblue" points="820.13,-46.03 816.78,-56.08 825.67,-50.31 820.13,-46.03"/>
</g>
<!-- Node8 -->
<g id="node8" class="node">
<title>Node8</title>
<g id="a_node8"><a xlink:href="stdin_8hh.html" target="_top" xlink:title=" ">
<polygon fill="white" stroke="black" points="17.5,-224.5 17.5,-243.5 102.5,-243.5 102.5,-224.5 17.5,-224.5"/>
<text text-anchor="middle" x="60" y="-231.5" font-family="Helvetica,sans-Serif" font-size="10.00">include/stdin.hh</text>
</a>
</g>
</g>
<!-- Node7&#45;&gt;Node8 -->
<g id="edge8" class="edge">
<title>Node7&#45;&gt;Node8</title>
<path fill="none" stroke="midnightblue" d="M149.81,-280.32C132.65,-271.66 106.05,-258.24 86.25,-248.25"/>
<polygon fill="midnightblue" stroke="midnightblue" points="87.65,-245.04 77.15,-243.65 84.5,-251.28 87.65,-245.04"/>
</g>
<!-- Node11 -->
<g id="node11" class="node">
<title>Node11</title>
<g id="a_node11"><a xlink:href="stdout_8hh.html" target="_top" xlink:title=" ">
<polygon fill="white" stroke="black" points="121.5,-224.5 121.5,-243.5 212.5,-243.5 212.5,-224.5 121.5,-224.5"/>
<text text-anchor="middle" x="167" y="-231.5" font-family="Helvetica,sans-Serif" font-size="10.00">include/stdout.hh</text>
</a>
</g>
</g>
<!-- Node7&#45;&gt;Node11 -->
<g id="edge11" class="edge">
<title>Node7&#45;&gt;Node11</title>
<path fill="none" stroke="midnightblue" d="M167,-280.08C167,-273.01 167,-262.86 167,-253.99"/>
<polygon fill="midnightblue" stroke="midnightblue" points="170.5,-253.75 167,-243.75 163.5,-253.75 170.5,-253.75"/>
</g>
<!-- Node9 -->
<g id="node9" class="node">
<title>Node9</title>
<g id="a_node9"><a xlink:href="vargs_8hh.html" target="_top" xlink:title=" ">
<polygon fill="white" stroke="black" points="0,-168.5 0,-187.5 88,-187.5 88,-168.5 0,-168.5"/>
<text text-anchor="middle" x="44" y="-175.5" font-family="Helvetica,sans-Serif" font-size="10.00">include/vargs.hh</text>
</a>
</g>
</g>
<!-- Node8&#45;&gt;Node9 -->
<g id="edge9" class="edge">
<title>Node8&#45;&gt;Node9</title>
<path fill="none" stroke="midnightblue" d="M57.36,-224.08C55.21,-216.85 52.12,-206.41 49.45,-197.4"/>
<polygon fill="midnightblue" stroke="midnightblue" points="52.79,-196.34 46.59,-187.75 46.08,-198.33 52.79,-196.34"/>
</g>
<!-- Node10 -->
<g id="node10" class="node">
<title>Node10</title>
<g id="a_node10"><a xlink:title=" ">
<polygon fill="white" stroke="#bfbfbf" points="19.5,-112.5 19.5,-131.5 68.5,-131.5 68.5,-112.5 19.5,-112.5"/>
<text text-anchor="middle" x="44" y="-119.5" font-family="Helvetica,sans-Serif" font-size="10.00">cstdarg</text>
</a>
</g>
</g>
<!-- Node9&#45;&gt;Node10 -->
<g id="edge10" class="edge">
<title>Node9&#45;&gt;Node10</title>
<path fill="none" stroke="midnightblue" d="M44,-168.08C44,-161.01 44,-150.86 44,-141.99"/>
<polygon fill="midnightblue" stroke="midnightblue" points="47.5,-141.75 44,-131.75 40.5,-141.75 47.5,-141.75"/>
</g>
<!-- Node11&#45;&gt;Node3 -->
<g id="edge12" class="edge">
<title>Node11&#45;&gt;Node3</title>
<path fill="none" stroke="midnightblue" d="M170.71,-224.38C177.18,-210.36 191.91,-182.71 213,-168 300.48,-106.99 625.88,-79.04 753.84,-70.23"/>
<polygon fill="midnightblue" stroke="midnightblue" points="754.41,-73.7 764.15,-69.54 753.94,-66.72 754.41,-73.7"/>
</g>
<!-- Node11&#45;&gt;Node9 -->
<g id="edge13" class="edge">
<title>Node11&#45;&gt;Node9</title>
<path fill="none" stroke="midnightblue" d="M147.51,-224.44C127.36,-215.6 95.68,-201.69 72.67,-191.59"/>
<polygon fill="midnightblue" stroke="midnightblue" points="73.96,-188.33 63.4,-187.52 71.15,-194.74 73.96,-188.33"/>
</g>
<!-- Node12 -->
<g id="node12" class="node">
<title>Node12</title>
<g id="a_node12"><a xlink:href="color_8h.html" target="_top" xlink:title=" ">
<polygon fill="white" stroke="black" points="222.5,-168.5 222.5,-187.5 301.5,-187.5 301.5,-168.5 222.5,-168.5"/>
<text text-anchor="middle" x="262" y="-175.5" font-family="Helvetica,sans-Serif" font-size="10.00">include/color.h</text>
</a>
</g>
</g>
<!-- Node11&#45;&gt;Node12 -->
<g id="edge14" class="edge">
<title>Node11&#45;&gt;Node12</title>
<path fill="none" stroke="midnightblue" d="M182.26,-224.32C197.22,-215.82 220.25,-202.73 237.73,-192.8"/>
<polygon fill="midnightblue" stroke="midnightblue" points="239.81,-195.64 246.77,-187.65 236.35,-189.55 239.81,-195.64"/>
</g>
<!-- Node13 -->
<g id="node13" class="node">
<title>Node13</title>
<g id="a_node13"><a xlink:title=" ">
<polygon fill="white" stroke="#bfbfbf" points="106.5,-168.5 106.5,-187.5 165.5,-187.5 165.5,-168.5 106.5,-168.5"/>
<text text-anchor="middle" x="136" y="-175.5" font-family="Helvetica,sans-Serif" font-size="10.00">functional</text>
</a>
</g>
</g>
<!-- Node11&#45;&gt;Node13 -->
<g id="edge15" class="edge">
<title>Node11&#45;&gt;Node13</title>
<path fill="none" stroke="midnightblue" d="M161.88,-224.08C157.59,-216.61 151.34,-205.72 146.06,-196.52"/>
<polygon fill="midnightblue" stroke="midnightblue" points="149.04,-194.68 141.02,-187.75 142.97,-198.17 149.04,-194.68"/>
</g>
<!-- Node15 -->
<g id="node15" class="node">
<title>Node15</title>
<g id="a_node15"><a xlink:href="knlast_8inc.html" target="_top" xlink:title=" ">
<polygon fill="white" stroke="black" points="660,-168.5 660,-187.5 748,-187.5 748,-168.5 660,-168.5"/>
<text text-anchor="middle" x="704" y="-175.5" font-family="Helvetica,sans-Serif" font-size="10.00">kernel/knlast.inc</text>
</a>
</g>
</g>
<!-- Node14&#45;&gt;Node15 -->
<g id="edge17" class="edge">
<title>Node14&#45;&gt;Node15</title>
<path fill="none" stroke="midnightblue" d="M590.39,-224.44C612.71,-215.52 647.9,-201.44 673.21,-191.32"/>
<polygon fill="midnightblue" stroke="midnightblue" points="674.72,-194.48 682.71,-187.52 672.12,-187.98 674.72,-194.48"/>
</g>
<!-- Node16&#45;&gt;Node3 -->
<g id="edge20" class="edge">
<title>Node16&#45;&gt;Node3</title>
<path fill="none" stroke="midnightblue" d="M285.33,-224.46C298.78,-211.04 326.55,-184.82 354,-168 482.76,-89.09 665.88,-71.6 754.29,-67.88"/>
<polygon fill="midnightblue" stroke="midnightblue" points="754.47,-71.38 764.33,-67.5 754.21,-64.39 754.47,-71.38"/>
</g>
<!-- Node16&#45;&gt;Node12 -->
<g id="edge21" class="edge">
<title>Node16&#45;&gt;Node12</title>
<path fill="none" stroke="midnightblue" d="M274.52,-224.08C272.51,-216.85 269.61,-206.41 267.11,-197.4"/>
<polygon fill="midnightblue" stroke="midnightblue" points="270.48,-196.45 264.43,-187.75 263.74,-198.32 270.48,-196.45"/>
</g>
<!-- Node16&#45;&gt;Node15 -->
<g id="edge19" class="edge">
<title>Node16&#45;&gt;Node15</title>
<path fill="none" stroke="midnightblue" d="M323.51,-227.12C403.16,-217.04 565.27,-196.54 649.87,-185.85"/>
<polygon fill="midnightblue" stroke="midnightblue" points="650.31,-189.32 659.79,-184.59 649.43,-182.37 650.31,-189.32"/>
</g>
<!-- Node17&#45;&gt;Node15 -->
<g id="edge23" class="edge">
<title>Node17&#45;&gt;Node15</title>
<path fill="none" stroke="midnightblue" d="M727.47,-392.38C750.02,-383.33 786.51,-368.67 818,-356 883.32,-329.72 996.49,-338.29 957,-280 944.19,-261.1 806.78,-213.25 740.01,-190.88"/>
<polygon fill="midnightblue" stroke="midnightblue" points="740.9,-187.49 730.31,-187.64 738.69,-194.13 740.9,-187.49"/>
</g>
<!-- Node18&#45;&gt;Node14 -->
<g id="edge34" class="edge">
<title>Node18&#45;&gt;Node14</title>
<path fill="none" stroke="midnightblue" d="M439.23,-336.17C448.95,-322.84 468.83,-297.27 490,-280 505.5,-267.36 525.01,-256.21 540.76,-248.17"/>
<polygon fill="midnightblue" stroke="midnightblue" points="542.61,-251.16 550.01,-243.58 539.5,-244.88 542.61,-251.16"/>
</g>
<!-- Node18&#45;&gt;Node15 -->
<g id="edge25" class="edge">
<title>Node18&#45;&gt;Node15</title>
<path fill="none" stroke="midnightblue" d="M427.66,-336.45C414.88,-314.78 385.64,-257.1 414,-224 443.72,-189.31 574.09,-181.14 649.53,-179.36"/>
<polygon fill="midnightblue" stroke="midnightblue" points="649.86,-182.85 659.79,-179.15 649.72,-175.85 649.86,-182.85"/>
</g>
<!-- Node19 -->
<g id="node19" class="node">
<title>Node19</title>
<g id="a_node19"><a xlink:title=" ">
<polygon fill="white" stroke="#bfbfbf" points="532,-280.5 532,-299.5 570,-299.5 570,-280.5 532,-280.5"/>
<text text-anchor="middle" x="551" y="-287.5" font-family="Helvetica,sans-Serif" font-size="10.00">tuple</text>
</a>
</g>
</g>
<!-- Node18&#45;&gt;Node19 -->
<g id="edge26" class="edge">
<title>Node18&#45;&gt;Node19</title>
<path fill="none" stroke="midnightblue" d="M451.7,-336.44C470.94,-327.64 501.15,-313.81 523.2,-303.72"/>
<polygon fill="midnightblue" stroke="midnightblue" points="524.75,-306.86 532.39,-299.52 521.84,-300.5 524.75,-306.86"/>
</g>
<!-- Node20 -->
<g id="node20" class="node">
<title>Node20</title>
<g id="a_node20"><a xlink:href="x86_8h.html" target="_top" xlink:title=" ">
<polygon fill="white" stroke="black" points="496,-112.5 496,-131.5 570,-131.5 570,-112.5 496,-112.5"/>
<text text-anchor="middle" x="533" y="-119.5" font-family="Helvetica,sans-Serif" font-size="10.00">include/x86.h</text>
</a>
</g>
</g>
<!-- Node18&#45;&gt;Node20 -->
<g id="edge27" class="edge">
<title>Node18&#45;&gt;Node20</title>
<path fill="none" stroke="midnightblue" d="M424.04,-336.32C416.03,-327.9 404.83,-314.32 400,-300 389.2,-267.99 383.93,-254.23 399,-224 420.44,-181 469.88,-151.48 502.33,-135.92"/>
<polygon fill="midnightblue" stroke="midnightblue" points="504.2,-138.92 511.81,-131.54 501.27,-132.56 504.2,-138.92"/>
</g>
<!-- Node21 -->
<g id="node21" class="node">
<title>Node21</title>
<g id="a_node21"><a xlink:href="memlayout_8h.html" target="_top" xlink:title=" ">
<polygon fill="white" stroke="black" points="786.5,-168.5 786.5,-187.5 893.5,-187.5 893.5,-168.5 786.5,-168.5"/>
<text text-anchor="middle" x="840" y="-175.5" font-family="Helvetica,sans-Serif" font-size="10.00">include/memlayout.h</text>
</a>
</g>
</g>
<!-- Node18&#45;&gt;Node21 -->
<g id="edge29" class="edge">
<title>Node18&#45;&gt;Node21</title>
<path fill="none" stroke="midnightblue" d="M435.9,-336.4C444.32,-313.01 471.24,-248.35 519,-224 530.33,-218.22 685.74,-198.16 776.08,-186.88"/>
<polygon fill="midnightblue" stroke="midnightblue" points="776.74,-190.32 786.23,-185.61 775.87,-183.38 776.74,-190.32"/>
</g>
<!-- Node23 -->
<g id="node23" class="node">
<title>Node23</title>
<g id="a_node23"><a xlink:href="result_8hh.html" target="_top" xlink:title=" ">
<polygon fill="white" stroke="black" points="588,-280.5 588,-299.5 676,-299.5 676,-280.5 588,-280.5"/>
<text text-anchor="middle" x="632" y="-287.5" font-family="Helvetica,sans-Serif" font-size="10.00">include/result.hh</text>
</a>
</g>
</g>
<!-- Node18&#45;&gt;Node23 -->
<g id="edge33" class="edge">
<title>Node18&#45;&gt;Node23</title>
<path fill="none" stroke="midnightblue" d="M464.53,-336.44C498.59,-327.2 553.01,-312.44 590.52,-302.26"/>
<polygon fill="midnightblue" stroke="midnightblue" points="591.88,-305.51 600.62,-299.52 590.05,-298.76 591.88,-305.51"/>
</g>
<!-- Node20&#45;&gt;Node3 -->
<g id="edge28" class="edge">
<title>Node20&#45;&gt;Node3</title>
<path fill="none" stroke="midnightblue" d="M570.1,-113.66C617.63,-104.26 700.26,-87.91 754.03,-77.28"/>
<polygon fill="midnightblue" stroke="midnightblue" points="754.92,-80.67 764.05,-75.3 753.57,-73.8 754.92,-80.67"/>
</g>
<!-- Node21&#45;&gt;Node3 -->
<g id="edge30" class="edge">
<title>Node21&#45;&gt;Node3</title>
<path fill="none" stroke="midnightblue" d="M837.03,-168.4C833.93,-159.37 828.98,-144.73 825,-132 820.12,-116.4 814.94,-98.56 811.22,-85.53"/>
<polygon fill="midnightblue" stroke="midnightblue" points="814.57,-84.53 808.48,-75.86 807.84,-86.44 814.57,-84.53"/>
</g>
<!-- Node22 -->
<g id="node22" class="node">
<title>Node22</title>
<g id="a_node22"><a xlink:href="mmu_8h.html" target="_top" xlink:title=" ">
<polygon fill="white" stroke="black" points="834,-112.5 834,-131.5 914,-131.5 914,-112.5 834,-112.5"/>
<text text-anchor="middle" x="874" y="-119.5" font-family="Helvetica,sans-Serif" font-size="10.00">include/mmu.h</text>
</a>
</g>
</g>
<!-- Node21&#45;&gt;Node22 -->
<g id="edge31" class="edge">
<title>Node21&#45;&gt;Node22</title>
<path fill="none" stroke="midnightblue" d="M845.61,-168.08C850.37,-160.53 857.32,-149.49 863.15,-140.23"/>
<polygon fill="midnightblue" stroke="midnightblue" points="866.12,-142.08 868.49,-131.75 860.2,-138.35 866.12,-142.08"/>
</g>
<!-- Node22&#45;&gt;Node3 -->
<g id="edge32" class="edge">
<title>Node22&#45;&gt;Node3</title>
<path fill="none" stroke="midnightblue" d="M863.07,-112.32C852.83,-104.18 837.28,-91.84 825,-82.09"/>
<polygon fill="midnightblue" stroke="midnightblue" points="827.13,-79.31 817.12,-75.83 822.78,-84.79 827.13,-79.31"/>
</g>
<!-- Node24&#45;&gt;Node15 -->
<g id="edge36" class="edge">
<title>Node24&#45;&gt;Node15</title>
<path fill="none" stroke="midnightblue" d="M658.31,-336.3C666.71,-327.87 678.7,-314.28 685,-300 699.96,-266.07 703.35,-222.22 704,-197.71"/>
<polygon fill="midnightblue" stroke="midnightblue" points="707.5,-197.68 704.13,-187.63 700.5,-197.59 707.5,-197.68"/>
</g>
<!-- Node24&#45;&gt;Node23 -->
<g id="edge44" class="edge">
<title>Node24&#45;&gt;Node23</title>
<path fill="none" stroke="midnightblue" d="M646.19,-336.08C643.92,-328.85 640.63,-318.41 637.79,-309.4"/>
<polygon fill="midnightblue" stroke="midnightblue" points="641.1,-308.24 634.75,-299.75 634.42,-310.34 641.1,-308.24"/>
</g>
<!-- Node25 -->
<g id="node25" class="node">
<title>Node25</title>
<g id="a_node25"><a xlink:href="kernel_2trap_8hh.html" target="_top" xlink:title=" ">
<polygon fill="white" stroke="black" points="732,-280.5 732,-299.5 808,-299.5 808,-280.5 732,-280.5"/>
<text text-anchor="middle" x="770" y="-287.5" font-family="Helvetica,sans-Serif" font-size="10.00">kernel/trap.hh</text>
</a>
</g>
</g>
<!-- Node24&#45;&gt;Node25 -->
<g id="edge37" class="edge">
<title>Node24&#45;&gt;Node25</title>
<path fill="none" stroke="midnightblue" d="M668.17,-336.44C687.91,-327.64 718.89,-313.81 741.49,-303.72"/>
<polygon fill="midnightblue" stroke="midnightblue" points="743.21,-306.79 750.92,-299.52 740.36,-300.4 743.21,-306.79"/>
</g>
<!-- Node25&#45;&gt;Node14 -->
<g id="edge43" class="edge">
<title>Node25&#45;&gt;Node14</title>
<path fill="none" stroke="midnightblue" d="M738.15,-280.44C703.6,-271.16 648.32,-256.31 610.42,-246.13"/>
<polygon fill="midnightblue" stroke="midnightblue" points="611.27,-242.73 600.7,-243.52 609.45,-249.49 611.27,-242.73"/>
</g>
<!-- Node25&#45;&gt;Node15 -->
<g id="edge42" class="edge">
<title>Node25&#45;&gt;Node15</title>
<path fill="none" stroke="midnightblue" d="M764.82,-280.37C753.98,-262.3 728.71,-220.18 714.38,-196.31"/>
<polygon fill="midnightblue" stroke="midnightblue" points="717.3,-194.37 709.15,-187.59 711.3,-197.97 717.3,-194.37"/>
</g>
<!-- Node26 -->
<g id="node26" class="node">
<title>Node26</title>
<g id="a_node26"><a xlink:href="include_2trap_8hh.html" target="_top" xlink:title=" ">
<polygon fill="white" stroke="black" points="906,-224.5 906,-243.5 986,-243.5 986,-224.5 906,-224.5"/>
<text text-anchor="middle" x="946" y="-231.5" font-family="Helvetica,sans-Serif" font-size="10.00">include/trap.hh</text>
</a>
</g>
</g>
<!-- Node25&#45;&gt;Node26 -->
<g id="edge38" class="edge">
<title>Node25&#45;&gt;Node26</title>
<path fill="none" stroke="midnightblue" d="M797.89,-280.44C827.75,-271.28 875.31,-256.69 908.46,-246.52"/>
<polygon fill="midnightblue" stroke="midnightblue" points="909.71,-249.8 918.24,-243.52 907.66,-243.1 909.71,-249.8"/>
</g>
<!-- Node26&#45;&gt;Node2 -->
<g id="edge39" class="edge">
<title>Node26&#45;&gt;Node2</title>
<path fill="none" stroke="midnightblue" d="M964.38,-224.44C983.22,-215.68 1012.73,-201.94 1034.38,-191.86"/>
<polygon fill="midnightblue" stroke="midnightblue" points="1036.12,-194.91 1043.71,-187.52 1033.16,-188.56 1036.12,-194.91"/>
</g>
<!-- Node26&#45;&gt;Node21 -->
<g id="edge41" class="edge">
<title>Node26&#45;&gt;Node21</title>
<path fill="none" stroke="midnightblue" d="M928.97,-224.32C911.97,-215.66 885.62,-202.24 866.01,-192.25"/>
<polygon fill="midnightblue" stroke="midnightblue" points="867.49,-189.08 856.99,-187.65 864.31,-195.31 867.49,-189.08"/>
</g>
<!-- Node26&#45;&gt;Node22 -->
<g id="edge40" class="edge">
<title>Node26&#45;&gt;Node22</title>
<path fill="none" stroke="midnightblue" d="M940.35,-224.37C928.47,-206.22 900.71,-163.8 885.12,-139.99"/>
<polygon fill="midnightblue" stroke="midnightblue" points="888.03,-138.04 879.62,-131.59 882.17,-141.88 888.03,-138.04"/>
</g>
<!-- Node27&#45;&gt;Node15 -->
<g id="edge46" class="edge">
<title>Node27&#45;&gt;Node15</title>
<path fill="none" stroke="midnightblue" d="M783.83,-336.48C801.04,-324.71 827.01,-302.37 817,-280 799.04,-239.86 756.38,-209.09 728.92,-192.56"/>
<polygon fill="midnightblue" stroke="midnightblue" points="730.64,-189.51 720.24,-187.5 727.12,-195.56 730.64,-189.51"/>
</g>
<!-- Node27&#45;&gt;Node19 -->
<g id="edge47" class="edge">
<title>Node27&#45;&gt;Node19</title>
<path fill="none" stroke="midnightblue" d="M730.99,-336.76C694.27,-328.8 637.56,-315.96 579.86,-300.08"/>
<polygon fill="midnightblue" stroke="midnightblue" points="580.79,-296.7 570.22,-297.4 578.92,-303.45 580.79,-296.7"/>
</g>
<!-- Node27&#45;&gt;Node23 -->
<g id="edge49" class="edge">
<title>Node27&#45;&gt;Node23</title>
<path fill="none" stroke="midnightblue" d="M748.13,-336.44C725.22,-327.48 689.02,-313.31 663.13,-303.18"/>
<polygon fill="midnightblue" stroke="midnightblue" points="664.35,-299.9 653.76,-299.52 661.8,-306.42 664.35,-299.9"/>
</g>
<!-- Node27&#45;&gt;Node25 -->
<g id="edge50" class="edge">
<title>Node27&#45;&gt;Node25</title>
<path fill="none" stroke="midnightblue" d="M770,-336.08C770,-329.01 770,-318.86 770,-309.99"/>
<polygon fill="midnightblue" stroke="midnightblue" points="773.5,-309.75 770,-299.75 766.5,-309.75 773.5,-309.75"/>
</g>
<!-- Node28 -->
<g id="node28" class="node">
<title>Node28</title>
<g id="a_node28"><a xlink:href="include_2task_8hh.html" target="_top" xlink:title=" ">
<polygon fill="white" stroke="black" points="864.5,-280.5 864.5,-299.5 947.5,-299.5 947.5,-280.5 864.5,-280.5"/>
<text text-anchor="middle" x="906" y="-287.5" font-family="Helvetica,sans-Serif" font-size="10.00">include/task.hh</text>
</a>
</g>
</g>
<!-- Node27&#45;&gt;Node28 -->
<g id="edge48" class="edge">
<title>Node27&#45;&gt;Node28</title>
<path fill="none" stroke="midnightblue" d="M791.55,-336.44C814.03,-327.52 849.49,-313.44 874.98,-303.32"/>
<polygon fill="midnightblue" stroke="midnightblue" points="876.55,-306.46 884.55,-299.52 873.97,-299.95 876.55,-306.46"/>
</g>
<!-- Node29&#45;&gt;Node3 -->
<g id="edge52" class="edge">
<title>Node29&#45;&gt;Node3</title>
<path fill="none" stroke="midnightblue" d="M829.2,-392.46C866.24,-378.69 935.27,-348.13 975,-300 991.83,-279.62 990.49,-270.04 995,-244 1006.41,-178.15 974.82,-154.19 923,-112 903.45,-96.08 877.63,-85.35 855.22,-78.38"/>
<polygon fill="midnightblue" stroke="midnightblue" points="856.11,-74.99 845.53,-75.53 854.13,-81.71 856.11,-74.99"/>
</g>
<!-- Node29&#45;&gt;Node27 -->
<g id="edge53" class="edge">
<title>Node29&#45;&gt;Node27</title>
<path fill="none" stroke="midnightblue" d="M798.39,-392.08C793.63,-384.53 786.68,-373.49 780.85,-364.23"/>
<polygon fill="midnightblue" stroke="midnightblue" points="783.8,-362.35 775.51,-355.75 777.88,-366.08 783.8,-362.35"/>
</g>
</g>
</svg>
