<?xml version="1.0" encoding="UTF-8" standalone="no"?>
<!DOCTYPE svg PUBLIC "-//W3C//DTD SVG 1.1//EN"
 "http://www.w3.org/Graphics/SVG/1.1/DTD/svg11.dtd">
<!-- Generated by graphviz version 2.44.1 (20200629.0846)
 -->
<!-- Title: i386InitLitchi Pages: 1 -->
<svg width="905pt" height="1244pt"
 viewBox="0.00 0.00 905.00 1244.00" xmlns="http://www.w3.org/2000/svg" xmlns:xlink="http://www.w3.org/1999/xlink">
<g id="graph0" class="graph" transform="scale(1 1) rotate(0) translate(4 1240)">
<title>i386InitLitchi</title>
<polygon fill="white" stroke="transparent" points="-4,4 -4,-1240 901,-1240 901,4 -4,4"/>
<!-- Node1 -->
<g id="node1" class="node">
<title>Node1</title>
<g id="a_node1"><a xlink:title="The entry of litchi kernel for i386 arch.">
<polygon fill="#bfbfbf" stroke="black" points="0,-931.5 0,-950.5 71,-950.5 71,-931.5 0,-931.5"/>
<text text-anchor="middle" x="35.5" y="-938.5" font-family="Helvetica,sans-Serif" font-size="10.00">i386InitLitchi</text>
</a>
</g>
</g>
<!-- Node2 -->
<g id="node2" class="node">
<title>Node2</title>
<g id="a_node2"><a xlink:href="namespacemp.html#aca569437a586ae78d6ef2dd618db865d" target="_top" xlink:title=" ">
<polygon fill="white" stroke="black" points="239,-760.5 239,-779.5 288,-779.5 288,-760.5 239,-760.5"/>
<text text-anchor="middle" x="263.5" y="-767.5" font-family="Helvetica,sans-Serif" font-size="10.00">mp::init</text>
</a>
</g>
</g>
<!-- Node1&#45;&gt;Node2 -->
<g id="edge1" class="edge">
<title>Node1&#45;&gt;Node2</title>
<path fill="none" stroke="midnightblue" d="M49.3,-931.32C86.67,-903.04 195.88,-820.41 241.79,-785.67"/>
<polygon fill="midnightblue" stroke="midnightblue" points="243.98,-788.4 249.84,-779.58 239.76,-782.82 243.98,-788.4"/>
</g>
<!-- Node20 -->
<g id="node12" class="node">
<title>Node20</title>
<g id="a_node12"><a xlink:href="namespaceconsole_1_1out.html#ac6f663e3971b66b8e130ee94755a150e" target="_top" xlink:title=" ">
<polygon fill="white" stroke="black" points="535.5,-969.5 535.5,-988.5 630.5,-988.5 630.5,-969.5 535.5,-969.5"/>
<text text-anchor="middle" x="583" y="-976.5" font-family="Helvetica,sans-Serif" font-size="10.00">console::out::print</text>
</a>
</g>
</g>
<!-- Node1&#45;&gt;Node20 -->
<g id="edge73" class="edge">
<title>Node1&#45;&gt;Node20</title>
<path fill="none" stroke="midnightblue" d="M43.47,-950.68C64.76,-979.3 132.31,-1063.29 212,-1093 342.92,-1141.81 505.19,-1036.18 561.57,-994.74"/>
<polygon fill="midnightblue" stroke="midnightblue" points="563.77,-997.47 569.69,-988.68 559.58,-991.86 563.77,-997.47"/>
</g>
<!-- Node35 -->
<g id="node15" class="node">
<title>Node35</title>
<g id="a_node15"><a xlink:href="namespacetask.html#ac236f50bbe0e2ce82dcfda627a7656cb" target="_top" xlink:title=" ">
<polygon fill="white" stroke="black" points="114.5,-1216.5 114.5,-1235.5 168.5,-1235.5 168.5,-1216.5 114.5,-1216.5"/>
<text text-anchor="middle" x="141.5" y="-1223.5" font-family="Helvetica,sans-Serif" font-size="10.00">task::init</text>
</a>
</g>
</g>
<!-- Node1&#45;&gt;Node35 -->
<g id="edge18" class="edge">
<title>Node1&#45;&gt;Node35</title>
<path fill="none" stroke="midnightblue" d="M36.83,-950.74C38.52,-987.18 48.55,-1117.73 107,-1202 109.06,-1204.97 111.61,-1207.7 114.38,-1210.18"/>
<polygon fill="midnightblue" stroke="midnightblue" points="112.47,-1213.12 122.54,-1216.44 116.74,-1207.57 112.47,-1213.12"/>
</g>
<!-- Node38 -->
<g id="node18" class="node">
<title>Node38</title>
<g id="a_node18"><a xlink:href="namespacetrap.html#aedc8c2599ea9a4426dbf6ce7576a8869" target="_top" xlink:title=" ">
<polygon fill="white" stroke="black" points="115.5,-969.5 115.5,-988.5 167.5,-988.5 167.5,-969.5 115.5,-969.5"/>
<text text-anchor="middle" x="141.5" y="-976.5" font-family="Helvetica,sans-Serif" font-size="10.00">trap::init</text>
</a>
</g>
</g>
<!-- Node1&#45;&gt;Node38 -->
<g id="edge22" class="edge">
<title>Node1&#45;&gt;Node38</title>
<path fill="none" stroke="midnightblue" d="M62.74,-950.59C75.72,-955.33 91.56,-961.12 105.55,-966.23"/>
<polygon fill="midnightblue" stroke="midnightblue" points="104.75,-969.66 115.34,-969.81 107.15,-963.09 104.75,-969.66"/>
</g>
<!-- Node41 -->
<g id="node21" class="node">
<title>Node41</title>
<g id="a_node21"><a xlink:href="namespacemonitor.html#ac02f947e274eb7d38cdfa803c21ef579" target="_top" xlink:title=" ">
<polygon fill="white" stroke="black" points="378.5,-1178.5 378.5,-1197.5 454.5,-1197.5 454.5,-1178.5 378.5,-1178.5"/>
<text text-anchor="middle" x="416.5" y="-1185.5" font-family="Helvetica,sans-Serif" font-size="10.00">monitor::main</text>
</a>
</g>
</g>
<!-- Node1&#45;&gt;Node41 -->
<g id="edge72" class="edge">
<title>Node1&#45;&gt;Node41</title>
<path fill="none" stroke="midnightblue" d="M37.07,-950.9C39.42,-982.04 51.12,-1078.7 107,-1126 181.41,-1188.99 301.98,-1194.29 368.21,-1191.72"/>
<polygon fill="midnightblue" stroke="midnightblue" points="368.53,-1195.21 378.36,-1191.25 368.2,-1188.22 368.53,-1195.21"/>
</g>
<!-- Node56 -->
<g id="node29" class="node">
<title>Node56</title>
<g id="a_node29"><a xlink:href="namespacevmem.html#a4251454df96debe89195bfce18dca4d5" target="_top" xlink:title=" ">
<polygon fill="white" stroke="black" points="110.5,-513.5 110.5,-532.5 172.5,-532.5 172.5,-513.5 110.5,-513.5"/>
<text text-anchor="middle" x="141.5" y="-520.5" font-family="Helvetica,sans-Serif" font-size="10.00">vmem::init</text>
</a>
</g>
</g>
<!-- Node1&#45;&gt;Node56 -->
<g id="edge36" class="edge">
<title>Node1&#45;&gt;Node56</title>
<path fill="none" stroke="midnightblue" d="M37.83,-931.46C43.59,-891.11 67.89,-730.8 107,-604 113.7,-582.29 123.98,-558.35 131.38,-542.17"/>
<polygon fill="midnightblue" stroke="midnightblue" points="134.72,-543.3 135.77,-532.76 128.37,-540.34 134.72,-543.3"/>
</g>
<!-- Node14 -->
<g id="node33" class="node">
<title>Node14</title>
<g id="a_node33"><a xlink:href="namespacemem.html#adbaba9127c03fb914f752bfe19d6d089" target="_top" xlink:title=" ">
<polygon fill="white" stroke="black" points="714.5,-537.5 714.5,-556.5 772.5,-556.5 772.5,-537.5 714.5,-537.5"/>
<text text-anchor="middle" x="743.5" y="-544.5" font-family="Helvetica,sans-Serif" font-size="10.00">mem::set</text>
</a>
</g>
</g>
<!-- Node1&#45;&gt;Node14 -->
<g id="edge74" class="edge">
<title>Node1&#45;&gt;Node14</title>
<path fill="none" stroke="midnightblue" d="M38.21,-931.33C48.35,-877.59 105.43,-618 262.5,-618 262.5,-618 262.5,-618 417.5,-618 525.05,-618 648.11,-580.43 707.2,-559.95"/>
<polygon fill="midnightblue" stroke="midnightblue" points="708.52,-563.19 716.8,-556.58 706.2,-556.59 708.52,-563.19"/>
</g>
<!-- Node73 -->
<g id="node47" class="node">
<title>Node73</title>
<g id="a_node47"><a xlink:href="namespaceconsole.html#a728a3b74465d4074af509f7433998f03" target="_top" xlink:title=" ">
<polygon fill="white" stroke="black" points="107,-38.5 107,-57.5 176,-57.5 176,-38.5 107,-38.5"/>
<text text-anchor="middle" x="141.5" y="-45.5" font-family="Helvetica,sans-Serif" font-size="10.00">console::init</text>
</a>
</g>
</g>
<!-- Node1&#45;&gt;Node73 -->
<g id="edge67" class="edge">
<title>Node1&#45;&gt;Node73</title>
<path fill="none" stroke="midnightblue" d="M37.63,-931.28C47.84,-843.66 123.88,-190.68 138.18,-67.88"/>
<polygon fill="midnightblue" stroke="midnightblue" points="141.69,-68.03 139.37,-57.69 134.74,-67.22 141.69,-68.03"/>
</g>
<!-- Node3 -->
<g id="node3" class="node">
<title>Node3</title>
<g id="a_node3"><a xlink:href="namespacemp.html#a68789ab3ae0e30a2fc2c7e29ba165a83" target="_top" xlink:title=" ">
<polygon fill="white" stroke="black" points="536,-836.5 536,-855.5 630,-855.5 630,-836.5 536,-836.5"/>
<text text-anchor="middle" x="583" y="-843.5" font-family="Helvetica,sans-Serif" font-size="10.00">mp::checksumOk</text>
</a>
</g>
</g>
<!-- Node2&#45;&gt;Node3 -->
<g id="edge2" class="edge">
<title>Node2&#45;&gt;Node3</title>
<path fill="none" stroke="midnightblue" d="M288.14,-766.82C329.68,-762.34 417.49,-757.85 482,-789 502.95,-799.11 498.17,-814.83 518,-827 521.4,-829.09 525.05,-830.96 528.81,-832.63"/>
<polygon fill="midnightblue" stroke="midnightblue" points="527.75,-835.98 538.33,-836.4 530.32,-829.47 527.75,-835.98"/>
</g>
<!-- Node4 -->
<g id="node4" class="node">
<title>Node4</title>
<g id="a_node4"><a xlink:href="namespacemem.html#a568ab26b8411b4ea9a13ab993465184f" target="_top" xlink:title=" ">
<polygon fill="white" stroke="black" points="551.5,-798.5 551.5,-817.5 614.5,-817.5 614.5,-798.5 551.5,-798.5"/>
<text text-anchor="middle" x="583" y="-805.5" font-family="Helvetica,sans-Serif" font-size="10.00">mem::cmp</text>
</a>
</g>
</g>
<!-- Node2&#45;&gt;Node4 -->
<g id="edge3" class="edge">
<title>Node2&#45;&gt;Node4</title>
<path fill="none" stroke="midnightblue" d="M288.03,-762.2C329.02,-749.95 415.53,-730.14 482,-756 502.23,-763.87 499.11,-778.3 518,-789 525.24,-793.1 533.46,-796.4 541.53,-799.02"/>
<polygon fill="midnightblue" stroke="midnightblue" points="540.65,-802.4 551.23,-801.88 542.63,-795.69 540.65,-802.4"/>
</g>
<!-- Node6 -->
<g id="node6" class="node">
<title>Node6</title>
<g id="a_node6"><a xlink:href="namespacemem.html#a64d9d05b439041901498c606de606431" target="_top" xlink:title=" ">
<polygon fill="white" stroke="black" points="711,-637.5 711,-656.5 776,-656.5 776,-637.5 711,-637.5"/>
<text text-anchor="middle" x="743.5" y="-644.5" font-family="Helvetica,sans-Serif" font-size="10.00">mem::copy</text>
</a>
</g>
</g>
<!-- Node2&#45;&gt;Node6 -->
<g id="edge5" class="edge">
<title>Node2&#45;&gt;Node6</title>
<path fill="none" stroke="midnightblue" d="M269.87,-760.24C281.55,-740.1 311.47,-694.18 351,-675 411.68,-645.55 612.6,-644.9 700.6,-646.12"/>
<polygon fill="midnightblue" stroke="midnightblue" points="700.7,-649.63 710.76,-646.28 700.81,-642.63 700.7,-649.63"/>
</g>
<!-- Node7 -->
<g id="node7" class="node">
<title>Node7</title>
<g id="a_node7"><a xlink:href="namespacemp_1_1lapic.html#a4dc5a42e5633604126309b44a4a1aa34" target="_top" xlink:title=" ">
<polygon fill="white" stroke="black" points="379,-684.5 379,-703.5 454,-703.5 454,-684.5 379,-684.5"/>
<text text-anchor="middle" x="416.5" y="-691.5" font-family="Helvetica,sans-Serif" font-size="10.00">mp::lapic::init</text>
</a>
</g>
</g>
<!-- Node2&#45;&gt;Node7 -->
<g id="edge7" class="edge">
<title>Node2&#45;&gt;Node7</title>
<path fill="none" stroke="midnightblue" d="M278.73,-760.32C295.51,-749.17 324.48,-730.77 351,-718 359.21,-714.05 368.26,-710.32 376.91,-707.03"/>
<polygon fill="midnightblue" stroke="midnightblue" points="378.27,-710.26 386.45,-703.52 375.86,-703.69 378.27,-710.26"/>
</g>
<!-- Node2&#45;&gt;Node20 -->
<g id="edge12" class="edge">
<title>Node2&#45;&gt;Node20</title>
<path fill="none" stroke="midnightblue" d="M276.77,-779.61C292.99,-791.95 322.82,-813.39 351,-827 406.18,-853.65 430.5,-836.79 482,-870 519.92,-894.45 552.89,-936.68 569.84,-960.76"/>
<polygon fill="midnightblue" stroke="midnightblue" points="567.17,-963.06 575.72,-969.31 572.94,-959.09 567.17,-963.06"/>
</g>
<!-- Node34 -->
<g id="node14" class="node">
<title>Node34</title>
<g id="a_node14"><a xlink:href="namespacemp.html#aee68d08a23f0a0d188f20f4cb0fbaa21" target="_top" xlink:title=" ">
<polygon fill="white" stroke="black" points="377.5,-798.5 377.5,-817.5 455.5,-817.5 455.5,-798.5 377.5,-798.5"/>
<text text-anchor="middle" x="416.5" y="-805.5" font-family="Helvetica,sans-Serif" font-size="10.00">mp::searchFP</text>
</a>
</g>
</g>
<!-- Node2&#45;&gt;Node34 -->
<g id="edge14" class="edge">
<title>Node2&#45;&gt;Node34</title>
<path fill="none" stroke="midnightblue" d="M288.09,-775.94C309.35,-781.29 341.24,-789.31 367.8,-796"/>
<polygon fill="midnightblue" stroke="midnightblue" points="367.14,-799.44 377.69,-798.48 368.85,-792.65 367.14,-799.44"/>
</g>
<!-- Node5 -->
<g id="node5" class="node">
<title>Node5</title>
<g id="a_node5"><a xlink:href="namespacestr.html#a062221f630647cf300f0dd982c4ed904" target="_top" xlink:title=" ">
<polygon fill="white" stroke="black" points="839,-608.5 839,-627.5 897,-627.5 897,-608.5 839,-608.5"/>
<text text-anchor="middle" x="868" y="-615.5" font-family="Helvetica,sans-Serif" font-size="10.00">str::count</text>
</a>
</g>
</g>
<!-- Node4&#45;&gt;Node5 -->
<g id="edge4" class="edge">
<title>Node4&#45;&gt;Node5</title>
<path fill="none" stroke="midnightblue" d="M614.53,-801.44C625.44,-798.45 637.59,-794.36 648,-789 731.76,-745.84 815.21,-668.98 850.05,-634.98"/>
<polygon fill="midnightblue" stroke="midnightblue" points="852.8,-637.18 857.47,-627.67 847.89,-632.2 852.8,-637.18"/>
</g>
<!-- Node6&#45;&gt;Node5 -->
<g id="edge6" class="edge">
<title>Node6&#45;&gt;Node5</title>
<path fill="none" stroke="midnightblue" d="M776.05,-639.53C792.13,-635.72 811.82,-631.06 828.77,-627.05"/>
<polygon fill="midnightblue" stroke="midnightblue" points="829.98,-630.36 838.9,-624.65 828.37,-623.55 829.98,-630.36"/>
</g>
<!-- Node8 -->
<g id="node8" class="node">
<title>Node8</title>
<g id="a_node8"><a xlink:href="namespacemp_1_1lapic.html#a89d1f9c2d3539bb6d95a9bfa27a6567e" target="_top" xlink:title=" ">
<polygon fill="white" stroke="black" points="538,-760.5 538,-779.5 628,-779.5 628,-760.5 538,-760.5"/>
<text text-anchor="middle" x="583" y="-767.5" font-family="Helvetica,sans-Serif" font-size="10.00">mp::lapic::lapicw</text>
</a>
</g>
</g>
<!-- Node7&#45;&gt;Node8 -->
<g id="edge8" class="edge">
<title>Node7&#45;&gt;Node8</title>
<path fill="none" stroke="midnightblue" d="M450.46,-703.51C460.94,-707.24 472.32,-712.08 482,-718 500.51,-729.33 499.11,-740.3 518,-751 521.91,-753.21 526.1,-755.19 530.39,-756.95"/>
<polygon fill="midnightblue" stroke="midnightblue" points="529.31,-760.29 539.91,-760.48 531.75,-753.72 529.31,-760.29"/>
</g>
<!-- Node9 -->
<g id="node9" class="node">
<title>Node9</title>
<g id="a_node9"><a xlink:href="namespacevmem_1_1pgdir.html#a00038e22197d7591a4b36d82a1b1f546" target="_top" xlink:title=" ">
<polygon fill="white" stroke="black" points="523.5,-684.5 523.5,-703.5 642.5,-703.5 642.5,-684.5 523.5,-684.5"/>
<text text-anchor="middle" x="583" y="-691.5" font-family="Helvetica,sans-Serif" font-size="10.00">vmem::pgdir::mmioMap</text>
</a>
</g>
</g>
<!-- Node7&#45;&gt;Node9 -->
<g id="edge9" class="edge">
<title>Node7&#45;&gt;Node9</title>
<path fill="none" stroke="midnightblue" d="M454.01,-694C471.42,-694 492.84,-694 513.14,-694"/>
<polygon fill="midnightblue" stroke="midnightblue" points="513.3,-697.5 523.3,-694 513.3,-690.5 513.3,-697.5"/>
</g>
<!-- Node19 -->
<g id="node11" class="node">
<title>Node19</title>
<g id="a_node11"><a xlink:href="namespacemp.html#ac228ae52f74f9d0d79d59aca47da5308" target="_top" xlink:title=" ">
<polygon fill="white" stroke="black" points="546,-722.5 546,-741.5 620,-741.5 620,-722.5 546,-722.5"/>
<text text-anchor="middle" x="583" y="-729.5" font-family="Helvetica,sans-Serif" font-size="10.00">mp::thisCPU</text>
</a>
</g>
</g>
<!-- Node7&#45;&gt;Node19 -->
<g id="edge11" class="edge">
<title>Node7&#45;&gt;Node19</title>
<path fill="none" stroke="midnightblue" d="M454.01,-702.43C478.16,-708.01 510.02,-715.37 535.91,-721.35"/>
<polygon fill="midnightblue" stroke="midnightblue" points="535.35,-724.81 545.88,-723.66 536.92,-717.99 535.35,-724.81"/>
</g>
<!-- Node10 -->
<g id="node10" class="node">
<title>Node10</title>
<g id="a_node10"><a xlink:href="namespacevmem_1_1pgdir.html#a07dd6afb36a9efd207d6372a0f0f36e8" target="_top" xlink:title=" ">
<polygon fill="white" stroke="red" points="684,-380.5 684,-399.5 803,-399.5 803,-380.5 684,-380.5"/>
<text text-anchor="middle" x="743.5" y="-387.5" font-family="Helvetica,sans-Serif" font-size="10.00">vmem::pgdir::staticMap</text>
</a>
</g>
</g>
<!-- Node9&#45;&gt;Node10 -->
<g id="edge10" class="edge">
<title>Node9&#45;&gt;Node10</title>
<path fill="none" stroke="midnightblue" d="M589.09,-684.23C611.64,-640.99 702.64,-466.44 732.76,-408.67"/>
<polygon fill="midnightblue" stroke="midnightblue" points="735.98,-410.07 737.5,-399.58 729.78,-406.83 735.98,-410.07"/>
</g>
<!-- Node21 -->
<g id="node13" class="node">
<title>Node21</title>
<g id="a_node13"><a xlink:href="namespaceconsole_1_1out.html#a8f791bfac54067cadb1b9f18117b987b" target="_top" xlink:title=" ">
<polygon fill="white" stroke="red" points="690.5,-969.5 690.5,-988.5 796.5,-988.5 796.5,-969.5 690.5,-969.5"/>
<text text-anchor="middle" x="743.5" y="-976.5" font-family="Helvetica,sans-Serif" font-size="10.00">console::out::printVa</text>
</a>
</g>
</g>
<!-- Node20&#45;&gt;Node21 -->
<g id="edge13" class="edge">
<title>Node20&#45;&gt;Node21</title>
<path fill="none" stroke="midnightblue" d="M630.7,-979C646.2,-979 663.71,-979 680.2,-979"/>
<polygon fill="midnightblue" stroke="midnightblue" points="680.31,-982.5 690.31,-979 680.31,-975.5 680.31,-982.5"/>
</g>
<!-- Node34&#45;&gt;Node3 -->
<g id="edge15" class="edge">
<title>Node34&#45;&gt;Node3</title>
<path fill="none" stroke="midnightblue" d="M455.65,-816.81C478.01,-821.98 506.54,-828.57 530.83,-834.18"/>
<polygon fill="midnightblue" stroke="midnightblue" points="530.06,-837.59 540.6,-836.44 531.64,-830.77 530.06,-837.59"/>
</g>
<!-- Node34&#45;&gt;Node4 -->
<g id="edge16" class="edge">
<title>Node34&#45;&gt;Node4</title>
<path fill="none" stroke="midnightblue" d="M455.65,-808C481.26,-808 514.97,-808 541.13,-808"/>
<polygon fill="midnightblue" stroke="midnightblue" points="541.47,-811.5 551.47,-808 541.47,-804.5 541.47,-811.5"/>
</g>
<!-- Node34&#45;&gt;Node20 -->
<g id="edge17" class="edge">
<title>Node34&#45;&gt;Node20</title>
<path fill="none" stroke="midnightblue" d="M455.03,-817.56C464.44,-821.1 474.1,-825.81 482,-832 527.18,-867.41 559.49,-928.95 573.79,-959.97"/>
<polygon fill="midnightblue" stroke="midnightblue" points="570.66,-961.54 577.94,-969.24 577.04,-958.68 570.66,-961.54"/>
</g>
<!-- Node35&#45;&gt;Node20 -->
<g id="edge21" class="edge">
<title>Node35&#45;&gt;Node20</title>
<path fill="none" stroke="midnightblue" d="M168.52,-1218.85C245.71,-1197.58 468.87,-1135.57 482,-1126 528.61,-1092.02 560.46,-1029.32 574.26,-997.93"/>
<polygon fill="midnightblue" stroke="midnightblue" points="577.55,-999.15 578.24,-988.58 571.11,-996.41 577.55,-999.15"/>
</g>
<!-- Node36 -->
<g id="node16" class="node">
<title>Node36</title>
<g id="a_node16"><a xlink:href="namespacetask.html#afc79ae96091abe626247b525191d2bf2" target="_top" xlink:title=" ">
<polygon fill="white" stroke="black" points="220,-1216.5 220,-1235.5 307,-1235.5 307,-1216.5 220,-1216.5"/>
<text text-anchor="middle" x="263.5" y="-1223.5" font-family="Helvetica,sans-Serif" font-size="10.00">task::initPerCpu</text>
</a>
</g>
</g>
<!-- Node35&#45;&gt;Node36 -->
<g id="edge19" class="edge">
<title>Node35&#45;&gt;Node36</title>
<path fill="none" stroke="midnightblue" d="M168.54,-1226C180.63,-1226 195.47,-1226 209.75,-1226"/>
<polygon fill="midnightblue" stroke="midnightblue" points="210,-1229.5 220,-1226 210,-1222.5 210,-1229.5"/>
</g>
<!-- Node37 -->
<g id="node17" class="node">
<title>Node37</title>
<g id="a_node17"><a xlink:href="x86_8h.html#ae9e640e067c36511ec58ff09ada05253" target="_top" xlink:title=" ">
<polygon fill="white" stroke="black" points="400.5,-1216.5 400.5,-1235.5 432.5,-1235.5 432.5,-1216.5 400.5,-1216.5"/>
<text text-anchor="middle" x="416.5" y="-1223.5" font-family="Helvetica,sans-Serif" font-size="10.00">lgdt</text>
</a>
</g>
</g>
<!-- Node36&#45;&gt;Node37 -->
<g id="edge20" class="edge">
<title>Node36&#45;&gt;Node37</title>
<path fill="none" stroke="midnightblue" d="M307.37,-1226C334.04,-1226 367.45,-1226 390.02,-1226"/>
<polygon fill="midnightblue" stroke="midnightblue" points="390.15,-1229.5 400.15,-1226 390.15,-1222.5 390.15,-1229.5"/>
</g>
<!-- Node38&#45;&gt;Node20 -->
<g id="edge34" class="edge">
<title>Node38&#45;&gt;Node20</title>
<path fill="none" stroke="midnightblue" d="M155.5,-969.27C168.86,-959.93 190.68,-946.45 212,-941 328.26,-911.29 363.97,-919.33 482,-941 507.16,-945.62 534.19,-956.27 553.8,-965.12"/>
<polygon fill="midnightblue" stroke="midnightblue" points="552.51,-968.38 563.06,-969.42 555.46,-962.03 552.51,-968.38"/>
</g>
<!-- Node39 -->
<g id="node19" class="node">
<title>Node39</title>
<g id="a_node19"><a xlink:href="x86_8h.html#a7212dae3820e33d3e65b624a9fee1b04" target="_top" xlink:title=" ">
<polygon fill="white" stroke="black" points="232.5,-1064.5 232.5,-1083.5 294.5,-1083.5 294.5,-1064.5 232.5,-1064.5"/>
<text text-anchor="middle" x="263.5" y="-1071.5" font-family="Helvetica,sans-Serif" font-size="10.00">breakpoint</text>
</a>
</g>
</g>
<!-- Node38&#45;&gt;Node39 -->
<g id="edge23" class="edge">
<title>Node38&#45;&gt;Node39</title>
<path fill="none" stroke="midnightblue" d="M148.89,-988.5C159.99,-1004.35 184.31,-1036.26 212,-1055 215.35,-1057.27 219.01,-1059.31 222.78,-1061.14"/>
<polygon fill="midnightblue" stroke="midnightblue" points="221.68,-1064.48 232.25,-1065.26 224.47,-1058.06 221.68,-1064.48"/>
</g>
<!-- Node40 -->
<g id="node20" class="node">
<title>Node40</title>
<g id="a_node20"><a xlink:href="namespacetrap_1_1handler.html#aa067cfbe3cae2802d8b48a14d125daa3" target="_top" xlink:title=" ">
<polygon fill="white" stroke="black" points="212,-988.5 212,-1007.5 315,-1007.5 315,-988.5 212,-988.5"/>
<text text-anchor="middle" x="263.5" y="-995.5" font-family="Helvetica,sans-Serif" font-size="10.00">trap::handler::debug</text>
</a>
</g>
</g>
<!-- Node38&#45;&gt;Node40 -->
<g id="edge24" class="edge">
<title>Node38&#45;&gt;Node40</title>
<path fill="none" stroke="midnightblue" d="M167.66,-982.98C177.64,-984.56 189.6,-986.46 201.61,-988.36"/>
<polygon fill="midnightblue" stroke="midnightblue" points="201.24,-991.84 211.66,-989.95 202.33,-984.93 201.24,-991.84"/>
</g>
<!-- Node52 -->
<g id="node25" class="node">
<title>Node52</title>
<g id="a_node25"><a xlink:href="namespacetrap.html#a122971dfdb9c856a2343f1869781e3db" target="_top" xlink:title=" ">
<polygon fill="white" stroke="black" points="221,-950.5 221,-969.5 306,-969.5 306,-950.5 221,-950.5"/>
<text text-anchor="middle" x="263.5" y="-957.5" font-family="Helvetica,sans-Serif" font-size="10.00">trap::initPerCpu</text>
</a>
</g>
</g>
<!-- Node38&#45;&gt;Node52 -->
<g id="edge31" class="edge">
<title>Node38&#45;&gt;Node52</title>
<path fill="none" stroke="midnightblue" d="M167.66,-975.02C180.16,-973.04 195.76,-970.57 210.68,-968.21"/>
<polygon fill="midnightblue" stroke="midnightblue" points="211.52,-971.62 220.85,-966.6 210.42,-964.7 211.52,-971.62"/>
</g>
<!-- Node55 -->
<g id="node28" class="node">
<title>Node55</title>
<g id="a_node28"><a xlink:href="stdlib_8hh.html#ab9656f5950c15e0f988c0cde1c3c07dd" target="_top" xlink:title=" ">
<polygon fill="white" stroke="black" points="240,-1026.5 240,-1045.5 287,-1045.5 287,-1026.5 240,-1026.5"/>
<text text-anchor="middle" x="263.5" y="-1033.5" font-family="Helvetica,sans-Serif" font-size="10.00">syscall</text>
</a>
</g>
</g>
<!-- Node38&#45;&gt;Node55 -->
<g id="edge35" class="edge">
<title>Node38&#45;&gt;Node55</title>
<path fill="none" stroke="midnightblue" d="M158.46,-988.56C172.34,-996.68 193.13,-1008.34 212,-1017 217.87,-1019.69 224.23,-1022.31 230.41,-1024.7"/>
<polygon fill="midnightblue" stroke="midnightblue" points="229.26,-1028.01 239.85,-1028.25 231.72,-1021.45 229.26,-1028.01"/>
</g>
<!-- Node40&#45;&gt;Node20 -->
<g id="edge30" class="edge">
<title>Node40&#45;&gt;Node20</title>
<path fill="none" stroke="midnightblue" d="M299.57,-1007.51C315.18,-1011.27 333.88,-1015.14 351,-1017 408.88,-1023.28 424.73,-1027.51 482,-1017 507.16,-1012.38 534.19,-1001.73 553.8,-992.88"/>
<polygon fill="midnightblue" stroke="midnightblue" points="555.46,-995.97 563.06,-988.58 552.51,-989.62 555.46,-995.97"/>
</g>
<!-- Node40&#45;&gt;Node41 -->
<g id="edge25" class="edge">
<title>Node40&#45;&gt;Node41</title>
<path fill="none" stroke="midnightblue" d="M299.37,-1007.52C304.96,-1010.02 310.41,-1013.14 315,-1017 365.38,-1059.4 396.57,-1133.87 409.13,-1168.84"/>
<polygon fill="midnightblue" stroke="midnightblue" points="405.84,-1170.04 412.43,-1178.34 412.45,-1167.75 405.84,-1170.04"/>
</g>
<!-- Node41&#45;&gt;Node20 -->
<g id="edge27" class="edge">
<title>Node41&#45;&gt;Node20</title>
<path fill="none" stroke="midnightblue" d="M454.8,-1179.23C464.42,-1175.66 474.25,-1170.74 482,-1164 535.41,-1117.56 565.28,-1035.36 576.63,-998.2"/>
<polygon fill="midnightblue" stroke="midnightblue" points="579.99,-999.17 579.45,-988.59 573.27,-997.19 579.99,-999.17"/>
</g>
<!-- Node42 -->
<g id="node22" class="node">
<title>Node42</title>
<g id="a_node22"><a xlink:href="namespacemonitor.html#a8b88ed0586263051a6af8dbff388e314" target="_top" xlink:title=" ">
<polygon fill="white" stroke="red" points="533,-1140.5 533,-1159.5 633,-1159.5 633,-1140.5 533,-1140.5"/>
<text text-anchor="middle" x="583" y="-1147.5" font-family="Helvetica,sans-Serif" font-size="10.00">monitor::parseCmd</text>
</a>
</g>
</g>
<!-- Node41&#45;&gt;Node42 -->
<g id="edge26" class="edge">
<title>Node41&#45;&gt;Node42</title>
<path fill="none" stroke="midnightblue" d="M454.83,-1179.38C477.32,-1174.18 506.28,-1167.49 530.89,-1161.81"/>
<polygon fill="midnightblue" stroke="midnightblue" points="531.82,-1165.18 540.78,-1159.52 530.25,-1158.36 531.82,-1165.18"/>
</g>
<!-- Node47 -->
<g id="node23" class="node">
<title>Node47</title>
<g id="a_node23"><a xlink:href="namespaceconsole_1_1err.html#a124c7e8527c0e3fd2b9636411aea7e82" target="_top" xlink:title=" ">
<polygon fill="white" stroke="red" points="537,-1216.5 537,-1235.5 629,-1235.5 629,-1216.5 537,-1216.5"/>
<text text-anchor="middle" x="583" y="-1223.5" font-family="Helvetica,sans-Serif" font-size="10.00">console::err::print</text>
</a>
</g>
</g>
<!-- Node41&#45;&gt;Node47 -->
<g id="edge28" class="edge">
<title>Node41&#45;&gt;Node47</title>
<path fill="none" stroke="midnightblue" d="M454.83,-1196.62C477.32,-1201.82 506.28,-1208.51 530.89,-1214.19"/>
<polygon fill="midnightblue" stroke="midnightblue" points="530.25,-1217.64 540.78,-1216.48 531.82,-1210.82 530.25,-1217.64"/>
</g>
<!-- Node49 -->
<g id="node24" class="node">
<title>Node49</title>
<g id="a_node24"><a xlink:href="namespaceconsole_1_1in.html#afa763e7729f2e6fbdcf4c14e44ad7a29" target="_top" xlink:title=" ">
<polygon fill="white" stroke="red" points="531,-1178.5 531,-1197.5 635,-1197.5 635,-1178.5 531,-1178.5"/>
<text text-anchor="middle" x="583" y="-1185.5" font-family="Helvetica,sans-Serif" font-size="10.00">console::in::readline</text>
</a>
</g>
</g>
<!-- Node41&#45;&gt;Node49 -->
<g id="edge29" class="edge">
<title>Node41&#45;&gt;Node49</title>
<path fill="none" stroke="midnightblue" d="M454.83,-1188C474.22,-1188 498.42,-1188 520.49,-1188"/>
<polygon fill="midnightblue" stroke="midnightblue" points="520.79,-1191.5 530.79,-1188 520.79,-1184.5 520.79,-1191.5"/>
</g>
<!-- Node53 -->
<g id="node26" class="node">
<title>Node53</title>
<g id="a_node26"><a xlink:href="x86_8h.html#a3a83060064855a2a5ab203a164d2d47e" target="_top" xlink:title=" ">
<polygon fill="white" stroke="black" points="402,-950.5 402,-969.5 431,-969.5 431,-950.5 402,-950.5"/>
<text text-anchor="middle" x="416.5" y="-957.5" font-family="Helvetica,sans-Serif" font-size="10.00">lidt</text>
</a>
</g>
</g>
<!-- Node52&#45;&gt;Node53 -->
<g id="edge32" class="edge">
<title>Node52&#45;&gt;Node53</title>
<path fill="none" stroke="midnightblue" d="M306.16,-960C333.62,-960 368.6,-960 391.51,-960"/>
<polygon fill="midnightblue" stroke="midnightblue" points="391.69,-963.5 401.69,-960 391.69,-956.5 391.69,-963.5"/>
</g>
<!-- Node54 -->
<g id="node27" class="node">
<title>Node54</title>
<g id="a_node27"><a xlink:href="x86_8h.html#a6b866857c06dcdcbf81ac93c9f6d78f8" target="_top" xlink:title=" ">
<polygon fill="white" stroke="black" points="402,-988.5 402,-1007.5 431,-1007.5 431,-988.5 402,-988.5"/>
<text text-anchor="middle" x="416.5" y="-995.5" font-family="Helvetica,sans-Serif" font-size="10.00">ltr</text>
</a>
</g>
</g>
<!-- Node52&#45;&gt;Node54 -->
<g id="edge33" class="edge">
<title>Node52&#45;&gt;Node54</title>
<path fill="none" stroke="midnightblue" d="M302.6,-969.59C330.64,-976.64 367.87,-986.01 391.77,-992.03"/>
<polygon fill="midnightblue" stroke="midnightblue" points="391.17,-995.49 401.72,-994.53 392.88,-988.7 391.17,-995.49"/>
</g>
<!-- Node56&#45;&gt;Node20 -->
<g id="edge66" class="edge">
<title>Node56&#45;&gt;Node20</title>
<path fill="none" stroke="midnightblue" d="M142.36,-532.68C142.32,-570.05 146.83,-706.97 212,-789 294.61,-892.98 363.98,-856.12 482,-917 509.71,-931.29 539.92,-950.58 559.8,-963.83"/>
<polygon fill="midnightblue" stroke="midnightblue" points="557.92,-966.77 568.17,-969.45 561.82,-960.97 557.92,-966.77"/>
</g>
<!-- Node57 -->
<g id="node30" class="node">
<title>Node57</title>
<g id="a_node30"><a xlink:href="namespacevmem_1_1pgdir.html#a21f3c45c22787494739ad9d15464a67d" target="_top" xlink:title=" ">
<polygon fill="white" stroke="black" points="215,-570.5 215,-589.5 312,-589.5 312,-570.5 215,-570.5"/>
<text text-anchor="middle" x="263.5" y="-577.5" font-family="Helvetica,sans-Serif" font-size="10.00">vmem::pgdir::alloc</text>
</a>
</g>
</g>
<!-- Node56&#45;&gt;Node57 -->
<g id="edge37" class="edge">
<title>Node56&#45;&gt;Node57</title>
<path fill="none" stroke="midnightblue" d="M162.59,-532.54C181.88,-541.71 211.26,-555.66 233.17,-566.07"/>
<polygon fill="midnightblue" stroke="midnightblue" points="231.81,-569.3 242.35,-570.43 234.82,-562.98 231.81,-569.3"/>
</g>
<!-- Node58 -->
<g id="node31" class="node">
<title>Node58</title>
<g id="a_node31"><a xlink:href="namespacevmem.html#aba25132214a42a641dafb1b21a1ce2db" target="_top" xlink:title=" ">
<polygon fill="white" stroke="black" points="371.5,-532.5 371.5,-551.5 461.5,-551.5 461.5,-532.5 371.5,-532.5"/>
<text text-anchor="middle" x="416.5" y="-539.5" font-family="Helvetica,sans-Serif" font-size="10.00">vmem::bootAlloc</text>
</a>
</g>
</g>
<!-- Node56&#45;&gt;Node58 -->
<g id="edge46" class="edge">
<title>Node56&#45;&gt;Node58</title>
<path fill="none" stroke="midnightblue" d="M172.76,-525.11C218.11,-528.26 304.4,-534.27 360.94,-538.2"/>
<polygon fill="midnightblue" stroke="midnightblue" points="360.91,-541.71 371.13,-538.91 361.39,-534.73 360.91,-541.71"/>
</g>
<!-- Node59 -->
<g id="node34" class="node">
<title>Node59</title>
<g id="a_node34"><a xlink:href="namespacetask.html#a4b014bf8c26e9b49cb7a9d7d31889b4f" target="_top" xlink:title=" ">
<polygon fill="white" stroke="black" points="374,-380.5 374,-399.5 459,-399.5 459,-380.5 374,-380.5"/>
<text text-anchor="middle" x="416.5" y="-387.5" font-family="Helvetica,sans-Serif" font-size="10.00">task::allocArray</text>
</a>
</g>
</g>
<!-- Node56&#45;&gt;Node59 -->
<g id="edge43" class="edge">
<title>Node56&#45;&gt;Node59</title>
<path fill="none" stroke="midnightblue" d="M147.54,-513.36C157.39,-495.51 180.96,-457.39 212,-438 258.31,-409.06 320.47,-397.56 363.85,-392.99"/>
<polygon fill="midnightblue" stroke="midnightblue" points="364.29,-396.47 373.91,-392.02 363.62,-389.5 364.29,-396.47"/>
</g>
<!-- Node60 -->
<g id="node35" class="node">
<title>Node60</title>
<g id="a_node35"><a xlink:href="namespacevmem.html#a18b5f085011286d242840949c48343b6" target="_top" xlink:title=" ">
<polygon fill="white" stroke="black" points="225,-447.5 225,-466.5 302,-466.5 302,-447.5 225,-447.5"/>
<text text-anchor="middle" x="263.5" y="-454.5" font-family="Helvetica,sans-Serif" font-size="10.00">vmem::detect</text>
</a>
</g>
</g>
<!-- Node56&#45;&gt;Node60 -->
<g id="edge47" class="edge">
<title>Node56&#45;&gt;Node60</title>
<path fill="none" stroke="midnightblue" d="M159.95,-513.4C179.95,-502.41 212.93,-484.26 236.08,-471.53"/>
<polygon fill="midnightblue" stroke="midnightblue" points="237.95,-474.49 245.03,-466.61 234.58,-468.36 237.95,-474.49"/>
</g>
<!-- Node64 -->
<g id="node37" class="node">
<title>Node64</title>
<g id="a_node37"><a xlink:href="namespacevmem_1_1page.html#a0e0d89ec339a2a0b1ad01b83f06d7e0b" target="_top" xlink:title=" ">
<polygon fill="white" stroke="black" points="219,-494.5 219,-513.5 308,-513.5 308,-494.5 219,-494.5"/>
<text text-anchor="middle" x="263.5" y="-501.5" font-family="Helvetica,sans-Serif" font-size="10.00">vmem::page::init</text>
</a>
</g>
</g>
<!-- Node56&#45;&gt;Node64 -->
<g id="edge49" class="edge">
<title>Node56&#45;&gt;Node64</title>
<path fill="none" stroke="midnightblue" d="M172.78,-518.21C183.63,-516.49 196.21,-514.5 208.46,-512.56"/>
<polygon fill="midnightblue" stroke="midnightblue" points="209.3,-515.97 218.63,-510.95 208.2,-509.05 209.3,-515.97"/>
</g>
<!-- Node66 -->
<g id="node39" class="node">
<title>Node66</title>
<g id="a_node39"><a xlink:href="namespacevmem_1_1pgdir.html#a1a38223c602b0a8117cac423efa0342d" target="_top" xlink:title=" ">
<polygon fill="white" stroke="black" points="219,-209.5 219,-228.5 308,-228.5 308,-209.5 219,-209.5"/>
<text text-anchor="middle" x="263.5" y="-216.5" font-family="Helvetica,sans-Serif" font-size="10.00">vmem::pgdir::init</text>
</a>
</g>
</g>
<!-- Node56&#45;&gt;Node66 -->
<g id="edge53" class="edge">
<title>Node56&#45;&gt;Node66</title>
<path fill="none" stroke="midnightblue" d="M146.36,-513.23C163.39,-470.08 232.04,-296.17 254.99,-238.03"/>
<polygon fill="midnightblue" stroke="midnightblue" points="258.3,-239.17 258.72,-228.58 251.79,-236.6 258.3,-239.17"/>
</g>
<!-- Node57&#45;&gt;Node58 -->
<g id="edge38" class="edge">
<title>Node57&#45;&gt;Node58</title>
<path fill="none" stroke="midnightblue" d="M302.6,-570.41C322.44,-565.42 346.88,-559.27 367.95,-553.97"/>
<polygon fill="midnightblue" stroke="midnightblue" points="368.83,-557.35 377.67,-551.52 367.12,-550.57 368.83,-557.35"/>
</g>
<!-- Node13 -->
<g id="node32" class="node">
<title>Node13</title>
<g id="a_node32"><a xlink:href="namespacemem.html#a981dd0cb1408b798a79443c6245e9c55" target="_top" xlink:title=" ">
<polygon fill="white" stroke="black" points="550.5,-532.5 550.5,-551.5 615.5,-551.5 615.5,-532.5 550.5,-532.5"/>
<text text-anchor="middle" x="583" y="-539.5" font-family="Helvetica,sans-Serif" font-size="10.00">mem::clear</text>
</a>
</g>
</g>
<!-- Node57&#45;&gt;Node13 -->
<g id="edge39" class="edge">
<title>Node57&#45;&gt;Node13</title>
<path fill="none" stroke="midnightblue" d="M312.18,-577.22C356.34,-574.32 423.8,-569.05 482,-561 501.26,-558.34 522.43,-554.45 540.32,-550.89"/>
<polygon fill="midnightblue" stroke="midnightblue" points="541.05,-554.31 550.16,-548.9 539.66,-547.45 541.05,-554.31"/>
</g>
<!-- Node13&#45;&gt;Node5 -->
<g id="edge40" class="edge">
<title>Node13&#45;&gt;Node5</title>
<path fill="none" stroke="midnightblue" d="M615.64,-550.5C668.05,-564.57 772.68,-592.67 829.01,-607.8"/>
<polygon fill="midnightblue" stroke="midnightblue" points="828.37,-611.25 838.94,-610.46 830.19,-604.49 828.37,-611.25"/>
</g>
<!-- Node13&#45;&gt;Node14 -->
<g id="edge41" class="edge">
<title>Node13&#45;&gt;Node14</title>
<path fill="none" stroke="midnightblue" d="M615.69,-543C641.14,-543.8 676.95,-544.93 704.04,-545.79"/>
<polygon fill="midnightblue" stroke="midnightblue" points="704.21,-549.29 714.31,-546.11 704.43,-542.3 704.21,-549.29"/>
</g>
<!-- Node14&#45;&gt;Node5 -->
<g id="edge42" class="edge">
<title>Node14&#45;&gt;Node5</title>
<path fill="none" stroke="midnightblue" d="M765.39,-556.6C776.7,-561.99 790.81,-569.01 803,-576 817.15,-584.11 832.44,-594.1 844.53,-602.3"/>
<polygon fill="midnightblue" stroke="midnightblue" points="842.85,-605.39 853.07,-608.16 846.81,-599.62 842.85,-605.39"/>
</g>
<!-- Node59&#45;&gt;Node10 -->
<g id="edge45" class="edge">
<title>Node59&#45;&gt;Node10</title>
<path fill="none" stroke="midnightblue" d="M459.32,-390C513.51,-390 608.72,-390 673.65,-390"/>
<polygon fill="midnightblue" stroke="midnightblue" points="673.8,-393.5 683.8,-390 673.8,-386.5 673.8,-393.5"/>
</g>
<!-- Node59&#45;&gt;Node13 -->
<g id="edge44" class="edge">
<title>Node59&#45;&gt;Node13</title>
<path fill="none" stroke="midnightblue" d="M459.2,-398.03C467.19,-400.71 475.19,-404.28 482,-409 525.53,-439.19 558.01,-494.37 572.93,-523.25"/>
<polygon fill="midnightblue" stroke="midnightblue" points="569.85,-524.92 577.47,-532.29 576.11,-521.78 569.85,-524.92"/>
</g>
<!-- Node61 -->
<g id="node36" class="node">
<title>Node61</title>
<g id="a_node36"><a xlink:href="namespacenvram.html#a44880d1bbe939e863adda0302febc9ef" target="_top" xlink:title=" ">
<polygon fill="white" stroke="red" points="382.5,-418.5 382.5,-437.5 450.5,-437.5 450.5,-418.5 382.5,-418.5"/>
<text text-anchor="middle" x="416.5" y="-425.5" font-family="Helvetica,sans-Serif" font-size="10.00">nvram::read</text>
</a>
</g>
</g>
<!-- Node60&#45;&gt;Node61 -->
<g id="edge48" class="edge">
<title>Node60&#45;&gt;Node61</title>
<path fill="none" stroke="midnightblue" d="M302.21,-449.76C323.58,-445.65 350.38,-440.51 372.55,-436.25"/>
<polygon fill="midnightblue" stroke="midnightblue" points="373.21,-439.69 382.37,-434.36 371.89,-432.81 373.21,-439.69"/>
</g>
<!-- Node64&#45;&gt;Node58 -->
<g id="edge50" class="edge">
<title>Node64&#45;&gt;Node58</title>
<path fill="none" stroke="midnightblue" d="M302.6,-513.59C322.44,-518.58 346.88,-524.73 367.95,-530.03"/>
<polygon fill="midnightblue" stroke="midnightblue" points="367.12,-533.43 377.67,-532.48 368.83,-526.65 367.12,-533.43"/>
</g>
<!-- Node64&#45;&gt;Node13 -->
<g id="edge51" class="edge">
<title>Node64&#45;&gt;Node13</title>
<path fill="none" stroke="midnightblue" d="M308.39,-506.53C352.42,-509.38 422.11,-514.72 482,-523 501.26,-525.66 522.43,-529.55 540.32,-533.11"/>
<polygon fill="midnightblue" stroke="midnightblue" points="539.66,-536.55 550.16,-535.1 541.05,-529.69 539.66,-536.55"/>
</g>
<!-- Node65 -->
<g id="node38" class="node">
<title>Node65</title>
<g id="a_node38"><a xlink:href="structvmem_1_1_page_info.html#a1e3111217d6a051c9d8b83200710a0b3" target="_top" xlink:title=" ">
<polygon fill="white" stroke="black" points="351,-456.5 351,-475.5 482,-475.5 482,-456.5 351,-456.5"/>
<text text-anchor="middle" x="416.5" y="-463.5" font-family="Helvetica,sans-Serif" font-size="10.00">vmem::PageInfo::fromPhy</text>
</a>
</g>
</g>
<!-- Node64&#45;&gt;Node65 -->
<g id="edge52" class="edge">
<title>Node64&#45;&gt;Node65</title>
<path fill="none" stroke="midnightblue" d="M302.6,-494.41C322.44,-489.42 346.88,-483.27 367.95,-477.97"/>
<polygon fill="midnightblue" stroke="midnightblue" points="368.83,-481.35 377.67,-475.52 367.12,-474.57 368.83,-481.35"/>
</g>
<!-- Node66&#45;&gt;Node10 -->
<g id="edge64" class="edge">
<title>Node66&#45;&gt;Node10</title>
<path fill="none" stroke="midnightblue" d="M300.05,-209.49C372.64,-192.3 540.13,-164.27 648,-238 696.17,-270.93 724.52,-337.33 736.21,-370.38"/>
<polygon fill="midnightblue" stroke="midnightblue" points="733.01,-371.87 739.54,-380.22 739.64,-369.62 733.01,-371.87"/>
</g>
<!-- Node66&#45;&gt;Node14 -->
<g id="edge63" class="edge">
<title>Node66&#45;&gt;Node14</title>
<path fill="none" stroke="midnightblue" d="M269.06,-228.61C279.99,-250.57 309.84,-304.72 351,-333 400.96,-367.33 427.11,-345.27 482,-371 579.59,-416.73 681.61,-496.62 723.17,-530.77"/>
<polygon fill="midnightblue" stroke="midnightblue" points="721.16,-533.65 731.1,-537.34 725.63,-528.26 721.16,-533.65"/>
</g>
<!-- Node12 -->
<g id="node40" class="node">
<title>Node12</title>
<g id="a_node40"><a xlink:href="structvmem_1_1_page_info.html#afcdcb7e941219a8ec999353658e3c2aa" target="_top" xlink:title=" ">
<polygon fill="white" stroke="black" points="359,-304.5 359,-323.5 474,-323.5 474,-304.5 359,-304.5"/>
<text text-anchor="middle" x="416.5" y="-311.5" font-family="Helvetica,sans-Serif" font-size="10.00">vmem::PageInfo::alloc</text>
</a>
</g>
</g>
<!-- Node66&#45;&gt;Node12 -->
<g id="edge54" class="edge">
<title>Node66&#45;&gt;Node12</title>
<path fill="none" stroke="midnightblue" d="M272.83,-228.66C287.2,-244.72 318.26,-276.96 351,-295 354.96,-297.18 359.2,-299.14 363.54,-300.89"/>
<polygon fill="midnightblue" stroke="midnightblue" points="362.55,-304.25 373.14,-304.4 364.95,-297.68 362.55,-304.25"/>
</g>
<!-- Node15 -->
<g id="node41" class="node">
<title>Node15</title>
<g id="a_node41"><a xlink:href="structvmem_1_1_page_info.html#afc863f1d364462ddd2c20bf31f588337" target="_top" xlink:title=" ">
<polygon fill="white" stroke="red" points="518,-247.5 518,-266.5 648,-266.5 648,-247.5 518,-247.5"/>
<text text-anchor="middle" x="583" y="-254.5" font-family="Helvetica,sans-Serif" font-size="10.00">vmem::PageInfo::toKernV</text>
</a>
</g>
</g>
<!-- Node66&#45;&gt;Node15 -->
<g id="edge65" class="edge">
<title>Node66&#45;&gt;Node15</title>
<path fill="none" stroke="midnightblue" d="M308.25,-214.4C352.47,-210.82 422.58,-208.09 482,-219 507.16,-223.62 534.19,-234.27 553.8,-243.12"/>
<polygon fill="midnightblue" stroke="midnightblue" points="552.51,-246.38 563.06,-247.42 555.46,-240.03 552.51,-246.38"/>
</g>
<!-- Node67 -->
<g id="node42" class="node">
<title>Node67</title>
<g id="a_node42"><a xlink:href="namespacevmem_1_1pgdir.html#a92ee80fc1a93d347be69ce9efae61c10" target="_top" xlink:title=" ">
<polygon fill="white" stroke="red" points="366,-114.5 366,-133.5 467,-133.5 467,-114.5 366,-114.5"/>
<text text-anchor="middle" x="416.5" y="-121.5" font-family="Helvetica,sans-Serif" font-size="10.00">vmem::pgdir::insert</text>
</a>
</g>
</g>
<!-- Node66&#45;&gt;Node67 -->
<g id="edge57" class="edge">
<title>Node66&#45;&gt;Node67</title>
<path fill="none" stroke="midnightblue" d="M274.07,-209.3C289.22,-194.39 320.18,-165.72 351,-148 358.14,-143.89 366.12,-140.26 373.96,-137.14"/>
<polygon fill="midnightblue" stroke="midnightblue" points="375.26,-140.39 383.39,-133.59 372.8,-133.83 375.26,-140.39"/>
</g>
<!-- Node68 -->
<g id="node43" class="node">
<title>Node68</title>
<g id="a_node43"><a xlink:href="namespacevmem_1_1pgdir.html#a0fac039ba671f03a7cccf3f4af55cbf5" target="_top" xlink:title=" ">
<polygon fill="white" stroke="red" points="528.5,-76.5 528.5,-95.5 637.5,-95.5 637.5,-76.5 528.5,-76.5"/>
<text text-anchor="middle" x="583" y="-83.5" font-family="Helvetica,sans-Serif" font-size="10.00">vmem::pgdir::remove</text>
</a>
</g>
</g>
<!-- Node66&#45;&gt;Node68 -->
<g id="edge62" class="edge">
<title>Node66&#45;&gt;Node68</title>
<path fill="none" stroke="midnightblue" d="M266.54,-209.15C272.98,-180.8 295.88,-99.05 351,-67 414.17,-30.27 503.94,-55.2 550.8,-72.81"/>
<polygon fill="midnightblue" stroke="midnightblue" points="549.54,-76.07 560.12,-76.43 552.07,-69.54 549.54,-76.07"/>
</g>
<!-- Node70 -->
<g id="node44" class="node">
<title>Node70</title>
<g id="a_node44"><a xlink:href="x86_8h.html#ad685be9808d9929feec209f23627ec90" target="_top" xlink:title=" ">
<polygon fill="white" stroke="black" points="400.5,-76.5 400.5,-95.5 432.5,-95.5 432.5,-76.5 400.5,-76.5"/>
<text text-anchor="middle" x="416.5" y="-83.5" font-family="Helvetica,sans-Serif" font-size="10.00">lcr0</text>
</a>
</g>
</g>
<!-- Node66&#45;&gt;Node70 -->
<g id="edge59" class="edge">
<title>Node66&#45;&gt;Node70</title>
<path fill="none" stroke="midnightblue" d="M269.07,-209.4C280.02,-187.47 309.9,-133.36 351,-105 362.63,-96.97 377.69,-92.29 390.34,-89.58"/>
<polygon fill="midnightblue" stroke="midnightblue" points="391.06,-93 400.26,-87.74 389.79,-86.12 391.06,-93"/>
</g>
<!-- Node71 -->
<g id="node45" class="node">
<title>Node71</title>
<g id="a_node45"><a xlink:href="x86_8h.html#ab3bac932074f6042165d3016b701900a" target="_top" xlink:title=" ">
<polygon fill="white" stroke="black" points="400.5,-266.5 400.5,-285.5 432.5,-285.5 432.5,-266.5 400.5,-266.5"/>
<text text-anchor="middle" x="416.5" y="-273.5" font-family="Helvetica,sans-Serif" font-size="10.00">lcr3</text>
</a>
</g>
</g>
<!-- Node66&#45;&gt;Node71 -->
<g id="edge60" class="edge">
<title>Node66&#45;&gt;Node71</title>
<path fill="none" stroke="midnightblue" d="M284.48,-228.65C301.82,-236.81 327.74,-248.5 351,-257 363.89,-261.71 378.54,-266.1 390.62,-269.47"/>
<polygon fill="midnightblue" stroke="midnightblue" points="389.9,-272.9 400.47,-272.15 391.74,-266.15 389.9,-272.9"/>
</g>
<!-- Node72 -->
<g id="node46" class="node">
<title>Node72</title>
<g id="a_node46"><a xlink:href="x86_8h.html#a69d89f57ae905c2df6b747567b621921" target="_top" xlink:title=" ">
<polygon fill="white" stroke="black" points="400,-228.5 400,-247.5 433,-247.5 433,-228.5 400,-228.5"/>
<text text-anchor="middle" x="416.5" y="-235.5" font-family="Helvetica,sans-Serif" font-size="10.00">rcr0</text>
</a>
</g>
</g>
<!-- Node66&#45;&gt;Node72 -->
<g id="edge61" class="edge">
<title>Node66&#45;&gt;Node72</title>
<path fill="none" stroke="midnightblue" d="M308.18,-224.5C334.67,-227.83 367.57,-231.97 389.91,-234.78"/>
<polygon fill="midnightblue" stroke="midnightblue" points="389.6,-238.27 399.96,-236.04 390.47,-231.32 389.6,-238.27"/>
</g>
<!-- Node12&#45;&gt;Node13 -->
<g id="edge55" class="edge">
<title>Node12&#45;&gt;Node13</title>
<path fill="none" stroke="midnightblue" d="M430.73,-323.65C444.61,-334.22 466.53,-352.18 482,-371 523.19,-421.1 557.96,-490.19 573.42,-523.1"/>
<polygon fill="midnightblue" stroke="midnightblue" points="570.37,-524.83 577.74,-532.44 576.72,-521.89 570.37,-524.83"/>
</g>
<!-- Node12&#45;&gt;Node15 -->
<g id="edge56" class="edge">
<title>Node12&#45;&gt;Node15</title>
<path fill="none" stroke="midnightblue" d="M451.8,-304.43C461.6,-301.55 472.26,-298.28 482,-295 504.59,-287.39 529.65,-277.87 549.04,-270.25"/>
<polygon fill="midnightblue" stroke="midnightblue" points="550.33,-273.51 558.34,-266.58 547.76,-267 550.33,-273.51"/>
</g>
<!-- Node67&#45;&gt;Node68 -->
<g id="edge58" class="edge">
<title>Node67&#45;&gt;Node68</title>
<path fill="none" stroke="midnightblue" d="M459.01,-114.41C480.82,-109.37 507.73,-103.16 530.82,-97.82"/>
<polygon fill="midnightblue" stroke="midnightblue" points="531.83,-101.18 540.79,-95.52 530.26,-94.36 531.83,-101.18"/>
</g>
<!-- Node74 -->
<g id="node48" class="node">
<title>Node74</title>
<g id="a_node48"><a xlink:href="namespaceconsole_1_1serial.html#a868eee5d379fb84ab4b7dc404b5419f8" target="_top" xlink:title=" ">
<polygon fill="white" stroke="red" points="214.5,-38.5 214.5,-57.5 312.5,-57.5 312.5,-38.5 214.5,-38.5"/>
<text text-anchor="middle" x="263.5" y="-45.5" font-family="Helvetica,sans-Serif" font-size="10.00">console::serial::init</text>
</a>
</g>
</g>
<!-- Node73&#45;&gt;Node74 -->
<g id="edge68" class="edge">
<title>Node73&#45;&gt;Node74</title>
<path fill="none" stroke="midnightblue" d="M176.25,-48C184.9,-48 194.46,-48 203.98,-48"/>
<polygon fill="midnightblue" stroke="midnightblue" points="204.23,-51.5 214.23,-48 204.23,-44.5 204.23,-51.5"/>
</g>
<!-- Node75 -->
<g id="node50" class="node">
<title>Node75</title>
<g id="a_node50"><a xlink:href="namespaceconsole_1_1cga.html#a19fb8c7691158fa3d18559f9aa633e19" target="_top" xlink:title=" ">
<polygon fill="white" stroke="red" points="218,-0.5 218,-19.5 309,-19.5 309,-0.5 218,-0.5"/>
<text text-anchor="middle" x="263.5" y="-7.5" font-family="Helvetica,sans-Serif" font-size="10.00">console::cga::init</text>
</a>
</g>
</g>
<!-- Node73&#45;&gt;Node75 -->
<g id="edge70" class="edge">
<title>Node73&#45;&gt;Node75</title>
<path fill="none" stroke="midnightblue" d="M172.78,-38.41C187.85,-33.64 206.25,-27.81 222.47,-22.68"/>
<polygon fill="midnightblue" stroke="midnightblue" points="223.75,-25.94 232.23,-19.59 221.64,-19.27 223.75,-25.94"/>
</g>
<!-- Node63 -->
<g id="node49" class="node">
<title>Node63</title>
<g id="a_node49"><a xlink:href="x86_8h.html#afdc603aa210ab8fd9995ce74940f5d7f" target="_top" xlink:title=" ">
<polygon fill="white" stroke="black" points="402,-0.5 402,-19.5 431,-19.5 431,-0.5 402,-0.5"/>
<text text-anchor="middle" x="416.5" y="-7.5" font-family="Helvetica,sans-Serif" font-size="10.00">inb</text>
</a>
</g>
</g>
<!-- Node74&#45;&gt;Node63 -->
<g id="edge69" class="edge">
<title>Node74&#45;&gt;Node63</title>
<path fill="none" stroke="midnightblue" d="M302.6,-38.41C330.64,-31.36 367.87,-21.99 391.77,-15.97"/>
<polygon fill="midnightblue" stroke="midnightblue" points="392.88,-19.3 401.72,-13.47 391.17,-12.51 392.88,-19.3"/>
</g>
<!-- Node75&#45;&gt;Node63 -->
<g id="edge71" class="edge">
<title>Node75&#45;&gt;Node63</title>
<path fill="none" stroke="midnightblue" d="M309.4,-10C336.47,-10 369.86,-10 391.87,-10"/>
<polygon fill="midnightblue" stroke="midnightblue" points="391.96,-13.5 401.96,-10 391.96,-6.5 391.96,-13.5"/>
</g>
</g>
</svg>
