<?xml version="1.0" encoding="UTF-8" standalone="no"?>
<!DOCTYPE svg PUBLIC "-//W3C//DTD SVG 1.1//EN"
 "http://www.w3.org/Graphics/SVG/1.1/DTD/svg11.dtd">
<!-- Generated by graphviz version 2.44.1 (20200629.0846)
 -->
<!-- Title: kdebug.cc Pages: 1 -->
<svg width="528pt" height="252pt"
 viewBox="0.00 0.00 528.00 252.00" xmlns="http://www.w3.org/2000/svg" xmlns:xlink="http://www.w3.org/1999/xlink">
<g id="graph0" class="graph" transform="scale(1 1) rotate(0) translate(4 248)">
<title>kdebug.cc</title>
<polygon fill="white" stroke="transparent" points="-4,4 -4,-248 524,-248 524,4 -4,4"/>
<!-- Node1 -->
<g id="node1" class="node">
<title>Node1</title>
<g id="a_node1"><a xlink:title=" ">
<polygon fill="#bfbfbf" stroke="black" points="248,-224.5 248,-243.5 310,-243.5 310,-224.5 248,-224.5"/>
<text text-anchor="middle" x="279" y="-231.5" font-family="Helvetica,sans-Serif" font-size="10.00">kdebug.cc</text>
</a>
</g>
</g>
<!-- Node2 -->
<g id="node2" class="node">
<title>Node2</title>
<g id="a_node2"><a xlink:href="kdebug_8hh.html" target="_top" xlink:title=" ">
<polygon fill="white" stroke="black" points="73.5,-168.5 73.5,-187.5 164.5,-187.5 164.5,-168.5 73.5,-168.5"/>
<text text-anchor="middle" x="119" y="-175.5" font-family="Helvetica,sans-Serif" font-size="10.00">kernel/kdebug.hh</text>
</a>
</g>
</g>
<!-- Node1&#45;&gt;Node2 -->
<g id="edge1" class="edge">
<title>Node1&#45;&gt;Node2</title>
<path fill="none" stroke="midnightblue" d="M253.65,-224.44C226.73,-215.36 184,-200.94 153.91,-190.78"/>
<polygon fill="midnightblue" stroke="midnightblue" points="154.83,-187.4 144.23,-187.52 152.59,-194.03 154.83,-187.4"/>
</g>
<!-- Node4 -->
<g id="node4" class="node">
<title>Node4</title>
<g id="a_node4"><a xlink:href="x86_8h.html" target="_top" xlink:title=" ">
<polygon fill="white" stroke="black" points="291,-168.5 291,-187.5 365,-187.5 365,-168.5 291,-168.5"/>
<text text-anchor="middle" x="328" y="-175.5" font-family="Helvetica,sans-Serif" font-size="10.00">include/x86.h</text>
</a>
</g>
</g>
<!-- Node1&#45;&gt;Node4 -->
<g id="edge3" class="edge">
<title>Node1&#45;&gt;Node4</title>
<path fill="none" stroke="midnightblue" d="M287.09,-224.08C294.16,-216.3 304.59,-204.8 313.15,-195.37"/>
<polygon fill="midnightblue" stroke="midnightblue" points="315.93,-197.51 320.06,-187.75 310.75,-192.8 315.93,-197.51"/>
</g>
<!-- Node9 -->
<g id="node9" class="node">
<title>Node9</title>
<g id="a_node9"><a xlink:href="stdio_8hh.html" target="_top" xlink:title=" ">
<polygon fill="white" stroke="black" points="187.5,-168.5 187.5,-187.5 272.5,-187.5 272.5,-168.5 187.5,-168.5"/>
<text text-anchor="middle" x="230" y="-175.5" font-family="Helvetica,sans-Serif" font-size="10.00">include/stdio.hh</text>
</a>
</g>
</g>
<!-- Node1&#45;&gt;Node9 -->
<g id="edge9" class="edge">
<title>Node1&#45;&gt;Node9</title>
<path fill="none" stroke="midnightblue" d="M270.91,-224.08C263.84,-216.3 253.41,-204.8 244.85,-195.37"/>
<polygon fill="midnightblue" stroke="midnightblue" points="247.25,-192.8 237.94,-187.75 242.07,-197.51 247.25,-192.8"/>
</g>
<!-- Node16 -->
<g id="node16" class="node">
<title>Node16</title>
<g id="a_node16"><a xlink:href="memlayout_8h.html" target="_top" xlink:title=" ">
<polygon fill="white" stroke="black" points="383.5,-168.5 383.5,-187.5 490.5,-187.5 490.5,-168.5 383.5,-168.5"/>
<text text-anchor="middle" x="437" y="-175.5" font-family="Helvetica,sans-Serif" font-size="10.00">include/memlayout.h</text>
</a>
</g>
</g>
<!-- Node1&#45;&gt;Node16 -->
<g id="edge18" class="edge">
<title>Node1&#45;&gt;Node16</title>
<path fill="none" stroke="midnightblue" d="M304.04,-224.44C330.62,-215.36 372.81,-200.94 402.52,-190.78"/>
<polygon fill="midnightblue" stroke="midnightblue" points="403.75,-194.06 412.08,-187.52 401.49,-187.44 403.75,-194.06"/>
</g>
<!-- Node3 -->
<g id="node3" class="node">
<title>Node3</title>
<g id="a_node3"><a xlink:href="knlast_8inc.html" target="_top" xlink:title=" ">
<polygon fill="white" stroke="black" points="0,-112.5 0,-131.5 88,-131.5 88,-112.5 0,-112.5"/>
<text text-anchor="middle" x="44" y="-119.5" font-family="Helvetica,sans-Serif" font-size="10.00">kernel/knlast.inc</text>
</a>
</g>
</g>
<!-- Node2&#45;&gt;Node3 -->
<g id="edge2" class="edge">
<title>Node2&#45;&gt;Node3</title>
<path fill="none" stroke="midnightblue" d="M106.95,-168.32C95.54,-160.11 78.17,-147.6 64.57,-137.81"/>
<polygon fill="midnightblue" stroke="midnightblue" points="66.43,-134.84 56.27,-131.83 62.34,-140.52 66.43,-134.84"/>
</g>
<!-- Node5 -->
<g id="node5" class="node">
<title>Node5</title>
<g id="a_node5"><a xlink:href="types_8h.html" target="_top" xlink:title=" ">
<polygon fill="white" stroke="black" points="378.5,-56.5 378.5,-75.5 461.5,-75.5 461.5,-56.5 378.5,-56.5"/>
<text text-anchor="middle" x="420" y="-63.5" font-family="Helvetica,sans-Serif" font-size="10.00">include/types.h</text>
</a>
</g>
</g>
<!-- Node4&#45;&gt;Node5 -->
<g id="edge4" class="edge">
<title>Node4&#45;&gt;Node5</title>
<path fill="none" stroke="midnightblue" d="M335.22,-168.37C350.54,-150.05 386.5,-107.05 406.32,-83.36"/>
<polygon fill="midnightblue" stroke="midnightblue" points="409.08,-85.51 412.81,-75.59 403.71,-81.02 409.08,-85.51"/>
</g>
<!-- Node6 -->
<g id="node6" class="node">
<title>Node6</title>
<g id="a_node6"><a xlink:title=" ">
<polygon fill="white" stroke="#bfbfbf" points="463,-0.5 463,-19.5 515,-19.5 515,-0.5 463,-0.5"/>
<text text-anchor="middle" x="489" y="-7.5" font-family="Helvetica,sans-Serif" font-size="10.00">stddef.h</text>
</a>
</g>
</g>
<!-- Node5&#45;&gt;Node6 -->
<g id="edge5" class="edge">
<title>Node5&#45;&gt;Node6</title>
<path fill="none" stroke="midnightblue" d="M431.09,-56.32C441.49,-48.18 457.26,-35.84 469.72,-26.09"/>
<polygon fill="midnightblue" stroke="midnightblue" points="471.99,-28.75 477.71,-19.83 467.68,-23.24 471.99,-28.75"/>
</g>
<!-- Node7 -->
<g id="node7" class="node">
<title>Node7</title>
<g id="a_node7"><a xlink:title=" ">
<polygon fill="white" stroke="#bfbfbf" points="328.5,-0.5 328.5,-19.5 377.5,-19.5 377.5,-0.5 328.5,-0.5"/>
<text text-anchor="middle" x="353" y="-7.5" font-family="Helvetica,sans-Serif" font-size="10.00">stdint.h</text>
</a>
</g>
</g>
<!-- Node5&#45;&gt;Node7 -->
<g id="edge6" class="edge">
<title>Node5&#45;&gt;Node7</title>
<path fill="none" stroke="midnightblue" d="M409.24,-56.32C399.23,-48.26 384.11,-36.08 372.07,-26.37"/>
<polygon fill="midnightblue" stroke="midnightblue" points="373.94,-23.38 363.96,-19.83 369.55,-28.83 373.94,-23.38"/>
</g>
<!-- Node8 -->
<g id="node8" class="node">
<title>Node8</title>
<g id="a_node8"><a xlink:href="ctype_8h.html" target="_top" xlink:title=" ">
<polygon fill="white" stroke="black" points="395.5,-0.5 395.5,-19.5 444.5,-19.5 444.5,-0.5 395.5,-0.5"/>
<text text-anchor="middle" x="420" y="-7.5" font-family="Helvetica,sans-Serif" font-size="10.00">ctype.h</text>
</a>
</g>
</g>
<!-- Node5&#45;&gt;Node8 -->
<g id="edge7" class="edge">
<title>Node5&#45;&gt;Node8</title>
<path fill="none" stroke="midnightblue" d="M414.83,-56.08C413.32,-48.93 412.89,-38.64 413.54,-29.69"/>
<polygon fill="midnightblue" stroke="midnightblue" points="417.02,-30.13 414.87,-19.75 410.08,-29.2 417.02,-30.13"/>
</g>
<!-- Node8&#45;&gt;Node5 -->
<g id="edge8" class="edge">
<title>Node8&#45;&gt;Node5</title>
<path fill="none" stroke="midnightblue" d="M425.13,-19.75C426.66,-26.86 427.1,-37.14 426.47,-46.1"/>
<polygon fill="midnightblue" stroke="midnightblue" points="422.99,-45.71 425.17,-56.08 429.93,-46.62 422.99,-45.71"/>
</g>
<!-- Node10 -->
<g id="node10" class="node">
<title>Node10</title>
<g id="a_node10"><a xlink:href="stdin_8hh.html" target="_top" xlink:title=" ">
<polygon fill="white" stroke="black" points="106.5,-112.5 106.5,-131.5 191.5,-131.5 191.5,-112.5 106.5,-112.5"/>
<text text-anchor="middle" x="149" y="-119.5" font-family="Helvetica,sans-Serif" font-size="10.00">include/stdin.hh</text>
</a>
</g>
</g>
<!-- Node9&#45;&gt;Node10 -->
<g id="edge10" class="edge">
<title>Node9&#45;&gt;Node10</title>
<path fill="none" stroke="midnightblue" d="M216.99,-168.32C204.47,-159.98 185.32,-147.21 170.53,-137.35"/>
<polygon fill="midnightblue" stroke="midnightblue" points="172.24,-134.29 161.98,-131.65 168.36,-140.11 172.24,-134.29"/>
</g>
<!-- Node13 -->
<g id="node13" class="node">
<title>Node13</title>
<g id="a_node13"><a xlink:href="stdout_8hh.html" target="_top" xlink:title=" ">
<polygon fill="white" stroke="black" points="209.5,-112.5 209.5,-131.5 300.5,-131.5 300.5,-112.5 209.5,-112.5"/>
<text text-anchor="middle" x="255" y="-119.5" font-family="Helvetica,sans-Serif" font-size="10.00">include/stdout.hh</text>
</a>
</g>
</g>
<!-- Node9&#45;&gt;Node13 -->
<g id="edge13" class="edge">
<title>Node9&#45;&gt;Node13</title>
<path fill="none" stroke="midnightblue" d="M234.13,-168.08C237.51,-160.77 242.42,-150.18 246.62,-141.1"/>
<polygon fill="midnightblue" stroke="midnightblue" points="249.92,-142.3 250.95,-131.75 243.57,-139.36 249.92,-142.3"/>
</g>
<!-- Node11 -->
<g id="node11" class="node">
<title>Node11</title>
<g id="a_node11"><a xlink:href="vargs_8hh.html" target="_top" xlink:title=" ">
<polygon fill="white" stroke="black" points="98,-56.5 98,-75.5 186,-75.5 186,-56.5 98,-56.5"/>
<text text-anchor="middle" x="142" y="-63.5" font-family="Helvetica,sans-Serif" font-size="10.00">include/vargs.hh</text>
</a>
</g>
</g>
<!-- Node10&#45;&gt;Node11 -->
<g id="edge11" class="edge">
<title>Node10&#45;&gt;Node11</title>
<path fill="none" stroke="midnightblue" d="M147.84,-112.08C146.92,-104.93 145.58,-94.64 144.42,-85.69"/>
<polygon fill="midnightblue" stroke="midnightblue" points="147.89,-85.22 143.13,-75.75 140.95,-86.12 147.89,-85.22"/>
</g>
<!-- Node12 -->
<g id="node12" class="node">
<title>Node12</title>
<g id="a_node12"><a xlink:title=" ">
<polygon fill="white" stroke="#bfbfbf" points="117.5,-0.5 117.5,-19.5 166.5,-19.5 166.5,-0.5 117.5,-0.5"/>
<text text-anchor="middle" x="142" y="-7.5" font-family="Helvetica,sans-Serif" font-size="10.00">cstdarg</text>
</a>
</g>
</g>
<!-- Node11&#45;&gt;Node12 -->
<g id="edge12" class="edge">
<title>Node11&#45;&gt;Node12</title>
<path fill="none" stroke="midnightblue" d="M142,-56.08C142,-49.01 142,-38.86 142,-29.99"/>
<polygon fill="midnightblue" stroke="midnightblue" points="145.5,-29.75 142,-19.75 138.5,-29.75 145.5,-29.75"/>
</g>
<!-- Node13&#45;&gt;Node5 -->
<g id="edge14" class="edge">
<title>Node13&#45;&gt;Node5</title>
<path fill="none" stroke="midnightblue" d="M281.14,-112.44C309.02,-103.32 353.35,-88.81 384.4,-78.65"/>
<polygon fill="midnightblue" stroke="midnightblue" points="385.56,-81.95 393.98,-75.52 383.38,-75.3 385.56,-81.95"/>
</g>
<!-- Node13&#45;&gt;Node11 -->
<g id="edge15" class="edge">
<title>Node13&#45;&gt;Node11</title>
<path fill="none" stroke="midnightblue" d="M237.09,-112.44C218.75,-103.68 189.99,-89.94 168.91,-79.86"/>
<polygon fill="midnightblue" stroke="midnightblue" points="170.35,-76.67 159.82,-75.52 167.33,-82.99 170.35,-76.67"/>
</g>
<!-- Node14 -->
<g id="node14" class="node">
<title>Node14</title>
<g id="a_node14"><a xlink:href="color_8h.html" target="_top" xlink:title=" ">
<polygon fill="white" stroke="black" points="281.5,-56.5 281.5,-75.5 360.5,-75.5 360.5,-56.5 281.5,-56.5"/>
<text text-anchor="middle" x="321" y="-63.5" font-family="Helvetica,sans-Serif" font-size="10.00">include/color.h</text>
</a>
</g>
</g>
<!-- Node13&#45;&gt;Node14 -->
<g id="edge16" class="edge">
<title>Node13&#45;&gt;Node14</title>
<path fill="none" stroke="midnightblue" d="M265.6,-112.32C275.46,-104.26 290.35,-92.08 302.22,-82.37"/>
<polygon fill="midnightblue" stroke="midnightblue" points="304.68,-84.88 310.2,-75.83 300.25,-79.46 304.68,-84.88"/>
</g>
<!-- Node15 -->
<g id="node15" class="node">
<title>Node15</title>
<g id="a_node15"><a xlink:title=" ">
<polygon fill="white" stroke="#bfbfbf" points="204.5,-56.5 204.5,-75.5 263.5,-75.5 263.5,-56.5 204.5,-56.5"/>
<text text-anchor="middle" x="234" y="-63.5" font-family="Helvetica,sans-Serif" font-size="10.00">functional</text>
</a>
</g>
</g>
<!-- Node13&#45;&gt;Node15 -->
<g id="edge17" class="edge">
<title>Node13&#45;&gt;Node15</title>
<path fill="none" stroke="midnightblue" d="M251.53,-112.08C248.69,-104.77 244.57,-94.18 241.04,-85.1"/>
<polygon fill="midnightblue" stroke="midnightblue" points="244.29,-83.8 237.4,-75.75 237.77,-86.34 244.29,-83.8"/>
</g>
<!-- Node16&#45;&gt;Node5 -->
<g id="edge19" class="edge">
<title>Node16&#45;&gt;Node5</title>
<path fill="none" stroke="midnightblue" d="M435.67,-168.37C432.92,-150.62 426.59,-109.67 422.87,-85.6"/>
<polygon fill="midnightblue" stroke="midnightblue" points="426.31,-84.94 421.33,-75.59 419.4,-86.01 426.31,-84.94"/>
</g>
<!-- Node17 -->
<g id="node17" class="node">
<title>Node17</title>
<g id="a_node17"><a xlink:href="mmu_8h.html" target="_top" xlink:title=" ">
<polygon fill="white" stroke="black" points="440,-112.5 440,-131.5 520,-131.5 520,-112.5 440,-112.5"/>
<text text-anchor="middle" x="480" y="-119.5" font-family="Helvetica,sans-Serif" font-size="10.00">include/mmu.h</text>
</a>
</g>
</g>
<!-- Node16&#45;&gt;Node17 -->
<g id="edge20" class="edge">
<title>Node16&#45;&gt;Node17</title>
<path fill="none" stroke="midnightblue" d="M444.1,-168.08C450.24,-160.38 459.27,-149.03 466.74,-139.65"/>
<polygon fill="midnightblue" stroke="midnightblue" points="469.54,-141.75 473.03,-131.75 464.06,-137.39 469.54,-141.75"/>
</g>
<!-- Node17&#45;&gt;Node5 -->
<g id="edge21" class="edge">
<title>Node17&#45;&gt;Node5</title>
<path fill="none" stroke="midnightblue" d="M470.36,-112.32C461.49,-104.34 448.13,-92.31 437.39,-82.65"/>
<polygon fill="midnightblue" stroke="midnightblue" points="439.59,-79.92 429.82,-75.83 434.91,-85.13 439.59,-79.92"/>
</g>
</g>
</svg>
