<?xml version="1.0" encoding="UTF-8" standalone="no"?>
<!DOCTYPE svg PUBLIC "-//W3C//DTD SVG 1.1//EN"
 "http://www.w3.org/Graphics/SVG/1.1/DTD/svg11.dtd">
<!-- Generated by graphviz version 2.44.1 (20200629.0846)
 -->
<!-- Title: trap.hh Pages: 1 -->
<svg width="478pt" height="196pt"
 viewBox="0.00 0.00 478.36 196.00" xmlns="http://www.w3.org/2000/svg" xmlns:xlink="http://www.w3.org/1999/xlink">
<g id="graph0" class="graph" transform="scale(1 1) rotate(0) translate(4 192)">
<title>trap.hh</title>
<polygon fill="white" stroke="transparent" points="-4,4 -4,-192 474.36,-192 474.36,4 -4,4"/>
<!-- Node1 -->
<g id="node1" class="node">
<title>Node1</title>
<g id="a_node1"><a xlink:title=" ">
<polygon fill="#bfbfbf" stroke="black" points="86.36,-168.5 86.36,-187.5 133.36,-187.5 133.36,-168.5 86.36,-168.5"/>
<text text-anchor="middle" x="109.86" y="-175.5" font-family="Helvetica,sans-Serif" font-size="10.00">trap.hh</text>
</a>
</g>
</g>
<!-- Node2 -->
<g id="node2" class="node">
<title>Node2</title>
<g id="a_node2"><a xlink:href="monitor_8hh.html" target="_top" xlink:title=" ">
<polygon fill="white" stroke="black" points="78.86,-112.5 78.86,-131.5 140.86,-131.5 140.86,-112.5 78.86,-112.5"/>
<text text-anchor="middle" x="109.86" y="-119.5" font-family="Helvetica,sans-Serif" font-size="10.00">monitor.hh</text>
</a>
</g>
</g>
<!-- Node1&#45;&gt;Node2 -->
<g id="edge1" class="edge">
<title>Node1&#45;&gt;Node2</title>
<path fill="none" stroke="midnightblue" d="M109.86,-157.8C109.86,-148.91 109.86,-138.78 109.86,-131.75"/>
<polygon fill="midnightblue" stroke="midnightblue" points="106.36,-158.08 109.86,-168.08 113.36,-158.08 106.36,-158.08"/>
</g>
<!-- Node6 -->
<g id="node6" class="node">
<title>Node6</title>
<g id="a_node6"><a xlink:href="trap_8cc.html" target="_top" xlink:title=" ">
<polygon fill="white" stroke="black" points="15.36,-56.5 15.36,-75.5 62.36,-75.5 62.36,-56.5 15.36,-56.5"/>
<text text-anchor="middle" x="38.86" y="-63.5" font-family="Helvetica,sans-Serif" font-size="10.00">trap.cc</text>
</a>
</g>
</g>
<!-- Node1&#45;&gt;Node6 -->
<g id="edge16" class="edge">
<title>Node1&#45;&gt;Node6</title>
<path fill="none" stroke="midnightblue" d="M93.56,-160.93C85.79,-152.73 76.71,-142.32 69.86,-132 57.42,-113.25 47.15,-88.73 42.14,-75.83"/>
<polygon fill="midnightblue" stroke="midnightblue" points="91.28,-163.61 100.78,-168.32 96.29,-158.72 91.28,-163.61"/>
</g>
<!-- Node7 -->
<g id="node7" class="node">
<title>Node7</title>
<g id="a_node7"><a xlink:href="kernel_2task_8hh.html" target="_top" xlink:title=" ">
<polygon fill="white" stroke="black" points="162.36,-112.5 162.36,-131.5 211.36,-131.5 211.36,-112.5 162.36,-112.5"/>
<text text-anchor="middle" x="186.86" y="-119.5" font-family="Helvetica,sans-Serif" font-size="10.00">task.hh</text>
</a>
</g>
</g>
<!-- Node1&#45;&gt;Node7 -->
<g id="edge6" class="edge">
<title>Node1&#45;&gt;Node7</title>
<path fill="none" stroke="midnightblue" d="M130.76,-162.34C144.77,-152.52 162.74,-139.91 174.52,-131.65"/>
<polygon fill="midnightblue" stroke="midnightblue" points="128.41,-159.72 122.23,-168.32 132.43,-165.45 128.41,-159.72"/>
</g>
<!-- Node3 -->
<g id="node3" class="node">
<title>Node3</title>
<g id="a_node3"><a xlink:href="init_8cc.html" target="_top" xlink:title=" ">
<polygon fill="white" stroke="black" points="217.36,-0.5 217.36,-19.5 260.36,-19.5 260.36,-0.5 217.36,-0.5"/>
<text text-anchor="middle" x="238.86" y="-7.5" font-family="Helvetica,sans-Serif" font-size="10.00">init.cc</text>
</a>
</g>
</g>
<!-- Node2&#45;&gt;Node3 -->
<g id="edge2" class="edge">
<title>Node2&#45;&gt;Node3</title>
<path fill="none" stroke="midnightblue" d="M68.9,-111.82C31.13,-101.46 -16.04,-82.53 5.86,-56 32.61,-23.59 164.68,-14.26 217.24,-11.8"/>
<polygon fill="midnightblue" stroke="midnightblue" points="68.19,-115.25 78.75,-114.39 69.96,-108.48 68.19,-115.25"/>
</g>
<!-- Node4 -->
<g id="node4" class="node">
<title>Node4</title>
<g id="a_node4"><a xlink:href="monitor_8cc.html" target="_top" xlink:title=" ">
<polygon fill="white" stroke="black" points="80.86,-56.5 80.86,-75.5 142.86,-75.5 142.86,-56.5 80.86,-56.5"/>
<text text-anchor="middle" x="111.86" y="-63.5" font-family="Helvetica,sans-Serif" font-size="10.00">monitor.cc</text>
</a>
</g>
</g>
<!-- Node2&#45;&gt;Node4 -->
<g id="edge3" class="edge">
<title>Node2&#45;&gt;Node4</title>
<path fill="none" stroke="midnightblue" d="M110.57,-101.8C110.9,-92.91 111.28,-82.78 111.54,-75.75"/>
<polygon fill="midnightblue" stroke="midnightblue" points="107.06,-101.96 110.19,-112.08 114.06,-102.22 107.06,-101.96"/>
</g>
<!-- Node5 -->
<g id="node5" class="node">
<title>Node5</title>
<g id="a_node5"><a xlink:href="task_8cc.html" target="_top" xlink:title=" ">
<polygon fill="white" stroke="black" points="161.36,-56.5 161.36,-75.5 210.36,-75.5 210.36,-56.5 161.36,-56.5"/>
<text text-anchor="middle" x="185.86" y="-63.5" font-family="Helvetica,sans-Serif" font-size="10.00">task.cc</text>
</a>
</g>
</g>
<!-- Node2&#45;&gt;Node5 -->
<g id="edge4" class="edge">
<title>Node2&#45;&gt;Node5</title>
<path fill="none" stroke="midnightblue" d="M130.44,-106.38C144.17,-96.62 161.78,-84.11 173.43,-75.83"/>
<polygon fill="midnightblue" stroke="midnightblue" points="128.19,-103.68 122.07,-112.32 132.25,-109.38 128.19,-103.68"/>
</g>
<!-- Node2&#45;&gt;Node6 -->
<g id="edge5" class="edge">
<title>Node2&#45;&gt;Node6</title>
<path fill="none" stroke="midnightblue" d="M90.27,-106.1C77.49,-96.38 61.25,-84.03 50.47,-75.83"/>
<polygon fill="midnightblue" stroke="midnightblue" points="88.37,-109.06 98.45,-112.32 92.61,-103.48 88.37,-109.06"/>
</g>
<!-- Node7&#45;&gt;Node3 -->
<g id="edge7" class="edge">
<title>Node7&#45;&gt;Node3</title>
<path fill="none" stroke="midnightblue" d="M200.68,-104.3C206.9,-96.15 213.94,-85.98 218.86,-76 228.26,-56.94 234.33,-32.55 237.1,-19.75"/>
<polygon fill="midnightblue" stroke="midnightblue" points="197.86,-102.23 194.39,-112.24 203.35,-106.57 197.86,-102.23"/>
</g>
<!-- Node7&#45;&gt;Node4 -->
<g id="edge12" class="edge">
<title>Node7&#45;&gt;Node4</title>
<path fill="none" stroke="midnightblue" d="M166.55,-106.38C153,-96.62 135.62,-84.11 124.13,-75.83"/>
<polygon fill="midnightblue" stroke="midnightblue" points="164.65,-109.32 174.81,-112.32 168.74,-103.64 164.65,-109.32"/>
</g>
<!-- Node7&#45;&gt;Node5 -->
<g id="edge13" class="edge">
<title>Node7&#45;&gt;Node5</title>
<path fill="none" stroke="midnightblue" d="M186.5,-101.8C186.34,-92.91 186.15,-82.78 186.02,-75.75"/>
<polygon fill="midnightblue" stroke="midnightblue" points="183.01,-102.15 186.69,-112.08 190.01,-102.02 183.01,-102.15"/>
</g>
<!-- Node7&#45;&gt;Node6 -->
<g id="edge15" class="edge">
<title>Node7&#45;&gt;Node6</title>
<path fill="none" stroke="midnightblue" d="M153.71,-108.91C125.89,-98.75 86.84,-84.51 62.2,-75.52"/>
<polygon fill="midnightblue" stroke="midnightblue" points="152.81,-112.3 163.41,-112.44 155.21,-105.73 152.81,-112.3"/>
</g>
<!-- Node8 -->
<g id="node8" class="node">
<title>Node8</title>
<g id="a_node8"><a xlink:href="ksyscall_8cc.html" target="_top" xlink:title=" ">
<polygon fill="white" stroke="black" points="266.86,-56.5 266.86,-75.5 332.86,-75.5 332.86,-56.5 266.86,-56.5"/>
<text text-anchor="middle" x="299.86" y="-63.5" font-family="Helvetica,sans-Serif" font-size="10.00">ksyscall.cc</text>
</a>
</g>
</g>
<!-- Node7&#45;&gt;Node8 -->
<g id="edge8" class="edge">
<title>Node7&#45;&gt;Node8</title>
<path fill="none" stroke="midnightblue" d="M213.86,-108.1C234.97,-98.01 263.72,-84.27 282.04,-75.52"/>
<polygon fill="midnightblue" stroke="midnightblue" points="212.28,-104.97 204.76,-112.44 215.3,-111.29 212.28,-104.97"/>
</g>
<!-- Node9 -->
<g id="node9" class="node">
<title>Node9</title>
<g id="a_node9"><a xlink:href="mp_8hh.html" target="_top" xlink:title=" ">
<polygon fill="white" stroke="black" points="350.86,-56.5 350.86,-75.5 394.86,-75.5 394.86,-56.5 350.86,-56.5"/>
<text text-anchor="middle" x="372.86" y="-63.5" font-family="Helvetica,sans-Serif" font-size="10.00">mp.hh</text>
</a>
</g>
</g>
<!-- Node7&#45;&gt;Node9 -->
<g id="edge9" class="edge">
<title>Node7&#45;&gt;Node9</title>
<path fill="none" stroke="midnightblue" d="M221.61,-110.91C259.42,-99.94 318.71,-82.72 350.67,-73.44"/>
<polygon fill="midnightblue" stroke="midnightblue" points="220.19,-107.68 211.56,-113.83 222.14,-114.4 220.19,-107.68"/>
</g>
<!-- Node11 -->
<g id="node11" class="node">
<title>Node11</title>
<g id="a_node11"><a xlink:href="vmem_8cc.html" target="_top" xlink:title=" ">
<polygon fill="white" stroke="black" points="413.36,-56.5 413.36,-75.5 470.36,-75.5 470.36,-56.5 413.36,-56.5"/>
<text text-anchor="middle" x="441.86" y="-63.5" font-family="Helvetica,sans-Serif" font-size="10.00">vmem.cc</text>
</a>
</g>
</g>
<!-- Node7&#45;&gt;Node11 -->
<g id="edge14" class="edge">
<title>Node7&#45;&gt;Node11</title>
<path fill="none" stroke="midnightblue" d="M221.57,-114.11C264.47,-105.53 339.67,-90.25 403.86,-76 406.9,-75.32 410.08,-74.6 413.25,-73.87"/>
<polygon fill="midnightblue" stroke="midnightblue" points="220.76,-110.71 211.64,-116.1 222.13,-117.57 220.76,-110.71"/>
</g>
<!-- Node9&#45;&gt;Node3 -->
<g id="edge10" class="edge">
<title>Node9&#45;&gt;Node3</title>
<path fill="none" stroke="midnightblue" d="M342.18,-52.64C317.04,-42.5 282.11,-28.43 259.99,-19.52"/>
<polygon fill="midnightblue" stroke="midnightblue" points="341.04,-55.95 351.63,-56.44 343.66,-49.46 341.04,-55.95"/>
</g>
<!-- Node10 -->
<g id="node10" class="node">
<title>Node10</title>
<g id="a_node10"><a xlink:href="mp_8cc.html" target="_top" xlink:title=" ">
<polygon fill="white" stroke="black" points="350.86,-0.5 350.86,-19.5 394.86,-19.5 394.86,-0.5 350.86,-0.5"/>
<text text-anchor="middle" x="372.86" y="-7.5" font-family="Helvetica,sans-Serif" font-size="10.00">mp.cc</text>
</a>
</g>
</g>
<!-- Node9&#45;&gt;Node10 -->
<g id="edge11" class="edge">
<title>Node9&#45;&gt;Node10</title>
<path fill="none" stroke="midnightblue" d="M372.86,-45.8C372.86,-36.91 372.86,-26.78 372.86,-19.75"/>
<polygon fill="midnightblue" stroke="midnightblue" points="369.36,-46.08 372.86,-56.08 376.36,-46.08 369.36,-46.08"/>
</g>
</g>
</svg>
