<?xml version="1.0" encoding="UTF-8" standalone="no"?>
<!DOCTYPE svg PUBLIC "-//W3C//DTD SVG 1.1//EN"
 "http://www.w3.org/Graphics/SVG/1.1/DTD/svg11.dtd">
<!-- Generated by graphviz version 2.44.1 (20200629.0846)
 -->
<!-- Title: consoleOutPrintC Pages: 1 -->
<!--zoomable 204 -->
<svg id="main" version="1.1" xmlns="http://www.w3.org/2000/svg" xmlns:xlink="http://www.w3.org/1999/xlink" xml:space="preserve" onload="init(evt)">
<style type="text/css"><![CDATA[
.edge:hover path { stroke: red; }
.edge:hover polygon { stroke: red; fill: red; }
]]></style>
<script type="text/javascript"><![CDATA[
var edges = document.getElementsByTagName('g');
if (edges && edges.length) {
  for (var i=0;i<edges.length;i++) {
    if (edges[i].id.substr(0,4)=='edge') {
      edges[i].setAttribute('class','edge');
    }
  }
}
]]></script>
        <defs>
                <circle id="rim" cx="0" cy="0" r="7"/>
                <circle id="rim2" cx="0" cy="0" r="3.5"/>
                <g id="zoomPlus">
                        <use xlink:href="#rim" fill="#404040">
                                <set attributeName="fill" to="#808080" begin="zoomplus.mouseover" end="zoomplus.mouseout"/>
                        </use>
                        <path d="M-4,0h8M0,-4v8" fill="none" stroke="white" stroke-width="1.5" pointer-events="none"/>
                </g>
                <g id="zoomMin">
                        <use xlink:href="#rim" fill="#404040">
                                <set attributeName="fill" to="#808080" begin="zoomminus.mouseover" end="zoomminus.mouseout"/>
                        </use>
                        <path d="M-4,0h8" fill="none" stroke="white" stroke-width="1.5" pointer-events="none"/>
                </g>
                <g id="dirArrow">
                        <path fill="none" stroke="white" stroke-width="1.5" d="M0,-3.0v7 M-2.5,-0.5L0,-3.0L2.5,-0.5"/>
                </g>
               <g id="resetDef">
                       <use xlink:href="#rim2" fill="#404040">
                               <set attributeName="fill" to="#808080" begin="reset.mouseover" end="reset.mouseout"/>
                       </use>
               </g>
        </defs>

<script type="text/javascript">
var viewWidth = 1134;
var viewHeight = 204;
var sectionId = 'dynsection-2';
</script>
<script xlink:href="svgpan.js"/>
<svg id="graph" class="graph">
<g id="viewport">
<title>consoleOutPrintC</title>
<polygon fill="white" stroke="transparent" points="-4,4 -4,-199.69 1130,-199.69 1130,4 -4,4"/>
<!-- Node1 -->
<g id="node1" class="node">
<title>Node1</title>
<g id="a_node1"><a xlink:title=" ">
<polygon fill="#bfbfbf" stroke="black" points="0,-9.32 0,-28.32 94,-28.32 94,-9.32 0,-9.32"/>
<text text-anchor="middle" x="47" y="-16.32" font-family="Helvetica,sans-Serif" font-size="10.00">consoleOutPrintC</text>
</a>
</g>
</g>
<!-- Node2 -->
<g id="node2" class="node">
<title>Node2</title>
<g id="a_node2"><a xlink:href="namespaceconsole_1_1out.html#a8f791bfac54067cadb1b9f18117b987b" target="_top" xlink:title=" ">
<polygon fill="white" stroke="black" points="130,-9.32 130,-28.32 236,-28.32 236,-9.32 130,-9.32"/>
<text text-anchor="middle" x="183" y="-16.32" font-family="Helvetica,sans-Serif" font-size="10.00">console::out::printVa</text>
</a>
</g>
</g>
<!-- Node1&#45;&gt;Node2 -->
<g id="edge1" class="edge">
<title>Node1&#45;&gt;Node2</title>
<path fill="none" stroke="midnightblue" d="M94.12,-18.82C102.39,-18.82 111.13,-18.82 119.77,-18.82"/>
<polygon fill="midnightblue" stroke="midnightblue" points="119.82,-22.32 129.82,-18.82 119.82,-15.32 119.82,-22.32"/>
</g>
<!-- Node3 -->
<g id="node3" class="node">
<title>Node3</title>
<g id="a_node3"><a xlink:href="namespaceconsole_1_1ge.html#af642934cb833142f133285fdb75ef7b7" target="_top" xlink:title=" ">
<polygon fill="white" stroke="black" points="272,-66.32 272,-85.32 392,-85.32 392,-66.32 272,-66.32"/>
<text text-anchor="middle" x="332" y="-73.32" font-family="Helvetica,sans-Serif" font-size="10.00">console::ge::printFmtVa</text>
</a>
</g>
</g>
<!-- Node2&#45;&gt;Node3 -->
<g id="edge2" class="edge">
<title>Node2&#45;&gt;Node3</title>
<path fill="none" stroke="midnightblue" d="M208.6,-28.36C232.77,-37.73 269.85,-52.11 296.86,-62.58"/>
<polygon fill="midnightblue" stroke="midnightblue" points="295.73,-65.9 306.32,-66.25 298.26,-59.37 295.73,-65.9"/>
</g>
<!-- Node10 -->
<g id="node10" class="node">
<title>Node10</title>
<g id="a_node10"><a xlink:href="namespaceconsole_1_1out.html#ad9fc97dff4404c2d21aedbb24691e7cb" target="_top" xlink:title=" ">
<polygon fill="white" stroke="black" points="590,-9.32 590,-28.32 700,-28.32 700,-9.32 590,-9.32"/>
<text text-anchor="middle" x="645" y="-16.32" font-family="Helvetica,sans-Serif" font-size="10.00">console::out::putChar</text>
</a>
</g>
</g>
<!-- Node2&#45;&gt;Node10 -->
<g id="edge19" class="edge">
<title>Node2&#45;&gt;Node10</title>
<path fill="none" stroke="midnightblue" d="M236.17,-12.67C307.89,-5.14 440.92,5.54 554,-3.82 564.29,-4.67 575.17,-6.06 585.68,-7.66"/>
<polygon fill="midnightblue" stroke="midnightblue" points="585.18,-11.13 595.61,-9.25 586.28,-4.22 585.18,-11.13"/>
</g>
<!-- Node4 -->
<g id="node4" class="node">
<title>Node4</title>
<g id="a_node4"><a xlink:href="printfmt_8cc.html#a708ec6ee2b8bd2d7a453d8d9436ed3b3" target="_top" xlink:title=" ">
<polygon fill="white" stroke="black" points="462,-142.32 462,-161.32 520,-161.32 520,-142.32 462,-142.32"/>
<text text-anchor="middle" x="491" y="-149.32" font-family="Helvetica,sans-Serif" font-size="10.00">_getIntVa</text>
</a>
</g>
</g>
<!-- Node3&#45;&gt;Node4 -->
<g id="edge3" class="edge">
<title>Node3&#45;&gt;Node4</title>
<path fill="none" stroke="midnightblue" d="M346.59,-85.43C364.53,-97.77 397.43,-119.21 428,-132.82 435.6,-136.21 443.99,-139.22 452.07,-141.8"/>
<polygon fill="midnightblue" stroke="midnightblue" points="451.11,-145.17 461.7,-144.72 453.14,-138.47 451.11,-145.17"/>
</g>
<!-- Node5 -->
<g id="node5" class="node">
<title>Node5</title>
<g id="a_node5"><a xlink:href="printfmt_8cc.html#af4b46892c76c8bfd27efdb20847eb7c8" target="_top" xlink:title=" ">
<polygon fill="white" stroke="black" points="458.5,-104.32 458.5,-123.32 523.5,-123.32 523.5,-104.32 458.5,-104.32"/>
<text text-anchor="middle" x="491" y="-111.32" font-family="Helvetica,sans-Serif" font-size="10.00">_getUIntVa</text>
</a>
</g>
</g>
<!-- Node3&#45;&gt;Node5 -->
<g id="edge4" class="edge">
<title>Node3&#45;&gt;Node5</title>
<path fill="none" stroke="midnightblue" d="M372.62,-85.41C395.72,-91 424.84,-98.05 448.3,-103.73"/>
<polygon fill="midnightblue" stroke="midnightblue" points="447.76,-107.2 458.3,-106.15 449.4,-100.4 447.76,-107.2"/>
</g>
<!-- Node6 -->
<g id="node6" class="node">
<title>Node6</title>
<g id="a_node6"><a xlink:href="namespacestr.html#a062221f630647cf300f0dd982c4ed904" target="_top" xlink:title=" ">
<polygon fill="white" stroke="black" points="1068,-99.32 1068,-118.32 1126,-118.32 1126,-99.32 1068,-99.32"/>
<text text-anchor="middle" x="1097" y="-106.32" font-family="Helvetica,sans-Serif" font-size="10.00">str::count</text>
</a>
</g>
</g>
<!-- Node3&#45;&gt;Node6 -->
<g id="edge5" class="edge">
<title>Node3&#45;&gt;Node6</title>
<path fill="none" stroke="midnightblue" d="M339.18,-85.54C352.55,-105.61 386.36,-151.39 428,-170.82 515.33,-211.57 547.63,-189.82 644,-189.82 644,-189.82 644,-189.82 797,-189.82 898.55,-189.82 1012.97,-145.75 1066.02,-122.63"/>
<polygon fill="midnightblue" stroke="midnightblue" points="1067.77,-125.68 1075.5,-118.43 1064.93,-119.28 1067.77,-125.68"/>
</g>
<!-- Node7 -->
<g id="node7" class="node">
<title>Node7</title>
<g id="a_node7"><a xlink:href="printfmt_8cc.html#a0e3e484ece5e75b9f5fbe337f0ae8ae3" target="_top" xlink:title=" ">
<polygon fill="white" stroke="black" points="464.5,-66.32 464.5,-85.32 517.5,-85.32 517.5,-66.32 464.5,-66.32"/>
<text text-anchor="middle" x="491" y="-73.32" font-family="Helvetica,sans-Serif" font-size="10.00">describe</text>
</a>
</g>
</g>
<!-- Node3&#45;&gt;Node7 -->
<g id="edge6" class="edge">
<title>Node3&#45;&gt;Node7</title>
<path fill="none" stroke="midnightblue" d="M392.35,-75.82C413.12,-75.82 435.78,-75.82 454.04,-75.82"/>
<polygon fill="midnightblue" stroke="midnightblue" points="454.24,-79.32 464.24,-75.82 454.24,-72.32 454.24,-79.32"/>
</g>
<!-- Node9 -->
<g id="node9" class="node">
<title>Node9</title>
<g id="a_node9"><a xlink:href="namespaceconsole_1_1ge.html#a7e301813fd34fde772376afc5fdad95d" target="_top" xlink:title=" ">
<polygon fill="white" stroke="black" points="428,-28.32 428,-47.32 554,-47.32 554,-28.32 428,-28.32"/>
<text text-anchor="middle" x="491" y="-35.32" font-family="Helvetica,sans-Serif" font-size="10.00">console::ge::printNumber</text>
</a>
</g>
</g>
<!-- Node3&#45;&gt;Node9 -->
<g id="edge8" class="edge">
<title>Node3&#45;&gt;Node9</title>
<path fill="none" stroke="midnightblue" d="M372.62,-66.23C393.34,-61.22 418.89,-55.03 440.86,-49.72"/>
<polygon fill="midnightblue" stroke="midnightblue" points="441.77,-53.1 450.67,-47.34 440.12,-46.29 441.77,-53.1"/>
</g>
<!-- Node3&#45;&gt;Node10 -->
<g id="edge18" class="edge">
<title>Node3&#45;&gt;Node10</title>
<path fill="none" stroke="midnightblue" d="M344.33,-66.18C361.22,-52.49 394.63,-28.06 428,-18.82 477.52,-5.11 535.9,-6.07 579.48,-9.93"/>
<polygon fill="midnightblue" stroke="midnightblue" points="579.38,-13.44 589.66,-10.91 580.05,-6.47 579.38,-13.44"/>
</g>
<!-- Node8 -->
<g id="node8" class="node">
<title>Node8</title>
<g id="a_node8"><a xlink:href="namespacemonitor.html#a318993193c866642f8389a1c1f285739" target="_top" xlink:title=" ">
<polygon fill="white" stroke="black" points="608,-66.32 608,-85.32 682,-85.32 682,-66.32 608,-66.32"/>
<text text-anchor="middle" x="645" y="-73.32" font-family="Helvetica,sans-Serif" font-size="10.00">monitor::fuck</text>
</a>
</g>
</g>
<!-- Node7&#45;&gt;Node8 -->
<g id="edge7" class="edge">
<title>Node7&#45;&gt;Node8</title>
<path fill="none" stroke="midnightblue" d="M517.78,-75.82C539.62,-75.82 571.46,-75.82 597.7,-75.82"/>
<polygon fill="midnightblue" stroke="midnightblue" points="597.82,-79.32 607.82,-75.82 597.82,-72.32 597.82,-79.32"/>
</g>
<!-- Node9&#45;&gt;Node10 -->
<g id="edge9" class="edge">
<title>Node9&#45;&gt;Node10</title>
<path fill="none" stroke="midnightblue" d="M554.26,-30.04C562.66,-28.99 571.28,-27.91 579.71,-26.86"/>
<polygon fill="midnightblue" stroke="midnightblue" points="580.37,-30.3 589.86,-25.59 579.51,-23.36 580.37,-30.3"/>
</g>
<!-- Node11 -->
<g id="node11" class="node">
<title>Node11</title>
<g id="a_node11"><a xlink:href="namespaceconsole_1_1serial.html#a3a7c1f95ae3c24136ea63bb31fdf0391" target="_top" xlink:title=" ">
<polygon fill="white" stroke="black" points="736,-9.32 736,-28.32 856,-28.32 856,-9.32 736,-9.32"/>
<text text-anchor="middle" x="796" y="-16.32" font-family="Helvetica,sans-Serif" font-size="10.00">console::serial::putChar</text>
</a>
</g>
</g>
<!-- Node10&#45;&gt;Node11 -->
<g id="edge10" class="edge">
<title>Node10&#45;&gt;Node11</title>
<path fill="none" stroke="midnightblue" d="M700.21,-18.82C708.53,-18.82 717.2,-18.82 725.79,-18.82"/>
<polygon fill="midnightblue" stroke="midnightblue" points="725.79,-22.32 735.79,-18.82 725.79,-15.32 725.79,-22.32"/>
</g>
<!-- Node14 -->
<g id="node14" class="node">
<title>Node14</title>
<g id="a_node14"><a xlink:href="namespaceconsole_1_1cga.html#afa19057ca041b39682d5d4831c43dfa0" target="_top" xlink:title=" ">
<polygon fill="white" stroke="black" points="739.5,-47.32 739.5,-66.32 852.5,-66.32 852.5,-47.32 739.5,-47.32"/>
<text text-anchor="middle" x="796" y="-54.32" font-family="Helvetica,sans-Serif" font-size="10.00">console::cga::putChar</text>
</a>
</g>
</g>
<!-- Node10&#45;&gt;Node14 -->
<g id="edge13" class="edge">
<title>Node10&#45;&gt;Node14</title>
<path fill="none" stroke="midnightblue" d="M683.6,-28.41C703.08,-33.38 727.07,-39.5 747.8,-44.78"/>
<polygon fill="midnightblue" stroke="midnightblue" points="747.12,-48.22 757.67,-47.3 748.85,-41.44 747.12,-48.22"/>
</g>
<!-- Node12 -->
<g id="node12" class="node">
<title>Node12</title>
<g id="a_node12"><a xlink:href="namespaceconsole_1_1serial.html#aa5605d4537106bb1c2bab72d7d1a5824" target="_top" xlink:title=" ">
<polygon fill="white" stroke="black" points="910,-9.32 910,-28.32 1014,-28.32 1014,-9.32 910,-9.32"/>
<text text-anchor="middle" x="962" y="-16.32" font-family="Helvetica,sans-Serif" font-size="10.00">console::serial::sout</text>
</a>
</g>
</g>
<!-- Node11&#45;&gt;Node12 -->
<g id="edge11" class="edge">
<title>Node11&#45;&gt;Node12</title>
<path fill="none" stroke="midnightblue" d="M856.21,-18.82C870.31,-18.82 885.39,-18.82 899.59,-18.82"/>
<polygon fill="midnightblue" stroke="midnightblue" points="899.74,-22.32 909.74,-18.82 899.74,-15.32 899.74,-22.32"/>
</g>
<!-- Node13 -->
<g id="node13" class="node">
<title>Node13</title>
<g id="a_node13"><a xlink:href="x86_8h.html#ade961b44e45ddacbc3c3b7609cf36dc6" target="_top" xlink:title=" ">
<polygon fill="white" stroke="black" points="1079.5,-42.32 1079.5,-61.32 1114.5,-61.32 1114.5,-42.32 1079.5,-42.32"/>
<text text-anchor="middle" x="1097" y="-49.32" font-family="Helvetica,sans-Serif" font-size="10.00">outb</text>
</a>
</g>
</g>
<!-- Node12&#45;&gt;Node13 -->
<g id="edge12" class="edge">
<title>Node12&#45;&gt;Node13</title>
<path fill="none" stroke="midnightblue" d="M1001.47,-28.37C1023.32,-33.79 1050.11,-40.44 1069.59,-45.27"/>
<polygon fill="midnightblue" stroke="midnightblue" points="1068.76,-48.67 1079.31,-47.68 1070.44,-41.88 1068.76,-48.67"/>
</g>
<!-- Node15 -->
<g id="node15" class="node">
<title>Node15</title>
<g id="a_node15"><a xlink:href="namespacemem.html#a64d9d05b439041901498c606de606431" target="_top" xlink:title=" ">
<polygon fill="white" stroke="black" points="929.5,-90.32 929.5,-109.32 994.5,-109.32 994.5,-90.32 929.5,-90.32"/>
<text text-anchor="middle" x="962" y="-97.32" font-family="Helvetica,sans-Serif" font-size="10.00">mem::copy</text>
</a>
</g>
</g>
<!-- Node14&#45;&gt;Node15 -->
<g id="edge14" class="edge">
<title>Node14&#45;&gt;Node15</title>
<path fill="none" stroke="midnightblue" d="M833.4,-66.37C858.92,-73.06 893.08,-82.01 919.64,-88.98"/>
<polygon fill="midnightblue" stroke="midnightblue" points="918.85,-92.39 929.41,-91.54 920.62,-85.62 918.85,-92.39"/>
</g>
<!-- Node16 -->
<g id="node16" class="node">
<title>Node16</title>
<g id="a_node16"><a xlink:href="namespaceconsole_1_1cga.html#a06463d4dc68819e30615ba299d02a78f" target="_top" xlink:title=" ">
<polygon fill="white" stroke="black" points="892,-47.32 892,-66.32 1032,-66.32 1032,-47.32 892,-47.32"/>
<text text-anchor="middle" x="962" y="-54.32" font-family="Helvetica,sans-Serif" font-size="10.00">console::cga::cursorRefresh</text>
</a>
</g>
</g>
<!-- Node14&#45;&gt;Node16 -->
<g id="edge16" class="edge">
<title>Node14&#45;&gt;Node16</title>
<path fill="none" stroke="midnightblue" d="M852.52,-56.82C861.9,-56.82 871.8,-56.82 881.65,-56.82"/>
<polygon fill="midnightblue" stroke="midnightblue" points="881.87,-60.32 891.87,-56.82 881.87,-53.32 881.87,-60.32"/>
</g>
<!-- Node15&#45;&gt;Node6 -->
<g id="edge15" class="edge">
<title>Node15&#45;&gt;Node6</title>
<path fill="none" stroke="midnightblue" d="M994.52,-101.96C1013.49,-103.24 1037.77,-104.88 1057.82,-106.24"/>
<polygon fill="midnightblue" stroke="midnightblue" points="1057.66,-109.74 1067.87,-106.92 1058.13,-102.75 1057.66,-109.74"/>
</g>
<!-- Node16&#45;&gt;Node13 -->
<g id="edge17" class="edge">
<title>Node16&#45;&gt;Node13</title>
<path fill="none" stroke="midnightblue" d="M1032.23,-54.22C1045.48,-53.72 1058.59,-53.23 1069.45,-52.82"/>
<polygon fill="midnightblue" stroke="midnightblue" points="1069.61,-56.32 1079.47,-52.44 1069.35,-49.32 1069.61,-56.32"/>
</g>
</g>
</svg>
        <g id="navigator" transform="translate(0 0)" fill="#404254">
                <rect fill="#f2f5e9" fill-opacity="0.5" stroke="#606060" stroke-width=".5" x="0" y="0" width="60" height="60"/>
                <use id="zoomplus" xlink:href="#zoomPlus" x="17" y="9" onmousedown="handleZoom(evt,'in')"/>
                <use id="zoomminus" xlink:href="#zoomMin" x="42" y="9" onmousedown="handleZoom(evt,'out')"/>
                <use id="reset" xlink:href="#resetDef" x="30" y="36" onmousedown="handleReset()"/>
                <g id="arrowUp" xlink:href="#dirArrow" transform="translate(30 24)" onmousedown="handlePan(0,-1)">
                  <use xlink:href="#rim" fill="#404040">
                        <set attributeName="fill" to="#808080" begin="arrowUp.mouseover" end="arrowUp.mouseout"/>
                  </use>
                  <path fill="none" stroke="white" stroke-width="1.5" d="M0,-3.0v7 M-2.5,-0.5L0,-3.0L2.5,-0.5"/>
                </g>
                <g id="arrowRight" xlink:href="#dirArrow" transform="rotate(90) translate(36 -43)" onmousedown="handlePan(1,0)">
                  <use xlink:href="#rim" fill="#404040">
                        <set attributeName="fill" to="#808080" begin="arrowRight.mouseover" end="arrowRight.mouseout"/>
                  </use>
                  <path fill="none" stroke="white" stroke-width="1.5" d="M0,-3.0v7 M-2.5,-0.5L0,-3.0L2.5,-0.5"/>
                </g>
                <g id="arrowDown" xlink:href="#dirArrow" transform="rotate(180) translate(-30 -48)" onmousedown="handlePan(0,1)">
                  <use xlink:href="#rim" fill="#404040">
                        <set attributeName="fill" to="#808080" begin="arrowDown.mouseover" end="arrowDown.mouseout"/>
                  </use>
                  <path fill="none" stroke="white" stroke-width="1.5" d="M0,-3.0v7 M-2.5,-0.5L0,-3.0L2.5,-0.5"/>
                </g>
                <g id="arrowLeft" xlink:href="#dirArrow" transform="rotate(270) translate(-36 17)" onmousedown="handlePan(-1,0)">
                  <use xlink:href="#rim" fill="#404040">
                        <set attributeName="fill" to="#808080" begin="arrowLeft.mouseover" end="arrowLeft.mouseout"/>
                  </use>
                  <path fill="none" stroke="white" stroke-width="1.5" d="M0,-3.0v7 M-2.5,-0.5L0,-3.0L2.5,-0.5"/>
                </g>
        </g>
        <svg viewBox="0 0 15 15" width="100%" height="30px" preserveAspectRatio="xMaxYMin meet">
         <g id="arrow_out" transform="scale(0.3 0.3)">
          <a xlink:href="kernel_2printf_8cc_abc6032173c444037318e3950bc1a835f_cgraph_org.svg" target="_base">
           <rect id="button" ry="5" rx="5" y="6" x="6" height="38" width="38"
                fill="#f2f5e9" fill-opacity="0.5" stroke="#606060" stroke-width="1.0"/>
           <path id="arrow"
             d="M 11.500037,31.436501 C 11.940474,20.09759 22.043105,11.32322 32.158766,21.979434 L 37.068811,17.246167 C 37.068811,17.246167 37.088388,32 37.088388,32 L 22.160133,31.978069 C 22.160133,31.978069 26.997745,27.140456 26.997745,27.140456 C 18.528582,18.264221 13.291696,25.230495 11.500037,31.436501 z"
             style="fill:#404040;"/>
          </a>
         </g>
        </svg>
</svg>
