<?xml version="1.0" encoding="UTF-8" standalone="no"?>
<!DOCTYPE svg PUBLIC "-//W3C//DTD SVG 1.1//EN"
 "http://www.w3.org/Graphics/SVG/1.1/DTD/svg11.dtd">
<!-- Generated by graphviz version 2.44.1 (20200629.0846)
 -->
<!-- Title: printf.cc Pages: 1 -->
<svg width="520pt" height="252pt"
 viewBox="0.00 0.00 519.50 252.00" xmlns="http://www.w3.org/2000/svg" xmlns:xlink="http://www.w3.org/1999/xlink">
<g id="graph0" class="graph" transform="scale(1 1) rotate(0) translate(4 248)">
<title>printf.cc</title>
<polygon fill="white" stroke="transparent" points="-4,4 -4,-248 515.5,-248 515.5,4 -4,4"/>
<!-- Node1 -->
<g id="node1" class="node">
<title>Node1</title>
<g id="a_node1"><a xlink:title=" ">
<polygon fill="#bfbfbf" stroke="black" points="282,-224.5 282,-243.5 334,-243.5 334,-224.5 282,-224.5"/>
<text text-anchor="middle" x="308" y="-231.5" font-family="Helvetica,sans-Serif" font-size="10.00">printf.cc</text>
</a>
</g>
</g>
<!-- Node2 -->
<g id="node2" class="node">
<title>Node2</title>
<g id="a_node2"><a xlink:href="stdio_8hh.html" target="_top" xlink:title=" ">
<polygon fill="white" stroke="black" points="105.5,-168.5 105.5,-187.5 190.5,-187.5 190.5,-168.5 105.5,-168.5"/>
<text text-anchor="middle" x="148" y="-175.5" font-family="Helvetica,sans-Serif" font-size="10.00">include/stdio.hh</text>
</a>
</g>
</g>
<!-- Node1&#45;&gt;Node2 -->
<g id="edge1" class="edge">
<title>Node1&#45;&gt;Node2</title>
<path fill="none" stroke="midnightblue" d="M282.65,-224.44C255.73,-215.36 213,-200.94 182.91,-190.78"/>
<polygon fill="midnightblue" stroke="midnightblue" points="183.83,-187.4 173.23,-187.52 181.59,-194.03 183.83,-187.4"/>
</g>
<!-- Node13 -->
<g id="node13" class="node">
<title>Node13</title>
<g id="a_node13"><a xlink:href="panic_8hh.html" target="_top" xlink:title=" ">
<polygon fill="white" stroke="black" points="319.5,-168.5 319.5,-187.5 402.5,-187.5 402.5,-168.5 319.5,-168.5"/>
<text text-anchor="middle" x="361" y="-175.5" font-family="Helvetica,sans-Serif" font-size="10.00">kernel/panic.hh</text>
</a>
</g>
</g>
<!-- Node1&#45;&gt;Node13 -->
<g id="edge14" class="edge">
<title>Node1&#45;&gt;Node13</title>
<path fill="none" stroke="midnightblue" d="M316.75,-224.08C324.47,-216.22 335.9,-204.57 345.22,-195.08"/>
<polygon fill="midnightblue" stroke="midnightblue" points="347.9,-197.34 352.41,-187.75 342.91,-192.44 347.9,-197.34"/>
</g>
<!-- Node15 -->
<g id="node15" class="node">
<title>Node15</title>
<g id="a_node15"><a xlink:href="cstdout_8h.html" target="_top" xlink:title=" ">
<polygon fill="white" stroke="black" points="420.5,-168.5 420.5,-187.5 511.5,-187.5 511.5,-168.5 420.5,-168.5"/>
<text text-anchor="middle" x="466" y="-175.5" font-family="Helvetica,sans-Serif" font-size="10.00">include/cstdout.h</text>
</a>
</g>
</g>
<!-- Node1&#45;&gt;Node15 -->
<g id="edge16" class="edge">
<title>Node1&#45;&gt;Node15</title>
<path fill="none" stroke="midnightblue" d="M333.04,-224.44C359.62,-215.36 401.81,-200.94 431.52,-190.78"/>
<polygon fill="midnightblue" stroke="midnightblue" points="432.75,-194.06 441.08,-187.52 430.49,-187.44 432.75,-194.06"/>
</g>
<!-- Node16 -->
<g id="node16" class="node">
<title>Node16</title>
<g id="a_node16"><a xlink:href="console_8hh.html" target="_top" xlink:title=" ">
<polygon fill="white" stroke="black" points="208.5,-168.5 208.5,-187.5 301.5,-187.5 301.5,-168.5 208.5,-168.5"/>
<text text-anchor="middle" x="255" y="-175.5" font-family="Helvetica,sans-Serif" font-size="10.00">kernel/console.hh</text>
</a>
</g>
</g>
<!-- Node1&#45;&gt;Node16 -->
<g id="edge17" class="edge">
<title>Node1&#45;&gt;Node16</title>
<path fill="none" stroke="midnightblue" d="M299.25,-224.08C291.53,-216.22 280.1,-204.57 270.78,-195.08"/>
<polygon fill="midnightblue" stroke="midnightblue" points="273.09,-192.44 263.59,-187.75 268.1,-197.34 273.09,-192.44"/>
</g>
<!-- Node3 -->
<g id="node3" class="node">
<title>Node3</title>
<g id="a_node3"><a xlink:href="stdin_8hh.html" target="_top" xlink:title=" ">
<polygon fill="white" stroke="black" points="1.5,-112.5 1.5,-131.5 86.5,-131.5 86.5,-112.5 1.5,-112.5"/>
<text text-anchor="middle" x="44" y="-119.5" font-family="Helvetica,sans-Serif" font-size="10.00">include/stdin.hh</text>
</a>
</g>
</g>
<!-- Node2&#45;&gt;Node3 -->
<g id="edge2" class="edge">
<title>Node2&#45;&gt;Node3</title>
<path fill="none" stroke="midnightblue" d="M131.29,-168.32C114.69,-159.7 89,-146.36 69.78,-136.39"/>
<polygon fill="midnightblue" stroke="midnightblue" points="71.16,-133.16 60.67,-131.65 67.93,-139.37 71.16,-133.16"/>
</g>
<!-- Node6 -->
<g id="node6" class="node">
<title>Node6</title>
<g id="a_node6"><a xlink:href="stdout_8hh.html" target="_top" xlink:title=" ">
<polygon fill="white" stroke="black" points="104.5,-112.5 104.5,-131.5 195.5,-131.5 195.5,-112.5 104.5,-112.5"/>
<text text-anchor="middle" x="150" y="-119.5" font-family="Helvetica,sans-Serif" font-size="10.00">include/stdout.hh</text>
</a>
</g>
</g>
<!-- Node2&#45;&gt;Node6 -->
<g id="edge5" class="edge">
<title>Node2&#45;&gt;Node6</title>
<path fill="none" stroke="midnightblue" d="M148.33,-168.08C148.59,-161.01 148.97,-150.86 149.3,-141.99"/>
<polygon fill="midnightblue" stroke="midnightblue" points="152.8,-141.87 149.68,-131.75 145.81,-141.61 152.8,-141.87"/>
</g>
<!-- Node4 -->
<g id="node4" class="node">
<title>Node4</title>
<g id="a_node4"><a xlink:href="vargs_8hh.html" target="_top" xlink:title=" ">
<polygon fill="white" stroke="black" points="0,-56.5 0,-75.5 88,-75.5 88,-56.5 0,-56.5"/>
<text text-anchor="middle" x="44" y="-63.5" font-family="Helvetica,sans-Serif" font-size="10.00">include/vargs.hh</text>
</a>
</g>
</g>
<!-- Node3&#45;&gt;Node4 -->
<g id="edge3" class="edge">
<title>Node3&#45;&gt;Node4</title>
<path fill="none" stroke="midnightblue" d="M44,-112.08C44,-105.01 44,-94.86 44,-85.99"/>
<polygon fill="midnightblue" stroke="midnightblue" points="47.5,-85.75 44,-75.75 40.5,-85.75 47.5,-85.75"/>
</g>
<!-- Node5 -->
<g id="node5" class="node">
<title>Node5</title>
<g id="a_node5"><a xlink:title=" ">
<polygon fill="white" stroke="#bfbfbf" points="19.5,-0.5 19.5,-19.5 68.5,-19.5 68.5,-0.5 19.5,-0.5"/>
<text text-anchor="middle" x="44" y="-7.5" font-family="Helvetica,sans-Serif" font-size="10.00">cstdarg</text>
</a>
</g>
</g>
<!-- Node4&#45;&gt;Node5 -->
<g id="edge4" class="edge">
<title>Node4&#45;&gt;Node5</title>
<path fill="none" stroke="midnightblue" d="M44,-56.08C44,-49.01 44,-38.86 44,-29.99"/>
<polygon fill="midnightblue" stroke="midnightblue" points="47.5,-29.75 44,-19.75 40.5,-29.75 47.5,-29.75"/>
</g>
<!-- Node6&#45;&gt;Node4 -->
<g id="edge11" class="edge">
<title>Node6&#45;&gt;Node4</title>
<path fill="none" stroke="midnightblue" d="M132.97,-112.32C115.97,-103.66 89.62,-90.24 70.01,-80.25"/>
<polygon fill="midnightblue" stroke="midnightblue" points="71.49,-77.08 60.99,-75.65 68.31,-83.31 71.49,-77.08"/>
</g>
<!-- Node7 -->
<g id="node7" class="node">
<title>Node7</title>
<g id="a_node7"><a xlink:href="types_8h.html" target="_top" xlink:title=" ">
<polygon fill="white" stroke="black" points="280.5,-56.5 280.5,-75.5 363.5,-75.5 363.5,-56.5 280.5,-56.5"/>
<text text-anchor="middle" x="322" y="-63.5" font-family="Helvetica,sans-Serif" font-size="10.00">include/types.h</text>
</a>
</g>
</g>
<!-- Node6&#45;&gt;Node7 -->
<g id="edge6" class="edge">
<title>Node6&#45;&gt;Node7</title>
<path fill="none" stroke="midnightblue" d="M177.25,-112.44C206.44,-103.28 252.92,-88.69 285.31,-78.52"/>
<polygon fill="midnightblue" stroke="midnightblue" points="286.38,-81.85 294.87,-75.52 284.28,-75.17 286.38,-81.85"/>
</g>
<!-- Node11 -->
<g id="node11" class="node">
<title>Node11</title>
<g id="a_node11"><a xlink:href="color_8h.html" target="_top" xlink:title=" ">
<polygon fill="white" stroke="black" points="183.5,-56.5 183.5,-75.5 262.5,-75.5 262.5,-56.5 183.5,-56.5"/>
<text text-anchor="middle" x="223" y="-63.5" font-family="Helvetica,sans-Serif" font-size="10.00">include/color.h</text>
</a>
</g>
</g>
<!-- Node6&#45;&gt;Node11 -->
<g id="edge12" class="edge">
<title>Node6&#45;&gt;Node11</title>
<path fill="none" stroke="midnightblue" d="M161.73,-112.32C172.84,-104.11 189.74,-91.6 202.98,-81.81"/>
<polygon fill="midnightblue" stroke="midnightblue" points="205.1,-84.59 211.06,-75.83 200.94,-78.97 205.1,-84.59"/>
</g>
<!-- Node12 -->
<g id="node12" class="node">
<title>Node12</title>
<g id="a_node12"><a xlink:title=" ">
<polygon fill="white" stroke="#bfbfbf" points="106.5,-56.5 106.5,-75.5 165.5,-75.5 165.5,-56.5 106.5,-56.5"/>
<text text-anchor="middle" x="136" y="-63.5" font-family="Helvetica,sans-Serif" font-size="10.00">functional</text>
</a>
</g>
</g>
<!-- Node6&#45;&gt;Node12 -->
<g id="edge13" class="edge">
<title>Node6&#45;&gt;Node12</title>
<path fill="none" stroke="midnightblue" d="M147.69,-112.08C145.83,-104.93 143.16,-94.64 140.85,-85.69"/>
<polygon fill="midnightblue" stroke="midnightblue" points="144.17,-84.55 138.27,-75.75 137.39,-86.31 144.17,-84.55"/>
</g>
<!-- Node8 -->
<g id="node8" class="node">
<title>Node8</title>
<g id="a_node8"><a xlink:title=" ">
<polygon fill="white" stroke="#bfbfbf" points="193,-0.5 193,-19.5 245,-19.5 245,-0.5 193,-0.5"/>
<text text-anchor="middle" x="219" y="-7.5" font-family="Helvetica,sans-Serif" font-size="10.00">stddef.h</text>
</a>
</g>
</g>
<!-- Node7&#45;&gt;Node8 -->
<g id="edge7" class="edge">
<title>Node7&#45;&gt;Node8</title>
<path fill="none" stroke="midnightblue" d="M305.45,-56.32C289.01,-47.7 263.57,-34.36 244.53,-24.39"/>
<polygon fill="midnightblue" stroke="midnightblue" points="245.99,-21.2 235.51,-19.65 242.74,-27.4 245.99,-21.2"/>
</g>
<!-- Node9 -->
<g id="node9" class="node">
<title>Node9</title>
<g id="a_node9"><a xlink:title=" ">
<polygon fill="white" stroke="#bfbfbf" points="263.5,-0.5 263.5,-19.5 312.5,-19.5 312.5,-0.5 263.5,-0.5"/>
<text text-anchor="middle" x="288" y="-7.5" font-family="Helvetica,sans-Serif" font-size="10.00">stdint.h</text>
</a>
</g>
</g>
<!-- Node7&#45;&gt;Node9 -->
<g id="edge8" class="edge">
<title>Node7&#45;&gt;Node9</title>
<path fill="none" stroke="midnightblue" d="M316.39,-56.08C311.63,-48.53 304.68,-37.49 298.85,-28.23"/>
<polygon fill="midnightblue" stroke="midnightblue" points="301.8,-26.35 293.51,-19.75 295.88,-30.08 301.8,-26.35"/>
</g>
<!-- Node10 -->
<g id="node10" class="node">
<title>Node10</title>
<g id="a_node10"><a xlink:href="ctype_8h.html" target="_top" xlink:title=" ">
<polygon fill="white" stroke="black" points="330.5,-0.5 330.5,-19.5 379.5,-19.5 379.5,-0.5 330.5,-0.5"/>
<text text-anchor="middle" x="355" y="-7.5" font-family="Helvetica,sans-Serif" font-size="10.00">ctype.h</text>
</a>
</g>
</g>
<!-- Node7&#45;&gt;Node10 -->
<g id="edge9" class="edge">
<title>Node7&#45;&gt;Node10</title>
<path fill="none" stroke="midnightblue" d="M322.28,-56.08C325.34,-48.46 331.79,-37.26 338.33,-27.94"/>
<polygon fill="midnightblue" stroke="midnightblue" points="341.28,-29.84 344.52,-19.75 335.7,-25.62 341.28,-29.84"/>
</g>
<!-- Node10&#45;&gt;Node7 -->
<g id="edge10" class="edge">
<title>Node10&#45;&gt;Node7</title>
<path fill="none" stroke="midnightblue" d="M354.78,-19.75C351.78,-27.33 345.35,-38.5 338.81,-47.86"/>
<polygon fill="midnightblue" stroke="midnightblue" points="335.83,-45.99 332.62,-56.08 341.43,-50.2 335.83,-45.99"/>
</g>
<!-- Node14 -->
<g id="node14" class="node">
<title>Node14</title>
<g id="a_node14"><a xlink:href="knlast_8inc.html" target="_top" xlink:title=" ">
<polygon fill="white" stroke="black" points="315,-112.5 315,-131.5 403,-131.5 403,-112.5 315,-112.5"/>
<text text-anchor="middle" x="359" y="-119.5" font-family="Helvetica,sans-Serif" font-size="10.00">kernel/knlast.inc</text>
</a>
</g>
</g>
<!-- Node13&#45;&gt;Node14 -->
<g id="edge15" class="edge">
<title>Node13&#45;&gt;Node14</title>
<path fill="none" stroke="midnightblue" d="M360.67,-168.08C360.41,-161.01 360.03,-150.86 359.7,-141.99"/>
<polygon fill="midnightblue" stroke="midnightblue" points="363.19,-141.61 359.32,-131.75 356.2,-141.87 363.19,-141.61"/>
</g>
<!-- Node16&#45;&gt;Node7 -->
<g id="edge19" class="edge">
<title>Node16&#45;&gt;Node7</title>
<path fill="none" stroke="midnightblue" d="M260.26,-168.37C271.27,-150.3 296.92,-108.18 311.46,-84.31"/>
<polygon fill="midnightblue" stroke="midnightblue" points="314.55,-85.95 316.77,-75.59 308.58,-82.31 314.55,-85.95"/>
</g>
<!-- Node16&#45;&gt;Node11 -->
<g id="edge20" class="edge">
<title>Node16&#45;&gt;Node11</title>
<path fill="none" stroke="midnightblue" d="M252.49,-168.37C247.3,-150.54 235.3,-109.3 228.32,-85.27"/>
<polygon fill="midnightblue" stroke="midnightblue" points="231.65,-84.22 225.5,-75.59 224.93,-86.17 231.65,-84.22"/>
</g>
<!-- Node16&#45;&gt;Node14 -->
<g id="edge18" class="edge">
<title>Node16&#45;&gt;Node14</title>
<path fill="none" stroke="midnightblue" d="M271.71,-168.32C288.31,-159.7 314,-146.36 333.22,-136.39"/>
<polygon fill="midnightblue" stroke="midnightblue" points="335.07,-139.37 342.33,-131.65 331.84,-133.16 335.07,-139.37"/>
</g>
</g>
</svg>
