<?xml version="1.0" encoding="UTF-8" standalone="no"?>
<!DOCTYPE svg PUBLIC "-//W3C//DTD SVG 1.1//EN"
 "http://www.w3.org/Graphics/SVG/1.1/DTD/svg11.dtd">
<!-- Generated by graphviz version 2.44.1 (20200629.0846)
 -->
<!-- Title: task.hh Pages: 1 -->
<!--zoomable 364 -->
<svg id="main" version="1.1" xmlns="http://www.w3.org/2000/svg" xmlns:xlink="http://www.w3.org/1999/xlink" xml:space="preserve" onload="init(evt)">
<style type="text/css"><![CDATA[
.edge:hover path { stroke: red; }
.edge:hover polygon { stroke: red; fill: red; }
]]></style>
<script type="text/javascript"><![CDATA[
var edges = document.getElementsByTagName('g');
if (edges && edges.length) {
  for (var i=0;i<edges.length;i++) {
    if (edges[i].id.substr(0,4)=='edge') {
      edges[i].setAttribute('class','edge');
    }
  }
}
]]></script>
        <defs>
                <circle id="rim" cx="0" cy="0" r="7"/>
                <circle id="rim2" cx="0" cy="0" r="3.5"/>
                <g id="zoomPlus">
                        <use xlink:href="#rim" fill="#404040">
                                <set attributeName="fill" to="#808080" begin="zoomplus.mouseover" end="zoomplus.mouseout"/>
                        </use>
                        <path d="M-4,0h8M0,-4v8" fill="none" stroke="white" stroke-width="1.5" pointer-events="none"/>
                </g>
                <g id="zoomMin">
                        <use xlink:href="#rim" fill="#404040">
                                <set attributeName="fill" to="#808080" begin="zoomminus.mouseover" end="zoomminus.mouseout"/>
                        </use>
                        <path d="M-4,0h8" fill="none" stroke="white" stroke-width="1.5" pointer-events="none"/>
                </g>
                <g id="dirArrow">
                        <path fill="none" stroke="white" stroke-width="1.5" d="M0,-3.0v7 M-2.5,-0.5L0,-3.0L2.5,-0.5"/>
                </g>
               <g id="resetDef">
                       <use xlink:href="#rim2" fill="#404040">
                               <set attributeName="fill" to="#808080" begin="reset.mouseover" end="reset.mouseout"/>
                       </use>
               </g>
        </defs>

<script type="text/javascript">
var viewWidth = 509;
var viewHeight = 364;
var sectionId = 'dynsection-0';
</script>
<script xlink:href="svgpan.js"/>
<svg id="graph" class="graph">
<g id="viewport">
<title>task.hh</title>
<polygon fill="white" stroke="transparent" points="-4,4 -4,-360 504.6,-360 504.6,4 -4,4"/>
<!-- Node1 -->
<g id="node1" class="node">
<title>Node1</title>
<g id="a_node1"><a xlink:title=" ">
<polygon fill="#bfbfbf" stroke="black" points="86.6,-336.5 86.6,-355.5 135.6,-355.5 135.6,-336.5 86.6,-336.5"/>
<text text-anchor="middle" x="111.1" y="-343.5" font-family="Helvetica,sans-Serif" font-size="10.00">task.hh</text>
</a>
</g>
</g>
<!-- Node2 -->
<g id="node2" class="node">
<title>Node2</title>
<g id="a_node2"><a xlink:href="knlast_8inc.html" target="_top" xlink:title=" ">
<polygon fill="white" stroke="black" points="151.1,-168.5 151.1,-187.5 239.1,-187.5 239.1,-168.5 151.1,-168.5"/>
<text text-anchor="middle" x="195.1" y="-175.5" font-family="Helvetica,sans-Serif" font-size="10.00">kernel/knlast.inc</text>
</a>
</g>
</g>
<!-- Node1&#45;&gt;Node2 -->
<g id="edge1" class="edge">
<title>Node1&#45;&gt;Node2</title>
<path fill="none" stroke="midnightblue" d="M86.5,-340.78C48.83,-333.15 -16.7,-314.54 4.1,-280 34.31,-229.86 98.66,-203.32 144.31,-190.24"/>
<polygon fill="midnightblue" stroke="midnightblue" points="145.31,-193.59 154.03,-187.57 143.46,-186.84 145.31,-193.59"/>
</g>
<!-- Node3 -->
<g id="node3" class="node">
<title>Node3</title>
<g id="a_node3"><a xlink:title=" ">
<polygon fill="white" stroke="#bfbfbf" points="13.1,-280.5 13.1,-299.5 51.1,-299.5 51.1,-280.5 13.1,-280.5"/>
<text text-anchor="middle" x="32.1" y="-287.5" font-family="Helvetica,sans-Serif" font-size="10.00">tuple</text>
</a>
</g>
</g>
<!-- Node1&#45;&gt;Node3 -->
<g id="edge2" class="edge">
<title>Node1&#45;&gt;Node3</title>
<path fill="none" stroke="midnightblue" d="M98.41,-336.32C86.2,-327.98 67.53,-315.21 53.1,-305.35"/>
<polygon fill="midnightblue" stroke="midnightblue" points="55,-302.41 44.77,-299.65 51.05,-308.19 55,-302.41"/>
</g>
<!-- Node4 -->
<g id="node4" class="node">
<title>Node4</title>
<g id="a_node4"><a xlink:href="include_2task_8hh.html" target="_top" xlink:title=" ">
<polygon fill="white" stroke="black" points="69.6,-280.5 69.6,-299.5 152.6,-299.5 152.6,-280.5 69.6,-280.5"/>
<text text-anchor="middle" x="111.1" y="-287.5" font-family="Helvetica,sans-Serif" font-size="10.00">include/task.hh</text>
</a>
</g>
</g>
<!-- Node1&#45;&gt;Node4 -->
<g id="edge3" class="edge">
<title>Node1&#45;&gt;Node4</title>
<path fill="none" stroke="midnightblue" d="M111.1,-336.08C111.1,-329.01 111.1,-318.86 111.1,-309.99"/>
<polygon fill="midnightblue" stroke="midnightblue" points="114.6,-309.75 111.1,-299.75 107.6,-309.75 114.6,-309.75"/>
</g>
<!-- Node5 -->
<g id="node5" class="node">
<title>Node5</title>
<g id="a_node5"><a xlink:href="result_8hh.html" target="_top" xlink:title=" ">
<polygon fill="white" stroke="black" points="171.1,-280.5 171.1,-299.5 259.1,-299.5 259.1,-280.5 171.1,-280.5"/>
<text text-anchor="middle" x="215.1" y="-287.5" font-family="Helvetica,sans-Serif" font-size="10.00">include/result.hh</text>
</a>
</g>
</g>
<!-- Node1&#45;&gt;Node5 -->
<g id="edge4" class="edge">
<title>Node1&#45;&gt;Node5</title>
<path fill="none" stroke="midnightblue" d="M127.81,-336.32C144.42,-327.7 170.11,-314.36 189.32,-304.39"/>
<polygon fill="midnightblue" stroke="midnightblue" points="191.17,-307.37 198.44,-299.65 187.95,-301.16 191.17,-307.37"/>
</g>
<!-- Node6 -->
<g id="node6" class="node">
<title>Node6</title>
<g id="a_node6"><a xlink:href="kernel_2trap_8hh.html" target="_top" xlink:title=" ">
<polygon fill="white" stroke="black" points="277.1,-280.5 277.1,-299.5 353.1,-299.5 353.1,-280.5 277.1,-280.5"/>
<text text-anchor="middle" x="315.1" y="-287.5" font-family="Helvetica,sans-Serif" font-size="10.00">kernel/trap.hh</text>
</a>
</g>
</g>
<!-- Node1&#45;&gt;Node6 -->
<g id="edge5" class="edge">
<title>Node1&#45;&gt;Node6</title>
<path fill="none" stroke="midnightblue" d="M135.71,-338.49C169.68,-329.49 231.44,-313.15 272.87,-302.18"/>
<polygon fill="midnightblue" stroke="midnightblue" points="273.91,-305.53 282.68,-299.58 272.11,-298.76 273.91,-305.53"/>
</g>
<!-- Node6&#45;&gt;Node2 -->
<g id="edge18" class="edge">
<title>Node6&#45;&gt;Node2</title>
<path fill="none" stroke="midnightblue" d="M277.69,-280.36C256.62,-273.69 231.36,-262.41 215.1,-244 203.76,-231.15 198.85,-211.97 196.72,-197.77"/>
<polygon fill="midnightblue" stroke="midnightblue" points="200.18,-197.2 195.55,-187.67 193.23,-198.01 200.18,-197.2"/>
</g>
<!-- Node7 -->
<g id="node7" class="node">
<title>Node7</title>
<g id="a_node7"><a xlink:href="include_2trap_8hh.html" target="_top" xlink:title=" ">
<polygon fill="white" stroke="black" points="325.1,-224.5 325.1,-243.5 405.1,-243.5 405.1,-224.5 325.1,-224.5"/>
<text text-anchor="middle" x="365.1" y="-231.5" font-family="Helvetica,sans-Serif" font-size="10.00">include/trap.hh</text>
</a>
</g>
</g>
<!-- Node6&#45;&gt;Node7 -->
<g id="edge6" class="edge">
<title>Node6&#45;&gt;Node7</title>
<path fill="none" stroke="midnightblue" d="M323.36,-280.08C330.57,-272.3 341.21,-260.8 349.95,-251.37"/>
<polygon fill="midnightblue" stroke="midnightblue" points="352.78,-253.47 357,-243.75 347.64,-248.71 352.78,-253.47"/>
</g>
<!-- Node15 -->
<g id="node15" class="node">
<title>Node15</title>
<g id="a_node15"><a xlink:href="panic_8hh.html" target="_top" xlink:title=" ">
<polygon fill="white" stroke="black" points="223.6,-224.5 223.6,-243.5 306.6,-243.5 306.6,-224.5 223.6,-224.5"/>
<text text-anchor="middle" x="265.1" y="-231.5" font-family="Helvetica,sans-Serif" font-size="10.00">kernel/panic.hh</text>
</a>
</g>
</g>
<!-- Node6&#45;&gt;Node15 -->
<g id="edge19" class="edge">
<title>Node6&#45;&gt;Node15</title>
<path fill="none" stroke="midnightblue" d="M306.85,-280.08C299.64,-272.3 288.99,-260.8 280.26,-251.37"/>
<polygon fill="midnightblue" stroke="midnightblue" points="282.57,-248.71 273.21,-243.75 277.43,-253.47 282.57,-248.71"/>
</g>
<!-- Node8 -->
<g id="node8" class="node">
<title>Node8</title>
<g id="a_node8"><a xlink:href="string_8hh.html" target="_top" xlink:title=" ">
<polygon fill="white" stroke="black" points="245.1,-112.5 245.1,-131.5 333.1,-131.5 333.1,-112.5 245.1,-112.5"/>
<text text-anchor="middle" x="289.1" y="-119.5" font-family="Helvetica,sans-Serif" font-size="10.00">include/string.hh</text>
</a>
</g>
</g>
<!-- Node7&#45;&gt;Node8 -->
<g id="edge7" class="edge">
<title>Node7&#45;&gt;Node8</title>
<path fill="none" stroke="midnightblue" d="M359.14,-224.37C346.6,-206.22 317.29,-163.8 300.84,-139.99"/>
<polygon fill="midnightblue" stroke="midnightblue" points="303.6,-137.83 295.04,-131.59 297.84,-141.81 303.6,-137.83"/>
</g>
<!-- Node13 -->
<g id="node13" class="node">
<title>Node13</title>
<g id="a_node13"><a xlink:href="mmu_8h.html" target="_top" xlink:title=" ">
<polygon fill="white" stroke="black" points="351.1,-112.5 351.1,-131.5 431.1,-131.5 431.1,-112.5 351.1,-112.5"/>
<text text-anchor="middle" x="391.1" y="-119.5" font-family="Helvetica,sans-Serif" font-size="10.00">include/mmu.h</text>
</a>
</g>
</g>
<!-- Node7&#45;&gt;Node13 -->
<g id="edge13" class="edge">
<title>Node7&#45;&gt;Node13</title>
<path fill="none" stroke="midnightblue" d="M367.14,-224.37C371.34,-206.62 381.02,-165.67 386.71,-141.6"/>
<polygon fill="midnightblue" stroke="midnightblue" points="390.18,-142.13 389.07,-131.59 383.37,-140.52 390.18,-142.13"/>
</g>
<!-- Node14 -->
<g id="node14" class="node">
<title>Node14</title>
<g id="a_node14"><a xlink:href="memlayout_8h.html" target="_top" xlink:title=" ">
<polygon fill="white" stroke="black" points="393.6,-168.5 393.6,-187.5 500.6,-187.5 500.6,-168.5 393.6,-168.5"/>
<text text-anchor="middle" x="447.1" y="-175.5" font-family="Helvetica,sans-Serif" font-size="10.00">include/memlayout.h</text>
</a>
</g>
</g>
<!-- Node7&#45;&gt;Node14 -->
<g id="edge15" class="edge">
<title>Node7&#45;&gt;Node14</title>
<path fill="none" stroke="midnightblue" d="M378.28,-224.32C390.95,-215.98 410.34,-203.21 425.31,-193.35"/>
<polygon fill="midnightblue" stroke="midnightblue" points="427.54,-196.08 433.96,-187.65 423.69,-190.23 427.54,-196.08"/>
</g>
<!-- Node9 -->
<g id="node9" class="node">
<title>Node9</title>
<g id="a_node9"><a xlink:href="types_8h.html" target="_top" xlink:title=" ">
<polygon fill="white" stroke="black" points="349.6,-56.5 349.6,-75.5 432.6,-75.5 432.6,-56.5 349.6,-56.5"/>
<text text-anchor="middle" x="391.1" y="-63.5" font-family="Helvetica,sans-Serif" font-size="10.00">include/types.h</text>
</a>
</g>
</g>
<!-- Node8&#45;&gt;Node9 -->
<g id="edge8" class="edge">
<title>Node8&#45;&gt;Node9</title>
<path fill="none" stroke="midnightblue" d="M305.49,-112.32C321.78,-103.7 346.97,-90.36 365.82,-80.39"/>
<polygon fill="midnightblue" stroke="midnightblue" points="367.56,-83.43 374.76,-75.65 364.28,-77.24 367.56,-83.43"/>
</g>
<!-- Node10 -->
<g id="node10" class="node">
<title>Node10</title>
<g id="a_node10"><a xlink:title=" ">
<polygon fill="white" stroke="#bfbfbf" points="263.1,-0.5 263.1,-19.5 315.1,-19.5 315.1,-0.5 263.1,-0.5"/>
<text text-anchor="middle" x="289.1" y="-7.5" font-family="Helvetica,sans-Serif" font-size="10.00">stddef.h</text>
</a>
</g>
</g>
<!-- Node9&#45;&gt;Node10 -->
<g id="edge9" class="edge">
<title>Node9&#45;&gt;Node10</title>
<path fill="none" stroke="midnightblue" d="M374.72,-56.32C358.43,-47.7 333.24,-34.36 314.39,-24.39"/>
<polygon fill="midnightblue" stroke="midnightblue" points="315.93,-21.24 305.45,-19.65 312.65,-27.43 315.93,-21.24"/>
</g>
<!-- Node11 -->
<g id="node11" class="node">
<title>Node11</title>
<g id="a_node11"><a xlink:title=" ">
<polygon fill="white" stroke="#bfbfbf" points="333.6,-0.5 333.6,-19.5 382.6,-19.5 382.6,-0.5 333.6,-0.5"/>
<text text-anchor="middle" x="358.1" y="-7.5" font-family="Helvetica,sans-Serif" font-size="10.00">stdint.h</text>
</a>
</g>
</g>
<!-- Node9&#45;&gt;Node11 -->
<g id="edge10" class="edge">
<title>Node9&#45;&gt;Node11</title>
<path fill="none" stroke="midnightblue" d="M385.65,-56.08C381.09,-48.61 374.44,-37.72 368.81,-28.52"/>
<polygon fill="midnightblue" stroke="midnightblue" points="371.65,-26.46 363.45,-19.75 365.68,-30.11 371.65,-26.46"/>
</g>
<!-- Node12 -->
<g id="node12" class="node">
<title>Node12</title>
<g id="a_node12"><a xlink:href="ctype_8h.html" target="_top" xlink:title=" ">
<polygon fill="white" stroke="black" points="400.6,-0.5 400.6,-19.5 449.6,-19.5 449.6,-0.5 400.6,-0.5"/>
<text text-anchor="middle" x="425.1" y="-7.5" font-family="Helvetica,sans-Serif" font-size="10.00">ctype.h</text>
</a>
</g>
</g>
<!-- Node9&#45;&gt;Node12 -->
<g id="edge11" class="edge">
<title>Node9&#45;&gt;Node12</title>
<path fill="none" stroke="midnightblue" d="M391.55,-56.08C394.78,-48.38 401.55,-37.03 408.33,-27.65"/>
<polygon fill="midnightblue" stroke="midnightblue" points="411.1,-29.8 414.46,-19.75 405.57,-25.5 411.1,-29.8"/>
</g>
<!-- Node12&#45;&gt;Node9 -->
<g id="edge12" class="edge">
<title>Node12&#45;&gt;Node9</title>
<path fill="none" stroke="midnightblue" d="M424.72,-19.75C421.55,-27.4 414.81,-38.74 408.02,-48.14"/>
<polygon fill="midnightblue" stroke="midnightblue" points="405.23,-46.03 401.88,-56.08 410.77,-50.31 405.23,-46.03"/>
</g>
<!-- Node13&#45;&gt;Node9 -->
<g id="edge14" class="edge">
<title>Node13&#45;&gt;Node9</title>
<path fill="none" stroke="midnightblue" d="M391.1,-112.08C391.1,-105.01 391.1,-94.86 391.1,-85.99"/>
<polygon fill="midnightblue" stroke="midnightblue" points="394.6,-85.75 391.1,-75.75 387.6,-85.75 394.6,-85.75"/>
</g>
<!-- Node14&#45;&gt;Node9 -->
<g id="edge16" class="edge">
<title>Node14&#45;&gt;Node9</title>
<path fill="none" stroke="midnightblue" d="M448.02,-168.47C449.02,-155.51 449.41,-130.44 440.1,-112 434.06,-100.04 423.43,-89.68 413.62,-81.92"/>
<polygon fill="midnightblue" stroke="midnightblue" points="415.46,-78.93 405.33,-75.8 411.3,-84.56 415.46,-78.93"/>
</g>
<!-- Node14&#45;&gt;Node13 -->
<g id="edge17" class="edge">
<title>Node14&#45;&gt;Node13</title>
<path fill="none" stroke="midnightblue" d="M438.11,-168.32C429.91,-160.42 417.6,-148.55 407.63,-138.94"/>
<polygon fill="midnightblue" stroke="midnightblue" points="409.89,-136.26 400.26,-131.83 405.03,-141.29 409.89,-136.26"/>
</g>
<!-- Node15&#45;&gt;Node2 -->
<g id="edge20" class="edge">
<title>Node15&#45;&gt;Node2</title>
<path fill="none" stroke="midnightblue" d="M253.86,-224.32C243.31,-216.18 227.3,-203.84 214.66,-194.09"/>
<polygon fill="midnightblue" stroke="midnightblue" points="216.61,-191.17 206.56,-187.83 212.34,-196.71 216.61,-191.17"/>
</g>
</g>
</svg>
        <g id="navigator" transform="translate(0 0)" fill="#404254">
                <rect fill="#f2f5e9" fill-opacity="0.5" stroke="#606060" stroke-width=".5" x="0" y="0" width="60" height="60"/>
                <use id="zoomplus" xlink:href="#zoomPlus" x="17" y="9" onmousedown="handleZoom(evt,'in')"/>
                <use id="zoomminus" xlink:href="#zoomMin" x="42" y="9" onmousedown="handleZoom(evt,'out')"/>
                <use id="reset" xlink:href="#resetDef" x="30" y="36" onmousedown="handleReset()"/>
                <g id="arrowUp" xlink:href="#dirArrow" transform="translate(30 24)" onmousedown="handlePan(0,-1)">
                  <use xlink:href="#rim" fill="#404040">
                        <set attributeName="fill" to="#808080" begin="arrowUp.mouseover" end="arrowUp.mouseout"/>
                  </use>
                  <path fill="none" stroke="white" stroke-width="1.5" d="M0,-3.0v7 M-2.5,-0.5L0,-3.0L2.5,-0.5"/>
                </g>
                <g id="arrowRight" xlink:href="#dirArrow" transform="rotate(90) translate(36 -43)" onmousedown="handlePan(1,0)">
                  <use xlink:href="#rim" fill="#404040">
                        <set attributeName="fill" to="#808080" begin="arrowRight.mouseover" end="arrowRight.mouseout"/>
                  </use>
                  <path fill="none" stroke="white" stroke-width="1.5" d="M0,-3.0v7 M-2.5,-0.5L0,-3.0L2.5,-0.5"/>
                </g>
                <g id="arrowDown" xlink:href="#dirArrow" transform="rotate(180) translate(-30 -48)" onmousedown="handlePan(0,1)">
                  <use xlink:href="#rim" fill="#404040">
                        <set attributeName="fill" to="#808080" begin="arrowDown.mouseover" end="arrowDown.mouseout"/>
                  </use>
                  <path fill="none" stroke="white" stroke-width="1.5" d="M0,-3.0v7 M-2.5,-0.5L0,-3.0L2.5,-0.5"/>
                </g>
                <g id="arrowLeft" xlink:href="#dirArrow" transform="rotate(270) translate(-36 17)" onmousedown="handlePan(-1,0)">
                  <use xlink:href="#rim" fill="#404040">
                        <set attributeName="fill" to="#808080" begin="arrowLeft.mouseover" end="arrowLeft.mouseout"/>
                  </use>
                  <path fill="none" stroke="white" stroke-width="1.5" d="M0,-3.0v7 M-2.5,-0.5L0,-3.0L2.5,-0.5"/>
                </g>
        </g>
        <svg viewBox="0 0 15 15" width="100%" height="30px" preserveAspectRatio="xMaxYMin meet">
         <g id="arrow_out" transform="scale(0.3 0.3)">
          <a xlink:href="kernel_2task_8hh__incl_org.svg" target="_base">
           <rect id="button" ry="5" rx="5" y="6" x="6" height="38" width="38"
                fill="#f2f5e9" fill-opacity="0.5" stroke="#606060" stroke-width="1.0"/>
           <path id="arrow"
             d="M 11.500037,31.436501 C 11.940474,20.09759 22.043105,11.32322 32.158766,21.979434 L 37.068811,17.246167 C 37.068811,17.246167 37.088388,32 37.088388,32 L 22.160133,31.978069 C 22.160133,31.978069 26.997745,27.140456 26.997745,27.140456 C 18.528582,18.264221 13.291696,25.230495 11.500037,31.436501 z"
             style="fill:#404040;"/>
          </a>
         </g>
        </svg>
</svg>
