<?xml version="1.0" encoding="UTF-8" standalone="no"?>
<!DOCTYPE svg PUBLIC "-//W3C//DTD SVG 1.1//EN"
 "http://www.w3.org/Graphics/SVG/1.1/DTD/svg11.dtd">
<!-- Generated by graphviz version 2.44.1 (20200629.0846)
 -->
<!-- Title: task.hh Pages: 1 -->
<svg width="438pt" height="140pt"
 viewBox="0.00 0.00 438.10 140.00" xmlns="http://www.w3.org/2000/svg" xmlns:xlink="http://www.w3.org/1999/xlink">
<g id="graph0" class="graph" transform="scale(1 1) rotate(0) translate(4 136)">
<title>task.hh</title>
<polygon fill="white" stroke="transparent" points="-4,4 -4,-136 434.1,-136 434.1,4 -4,4"/>
<!-- Node1 -->
<g id="node1" class="node">
<title>Node1</title>
<g id="a_node1"><a xlink:title=" ">
<polygon fill="#bfbfbf" stroke="black" points="167.1,-112.5 167.1,-131.5 216.1,-131.5 216.1,-112.5 167.1,-112.5"/>
<text text-anchor="middle" x="191.6" y="-119.5" font-family="Helvetica,sans-Serif" font-size="10.00">task.hh</text>
</a>
</g>
</g>
<!-- Node2 -->
<g id="node2" class="node">
<title>Node2</title>
<g id="a_node2"><a xlink:href="init_8cc.html" target="_top" xlink:title=" ">
<polygon fill="white" stroke="black" points="1.1,-0.5 1.1,-19.5 44.1,-19.5 44.1,-0.5 1.1,-0.5"/>
<text text-anchor="middle" x="22.6" y="-7.5" font-family="Helvetica,sans-Serif" font-size="10.00">init.cc</text>
</a>
</g>
</g>
<!-- Node1&#45;&gt;Node2 -->
<g id="edge1" class="edge">
<title>Node1&#45;&gt;Node2</title>
<path fill="none" stroke="midnightblue" d="M156.89,-117.65C108.36,-112.17 24.07,-99.47 5.6,-76 -7.67,-59.13 6.92,-32.93 16.18,-19.53"/>
<polygon fill="midnightblue" stroke="midnightblue" points="156.64,-121.14 166.96,-118.74 157.39,-114.19 156.64,-121.14"/>
</g>
<!-- Node3 -->
<g id="node3" class="node">
<title>Node3</title>
<g id="a_node3"><a xlink:href="ksyscall_8cc.html" target="_top" xlink:title=" ">
<polygon fill="white" stroke="black" points="14.6,-56.5 14.6,-75.5 80.6,-75.5 80.6,-56.5 14.6,-56.5"/>
<text text-anchor="middle" x="47.6" y="-63.5" font-family="Helvetica,sans-Serif" font-size="10.00">ksyscall.cc</text>
</a>
</g>
</g>
<!-- Node1&#45;&gt;Node3 -->
<g id="edge2" class="edge">
<title>Node1&#45;&gt;Node3</title>
<path fill="none" stroke="midnightblue" d="M159.35,-108.91C132.28,-98.75 94.29,-84.51 70.31,-75.52"/>
<polygon fill="midnightblue" stroke="midnightblue" points="158.19,-112.21 168.79,-112.44 160.65,-105.66 158.19,-112.21"/>
</g>
<!-- Node4 -->
<g id="node4" class="node">
<title>Node4</title>
<g id="a_node4"><a xlink:href="mp_8hh.html" target="_top" xlink:title=" ">
<polygon fill="white" stroke="black" points="98.6,-56.5 98.6,-75.5 142.6,-75.5 142.6,-56.5 98.6,-56.5"/>
<text text-anchor="middle" x="120.6" y="-63.5" font-family="Helvetica,sans-Serif" font-size="10.00">mp.hh</text>
</a>
</g>
</g>
<!-- Node1&#45;&gt;Node4 -->
<g id="edge3" class="edge">
<title>Node1&#45;&gt;Node4</title>
<path fill="none" stroke="midnightblue" d="M172.01,-106.1C159.24,-96.38 142.99,-84.03 132.22,-75.83"/>
<polygon fill="midnightblue" stroke="midnightblue" points="170.12,-109.06 180.2,-112.32 174.35,-103.48 170.12,-109.06"/>
</g>
<!-- Node6 -->
<g id="node6" class="node">
<title>Node6</title>
<g id="a_node6"><a xlink:href="monitor_8cc.html" target="_top" xlink:title=" ">
<polygon fill="white" stroke="black" points="160.6,-56.5 160.6,-75.5 222.6,-75.5 222.6,-56.5 160.6,-56.5"/>
<text text-anchor="middle" x="191.6" y="-63.5" font-family="Helvetica,sans-Serif" font-size="10.00">monitor.cc</text>
</a>
</g>
</g>
<!-- Node1&#45;&gt;Node6 -->
<g id="edge6" class="edge">
<title>Node1&#45;&gt;Node6</title>
<path fill="none" stroke="midnightblue" d="M191.6,-101.8C191.6,-92.91 191.6,-82.78 191.6,-75.75"/>
<polygon fill="midnightblue" stroke="midnightblue" points="188.1,-102.08 191.6,-112.08 195.1,-102.08 188.1,-102.08"/>
</g>
<!-- Node7 -->
<g id="node7" class="node">
<title>Node7</title>
<g id="a_node7"><a xlink:href="task_8cc.html" target="_top" xlink:title=" ">
<polygon fill="white" stroke="black" points="241.1,-56.5 241.1,-75.5 290.1,-75.5 290.1,-56.5 241.1,-56.5"/>
<text text-anchor="middle" x="265.6" y="-63.5" font-family="Helvetica,sans-Serif" font-size="10.00">task.cc</text>
</a>
</g>
</g>
<!-- Node1&#45;&gt;Node7 -->
<g id="edge7" class="edge">
<title>Node1&#45;&gt;Node7</title>
<path fill="none" stroke="midnightblue" d="M211.64,-106.38C225.01,-96.62 242.16,-84.11 253.5,-75.83"/>
<polygon fill="midnightblue" stroke="midnightblue" points="209.51,-103.6 203.49,-112.32 213.63,-109.26 209.51,-103.6"/>
</g>
<!-- Node8 -->
<g id="node8" class="node">
<title>Node8</title>
<g id="a_node8"><a xlink:href="vmem_8cc.html" target="_top" xlink:title=" ">
<polygon fill="white" stroke="black" points="308.1,-56.5 308.1,-75.5 365.1,-75.5 365.1,-56.5 308.1,-56.5"/>
<text text-anchor="middle" x="336.6" y="-63.5" font-family="Helvetica,sans-Serif" font-size="10.00">vmem.cc</text>
</a>
</g>
</g>
<!-- Node1&#45;&gt;Node8 -->
<g id="edge8" class="edge">
<title>Node1&#45;&gt;Node8</title>
<path fill="none" stroke="midnightblue" d="M224.08,-108.91C251.34,-98.75 289.6,-84.51 313.73,-75.52"/>
<polygon fill="midnightblue" stroke="midnightblue" points="222.73,-105.67 214.58,-112.44 225.17,-112.23 222.73,-105.67"/>
</g>
<!-- Node9 -->
<g id="node9" class="node">
<title>Node9</title>
<g id="a_node9"><a xlink:href="trap_8cc.html" target="_top" xlink:title=" ">
<polygon fill="white" stroke="black" points="383.1,-56.5 383.1,-75.5 430.1,-75.5 430.1,-56.5 383.1,-56.5"/>
<text text-anchor="middle" x="406.6" y="-63.5" font-family="Helvetica,sans-Serif" font-size="10.00">trap.cc</text>
</a>
</g>
</g>
<!-- Node1&#45;&gt;Node9 -->
<g id="edge9" class="edge">
<title>Node1&#45;&gt;Node9</title>
<path fill="none" stroke="midnightblue" d="M225.98,-112.9C262.83,-104.14 322.98,-89.6 374.6,-76 377.28,-75.29 380.08,-74.54 382.86,-73.77"/>
<polygon fill="midnightblue" stroke="midnightblue" points="225.16,-109.5 216.24,-115.22 226.77,-116.31 225.16,-109.5"/>
</g>
<!-- Node4&#45;&gt;Node2 -->
<g id="edge4" class="edge">
<title>Node4&#45;&gt;Node2</title>
<path fill="none" stroke="midnightblue" d="M96.02,-51.45C77.92,-41.48 53.87,-28.23 38.31,-19.65"/>
<polygon fill="midnightblue" stroke="midnightblue" points="94.41,-54.56 104.86,-56.32 97.79,-48.43 94.41,-54.56"/>
</g>
<!-- Node5 -->
<g id="node5" class="node">
<title>Node5</title>
<g id="a_node5"><a xlink:href="mp_8cc.html" target="_top" xlink:title=" ">
<polygon fill="white" stroke="black" points="98.6,-0.5 98.6,-19.5 142.6,-19.5 142.6,-0.5 98.6,-0.5"/>
<text text-anchor="middle" x="120.6" y="-7.5" font-family="Helvetica,sans-Serif" font-size="10.00">mp.cc</text>
</a>
</g>
</g>
<!-- Node4&#45;&gt;Node5 -->
<g id="edge5" class="edge">
<title>Node4&#45;&gt;Node5</title>
<path fill="none" stroke="midnightblue" d="M120.6,-45.8C120.6,-36.91 120.6,-26.78 120.6,-19.75"/>
<polygon fill="midnightblue" stroke="midnightblue" points="117.1,-46.08 120.6,-56.08 124.1,-46.08 117.1,-46.08"/>
</g>
</g>
</svg>
