<?xml version="1.0" encoding="UTF-8" standalone="no"?>
<!DOCTYPE svg PUBLIC "-//W3C//DTD SVG 1.1//EN"
 "http://www.w3.org/Graphics/SVG/1.1/DTD/svg11.dtd">
<!-- Generated by graphviz version 2.44.1 (20200629.0846)
 -->
<!-- Title: readline.cc Pages: 1 -->
<svg width="494pt" height="252pt"
 viewBox="0.00 0.00 493.50 252.00" xmlns="http://www.w3.org/2000/svg" xmlns:xlink="http://www.w3.org/1999/xlink">
<g id="graph0" class="graph" transform="scale(1 1) rotate(0) translate(4 248)">
<title>readline.cc</title>
<polygon fill="white" stroke="transparent" points="-4,4 -4,-248 489.5,-248 489.5,4 -4,4"/>
<!-- Node1 -->
<g id="node1" class="node">
<title>Node1</title>
<g id="a_node1"><a xlink:title=" ">
<polygon fill="#bfbfbf" stroke="black" points="301.5,-224.5 301.5,-243.5 365.5,-243.5 365.5,-224.5 301.5,-224.5"/>
<text text-anchor="middle" x="333.5" y="-231.5" font-family="Helvetica,sans-Serif" font-size="10.00">readline.cc</text>
</a>
</g>
</g>
<!-- Node2 -->
<g id="node2" class="node">
<title>Node2</title>
<g id="a_node2"><a xlink:href="stdio_8hh.html" target="_top" xlink:title=" ">
<polygon fill="white" stroke="black" points="256,-168.5 256,-187.5 341,-187.5 341,-168.5 256,-168.5"/>
<text text-anchor="middle" x="298.5" y="-175.5" font-family="Helvetica,sans-Serif" font-size="10.00">include/stdio.hh</text>
</a>
</g>
</g>
<!-- Node1&#45;&gt;Node2 -->
<g id="edge1" class="edge">
<title>Node1&#45;&gt;Node2</title>
<path fill="none" stroke="midnightblue" d="M327.72,-224.08C322.83,-216.53 315.67,-205.49 309.67,-196.23"/>
<polygon fill="midnightblue" stroke="midnightblue" points="312.55,-194.24 304.17,-187.75 306.67,-198.05 312.55,-194.24"/>
</g>
<!-- Node4 -->
<g id="node4" class="node">
<title>Node4</title>
<g id="a_node4"><a xlink:href="vargs_8hh.html" target="_top" xlink:title=" ">
<polygon fill="white" stroke="black" points="325.5,-56.5 325.5,-75.5 413.5,-75.5 413.5,-56.5 325.5,-56.5"/>
<text text-anchor="middle" x="369.5" y="-63.5" font-family="Helvetica,sans-Serif" font-size="10.00">include/vargs.hh</text>
</a>
</g>
</g>
<!-- Node1&#45;&gt;Node4 -->
<g id="edge17" class="edge">
<title>Node1&#45;&gt;Node4</title>
<path fill="none" stroke="midnightblue" d="M337.44,-224.21C341.3,-215.27 347.08,-200.92 350.5,-188 359.89,-152.49 365.26,-109.81 367.76,-85.81"/>
<polygon fill="midnightblue" stroke="midnightblue" points="371.26,-85.93 368.76,-75.63 364.3,-85.24 371.26,-85.93"/>
</g>
<!-- Node10 -->
<g id="node10" class="node">
<title>Node10</title>
<g id="a_node10"><a xlink:href="ctype_8h.html" target="_top" xlink:title=" ">
<polygon fill="white" stroke="black" points="0,-0.5 0,-19.5 49,-19.5 49,-0.5 0,-0.5"/>
<text text-anchor="middle" x="24.5" y="-7.5" font-family="Helvetica,sans-Serif" font-size="10.00">ctype.h</text>
</a>
</g>
</g>
<!-- Node1&#45;&gt;Node10 -->
<g id="edge14" class="edge">
<title>Node1&#45;&gt;Node10</title>
<path fill="none" stroke="midnightblue" d="M301.15,-225.33C239.96,-209.07 107.4,-165.05 40.5,-76 30.57,-62.79 26.74,-44.2 25.29,-30.28"/>
<polygon fill="midnightblue" stroke="midnightblue" points="28.75,-29.64 24.55,-19.91 21.77,-30.14 28.75,-29.64"/>
</g>
<!-- Node13 -->
<g id="node13" class="node">
<title>Node13</title>
<g id="a_node13"><a xlink:href="panic_8hh.html" target="_top" xlink:title=" ">
<polygon fill="white" stroke="black" points="399,-168.5 399,-187.5 482,-187.5 482,-168.5 399,-168.5"/>
<text text-anchor="middle" x="440.5" y="-175.5" font-family="Helvetica,sans-Serif" font-size="10.00">kernel/panic.hh</text>
</a>
</g>
</g>
<!-- Node1&#45;&gt;Node13 -->
<g id="edge15" class="edge">
<title>Node1&#45;&gt;Node13</title>
<path fill="none" stroke="midnightblue" d="M350.69,-224.32C367.85,-215.66 394.45,-202.24 414.25,-192.25"/>
<polygon fill="midnightblue" stroke="midnightblue" points="416,-195.28 423.35,-187.65 412.85,-189.04 416,-195.28"/>
</g>
<!-- Node3 -->
<g id="node3" class="node">
<title>Node3</title>
<g id="a_node3"><a xlink:href="stdin_8hh.html" target="_top" xlink:title=" ">
<polygon fill="white" stroke="black" points="256,-112.5 256,-131.5 341,-131.5 341,-112.5 256,-112.5"/>
<text text-anchor="middle" x="298.5" y="-119.5" font-family="Helvetica,sans-Serif" font-size="10.00">include/stdin.hh</text>
</a>
</g>
</g>
<!-- Node2&#45;&gt;Node3 -->
<g id="edge2" class="edge">
<title>Node2&#45;&gt;Node3</title>
<path fill="none" stroke="midnightblue" d="M298.5,-168.08C298.5,-161.01 298.5,-150.86 298.5,-141.99"/>
<polygon fill="midnightblue" stroke="midnightblue" points="302,-141.75 298.5,-131.75 295,-141.75 302,-141.75"/>
</g>
<!-- Node6 -->
<g id="node6" class="node">
<title>Node6</title>
<g id="a_node6"><a xlink:href="stdout_8hh.html" target="_top" xlink:title=" ">
<polygon fill="white" stroke="black" points="147,-112.5 147,-131.5 238,-131.5 238,-112.5 147,-112.5"/>
<text text-anchor="middle" x="192.5" y="-119.5" font-family="Helvetica,sans-Serif" font-size="10.00">include/stdout.hh</text>
</a>
</g>
</g>
<!-- Node2&#45;&gt;Node6 -->
<g id="edge5" class="edge">
<title>Node2&#45;&gt;Node6</title>
<path fill="none" stroke="midnightblue" d="M281.47,-168.32C264.47,-159.66 238.12,-146.24 218.51,-136.25"/>
<polygon fill="midnightblue" stroke="midnightblue" points="219.99,-133.08 209.49,-131.65 216.81,-139.31 219.99,-133.08"/>
</g>
<!-- Node3&#45;&gt;Node4 -->
<g id="edge3" class="edge">
<title>Node3&#45;&gt;Node4</title>
<path fill="none" stroke="midnightblue" d="M309.91,-112.32C320.61,-104.18 336.84,-91.84 349.66,-82.09"/>
<polygon fill="midnightblue" stroke="midnightblue" points="352.04,-84.67 357.89,-75.83 347.81,-79.1 352.04,-84.67"/>
</g>
<!-- Node5 -->
<g id="node5" class="node">
<title>Node5</title>
<g id="a_node5"><a xlink:title=" ">
<polygon fill="white" stroke="#bfbfbf" points="345,-0.5 345,-19.5 394,-19.5 394,-0.5 345,-0.5"/>
<text text-anchor="middle" x="369.5" y="-7.5" font-family="Helvetica,sans-Serif" font-size="10.00">cstdarg</text>
</a>
</g>
</g>
<!-- Node4&#45;&gt;Node5 -->
<g id="edge4" class="edge">
<title>Node4&#45;&gt;Node5</title>
<path fill="none" stroke="midnightblue" d="M369.5,-56.08C369.5,-49.01 369.5,-38.86 369.5,-29.99"/>
<polygon fill="midnightblue" stroke="midnightblue" points="373,-29.75 369.5,-19.75 366,-29.75 373,-29.75"/>
</g>
<!-- Node6&#45;&gt;Node4 -->
<g id="edge11" class="edge">
<title>Node6&#45;&gt;Node4</title>
<path fill="none" stroke="midnightblue" d="M220.55,-112.44C250.58,-103.28 298.41,-88.69 331.74,-78.52"/>
<polygon fill="midnightblue" stroke="midnightblue" points="333.04,-81.78 341.59,-75.52 331,-75.09 333.04,-81.78"/>
</g>
<!-- Node7 -->
<g id="node7" class="node">
<title>Node7</title>
<g id="a_node7"><a xlink:href="types_8h.html" target="_top" xlink:title=" ">
<polygon fill="white" stroke="black" points="50,-56.5 50,-75.5 133,-75.5 133,-56.5 50,-56.5"/>
<text text-anchor="middle" x="91.5" y="-63.5" font-family="Helvetica,sans-Serif" font-size="10.00">include/types.h</text>
</a>
</g>
</g>
<!-- Node6&#45;&gt;Node7 -->
<g id="edge6" class="edge">
<title>Node6&#45;&gt;Node7</title>
<path fill="none" stroke="midnightblue" d="M176.27,-112.32C160.15,-103.7 135.2,-90.36 116.54,-80.39"/>
<polygon fill="midnightblue" stroke="midnightblue" points="118.16,-77.28 107.69,-75.65 114.86,-83.46 118.16,-77.28"/>
</g>
<!-- Node11 -->
<g id="node11" class="node">
<title>Node11</title>
<g id="a_node11"><a xlink:href="color_8h.html" target="_top" xlink:title=" ">
<polygon fill="white" stroke="black" points="151,-56.5 151,-75.5 230,-75.5 230,-56.5 151,-56.5"/>
<text text-anchor="middle" x="190.5" y="-63.5" font-family="Helvetica,sans-Serif" font-size="10.00">include/color.h</text>
</a>
</g>
</g>
<!-- Node6&#45;&gt;Node11 -->
<g id="edge12" class="edge">
<title>Node6&#45;&gt;Node11</title>
<path fill="none" stroke="midnightblue" d="M192.17,-112.08C191.91,-105.01 191.53,-94.86 191.2,-85.99"/>
<polygon fill="midnightblue" stroke="midnightblue" points="194.69,-85.61 190.82,-75.75 187.7,-85.87 194.69,-85.61"/>
</g>
<!-- Node12 -->
<g id="node12" class="node">
<title>Node12</title>
<g id="a_node12"><a xlink:title=" ">
<polygon fill="white" stroke="#bfbfbf" points="248,-56.5 248,-75.5 307,-75.5 307,-56.5 248,-56.5"/>
<text text-anchor="middle" x="277.5" y="-63.5" font-family="Helvetica,sans-Serif" font-size="10.00">functional</text>
</a>
</g>
</g>
<!-- Node6&#45;&gt;Node12 -->
<g id="edge13" class="edge">
<title>Node6&#45;&gt;Node12</title>
<path fill="none" stroke="midnightblue" d="M206.16,-112.32C219.42,-103.9 239.77,-90.97 255.35,-81.07"/>
<polygon fill="midnightblue" stroke="midnightblue" points="257.31,-83.97 263.88,-75.65 253.56,-78.06 257.31,-83.97"/>
</g>
<!-- Node8 -->
<g id="node8" class="node">
<title>Node8</title>
<g id="a_node8"><a xlink:title=" ">
<polygon fill="white" stroke="#bfbfbf" points="134.5,-0.5 134.5,-19.5 186.5,-19.5 186.5,-0.5 134.5,-0.5"/>
<text text-anchor="middle" x="160.5" y="-7.5" font-family="Helvetica,sans-Serif" font-size="10.00">stddef.h</text>
</a>
</g>
</g>
<!-- Node7&#45;&gt;Node8 -->
<g id="edge7" class="edge">
<title>Node7&#45;&gt;Node8</title>
<path fill="none" stroke="midnightblue" d="M102.59,-56.32C112.99,-48.18 128.76,-35.84 141.22,-26.09"/>
<polygon fill="midnightblue" stroke="midnightblue" points="143.49,-28.75 149.21,-19.83 139.18,-23.24 143.49,-28.75"/>
</g>
<!-- Node9 -->
<g id="node9" class="node">
<title>Node9</title>
<g id="a_node9"><a xlink:title=" ">
<polygon fill="white" stroke="#bfbfbf" points="67,-0.5 67,-19.5 116,-19.5 116,-0.5 67,-0.5"/>
<text text-anchor="middle" x="91.5" y="-7.5" font-family="Helvetica,sans-Serif" font-size="10.00">stdint.h</text>
</a>
</g>
</g>
<!-- Node7&#45;&gt;Node9 -->
<g id="edge8" class="edge">
<title>Node7&#45;&gt;Node9</title>
<path fill="none" stroke="midnightblue" d="M91.5,-56.08C91.5,-49.01 91.5,-38.86 91.5,-29.99"/>
<polygon fill="midnightblue" stroke="midnightblue" points="95,-29.75 91.5,-19.75 88,-29.75 95,-29.75"/>
</g>
<!-- Node7&#45;&gt;Node10 -->
<g id="edge9" class="edge">
<title>Node7&#45;&gt;Node10</title>
<path fill="none" stroke="midnightblue" d="M75.62,-56.32C63.99,-48.34 48.71,-36.31 37.73,-26.65"/>
<polygon fill="midnightblue" stroke="midnightblue" points="40.04,-24.02 30.31,-19.83 35.31,-29.18 40.04,-24.02"/>
</g>
<!-- Node10&#45;&gt;Node7 -->
<g id="edge10" class="edge">
<title>Node10&#45;&gt;Node7</title>
<path fill="none" stroke="midnightblue" d="M40.35,-19.65C52.04,-27.68 67.44,-39.8 78.43,-49.49"/>
<polygon fill="midnightblue" stroke="midnightblue" points="76.12,-52.12 85.85,-56.32 80.87,-46.97 76.12,-52.12"/>
</g>
<!-- Node14 -->
<g id="node14" class="node">
<title>Node14</title>
<g id="a_node14"><a xlink:href="knlast_8inc.html" target="_top" xlink:title=" ">
<polygon fill="white" stroke="black" points="397.5,-112.5 397.5,-131.5 485.5,-131.5 485.5,-112.5 397.5,-112.5"/>
<text text-anchor="middle" x="441.5" y="-119.5" font-family="Helvetica,sans-Serif" font-size="10.00">kernel/knlast.inc</text>
</a>
</g>
</g>
<!-- Node13&#45;&gt;Node14 -->
<g id="edge16" class="edge">
<title>Node13&#45;&gt;Node14</title>
<path fill="none" stroke="midnightblue" d="M440.67,-168.08C440.8,-161.01 440.98,-150.86 441.15,-141.99"/>
<polygon fill="midnightblue" stroke="midnightblue" points="444.65,-141.81 441.34,-131.75 437.65,-141.68 444.65,-141.81"/>
</g>
</g>
</svg>
