<?xml version="1.0" encoding="UTF-8" standalone="no"?>
<!DOCTYPE svg PUBLIC "-//W3C//DTD SVG 1.1//EN"
 "http://www.w3.org/Graphics/SVG/1.1/DTD/svg11.dtd">
<!-- Generated by graphviz version 2.44.1 (20200629.0846)
 -->
<!-- Title: knlast.inc Pages: 1 -->
<!--zoomable 308 -->
<svg id="main" version="1.1" xmlns="http://www.w3.org/2000/svg" xmlns:xlink="http://www.w3.org/1999/xlink" xml:space="preserve" onload="init(evt)">
<style type="text/css"><![CDATA[
.edge:hover path { stroke: red; }
.edge:hover polygon { stroke: red; fill: red; }
]]></style>
<script type="text/javascript"><![CDATA[
var edges = document.getElementsByTagName('g');
if (edges && edges.length) {
  for (var i=0;i<edges.length;i++) {
    if (edges[i].id.substr(0,4)=='edge') {
      edges[i].setAttribute('class','edge');
    }
  }
}
]]></script>
        <defs>
                <circle id="rim" cx="0" cy="0" r="7"/>
                <circle id="rim2" cx="0" cy="0" r="3.5"/>
                <g id="zoomPlus">
                        <use xlink:href="#rim" fill="#404040">
                                <set attributeName="fill" to="#808080" begin="zoomplus.mouseover" end="zoomplus.mouseout"/>
                        </use>
                        <path d="M-4,0h8M0,-4v8" fill="none" stroke="white" stroke-width="1.5" pointer-events="none"/>
                </g>
                <g id="zoomMin">
                        <use xlink:href="#rim" fill="#404040">
                                <set attributeName="fill" to="#808080" begin="zoomminus.mouseover" end="zoomminus.mouseout"/>
                        </use>
                        <path d="M-4,0h8" fill="none" stroke="white" stroke-width="1.5" pointer-events="none"/>
                </g>
                <g id="dirArrow">
                        <path fill="none" stroke="white" stroke-width="1.5" d="M0,-3.0v7 M-2.5,-0.5L0,-3.0L2.5,-0.5"/>
                </g>
               <g id="resetDef">
                       <use xlink:href="#rim2" fill="#404040">
                               <set attributeName="fill" to="#808080" begin="reset.mouseover" end="reset.mouseout"/>
                       </use>
               </g>
        </defs>

<script type="text/javascript">
var viewWidth = 981;
var viewHeight = 308;
var sectionId = 'dynsection-0';
</script>
<script xlink:href="svgpan.js"/>
<svg id="graph" class="graph">
<g id="viewport">
<title>knlast.inc</title>
<polygon fill="white" stroke="transparent" points="-4,4 -4,-304 976.92,-304 976.92,4 -4,4"/>
<!-- Node1 -->
<g id="node1" class="node">
<title>Node1</title>
<g id="a_node1"><a xlink:title=" ">
<polygon fill="#bfbfbf" stroke="black" points="304.5,-280.5 304.5,-299.5 363.5,-299.5 363.5,-280.5 304.5,-280.5"/>
<text text-anchor="middle" x="334" y="-287.5" font-family="Helvetica,sans-Serif" font-size="10.00">knlast.inc</text>
</a>
</g>
</g>
<!-- Node2 -->
<g id="node2" class="node">
<title>Node2</title>
<g id="a_node2"><a xlink:href="console_8hh.html" target="_top" xlink:title=" ">
<polygon fill="white" stroke="black" points="362,-224.5 362,-243.5 426,-243.5 426,-224.5 362,-224.5"/>
<text text-anchor="middle" x="394" y="-231.5" font-family="Helvetica,sans-Serif" font-size="10.00">console.hh</text>
</a>
</g>
</g>
<!-- Node1&#45;&gt;Node2 -->
<g id="edge1" class="edge">
<title>Node1&#45;&gt;Node2</title>
<path fill="none" stroke="midnightblue" d="M351.18,-273.54C361.88,-263.91 375.26,-251.87 384.18,-243.83"/>
<polygon fill="midnightblue" stroke="midnightblue" points="348.73,-271.03 343.64,-280.32 353.41,-276.24 348.73,-271.03"/>
</g>
<!-- Node8 -->
<g id="node8" class="node">
<title>Node8</title>
<g id="a_node8"><a xlink:href="kdebug_8hh.html" target="_top" xlink:title=" ">
<polygon fill="white" stroke="black" points="689,-224.5 689,-243.5 751,-243.5 751,-224.5 689,-224.5"/>
<text text-anchor="middle" x="720" y="-231.5" font-family="Helvetica,sans-Serif" font-size="10.00">kdebug.hh</text>
</a>
</g>
</g>
<!-- Node1&#45;&gt;Node8 -->
<g id="edge7" class="edge">
<title>Node1&#45;&gt;Node8</title>
<path fill="none" stroke="midnightblue" d="M373.92,-283.42C451.1,-272.62 619.33,-249.08 688.91,-239.35"/>
<polygon fill="midnightblue" stroke="midnightblue" points="373.07,-280 363.65,-284.85 374.04,-286.93 373.07,-280"/>
</g>
<!-- Node11 -->
<g id="node11" class="node">
<title>Node11</title>
<g id="a_node11"><a xlink:href="ksyscall_8hh.html" target="_top" xlink:title=" ">
<polygon fill="white" stroke="black" points="75,-112.5 75,-131.5 141,-131.5 141,-112.5 75,-112.5"/>
<text text-anchor="middle" x="108" y="-119.5" font-family="Helvetica,sans-Serif" font-size="10.00">ksyscall.hh</text>
</a>
</g>
</g>
<!-- Node1&#45;&gt;Node11 -->
<g id="edge11" class="edge">
<title>Node1&#45;&gt;Node11</title>
<path fill="none" stroke="midnightblue" d="M294.08,-286.75C225.42,-282.23 88.54,-270.15 49,-244 17.98,-223.48 -5.82,-199.46 14,-168 27.31,-146.87 53.58,-135.45 74.98,-129.4"/>
<polygon fill="midnightblue" stroke="midnightblue" points="293.89,-290.25 304.09,-287.39 294.33,-283.26 293.89,-290.25"/>
</g>
<!-- Node13 -->
<g id="node13" class="node">
<title>Node13</title>
<g id="a_node13"><a xlink:href="monitor_8hh.html" target="_top" xlink:title=" ">
<polygon fill="white" stroke="black" points="265,-112.5 265,-131.5 327,-131.5 327,-112.5 265,-112.5"/>
<text text-anchor="middle" x="296" y="-119.5" font-family="Helvetica,sans-Serif" font-size="10.00">monitor.hh</text>
</a>
</g>
</g>
<!-- Node1&#45;&gt;Node13 -->
<g id="edge14" class="edge">
<title>Node1&#45;&gt;Node13</title>
<path fill="none" stroke="midnightblue" d="M327.88,-270.87C325.25,-262.72 322.27,-252.93 320,-244 309.4,-202.28 300.65,-151.48 297.38,-131.58"/>
<polygon fill="midnightblue" stroke="midnightblue" points="324.58,-272.05 331.04,-280.45 331.23,-269.86 324.58,-272.05"/>
</g>
<!-- Node15 -->
<g id="node15" class="node">
<title>Node15</title>
<g id="a_node15"><a xlink:href="panic_8hh.html" target="_top" xlink:title=" ">
<polygon fill="white" stroke="black" points="491.5,-224.5 491.5,-243.5 544.5,-243.5 544.5,-224.5 491.5,-224.5"/>
<text text-anchor="middle" x="518" y="-231.5" font-family="Helvetica,sans-Serif" font-size="10.00">panic.hh</text>
</a>
</g>
</g>
<!-- Node1&#45;&gt;Node15 -->
<g id="edge19" class="edge">
<title>Node1&#45;&gt;Node15</title>
<path fill="none" stroke="midnightblue" d="M373.2,-277.5C408.8,-267.05 460.34,-251.92 491.37,-242.82"/>
<polygon fill="midnightblue" stroke="midnightblue" points="371.77,-274.27 363.16,-280.44 373.74,-280.99 371.77,-274.27"/>
</g>
<!-- Node17 -->
<g id="node17" class="node">
<title>Node17</title>
<g id="a_node17"><a xlink:href="kernel_2trap_8hh.html" target="_top" xlink:title=" ">
<polygon fill="white" stroke="black" points="220.5,-168.5 220.5,-187.5 267.5,-187.5 267.5,-168.5 220.5,-168.5"/>
<text text-anchor="middle" x="244" y="-175.5" font-family="Helvetica,sans-Serif" font-size="10.00">trap.hh</text>
</a>
</g>
</g>
<!-- Node1&#45;&gt;Node17 -->
<g id="edge54" class="edge">
<title>Node1&#45;&gt;Node17</title>
<path fill="none" stroke="midnightblue" d="M313.79,-274.1C303.53,-265.93 291.3,-255.19 282,-244 266.8,-225.7 254,-200.57 247.88,-187.57"/>
<polygon fill="midnightblue" stroke="midnightblue" points="311.79,-276.98 321.84,-280.32 316.07,-271.44 311.79,-276.98"/>
</g>
<!-- Node18 -->
<g id="node18" class="node">
<title>Node18</title>
<g id="a_node18"><a xlink:href="kernel_2task_8hh.html" target="_top" xlink:title=" ">
<polygon fill="white" stroke="black" points="197.5,-112.5 197.5,-131.5 246.5,-131.5 246.5,-112.5 197.5,-112.5"/>
<text text-anchor="middle" x="222" y="-119.5" font-family="Helvetica,sans-Serif" font-size="10.00">task.hh</text>
</a>
</g>
</g>
<!-- Node1&#45;&gt;Node18 -->
<g id="edge50" class="edge">
<title>Node1&#45;&gt;Node18</title>
<path fill="none" stroke="midnightblue" d="M294.24,-286.85C245.84,-283.03 162.45,-272.55 97,-244 58.54,-227.22 39.92,-225.45 21,-188 16.99,-180.07 15.44,-174.94 21,-168 32.07,-154.18 146.25,-134.82 197.43,-126.76"/>
<polygon fill="midnightblue" stroke="midnightblue" points="294.08,-290.35 304.31,-287.58 294.6,-283.36 294.08,-290.35"/>
</g>
<!-- Node22 -->
<g id="node22" class="node">
<title>Node22</title>
<g id="a_node22"><a xlink:href="vmem_8hh.html" target="_top" xlink:title=" ">
<polygon fill="white" stroke="black" points="345.5,-112.5 345.5,-131.5 402.5,-131.5 402.5,-112.5 345.5,-112.5"/>
<text text-anchor="middle" x="374" y="-119.5" font-family="Helvetica,sans-Serif" font-size="10.00">vmem.hh</text>
</a>
</g>
</g>
<!-- Node1&#45;&gt;Node22 -->
<g id="edge55" class="edge">
<title>Node1&#45;&gt;Node22</title>
<path fill="none" stroke="midnightblue" d="M336.85,-270.24C340.68,-246.29 348.18,-203.67 358,-168 361.57,-155.05 367.03,-140.47 370.55,-131.51"/>
<polygon fill="midnightblue" stroke="midnightblue" points="333.35,-269.97 335.26,-280.39 340.26,-271.05 333.35,-269.97"/>
</g>
<!-- Node23 -->
<g id="node23" class="node">
<title>Node23</title>
<g id="a_node23"><a xlink:href="pckbd_8h.html" target="_top" xlink:title=" ">
<polygon fill="white" stroke="black" points="106.5,-224.5 106.5,-243.5 157.5,-243.5 157.5,-224.5 106.5,-224.5"/>
<text text-anchor="middle" x="132" y="-231.5" font-family="Helvetica,sans-Serif" font-size="10.00">pckbd.h</text>
</a>
</g>
</g>
<!-- Node1&#45;&gt;Node23 -->
<g id="edge44" class="edge">
<title>Node1&#45;&gt;Node23</title>
<path fill="none" stroke="midnightblue" d="M294.39,-278.41C253.93,-267.6 192.3,-251.12 157.76,-241.89"/>
<polygon fill="midnightblue" stroke="midnightblue" points="293.63,-281.83 304.19,-281.03 295.44,-275.07 293.63,-281.83"/>
</g>
<!-- Node25 -->
<g id="node25" class="node">
<title>Node25</title>
<g id="a_node25"><a xlink:href="system_8hh.html" target="_top" xlink:title=" ">
<polygon fill="white" stroke="black" points="835,-224.5 835,-243.5 897,-243.5 897,-224.5 835,-224.5"/>
<text text-anchor="middle" x="866" y="-231.5" font-family="Helvetica,sans-Serif" font-size="10.00">system.hh</text>
</a>
</g>
</g>
<!-- Node1&#45;&gt;Node25 -->
<g id="edge47" class="edge">
<title>Node1&#45;&gt;Node25</title>
<path fill="none" stroke="midnightblue" d="M373.91,-284.95C475.69,-274.62 743.32,-247.45 834.81,-238.17"/>
<polygon fill="midnightblue" stroke="midnightblue" points="373.34,-281.49 363.74,-285.98 374.04,-288.45 373.34,-281.49"/>
</g>
<!-- Node27 -->
<g id="node27" class="node">
<title>Node27</title>
<g id="a_node27"><a xlink:href="version_8h.html" target="_top" xlink:title=" ">
<polygon fill="white" stroke="black" points="766,-112.5 766,-131.5 822,-131.5 822,-112.5 766,-112.5"/>
<text text-anchor="middle" x="794" y="-119.5" font-family="Helvetica,sans-Serif" font-size="10.00">version.h</text>
</a>
</g>
</g>
<!-- Node1&#45;&gt;Node27 -->
<g id="edge51" class="edge">
<title>Node1&#45;&gt;Node27</title>
<path fill="none" stroke="midnightblue" d="M373.94,-289.29C487.57,-289.56 810.57,-286.49 906,-244 945.06,-226.61 991.11,-201.87 965,-168 947.66,-145.51 866.08,-132.03 822.16,-126.27"/>
<polygon fill="midnightblue" stroke="midnightblue" points="373.63,-285.78 363.62,-289.25 373.6,-292.78 373.63,-285.78"/>
</g>
<!-- Node3 -->
<g id="node3" class="node">
<title>Node3</title>
<g id="a_node3"><a xlink:href="console_8cc.html" target="_top" xlink:title=" ">
<polygon fill="white" stroke="black" points="100,-168.5 100,-187.5 164,-187.5 164,-168.5 100,-168.5"/>
<text text-anchor="middle" x="132" y="-175.5" font-family="Helvetica,sans-Serif" font-size="10.00">console.cc</text>
</a>
</g>
</g>
<!-- Node2&#45;&gt;Node3 -->
<g id="edge2" class="edge">
<title>Node2&#45;&gt;Node3</title>
<path fill="none" stroke="midnightblue" d="M351.92,-224.33C299.68,-213.56 211.68,-195.42 164.39,-185.68"/>
<polygon fill="midnightblue" stroke="midnightblue" points="351.37,-227.79 361.87,-226.38 352.79,-220.93 351.37,-227.79"/>
</g>
<!-- Node4 -->
<g id="node4" class="node">
<title>Node4</title>
<g id="a_node4"><a xlink:href="init_8cc.html" target="_top" xlink:title=" ">
<polygon fill="white" stroke="black" points="457.5,-0.5 457.5,-19.5 500.5,-19.5 500.5,-0.5 457.5,-0.5"/>
<text text-anchor="middle" x="479" y="-7.5" font-family="Helvetica,sans-Serif" font-size="10.00">init.cc</text>
</a>
</g>
</g>
<!-- Node2&#45;&gt;Node4 -->
<g id="edge3" class="edge">
<title>Node2&#45;&gt;Node4</title>
<path fill="none" stroke="midnightblue" d="M397.38,-214.21C400.05,-201.03 404.28,-183.14 410,-168 426.3,-124.86 440.18,-118.54 458,-76 466.25,-56.31 473.28,-32.17 476.73,-19.58"/>
<polygon fill="midnightblue" stroke="midnightblue" points="393.88,-213.91 395.44,-224.39 400.75,-215.22 393.88,-213.91"/>
</g>
<!-- Node5 -->
<g id="node5" class="node">
<title>Node5</title>
<g id="a_node5"><a xlink:href="ksyscall_8cc.html" target="_top" xlink:title=" ">
<polygon fill="white" stroke="black" points="0,-56.5 0,-75.5 66,-75.5 66,-56.5 0,-56.5"/>
<text text-anchor="middle" x="33" y="-63.5" font-family="Helvetica,sans-Serif" font-size="10.00">ksyscall.cc</text>
</a>
</g>
</g>
<!-- Node2&#45;&gt;Node5 -->
<g id="edge4" class="edge">
<title>Node2&#45;&gt;Node5</title>
<path fill="none" stroke="midnightblue" d="M351.77,-225.65C314.1,-218.39 257.83,-205.78 211,-188 193.16,-181.23 190.54,-175.51 173,-168 126.87,-148.25 103.96,-164.81 66,-132 48.38,-116.77 39.04,-89.86 35.18,-75.92"/>
<polygon fill="midnightblue" stroke="midnightblue" points="351.4,-229.14 361.88,-227.56 352.7,-222.26 351.4,-229.14"/>
</g>
<!-- Node6 -->
<g id="node6" class="node">
<title>Node6</title>
<g id="a_node6"><a xlink:href="kernel_2printf_8cc.html" target="_top" xlink:title=" ">
<polygon fill="white" stroke="black" points="438,-168.5 438,-187.5 490,-187.5 490,-168.5 438,-168.5"/>
<text text-anchor="middle" x="464" y="-175.5" font-family="Helvetica,sans-Serif" font-size="10.00">printf.cc</text>
</a>
</g>
</g>
<!-- Node2&#45;&gt;Node6 -->
<g id="edge5" class="edge">
<title>Node2&#45;&gt;Node6</title>
<path fill="none" stroke="midnightblue" d="M413.31,-218.1C425.91,-208.38 441.93,-196.03 452.55,-187.83"/>
<polygon fill="midnightblue" stroke="midnightblue" points="411.03,-215.44 405.25,-224.32 415.3,-220.99 411.03,-215.44"/>
</g>
<!-- Node7 -->
<g id="node7" class="node">
<title>Node7</title>
<g id="a_node7"><a xlink:href="monitor_8cc.html" target="_top" xlink:title=" ">
<polygon fill="white" stroke="black" points="545,-56.5 545,-75.5 607,-75.5 607,-56.5 545,-56.5"/>
<text text-anchor="middle" x="576" y="-63.5" font-family="Helvetica,sans-Serif" font-size="10.00">monitor.cc</text>
</a>
</g>
</g>
<!-- Node2&#45;&gt;Node7 -->
<g id="edge6" class="edge">
<title>Node2&#45;&gt;Node7</title>
<path fill="none" stroke="midnightblue" d="M401.03,-214.75C407,-200.86 416.59,-181.83 429,-168 467.67,-124.91 528.28,-90.88 558.15,-75.66"/>
<polygon fill="midnightblue" stroke="midnightblue" points="397.71,-213.62 397.18,-224.2 404.19,-216.26 397.71,-213.62"/>
</g>
<!-- Node8&#45;&gt;Node7 -->
<g id="edge10" class="edge">
<title>Node8&#45;&gt;Node7</title>
<path fill="none" stroke="midnightblue" d="M728.16,-214.75C732.97,-201.11 736.75,-182.41 729,-168 721.25,-153.6 627.35,-97.24 590.61,-75.56"/>
<polygon fill="midnightblue" stroke="midnightblue" points="724.76,-213.84 724.28,-224.42 731.25,-216.44 724.76,-213.84"/>
</g>
<!-- Node9 -->
<g id="node9" class="node">
<title>Node9</title>
<g id="a_node9"><a xlink:href="kdebug_8cc.html" target="_top" xlink:title=" ">
<polygon fill="white" stroke="black" points="776,-168.5 776,-187.5 838,-187.5 838,-168.5 776,-168.5"/>
<text text-anchor="middle" x="807" y="-175.5" font-family="Helvetica,sans-Serif" font-size="10.00">kdebug.cc</text>
</a>
</g>
</g>
<!-- Node8&#45;&gt;Node9 -->
<g id="edge8" class="edge">
<title>Node8&#45;&gt;Node9</title>
<path fill="none" stroke="midnightblue" d="M742.72,-218.9C758.67,-209 779.5,-196.07 793.06,-187.65"/>
<polygon fill="midnightblue" stroke="midnightblue" points="740.63,-216.08 733.98,-224.32 744.32,-222.02 740.63,-216.08"/>
</g>
<!-- Node10 -->
<g id="node10" class="node">
<title>Node10</title>
<g id="a_node10"><a xlink:href="panic_8cc.html" target="_top" xlink:title=" ">
<polygon fill="white" stroke="black" points="666.5,-168.5 666.5,-187.5 719.5,-187.5 719.5,-168.5 666.5,-168.5"/>
<text text-anchor="middle" x="693" y="-175.5" font-family="Helvetica,sans-Serif" font-size="10.00">panic.cc</text>
</a>
</g>
</g>
<!-- Node8&#45;&gt;Node10 -->
<g id="edge9" class="edge">
<title>Node8&#45;&gt;Node10</title>
<path fill="none" stroke="midnightblue" d="M710.99,-214.98C706.41,-205.82 701.05,-195.09 697.38,-187.75"/>
<polygon fill="midnightblue" stroke="midnightblue" points="707.94,-216.7 715.54,-224.08 714.2,-213.57 707.94,-216.7"/>
</g>
<!-- Node11&#45;&gt;Node5 -->
<g id="edge12" class="edge">
<title>Node11&#45;&gt;Node5</title>
<path fill="none" stroke="midnightblue" d="M87.69,-106.38C74.14,-96.62 56.76,-84.11 45.27,-75.83"/>
<polygon fill="midnightblue" stroke="midnightblue" points="85.79,-109.32 95.95,-112.32 89.88,-103.64 85.79,-109.32"/>
</g>
<!-- Node12 -->
<g id="node12" class="node">
<title>Node12</title>
<g id="a_node12"><a xlink:href="trap_8cc.html" target="_top" xlink:title=" ">
<polygon fill="white" stroke="black" points="84.5,-56.5 84.5,-75.5 131.5,-75.5 131.5,-56.5 84.5,-56.5"/>
<text text-anchor="middle" x="108" y="-63.5" font-family="Helvetica,sans-Serif" font-size="10.00">trap.cc</text>
</a>
</g>
</g>
<!-- Node11&#45;&gt;Node12 -->
<g id="edge13" class="edge">
<title>Node11&#45;&gt;Node12</title>
<path fill="none" stroke="midnightblue" d="M108,-101.8C108,-92.91 108,-82.78 108,-75.75"/>
<polygon fill="midnightblue" stroke="midnightblue" points="104.5,-102.08 108,-112.08 111.5,-102.08 104.5,-102.08"/>
</g>
<!-- Node13&#45;&gt;Node4 -->
<g id="edge15" class="edge">
<title>Node13&#45;&gt;Node4</title>
<path fill="none" stroke="midnightblue" d="M283.97,-103.68C275.73,-89.5 268.11,-69.62 279,-56 301.18,-28.28 410.25,-16.43 457.32,-12.56"/>
<polygon fill="midnightblue" stroke="midnightblue" points="281.22,-105.89 289.54,-112.44 287.13,-102.13 281.22,-105.89"/>
</g>
<!-- Node13&#45;&gt;Node7 -->
<g id="edge16" class="edge">
<title>Node13&#45;&gt;Node7</title>
<path fill="none" stroke="midnightblue" d="M337.69,-111.71C417.91,-95.29 500.91,-80.27 544.86,-72.47"/>
<polygon fill="midnightblue" stroke="midnightblue" points="336.51,-108.38 327.42,-113.82 337.92,-115.23 336.51,-108.38"/>
</g>
<!-- Node13&#45;&gt;Node12 -->
<g id="edge18" class="edge">
<title>Node13&#45;&gt;Node12</title>
<path fill="none" stroke="midnightblue" d="M256.55,-109.67C218.78,-98.82 163.06,-82.82 131.7,-73.81"/>
<polygon fill="midnightblue" stroke="midnightblue" points="255.63,-113.05 266.21,-112.44 257.57,-106.32 255.63,-113.05"/>
</g>
<!-- Node14 -->
<g id="node14" class="node">
<title>Node14</title>
<g id="a_node14"><a xlink:href="task_8cc.html" target="_top" xlink:title=" ">
<polygon fill="white" stroke="black" points="363.5,-56.5 363.5,-75.5 412.5,-75.5 412.5,-56.5 363.5,-56.5"/>
<text text-anchor="middle" x="388" y="-63.5" font-family="Helvetica,sans-Serif" font-size="10.00">task.cc</text>
</a>
</g>
</g>
<!-- Node13&#45;&gt;Node14 -->
<g id="edge17" class="edge">
<title>Node13&#45;&gt;Node14</title>
<path fill="none" stroke="midnightblue" d="M319.55,-107.18C336.48,-97.24 358.78,-84.15 373.26,-75.65"/>
<polygon fill="midnightblue" stroke="midnightblue" points="317.63,-104.24 310.78,-112.32 321.18,-110.28 317.63,-104.24"/>
</g>
<!-- Node15&#45;&gt;Node4 -->
<g id="edge20" class="edge">
<title>Node15&#45;&gt;Node4</title>
<path fill="none" stroke="midnightblue" d="M554.76,-226.95C577.46,-221.11 604.86,-209.78 619,-188 636.08,-161.7 707.43,-178.77 616,-56 589.01,-19.76 531.97,-12.25 500.68,-10.98"/>
<polygon fill="midnightblue" stroke="midnightblue" points="553.69,-223.6 544.73,-229.26 555.26,-230.43 553.69,-223.6"/>
</g>
<!-- Node15&#45;&gt;Node6 -->
<g id="edge23" class="edge">
<title>Node15&#45;&gt;Node6</title>
<path fill="none" stroke="midnightblue" d="M502,-217C492.43,-207.43 480.64,-195.64 472.75,-187.75"/>
<polygon fill="midnightblue" stroke="midnightblue" points="499.54,-219.49 509.08,-224.08 504.49,-214.54 499.54,-219.49"/>
</g>
<!-- Node15&#45;&gt;Node10 -->
<g id="edge21" class="edge">
<title>Node15&#45;&gt;Node10</title>
<path fill="none" stroke="midnightblue" d="M554.42,-221.76C587.85,-211.45 636.58,-196.41 666.46,-187.19"/>
<polygon fill="midnightblue" stroke="midnightblue" points="553.1,-218.51 544.58,-224.8 555.17,-225.19 553.1,-218.51"/>
</g>
<!-- Node16 -->
<g id="node16" class="node">
<title>Node16</title>
<g id="a_node16"><a xlink:href="kernel_2readline_8cc.html" target="_top" xlink:title=" ">
<polygon fill="white" stroke="black" points="546,-168.5 546,-187.5 610,-187.5 610,-168.5 546,-168.5"/>
<text text-anchor="middle" x="578" y="-175.5" font-family="Helvetica,sans-Serif" font-size="10.00">readline.cc</text>
</a>
</g>
</g>
<!-- Node15&#45;&gt;Node16 -->
<g id="edge22" class="edge">
<title>Node15&#45;&gt;Node16</title>
<path fill="none" stroke="midnightblue" d="M535.18,-217.54C545.88,-207.91 559.26,-195.87 568.18,-187.83"/>
<polygon fill="midnightblue" stroke="midnightblue" points="532.73,-215.03 527.64,-224.32 537.41,-220.24 532.73,-215.03"/>
</g>
<!-- Node15&#45;&gt;Node17 -->
<g id="edge24" class="edge">
<title>Node15&#45;&gt;Node17</title>
<path fill="none" stroke="midnightblue" d="M481.18,-225.74C424.04,-214.48 315.59,-193.11 267.72,-183.68"/>
<polygon fill="midnightblue" stroke="midnightblue" points="480.74,-229.22 491.23,-227.72 482.09,-222.36 480.74,-229.22"/>
</g>
<!-- Node15&#45;&gt;Node22 -->
<g id="edge37" class="edge">
<title>Node15&#45;&gt;Node22</title>
<path fill="none" stroke="midnightblue" d="M516.98,-214C515.24,-199.67 510.7,-180.43 499,-168 473.64,-141.04 430.94,-130.19 402.62,-125.86"/>
<polygon fill="midnightblue" stroke="midnightblue" points="513.51,-214.54 517.85,-224.21 520.48,-213.94 513.51,-214.54"/>
</g>
<!-- Node17&#45;&gt;Node12 -->
<g id="edge36" class="edge">
<title>Node17&#45;&gt;Node12</title>
<path fill="none" stroke="midnightblue" d="M225.27,-161.99C214.38,-153.25 200.4,-142.02 188,-132 163.08,-111.87 133.9,-88.11 118.6,-75.64"/>
<polygon fill="midnightblue" stroke="midnightblue" points="223.26,-164.86 233.25,-168.39 227.64,-159.4 223.26,-164.86"/>
</g>
<!-- Node17&#45;&gt;Node13 -->
<g id="edge25" class="edge">
<title>Node17&#45;&gt;Node13</title>
<path fill="none" stroke="midnightblue" d="M259.68,-160.72C268.84,-151.2 280.05,-139.56 287.57,-131.75"/>
<polygon fill="midnightblue" stroke="midnightblue" points="257,-158.45 252.59,-168.08 262.04,-163.31 257,-158.45"/>
</g>
<!-- Node17&#45;&gt;Node18 -->
<g id="edge26" class="edge">
<title>Node17&#45;&gt;Node18</title>
<path fill="none" stroke="midnightblue" d="M236.54,-158.69C232.83,-149.59 228.52,-139.01 225.57,-131.75"/>
<polygon fill="midnightblue" stroke="midnightblue" points="233.35,-160.14 240.37,-168.08 239.84,-157.5 233.35,-160.14"/>
</g>
<!-- Node18&#45;&gt;Node4 -->
<g id="edge27" class="edge">
<title>Node18&#45;&gt;Node4</title>
<path fill="none" stroke="midnightblue" d="M230.6,-103C238.68,-88.07 252.19,-67.5 270,-56 329.71,-17.44 417.04,-11.39 457.25,-10.79"/>
<polygon fill="midnightblue" stroke="midnightblue" points="227.31,-101.75 225.89,-112.25 233.55,-104.93 227.31,-101.75"/>
</g>
<!-- Node18&#45;&gt;Node5 -->
<g id="edge28" class="edge">
<title>Node18&#45;&gt;Node5</title>
<path fill="none" stroke="midnightblue" d="M187.35,-111.1C151.73,-100.92 96.84,-85.24 63.02,-75.58"/>
<polygon fill="midnightblue" stroke="midnightblue" points="186.71,-114.56 197.29,-113.94 188.64,-107.83 186.71,-114.56"/>
</g>
<!-- Node18&#45;&gt;Node7 -->
<g id="edge32" class="edge">
<title>Node18&#45;&gt;Node7</title>
<path fill="none" stroke="midnightblue" d="M256.87,-112.05C368.38,-89.94 489.15,-76 544.9,-70.13"/>
<polygon fill="midnightblue" stroke="midnightblue" points="255.92,-108.67 246.8,-114.07 257.3,-115.53 255.92,-108.67"/>
</g>
<!-- Node18&#45;&gt;Node12 -->
<g id="edge35" class="edge">
<title>Node18&#45;&gt;Node12</title>
<path fill="none" stroke="midnightblue" d="M194.76,-108.1C173.46,-98.01 144.46,-84.27 125.98,-75.52"/>
<polygon fill="midnightblue" stroke="midnightblue" points="193.4,-111.33 203.94,-112.44 196.4,-105 193.4,-111.33"/>
</g>
<!-- Node18&#45;&gt;Node14 -->
<g id="edge33" class="edge">
<title>Node18&#45;&gt;Node14</title>
<path fill="none" stroke="midnightblue" d="M256.64,-109.73C288.51,-99.37 334.97,-84.25 363.25,-75.05"/>
<polygon fill="midnightblue" stroke="midnightblue" points="255.28,-106.49 246.85,-112.92 257.44,-113.15 255.28,-106.49"/>
</g>
<!-- Node19 -->
<g id="node19" class="node">
<title>Node19</title>
<g id="a_node19"><a xlink:href="mp_8hh.html" target="_top" xlink:title=" ">
<polygon fill="white" stroke="black" points="150,-56.5 150,-75.5 194,-75.5 194,-56.5 150,-56.5"/>
<text text-anchor="middle" x="172" y="-63.5" font-family="Helvetica,sans-Serif" font-size="10.00">mp.hh</text>
</a>
</g>
</g>
<!-- Node18&#45;&gt;Node19 -->
<g id="edge29" class="edge">
<title>Node18&#45;&gt;Node19</title>
<path fill="none" stroke="midnightblue" d="M206.92,-104.72C198.11,-95.2 187.33,-83.56 180.1,-75.75"/>
<polygon fill="midnightblue" stroke="midnightblue" points="204.38,-107.12 213.74,-112.08 209.52,-102.37 204.38,-107.12"/>
</g>
<!-- Node21 -->
<g id="node21" class="node">
<title>Node21</title>
<g id="a_node21"><a xlink:href="vmem_8cc.html" target="_top" xlink:title=" ">
<polygon fill="white" stroke="black" points="288.5,-56.5 288.5,-75.5 345.5,-75.5 345.5,-56.5 288.5,-56.5"/>
<text text-anchor="middle" x="317" y="-63.5" font-family="Helvetica,sans-Serif" font-size="10.00">vmem.cc</text>
</a>
</g>
</g>
<!-- Node18&#45;&gt;Node21 -->
<g id="edge34" class="edge">
<title>Node18&#45;&gt;Node21</title>
<path fill="none" stroke="midnightblue" d="M246.32,-107.18C263.8,-97.24 286.83,-84.15 301.77,-75.65"/>
<polygon fill="midnightblue" stroke="midnightblue" points="244.23,-104.34 237.26,-112.32 247.69,-110.43 244.23,-104.34"/>
</g>
<!-- Node19&#45;&gt;Node4 -->
<g id="edge30" class="edge">
<title>Node19&#45;&gt;Node4</title>
<path fill="none" stroke="midnightblue" d="M204.11,-56.83C205.42,-56.54 206.72,-56.27 208,-56 300.23,-36.85 411.45,-20.46 457.46,-13.98"/>
<polygon fill="midnightblue" stroke="midnightblue" points="202.96,-53.51 194.02,-59.2 204.55,-60.33 202.96,-53.51"/>
</g>
<!-- Node20 -->
<g id="node20" class="node">
<title>Node20</title>
<g id="a_node20"><a xlink:href="mp_8cc.html" target="_top" xlink:title=" ">
<polygon fill="white" stroke="black" points="273,-0.5 273,-19.5 317,-19.5 317,-0.5 273,-0.5"/>
<text text-anchor="middle" x="295" y="-7.5" font-family="Helvetica,sans-Serif" font-size="10.00">mp.cc</text>
</a>
</g>
</g>
<!-- Node19&#45;&gt;Node20 -->
<g id="edge31" class="edge">
<title>Node19&#45;&gt;Node20</title>
<path fill="none" stroke="midnightblue" d="M200.77,-52.37C223.81,-42.26 255.48,-28.35 275.6,-19.52"/>
<polygon fill="midnightblue" stroke="midnightblue" points="199.24,-49.22 191.49,-56.44 202.05,-55.63 199.24,-49.22"/>
</g>
<!-- Node22&#45;&gt;Node4 -->
<g id="edge38" class="edge">
<title>Node22&#45;&gt;Node4</title>
<path fill="none" stroke="midnightblue" d="M397.82,-107.05C410.37,-98.98 425.5,-88.05 437,-76 453.88,-58.31 467.99,-32.92 474.73,-19.72"/>
<polygon fill="midnightblue" stroke="midnightblue" points="395.87,-104.14 389.23,-112.39 399.57,-110.08 395.87,-104.14"/>
</g>
<!-- Node22&#45;&gt;Node5 -->
<g id="edge39" class="edge">
<title>Node22&#45;&gt;Node5</title>
<path fill="none" stroke="midnightblue" d="M335.42,-112.07C219.16,-90.78 187.17,-95.73 75,-76 72.21,-75.51 69.32,-74.97 66.43,-74.4"/>
<polygon fill="midnightblue" stroke="midnightblue" points="334.96,-115.54 345.43,-113.92 336.24,-108.66 334.96,-115.54"/>
</g>
<!-- Node22&#45;&gt;Node7 -->
<g id="edge41" class="edge">
<title>Node22&#45;&gt;Node7</title>
<path fill="none" stroke="midnightblue" d="M412.32,-110.76C450.79,-100.47 509.33,-84.82 544.98,-75.29"/>
<polygon fill="midnightblue" stroke="midnightblue" points="411.27,-107.41 402.51,-113.38 413.08,-114.18 411.27,-107.41"/>
</g>
<!-- Node22&#45;&gt;Node14 -->
<g id="edge42" class="edge">
<title>Node22&#45;&gt;Node14</title>
<path fill="none" stroke="midnightblue" d="M378.82,-102.4C381.17,-93.36 383.87,-82.94 385.73,-75.75"/>
<polygon fill="midnightblue" stroke="midnightblue" points="375.43,-101.52 376.31,-112.08 382.21,-103.28 375.43,-101.52"/>
</g>
<!-- Node22&#45;&gt;Node20 -->
<g id="edge40" class="edge">
<title>Node22&#45;&gt;Node20</title>
<path fill="none" stroke="midnightblue" d="M396.79,-106.63C414.61,-93.54 434.45,-73.62 422,-56 398.24,-22.38 347.12,-13.72 317.5,-11.59"/>
<polygon fill="midnightblue" stroke="midnightblue" points="394.58,-103.89 388.35,-112.46 398.56,-109.65 394.58,-103.89"/>
</g>
<!-- Node22&#45;&gt;Node21 -->
<g id="edge43" class="edge">
<title>Node22&#45;&gt;Node21</title>
<path fill="none" stroke="midnightblue" d="M357.38,-105.25C347.27,-95.67 334.72,-83.79 326.32,-75.83"/>
<polygon fill="midnightblue" stroke="midnightblue" points="355.18,-107.99 364.84,-112.32 359.99,-102.91 355.18,-107.99"/>
</g>
<!-- Node23&#45;&gt;Node3 -->
<g id="edge45" class="edge">
<title>Node23&#45;&gt;Node3</title>
<path fill="none" stroke="midnightblue" d="M132,-213.8C132,-204.91 132,-194.78 132,-187.75"/>
<polygon fill="midnightblue" stroke="midnightblue" points="128.5,-214.08 132,-224.08 135.5,-214.08 128.5,-214.08"/>
</g>
<!-- Node24 -->
<g id="node24" class="node">
<title>Node24</title>
<g id="a_node24"><a xlink:href="pckbd_8c.html" target="_top" xlink:title=" ">
<polygon fill="white" stroke="black" points="30.5,-168.5 30.5,-187.5 81.5,-187.5 81.5,-168.5 30.5,-168.5"/>
<text text-anchor="middle" x="56" y="-175.5" font-family="Helvetica,sans-Serif" font-size="10.00">pckbd.c</text>
</a>
</g>
</g>
<!-- Node23&#45;&gt;Node24 -->
<g id="edge46" class="edge">
<title>Node23&#45;&gt;Node24</title>
<path fill="none" stroke="midnightblue" d="M111.42,-218.38C97.69,-208.62 80.07,-196.11 68.43,-187.83"/>
<polygon fill="midnightblue" stroke="midnightblue" points="109.61,-221.38 119.79,-224.32 113.66,-215.68 109.61,-221.38"/>
</g>
<!-- Node25&#45;&gt;Node7 -->
<g id="edge49" class="edge">
<title>Node25&#45;&gt;Node7</title>
<path fill="none" stroke="midnightblue" d="M864.94,-214.03C863.18,-199.73 858.63,-180.5 847,-168 842.54,-163.21 665.58,-99.23 600.07,-75.65"/>
<polygon fill="midnightblue" stroke="midnightblue" points="861.47,-214.57 865.83,-224.23 868.44,-213.96 861.47,-214.57"/>
</g>
<!-- Node26 -->
<g id="node26" class="node">
<title>Node26</title>
<g id="a_node26"><a xlink:href="system_8cc.html" target="_top" xlink:title=" ">
<polygon fill="white" stroke="black" points="894,-168.5 894,-187.5 956,-187.5 956,-168.5 894,-168.5"/>
<text text-anchor="middle" x="925" y="-175.5" font-family="Helvetica,sans-Serif" font-size="10.00">system.cc</text>
</a>
</g>
</g>
<!-- Node25&#45;&gt;Node26 -->
<g id="edge48" class="edge">
<title>Node25&#45;&gt;Node26</title>
<path fill="none" stroke="midnightblue" d="M882.89,-217.54C893.41,-207.91 906.57,-195.87 915.35,-187.83"/>
<polygon fill="midnightblue" stroke="midnightblue" points="880.49,-214.99 875.48,-224.32 885.22,-220.15 880.49,-214.99"/>
</g>
<!-- Node27&#45;&gt;Node4 -->
<g id="edge52" class="edge">
<title>Node27&#45;&gt;Node4</title>
<path fill="none" stroke="midnightblue" d="M787.18,-102.82C780.55,-87.77 768.98,-67.13 752,-56 710.42,-28.74 557.59,-16.14 500.61,-12.32"/>
<polygon fill="midnightblue" stroke="midnightblue" points="783.97,-104.21 790.98,-112.15 790.45,-101.57 783.97,-104.21"/>
</g>
<!-- Node27&#45;&gt;Node7 -->
<g id="edge53" class="edge">
<title>Node27&#45;&gt;Node7</title>
<path fill="none" stroke="midnightblue" d="M756.04,-111.6C713.81,-101.14 646.36,-84.43 607.11,-74.71"/>
<polygon fill="midnightblue" stroke="midnightblue" points="755.4,-115.04 765.95,-114.05 757.08,-108.25 755.4,-115.04"/>
</g>
</g>
</svg>
        <g id="navigator" transform="translate(0 0)" fill="#404254">
                <rect fill="#f2f5e9" fill-opacity="0.5" stroke="#606060" stroke-width=".5" x="0" y="0" width="60" height="60"/>
                <use id="zoomplus" xlink:href="#zoomPlus" x="17" y="9" onmousedown="handleZoom(evt,'in')"/>
                <use id="zoomminus" xlink:href="#zoomMin" x="42" y="9" onmousedown="handleZoom(evt,'out')"/>
                <use id="reset" xlink:href="#resetDef" x="30" y="36" onmousedown="handleReset()"/>
                <g id="arrowUp" xlink:href="#dirArrow" transform="translate(30 24)" onmousedown="handlePan(0,-1)">
                  <use xlink:href="#rim" fill="#404040">
                        <set attributeName="fill" to="#808080" begin="arrowUp.mouseover" end="arrowUp.mouseout"/>
                  </use>
                  <path fill="none" stroke="white" stroke-width="1.5" d="M0,-3.0v7 M-2.5,-0.5L0,-3.0L2.5,-0.5"/>
                </g>
                <g id="arrowRight" xlink:href="#dirArrow" transform="rotate(90) translate(36 -43)" onmousedown="handlePan(1,0)">
                  <use xlink:href="#rim" fill="#404040">
                        <set attributeName="fill" to="#808080" begin="arrowRight.mouseover" end="arrowRight.mouseout"/>
                  </use>
                  <path fill="none" stroke="white" stroke-width="1.5" d="M0,-3.0v7 M-2.5,-0.5L0,-3.0L2.5,-0.5"/>
                </g>
                <g id="arrowDown" xlink:href="#dirArrow" transform="rotate(180) translate(-30 -48)" onmousedown="handlePan(0,1)">
                  <use xlink:href="#rim" fill="#404040">
                        <set attributeName="fill" to="#808080" begin="arrowDown.mouseover" end="arrowDown.mouseout"/>
                  </use>
                  <path fill="none" stroke="white" stroke-width="1.5" d="M0,-3.0v7 M-2.5,-0.5L0,-3.0L2.5,-0.5"/>
                </g>
                <g id="arrowLeft" xlink:href="#dirArrow" transform="rotate(270) translate(-36 17)" onmousedown="handlePan(-1,0)">
                  <use xlink:href="#rim" fill="#404040">
                        <set attributeName="fill" to="#808080" begin="arrowLeft.mouseover" end="arrowLeft.mouseout"/>
                  </use>
                  <path fill="none" stroke="white" stroke-width="1.5" d="M0,-3.0v7 M-2.5,-0.5L0,-3.0L2.5,-0.5"/>
                </g>
        </g>
        <svg viewBox="0 0 15 15" width="100%" height="30px" preserveAspectRatio="xMaxYMin meet">
         <g id="arrow_out" transform="scale(0.3 0.3)">
          <a xlink:href="knlast_8inc__dep__incl_org.svg" target="_base">
           <rect id="button" ry="5" rx="5" y="6" x="6" height="38" width="38"
                fill="#f2f5e9" fill-opacity="0.5" stroke="#606060" stroke-width="1.0"/>
           <path id="arrow"
             d="M 11.500037,31.436501 C 11.940474,20.09759 22.043105,11.32322 32.158766,21.979434 L 37.068811,17.246167 C 37.068811,17.246167 37.088388,32 37.088388,32 L 22.160133,31.978069 C 22.160133,31.978069 26.997745,27.140456 26.997745,27.140456 C 18.528582,18.264221 13.291696,25.230495 11.500037,31.436501 z"
             style="fill:#404040;"/>
          </a>
         </g>
        </svg>
</svg>
