<?xml version="1.0" encoding="UTF-8" standalone="no"?>
<!DOCTYPE svg PUBLIC "-//W3C//DTD SVG 1.1//EN"
 "http://www.w3.org/Graphics/SVG/1.1/DTD/svg11.dtd">
<!-- Generated by graphviz version 2.44.1 (20200629.0846)
 -->
<!-- Title: ksyscall.cc Pages: 1 -->
<!--zoomable 420 -->
<svg id="main" version="1.1" xmlns="http://www.w3.org/2000/svg" xmlns:xlink="http://www.w3.org/1999/xlink" xml:space="preserve" onload="init(evt)">
<style type="text/css"><![CDATA[
.edge:hover path { stroke: red; }
.edge:hover polygon { stroke: red; fill: red; }
]]></style>
<script type="text/javascript"><![CDATA[
var edges = document.getElementsByTagName('g');
if (edges && edges.length) {
  for (var i=0;i<edges.length;i++) {
    if (edges[i].id.substr(0,4)=='edge') {
      edges[i].setAttribute('class','edge');
    }
  }
}
]]></script>
        <defs>
                <circle id="rim" cx="0" cy="0" r="7"/>
                <circle id="rim2" cx="0" cy="0" r="3.5"/>
                <g id="zoomPlus">
                        <use xlink:href="#rim" fill="#404040">
                                <set attributeName="fill" to="#808080" begin="zoomplus.mouseover" end="zoomplus.mouseout"/>
                        </use>
                        <path d="M-4,0h8M0,-4v8" fill="none" stroke="white" stroke-width="1.5" pointer-events="none"/>
                </g>
                <g id="zoomMin">
                        <use xlink:href="#rim" fill="#404040">
                                <set attributeName="fill" to="#808080" begin="zoomminus.mouseover" end="zoomminus.mouseout"/>
                        </use>
                        <path d="M-4,0h8" fill="none" stroke="white" stroke-width="1.5" pointer-events="none"/>
                </g>
                <g id="dirArrow">
                        <path fill="none" stroke="white" stroke-width="1.5" d="M0,-3.0v7 M-2.5,-0.5L0,-3.0L2.5,-0.5"/>
                </g>
               <g id="resetDef">
                       <use xlink:href="#rim2" fill="#404040">
                               <set attributeName="fill" to="#808080" begin="reset.mouseover" end="reset.mouseout"/>
                       </use>
               </g>
        </defs>

<script type="text/javascript">
var viewWidth = 931;
var viewHeight = 420;
var sectionId = 'dynsection-0';
</script>
<script xlink:href="svgpan.js"/>
<svg id="graph" class="graph">
<g id="viewport">
<title>ksyscall.cc</title>
<polygon fill="white" stroke="transparent" points="-4,4 -4,-416 927.4,-416 927.4,4 -4,4"/>
<!-- Node1 -->
<g id="node1" class="node">
<title>Node1</title>
<g id="a_node1"><a xlink:title=" ">
<polygon fill="#bfbfbf" stroke="black" points="339,-392.5 339,-411.5 405,-411.5 405,-392.5 339,-392.5"/>
<text text-anchor="middle" x="372" y="-399.5" font-family="Helvetica,sans-Serif" font-size="10.00">ksyscall.cc</text>
</a>
</g>
</g>
<!-- Node2 -->
<g id="node2" class="node">
<title>Node2</title>
<g id="a_node2"><a xlink:href="stdio_8hh.html" target="_top" xlink:title=" ">
<polygon fill="white" stroke="black" points="107.5,-280.5 107.5,-299.5 192.5,-299.5 192.5,-280.5 107.5,-280.5"/>
<text text-anchor="middle" x="150" y="-287.5" font-family="Helvetica,sans-Serif" font-size="10.00">include/stdio.hh</text>
</a>
</g>
</g>
<!-- Node1&#45;&gt;Node2 -->
<g id="edge1" class="edge">
<title>Node1&#45;&gt;Node2</title>
<path fill="none" stroke="midnightblue" d="M354.58,-392.37C315.84,-373.17 222.34,-326.84 176.39,-304.07"/>
<polygon fill="midnightblue" stroke="midnightblue" points="177.85,-300.9 167.34,-299.59 174.75,-307.17 177.85,-300.9"/>
</g>
<!-- Node13 -->
<g id="node13" class="node">
<title>Node13</title>
<g id="a_node13"><a xlink:href="ksyscall_8hh.html" target="_top" xlink:title=" ">
<polygon fill="white" stroke="black" points="324.5,-224.5 324.5,-243.5 419.5,-243.5 419.5,-224.5 324.5,-224.5"/>
<text text-anchor="middle" x="372" y="-231.5" font-family="Helvetica,sans-Serif" font-size="10.00">kernel/ksyscall.hh</text>
</a>
</g>
</g>
<!-- Node1&#45;&gt;Node13 -->
<g id="edge14" class="edge">
<title>Node1&#45;&gt;Node13</title>
<path fill="none" stroke="midnightblue" d="M372,-392.08C372,-365.95 372,-289.21 372,-253.58"/>
<polygon fill="midnightblue" stroke="midnightblue" points="375.5,-253.57 372,-243.57 368.5,-253.57 375.5,-253.57"/>
</g>
<!-- Node16 -->
<g id="node16" class="node">
<title>Node16</title>
<g id="a_node16"><a xlink:href="console_8hh.html" target="_top" xlink:title=" ">
<polygon fill="white" stroke="black" points="213.5,-224.5 213.5,-243.5 306.5,-243.5 306.5,-224.5 213.5,-224.5"/>
<text text-anchor="middle" x="260" y="-231.5" font-family="Helvetica,sans-Serif" font-size="10.00">kernel/console.hh</text>
</a>
</g>
</g>
<!-- Node1&#45;&gt;Node16 -->
<g id="edge18" class="edge">
<title>Node1&#45;&gt;Node16</title>
<path fill="none" stroke="midnightblue" d="M365.98,-392.08C348.12,-365.61 295.23,-287.21 271.61,-252.21"/>
<polygon fill="midnightblue" stroke="midnightblue" points="274.28,-249.9 265.78,-243.57 268.47,-253.82 274.28,-249.9"/>
</g>
<!-- Node17 -->
<g id="node17" class="node">
<title>Node17</title>
<g id="a_node17"><a xlink:href="kernel_2task_8hh.html" target="_top" xlink:title=" ">
<polygon fill="white" stroke="black" points="540,-336.5 540,-355.5 618,-355.5 618,-336.5 540,-336.5"/>
<text text-anchor="middle" x="579" y="-343.5" font-family="Helvetica,sans-Serif" font-size="10.00">kernel/task.hh</text>
</a>
</g>
</g>
<!-- Node1&#45;&gt;Node17 -->
<g id="edge22" class="edge">
<title>Node1&#45;&gt;Node17</title>
<path fill="none" stroke="midnightblue" d="M404.8,-392.44C440.38,-383.16 497.31,-368.31 536.35,-358.13"/>
<polygon fill="midnightblue" stroke="midnightblue" points="537.56,-361.43 546.35,-355.52 535.79,-354.65 537.56,-361.43"/>
</g>
<!-- Node27 -->
<g id="node27" class="node">
<title>Node27</title>
<g id="a_node27"><a xlink:href="vmem_8hh.html" target="_top" xlink:title=" ">
<polygon fill="white" stroke="black" points="780,-280.5 780,-299.5 866,-299.5 866,-280.5 780,-280.5"/>
<text text-anchor="middle" x="823" y="-287.5" font-family="Helvetica,sans-Serif" font-size="10.00">kernel/vmem.hh</text>
</a>
</g>
</g>
<!-- Node1&#45;&gt;Node27 -->
<g id="edge39" class="edge">
<title>Node1&#45;&gt;Node27</title>
<path fill="none" stroke="midnightblue" d="M405.34,-396.7C454.35,-390.02 548.55,-375.82 627,-356 685.87,-341.13 752.63,-317.48 791.08,-303.18"/>
<polygon fill="midnightblue" stroke="midnightblue" points="792.54,-306.37 800.68,-299.59 790.09,-299.82 792.54,-306.37"/>
</g>
<!-- Node3 -->
<g id="node3" class="node">
<title>Node3</title>
<g id="a_node3"><a xlink:href="stdin_8hh.html" target="_top" xlink:title=" ">
<polygon fill="white" stroke="black" points="1.5,-224.5 1.5,-243.5 86.5,-243.5 86.5,-224.5 1.5,-224.5"/>
<text text-anchor="middle" x="44" y="-231.5" font-family="Helvetica,sans-Serif" font-size="10.00">include/stdin.hh</text>
</a>
</g>
</g>
<!-- Node2&#45;&gt;Node3 -->
<g id="edge2" class="edge">
<title>Node2&#45;&gt;Node3</title>
<path fill="none" stroke="midnightblue" d="M132.97,-280.32C115.97,-271.66 89.62,-258.24 70.01,-248.25"/>
<polygon fill="midnightblue" stroke="midnightblue" points="71.49,-245.08 60.99,-243.65 68.31,-251.31 71.49,-245.08"/>
</g>
<!-- Node6 -->
<g id="node6" class="node">
<title>Node6</title>
<g id="a_node6"><a xlink:href="stdout_8hh.html" target="_top" xlink:title=" ">
<polygon fill="white" stroke="black" points="104.5,-224.5 104.5,-243.5 195.5,-243.5 195.5,-224.5 104.5,-224.5"/>
<text text-anchor="middle" x="150" y="-231.5" font-family="Helvetica,sans-Serif" font-size="10.00">include/stdout.hh</text>
</a>
</g>
</g>
<!-- Node2&#45;&gt;Node6 -->
<g id="edge5" class="edge">
<title>Node2&#45;&gt;Node6</title>
<path fill="none" stroke="midnightblue" d="M150,-280.08C150,-273.01 150,-262.86 150,-253.99"/>
<polygon fill="midnightblue" stroke="midnightblue" points="153.5,-253.75 150,-243.75 146.5,-253.75 153.5,-253.75"/>
</g>
<!-- Node4 -->
<g id="node4" class="node">
<title>Node4</title>
<g id="a_node4"><a xlink:href="vargs_8hh.html" target="_top" xlink:title=" ">
<polygon fill="white" stroke="black" points="0,-168.5 0,-187.5 88,-187.5 88,-168.5 0,-168.5"/>
<text text-anchor="middle" x="44" y="-175.5" font-family="Helvetica,sans-Serif" font-size="10.00">include/vargs.hh</text>
</a>
</g>
</g>
<!-- Node3&#45;&gt;Node4 -->
<g id="edge3" class="edge">
<title>Node3&#45;&gt;Node4</title>
<path fill="none" stroke="midnightblue" d="M44,-224.08C44,-217.01 44,-206.86 44,-197.99"/>
<polygon fill="midnightblue" stroke="midnightblue" points="47.5,-197.75 44,-187.75 40.5,-197.75 47.5,-197.75"/>
</g>
<!-- Node5 -->
<g id="node5" class="node">
<title>Node5</title>
<g id="a_node5"><a xlink:title=" ">
<polygon fill="white" stroke="#bfbfbf" points="19.5,-112.5 19.5,-131.5 68.5,-131.5 68.5,-112.5 19.5,-112.5"/>
<text text-anchor="middle" x="44" y="-119.5" font-family="Helvetica,sans-Serif" font-size="10.00">cstdarg</text>
</a>
</g>
</g>
<!-- Node4&#45;&gt;Node5 -->
<g id="edge4" class="edge">
<title>Node4&#45;&gt;Node5</title>
<path fill="none" stroke="midnightblue" d="M44,-168.08C44,-161.01 44,-150.86 44,-141.99"/>
<polygon fill="midnightblue" stroke="midnightblue" points="47.5,-141.75 44,-131.75 40.5,-141.75 47.5,-141.75"/>
</g>
<!-- Node6&#45;&gt;Node4 -->
<g id="edge11" class="edge">
<title>Node6&#45;&gt;Node4</title>
<path fill="none" stroke="midnightblue" d="M132.97,-224.32C115.97,-215.66 89.62,-202.24 70.01,-192.25"/>
<polygon fill="midnightblue" stroke="midnightblue" points="71.49,-189.08 60.99,-187.65 68.31,-195.31 71.49,-189.08"/>
</g>
<!-- Node7 -->
<g id="node7" class="node">
<title>Node7</title>
<g id="a_node7"><a xlink:href="types_8h.html" target="_top" xlink:title=" ">
<polygon fill="white" stroke="black" points="498.5,-56.5 498.5,-75.5 581.5,-75.5 581.5,-56.5 498.5,-56.5"/>
<text text-anchor="middle" x="540" y="-63.5" font-family="Helvetica,sans-Serif" font-size="10.00">include/types.h</text>
</a>
</g>
</g>
<!-- Node6&#45;&gt;Node7 -->
<g id="edge6" class="edge">
<title>Node6&#45;&gt;Node7</title>
<path fill="none" stroke="midnightblue" d="M156.52,-224.39C167.11,-210.87 189.27,-184.52 213,-168 298.34,-108.58 419.83,-83.2 488.15,-73.09"/>
<polygon fill="midnightblue" stroke="midnightblue" points="488.84,-76.53 498.24,-71.65 487.85,-69.6 488.84,-76.53"/>
</g>
<!-- Node11 -->
<g id="node11" class="node">
<title>Node11</title>
<g id="a_node11"><a xlink:href="color_8h.html" target="_top" xlink:title=" ">
<polygon fill="white" stroke="black" points="222.5,-168.5 222.5,-187.5 301.5,-187.5 301.5,-168.5 222.5,-168.5"/>
<text text-anchor="middle" x="262" y="-175.5" font-family="Helvetica,sans-Serif" font-size="10.00">include/color.h</text>
</a>
</g>
</g>
<!-- Node6&#45;&gt;Node11 -->
<g id="edge12" class="edge">
<title>Node6&#45;&gt;Node11</title>
<path fill="none" stroke="midnightblue" d="M167.99,-224.32C186.04,-215.62 214.05,-202.12 234.8,-192.11"/>
<polygon fill="midnightblue" stroke="midnightblue" points="236.56,-195.15 244.05,-187.65 233.52,-188.84 236.56,-195.15"/>
</g>
<!-- Node12 -->
<g id="node12" class="node">
<title>Node12</title>
<g id="a_node12"><a xlink:title=" ">
<polygon fill="white" stroke="#bfbfbf" points="106.5,-168.5 106.5,-187.5 165.5,-187.5 165.5,-168.5 106.5,-168.5"/>
<text text-anchor="middle" x="136" y="-175.5" font-family="Helvetica,sans-Serif" font-size="10.00">functional</text>
</a>
</g>
</g>
<!-- Node6&#45;&gt;Node12 -->
<g id="edge13" class="edge">
<title>Node6&#45;&gt;Node12</title>
<path fill="none" stroke="midnightblue" d="M147.69,-224.08C145.83,-216.93 143.16,-206.64 140.85,-197.69"/>
<polygon fill="midnightblue" stroke="midnightblue" points="144.17,-196.55 138.27,-187.75 137.39,-198.31 144.17,-196.55"/>
</g>
<!-- Node8 -->
<g id="node8" class="node">
<title>Node8</title>
<g id="a_node8"><a xlink:title=" ">
<polygon fill="white" stroke="#bfbfbf" points="412,-0.5 412,-19.5 464,-19.5 464,-0.5 412,-0.5"/>
<text text-anchor="middle" x="438" y="-7.5" font-family="Helvetica,sans-Serif" font-size="10.00">stddef.h</text>
</a>
</g>
</g>
<!-- Node7&#45;&gt;Node8 -->
<g id="edge7" class="edge">
<title>Node7&#45;&gt;Node8</title>
<path fill="none" stroke="midnightblue" d="M523.61,-56.32C507.33,-47.7 482.13,-34.36 463.28,-24.39"/>
<polygon fill="midnightblue" stroke="midnightblue" points="464.82,-21.24 454.35,-19.65 461.55,-27.43 464.82,-21.24"/>
</g>
<!-- Node9 -->
<g id="node9" class="node">
<title>Node9</title>
<g id="a_node9"><a xlink:title=" ">
<polygon fill="white" stroke="#bfbfbf" points="482.5,-0.5 482.5,-19.5 531.5,-19.5 531.5,-0.5 482.5,-0.5"/>
<text text-anchor="middle" x="507" y="-7.5" font-family="Helvetica,sans-Serif" font-size="10.00">stdint.h</text>
</a>
</g>
</g>
<!-- Node7&#45;&gt;Node9 -->
<g id="edge8" class="edge">
<title>Node7&#45;&gt;Node9</title>
<path fill="none" stroke="midnightblue" d="M534.55,-56.08C529.99,-48.61 523.33,-37.72 517.71,-28.52"/>
<polygon fill="midnightblue" stroke="midnightblue" points="520.55,-26.46 512.35,-19.75 514.58,-30.11 520.55,-26.46"/>
</g>
<!-- Node10 -->
<g id="node10" class="node">
<title>Node10</title>
<g id="a_node10"><a xlink:href="ctype_8h.html" target="_top" xlink:title=" ">
<polygon fill="white" stroke="black" points="549.5,-0.5 549.5,-19.5 598.5,-19.5 598.5,-0.5 549.5,-0.5"/>
<text text-anchor="middle" x="574" y="-7.5" font-family="Helvetica,sans-Serif" font-size="10.00">ctype.h</text>
</a>
</g>
</g>
<!-- Node7&#45;&gt;Node10 -->
<g id="edge9" class="edge">
<title>Node7&#45;&gt;Node10</title>
<path fill="none" stroke="midnightblue" d="M540.45,-56.08C543.67,-48.38 550.44,-37.03 557.23,-27.65"/>
<polygon fill="midnightblue" stroke="midnightblue" points="559.99,-29.8 563.36,-19.75 554.46,-25.5 559.99,-29.8"/>
</g>
<!-- Node10&#45;&gt;Node7 -->
<g id="edge10" class="edge">
<title>Node10&#45;&gt;Node7</title>
<path fill="none" stroke="midnightblue" d="M573.62,-19.75C570.45,-27.4 563.7,-38.74 556.92,-48.14"/>
<polygon fill="midnightblue" stroke="midnightblue" points="554.13,-46.03 550.78,-56.08 559.67,-50.31 554.13,-46.03"/>
</g>
<!-- Node14 -->
<g id="node14" class="node">
<title>Node14</title>
<g id="a_node14"><a xlink:href="knlast_8inc.html" target="_top" xlink:title=" ">
<polygon fill="white" stroke="black" points="423,-168.5 423,-187.5 511,-187.5 511,-168.5 423,-168.5"/>
<text text-anchor="middle" x="467" y="-175.5" font-family="Helvetica,sans-Serif" font-size="10.00">kernel/knlast.inc</text>
</a>
</g>
</g>
<!-- Node13&#45;&gt;Node14 -->
<g id="edge15" class="edge">
<title>Node13&#45;&gt;Node14</title>
<path fill="none" stroke="midnightblue" d="M387.26,-224.32C402.22,-215.82 425.25,-202.73 442.73,-192.8"/>
<polygon fill="midnightblue" stroke="midnightblue" points="444.81,-195.64 451.77,-187.65 441.35,-189.55 444.81,-195.64"/>
</g>
<!-- Node15 -->
<g id="node15" class="node">
<title>Node15</title>
<g id="a_node15"><a xlink:href="syscall_8hh.html" target="_top" xlink:title=" ">
<polygon fill="white" stroke="black" points="374.5,-112.5 374.5,-131.5 469.5,-131.5 469.5,-112.5 374.5,-112.5"/>
<text text-anchor="middle" x="422" y="-119.5" font-family="Helvetica,sans-Serif" font-size="10.00">include/syscall.hh</text>
</a>
</g>
</g>
<!-- Node13&#45;&gt;Node15 -->
<g id="edge16" class="edge">
<title>Node13&#45;&gt;Node15</title>
<path fill="none" stroke="midnightblue" d="M375.92,-224.37C384.07,-206.46 402.94,-164.92 413.84,-140.95"/>
<polygon fill="midnightblue" stroke="midnightblue" points="417.14,-142.14 418.09,-131.59 410.77,-139.25 417.14,-142.14"/>
</g>
<!-- Node15&#45;&gt;Node7 -->
<g id="edge17" class="edge">
<title>Node15&#45;&gt;Node7</title>
<path fill="none" stroke="midnightblue" d="M440.7,-112.44C459.94,-103.64 490.15,-89.81 512.2,-79.72"/>
<polygon fill="midnightblue" stroke="midnightblue" points="513.75,-82.86 521.39,-75.52 510.84,-76.5 513.75,-82.86"/>
</g>
<!-- Node16&#45;&gt;Node7 -->
<g id="edge20" class="edge">
<title>Node16&#45;&gt;Node7</title>
<path fill="none" stroke="midnightblue" d="M270.95,-224.3C281.51,-215.65 297.66,-201.72 310,-188 337.87,-156.99 330.54,-135.47 365,-112 401.61,-87.06 451.09,-75.94 488.09,-70.98"/>
<polygon fill="midnightblue" stroke="midnightblue" points="488.68,-74.44 498.17,-69.74 487.82,-67.49 488.68,-74.44"/>
</g>
<!-- Node16&#45;&gt;Node11 -->
<g id="edge21" class="edge">
<title>Node16&#45;&gt;Node11</title>
<path fill="none" stroke="midnightblue" d="M260.33,-224.08C260.59,-217.01 260.97,-206.86 261.3,-197.99"/>
<polygon fill="midnightblue" stroke="midnightblue" points="264.8,-197.87 261.68,-187.75 257.81,-197.61 264.8,-197.87"/>
</g>
<!-- Node16&#45;&gt;Node14 -->
<g id="edge19" class="edge">
<title>Node16&#45;&gt;Node14</title>
<path fill="none" stroke="midnightblue" d="M292.8,-224.44C328.38,-215.16 385.31,-200.31 424.35,-190.13"/>
<polygon fill="midnightblue" stroke="midnightblue" points="425.56,-193.43 434.35,-187.52 423.79,-186.65 425.56,-193.43"/>
</g>
<!-- Node17&#45;&gt;Node14 -->
<g id="edge23" class="edge">
<title>Node17&#45;&gt;Node14</title>
<path fill="none" stroke="midnightblue" d="M552.64,-336.37C534.97,-329.28 512.55,-317.52 499,-300 475.48,-269.6 469.18,-223.43 467.54,-197.81"/>
<polygon fill="midnightblue" stroke="midnightblue" points="471.03,-197.44 467.07,-187.61 464.03,-197.76 471.03,-197.44"/>
</g>
<!-- Node18 -->
<g id="node18" class="node">
<title>Node18</title>
<g id="a_node18"><a xlink:title=" ">
<polygon fill="white" stroke="#bfbfbf" points="714,-224.5 714,-243.5 752,-243.5 752,-224.5 714,-224.5"/>
<text text-anchor="middle" x="733" y="-231.5" font-family="Helvetica,sans-Serif" font-size="10.00">tuple</text>
</a>
</g>
</g>
<!-- Node17&#45;&gt;Node18 -->
<g id="edge24" class="edge">
<title>Node17&#45;&gt;Node18</title>
<path fill="none" stroke="midnightblue" d="M584.17,-336.33C592.65,-322.73 610.72,-296.28 632,-280 643.91,-270.89 678.91,-256.13 704.38,-246.02"/>
<polygon fill="midnightblue" stroke="midnightblue" points="705.91,-249.18 713.94,-242.26 703.35,-242.66 705.91,-249.18"/>
</g>
<!-- Node19 -->
<g id="node19" class="node">
<title>Node19</title>
<g id="a_node19"><a xlink:href="include_2task_8hh.html" target="_top" xlink:title=" ">
<polygon fill="white" stroke="black" points="640.5,-280.5 640.5,-299.5 723.5,-299.5 723.5,-280.5 640.5,-280.5"/>
<text text-anchor="middle" x="682" y="-287.5" font-family="Helvetica,sans-Serif" font-size="10.00">include/task.hh</text>
</a>
</g>
</g>
<!-- Node17&#45;&gt;Node19 -->
<g id="edge25" class="edge">
<title>Node17&#45;&gt;Node19</title>
<path fill="none" stroke="midnightblue" d="M595.55,-336.32C611.99,-327.7 637.43,-314.36 656.47,-304.39"/>
<polygon fill="midnightblue" stroke="midnightblue" points="658.26,-307.4 665.49,-299.65 655.01,-301.2 658.26,-307.4"/>
</g>
<!-- Node20 -->
<g id="node20" class="node">
<title>Node20</title>
<g id="a_node20"><a xlink:href="result_8hh.html" target="_top" xlink:title=" ">
<polygon fill="white" stroke="black" points="770,-224.5 770,-243.5 858,-243.5 858,-224.5 770,-224.5"/>
<text text-anchor="middle" x="814" y="-231.5" font-family="Helvetica,sans-Serif" font-size="10.00">include/result.hh</text>
</a>
</g>
</g>
<!-- Node17&#45;&gt;Node20 -->
<g id="edge26" class="edge">
<title>Node17&#45;&gt;Node20</title>
<path fill="none" stroke="midnightblue" d="M618.25,-337.97C650.37,-331.19 696.32,-319.11 733,-300 757.83,-287.07 782.33,-265.91 797.77,-251.27"/>
<polygon fill="midnightblue" stroke="midnightblue" points="800.63,-253.37 805.36,-243.9 795.75,-248.35 800.63,-253.37"/>
</g>
<!-- Node21 -->
<g id="node21" class="node">
<title>Node21</title>
<g id="a_node21"><a xlink:href="kernel_2trap_8hh.html" target="_top" xlink:title=" ">
<polygon fill="white" stroke="black" points="508,-280.5 508,-299.5 584,-299.5 584,-280.5 508,-280.5"/>
<text text-anchor="middle" x="546" y="-287.5" font-family="Helvetica,sans-Serif" font-size="10.00">kernel/trap.hh</text>
</a>
</g>
</g>
<!-- Node17&#45;&gt;Node21 -->
<g id="edge27" class="edge">
<title>Node17&#45;&gt;Node21</title>
<path fill="none" stroke="midnightblue" d="M573.55,-336.08C568.99,-328.61 562.33,-317.72 556.71,-308.52"/>
<polygon fill="midnightblue" stroke="midnightblue" points="559.55,-306.46 551.35,-299.75 553.58,-310.11 559.55,-306.46"/>
</g>
<!-- Node21&#45;&gt;Node14 -->
<g id="edge36" class="edge">
<title>Node21&#45;&gt;Node14</title>
<path fill="none" stroke="midnightblue" d="M537.52,-280.45C529.05,-271.69 515.9,-257.48 506,-244 494.83,-228.79 483.93,-210.22 476.51,-196.83"/>
<polygon fill="midnightblue" stroke="midnightblue" points="479.42,-194.85 471.56,-187.74 473.27,-198.19 479.42,-194.85"/>
</g>
<!-- Node22 -->
<g id="node22" class="node">
<title>Node22</title>
<g id="a_node22"><a xlink:href="include_2trap_8hh.html" target="_top" xlink:title=" ">
<polygon fill="white" stroke="black" points="616,-224.5 616,-243.5 696,-243.5 696,-224.5 616,-224.5"/>
<text text-anchor="middle" x="656" y="-231.5" font-family="Helvetica,sans-Serif" font-size="10.00">include/trap.hh</text>
</a>
</g>
</g>
<!-- Node21&#45;&gt;Node22 -->
<g id="edge28" class="edge">
<title>Node21&#45;&gt;Node22</title>
<path fill="none" stroke="midnightblue" d="M563.67,-280.32C581.39,-271.62 608.9,-258.12 629.29,-248.11"/>
<polygon fill="midnightblue" stroke="midnightblue" points="630.94,-251.2 638.37,-243.65 627.85,-244.92 630.94,-251.2"/>
</g>
<!-- Node26 -->
<g id="node26" class="node">
<title>Node26</title>
<g id="a_node26"><a xlink:href="panic_8hh.html" target="_top" xlink:title=" ">
<polygon fill="white" stroke="black" points="514.5,-224.5 514.5,-243.5 597.5,-243.5 597.5,-224.5 514.5,-224.5"/>
<text text-anchor="middle" x="556" y="-231.5" font-family="Helvetica,sans-Serif" font-size="10.00">kernel/panic.hh</text>
</a>
</g>
</g>
<!-- Node21&#45;&gt;Node26 -->
<g id="edge37" class="edge">
<title>Node21&#45;&gt;Node26</title>
<path fill="none" stroke="midnightblue" d="M547.65,-280.08C548.98,-272.93 550.88,-262.64 552.54,-253.69"/>
<polygon fill="midnightblue" stroke="midnightblue" points="556,-254.22 554.38,-243.75 549.12,-252.95 556,-254.22"/>
</g>
<!-- Node23 -->
<g id="node23" class="node">
<title>Node23</title>
<g id="a_node23"><a xlink:href="string_8hh.html" target="_top" xlink:title=" ">
<polygon fill="white" stroke="black" points="496,-112.5 496,-131.5 584,-131.5 584,-112.5 496,-112.5"/>
<text text-anchor="middle" x="540" y="-119.5" font-family="Helvetica,sans-Serif" font-size="10.00">include/string.hh</text>
</a>
</g>
</g>
<!-- Node22&#45;&gt;Node23 -->
<g id="edge29" class="edge">
<title>Node22&#45;&gt;Node23</title>
<path fill="none" stroke="midnightblue" d="M646.9,-224.37C627.42,-205.89 581.44,-162.29 556.6,-138.74"/>
<polygon fill="midnightblue" stroke="midnightblue" points="558.72,-135.93 549.06,-131.59 553.91,-141.01 558.72,-135.93"/>
</g>
<!-- Node24 -->
<g id="node24" class="node">
<title>Node24</title>
<g id="a_node24"><a xlink:href="mmu_8h.html" target="_top" xlink:title=" ">
<polygon fill="white" stroke="black" points="602,-112.5 602,-131.5 682,-131.5 682,-112.5 602,-112.5"/>
<text text-anchor="middle" x="642" y="-119.5" font-family="Helvetica,sans-Serif" font-size="10.00">include/mmu.h</text>
</a>
</g>
</g>
<!-- Node22&#45;&gt;Node24 -->
<g id="edge31" class="edge">
<title>Node22&#45;&gt;Node24</title>
<path fill="none" stroke="midnightblue" d="M654.9,-224.37C652.64,-206.62 647.43,-165.67 644.37,-141.6"/>
<polygon fill="midnightblue" stroke="midnightblue" points="647.83,-141.07 643.09,-131.59 640.88,-141.95 647.83,-141.07"/>
</g>
<!-- Node25 -->
<g id="node25" class="node">
<title>Node25</title>
<g id="a_node25"><a xlink:href="memlayout_8h.html" target="_top" xlink:title=" ">
<polygon fill="white" stroke="black" points="667.5,-168.5 667.5,-187.5 774.5,-187.5 774.5,-168.5 667.5,-168.5"/>
<text text-anchor="middle" x="721" y="-175.5" font-family="Helvetica,sans-Serif" font-size="10.00">include/memlayout.h</text>
</a>
</g>
</g>
<!-- Node22&#45;&gt;Node25 -->
<g id="edge33" class="edge">
<title>Node22&#45;&gt;Node25</title>
<path fill="none" stroke="midnightblue" d="M666.44,-224.32C676.15,-216.26 690.82,-204.08 702.5,-194.37"/>
<polygon fill="midnightblue" stroke="midnightblue" points="704.91,-196.92 710.37,-187.83 700.44,-191.53 704.91,-196.92"/>
</g>
<!-- Node23&#45;&gt;Node7 -->
<g id="edge30" class="edge">
<title>Node23&#45;&gt;Node7</title>
<path fill="none" stroke="midnightblue" d="M540,-112.08C540,-105.01 540,-94.86 540,-85.99"/>
<polygon fill="midnightblue" stroke="midnightblue" points="543.5,-85.75 540,-75.75 536.5,-85.75 543.5,-85.75"/>
</g>
<!-- Node24&#45;&gt;Node7 -->
<g id="edge32" class="edge">
<title>Node24&#45;&gt;Node7</title>
<path fill="none" stroke="midnightblue" d="M625.61,-112.32C609.33,-103.7 584.13,-90.36 565.28,-80.39"/>
<polygon fill="midnightblue" stroke="midnightblue" points="566.82,-77.24 556.35,-75.65 563.55,-83.43 566.82,-77.24"/>
</g>
<!-- Node25&#45;&gt;Node7 -->
<g id="edge34" class="edge">
<title>Node25&#45;&gt;Node7</title>
<path fill="none" stroke="midnightblue" d="M719.42,-168.47C716.39,-154.59 708.47,-127.14 691,-112 663.39,-88.08 623.5,-76.87 591.64,-71.62"/>
<polygon fill="midnightblue" stroke="midnightblue" points="592.02,-68.13 581.61,-70.11 590.98,-75.06 592.02,-68.13"/>
</g>
<!-- Node25&#45;&gt;Node24 -->
<g id="edge35" class="edge">
<title>Node25&#45;&gt;Node24</title>
<path fill="none" stroke="midnightblue" d="M708.31,-168.32C696.1,-159.98 677.42,-147.21 663,-137.35"/>
<polygon fill="midnightblue" stroke="midnightblue" points="664.89,-134.41 654.66,-131.65 660.94,-140.19 664.89,-134.41"/>
</g>
<!-- Node26&#45;&gt;Node14 -->
<g id="edge38" class="edge">
<title>Node26&#45;&gt;Node14</title>
<path fill="none" stroke="midnightblue" d="M541.7,-224.32C527.82,-215.9 506.51,-202.97 490.2,-193.07"/>
<polygon fill="midnightblue" stroke="midnightblue" points="491.63,-189.85 481.26,-187.65 488,-195.83 491.63,-189.85"/>
</g>
<!-- Node27&#45;&gt;Node14 -->
<g id="edge40" class="edge">
<title>Node27&#45;&gt;Node14</title>
<path fill="none" stroke="midnightblue" d="M836.05,-280.48C854.32,-267.54 883.53,-242.49 867,-224 844.35,-198.66 625.17,-185.85 521.21,-181.16"/>
<polygon fill="midnightblue" stroke="midnightblue" points="521.36,-177.66 511.22,-180.71 521.05,-184.65 521.36,-177.66"/>
</g>
<!-- Node27&#45;&gt;Node18 -->
<g id="edge41" class="edge">
<title>Node27&#45;&gt;Node18</title>
<path fill="none" stroke="midnightblue" d="M808.54,-280.32C794.5,-271.9 772.95,-258.97 756.46,-249.07"/>
<polygon fill="midnightblue" stroke="midnightblue" points="757.8,-245.8 747.42,-243.65 754.2,-251.8 757.8,-245.8"/>
</g>
<!-- Node27&#45;&gt;Node20 -->
<g id="edge45" class="edge">
<title>Node27&#45;&gt;Node20</title>
<path fill="none" stroke="midnightblue" d="M821.51,-280.08C820.32,-272.93 818.61,-262.64 817.12,-253.69"/>
<polygon fill="midnightblue" stroke="midnightblue" points="820.55,-253.04 815.46,-243.75 813.65,-254.19 820.55,-253.04"/>
</g>
<!-- Node27&#45;&gt;Node25 -->
<g id="edge44" class="edge">
<title>Node27&#45;&gt;Node25</title>
<path fill="none" stroke="midnightblue" d="M847.9,-280.46C876.9,-269.16 918.61,-247.87 900,-224 885.71,-205.68 830.16,-193.67 784.69,-186.71"/>
<polygon fill="midnightblue" stroke="midnightblue" points="784.97,-183.21 774.57,-185.21 783.95,-190.14 784.97,-183.21"/>
</g>
<!-- Node27&#45;&gt;Node26 -->
<g id="edge46" class="edge">
<title>Node27&#45;&gt;Node26</title>
<path fill="none" stroke="midnightblue" d="M780.69,-280.44C733.78,-270.96 658.1,-255.65 607.71,-245.46"/>
<polygon fill="midnightblue" stroke="midnightblue" points="608.16,-241.98 597.67,-243.43 606.78,-248.84 608.16,-241.98"/>
</g>
<!-- Node28 -->
<g id="node28" class="node">
<title>Node28</title>
<g id="a_node28"><a xlink:href="x86_8h.html" target="_top" xlink:title=" ">
<polygon fill="white" stroke="black" points="836,-112.5 836,-131.5 910,-131.5 910,-112.5 836,-112.5"/>
<text text-anchor="middle" x="873" y="-119.5" font-family="Helvetica,sans-Serif" font-size="10.00">include/x86.h</text>
</a>
</g>
</g>
<!-- Node27&#45;&gt;Node28 -->
<g id="edge42" class="edge">
<title>Node27&#45;&gt;Node28</title>
<path fill="none" stroke="midnightblue" d="M862.25,-280.48C882,-273.99 904.18,-262.84 916,-244 937.31,-210.02 907.43,-164.04 887.79,-139.71"/>
<polygon fill="midnightblue" stroke="midnightblue" points="890.24,-137.19 881.13,-131.79 884.88,-141.69 890.24,-137.19"/>
</g>
<!-- Node28&#45;&gt;Node7 -->
<g id="edge43" class="edge">
<title>Node28&#45;&gt;Node7</title>
<path fill="none" stroke="midnightblue" d="M835.77,-114.96C776.2,-105.3 659.31,-86.35 591.68,-75.38"/>
<polygon fill="midnightblue" stroke="midnightblue" points="592.1,-71.9 581.67,-73.76 590.98,-78.81 592.1,-71.9"/>
</g>
</g>
</svg>
        <g id="navigator" transform="translate(0 0)" fill="#404254">
                <rect fill="#f2f5e9" fill-opacity="0.5" stroke="#606060" stroke-width=".5" x="0" y="0" width="60" height="60"/>
                <use id="zoomplus" xlink:href="#zoomPlus" x="17" y="9" onmousedown="handleZoom(evt,'in')"/>
                <use id="zoomminus" xlink:href="#zoomMin" x="42" y="9" onmousedown="handleZoom(evt,'out')"/>
                <use id="reset" xlink:href="#resetDef" x="30" y="36" onmousedown="handleReset()"/>
                <g id="arrowUp" xlink:href="#dirArrow" transform="translate(30 24)" onmousedown="handlePan(0,-1)">
                  <use xlink:href="#rim" fill="#404040">
                        <set attributeName="fill" to="#808080" begin="arrowUp.mouseover" end="arrowUp.mouseout"/>
                  </use>
                  <path fill="none" stroke="white" stroke-width="1.5" d="M0,-3.0v7 M-2.5,-0.5L0,-3.0L2.5,-0.5"/>
                </g>
                <g id="arrowRight" xlink:href="#dirArrow" transform="rotate(90) translate(36 -43)" onmousedown="handlePan(1,0)">
                  <use xlink:href="#rim" fill="#404040">
                        <set attributeName="fill" to="#808080" begin="arrowRight.mouseover" end="arrowRight.mouseout"/>
                  </use>
                  <path fill="none" stroke="white" stroke-width="1.5" d="M0,-3.0v7 M-2.5,-0.5L0,-3.0L2.5,-0.5"/>
                </g>
                <g id="arrowDown" xlink:href="#dirArrow" transform="rotate(180) translate(-30 -48)" onmousedown="handlePan(0,1)">
                  <use xlink:href="#rim" fill="#404040">
                        <set attributeName="fill" to="#808080" begin="arrowDown.mouseover" end="arrowDown.mouseout"/>
                  </use>
                  <path fill="none" stroke="white" stroke-width="1.5" d="M0,-3.0v7 M-2.5,-0.5L0,-3.0L2.5,-0.5"/>
                </g>
                <g id="arrowLeft" xlink:href="#dirArrow" transform="rotate(270) translate(-36 17)" onmousedown="handlePan(-1,0)">
                  <use xlink:href="#rim" fill="#404040">
                        <set attributeName="fill" to="#808080" begin="arrowLeft.mouseover" end="arrowLeft.mouseout"/>
                  </use>
                  <path fill="none" stroke="white" stroke-width="1.5" d="M0,-3.0v7 M-2.5,-0.5L0,-3.0L2.5,-0.5"/>
                </g>
        </g>
        <svg viewBox="0 0 15 15" width="100%" height="30px" preserveAspectRatio="xMaxYMin meet">
         <g id="arrow_out" transform="scale(0.3 0.3)">
          <a xlink:href="ksyscall_8cc__incl_org.svg" target="_base">
           <rect id="button" ry="5" rx="5" y="6" x="6" height="38" width="38"
                fill="#f2f5e9" fill-opacity="0.5" stroke="#606060" stroke-width="1.0"/>
           <path id="arrow"
             d="M 11.500037,31.436501 C 11.940474,20.09759 22.043105,11.32322 32.158766,21.979434 L 37.068811,17.246167 C 37.068811,17.246167 37.088388,32 37.088388,32 L 22.160133,31.978069 C 22.160133,31.978069 26.997745,27.140456 26.997745,27.140456 C 18.528582,18.264221 13.291696,25.230495 11.500037,31.436501 z"
             style="fill:#404040;"/>
          </a>
         </g>
        </svg>
</svg>
