<?xml version="1.0" encoding="UTF-8" standalone="no"?>
<!DOCTYPE svg PUBLIC "-//W3C//DTD SVG 1.1//EN"
 "http://www.w3.org/Graphics/SVG/1.1/DTD/svg11.dtd">
<!-- Generated by graphviz version 2.44.1 (20200629.0846)
 -->
<!-- Title: readsect Pages: 1 -->
<svg width="216pt" height="104pt"
 viewBox="0.00 0.00 216.00 104.00" xmlns="http://www.w3.org/2000/svg" xmlns:xlink="http://www.w3.org/1999/xlink">
<g id="graph0" class="graph" transform="scale(1 1) rotate(0) translate(4 100)">
<title>readsect</title>
<polygon fill="white" stroke="transparent" points="-4,4 -4,-100 212,-100 212,4 -4,4"/>
<!-- Node1 -->
<g id="node1" class="node">
<title>Node1</title>
<g id="a_node1"><a xlink:title=" ">
<polygon fill="#bfbfbf" stroke="black" points="0,-38.5 0,-57.5 54,-57.5 54,-38.5 0,-38.5"/>
<text text-anchor="middle" x="27" y="-45.5" font-family="Helvetica,sans-Serif" font-size="10.00">readsect</text>
</a>
</g>
</g>
<!-- Node2 -->
<g id="node2" class="node">
<title>Node2</title>
<g id="a_node2"><a xlink:href="x86_8h.html#afa75519f8fc7778abeebd0b9bdc82569" target="_top" xlink:title=" ">
<polygon fill="white" stroke="black" points="100.5,-76.5 100.5,-95.5 132.5,-95.5 132.5,-76.5 100.5,-76.5"/>
<text text-anchor="middle" x="116.5" y="-83.5" font-family="Helvetica,sans-Serif" font-size="10.00">insl</text>
</a>
</g>
</g>
<!-- Node1&#45;&gt;Node2 -->
<g id="edge1" class="edge">
<title>Node1&#45;&gt;Node2</title>
<path fill="none" stroke="midnightblue" d="M50.08,-57.59C62.59,-63.02 78.25,-69.82 91.12,-75.41"/>
<polygon fill="midnightblue" stroke="midnightblue" points="89.75,-78.63 100.31,-79.41 92.54,-72.21 89.75,-78.63"/>
</g>
<!-- Node3 -->
<g id="node3" class="node">
<title>Node3</title>
<g id="a_node3"><a xlink:href="x86_8h.html#ade961b44e45ddacbc3c3b7609cf36dc6" target="_top" xlink:title=" ">
<polygon fill="white" stroke="black" points="99,-38.5 99,-57.5 134,-57.5 134,-38.5 99,-38.5"/>
<text text-anchor="middle" x="116.5" y="-45.5" font-family="Helvetica,sans-Serif" font-size="10.00">outb</text>
</a>
</g>
</g>
<!-- Node1&#45;&gt;Node3 -->
<g id="edge2" class="edge">
<title>Node1&#45;&gt;Node3</title>
<path fill="none" stroke="midnightblue" d="M54.25,-48C65.13,-48 77.73,-48 88.66,-48"/>
<polygon fill="midnightblue" stroke="midnightblue" points="88.91,-51.5 98.91,-48 88.91,-44.5 88.91,-51.5"/>
</g>
<!-- Node4 -->
<g id="node4" class="node">
<title>Node4</title>
<g id="a_node4"><a xlink:href="main_8c.html#a63222d4a07c38c198de5bd116a001935" target="_top" xlink:title=" ">
<polygon fill="white" stroke="black" points="90,-0.5 90,-19.5 143,-19.5 143,-0.5 90,-0.5"/>
<text text-anchor="middle" x="116.5" y="-7.5" font-family="Helvetica,sans-Serif" font-size="10.00">waitdisk</text>
</a>
</g>
</g>
<!-- Node1&#45;&gt;Node4 -->
<g id="edge3" class="edge">
<title>Node1&#45;&gt;Node4</title>
<path fill="none" stroke="midnightblue" d="M50.08,-38.41C60.34,-33.96 72.73,-28.58 83.95,-23.7"/>
<polygon fill="midnightblue" stroke="midnightblue" points="85.65,-26.78 93.43,-19.59 82.86,-20.36 85.65,-26.78"/>
</g>
<!-- Node5 -->
<g id="node5" class="node">
<title>Node5</title>
<g id="a_node5"><a xlink:href="x86_8h.html#afdc603aa210ab8fd9995ce74940f5d7f" target="_top" xlink:title=" ">
<polygon fill="white" stroke="black" points="179,-0.5 179,-19.5 208,-19.5 208,-0.5 179,-0.5"/>
<text text-anchor="middle" x="193.5" y="-7.5" font-family="Helvetica,sans-Serif" font-size="10.00">inb</text>
</a>
</g>
</g>
<!-- Node4&#45;&gt;Node5 -->
<g id="edge4" class="edge">
<title>Node4&#45;&gt;Node5</title>
<path fill="none" stroke="midnightblue" d="M143.31,-10C151.47,-10 160.44,-10 168.47,-10"/>
<polygon fill="midnightblue" stroke="midnightblue" points="168.66,-13.5 178.66,-10 168.66,-6.5 168.66,-13.5"/>
</g>
</g>
</svg>
