<?xml version="1.0" encoding="UTF-8" standalone="no"?>
<!DOCTYPE svg PUBLIC "-//W3C//DTD SVG 1.1//EN"
 "http://www.w3.org/Graphics/SVG/1.1/DTD/svg11.dtd">
<!-- Generated by graphviz version 2.44.1 (20200629.0846)
 -->
<!-- Title: bootmain Pages: 1 -->
<svg width="399pt" height="123pt"
 viewBox="0.00 0.00 399.00 123.00" xmlns="http://www.w3.org/2000/svg" xmlns:xlink="http://www.w3.org/1999/xlink">
<g id="graph0" class="graph" transform="scale(1 1) rotate(0) translate(4 119)">
<title>bootmain</title>
<polygon fill="white" stroke="transparent" points="-4,4 -4,-119 395,-119 395,4 -4,4"/>
<!-- Node1 -->
<g id="node1" class="node">
<title>Node1</title>
<g id="a_node1"><a xlink:title=" ">
<polygon fill="#bfbfbf" stroke="black" points="0,-76.5 0,-95.5 56,-95.5 56,-76.5 0,-76.5"/>
<text text-anchor="middle" x="28" y="-83.5" font-family="Helvetica,sans-Serif" font-size="10.00">bootmain</text>
</a>
</g>
</g>
<!-- Node2 -->
<g id="node2" class="node">
<title>Node2</title>
<g id="a_node2"><a xlink:href="x86_8h.html#af92fc55c49437b9152499a13ba2b6585" target="_top" xlink:title=" ">
<polygon fill="white" stroke="black" points="98.5,-95.5 98.5,-114.5 136.5,-114.5 136.5,-95.5 98.5,-95.5"/>
<text text-anchor="middle" x="117.5" y="-102.5" font-family="Helvetica,sans-Serif" font-size="10.00">outw</text>
</a>
</g>
</g>
<!-- Node1&#45;&gt;Node2 -->
<g id="edge1" class="edge">
<title>Node1&#45;&gt;Node2</title>
<path fill="none" stroke="midnightblue" d="M56.21,-91.91C66.52,-94.15 78.26,-96.7 88.63,-98.95"/>
<polygon fill="midnightblue" stroke="midnightblue" points="87.92,-102.38 98.44,-101.08 89.41,-95.54 87.92,-102.38"/>
</g>
<!-- Node3 -->
<g id="node3" class="node">
<title>Node3</title>
<g id="a_node3"><a xlink:href="main_8c.html#a687601dc22e8d4d8407608c91fd325eb" target="_top" xlink:title=" ">
<polygon fill="white" stroke="black" points="92,-57.5 92,-76.5 143,-76.5 143,-57.5 92,-57.5"/>
<text text-anchor="middle" x="117.5" y="-64.5" font-family="Helvetica,sans-Serif" font-size="10.00">readseg</text>
</a>
</g>
</g>
<!-- Node1&#45;&gt;Node3 -->
<g id="edge2" class="edge">
<title>Node1&#45;&gt;Node3</title>
<path fill="none" stroke="midnightblue" d="M56.21,-80.09C64.43,-78.31 73.56,-76.32 82.18,-74.45"/>
<polygon fill="midnightblue" stroke="midnightblue" points="82.95,-77.87 91.98,-72.32 81.47,-71.03 82.95,-77.87"/>
</g>
<!-- Node4 -->
<g id="node4" class="node">
<title>Node4</title>
<g id="a_node4"><a xlink:href="namespacestr.html#a062221f630647cf300f0dd982c4ed904" target="_top" xlink:title=" ">
<polygon fill="white" stroke="black" points="179,-76.5 179,-95.5 237,-95.5 237,-76.5 179,-76.5"/>
<text text-anchor="middle" x="208" y="-83.5" font-family="Helvetica,sans-Serif" font-size="10.00">str::count</text>
</a>
</g>
</g>
<!-- Node3&#45;&gt;Node4 -->
<g id="edge3" class="edge">
<title>Node3&#45;&gt;Node4</title>
<path fill="none" stroke="midnightblue" d="M143.15,-72.29C151.09,-74 160.09,-75.93 168.77,-77.79"/>
<polygon fill="midnightblue" stroke="midnightblue" points="168.22,-81.25 178.73,-79.93 169.69,-74.41 168.22,-81.25"/>
</g>
<!-- Node5 -->
<g id="node5" class="node">
<title>Node5</title>
<g id="a_node5"><a xlink:href="main_8c.html#a8bc2062a175b7c74607a2498ac997657" target="_top" xlink:title=" ">
<polygon fill="white" stroke="black" points="181,-38.5 181,-57.5 235,-57.5 235,-38.5 181,-38.5"/>
<text text-anchor="middle" x="208" y="-45.5" font-family="Helvetica,sans-Serif" font-size="10.00">readsect</text>
</a>
</g>
</g>
<!-- Node3&#45;&gt;Node5 -->
<g id="edge4" class="edge">
<title>Node3&#45;&gt;Node5</title>
<path fill="none" stroke="midnightblue" d="M143.15,-61.71C151.79,-59.85 161.68,-57.73 171.05,-55.72"/>
<polygon fill="midnightblue" stroke="midnightblue" points="171.89,-59.12 180.94,-53.6 170.42,-52.27 171.89,-59.12"/>
</g>
<!-- Node6 -->
<g id="node6" class="node">
<title>Node6</title>
<g id="a_node6"><a xlink:href="x86_8h.html#afa75519f8fc7778abeebd0b9bdc82569" target="_top" xlink:title=" ">
<polygon fill="white" stroke="black" points="283.5,-76.5 283.5,-95.5 315.5,-95.5 315.5,-76.5 283.5,-76.5"/>
<text text-anchor="middle" x="299.5" y="-83.5" font-family="Helvetica,sans-Serif" font-size="10.00">insl</text>
</a>
</g>
</g>
<!-- Node5&#45;&gt;Node6 -->
<g id="edge5" class="edge">
<title>Node5&#45;&gt;Node6</title>
<path fill="none" stroke="midnightblue" d="M231.58,-57.59C244.46,-63.06 260.61,-69.91 273.82,-75.52"/>
<polygon fill="midnightblue" stroke="midnightblue" points="272.67,-78.83 283.24,-79.52 275.4,-72.39 272.67,-78.83"/>
</g>
<!-- Node7 -->
<g id="node7" class="node">
<title>Node7</title>
<g id="a_node7"><a xlink:href="x86_8h.html#ade961b44e45ddacbc3c3b7609cf36dc6" target="_top" xlink:title=" ">
<polygon fill="white" stroke="black" points="282,-38.5 282,-57.5 317,-57.5 317,-38.5 282,-38.5"/>
<text text-anchor="middle" x="299.5" y="-45.5" font-family="Helvetica,sans-Serif" font-size="10.00">outb</text>
</a>
</g>
</g>
<!-- Node5&#45;&gt;Node7 -->
<g id="edge6" class="edge">
<title>Node5&#45;&gt;Node7</title>
<path fill="none" stroke="midnightblue" d="M235.37,-48C246.78,-48 260.12,-48 271.59,-48"/>
<polygon fill="midnightblue" stroke="midnightblue" points="271.89,-51.5 281.89,-48 271.89,-44.5 271.89,-51.5"/>
</g>
<!-- Node8 -->
<g id="node8" class="node">
<title>Node8</title>
<g id="a_node8"><a xlink:href="main_8c.html#a63222d4a07c38c198de5bd116a001935" target="_top" xlink:title=" ">
<polygon fill="white" stroke="black" points="273,-0.5 273,-19.5 326,-19.5 326,-0.5 273,-0.5"/>
<text text-anchor="middle" x="299.5" y="-7.5" font-family="Helvetica,sans-Serif" font-size="10.00">waitdisk</text>
</a>
</g>
</g>
<!-- Node5&#45;&gt;Node8 -->
<g id="edge7" class="edge">
<title>Node5&#45;&gt;Node8</title>
<path fill="none" stroke="midnightblue" d="M231.58,-38.41C242.18,-33.91 255,-28.47 266.57,-23.56"/>
<polygon fill="midnightblue" stroke="midnightblue" points="268.09,-26.72 275.92,-19.59 265.35,-20.27 268.09,-26.72"/>
</g>
<!-- Node9 -->
<g id="node9" class="node">
<title>Node9</title>
<g id="a_node9"><a xlink:href="x86_8h.html#afdc603aa210ab8fd9995ce74940f5d7f" target="_top" xlink:title=" ">
<polygon fill="white" stroke="black" points="362,-0.5 362,-19.5 391,-19.5 391,-0.5 362,-0.5"/>
<text text-anchor="middle" x="376.5" y="-7.5" font-family="Helvetica,sans-Serif" font-size="10.00">inb</text>
</a>
</g>
</g>
<!-- Node8&#45;&gt;Node9 -->
<g id="edge8" class="edge">
<title>Node8&#45;&gt;Node9</title>
<path fill="none" stroke="midnightblue" d="M326.31,-10C334.47,-10 343.44,-10 351.47,-10"/>
<polygon fill="midnightblue" stroke="midnightblue" points="351.66,-13.5 361.66,-10 351.66,-6.5 351.66,-13.5"/>
</g>
</g>
</svg>
