<?xml version="1.0" encoding="UTF-8" standalone="no"?>
<!DOCTYPE svg PUBLIC "-//W3C//DTD SVG 1.1//EN"
 "http://www.w3.org/Graphics/SVG/1.1/DTD/svg11.dtd">
<!-- Generated by graphviz version 2.44.1 (20200629.0846)
 -->
<!-- Title: memlayout.h Pages: 1 -->
<!--zoomable 308 -->
<svg id="main" version="1.1" xmlns="http://www.w3.org/2000/svg" xmlns:xlink="http://www.w3.org/1999/xlink" xml:space="preserve" onload="init(evt)">
<style type="text/css"><![CDATA[
.edge:hover path { stroke: red; }
.edge:hover polygon { stroke: red; fill: red; }
]]></style>
<script type="text/javascript"><![CDATA[
var edges = document.getElementsByTagName('g');
if (edges && edges.length) {
  for (var i=0;i<edges.length;i++) {
    if (edges[i].id.substr(0,4)=='edge') {
      edges[i].setAttribute('class','edge');
    }
  }
}
]]></script>
        <defs>
                <circle id="rim" cx="0" cy="0" r="7"/>
                <circle id="rim2" cx="0" cy="0" r="3.5"/>
                <g id="zoomPlus">
                        <use xlink:href="#rim" fill="#404040">
                                <set attributeName="fill" to="#808080" begin="zoomplus.mouseover" end="zoomplus.mouseout"/>
                        </use>
                        <path d="M-4,0h8M0,-4v8" fill="none" stroke="white" stroke-width="1.5" pointer-events="none"/>
                </g>
                <g id="zoomMin">
                        <use xlink:href="#rim" fill="#404040">
                                <set attributeName="fill" to="#808080" begin="zoomminus.mouseover" end="zoomminus.mouseout"/>
                        </use>
                        <path d="M-4,0h8" fill="none" stroke="white" stroke-width="1.5" pointer-events="none"/>
                </g>
                <g id="dirArrow">
                        <path fill="none" stroke="white" stroke-width="1.5" d="M0,-3.0v7 M-2.5,-0.5L0,-3.0L2.5,-0.5"/>
                </g>
               <g id="resetDef">
                       <use xlink:href="#rim2" fill="#404040">
                               <set attributeName="fill" to="#808080" begin="reset.mouseover" end="reset.mouseout"/>
                       </use>
               </g>
        </defs>

<script type="text/javascript">
var viewWidth = 857;
var viewHeight = 308;
var sectionId = 'dynsection-1';
</script>
<script xlink:href="svgpan.js"/>
<svg id="graph" class="graph">
<g id="viewport">
<title>memlayout.h</title>
<polygon fill="white" stroke="transparent" points="-4,4 -4,-304 852.51,-304 852.51,4 -4,4"/>
<!-- Node1 -->
<g id="node1" class="node">
<title>Node1</title>
<g id="a_node1"><a xlink:title=" ">
<polygon fill="#bfbfbf" stroke="black" points="581.89,-280.5 581.89,-299.5 654.89,-299.5 654.89,-280.5 581.89,-280.5"/>
<text text-anchor="middle" x="618.39" y="-287.5" font-family="Helvetica,sans-Serif" font-size="10.00">memlayout.h</text>
</a>
</g>
</g>
<!-- Node2 -->
<g id="node2" class="node">
<title>Node2</title>
<g id="a_node2"><a xlink:href="include_2trap_8hh.html" target="_top" xlink:title=" ">
<polygon fill="white" stroke="black" points="147.89,-224.5 147.89,-243.5 194.89,-243.5 194.89,-224.5 147.89,-224.5"/>
<text text-anchor="middle" x="171.39" y="-231.5" font-family="Helvetica,sans-Serif" font-size="10.00">trap.hh</text>
</a>
</g>
</g>
<!-- Node1&#45;&gt;Node2 -->
<g id="edge1" class="edge">
<title>Node1&#45;&gt;Node2</title>
<path fill="none" stroke="midnightblue" d="M571.68,-283.36C477.05,-271.93 265.73,-246.4 194.98,-237.85"/>
<polygon fill="midnightblue" stroke="midnightblue" points="571.47,-286.86 581.81,-284.58 572.31,-279.91 571.47,-286.86"/>
</g>
<!-- Node13 -->
<g id="node13" class="node">
<title>Node13</title>
<g id="a_node13"><a xlink:href="vmem_8cc.html" target="_top" xlink:title=" ">
<polygon fill="white" stroke="black" points="432.89,-56.5 432.89,-75.5 489.89,-75.5 489.89,-56.5 432.89,-56.5"/>
<text text-anchor="middle" x="461.39" y="-63.5" font-family="Helvetica,sans-Serif" font-size="10.00">vmem.cc</text>
</a>
</g>
</g>
<!-- Node1&#45;&gt;Node13 -->
<g id="edge36" class="edge">
<title>Node1&#45;&gt;Node13</title>
<path fill="none" stroke="midnightblue" d="M586.41,-276.21C570.9,-268.71 552.96,-257.94 540.39,-244 492.4,-190.76 469.58,-103.58 463.27,-75.8"/>
<polygon fill="midnightblue" stroke="midnightblue" points="585.13,-279.47 595.68,-280.45 588.04,-273.11 585.13,-279.47"/>
</g>
<!-- Node16 -->
<g id="node16" class="node">
<title>Node16</title>
<g id="a_node16"><a xlink:href="hello_8cc.html" target="_top" xlink:title=" ">
<polygon fill="white" stroke="black" points="405.39,-112.5 405.39,-131.5 455.39,-131.5 455.39,-112.5 405.39,-112.5"/>
<text text-anchor="middle" x="430.39" y="-119.5" font-family="Helvetica,sans-Serif" font-size="10.00">hello.cc</text>
</a>
</g>
</g>
<!-- Node1&#45;&gt;Node16 -->
<g id="edge37" class="edge">
<title>Node1&#45;&gt;Node16</title>
<path fill="none" stroke="midnightblue" d="M590.91,-275.83C575.33,-267.72 555.92,-256.51 540.39,-244 495.51,-207.85 452.64,-152.94 436.81,-131.76"/>
<polygon fill="midnightblue" stroke="midnightblue" points="589.54,-279.06 600.04,-280.45 592.7,-272.81 589.54,-279.06"/>
</g>
<!-- Node19 -->
<g id="node19" class="node">
<title>Node19</title>
<g id="a_node19"><a xlink:href="entrypgdir_8c.html" target="_top" xlink:title=" ">
<polygon fill="white" stroke="black" points="549.89,-224.5 549.89,-243.5 616.89,-243.5 616.89,-224.5 549.89,-224.5"/>
<text text-anchor="middle" x="583.39" y="-231.5" font-family="Helvetica,sans-Serif" font-size="10.00">entrypgdir.c</text>
</a>
</g>
</g>
<!-- Node1&#45;&gt;Node19 -->
<g id="edge25" class="edge">
<title>Node1&#45;&gt;Node19</title>
<path fill="none" stroke="midnightblue" d="M607.09,-271.57C601.07,-262.27 593.92,-251.25 589.07,-243.75"/>
<polygon fill="midnightblue" stroke="midnightblue" points="604.24,-273.6 612.61,-280.08 610.11,-269.79 604.24,-273.6"/>
</g>
<!-- Node20 -->
<g id="node20" class="node">
<title>Node20</title>
<g id="a_node20"><a xlink:href="gdt_8c.html" target="_top" xlink:title=" ">
<polygon fill="white" stroke="black" points="635.39,-224.5 635.39,-243.5 673.39,-243.5 673.39,-224.5 635.39,-224.5"/>
<text text-anchor="middle" x="654.39" y="-231.5" font-family="Helvetica,sans-Serif" font-size="10.00">gdt.c</text>
</a>
</g>
</g>
<!-- Node1&#45;&gt;Node20 -->
<g id="edge26" class="edge">
<title>Node1&#45;&gt;Node20</title>
<path fill="none" stroke="midnightblue" d="M630.02,-271.57C636.21,-262.27 643.56,-251.25 648.56,-243.75"/>
<polygon fill="midnightblue" stroke="midnightblue" points="626.97,-269.82 624.34,-280.08 632.8,-273.7 626.97,-269.82"/>
</g>
<!-- Node21 -->
<g id="node21" class="node">
<title>Node21</title>
<g id="a_node21"><a xlink:href="console_8cc.html" target="_top" xlink:title=" ">
<polygon fill="white" stroke="black" points="691.39,-224.5 691.39,-243.5 755.39,-243.5 755.39,-224.5 691.39,-224.5"/>
<text text-anchor="middle" x="723.39" y="-231.5" font-family="Helvetica,sans-Serif" font-size="10.00">console.cc</text>
</a>
</g>
</g>
<!-- Node1&#45;&gt;Node21 -->
<g id="edge27" class="edge">
<title>Node1&#45;&gt;Node21</title>
<path fill="none" stroke="midnightblue" d="M644.2,-275.73C663.65,-265.73 689.74,-252.31 706.56,-243.65"/>
<polygon fill="midnightblue" stroke="midnightblue" points="642.56,-272.64 635.26,-280.32 645.76,-278.86 642.56,-272.64"/>
</g>
<!-- Node22 -->
<g id="node22" class="node">
<title>Node22</title>
<g id="a_node22"><a xlink:href="kdebug_8cc.html" target="_top" xlink:title=" ">
<polygon fill="white" stroke="black" points="773.39,-224.5 773.39,-243.5 835.39,-243.5 835.39,-224.5 773.39,-224.5"/>
<text text-anchor="middle" x="804.39" y="-231.5" font-family="Helvetica,sans-Serif" font-size="10.00">kdebug.cc</text>
</a>
</g>
</g>
<!-- Node1&#45;&gt;Node22 -->
<g id="edge28" class="edge">
<title>Node1&#45;&gt;Node22</title>
<path fill="none" stroke="midnightblue" d="M657.77,-277.57C692.86,-267.38 743.41,-252.7 775.06,-243.52"/>
<polygon fill="midnightblue" stroke="midnightblue" points="656.49,-274.29 647.87,-280.44 658.44,-281.02 656.49,-274.29"/>
</g>
<!-- Node23 -->
<g id="node23" class="node">
<title>Node23</title>
<g id="a_node23"><a xlink:href="vmem_8hh.html" target="_top" xlink:title=" ">
<polygon fill="white" stroke="black" points="511.89,-112.5 511.89,-131.5 568.89,-131.5 568.89,-112.5 511.89,-112.5"/>
<text text-anchor="middle" x="540.39" y="-119.5" font-family="Helvetica,sans-Serif" font-size="10.00">vmem.hh</text>
</a>
</g>
</g>
<!-- Node1&#45;&gt;Node23 -->
<g id="edge29" class="edge">
<title>Node1&#45;&gt;Node23</title>
<path fill="none" stroke="midnightblue" d="M665.29,-286.46C724.74,-282.15 822.19,-271.06 844.39,-244 850.03,-237.13 849.59,-231.21 844.39,-224 779.64,-134.25 631.86,-123 569.26,-122.44"/>
<polygon fill="midnightblue" stroke="midnightblue" points="664.75,-282.99 655.02,-287.17 665.23,-289.97 664.75,-282.99"/>
</g>
<!-- Node3 -->
<g id="node3" class="node">
<title>Node3</title>
<g id="a_node3"><a xlink:href="mp_8cc.html" target="_top" xlink:title=" ">
<polygon fill="white" stroke="black" points="236.39,-0.5 236.39,-19.5 280.39,-19.5 280.39,-0.5 236.39,-0.5"/>
<text text-anchor="middle" x="258.39" y="-7.5" font-family="Helvetica,sans-Serif" font-size="10.00">mp.cc</text>
</a>
</g>
</g>
<!-- Node2&#45;&gt;Node3 -->
<g id="edge2" class="edge">
<title>Node2&#45;&gt;Node3</title>
<path fill="none" stroke="midnightblue" d="M138.07,-222.84C116.44,-215.28 88.29,-203.59 66.39,-188 15.41,-151.72 -23.44,-103.42 17.39,-56 45.72,-23.1 181.94,-14.06 236.11,-11.74"/>
<polygon fill="midnightblue" stroke="midnightblue" points="137.22,-226.24 147.81,-226.12 139.45,-219.61 137.22,-226.24"/>
</g>
<!-- Node4 -->
<g id="node4" class="node">
<title>Node4</title>
<g id="a_node4"><a xlink:href="kernel_2trap_8hh.html" target="_top" xlink:title=" ">
<polygon fill="white" stroke="black" points="75.89,-168.5 75.89,-187.5 122.89,-187.5 122.89,-168.5 75.89,-168.5"/>
<text text-anchor="middle" x="99.39" y="-175.5" font-family="Helvetica,sans-Serif" font-size="10.00">trap.hh</text>
</a>
</g>
</g>
<!-- Node2&#45;&gt;Node4 -->
<g id="edge3" class="edge">
<title>Node2&#45;&gt;Node4</title>
<path fill="none" stroke="midnightblue" d="M151.53,-218.1C138.57,-208.38 122.1,-196.03 111.17,-187.83"/>
<polygon fill="midnightblue" stroke="midnightblue" points="149.72,-221.12 159.83,-224.32 153.93,-215.52 149.72,-221.12"/>
</g>
<!-- Node14 -->
<g id="node14" class="node">
<title>Node14</title>
<g id="a_node14"><a xlink:href="stdlib_8hh.html" target="_top" xlink:title=" ">
<polygon fill="white" stroke="black" points="252.89,-168.5 252.89,-187.5 305.89,-187.5 305.89,-168.5 252.89,-168.5"/>
<text text-anchor="middle" x="279.39" y="-175.5" font-family="Helvetica,sans-Serif" font-size="10.00">stdlib.hh</text>
</a>
</g>
</g>
<!-- Node2&#45;&gt;Node14 -->
<g id="edge20" class="edge">
<title>Node2&#45;&gt;Node14</title>
<path fill="none" stroke="midnightblue" d="M197.94,-219.73C217.94,-209.73 244.78,-196.31 262.08,-187.65"/>
<polygon fill="midnightblue" stroke="midnightblue" points="196.12,-216.72 188.75,-224.32 199.25,-222.98 196.12,-216.72"/>
</g>
<!-- Node5 -->
<g id="node5" class="node">
<title>Node5</title>
<g id="a_node5"><a xlink:href="monitor_8hh.html" target="_top" xlink:title=" ">
<polygon fill="white" stroke="black" points="31.39,-112.5 31.39,-131.5 93.39,-131.5 93.39,-112.5 31.39,-112.5"/>
<text text-anchor="middle" x="62.39" y="-119.5" font-family="Helvetica,sans-Serif" font-size="10.00">monitor.hh</text>
</a>
</g>
</g>
<!-- Node4&#45;&gt;Node5 -->
<g id="edge4" class="edge">
<title>Node4&#45;&gt;Node5</title>
<path fill="none" stroke="midnightblue" d="M87.45,-159.57C81.08,-150.27 73.53,-139.25 68.39,-131.75"/>
<polygon fill="midnightblue" stroke="midnightblue" points="84.74,-161.81 93.28,-168.08 90.52,-157.86 84.74,-161.81"/>
</g>
<!-- Node9 -->
<g id="node9" class="node">
<title>Node9</title>
<g id="a_node9"><a xlink:href="trap_8cc.html" target="_top" xlink:title=" ">
<polygon fill="white" stroke="black" points="34.89,-56.5 34.89,-75.5 81.89,-75.5 81.89,-56.5 34.89,-56.5"/>
<text text-anchor="middle" x="58.39" y="-63.5" font-family="Helvetica,sans-Serif" font-size="10.00">trap.cc</text>
</a>
</g>
</g>
<!-- Node4&#45;&gt;Node9 -->
<g id="edge19" class="edge">
<title>Node4&#45;&gt;Node9</title>
<path fill="none" stroke="midnightblue" d="M65.81,-166.34C49.65,-159.32 31.77,-148.35 22.39,-132 10.96,-112.08 32.83,-88.44 47.22,-75.88"/>
<polygon fill="midnightblue" stroke="midnightblue" points="64.98,-169.78 75.56,-170.21 67.56,-163.27 64.98,-169.78"/>
</g>
<!-- Node10 -->
<g id="node10" class="node">
<title>Node10</title>
<g id="a_node10"><a xlink:href="kernel_2task_8hh.html" target="_top" xlink:title=" ">
<polygon fill="white" stroke="black" points="111.89,-112.5 111.89,-131.5 160.89,-131.5 160.89,-112.5 111.89,-112.5"/>
<text text-anchor="middle" x="136.39" y="-119.5" font-family="Helvetica,sans-Serif" font-size="10.00">task.hh</text>
</a>
</g>
</g>
<!-- Node4&#45;&gt;Node10 -->
<g id="edge9" class="edge">
<title>Node4&#45;&gt;Node10</title>
<path fill="none" stroke="midnightblue" d="M111.34,-159.57C117.7,-150.27 125.26,-139.25 130.4,-131.75"/>
<polygon fill="midnightblue" stroke="midnightblue" points="108.27,-157.86 105.5,-168.08 114.04,-161.81 108.27,-157.86"/>
</g>
<!-- Node6 -->
<g id="node6" class="node">
<title>Node6</title>
<g id="a_node6"><a xlink:href="init_8cc.html" target="_top" xlink:title=" ">
<polygon fill="white" stroke="black" points="298.89,-0.5 298.89,-19.5 341.89,-19.5 341.89,-0.5 298.89,-0.5"/>
<text text-anchor="middle" x="320.39" y="-7.5" font-family="Helvetica,sans-Serif" font-size="10.00">init.cc</text>
</a>
</g>
</g>
<!-- Node5&#45;&gt;Node6 -->
<g id="edge5" class="edge">
<title>Node5&#45;&gt;Node6</title>
<path fill="none" stroke="midnightblue" d="M43.47,-105.71C28.51,-91.79 12.16,-71.16 25.39,-56 64.33,-11.39 231.47,-32.29 289.39,-20 292.46,-19.35 295.67,-18.55 298.82,-17.7"/>
<polygon fill="midnightblue" stroke="midnightblue" points="41.18,-108.35 51.01,-112.31 45.8,-103.09 41.18,-108.35"/>
</g>
<!-- Node7 -->
<g id="node7" class="node">
<title>Node7</title>
<g id="a_node7"><a xlink:href="monitor_8cc.html" target="_top" xlink:title=" ">
<polygon fill="white" stroke="black" points="100.39,-56.5 100.39,-75.5 162.39,-75.5 162.39,-56.5 100.39,-56.5"/>
<text text-anchor="middle" x="131.39" y="-63.5" font-family="Helvetica,sans-Serif" font-size="10.00">monitor.cc</text>
</a>
</g>
</g>
<!-- Node5&#45;&gt;Node7 -->
<g id="edge6" class="edge">
<title>Node5&#45;&gt;Node7</title>
<path fill="none" stroke="midnightblue" d="M81.43,-106.1C93.85,-96.38 109.64,-84.03 120.11,-75.83"/>
<polygon fill="midnightblue" stroke="midnightblue" points="79.2,-103.4 73.48,-112.32 83.51,-108.92 79.2,-103.4"/>
</g>
<!-- Node8 -->
<g id="node8" class="node">
<title>Node8</title>
<g id="a_node8"><a xlink:href="task_8cc.html" target="_top" xlink:title=" ">
<polygon fill="white" stroke="black" points="180.89,-56.5 180.89,-75.5 229.89,-75.5 229.89,-56.5 180.89,-56.5"/>
<text text-anchor="middle" x="205.39" y="-63.5" font-family="Helvetica,sans-Serif" font-size="10.00">task.cc</text>
</a>
</g>
</g>
<!-- Node5&#45;&gt;Node8 -->
<g id="edge7" class="edge">
<title>Node5&#45;&gt;Node8</title>
<path fill="none" stroke="midnightblue" d="M94.42,-108.91C121.3,-98.75 159.03,-84.51 182.84,-75.52"/>
<polygon fill="midnightblue" stroke="midnightblue" points="93.17,-105.64 85.05,-112.44 95.64,-112.19 93.17,-105.64"/>
</g>
<!-- Node5&#45;&gt;Node9 -->
<g id="edge8" class="edge">
<title>Node5&#45;&gt;Node9</title>
<path fill="none" stroke="midnightblue" d="M60.99,-102.1C60.33,-93.14 59.57,-82.86 59.04,-75.75"/>
<polygon fill="midnightblue" stroke="midnightblue" points="57.5,-102.37 61.73,-112.08 64.48,-101.85 57.5,-102.37"/>
</g>
<!-- Node10&#45;&gt;Node6 -->
<g id="edge10" class="edge">
<title>Node10&#45;&gt;Node6</title>
<path fill="none" stroke="midnightblue" d="M170.92,-111.81C218.95,-98.99 300.2,-77.17 301.39,-76 316.83,-60.84 319.89,-33.89 320.39,-19.94"/>
<polygon fill="midnightblue" stroke="midnightblue" points="169.98,-108.43 161.22,-114.39 171.79,-115.2 169.98,-108.43"/>
</g>
<!-- Node10&#45;&gt;Node7 -->
<g id="edge15" class="edge">
<title>Node10&#45;&gt;Node7</title>
<path fill="none" stroke="midnightblue" d="M134.64,-102.1C133.81,-93.14 132.86,-82.86 132.2,-75.75"/>
<polygon fill="midnightblue" stroke="midnightblue" points="131.16,-102.45 135.57,-112.08 138.13,-101.8 131.16,-102.45"/>
</g>
<!-- Node10&#45;&gt;Node8 -->
<g id="edge16" class="edge">
<title>Node10&#45;&gt;Node8</title>
<path fill="none" stroke="midnightblue" d="M155.43,-106.1C167.85,-96.38 183.64,-84.03 194.11,-75.83"/>
<polygon fill="midnightblue" stroke="midnightblue" points="153.2,-103.4 147.48,-112.32 157.51,-108.92 153.2,-103.4"/>
</g>
<!-- Node10&#45;&gt;Node9 -->
<g id="edge18" class="edge">
<title>Node10&#45;&gt;Node9</title>
<path fill="none" stroke="midnightblue" d="M115.63,-106.62C101.38,-96.76 82.94,-83.99 70.89,-75.65"/>
<polygon fill="midnightblue" stroke="midnightblue" points="113.65,-109.51 123.86,-112.32 117.63,-103.75 113.65,-109.51"/>
</g>
<!-- Node11 -->
<g id="node11" class="node">
<title>Node11</title>
<g id="a_node11"><a xlink:href="ksyscall_8cc.html" target="_top" xlink:title=" ">
<polygon fill="white" stroke="black" points="348.39,-56.5 348.39,-75.5 414.39,-75.5 414.39,-56.5 348.39,-56.5"/>
<text text-anchor="middle" x="381.39" y="-63.5" font-family="Helvetica,sans-Serif" font-size="10.00">ksyscall.cc</text>
</a>
</g>
</g>
<!-- Node10&#45;&gt;Node11 -->
<g id="edge11" class="edge">
<title>Node10&#45;&gt;Node11</title>
<path fill="none" stroke="midnightblue" d="M171.35,-111.86C239.89,-95.63 308.71,-81.47 348.39,-73.52"/>
<polygon fill="midnightblue" stroke="midnightblue" points="170.16,-108.55 161.24,-114.27 171.78,-115.36 170.16,-108.55"/>
</g>
<!-- Node12 -->
<g id="node12" class="node">
<title>Node12</title>
<g id="a_node12"><a xlink:href="mp_8hh.html" target="_top" xlink:title=" ">
<polygon fill="white" stroke="black" points="248.39,-56.5 248.39,-75.5 292.39,-75.5 292.39,-56.5 248.39,-56.5"/>
<text text-anchor="middle" x="270.39" y="-63.5" font-family="Helvetica,sans-Serif" font-size="10.00">mp.hh</text>
</a>
</g>
</g>
<!-- Node10&#45;&gt;Node12 -->
<g id="edge12" class="edge">
<title>Node10&#45;&gt;Node12</title>
<path fill="none" stroke="midnightblue" d="M167.07,-108.64C192.22,-98.5 227.15,-84.43 249.26,-75.52"/>
<polygon fill="midnightblue" stroke="midnightblue" points="165.59,-105.46 157.63,-112.44 168.21,-111.95 165.59,-105.46"/>
</g>
<!-- Node10&#45;&gt;Node13 -->
<g id="edge17" class="edge">
<title>Node10&#45;&gt;Node13</title>
<path fill="none" stroke="midnightblue" d="M171.22,-112.06C283.47,-89.84 314.96,-96.51 423.39,-76 426.46,-75.42 429.65,-74.76 432.82,-74.06"/>
<polygon fill="midnightblue" stroke="midnightblue" points="170.31,-108.67 161.2,-114.07 171.69,-115.53 170.31,-108.67"/>
</g>
<!-- Node12&#45;&gt;Node3 -->
<g id="edge14" class="edge">
<title>Node12&#45;&gt;Node3</title>
<path fill="none" stroke="midnightblue" d="M266.19,-46.1C264.2,-37.14 261.92,-26.86 260.34,-19.75"/>
<polygon fill="midnightblue" stroke="midnightblue" points="262.83,-47.08 268.41,-56.08 269.66,-45.56 262.83,-47.08"/>
</g>
<!-- Node12&#45;&gt;Node6 -->
<g id="edge13" class="edge">
<title>Node12&#45;&gt;Node6</title>
<path fill="none" stroke="midnightblue" d="M285.47,-48.72C294.28,-39.2 305.06,-27.56 312.29,-19.75"/>
<polygon fill="midnightblue" stroke="midnightblue" points="282.88,-46.37 278.65,-56.08 288.01,-51.12 282.88,-46.37"/>
</g>
<!-- Node15 -->
<g id="node15" class="node">
<title>Node15</title>
<g id="a_node15"><a xlink:href="umain_8cc.html" target="_top" xlink:title=" ">
<polygon fill="white" stroke="black" points="179.39,-112.5 179.39,-131.5 235.39,-131.5 235.39,-112.5 179.39,-112.5"/>
<text text-anchor="middle" x="207.39" y="-119.5" font-family="Helvetica,sans-Serif" font-size="10.00">umain.cc</text>
</a>
</g>
</g>
<!-- Node14&#45;&gt;Node15 -->
<g id="edge21" class="edge">
<title>Node14&#45;&gt;Node15</title>
<path fill="none" stroke="midnightblue" d="M259.53,-162.1C246.57,-152.38 230.1,-140.03 219.17,-131.83"/>
<polygon fill="midnightblue" stroke="midnightblue" points="257.72,-165.12 267.83,-168.32 261.93,-159.52 257.72,-165.12"/>
</g>
<!-- Node14&#45;&gt;Node16 -->
<g id="edge22" class="edge">
<title>Node14&#45;&gt;Node16</title>
<path fill="none" stroke="midnightblue" d="M312.84,-165.04C341.25,-154.88 381.33,-140.55 406.58,-131.52"/>
<polygon fill="midnightblue" stroke="midnightblue" points="311.56,-161.78 303.32,-168.44 313.91,-168.37 311.56,-161.78"/>
</g>
<!-- Node17 -->
<g id="node17" class="node">
<title>Node17</title>
<g id="a_node17"><a xlink:href="user_2lib_2printf_8cc.html" target="_top" xlink:title=" ">
<polygon fill="white" stroke="black" points="253.39,-112.5 253.39,-131.5 305.39,-131.5 305.39,-112.5 253.39,-112.5"/>
<text text-anchor="middle" x="279.39" y="-119.5" font-family="Helvetica,sans-Serif" font-size="10.00">printf.cc</text>
</a>
</g>
</g>
<!-- Node14&#45;&gt;Node17 -->
<g id="edge23" class="edge">
<title>Node14&#45;&gt;Node17</title>
<path fill="none" stroke="midnightblue" d="M279.39,-157.8C279.39,-148.91 279.39,-138.78 279.39,-131.75"/>
<polygon fill="midnightblue" stroke="midnightblue" points="275.89,-158.08 279.39,-168.08 282.89,-158.08 275.89,-158.08"/>
</g>
<!-- Node18 -->
<g id="node18" class="node">
<title>Node18</title>
<g id="a_node18"><a xlink:href="user_2lib_2readline_8cc.html" target="_top" xlink:title=" ">
<polygon fill="white" stroke="black" points="323.39,-112.5 323.39,-131.5 387.39,-131.5 387.39,-112.5 323.39,-112.5"/>
<text text-anchor="middle" x="355.39" y="-119.5" font-family="Helvetica,sans-Serif" font-size="10.00">readline.cc</text>
</a>
</g>
</g>
<!-- Node14&#45;&gt;Node18 -->
<g id="edge24" class="edge">
<title>Node14&#45;&gt;Node18</title>
<path fill="none" stroke="midnightblue" d="M299.97,-162.38C313.71,-152.62 331.32,-140.11 342.96,-131.83"/>
<polygon fill="midnightblue" stroke="midnightblue" points="297.73,-159.68 291.6,-168.32 301.78,-165.38 297.73,-159.68"/>
</g>
<!-- Node23&#45;&gt;Node3 -->
<g id="edge32" class="edge">
<title>Node23&#45;&gt;Node3</title>
<path fill="none" stroke="midnightblue" d="M533.55,-102.85C526.91,-87.82 515.33,-67.19 498.39,-56 419.75,-4.04 381.24,-41.17 289.39,-20 286.55,-19.35 283.59,-18.59 280.67,-17.79"/>
<polygon fill="midnightblue" stroke="midnightblue" points="530.34,-104.24 537.37,-112.17 536.82,-101.59 530.34,-104.24"/>
</g>
<!-- Node23&#45;&gt;Node6 -->
<g id="edge30" class="edge">
<title>Node23&#45;&gt;Node6</title>
<path fill="none" stroke="midnightblue" d="M543.46,-101.85C544.62,-87.44 543.55,-68.17 532.39,-56 506.84,-28.13 390.72,-16.28 342.01,-12.48"/>
<polygon fill="midnightblue" stroke="midnightblue" points="539.95,-101.78 542.21,-112.13 546.9,-102.63 539.95,-101.78"/>
</g>
<!-- Node23&#45;&gt;Node7 -->
<g id="edge33" class="edge">
<title>Node23&#45;&gt;Node7</title>
<path fill="none" stroke="midnightblue" d="M501.8,-116.4C410.47,-105.5 187.54,-78.79 171.39,-76 168.59,-75.51 165.68,-74.96 162.78,-74.37"/>
<polygon fill="midnightblue" stroke="midnightblue" points="501.41,-119.88 511.75,-117.59 502.24,-112.93 501.41,-119.88"/>
</g>
<!-- Node23&#45;&gt;Node8 -->
<g id="edge34" class="edge">
<title>Node23&#45;&gt;Node8</title>
<path fill="none" stroke="midnightblue" d="M501.45,-116.57C443.85,-109.71 332.68,-95.26 239.39,-76 236.4,-75.38 233.28,-74.66 230.2,-73.91"/>
<polygon fill="midnightblue" stroke="midnightblue" points="501.23,-120.07 511.57,-117.77 502.05,-113.12 501.23,-120.07"/>
</g>
<!-- Node23&#45;&gt;Node11 -->
<g id="edge31" class="edge">
<title>Node23&#45;&gt;Node11</title>
<path fill="none" stroke="midnightblue" d="M505.57,-109.17C475.63,-99 433.17,-84.59 406.47,-75.52"/>
<polygon fill="midnightblue" stroke="midnightblue" points="504.6,-112.54 515.2,-112.44 506.86,-105.91 504.6,-112.54"/>
</g>
<!-- Node23&#45;&gt;Node13 -->
<g id="edge35" class="edge">
<title>Node23&#45;&gt;Node13</title>
<path fill="none" stroke="midnightblue" d="M519.36,-106.62C504.93,-96.76 486.25,-83.99 474.05,-75.65"/>
<polygon fill="midnightblue" stroke="midnightblue" points="517.47,-109.57 527.7,-112.32 521.42,-103.79 517.47,-109.57"/>
</g>
</g>
</svg>
        <g id="navigator" transform="translate(0 0)" fill="#404254">
                <rect fill="#f2f5e9" fill-opacity="0.5" stroke="#606060" stroke-width=".5" x="0" y="0" width="60" height="60"/>
                <use id="zoomplus" xlink:href="#zoomPlus" x="17" y="9" onmousedown="handleZoom(evt,'in')"/>
                <use id="zoomminus" xlink:href="#zoomMin" x="42" y="9" onmousedown="handleZoom(evt,'out')"/>
                <use id="reset" xlink:href="#resetDef" x="30" y="36" onmousedown="handleReset()"/>
                <g id="arrowUp" xlink:href="#dirArrow" transform="translate(30 24)" onmousedown="handlePan(0,-1)">
                  <use xlink:href="#rim" fill="#404040">
                        <set attributeName="fill" to="#808080" begin="arrowUp.mouseover" end="arrowUp.mouseout"/>
                  </use>
                  <path fill="none" stroke="white" stroke-width="1.5" d="M0,-3.0v7 M-2.5,-0.5L0,-3.0L2.5,-0.5"/>
                </g>
                <g id="arrowRight" xlink:href="#dirArrow" transform="rotate(90) translate(36 -43)" onmousedown="handlePan(1,0)">
                  <use xlink:href="#rim" fill="#404040">
                        <set attributeName="fill" to="#808080" begin="arrowRight.mouseover" end="arrowRight.mouseout"/>
                  </use>
                  <path fill="none" stroke="white" stroke-width="1.5" d="M0,-3.0v7 M-2.5,-0.5L0,-3.0L2.5,-0.5"/>
                </g>
                <g id="arrowDown" xlink:href="#dirArrow" transform="rotate(180) translate(-30 -48)" onmousedown="handlePan(0,1)">
                  <use xlink:href="#rim" fill="#404040">
                        <set attributeName="fill" to="#808080" begin="arrowDown.mouseover" end="arrowDown.mouseout"/>
                  </use>
                  <path fill="none" stroke="white" stroke-width="1.5" d="M0,-3.0v7 M-2.5,-0.5L0,-3.0L2.5,-0.5"/>
                </g>
                <g id="arrowLeft" xlink:href="#dirArrow" transform="rotate(270) translate(-36 17)" onmousedown="handlePan(-1,0)">
                  <use xlink:href="#rim" fill="#404040">
                        <set attributeName="fill" to="#808080" begin="arrowLeft.mouseover" end="arrowLeft.mouseout"/>
                  </use>
                  <path fill="none" stroke="white" stroke-width="1.5" d="M0,-3.0v7 M-2.5,-0.5L0,-3.0L2.5,-0.5"/>
                </g>
        </g>
        <svg viewBox="0 0 15 15" width="100%" height="30px" preserveAspectRatio="xMaxYMin meet">
         <g id="arrow_out" transform="scale(0.3 0.3)">
          <a xlink:href="memlayout_8h__dep__incl_org.svg" target="_base">
           <rect id="button" ry="5" rx="5" y="6" x="6" height="38" width="38"
                fill="#f2f5e9" fill-opacity="0.5" stroke="#606060" stroke-width="1.0"/>
           <path id="arrow"
             d="M 11.500037,31.436501 C 11.940474,20.09759 22.043105,11.32322 32.158766,21.979434 L 37.068811,17.246167 C 37.068811,17.246167 37.088388,32 37.088388,32 L 22.160133,31.978069 C 22.160133,31.978069 26.997745,27.140456 26.997745,27.140456 C 18.528582,18.264221 13.291696,25.230495 11.500037,31.436501 z"
             style="fill:#404040;"/>
          </a>
         </g>
        </svg>
</svg>
