<?xml version="1.0" encoding="UTF-8" standalone="no"?>
<!DOCTYPE svg PUBLIC "-//W3C//DTD SVG 1.1//EN"
 "http://www.w3.org/Graphics/SVG/1.1/DTD/svg11.dtd">
<!-- Generated by graphviz version 2.44.1 (20200629.0846)
 -->
<!-- Title: mmu.h Pages: 1 -->
<!--zoomable 364 -->
<svg id="main" version="1.1" xmlns="http://www.w3.org/2000/svg" xmlns:xlink="http://www.w3.org/1999/xlink" xml:space="preserve" onload="init(evt)">
<style type="text/css"><![CDATA[
.edge:hover path { stroke: red; }
.edge:hover polygon { stroke: red; fill: red; }
]]></style>
<script type="text/javascript"><![CDATA[
var edges = document.getElementsByTagName('g');
if (edges && edges.length) {
  for (var i=0;i<edges.length;i++) {
    if (edges[i].id.substr(0,4)=='edge') {
      edges[i].setAttribute('class','edge');
    }
  }
}
]]></script>
        <defs>
                <circle id="rim" cx="0" cy="0" r="7"/>
                <circle id="rim2" cx="0" cy="0" r="3.5"/>
                <g id="zoomPlus">
                        <use xlink:href="#rim" fill="#404040">
                                <set attributeName="fill" to="#808080" begin="zoomplus.mouseover" end="zoomplus.mouseout"/>
                        </use>
                        <path d="M-4,0h8M0,-4v8" fill="none" stroke="white" stroke-width="1.5" pointer-events="none"/>
                </g>
                <g id="zoomMin">
                        <use xlink:href="#rim" fill="#404040">
                                <set attributeName="fill" to="#808080" begin="zoomminus.mouseover" end="zoomminus.mouseout"/>
                        </use>
                        <path d="M-4,0h8" fill="none" stroke="white" stroke-width="1.5" pointer-events="none"/>
                </g>
                <g id="dirArrow">
                        <path fill="none" stroke="white" stroke-width="1.5" d="M0,-3.0v7 M-2.5,-0.5L0,-3.0L2.5,-0.5"/>
                </g>
               <g id="resetDef">
                       <use xlink:href="#rim2" fill="#404040">
                               <set attributeName="fill" to="#808080" begin="reset.mouseover" end="reset.mouseout"/>
                       </use>
               </g>
        </defs>

<script type="text/javascript">
var viewWidth = 744;
var viewHeight = 364;
var sectionId = 'dynsection-1';
</script>
<script xlink:href="svgpan.js"/>
<svg id="graph" class="graph">
<g id="viewport">
<title>mmu.h</title>
<polygon fill="white" stroke="transparent" points="-4,4 -4,-360 739.6,-360 739.6,4 -4,4"/>
<!-- Node1 -->
<g id="node1" class="node">
<title>Node1</title>
<g id="a_node1"><a xlink:title=" ">
<polygon fill="#bfbfbf" stroke="black" points="531.6,-336.5 531.6,-355.5 578.6,-355.5 578.6,-336.5 531.6,-336.5"/>
<text text-anchor="middle" x="555.1" y="-343.5" font-family="Helvetica,sans-Serif" font-size="10.00">mmu.h</text>
</a>
</g>
</g>
<!-- Node2 -->
<g id="node2" class="node">
<title>Node2</title>
<g id="a_node2"><a xlink:href="memlayout_8h.html" target="_top" xlink:title=" ">
<polygon fill="white" stroke="black" points="428.6,-280.5 428.6,-299.5 501.6,-299.5 501.6,-280.5 428.6,-280.5"/>
<text text-anchor="middle" x="465.1" y="-287.5" font-family="Helvetica,sans-Serif" font-size="10.00">memlayout.h</text>
</a>
</g>
</g>
<!-- Node1&#45;&gt;Node2 -->
<g id="edge1" class="edge">
<title>Node1&#45;&gt;Node2</title>
<path fill="none" stroke="midnightblue" d="M532.06,-331.18C515.5,-321.24 493.68,-308.15 479.52,-299.65"/>
<polygon fill="midnightblue" stroke="midnightblue" points="530.26,-334.18 540.64,-336.32 533.86,-328.18 530.26,-334.18"/>
</g>
<!-- Node3 -->
<g id="node3" class="node">
<title>Node3</title>
<g id="a_node3"><a xlink:href="include_2trap_8hh.html" target="_top" xlink:title=" ">
<polygon fill="white" stroke="black" points="195.6,-224.5 195.6,-243.5 242.6,-243.5 242.6,-224.5 195.6,-224.5"/>
<text text-anchor="middle" x="219.1" y="-231.5" font-family="Helvetica,sans-Serif" font-size="10.00">trap.hh</text>
</a>
</g>
</g>
<!-- Node1&#45;&gt;Node3 -->
<g id="edge39" class="edge">
<title>Node1&#45;&gt;Node3</title>
<path fill="none" stroke="midnightblue" d="M521.72,-334.07C453.87,-311.86 301.35,-261.93 242.7,-242.73"/>
<polygon fill="midnightblue" stroke="midnightblue" points="520.88,-337.48 531.47,-337.27 523.06,-330.83 520.88,-337.48"/>
</g>
<!-- Node14 -->
<g id="node14" class="node">
<title>Node14</title>
<g id="a_node14"><a xlink:href="vmem_8cc.html" target="_top" xlink:title=" ">
<polygon fill="white" stroke="black" points="678.6,-56.5 678.6,-75.5 735.6,-75.5 735.6,-56.5 678.6,-56.5"/>
<text text-anchor="middle" x="707.1" y="-63.5" font-family="Helvetica,sans-Serif" font-size="10.00">vmem.cc</text>
</a>
</g>
</g>
<!-- Node1&#45;&gt;Node14 -->
<g id="edge41" class="edge">
<title>Node1&#45;&gt;Node14</title>
<path fill="none" stroke="midnightblue" d="M588.74,-336.76C633.51,-323.56 707.1,-293.02 707.1,-235 707.1,-235 707.1,-235 707.1,-177 707.1,-139.19 707.1,-94.06 707.1,-75.56"/>
<polygon fill="midnightblue" stroke="midnightblue" points="587.53,-333.47 578.85,-339.54 589.42,-340.21 587.53,-333.47"/>
</g>
<!-- Node20 -->
<g id="node20" class="node">
<title>Node20</title>
<g id="a_node20"><a xlink:href="entrypgdir_8c.html" target="_top" xlink:title=" ">
<polygon fill="white" stroke="black" points="611.6,-224.5 611.6,-243.5 678.6,-243.5 678.6,-224.5 611.6,-224.5"/>
<text text-anchor="middle" x="645.1" y="-231.5" font-family="Helvetica,sans-Serif" font-size="10.00">entrypgdir.c</text>
</a>
</g>
</g>
<!-- Node1&#45;&gt;Node20 -->
<g id="edge40" class="edge">
<title>Node1&#45;&gt;Node20</title>
<path fill="none" stroke="midnightblue" d="M568.53,-328.59C587.93,-304.87 623.12,-261.87 638.07,-243.59"/>
<polygon fill="midnightblue" stroke="midnightblue" points="565.78,-326.41 562.16,-336.37 571.2,-330.85 565.78,-326.41"/>
</g>
<!-- Node2&#45;&gt;Node3 -->
<g id="edge2" class="edge">
<title>Node2&#45;&gt;Node3</title>
<path fill="none" stroke="midnightblue" d="M418.44,-279.95C375.17,-271.37 309.07,-257.77 252.1,-244 249.1,-243.27 245.95,-242.47 242.85,-241.65"/>
<polygon fill="midnightblue" stroke="midnightblue" points="417.91,-283.42 428.39,-281.92 419.26,-276.55 417.91,-283.42"/>
</g>
<!-- Node2&#45;&gt;Node14 -->
<g id="edge37" class="edge">
<title>Node2&#45;&gt;Node14</title>
<path fill="none" stroke="midnightblue" d="M502.13,-276.89C521.77,-269.35 545.58,-258.34 564.1,-244 630.94,-192.24 685.96,-103.33 702.21,-75.55"/>
<polygon fill="midnightblue" stroke="midnightblue" points="500.76,-273.66 492.59,-280.41 503.18,-280.23 500.76,-273.66"/>
</g>
<!-- Node17 -->
<g id="node17" class="node">
<title>Node17</title>
<g id="a_node17"><a xlink:href="hello_8cc.html" target="_top" xlink:title=" ">
<polygon fill="white" stroke="black" points="244.1,-112.5 244.1,-131.5 294.1,-131.5 294.1,-112.5 244.1,-112.5"/>
<text text-anchor="middle" x="269.1" y="-119.5" font-family="Helvetica,sans-Serif" font-size="10.00">hello.cc</text>
</a>
</g>
</g>
<!-- Node2&#45;&gt;Node17 -->
<g id="edge38" class="edge">
<title>Node2&#45;&gt;Node17</title>
<path fill="none" stroke="midnightblue" d="M447.35,-273.46C432.21,-260.23 409.81,-240.77 390.1,-224 349.45,-189.43 300.52,-148.92 279.51,-131.58"/>
<polygon fill="midnightblue" stroke="midnightblue" points="445.13,-276.16 454.96,-280.11 449.74,-270.89 445.13,-276.16"/>
</g>
<!-- Node2&#45;&gt;Node20 -->
<g id="edge26" class="edge">
<title>Node2&#45;&gt;Node20</title>
<path fill="none" stroke="midnightblue" d="M503.21,-277.57C537.16,-267.38 586.09,-252.7 616.71,-243.52"/>
<polygon fill="midnightblue" stroke="midnightblue" points="502.19,-274.22 493.62,-280.44 504.2,-280.92 502.19,-274.22"/>
</g>
<!-- Node21 -->
<g id="node21" class="node">
<title>Node21</title>
<g id="a_node21"><a xlink:href="gdt_8c.html" target="_top" xlink:title=" ">
<polygon fill="white" stroke="black" points="261.1,-224.5 261.1,-243.5 299.1,-243.5 299.1,-224.5 261.1,-224.5"/>
<text text-anchor="middle" x="280.1" y="-231.5" font-family="Helvetica,sans-Serif" font-size="10.00">gdt.c</text>
</a>
</g>
</g>
<!-- Node2&#45;&gt;Node21 -->
<g id="edge27" class="edge">
<title>Node2&#45;&gt;Node21</title>
<path fill="none" stroke="midnightblue" d="M424.51,-277.75C392.75,-268.85 347.51,-255.98 308.1,-244 305.27,-243.14 302.28,-242.21 299.35,-241.28"/>
<polygon fill="midnightblue" stroke="midnightblue" points="423.76,-281.17 434.33,-280.49 425.64,-274.43 423.76,-281.17"/>
</g>
<!-- Node22 -->
<g id="node22" class="node">
<title>Node22</title>
<g id="a_node22"><a xlink:href="console_8cc.html" target="_top" xlink:title=" ">
<polygon fill="white" stroke="black" points="317.1,-224.5 317.1,-243.5 381.1,-243.5 381.1,-224.5 317.1,-224.5"/>
<text text-anchor="middle" x="349.1" y="-231.5" font-family="Helvetica,sans-Serif" font-size="10.00">console.cc</text>
</a>
</g>
</g>
<!-- Node2&#45;&gt;Node22 -->
<g id="edge28" class="edge">
<title>Node2&#45;&gt;Node22</title>
<path fill="none" stroke="midnightblue" d="M437.38,-276.1C415.71,-266.01 386.2,-252.27 367.39,-243.52"/>
<polygon fill="midnightblue" stroke="midnightblue" points="436.18,-279.4 446.72,-280.44 439.13,-273.05 436.18,-279.4"/>
</g>
<!-- Node23 -->
<g id="node23" class="node">
<title>Node23</title>
<g id="a_node23"><a xlink:href="kdebug_8cc.html" target="_top" xlink:title=" ">
<polygon fill="white" stroke="black" points="493.1,-224.5 493.1,-243.5 555.1,-243.5 555.1,-224.5 493.1,-224.5"/>
<text text-anchor="middle" x="524.1" y="-231.5" font-family="Helvetica,sans-Serif" font-size="10.00">kdebug.cc</text>
</a>
</g>
</g>
<!-- Node2&#45;&gt;Node23 -->
<g id="edge29" class="edge">
<title>Node2&#45;&gt;Node23</title>
<path fill="none" stroke="midnightblue" d="M481.99,-273.54C492.51,-263.91 505.67,-251.87 514.45,-243.83"/>
<polygon fill="midnightblue" stroke="midnightblue" points="479.59,-270.99 474.58,-280.32 484.32,-276.15 479.59,-270.99"/>
</g>
<!-- Node24 -->
<g id="node24" class="node">
<title>Node24</title>
<g id="a_node24"><a xlink:href="vmem_8hh.html" target="_top" xlink:title=" ">
<polygon fill="white" stroke="black" points="497.6,-112.5 497.6,-131.5 554.6,-131.5 554.6,-112.5 497.6,-112.5"/>
<text text-anchor="middle" x="526.1" y="-119.5" font-family="Helvetica,sans-Serif" font-size="10.00">vmem.hh</text>
</a>
</g>
</g>
<!-- Node2&#45;&gt;Node24 -->
<g id="edge30" class="edge">
<title>Node2&#45;&gt;Node24</title>
<path fill="none" stroke="midnightblue" d="M469.85,-270.79C473.41,-257.67 478.6,-239.59 484.1,-224 496.42,-189.08 514.34,-148.76 522.18,-131.52"/>
<polygon fill="midnightblue" stroke="midnightblue" points="466.45,-269.93 467.27,-280.49 473.22,-271.73 466.45,-269.93"/>
</g>
<!-- Node4 -->
<g id="node4" class="node">
<title>Node4</title>
<g id="a_node4"><a xlink:href="mp_8cc.html" target="_top" xlink:title=" ">
<polygon fill="white" stroke="black" points="338.1,-0.5 338.1,-19.5 382.1,-19.5 382.1,-0.5 338.1,-0.5"/>
<text text-anchor="middle" x="360.1" y="-7.5" font-family="Helvetica,sans-Serif" font-size="10.00">mp.cc</text>
</a>
</g>
</g>
<!-- Node3&#45;&gt;Node4 -->
<g id="edge3" class="edge">
<title>Node3&#45;&gt;Node4</title>
<path fill="none" stroke="midnightblue" d="M185.21,-227.88C114.48,-215.72 -38.44,-180.82 9.1,-112 47.66,-56.18 267.03,-23.1 337.97,-13.76"/>
<polygon fill="midnightblue" stroke="midnightblue" points="184.97,-231.39 195.41,-229.58 186.12,-224.49 184.97,-231.39"/>
</g>
<!-- Node5 -->
<g id="node5" class="node">
<title>Node5</title>
<g id="a_node5"><a xlink:href="kernel_2trap_8hh.html" target="_top" xlink:title=" ">
<polygon fill="white" stroke="black" points="389.6,-168.5 389.6,-187.5 436.6,-187.5 436.6,-168.5 389.6,-168.5"/>
<text text-anchor="middle" x="413.1" y="-175.5" font-family="Helvetica,sans-Serif" font-size="10.00">trap.hh</text>
</a>
</g>
</g>
<!-- Node3&#45;&gt;Node5 -->
<g id="edge4" class="edge">
<title>Node3&#45;&gt;Node5</title>
<path fill="none" stroke="midnightblue" d="M252.74,-223.64C291.79,-212.77 355.21,-195.11 389.42,-185.59"/>
<polygon fill="midnightblue" stroke="midnightblue" points="251.58,-220.33 242.89,-226.38 253.46,-227.07 251.58,-220.33"/>
</g>
<!-- Node15 -->
<g id="node15" class="node">
<title>Node15</title>
<g id="a_node15"><a xlink:href="stdlib_8hh.html" target="_top" xlink:title=" ">
<polygon fill="white" stroke="black" points="173.6,-168.5 173.6,-187.5 226.6,-187.5 226.6,-168.5 173.6,-168.5"/>
<text text-anchor="middle" x="200.1" y="-175.5" font-family="Helvetica,sans-Serif" font-size="10.00">stdlib.hh</text>
</a>
</g>
</g>
<!-- Node3&#45;&gt;Node15 -->
<g id="edge21" class="edge">
<title>Node3&#45;&gt;Node15</title>
<path fill="none" stroke="midnightblue" d="M212.55,-214.4C209.37,-205.36 205.71,-194.94 203.18,-187.75"/>
<polygon fill="midnightblue" stroke="midnightblue" points="209.34,-215.81 215.96,-224.08 215.94,-213.49 209.34,-215.81"/>
</g>
<!-- Node6 -->
<g id="node6" class="node">
<title>Node6</title>
<g id="a_node6"><a xlink:href="monitor_8hh.html" target="_top" xlink:title=" ">
<polygon fill="white" stroke="black" points="350.1,-112.5 350.1,-131.5 412.1,-131.5 412.1,-112.5 350.1,-112.5"/>
<text text-anchor="middle" x="381.1" y="-119.5" font-family="Helvetica,sans-Serif" font-size="10.00">monitor.hh</text>
</a>
</g>
</g>
<!-- Node5&#45;&gt;Node6 -->
<g id="edge5" class="edge">
<title>Node5&#45;&gt;Node6</title>
<path fill="none" stroke="midnightblue" d="M402.6,-159.27C397.13,-150.05 390.68,-139.17 386.28,-131.75"/>
<polygon fill="midnightblue" stroke="midnightblue" points="399.71,-161.26 407.81,-168.08 405.73,-157.7 399.71,-161.26"/>
</g>
<!-- Node10 -->
<g id="node10" class="node">
<title>Node10</title>
<g id="a_node10"><a xlink:href="trap_8cc.html" target="_top" xlink:title=" ">
<polygon fill="white" stroke="black" points="166.6,-56.5 166.6,-75.5 213.6,-75.5 213.6,-56.5 166.6,-56.5"/>
<text text-anchor="middle" x="190.1" y="-63.5" font-family="Helvetica,sans-Serif" font-size="10.00">trap.cc</text>
</a>
</g>
</g>
<!-- Node5&#45;&gt;Node10 -->
<g id="edge20" class="edge">
<title>Node5&#45;&gt;Node10</title>
<path fill="none" stroke="midnightblue" d="M391.43,-162.84C369.63,-148.92 334.81,-127.57 303.1,-112 273.15,-97.3 237.12,-83.6 213.93,-75.27"/>
<polygon fill="midnightblue" stroke="midnightblue" points="389.62,-165.83 399.92,-168.31 393.41,-159.95 389.62,-165.83"/>
</g>
<!-- Node11 -->
<g id="node11" class="node">
<title>Node11</title>
<g id="a_node11"><a xlink:href="kernel_2task_8hh.html" target="_top" xlink:title=" ">
<polygon fill="white" stroke="black" points="430.6,-112.5 430.6,-131.5 479.6,-131.5 479.6,-112.5 430.6,-112.5"/>
<text text-anchor="middle" x="455.1" y="-119.5" font-family="Helvetica,sans-Serif" font-size="10.00">task.hh</text>
</a>
</g>
</g>
<!-- Node5&#45;&gt;Node11 -->
<g id="edge10" class="edge">
<title>Node5&#45;&gt;Node11</title>
<path fill="none" stroke="midnightblue" d="M426.21,-160.14C433.53,-150.74 442.34,-139.4 448.29,-131.75"/>
<polygon fill="midnightblue" stroke="midnightblue" points="423.41,-158.04 420.03,-168.08 428.94,-162.34 423.41,-158.04"/>
</g>
<!-- Node7 -->
<g id="node7" class="node">
<title>Node7</title>
<g id="a_node7"><a xlink:href="init_8cc.html" target="_top" xlink:title=" ">
<polygon fill="white" stroke="black" points="434.6,-0.5 434.6,-19.5 477.6,-19.5 477.6,-0.5 434.6,-0.5"/>
<text text-anchor="middle" x="456.1" y="-7.5" font-family="Helvetica,sans-Serif" font-size="10.00">init.cc</text>
</a>
</g>
</g>
<!-- Node6&#45;&gt;Node7 -->
<g id="edge6" class="edge">
<title>Node6&#45;&gt;Node7</title>
<path fill="none" stroke="midnightblue" d="M340.33,-111.03C309.35,-102.53 270.5,-89.57 261.1,-76 256.04,-68.69 255.57,-62.96 261.1,-56 271.97,-42.34 385.98,-22.39 434.47,-14.45"/>
<polygon fill="midnightblue" stroke="midnightblue" points="339.5,-114.43 350.06,-113.63 341.3,-107.67 339.5,-114.43"/>
</g>
<!-- Node8 -->
<g id="node8" class="node">
<title>Node8</title>
<g id="a_node8"><a xlink:href="monitor_8cc.html" target="_top" xlink:title=" ">
<polygon fill="white" stroke="black" points="400.1,-56.5 400.1,-75.5 462.1,-75.5 462.1,-56.5 400.1,-56.5"/>
<text text-anchor="middle" x="431.1" y="-63.5" font-family="Helvetica,sans-Serif" font-size="10.00">monitor.cc</text>
</a>
</g>
</g>
<!-- Node6&#45;&gt;Node8 -->
<g id="edge7" class="edge">
<title>Node6&#45;&gt;Node8</title>
<path fill="none" stroke="midnightblue" d="M396.18,-104.72C404.99,-95.2 415.76,-83.56 423,-75.75"/>
<polygon fill="midnightblue" stroke="midnightblue" points="393.58,-102.37 389.36,-112.08 398.72,-107.12 393.58,-102.37"/>
</g>
<!-- Node9 -->
<g id="node9" class="node">
<title>Node9</title>
<g id="a_node9"><a xlink:href="task_8cc.html" target="_top" xlink:title=" ">
<polygon fill="white" stroke="black" points="270.6,-56.5 270.6,-75.5 319.6,-75.5 319.6,-56.5 270.6,-56.5"/>
<text text-anchor="middle" x="295.1" y="-63.5" font-family="Helvetica,sans-Serif" font-size="10.00">task.cc</text>
</a>
</g>
</g>
<!-- Node6&#45;&gt;Node9 -->
<g id="edge8" class="edge">
<title>Node6&#45;&gt;Node9</title>
<path fill="none" stroke="midnightblue" d="M358.64,-106.9C342.87,-97 322.29,-84.07 308.88,-75.65"/>
<polygon fill="midnightblue" stroke="midnightblue" points="356.95,-109.97 367.28,-112.32 360.67,-104.04 356.95,-109.97"/>
</g>
<!-- Node6&#45;&gt;Node10 -->
<g id="edge9" class="edge">
<title>Node6&#45;&gt;Node10</title>
<path fill="none" stroke="midnightblue" d="M340.99,-109.66C302.51,-98.78 245.69,-82.72 213.89,-73.73"/>
<polygon fill="midnightblue" stroke="midnightblue" points="340.26,-113.09 350.83,-112.44 342.16,-106.35 340.26,-113.09"/>
</g>
<!-- Node11&#45;&gt;Node7 -->
<g id="edge11" class="edge">
<title>Node11&#45;&gt;Node7</title>
<path fill="none" stroke="midnightblue" d="M463.16,-102.83C466.3,-94.78 469.53,-85.09 471.1,-76 474.6,-55.69 465.98,-32.2 460.4,-19.77"/>
<polygon fill="midnightblue" stroke="midnightblue" points="459.83,-101.7 459.21,-112.28 466.29,-104.4 459.83,-101.7"/>
</g>
<!-- Node11&#45;&gt;Node8 -->
<g id="edge16" class="edge">
<title>Node11&#45;&gt;Node8</title>
<path fill="none" stroke="midnightblue" d="M446.96,-102.69C442.92,-93.59 438.22,-83.01 434.99,-75.75"/>
<polygon fill="midnightblue" stroke="midnightblue" points="443.88,-104.37 451.14,-112.08 450.27,-101.52 443.88,-104.37"/>
</g>
<!-- Node11&#45;&gt;Node9 -->
<g id="edge17" class="edge">
<title>Node11&#45;&gt;Node9</title>
<path fill="none" stroke="midnightblue" d="M420.7,-109.39C390.33,-99.14 346.8,-84.45 319.78,-75.33"/>
<polygon fill="midnightblue" stroke="midnightblue" points="419.86,-112.8 430.45,-112.68 422.09,-106.17 419.86,-112.8"/>
</g>
<!-- Node11&#45;&gt;Node10 -->
<g id="edge19" class="edge">
<title>Node11&#45;&gt;Node10</title>
<path fill="none" stroke="midnightblue" d="M420.35,-111.95C338.87,-93.47 254.15,-78.14 213.82,-71.08"/>
<polygon fill="midnightblue" stroke="midnightblue" points="419.73,-115.4 430.26,-114.22 421.3,-108.58 419.73,-115.4"/>
</g>
<!-- Node12 -->
<g id="node12" class="node">
<title>Node12</title>
<g id="a_node12"><a xlink:href="ksyscall_8cc.html" target="_top" xlink:title=" ">
<polygon fill="white" stroke="black" points="518.1,-56.5 518.1,-75.5 584.1,-75.5 584.1,-56.5 518.1,-56.5"/>
<text text-anchor="middle" x="551.1" y="-63.5" font-family="Helvetica,sans-Serif" font-size="10.00">ksyscall.cc</text>
</a>
</g>
</g>
<!-- Node11&#45;&gt;Node12 -->
<g id="edge12" class="edge">
<title>Node11&#45;&gt;Node12</title>
<path fill="none" stroke="midnightblue" d="M479.67,-107.18C497.34,-97.24 520.61,-84.15 535.71,-75.65"/>
<polygon fill="midnightblue" stroke="midnightblue" points="477.52,-104.37 470.52,-112.32 480.95,-110.47 477.52,-104.37"/>
</g>
<!-- Node13 -->
<g id="node13" class="node">
<title>Node13</title>
<g id="a_node13"><a xlink:href="mp_8hh.html" target="_top" xlink:title=" ">
<polygon fill="white" stroke="black" points="338.1,-56.5 338.1,-75.5 382.1,-75.5 382.1,-56.5 338.1,-56.5"/>
<text text-anchor="middle" x="360.1" y="-63.5" font-family="Helvetica,sans-Serif" font-size="10.00">mp.hh</text>
</a>
</g>
</g>
<!-- Node11&#45;&gt;Node13 -->
<g id="edge13" class="edge">
<title>Node11&#45;&gt;Node13</title>
<path fill="none" stroke="midnightblue" d="M430.78,-107.18C413.3,-97.24 390.27,-84.15 375.32,-75.65"/>
<polygon fill="midnightblue" stroke="midnightblue" points="429.41,-110.43 439.84,-112.32 432.87,-104.34 429.41,-110.43"/>
</g>
<!-- Node11&#45;&gt;Node14 -->
<g id="edge18" class="edge">
<title>Node11&#45;&gt;Node14</title>
<path fill="none" stroke="midnightblue" d="M489.84,-111.93C563.43,-94.77 638.43,-80.03 678.42,-72.4"/>
<polygon fill="midnightblue" stroke="midnightblue" points="488.88,-108.56 479.94,-114.25 490.48,-115.37 488.88,-108.56"/>
</g>
<!-- Node13&#45;&gt;Node4 -->
<g id="edge15" class="edge">
<title>Node13&#45;&gt;Node4</title>
<path fill="none" stroke="midnightblue" d="M360.1,-45.8C360.1,-36.91 360.1,-26.78 360.1,-19.75"/>
<polygon fill="midnightblue" stroke="midnightblue" points="356.6,-46.08 360.1,-56.08 363.6,-46.08 356.6,-46.08"/>
</g>
<!-- Node13&#45;&gt;Node7 -->
<g id="edge14" class="edge">
<title>Node13&#45;&gt;Node7</title>
<path fill="none" stroke="midnightblue" d="M384.67,-51.18C402.34,-41.24 425.61,-28.15 440.71,-19.65"/>
<polygon fill="midnightblue" stroke="midnightblue" points="382.52,-48.37 375.52,-56.32 385.95,-54.47 382.52,-48.37"/>
</g>
<!-- Node16 -->
<g id="node16" class="node">
<title>Node16</title>
<g id="a_node16"><a xlink:href="umain_8cc.html" target="_top" xlink:title=" ">
<polygon fill="white" stroke="black" points="100.1,-112.5 100.1,-131.5 156.1,-131.5 156.1,-112.5 100.1,-112.5"/>
<text text-anchor="middle" x="128.1" y="-119.5" font-family="Helvetica,sans-Serif" font-size="10.00">umain.cc</text>
</a>
</g>
</g>
<!-- Node15&#45;&gt;Node16 -->
<g id="edge22" class="edge">
<title>Node15&#45;&gt;Node16</title>
<path fill="none" stroke="midnightblue" d="M180.23,-162.1C167.28,-152.38 150.8,-140.03 139.88,-131.83"/>
<polygon fill="midnightblue" stroke="midnightblue" points="178.43,-165.12 188.53,-168.32 182.63,-159.52 178.43,-165.12"/>
</g>
<!-- Node15&#45;&gt;Node17 -->
<g id="edge23" class="edge">
<title>Node15&#45;&gt;Node17</title>
<path fill="none" stroke="midnightblue" d="M219.14,-162.1C231.55,-152.38 247.34,-140.03 257.81,-131.83"/>
<polygon fill="midnightblue" stroke="midnightblue" points="216.9,-159.4 211.18,-168.32 221.22,-164.92 216.9,-159.4"/>
</g>
<!-- Node18 -->
<g id="node18" class="node">
<title>Node18</title>
<g id="a_node18"><a xlink:href="user_2lib_2printf_8cc.html" target="_top" xlink:title=" ">
<polygon fill="white" stroke="black" points="174.1,-112.5 174.1,-131.5 226.1,-131.5 226.1,-112.5 174.1,-112.5"/>
<text text-anchor="middle" x="200.1" y="-119.5" font-family="Helvetica,sans-Serif" font-size="10.00">printf.cc</text>
</a>
</g>
</g>
<!-- Node15&#45;&gt;Node18 -->
<g id="edge24" class="edge">
<title>Node15&#45;&gt;Node18</title>
<path fill="none" stroke="midnightblue" d="M200.1,-157.8C200.1,-148.91 200.1,-138.78 200.1,-131.75"/>
<polygon fill="midnightblue" stroke="midnightblue" points="196.6,-158.08 200.1,-168.08 203.6,-158.08 196.6,-158.08"/>
</g>
<!-- Node19 -->
<g id="node19" class="node">
<title>Node19</title>
<g id="a_node19"><a xlink:href="user_2lib_2readline_8cc.html" target="_top" xlink:title=" ">
<polygon fill="white" stroke="black" points="18.1,-112.5 18.1,-131.5 82.1,-131.5 82.1,-112.5 18.1,-112.5"/>
<text text-anchor="middle" x="50.1" y="-119.5" font-family="Helvetica,sans-Serif" font-size="10.00">readline.cc</text>
</a>
</g>
</g>
<!-- Node15&#45;&gt;Node19 -->
<g id="edge25" class="edge">
<title>Node15&#45;&gt;Node19</title>
<path fill="none" stroke="midnightblue" d="M166.87,-165.04C138.65,-154.88 98.84,-140.55 73.76,-131.52"/>
<polygon fill="midnightblue" stroke="midnightblue" points="165.74,-168.35 176.33,-168.44 168.11,-161.76 165.74,-168.35"/>
</g>
<!-- Node24&#45;&gt;Node4 -->
<g id="edge33" class="edge">
<title>Node24&#45;&gt;Node4</title>
<path fill="none" stroke="midnightblue" d="M556.12,-107.93C580.77,-95.39 609.2,-75.51 593.1,-56 586.33,-47.8 438.88,-23.55 382.1,-14.48"/>
<polygon fill="midnightblue" stroke="midnightblue" points="554.43,-104.86 546.96,-112.37 557.48,-111.16 554.43,-104.86"/>
</g>
<!-- Node24&#45;&gt;Node7 -->
<g id="edge31" class="edge">
<title>Node24&#45;&gt;Node7</title>
<path fill="none" stroke="midnightblue" d="M564.76,-111.94C600.94,-101.61 646.59,-82.62 626.1,-56 607.99,-32.47 519.27,-18.72 477.68,-13.47"/>
<polygon fill="midnightblue" stroke="midnightblue" points="563.6,-108.63 554.86,-114.63 565.43,-115.39 563.6,-108.63"/>
</g>
<!-- Node24&#45;&gt;Node8 -->
<g id="edge34" class="edge">
<title>Node24&#45;&gt;Node8</title>
<path fill="none" stroke="midnightblue" d="M501.78,-107.18C484.3,-97.24 461.27,-84.15 446.32,-75.65"/>
<polygon fill="midnightblue" stroke="midnightblue" points="500.41,-110.43 510.84,-112.32 503.87,-104.34 500.41,-110.43"/>
</g>
<!-- Node24&#45;&gt;Node9 -->
<g id="edge35" class="edge">
<title>Node24&#45;&gt;Node9</title>
<path fill="none" stroke="midnightblue" d="M487.53,-111.67C416.47,-95.18 396.86,-92.58 329.1,-76 326.13,-75.27 323.03,-74.49 319.95,-73.69"/>
<polygon fill="midnightblue" stroke="midnightblue" points="486.89,-115.11 497.43,-113.97 488.48,-108.29 486.89,-115.11"/>
</g>
<!-- Node24&#45;&gt;Node12 -->
<g id="edge32" class="edge">
<title>Node24&#45;&gt;Node12</title>
<path fill="none" stroke="midnightblue" d="M534.44,-102.98C538.68,-93.82 543.65,-83.09 547.05,-75.75"/>
<polygon fill="midnightblue" stroke="midnightblue" points="531.25,-101.54 530.23,-112.08 537.6,-104.48 531.25,-101.54"/>
</g>
<!-- Node24&#45;&gt;Node14 -->
<g id="edge36" class="edge">
<title>Node24&#45;&gt;Node14</title>
<path fill="none" stroke="midnightblue" d="M564.42,-109.57C598.56,-99.38 647.76,-84.7 678.55,-75.52"/>
<polygon fill="midnightblue" stroke="midnightblue" points="563.36,-106.23 554.78,-112.44 565.36,-112.94 563.36,-106.23"/>
</g>
</g>
</svg>
        <g id="navigator" transform="translate(0 0)" fill="#404254">
                <rect fill="#f2f5e9" fill-opacity="0.5" stroke="#606060" stroke-width=".5" x="0" y="0" width="60" height="60"/>
                <use id="zoomplus" xlink:href="#zoomPlus" x="17" y="9" onmousedown="handleZoom(evt,'in')"/>
                <use id="zoomminus" xlink:href="#zoomMin" x="42" y="9" onmousedown="handleZoom(evt,'out')"/>
                <use id="reset" xlink:href="#resetDef" x="30" y="36" onmousedown="handleReset()"/>
                <g id="arrowUp" xlink:href="#dirArrow" transform="translate(30 24)" onmousedown="handlePan(0,-1)">
                  <use xlink:href="#rim" fill="#404040">
                        <set attributeName="fill" to="#808080" begin="arrowUp.mouseover" end="arrowUp.mouseout"/>
                  </use>
                  <path fill="none" stroke="white" stroke-width="1.5" d="M0,-3.0v7 M-2.5,-0.5L0,-3.0L2.5,-0.5"/>
                </g>
                <g id="arrowRight" xlink:href="#dirArrow" transform="rotate(90) translate(36 -43)" onmousedown="handlePan(1,0)">
                  <use xlink:href="#rim" fill="#404040">
                        <set attributeName="fill" to="#808080" begin="arrowRight.mouseover" end="arrowRight.mouseout"/>
                  </use>
                  <path fill="none" stroke="white" stroke-width="1.5" d="M0,-3.0v7 M-2.5,-0.5L0,-3.0L2.5,-0.5"/>
                </g>
                <g id="arrowDown" xlink:href="#dirArrow" transform="rotate(180) translate(-30 -48)" onmousedown="handlePan(0,1)">
                  <use xlink:href="#rim" fill="#404040">
                        <set attributeName="fill" to="#808080" begin="arrowDown.mouseover" end="arrowDown.mouseout"/>
                  </use>
                  <path fill="none" stroke="white" stroke-width="1.5" d="M0,-3.0v7 M-2.5,-0.5L0,-3.0L2.5,-0.5"/>
                </g>
                <g id="arrowLeft" xlink:href="#dirArrow" transform="rotate(270) translate(-36 17)" onmousedown="handlePan(-1,0)">
                  <use xlink:href="#rim" fill="#404040">
                        <set attributeName="fill" to="#808080" begin="arrowLeft.mouseover" end="arrowLeft.mouseout"/>
                  </use>
                  <path fill="none" stroke="white" stroke-width="1.5" d="M0,-3.0v7 M-2.5,-0.5L0,-3.0L2.5,-0.5"/>
                </g>
        </g>
        <svg viewBox="0 0 15 15" width="100%" height="30px" preserveAspectRatio="xMaxYMin meet">
         <g id="arrow_out" transform="scale(0.3 0.3)">
          <a xlink:href="mmu_8h__dep__incl_org.svg" target="_base">
           <rect id="button" ry="5" rx="5" y="6" x="6" height="38" width="38"
                fill="#f2f5e9" fill-opacity="0.5" stroke="#606060" stroke-width="1.0"/>
           <path id="arrow"
             d="M 11.500037,31.436501 C 11.940474,20.09759 22.043105,11.32322 32.158766,21.979434 L 37.068811,17.246167 C 37.068811,17.246167 37.088388,32 37.088388,32 L 22.160133,31.978069 C 22.160133,31.978069 26.997745,27.140456 26.997745,27.140456 C 18.528582,18.264221 13.291696,25.230495 11.500037,31.436501 z"
             style="fill:#404040;"/>
          </a>
         </g>
        </svg>
</svg>
