<?xml version="1.0" encoding="UTF-8" standalone="no"?>
<!DOCTYPE svg PUBLIC "-//W3C//DTD SVG 1.1//EN"
 "http://www.w3.org/Graphics/SVG/1.1/DTD/svg11.dtd">
<!-- Generated by graphviz version 2.44.1 (20200629.0846)
 -->
<!-- Title: monitor.cc Pages: 1 -->
<!--zoomable 420 -->
<svg id="main" version="1.1" xmlns="http://www.w3.org/2000/svg" xmlns:xlink="http://www.w3.org/1999/xlink" xml:space="preserve" onload="init(evt)">
<style type="text/css"><![CDATA[
.edge:hover path { stroke: red; }
.edge:hover polygon { stroke: red; fill: red; }
]]></style>
<script type="text/javascript"><![CDATA[
var edges = document.getElementsByTagName('g');
if (edges && edges.length) {
  for (var i=0;i<edges.length;i++) {
    if (edges[i].id.substr(0,4)=='edge') {
      edges[i].setAttribute('class','edge');
    }
  }
}
]]></script>
        <defs>
                <circle id="rim" cx="0" cy="0" r="7"/>
                <circle id="rim2" cx="0" cy="0" r="3.5"/>
                <g id="zoomPlus">
                        <use xlink:href="#rim" fill="#404040">
                                <set attributeName="fill" to="#808080" begin="zoomplus.mouseover" end="zoomplus.mouseout"/>
                        </use>
                        <path d="M-4,0h8M0,-4v8" fill="none" stroke="white" stroke-width="1.5" pointer-events="none"/>
                </g>
                <g id="zoomMin">
                        <use xlink:href="#rim" fill="#404040">
                                <set attributeName="fill" to="#808080" begin="zoomminus.mouseover" end="zoomminus.mouseout"/>
                        </use>
                        <path d="M-4,0h8" fill="none" stroke="white" stroke-width="1.5" pointer-events="none"/>
                </g>
                <g id="dirArrow">
                        <path fill="none" stroke="white" stroke-width="1.5" d="M0,-3.0v7 M-2.5,-0.5L0,-3.0L2.5,-0.5"/>
                </g>
               <g id="resetDef">
                       <use xlink:href="#rim2" fill="#404040">
                               <set attributeName="fill" to="#808080" begin="reset.mouseover" end="reset.mouseout"/>
                       </use>
               </g>
        </defs>

<script type="text/javascript">
var viewWidth = 1126;
var viewHeight = 420;
var sectionId = 'dynsection-0';
</script>
<script xlink:href="svgpan.js"/>
<svg id="graph" class="graph">
<g id="viewport">
<title>monitor.cc</title>
<polygon fill="white" stroke="transparent" points="-4,4 -4,-416 1121.5,-416 1121.5,4 -4,4"/>
<!-- Node1 -->
<g id="node1" class="node">
<title>Node1</title>
<g id="a_node1"><a xlink:title=" ">
<polygon fill="#bfbfbf" stroke="black" points="597,-392.5 597,-411.5 659,-411.5 659,-392.5 597,-392.5"/>
<text text-anchor="middle" x="628" y="-399.5" font-family="Helvetica,sans-Serif" font-size="10.00">monitor.cc</text>
</a>
</g>
</g>
<!-- Node2 -->
<g id="node2" class="node">
<title>Node2</title>
<g id="a_node2"><a xlink:href="stdio_8hh.html" target="_top" xlink:title=" ">
<polygon fill="white" stroke="black" points="129.5,-280.5 129.5,-299.5 214.5,-299.5 214.5,-280.5 129.5,-280.5"/>
<text text-anchor="middle" x="172" y="-287.5" font-family="Helvetica,sans-Serif" font-size="10.00">include/stdio.hh</text>
</a>
</g>
</g>
<!-- Node1&#45;&gt;Node2 -->
<g id="edge1" class="edge">
<title>Node1&#45;&gt;Node2</title>
<path fill="none" stroke="midnightblue" d="M596.53,-401.61C533.23,-401.85 386.84,-397.42 273,-356 241.22,-344.44 209.18,-321.44 189.95,-306.14"/>
<polygon fill="midnightblue" stroke="midnightblue" points="192.03,-303.32 182.07,-299.71 187.61,-308.74 192.03,-303.32"/>
</g>
<!-- Node13 -->
<g id="node13" class="node">
<title>Node13</title>
<g id="a_node13"><a xlink:href="monitor_8hh.html" target="_top" xlink:title=" ">
<polygon fill="white" stroke="black" points="582.5,-336.5 582.5,-355.5 673.5,-355.5 673.5,-336.5 582.5,-336.5"/>
<text text-anchor="middle" x="628" y="-343.5" font-family="Helvetica,sans-Serif" font-size="10.00">kernel/monitor.hh</text>
</a>
</g>
</g>
<!-- Node1&#45;&gt;Node13 -->
<g id="edge14" class="edge">
<title>Node1&#45;&gt;Node13</title>
<path fill="none" stroke="midnightblue" d="M628,-392.08C628,-385.01 628,-374.86 628,-365.99"/>
<polygon fill="midnightblue" stroke="midnightblue" points="631.5,-365.75 628,-355.75 624.5,-365.75 631.5,-365.75"/>
</g>
<!-- Node17 -->
<g id="node17" class="node">
<title>Node17</title>
<g id="a_node17"><a xlink:href="string_8hh.html" target="_top" xlink:title=" ">
<polygon fill="white" stroke="black" points="402,-168.5 402,-187.5 490,-187.5 490,-168.5 402,-168.5"/>
<text text-anchor="middle" x="446" y="-175.5" font-family="Helvetica,sans-Serif" font-size="10.00">include/string.hh</text>
</a>
</g>
</g>
<!-- Node1&#45;&gt;Node17 -->
<g id="edge33" class="edge">
<title>Node1&#45;&gt;Node17</title>
<path fill="none" stroke="midnightblue" d="M596.66,-397.66C548.19,-391.86 458.31,-378.36 436,-356 394.18,-314.09 401.73,-280.93 418,-224 420.9,-213.84 426.83,-203.75 432.49,-195.7"/>
<polygon fill="midnightblue" stroke="midnightblue" points="435.38,-197.69 438.59,-187.59 429.78,-193.48 435.38,-197.69"/>
</g>
<!-- Node22 -->
<g id="node22" class="node">
<title>Node22</title>
<g id="a_node22"><a xlink:href="version_8h.html" target="_top" xlink:title=" ">
<polygon fill="white" stroke="black" points="791,-336.5 791,-355.5 877,-355.5 877,-336.5 791,-336.5"/>
<text text-anchor="middle" x="834" y="-343.5" font-family="Helvetica,sans-Serif" font-size="10.00">kernel/version.h</text>
</a>
</g>
</g>
<!-- Node1&#45;&gt;Node22 -->
<g id="edge29" class="edge">
<title>Node1&#45;&gt;Node22</title>
<path fill="none" stroke="midnightblue" d="M659.29,-392.8C694.59,-383.54 752.22,-368.44 791.56,-358.12"/>
<polygon fill="midnightblue" stroke="midnightblue" points="792.61,-361.47 801.4,-355.55 790.84,-354.7 792.61,-361.47"/>
</g>
<!-- Node23 -->
<g id="node23" class="node">
<title>Node23</title>
<g id="a_node23"><a xlink:href="system_8hh.html" target="_top" xlink:title=" ">
<polygon fill="white" stroke="black" points="921,-336.5 921,-355.5 1013,-355.5 1013,-336.5 921,-336.5"/>
<text text-anchor="middle" x="967" y="-343.5" font-family="Helvetica,sans-Serif" font-size="10.00">kernel/system.hh</text>
</a>
</g>
</g>
<!-- Node1&#45;&gt;Node23 -->
<g id="edge31" class="edge">
<title>Node1&#45;&gt;Node23</title>
<path fill="none" stroke="midnightblue" d="M659.28,-396.02C716.46,-386.91 838.57,-367.46 910.59,-355.99"/>
<polygon fill="midnightblue" stroke="midnightblue" points="911.51,-359.38 920.84,-354.35 910.41,-352.47 911.51,-359.38"/>
</g>
<!-- Node24 -->
<g id="node24" class="node">
<title>Node24</title>
<g id="a_node24"><a xlink:href="kdebug_8hh.html" target="_top" xlink:title=" ">
<polygon fill="white" stroke="black" points="1026.5,-224.5 1026.5,-243.5 1117.5,-243.5 1117.5,-224.5 1026.5,-224.5"/>
<text text-anchor="middle" x="1072" y="-231.5" font-family="Helvetica,sans-Serif" font-size="10.00">kernel/kdebug.hh</text>
</a>
</g>
</g>
<!-- Node1&#45;&gt;Node24 -->
<g id="edge34" class="edge">
<title>Node1&#45;&gt;Node24</title>
<path fill="none" stroke="midnightblue" d="M659.23,-401.4C742.08,-401.86 965.05,-398.97 1022,-356 1054.71,-331.33 1066.14,-281.41 1070.05,-254.03"/>
<polygon fill="midnightblue" stroke="midnightblue" points="1073.56,-254.17 1071.3,-243.82 1066.61,-253.32 1073.56,-254.17"/>
</g>
<!-- Node25 -->
<g id="node25" class="node">
<title>Node25</title>
<g id="a_node25"><a xlink:href="vmem_8hh.html" target="_top" xlink:title=" ">
<polygon fill="white" stroke="black" points="445,-336.5 445,-355.5 531,-355.5 531,-336.5 445,-336.5"/>
<text text-anchor="middle" x="488" y="-343.5" font-family="Helvetica,sans-Serif" font-size="10.00">kernel/vmem.hh</text>
</a>
</g>
</g>
<!-- Node1&#45;&gt;Node25 -->
<g id="edge36" class="edge">
<title>Node1&#45;&gt;Node25</title>
<path fill="none" stroke="midnightblue" d="M605.82,-392.44C582.57,-383.48 545.85,-369.31 519.58,-359.18"/>
<polygon fill="midnightblue" stroke="midnightblue" points="520.67,-355.85 510.08,-355.52 518.15,-362.38 520.67,-355.85"/>
</g>
<!-- Node28 -->
<g id="node28" class="node">
<title>Node28</title>
<g id="a_node28"><a xlink:href="console_8hh.html" target="_top" xlink:title=" ">
<polygon fill="white" stroke="black" points="244,-224.5 244,-243.5 308,-243.5 308,-224.5 244,-224.5"/>
<text text-anchor="middle" x="276" y="-231.5" font-family="Helvetica,sans-Serif" font-size="10.00">console.hh</text>
</a>
</g>
</g>
<!-- Node1&#45;&gt;Node28 -->
<g id="edge44" class="edge">
<title>Node1&#45;&gt;Node28</title>
<path fill="none" stroke="midnightblue" d="M596.75,-400.32C527.49,-398.2 363.91,-389.67 322,-356 290.42,-330.63 280.51,-281 277.4,-253.85"/>
<polygon fill="midnightblue" stroke="midnightblue" points="280.87,-253.35 276.45,-243.73 273.9,-254.01 280.87,-253.35"/>
</g>
<!-- Node29 -->
<g id="node29" class="node">
<title>Node29</title>
<g id="a_node29"><a xlink:href="kernel_2task_8hh.html" target="_top" xlink:title=" ">
<polygon fill="white" stroke="black" points="691.5,-336.5 691.5,-355.5 740.5,-355.5 740.5,-336.5 691.5,-336.5"/>
<text text-anchor="middle" x="716" y="-343.5" font-family="Helvetica,sans-Serif" font-size="10.00">task.hh</text>
</a>
</g>
</g>
<!-- Node1&#45;&gt;Node29 -->
<g id="edge48" class="edge">
<title>Node1&#45;&gt;Node29</title>
<path fill="none" stroke="midnightblue" d="M642.14,-392.32C655.87,-383.9 676.94,-370.97 693.06,-361.07"/>
<polygon fill="midnightblue" stroke="midnightblue" points="695.2,-363.87 701.9,-355.65 691.54,-357.9 695.2,-363.87"/>
</g>
<!-- Node3 -->
<g id="node3" class="node">
<title>Node3</title>
<g id="a_node3"><a xlink:href="stdin_8hh.html" target="_top" xlink:title=" ">
<polygon fill="white" stroke="black" points="6.5,-224.5 6.5,-243.5 91.5,-243.5 91.5,-224.5 6.5,-224.5"/>
<text text-anchor="middle" x="49" y="-231.5" font-family="Helvetica,sans-Serif" font-size="10.00">include/stdin.hh</text>
</a>
</g>
</g>
<!-- Node2&#45;&gt;Node3 -->
<g id="edge2" class="edge">
<title>Node2&#45;&gt;Node3</title>
<path fill="none" stroke="midnightblue" d="M152.51,-280.44C132.36,-271.6 100.68,-257.69 77.67,-247.59"/>
<polygon fill="midnightblue" stroke="midnightblue" points="78.96,-244.33 68.4,-243.52 76.15,-250.74 78.96,-244.33"/>
</g>
<!-- Node6 -->
<g id="node6" class="node">
<title>Node6</title>
<g id="a_node6"><a xlink:href="stdout_8hh.html" target="_top" xlink:title=" ">
<polygon fill="white" stroke="black" points="126.5,-224.5 126.5,-243.5 217.5,-243.5 217.5,-224.5 126.5,-224.5"/>
<text text-anchor="middle" x="172" y="-231.5" font-family="Helvetica,sans-Serif" font-size="10.00">include/stdout.hh</text>
</a>
</g>
</g>
<!-- Node2&#45;&gt;Node6 -->
<g id="edge5" class="edge">
<title>Node2&#45;&gt;Node6</title>
<path fill="none" stroke="midnightblue" d="M172,-280.08C172,-273.01 172,-262.86 172,-253.99"/>
<polygon fill="midnightblue" stroke="midnightblue" points="175.5,-253.75 172,-243.75 168.5,-253.75 175.5,-253.75"/>
</g>
<!-- Node4 -->
<g id="node4" class="node">
<title>Node4</title>
<g id="a_node4"><a xlink:href="vargs_8hh.html" target="_top" xlink:title=" ">
<polygon fill="white" stroke="black" points="0,-168.5 0,-187.5 88,-187.5 88,-168.5 0,-168.5"/>
<text text-anchor="middle" x="44" y="-175.5" font-family="Helvetica,sans-Serif" font-size="10.00">include/vargs.hh</text>
</a>
</g>
</g>
<!-- Node3&#45;&gt;Node4 -->
<g id="edge3" class="edge">
<title>Node3&#45;&gt;Node4</title>
<path fill="none" stroke="midnightblue" d="M48.17,-224.08C47.52,-217.01 46.58,-206.86 45.76,-197.99"/>
<polygon fill="midnightblue" stroke="midnightblue" points="49.22,-197.39 44.81,-187.75 42.25,-198.03 49.22,-197.39"/>
</g>
<!-- Node5 -->
<g id="node5" class="node">
<title>Node5</title>
<g id="a_node5"><a xlink:title=" ">
<polygon fill="white" stroke="#bfbfbf" points="19.5,-112.5 19.5,-131.5 68.5,-131.5 68.5,-112.5 19.5,-112.5"/>
<text text-anchor="middle" x="44" y="-119.5" font-family="Helvetica,sans-Serif" font-size="10.00">cstdarg</text>
</a>
</g>
</g>
<!-- Node4&#45;&gt;Node5 -->
<g id="edge4" class="edge">
<title>Node4&#45;&gt;Node5</title>
<path fill="none" stroke="midnightblue" d="M44,-168.08C44,-161.01 44,-150.86 44,-141.99"/>
<polygon fill="midnightblue" stroke="midnightblue" points="47.5,-141.75 44,-131.75 40.5,-141.75 47.5,-141.75"/>
</g>
<!-- Node6&#45;&gt;Node4 -->
<g id="edge11" class="edge">
<title>Node6&#45;&gt;Node4</title>
<path fill="none" stroke="midnightblue" d="M151.72,-224.44C130.65,-215.56 97.48,-201.56 73.51,-191.45"/>
<polygon fill="midnightblue" stroke="midnightblue" points="74.76,-188.18 64.19,-187.52 72.04,-194.63 74.76,-188.18"/>
</g>
<!-- Node7 -->
<g id="node7" class="node">
<title>Node7</title>
<g id="a_node7"><a xlink:href="types_8h.html" target="_top" xlink:title=" ">
<polygon fill="white" stroke="black" points="385.5,-56.5 385.5,-75.5 468.5,-75.5 468.5,-56.5 385.5,-56.5"/>
<text text-anchor="middle" x="427" y="-63.5" font-family="Helvetica,sans-Serif" font-size="10.00">include/types.h</text>
</a>
</g>
</g>
<!-- Node6&#45;&gt;Node7 -->
<g id="edge6" class="edge">
<title>Node6&#45;&gt;Node7</title>
<path fill="none" stroke="midnightblue" d="M175.55,-224.33C181.49,-210.74 194.63,-184.29 213,-168 264.4,-122.41 339.96,-93.28 386.19,-78.57"/>
<polygon fill="midnightblue" stroke="midnightblue" points="387.36,-81.87 395.87,-75.56 385.28,-75.18 387.36,-81.87"/>
</g>
<!-- Node11 -->
<g id="node11" class="node">
<title>Node11</title>
<g id="a_node11"><a xlink:href="color_8h.html" target="_top" xlink:title=" ">
<polygon fill="white" stroke="black" points="222.5,-168.5 222.5,-187.5 301.5,-187.5 301.5,-168.5 222.5,-168.5"/>
<text text-anchor="middle" x="262" y="-175.5" font-family="Helvetica,sans-Serif" font-size="10.00">include/color.h</text>
</a>
</g>
</g>
<!-- Node6&#45;&gt;Node11 -->
<g id="edge12" class="edge">
<title>Node6&#45;&gt;Node11</title>
<path fill="none" stroke="midnightblue" d="M186.46,-224.32C200.5,-215.9 222.05,-202.97 238.54,-193.07"/>
<polygon fill="midnightblue" stroke="midnightblue" points="240.8,-195.8 247.58,-187.65 237.2,-189.8 240.8,-195.8"/>
</g>
<!-- Node12 -->
<g id="node12" class="node">
<title>Node12</title>
<g id="a_node12"><a xlink:title=" ">
<polygon fill="white" stroke="#bfbfbf" points="106.5,-168.5 106.5,-187.5 165.5,-187.5 165.5,-168.5 106.5,-168.5"/>
<text text-anchor="middle" x="136" y="-175.5" font-family="Helvetica,sans-Serif" font-size="10.00">functional</text>
</a>
</g>
</g>
<!-- Node6&#45;&gt;Node12 -->
<g id="edge13" class="edge">
<title>Node6&#45;&gt;Node12</title>
<path fill="none" stroke="midnightblue" d="M166.06,-224.08C161.02,-216.53 153.66,-205.49 147.49,-196.23"/>
<polygon fill="midnightblue" stroke="midnightblue" points="150.29,-194.13 141.83,-187.75 144.47,-198.01 150.29,-194.13"/>
</g>
<!-- Node8 -->
<g id="node8" class="node">
<title>Node8</title>
<g id="a_node8"><a xlink:title=" ">
<polygon fill="white" stroke="#bfbfbf" points="299,-0.5 299,-19.5 351,-19.5 351,-0.5 299,-0.5"/>
<text text-anchor="middle" x="325" y="-7.5" font-family="Helvetica,sans-Serif" font-size="10.00">stddef.h</text>
</a>
</g>
</g>
<!-- Node7&#45;&gt;Node8 -->
<g id="edge7" class="edge">
<title>Node7&#45;&gt;Node8</title>
<path fill="none" stroke="midnightblue" d="M410.61,-56.32C394.33,-47.7 369.13,-34.36 350.28,-24.39"/>
<polygon fill="midnightblue" stroke="midnightblue" points="351.82,-21.24 341.35,-19.65 348.55,-27.43 351.82,-21.24"/>
</g>
<!-- Node9 -->
<g id="node9" class="node">
<title>Node9</title>
<g id="a_node9"><a xlink:title=" ">
<polygon fill="white" stroke="#bfbfbf" points="369.5,-0.5 369.5,-19.5 418.5,-19.5 418.5,-0.5 369.5,-0.5"/>
<text text-anchor="middle" x="394" y="-7.5" font-family="Helvetica,sans-Serif" font-size="10.00">stdint.h</text>
</a>
</g>
</g>
<!-- Node7&#45;&gt;Node9 -->
<g id="edge8" class="edge">
<title>Node7&#45;&gt;Node9</title>
<path fill="none" stroke="midnightblue" d="M421.55,-56.08C416.99,-48.61 410.33,-37.72 404.71,-28.52"/>
<polygon fill="midnightblue" stroke="midnightblue" points="407.55,-26.46 399.35,-19.75 401.58,-30.11 407.55,-26.46"/>
</g>
<!-- Node10 -->
<g id="node10" class="node">
<title>Node10</title>
<g id="a_node10"><a xlink:href="ctype_8h.html" target="_top" xlink:title=" ">
<polygon fill="white" stroke="black" points="436.5,-0.5 436.5,-19.5 485.5,-19.5 485.5,-0.5 436.5,-0.5"/>
<text text-anchor="middle" x="461" y="-7.5" font-family="Helvetica,sans-Serif" font-size="10.00">ctype.h</text>
</a>
</g>
</g>
<!-- Node7&#45;&gt;Node10 -->
<g id="edge9" class="edge">
<title>Node7&#45;&gt;Node10</title>
<path fill="none" stroke="midnightblue" d="M427.45,-56.08C430.67,-48.38 437.44,-37.03 444.23,-27.65"/>
<polygon fill="midnightblue" stroke="midnightblue" points="446.99,-29.8 450.36,-19.75 441.46,-25.5 446.99,-29.8"/>
</g>
<!-- Node10&#45;&gt;Node7 -->
<g id="edge10" class="edge">
<title>Node10&#45;&gt;Node7</title>
<path fill="none" stroke="midnightblue" d="M460.62,-19.75C457.45,-27.4 450.7,-38.74 443.92,-48.14"/>
<polygon fill="midnightblue" stroke="midnightblue" points="441.13,-46.03 437.78,-56.08 446.67,-50.31 441.13,-46.03"/>
</g>
<!-- Node14 -->
<g id="node14" class="node">
<title>Node14</title>
<g id="a_node14"><a xlink:href="knlast_8inc.html" target="_top" xlink:title=" ">
<polygon fill="white" stroke="black" points="738,-168.5 738,-187.5 826,-187.5 826,-168.5 738,-168.5"/>
<text text-anchor="middle" x="782" y="-175.5" font-family="Helvetica,sans-Serif" font-size="10.00">kernel/knlast.inc</text>
</a>
</g>
</g>
<!-- Node13&#45;&gt;Node14 -->
<g id="edge15" class="edge">
<title>Node13&#45;&gt;Node14</title>
<path fill="none" stroke="midnightblue" d="M668.01,-336.5C703.14,-328.2 750.55,-314.71 763,-300 787.53,-271.02 787.08,-223.59 784.57,-197.56"/>
<polygon fill="midnightblue" stroke="midnightblue" points="788.03,-197.05 783.39,-187.53 781.08,-197.87 788.03,-197.05"/>
</g>
<!-- Node15 -->
<g id="node15" class="node">
<title>Node15</title>
<g id="a_node15"><a xlink:href="kernel_2trap_8hh.html" target="_top" xlink:title=" ">
<polygon fill="white" stroke="black" points="678,-280.5 678,-299.5 754,-299.5 754,-280.5 678,-280.5"/>
<text text-anchor="middle" x="716" y="-287.5" font-family="Helvetica,sans-Serif" font-size="10.00">kernel/trap.hh</text>
</a>
</g>
</g>
<!-- Node13&#45;&gt;Node15 -->
<g id="edge16" class="edge">
<title>Node13&#45;&gt;Node15</title>
<path fill="none" stroke="midnightblue" d="M642.14,-336.32C655.87,-327.9 676.94,-314.97 693.06,-305.07"/>
<polygon fill="midnightblue" stroke="midnightblue" points="695.2,-307.87 701.9,-299.65 691.54,-301.9 695.2,-307.87"/>
</g>
<!-- Node21 -->
<g id="node21" class="node">
<title>Node21</title>
<g id="a_node21"><a xlink:href="result_8hh.html" target="_top" xlink:title=" ">
<polygon fill="white" stroke="black" points="516,-280.5 516,-299.5 604,-299.5 604,-280.5 516,-280.5"/>
<text text-anchor="middle" x="560" y="-287.5" font-family="Helvetica,sans-Serif" font-size="10.00">include/result.hh</text>
</a>
</g>
</g>
<!-- Node13&#45;&gt;Node21 -->
<g id="edge28" class="edge">
<title>Node13&#45;&gt;Node21</title>
<path fill="none" stroke="midnightblue" d="M617.07,-336.32C606.83,-328.18 591.28,-315.84 579,-306.09"/>
<polygon fill="midnightblue" stroke="midnightblue" points="581.13,-303.31 571.12,-299.83 576.78,-308.79 581.13,-303.31"/>
</g>
<!-- Node15&#45;&gt;Node14 -->
<g id="edge25" class="edge">
<title>Node15&#45;&gt;Node14</title>
<path fill="none" stroke="midnightblue" d="M721.18,-280.37C732.02,-262.3 757.29,-220.18 771.62,-196.31"/>
<polygon fill="midnightblue" stroke="midnightblue" points="774.7,-197.97 776.85,-187.59 768.7,-194.37 774.7,-197.97"/>
</g>
<!-- Node16 -->
<g id="node16" class="node">
<title>Node16</title>
<g id="a_node16"><a xlink:href="include_2trap_8hh.html" target="_top" xlink:title=" ">
<polygon fill="white" stroke="black" points="440,-224.5 440,-243.5 520,-243.5 520,-224.5 440,-224.5"/>
<text text-anchor="middle" x="480" y="-231.5" font-family="Helvetica,sans-Serif" font-size="10.00">include/trap.hh</text>
</a>
</g>
</g>
<!-- Node15&#45;&gt;Node16 -->
<g id="edge17" class="edge">
<title>Node15&#45;&gt;Node16</title>
<path fill="none" stroke="midnightblue" d="M678.61,-280.44C637.61,-271.06 571.75,-255.99 527.22,-245.8"/>
<polygon fill="midnightblue" stroke="midnightblue" points="527.75,-242.34 517.22,-243.52 526.19,-249.16 527.75,-242.34"/>
</g>
<!-- Node20 -->
<g id="node20" class="node">
<title>Node20</title>
<g id="a_node20"><a xlink:href="panic_8hh.html" target="_top" xlink:title=" ">
<polygon fill="white" stroke="black" points="632.5,-224.5 632.5,-243.5 715.5,-243.5 715.5,-224.5 632.5,-224.5"/>
<text text-anchor="middle" x="674" y="-231.5" font-family="Helvetica,sans-Serif" font-size="10.00">kernel/panic.hh</text>
</a>
</g>
</g>
<!-- Node15&#45;&gt;Node20 -->
<g id="edge26" class="edge">
<title>Node15&#45;&gt;Node20</title>
<path fill="none" stroke="midnightblue" d="M709.06,-280.08C703.07,-272.38 694.25,-261.03 686.95,-251.65"/>
<polygon fill="midnightblue" stroke="midnightblue" points="689.71,-249.5 680.81,-243.75 684.18,-253.79 689.71,-249.5"/>
</g>
<!-- Node16&#45;&gt;Node17 -->
<g id="edge18" class="edge">
<title>Node16&#45;&gt;Node17</title>
<path fill="none" stroke="midnightblue" d="M474.39,-224.08C469.63,-216.53 462.68,-205.49 456.85,-196.23"/>
<polygon fill="midnightblue" stroke="midnightblue" points="459.8,-194.35 451.51,-187.75 453.88,-198.08 459.8,-194.35"/>
</g>
<!-- Node18 -->
<g id="node18" class="node">
<title>Node18</title>
<g id="a_node18"><a xlink:href="mmu_8h.html" target="_top" xlink:title=" ">
<polygon fill="white" stroke="black" points="526,-112.5 526,-131.5 606,-131.5 606,-112.5 526,-112.5"/>
<text text-anchor="middle" x="566" y="-119.5" font-family="Helvetica,sans-Serif" font-size="10.00">include/mmu.h</text>
</a>
</g>
</g>
<!-- Node16&#45;&gt;Node18 -->
<g id="edge20" class="edge">
<title>Node16&#45;&gt;Node18</title>
<path fill="none" stroke="midnightblue" d="M520.24,-226C558.64,-218.39 612.45,-205.03 625,-188 639,-169 614.47,-149.2 592.9,-136.52"/>
<polygon fill="midnightblue" stroke="midnightblue" points="594.4,-133.35 583.96,-131.54 591,-139.47 594.4,-133.35"/>
</g>
<!-- Node19 -->
<g id="node19" class="node">
<title>Node19</title>
<g id="a_node19"><a xlink:href="memlayout_8h.html" target="_top" xlink:title=" ">
<polygon fill="white" stroke="black" points="508.5,-168.5 508.5,-187.5 615.5,-187.5 615.5,-168.5 508.5,-168.5"/>
<text text-anchor="middle" x="562" y="-175.5" font-family="Helvetica,sans-Serif" font-size="10.00">include/memlayout.h</text>
</a>
</g>
</g>
<!-- Node16&#45;&gt;Node19 -->
<g id="edge22" class="edge">
<title>Node16&#45;&gt;Node19</title>
<path fill="none" stroke="midnightblue" d="M493.17,-224.32C505.85,-215.98 525.23,-203.21 540.21,-193.35"/>
<polygon fill="midnightblue" stroke="midnightblue" points="542.43,-196.08 548.86,-187.65 538.58,-190.23 542.43,-196.08"/>
</g>
<!-- Node17&#45;&gt;Node7 -->
<g id="edge19" class="edge">
<title>Node17&#45;&gt;Node7</title>
<path fill="none" stroke="midnightblue" d="M445.95,-168.09C445.73,-155.48 444.79,-131.79 441,-112 439.29,-103.06 436.42,-93.39 433.72,-85.32"/>
<polygon fill="midnightblue" stroke="midnightblue" points="437,-84.09 430.39,-75.81 430.4,-86.41 437,-84.09"/>
</g>
<!-- Node18&#45;&gt;Node7 -->
<g id="edge21" class="edge">
<title>Node18&#45;&gt;Node7</title>
<path fill="none" stroke="midnightblue" d="M543.98,-112.44C520.9,-103.48 484.44,-89.31 458.36,-79.18"/>
<polygon fill="midnightblue" stroke="midnightblue" points="459.51,-75.88 448.92,-75.52 456.98,-82.4 459.51,-75.88"/>
</g>
<!-- Node19&#45;&gt;Node7 -->
<g id="edge23" class="edge">
<title>Node19&#45;&gt;Node7</title>
<path fill="none" stroke="midnightblue" d="M551.41,-168.37C528.54,-149.73 474.29,-105.53 445.57,-82.13"/>
<polygon fill="midnightblue" stroke="midnightblue" points="447.51,-79.19 437.54,-75.59 443.09,-84.62 447.51,-79.19"/>
</g>
<!-- Node19&#45;&gt;Node18 -->
<g id="edge24" class="edge">
<title>Node19&#45;&gt;Node18</title>
<path fill="none" stroke="midnightblue" d="M562.66,-168.08C563.18,-161.01 563.94,-150.86 564.59,-141.99"/>
<polygon fill="midnightblue" stroke="midnightblue" points="568.1,-141.98 565.35,-131.75 561.12,-141.47 568.1,-141.98"/>
</g>
<!-- Node20&#45;&gt;Node14 -->
<g id="edge27" class="edge">
<title>Node20&#45;&gt;Node14</title>
<path fill="none" stroke="midnightblue" d="M691.35,-224.32C708.67,-215.66 735.52,-202.24 755.5,-192.25"/>
<polygon fill="midnightblue" stroke="midnightblue" points="757.31,-195.26 764.69,-187.65 754.18,-189 757.31,-195.26"/>
</g>
<!-- Node22&#45;&gt;Node14 -->
<g id="edge30" class="edge">
<title>Node22&#45;&gt;Node14</title>
<path fill="none" stroke="midnightblue" d="M877,-336.77C913.47,-327.58 957.43,-309.91 941,-280 915.48,-233.56 858.58,-205.45 820.23,-191.07"/>
<polygon fill="midnightblue" stroke="midnightblue" points="821.03,-187.63 810.44,-187.54 818.66,-194.22 821.03,-187.63"/>
</g>
<!-- Node23&#45;&gt;Node14 -->
<g id="edge32" class="edge">
<title>Node23&#45;&gt;Node14</title>
<path fill="none" stroke="midnightblue" d="M966.82,-336.22C966.26,-323.37 964.13,-298.93 956,-280 943.73,-251.41 939.18,-242.28 914,-224 890.99,-207.3 861.32,-196.45 835.94,-189.6"/>
<polygon fill="midnightblue" stroke="midnightblue" points="836.64,-186.17 826.09,-187.08 834.91,-192.95 836.64,-186.17"/>
</g>
<!-- Node24&#45;&gt;Node14 -->
<g id="edge35" class="edge">
<title>Node24&#45;&gt;Node14</title>
<path fill="none" stroke="midnightblue" d="M1026.37,-224.5C974.86,-214.91 891.13,-199.32 836.3,-189.11"/>
<polygon fill="midnightblue" stroke="midnightblue" points="836.89,-185.66 826.41,-187.27 835.6,-192.54 836.89,-185.66"/>
</g>
<!-- Node25&#45;&gt;Node14 -->
<g id="edge37" class="edge">
<title>Node25&#45;&gt;Node14</title>
<path fill="none" stroke="midnightblue" d="M485.66,-336.07C482.68,-322.6 479.24,-296.86 491,-280 518.71,-240.28 652.87,-206.21 728.98,-189.67"/>
<polygon fill="midnightblue" stroke="midnightblue" points="729.83,-193.07 738.87,-187.55 728.36,-186.23 729.83,-193.07"/>
</g>
<!-- Node25&#45;&gt;Node19 -->
<g id="edge41" class="edge">
<title>Node25&#45;&gt;Node19</title>
<path fill="none" stroke="midnightblue" d="M472.84,-336.44C460.61,-328.65 444.16,-315.94 436,-300 420.57,-269.87 411.33,-251.55 431,-224 440.75,-210.34 478.8,-198.2 511.4,-189.98"/>
<polygon fill="midnightblue" stroke="midnightblue" points="512.42,-193.34 521.31,-187.56 510.76,-186.54 512.42,-193.34"/>
</g>
<!-- Node25&#45;&gt;Node20 -->
<g id="edge43" class="edge">
<title>Node25&#45;&gt;Node20</title>
<path fill="none" stroke="midnightblue" d="M488,-336.06C488.49,-322.09 491.54,-295.13 507,-280 537.5,-250.14 585.61,-239.57 622.38,-236.07"/>
<polygon fill="midnightblue" stroke="midnightblue" points="622.73,-239.55 632.42,-235.26 622.17,-232.57 622.73,-239.55"/>
</g>
<!-- Node25&#45;&gt;Node21 -->
<g id="edge42" class="edge">
<title>Node25&#45;&gt;Node21</title>
<path fill="none" stroke="midnightblue" d="M499.57,-336.32C510.42,-328.18 526.88,-315.84 539.88,-306.09"/>
<polygon fill="midnightblue" stroke="midnightblue" points="542.32,-308.63 548.22,-299.83 538.12,-303.03 542.32,-308.63"/>
</g>
<!-- Node26 -->
<g id="node26" class="node">
<title>Node26</title>
<g id="a_node26"><a xlink:title=" ">
<polygon fill="white" stroke="#bfbfbf" points="622,-280.5 622,-299.5 660,-299.5 660,-280.5 622,-280.5"/>
<text text-anchor="middle" x="641" y="-287.5" font-family="Helvetica,sans-Serif" font-size="10.00">tuple</text>
</a>
</g>
</g>
<!-- Node25&#45;&gt;Node26 -->
<g id="edge38" class="edge">
<title>Node25&#45;&gt;Node26</title>
<path fill="none" stroke="midnightblue" d="M512.24,-336.44C539.38,-326.87 583.32,-311.36 612.18,-301.17"/>
<polygon fill="midnightblue" stroke="midnightblue" points="613.45,-304.44 621.71,-297.81 611.12,-297.83 613.45,-304.44"/>
</g>
<!-- Node27 -->
<g id="node27" class="node">
<title>Node27</title>
<g id="a_node27"><a xlink:href="x86_8h.html" target="_top" xlink:title=" ">
<polygon fill="white" stroke="black" points="358,-112.5 358,-131.5 432,-131.5 432,-112.5 358,-112.5"/>
<text text-anchor="middle" x="395" y="-119.5" font-family="Helvetica,sans-Serif" font-size="10.00">include/x86.h</text>
</a>
</g>
</g>
<!-- Node25&#45;&gt;Node27 -->
<g id="edge39" class="edge">
<title>Node25&#45;&gt;Node27</title>
<path fill="none" stroke="midnightblue" d="M469,-336.45C454.32,-328.89 434.62,-316.5 423,-300 388.72,-251.32 390.05,-176.51 392.9,-141.84"/>
<polygon fill="midnightblue" stroke="midnightblue" points="396.4,-142.01 393.88,-131.72 389.43,-141.34 396.4,-142.01"/>
</g>
<!-- Node27&#45;&gt;Node7 -->
<g id="edge40" class="edge">
<title>Node27&#45;&gt;Node7</title>
<path fill="none" stroke="midnightblue" d="M400.28,-112.08C404.71,-104.61 411.16,-93.72 416.62,-84.52"/>
<polygon fill="midnightblue" stroke="midnightblue" points="419.73,-86.14 421.81,-75.75 413.71,-82.57 419.73,-86.14"/>
</g>
<!-- Node28&#45;&gt;Node7 -->
<g id="edge46" class="edge">
<title>Node28&#45;&gt;Node7</title>
<path fill="none" stroke="midnightblue" d="M283.24,-224.36C290.47,-215.53 301.67,-201.27 310,-188 330.19,-155.85 322.82,-139.5 349,-112 362.03,-98.31 380.15,-87.51 395.65,-79.93"/>
<polygon fill="midnightblue" stroke="midnightblue" points="397.3,-83.02 404.89,-75.63 394.35,-76.68 397.3,-83.02"/>
</g>
<!-- Node28&#45;&gt;Node11 -->
<g id="edge47" class="edge">
<title>Node28&#45;&gt;Node11</title>
<path fill="none" stroke="midnightblue" d="M273.69,-224.08C271.83,-216.93 269.16,-206.64 266.85,-197.69"/>
<polygon fill="midnightblue" stroke="midnightblue" points="270.17,-196.55 264.27,-187.75 263.39,-198.31 270.17,-196.55"/>
</g>
<!-- Node28&#45;&gt;Node14 -->
<g id="edge45" class="edge">
<title>Node28&#45;&gt;Node14</title>
<path fill="none" stroke="midnightblue" d="M308.04,-229.58C392.55,-220.56 622.29,-196.04 727.75,-184.79"/>
<polygon fill="midnightblue" stroke="midnightblue" points="728.29,-188.25 737.86,-183.71 727.55,-181.29 728.29,-188.25"/>
</g>
<!-- Node29&#45;&gt;Node14 -->
<g id="edge49" class="edge">
<title>Node29&#45;&gt;Node14</title>
<path fill="none" stroke="midnightblue" d="M740.73,-338.47C759.55,-332.06 784.17,-320.22 796,-300 814.96,-267.58 800.87,-221.89 790.47,-196.96"/>
<polygon fill="midnightblue" stroke="midnightblue" points="793.59,-195.37 786.34,-187.65 787.19,-198.21 793.59,-195.37"/>
</g>
<!-- Node29&#45;&gt;Node15 -->
<g id="edge53" class="edge">
<title>Node29&#45;&gt;Node15</title>
<path fill="none" stroke="midnightblue" d="M716,-336.08C716,-329.01 716,-318.86 716,-309.99"/>
<polygon fill="midnightblue" stroke="midnightblue" points="719.5,-309.75 716,-299.75 712.5,-309.75 719.5,-309.75"/>
</g>
<!-- Node29&#45;&gt;Node21 -->
<g id="edge52" class="edge">
<title>Node29&#45;&gt;Node21</title>
<path fill="none" stroke="midnightblue" d="M691.28,-336.44C665.15,-327.4 623.74,-313.06 594.42,-302.92"/>
<polygon fill="midnightblue" stroke="midnightblue" points="595.2,-299.48 584.6,-299.52 592.91,-306.1 595.2,-299.48"/>
</g>
<!-- Node29&#45;&gt;Node26 -->
<g id="edge50" class="edge">
<title>Node29&#45;&gt;Node26</title>
<path fill="none" stroke="midnightblue" d="M703.95,-336.32C692.54,-328.11 675.17,-315.6 661.57,-305.81"/>
<polygon fill="midnightblue" stroke="midnightblue" points="663.43,-302.84 653.27,-299.83 659.34,-308.52 663.43,-302.84"/>
</g>
<!-- Node30 -->
<g id="node30" class="node">
<title>Node30</title>
<g id="a_node30"><a xlink:href="include_2task_8hh.html" target="_top" xlink:title=" ">
<polygon fill="white" stroke="black" points="848.5,-280.5 848.5,-299.5 931.5,-299.5 931.5,-280.5 848.5,-280.5"/>
<text text-anchor="middle" x="890" y="-287.5" font-family="Helvetica,sans-Serif" font-size="10.00">include/task.hh</text>
</a>
</g>
</g>
<!-- Node29&#45;&gt;Node30 -->
<g id="edge51" class="edge">
<title>Node29&#45;&gt;Node30</title>
<path fill="none" stroke="midnightblue" d="M740.56,-337.38C769.81,-328.3 818.95,-313.05 852.85,-302.53"/>
<polygon fill="midnightblue" stroke="midnightblue" points="853.89,-305.87 862.41,-299.56 851.82,-299.19 853.89,-305.87"/>
</g>
</g>
</svg>
        <g id="navigator" transform="translate(0 0)" fill="#404254">
                <rect fill="#f2f5e9" fill-opacity="0.5" stroke="#606060" stroke-width=".5" x="0" y="0" width="60" height="60"/>
                <use id="zoomplus" xlink:href="#zoomPlus" x="17" y="9" onmousedown="handleZoom(evt,'in')"/>
                <use id="zoomminus" xlink:href="#zoomMin" x="42" y="9" onmousedown="handleZoom(evt,'out')"/>
                <use id="reset" xlink:href="#resetDef" x="30" y="36" onmousedown="handleReset()"/>
                <g id="arrowUp" xlink:href="#dirArrow" transform="translate(30 24)" onmousedown="handlePan(0,-1)">
                  <use xlink:href="#rim" fill="#404040">
                        <set attributeName="fill" to="#808080" begin="arrowUp.mouseover" end="arrowUp.mouseout"/>
                  </use>
                  <path fill="none" stroke="white" stroke-width="1.5" d="M0,-3.0v7 M-2.5,-0.5L0,-3.0L2.5,-0.5"/>
                </g>
                <g id="arrowRight" xlink:href="#dirArrow" transform="rotate(90) translate(36 -43)" onmousedown="handlePan(1,0)">
                  <use xlink:href="#rim" fill="#404040">
                        <set attributeName="fill" to="#808080" begin="arrowRight.mouseover" end="arrowRight.mouseout"/>
                  </use>
                  <path fill="none" stroke="white" stroke-width="1.5" d="M0,-3.0v7 M-2.5,-0.5L0,-3.0L2.5,-0.5"/>
                </g>
                <g id="arrowDown" xlink:href="#dirArrow" transform="rotate(180) translate(-30 -48)" onmousedown="handlePan(0,1)">
                  <use xlink:href="#rim" fill="#404040">
                        <set attributeName="fill" to="#808080" begin="arrowDown.mouseover" end="arrowDown.mouseout"/>
                  </use>
                  <path fill="none" stroke="white" stroke-width="1.5" d="M0,-3.0v7 M-2.5,-0.5L0,-3.0L2.5,-0.5"/>
                </g>
                <g id="arrowLeft" xlink:href="#dirArrow" transform="rotate(270) translate(-36 17)" onmousedown="handlePan(-1,0)">
                  <use xlink:href="#rim" fill="#404040">
                        <set attributeName="fill" to="#808080" begin="arrowLeft.mouseover" end="arrowLeft.mouseout"/>
                  </use>
                  <path fill="none" stroke="white" stroke-width="1.5" d="M0,-3.0v7 M-2.5,-0.5L0,-3.0L2.5,-0.5"/>
                </g>
        </g>
        <svg viewBox="0 0 15 15" width="100%" height="30px" preserveAspectRatio="xMaxYMin meet">
         <g id="arrow_out" transform="scale(0.3 0.3)">
          <a xlink:href="monitor_8cc__incl_org.svg" target="_base">
           <rect id="button" ry="5" rx="5" y="6" x="6" height="38" width="38"
                fill="#f2f5e9" fill-opacity="0.5" stroke="#606060" stroke-width="1.0"/>
           <path id="arrow"
             d="M 11.500037,31.436501 C 11.940474,20.09759 22.043105,11.32322 32.158766,21.979434 L 37.068811,17.246167 C 37.068811,17.246167 37.088388,32 37.088388,32 L 22.160133,31.978069 C 22.160133,31.978069 26.997745,27.140456 26.997745,27.140456 C 18.528582,18.264221 13.291696,25.230495 11.500037,31.436501 z"
             style="fill:#404040;"/>
          </a>
         </g>
        </svg>
</svg>
