<?xml version="1.0" encoding="UTF-8" standalone="no"?>
<!DOCTYPE svg PUBLIC "-//W3C//DTD SVG 1.1//EN"
 "http://www.w3.org/Graphics/SVG/1.1/DTD/svg11.dtd">
<!-- Generated by graphviz version 2.44.1 (20200629.0846)
 -->
<!-- Title: monitor.hh Pages: 1 -->
<svg width="358pt" height="364pt"
 viewBox="0.00 0.00 357.50 364.00" xmlns="http://www.w3.org/2000/svg" xmlns:xlink="http://www.w3.org/1999/xlink">
<g id="graph0" class="graph" transform="scale(1 1) rotate(0) translate(4 360)">
<title>monitor.hh</title>
<polygon fill="white" stroke="transparent" points="-4,4 -4,-360 353.5,-360 353.5,4 -4,4"/>
<!-- Node1 -->
<g id="node1" class="node">
<title>Node1</title>
<g id="a_node1"><a xlink:title=" ">
<polygon fill="#bfbfbf" stroke="black" points="62,-336.5 62,-355.5 124,-355.5 124,-336.5 62,-336.5"/>
<text text-anchor="middle" x="93" y="-343.5" font-family="Helvetica,sans-Serif" font-size="10.00">monitor.hh</text>
</a>
</g>
</g>
<!-- Node2 -->
<g id="node2" class="node">
<title>Node2</title>
<g id="a_node2"><a xlink:href="knlast_8inc.html" target="_top" xlink:title=" ">
<polygon fill="white" stroke="black" points="0,-168.5 0,-187.5 88,-187.5 88,-168.5 0,-168.5"/>
<text text-anchor="middle" x="44" y="-175.5" font-family="Helvetica,sans-Serif" font-size="10.00">kernel/knlast.inc</text>
</a>
</g>
</g>
<!-- Node1&#45;&gt;Node2 -->
<g id="edge1" class="edge">
<title>Node1&#45;&gt;Node2</title>
<path fill="none" stroke="midnightblue" d="M78.99,-336.23C67.75,-328.31 52.78,-315.53 46,-300 31.33,-266.43 35.72,-222.45 40.01,-197.82"/>
<polygon fill="midnightblue" stroke="midnightblue" points="43.5,-198.17 41.96,-187.69 36.63,-196.84 43.5,-198.17"/>
</g>
<!-- Node3 -->
<g id="node3" class="node">
<title>Node3</title>
<g id="a_node3"><a xlink:href="kernel_2trap_8hh.html" target="_top" xlink:title=" ">
<polygon fill="white" stroke="black" points="55,-280.5 55,-299.5 131,-299.5 131,-280.5 55,-280.5"/>
<text text-anchor="middle" x="93" y="-287.5" font-family="Helvetica,sans-Serif" font-size="10.00">kernel/trap.hh</text>
</a>
</g>
</g>
<!-- Node1&#45;&gt;Node3 -->
<g id="edge2" class="edge">
<title>Node1&#45;&gt;Node3</title>
<path fill="none" stroke="midnightblue" d="M93,-336.08C93,-329.01 93,-318.86 93,-309.99"/>
<polygon fill="midnightblue" stroke="midnightblue" points="96.5,-309.75 93,-299.75 89.5,-309.75 96.5,-309.75"/>
</g>
<!-- Node13 -->
<g id="node13" class="node">
<title>Node13</title>
<g id="a_node13"><a xlink:href="result_8hh.html" target="_top" xlink:title=" ">
<polygon fill="white" stroke="black" points="149,-280.5 149,-299.5 237,-299.5 237,-280.5 149,-280.5"/>
<text text-anchor="middle" x="193" y="-287.5" font-family="Helvetica,sans-Serif" font-size="10.00">include/result.hh</text>
</a>
</g>
</g>
<!-- Node1&#45;&gt;Node13 -->
<g id="edge18" class="edge">
<title>Node1&#45;&gt;Node13</title>
<path fill="none" stroke="midnightblue" d="M109.07,-336.32C124.96,-327.74 149.51,-314.49 167.96,-304.52"/>
<polygon fill="midnightblue" stroke="midnightblue" points="169.84,-307.49 176.97,-299.65 166.51,-301.33 169.84,-307.49"/>
</g>
<!-- Node3&#45;&gt;Node2 -->
<g id="edge15" class="edge">
<title>Node3&#45;&gt;Node2</title>
<path fill="none" stroke="midnightblue" d="M86.47,-280.45C80.03,-271.69 70.27,-257.48 64,-244 57,-228.95 51.65,-210.82 48.26,-197.53"/>
<polygon fill="midnightblue" stroke="midnightblue" points="51.63,-196.58 45.87,-187.69 44.83,-198.23 51.63,-196.58"/>
</g>
<!-- Node4 -->
<g id="node4" class="node">
<title>Node4</title>
<g id="a_node4"><a xlink:href="include_2trap_8hh.html" target="_top" xlink:title=" ">
<polygon fill="white" stroke="black" points="174,-224.5 174,-243.5 254,-243.5 254,-224.5 174,-224.5"/>
<text text-anchor="middle" x="214" y="-231.5" font-family="Helvetica,sans-Serif" font-size="10.00">include/trap.hh</text>
</a>
</g>
</g>
<!-- Node3&#45;&gt;Node4 -->
<g id="edge3" class="edge">
<title>Node3&#45;&gt;Node4</title>
<path fill="none" stroke="midnightblue" d="M112.17,-280.44C131.91,-271.64 162.89,-257.81 185.49,-247.72"/>
<polygon fill="midnightblue" stroke="midnightblue" points="187.21,-250.79 194.92,-243.52 184.36,-244.4 187.21,-250.79"/>
</g>
<!-- Node12 -->
<g id="node12" class="node">
<title>Node12</title>
<g id="a_node12"><a xlink:href="panic_8hh.html" target="_top" xlink:title=" ">
<polygon fill="white" stroke="black" points="72.5,-224.5 72.5,-243.5 155.5,-243.5 155.5,-224.5 72.5,-224.5"/>
<text text-anchor="middle" x="114" y="-231.5" font-family="Helvetica,sans-Serif" font-size="10.00">kernel/panic.hh</text>
</a>
</g>
</g>
<!-- Node3&#45;&gt;Node12 -->
<g id="edge16" class="edge">
<title>Node3&#45;&gt;Node12</title>
<path fill="none" stroke="midnightblue" d="M96.47,-280.08C99.31,-272.77 103.43,-262.18 106.96,-253.1"/>
<polygon fill="midnightblue" stroke="midnightblue" points="110.23,-254.34 110.6,-243.75 103.71,-251.8 110.23,-254.34"/>
</g>
<!-- Node5 -->
<g id="node5" class="node">
<title>Node5</title>
<g id="a_node5"><a xlink:href="string_8hh.html" target="_top" xlink:title=" ">
<polygon fill="white" stroke="black" points="94,-112.5 94,-131.5 182,-131.5 182,-112.5 94,-112.5"/>
<text text-anchor="middle" x="138" y="-119.5" font-family="Helvetica,sans-Serif" font-size="10.00">include/string.hh</text>
</a>
</g>
</g>
<!-- Node4&#45;&gt;Node5 -->
<g id="edge4" class="edge">
<title>Node4&#45;&gt;Node5</title>
<path fill="none" stroke="midnightblue" d="M208.04,-224.37C195.49,-206.22 166.19,-163.8 149.74,-139.99"/>
<polygon fill="midnightblue" stroke="midnightblue" points="152.5,-137.83 143.94,-131.59 146.74,-141.81 152.5,-137.83"/>
</g>
<!-- Node10 -->
<g id="node10" class="node">
<title>Node10</title>
<g id="a_node10"><a xlink:href="mmu_8h.html" target="_top" xlink:title=" ">
<polygon fill="white" stroke="black" points="200,-112.5 200,-131.5 280,-131.5 280,-112.5 200,-112.5"/>
<text text-anchor="middle" x="240" y="-119.5" font-family="Helvetica,sans-Serif" font-size="10.00">include/mmu.h</text>
</a>
</g>
</g>
<!-- Node4&#45;&gt;Node10 -->
<g id="edge10" class="edge">
<title>Node4&#45;&gt;Node10</title>
<path fill="none" stroke="midnightblue" d="M216.04,-224.37C220.24,-206.62 229.92,-165.67 235.6,-141.6"/>
<polygon fill="midnightblue" stroke="midnightblue" points="239.08,-142.13 237.97,-131.59 232.26,-140.52 239.08,-142.13"/>
</g>
<!-- Node11 -->
<g id="node11" class="node">
<title>Node11</title>
<g id="a_node11"><a xlink:href="memlayout_8h.html" target="_top" xlink:title=" ">
<polygon fill="white" stroke="black" points="242.5,-168.5 242.5,-187.5 349.5,-187.5 349.5,-168.5 242.5,-168.5"/>
<text text-anchor="middle" x="296" y="-175.5" font-family="Helvetica,sans-Serif" font-size="10.00">include/memlayout.h</text>
</a>
</g>
</g>
<!-- Node4&#45;&gt;Node11 -->
<g id="edge12" class="edge">
<title>Node4&#45;&gt;Node11</title>
<path fill="none" stroke="midnightblue" d="M227.17,-224.32C239.85,-215.98 259.23,-203.21 274.21,-193.35"/>
<polygon fill="midnightblue" stroke="midnightblue" points="276.43,-196.08 282.86,-187.65 272.58,-190.23 276.43,-196.08"/>
</g>
<!-- Node6 -->
<g id="node6" class="node">
<title>Node6</title>
<g id="a_node6"><a xlink:href="types_8h.html" target="_top" xlink:title=" ">
<polygon fill="white" stroke="black" points="198.5,-56.5 198.5,-75.5 281.5,-75.5 281.5,-56.5 198.5,-56.5"/>
<text text-anchor="middle" x="240" y="-63.5" font-family="Helvetica,sans-Serif" font-size="10.00">include/types.h</text>
</a>
</g>
</g>
<!-- Node5&#45;&gt;Node6 -->
<g id="edge5" class="edge">
<title>Node5&#45;&gt;Node6</title>
<path fill="none" stroke="midnightblue" d="M154.39,-112.32C170.67,-103.7 195.87,-90.36 214.72,-80.39"/>
<polygon fill="midnightblue" stroke="midnightblue" points="216.45,-83.43 223.65,-75.65 213.18,-77.24 216.45,-83.43"/>
</g>
<!-- Node7 -->
<g id="node7" class="node">
<title>Node7</title>
<g id="a_node7"><a xlink:title=" ">
<polygon fill="white" stroke="#bfbfbf" points="112,-0.5 112,-19.5 164,-19.5 164,-0.5 112,-0.5"/>
<text text-anchor="middle" x="138" y="-7.5" font-family="Helvetica,sans-Serif" font-size="10.00">stddef.h</text>
</a>
</g>
</g>
<!-- Node6&#45;&gt;Node7 -->
<g id="edge6" class="edge">
<title>Node6&#45;&gt;Node7</title>
<path fill="none" stroke="midnightblue" d="M223.61,-56.32C207.33,-47.7 182.13,-34.36 163.28,-24.39"/>
<polygon fill="midnightblue" stroke="midnightblue" points="164.82,-21.24 154.35,-19.65 161.55,-27.43 164.82,-21.24"/>
</g>
<!-- Node8 -->
<g id="node8" class="node">
<title>Node8</title>
<g id="a_node8"><a xlink:title=" ">
<polygon fill="white" stroke="#bfbfbf" points="182.5,-0.5 182.5,-19.5 231.5,-19.5 231.5,-0.5 182.5,-0.5"/>
<text text-anchor="middle" x="207" y="-7.5" font-family="Helvetica,sans-Serif" font-size="10.00">stdint.h</text>
</a>
</g>
</g>
<!-- Node6&#45;&gt;Node8 -->
<g id="edge7" class="edge">
<title>Node6&#45;&gt;Node8</title>
<path fill="none" stroke="midnightblue" d="M234.55,-56.08C229.99,-48.61 223.33,-37.72 217.71,-28.52"/>
<polygon fill="midnightblue" stroke="midnightblue" points="220.55,-26.46 212.35,-19.75 214.58,-30.11 220.55,-26.46"/>
</g>
<!-- Node9 -->
<g id="node9" class="node">
<title>Node9</title>
<g id="a_node9"><a xlink:href="ctype_8h.html" target="_top" xlink:title=" ">
<polygon fill="white" stroke="black" points="249.5,-0.5 249.5,-19.5 298.5,-19.5 298.5,-0.5 249.5,-0.5"/>
<text text-anchor="middle" x="274" y="-7.5" font-family="Helvetica,sans-Serif" font-size="10.00">ctype.h</text>
</a>
</g>
</g>
<!-- Node6&#45;&gt;Node9 -->
<g id="edge8" class="edge">
<title>Node6&#45;&gt;Node9</title>
<path fill="none" stroke="midnightblue" d="M240.45,-56.08C243.67,-48.38 250.44,-37.03 257.23,-27.65"/>
<polygon fill="midnightblue" stroke="midnightblue" points="259.99,-29.8 263.36,-19.75 254.46,-25.5 259.99,-29.8"/>
</g>
<!-- Node9&#45;&gt;Node6 -->
<g id="edge9" class="edge">
<title>Node9&#45;&gt;Node6</title>
<path fill="none" stroke="midnightblue" d="M273.62,-19.75C270.45,-27.4 263.7,-38.74 256.92,-48.14"/>
<polygon fill="midnightblue" stroke="midnightblue" points="254.13,-46.03 250.78,-56.08 259.67,-50.31 254.13,-46.03"/>
</g>
<!-- Node10&#45;&gt;Node6 -->
<g id="edge11" class="edge">
<title>Node10&#45;&gt;Node6</title>
<path fill="none" stroke="midnightblue" d="M240,-112.08C240,-105.01 240,-94.86 240,-85.99"/>
<polygon fill="midnightblue" stroke="midnightblue" points="243.5,-85.75 240,-75.75 236.5,-85.75 243.5,-85.75"/>
</g>
<!-- Node11&#45;&gt;Node6 -->
<g id="edge13" class="edge">
<title>Node11&#45;&gt;Node6</title>
<path fill="none" stroke="midnightblue" d="M296.92,-168.47C297.92,-155.51 298.31,-130.44 289,-112 282.96,-100.04 272.33,-89.68 262.51,-81.92"/>
<polygon fill="midnightblue" stroke="midnightblue" points="264.35,-78.93 254.23,-75.8 260.19,-84.56 264.35,-78.93"/>
</g>
<!-- Node11&#45;&gt;Node10 -->
<g id="edge14" class="edge">
<title>Node11&#45;&gt;Node10</title>
<path fill="none" stroke="midnightblue" d="M287,-168.32C278.81,-160.42 266.49,-148.55 256.53,-138.94"/>
<polygon fill="midnightblue" stroke="midnightblue" points="258.79,-136.26 249.16,-131.83 253.93,-141.29 258.79,-136.26"/>
</g>
<!-- Node12&#45;&gt;Node2 -->
<g id="edge17" class="edge">
<title>Node12&#45;&gt;Node2</title>
<path fill="none" stroke="midnightblue" d="M102.75,-224.32C92.2,-216.18 76.2,-203.84 63.56,-194.09"/>
<polygon fill="midnightblue" stroke="midnightblue" points="65.51,-191.17 55.45,-187.83 61.23,-196.71 65.51,-191.17"/>
</g>
</g>
</svg>
