<?xml version="1.0" encoding="UTF-8" standalone="no"?>
<!DOCTYPE svg PUBLIC "-//W3C//DTD SVG 1.1//EN"
 "http://www.w3.org/Graphics/SVG/1.1/DTD/svg11.dtd">
<!-- Generated by graphviz version 2.44.1 (20200629.0846)
 -->
<!-- Title: mp.hh Pages: 1 -->
<svg width="497pt" height="420pt"
 viewBox="0.00 0.00 496.50 420.00" xmlns="http://www.w3.org/2000/svg" xmlns:xlink="http://www.w3.org/1999/xlink">
<g id="graph0" class="graph" transform="scale(1 1) rotate(0) translate(4 416)">
<title>mp.hh</title>
<polygon fill="white" stroke="transparent" points="-4,4 -4,-416 492.5,-416 492.5,4 -4,4"/>
<!-- Node1 -->
<g id="node1" class="node">
<title>Node1</title>
<g id="a_node1"><a xlink:title=" ">
<polygon fill="#bfbfbf" stroke="black" points="20,-392.5 20,-411.5 64,-411.5 64,-392.5 20,-392.5"/>
<text text-anchor="middle" x="42" y="-399.5" font-family="Helvetica,sans-Serif" font-size="10.00">mp.hh</text>
</a>
</g>
</g>
<!-- Node2 -->
<g id="node2" class="node">
<title>Node2</title>
<g id="a_node2"><a xlink:href="types_8h.html" target="_top" xlink:title=" ">
<polygon fill="white" stroke="black" points="274.5,-56.5 274.5,-75.5 357.5,-75.5 357.5,-56.5 274.5,-56.5"/>
<text text-anchor="middle" x="316" y="-63.5" font-family="Helvetica,sans-Serif" font-size="10.00">include/types.h</text>
</a>
</g>
</g>
<!-- Node1&#45;&gt;Node2 -->
<g id="edge1" class="edge">
<title>Node1&#45;&gt;Node2</title>
<path fill="none" stroke="midnightblue" d="M36.16,-392.31C24.62,-374.26 0,-331.07 0,-291 0,-291 0,-291 0,-177 0,-121.69 174.82,-87.81 264.4,-74.07"/>
<polygon fill="midnightblue" stroke="midnightblue" points="265,-77.52 274.36,-72.57 263.95,-70.6 265,-77.52"/>
</g>
<!-- Node6 -->
<g id="node6" class="node">
<title>Node6</title>
<g id="a_node6"><a xlink:href="kernel_2task_8hh.html" target="_top" xlink:title=" ">
<polygon fill="white" stroke="black" points="85,-336.5 85,-355.5 163,-355.5 163,-336.5 85,-336.5"/>
<text text-anchor="middle" x="124" y="-343.5" font-family="Helvetica,sans-Serif" font-size="10.00">kernel/task.hh</text>
</a>
</g>
</g>
<!-- Node1&#45;&gt;Node6 -->
<g id="edge6" class="edge">
<title>Node1&#45;&gt;Node6</title>
<path fill="none" stroke="midnightblue" d="M55.17,-392.32C67.85,-383.98 87.23,-371.21 102.21,-361.35"/>
<polygon fill="midnightblue" stroke="midnightblue" points="104.43,-364.08 110.86,-355.65 100.58,-358.23 104.43,-364.08"/>
</g>
<!-- Node3 -->
<g id="node3" class="node">
<title>Node3</title>
<g id="a_node3"><a xlink:title=" ">
<polygon fill="white" stroke="#bfbfbf" points="188,-0.5 188,-19.5 240,-19.5 240,-0.5 188,-0.5"/>
<text text-anchor="middle" x="214" y="-7.5" font-family="Helvetica,sans-Serif" font-size="10.00">stddef.h</text>
</a>
</g>
</g>
<!-- Node2&#45;&gt;Node3 -->
<g id="edge2" class="edge">
<title>Node2&#45;&gt;Node3</title>
<path fill="none" stroke="midnightblue" d="M299.61,-56.32C283.33,-47.7 258.13,-34.36 239.28,-24.39"/>
<polygon fill="midnightblue" stroke="midnightblue" points="240.82,-21.24 230.35,-19.65 237.55,-27.43 240.82,-21.24"/>
</g>
<!-- Node4 -->
<g id="node4" class="node">
<title>Node4</title>
<g id="a_node4"><a xlink:title=" ">
<polygon fill="white" stroke="#bfbfbf" points="258.5,-0.5 258.5,-19.5 307.5,-19.5 307.5,-0.5 258.5,-0.5"/>
<text text-anchor="middle" x="283" y="-7.5" font-family="Helvetica,sans-Serif" font-size="10.00">stdint.h</text>
</a>
</g>
</g>
<!-- Node2&#45;&gt;Node4 -->
<g id="edge3" class="edge">
<title>Node2&#45;&gt;Node4</title>
<path fill="none" stroke="midnightblue" d="M310.55,-56.08C305.99,-48.61 299.33,-37.72 293.71,-28.52"/>
<polygon fill="midnightblue" stroke="midnightblue" points="296.55,-26.46 288.35,-19.75 290.58,-30.11 296.55,-26.46"/>
</g>
<!-- Node5 -->
<g id="node5" class="node">
<title>Node5</title>
<g id="a_node5"><a xlink:href="ctype_8h.html" target="_top" xlink:title=" ">
<polygon fill="white" stroke="black" points="325.5,-0.5 325.5,-19.5 374.5,-19.5 374.5,-0.5 325.5,-0.5"/>
<text text-anchor="middle" x="350" y="-7.5" font-family="Helvetica,sans-Serif" font-size="10.00">ctype.h</text>
</a>
</g>
</g>
<!-- Node2&#45;&gt;Node5 -->
<g id="edge4" class="edge">
<title>Node2&#45;&gt;Node5</title>
<path fill="none" stroke="midnightblue" d="M316.45,-56.08C319.67,-48.38 326.44,-37.03 333.23,-27.65"/>
<polygon fill="midnightblue" stroke="midnightblue" points="335.99,-29.8 339.36,-19.75 330.46,-25.5 335.99,-29.8"/>
</g>
<!-- Node5&#45;&gt;Node2 -->
<g id="edge5" class="edge">
<title>Node5&#45;&gt;Node2</title>
<path fill="none" stroke="midnightblue" d="M349.62,-19.75C346.45,-27.4 339.7,-38.74 332.92,-48.14"/>
<polygon fill="midnightblue" stroke="midnightblue" points="330.13,-46.03 326.78,-56.08 335.67,-50.31 330.13,-46.03"/>
</g>
<!-- Node7 -->
<g id="node7" class="node">
<title>Node7</title>
<g id="a_node7"><a xlink:href="knlast_8inc.html" target="_top" xlink:title=" ">
<polygon fill="white" stroke="black" points="154,-168.5 154,-187.5 242,-187.5 242,-168.5 154,-168.5"/>
<text text-anchor="middle" x="198" y="-175.5" font-family="Helvetica,sans-Serif" font-size="10.00">kernel/knlast.inc</text>
</a>
</g>
</g>
<!-- Node6&#45;&gt;Node7 -->
<g id="edge7" class="edge">
<title>Node6&#45;&gt;Node7</title>
<path fill="none" stroke="midnightblue" d="M102.56,-336.41C78.48,-325.37 44.34,-304.65 57,-280 79.61,-236 131.26,-206.88 165.38,-191.66"/>
<polygon fill="midnightblue" stroke="midnightblue" points="167.12,-194.72 174.92,-187.56 164.35,-188.29 167.12,-194.72"/>
</g>
<!-- Node8 -->
<g id="node8" class="node">
<title>Node8</title>
<g id="a_node8"><a xlink:title=" ">
<polygon fill="white" stroke="#bfbfbf" points="66,-280.5 66,-299.5 104,-299.5 104,-280.5 66,-280.5"/>
<text text-anchor="middle" x="85" y="-287.5" font-family="Helvetica,sans-Serif" font-size="10.00">tuple</text>
</a>
</g>
</g>
<!-- Node6&#45;&gt;Node8 -->
<g id="edge8" class="edge">
<title>Node6&#45;&gt;Node8</title>
<path fill="none" stroke="midnightblue" d="M117.56,-336.08C112.05,-328.46 103.97,-317.26 97.24,-307.94"/>
<polygon fill="midnightblue" stroke="midnightblue" points="100.01,-305.81 91.32,-299.75 94.34,-309.91 100.01,-305.81"/>
</g>
<!-- Node9 -->
<g id="node9" class="node">
<title>Node9</title>
<g id="a_node9"><a xlink:href="include_2task_8hh.html" target="_top" xlink:title=" ">
<polygon fill="white" stroke="black" points="122.5,-280.5 122.5,-299.5 205.5,-299.5 205.5,-280.5 122.5,-280.5"/>
<text text-anchor="middle" x="164" y="-287.5" font-family="Helvetica,sans-Serif" font-size="10.00">include/task.hh</text>
</a>
</g>
</g>
<!-- Node6&#45;&gt;Node9 -->
<g id="edge9" class="edge">
<title>Node6&#45;&gt;Node9</title>
<path fill="none" stroke="midnightblue" d="M130.61,-336.08C136.26,-328.46 144.54,-317.26 151.45,-307.94"/>
<polygon fill="midnightblue" stroke="midnightblue" points="154.38,-309.87 157.52,-299.75 148.75,-305.7 154.38,-309.87"/>
</g>
<!-- Node10 -->
<g id="node10" class="node">
<title>Node10</title>
<g id="a_node10"><a xlink:href="result_8hh.html" target="_top" xlink:title=" ">
<polygon fill="white" stroke="black" points="224,-280.5 224,-299.5 312,-299.5 312,-280.5 224,-280.5"/>
<text text-anchor="middle" x="268" y="-287.5" font-family="Helvetica,sans-Serif" font-size="10.00">include/result.hh</text>
</a>
</g>
</g>
<!-- Node6&#45;&gt;Node10 -->
<g id="edge10" class="edge">
<title>Node6&#45;&gt;Node10</title>
<path fill="none" stroke="midnightblue" d="M146.82,-336.44C170.83,-327.44 208.83,-313.19 235.87,-303.05"/>
<polygon fill="midnightblue" stroke="midnightblue" points="237.16,-306.3 245.29,-299.52 234.7,-299.75 237.16,-306.3"/>
</g>
<!-- Node11 -->
<g id="node11" class="node">
<title>Node11</title>
<g id="a_node11"><a xlink:href="kernel_2trap_8hh.html" target="_top" xlink:title=" ">
<polygon fill="white" stroke="black" points="330,-280.5 330,-299.5 406,-299.5 406,-280.5 330,-280.5"/>
<text text-anchor="middle" x="368" y="-287.5" font-family="Helvetica,sans-Serif" font-size="10.00">kernel/trap.hh</text>
</a>
</g>
</g>
<!-- Node6&#45;&gt;Node11 -->
<g id="edge11" class="edge">
<title>Node6&#45;&gt;Node11</title>
<path fill="none" stroke="midnightblue" d="M162.66,-336.44C205.26,-327.02 273.83,-311.84 319.88,-301.65"/>
<polygon fill="midnightblue" stroke="midnightblue" points="320.91,-305.01 329.92,-299.43 319.4,-298.17 320.91,-305.01"/>
</g>
<!-- Node11&#45;&gt;Node7 -->
<g id="edge20" class="edge">
<title>Node11&#45;&gt;Node7</title>
<path fill="none" stroke="midnightblue" d="M329.94,-281.83C290.93,-273.76 233.82,-259.71 218,-244 205.84,-231.92 201.04,-212.64 199.16,-198.2"/>
<polygon fill="midnightblue" stroke="midnightblue" points="202.61,-197.53 198.2,-187.9 195.64,-198.18 202.61,-197.53"/>
</g>
<!-- Node12 -->
<g id="node12" class="node">
<title>Node12</title>
<g id="a_node12"><a xlink:href="include_2trap_8hh.html" target="_top" xlink:title=" ">
<polygon fill="white" stroke="black" points="328,-224.5 328,-243.5 408,-243.5 408,-224.5 328,-224.5"/>
<text text-anchor="middle" x="368" y="-231.5" font-family="Helvetica,sans-Serif" font-size="10.00">include/trap.hh</text>
</a>
</g>
</g>
<!-- Node11&#45;&gt;Node12 -->
<g id="edge12" class="edge">
<title>Node11&#45;&gt;Node12</title>
<path fill="none" stroke="midnightblue" d="M368,-280.08C368,-273.01 368,-262.86 368,-253.99"/>
<polygon fill="midnightblue" stroke="midnightblue" points="371.5,-253.75 368,-243.75 364.5,-253.75 371.5,-253.75"/>
</g>
<!-- Node16 -->
<g id="node16" class="node">
<title>Node16</title>
<g id="a_node16"><a xlink:href="panic_8hh.html" target="_top" xlink:title=" ">
<polygon fill="white" stroke="black" points="226.5,-224.5 226.5,-243.5 309.5,-243.5 309.5,-224.5 226.5,-224.5"/>
<text text-anchor="middle" x="268" y="-231.5" font-family="Helvetica,sans-Serif" font-size="10.00">kernel/panic.hh</text>
</a>
</g>
</g>
<!-- Node11&#45;&gt;Node16 -->
<g id="edge21" class="edge">
<title>Node11&#45;&gt;Node16</title>
<path fill="none" stroke="midnightblue" d="M351.93,-280.32C336.04,-271.74 311.49,-258.49 293.04,-248.52"/>
<polygon fill="midnightblue" stroke="midnightblue" points="294.49,-245.33 284.03,-243.65 291.16,-251.49 294.49,-245.33"/>
</g>
<!-- Node13 -->
<g id="node13" class="node">
<title>Node13</title>
<g id="a_node13"><a xlink:href="string_8hh.html" target="_top" xlink:title=" ">
<polygon fill="white" stroke="black" points="221,-112.5 221,-131.5 309,-131.5 309,-112.5 221,-112.5"/>
<text text-anchor="middle" x="265" y="-119.5" font-family="Helvetica,sans-Serif" font-size="10.00">include/string.hh</text>
</a>
</g>
</g>
<!-- Node12&#45;&gt;Node13 -->
<g id="edge13" class="edge">
<title>Node12&#45;&gt;Node13</title>
<path fill="none" stroke="midnightblue" d="M359.92,-224.37C342.69,-205.97 302.15,-162.67 280.03,-139.05"/>
<polygon fill="midnightblue" stroke="midnightblue" points="282.43,-136.5 273.04,-131.59 277.32,-141.28 282.43,-136.5"/>
</g>
<!-- Node14 -->
<g id="node14" class="node">
<title>Node14</title>
<g id="a_node14"><a xlink:href="mmu_8h.html" target="_top" xlink:title=" ">
<polygon fill="white" stroke="black" points="327,-112.5 327,-131.5 407,-131.5 407,-112.5 327,-112.5"/>
<text text-anchor="middle" x="367" y="-119.5" font-family="Helvetica,sans-Serif" font-size="10.00">include/mmu.h</text>
</a>
</g>
</g>
<!-- Node12&#45;&gt;Node14 -->
<g id="edge15" class="edge">
<title>Node12&#45;&gt;Node14</title>
<path fill="none" stroke="midnightblue" d="M367.92,-224.37C367.76,-206.62 367.39,-165.67 367.17,-141.6"/>
<polygon fill="midnightblue" stroke="midnightblue" points="370.67,-141.56 367.08,-131.59 363.67,-141.62 370.67,-141.56"/>
</g>
<!-- Node15 -->
<g id="node15" class="node">
<title>Node15</title>
<g id="a_node15"><a xlink:href="memlayout_8h.html" target="_top" xlink:title=" ">
<polygon fill="white" stroke="black" points="381.5,-168.5 381.5,-187.5 488.5,-187.5 488.5,-168.5 381.5,-168.5"/>
<text text-anchor="middle" x="435" y="-175.5" font-family="Helvetica,sans-Serif" font-size="10.00">include/memlayout.h</text>
</a>
</g>
</g>
<!-- Node12&#45;&gt;Node15 -->
<g id="edge17" class="edge">
<title>Node12&#45;&gt;Node15</title>
<path fill="none" stroke="midnightblue" d="M378.76,-224.32C388.77,-216.26 403.89,-204.08 415.93,-194.37"/>
<polygon fill="midnightblue" stroke="midnightblue" points="418.45,-196.83 424.04,-187.83 414.06,-191.38 418.45,-196.83"/>
</g>
<!-- Node13&#45;&gt;Node2 -->
<g id="edge14" class="edge">
<title>Node13&#45;&gt;Node2</title>
<path fill="none" stroke="midnightblue" d="M273.42,-112.08C280.85,-104.22 291.85,-92.57 300.81,-83.08"/>
<polygon fill="midnightblue" stroke="midnightblue" points="303.41,-85.42 307.74,-75.75 298.32,-80.62 303.41,-85.42"/>
</g>
<!-- Node14&#45;&gt;Node2 -->
<g id="edge16" class="edge">
<title>Node14&#45;&gt;Node2</title>
<path fill="none" stroke="midnightblue" d="M358.58,-112.08C351.15,-104.22 340.15,-92.57 331.19,-83.08"/>
<polygon fill="midnightblue" stroke="midnightblue" points="333.68,-80.62 324.26,-75.75 328.59,-85.42 333.68,-80.62"/>
</g>
<!-- Node15&#45;&gt;Node2 -->
<g id="edge18" class="edge">
<title>Node15&#45;&gt;Node2</title>
<path fill="none" stroke="midnightblue" d="M434.71,-168.34C433.8,-154.76 430.2,-128.32 416,-112 402.27,-96.22 381.91,-85.7 363.14,-78.83"/>
<polygon fill="midnightblue" stroke="midnightblue" points="364.1,-75.46 353.51,-75.56 361.85,-82.09 364.1,-75.46"/>
</g>
<!-- Node15&#45;&gt;Node14 -->
<g id="edge19" class="edge">
<title>Node15&#45;&gt;Node14</title>
<path fill="none" stroke="midnightblue" d="M424.07,-168.32C413.83,-160.18 398.28,-147.84 386,-138.09"/>
<polygon fill="midnightblue" stroke="midnightblue" points="388.13,-135.31 378.12,-131.83 383.78,-140.79 388.13,-135.31"/>
</g>
<!-- Node16&#45;&gt;Node7 -->
<g id="edge22" class="edge">
<title>Node16&#45;&gt;Node7</title>
<path fill="none" stroke="midnightblue" d="M256.75,-224.32C246.2,-216.18 230.2,-203.84 217.56,-194.09"/>
<polygon fill="midnightblue" stroke="midnightblue" points="219.51,-191.17 209.45,-187.83 215.23,-196.71 219.51,-191.17"/>
</g>
</g>
</svg>
