<?xml version="1.0" encoding="UTF-8" standalone="no"?>
<!DOCTYPE svg PUBLIC "-//W3C//DTD SVG 1.1//EN"
 "http://www.w3.org/Graphics/SVG/1.1/DTD/svg11.dtd">
<!-- Generated by graphviz version 2.44.1 (20200629.0846)
 -->
<!-- Title: mp.cc Pages: 1 -->
<!--zoomable 476 -->
<svg id="main" version="1.1" xmlns="http://www.w3.org/2000/svg" xmlns:xlink="http://www.w3.org/1999/xlink" xml:space="preserve" onload="init(evt)">
<style type="text/css"><![CDATA[
.edge:hover path { stroke: red; }
.edge:hover polygon { stroke: red; fill: red; }
]]></style>
<script type="text/javascript"><![CDATA[
var edges = document.getElementsByTagName('g');
if (edges && edges.length) {
  for (var i=0;i<edges.length;i++) {
    if (edges[i].id.substr(0,4)=='edge') {
      edges[i].setAttribute('class','edge');
    }
  }
}
]]></script>
        <defs>
                <circle id="rim" cx="0" cy="0" r="7"/>
                <circle id="rim2" cx="0" cy="0" r="3.5"/>
                <g id="zoomPlus">
                        <use xlink:href="#rim" fill="#404040">
                                <set attributeName="fill" to="#808080" begin="zoomplus.mouseover" end="zoomplus.mouseout"/>
                        </use>
                        <path d="M-4,0h8M0,-4v8" fill="none" stroke="white" stroke-width="1.5" pointer-events="none"/>
                </g>
                <g id="zoomMin">
                        <use xlink:href="#rim" fill="#404040">
                                <set attributeName="fill" to="#808080" begin="zoomminus.mouseover" end="zoomminus.mouseout"/>
                        </use>
                        <path d="M-4,0h8" fill="none" stroke="white" stroke-width="1.5" pointer-events="none"/>
                </g>
                <g id="dirArrow">
                        <path fill="none" stroke="white" stroke-width="1.5" d="M0,-3.0v7 M-2.5,-0.5L0,-3.0L2.5,-0.5"/>
                </g>
               <g id="resetDef">
                       <use xlink:href="#rim2" fill="#404040">
                               <set attributeName="fill" to="#808080" begin="reset.mouseover" end="reset.mouseout"/>
                       </use>
               </g>
        </defs>

<script type="text/javascript">
var viewWidth = 991;
var viewHeight = 476;
var sectionId = 'dynsection-0';
</script>
<script xlink:href="svgpan.js"/>
<svg id="graph" class="graph">
<g id="viewport">
<title>mp.cc</title>
<polygon fill="white" stroke="transparent" points="-4,4 -4,-472 987,-472 987,4 -4,4"/>
<!-- Node1 -->
<g id="node1" class="node">
<title>Node1</title>
<g id="a_node1"><a xlink:title=" ">
<polygon fill="#bfbfbf" stroke="black" points="594,-448.5 594,-467.5 638,-467.5 638,-448.5 594,-448.5"/>
<text text-anchor="middle" x="616" y="-455.5" font-family="Helvetica,sans-Serif" font-size="10.00">mp.cc</text>
</a>
</g>
</g>
<!-- Node2 -->
<g id="node2" class="node">
<title>Node2</title>
<g id="a_node2"><a xlink:href="mp_8hh.html" target="_top" xlink:title=" ">
<polygon fill="white" stroke="black" points="213.5,-392.5 213.5,-411.5 286.5,-411.5 286.5,-392.5 213.5,-392.5"/>
<text text-anchor="middle" x="250" y="-399.5" font-family="Helvetica,sans-Serif" font-size="10.00">kernel/mp.hh</text>
</a>
</g>
</g>
<!-- Node1&#45;&gt;Node2 -->
<g id="edge1" class="edge">
<title>Node1&#45;&gt;Node2</title>
<path fill="none" stroke="midnightblue" d="M593.81,-454.08C542.3,-447.26 410.65,-429.5 301,-412 299.56,-411.77 298.09,-411.53 296.61,-411.29"/>
<polygon fill="midnightblue" stroke="midnightblue" points="297.19,-407.84 286.75,-409.63 296.03,-414.74 297.19,-407.84"/>
</g>
<!-- Node13 -->
<g id="node13" class="node">
<title>Node13</title>
<g id="a_node13"><a xlink:href="include_2trap_8hh.html" target="_top" xlink:title=" ">
<polygon fill="white" stroke="black" points="546,-224.5 546,-243.5 626,-243.5 626,-224.5 546,-224.5"/>
<text text-anchor="middle" x="586" y="-231.5" font-family="Helvetica,sans-Serif" font-size="10.00">include/trap.hh</text>
</a>
</g>
</g>
<!-- Node1&#45;&gt;Node13 -->
<g id="edge42" class="edge">
<title>Node1&#45;&gt;Node13</title>
<path fill="none" stroke="midnightblue" d="M615.36,-448.48C613.37,-422.87 606.76,-344.36 596,-280 594.53,-271.21 592.45,-261.55 590.56,-253.44"/>
<polygon fill="midnightblue" stroke="midnightblue" points="593.93,-252.48 588.19,-243.57 587.12,-254.11 593.93,-252.48"/>
</g>
<!-- Node14 -->
<g id="node14" class="node">
<title>Node14</title>
<g id="a_node14"><a xlink:href="string_8hh.html" target="_top" xlink:title=" ">
<polygon fill="white" stroke="black" points="561,-168.5 561,-187.5 649,-187.5 649,-168.5 561,-168.5"/>
<text text-anchor="middle" x="605" y="-175.5" font-family="Helvetica,sans-Serif" font-size="10.00">include/string.hh</text>
</a>
</g>
</g>
<!-- Node1&#45;&gt;Node14 -->
<g id="edge33" class="edge">
<title>Node1&#45;&gt;Node14</title>
<path fill="none" stroke="midnightblue" d="M621.28,-448.23C631.73,-430.04 654,-386.6 654,-347 654,-347 654,-347 654,-289 654,-253.47 632.4,-216.63 617.88,-195.88"/>
<polygon fill="midnightblue" stroke="midnightblue" points="620.53,-193.57 611.81,-187.54 614.87,-197.69 620.53,-193.57"/>
</g>
<!-- Node18 -->
<g id="node18" class="node">
<title>Node18</title>
<g id="a_node18"><a xlink:href="stdio_8hh.html" target="_top" xlink:title=" ">
<polygon fill="white" stroke="black" points="772.5,-392.5 772.5,-411.5 857.5,-411.5 857.5,-392.5 772.5,-392.5"/>
<text text-anchor="middle" x="815" y="-399.5" font-family="Helvetica,sans-Serif" font-size="10.00">include/stdio.hh</text>
</a>
</g>
</g>
<!-- Node1&#45;&gt;Node18 -->
<g id="edge24" class="edge">
<title>Node1&#45;&gt;Node18</title>
<path fill="none" stroke="midnightblue" d="M638.06,-451.01C670.68,-442.16 732.39,-425.42 773.61,-414.23"/>
<polygon fill="midnightblue" stroke="midnightblue" points="774.62,-417.58 783.36,-411.59 772.79,-410.83 774.62,-417.58"/>
</g>
<!-- Node25 -->
<g id="node25" class="node">
<title>Node25</title>
<g id="a_node25"><a xlink:href="vmem_8hh.html" target="_top" xlink:title=" ">
<polygon fill="white" stroke="black" points="230,-280.5 230,-299.5 316,-299.5 316,-280.5 230,-280.5"/>
<text text-anchor="middle" x="273" y="-287.5" font-family="Helvetica,sans-Serif" font-size="10.00">kernel/vmem.hh</text>
</a>
</g>
</g>
<!-- Node1&#45;&gt;Node25 -->
<g id="edge34" class="edge">
<title>Node1&#45;&gt;Node25</title>
<path fill="none" stroke="midnightblue" d="M593.91,-452.8C544.17,-442.6 420.97,-413.04 334,-356 314.28,-343.07 296.43,-322.5 285.2,-307.97"/>
<polygon fill="midnightblue" stroke="midnightblue" points="287.9,-305.74 279.11,-299.83 282.3,-309.93 287.9,-305.74"/>
</g>
<!-- Node3 -->
<g id="node3" class="node">
<title>Node3</title>
<g id="a_node3"><a xlink:href="types_8h.html" target="_top" xlink:title=" ">
<polygon fill="white" stroke="black" points="337.5,-56.5 337.5,-75.5 420.5,-75.5 420.5,-56.5 337.5,-56.5"/>
<text text-anchor="middle" x="379" y="-63.5" font-family="Helvetica,sans-Serif" font-size="10.00">include/types.h</text>
</a>
</g>
</g>
<!-- Node2&#45;&gt;Node3 -->
<g id="edge2" class="edge">
<title>Node2&#45;&gt;Node3</title>
<path fill="none" stroke="midnightblue" d="M217.15,-392.46C173.55,-378.91 102,-347.99 102,-291 102,-291 102,-291 102,-177 102,-129.05 247.16,-92.88 327.32,-76.56"/>
<polygon fill="midnightblue" stroke="midnightblue" points="328.11,-79.97 337.23,-74.58 326.74,-73.11 328.11,-79.97"/>
</g>
<!-- Node7 -->
<g id="node7" class="node">
<title>Node7</title>
<g id="a_node7"><a xlink:href="kernel_2task_8hh.html" target="_top" xlink:title=" ">
<polygon fill="white" stroke="black" points="343,-336.5 343,-355.5 421,-355.5 421,-336.5 343,-336.5"/>
<text text-anchor="middle" x="382" y="-343.5" font-family="Helvetica,sans-Serif" font-size="10.00">kernel/task.hh</text>
</a>
</g>
</g>
<!-- Node2&#45;&gt;Node7 -->
<g id="edge7" class="edge">
<title>Node2&#45;&gt;Node7</title>
<path fill="none" stroke="midnightblue" d="M270.92,-392.44C292.74,-383.52 327.15,-369.44 351.89,-359.32"/>
<polygon fill="midnightblue" stroke="midnightblue" points="353.25,-362.54 361.18,-355.52 350.6,-356.06 353.25,-362.54"/>
</g>
<!-- Node4 -->
<g id="node4" class="node">
<title>Node4</title>
<g id="a_node4"><a xlink:title=" ">
<polygon fill="white" stroke="#bfbfbf" points="251,-0.5 251,-19.5 303,-19.5 303,-0.5 251,-0.5"/>
<text text-anchor="middle" x="277" y="-7.5" font-family="Helvetica,sans-Serif" font-size="10.00">stddef.h</text>
</a>
</g>
</g>
<!-- Node3&#45;&gt;Node4 -->
<g id="edge3" class="edge">
<title>Node3&#45;&gt;Node4</title>
<path fill="none" stroke="midnightblue" d="M362.61,-56.32C346.33,-47.7 321.13,-34.36 302.28,-24.39"/>
<polygon fill="midnightblue" stroke="midnightblue" points="303.82,-21.24 293.35,-19.65 300.55,-27.43 303.82,-21.24"/>
</g>
<!-- Node5 -->
<g id="node5" class="node">
<title>Node5</title>
<g id="a_node5"><a xlink:title=" ">
<polygon fill="white" stroke="#bfbfbf" points="321.5,-0.5 321.5,-19.5 370.5,-19.5 370.5,-0.5 321.5,-0.5"/>
<text text-anchor="middle" x="346" y="-7.5" font-family="Helvetica,sans-Serif" font-size="10.00">stdint.h</text>
</a>
</g>
</g>
<!-- Node3&#45;&gt;Node5 -->
<g id="edge4" class="edge">
<title>Node3&#45;&gt;Node5</title>
<path fill="none" stroke="midnightblue" d="M373.55,-56.08C368.99,-48.61 362.33,-37.72 356.71,-28.52"/>
<polygon fill="midnightblue" stroke="midnightblue" points="359.55,-26.46 351.35,-19.75 353.58,-30.11 359.55,-26.46"/>
</g>
<!-- Node6 -->
<g id="node6" class="node">
<title>Node6</title>
<g id="a_node6"><a xlink:href="ctype_8h.html" target="_top" xlink:title=" ">
<polygon fill="white" stroke="black" points="388.5,-0.5 388.5,-19.5 437.5,-19.5 437.5,-0.5 388.5,-0.5"/>
<text text-anchor="middle" x="413" y="-7.5" font-family="Helvetica,sans-Serif" font-size="10.00">ctype.h</text>
</a>
</g>
</g>
<!-- Node3&#45;&gt;Node6 -->
<g id="edge5" class="edge">
<title>Node3&#45;&gt;Node6</title>
<path fill="none" stroke="midnightblue" d="M379.45,-56.08C382.67,-48.38 389.44,-37.03 396.23,-27.65"/>
<polygon fill="midnightblue" stroke="midnightblue" points="398.99,-29.8 402.36,-19.75 393.46,-25.5 398.99,-29.8"/>
</g>
<!-- Node6&#45;&gt;Node3 -->
<g id="edge6" class="edge">
<title>Node6&#45;&gt;Node3</title>
<path fill="none" stroke="midnightblue" d="M412.62,-19.75C409.45,-27.4 402.7,-38.74 395.92,-48.14"/>
<polygon fill="midnightblue" stroke="midnightblue" points="393.13,-46.03 389.78,-56.08 398.67,-50.31 393.13,-46.03"/>
</g>
<!-- Node8 -->
<g id="node8" class="node">
<title>Node8</title>
<g id="a_node8"><a xlink:href="knlast_8inc.html" target="_top" xlink:title=" ">
<polygon fill="white" stroke="black" points="417,-168.5 417,-187.5 505,-187.5 505,-168.5 417,-168.5"/>
<text text-anchor="middle" x="461" y="-175.5" font-family="Helvetica,sans-Serif" font-size="10.00">kernel/knlast.inc</text>
</a>
</g>
</g>
<!-- Node7&#45;&gt;Node8 -->
<g id="edge8" class="edge">
<title>Node7&#45;&gt;Node8</title>
<path fill="none" stroke="midnightblue" d="M382.58,-336.1C383.87,-322.67 387.99,-296.99 401,-280 419.68,-255.61 444.76,-270.67 460,-244 467.96,-230.07 467.39,-211.56 465.3,-197.86"/>
<polygon fill="midnightblue" stroke="midnightblue" points="468.67,-196.84 463.35,-187.68 461.8,-198.16 468.67,-196.84"/>
</g>
<!-- Node9 -->
<g id="node9" class="node">
<title>Node9</title>
<g id="a_node9"><a xlink:title=" ">
<polygon fill="white" stroke="#bfbfbf" points="312,-224.5 312,-243.5 350,-243.5 350,-224.5 312,-224.5"/>
<text text-anchor="middle" x="331" y="-231.5" font-family="Helvetica,sans-Serif" font-size="10.00">tuple</text>
</a>
</g>
</g>
<!-- Node7&#45;&gt;Node9 -->
<g id="edge9" class="edge">
<title>Node7&#45;&gt;Node9</title>
<path fill="none" stroke="midnightblue" d="M378,-336.37C369.69,-318.46 350.44,-276.92 339.32,-252.95"/>
<polygon fill="midnightblue" stroke="midnightblue" points="342.36,-251.19 334.98,-243.59 336.01,-254.14 342.36,-251.19"/>
</g>
<!-- Node10 -->
<g id="node10" class="node">
<title>Node10</title>
<g id="a_node10"><a xlink:href="include_2task_8hh.html" target="_top" xlink:title=" ">
<polygon fill="white" stroke="black" points="504.5,-280.5 504.5,-299.5 587.5,-299.5 587.5,-280.5 504.5,-280.5"/>
<text text-anchor="middle" x="546" y="-287.5" font-family="Helvetica,sans-Serif" font-size="10.00">include/task.hh</text>
</a>
</g>
</g>
<!-- Node7&#45;&gt;Node10 -->
<g id="edge10" class="edge">
<title>Node7&#45;&gt;Node10</title>
<path fill="none" stroke="midnightblue" d="M407.99,-336.44C435.7,-327.32 479.75,-312.81 510.62,-302.65"/>
<polygon fill="midnightblue" stroke="midnightblue" points="511.73,-305.97 520.14,-299.52 509.54,-299.32 511.73,-305.97"/>
</g>
<!-- Node11 -->
<g id="node11" class="node">
<title>Node11</title>
<g id="a_node11"><a xlink:href="result_8hh.html" target="_top" xlink:title=" ">
<polygon fill="white" stroke="black" points="130,-224.5 130,-243.5 218,-243.5 218,-224.5 130,-224.5"/>
<text text-anchor="middle" x="174" y="-231.5" font-family="Helvetica,sans-Serif" font-size="10.00">include/result.hh</text>
</a>
</g>
</g>
<!-- Node7&#45;&gt;Node11 -->
<g id="edge11" class="edge">
<title>Node7&#45;&gt;Node11</title>
<path fill="none" stroke="midnightblue" d="M342.82,-341.39C308.15,-336.58 257.55,-325.47 221,-300 203.73,-287.97 190.47,-267.49 182.51,-252.73"/>
<polygon fill="midnightblue" stroke="midnightblue" points="185.51,-250.92 177.85,-243.6 179.28,-254.1 185.51,-250.92"/>
</g>
<!-- Node12 -->
<g id="node12" class="node">
<title>Node12</title>
<g id="a_node12"><a xlink:href="kernel_2trap_8hh.html" target="_top" xlink:title=" ">
<polygon fill="white" stroke="black" points="410,-280.5 410,-299.5 486,-299.5 486,-280.5 410,-280.5"/>
<text text-anchor="middle" x="448" y="-287.5" font-family="Helvetica,sans-Serif" font-size="10.00">kernel/trap.hh</text>
</a>
</g>
</g>
<!-- Node7&#45;&gt;Node12 -->
<g id="edge12" class="edge">
<title>Node7&#45;&gt;Node12</title>
<path fill="none" stroke="midnightblue" d="M392.6,-336.32C402.46,-328.26 417.35,-316.08 429.22,-306.37"/>
<polygon fill="midnightblue" stroke="midnightblue" points="431.68,-308.88 437.2,-299.83 427.25,-303.46 431.68,-308.88"/>
</g>
<!-- Node12&#45;&gt;Node8 -->
<g id="edge21" class="edge">
<title>Node12&#45;&gt;Node8</title>
<path fill="none" stroke="midnightblue" d="M461.79,-280.19C472.83,-272.24 487.5,-259.45 494,-244 501.23,-226.8 489.2,-207.86 477.68,-194.88"/>
<polygon fill="midnightblue" stroke="midnightblue" points="480.2,-192.45 470.76,-187.64 475.14,-197.29 480.2,-192.45"/>
</g>
<!-- Node12&#45;&gt;Node13 -->
<g id="edge13" class="edge">
<title>Node12&#45;&gt;Node13</title>
<path fill="none" stroke="midnightblue" d="M469.87,-280.44C492.78,-271.48 528.98,-257.31 554.87,-247.18"/>
<polygon fill="midnightblue" stroke="midnightblue" points="556.2,-250.42 564.24,-243.52 553.65,-243.9 556.2,-250.42"/>
</g>
<!-- Node17 -->
<g id="node17" class="node">
<title>Node17</title>
<g id="a_node17"><a xlink:href="panic_8hh.html" target="_top" xlink:title=" ">
<polygon fill="white" stroke="black" points="368.5,-224.5 368.5,-243.5 451.5,-243.5 451.5,-224.5 368.5,-224.5"/>
<text text-anchor="middle" x="410" y="-231.5" font-family="Helvetica,sans-Serif" font-size="10.00">kernel/panic.hh</text>
</a>
</g>
</g>
<!-- Node12&#45;&gt;Node17 -->
<g id="edge22" class="edge">
<title>Node12&#45;&gt;Node17</title>
<path fill="none" stroke="midnightblue" d="M441.73,-280.08C436.36,-272.46 428.48,-261.26 421.92,-251.94"/>
<polygon fill="midnightblue" stroke="midnightblue" points="424.78,-249.91 416.16,-243.75 419.05,-253.94 424.78,-249.91"/>
</g>
<!-- Node13&#45;&gt;Node14 -->
<g id="edge14" class="edge">
<title>Node13&#45;&gt;Node14</title>
<path fill="none" stroke="midnightblue" d="M589.14,-224.08C591.68,-216.85 595.36,-206.41 598.53,-197.4"/>
<polygon fill="midnightblue" stroke="midnightblue" points="601.9,-198.35 601.92,-187.75 595.3,-196.02 601.9,-198.35"/>
</g>
<!-- Node15 -->
<g id="node15" class="node">
<title>Node15</title>
<g id="a_node15"><a xlink:href="mmu_8h.html" target="_top" xlink:title=" ">
<polygon fill="white" stroke="black" points="373,-112.5 373,-131.5 453,-131.5 453,-112.5 373,-112.5"/>
<text text-anchor="middle" x="413" y="-119.5" font-family="Helvetica,sans-Serif" font-size="10.00">include/mmu.h</text>
</a>
</g>
</g>
<!-- Node13&#45;&gt;Node15 -->
<g id="edge16" class="edge">
<title>Node13&#45;&gt;Node15</title>
<path fill="none" stroke="midnightblue" d="M578.28,-224.48C565.81,-211.08 539.97,-184.9 514,-168 493.12,-154.42 467.46,-143.04 447.22,-135.13"/>
<polygon fill="midnightblue" stroke="midnightblue" points="448.36,-131.81 437.77,-131.52 445.87,-138.36 448.36,-131.81"/>
</g>
<!-- Node16 -->
<g id="node16" class="node">
<title>Node16</title>
<g id="a_node16"><a xlink:href="memlayout_8h.html" target="_top" xlink:title=" ">
<polygon fill="white" stroke="black" points="291.5,-168.5 291.5,-187.5 398.5,-187.5 398.5,-168.5 291.5,-168.5"/>
<text text-anchor="middle" x="345" y="-175.5" font-family="Helvetica,sans-Serif" font-size="10.00">include/memlayout.h</text>
</a>
</g>
</g>
<!-- Node13&#45;&gt;Node16 -->
<g id="edge18" class="edge">
<title>Node13&#45;&gt;Node16</title>
<path fill="none" stroke="midnightblue" d="M547.81,-224.44C505.86,-215.04 438.41,-199.93 392.93,-189.74"/>
<polygon fill="midnightblue" stroke="midnightblue" points="393.53,-186.29 383.01,-187.52 392,-193.12 393.53,-186.29"/>
</g>
<!-- Node14&#45;&gt;Node3 -->
<g id="edge15" class="edge">
<title>Node14&#45;&gt;Node3</title>
<path fill="none" stroke="midnightblue" d="M587.27,-168.37C547.82,-149.17 452.64,-102.84 405.86,-80.07"/>
<polygon fill="midnightblue" stroke="midnightblue" points="407.17,-76.82 396.65,-75.59 404.11,-83.11 407.17,-76.82"/>
</g>
<!-- Node15&#45;&gt;Node3 -->
<g id="edge17" class="edge">
<title>Node15&#45;&gt;Node3</title>
<path fill="none" stroke="midnightblue" d="M407.39,-112.08C402.63,-104.53 395.68,-93.49 389.85,-84.23"/>
<polygon fill="midnightblue" stroke="midnightblue" points="392.8,-82.35 384.51,-75.75 386.88,-86.08 392.8,-82.35"/>
</g>
<!-- Node16&#45;&gt;Node3 -->
<g id="edge19" class="edge">
<title>Node16&#45;&gt;Node3</title>
<path fill="none" stroke="midnightblue" d="M347.48,-168.14C351.01,-155.6 357.75,-131.97 364,-112 366.77,-103.15 370,-93.37 372.76,-85.2"/>
<polygon fill="midnightblue" stroke="midnightblue" points="376.12,-86.19 376.03,-75.6 369.49,-83.94 376.12,-86.19"/>
</g>
<!-- Node16&#45;&gt;Node15 -->
<g id="edge20" class="edge">
<title>Node16&#45;&gt;Node15</title>
<path fill="none" stroke="midnightblue" d="M355.93,-168.32C366.17,-160.18 381.72,-147.84 394,-138.09"/>
<polygon fill="midnightblue" stroke="midnightblue" points="396.22,-140.79 401.88,-131.83 391.87,-135.31 396.22,-140.79"/>
</g>
<!-- Node17&#45;&gt;Node8 -->
<g id="edge23" class="edge">
<title>Node17&#45;&gt;Node8</title>
<path fill="none" stroke="midnightblue" d="M418.42,-224.08C425.85,-216.22 436.85,-204.57 445.81,-195.08"/>
<polygon fill="midnightblue" stroke="midnightblue" points="448.41,-197.42 452.74,-187.75 443.32,-192.62 448.41,-197.42"/>
</g>
<!-- Node19 -->
<g id="node19" class="node">
<title>Node19</title>
<g id="a_node19"><a xlink:href="stdin_8hh.html" target="_top" xlink:title=" ">
<polygon fill="white" stroke="black" points="890.5,-336.5 890.5,-355.5 975.5,-355.5 975.5,-336.5 890.5,-336.5"/>
<text text-anchor="middle" x="933" y="-343.5" font-family="Helvetica,sans-Serif" font-size="10.00">include/stdin.hh</text>
</a>
</g>
</g>
<!-- Node18&#45;&gt;Node19 -->
<g id="edge25" class="edge">
<title>Node18&#45;&gt;Node19</title>
<path fill="none" stroke="midnightblue" d="M833.7,-392.44C852.94,-383.64 883.15,-369.81 905.2,-359.72"/>
<polygon fill="midnightblue" stroke="midnightblue" points="906.75,-362.86 914.39,-355.52 903.84,-356.5 906.75,-362.86"/>
</g>
<!-- Node22 -->
<g id="node22" class="node">
<title>Node22</title>
<g id="a_node22"><a xlink:href="stdout_8hh.html" target="_top" xlink:title=" ">
<polygon fill="white" stroke="black" points="769.5,-336.5 769.5,-355.5 860.5,-355.5 860.5,-336.5 769.5,-336.5"/>
<text text-anchor="middle" x="815" y="-343.5" font-family="Helvetica,sans-Serif" font-size="10.00">include/stdout.hh</text>
</a>
</g>
</g>
<!-- Node18&#45;&gt;Node22 -->
<g id="edge28" class="edge">
<title>Node18&#45;&gt;Node22</title>
<path fill="none" stroke="midnightblue" d="M815,-392.08C815,-385.01 815,-374.86 815,-365.99"/>
<polygon fill="midnightblue" stroke="midnightblue" points="818.5,-365.75 815,-355.75 811.5,-365.75 818.5,-365.75"/>
</g>
<!-- Node20 -->
<g id="node20" class="node">
<title>Node20</title>
<g id="a_node20"><a xlink:href="vargs_8hh.html" target="_top" xlink:title=" ">
<polygon fill="white" stroke="black" points="895,-280.5 895,-299.5 983,-299.5 983,-280.5 895,-280.5"/>
<text text-anchor="middle" x="939" y="-287.5" font-family="Helvetica,sans-Serif" font-size="10.00">include/vargs.hh</text>
</a>
</g>
</g>
<!-- Node19&#45;&gt;Node20 -->
<g id="edge26" class="edge">
<title>Node19&#45;&gt;Node20</title>
<path fill="none" stroke="midnightblue" d="M933.99,-336.08C934.79,-328.93 935.93,-318.64 936.92,-309.69"/>
<polygon fill="midnightblue" stroke="midnightblue" points="940.4,-310.08 938.03,-299.75 933.44,-309.3 940.4,-310.08"/>
</g>
<!-- Node21 -->
<g id="node21" class="node">
<title>Node21</title>
<g id="a_node21"><a xlink:title=" ">
<polygon fill="white" stroke="#bfbfbf" points="914.5,-224.5 914.5,-243.5 963.5,-243.5 963.5,-224.5 914.5,-224.5"/>
<text text-anchor="middle" x="939" y="-231.5" font-family="Helvetica,sans-Serif" font-size="10.00">cstdarg</text>
</a>
</g>
</g>
<!-- Node20&#45;&gt;Node21 -->
<g id="edge27" class="edge">
<title>Node20&#45;&gt;Node21</title>
<path fill="none" stroke="midnightblue" d="M939,-280.08C939,-273.01 939,-262.86 939,-253.99"/>
<polygon fill="midnightblue" stroke="midnightblue" points="942.5,-253.75 939,-243.75 935.5,-253.75 942.5,-253.75"/>
</g>
<!-- Node22&#45;&gt;Node3 -->
<g id="edge29" class="edge">
<title>Node22&#45;&gt;Node3</title>
<path fill="none" stroke="midnightblue" d="M822.83,-336.3C830.24,-327.65 841.22,-313.73 848,-300 861.32,-273.01 867,-265.1 867,-235 867,-235 867,-235 867,-177 867,-88.3 556.33,-71.12 430.75,-67.79"/>
<polygon fill="midnightblue" stroke="midnightblue" points="430.69,-64.29 420.61,-67.55 430.52,-71.29 430.69,-64.29"/>
</g>
<!-- Node22&#45;&gt;Node20 -->
<g id="edge30" class="edge">
<title>Node22&#45;&gt;Node20</title>
<path fill="none" stroke="midnightblue" d="M834.65,-336.44C854.96,-327.6 886.9,-313.69 910.1,-303.59"/>
<polygon fill="midnightblue" stroke="midnightblue" points="911.67,-306.72 919.44,-299.52 908.88,-300.3 911.67,-306.72"/>
</g>
<!-- Node23 -->
<g id="node23" class="node">
<title>Node23</title>
<g id="a_node23"><a xlink:href="color_8h.html" target="_top" xlink:title=" ">
<polygon fill="white" stroke="black" points="682.5,-280.5 682.5,-299.5 761.5,-299.5 761.5,-280.5 682.5,-280.5"/>
<text text-anchor="middle" x="722" y="-287.5" font-family="Helvetica,sans-Serif" font-size="10.00">include/color.h</text>
</a>
</g>
</g>
<!-- Node22&#45;&gt;Node23 -->
<g id="edge31" class="edge">
<title>Node22&#45;&gt;Node23</title>
<path fill="none" stroke="midnightblue" d="M800.06,-336.32C785.41,-327.82 762.87,-314.73 745.76,-304.8"/>
<polygon fill="midnightblue" stroke="midnightblue" points="747.31,-301.65 736.9,-299.65 743.8,-307.7 747.31,-301.65"/>
</g>
<!-- Node24 -->
<g id="node24" class="node">
<title>Node24</title>
<g id="a_node24"><a xlink:title=" ">
<polygon fill="white" stroke="#bfbfbf" points="779.5,-280.5 779.5,-299.5 838.5,-299.5 838.5,-280.5 779.5,-280.5"/>
<text text-anchor="middle" x="809" y="-287.5" font-family="Helvetica,sans-Serif" font-size="10.00">functional</text>
</a>
</g>
</g>
<!-- Node22&#45;&gt;Node24 -->
<g id="edge32" class="edge">
<title>Node22&#45;&gt;Node24</title>
<path fill="none" stroke="midnightblue" d="M814.01,-336.08C813.21,-328.93 812.07,-318.64 811.08,-309.69"/>
<polygon fill="midnightblue" stroke="midnightblue" points="814.56,-309.3 809.97,-299.75 807.6,-310.08 814.56,-309.3"/>
</g>
<!-- Node25&#45;&gt;Node8 -->
<g id="edge35" class="edge">
<title>Node25&#45;&gt;Node8</title>
<path fill="none" stroke="midnightblue" d="M274.56,-280.45C277.56,-266.53 285.44,-239.03 303,-224 318.75,-210.52 367.55,-197.84 406.79,-189.4"/>
<polygon fill="midnightblue" stroke="midnightblue" points="407.73,-192.78 416.79,-187.29 406.28,-185.93 407.73,-192.78"/>
</g>
<!-- Node25&#45;&gt;Node9 -->
<g id="edge36" class="edge">
<title>Node25&#45;&gt;Node9</title>
<path fill="none" stroke="midnightblue" d="M282.32,-280.32C290.89,-272.34 303.81,-260.31 314.19,-250.65"/>
<polygon fill="midnightblue" stroke="midnightblue" points="316.58,-253.21 321.51,-243.83 311.81,-248.09 316.58,-253.21"/>
</g>
<!-- Node25&#45;&gt;Node11 -->
<g id="edge40" class="edge">
<title>Node25&#45;&gt;Node11</title>
<path fill="none" stroke="midnightblue" d="M257.09,-280.32C241.36,-271.74 217.06,-258.49 198.79,-248.52"/>
<polygon fill="midnightblue" stroke="midnightblue" points="200.32,-245.37 189.87,-243.65 196.97,-251.52 200.32,-245.37"/>
</g>
<!-- Node25&#45;&gt;Node16 -->
<g id="edge39" class="edge">
<title>Node25&#45;&gt;Node16</title>
<path fill="none" stroke="midnightblue" d="M269.85,-280.33C265.66,-267.2 259.87,-241.89 270,-224 278.35,-209.26 293.66,-198.82 308.29,-191.73"/>
<polygon fill="midnightblue" stroke="midnightblue" points="310,-194.8 317.72,-187.55 307.16,-188.4 310,-194.8"/>
</g>
<!-- Node25&#45;&gt;Node17 -->
<g id="edge41" class="edge">
<title>Node25&#45;&gt;Node17</title>
<path fill="none" stroke="midnightblue" d="M294.71,-280.44C317.35,-271.52 353.07,-257.44 378.75,-247.32"/>
<polygon fill="midnightblue" stroke="midnightblue" points="380.37,-250.44 388.39,-243.52 377.81,-243.93 380.37,-250.44"/>
</g>
<!-- Node26 -->
<g id="node26" class="node">
<title>Node26</title>
<g id="a_node26"><a xlink:href="x86_8h.html" target="_top" xlink:title=" ">
<polygon fill="white" stroke="black" points="0,-112.5 0,-131.5 74,-131.5 74,-112.5 0,-112.5"/>
<text text-anchor="middle" x="37" y="-119.5" font-family="Helvetica,sans-Serif" font-size="10.00">include/x86.h</text>
</a>
</g>
</g>
<!-- Node25&#45;&gt;Node26 -->
<g id="edge37" class="edge">
<title>Node25&#45;&gt;Node26</title>
<path fill="none" stroke="midnightblue" d="M229.96,-284.08C197.5,-278.63 153.23,-267.3 121,-244 83.31,-216.76 56.78,-167.16 44.57,-140.71"/>
<polygon fill="midnightblue" stroke="midnightblue" points="47.74,-139.22 40.48,-131.51 41.35,-142.07 47.74,-139.22"/>
</g>
<!-- Node26&#45;&gt;Node3 -->
<g id="edge38" class="edge">
<title>Node26&#45;&gt;Node3</title>
<path fill="none" stroke="midnightblue" d="M74.03,-114.37C78.73,-113.56 83.48,-112.75 88,-112 171.5,-98.18 268.71,-83.41 326.97,-74.71"/>
<polygon fill="midnightblue" stroke="midnightblue" points="327.66,-78.14 337.03,-73.2 326.62,-71.22 327.66,-78.14"/>
</g>
</g>
</svg>
        <g id="navigator" transform="translate(0 0)" fill="#404254">
                <rect fill="#f2f5e9" fill-opacity="0.5" stroke="#606060" stroke-width=".5" x="0" y="0" width="60" height="60"/>
                <use id="zoomplus" xlink:href="#zoomPlus" x="17" y="9" onmousedown="handleZoom(evt,'in')"/>
                <use id="zoomminus" xlink:href="#zoomMin" x="42" y="9" onmousedown="handleZoom(evt,'out')"/>
                <use id="reset" xlink:href="#resetDef" x="30" y="36" onmousedown="handleReset()"/>
                <g id="arrowUp" xlink:href="#dirArrow" transform="translate(30 24)" onmousedown="handlePan(0,-1)">
                  <use xlink:href="#rim" fill="#404040">
                        <set attributeName="fill" to="#808080" begin="arrowUp.mouseover" end="arrowUp.mouseout"/>
                  </use>
                  <path fill="none" stroke="white" stroke-width="1.5" d="M0,-3.0v7 M-2.5,-0.5L0,-3.0L2.5,-0.5"/>
                </g>
                <g id="arrowRight" xlink:href="#dirArrow" transform="rotate(90) translate(36 -43)" onmousedown="handlePan(1,0)">
                  <use xlink:href="#rim" fill="#404040">
                        <set attributeName="fill" to="#808080" begin="arrowRight.mouseover" end="arrowRight.mouseout"/>
                  </use>
                  <path fill="none" stroke="white" stroke-width="1.5" d="M0,-3.0v7 M-2.5,-0.5L0,-3.0L2.5,-0.5"/>
                </g>
                <g id="arrowDown" xlink:href="#dirArrow" transform="rotate(180) translate(-30 -48)" onmousedown="handlePan(0,1)">
                  <use xlink:href="#rim" fill="#404040">
                        <set attributeName="fill" to="#808080" begin="arrowDown.mouseover" end="arrowDown.mouseout"/>
                  </use>
                  <path fill="none" stroke="white" stroke-width="1.5" d="M0,-3.0v7 M-2.5,-0.5L0,-3.0L2.5,-0.5"/>
                </g>
                <g id="arrowLeft" xlink:href="#dirArrow" transform="rotate(270) translate(-36 17)" onmousedown="handlePan(-1,0)">
                  <use xlink:href="#rim" fill="#404040">
                        <set attributeName="fill" to="#808080" begin="arrowLeft.mouseover" end="arrowLeft.mouseout"/>
                  </use>
                  <path fill="none" stroke="white" stroke-width="1.5" d="M0,-3.0v7 M-2.5,-0.5L0,-3.0L2.5,-0.5"/>
                </g>
        </g>
        <svg viewBox="0 0 15 15" width="100%" height="30px" preserveAspectRatio="xMaxYMin meet">
         <g id="arrow_out" transform="scale(0.3 0.3)">
          <a xlink:href="mp_8cc__incl_org.svg" target="_base">
           <rect id="button" ry="5" rx="5" y="6" x="6" height="38" width="38"
                fill="#f2f5e9" fill-opacity="0.5" stroke="#606060" stroke-width="1.0"/>
           <path id="arrow"
             d="M 11.500037,31.436501 C 11.940474,20.09759 22.043105,11.32322 32.158766,21.979434 L 37.068811,17.246167 C 37.068811,17.246167 37.088388,32 37.088388,32 L 22.160133,31.978069 C 22.160133,31.978069 26.997745,27.140456 26.997745,27.140456 C 18.528582,18.264221 13.291696,25.230495 11.500037,31.436501 z"
             style="fill:#404040;"/>
          </a>
         </g>
        </svg>
</svg>
