<?xml version="1.0" encoding="UTF-8" standalone="no"?>
<!DOCTYPE svg PUBLIC "-//W3C//DTD SVG 1.1//EN"
 "http://www.w3.org/Graphics/SVG/1.1/DTD/svg11.dtd">
<!-- Generated by graphviz version 2.44.1 (20200629.0846)
 -->
<!-- Title: task::init Pages: 1 -->
<!--zoomable 204 -->
<svg id="main" version="1.1" xmlns="http://www.w3.org/2000/svg" xmlns:xlink="http://www.w3.org/1999/xlink" xml:space="preserve" onload="init(evt)">
<style type="text/css"><![CDATA[
.edge:hover path { stroke: red; }
.edge:hover polygon { stroke: red; fill: red; }
]]></style>
<script type="text/javascript"><![CDATA[
var edges = document.getElementsByTagName('g');
if (edges && edges.length) {
  for (var i=0;i<edges.length;i++) {
    if (edges[i].id.substr(0,4)=='edge') {
      edges[i].setAttribute('class','edge');
    }
  }
}
]]></script>
        <defs>
                <circle id="rim" cx="0" cy="0" r="7"/>
                <circle id="rim2" cx="0" cy="0" r="3.5"/>
                <g id="zoomPlus">
                        <use xlink:href="#rim" fill="#404040">
                                <set attributeName="fill" to="#808080" begin="zoomplus.mouseover" end="zoomplus.mouseout"/>
                        </use>
                        <path d="M-4,0h8M0,-4v8" fill="none" stroke="white" stroke-width="1.5" pointer-events="none"/>
                </g>
                <g id="zoomMin">
                        <use xlink:href="#rim" fill="#404040">
                                <set attributeName="fill" to="#808080" begin="zoomminus.mouseover" end="zoomminus.mouseout"/>
                        </use>
                        <path d="M-4,0h8" fill="none" stroke="white" stroke-width="1.5" pointer-events="none"/>
                </g>
                <g id="dirArrow">
                        <path fill="none" stroke="white" stroke-width="1.5" d="M0,-3.0v7 M-2.5,-0.5L0,-3.0L2.5,-0.5"/>
                </g>
               <g id="resetDef">
                       <use xlink:href="#rim2" fill="#404040">
                               <set attributeName="fill" to="#808080" begin="reset.mouseover" end="reset.mouseout"/>
                       </use>
               </g>
        </defs>

<script type="text/javascript">
var viewWidth = 1225;
var viewHeight = 204;
var sectionId = 'dynsection-1';
</script>
<script xlink:href="svgpan.js"/>
<svg id="graph" class="graph">
<g id="viewport">
<title>task::init</title>
<polygon fill="white" stroke="transparent" points="-4,4 -4,-199.69 1221,-199.69 1221,4 -4,4"/>
<!-- Node1 -->
<g id="node1" class="node">
<title>Node1</title>
<g id="a_node1"><a xlink:title=" ">
<polygon fill="#bfbfbf" stroke="black" points="0,-28.32 0,-47.32 54,-47.32 54,-28.32 0,-28.32"/>
<text text-anchor="middle" x="27" y="-35.32" font-family="Helvetica,sans-Serif" font-size="10.00">task::init</text>
</a>
</g>
</g>
<!-- Node2 -->
<g id="node2" class="node">
<title>Node2</title>
<g id="a_node2"><a xlink:href="namespacetask.html#afc79ae96091abe626247b525191d2bf2" target="_top" xlink:title=" ">
<polygon fill="white" stroke="black" points="94,-47.32 94,-66.32 181,-66.32 181,-47.32 94,-47.32"/>
<text text-anchor="middle" x="137.5" y="-54.32" font-family="Helvetica,sans-Serif" font-size="10.00">task::initPerCpu</text>
</a>
</g>
</g>
<!-- Node1&#45;&gt;Node2 -->
<g id="edge1" class="edge">
<title>Node1&#45;&gt;Node2</title>
<path fill="none" stroke="midnightblue" d="M54.26,-42.42C63.3,-44 73.75,-45.83 84.11,-47.65"/>
<polygon fill="midnightblue" stroke="midnightblue" points="83.52,-51.1 93.97,-49.38 84.73,-44.2 83.52,-51.1"/>
</g>
<!-- Node4 -->
<g id="node4" class="node">
<title>Node4</title>
<g id="a_node4"><a xlink:href="namespaceconsole_1_1out.html#ac6f663e3971b66b8e130ee94755a150e" target="_top" xlink:title=" ">
<polygon fill="white" stroke="black" points="90,-9.32 90,-28.32 185,-28.32 185,-9.32 90,-9.32"/>
<text text-anchor="middle" x="137.5" y="-16.32" font-family="Helvetica,sans-Serif" font-size="10.00">console::out::print</text>
</a>
</g>
</g>
<!-- Node1&#45;&gt;Node4 -->
<g id="edge3" class="edge">
<title>Node1&#45;&gt;Node4</title>
<path fill="none" stroke="midnightblue" d="M54.26,-33.22C62.01,-31.87 70.81,-30.33 79.69,-28.77"/>
<polygon fill="midnightblue" stroke="midnightblue" points="80.47,-32.19 89.71,-27.02 79.26,-25.29 80.47,-32.19"/>
</g>
<!-- Node3 -->
<g id="node3" class="node">
<title>Node3</title>
<g id="a_node3"><a xlink:href="x86_8h.html#ae9e640e067c36511ec58ff09ada05253" target="_top" xlink:title=" ">
<polygon fill="white" stroke="black" points="258,-47.32 258,-66.32 290,-66.32 290,-47.32 258,-47.32"/>
<text text-anchor="middle" x="274" y="-54.32" font-family="Helvetica,sans-Serif" font-size="10.00">lgdt</text>
</a>
</g>
</g>
<!-- Node2&#45;&gt;Node3 -->
<g id="edge2" class="edge">
<title>Node2&#45;&gt;Node3</title>
<path fill="none" stroke="midnightblue" d="M181.06,-56.82C202.93,-56.82 228.85,-56.82 247.59,-56.82"/>
<polygon fill="midnightblue" stroke="midnightblue" points="247.7,-60.32 257.7,-56.82 247.7,-53.32 247.7,-60.32"/>
</g>
<!-- Node5 -->
<g id="node5" class="node">
<title>Node5</title>
<g id="a_node5"><a xlink:href="namespaceconsole_1_1out.html#a8f791bfac54067cadb1b9f18117b987b" target="_top" xlink:title=" ">
<polygon fill="white" stroke="black" points="221,-9.32 221,-28.32 327,-28.32 327,-9.32 221,-9.32"/>
<text text-anchor="middle" x="274" y="-16.32" font-family="Helvetica,sans-Serif" font-size="10.00">console::out::printVa</text>
</a>
</g>
</g>
<!-- Node4&#45;&gt;Node5 -->
<g id="edge4" class="edge">
<title>Node4&#45;&gt;Node5</title>
<path fill="none" stroke="midnightblue" d="M185.16,-18.82C193.45,-18.82 202.2,-18.82 210.84,-18.82"/>
<polygon fill="midnightblue" stroke="midnightblue" points="210.9,-22.32 220.9,-18.82 210.9,-15.32 210.9,-22.32"/>
</g>
<!-- Node6 -->
<g id="node6" class="node">
<title>Node6</title>
<g id="a_node6"><a xlink:href="namespaceconsole_1_1ge.html#af642934cb833142f133285fdb75ef7b7" target="_top" xlink:title=" ">
<polygon fill="white" stroke="black" points="363,-66.32 363,-85.32 483,-85.32 483,-66.32 363,-66.32"/>
<text text-anchor="middle" x="423" y="-73.32" font-family="Helvetica,sans-Serif" font-size="10.00">console::ge::printFmtVa</text>
</a>
</g>
</g>
<!-- Node5&#45;&gt;Node6 -->
<g id="edge5" class="edge">
<title>Node5&#45;&gt;Node6</title>
<path fill="none" stroke="midnightblue" d="M301.51,-28.33C309.7,-31.32 318.74,-34.66 327,-37.82 347.81,-45.79 371.04,-55.07 389.32,-62.47"/>
<polygon fill="midnightblue" stroke="midnightblue" points="388.07,-65.74 398.65,-66.26 390.7,-59.25 388.07,-65.74"/>
</g>
<!-- Node13 -->
<g id="node13" class="node">
<title>Node13</title>
<g id="a_node13"><a xlink:href="namespaceconsole_1_1out.html#ad9fc97dff4404c2d21aedbb24691e7cb" target="_top" xlink:title=" ">
<polygon fill="white" stroke="black" points="681,-9.32 681,-28.32 791,-28.32 791,-9.32 681,-9.32"/>
<text text-anchor="middle" x="736" y="-16.32" font-family="Helvetica,sans-Serif" font-size="10.00">console::out::putChar</text>
</a>
</g>
</g>
<!-- Node5&#45;&gt;Node13 -->
<g id="edge22" class="edge">
<title>Node5&#45;&gt;Node13</title>
<path fill="none" stroke="midnightblue" d="M327.17,-12.67C398.89,-5.14 531.92,5.54 645,-3.82 655.29,-4.67 666.17,-6.06 676.68,-7.66"/>
<polygon fill="midnightblue" stroke="midnightblue" points="676.18,-11.13 686.61,-9.25 677.28,-4.22 676.18,-11.13"/>
</g>
<!-- Node7 -->
<g id="node7" class="node">
<title>Node7</title>
<g id="a_node7"><a xlink:href="printfmt_8cc.html#a708ec6ee2b8bd2d7a453d8d9436ed3b3" target="_top" xlink:title=" ">
<polygon fill="white" stroke="black" points="553,-142.32 553,-161.32 611,-161.32 611,-142.32 553,-142.32"/>
<text text-anchor="middle" x="582" y="-149.32" font-family="Helvetica,sans-Serif" font-size="10.00">_getIntVa</text>
</a>
</g>
</g>
<!-- Node6&#45;&gt;Node7 -->
<g id="edge6" class="edge">
<title>Node6&#45;&gt;Node7</title>
<path fill="none" stroke="midnightblue" d="M437.59,-85.43C455.53,-97.77 488.43,-119.21 519,-132.82 526.6,-136.21 534.99,-139.22 543.07,-141.8"/>
<polygon fill="midnightblue" stroke="midnightblue" points="542.11,-145.17 552.7,-144.72 544.14,-138.47 542.11,-145.17"/>
</g>
<!-- Node8 -->
<g id="node8" class="node">
<title>Node8</title>
<g id="a_node8"><a xlink:href="printfmt_8cc.html#af4b46892c76c8bfd27efdb20847eb7c8" target="_top" xlink:title=" ">
<polygon fill="white" stroke="black" points="549.5,-104.32 549.5,-123.32 614.5,-123.32 614.5,-104.32 549.5,-104.32"/>
<text text-anchor="middle" x="582" y="-111.32" font-family="Helvetica,sans-Serif" font-size="10.00">_getUIntVa</text>
</a>
</g>
</g>
<!-- Node6&#45;&gt;Node8 -->
<g id="edge7" class="edge">
<title>Node6&#45;&gt;Node8</title>
<path fill="none" stroke="midnightblue" d="M463.62,-85.41C486.72,-91 515.84,-98.05 539.3,-103.73"/>
<polygon fill="midnightblue" stroke="midnightblue" points="538.76,-107.2 549.3,-106.15 540.4,-100.4 538.76,-107.2"/>
</g>
<!-- Node9 -->
<g id="node9" class="node">
<title>Node9</title>
<g id="a_node9"><a xlink:href="namespacestr.html#a062221f630647cf300f0dd982c4ed904" target="_top" xlink:title=" ">
<polygon fill="white" stroke="black" points="1159,-99.32 1159,-118.32 1217,-118.32 1217,-99.32 1159,-99.32"/>
<text text-anchor="middle" x="1188" y="-106.32" font-family="Helvetica,sans-Serif" font-size="10.00">str::count</text>
</a>
</g>
</g>
<!-- Node6&#45;&gt;Node9 -->
<g id="edge8" class="edge">
<title>Node6&#45;&gt;Node9</title>
<path fill="none" stroke="midnightblue" d="M430.18,-85.54C443.55,-105.61 477.36,-151.39 519,-170.82 606.33,-211.57 638.63,-189.82 735,-189.82 735,-189.82 735,-189.82 888,-189.82 989.55,-189.82 1103.97,-145.75 1157.02,-122.63"/>
<polygon fill="midnightblue" stroke="midnightblue" points="1158.77,-125.68 1166.5,-118.43 1155.93,-119.28 1158.77,-125.68"/>
</g>
<!-- Node10 -->
<g id="node10" class="node">
<title>Node10</title>
<g id="a_node10"><a xlink:href="printfmt_8cc.html#a0e3e484ece5e75b9f5fbe337f0ae8ae3" target="_top" xlink:title=" ">
<polygon fill="white" stroke="black" points="555.5,-66.32 555.5,-85.32 608.5,-85.32 608.5,-66.32 555.5,-66.32"/>
<text text-anchor="middle" x="582" y="-73.32" font-family="Helvetica,sans-Serif" font-size="10.00">describe</text>
</a>
</g>
</g>
<!-- Node6&#45;&gt;Node10 -->
<g id="edge9" class="edge">
<title>Node6&#45;&gt;Node10</title>
<path fill="none" stroke="midnightblue" d="M483.35,-75.82C504.12,-75.82 526.78,-75.82 545.04,-75.82"/>
<polygon fill="midnightblue" stroke="midnightblue" points="545.24,-79.32 555.24,-75.82 545.24,-72.32 545.24,-79.32"/>
</g>
<!-- Node12 -->
<g id="node12" class="node">
<title>Node12</title>
<g id="a_node12"><a xlink:href="namespaceconsole_1_1ge.html#a7e301813fd34fde772376afc5fdad95d" target="_top" xlink:title=" ">
<polygon fill="white" stroke="black" points="519,-28.32 519,-47.32 645,-47.32 645,-28.32 519,-28.32"/>
<text text-anchor="middle" x="582" y="-35.32" font-family="Helvetica,sans-Serif" font-size="10.00">console::ge::printNumber</text>
</a>
</g>
</g>
<!-- Node6&#45;&gt;Node12 -->
<g id="edge11" class="edge">
<title>Node6&#45;&gt;Node12</title>
<path fill="none" stroke="midnightblue" d="M463.62,-66.23C484.34,-61.22 509.89,-55.03 531.86,-49.72"/>
<polygon fill="midnightblue" stroke="midnightblue" points="532.77,-53.1 541.67,-47.34 531.12,-46.29 532.77,-53.1"/>
</g>
<!-- Node6&#45;&gt;Node13 -->
<g id="edge21" class="edge">
<title>Node6&#45;&gt;Node13</title>
<path fill="none" stroke="midnightblue" d="M435.33,-66.18C452.22,-52.49 485.63,-28.06 519,-18.82 568.52,-5.11 626.9,-6.07 670.48,-9.93"/>
<polygon fill="midnightblue" stroke="midnightblue" points="670.38,-13.44 680.66,-10.91 671.05,-6.47 670.38,-13.44"/>
</g>
<!-- Node11 -->
<g id="node11" class="node">
<title>Node11</title>
<g id="a_node11"><a xlink:href="namespacemonitor.html#a318993193c866642f8389a1c1f285739" target="_top" xlink:title=" ">
<polygon fill="white" stroke="black" points="699,-66.32 699,-85.32 773,-85.32 773,-66.32 699,-66.32"/>
<text text-anchor="middle" x="736" y="-73.32" font-family="Helvetica,sans-Serif" font-size="10.00">monitor::fuck</text>
</a>
</g>
</g>
<!-- Node10&#45;&gt;Node11 -->
<g id="edge10" class="edge">
<title>Node10&#45;&gt;Node11</title>
<path fill="none" stroke="midnightblue" d="M608.78,-75.82C630.62,-75.82 662.46,-75.82 688.7,-75.82"/>
<polygon fill="midnightblue" stroke="midnightblue" points="688.82,-79.32 698.82,-75.82 688.82,-72.32 688.82,-79.32"/>
</g>
<!-- Node12&#45;&gt;Node13 -->
<g id="edge12" class="edge">
<title>Node12&#45;&gt;Node13</title>
<path fill="none" stroke="midnightblue" d="M645.26,-30.04C653.66,-28.99 662.28,-27.91 670.71,-26.86"/>
<polygon fill="midnightblue" stroke="midnightblue" points="671.37,-30.3 680.86,-25.59 670.51,-23.36 671.37,-30.3"/>
</g>
<!-- Node14 -->
<g id="node14" class="node">
<title>Node14</title>
<g id="a_node14"><a xlink:href="namespaceconsole_1_1serial.html#a3a7c1f95ae3c24136ea63bb31fdf0391" target="_top" xlink:title=" ">
<polygon fill="white" stroke="black" points="827,-9.32 827,-28.32 947,-28.32 947,-9.32 827,-9.32"/>
<text text-anchor="middle" x="887" y="-16.32" font-family="Helvetica,sans-Serif" font-size="10.00">console::serial::putChar</text>
</a>
</g>
</g>
<!-- Node13&#45;&gt;Node14 -->
<g id="edge13" class="edge">
<title>Node13&#45;&gt;Node14</title>
<path fill="none" stroke="midnightblue" d="M791.21,-18.82C799.53,-18.82 808.2,-18.82 816.79,-18.82"/>
<polygon fill="midnightblue" stroke="midnightblue" points="816.79,-22.32 826.79,-18.82 816.79,-15.32 816.79,-22.32"/>
</g>
<!-- Node17 -->
<g id="node17" class="node">
<title>Node17</title>
<g id="a_node17"><a xlink:href="namespaceconsole_1_1cga.html#afa19057ca041b39682d5d4831c43dfa0" target="_top" xlink:title=" ">
<polygon fill="white" stroke="black" points="830.5,-47.32 830.5,-66.32 943.5,-66.32 943.5,-47.32 830.5,-47.32"/>
<text text-anchor="middle" x="887" y="-54.32" font-family="Helvetica,sans-Serif" font-size="10.00">console::cga::putChar</text>
</a>
</g>
</g>
<!-- Node13&#45;&gt;Node17 -->
<g id="edge16" class="edge">
<title>Node13&#45;&gt;Node17</title>
<path fill="none" stroke="midnightblue" d="M774.6,-28.41C794.08,-33.38 818.07,-39.5 838.8,-44.78"/>
<polygon fill="midnightblue" stroke="midnightblue" points="838.12,-48.22 848.67,-47.3 839.85,-41.44 838.12,-48.22"/>
</g>
<!-- Node15 -->
<g id="node15" class="node">
<title>Node15</title>
<g id="a_node15"><a xlink:href="namespaceconsole_1_1serial.html#aa5605d4537106bb1c2bab72d7d1a5824" target="_top" xlink:title=" ">
<polygon fill="white" stroke="black" points="1001,-9.32 1001,-28.32 1105,-28.32 1105,-9.32 1001,-9.32"/>
<text text-anchor="middle" x="1053" y="-16.32" font-family="Helvetica,sans-Serif" font-size="10.00">console::serial::sout</text>
</a>
</g>
</g>
<!-- Node14&#45;&gt;Node15 -->
<g id="edge14" class="edge">
<title>Node14&#45;&gt;Node15</title>
<path fill="none" stroke="midnightblue" d="M947.21,-18.82C961.31,-18.82 976.39,-18.82 990.59,-18.82"/>
<polygon fill="midnightblue" stroke="midnightblue" points="990.74,-22.32 1000.74,-18.82 990.74,-15.32 990.74,-22.32"/>
</g>
<!-- Node16 -->
<g id="node16" class="node">
<title>Node16</title>
<g id="a_node16"><a xlink:href="x86_8h.html#ade961b44e45ddacbc3c3b7609cf36dc6" target="_top" xlink:title=" ">
<polygon fill="white" stroke="black" points="1170.5,-42.32 1170.5,-61.32 1205.5,-61.32 1205.5,-42.32 1170.5,-42.32"/>
<text text-anchor="middle" x="1188" y="-49.32" font-family="Helvetica,sans-Serif" font-size="10.00">outb</text>
</a>
</g>
</g>
<!-- Node15&#45;&gt;Node16 -->
<g id="edge15" class="edge">
<title>Node15&#45;&gt;Node16</title>
<path fill="none" stroke="midnightblue" d="M1092.47,-28.37C1114.32,-33.79 1141.11,-40.44 1160.59,-45.27"/>
<polygon fill="midnightblue" stroke="midnightblue" points="1159.76,-48.67 1170.31,-47.68 1161.44,-41.88 1159.76,-48.67"/>
</g>
<!-- Node18 -->
<g id="node18" class="node">
<title>Node18</title>
<g id="a_node18"><a xlink:href="namespacemem.html#a64d9d05b439041901498c606de606431" target="_top" xlink:title=" ">
<polygon fill="white" stroke="black" points="1020.5,-90.32 1020.5,-109.32 1085.5,-109.32 1085.5,-90.32 1020.5,-90.32"/>
<text text-anchor="middle" x="1053" y="-97.32" font-family="Helvetica,sans-Serif" font-size="10.00">mem::copy</text>
</a>
</g>
</g>
<!-- Node17&#45;&gt;Node18 -->
<g id="edge17" class="edge">
<title>Node17&#45;&gt;Node18</title>
<path fill="none" stroke="midnightblue" d="M924.4,-66.37C949.92,-73.06 984.08,-82.01 1010.64,-88.98"/>
<polygon fill="midnightblue" stroke="midnightblue" points="1009.85,-92.39 1020.41,-91.54 1011.62,-85.62 1009.85,-92.39"/>
</g>
<!-- Node19 -->
<g id="node19" class="node">
<title>Node19</title>
<g id="a_node19"><a xlink:href="namespaceconsole_1_1cga.html#a06463d4dc68819e30615ba299d02a78f" target="_top" xlink:title=" ">
<polygon fill="white" stroke="black" points="983,-47.32 983,-66.32 1123,-66.32 1123,-47.32 983,-47.32"/>
<text text-anchor="middle" x="1053" y="-54.32" font-family="Helvetica,sans-Serif" font-size="10.00">console::cga::cursorRefresh</text>
</a>
</g>
</g>
<!-- Node17&#45;&gt;Node19 -->
<g id="edge19" class="edge">
<title>Node17&#45;&gt;Node19</title>
<path fill="none" stroke="midnightblue" d="M943.52,-56.82C952.9,-56.82 962.8,-56.82 972.65,-56.82"/>
<polygon fill="midnightblue" stroke="midnightblue" points="972.87,-60.32 982.87,-56.82 972.87,-53.32 972.87,-60.32"/>
</g>
<!-- Node18&#45;&gt;Node9 -->
<g id="edge18" class="edge">
<title>Node18&#45;&gt;Node9</title>
<path fill="none" stroke="midnightblue" d="M1085.52,-101.96C1104.49,-103.24 1128.77,-104.88 1148.82,-106.24"/>
<polygon fill="midnightblue" stroke="midnightblue" points="1148.66,-109.74 1158.87,-106.92 1149.13,-102.75 1148.66,-109.74"/>
</g>
<!-- Node19&#45;&gt;Node16 -->
<g id="edge20" class="edge">
<title>Node19&#45;&gt;Node16</title>
<path fill="none" stroke="midnightblue" d="M1123.23,-54.22C1136.48,-53.72 1149.59,-53.23 1160.45,-52.82"/>
<polygon fill="midnightblue" stroke="midnightblue" points="1160.61,-56.32 1170.47,-52.44 1160.35,-49.32 1160.61,-56.32"/>
</g>
</g>
</svg>
        <g id="navigator" transform="translate(0 0)" fill="#404254">
                <rect fill="#f2f5e9" fill-opacity="0.5" stroke="#606060" stroke-width=".5" x="0" y="0" width="60" height="60"/>
                <use id="zoomplus" xlink:href="#zoomPlus" x="17" y="9" onmousedown="handleZoom(evt,'in')"/>
                <use id="zoomminus" xlink:href="#zoomMin" x="42" y="9" onmousedown="handleZoom(evt,'out')"/>
                <use id="reset" xlink:href="#resetDef" x="30" y="36" onmousedown="handleReset()"/>
                <g id="arrowUp" xlink:href="#dirArrow" transform="translate(30 24)" onmousedown="handlePan(0,-1)">
                  <use xlink:href="#rim" fill="#404040">
                        <set attributeName="fill" to="#808080" begin="arrowUp.mouseover" end="arrowUp.mouseout"/>
                  </use>
                  <path fill="none" stroke="white" stroke-width="1.5" d="M0,-3.0v7 M-2.5,-0.5L0,-3.0L2.5,-0.5"/>
                </g>
                <g id="arrowRight" xlink:href="#dirArrow" transform="rotate(90) translate(36 -43)" onmousedown="handlePan(1,0)">
                  <use xlink:href="#rim" fill="#404040">
                        <set attributeName="fill" to="#808080" begin="arrowRight.mouseover" end="arrowRight.mouseout"/>
                  </use>
                  <path fill="none" stroke="white" stroke-width="1.5" d="M0,-3.0v7 M-2.5,-0.5L0,-3.0L2.5,-0.5"/>
                </g>
                <g id="arrowDown" xlink:href="#dirArrow" transform="rotate(180) translate(-30 -48)" onmousedown="handlePan(0,1)">
                  <use xlink:href="#rim" fill="#404040">
                        <set attributeName="fill" to="#808080" begin="arrowDown.mouseover" end="arrowDown.mouseout"/>
                  </use>
                  <path fill="none" stroke="white" stroke-width="1.5" d="M0,-3.0v7 M-2.5,-0.5L0,-3.0L2.5,-0.5"/>
                </g>
                <g id="arrowLeft" xlink:href="#dirArrow" transform="rotate(270) translate(-36 17)" onmousedown="handlePan(-1,0)">
                  <use xlink:href="#rim" fill="#404040">
                        <set attributeName="fill" to="#808080" begin="arrowLeft.mouseover" end="arrowLeft.mouseout"/>
                  </use>
                  <path fill="none" stroke="white" stroke-width="1.5" d="M0,-3.0v7 M-2.5,-0.5L0,-3.0L2.5,-0.5"/>
                </g>
        </g>
        <svg viewBox="0 0 15 15" width="100%" height="30px" preserveAspectRatio="xMaxYMin meet">
         <g id="arrow_out" transform="scale(0.3 0.3)">
          <a xlink:href="namespacetask_ac236f50bbe0e2ce82dcfda627a7656cb_cgraph_org.svg" target="_base">
           <rect id="button" ry="5" rx="5" y="6" x="6" height="38" width="38"
                fill="#f2f5e9" fill-opacity="0.5" stroke="#606060" stroke-width="1.0"/>
           <path id="arrow"
             d="M 11.500037,31.436501 C 11.940474,20.09759 22.043105,11.32322 32.158766,21.979434 L 37.068811,17.246167 C 37.068811,17.246167 37.088388,32 37.088388,32 L 22.160133,31.978069 C 22.160133,31.978069 26.997745,27.140456 26.997745,27.140456 C 18.528582,18.264221 13.291696,25.230495 11.500037,31.436501 z"
             style="fill:#404040;"/>
          </a>
         </g>
        </svg>
</svg>
