<?xml version="1.0" encoding="UTF-8" standalone="no"?>
<!DOCTYPE svg PUBLIC "-//W3C//DTD SVG 1.1//EN"
 "http://www.w3.org/Graphics/SVG/1.1/DTD/svg11.dtd">
<!-- Generated by graphviz version 2.44.1 (20200629.0846)
 -->
<!-- Title: mem::move Pages: 1 -->
<svg width="271pt" height="47pt"
 viewBox="0.00 0.00 271.00 47.00" xmlns="http://www.w3.org/2000/svg" xmlns:xlink="http://www.w3.org/1999/xlink">
<g id="graph0" class="graph" transform="scale(1 1) rotate(0) translate(4 43)">
<title>mem::move</title>
<polygon fill="white" stroke="transparent" points="-4,4 -4,-43 267,-43 267,4 -4,4"/>
<!-- Node1 -->
<g id="node1" class="node">
<title>Node1</title>
<g id="a_node1"><a xlink:title=" ">
<polygon fill="#bfbfbf" stroke="black" points="0,-0.5 0,-19.5 68,-19.5 68,-0.5 0,-0.5"/>
<text text-anchor="middle" x="34" y="-7.5" font-family="Helvetica,sans-Serif" font-size="10.00">mem::move</text>
</a>
</g>
</g>
<!-- Node2 -->
<g id="node2" class="node">
<title>Node2</title>
<g id="a_node2"><a xlink:href="namespacemem.html#a64d9d05b439041901498c606de606431" target="_top" xlink:title=" ">
<polygon fill="white" stroke="black" points="104,-19.5 104,-38.5 169,-38.5 169,-19.5 104,-19.5"/>
<text text-anchor="middle" x="136.5" y="-26.5" font-family="Helvetica,sans-Serif" font-size="10.00">mem::copy</text>
</a>
</g>
</g>
<!-- Node1&#45;&gt;Node2 -->
<g id="edge1" class="edge">
<title>Node1&#45;&gt;Node2</title>
<path fill="none" stroke="midnightblue" d="M68.19,-16.27C76.4,-17.83 85.31,-19.51 93.88,-21.13"/>
<polygon fill="midnightblue" stroke="midnightblue" points="93.24,-24.57 103.71,-22.99 94.54,-17.69 93.24,-24.57"/>
</g>
<!-- Node3 -->
<g id="node3" class="node">
<title>Node3</title>
<g id="a_node3"><a xlink:href="namespacestr.html#a062221f630647cf300f0dd982c4ed904" target="_top" xlink:title=" ">
<polygon fill="white" stroke="black" points="205,-0.5 205,-19.5 263,-19.5 263,-0.5 205,-0.5"/>
<text text-anchor="middle" x="234" y="-7.5" font-family="Helvetica,sans-Serif" font-size="10.00">str::count</text>
</a>
</g>
</g>
<!-- Node1&#45;&gt;Node3 -->
<g id="edge3" class="edge">
<title>Node1&#45;&gt;Node3</title>
<path fill="none" stroke="midnightblue" d="M68.14,-10C103.01,-10 157.83,-10 194.57,-10"/>
<polygon fill="midnightblue" stroke="midnightblue" points="194.88,-13.5 204.88,-10 194.88,-6.5 194.88,-13.5"/>
</g>
<!-- Node2&#45;&gt;Node3 -->
<g id="edge2" class="edge">
<title>Node2&#45;&gt;Node3</title>
<path fill="none" stroke="midnightblue" d="M169.03,-22.73C177.22,-21.1 186.13,-19.32 194.63,-17.63"/>
<polygon fill="midnightblue" stroke="midnightblue" points="195.59,-21.01 204.72,-15.63 194.23,-14.15 195.59,-21.01"/>
</g>
</g>
</svg>
