<?xml version="1.0" encoding="UTF-8" standalone="no"?>
<!DOCTYPE svg PUBLIC "-//W3C//DTD SVG 1.1//EN"
 "http://www.w3.org/Graphics/SVG/1.1/DTD/svg11.dtd">
<!-- Generated by graphviz version 2.44.1 (20200629.0846)
 -->
<!-- Title: ksyscall::exit Pages: 1 -->
<svg width="1654pt" height="334pt"
 viewBox="0.00 0.00 1654.00 334.05" xmlns="http://www.w3.org/2000/svg" xmlns:xlink="http://www.w3.org/1999/xlink">
<g id="graph0" class="graph" transform="scale(1 1) rotate(0) translate(4 330.05)">
<title>ksyscall::exit</title>
<polygon fill="white" stroke="transparent" points="-4,4 -4,-330.05 1650,-330.05 1650,4 -4,4"/>
<!-- Node1 -->
<g id="node1" class="node">
<title>Node1</title>
<g id="a_node1"><a xlink:title=" ">
<polygon fill="#bfbfbf" stroke="black" points="0,-256.5 0,-275.5 74,-275.5 74,-256.5 0,-256.5"/>
<text text-anchor="middle" x="37" y="-263.5" font-family="Helvetica,sans-Serif" font-size="10.00">ksyscall::exit</text>
</a>
</g>
</g>
<!-- Node2 -->
<g id="node2" class="node">
<title>Node2</title>
<g id="a_node2"><a xlink:href="structtask_1_1_task.html#acc107ba9ef939a92f459873765fb73eb" target="_top" xlink:title=" ">
<polygon fill="white" stroke="black" points="110,-256.5 110,-275.5 211,-275.5 211,-256.5 110,-256.5"/>
<text text-anchor="middle" x="160.5" y="-263.5" font-family="Helvetica,sans-Serif" font-size="10.00">task::Task::destroy</text>
</a>
</g>
</g>
<!-- Node1&#45;&gt;Node2 -->
<g id="edge1" class="edge">
<title>Node1&#45;&gt;Node2</title>
<path fill="none" stroke="midnightblue" d="M74.13,-266C82.17,-266 90.91,-266 99.62,-266"/>
<polygon fill="midnightblue" stroke="midnightblue" points="99.8,-269.5 109.8,-266 99.8,-262.5 99.8,-269.5"/>
</g>
<!-- Node3 -->
<g id="node3" class="node">
<title>Node3</title>
<g id="a_node3"><a xlink:href="x86_8h.html#ab3bac932074f6042165d3016b701900a" target="_top" xlink:title=" ">
<polygon fill="white" stroke="black" points="269,-294.5 269,-313.5 301,-313.5 301,-294.5 269,-294.5"/>
<text text-anchor="middle" x="285" y="-301.5" font-family="Helvetica,sans-Serif" font-size="10.00">lcr3</text>
</a>
</g>
</g>
<!-- Node2&#45;&gt;Node3 -->
<g id="edge2" class="edge">
<title>Node2&#45;&gt;Node3</title>
<path fill="none" stroke="midnightblue" d="M192.41,-275.59C213.08,-282 239.91,-290.32 259.19,-296.3"/>
<polygon fill="midnightblue" stroke="midnightblue" points="258.18,-299.65 268.76,-299.27 260.25,-292.97 258.18,-299.65"/>
</g>
<!-- Node4 -->
<g id="node4" class="node">
<title>Node4</title>
<g id="a_node4"><a xlink:href="namespacemonitor.html#ac02f947e274eb7d38cdfa803c21ef579" target="_top" xlink:title=" ">
<polygon fill="white" stroke="black" points="247,-218.5 247,-237.5 323,-237.5 323,-218.5 247,-218.5"/>
<text text-anchor="middle" x="285" y="-225.5" font-family="Helvetica,sans-Serif" font-size="10.00">monitor::main</text>
</a>
</g>
</g>
<!-- Node2&#45;&gt;Node4 -->
<g id="edge3" class="edge">
<title>Node2&#45;&gt;Node4</title>
<path fill="none" stroke="midnightblue" d="M192.41,-256.41C207.79,-251.64 226.58,-245.81 243.13,-240.68"/>
<polygon fill="midnightblue" stroke="midnightblue" points="244.58,-243.89 253.1,-237.59 242.51,-237.21 244.58,-243.89"/>
</g>
<!-- Node11 -->
<g id="node11" class="node">
<title>Node11</title>
<g id="a_node11"><a xlink:href="namespaceconsole_1_1out.html#ac6f663e3971b66b8e130ee94755a150e" target="_top" xlink:title=" ">
<polygon fill="white" stroke="black" points="363.5,-256.5 363.5,-275.5 458.5,-275.5 458.5,-256.5 363.5,-256.5"/>
<text text-anchor="middle" x="411" y="-263.5" font-family="Helvetica,sans-Serif" font-size="10.00">console::out::print</text>
</a>
</g>
</g>
<!-- Node2&#45;&gt;Node11 -->
<g id="edge39" class="edge">
<title>Node2&#45;&gt;Node11</title>
<path fill="none" stroke="midnightblue" d="M211.19,-266C252.15,-266 310.25,-266 353.08,-266"/>
<polygon fill="midnightblue" stroke="midnightblue" points="353.34,-269.5 363.34,-266 353.34,-262.5 353.34,-269.5"/>
</g>
<!-- Node5 -->
<g id="node5" class="node">
<title>Node5</title>
<g id="a_node5"><a xlink:href="namespacemonitor.html#a8b88ed0586263051a6af8dbff388e314" target="_top" xlink:title=" ">
<polygon fill="white" stroke="black" points="361,-218.5 361,-237.5 461,-237.5 461,-218.5 361,-218.5"/>
<text text-anchor="middle" x="411" y="-225.5" font-family="Helvetica,sans-Serif" font-size="10.00">monitor::parseCmd</text>
</a>
</g>
</g>
<!-- Node4&#45;&gt;Node5 -->
<g id="edge4" class="edge">
<title>Node4&#45;&gt;Node5</title>
<path fill="none" stroke="midnightblue" d="M323.2,-228C331.9,-228 341.38,-228 350.77,-228"/>
<polygon fill="midnightblue" stroke="midnightblue" points="350.88,-231.5 360.88,-228 350.88,-224.5 350.88,-231.5"/>
</g>
<!-- Node4&#45;&gt;Node11 -->
<g id="edge10" class="edge">
<title>Node4&#45;&gt;Node11</title>
<path fill="none" stroke="midnightblue" d="M317.29,-237.59C333,-242.4 352.24,-248.3 369.11,-253.47"/>
<polygon fill="midnightblue" stroke="midnightblue" points="368.13,-256.83 378.72,-256.41 370.18,-250.14 368.13,-256.83"/>
</g>
<!-- Node26 -->
<g id="node26" class="node">
<title>Node26</title>
<g id="a_node26"><a xlink:href="namespaceconsole_1_1err.html#a124c7e8527c0e3fd2b9636411aea7e82" target="_top" xlink:title=" ">
<polygon fill="white" stroke="black" points="365,-161.5 365,-180.5 457,-180.5 457,-161.5 365,-161.5"/>
<text text-anchor="middle" x="411" y="-168.5" font-family="Helvetica,sans-Serif" font-size="10.00">console::err::print</text>
</a>
</g>
</g>
<!-- Node4&#45;&gt;Node26 -->
<g id="edge30" class="edge">
<title>Node4&#45;&gt;Node26</title>
<path fill="none" stroke="midnightblue" d="M306.75,-218.46C326.78,-209.25 357.32,-195.22 380,-184.79"/>
<polygon fill="midnightblue" stroke="midnightblue" points="381.55,-187.93 389.18,-180.57 378.63,-181.57 381.55,-187.93"/>
</g>
<!-- Node28 -->
<g id="node28" class="node">
<title>Node28</title>
<g id="a_node28"><a xlink:href="namespaceconsole_1_1in.html#afa763e7729f2e6fbdcf4c14e44ad7a29" target="_top" xlink:title=" ">
<polygon fill="white" stroke="black" points="359,-294.5 359,-313.5 463,-313.5 463,-294.5 359,-294.5"/>
<text text-anchor="middle" x="411" y="-301.5" font-family="Helvetica,sans-Serif" font-size="10.00">console::in::readline</text>
</a>
</g>
</g>
<!-- Node4&#45;&gt;Node28 -->
<g id="edge34" class="edge">
<title>Node4&#45;&gt;Node28</title>
<path fill="none" stroke="midnightblue" d="M296.15,-237.6C309.63,-249.92 334.58,-271.35 359,-285 362.52,-286.97 366.28,-288.81 370.11,-290.5"/>
<polygon fill="midnightblue" stroke="midnightblue" points="369.07,-293.86 379.65,-294.43 371.73,-287.39 369.07,-293.86"/>
</g>
<!-- Node6 -->
<g id="node6" class="node">
<title>Node6</title>
<g id="a_node6"><a xlink:href="namespacestr.html#ace5edf7e67a558a1c4ead28a66faba41" target="_top" xlink:title=" ">
<polygon fill="white" stroke="black" points="518.5,-218.5 518.5,-237.5 594.5,-237.5 594.5,-218.5 518.5,-218.5"/>
<text text-anchor="middle" x="556.5" y="-225.5" font-family="Helvetica,sans-Serif" font-size="10.00">str::cmpCase</text>
</a>
</g>
</g>
<!-- Node5&#45;&gt;Node6 -->
<g id="edge5" class="edge">
<title>Node5&#45;&gt;Node6</title>
<path fill="none" stroke="midnightblue" d="M461.38,-228C476.54,-228 493.16,-228 508.17,-228"/>
<polygon fill="midnightblue" stroke="midnightblue" points="508.27,-231.5 518.27,-228 508.27,-224.5 508.27,-231.5"/>
</g>
<!-- Node7 -->
<g id="node7" class="node">
<title>Node7</title>
<g id="a_node7"><a xlink:href="namespacestr.html#a12522233f7d73122d76de5c82e44a183" target="_top" xlink:title=" ">
<polygon fill="white" stroke="black" points="523,-180.5 523,-199.5 590,-199.5 590,-180.5 523,-180.5"/>
<text text-anchor="middle" x="556.5" y="-187.5" font-family="Helvetica,sans-Serif" font-size="10.00">str::splitWs</text>
</a>
</g>
</g>
<!-- Node5&#45;&gt;Node7 -->
<g id="edge6" class="edge">
<title>Node5&#45;&gt;Node7</title>
<path fill="none" stroke="midnightblue" d="M448.21,-218.41C467.9,-213.2 492.38,-206.72 512.97,-201.26"/>
<polygon fill="midnightblue" stroke="midnightblue" points="513.96,-204.62 522.74,-198.68 512.17,-197.85 513.96,-204.62"/>
</g>
<!-- Node8 -->
<g id="node8" class="node">
<title>Node8</title>
<g id="a_node8"><a xlink:href="namespacestr.html#a0e183e333ba05550c6b206906dbf0f10" target="_top" xlink:title=" ">
<polygon fill="white" stroke="black" points="677,-66.5 677,-85.5 729,-85.5 729,-66.5 677,-66.5"/>
<text text-anchor="middle" x="703" y="-73.5" font-family="Helvetica,sans-Serif" font-size="10.00">str::split</text>
</a>
</g>
</g>
<!-- Node7&#45;&gt;Node8 -->
<g id="edge7" class="edge">
<title>Node7&#45;&gt;Node8</title>
<path fill="none" stroke="midnightblue" d="M569.82,-180.28C594.67,-160.68 651.01,-116.23 681.49,-92.18"/>
<polygon fill="midnightblue" stroke="midnightblue" points="684.03,-94.64 689.71,-85.69 679.69,-89.14 684.03,-94.64"/>
</g>
<!-- Node9 -->
<g id="node9" class="node">
<title>Node9</title>
<g id="a_node9"><a xlink:href="namespacestr.html#a062221f630647cf300f0dd982c4ed904" target="_top" xlink:title=" ">
<polygon fill="white" stroke="black" points="1588,-28.5 1588,-47.5 1646,-47.5 1646,-28.5 1588,-28.5"/>
<text text-anchor="middle" x="1617" y="-35.5" font-family="Helvetica,sans-Serif" font-size="10.00">str::count</text>
</a>
</g>
</g>
<!-- Node8&#45;&gt;Node9 -->
<g id="edge8" class="edge">
<title>Node8&#45;&gt;Node9</title>
<path fill="none" stroke="midnightblue" d="M726.55,-66.37C776.59,-45.92 901.07,0 1010,0 1010,0 1010,0 1317,0 1411.34,0 1521.09,-18.84 1577.76,-29.99"/>
<polygon fill="midnightblue" stroke="midnightblue" points="1577.21,-33.45 1587.71,-31.98 1578.58,-26.59 1577.21,-33.45"/>
</g>
<!-- Node10 -->
<g id="node10" class="node">
<title>Node10</title>
<g id="a_node10"><a xlink:href="namespacestr.html#a4b4d986113337f946299cef82449cf52" target="_top" xlink:title=" ">
<polygon fill="white" stroke="black" points="827,-66.5 827,-85.5 877,-85.5 877,-66.5 827,-66.5"/>
<text text-anchor="middle" x="852" y="-73.5" font-family="Helvetica,sans-Serif" font-size="10.00">str::find</text>
</a>
</g>
</g>
<!-- Node8&#45;&gt;Node10 -->
<g id="edge9" class="edge">
<title>Node8&#45;&gt;Node10</title>
<path fill="none" stroke="midnightblue" d="M729.27,-76C753.33,-76 789.73,-76 816.47,-76"/>
<polygon fill="midnightblue" stroke="midnightblue" points="816.55,-79.5 826.55,-76 816.55,-72.5 816.55,-79.5"/>
</g>
<!-- Node12 -->
<g id="node12" class="node">
<title>Node12</title>
<g id="a_node12"><a xlink:href="namespaceconsole_1_1out.html#a8f791bfac54067cadb1b9f18117b987b" target="_top" xlink:title=" ">
<polygon fill="white" stroke="black" points="650,-256.5 650,-275.5 756,-275.5 756,-256.5 650,-256.5"/>
<text text-anchor="middle" x="703" y="-263.5" font-family="Helvetica,sans-Serif" font-size="10.00">console::out::printVa</text>
</a>
</g>
</g>
<!-- Node11&#45;&gt;Node12 -->
<g id="edge11" class="edge">
<title>Node11&#45;&gt;Node12</title>
<path fill="none" stroke="midnightblue" d="M458.59,-266C507.7,-266 585.33,-266 639.68,-266"/>
<polygon fill="midnightblue" stroke="midnightblue" points="639.89,-269.5 649.89,-266 639.89,-262.5 639.89,-269.5"/>
</g>
<!-- Node13 -->
<g id="node13" class="node">
<title>Node13</title>
<g id="a_node13"><a xlink:href="namespaceconsole_1_1ge.html#af642934cb833142f133285fdb75ef7b7" target="_top" xlink:title=" ">
<polygon fill="white" stroke="black" points="792,-142.5 792,-161.5 912,-161.5 912,-142.5 792,-142.5"/>
<text text-anchor="middle" x="852" y="-149.5" font-family="Helvetica,sans-Serif" font-size="10.00">console::ge::printFmtVa</text>
</a>
</g>
</g>
<!-- Node12&#45;&gt;Node13 -->
<g id="edge12" class="edge">
<title>Node12&#45;&gt;Node13</title>
<path fill="none" stroke="midnightblue" d="M716.28,-256.48C741.51,-236.91 799.41,-192.01 830.45,-167.94"/>
<polygon fill="midnightblue" stroke="midnightblue" points="832.69,-170.63 838.44,-161.74 828.4,-165.1 832.69,-170.63"/>
</g>
<!-- Node19 -->
<g id="node19" class="node">
<title>Node19</title>
<g id="a_node19"><a xlink:href="namespaceconsole_1_1out.html#ad9fc97dff4404c2d21aedbb24691e7cb" target="_top" xlink:title=" ">
<polygon fill="white" stroke="black" points="1110,-237.5 1110,-256.5 1220,-256.5 1220,-237.5 1110,-237.5"/>
<text text-anchor="middle" x="1165" y="-244.5" font-family="Helvetica,sans-Serif" font-size="10.00">console::out::putChar</text>
</a>
</g>
</g>
<!-- Node12&#45;&gt;Node19 -->
<g id="edge29" class="edge">
<title>Node12&#45;&gt;Node19</title>
<path fill="none" stroke="midnightblue" d="M755.02,-275.51C767.1,-277.38 779.97,-279.05 792,-280 916.94,-289.88 950.6,-301.91 1074,-280 1094.96,-276.28 1117.44,-268.04 1134.69,-260.72"/>
<polygon fill="midnightblue" stroke="midnightblue" points="1136.43,-263.78 1144.19,-256.57 1133.63,-257.37 1136.43,-263.78"/>
</g>
<!-- Node13&#45;&gt;Node9 -->
<g id="edge15" class="edge">
<title>Node13&#45;&gt;Node9</title>
<path fill="none" stroke="midnightblue" d="M863.15,-142.45C875.02,-131.24 895.16,-112 912,-95 928.37,-78.47 927.05,-67.12 948,-57 1034.77,-15.08 1067.63,-38 1164,-38 1164,-38 1164,-38 1317,-38 1410.63,-38 1520.76,-38 1577.65,-38"/>
<polygon fill="midnightblue" stroke="midnightblue" points="1577.97,-41.5 1587.97,-38 1577.97,-34.5 1577.97,-41.5"/>
</g>
<!-- Node14 -->
<g id="node14" class="node">
<title>Node14</title>
<g id="a_node14"><a xlink:href="printfmt_8cc.html#a708ec6ee2b8bd2d7a453d8d9436ed3b3" target="_top" xlink:title=" ">
<polygon fill="white" stroke="black" points="982,-142.5 982,-161.5 1040,-161.5 1040,-142.5 982,-142.5"/>
<text text-anchor="middle" x="1011" y="-149.5" font-family="Helvetica,sans-Serif" font-size="10.00">_getIntVa</text>
</a>
</g>
</g>
<!-- Node13&#45;&gt;Node14 -->
<g id="edge13" class="edge">
<title>Node13&#45;&gt;Node14</title>
<path fill="none" stroke="midnightblue" d="M912.35,-152C932.24,-152 953.88,-152 971.72,-152"/>
<polygon fill="midnightblue" stroke="midnightblue" points="971.74,-155.5 981.74,-152 971.74,-148.5 971.74,-155.5"/>
</g>
<!-- Node15 -->
<g id="node15" class="node">
<title>Node15</title>
<g id="a_node15"><a xlink:href="printfmt_8cc.html#af4b46892c76c8bfd27efdb20847eb7c8" target="_top" xlink:title=" ">
<polygon fill="white" stroke="black" points="978.5,-104.5 978.5,-123.5 1043.5,-123.5 1043.5,-104.5 978.5,-104.5"/>
<text text-anchor="middle" x="1011" y="-111.5" font-family="Helvetica,sans-Serif" font-size="10.00">_getUIntVa</text>
</a>
</g>
</g>
<!-- Node13&#45;&gt;Node15 -->
<g id="edge14" class="edge">
<title>Node13&#45;&gt;Node15</title>
<path fill="none" stroke="midnightblue" d="M892.62,-142.41C915.72,-136.82 944.84,-129.77 968.3,-124.09"/>
<polygon fill="midnightblue" stroke="midnightblue" points="969.4,-127.43 978.3,-121.67 967.76,-120.62 969.4,-127.43"/>
</g>
<!-- Node16 -->
<g id="node16" class="node">
<title>Node16</title>
<g id="a_node16"><a xlink:href="printfmt_8cc.html#a0e3e484ece5e75b9f5fbe337f0ae8ae3" target="_top" xlink:title=" ">
<polygon fill="white" stroke="black" points="984.5,-66.5 984.5,-85.5 1037.5,-85.5 1037.5,-66.5 984.5,-66.5"/>
<text text-anchor="middle" x="1011" y="-73.5" font-family="Helvetica,sans-Serif" font-size="10.00">describe</text>
</a>
</g>
</g>
<!-- Node13&#45;&gt;Node16 -->
<g id="edge16" class="edge">
<title>Node13&#45;&gt;Node16</title>
<path fill="none" stroke="midnightblue" d="M866.59,-142.39C884.53,-130.05 917.43,-108.61 948,-95 956.44,-91.24 965.85,-87.94 974.73,-85.19"/>
<polygon fill="midnightblue" stroke="midnightblue" points="975.85,-88.5 984.45,-82.32 973.87,-81.79 975.85,-88.5"/>
</g>
<!-- Node18 -->
<g id="node18" class="node">
<title>Node18</title>
<g id="a_node18"><a xlink:href="namespaceconsole_1_1ge.html#a7e301813fd34fde772376afc5fdad95d" target="_top" xlink:title=" ">
<polygon fill="white" stroke="black" points="948,-218.5 948,-237.5 1074,-237.5 1074,-218.5 948,-218.5"/>
<text text-anchor="middle" x="1011" y="-225.5" font-family="Helvetica,sans-Serif" font-size="10.00">console::ge::printNumber</text>
</a>
</g>
</g>
<!-- Node13&#45;&gt;Node18 -->
<g id="edge18" class="edge">
<title>Node13&#45;&gt;Node18</title>
<path fill="none" stroke="midnightblue" d="M869.14,-161.69C887.77,-172.67 919.53,-190.77 948,-204 956.21,-207.82 965.22,-211.55 973.75,-214.89"/>
<polygon fill="midnightblue" stroke="midnightblue" points="972.54,-218.17 983.13,-218.48 975.04,-211.63 972.54,-218.17"/>
</g>
<!-- Node13&#45;&gt;Node19 -->
<g id="edge28" class="edge">
<title>Node13&#45;&gt;Node19</title>
<path fill="none" stroke="midnightblue" d="M898.01,-161.56C943.07,-171.62 1014.13,-188.76 1074,-209 1094.42,-215.9 1116.74,-225.31 1134.04,-233.04"/>
<polygon fill="midnightblue" stroke="midnightblue" points="1133.05,-236.43 1143.6,-237.37 1135.93,-230.06 1133.05,-236.43"/>
</g>
<!-- Node17 -->
<g id="node17" class="node">
<title>Node17</title>
<g id="a_node17"><a xlink:href="namespacemonitor.html#a318993193c866642f8389a1c1f285739" target="_top" xlink:title=" ">
<polygon fill="white" stroke="black" points="1128,-66.5 1128,-85.5 1202,-85.5 1202,-66.5 1128,-66.5"/>
<text text-anchor="middle" x="1165" y="-73.5" font-family="Helvetica,sans-Serif" font-size="10.00">monitor::fuck</text>
</a>
</g>
</g>
<!-- Node16&#45;&gt;Node17 -->
<g id="edge17" class="edge">
<title>Node16&#45;&gt;Node17</title>
<path fill="none" stroke="midnightblue" d="M1037.78,-76C1059.62,-76 1091.46,-76 1117.7,-76"/>
<polygon fill="midnightblue" stroke="midnightblue" points="1117.82,-79.5 1127.82,-76 1117.82,-72.5 1117.82,-79.5"/>
</g>
<!-- Node18&#45;&gt;Node19 -->
<g id="edge19" class="edge">
<title>Node18&#45;&gt;Node19</title>
<path fill="none" stroke="midnightblue" d="M1074.26,-235.78C1082.66,-236.83 1091.28,-237.91 1099.71,-238.96"/>
<polygon fill="midnightblue" stroke="midnightblue" points="1099.51,-242.47 1109.86,-240.23 1100.37,-235.52 1099.51,-242.47"/>
</g>
<!-- Node20 -->
<g id="node20" class="node">
<title>Node20</title>
<g id="a_node20"><a xlink:href="namespaceconsole_1_1serial.html#a3a7c1f95ae3c24136ea63bb31fdf0391" target="_top" xlink:title=" ">
<polygon fill="white" stroke="black" points="1256,-237.5 1256,-256.5 1376,-256.5 1376,-237.5 1256,-237.5"/>
<text text-anchor="middle" x="1316" y="-244.5" font-family="Helvetica,sans-Serif" font-size="10.00">console::serial::putChar</text>
</a>
</g>
</g>
<!-- Node19&#45;&gt;Node20 -->
<g id="edge20" class="edge">
<title>Node19&#45;&gt;Node20</title>
<path fill="none" stroke="midnightblue" d="M1220.21,-247C1228.53,-247 1237.2,-247 1245.79,-247"/>
<polygon fill="midnightblue" stroke="midnightblue" points="1245.79,-250.5 1255.79,-247 1245.79,-243.5 1245.79,-250.5"/>
</g>
<!-- Node23 -->
<g id="node23" class="node">
<title>Node23</title>
<g id="a_node23"><a xlink:href="namespaceconsole_1_1cga.html#afa19057ca041b39682d5d4831c43dfa0" target="_top" xlink:title=" ">
<polygon fill="white" stroke="black" points="1259.5,-199.5 1259.5,-218.5 1372.5,-218.5 1372.5,-199.5 1259.5,-199.5"/>
<text text-anchor="middle" x="1316" y="-206.5" font-family="Helvetica,sans-Serif" font-size="10.00">console::cga::putChar</text>
</a>
</g>
</g>
<!-- Node19&#45;&gt;Node23 -->
<g id="edge23" class="edge">
<title>Node19&#45;&gt;Node23</title>
<path fill="none" stroke="midnightblue" d="M1203.6,-237.41C1223.08,-232.44 1247.07,-226.32 1267.8,-221.04"/>
<polygon fill="midnightblue" stroke="midnightblue" points="1268.85,-224.38 1277.67,-218.52 1267.12,-217.6 1268.85,-224.38"/>
</g>
<!-- Node21 -->
<g id="node21" class="node">
<title>Node21</title>
<g id="a_node21"><a xlink:href="namespaceconsole_1_1serial.html#aa5605d4537106bb1c2bab72d7d1a5824" target="_top" xlink:title=" ">
<polygon fill="white" stroke="black" points="1430,-237.5 1430,-256.5 1534,-256.5 1534,-237.5 1430,-237.5"/>
<text text-anchor="middle" x="1482" y="-244.5" font-family="Helvetica,sans-Serif" font-size="10.00">console::serial::sout</text>
</a>
</g>
</g>
<!-- Node20&#45;&gt;Node21 -->
<g id="edge21" class="edge">
<title>Node20&#45;&gt;Node21</title>
<path fill="none" stroke="midnightblue" d="M1376.21,-247C1390.31,-247 1405.39,-247 1419.59,-247"/>
<polygon fill="midnightblue" stroke="midnightblue" points="1419.74,-250.5 1429.74,-247 1419.74,-243.5 1419.74,-250.5"/>
</g>
<!-- Node22 -->
<g id="node22" class="node">
<title>Node22</title>
<g id="a_node22"><a xlink:href="x86_8h.html#ade961b44e45ddacbc3c3b7609cf36dc6" target="_top" xlink:title=" ">
<polygon fill="white" stroke="black" points="1599.5,-218.5 1599.5,-237.5 1634.5,-237.5 1634.5,-218.5 1599.5,-218.5"/>
<text text-anchor="middle" x="1617" y="-225.5" font-family="Helvetica,sans-Serif" font-size="10.00">outb</text>
</a>
</g>
</g>
<!-- Node21&#45;&gt;Node22 -->
<g id="edge22" class="edge">
<title>Node21&#45;&gt;Node22</title>
<path fill="none" stroke="midnightblue" d="M1534.04,-239.71C1552.85,-237.02 1573.4,-234.09 1589.22,-231.83"/>
<polygon fill="midnightblue" stroke="midnightblue" points="1589.94,-235.26 1599.34,-230.38 1588.95,-228.33 1589.94,-235.26"/>
</g>
<!-- Node24 -->
<g id="node24" class="node">
<title>Node24</title>
<g id="a_node24"><a xlink:href="namespacemem.html#a64d9d05b439041901498c606de606431" target="_top" xlink:title=" ">
<polygon fill="white" stroke="black" points="1449.5,-114.5 1449.5,-133.5 1514.5,-133.5 1514.5,-114.5 1449.5,-114.5"/>
<text text-anchor="middle" x="1482" y="-121.5" font-family="Helvetica,sans-Serif" font-size="10.00">mem::copy</text>
</a>
</g>
</g>
<!-- Node23&#45;&gt;Node24 -->
<g id="edge24" class="edge">
<title>Node23&#45;&gt;Node24</title>
<path fill="none" stroke="midnightblue" d="M1335.49,-199.41C1364.16,-184.56 1419.51,-155.87 1453.07,-138.48"/>
<polygon fill="midnightblue" stroke="midnightblue" points="1455.05,-141.39 1462.32,-133.68 1451.83,-135.17 1455.05,-141.39"/>
</g>
<!-- Node25 -->
<g id="node25" class="node">
<title>Node25</title>
<g id="a_node25"><a xlink:href="namespaceconsole_1_1cga.html#a06463d4dc68819e30615ba299d02a78f" target="_top" xlink:title=" ">
<polygon fill="white" stroke="black" points="1412,-199.5 1412,-218.5 1552,-218.5 1552,-199.5 1412,-199.5"/>
<text text-anchor="middle" x="1482" y="-206.5" font-family="Helvetica,sans-Serif" font-size="10.00">console::cga::cursorRefresh</text>
</a>
</g>
</g>
<!-- Node23&#45;&gt;Node25 -->
<g id="edge26" class="edge">
<title>Node23&#45;&gt;Node25</title>
<path fill="none" stroke="midnightblue" d="M1372.52,-209C1381.9,-209 1391.8,-209 1401.65,-209"/>
<polygon fill="midnightblue" stroke="midnightblue" points="1401.87,-212.5 1411.87,-209 1401.87,-205.5 1401.87,-212.5"/>
</g>
<!-- Node24&#45;&gt;Node9 -->
<g id="edge25" class="edge">
<title>Node24&#45;&gt;Node9</title>
<path fill="none" stroke="midnightblue" d="M1497.74,-114.47C1520.71,-99.62 1565.24,-70.82 1592.62,-53.12"/>
<polygon fill="midnightblue" stroke="midnightblue" points="1594.7,-55.94 1601.19,-47.57 1590.89,-50.07 1594.7,-55.94"/>
</g>
<!-- Node25&#45;&gt;Node22 -->
<g id="edge27" class="edge">
<title>Node25&#45;&gt;Node22</title>
<path fill="none" stroke="midnightblue" d="M1549.89,-218.56C1563.81,-220.54 1577.71,-222.53 1589.15,-224.16"/>
<polygon fill="midnightblue" stroke="midnightblue" points="1588.88,-227.66 1599.28,-225.61 1589.87,-220.73 1588.88,-227.66"/>
</g>
<!-- Node27 -->
<g id="node27" class="node">
<title>Node27</title>
<g id="a_node27"><a xlink:href="namespaceconsole_1_1err.html#a4cd18e4c409b5b17ecec61ce83b05fba" target="_top" xlink:title=" ">
<polygon fill="white" stroke="black" points="651,-142.5 651,-161.5 755,-161.5 755,-142.5 651,-142.5"/>
<text text-anchor="middle" x="703" y="-149.5" font-family="Helvetica,sans-Serif" font-size="10.00">console::err::printVa</text>
</a>
</g>
</g>
<!-- Node26&#45;&gt;Node27 -->
<g id="edge31" class="edge">
<title>Node26&#45;&gt;Node27</title>
<path fill="none" stroke="midnightblue" d="M457.31,-168.03C506.55,-164.81 585.51,-159.63 640.36,-156.04"/>
<polygon fill="midnightblue" stroke="midnightblue" points="640.91,-159.51 650.65,-155.36 640.45,-152.53 640.91,-159.51"/>
</g>
<!-- Node27&#45;&gt;Node13 -->
<g id="edge32" class="edge">
<title>Node27&#45;&gt;Node13</title>
<path fill="none" stroke="midnightblue" d="M755,-152C763.62,-152 772.69,-152 781.68,-152"/>
<polygon fill="midnightblue" stroke="midnightblue" points="781.76,-155.5 791.76,-152 781.76,-148.5 781.76,-155.5"/>
</g>
<!-- Node27&#45;&gt;Node19 -->
<g id="edge33" class="edge">
<title>Node27&#45;&gt;Node19</title>
<path fill="none" stroke="midnightblue" d="M721.68,-161.55C760.97,-182.16 859.09,-230.3 948,-247 998.33,-256.45 1056.42,-255.82 1099.68,-253.17"/>
<polygon fill="midnightblue" stroke="midnightblue" points="1100.04,-256.66 1109.78,-252.5 1099.57,-249.67 1100.04,-256.66"/>
</g>
<!-- Node29 -->
<g id="node29" class="node">
<title>Node29</title>
<g id="a_node29"><a xlink:href="namespaceconsole_1_1in.html#ac28354dad0498aa6bb0c178b10d62c8a" target="_top" xlink:title=" ">
<polygon fill="white" stroke="black" points="499,-294.5 499,-313.5 614,-313.5 614,-294.5 499,-294.5"/>
<text text-anchor="middle" x="556.5" y="-301.5" font-family="Helvetica,sans-Serif" font-size="10.00">console::in::readlineVa</text>
</a>
</g>
</g>
<!-- Node28&#45;&gt;Node29 -->
<g id="edge35" class="edge">
<title>Node28&#45;&gt;Node29</title>
<path fill="none" stroke="midnightblue" d="M463.4,-304C471.52,-304 480.02,-304 488.43,-304"/>
<polygon fill="midnightblue" stroke="midnightblue" points="488.62,-307.5 498.62,-304 488.62,-300.5 488.62,-307.5"/>
</g>
<!-- Node29&#45;&gt;Node12 -->
<g id="edge37" class="edge">
<title>Node29&#45;&gt;Node12</title>
<path fill="none" stroke="midnightblue" d="M593.96,-294.41C612.77,-289.46 635.91,-283.38 655.95,-278.11"/>
<polygon fill="midnightblue" stroke="midnightblue" points="657.02,-281.45 665.8,-275.52 655.24,-274.68 657.02,-281.45"/>
</g>
<!-- Node29&#45;&gt;Node19 -->
<g id="edge38" class="edge">
<title>Node29&#45;&gt;Node19</title>
<path fill="none" stroke="midnightblue" d="M595.04,-313.51C611.74,-317.27 631.73,-321.14 650,-323 772.76,-335.48 1062.89,-303.46 1074,-300 1099.95,-291.91 1126.36,-275.13 1143.8,-262.6"/>
<polygon fill="midnightblue" stroke="midnightblue" points="1146.09,-265.27 1152.05,-256.51 1141.93,-259.63 1146.09,-265.27"/>
</g>
<!-- Node30 -->
<g id="node30" class="node">
<title>Node30</title>
<g id="a_node30"><a xlink:href="namespaceconsole_1_1in.html#a6fc069f2bc57fda183e3b991c31ec5a7" target="_top" xlink:title=" ">
<polygon fill="white" stroke="black" points="651,-294.5 651,-313.5 755,-313.5 755,-294.5 651,-294.5"/>
<text text-anchor="middle" x="703" y="-301.5" font-family="Helvetica,sans-Serif" font-size="10.00">console::in::getChar</text>
</a>
</g>
</g>
<!-- Node29&#45;&gt;Node30 -->
<g id="edge36" class="edge">
<title>Node29&#45;&gt;Node30</title>
<path fill="none" stroke="midnightblue" d="M614.2,-304C622.83,-304 631.78,-304 640.52,-304"/>
<polygon fill="midnightblue" stroke="midnightblue" points="640.64,-307.5 650.64,-304 640.64,-300.5 640.64,-307.5"/>
</g>
</g>
</svg>
