<?xml version="1.0" encoding="UTF-8" standalone="no"?>
<!DOCTYPE svg PUBLIC "-//W3C//DTD SVG 1.1//EN"
 "http://www.w3.org/Graphics/SVG/1.1/DTD/svg11.dtd">
<!-- Generated by graphviz version 2.44.1 (20200629.0846)
 -->
<!-- Title: trap::init Pages: 1 -->
<svg width="1634pt" height="398pt"
 viewBox="0.00 0.00 1634.00 398.00" xmlns="http://www.w3.org/2000/svg" xmlns:xlink="http://www.w3.org/1999/xlink">
<g id="graph0" class="graph" transform="scale(1 1) rotate(0) translate(4 394)">
<title>trap::init</title>
<polygon fill="white" stroke="transparent" points="-4,4 -4,-394 1630,-394 1630,4 -4,4"/>
<!-- Node1 -->
<g id="node1" class="node">
<title>Node1</title>
<g id="a_node1"><a xlink:title=" ">
<polygon fill="#bfbfbf" stroke="black" points="0,-265.5 0,-284.5 52,-284.5 52,-265.5 0,-265.5"/>
<text text-anchor="middle" x="26" y="-272.5" font-family="Helvetica,sans-Serif" font-size="10.00">trap::init</text>
</a>
</g>
</g>
<!-- Node2 -->
<g id="node2" class="node">
<title>Node2</title>
<g id="a_node2"><a xlink:href="x86_8h.html#a7212dae3820e33d3e65b624a9fee1b04" target="_top" xlink:title=" ">
<polygon fill="white" stroke="black" points="108.5,-351.5 108.5,-370.5 170.5,-370.5 170.5,-351.5 108.5,-351.5"/>
<text text-anchor="middle" x="139.5" y="-358.5" font-family="Helvetica,sans-Serif" font-size="10.00">breakpoint</text>
</a>
</g>
</g>
<!-- Node1&#45;&gt;Node2 -->
<g id="edge1" class="edge">
<title>Node1&#45;&gt;Node2</title>
<path fill="none" stroke="midnightblue" d="M34.8,-284.86C45.64,-298.06 66.35,-321.59 88,-337 93.19,-340.69 99.04,-344.07 104.86,-347.05"/>
<polygon fill="midnightblue" stroke="midnightblue" points="103.38,-350.22 113.91,-351.4 106.41,-343.91 103.38,-350.22"/>
</g>
<!-- Node3 -->
<g id="node3" class="node">
<title>Node3</title>
<g id="a_node3"><a xlink:href="namespacetrap_1_1handler.html#aa067cfbe3cae2802d8b48a14d125daa3" target="_top" xlink:title=" ">
<polygon fill="white" stroke="black" points="88,-265.5 88,-284.5 191,-284.5 191,-265.5 88,-265.5"/>
<text text-anchor="middle" x="139.5" y="-272.5" font-family="Helvetica,sans-Serif" font-size="10.00">trap::handler::debug</text>
</a>
</g>
</g>
<!-- Node1&#45;&gt;Node3 -->
<g id="edge2" class="edge">
<title>Node1&#45;&gt;Node3</title>
<path fill="none" stroke="midnightblue" d="M52.02,-275C59.67,-275 68.45,-275 77.41,-275"/>
<polygon fill="midnightblue" stroke="midnightblue" points="77.55,-278.5 87.55,-275 77.55,-271.5 77.55,-278.5"/>
</g>
<!-- Node11 -->
<g id="node11" class="node">
<title>Node11</title>
<g id="a_node11"><a xlink:href="namespaceconsole_1_1out.html#ac6f663e3971b66b8e130ee94755a150e" target="_top" xlink:title=" ">
<polygon fill="white" stroke="black" points="343.5,-294.5 343.5,-313.5 438.5,-313.5 438.5,-294.5 343.5,-294.5"/>
<text text-anchor="middle" x="391" y="-301.5" font-family="Helvetica,sans-Serif" font-size="10.00">console::out::print</text>
</a>
</g>
</g>
<!-- Node1&#45;&gt;Node11 -->
<g id="edge43" class="edge">
<title>Node1&#45;&gt;Node11</title>
<path fill="none" stroke="midnightblue" d="M52.18,-284.32C63.05,-287.96 76,-291.78 88,-294 172.35,-309.64 272.18,-309.38 333.28,-307.15"/>
<polygon fill="midnightblue" stroke="midnightblue" points="333.63,-310.64 343.49,-306.74 333.36,-303.64 333.63,-310.64"/>
</g>
<!-- Node31 -->
<g id="node31" class="node">
<title>Node31</title>
<g id="a_node31"><a xlink:href="namespacetrap.html#a122971dfdb9c856a2343f1869781e3db" target="_top" xlink:title=" ">
<polygon fill="white" stroke="black" points="97,-218.5 97,-237.5 182,-237.5 182,-218.5 97,-218.5"/>
<text text-anchor="middle" x="139.5" y="-225.5" font-family="Helvetica,sans-Serif" font-size="10.00">trap::initPerCpu</text>
</a>
</g>
</g>
<!-- Node1&#45;&gt;Node31 -->
<g id="edge40" class="edge">
<title>Node1&#45;&gt;Node31</title>
<path fill="none" stroke="midnightblue" d="M49.56,-265.49C65.85,-258.62 88.09,-249.25 106.25,-241.6"/>
<polygon fill="midnightblue" stroke="midnightblue" points="107.73,-244.77 115.59,-237.66 105.01,-238.32 107.73,-244.77"/>
</g>
<!-- Node34 -->
<g id="node34" class="node">
<title>Node34</title>
<g id="a_node34"><a xlink:href="stdlib_8hh.html#ab9656f5950c15e0f988c0cde1c3c07dd" target="_top" xlink:title=" ">
<polygon fill="white" stroke="black" points="116,-180.5 116,-199.5 163,-199.5 163,-180.5 116,-180.5"/>
<text text-anchor="middle" x="139.5" y="-187.5" font-family="Helvetica,sans-Serif" font-size="10.00">syscall</text>
</a>
</g>
</g>
<!-- Node1&#45;&gt;Node34 -->
<g id="edge44" class="edge">
<title>Node1&#45;&gt;Node34</title>
<path fill="none" stroke="midnightblue" d="M33.78,-265.15C44.01,-250.94 64.7,-224.68 88,-209 93.51,-205.29 99.84,-202.18 106.11,-199.62"/>
<polygon fill="midnightblue" stroke="midnightblue" points="107.63,-202.79 115.8,-196.05 105.2,-196.23 107.63,-202.79"/>
</g>
<!-- Node4 -->
<g id="node4" class="node">
<title>Node4</title>
<g id="a_node4"><a xlink:href="namespacemonitor.html#ac02f947e274eb7d38cdfa803c21ef579" target="_top" xlink:title=" ">
<polygon fill="white" stroke="black" points="227,-237.5 227,-256.5 303,-256.5 303,-237.5 227,-237.5"/>
<text text-anchor="middle" x="265" y="-244.5" font-family="Helvetica,sans-Serif" font-size="10.00">monitor::main</text>
</a>
</g>
</g>
<!-- Node3&#45;&gt;Node4 -->
<g id="edge3" class="edge">
<title>Node3&#45;&gt;Node4</title>
<path fill="none" stroke="midnightblue" d="M182.66,-265.44C193.79,-262.92 205.87,-260.18 217.23,-257.6"/>
<polygon fill="midnightblue" stroke="midnightblue" points="218.01,-261.02 226.99,-255.39 216.46,-254.19 218.01,-261.02"/>
</g>
<!-- Node3&#45;&gt;Node11 -->
<g id="edge39" class="edge">
<title>Node3&#45;&gt;Node11</title>
<path fill="none" stroke="midnightblue" d="M191.29,-280.9C232.58,-285.7 290.78,-292.47 333.52,-297.44"/>
<polygon fill="midnightblue" stroke="midnightblue" points="333.15,-300.92 343.49,-298.59 333.96,-293.96 333.15,-300.92"/>
</g>
<!-- Node5 -->
<g id="node5" class="node">
<title>Node5</title>
<g id="a_node5"><a xlink:href="namespacemonitor.html#a8b88ed0586263051a6af8dbff388e314" target="_top" xlink:title=" ">
<polygon fill="white" stroke="black" points="341,-218.5 341,-237.5 441,-237.5 441,-218.5 341,-218.5"/>
<text text-anchor="middle" x="391" y="-225.5" font-family="Helvetica,sans-Serif" font-size="10.00">monitor::parseCmd</text>
</a>
</g>
</g>
<!-- Node4&#45;&gt;Node5 -->
<g id="edge4" class="edge">
<title>Node4&#45;&gt;Node5</title>
<path fill="none" stroke="midnightblue" d="M303.2,-241.3C311.9,-239.97 321.38,-238.51 330.77,-237.08"/>
<polygon fill="midnightblue" stroke="midnightblue" points="331.53,-240.5 340.88,-235.53 330.47,-233.58 331.53,-240.5"/>
</g>
<!-- Node4&#45;&gt;Node11 -->
<g id="edge10" class="edge">
<title>Node4&#45;&gt;Node11</title>
<path fill="none" stroke="midnightblue" d="M282.82,-256.51C297.43,-264.59 319.29,-276.24 339,-285 343.46,-286.98 348.2,-288.94 352.92,-290.8"/>
<polygon fill="midnightblue" stroke="midnightblue" points="351.9,-294.16 362.49,-294.46 354.4,-287.62 351.9,-294.16"/>
</g>
<!-- Node26 -->
<g id="node26" class="node">
<title>Node26</title>
<g id="a_node26"><a xlink:href="namespaceconsole_1_1err.html#a124c7e8527c0e3fd2b9636411aea7e82" target="_top" xlink:title=" ">
<polygon fill="white" stroke="black" points="345,-180.5 345,-199.5 437,-199.5 437,-180.5 345,-180.5"/>
<text text-anchor="middle" x="391" y="-187.5" font-family="Helvetica,sans-Serif" font-size="10.00">console::err::print</text>
</a>
</g>
</g>
<!-- Node4&#45;&gt;Node26 -->
<g id="edge30" class="edge">
<title>Node4&#45;&gt;Node26</title>
<path fill="none" stroke="midnightblue" d="M284.84,-237.37C290.67,-234.38 297.11,-231.07 303,-228 319.05,-219.65 322.49,-216.4 339,-209 343.45,-207 348.19,-205.04 352.91,-203.18"/>
<polygon fill="midnightblue" stroke="midnightblue" points="354.39,-206.36 362.48,-199.51 351.89,-199.82 354.39,-206.36"/>
</g>
<!-- Node28 -->
<g id="node28" class="node">
<title>Node28</title>
<g id="a_node28"><a xlink:href="namespaceconsole_1_1in.html#afa763e7729f2e6fbdcf4c14e44ad7a29" target="_top" xlink:title=" ">
<polygon fill="white" stroke="black" points="339,-256.5 339,-275.5 443,-275.5 443,-256.5 339,-256.5"/>
<text text-anchor="middle" x="391" y="-263.5" font-family="Helvetica,sans-Serif" font-size="10.00">console::in::readline</text>
</a>
</g>
</g>
<!-- Node4&#45;&gt;Node28 -->
<g id="edge34" class="edge">
<title>Node4&#45;&gt;Node28</title>
<path fill="none" stroke="midnightblue" d="M303.2,-252.7C311.2,-253.93 319.86,-255.25 328.51,-256.58"/>
<polygon fill="midnightblue" stroke="midnightblue" points="328.19,-260.07 338.61,-258.13 329.25,-253.15 328.19,-260.07"/>
</g>
<!-- Node6 -->
<g id="node6" class="node">
<title>Node6</title>
<g id="a_node6"><a xlink:href="namespacestr.html#ace5edf7e67a558a1c4ead28a66faba41" target="_top" xlink:title=" ">
<polygon fill="white" stroke="black" points="498.5,-218.5 498.5,-237.5 574.5,-237.5 574.5,-218.5 498.5,-218.5"/>
<text text-anchor="middle" x="536.5" y="-225.5" font-family="Helvetica,sans-Serif" font-size="10.00">str::cmpCase</text>
</a>
</g>
</g>
<!-- Node5&#45;&gt;Node6 -->
<g id="edge5" class="edge">
<title>Node5&#45;&gt;Node6</title>
<path fill="none" stroke="midnightblue" d="M441.38,-228C456.54,-228 473.16,-228 488.17,-228"/>
<polygon fill="midnightblue" stroke="midnightblue" points="488.27,-231.5 498.27,-228 488.27,-224.5 488.27,-231.5"/>
</g>
<!-- Node7 -->
<g id="node7" class="node">
<title>Node7</title>
<g id="a_node7"><a xlink:href="namespacestr.html#a12522233f7d73122d76de5c82e44a183" target="_top" xlink:title=" ">
<polygon fill="white" stroke="black" points="503,-85.5 503,-104.5 570,-104.5 570,-85.5 503,-85.5"/>
<text text-anchor="middle" x="536.5" y="-92.5" font-family="Helvetica,sans-Serif" font-size="10.00">str::splitWs</text>
</a>
</g>
</g>
<!-- Node5&#45;&gt;Node7 -->
<g id="edge6" class="edge">
<title>Node5&#45;&gt;Node7</title>
<path fill="none" stroke="midnightblue" d="M425.41,-218.49C431.56,-215.94 437.7,-212.8 443,-209 479.55,-182.75 509.68,-138.48 524.87,-113.53"/>
<polygon fill="midnightblue" stroke="midnightblue" points="528.01,-115.1 530.1,-104.71 521.99,-111.52 528.01,-115.1"/>
</g>
<!-- Node8 -->
<g id="node8" class="node">
<title>Node8</title>
<g id="a_node8"><a xlink:href="namespacestr.html#a0e183e333ba05550c6b206906dbf0f10" target="_top" xlink:title=" ">
<polygon fill="white" stroke="black" points="657,-85.5 657,-104.5 709,-104.5 709,-85.5 657,-85.5"/>
<text text-anchor="middle" x="683" y="-92.5" font-family="Helvetica,sans-Serif" font-size="10.00">str::split</text>
</a>
</g>
</g>
<!-- Node7&#45;&gt;Node8 -->
<g id="edge7" class="edge">
<title>Node7&#45;&gt;Node8</title>
<path fill="none" stroke="midnightblue" d="M570.29,-95C593.11,-95 623.5,-95 646.82,-95"/>
<polygon fill="midnightblue" stroke="midnightblue" points="646.99,-98.5 656.99,-95 646.99,-91.5 646.99,-98.5"/>
</g>
<!-- Node9 -->
<g id="node9" class="node">
<title>Node9</title>
<g id="a_node9"><a xlink:href="namespacestr.html#a062221f630647cf300f0dd982c4ed904" target="_top" xlink:title=" ">
<polygon fill="white" stroke="black" points="1568,-66.5 1568,-85.5 1626,-85.5 1626,-66.5 1568,-66.5"/>
<text text-anchor="middle" x="1597" y="-73.5" font-family="Helvetica,sans-Serif" font-size="10.00">str::count</text>
</a>
</g>
</g>
<!-- Node8&#45;&gt;Node9 -->
<g id="edge8" class="edge">
<title>Node8&#45;&gt;Node9</title>
<path fill="none" stroke="midnightblue" d="M701.68,-85.37C747.72,-61.22 875.69,0 990,0 990,0 990,0 1297,0 1397.34,0 1510.95,-40.7 1564.67,-62.53"/>
<polygon fill="midnightblue" stroke="midnightblue" points="1563.4,-65.8 1573.98,-66.37 1566.07,-59.33 1563.4,-65.8"/>
</g>
<!-- Node10 -->
<g id="node10" class="node">
<title>Node10</title>
<g id="a_node10"><a xlink:href="namespacestr.html#a4b4d986113337f946299cef82449cf52" target="_top" xlink:title=" ">
<polygon fill="white" stroke="black" points="807,-85.5 807,-104.5 857,-104.5 857,-85.5 807,-85.5"/>
<text text-anchor="middle" x="832" y="-92.5" font-family="Helvetica,sans-Serif" font-size="10.00">str::find</text>
</a>
</g>
</g>
<!-- Node8&#45;&gt;Node10 -->
<g id="edge9" class="edge">
<title>Node8&#45;&gt;Node10</title>
<path fill="none" stroke="midnightblue" d="M709.27,-95C733.33,-95 769.73,-95 796.47,-95"/>
<polygon fill="midnightblue" stroke="midnightblue" points="796.55,-98.5 806.55,-95 796.55,-91.5 796.55,-98.5"/>
</g>
<!-- Node12 -->
<g id="node12" class="node">
<title>Node12</title>
<g id="a_node12"><a xlink:href="namespaceconsole_1_1out.html#a8f791bfac54067cadb1b9f18117b987b" target="_top" xlink:title=" ">
<polygon fill="white" stroke="black" points="630,-294.5 630,-313.5 736,-313.5 736,-294.5 630,-294.5"/>
<text text-anchor="middle" x="683" y="-301.5" font-family="Helvetica,sans-Serif" font-size="10.00">console::out::printVa</text>
</a>
</g>
</g>
<!-- Node11&#45;&gt;Node12 -->
<g id="edge11" class="edge">
<title>Node11&#45;&gt;Node12</title>
<path fill="none" stroke="midnightblue" d="M438.59,-304C487.7,-304 565.33,-304 619.68,-304"/>
<polygon fill="midnightblue" stroke="midnightblue" points="619.89,-307.5 629.89,-304 619.89,-300.5 619.89,-307.5"/>
</g>
<!-- Node13 -->
<g id="node13" class="node">
<title>Node13</title>
<g id="a_node13"><a xlink:href="namespaceconsole_1_1ge.html#af642934cb833142f133285fdb75ef7b7" target="_top" xlink:title=" ">
<polygon fill="white" stroke="black" points="772,-180.5 772,-199.5 892,-199.5 892,-180.5 772,-180.5"/>
<text text-anchor="middle" x="832" y="-187.5" font-family="Helvetica,sans-Serif" font-size="10.00">console::ge::printFmtVa</text>
</a>
</g>
</g>
<!-- Node12&#45;&gt;Node13 -->
<g id="edge12" class="edge">
<title>Node12&#45;&gt;Node13</title>
<path fill="none" stroke="midnightblue" d="M696.28,-294.48C721.51,-274.91 779.41,-230.01 810.45,-205.94"/>
<polygon fill="midnightblue" stroke="midnightblue" points="812.69,-208.63 818.44,-199.74 808.4,-203.1 812.69,-208.63"/>
</g>
<!-- Node19 -->
<g id="node19" class="node">
<title>Node19</title>
<g id="a_node19"><a xlink:href="namespaceconsole_1_1out.html#ad9fc97dff4404c2d21aedbb24691e7cb" target="_top" xlink:title=" ">
<polygon fill="white" stroke="black" points="1090,-237.5 1090,-256.5 1200,-256.5 1200,-237.5 1090,-237.5"/>
<text text-anchor="middle" x="1145" y="-244.5" font-family="Helvetica,sans-Serif" font-size="10.00">console::out::putChar</text>
</a>
</g>
</g>
<!-- Node12&#45;&gt;Node19 -->
<g id="edge29" class="edge">
<title>Node12&#45;&gt;Node19</title>
<path fill="none" stroke="midnightblue" d="M736.11,-305.28C808.32,-306 942.52,-303.54 1054,-280 1074.42,-275.69 1096.43,-267.68 1113.57,-260.64"/>
<polygon fill="midnightblue" stroke="midnightblue" points="1115.2,-263.75 1123.05,-256.64 1112.48,-257.3 1115.2,-263.75"/>
</g>
<!-- Node13&#45;&gt;Node9 -->
<g id="edge15" class="edge">
<title>Node13&#45;&gt;Node9</title>
<path fill="none" stroke="midnightblue" d="M839.18,-180.28C852.55,-160.21 886.36,-114.43 928,-95 1015.33,-54.25 1047.63,-76 1144,-76 1144,-76 1144,-76 1297,-76 1390.63,-76 1500.76,-76 1557.65,-76"/>
<polygon fill="midnightblue" stroke="midnightblue" points="1557.97,-79.5 1567.97,-76 1557.97,-72.5 1557.97,-79.5"/>
</g>
<!-- Node14 -->
<g id="node14" class="node">
<title>Node14</title>
<g id="a_node14"><a xlink:href="printfmt_8cc.html#a708ec6ee2b8bd2d7a453d8d9436ed3b3" target="_top" xlink:title=" ">
<polygon fill="white" stroke="black" points="962,-142.5 962,-161.5 1020,-161.5 1020,-142.5 962,-142.5"/>
<text text-anchor="middle" x="991" y="-149.5" font-family="Helvetica,sans-Serif" font-size="10.00">_getIntVa</text>
</a>
</g>
</g>
<!-- Node13&#45;&gt;Node14 -->
<g id="edge13" class="edge">
<title>Node13&#45;&gt;Node14</title>
<path fill="none" stroke="midnightblue" d="M872.62,-180.41C896.94,-174.52 927.92,-167.02 951.95,-161.21"/>
<polygon fill="midnightblue" stroke="midnightblue" points="952.89,-164.58 961.78,-158.83 951.24,-157.78 952.89,-164.58"/>
</g>
<!-- Node15 -->
<g id="node15" class="node">
<title>Node15</title>
<g id="a_node15"><a xlink:href="printfmt_8cc.html#af4b46892c76c8bfd27efdb20847eb7c8" target="_top" xlink:title=" ">
<polygon fill="white" stroke="black" points="958.5,-104.5 958.5,-123.5 1023.5,-123.5 1023.5,-104.5 958.5,-104.5"/>
<text text-anchor="middle" x="991" y="-111.5" font-family="Helvetica,sans-Serif" font-size="10.00">_getUIntVa</text>
</a>
</g>
</g>
<!-- Node13&#45;&gt;Node15 -->
<g id="edge14" class="edge">
<title>Node13&#45;&gt;Node15</title>
<path fill="none" stroke="midnightblue" d="M846.59,-180.39C864.53,-168.05 897.43,-146.61 928,-133 934.43,-130.14 941.41,-127.54 948.29,-125.25"/>
<polygon fill="midnightblue" stroke="midnightblue" points="949.75,-128.46 958.23,-122.12 947.65,-121.79 949.75,-128.46"/>
</g>
<!-- Node16 -->
<g id="node16" class="node">
<title>Node16</title>
<g id="a_node16"><a xlink:href="printfmt_8cc.html#a0e3e484ece5e75b9f5fbe337f0ae8ae3" target="_top" xlink:title=" ">
<polygon fill="white" stroke="black" points="964.5,-28.5 964.5,-47.5 1017.5,-47.5 1017.5,-28.5 964.5,-28.5"/>
<text text-anchor="middle" x="991" y="-35.5" font-family="Helvetica,sans-Serif" font-size="10.00">describe</text>
</a>
</g>
</g>
<!-- Node13&#45;&gt;Node16 -->
<g id="edge16" class="edge">
<title>Node13&#45;&gt;Node16</title>
<path fill="none" stroke="midnightblue" d="M840.81,-180.29C852.27,-165.97 874.22,-138.24 892,-114 908.62,-91.33 905.92,-79.4 928,-62 935.87,-55.8 945.54,-51.04 954.87,-47.46"/>
<polygon fill="midnightblue" stroke="midnightblue" points="956.1,-50.74 964.4,-44.15 953.8,-44.13 956.1,-50.74"/>
</g>
<!-- Node18 -->
<g id="node18" class="node">
<title>Node18</title>
<g id="a_node18"><a xlink:href="namespaceconsole_1_1ge.html#a7e301813fd34fde772376afc5fdad95d" target="_top" xlink:title=" ">
<polygon fill="white" stroke="black" points="928,-218.5 928,-237.5 1054,-237.5 1054,-218.5 928,-218.5"/>
<text text-anchor="middle" x="991" y="-225.5" font-family="Helvetica,sans-Serif" font-size="10.00">console::ge::printNumber</text>
</a>
</g>
</g>
<!-- Node13&#45;&gt;Node18 -->
<g id="edge18" class="edge">
<title>Node13&#45;&gt;Node18</title>
<path fill="none" stroke="midnightblue" d="M872.62,-199.59C893.34,-204.6 918.89,-210.79 940.86,-216.11"/>
<polygon fill="midnightblue" stroke="midnightblue" points="940.12,-219.53 950.67,-218.48 941.77,-212.73 940.12,-219.53"/>
</g>
<!-- Node13&#45;&gt;Node19 -->
<g id="edge28" class="edge">
<title>Node13&#45;&gt;Node19</title>
<path fill="none" stroke="midnightblue" d="M892.45,-190.09C937.41,-191.36 1000.36,-195.72 1054,-209 1075.95,-214.43 1099.44,-224.51 1116.92,-232.93"/>
<polygon fill="midnightblue" stroke="midnightblue" points="1115.45,-236.1 1125.97,-237.39 1118.55,-229.82 1115.45,-236.1"/>
</g>
<!-- Node17 -->
<g id="node17" class="node">
<title>Node17</title>
<g id="a_node17"><a xlink:href="namespacemonitor.html#a318993193c866642f8389a1c1f285739" target="_top" xlink:title=" ">
<polygon fill="white" stroke="black" points="1108,-28.5 1108,-47.5 1182,-47.5 1182,-28.5 1108,-28.5"/>
<text text-anchor="middle" x="1145" y="-35.5" font-family="Helvetica,sans-Serif" font-size="10.00">monitor::fuck</text>
</a>
</g>
</g>
<!-- Node16&#45;&gt;Node17 -->
<g id="edge17" class="edge">
<title>Node16&#45;&gt;Node17</title>
<path fill="none" stroke="midnightblue" d="M1017.78,-38C1039.62,-38 1071.46,-38 1097.7,-38"/>
<polygon fill="midnightblue" stroke="midnightblue" points="1097.82,-41.5 1107.82,-38 1097.82,-34.5 1097.82,-41.5"/>
</g>
<!-- Node18&#45;&gt;Node19 -->
<g id="edge19" class="edge">
<title>Node18&#45;&gt;Node19</title>
<path fill="none" stroke="midnightblue" d="M1054.26,-235.78C1062.66,-236.83 1071.28,-237.91 1079.71,-238.96"/>
<polygon fill="midnightblue" stroke="midnightblue" points="1079.51,-242.47 1089.86,-240.23 1080.37,-235.52 1079.51,-242.47"/>
</g>
<!-- Node20 -->
<g id="node20" class="node">
<title>Node20</title>
<g id="a_node20"><a xlink:href="namespaceconsole_1_1serial.html#a3a7c1f95ae3c24136ea63bb31fdf0391" target="_top" xlink:title=" ">
<polygon fill="white" stroke="black" points="1236,-237.5 1236,-256.5 1356,-256.5 1356,-237.5 1236,-237.5"/>
<text text-anchor="middle" x="1296" y="-244.5" font-family="Helvetica,sans-Serif" font-size="10.00">console::serial::putChar</text>
</a>
</g>
</g>
<!-- Node19&#45;&gt;Node20 -->
<g id="edge20" class="edge">
<title>Node19&#45;&gt;Node20</title>
<path fill="none" stroke="midnightblue" d="M1200.21,-247C1208.53,-247 1217.2,-247 1225.79,-247"/>
<polygon fill="midnightblue" stroke="midnightblue" points="1225.79,-250.5 1235.79,-247 1225.79,-243.5 1225.79,-250.5"/>
</g>
<!-- Node23 -->
<g id="node23" class="node">
<title>Node23</title>
<g id="a_node23"><a xlink:href="namespaceconsole_1_1cga.html#afa19057ca041b39682d5d4831c43dfa0" target="_top" xlink:title=" ">
<polygon fill="white" stroke="black" points="1239.5,-199.5 1239.5,-218.5 1352.5,-218.5 1352.5,-199.5 1239.5,-199.5"/>
<text text-anchor="middle" x="1296" y="-206.5" font-family="Helvetica,sans-Serif" font-size="10.00">console::cga::putChar</text>
</a>
</g>
</g>
<!-- Node19&#45;&gt;Node23 -->
<g id="edge23" class="edge">
<title>Node19&#45;&gt;Node23</title>
<path fill="none" stroke="midnightblue" d="M1183.6,-237.41C1203.08,-232.44 1227.07,-226.32 1247.8,-221.04"/>
<polygon fill="midnightblue" stroke="midnightblue" points="1248.85,-224.38 1257.67,-218.52 1247.12,-217.6 1248.85,-224.38"/>
</g>
<!-- Node21 -->
<g id="node21" class="node">
<title>Node21</title>
<g id="a_node21"><a xlink:href="namespaceconsole_1_1serial.html#aa5605d4537106bb1c2bab72d7d1a5824" target="_top" xlink:title=" ">
<polygon fill="white" stroke="black" points="1410,-237.5 1410,-256.5 1514,-256.5 1514,-237.5 1410,-237.5"/>
<text text-anchor="middle" x="1462" y="-244.5" font-family="Helvetica,sans-Serif" font-size="10.00">console::serial::sout</text>
</a>
</g>
</g>
<!-- Node20&#45;&gt;Node21 -->
<g id="edge21" class="edge">
<title>Node20&#45;&gt;Node21</title>
<path fill="none" stroke="midnightblue" d="M1356.21,-247C1370.31,-247 1385.39,-247 1399.59,-247"/>
<polygon fill="midnightblue" stroke="midnightblue" points="1399.74,-250.5 1409.74,-247 1399.74,-243.5 1399.74,-250.5"/>
</g>
<!-- Node22 -->
<g id="node22" class="node">
<title>Node22</title>
<g id="a_node22"><a xlink:href="x86_8h.html#ade961b44e45ddacbc3c3b7609cf36dc6" target="_top" xlink:title=" ">
<polygon fill="white" stroke="black" points="1579.5,-218.5 1579.5,-237.5 1614.5,-237.5 1614.5,-218.5 1579.5,-218.5"/>
<text text-anchor="middle" x="1597" y="-225.5" font-family="Helvetica,sans-Serif" font-size="10.00">outb</text>
</a>
</g>
</g>
<!-- Node21&#45;&gt;Node22 -->
<g id="edge22" class="edge">
<title>Node21&#45;&gt;Node22</title>
<path fill="none" stroke="midnightblue" d="M1514.04,-239.71C1532.85,-237.02 1553.4,-234.09 1569.22,-231.83"/>
<polygon fill="midnightblue" stroke="midnightblue" points="1569.94,-235.26 1579.34,-230.38 1568.95,-228.33 1569.94,-235.26"/>
</g>
<!-- Node24 -->
<g id="node24" class="node">
<title>Node24</title>
<g id="a_node24"><a xlink:href="namespacemem.html#a64d9d05b439041901498c606de606431" target="_top" xlink:title=" ">
<polygon fill="white" stroke="black" points="1429.5,-142.5 1429.5,-161.5 1494.5,-161.5 1494.5,-142.5 1429.5,-142.5"/>
<text text-anchor="middle" x="1462" y="-149.5" font-family="Helvetica,sans-Serif" font-size="10.00">mem::copy</text>
</a>
</g>
</g>
<!-- Node23&#45;&gt;Node24 -->
<g id="edge24" class="edge">
<title>Node23&#45;&gt;Node24</title>
<path fill="none" stroke="midnightblue" d="M1324.45,-199.46C1351.65,-190.01 1393.5,-175.46 1423.7,-164.96"/>
<polygon fill="midnightblue" stroke="midnightblue" points="1425.16,-168.16 1433.46,-161.57 1422.87,-161.55 1425.16,-168.16"/>
</g>
<!-- Node25 -->
<g id="node25" class="node">
<title>Node25</title>
<g id="a_node25"><a xlink:href="namespaceconsole_1_1cga.html#a06463d4dc68819e30615ba299d02a78f" target="_top" xlink:title=" ">
<polygon fill="white" stroke="black" points="1392,-199.5 1392,-218.5 1532,-218.5 1532,-199.5 1392,-199.5"/>
<text text-anchor="middle" x="1462" y="-206.5" font-family="Helvetica,sans-Serif" font-size="10.00">console::cga::cursorRefresh</text>
</a>
</g>
</g>
<!-- Node23&#45;&gt;Node25 -->
<g id="edge26" class="edge">
<title>Node23&#45;&gt;Node25</title>
<path fill="none" stroke="midnightblue" d="M1352.52,-209C1361.9,-209 1371.8,-209 1381.65,-209"/>
<polygon fill="midnightblue" stroke="midnightblue" points="1381.87,-212.5 1391.87,-209 1381.87,-205.5 1381.87,-212.5"/>
</g>
<!-- Node24&#45;&gt;Node9 -->
<g id="edge25" class="edge">
<title>Node24&#45;&gt;Node9</title>
<path fill="none" stroke="midnightblue" d="M1479.84,-142.37C1502.73,-129.3 1543.84,-105.8 1570.51,-90.56"/>
<polygon fill="midnightblue" stroke="midnightblue" points="1572.35,-93.55 1579.29,-85.55 1568.87,-87.47 1572.35,-93.55"/>
</g>
<!-- Node25&#45;&gt;Node22 -->
<g id="edge27" class="edge">
<title>Node25&#45;&gt;Node22</title>
<path fill="none" stroke="midnightblue" d="M1529.89,-218.56C1543.81,-220.54 1557.71,-222.53 1569.15,-224.16"/>
<polygon fill="midnightblue" stroke="midnightblue" points="1568.88,-227.66 1579.28,-225.61 1569.87,-220.73 1568.88,-227.66"/>
</g>
<!-- Node27 -->
<g id="node27" class="node">
<title>Node27</title>
<g id="a_node27"><a xlink:href="namespaceconsole_1_1err.html#a4cd18e4c409b5b17ecec61ce83b05fba" target="_top" xlink:title=" ">
<polygon fill="white" stroke="black" points="631,-180.5 631,-199.5 735,-199.5 735,-180.5 631,-180.5"/>
<text text-anchor="middle" x="683" y="-187.5" font-family="Helvetica,sans-Serif" font-size="10.00">console::err::printVa</text>
</a>
</g>
</g>
<!-- Node26&#45;&gt;Node27 -->
<g id="edge31" class="edge">
<title>Node26&#45;&gt;Node27</title>
<path fill="none" stroke="midnightblue" d="M437.31,-190C486.55,-190 565.51,-190 620.36,-190"/>
<polygon fill="midnightblue" stroke="midnightblue" points="620.65,-193.5 630.65,-190 620.65,-186.5 620.65,-193.5"/>
</g>
<!-- Node27&#45;&gt;Node13 -->
<g id="edge32" class="edge">
<title>Node27&#45;&gt;Node13</title>
<path fill="none" stroke="midnightblue" d="M735,-190C743.62,-190 752.69,-190 761.68,-190"/>
<polygon fill="midnightblue" stroke="midnightblue" points="761.76,-193.5 771.76,-190 761.76,-186.5 761.76,-193.5"/>
</g>
<!-- Node27&#45;&gt;Node19 -->
<g id="edge33" class="edge">
<title>Node27&#45;&gt;Node19</title>
<path fill="none" stroke="midnightblue" d="M714.8,-199.6C760.69,-213.36 850,-238.01 928,-247 978.7,-252.84 1036.54,-252.47 1079.59,-250.85"/>
<polygon fill="midnightblue" stroke="midnightblue" points="1079.81,-254.34 1089.65,-250.43 1079.52,-247.35 1079.81,-254.34"/>
</g>
<!-- Node29 -->
<g id="node29" class="node">
<title>Node29</title>
<g id="a_node29"><a xlink:href="namespaceconsole_1_1in.html#ac28354dad0498aa6bb0c178b10d62c8a" target="_top" xlink:title=" ">
<polygon fill="white" stroke="black" points="479,-332.5 479,-351.5 594,-351.5 594,-332.5 479,-332.5"/>
<text text-anchor="middle" x="536.5" y="-339.5" font-family="Helvetica,sans-Serif" font-size="10.00">console::in::readlineVa</text>
</a>
</g>
</g>
<!-- Node28&#45;&gt;Node29 -->
<g id="edge35" class="edge">
<title>Node28&#45;&gt;Node29</title>
<path fill="none" stroke="midnightblue" d="M420.74,-275.59C428.12,-278.35 435.95,-281.56 443,-285 468.08,-297.25 495.08,-314.39 513.39,-326.67"/>
<polygon fill="midnightblue" stroke="midnightblue" points="511.64,-329.71 521.88,-332.43 515.57,-323.92 511.64,-329.71"/>
</g>
<!-- Node29&#45;&gt;Node12 -->
<g id="edge37" class="edge">
<title>Node29&#45;&gt;Node12</title>
<path fill="none" stroke="midnightblue" d="M573.96,-332.41C592.77,-327.46 615.91,-321.38 635.95,-316.11"/>
<polygon fill="midnightblue" stroke="midnightblue" points="637.02,-319.45 645.8,-313.52 635.24,-312.68 637.02,-319.45"/>
</g>
<!-- Node29&#45;&gt;Node19 -->
<g id="edge38" class="edge">
<title>Node29&#45;&gt;Node19</title>
<path fill="none" stroke="midnightblue" d="M594.27,-346.35C691.28,-351.88 893.95,-355.12 1054,-302 1080.2,-293.31 1106.74,-275.78 1124.15,-262.84"/>
<polygon fill="midnightblue" stroke="midnightblue" points="1126.54,-265.42 1132.37,-256.56 1122.29,-259.85 1126.54,-265.42"/>
</g>
<!-- Node30 -->
<g id="node30" class="node">
<title>Node30</title>
<g id="a_node30"><a xlink:href="namespaceconsole_1_1in.html#a6fc069f2bc57fda183e3b991c31ec5a7" target="_top" xlink:title=" ">
<polygon fill="white" stroke="black" points="631,-370.5 631,-389.5 735,-389.5 735,-370.5 631,-370.5"/>
<text text-anchor="middle" x="683" y="-377.5" font-family="Helvetica,sans-Serif" font-size="10.00">console::in::getChar</text>
</a>
</g>
</g>
<!-- Node29&#45;&gt;Node30 -->
<g id="edge36" class="edge">
<title>Node29&#45;&gt;Node30</title>
<path fill="none" stroke="midnightblue" d="M573.96,-351.59C592.77,-356.54 615.91,-362.62 635.95,-367.89"/>
<polygon fill="midnightblue" stroke="midnightblue" points="635.24,-371.32 645.8,-370.48 637.02,-364.55 635.24,-371.32"/>
</g>
<!-- Node32 -->
<g id="node32" class="node">
<title>Node32</title>
<g id="a_node32"><a xlink:href="x86_8h.html#a3a83060064855a2a5ab203a164d2d47e" target="_top" xlink:title=" ">
<polygon fill="white" stroke="black" points="250.5,-161.5 250.5,-180.5 279.5,-180.5 279.5,-161.5 250.5,-161.5"/>
<text text-anchor="middle" x="265" y="-168.5" font-family="Helvetica,sans-Serif" font-size="10.00">lidt</text>
</a>
</g>
</g>
<!-- Node31&#45;&gt;Node32 -->
<g id="edge41" class="edge">
<title>Node31&#45;&gt;Node32</title>
<path fill="none" stroke="midnightblue" d="M167.75,-218.46C175.35,-215.61 183.57,-212.34 191,-209 207.5,-201.58 210.95,-198.35 227,-190 231.56,-187.62 236.45,-185.1 241.13,-182.69"/>
<polygon fill="midnightblue" stroke="midnightblue" points="242.98,-185.68 250.28,-178 239.78,-179.45 242.98,-185.68"/>
</g>
<!-- Node33 -->
<g id="node33" class="node">
<title>Node33</title>
<g id="a_node33"><a xlink:href="x86_8h.html#a6b866857c06dcdcbf81ac93c9f6d78f8" target="_top" xlink:title=" ">
<polygon fill="white" stroke="black" points="250.5,-199.5 250.5,-218.5 279.5,-218.5 279.5,-199.5 250.5,-199.5"/>
<text text-anchor="middle" x="265" y="-206.5" font-family="Helvetica,sans-Serif" font-size="10.00">ltr</text>
</a>
</g>
</g>
<!-- Node31&#45;&gt;Node33 -->
<g id="edge42" class="edge">
<title>Node31&#45;&gt;Node33</title>
<path fill="none" stroke="midnightblue" d="M182.31,-221.57C201.53,-218.61 223.63,-215.21 240,-212.69"/>
<polygon fill="midnightblue" stroke="midnightblue" points="240.95,-216.09 250.3,-211.11 239.89,-209.17 240.95,-216.09"/>
</g>
</g>
</svg>
