<?xml version="1.0" encoding="UTF-8" standalone="no"?>
<!DOCTYPE svg PUBLIC "-//W3C//DTD SVG 1.1//EN"
 "http://www.w3.org/Graphics/SVG/1.1/DTD/svg11.dtd">
<!-- Generated by graphviz version 2.44.1 (20200629.0846)
 -->
<!-- Title: vmem::pgdir::alloc Pages: 1 -->
<svg width="419pt" height="85pt"
 viewBox="0.00 0.00 419.00 85.00" xmlns="http://www.w3.org/2000/svg" xmlns:xlink="http://www.w3.org/1999/xlink">
<g id="graph0" class="graph" transform="scale(1 1) rotate(0) translate(4 81)">
<title>vmem::pgdir::alloc</title>
<polygon fill="white" stroke="transparent" points="-4,4 -4,-81 415,-81 415,4 -4,4"/>
<!-- Node1 -->
<g id="node1" class="node">
<title>Node1</title>
<g id="a_node1"><a xlink:title=" ">
<polygon fill="#bfbfbf" stroke="black" points="0,-38.5 0,-57.5 97,-57.5 97,-38.5 0,-38.5"/>
<text text-anchor="middle" x="48.5" y="-45.5" font-family="Helvetica,sans-Serif" font-size="10.00">vmem::pgdir::alloc</text>
</a>
</g>
</g>
<!-- Node2 -->
<g id="node2" class="node">
<title>Node2</title>
<g id="a_node2"><a xlink:href="namespacevmem.html#aba25132214a42a641dafb1b21a1ce2db" target="_top" xlink:title=" ">
<polygon fill="white" stroke="black" points="133,-57.5 133,-76.5 223,-76.5 223,-57.5 133,-57.5"/>
<text text-anchor="middle" x="178" y="-64.5" font-family="Helvetica,sans-Serif" font-size="10.00">vmem::bootAlloc</text>
</a>
</g>
</g>
<!-- Node1&#45;&gt;Node2 -->
<g id="edge1" class="edge">
<title>Node1&#45;&gt;Node2</title>
<path fill="none" stroke="midnightblue" d="M97.34,-55.13C105.58,-56.36 114.2,-57.64 122.59,-58.89"/>
<polygon fill="midnightblue" stroke="midnightblue" points="122.28,-62.38 132.68,-60.4 123.31,-55.46 122.28,-62.38"/>
</g>
<!-- Node3 -->
<g id="node3" class="node">
<title>Node3</title>
<g id="a_node3"><a xlink:href="namespacemem.html#a981dd0cb1408b798a79443c6245e9c55" target="_top" xlink:title=" ">
<polygon fill="white" stroke="black" points="145.5,-19.5 145.5,-38.5 210.5,-38.5 210.5,-19.5 145.5,-19.5"/>
<text text-anchor="middle" x="178" y="-26.5" font-family="Helvetica,sans-Serif" font-size="10.00">mem::clear</text>
</a>
</g>
</g>
<!-- Node1&#45;&gt;Node3 -->
<g id="edge2" class="edge">
<title>Node1&#45;&gt;Node3</title>
<path fill="none" stroke="midnightblue" d="M97.34,-40.87C109.69,-39.03 122.89,-37.06 134.93,-35.27"/>
<polygon fill="midnightblue" stroke="midnightblue" points="135.77,-38.68 145.15,-33.75 134.74,-31.76 135.77,-38.68"/>
</g>
<!-- Node4 -->
<g id="node4" class="node">
<title>Node4</title>
<g id="a_node4"><a xlink:href="namespacestr.html#a062221f630647cf300f0dd982c4ed904" target="_top" xlink:title=" ">
<polygon fill="white" stroke="black" points="353,-19.5 353,-38.5 411,-38.5 411,-19.5 353,-19.5"/>
<text text-anchor="middle" x="382" y="-26.5" font-family="Helvetica,sans-Serif" font-size="10.00">str::count</text>
</a>
</g>
</g>
<!-- Node3&#45;&gt;Node4 -->
<g id="edge3" class="edge">
<title>Node3&#45;&gt;Node4</title>
<path fill="none" stroke="midnightblue" d="M210.56,-29C246.26,-29 304.4,-29 342.68,-29"/>
<polygon fill="midnightblue" stroke="midnightblue" points="342.91,-32.5 352.91,-29 342.91,-25.5 342.91,-32.5"/>
</g>
<!-- Node5 -->
<g id="node5" class="node">
<title>Node5</title>
<g id="a_node5"><a xlink:href="namespacemem.html#adbaba9127c03fb914f752bfe19d6d089" target="_top" xlink:title=" ">
<polygon fill="white" stroke="black" points="259,-0.5 259,-19.5 317,-19.5 317,-0.5 259,-0.5"/>
<text text-anchor="middle" x="288" y="-7.5" font-family="Helvetica,sans-Serif" font-size="10.00">mem::set</text>
</a>
</g>
</g>
<!-- Node3&#45;&gt;Node5 -->
<g id="edge4" class="edge">
<title>Node3&#45;&gt;Node5</title>
<path fill="none" stroke="midnightblue" d="M210.53,-23.45C222.49,-21.35 236.25,-18.93 248.77,-16.73"/>
<polygon fill="midnightblue" stroke="midnightblue" points="249.68,-20.12 258.93,-14.94 248.47,-13.22 249.68,-20.12"/>
</g>
<!-- Node5&#45;&gt;Node4 -->
<g id="edge5" class="edge">
<title>Node5&#45;&gt;Node4</title>
<path fill="none" stroke="midnightblue" d="M317.1,-15.8C325.23,-17.48 334.24,-19.34 342.87,-21.13"/>
<polygon fill="midnightblue" stroke="midnightblue" points="342.25,-24.57 352.75,-23.17 343.67,-17.72 342.25,-24.57"/>
</g>
</g>
</svg>
