<?xml version="1.0" encoding="UTF-8" standalone="no"?>
<!DOCTYPE svg PUBLIC "-//W3C//DTD SVG 1.1//EN"
 "http://www.w3.org/Graphics/SVG/1.1/DTD/svg11.dtd">
<!-- Generated by graphviz version 2.44.1 (20200629.0846)
 -->
<!-- Title: console::err::printVa Pages: 1 -->
<svg width="1002pt" height="204pt"
 viewBox="0.00 0.00 1002.00 203.67" xmlns="http://www.w3.org/2000/svg" xmlns:xlink="http://www.w3.org/1999/xlink">
<g id="graph0" class="graph" transform="scale(1 1) rotate(0) translate(4 199.67)">
<title>console::err::printVa</title>
<polygon fill="white" stroke="transparent" points="-4,4 -4,-199.67 998,-199.67 998,4 -4,4"/>
<!-- Node1 -->
<g id="node1" class="node">
<title>Node1</title>
<g id="a_node1"><a xlink:title=" ">
<polygon fill="#bfbfbf" stroke="black" points="0,-9.3 0,-28.3 104,-28.3 104,-9.3 0,-9.3"/>
<text text-anchor="middle" x="52" y="-16.3" font-family="Helvetica,sans-Serif" font-size="10.00">console::err::printVa</text>
</a>
</g>
</g>
<!-- Node2 -->
<g id="node2" class="node">
<title>Node2</title>
<g id="a_node2"><a xlink:href="namespaceconsole_1_1ge.html#af642934cb833142f133285fdb75ef7b7" target="_top" xlink:title=" ">
<polygon fill="white" stroke="black" points="140,-66.3 140,-85.3 260,-85.3 260,-66.3 140,-66.3"/>
<text text-anchor="middle" x="200" y="-73.3" font-family="Helvetica,sans-Serif" font-size="10.00">console::ge::printFmtVa</text>
</a>
</g>
</g>
<!-- Node1&#45;&gt;Node2 -->
<g id="edge1" class="edge">
<title>Node1&#45;&gt;Node2</title>
<path fill="none" stroke="midnightblue" d="M77.44,-28.34C101.44,-37.71 138.26,-52.09 165.09,-62.56"/>
<polygon fill="midnightblue" stroke="midnightblue" points="163.9,-65.85 174.48,-66.23 166.44,-59.33 163.9,-65.85"/>
</g>
<!-- Node9 -->
<g id="node9" class="node">
<title>Node9</title>
<g id="a_node9"><a xlink:href="namespaceconsole_1_1out.html#ad9fc97dff4404c2d21aedbb24691e7cb" target="_top" xlink:title=" ">
<polygon fill="white" stroke="black" points="458,-9.3 458,-28.3 568,-28.3 568,-9.3 458,-9.3"/>
<text text-anchor="middle" x="513" y="-16.3" font-family="Helvetica,sans-Serif" font-size="10.00">console::out::putChar</text>
</a>
</g>
</g>
<!-- Node1&#45;&gt;Node9 -->
<g id="edge18" class="edge">
<title>Node1&#45;&gt;Node9</title>
<path fill="none" stroke="midnightblue" d="M104.12,-12.76C175.42,-5.23 308.74,5.57 422,-3.8 432.29,-4.65 443.17,-6.04 453.68,-7.64"/>
<polygon fill="midnightblue" stroke="midnightblue" points="453.18,-11.11 463.61,-9.23 454.28,-4.2 453.18,-11.11"/>
</g>
<!-- Node3 -->
<g id="node3" class="node">
<title>Node3</title>
<g id="a_node3"><a xlink:href="printfmt_8cc.html#a708ec6ee2b8bd2d7a453d8d9436ed3b3" target="_top" xlink:title=" ">
<polygon fill="white" stroke="black" points="330,-142.3 330,-161.3 388,-161.3 388,-142.3 330,-142.3"/>
<text text-anchor="middle" x="359" y="-149.3" font-family="Helvetica,sans-Serif" font-size="10.00">_getIntVa</text>
</a>
</g>
</g>
<!-- Node2&#45;&gt;Node3 -->
<g id="edge2" class="edge">
<title>Node2&#45;&gt;Node3</title>
<path fill="none" stroke="midnightblue" d="M214.59,-85.41C232.53,-97.75 265.43,-119.19 296,-132.8 303.6,-136.19 311.99,-139.2 320.07,-141.78"/>
<polygon fill="midnightblue" stroke="midnightblue" points="319.11,-145.15 329.7,-144.7 321.14,-138.45 319.11,-145.15"/>
</g>
<!-- Node4 -->
<g id="node4" class="node">
<title>Node4</title>
<g id="a_node4"><a xlink:href="printfmt_8cc.html#af4b46892c76c8bfd27efdb20847eb7c8" target="_top" xlink:title=" ">
<polygon fill="white" stroke="black" points="326.5,-104.3 326.5,-123.3 391.5,-123.3 391.5,-104.3 326.5,-104.3"/>
<text text-anchor="middle" x="359" y="-111.3" font-family="Helvetica,sans-Serif" font-size="10.00">_getUIntVa</text>
</a>
</g>
</g>
<!-- Node2&#45;&gt;Node4 -->
<g id="edge3" class="edge">
<title>Node2&#45;&gt;Node4</title>
<path fill="none" stroke="midnightblue" d="M240.62,-85.39C263.72,-90.98 292.84,-98.03 316.3,-103.71"/>
<polygon fill="midnightblue" stroke="midnightblue" points="315.76,-107.18 326.3,-106.13 317.4,-100.38 315.76,-107.18"/>
</g>
<!-- Node5 -->
<g id="node5" class="node">
<title>Node5</title>
<g id="a_node5"><a xlink:href="namespacestr.html#a062221f630647cf300f0dd982c4ed904" target="_top" xlink:title=" ">
<polygon fill="white" stroke="black" points="936,-99.3 936,-118.3 994,-118.3 994,-99.3 936,-99.3"/>
<text text-anchor="middle" x="965" y="-106.3" font-family="Helvetica,sans-Serif" font-size="10.00">str::count</text>
</a>
</g>
</g>
<!-- Node2&#45;&gt;Node5 -->
<g id="edge4" class="edge">
<title>Node2&#45;&gt;Node5</title>
<path fill="none" stroke="midnightblue" d="M207.18,-85.52C220.55,-105.59 254.36,-151.37 296,-170.8 383.33,-211.55 415.63,-189.8 512,-189.8 512,-189.8 512,-189.8 665,-189.8 766.55,-189.8 880.97,-145.73 934.02,-122.61"/>
<polygon fill="midnightblue" stroke="midnightblue" points="935.77,-125.66 943.5,-118.41 932.93,-119.26 935.77,-125.66"/>
</g>
<!-- Node6 -->
<g id="node6" class="node">
<title>Node6</title>
<g id="a_node6"><a xlink:href="printfmt_8cc.html#a0e3e484ece5e75b9f5fbe337f0ae8ae3" target="_top" xlink:title=" ">
<polygon fill="white" stroke="black" points="332.5,-66.3 332.5,-85.3 385.5,-85.3 385.5,-66.3 332.5,-66.3"/>
<text text-anchor="middle" x="359" y="-73.3" font-family="Helvetica,sans-Serif" font-size="10.00">describe</text>
</a>
</g>
</g>
<!-- Node2&#45;&gt;Node6 -->
<g id="edge5" class="edge">
<title>Node2&#45;&gt;Node6</title>
<path fill="none" stroke="midnightblue" d="M260.35,-75.8C281.12,-75.8 303.78,-75.8 322.04,-75.8"/>
<polygon fill="midnightblue" stroke="midnightblue" points="322.24,-79.3 332.24,-75.8 322.24,-72.3 322.24,-79.3"/>
</g>
<!-- Node8 -->
<g id="node8" class="node">
<title>Node8</title>
<g id="a_node8"><a xlink:href="namespaceconsole_1_1ge.html#a7e301813fd34fde772376afc5fdad95d" target="_top" xlink:title=" ">
<polygon fill="white" stroke="black" points="296,-28.3 296,-47.3 422,-47.3 422,-28.3 296,-28.3"/>
<text text-anchor="middle" x="359" y="-35.3" font-family="Helvetica,sans-Serif" font-size="10.00">console::ge::printNumber</text>
</a>
</g>
</g>
<!-- Node2&#45;&gt;Node8 -->
<g id="edge7" class="edge">
<title>Node2&#45;&gt;Node8</title>
<path fill="none" stroke="midnightblue" d="M240.62,-66.21C261.34,-61.2 286.89,-55.01 308.86,-49.7"/>
<polygon fill="midnightblue" stroke="midnightblue" points="309.77,-53.08 318.67,-47.32 308.12,-46.27 309.77,-53.08"/>
</g>
<!-- Node2&#45;&gt;Node9 -->
<g id="edge17" class="edge">
<title>Node2&#45;&gt;Node9</title>
<path fill="none" stroke="midnightblue" d="M212.33,-66.16C229.22,-52.47 262.63,-28.04 296,-18.8 345.52,-5.09 403.9,-6.05 447.48,-9.91"/>
<polygon fill="midnightblue" stroke="midnightblue" points="447.38,-13.42 457.66,-10.89 448.05,-6.45 447.38,-13.42"/>
</g>
<!-- Node7 -->
<g id="node7" class="node">
<title>Node7</title>
<g id="a_node7"><a xlink:href="namespacemonitor.html#a318993193c866642f8389a1c1f285739" target="_top" xlink:title=" ">
<polygon fill="white" stroke="black" points="476,-66.3 476,-85.3 550,-85.3 550,-66.3 476,-66.3"/>
<text text-anchor="middle" x="513" y="-73.3" font-family="Helvetica,sans-Serif" font-size="10.00">monitor::fuck</text>
</a>
</g>
</g>
<!-- Node6&#45;&gt;Node7 -->
<g id="edge6" class="edge">
<title>Node6&#45;&gt;Node7</title>
<path fill="none" stroke="midnightblue" d="M385.78,-75.8C407.62,-75.8 439.46,-75.8 465.7,-75.8"/>
<polygon fill="midnightblue" stroke="midnightblue" points="465.82,-79.3 475.82,-75.8 465.82,-72.3 465.82,-79.3"/>
</g>
<!-- Node8&#45;&gt;Node9 -->
<g id="edge8" class="edge">
<title>Node8&#45;&gt;Node9</title>
<path fill="none" stroke="midnightblue" d="M422.26,-30.02C430.66,-28.97 439.28,-27.89 447.71,-26.84"/>
<polygon fill="midnightblue" stroke="midnightblue" points="448.37,-30.28 457.86,-25.57 447.51,-23.34 448.37,-30.28"/>
</g>
<!-- Node10 -->
<g id="node10" class="node">
<title>Node10</title>
<g id="a_node10"><a xlink:href="namespaceconsole_1_1serial.html#a3a7c1f95ae3c24136ea63bb31fdf0391" target="_top" xlink:title=" ">
<polygon fill="white" stroke="black" points="604,-9.3 604,-28.3 724,-28.3 724,-9.3 604,-9.3"/>
<text text-anchor="middle" x="664" y="-16.3" font-family="Helvetica,sans-Serif" font-size="10.00">console::serial::putChar</text>
</a>
</g>
</g>
<!-- Node9&#45;&gt;Node10 -->
<g id="edge9" class="edge">
<title>Node9&#45;&gt;Node10</title>
<path fill="none" stroke="midnightblue" d="M568.21,-18.8C576.53,-18.8 585.2,-18.8 593.79,-18.8"/>
<polygon fill="midnightblue" stroke="midnightblue" points="593.79,-22.3 603.79,-18.8 593.79,-15.3 593.79,-22.3"/>
</g>
<!-- Node13 -->
<g id="node13" class="node">
<title>Node13</title>
<g id="a_node13"><a xlink:href="namespaceconsole_1_1cga.html#afa19057ca041b39682d5d4831c43dfa0" target="_top" xlink:title=" ">
<polygon fill="white" stroke="black" points="607.5,-47.3 607.5,-66.3 720.5,-66.3 720.5,-47.3 607.5,-47.3"/>
<text text-anchor="middle" x="664" y="-54.3" font-family="Helvetica,sans-Serif" font-size="10.00">console::cga::putChar</text>
</a>
</g>
</g>
<!-- Node9&#45;&gt;Node13 -->
<g id="edge12" class="edge">
<title>Node9&#45;&gt;Node13</title>
<path fill="none" stroke="midnightblue" d="M551.6,-28.39C571.08,-33.36 595.07,-39.48 615.8,-44.76"/>
<polygon fill="midnightblue" stroke="midnightblue" points="615.12,-48.2 625.67,-47.28 616.85,-41.42 615.12,-48.2"/>
</g>
<!-- Node11 -->
<g id="node11" class="node">
<title>Node11</title>
<g id="a_node11"><a xlink:href="namespaceconsole_1_1serial.html#aa5605d4537106bb1c2bab72d7d1a5824" target="_top" xlink:title=" ">
<polygon fill="white" stroke="black" points="778,-9.3 778,-28.3 882,-28.3 882,-9.3 778,-9.3"/>
<text text-anchor="middle" x="830" y="-16.3" font-family="Helvetica,sans-Serif" font-size="10.00">console::serial::sout</text>
</a>
</g>
</g>
<!-- Node10&#45;&gt;Node11 -->
<g id="edge10" class="edge">
<title>Node10&#45;&gt;Node11</title>
<path fill="none" stroke="midnightblue" d="M724.21,-18.8C738.31,-18.8 753.39,-18.8 767.59,-18.8"/>
<polygon fill="midnightblue" stroke="midnightblue" points="767.74,-22.3 777.74,-18.8 767.74,-15.3 767.74,-22.3"/>
</g>
<!-- Node12 -->
<g id="node12" class="node">
<title>Node12</title>
<g id="a_node12"><a xlink:href="x86_8h.html#ade961b44e45ddacbc3c3b7609cf36dc6" target="_top" xlink:title=" ">
<polygon fill="white" stroke="black" points="947.5,-42.3 947.5,-61.3 982.5,-61.3 982.5,-42.3 947.5,-42.3"/>
<text text-anchor="middle" x="965" y="-49.3" font-family="Helvetica,sans-Serif" font-size="10.00">outb</text>
</a>
</g>
</g>
<!-- Node11&#45;&gt;Node12 -->
<g id="edge11" class="edge">
<title>Node11&#45;&gt;Node12</title>
<path fill="none" stroke="midnightblue" d="M869.47,-28.35C891.32,-33.77 918.11,-40.42 937.59,-45.25"/>
<polygon fill="midnightblue" stroke="midnightblue" points="936.76,-48.65 947.31,-47.66 938.44,-41.86 936.76,-48.65"/>
</g>
<!-- Node14 -->
<g id="node14" class="node">
<title>Node14</title>
<g id="a_node14"><a xlink:href="namespacemem.html#a64d9d05b439041901498c606de606431" target="_top" xlink:title=" ">
<polygon fill="white" stroke="black" points="797.5,-90.3 797.5,-109.3 862.5,-109.3 862.5,-90.3 797.5,-90.3"/>
<text text-anchor="middle" x="830" y="-97.3" font-family="Helvetica,sans-Serif" font-size="10.00">mem::copy</text>
</a>
</g>
</g>
<!-- Node13&#45;&gt;Node14 -->
<g id="edge13" class="edge">
<title>Node13&#45;&gt;Node14</title>
<path fill="none" stroke="midnightblue" d="M701.4,-66.35C726.92,-73.04 761.08,-81.99 787.64,-88.96"/>
<polygon fill="midnightblue" stroke="midnightblue" points="786.85,-92.37 797.41,-91.52 788.62,-85.6 786.85,-92.37"/>
</g>
<!-- Node15 -->
<g id="node15" class="node">
<title>Node15</title>
<g id="a_node15"><a xlink:href="namespaceconsole_1_1cga.html#a06463d4dc68819e30615ba299d02a78f" target="_top" xlink:title=" ">
<polygon fill="white" stroke="black" points="760,-47.3 760,-66.3 900,-66.3 900,-47.3 760,-47.3"/>
<text text-anchor="middle" x="830" y="-54.3" font-family="Helvetica,sans-Serif" font-size="10.00">console::cga::cursorRefresh</text>
</a>
</g>
</g>
<!-- Node13&#45;&gt;Node15 -->
<g id="edge15" class="edge">
<title>Node13&#45;&gt;Node15</title>
<path fill="none" stroke="midnightblue" d="M720.52,-56.8C729.9,-56.8 739.8,-56.8 749.65,-56.8"/>
<polygon fill="midnightblue" stroke="midnightblue" points="749.87,-60.3 759.87,-56.8 749.87,-53.3 749.87,-60.3"/>
</g>
<!-- Node14&#45;&gt;Node5 -->
<g id="edge14" class="edge">
<title>Node14&#45;&gt;Node5</title>
<path fill="none" stroke="midnightblue" d="M862.52,-101.94C881.49,-103.22 905.77,-104.86 925.82,-106.22"/>
<polygon fill="midnightblue" stroke="midnightblue" points="925.66,-109.72 935.87,-106.9 926.13,-102.73 925.66,-109.72"/>
</g>
<!-- Node15&#45;&gt;Node12 -->
<g id="edge16" class="edge">
<title>Node15&#45;&gt;Node12</title>
<path fill="none" stroke="midnightblue" d="M900.23,-54.2C913.48,-53.7 926.59,-53.21 937.45,-52.8"/>
<polygon fill="midnightblue" stroke="midnightblue" points="937.61,-56.3 947.47,-52.42 937.35,-49.3 937.61,-56.3"/>
</g>
</g>
</svg>
