<?xml version="1.0" encoding="UTF-8" standalone="no"?>
<!DOCTYPE svg PUBLIC "-//W3C//DTD SVG 1.1//EN"
 "http://www.w3.org/Graphics/SVG/1.1/DTD/svg11.dtd">
<!-- Generated by graphviz version 2.44.1 (20200629.0846)
 -->
<!-- Title: console::init Pages: 1 -->
<svg width="282pt" height="66pt"
 viewBox="0.00 0.00 282.00 66.00" xmlns="http://www.w3.org/2000/svg" xmlns:xlink="http://www.w3.org/1999/xlink">
<g id="graph0" class="graph" transform="scale(1 1) rotate(0) translate(4 62)">
<title>console::init</title>
<polygon fill="white" stroke="transparent" points="-4,4 -4,-62 278,-62 278,4 -4,4"/>
<!-- Node1 -->
<g id="node1" class="node">
<title>Node1</title>
<g id="a_node1"><a xlink:title=" ">
<polygon fill="#bfbfbf" stroke="black" points="0,-19.5 0,-38.5 69,-38.5 69,-19.5 0,-19.5"/>
<text text-anchor="middle" x="34.5" y="-26.5" font-family="Helvetica,sans-Serif" font-size="10.00">console::init</text>
</a>
</g>
</g>
<!-- Node2 -->
<g id="node2" class="node">
<title>Node2</title>
<g id="a_node2"><a xlink:href="namespaceconsole_1_1serial.html#a868eee5d379fb84ab4b7dc404b5419f8" target="_top" xlink:title=" ">
<polygon fill="white" stroke="black" points="105,-38.5 105,-57.5 203,-57.5 203,-38.5 105,-38.5"/>
<text text-anchor="middle" x="154" y="-45.5" font-family="Helvetica,sans-Serif" font-size="10.00">console::serial::init</text>
</a>
</g>
</g>
<!-- Node1&#45;&gt;Node2 -->
<g id="edge1" class="edge">
<title>Node1&#45;&gt;Node2</title>
<path fill="none" stroke="midnightblue" d="M69.17,-34.44C77.25,-35.75 86.11,-37.18 94.95,-38.61"/>
<polygon fill="midnightblue" stroke="midnightblue" points="94.45,-42.08 104.88,-40.22 95.56,-35.17 94.45,-42.08"/>
</g>
<!-- Node5 -->
<g id="node5" class="node">
<title>Node5</title>
<g id="a_node5"><a xlink:href="namespaceconsole_1_1cga.html#a19fb8c7691158fa3d18559f9aa633e19" target="_top" xlink:title=" ">
<polygon fill="white" stroke="black" points="108.5,-0.5 108.5,-19.5 199.5,-19.5 199.5,-0.5 108.5,-0.5"/>
<text text-anchor="middle" x="154" y="-7.5" font-family="Helvetica,sans-Serif" font-size="10.00">console::cga::init</text>
</a>
</g>
</g>
<!-- Node1&#45;&gt;Node5 -->
<g id="edge4" class="edge">
<title>Node1&#45;&gt;Node5</title>
<path fill="none" stroke="midnightblue" d="M69.17,-23.56C78.33,-22.07 88.48,-20.43 98.47,-18.82"/>
<polygon fill="midnightblue" stroke="midnightblue" points="99.05,-22.27 108.37,-17.22 97.94,-15.36 99.05,-22.27"/>
</g>
<!-- Node3 -->
<g id="node3" class="node">
<title>Node3</title>
<g id="a_node3"><a xlink:href="x86_8h.html#afdc603aa210ab8fd9995ce74940f5d7f" target="_top" xlink:title=" ">
<polygon fill="white" stroke="black" points="242,-38.5 242,-57.5 271,-57.5 271,-38.5 242,-38.5"/>
<text text-anchor="middle" x="256.5" y="-45.5" font-family="Helvetica,sans-Serif" font-size="10.00">inb</text>
</a>
</g>
</g>
<!-- Node2&#45;&gt;Node3 -->
<g id="edge2" class="edge">
<title>Node2&#45;&gt;Node3</title>
<path fill="none" stroke="midnightblue" d="M203.19,-48C213,-48 222.91,-48 231.43,-48"/>
<polygon fill="midnightblue" stroke="midnightblue" points="231.7,-51.5 241.7,-48 231.7,-44.5 231.7,-51.5"/>
</g>
<!-- Node4 -->
<g id="node4" class="node">
<title>Node4</title>
<g id="a_node4"><a xlink:href="x86_8h.html#ade961b44e45ddacbc3c3b7609cf36dc6" target="_top" xlink:title=" ">
<polygon fill="white" stroke="black" points="239,-0.5 239,-19.5 274,-19.5 274,-0.5 239,-0.5"/>
<text text-anchor="middle" x="256.5" y="-7.5" font-family="Helvetica,sans-Serif" font-size="10.00">outb</text>
</a>
</g>
</g>
<!-- Node2&#45;&gt;Node4 -->
<g id="edge3" class="edge">
<title>Node2&#45;&gt;Node4</title>
<path fill="none" stroke="midnightblue" d="M180.36,-38.41C195.29,-32.77 214.14,-25.64 229.23,-19.93"/>
<polygon fill="midnightblue" stroke="midnightblue" points="230.86,-23.06 238.97,-16.25 228.38,-16.51 230.86,-23.06"/>
</g>
<!-- Node5&#45;&gt;Node3 -->
<g id="edge5" class="edge">
<title>Node5&#45;&gt;Node3</title>
<path fill="none" stroke="midnightblue" d="M180.36,-19.59C196.39,-25.65 216.93,-33.42 232.49,-39.3"/>
<polygon fill="midnightblue" stroke="midnightblue" points="231.3,-42.59 241.89,-42.86 233.78,-36.04 231.3,-42.59"/>
</g>
<!-- Node5&#45;&gt;Node4 -->
<g id="edge6" class="edge">
<title>Node5&#45;&gt;Node4</title>
<path fill="none" stroke="midnightblue" d="M199.67,-10C209.51,-10 219.63,-10 228.52,-10"/>
<polygon fill="midnightblue" stroke="midnightblue" points="228.63,-13.5 238.63,-10 228.63,-6.5 228.63,-13.5"/>
</g>
</g>
</svg>
