<?xml version="1.0" encoding="UTF-8" standalone="no"?>
<!DOCTYPE svg PUBLIC "-//W3C//DTD SVG 1.1//EN"
 "http://www.w3.org/Graphics/SVG/1.1/DTD/svg11.dtd">
<!-- Generated by graphviz version 2.44.1 (20200629.0846)
 -->
<!-- Title: vmem::pgdir::init Pages: 1 -->
<!--zoomable 427 -->
<svg id="main" version="1.1" xmlns="http://www.w3.org/2000/svg" xmlns:xlink="http://www.w3.org/1999/xlink" xml:space="preserve" onload="init(evt)">
<style type="text/css"><![CDATA[
.edge:hover path { stroke: red; }
.edge:hover polygon { stroke: red; fill: red; }
]]></style>
<script type="text/javascript"><![CDATA[
var edges = document.getElementsByTagName('g');
if (edges && edges.length) {
  for (var i=0;i<edges.length;i++) {
    if (edges[i].id.substr(0,4)=='edge') {
      edges[i].setAttribute('class','edge');
    }
  }
}
]]></script>
        <defs>
                <circle id="rim" cx="0" cy="0" r="7"/>
                <circle id="rim2" cx="0" cy="0" r="3.5"/>
                <g id="zoomPlus">
                        <use xlink:href="#rim" fill="#404040">
                                <set attributeName="fill" to="#808080" begin="zoomplus.mouseover" end="zoomplus.mouseout"/>
                        </use>
                        <path d="M-4,0h8M0,-4v8" fill="none" stroke="white" stroke-width="1.5" pointer-events="none"/>
                </g>
                <g id="zoomMin">
                        <use xlink:href="#rim" fill="#404040">
                                <set attributeName="fill" to="#808080" begin="zoomminus.mouseover" end="zoomminus.mouseout"/>
                        </use>
                        <path d="M-4,0h8" fill="none" stroke="white" stroke-width="1.5" pointer-events="none"/>
                </g>
                <g id="dirArrow">
                        <path fill="none" stroke="white" stroke-width="1.5" d="M0,-3.0v7 M-2.5,-0.5L0,-3.0L2.5,-0.5"/>
                </g>
               <g id="resetDef">
                       <use xlink:href="#rim2" fill="#404040">
                               <set attributeName="fill" to="#808080" begin="reset.mouseover" end="reset.mouseout"/>
                       </use>
               </g>
        </defs>

<script type="text/javascript">
var viewWidth = 1289;
var viewHeight = 427;
var sectionId = 'dynsection-3';
</script>
<script xlink:href="svgpan.js"/>
<svg id="graph" class="graph">
<g id="viewport">
<title>vmem::pgdir::init</title>
<polygon fill="white" stroke="transparent" points="-4,4 -4,-423 1285,-423 1285,4 -4,4"/>
<!-- Node1 -->
<g id="node1" class="node">
<title>Node1</title>
<g id="a_node1"><a xlink:title=" ">
<polygon fill="#bfbfbf" stroke="black" points="0,-190.5 0,-209.5 89,-209.5 89,-190.5 0,-190.5"/>
<text text-anchor="middle" x="44.5" y="-197.5" font-family="Helvetica,sans-Serif" font-size="10.00">vmem::pgdir::init</text>
</a>
</g>
</g>
<!-- Node2 -->
<g id="node2" class="node">
<title>Node2</title>
<g id="a_node2"><a xlink:href="structvmem_1_1_page_info.html#afcdcb7e941219a8ec999353658e3c2aa" target="_top" xlink:title=" ">
<polygon fill="white" stroke="black" points="739.5,-361.5 739.5,-380.5 854.5,-380.5 854.5,-361.5 739.5,-361.5"/>
<text text-anchor="middle" x="797" y="-368.5" font-family="Helvetica,sans-Serif" font-size="10.00">vmem::PageInfo::alloc</text>
</a>
</g>
</g>
<!-- Node1&#45;&gt;Node2 -->
<g id="edge1" class="edge">
<title>Node1&#45;&gt;Node2</title>
<path fill="none" stroke="midnightblue" d="M53.18,-209.68C82.78,-245.86 193.99,-371 315.5,-371 315.5,-371 315.5,-371 467.5,-371 558.04,-371 662.62,-371 729,-371"/>
<polygon fill="midnightblue" stroke="midnightblue" points="729.32,-374.5 739.32,-371 729.32,-367.5 729.32,-374.5"/>
</g>
<!-- Node5 -->
<g id="node5" class="node">
<title>Node5</title>
<g id="a_node5"><a xlink:href="namespacemem.html#adbaba9127c03fb914f752bfe19d6d089" target="_top" xlink:title=" ">
<polygon fill="white" stroke="black" points="1098,-399.5 1098,-418.5 1156,-418.5 1156,-399.5 1098,-399.5"/>
<text text-anchor="middle" x="1127" y="-406.5" font-family="Helvetica,sans-Serif" font-size="10.00">mem::set</text>
</a>
</g>
</g>
<!-- Node1&#45;&gt;Node5 -->
<g id="edge28" class="edge">
<title>Node1&#45;&gt;Node5</title>
<path fill="none" stroke="midnightblue" d="M48.9,-209.66C57.75,-233.49 83.74,-295.75 125,-331 194.56,-390.43 224.01,-409 315.5,-409 315.5,-409 315.5,-409 798,-409 902.75,-409 1026.32,-409 1087.58,-409"/>
<polygon fill="midnightblue" stroke="midnightblue" points="1087.92,-412.5 1097.92,-409 1087.92,-405.5 1087.92,-412.5"/>
</g>
<!-- Node6 -->
<g id="node6" class="node">
<title>Node6</title>
<g id="a_node6"><a xlink:href="structvmem_1_1_page_info.html#afc863f1d364462ddd2c20bf31f588337" target="_top" xlink:title=" ">
<polygon fill="white" stroke="black" points="901,-247.5 901,-266.5 1031,-266.5 1031,-247.5 901,-247.5"/>
<text text-anchor="middle" x="966" y="-254.5" font-family="Helvetica,sans-Serif" font-size="10.00">vmem::PageInfo::toKernV</text>
</a>
</g>
</g>
<!-- Node1&#45;&gt;Node6 -->
<g id="edge32" class="edge">
<title>Node1&#45;&gt;Node6</title>
<path fill="none" stroke="midnightblue" d="M72.73,-190.4C113.33,-176.65 192.42,-152.01 262,-143 458.35,-117.59 796.22,-165.61 865,-200 885.81,-210.4 881.17,-225.83 901,-238 904.4,-240.09 908.05,-241.96 911.81,-243.63"/>
<polygon fill="midnightblue" stroke="midnightblue" points="910.75,-246.98 921.33,-247.4 913.32,-240.47 910.75,-246.98"/>
</g>
<!-- Node8 -->
<g id="node8" class="node">
<title>Node8</title>
<g id="a_node8"><a xlink:href="namespacevmem_1_1pgdir.html#a92ee80fc1a93d347be69ce9efae61c10" target="_top" xlink:title=" ">
<polygon fill="white" stroke="black" points="125,-190.5 125,-209.5 226,-209.5 226,-190.5 125,-190.5"/>
<text text-anchor="middle" x="175.5" y="-197.5" font-family="Helvetica,sans-Serif" font-size="10.00">vmem::pgdir::insert</text>
</a>
</g>
</g>
<!-- Node1&#45;&gt;Node8 -->
<g id="edge8" class="edge">
<title>Node1&#45;&gt;Node8</title>
<path fill="none" stroke="midnightblue" d="M89.17,-200C97.28,-200 105.88,-200 114.37,-200"/>
<polygon fill="midnightblue" stroke="midnightblue" points="114.65,-203.5 124.65,-200 114.65,-196.5 114.65,-203.5"/>
</g>
<!-- Node13 -->
<g id="node13" class="node">
<title>Node13</title>
<g id="a_node13"><a xlink:href="namespacevmem_1_1pgdir.html#a0fac039ba671f03a7cccf3f4af55cbf5" target="_top" xlink:title=" ">
<polygon fill="white" stroke="black" points="262,-228.5 262,-247.5 371,-247.5 371,-228.5 262,-228.5"/>
<text text-anchor="middle" x="316.5" y="-235.5" font-family="Helvetica,sans-Serif" font-size="10.00">vmem::pgdir::remove</text>
</a>
</g>
</g>
<!-- Node1&#45;&gt;Node13 -->
<g id="edge27" class="edge">
<title>Node1&#45;&gt;Node13</title>
<path fill="none" stroke="midnightblue" d="M80.91,-209.55C94.6,-212.95 110.45,-216.55 125,-219 166.94,-226.07 214.55,-230.82 251.69,-233.8"/>
<polygon fill="midnightblue" stroke="midnightblue" points="251.63,-237.31 261.87,-234.6 252.17,-230.33 251.63,-237.31"/>
</g>
<!-- Node16 -->
<g id="node16" class="node">
<title>Node16</title>
<g id="a_node16"><a xlink:href="x86_8h.html#ad685be9808d9929feec209f23627ec90" target="_top" xlink:title=" ">
<polygon fill="white" stroke="black" points="159.5,-76.5 159.5,-95.5 191.5,-95.5 191.5,-76.5 159.5,-76.5"/>
<text text-anchor="middle" x="175.5" y="-83.5" font-family="Helvetica,sans-Serif" font-size="10.00">lcr0</text>
</a>
</g>
</g>
<!-- Node1&#45;&gt;Node16 -->
<g id="edge24" class="edge">
<title>Node1&#45;&gt;Node16</title>
<path fill="none" stroke="midnightblue" d="M51.94,-190.48C64.34,-172.73 93.12,-134.2 125,-110 132.54,-104.27 141.67,-99.38 150.03,-95.54"/>
<polygon fill="midnightblue" stroke="midnightblue" points="151.54,-98.69 159.34,-91.52 148.77,-92.27 151.54,-98.69"/>
</g>
<!-- Node17 -->
<g id="node17" class="node">
<title>Node17</title>
<g id="a_node17"><a xlink:href="x86_8h.html#ab3bac932074f6042165d3016b701900a" target="_top" xlink:title=" ">
<polygon fill="white" stroke="black" points="159.5,-38.5 159.5,-57.5 191.5,-57.5 191.5,-38.5 159.5,-38.5"/>
<text text-anchor="middle" x="175.5" y="-45.5" font-family="Helvetica,sans-Serif" font-size="10.00">lcr3</text>
</a>
</g>
</g>
<!-- Node1&#45;&gt;Node17 -->
<g id="edge25" class="edge">
<title>Node1&#45;&gt;Node17</title>
<path fill="none" stroke="midnightblue" d="M48.68,-190.49C57.2,-166.43 82.8,-102.5 125,-67 132.01,-61.1 141.05,-56.92 149.49,-54.01"/>
<polygon fill="midnightblue" stroke="midnightblue" points="150.73,-57.29 159.3,-51.06 148.71,-50.59 150.73,-57.29"/>
</g>
<!-- Node18 -->
<g id="node18" class="node">
<title>Node18</title>
<g id="a_node18"><a xlink:href="x86_8h.html#a69d89f57ae905c2df6b747567b621921" target="_top" xlink:title=" ">
<polygon fill="white" stroke="black" points="159,-0.5 159,-19.5 192,-19.5 192,-0.5 159,-0.5"/>
<text text-anchor="middle" x="175.5" y="-7.5" font-family="Helvetica,sans-Serif" font-size="10.00">rcr0</text>
</a>
</g>
</g>
<!-- Node1&#45;&gt;Node18 -->
<g id="edge26" class="edge">
<title>Node1&#45;&gt;Node18</title>
<path fill="none" stroke="midnightblue" d="M47.33,-190.38C53.24,-161.74 74.51,-76.14 125,-29 131.6,-22.84 140.41,-18.61 148.77,-15.73"/>
<polygon fill="midnightblue" stroke="midnightblue" points="149.95,-19.04 158.56,-12.86 147.98,-12.32 149.95,-19.04"/>
</g>
<!-- Node19 -->
<g id="node19" class="node">
<title>Node19</title>
<g id="a_node19"><a xlink:href="namespacevmem_1_1pgdir.html#a07dd6afb36a9efd207d6372a0f0f36e8" target="_top" xlink:title=" ">
<polygon fill="white" stroke="black" points="407,-285.5 407,-304.5 526,-304.5 526,-285.5 407,-285.5"/>
<text text-anchor="middle" x="466.5" y="-292.5" font-family="Helvetica,sans-Serif" font-size="10.00">vmem::pgdir::staticMap</text>
</a>
</g>
</g>
<!-- Node1&#45;&gt;Node19 -->
<g id="edge29" class="edge">
<title>Node1&#45;&gt;Node19</title>
<path fill="none" stroke="midnightblue" d="M61.36,-209.52C77,-218.48 101.86,-231.6 125,-239 216.51,-268.27 326.98,-282.84 396.76,-289.65"/>
<polygon fill="midnightblue" stroke="midnightblue" points="396.46,-293.13 406.75,-290.59 397.12,-286.16 396.46,-293.13"/>
</g>
<!-- Node3 -->
<g id="node3" class="node">
<title>Node3</title>
<g id="a_node3"><a xlink:href="namespacemem.html#a981dd0cb1408b798a79443c6245e9c55" target="_top" xlink:title=" ">
<polygon fill="white" stroke="black" points="933.5,-361.5 933.5,-380.5 998.5,-380.5 998.5,-361.5 933.5,-361.5"/>
<text text-anchor="middle" x="966" y="-368.5" font-family="Helvetica,sans-Serif" font-size="10.00">mem::clear</text>
</a>
</g>
</g>
<!-- Node2&#45;&gt;Node3 -->
<g id="edge2" class="edge">
<title>Node2&#45;&gt;Node3</title>
<path fill="none" stroke="midnightblue" d="M854.54,-371C877.04,-371 902.47,-371 923.26,-371"/>
<polygon fill="midnightblue" stroke="midnightblue" points="923.36,-374.5 933.36,-371 923.36,-367.5 923.36,-374.5"/>
</g>
<!-- Node2&#45;&gt;Node6 -->
<g id="edge6" class="edge">
<title>Node2&#45;&gt;Node6</title>
<path fill="none" stroke="midnightblue" d="M811.95,-361.48C840.74,-341.83 906.95,-296.63 942.1,-272.63"/>
<polygon fill="midnightblue" stroke="midnightblue" points="944.45,-275.27 950.73,-266.74 940.5,-269.49 944.45,-275.27"/>
</g>
<!-- Node4 -->
<g id="node4" class="node">
<title>Node4</title>
<g id="a_node4"><a xlink:href="namespacestr.html#a062221f630647cf300f0dd982c4ed904" target="_top" xlink:title=" ">
<polygon fill="white" stroke="black" points="1223,-380.5 1223,-399.5 1281,-399.5 1281,-380.5 1223,-380.5"/>
<text text-anchor="middle" x="1252" y="-387.5" font-family="Helvetica,sans-Serif" font-size="10.00">str::count</text>
</a>
</g>
</g>
<!-- Node3&#45;&gt;Node4 -->
<g id="edge3" class="edge">
<title>Node3&#45;&gt;Node4</title>
<path fill="none" stroke="midnightblue" d="M998.75,-373.12C1051.24,-376.64 1155.91,-383.64 1212.52,-387.43"/>
<polygon fill="midnightblue" stroke="midnightblue" points="1212.63,-390.94 1222.84,-388.12 1213.1,-383.96 1212.63,-390.94"/>
</g>
<!-- Node3&#45;&gt;Node5 -->
<g id="edge4" class="edge">
<title>Node3&#45;&gt;Node5</title>
<path fill="none" stroke="midnightblue" d="M998.79,-378.6C1024.51,-384.74 1060.79,-393.42 1088.03,-399.93"/>
<polygon fill="midnightblue" stroke="midnightblue" points="1087.45,-403.38 1097.99,-402.3 1089.07,-396.58 1087.45,-403.38"/>
</g>
<!-- Node5&#45;&gt;Node4 -->
<g id="edge5" class="edge">
<title>Node5&#45;&gt;Node4</title>
<path fill="none" stroke="midnightblue" d="M1156.22,-404.64C1173.02,-402.05 1194.55,-398.72 1212.85,-395.89"/>
<polygon fill="midnightblue" stroke="midnightblue" points="1213.56,-399.32 1222.91,-394.34 1212.5,-392.41 1213.56,-399.32"/>
</g>
<!-- Node7 -->
<g id="node7" class="node">
<title>Node7</title>
<g id="a_node7"><a xlink:href="structvmem_1_1_page_info.html#accf2071c7875c29c9aa78a01ef5963a1" target="_top" xlink:title=" ">
<polygon fill="white" stroke="black" points="1067,-247.5 1067,-266.5 1187,-266.5 1187,-247.5 1067,-247.5"/>
<text text-anchor="middle" x="1127" y="-254.5" font-family="Helvetica,sans-Serif" font-size="10.00">vmem::PageInfo::toPhy</text>
</a>
</g>
</g>
<!-- Node6&#45;&gt;Node7 -->
<g id="edge7" class="edge">
<title>Node6&#45;&gt;Node7</title>
<path fill="none" stroke="midnightblue" d="M1031.21,-257C1039.61,-257 1048.24,-257 1056.71,-257"/>
<polygon fill="midnightblue" stroke="midnightblue" points="1056.94,-260.5 1066.94,-257 1056.94,-253.5 1056.94,-260.5"/>
</g>
<!-- Node8&#45;&gt;Node7 -->
<g id="edge23" class="edge">
<title>Node8&#45;&gt;Node7</title>
<path fill="none" stroke="midnightblue" d="M186.51,-190.37C201.48,-176.71 231.27,-152.31 262,-143 308.37,-128.96 322.6,-140.91 371,-143 665.15,-155.68 750.91,-109.26 1031,-200 1058.99,-209.07 1087.45,-227.65 1105.82,-241.14"/>
<polygon fill="midnightblue" stroke="midnightblue" points="1103.89,-244.07 1113.99,-247.29 1108.11,-238.48 1103.89,-244.07"/>
</g>
<!-- Node9 -->
<g id="node9" class="node">
<title>Node9</title>
<g id="a_node9"><a xlink:href="namespacevmem_1_1pgdir.html#a933a8f939084dabdb1a4b5401bebf8d7" target="_top" xlink:title=" ">
<polygon fill="white" stroke="black" points="574,-323.5 574,-342.5 681,-342.5 681,-323.5 574,-323.5"/>
<text text-anchor="middle" x="627.5" y="-330.5" font-family="Helvetica,sans-Serif" font-size="10.00">vmem::pgdir::findPte</text>
</a>
</g>
</g>
<!-- Node8&#45;&gt;Node9 -->
<g id="edge9" class="edge">
<title>Node8&#45;&gt;Node9</title>
<path fill="none" stroke="midnightblue" d="M189.01,-209.58C205.21,-221.71 234.64,-242.71 262,-257 323.38,-289.05 339.59,-298.18 407,-314 458.99,-326.2 519.57,-330.74 563.89,-332.35"/>
<polygon fill="midnightblue" stroke="midnightblue" points="563.84,-335.85 573.94,-332.68 564.06,-328.86 563.84,-335.85"/>
</g>
<!-- Node10 -->
<g id="node10" class="node">
<title>Node10</title>
<g id="a_node10"><a xlink:href="namespacevmem_1_1pgdir.html#a972bb045d4c58b0ea9c569e05831bbb6" target="_top" xlink:title=" ">
<polygon fill="white" stroke="black" points="729,-209.5 729,-228.5 865,-228.5 865,-209.5 729,-209.5"/>
<text text-anchor="middle" x="797" y="-216.5" font-family="Helvetica,sans-Serif" font-size="10.00">vmem::pgdir::invalidateTLB</text>
</a>
</g>
</g>
<!-- Node8&#45;&gt;Node10 -->
<g id="edge17" class="edge">
<title>Node8&#45;&gt;Node10</title>
<path fill="none" stroke="midnightblue" d="M226.15,-201.52C333.78,-204.82 589.25,-212.66 718.4,-216.62"/>
<polygon fill="midnightblue" stroke="midnightblue" points="718.51,-220.12 728.61,-216.93 718.73,-213.13 718.51,-220.12"/>
</g>
<!-- Node12 -->
<g id="node12" class="node">
<title>Node12</title>
<g id="a_node12"><a xlink:href="namespacemonitor.html#a318993193c866642f8389a1c1f285739" target="_top" xlink:title=" ">
<polygon fill="white" stroke="black" points="279.5,-152.5 279.5,-171.5 353.5,-171.5 353.5,-152.5 279.5,-152.5"/>
<text text-anchor="middle" x="316.5" y="-159.5" font-family="Helvetica,sans-Serif" font-size="10.00">monitor::fuck</text>
</a>
</g>
</g>
<!-- Node8&#45;&gt;Node12 -->
<g id="edge16" class="edge">
<title>Node8&#45;&gt;Node12</title>
<path fill="none" stroke="midnightblue" d="M211.58,-190.41C229.52,-185.51 251.56,-179.48 270.72,-174.24"/>
<polygon fill="midnightblue" stroke="midnightblue" points="271.71,-177.6 280.44,-171.59 269.87,-170.85 271.71,-177.6"/>
</g>
<!-- Node8&#45;&gt;Node13 -->
<g id="edge18" class="edge">
<title>Node8&#45;&gt;Node13</title>
<path fill="none" stroke="midnightblue" d="M211.58,-209.59C229.52,-214.49 251.56,-220.52 270.72,-225.76"/>
<polygon fill="midnightblue" stroke="midnightblue" points="269.87,-229.15 280.44,-228.41 271.71,-222.4 269.87,-229.15"/>
</g>
<!-- Node9&#45;&gt;Node2 -->
<g id="edge10" class="edge">
<title>Node9&#45;&gt;Node2</title>
<path fill="none" stroke="midnightblue" d="M670.77,-342.59C693.07,-347.65 720.62,-353.9 744.2,-359.25"/>
<polygon fill="midnightblue" stroke="midnightblue" points="743.51,-362.68 754.04,-361.48 745.06,-355.85 743.51,-362.68"/>
</g>
<!-- Node9&#45;&gt;Node3 -->
<g id="edge11" class="edge">
<title>Node9&#45;&gt;Node3</title>
<path fill="none" stroke="midnightblue" d="M681.28,-335.61C729.32,-338.37 802.13,-343.53 865,-352 884.27,-354.6 905.44,-358.47 923.33,-362.04"/>
<polygon fill="midnightblue" stroke="midnightblue" points="922.67,-365.48 933.17,-364.05 924.07,-358.62 922.67,-365.48"/>
</g>
<!-- Node9&#45;&gt;Node6 -->
<g id="edge14" class="edge">
<title>Node9&#45;&gt;Node6</title>
<path fill="none" stroke="midnightblue" d="M659.87,-323.49C670.68,-319.65 682.67,-314.76 693,-309 710.7,-299.13 710.19,-288.54 729,-281 780.37,-260.41 842.85,-254.82 890.61,-254.16"/>
<polygon fill="midnightblue" stroke="midnightblue" points="890.9,-257.66 900.87,-254.09 890.85,-250.66 890.9,-257.66"/>
</g>
<!-- Node9&#45;&gt;Node7 -->
<g id="edge15" class="edge">
<title>Node9&#45;&gt;Node7</title>
<path fill="none" stroke="midnightblue" d="M681.07,-326.52C758.07,-316.82 905.95,-297.34 1031,-276 1044.08,-273.77 1058.12,-271.11 1071.29,-268.49"/>
<polygon fill="midnightblue" stroke="midnightblue" points="1072.04,-271.91 1081.15,-266.51 1070.66,-265.05 1072.04,-271.91"/>
</g>
<!-- Node9&#45;&gt;Node10 -->
<g id="edge12" class="edge">
<title>Node9&#45;&gt;Node10</title>
<path fill="none" stroke="midnightblue" d="M667.8,-323.44C676.77,-319.95 685.78,-315.26 693,-309 718.26,-287.12 703.61,-264.72 729,-243 733.81,-238.89 739.37,-235.46 745.19,-232.61"/>
<polygon fill="midnightblue" stroke="midnightblue" points="746.7,-235.77 754.49,-228.59 743.92,-229.35 746.7,-235.77"/>
</g>
<!-- Node11 -->
<g id="node11" class="node">
<title>Node11</title>
<g id="a_node11"><a xlink:href="x86_8h.html#a2c1c4c8523ed258a75c563a8f94d1686" target="_top" xlink:title=" ">
<polygon fill="white" stroke="black" points="945,-209.5 945,-228.5 987,-228.5 987,-209.5 945,-209.5"/>
<text text-anchor="middle" x="966" y="-216.5" font-family="Helvetica,sans-Serif" font-size="10.00">invlpg</text>
</a>
</g>
</g>
<!-- Node10&#45;&gt;Node11 -->
<g id="edge13" class="edge">
<title>Node10&#45;&gt;Node11</title>
<path fill="none" stroke="midnightblue" d="M865.44,-219C889.58,-219 915.58,-219 934.95,-219"/>
<polygon fill="midnightblue" stroke="midnightblue" points="934.98,-222.5 944.98,-219 934.98,-215.5 934.98,-222.5"/>
</g>
<!-- Node13&#45;&gt;Node10 -->
<g id="edge22" class="edge">
<title>Node13&#45;&gt;Node10</title>
<path fill="none" stroke="midnightblue" d="M371.46,-235.86C456.32,-232.49 621.33,-225.94 718.75,-222.07"/>
<polygon fill="midnightblue" stroke="midnightblue" points="718.98,-225.56 728.83,-221.67 718.7,-218.57 718.98,-225.56"/>
</g>
<!-- Node14 -->
<g id="node14" class="node">
<title>Node14</title>
<g id="a_node14"><a xlink:href="namespacevmem_1_1pgdir.html#a18669c6fe92ff279442cecceca1263cc" target="_top" xlink:title=" ">
<polygon fill="white" stroke="black" points="412,-247.5 412,-266.5 521,-266.5 521,-247.5 412,-247.5"/>
<text text-anchor="middle" x="466.5" y="-254.5" font-family="Helvetica,sans-Serif" font-size="10.00">vmem::pgdir::findInfo</text>
</a>
</g>
</g>
<!-- Node13&#45;&gt;Node14 -->
<g id="edge19" class="edge">
<title>Node13&#45;&gt;Node14</title>
<path fill="none" stroke="midnightblue" d="M371.35,-244.91C381.27,-246.19 391.71,-247.53 401.88,-248.83"/>
<polygon fill="midnightblue" stroke="midnightblue" points="401.57,-252.32 411.94,-250.12 402.46,-245.38 401.57,-252.32"/>
</g>
<!-- Node14&#45;&gt;Node9 -->
<g id="edge20" class="edge">
<title>Node14&#45;&gt;Node9</title>
<path fill="none" stroke="midnightblue" d="M500.73,-266.51C509.11,-269.25 517.99,-272.47 526,-276 553.41,-288.08 583.05,-305.46 602.98,-317.85"/>
<polygon fill="midnightblue" stroke="midnightblue" points="601.34,-320.96 611.67,-323.32 605.07,-315.03 601.34,-320.96"/>
</g>
<!-- Node15 -->
<g id="node15" class="node">
<title>Node15</title>
<g id="a_node15"><a xlink:href="structvmem_1_1_page_info.html#a1e3111217d6a051c9d8b83200710a0b3" target="_top" xlink:title=" ">
<polygon fill="white" stroke="black" points="562,-247.5 562,-266.5 693,-266.5 693,-247.5 562,-247.5"/>
<text text-anchor="middle" x="627.5" y="-254.5" font-family="Helvetica,sans-Serif" font-size="10.00">vmem::PageInfo::fromPhy</text>
</a>
</g>
</g>
<!-- Node14&#45;&gt;Node15 -->
<g id="edge21" class="edge">
<title>Node14&#45;&gt;Node15</title>
<path fill="none" stroke="midnightblue" d="M521.33,-257C531.13,-257 541.51,-257 551.78,-257"/>
<polygon fill="midnightblue" stroke="midnightblue" points="551.99,-260.5 561.99,-257 551.99,-253.5 551.99,-260.5"/>
</g>
<!-- Node19&#45;&gt;Node9 -->
<g id="edge30" class="edge">
<title>Node19&#45;&gt;Node9</title>
<path fill="none" stroke="midnightblue" d="M507.62,-304.59C528.6,-309.6 554.48,-315.79 576.73,-321.11"/>
<polygon fill="midnightblue" stroke="midnightblue" points="576.13,-324.56 586.67,-323.48 577.75,-317.75 576.13,-324.56"/>
</g>
<!-- Node19&#45;&gt;Node10 -->
<g id="edge31" class="edge">
<title>Node19&#45;&gt;Node10</title>
<path fill="none" stroke="midnightblue" d="M526.25,-298.24C572.82,-298.9 638.84,-295.49 693,-276 711.33,-269.4 712.16,-260.79 729,-251 740.32,-244.42 753.2,-238.03 764.63,-232.71"/>
<polygon fill="midnightblue" stroke="midnightblue" points="766.18,-235.85 773.82,-228.51 763.27,-229.48 766.18,-235.85"/>
</g>
</g>
</svg>
        <g id="navigator" transform="translate(0 0)" fill="#404254">
                <rect fill="#f2f5e9" fill-opacity="0.5" stroke="#606060" stroke-width=".5" x="0" y="0" width="60" height="60"/>
                <use id="zoomplus" xlink:href="#zoomPlus" x="17" y="9" onmousedown="handleZoom(evt,'in')"/>
                <use id="zoomminus" xlink:href="#zoomMin" x="42" y="9" onmousedown="handleZoom(evt,'out')"/>
                <use id="reset" xlink:href="#resetDef" x="30" y="36" onmousedown="handleReset()"/>
                <g id="arrowUp" xlink:href="#dirArrow" transform="translate(30 24)" onmousedown="handlePan(0,-1)">
                  <use xlink:href="#rim" fill="#404040">
                        <set attributeName="fill" to="#808080" begin="arrowUp.mouseover" end="arrowUp.mouseout"/>
                  </use>
                  <path fill="none" stroke="white" stroke-width="1.5" d="M0,-3.0v7 M-2.5,-0.5L0,-3.0L2.5,-0.5"/>
                </g>
                <g id="arrowRight" xlink:href="#dirArrow" transform="rotate(90) translate(36 -43)" onmousedown="handlePan(1,0)">
                  <use xlink:href="#rim" fill="#404040">
                        <set attributeName="fill" to="#808080" begin="arrowRight.mouseover" end="arrowRight.mouseout"/>
                  </use>
                  <path fill="none" stroke="white" stroke-width="1.5" d="M0,-3.0v7 M-2.5,-0.5L0,-3.0L2.5,-0.5"/>
                </g>
                <g id="arrowDown" xlink:href="#dirArrow" transform="rotate(180) translate(-30 -48)" onmousedown="handlePan(0,1)">
                  <use xlink:href="#rim" fill="#404040">
                        <set attributeName="fill" to="#808080" begin="arrowDown.mouseover" end="arrowDown.mouseout"/>
                  </use>
                  <path fill="none" stroke="white" stroke-width="1.5" d="M0,-3.0v7 M-2.5,-0.5L0,-3.0L2.5,-0.5"/>
                </g>
                <g id="arrowLeft" xlink:href="#dirArrow" transform="rotate(270) translate(-36 17)" onmousedown="handlePan(-1,0)">
                  <use xlink:href="#rim" fill="#404040">
                        <set attributeName="fill" to="#808080" begin="arrowLeft.mouseover" end="arrowLeft.mouseout"/>
                  </use>
                  <path fill="none" stroke="white" stroke-width="1.5" d="M0,-3.0v7 M-2.5,-0.5L0,-3.0L2.5,-0.5"/>
                </g>
        </g>
        <svg viewBox="0 0 15 15" width="100%" height="30px" preserveAspectRatio="xMaxYMin meet">
         <g id="arrow_out" transform="scale(0.3 0.3)">
          <a xlink:href="namespacevmem_1_1pgdir_a1a38223c602b0a8117cac423efa0342d_cgraph_org.svg" target="_base">
           <rect id="button" ry="5" rx="5" y="6" x="6" height="38" width="38"
                fill="#f2f5e9" fill-opacity="0.5" stroke="#606060" stroke-width="1.0"/>
           <path id="arrow"
             d="M 11.500037,31.436501 C 11.940474,20.09759 22.043105,11.32322 32.158766,21.979434 L 37.068811,17.246167 C 37.068811,17.246167 37.088388,32 37.088388,32 L 22.160133,31.978069 C 22.160133,31.978069 26.997745,27.140456 26.997745,27.140456 C 18.528582,18.264221 13.291696,25.230495 11.500037,31.436501 z"
             style="fill:#404040;"/>
          </a>
         </g>
        </svg>
</svg>
