<?xml version="1.0" encoding="UTF-8" standalone="no"?>
<!DOCTYPE svg PUBLIC "-//W3C//DTD SVG 1.1//EN"
 "http://www.w3.org/Graphics/SVG/1.1/DTD/svg11.dtd">
<!-- Generated by graphviz version 2.44.1 (20200629.0846)
 -->
<!-- Title: trap::handler::syscall Pages: 1 -->
<svg width="1996pt" height="725pt"
 viewBox="0.00 0.00 1996.00 725.00" xmlns="http://www.w3.org/2000/svg" xmlns:xlink="http://www.w3.org/1999/xlink">
<g id="graph0" class="graph" transform="scale(1 1) rotate(0) translate(4 721)">
<title>trap::handler::syscall</title>
<polygon fill="white" stroke="transparent" points="-4,4 -4,-721 1992,-721 1992,4 -4,4"/>
<!-- Node1 -->
<g id="node1" class="node">
<title>Node1</title>
<g id="a_node1"><a xlink:title=" ">
<polygon fill="#bfbfbf" stroke="black" points="0,-304.5 0,-323.5 107,-323.5 107,-304.5 0,-304.5"/>
<text text-anchor="middle" x="53.5" y="-311.5" font-family="Helvetica,sans-Serif" font-size="10.00">trap::handler::syscall</text>
</a>
</g>
</g>
<!-- Node1&#45;&gt;Node1 -->
<g id="edge63" class="edge">
<title>Node1&#45;&gt;Node1</title>
<path fill="none" stroke="midnightblue" d="M33.77,-323.76C24.17,-332.57 30.75,-342 53.5,-342 68.07,-342 76.01,-338.13 77.31,-333.03"/>
<polygon fill="midnightblue" stroke="midnightblue" points="80.46,-331.5 73.23,-323.76 74.05,-334.32 80.46,-331.5"/>
</g>
<!-- Node2 -->
<g id="node2" class="node">
<title>Node2</title>
<g id="a_node2"><a xlink:href="namespaceksyscall.html#aba9c613d417687038b4c06b86a373095" target="_top" xlink:title=" ">
<polygon fill="white" stroke="black" points="143,-304.5 143,-323.5 223,-323.5 223,-304.5 143,-304.5"/>
<text text-anchor="middle" x="183" y="-311.5" font-family="Helvetica,sans-Serif" font-size="10.00">ksyscall::main</text>
</a>
</g>
</g>
<!-- Node1&#45;&gt;Node2 -->
<g id="edge1" class="edge">
<title>Node1&#45;&gt;Node2</title>
<path fill="none" stroke="midnightblue" d="M107.1,-314C115.58,-314 124.34,-314 132.74,-314"/>
<polygon fill="midnightblue" stroke="midnightblue" points="132.77,-317.5 142.77,-314 132.77,-310.5 132.77,-317.5"/>
</g>
<!-- Node3 -->
<g id="node3" class="node">
<title>Node3</title>
<g id="a_node3"><a xlink:href="namespaceksyscall.html#a195263365bad3443fd1322d8658f40ce" target="_top" xlink:title=" ">
<polygon fill="white" stroke="black" points="271,-304.5 271,-323.5 345,-323.5 345,-304.5 271,-304.5"/>
<text text-anchor="middle" x="308" y="-311.5" font-family="Helvetica,sans-Serif" font-size="10.00">ksyscall::exit</text>
</a>
</g>
</g>
<!-- Node2&#45;&gt;Node3 -->
<g id="edge2" class="edge">
<title>Node2&#45;&gt;Node3</title>
<path fill="none" stroke="midnightblue" d="M223.26,-314C235.12,-314 248.26,-314 260.55,-314"/>
<polygon fill="midnightblue" stroke="midnightblue" points="260.62,-317.5 270.62,-314 260.62,-310.5 260.62,-317.5"/>
</g>
<!-- Node33 -->
<g id="node33" class="node">
<title>Node33</title>
<g id="a_node33"><a xlink:href="namespaceksyscall.html#abcdaea607723e03ea3fb919c121981ec" target="_top" xlink:title=" ">
<polygon fill="white" stroke="black" points="408.5,-238.5 408.5,-257.5 501.5,-257.5 501.5,-238.5 408.5,-238.5"/>
<text text-anchor="middle" x="455" y="-245.5" font-family="Helvetica,sans-Serif" font-size="10.00">ksyscall::getChar</text>
</a>
</g>
</g>
<!-- Node2&#45;&gt;Node33 -->
<g id="edge42" class="edge">
<title>Node2&#45;&gt;Node33</title>
<path fill="none" stroke="midnightblue" d="M221.36,-304.44C233.37,-301.4 246.74,-298.03 259,-295 308.14,-282.85 364.34,-269.35 403.74,-259.94"/>
<polygon fill="midnightblue" stroke="midnightblue" points="404.72,-263.31 413.63,-257.59 403.09,-256.5 404.72,-263.31"/>
</g>
<!-- Node34 -->
<g id="node34" class="node">
<title>Node34</title>
<g id="a_node34"><a xlink:href="namespaceksyscall.html#a20b510ff748ce75bc0860b4ff4e15a60" target="_top" xlink:title=" ">
<polygon fill="white" stroke="black" points="259,-380.5 259,-399.5 357,-399.5 357,-380.5 259,-380.5"/>
<text text-anchor="middle" x="308" y="-387.5" font-family="Helvetica,sans-Serif" font-size="10.00">ksyscall::putString</text>
</a>
</g>
</g>
<!-- Node2&#45;&gt;Node34 -->
<g id="edge44" class="edge">
<title>Node2&#45;&gt;Node34</title>
<path fill="none" stroke="midnightblue" d="M199.58,-323.63C220.56,-336.59 258.1,-359.79 282.78,-375.04"/>
<polygon fill="midnightblue" stroke="midnightblue" points="281.2,-378.17 291.55,-380.45 284.88,-372.22 281.2,-378.17"/>
</g>
<!-- Node4 -->
<g id="node4" class="node">
<title>Node4</title>
<g id="a_node4"><a xlink:href="structtask_1_1_task.html#acc107ba9ef939a92f459873765fb73eb" target="_top" xlink:title=" ">
<polygon fill="white" stroke="black" points="404.5,-304.5 404.5,-323.5 505.5,-323.5 505.5,-304.5 404.5,-304.5"/>
<text text-anchor="middle" x="455" y="-311.5" font-family="Helvetica,sans-Serif" font-size="10.00">task::Task::destroy</text>
</a>
</g>
</g>
<!-- Node3&#45;&gt;Node4 -->
<g id="edge3" class="edge">
<title>Node3&#45;&gt;Node4</title>
<path fill="none" stroke="midnightblue" d="M345.22,-314C360.01,-314 377.52,-314 394.13,-314"/>
<polygon fill="midnightblue" stroke="midnightblue" points="394.31,-317.5 404.31,-314 394.31,-310.5 394.31,-317.5"/>
</g>
<!-- Node5 -->
<g id="node5" class="node">
<title>Node5</title>
<g id="a_node5"><a xlink:href="x86_8h.html#ab3bac932074f6042165d3016b701900a" target="_top" xlink:title=" ">
<polygon fill="white" stroke="black" points="575,-304.5 575,-323.5 607,-323.5 607,-304.5 575,-304.5"/>
<text text-anchor="middle" x="591" y="-311.5" font-family="Helvetica,sans-Serif" font-size="10.00">lcr3</text>
</a>
</g>
</g>
<!-- Node4&#45;&gt;Node5 -->
<g id="edge4" class="edge">
<title>Node4&#45;&gt;Node5</title>
<path fill="none" stroke="midnightblue" d="M505.52,-314C525.7,-314 548.16,-314 564.84,-314"/>
<polygon fill="midnightblue" stroke="midnightblue" points="564.89,-317.5 574.89,-314 564.89,-310.5 564.89,-317.5"/>
</g>
<!-- Node6 -->
<g id="node6" class="node">
<title>Node6</title>
<g id="a_node6"><a xlink:href="namespacemonitor.html#ac02f947e274eb7d38cdfa803c21ef579" target="_top" xlink:title=" ">
<polygon fill="white" stroke="black" points="553,-380.5 553,-399.5 629,-399.5 629,-380.5 553,-380.5"/>
<text text-anchor="middle" x="591" y="-387.5" font-family="Helvetica,sans-Serif" font-size="10.00">monitor::main</text>
</a>
</g>
</g>
<!-- Node4&#45;&gt;Node6 -->
<g id="edge5" class="edge">
<title>Node4&#45;&gt;Node6</title>
<path fill="none" stroke="midnightblue" d="M472.97,-323.63C496.03,-336.7 537.45,-360.2 564.32,-375.44"/>
<polygon fill="midnightblue" stroke="midnightblue" points="562.74,-378.56 573.17,-380.45 566.19,-372.47 562.74,-378.56"/>
</g>
<!-- Node13 -->
<g id="node13" class="node">
<title>Node13</title>
<g id="a_node13"><a xlink:href="namespaceconsole_1_1out.html#ac6f663e3971b66b8e130ee94755a150e" target="_top" xlink:title=" ">
<polygon fill="white" stroke="black" points="669.5,-304.5 669.5,-323.5 764.5,-323.5 764.5,-304.5 669.5,-304.5"/>
<text text-anchor="middle" x="717" y="-311.5" font-family="Helvetica,sans-Serif" font-size="10.00">console::out::print</text>
</a>
</g>
</g>
<!-- Node4&#45;&gt;Node13 -->
<g id="edge41" class="edge">
<title>Node4&#45;&gt;Node13</title>
<path fill="none" stroke="midnightblue" d="M495.39,-304.49C512.91,-300.72 533.87,-296.86 553,-295 586.62,-291.74 595.42,-291.38 629,-295 642.72,-296.48 657.45,-299.24 670.81,-302.2"/>
<polygon fill="midnightblue" stroke="midnightblue" points="670.2,-305.65 680.73,-304.49 671.77,-298.83 670.2,-305.65"/>
</g>
<!-- Node7 -->
<g id="node7" class="node">
<title>Node7</title>
<g id="a_node7"><a xlink:href="namespacemonitor.html#a8b88ed0586263051a6af8dbff388e314" target="_top" xlink:title=" ">
<polygon fill="white" stroke="black" points="667,-456.5 667,-475.5 767,-475.5 767,-456.5 667,-456.5"/>
<text text-anchor="middle" x="717" y="-463.5" font-family="Helvetica,sans-Serif" font-size="10.00">monitor::parseCmd</text>
</a>
</g>
</g>
<!-- Node6&#45;&gt;Node7 -->
<g id="edge6" class="edge">
<title>Node6&#45;&gt;Node7</title>
<path fill="none" stroke="midnightblue" d="M607.7,-399.63C628.85,-412.59 666.7,-435.79 691.58,-451.04"/>
<polygon fill="midnightblue" stroke="midnightblue" points="690.07,-454.21 700.42,-456.45 693.73,-448.24 690.07,-454.21"/>
</g>
<!-- Node6&#45;&gt;Node13 -->
<g id="edge12" class="edge">
<title>Node6&#45;&gt;Node13</title>
<path fill="none" stroke="midnightblue" d="M608.24,-380.29C614.85,-376.12 622.46,-371.06 629,-366 646.16,-352.71 646.49,-344.33 665,-333 668.21,-331.03 671.66,-329.22 675.19,-327.56"/>
<polygon fill="midnightblue" stroke="midnightblue" points="676.82,-330.67 684.63,-323.51 674.06,-324.23 676.82,-330.67"/>
</g>
<!-- Node28 -->
<g id="node28" class="node">
<title>Node28</title>
<g id="a_node28"><a xlink:href="namespaceconsole_1_1err.html#a124c7e8527c0e3fd2b9636411aea7e82" target="_top" xlink:title=" ">
<polygon fill="white" stroke="black" points="671,-380.5 671,-399.5 763,-399.5 763,-380.5 671,-380.5"/>
<text text-anchor="middle" x="717" y="-387.5" font-family="Helvetica,sans-Serif" font-size="10.00">console::err::print</text>
</a>
</g>
</g>
<!-- Node6&#45;&gt;Node28 -->
<g id="edge32" class="edge">
<title>Node6&#45;&gt;Node28</title>
<path fill="none" stroke="midnightblue" d="M629.2,-390C639.15,-390 650.12,-390 660.81,-390"/>
<polygon fill="midnightblue" stroke="midnightblue" points="660.94,-393.5 670.94,-390 660.94,-386.5 660.94,-393.5"/>
</g>
<!-- Node30 -->
<g id="node30" class="node">
<title>Node30</title>
<g id="a_node30"><a xlink:href="namespaceconsole_1_1in.html#afa763e7729f2e6fbdcf4c14e44ad7a29" target="_top" xlink:title=" ">
<polygon fill="white" stroke="black" points="665,-342.5 665,-361.5 769,-361.5 769,-342.5 665,-342.5"/>
<text text-anchor="middle" x="717" y="-349.5" font-family="Helvetica,sans-Serif" font-size="10.00">console::in::readline</text>
</a>
</g>
</g>
<!-- Node6&#45;&gt;Node30 -->
<g id="edge36" class="edge">
<title>Node6&#45;&gt;Node30</title>
<path fill="none" stroke="midnightblue" d="M623.29,-380.41C639,-375.6 658.24,-369.7 675.11,-364.53"/>
<polygon fill="midnightblue" stroke="midnightblue" points="676.18,-367.86 684.72,-361.59 674.13,-361.17 676.18,-367.86"/>
</g>
<!-- Node8 -->
<g id="node8" class="node">
<title>Node8</title>
<g id="a_node8"><a xlink:href="namespacestr.html#ace5edf7e67a558a1c4ead28a66faba41" target="_top" xlink:title=" ">
<polygon fill="white" stroke="black" points="824.5,-456.5 824.5,-475.5 900.5,-475.5 900.5,-456.5 824.5,-456.5"/>
<text text-anchor="middle" x="862.5" y="-463.5" font-family="Helvetica,sans-Serif" font-size="10.00">str::cmpCase</text>
</a>
</g>
</g>
<!-- Node7&#45;&gt;Node8 -->
<g id="edge7" class="edge">
<title>Node7&#45;&gt;Node8</title>
<path fill="none" stroke="midnightblue" d="M767.38,-466C782.54,-466 799.16,-466 814.17,-466"/>
<polygon fill="midnightblue" stroke="midnightblue" points="814.27,-469.5 824.27,-466 814.27,-462.5 814.27,-469.5"/>
</g>
<!-- Node9 -->
<g id="node9" class="node">
<title>Node9</title>
<g id="a_node9"><a xlink:href="namespacestr.html#a12522233f7d73122d76de5c82e44a183" target="_top" xlink:title=" ">
<polygon fill="white" stroke="black" points="829,-494.5 829,-513.5 896,-513.5 896,-494.5 829,-494.5"/>
<text text-anchor="middle" x="862.5" y="-501.5" font-family="Helvetica,sans-Serif" font-size="10.00">str::splitWs</text>
</a>
</g>
</g>
<!-- Node7&#45;&gt;Node9 -->
<g id="edge8" class="edge">
<title>Node7&#45;&gt;Node9</title>
<path fill="none" stroke="midnightblue" d="M754.21,-475.59C773.9,-480.8 798.38,-487.28 818.97,-492.74"/>
<polygon fill="midnightblue" stroke="midnightblue" points="818.17,-496.15 828.74,-495.32 819.96,-489.38 818.17,-496.15"/>
</g>
<!-- Node10 -->
<g id="node10" class="node">
<title>Node10</title>
<g id="a_node10"><a xlink:href="namespacestr.html#a0e183e333ba05550c6b206906dbf0f10" target="_top" xlink:title=" ">
<polygon fill="white" stroke="black" points="983,-494.5 983,-513.5 1035,-513.5 1035,-494.5 983,-494.5"/>
<text text-anchor="middle" x="1009" y="-501.5" font-family="Helvetica,sans-Serif" font-size="10.00">str::split</text>
</a>
</g>
</g>
<!-- Node9&#45;&gt;Node10 -->
<g id="edge9" class="edge">
<title>Node9&#45;&gt;Node10</title>
<path fill="none" stroke="midnightblue" d="M896.29,-504C919.11,-504 949.5,-504 972.82,-504"/>
<polygon fill="midnightblue" stroke="midnightblue" points="972.99,-507.5 982.99,-504 972.99,-500.5 972.99,-507.5"/>
</g>
<!-- Node11 -->
<g id="node11" class="node">
<title>Node11</title>
<g id="a_node11"><a xlink:href="namespacestr.html#a062221f630647cf300f0dd982c4ed904" target="_top" xlink:title=" ">
<polygon fill="white" stroke="black" points="1930,-536.5 1930,-555.5 1988,-555.5 1988,-536.5 1930,-536.5"/>
<text text-anchor="middle" x="1959" y="-543.5" font-family="Helvetica,sans-Serif" font-size="10.00">str::count</text>
</a>
</g>
</g>
<!-- Node10&#45;&gt;Node11 -->
<g id="edge10" class="edge">
<title>Node10&#45;&gt;Node11</title>
<path fill="none" stroke="midnightblue" d="M1035.14,-502.77C1126.79,-498.58 1451.54,-486.28 1718,-508 1789.73,-513.85 1872.44,-528.78 1919.64,-538.09"/>
<polygon fill="midnightblue" stroke="midnightblue" points="1919.23,-541.57 1929.72,-540.1 1920.6,-534.71 1919.23,-541.57"/>
</g>
<!-- Node12 -->
<g id="node12" class="node">
<title>Node12</title>
<g id="a_node12"><a xlink:href="namespacestr.html#a4b4d986113337f946299cef82449cf52" target="_top" xlink:title=" ">
<polygon fill="white" stroke="black" points="1133,-456.5 1133,-475.5 1183,-475.5 1183,-456.5 1133,-456.5"/>
<text text-anchor="middle" x="1158" y="-463.5" font-family="Helvetica,sans-Serif" font-size="10.00">str::find</text>
</a>
</g>
</g>
<!-- Node10&#45;&gt;Node12 -->
<g id="edge11" class="edge">
<title>Node10&#45;&gt;Node12</title>
<path fill="none" stroke="midnightblue" d="M1035.27,-497.47C1059.44,-491.22 1096.06,-481.75 1122.82,-474.84"/>
<polygon fill="midnightblue" stroke="midnightblue" points="1123.74,-478.21 1132.55,-472.32 1121.99,-471.44 1123.74,-478.21"/>
</g>
<!-- Node14 -->
<g id="node14" class="node">
<title>Node14</title>
<g id="a_node14"><a xlink:href="namespaceconsole_1_1out.html#a8f791bfac54067cadb1b9f18117b987b" target="_top" xlink:title=" ">
<polygon fill="white" stroke="black" points="956,-304.5 956,-323.5 1062,-323.5 1062,-304.5 956,-304.5"/>
<text text-anchor="middle" x="1009" y="-311.5" font-family="Helvetica,sans-Serif" font-size="10.00">console::out::printVa</text>
</a>
</g>
</g>
<!-- Node13&#45;&gt;Node14 -->
<g id="edge13" class="edge">
<title>Node13&#45;&gt;Node14</title>
<path fill="none" stroke="midnightblue" d="M764.59,-314C813.7,-314 891.33,-314 945.68,-314"/>
<polygon fill="midnightblue" stroke="midnightblue" points="945.89,-317.5 955.89,-314 945.89,-310.5 945.89,-317.5"/>
</g>
<!-- Node15 -->
<g id="node15" class="node">
<title>Node15</title>
<g id="a_node15"><a xlink:href="namespaceconsole_1_1ge.html#af642934cb833142f133285fdb75ef7b7" target="_top" xlink:title=" ">
<polygon fill="white" stroke="black" points="1098,-209.5 1098,-228.5 1218,-228.5 1218,-209.5 1098,-209.5"/>
<text text-anchor="middle" x="1158" y="-216.5" font-family="Helvetica,sans-Serif" font-size="10.00">console::ge::printFmtVa</text>
</a>
</g>
</g>
<!-- Node14&#45;&gt;Node15 -->
<g id="edge14" class="edge">
<title>Node14&#45;&gt;Node15</title>
<path fill="none" stroke="midnightblue" d="M1024.9,-304.37C1050.44,-287.87 1102.74,-254.06 1133.32,-234.3"/>
<polygon fill="midnightblue" stroke="midnightblue" points="1135.56,-237.02 1142.06,-228.66 1131.76,-231.15 1135.56,-237.02"/>
</g>
<!-- Node21 -->
<g id="node21" class="node">
<title>Node21</title>
<g id="a_node21"><a xlink:href="namespaceconsole_1_1out.html#ad9fc97dff4404c2d21aedbb24691e7cb" target="_top" xlink:title=" ">
<polygon fill="white" stroke="black" points="1429,-304.5 1429,-323.5 1539,-323.5 1539,-304.5 1429,-304.5"/>
<text text-anchor="middle" x="1484" y="-311.5" font-family="Helvetica,sans-Serif" font-size="10.00">console::out::putChar</text>
</a>
</g>
</g>
<!-- Node14&#45;&gt;Node21 -->
<g id="edge31" class="edge">
<title>Node14&#45;&gt;Node21</title>
<path fill="none" stroke="midnightblue" d="M1062.43,-314C1149.6,-314 1324.09,-314 1418.6,-314"/>
<polygon fill="midnightblue" stroke="midnightblue" points="1418.88,-317.5 1428.88,-314 1418.88,-310.5 1418.88,-317.5"/>
</g>
<!-- Node15&#45;&gt;Node11 -->
<g id="edge17" class="edge">
<title>Node15&#45;&gt;Node11</title>
<path fill="none" stroke="midnightblue" d="M1163.56,-209.47C1175.05,-186.67 1207.6,-129.12 1254,-105 1344.61,-57.89 1380.87,-86 1483,-86 1483,-86 1483,-86 1654,-86 1868.59,-86 1940.47,-438.73 1955.02,-526.44"/>
<polygon fill="midnightblue" stroke="midnightblue" points="1951.58,-527.07 1956.61,-536.39 1958.49,-525.97 1951.58,-527.07"/>
</g>
<!-- Node16 -->
<g id="node16" class="node">
<title>Node16</title>
<g id="a_node16"><a xlink:href="printfmt_8cc.html#a708ec6ee2b8bd2d7a453d8d9436ed3b3" target="_top" xlink:title=" ">
<polygon fill="white" stroke="black" points="1288,-190.5 1288,-209.5 1346,-209.5 1346,-190.5 1288,-190.5"/>
<text text-anchor="middle" x="1317" y="-197.5" font-family="Helvetica,sans-Serif" font-size="10.00">_getIntVa</text>
</a>
</g>
</g>
<!-- Node15&#45;&gt;Node16 -->
<g id="edge15" class="edge">
<title>Node15&#45;&gt;Node16</title>
<path fill="none" stroke="midnightblue" d="M1218.35,-211.82C1238.24,-209.41 1259.88,-206.79 1277.72,-204.63"/>
<polygon fill="midnightblue" stroke="midnightblue" points="1278.23,-208.1 1287.74,-203.42 1277.39,-201.15 1278.23,-208.1"/>
</g>
<!-- Node17 -->
<g id="node17" class="node">
<title>Node17</title>
<g id="a_node17"><a xlink:href="printfmt_8cc.html#af4b46892c76c8bfd27efdb20847eb7c8" target="_top" xlink:title=" ">
<polygon fill="white" stroke="black" points="1284.5,-152.5 1284.5,-171.5 1349.5,-171.5 1349.5,-152.5 1284.5,-152.5"/>
<text text-anchor="middle" x="1317" y="-159.5" font-family="Helvetica,sans-Serif" font-size="10.00">_getUIntVa</text>
</a>
</g>
</g>
<!-- Node15&#45;&gt;Node17 -->
<g id="edge16" class="edge">
<title>Node15&#45;&gt;Node17</title>
<path fill="none" stroke="midnightblue" d="M1181.45,-209.41C1200.57,-201.38 1228.87,-189.86 1254,-181 1260.56,-178.69 1267.57,-176.38 1274.43,-174.22"/>
<polygon fill="midnightblue" stroke="midnightblue" points="1275.78,-177.46 1284.29,-171.16 1273.71,-170.78 1275.78,-177.46"/>
</g>
<!-- Node18 -->
<g id="node18" class="node">
<title>Node18</title>
<g id="a_node18"><a xlink:href="printfmt_8cc.html#a0e3e484ece5e75b9f5fbe337f0ae8ae3" target="_top" xlink:title=" ">
<polygon fill="white" stroke="black" points="1290.5,-114.5 1290.5,-133.5 1343.5,-133.5 1343.5,-114.5 1290.5,-114.5"/>
<text text-anchor="middle" x="1317" y="-121.5" font-family="Helvetica,sans-Serif" font-size="10.00">describe</text>
</a>
</g>
</g>
<!-- Node15&#45;&gt;Node18 -->
<g id="edge18" class="edge">
<title>Node15&#45;&gt;Node18</title>
<path fill="none" stroke="midnightblue" d="M1168.37,-209.43C1184.48,-193.5 1219.08,-161.45 1254,-143 1262.24,-138.64 1271.64,-135.12 1280.59,-132.34"/>
<polygon fill="midnightblue" stroke="midnightblue" points="1281.76,-135.64 1290.41,-129.52 1279.83,-128.92 1281.76,-135.64"/>
</g>
<!-- Node20 -->
<g id="node20" class="node">
<title>Node20</title>
<g id="a_node20"><a xlink:href="namespaceconsole_1_1ge.html#a7e301813fd34fde772376afc5fdad95d" target="_top" xlink:title=" ">
<polygon fill="white" stroke="black" points="1254,-228.5 1254,-247.5 1380,-247.5 1380,-228.5 1254,-228.5"/>
<text text-anchor="middle" x="1317" y="-235.5" font-family="Helvetica,sans-Serif" font-size="10.00">console::ge::printNumber</text>
</a>
</g>
</g>
<!-- Node15&#45;&gt;Node20 -->
<g id="edge20" class="edge">
<title>Node15&#45;&gt;Node20</title>
<path fill="none" stroke="midnightblue" d="M1218.35,-226.18C1226.72,-227.2 1235.39,-228.24 1243.96,-229.28"/>
<polygon fill="midnightblue" stroke="midnightblue" points="1243.6,-232.76 1253.95,-230.49 1244.44,-225.81 1243.6,-232.76"/>
</g>
<!-- Node15&#45;&gt;Node21 -->
<g id="edge30" class="edge">
<title>Node15&#45;&gt;Node21</title>
<path fill="none" stroke="midnightblue" d="M1180.58,-228.61C1199.63,-236.86 1228.3,-248.71 1254,-257 1312.12,-275.76 1380.2,-292 1426.93,-302.29"/>
<polygon fill="midnightblue" stroke="midnightblue" points="1426.34,-305.75 1436.86,-304.46 1427.84,-298.91 1426.34,-305.75"/>
</g>
<!-- Node19 -->
<g id="node19" class="node">
<title>Node19</title>
<g id="a_node19"><a xlink:href="namespacemonitor.html#a318993193c866642f8389a1c1f285739" target="_top" xlink:title=" ">
<polygon fill="white" stroke="black" points="1447,-114.5 1447,-133.5 1521,-133.5 1521,-114.5 1447,-114.5"/>
<text text-anchor="middle" x="1484" y="-121.5" font-family="Helvetica,sans-Serif" font-size="10.00">monitor::fuck</text>
</a>
</g>
</g>
<!-- Node18&#45;&gt;Node19 -->
<g id="edge19" class="edge">
<title>Node18&#45;&gt;Node19</title>
<path fill="none" stroke="midnightblue" d="M1343.78,-124C1368.59,-124 1406.66,-124 1436.73,-124"/>
<polygon fill="midnightblue" stroke="midnightblue" points="1436.99,-127.5 1446.99,-124 1436.99,-120.5 1436.99,-127.5"/>
</g>
<!-- Node20&#45;&gt;Node21 -->
<g id="edge21" class="edge">
<title>Node20&#45;&gt;Node21</title>
<path fill="none" stroke="midnightblue" d="M1344.48,-247.6C1355.56,-251.78 1368.5,-256.89 1380,-262 1406.39,-273.73 1435.72,-288.74 1456.31,-299.62"/>
<polygon fill="midnightblue" stroke="midnightblue" points="1454.92,-302.84 1465.39,-304.44 1458.2,-296.66 1454.92,-302.84"/>
</g>
<!-- Node22 -->
<g id="node22" class="node">
<title>Node22</title>
<g id="a_node22"><a xlink:href="namespaceconsole_1_1serial.html#a3a7c1f95ae3c24136ea63bb31fdf0391" target="_top" xlink:title=" ">
<polygon fill="white" stroke="black" points="1593,-19.5 1593,-38.5 1713,-38.5 1713,-19.5 1593,-19.5"/>
<text text-anchor="middle" x="1653" y="-26.5" font-family="Helvetica,sans-Serif" font-size="10.00">console::serial::putChar</text>
</a>
</g>
</g>
<!-- Node21&#45;&gt;Node22 -->
<g id="edge22" class="edge">
<title>Node21&#45;&gt;Node22</title>
<path fill="none" stroke="midnightblue" d="M1490.75,-304.19C1514.99,-262.82 1609.08,-102.25 1641.19,-47.45"/>
<polygon fill="midnightblue" stroke="midnightblue" points="1644.24,-49.17 1646.28,-38.77 1638.2,-45.63 1644.24,-49.17"/>
</g>
<!-- Node25 -->
<g id="node25" class="node">
<title>Node25</title>
<g id="a_node25"><a xlink:href="namespaceconsole_1_1cga.html#afa19057ca041b39682d5d4831c43dfa0" target="_top" xlink:title=" ">
<polygon fill="white" stroke="black" points="1596.5,-304.5 1596.5,-323.5 1709.5,-323.5 1709.5,-304.5 1596.5,-304.5"/>
<text text-anchor="middle" x="1653" y="-311.5" font-family="Helvetica,sans-Serif" font-size="10.00">console::cga::putChar</text>
</a>
</g>
</g>
<!-- Node21&#45;&gt;Node25 -->
<g id="edge25" class="edge">
<title>Node21&#45;&gt;Node25</title>
<path fill="none" stroke="midnightblue" d="M1539.22,-314C1554.22,-314 1570.66,-314 1586.24,-314"/>
<polygon fill="midnightblue" stroke="midnightblue" points="1586.33,-317.5 1596.33,-314 1586.33,-310.5 1586.33,-317.5"/>
</g>
<!-- Node23 -->
<g id="node23" class="node">
<title>Node23</title>
<g id="a_node23"><a xlink:href="namespaceconsole_1_1serial.html#aa5605d4537106bb1c2bab72d7d1a5824" target="_top" xlink:title=" ">
<polygon fill="white" stroke="black" points="1772,-0.5 1772,-19.5 1876,-19.5 1876,-0.5 1772,-0.5"/>
<text text-anchor="middle" x="1824" y="-7.5" font-family="Helvetica,sans-Serif" font-size="10.00">console::serial::sout</text>
</a>
</g>
</g>
<!-- Node22&#45;&gt;Node23 -->
<g id="edge23" class="edge">
<title>Node22&#45;&gt;Node23</title>
<path fill="none" stroke="midnightblue" d="M1713.11,-22.35C1728.8,-20.59 1745.79,-18.68 1761.6,-16.9"/>
<polygon fill="midnightblue" stroke="midnightblue" points="1762.25,-20.35 1771.8,-15.76 1761.47,-13.4 1762.25,-20.35"/>
</g>
<!-- Node24 -->
<g id="node24" class="node">
<title>Node24</title>
<g id="a_node24"><a xlink:href="x86_8h.html#ade961b44e45ddacbc3c3b7609cf36dc6" target="_top" xlink:title=" ">
<polygon fill="white" stroke="black" points="1941.5,-19.5 1941.5,-38.5 1976.5,-38.5 1976.5,-19.5 1941.5,-19.5"/>
<text text-anchor="middle" x="1959" y="-26.5" font-family="Helvetica,sans-Serif" font-size="10.00">outb</text>
</a>
</g>
</g>
<!-- Node23&#45;&gt;Node24 -->
<g id="edge24" class="edge">
<title>Node23&#45;&gt;Node24</title>
<path fill="none" stroke="midnightblue" d="M1876.04,-17.29C1894.85,-19.98 1915.4,-22.91 1931.22,-25.17"/>
<polygon fill="midnightblue" stroke="midnightblue" points="1930.95,-28.67 1941.34,-26.62 1931.94,-21.74 1930.95,-28.67"/>
</g>
<!-- Node26 -->
<g id="node26" class="node">
<title>Node26</title>
<g id="a_node26"><a xlink:href="namespacemem.html#a64d9d05b439041901498c606de606431" target="_top" xlink:title=" ">
<polygon fill="white" stroke="black" points="1791.5,-403.5 1791.5,-422.5 1856.5,-422.5 1856.5,-403.5 1791.5,-403.5"/>
<text text-anchor="middle" x="1824" y="-410.5" font-family="Helvetica,sans-Serif" font-size="10.00">mem::copy</text>
</a>
</g>
</g>
<!-- Node25&#45;&gt;Node26 -->
<g id="edge26" class="edge">
<title>Node25&#45;&gt;Node26</title>
<path fill="none" stroke="midnightblue" d="M1670.51,-323.67C1700.25,-341.09 1762.95,-377.83 1797.98,-398.35"/>
<polygon fill="midnightblue" stroke="midnightblue" points="1796.27,-401.4 1806.67,-403.43 1799.81,-395.36 1796.27,-401.4"/>
</g>
<!-- Node27 -->
<g id="node27" class="node">
<title>Node27</title>
<g id="a_node27"><a xlink:href="namespaceconsole_1_1cga.html#a06463d4dc68819e30615ba299d02a78f" target="_top" xlink:title=" ">
<polygon fill="white" stroke="black" points="1754,-38.5 1754,-57.5 1894,-57.5 1894,-38.5 1754,-38.5"/>
<text text-anchor="middle" x="1824" y="-45.5" font-family="Helvetica,sans-Serif" font-size="10.00">console::cga::cursorRefresh</text>
</a>
</g>
</g>
<!-- Node25&#45;&gt;Node27 -->
<g id="edge28" class="edge">
<title>Node25&#45;&gt;Node27</title>
<path fill="none" stroke="midnightblue" d="M1660.22,-304.22C1685.22,-264.86 1778.68,-117.75 1811.51,-66.08"/>
<polygon fill="midnightblue" stroke="midnightblue" points="1814.5,-67.91 1816.91,-57.59 1808.59,-64.15 1814.5,-67.91"/>
</g>
<!-- Node26&#45;&gt;Node11 -->
<g id="edge27" class="edge">
<title>Node26&#45;&gt;Node11</title>
<path fill="none" stroke="midnightblue" d="M1836.57,-422.74C1850.56,-434.66 1874.63,-455.66 1894,-475 1911.47,-492.45 1930.26,-513.6 1942.92,-528.25"/>
<polygon fill="midnightblue" stroke="midnightblue" points="1940.45,-530.75 1949.62,-536.06 1945.76,-526.19 1940.45,-530.75"/>
</g>
<!-- Node27&#45;&gt;Node24 -->
<g id="edge29" class="edge">
<title>Node27&#45;&gt;Node24</title>
<path fill="none" stroke="midnightblue" d="M1891.89,-38.44C1905.81,-36.46 1919.71,-34.47 1931.15,-32.84"/>
<polygon fill="midnightblue" stroke="midnightblue" points="1931.87,-36.27 1941.28,-31.39 1930.88,-29.34 1931.87,-36.27"/>
</g>
<!-- Node29 -->
<g id="node29" class="node">
<title>Node29</title>
<g id="a_node29"><a xlink:href="namespaceconsole_1_1err.html#a4cd18e4c409b5b17ecec61ce83b05fba" target="_top" xlink:title=" ">
<polygon fill="white" stroke="black" points="957,-380.5 957,-399.5 1061,-399.5 1061,-380.5 957,-380.5"/>
<text text-anchor="middle" x="1009" y="-387.5" font-family="Helvetica,sans-Serif" font-size="10.00">console::err::printVa</text>
</a>
</g>
</g>
<!-- Node28&#45;&gt;Node29 -->
<g id="edge33" class="edge">
<title>Node28&#45;&gt;Node29</title>
<path fill="none" stroke="midnightblue" d="M763.31,-390C812.55,-390 891.51,-390 946.36,-390"/>
<polygon fill="midnightblue" stroke="midnightblue" points="946.65,-393.5 956.65,-390 946.65,-386.5 946.65,-393.5"/>
</g>
<!-- Node29&#45;&gt;Node15 -->
<g id="edge34" class="edge">
<title>Node29&#45;&gt;Node15</title>
<path fill="none" stroke="midnightblue" d="M1018.97,-380.44C1029.44,-369.21 1047.21,-349.96 1062,-333 1091.3,-299.4 1124.39,-259.14 1142.76,-236.57"/>
<polygon fill="midnightblue" stroke="midnightblue" points="1145.67,-238.55 1149.26,-228.58 1140.24,-234.13 1145.67,-238.55"/>
</g>
<!-- Node29&#45;&gt;Node21 -->
<g id="edge35" class="edge">
<title>Node29&#45;&gt;Node21</title>
<path fill="none" stroke="midnightblue" d="M1061.02,-393.05C1133.37,-395.97 1269.3,-396.18 1380,-366 1409.33,-358 1440.08,-341.21 1460.26,-328.87"/>
<polygon fill="midnightblue" stroke="midnightblue" points="1462.13,-331.83 1468.75,-323.55 1458.42,-325.89 1462.13,-331.83"/>
</g>
<!-- Node31 -->
<g id="node31" class="node">
<title>Node31</title>
<g id="a_node31"><a xlink:href="namespaceconsole_1_1in.html#ac28354dad0498aa6bb0c178b10d62c8a" target="_top" xlink:title=" ">
<polygon fill="white" stroke="black" points="805,-342.5 805,-361.5 920,-361.5 920,-342.5 805,-342.5"/>
<text text-anchor="middle" x="862.5" y="-349.5" font-family="Helvetica,sans-Serif" font-size="10.00">console::in::readlineVa</text>
</a>
</g>
</g>
<!-- Node30&#45;&gt;Node31 -->
<g id="edge37" class="edge">
<title>Node30&#45;&gt;Node31</title>
<path fill="none" stroke="midnightblue" d="M769.4,-352C777.52,-352 786.02,-352 794.43,-352"/>
<polygon fill="midnightblue" stroke="midnightblue" points="794.62,-355.5 804.62,-352 794.62,-348.5 794.62,-355.5"/>
</g>
<!-- Node31&#45;&gt;Node14 -->
<g id="edge39" class="edge">
<title>Node31&#45;&gt;Node14</title>
<path fill="none" stroke="midnightblue" d="M899.96,-342.41C918.77,-337.46 941.91,-331.38 961.95,-326.11"/>
<polygon fill="midnightblue" stroke="midnightblue" points="963.02,-329.45 971.8,-323.52 961.24,-322.68 963.02,-329.45"/>
</g>
<!-- Node31&#45;&gt;Node21 -->
<g id="edge40" class="edge">
<title>Node31&#45;&gt;Node21</title>
<path fill="none" stroke="midnightblue" d="M920.17,-351.01C1015.35,-348.98 1213.27,-343.17 1380,-328 1392.55,-326.86 1405.92,-325.3 1418.72,-323.63"/>
<polygon fill="midnightblue" stroke="midnightblue" points="1419.4,-327.07 1428.85,-322.28 1418.47,-320.13 1419.4,-327.07"/>
</g>
<!-- Node32 -->
<g id="node32" class="node">
<title>Node32</title>
<g id="a_node32"><a xlink:href="namespaceconsole_1_1in.html#a6fc069f2bc57fda183e3b991c31ec5a7" target="_top" xlink:title=" ">
<polygon fill="white" stroke="black" points="957,-247.5 957,-266.5 1061,-266.5 1061,-247.5 957,-247.5"/>
<text text-anchor="middle" x="1009" y="-254.5" font-family="Helvetica,sans-Serif" font-size="10.00">console::in::getChar</text>
</a>
</g>
</g>
<!-- Node31&#45;&gt;Node32 -->
<g id="edge38" class="edge">
<title>Node31&#45;&gt;Node32</title>
<path fill="none" stroke="midnightblue" d="M878.15,-342.37C903.25,-325.87 954.67,-292.06 984.72,-272.3"/>
<polygon fill="midnightblue" stroke="midnightblue" points="986.88,-275.08 993.31,-266.66 983.03,-269.23 986.88,-275.08"/>
</g>
<!-- Node33&#45;&gt;Node32 -->
<g id="edge43" class="edge">
<title>Node33&#45;&gt;Node32</title>
<path fill="none" stroke="midnightblue" d="M501.64,-248.74C600.58,-250.36 834.89,-254.18 946.64,-256"/>
<polygon fill="midnightblue" stroke="midnightblue" points="946.69,-259.5 956.74,-256.16 946.8,-252.5 946.69,-259.5"/>
</g>
<!-- Node34&#45;&gt;Node4 -->
<g id="edge46" class="edge">
<title>Node34&#45;&gt;Node4</title>
<path fill="none" stroke="midnightblue" d="M322.82,-380.37C339.11,-369.27 367.24,-350.91 393,-338 400.59,-334.19 408.95,-330.57 416.97,-327.34"/>
<polygon fill="midnightblue" stroke="midnightblue" points="418.47,-330.51 426.52,-323.61 415.93,-323.99 418.47,-330.51"/>
</g>
<!-- Node34&#45;&gt;Node11 -->
<g id="edge45" class="edge">
<title>Node34&#45;&gt;Node11</title>
<path fill="none" stroke="midnightblue" d="M311.89,-399.79C328.6,-454.2 418.21,-717 590,-717 590,-717 590,-717 1654,-717 1764.75,-717 1805.55,-716.64 1894,-650 1923.07,-628.1 1941.94,-588.79 1951.21,-565.28"/>
<polygon fill="midnightblue" stroke="midnightblue" points="1954.56,-566.3 1954.8,-555.71 1948.01,-563.84 1954.56,-566.3"/>
</g>
<!-- Node34&#45;&gt;Node13 -->
<g id="edge47" class="edge">
<title>Node34&#45;&gt;Node13</title>
<path fill="none" stroke="midnightblue" d="M357.09,-382.03C419.79,-371.5 532.82,-352.06 629,-333 640.38,-330.75 652.56,-328.18 664.09,-325.68"/>
<polygon fill="midnightblue" stroke="midnightblue" points="665.01,-329.06 674.03,-323.51 663.51,-322.22 665.01,-329.06"/>
</g>
<!-- Node34&#45;&gt;Node21 -->
<g id="edge48" class="edge">
<title>Node34&#45;&gt;Node21</title>
<path fill="none" stroke="midnightblue" d="M352.56,-399.59C407.59,-410.85 505.33,-428 590,-428 590,-428 590,-428 1159,-428 1258.66,-428 1288.32,-429.08 1380,-390 1413.81,-375.59 1446.92,-348.08 1466.13,-330.41"/>
<polygon fill="midnightblue" stroke="midnightblue" points="1468.58,-332.91 1473.47,-323.51 1463.78,-327.81 1468.58,-332.91"/>
</g>
<!-- Node35 -->
<g id="node35" class="node">
<title>Node35</title>
<g id="a_node35"><a xlink:href="namespacevmem_1_1pgdir.html#ac95ef4d1250d2d48baf0c3f907025f45" target="_top" xlink:title=" ">
<polygon fill="white" stroke="black" points="393,-508.5 393,-527.5 517,-527.5 517,-508.5 393,-508.5"/>
<text text-anchor="middle" x="455" y="-515.5" font-family="Helvetica,sans-Serif" font-size="10.00">vmem::pgdir::userCheck</text>
</a>
</g>
</g>
<!-- Node34&#45;&gt;Node35 -->
<g id="edge49" class="edge">
<title>Node34&#45;&gt;Node35</title>
<path fill="none" stroke="midnightblue" d="M319.9,-399.62C344.46,-421.3 404.39,-474.21 435.13,-501.34"/>
<polygon fill="midnightblue" stroke="midnightblue" points="433.16,-504.27 442.97,-508.27 437.79,-499.03 433.16,-504.27"/>
</g>
<!-- Node36 -->
<g id="node36" class="node">
<title>Node36</title>
<g id="a_node36"><a xlink:href="namespacevmem_1_1pgdir.html#a933a8f939084dabdb1a4b5401bebf8d7" target="_top" xlink:title=" ">
<polygon fill="white" stroke="black" points="1263.5,-574.5 1263.5,-593.5 1370.5,-593.5 1370.5,-574.5 1263.5,-574.5"/>
<text text-anchor="middle" x="1317" y="-581.5" font-family="Helvetica,sans-Serif" font-size="10.00">vmem::pgdir::findPte</text>
</a>
</g>
</g>
<!-- Node35&#45;&gt;Node36 -->
<g id="edge50" class="edge">
<title>Node35&#45;&gt;Node36</title>
<path fill="none" stroke="midnightblue" d="M484.48,-527.54C531.92,-542.55 630.38,-570 716,-570 716,-570 716,-570 1010,-570 1094.25,-570 1191.42,-575.36 1253.25,-579.45"/>
<polygon fill="midnightblue" stroke="midnightblue" points="1253.03,-582.94 1263.24,-580.12 1253.49,-575.96 1253.03,-582.94"/>
</g>
<!-- Node37 -->
<g id="node37" class="node">
<title>Node37</title>
<g id="a_node37"><a xlink:href="structvmem_1_1_page_info.html#afcdcb7e941219a8ec999353658e3c2aa" target="_top" xlink:title=" ">
<polygon fill="white" stroke="black" points="1426.5,-631.5 1426.5,-650.5 1541.5,-650.5 1541.5,-631.5 1426.5,-631.5"/>
<text text-anchor="middle" x="1484" y="-638.5" font-family="Helvetica,sans-Serif" font-size="10.00">vmem::PageInfo::alloc</text>
</a>
</g>
</g>
<!-- Node36&#45;&gt;Node37 -->
<g id="edge51" class="edge">
<title>Node36&#45;&gt;Node37</title>
<path fill="none" stroke="midnightblue" d="M1345.62,-593.54C1372.98,-602.99 1415.09,-617.54 1445.48,-628.04"/>
<polygon fill="midnightblue" stroke="midnightblue" points="1444.7,-631.47 1455.29,-631.43 1446.98,-624.85 1444.7,-631.47"/>
</g>
<!-- Node38 -->
<g id="node38" class="node">
<title>Node38</title>
<g id="a_node38"><a xlink:href="namespacemem.html#a981dd0cb1408b798a79443c6245e9c55" target="_top" xlink:title=" ">
<polygon fill="white" stroke="black" points="1620.5,-631.5 1620.5,-650.5 1685.5,-650.5 1685.5,-631.5 1620.5,-631.5"/>
<text text-anchor="middle" x="1653" y="-638.5" font-family="Helvetica,sans-Serif" font-size="10.00">mem::clear</text>
</a>
</g>
</g>
<!-- Node36&#45;&gt;Node38 -->
<g id="edge58" class="edge">
<title>Node36&#45;&gt;Node38</title>
<path fill="none" stroke="midnightblue" d="M1326.22,-593.63C1341.69,-610.93 1377.09,-646.68 1416,-660 1482.62,-682.81 1565.76,-666.58 1613.48,-653.35"/>
<polygon fill="midnightblue" stroke="midnightblue" points="1614.46,-656.71 1623.11,-650.59 1612.53,-649.98 1614.46,-656.71"/>
</g>
<!-- Node40 -->
<g id="node40" class="node">
<title>Node40</title>
<g id="a_node40"><a xlink:href="structvmem_1_1_page_info.html#afc863f1d364462ddd2c20bf31f588337" target="_top" xlink:title=" ">
<polygon fill="white" stroke="black" points="1588,-593.5 1588,-612.5 1718,-612.5 1718,-593.5 1588,-593.5"/>
<text text-anchor="middle" x="1653" y="-600.5" font-family="Helvetica,sans-Serif" font-size="10.00">vmem::PageInfo::toKernV</text>
</a>
</g>
</g>
<!-- Node36&#45;&gt;Node40 -->
<g id="edge61" class="edge">
<title>Node36&#45;&gt;Node40</title>
<path fill="none" stroke="midnightblue" d="M1370.55,-586.99C1426.24,-590.16 1514.64,-595.19 1577.5,-598.76"/>
<polygon fill="midnightblue" stroke="midnightblue" points="1577.57,-602.27 1587.75,-599.35 1577.96,-595.28 1577.57,-602.27"/>
</g>
<!-- Node41 -->
<g id="node41" class="node">
<title>Node41</title>
<g id="a_node41"><a xlink:href="structvmem_1_1_page_info.html#accf2071c7875c29c9aa78a01ef5963a1" target="_top" xlink:title=" ">
<polygon fill="white" stroke="black" points="1764,-555.5 1764,-574.5 1884,-574.5 1884,-555.5 1764,-555.5"/>
<text text-anchor="middle" x="1824" y="-562.5" font-family="Helvetica,sans-Serif" font-size="10.00">vmem::PageInfo::toPhy</text>
</a>
</g>
</g>
<!-- Node36&#45;&gt;Node41 -->
<g id="edge62" class="edge">
<title>Node36&#45;&gt;Node41</title>
<path fill="none" stroke="midnightblue" d="M1370.61,-582.02C1462.33,-578.57 1651.42,-571.46 1753.69,-567.61"/>
<polygon fill="midnightblue" stroke="midnightblue" points="1754.05,-571.1 1763.91,-567.22 1753.79,-564.1 1754.05,-571.1"/>
</g>
<!-- Node42 -->
<g id="node42" class="node">
<title>Node42</title>
<g id="a_node42"><a xlink:href="namespacevmem_1_1pgdir.html#a972bb045d4c58b0ea9c569e05831bbb6" target="_top" xlink:title=" ">
<polygon fill="white" stroke="black" points="1416,-517.5 1416,-536.5 1552,-536.5 1552,-517.5 1416,-517.5"/>
<text text-anchor="middle" x="1484" y="-524.5" font-family="Helvetica,sans-Serif" font-size="10.00">vmem::pgdir::invalidateTLB</text>
</a>
</g>
</g>
<!-- Node36&#45;&gt;Node42 -->
<g id="edge59" class="edge">
<title>Node36&#45;&gt;Node42</title>
<path fill="none" stroke="midnightblue" d="M1345.62,-574.46C1372.98,-565.01 1415.09,-550.46 1445.48,-539.96"/>
<polygon fill="midnightblue" stroke="midnightblue" points="1446.98,-543.15 1455.29,-536.57 1444.7,-536.53 1446.98,-543.15"/>
</g>
<!-- Node37&#45;&gt;Node38 -->
<g id="edge52" class="edge">
<title>Node37&#45;&gt;Node38</title>
<path fill="none" stroke="midnightblue" d="M1541.54,-641C1564.04,-641 1589.47,-641 1610.26,-641"/>
<polygon fill="midnightblue" stroke="midnightblue" points="1610.36,-644.5 1620.36,-641 1610.36,-637.5 1610.36,-644.5"/>
</g>
<!-- Node37&#45;&gt;Node40 -->
<g id="edge56" class="edge">
<title>Node37&#45;&gt;Node40</title>
<path fill="none" stroke="midnightblue" d="M1527.14,-631.41C1549.38,-626.35 1576.85,-620.1 1600.36,-614.75"/>
<polygon fill="midnightblue" stroke="midnightblue" points="1601.19,-618.15 1610.16,-612.52 1599.63,-611.33 1601.19,-618.15"/>
</g>
<!-- Node38&#45;&gt;Node11 -->
<g id="edge53" class="edge">
<title>Node38&#45;&gt;Node11</title>
<path fill="none" stroke="midnightblue" d="M1685.61,-645.88C1733.59,-651.71 1826.35,-656.79 1894,-622 1918.59,-609.35 1937.48,-582.74 1948.17,-564.62"/>
<polygon fill="midnightblue" stroke="midnightblue" points="1951.41,-566 1953.24,-555.56 1945.3,-562.57 1951.41,-566"/>
</g>
<!-- Node39 -->
<g id="node39" class="node">
<title>Node39</title>
<g id="a_node39"><a xlink:href="namespacemem.html#adbaba9127c03fb914f752bfe19d6d089" target="_top" xlink:title=" ">
<polygon fill="white" stroke="black" points="1795,-593.5 1795,-612.5 1853,-612.5 1853,-593.5 1795,-593.5"/>
<text text-anchor="middle" x="1824" y="-600.5" font-family="Helvetica,sans-Serif" font-size="10.00">mem::set</text>
</a>
</g>
</g>
<!-- Node38&#45;&gt;Node39 -->
<g id="edge54" class="edge">
<title>Node38&#45;&gt;Node39</title>
<path fill="none" stroke="midnightblue" d="M1685.79,-633.85C1713.93,-627.53 1755.05,-618.28 1784.94,-611.56"/>
<polygon fill="midnightblue" stroke="midnightblue" points="1786.01,-614.9 1795,-609.3 1784.48,-608.07 1786.01,-614.9"/>
</g>
<!-- Node39&#45;&gt;Node11 -->
<g id="edge55" class="edge">
<title>Node39&#45;&gt;Node11</title>
<path fill="none" stroke="midnightblue" d="M1853.11,-597.07C1865.86,-593.92 1880.97,-589.55 1894,-584 1908.59,-577.79 1923.9,-568.8 1935.89,-561.13"/>
<polygon fill="midnightblue" stroke="midnightblue" points="1937.9,-563.99 1944.34,-555.58 1934.06,-558.14 1937.9,-563.99"/>
</g>
<!-- Node40&#45;&gt;Node41 -->
<g id="edge57" class="edge">
<title>Node40&#45;&gt;Node41</title>
<path fill="none" stroke="midnightblue" d="M1696.65,-593.41C1719.15,-588.35 1746.95,-582.1 1770.74,-576.75"/>
<polygon fill="midnightblue" stroke="midnightblue" points="1771.67,-580.13 1780.66,-574.52 1770.14,-573.3 1771.67,-580.13"/>
</g>
<!-- Node43 -->
<g id="node43" class="node">
<title>Node43</title>
<g id="a_node43"><a xlink:href="x86_8h.html#a2c1c4c8523ed258a75c563a8f94d1686" target="_top" xlink:title=" ">
<polygon fill="white" stroke="black" points="1632,-517.5 1632,-536.5 1674,-536.5 1674,-517.5 1632,-517.5"/>
<text text-anchor="middle" x="1653" y="-524.5" font-family="Helvetica,sans-Serif" font-size="10.00">invlpg</text>
</a>
</g>
</g>
<!-- Node42&#45;&gt;Node43 -->
<g id="edge60" class="edge">
<title>Node42&#45;&gt;Node43</title>
<path fill="none" stroke="midnightblue" d="M1552.44,-527C1576.58,-527 1602.58,-527 1621.95,-527"/>
<polygon fill="midnightblue" stroke="midnightblue" points="1621.98,-530.5 1631.98,-527 1621.98,-523.5 1621.98,-530.5"/>
</g>
</g>
</svg>
