<?xml version="1.0" encoding="UTF-8" standalone="no"?>
<!DOCTYPE svg PUBLIC "-//W3C//DTD SVG 1.1//EN"
 "http://www.w3.org/Graphics/SVG/1.1/DTD/svg11.dtd">
<!-- Generated by graphviz version 2.44.1 (20200629.0846)
 -->
<!-- Title: vmem::utils::dumpV Pages: 1 -->
<svg width="1311pt" height="463pt"
 viewBox="0.00 0.00 1311.00 462.66" xmlns="http://www.w3.org/2000/svg" xmlns:xlink="http://www.w3.org/1999/xlink">
<g id="graph0" class="graph" transform="scale(1 1) rotate(0) translate(4 458.66)">
<title>vmem::utils::dumpV</title>
<polygon fill="white" stroke="transparent" points="-4,4 -4,-458.66 1307,-458.66 1307,4 -4,4"/>
<!-- Node1 -->
<g id="node1" class="node">
<title>Node1</title>
<g id="a_node1"><a xlink:title=" ">
<polygon fill="#bfbfbf" stroke="black" points="0,-148.23 0,-167.23 104,-167.23 104,-148.23 0,-148.23"/>
<text text-anchor="middle" x="52" y="-155.23" font-family="Helvetica,sans-Serif" font-size="10.00">vmem::utils::dumpV</text>
</a>
</g>
</g>
<!-- Node2 -->
<g id="node2" class="node">
<title>Node2</title>
<g id="a_node2"><a xlink:href="namespacevmem_1_1pgdir.html#a933a8f939084dabdb1a4b5401bebf8d7" target="_top" xlink:title=" ">
<polygon fill="white" stroke="black" points="578.5,-357.23 578.5,-376.23 685.5,-376.23 685.5,-357.23 578.5,-357.23"/>
<text text-anchor="middle" x="632" y="-364.23" font-family="Helvetica,sans-Serif" font-size="10.00">vmem::pgdir::findPte</text>
</a>
</g>
</g>
<!-- Node1&#45;&gt;Node2 -->
<g id="edge1" class="edge">
<title>Node1&#45;&gt;Node2</title>
<path fill="none" stroke="midnightblue" d="M79.34,-167.26C172.62,-200.99 487.43,-314.82 594.78,-353.64"/>
<polygon fill="midnightblue" stroke="midnightblue" points="593.91,-357.05 604.51,-357.15 596.29,-350.46 593.91,-357.05"/>
</g>
<!-- Node11 -->
<g id="node11" class="node">
<title>Node11</title>
<g id="a_node11"><a xlink:href="namespaceconsole_1_1out.html#ac6f663e3971b66b8e130ee94755a150e" target="_top" xlink:title=" ">
<polygon fill="white" stroke="black" points="140,-148.23 140,-167.23 235,-167.23 235,-148.23 140,-148.23"/>
<text text-anchor="middle" x="187.5" y="-155.23" font-family="Helvetica,sans-Serif" font-size="10.00">console::out::print</text>
</a>
</g>
</g>
<!-- Node1&#45;&gt;Node11 -->
<g id="edge14" class="edge">
<title>Node1&#45;&gt;Node11</title>
<path fill="none" stroke="midnightblue" d="M104.23,-157.73C112.6,-157.73 121.31,-157.73 129.79,-157.73"/>
<polygon fill="midnightblue" stroke="midnightblue" points="130,-161.23 140,-157.73 130,-154.23 130,-161.23"/>
</g>
<!-- Node26 -->
<g id="node26" class="node">
<title>Node26</title>
<g id="a_node26"><a xlink:href="namespaceconsole_1_1err.html#a124c7e8527c0e3fd2b9636411aea7e82" target="_top" xlink:title=" ">
<polygon fill="white" stroke="black" points="141.5,-110.23 141.5,-129.23 233.5,-129.23 233.5,-110.23 141.5,-110.23"/>
<text text-anchor="middle" x="187.5" y="-117.23" font-family="Helvetica,sans-Serif" font-size="10.00">console::err::print</text>
</a>
</g>
</g>
<!-- Node1&#45;&gt;Node26 -->
<g id="edge34" class="edge">
<title>Node1&#45;&gt;Node26</title>
<path fill="none" stroke="midnightblue" d="M86.69,-148.14C103.76,-143.28 124.7,-137.32 142.98,-132.12"/>
<polygon fill="midnightblue" stroke="midnightblue" points="144.16,-135.42 152.82,-129.32 142.25,-128.69 144.16,-135.42"/>
</g>
<!-- Node3 -->
<g id="node3" class="node">
<title>Node3</title>
<g id="a_node3"><a xlink:href="structvmem_1_1_page_info.html#afcdcb7e941219a8ec999353658e3c2aa" target="_top" xlink:title=" ">
<polygon fill="white" stroke="black" points="741.5,-414.23 741.5,-433.23 856.5,-433.23 856.5,-414.23 741.5,-414.23"/>
<text text-anchor="middle" x="799" y="-421.23" font-family="Helvetica,sans-Serif" font-size="10.00">vmem::PageInfo::alloc</text>
</a>
</g>
</g>
<!-- Node2&#45;&gt;Node3 -->
<g id="edge2" class="edge">
<title>Node2&#45;&gt;Node3</title>
<path fill="none" stroke="midnightblue" d="M660.62,-376.27C687.98,-385.73 730.09,-400.27 760.48,-410.77"/>
<polygon fill="midnightblue" stroke="midnightblue" points="759.7,-414.21 770.29,-414.16 761.98,-407.59 759.7,-414.21"/>
</g>
<!-- Node4 -->
<g id="node4" class="node">
<title>Node4</title>
<g id="a_node4"><a xlink:href="namespacemem.html#a981dd0cb1408b798a79443c6245e9c55" target="_top" xlink:title=" ">
<polygon fill="white" stroke="black" points="935.5,-414.23 935.5,-433.23 1000.5,-433.23 1000.5,-414.23 935.5,-414.23"/>
<text text-anchor="middle" x="968" y="-421.23" font-family="Helvetica,sans-Serif" font-size="10.00">mem::clear</text>
</a>
</g>
</g>
<!-- Node2&#45;&gt;Node4 -->
<g id="edge9" class="edge">
<title>Node2&#45;&gt;Node4</title>
<path fill="none" stroke="midnightblue" d="M641.22,-376.37C656.69,-393.66 692.09,-429.42 731,-442.73 797.62,-465.54 880.76,-449.31 928.48,-436.08"/>
<polygon fill="midnightblue" stroke="midnightblue" points="929.46,-439.44 938.11,-433.32 927.53,-432.71 929.46,-439.44"/>
</g>
<!-- Node7 -->
<g id="node7" class="node">
<title>Node7</title>
<g id="a_node7"><a xlink:href="structvmem_1_1_page_info.html#afc863f1d364462ddd2c20bf31f588337" target="_top" xlink:title=" ">
<polygon fill="white" stroke="black" points="903,-376.23 903,-395.23 1033,-395.23 1033,-376.23 903,-376.23"/>
<text text-anchor="middle" x="968" y="-383.23" font-family="Helvetica,sans-Serif" font-size="10.00">vmem::PageInfo::toKernV</text>
</a>
</g>
</g>
<!-- Node2&#45;&gt;Node7 -->
<g id="edge12" class="edge">
<title>Node2&#45;&gt;Node7</title>
<path fill="none" stroke="midnightblue" d="M685.55,-369.72C741.24,-372.89 829.64,-377.92 892.5,-381.5"/>
<polygon fill="midnightblue" stroke="midnightblue" points="892.57,-385.01 902.75,-382.08 892.96,-378.02 892.57,-385.01"/>
</g>
<!-- Node8 -->
<g id="node8" class="node">
<title>Node8</title>
<g id="a_node8"><a xlink:href="structvmem_1_1_page_info.html#accf2071c7875c29c9aa78a01ef5963a1" target="_top" xlink:title=" ">
<polygon fill="white" stroke="black" points="1079,-319.23 1079,-338.23 1199,-338.23 1199,-319.23 1079,-319.23"/>
<text text-anchor="middle" x="1139" y="-326.23" font-family="Helvetica,sans-Serif" font-size="10.00">vmem::PageInfo::toPhy</text>
</a>
</g>
</g>
<!-- Node2&#45;&gt;Node8 -->
<g id="edge13" class="edge">
<title>Node2&#45;&gt;Node8</title>
<path fill="none" stroke="midnightblue" d="M651.54,-357.15C670.81,-347.77 702.12,-334.14 731,-328.73 847.89,-306.86 987,-313.75 1068.59,-321.03"/>
<polygon fill="midnightblue" stroke="midnightblue" points="1068.46,-324.54 1078.74,-321.97 1069.1,-317.57 1068.46,-324.54"/>
</g>
<!-- Node9 -->
<g id="node9" class="node">
<title>Node9</title>
<g id="a_node9"><a xlink:href="namespacevmem_1_1pgdir.html#a972bb045d4c58b0ea9c569e05831bbb6" target="_top" xlink:title=" ">
<polygon fill="white" stroke="black" points="731,-338.23 731,-357.23 867,-357.23 867,-338.23 731,-338.23"/>
<text text-anchor="middle" x="799" y="-345.23" font-family="Helvetica,sans-Serif" font-size="10.00">vmem::pgdir::invalidateTLB</text>
</a>
</g>
</g>
<!-- Node2&#45;&gt;Node9 -->
<g id="edge10" class="edge">
<title>Node2&#45;&gt;Node9</title>
<path fill="none" stroke="midnightblue" d="M685.66,-360.67C696.86,-359.38 708.91,-357.99 720.81,-356.62"/>
<polygon fill="midnightblue" stroke="midnightblue" points="721.21,-360.1 730.75,-355.48 720.41,-353.15 721.21,-360.1"/>
</g>
<!-- Node3&#45;&gt;Node4 -->
<g id="edge3" class="edge">
<title>Node3&#45;&gt;Node4</title>
<path fill="none" stroke="midnightblue" d="M856.54,-423.73C879.04,-423.73 904.47,-423.73 925.26,-423.73"/>
<polygon fill="midnightblue" stroke="midnightblue" points="925.36,-427.23 935.36,-423.73 925.36,-420.23 925.36,-427.23"/>
</g>
<!-- Node3&#45;&gt;Node7 -->
<g id="edge7" class="edge">
<title>Node3&#45;&gt;Node7</title>
<path fill="none" stroke="midnightblue" d="M842.14,-414.14C864.38,-409.09 891.85,-402.83 915.36,-397.49"/>
<polygon fill="midnightblue" stroke="midnightblue" points="916.19,-400.89 925.16,-395.25 914.63,-394.06 916.19,-400.89"/>
</g>
<!-- Node5 -->
<g id="node5" class="node">
<title>Node5</title>
<g id="a_node5"><a xlink:href="namespacestr.html#a062221f630647cf300f0dd982c4ed904" target="_top" xlink:title=" ">
<polygon fill="white" stroke="black" points="1245,-300.23 1245,-319.23 1303,-319.23 1303,-300.23 1245,-300.23"/>
<text text-anchor="middle" x="1274" y="-307.23" font-family="Helvetica,sans-Serif" font-size="10.00">str::count</text>
</a>
</g>
</g>
<!-- Node4&#45;&gt;Node5 -->
<g id="edge4" class="edge">
<title>Node4&#45;&gt;Node5</title>
<path fill="none" stroke="midnightblue" d="M1000.55,-416.28C1047.29,-404.68 1137.11,-380.23 1209,-347.73 1223.26,-341.29 1238.36,-332.43 1250.3,-324.9"/>
<polygon fill="midnightblue" stroke="midnightblue" points="1252.25,-327.81 1258.76,-319.45 1248.45,-321.92 1252.25,-327.81"/>
</g>
<!-- Node6 -->
<g id="node6" class="node">
<title>Node6</title>
<g id="a_node6"><a xlink:href="namespacemem.html#adbaba9127c03fb914f752bfe19d6d089" target="_top" xlink:title=" ">
<polygon fill="white" stroke="black" points="1110,-409.23 1110,-428.23 1168,-428.23 1168,-409.23 1110,-409.23"/>
<text text-anchor="middle" x="1139" y="-416.23" font-family="Helvetica,sans-Serif" font-size="10.00">mem::set</text>
</a>
</g>
</g>
<!-- Node4&#45;&gt;Node6 -->
<g id="edge5" class="edge">
<title>Node4&#45;&gt;Node6</title>
<path fill="none" stroke="midnightblue" d="M1000.79,-422.79C1028.93,-421.96 1070.05,-420.74 1099.94,-419.86"/>
<polygon fill="midnightblue" stroke="midnightblue" points="1100.11,-423.36 1110,-419.56 1099.9,-416.36 1100.11,-423.36"/>
</g>
<!-- Node6&#45;&gt;Node5 -->
<g id="edge6" class="edge">
<title>Node6&#45;&gt;Node5</title>
<path fill="none" stroke="midnightblue" d="M1166.39,-409.22C1179.92,-403.61 1196.19,-395.65 1209,-385.73 1230.41,-369.17 1249.62,-344.35 1261.28,-327.63"/>
<polygon fill="midnightblue" stroke="midnightblue" points="1264.24,-329.51 1266.95,-319.27 1258.44,-325.58 1264.24,-329.51"/>
</g>
<!-- Node7&#45;&gt;Node8 -->
<g id="edge8" class="edge">
<title>Node7&#45;&gt;Node8</title>
<path fill="none" stroke="midnightblue" d="M1002.66,-376.14C1012.48,-373.24 1023.2,-369.96 1033,-366.73 1056.58,-358.97 1082.84,-349.47 1103.2,-341.91"/>
<polygon fill="midnightblue" stroke="midnightblue" points="1104.54,-345.14 1112.68,-338.37 1102.09,-338.59 1104.54,-345.14"/>
</g>
<!-- Node10 -->
<g id="node10" class="node">
<title>Node10</title>
<g id="a_node10"><a xlink:href="x86_8h.html#a2c1c4c8523ed258a75c563a8f94d1686" target="_top" xlink:title=" ">
<polygon fill="white" stroke="black" points="947,-338.23 947,-357.23 989,-357.23 989,-338.23 947,-338.23"/>
<text text-anchor="middle" x="968" y="-345.23" font-family="Helvetica,sans-Serif" font-size="10.00">invlpg</text>
</a>
</g>
</g>
<!-- Node9&#45;&gt;Node10 -->
<g id="edge11" class="edge">
<title>Node9&#45;&gt;Node10</title>
<path fill="none" stroke="midnightblue" d="M867.44,-347.73C891.58,-347.73 917.58,-347.73 936.95,-347.73"/>
<polygon fill="midnightblue" stroke="midnightblue" points="936.98,-351.23 946.98,-347.73 936.98,-344.23 936.98,-351.23"/>
</g>
<!-- Node12 -->
<g id="node12" class="node">
<title>Node12</title>
<g id="a_node12"><a xlink:href="namespaceconsole_1_1out.html#a8f791bfac54067cadb1b9f18117b987b" target="_top" xlink:title=" ">
<polygon fill="white" stroke="black" points="271,-148.23 271,-167.23 377,-167.23 377,-148.23 271,-148.23"/>
<text text-anchor="middle" x="324" y="-155.23" font-family="Helvetica,sans-Serif" font-size="10.00">console::out::printVa</text>
</a>
</g>
</g>
<!-- Node11&#45;&gt;Node12 -->
<g id="edge15" class="edge">
<title>Node11&#45;&gt;Node12</title>
<path fill="none" stroke="midnightblue" d="M235.16,-157.73C243.45,-157.73 252.2,-157.73 260.84,-157.73"/>
<polygon fill="midnightblue" stroke="midnightblue" points="260.9,-161.23 270.9,-157.73 260.9,-154.23 260.9,-161.23"/>
</g>
<!-- Node13 -->
<g id="node13" class="node">
<title>Node13</title>
<g id="a_node13"><a xlink:href="namespaceconsole_1_1ge.html#af642934cb833142f133285fdb75ef7b7" target="_top" xlink:title=" ">
<polygon fill="white" stroke="black" points="413,-148.23 413,-167.23 533,-167.23 533,-148.23 413,-148.23"/>
<text text-anchor="middle" x="473" y="-155.23" font-family="Helvetica,sans-Serif" font-size="10.00">console::ge::printFmtVa</text>
</a>
</g>
</g>
<!-- Node12&#45;&gt;Node13 -->
<g id="edge16" class="edge">
<title>Node12&#45;&gt;Node13</title>
<path fill="none" stroke="midnightblue" d="M377.24,-157.73C385.54,-157.73 394.24,-157.73 402.86,-157.73"/>
<polygon fill="midnightblue" stroke="midnightblue" points="402.92,-161.23 412.92,-157.73 402.92,-154.23 402.92,-161.23"/>
</g>
<!-- Node19 -->
<g id="node19" class="node">
<title>Node19</title>
<g id="a_node19"><a xlink:href="namespaceconsole_1_1out.html#ad9fc97dff4404c2d21aedbb24691e7cb" target="_top" xlink:title=" ">
<polygon fill="white" stroke="black" points="744,-72.23 744,-91.23 854,-91.23 854,-72.23 744,-72.23"/>
<text text-anchor="middle" x="799" y="-79.23" font-family="Helvetica,sans-Serif" font-size="10.00">console::out::putChar</text>
</a>
</g>
</g>
<!-- Node12&#45;&gt;Node19 -->
<g id="edge33" class="edge">
<title>Node12&#45;&gt;Node19</title>
<path fill="none" stroke="midnightblue" d="M351.5,-148.2C359.7,-145.22 368.74,-141.88 377,-138.73 462.77,-106.09 478.85,-79.93 569,-62.73 624.01,-52.24 639.23,-57.63 695,-62.73 711.8,-64.27 729.94,-67.19 746.25,-70.28"/>
<polygon fill="midnightblue" stroke="midnightblue" points="745.66,-73.73 756.15,-72.22 747.01,-66.86 745.66,-73.73"/>
</g>
<!-- Node13&#45;&gt;Node5 -->
<g id="edge19" class="edge">
<title>Node13&#45;&gt;Node5</title>
<path fill="none" stroke="midnightblue" d="M480.17,-167.47C493.53,-187.57 527.31,-233.41 569,-252.73 661.66,-295.69 695.87,-271.73 798,-271.73 798,-271.73 798,-271.73 969,-271.73 1065.14,-271.73 1177.07,-290.68 1234.56,-301.81"/>
<polygon fill="midnightblue" stroke="midnightblue" points="1234.16,-305.3 1244.65,-303.8 1235.51,-298.43 1234.16,-305.3"/>
</g>
<!-- Node14 -->
<g id="node14" class="node">
<title>Node14</title>
<g id="a_node14"><a xlink:href="printfmt_8cc.html#a708ec6ee2b8bd2d7a453d8d9436ed3b3" target="_top" xlink:title=" ">
<polygon fill="white" stroke="black" points="603,-186.23 603,-205.23 661,-205.23 661,-186.23 603,-186.23"/>
<text text-anchor="middle" x="632" y="-193.23" font-family="Helvetica,sans-Serif" font-size="10.00">_getIntVa</text>
</a>
</g>
</g>
<!-- Node13&#45;&gt;Node14 -->
<g id="edge17" class="edge">
<title>Node13&#45;&gt;Node14</title>
<path fill="none" stroke="midnightblue" d="M513.62,-167.32C537.94,-173.21 568.92,-180.71 592.95,-186.53"/>
<polygon fill="midnightblue" stroke="midnightblue" points="592.24,-189.95 602.78,-188.9 593.89,-183.15 592.24,-189.95"/>
</g>
<!-- Node15 -->
<g id="node15" class="node">
<title>Node15</title>
<g id="a_node15"><a xlink:href="printfmt_8cc.html#af4b46892c76c8bfd27efdb20847eb7c8" target="_top" xlink:title=" ">
<polygon fill="white" stroke="black" points="599.5,-148.23 599.5,-167.23 664.5,-167.23 664.5,-148.23 599.5,-148.23"/>
<text text-anchor="middle" x="632" y="-155.23" font-family="Helvetica,sans-Serif" font-size="10.00">_getUIntVa</text>
</a>
</g>
</g>
<!-- Node13&#45;&gt;Node15 -->
<g id="edge18" class="edge">
<title>Node13&#45;&gt;Node15</title>
<path fill="none" stroke="midnightblue" d="M533.35,-157.73C551.91,-157.73 571.98,-157.73 589.07,-157.73"/>
<polygon fill="midnightblue" stroke="midnightblue" points="589.29,-161.23 599.29,-157.73 589.29,-154.23 589.29,-161.23"/>
</g>
<!-- Node16 -->
<g id="node16" class="node">
<title>Node16</title>
<g id="a_node16"><a xlink:href="printfmt_8cc.html#a0e3e484ece5e75b9f5fbe337f0ae8ae3" target="_top" xlink:title=" ">
<polygon fill="white" stroke="black" points="605.5,-224.23 605.5,-243.23 658.5,-243.23 658.5,-224.23 605.5,-224.23"/>
<text text-anchor="middle" x="632" y="-231.23" font-family="Helvetica,sans-Serif" font-size="10.00">describe</text>
</a>
</g>
</g>
<!-- Node13&#45;&gt;Node16 -->
<g id="edge20" class="edge">
<title>Node13&#45;&gt;Node16</title>
<path fill="none" stroke="midnightblue" d="M487.59,-167.34C505.53,-179.68 538.43,-201.12 569,-214.73 577.44,-218.49 586.85,-221.8 595.73,-224.55"/>
<polygon fill="midnightblue" stroke="midnightblue" points="594.87,-227.94 605.45,-227.42 596.85,-221.23 594.87,-227.94"/>
</g>
<!-- Node18 -->
<g id="node18" class="node">
<title>Node18</title>
<g id="a_node18"><a xlink:href="namespaceconsole_1_1ge.html#a7e301813fd34fde772376afc5fdad95d" target="_top" xlink:title=" ">
<polygon fill="white" stroke="black" points="569,-72.23 569,-91.23 695,-91.23 695,-72.23 569,-72.23"/>
<text text-anchor="middle" x="632" y="-79.23" font-family="Helvetica,sans-Serif" font-size="10.00">console::ge::printNumber</text>
</a>
</g>
</g>
<!-- Node13&#45;&gt;Node18 -->
<g id="edge22" class="edge">
<title>Node13&#45;&gt;Node18</title>
<path fill="none" stroke="midnightblue" d="M490.14,-148.05C508.77,-137.06 540.53,-118.97 569,-105.73 577.21,-101.92 586.22,-98.18 594.75,-94.84"/>
<polygon fill="midnightblue" stroke="midnightblue" points="596.04,-98.1 604.13,-91.26 593.54,-91.56 596.04,-98.1"/>
</g>
<!-- Node13&#45;&gt;Node19 -->
<g id="edge32" class="edge">
<title>Node13&#45;&gt;Node19</title>
<path fill="none" stroke="midnightblue" d="M514.71,-148.19C573.83,-134.32 683.4,-108.62 747.57,-93.56"/>
<polygon fill="midnightblue" stroke="midnightblue" points="748.52,-96.93 757.46,-91.24 746.92,-90.12 748.52,-96.93"/>
</g>
<!-- Node17 -->
<g id="node17" class="node">
<title>Node17</title>
<g id="a_node17"><a xlink:href="namespacemonitor.html#a318993193c866642f8389a1c1f285739" target="_top" xlink:title=" ">
<polygon fill="white" stroke="black" points="762,-224.23 762,-243.23 836,-243.23 836,-224.23 762,-224.23"/>
<text text-anchor="middle" x="799" y="-231.23" font-family="Helvetica,sans-Serif" font-size="10.00">monitor::fuck</text>
</a>
</g>
</g>
<!-- Node16&#45;&gt;Node17 -->
<g id="edge21" class="edge">
<title>Node16&#45;&gt;Node17</title>
<path fill="none" stroke="midnightblue" d="M658.78,-233.73C683.59,-233.73 721.66,-233.73 751.73,-233.73"/>
<polygon fill="midnightblue" stroke="midnightblue" points="751.99,-237.23 761.99,-233.73 751.99,-230.23 751.99,-237.23"/>
</g>
<!-- Node18&#45;&gt;Node19 -->
<g id="edge23" class="edge">
<title>Node18&#45;&gt;Node19</title>
<path fill="none" stroke="midnightblue" d="M695.38,-81.73C707.86,-81.73 720.99,-81.73 733.53,-81.73"/>
<polygon fill="midnightblue" stroke="midnightblue" points="733.91,-85.23 743.91,-81.73 733.91,-78.23 733.91,-85.23"/>
</g>
<!-- Node20 -->
<g id="node20" class="node">
<title>Node20</title>
<g id="a_node20"><a xlink:href="namespaceconsole_1_1serial.html#a3a7c1f95ae3c24136ea63bb31fdf0391" target="_top" xlink:title=" ">
<polygon fill="white" stroke="black" points="908,-72.23 908,-91.23 1028,-91.23 1028,-72.23 908,-72.23"/>
<text text-anchor="middle" x="968" y="-79.23" font-family="Helvetica,sans-Serif" font-size="10.00">console::serial::putChar</text>
</a>
</g>
</g>
<!-- Node19&#45;&gt;Node20 -->
<g id="edge24" class="edge">
<title>Node19&#45;&gt;Node20</title>
<path fill="none" stroke="midnightblue" d="M854.22,-81.73C868.02,-81.73 883.03,-81.73 897.47,-81.73"/>
<polygon fill="midnightblue" stroke="midnightblue" points="897.86,-85.23 907.86,-81.73 897.86,-78.23 897.86,-85.23"/>
</g>
<!-- Node23 -->
<g id="node23" class="node">
<title>Node23</title>
<g id="a_node23"><a xlink:href="namespaceconsole_1_1cga.html#afa19057ca041b39682d5d4831c43dfa0" target="_top" xlink:title=" ">
<polygon fill="white" stroke="black" points="911.5,-110.23 911.5,-129.23 1024.5,-129.23 1024.5,-110.23 911.5,-110.23"/>
<text text-anchor="middle" x="968" y="-117.23" font-family="Helvetica,sans-Serif" font-size="10.00">console::cga::putChar</text>
</a>
</g>
</g>
<!-- Node19&#45;&gt;Node23 -->
<g id="edge27" class="edge">
<title>Node19&#45;&gt;Node23</title>
<path fill="none" stroke="midnightblue" d="M842.14,-91.32C864.38,-96.38 891.85,-102.63 915.36,-107.98"/>
<polygon fill="midnightblue" stroke="midnightblue" points="914.63,-111.41 925.16,-110.21 916.19,-104.58 914.63,-111.41"/>
</g>
<!-- Node21 -->
<g id="node21" class="node">
<title>Node21</title>
<g id="a_node21"><a xlink:href="namespaceconsole_1_1serial.html#aa5605d4537106bb1c2bab72d7d1a5824" target="_top" xlink:title=" ">
<polygon fill="white" stroke="black" points="1087,-72.23 1087,-91.23 1191,-91.23 1191,-72.23 1087,-72.23"/>
<text text-anchor="middle" x="1139" y="-79.23" font-family="Helvetica,sans-Serif" font-size="10.00">console::serial::sout</text>
</a>
</g>
</g>
<!-- Node20&#45;&gt;Node21 -->
<g id="edge25" class="edge">
<title>Node20&#45;&gt;Node21</title>
<path fill="none" stroke="midnightblue" d="M1028.11,-81.73C1043.8,-81.73 1060.79,-81.73 1076.6,-81.73"/>
<polygon fill="midnightblue" stroke="midnightblue" points="1076.8,-85.23 1086.8,-81.73 1076.8,-78.23 1076.8,-85.23"/>
</g>
<!-- Node22 -->
<g id="node22" class="node">
<title>Node22</title>
<g id="a_node22"><a xlink:href="x86_8h.html#ade961b44e45ddacbc3c3b7609cf36dc6" target="_top" xlink:title=" ">
<polygon fill="white" stroke="black" points="1256.5,-91.23 1256.5,-110.23 1291.5,-110.23 1291.5,-91.23 1256.5,-91.23"/>
<text text-anchor="middle" x="1274" y="-98.23" font-family="Helvetica,sans-Serif" font-size="10.00">outb</text>
</a>
</g>
</g>
<!-- Node21&#45;&gt;Node22 -->
<g id="edge26" class="edge">
<title>Node21&#45;&gt;Node22</title>
<path fill="none" stroke="midnightblue" d="M1191.04,-89.03C1209.85,-91.71 1230.4,-94.65 1246.22,-96.91"/>
<polygon fill="midnightblue" stroke="midnightblue" points="1245.95,-100.4 1256.34,-98.35 1246.94,-93.47 1245.95,-100.4"/>
</g>
<!-- Node24 -->
<g id="node24" class="node">
<title>Node24</title>
<g id="a_node24"><a xlink:href="namespacemem.html#a64d9d05b439041901498c606de606431" target="_top" xlink:title=" ">
<polygon fill="white" stroke="black" points="1106.5,-186.23 1106.5,-205.23 1171.5,-205.23 1171.5,-186.23 1106.5,-186.23"/>
<text text-anchor="middle" x="1139" y="-193.23" font-family="Helvetica,sans-Serif" font-size="10.00">mem::copy</text>
</a>
</g>
</g>
<!-- Node23&#45;&gt;Node24 -->
<g id="edge28" class="edge">
<title>Node23&#45;&gt;Node24</title>
<path fill="none" stroke="midnightblue" d="M990.4,-129.36C1019.99,-142.66 1073.56,-166.75 1107.37,-181.96"/>
<polygon fill="midnightblue" stroke="midnightblue" points="1106.21,-185.28 1116.77,-186.19 1109.09,-178.89 1106.21,-185.28"/>
</g>
<!-- Node25 -->
<g id="node25" class="node">
<title>Node25</title>
<g id="a_node25"><a xlink:href="namespaceconsole_1_1cga.html#a06463d4dc68819e30615ba299d02a78f" target="_top" xlink:title=" ">
<polygon fill="white" stroke="black" points="1069,-110.23 1069,-129.23 1209,-129.23 1209,-110.23 1069,-110.23"/>
<text text-anchor="middle" x="1139" y="-117.23" font-family="Helvetica,sans-Serif" font-size="10.00">console::cga::cursorRefresh</text>
</a>
</g>
</g>
<!-- Node23&#45;&gt;Node25 -->
<g id="edge30" class="edge">
<title>Node23&#45;&gt;Node25</title>
<path fill="none" stroke="midnightblue" d="M1024.81,-119.73C1035.74,-119.73 1047.39,-119.73 1058.92,-119.73"/>
<polygon fill="midnightblue" stroke="midnightblue" points="1058.99,-123.23 1068.99,-119.73 1058.99,-116.23 1058.99,-123.23"/>
</g>
<!-- Node24&#45;&gt;Node5 -->
<g id="edge29" class="edge">
<title>Node24&#45;&gt;Node5</title>
<path fill="none" stroke="midnightblue" d="M1151.34,-205.45C1174.11,-224.97 1225.62,-269.13 1253.76,-293.25"/>
<polygon fill="midnightblue" stroke="midnightblue" points="1251.82,-296.19 1261.69,-300.04 1256.37,-290.87 1251.82,-296.19"/>
</g>
<!-- Node25&#45;&gt;Node22 -->
<g id="edge31" class="edge">
<title>Node25&#45;&gt;Node22</title>
<path fill="none" stroke="midnightblue" d="M1206.89,-110.18C1220.81,-108.19 1234.71,-106.2 1246.15,-104.57"/>
<polygon fill="midnightblue" stroke="midnightblue" points="1246.87,-108 1256.28,-103.12 1245.88,-101.07 1246.87,-108"/>
</g>
<!-- Node27 -->
<g id="node27" class="node">
<title>Node27</title>
<g id="a_node27"><a xlink:href="namespaceconsole_1_1err.html#a4cd18e4c409b5b17ecec61ce83b05fba" target="_top" xlink:title=" ">
<polygon fill="white" stroke="black" points="272,-110.23 272,-129.23 376,-129.23 376,-110.23 272,-110.23"/>
<text text-anchor="middle" x="324" y="-117.23" font-family="Helvetica,sans-Serif" font-size="10.00">console::err::printVa</text>
</a>
</g>
</g>
<!-- Node26&#45;&gt;Node27 -->
<g id="edge35" class="edge">
<title>Node26&#45;&gt;Node27</title>
<path fill="none" stroke="midnightblue" d="M233.66,-119.73C242.63,-119.73 252.18,-119.73 261.59,-119.73"/>
<polygon fill="midnightblue" stroke="midnightblue" points="261.7,-123.23 271.7,-119.73 261.7,-116.23 261.7,-123.23"/>
</g>
<!-- Node27&#45;&gt;Node13 -->
<g id="edge36" class="edge">
<title>Node27&#45;&gt;Node13</title>
<path fill="none" stroke="midnightblue" d="M362.09,-129.32C381.32,-134.29 404.99,-140.41 425.43,-145.7"/>
<polygon fill="midnightblue" stroke="midnightblue" points="424.61,-149.1 435.17,-148.21 426.37,-142.32 424.61,-149.1"/>
</g>
<!-- Node27&#45;&gt;Node19 -->
<g id="edge37" class="edge">
<title>Node27&#45;&gt;Node19</title>
<path fill="none" stroke="midnightblue" d="M330.73,-109.96C342.91,-90.28 373.52,-46.35 413,-29.73 528.52,18.88 573.08,-0.7 695,-29.73 724.74,-36.82 755.63,-53.94 775.73,-66.61"/>
<polygon fill="midnightblue" stroke="midnightblue" points="773.86,-69.57 784.16,-72.07 777.67,-63.69 773.86,-69.57"/>
</g>
</g>
</svg>
