<?xml version="1.0" encoding="UTF-8" standalone="no"?>
<!DOCTYPE svg PUBLIC "-//W3C//DTD SVG 1.1//EN"
 "http://www.w3.org/Graphics/SVG/1.1/DTD/svg11.dtd">
<!-- Generated by graphviz version 2.44.1 (20200629.0846)
 -->
<!-- Title: sys::cpuInfo Pages: 1 -->
<!--zoomable 204 -->
<svg id="main" version="1.1" xmlns="http://www.w3.org/2000/svg" xmlns:xlink="http://www.w3.org/1999/xlink" xml:space="preserve" onload="init(evt)">
<style type="text/css"><![CDATA[
.edge:hover path { stroke: red; }
.edge:hover polygon { stroke: red; fill: red; }
]]></style>
<script type="text/javascript"><![CDATA[
var edges = document.getElementsByTagName('g');
if (edges && edges.length) {
  for (var i=0;i<edges.length;i++) {
    if (edges[i].id.substr(0,4)=='edge') {
      edges[i].setAttribute('class','edge');
    }
  }
}
]]></script>
        <defs>
                <circle id="rim" cx="0" cy="0" r="7"/>
                <circle id="rim2" cx="0" cy="0" r="3.5"/>
                <g id="zoomPlus">
                        <use xlink:href="#rim" fill="#404040">
                                <set attributeName="fill" to="#808080" begin="zoomplus.mouseover" end="zoomplus.mouseout"/>
                        </use>
                        <path d="M-4,0h8M0,-4v8" fill="none" stroke="white" stroke-width="1.5" pointer-events="none"/>
                </g>
                <g id="zoomMin">
                        <use xlink:href="#rim" fill="#404040">
                                <set attributeName="fill" to="#808080" begin="zoomminus.mouseover" end="zoomminus.mouseout"/>
                        </use>
                        <path d="M-4,0h8" fill="none" stroke="white" stroke-width="1.5" pointer-events="none"/>
                </g>
                <g id="dirArrow">
                        <path fill="none" stroke="white" stroke-width="1.5" d="M0,-3.0v7 M-2.5,-0.5L0,-3.0L2.5,-0.5"/>
                </g>
               <g id="resetDef">
                       <use xlink:href="#rim2" fill="#404040">
                               <set attributeName="fill" to="#808080" begin="reset.mouseover" end="reset.mouseout"/>
                       </use>
               </g>
        </defs>

<script type="text/javascript">
var viewWidth = 1242;
var viewHeight = 204;
var sectionId = 'dynsection-0';
</script>
<script xlink:href="svgpan.js"/>
<svg id="graph" class="graph">
<g id="viewport">
<title>sys::cpuInfo</title>
<polygon fill="white" stroke="transparent" points="-4,4 -4,-199.69 1238,-199.69 1238,4 -4,4"/>
<!-- Node1 -->
<g id="node1" class="node">
<title>Node1</title>
<g id="a_node1"><a xlink:title=" ">
<polygon fill="#bfbfbf" stroke="black" points="0,-28.32 0,-47.32 71,-47.32 71,-28.32 0,-28.32"/>
<text text-anchor="middle" x="35.5" y="-35.32" font-family="Helvetica,sans-Serif" font-size="10.00">sys::cpuInfo</text>
</a>
</g>
</g>
<!-- Node2 -->
<g id="node2" class="node">
<title>Node2</title>
<g id="a_node2"><a xlink:href="namespacesys.html#ab76cd14b47570b41ca18f53c91f561cc" target="_top" xlink:title=" ">
<polygon fill="white" stroke="black" points="121,-47.32 121,-66.32 188,-66.32 188,-47.32 121,-47.32"/>
<text text-anchor="middle" x="154.5" y="-54.32" font-family="Helvetica,sans-Serif" font-size="10.00">sys::cpuStr</text>
</a>
</g>
</g>
<!-- Node1&#45;&gt;Node2 -->
<g id="edge1" class="edge">
<title>Node1&#45;&gt;Node2</title>
<path fill="none" stroke="midnightblue" d="M71.29,-43.47C83.62,-45.47 97.64,-47.75 110.57,-49.85"/>
<polygon fill="midnightblue" stroke="midnightblue" points="110.22,-53.34 120.65,-51.49 111.34,-46.43 110.22,-53.34"/>
</g>
<!-- Node3 -->
<g id="node3" class="node">
<title>Node3</title>
<g id="a_node3"><a xlink:href="namespaceconsole_1_1out.html#ac6f663e3971b66b8e130ee94755a150e" target="_top" xlink:title=" ">
<polygon fill="white" stroke="black" points="107,-9.32 107,-28.32 202,-28.32 202,-9.32 107,-9.32"/>
<text text-anchor="middle" x="154.5" y="-16.32" font-family="Helvetica,sans-Serif" font-size="10.00">console::out::print</text>
</a>
</g>
</g>
<!-- Node1&#45;&gt;Node3 -->
<g id="edge2" class="edge">
<title>Node1&#45;&gt;Node3</title>
<path fill="none" stroke="midnightblue" d="M71.29,-32.17C79.32,-30.87 88.08,-29.45 96.78,-28.03"/>
<polygon fill="midnightblue" stroke="midnightblue" points="97.62,-31.44 106.93,-26.39 96.5,-24.53 97.62,-31.44"/>
</g>
<!-- Node4 -->
<g id="node4" class="node">
<title>Node4</title>
<g id="a_node4"><a xlink:href="namespaceconsole_1_1out.html#a8f791bfac54067cadb1b9f18117b987b" target="_top" xlink:title=" ">
<polygon fill="white" stroke="black" points="238,-9.32 238,-28.32 344,-28.32 344,-9.32 238,-9.32"/>
<text text-anchor="middle" x="291" y="-16.32" font-family="Helvetica,sans-Serif" font-size="10.00">console::out::printVa</text>
</a>
</g>
</g>
<!-- Node3&#45;&gt;Node4 -->
<g id="edge3" class="edge">
<title>Node3&#45;&gt;Node4</title>
<path fill="none" stroke="midnightblue" d="M202.16,-18.82C210.45,-18.82 219.2,-18.82 227.84,-18.82"/>
<polygon fill="midnightblue" stroke="midnightblue" points="227.9,-22.32 237.9,-18.82 227.9,-15.32 227.9,-22.32"/>
</g>
<!-- Node5 -->
<g id="node5" class="node">
<title>Node5</title>
<g id="a_node5"><a xlink:href="namespaceconsole_1_1ge.html#af642934cb833142f133285fdb75ef7b7" target="_top" xlink:title=" ">
<polygon fill="white" stroke="black" points="380,-66.32 380,-85.32 500,-85.32 500,-66.32 380,-66.32"/>
<text text-anchor="middle" x="440" y="-73.32" font-family="Helvetica,sans-Serif" font-size="10.00">console::ge::printFmtVa</text>
</a>
</g>
</g>
<!-- Node4&#45;&gt;Node5 -->
<g id="edge4" class="edge">
<title>Node4&#45;&gt;Node5</title>
<path fill="none" stroke="midnightblue" d="M316.6,-28.36C340.77,-37.73 377.85,-52.11 404.86,-62.58"/>
<polygon fill="midnightblue" stroke="midnightblue" points="403.73,-65.9 414.32,-66.25 406.26,-59.37 403.73,-65.9"/>
</g>
<!-- Node12 -->
<g id="node12" class="node">
<title>Node12</title>
<g id="a_node12"><a xlink:href="namespaceconsole_1_1out.html#ad9fc97dff4404c2d21aedbb24691e7cb" target="_top" xlink:title=" ">
<polygon fill="white" stroke="black" points="698,-9.32 698,-28.32 808,-28.32 808,-9.32 698,-9.32"/>
<text text-anchor="middle" x="753" y="-16.32" font-family="Helvetica,sans-Serif" font-size="10.00">console::out::putChar</text>
</a>
</g>
</g>
<!-- Node4&#45;&gt;Node12 -->
<g id="edge21" class="edge">
<title>Node4&#45;&gt;Node12</title>
<path fill="none" stroke="midnightblue" d="M344.17,-12.67C415.89,-5.14 548.92,5.54 662,-3.82 672.29,-4.67 683.17,-6.06 693.68,-7.66"/>
<polygon fill="midnightblue" stroke="midnightblue" points="693.18,-11.13 703.61,-9.25 694.28,-4.22 693.18,-11.13"/>
</g>
<!-- Node6 -->
<g id="node6" class="node">
<title>Node6</title>
<g id="a_node6"><a xlink:href="printfmt_8cc.html#a708ec6ee2b8bd2d7a453d8d9436ed3b3" target="_top" xlink:title=" ">
<polygon fill="white" stroke="black" points="570,-142.32 570,-161.32 628,-161.32 628,-142.32 570,-142.32"/>
<text text-anchor="middle" x="599" y="-149.32" font-family="Helvetica,sans-Serif" font-size="10.00">_getIntVa</text>
</a>
</g>
</g>
<!-- Node5&#45;&gt;Node6 -->
<g id="edge5" class="edge">
<title>Node5&#45;&gt;Node6</title>
<path fill="none" stroke="midnightblue" d="M454.59,-85.43C472.53,-97.77 505.43,-119.21 536,-132.82 543.6,-136.21 551.99,-139.22 560.07,-141.8"/>
<polygon fill="midnightblue" stroke="midnightblue" points="559.11,-145.17 569.7,-144.72 561.14,-138.47 559.11,-145.17"/>
</g>
<!-- Node7 -->
<g id="node7" class="node">
<title>Node7</title>
<g id="a_node7"><a xlink:href="printfmt_8cc.html#af4b46892c76c8bfd27efdb20847eb7c8" target="_top" xlink:title=" ">
<polygon fill="white" stroke="black" points="566.5,-104.32 566.5,-123.32 631.5,-123.32 631.5,-104.32 566.5,-104.32"/>
<text text-anchor="middle" x="599" y="-111.32" font-family="Helvetica,sans-Serif" font-size="10.00">_getUIntVa</text>
</a>
</g>
</g>
<!-- Node5&#45;&gt;Node7 -->
<g id="edge6" class="edge">
<title>Node5&#45;&gt;Node7</title>
<path fill="none" stroke="midnightblue" d="M480.62,-85.41C503.72,-91 532.84,-98.05 556.3,-103.73"/>
<polygon fill="midnightblue" stroke="midnightblue" points="555.76,-107.2 566.3,-106.15 557.4,-100.4 555.76,-107.2"/>
</g>
<!-- Node8 -->
<g id="node8" class="node">
<title>Node8</title>
<g id="a_node8"><a xlink:href="namespacestr.html#a062221f630647cf300f0dd982c4ed904" target="_top" xlink:title=" ">
<polygon fill="white" stroke="black" points="1176,-99.32 1176,-118.32 1234,-118.32 1234,-99.32 1176,-99.32"/>
<text text-anchor="middle" x="1205" y="-106.32" font-family="Helvetica,sans-Serif" font-size="10.00">str::count</text>
</a>
</g>
</g>
<!-- Node5&#45;&gt;Node8 -->
<g id="edge7" class="edge">
<title>Node5&#45;&gt;Node8</title>
<path fill="none" stroke="midnightblue" d="M447.18,-85.54C460.55,-105.61 494.36,-151.39 536,-170.82 623.33,-211.57 655.63,-189.82 752,-189.82 752,-189.82 752,-189.82 905,-189.82 1006.55,-189.82 1120.97,-145.75 1174.02,-122.63"/>
<polygon fill="midnightblue" stroke="midnightblue" points="1175.77,-125.68 1183.5,-118.43 1172.93,-119.28 1175.77,-125.68"/>
</g>
<!-- Node9 -->
<g id="node9" class="node">
<title>Node9</title>
<g id="a_node9"><a xlink:href="printfmt_8cc.html#a0e3e484ece5e75b9f5fbe337f0ae8ae3" target="_top" xlink:title=" ">
<polygon fill="white" stroke="black" points="572.5,-66.32 572.5,-85.32 625.5,-85.32 625.5,-66.32 572.5,-66.32"/>
<text text-anchor="middle" x="599" y="-73.32" font-family="Helvetica,sans-Serif" font-size="10.00">describe</text>
</a>
</g>
</g>
<!-- Node5&#45;&gt;Node9 -->
<g id="edge8" class="edge">
<title>Node5&#45;&gt;Node9</title>
<path fill="none" stroke="midnightblue" d="M500.35,-75.82C521.12,-75.82 543.78,-75.82 562.04,-75.82"/>
<polygon fill="midnightblue" stroke="midnightblue" points="562.24,-79.32 572.24,-75.82 562.24,-72.32 562.24,-79.32"/>
</g>
<!-- Node11 -->
<g id="node11" class="node">
<title>Node11</title>
<g id="a_node11"><a xlink:href="namespaceconsole_1_1ge.html#a7e301813fd34fde772376afc5fdad95d" target="_top" xlink:title=" ">
<polygon fill="white" stroke="black" points="536,-28.32 536,-47.32 662,-47.32 662,-28.32 536,-28.32"/>
<text text-anchor="middle" x="599" y="-35.32" font-family="Helvetica,sans-Serif" font-size="10.00">console::ge::printNumber</text>
</a>
</g>
</g>
<!-- Node5&#45;&gt;Node11 -->
<g id="edge10" class="edge">
<title>Node5&#45;&gt;Node11</title>
<path fill="none" stroke="midnightblue" d="M480.62,-66.23C501.34,-61.22 526.89,-55.03 548.86,-49.72"/>
<polygon fill="midnightblue" stroke="midnightblue" points="549.77,-53.1 558.67,-47.34 548.12,-46.29 549.77,-53.1"/>
</g>
<!-- Node5&#45;&gt;Node12 -->
<g id="edge20" class="edge">
<title>Node5&#45;&gt;Node12</title>
<path fill="none" stroke="midnightblue" d="M452.33,-66.18C469.22,-52.49 502.63,-28.06 536,-18.82 585.52,-5.11 643.9,-6.07 687.48,-9.93"/>
<polygon fill="midnightblue" stroke="midnightblue" points="687.38,-13.44 697.66,-10.91 688.05,-6.47 687.38,-13.44"/>
</g>
<!-- Node10 -->
<g id="node10" class="node">
<title>Node10</title>
<g id="a_node10"><a xlink:href="namespacemonitor.html#a318993193c866642f8389a1c1f285739" target="_top" xlink:title=" ">
<polygon fill="white" stroke="black" points="716,-66.32 716,-85.32 790,-85.32 790,-66.32 716,-66.32"/>
<text text-anchor="middle" x="753" y="-73.32" font-family="Helvetica,sans-Serif" font-size="10.00">monitor::fuck</text>
</a>
</g>
</g>
<!-- Node9&#45;&gt;Node10 -->
<g id="edge9" class="edge">
<title>Node9&#45;&gt;Node10</title>
<path fill="none" stroke="midnightblue" d="M625.78,-75.82C647.62,-75.82 679.46,-75.82 705.7,-75.82"/>
<polygon fill="midnightblue" stroke="midnightblue" points="705.82,-79.32 715.82,-75.82 705.82,-72.32 705.82,-79.32"/>
</g>
<!-- Node11&#45;&gt;Node12 -->
<g id="edge11" class="edge">
<title>Node11&#45;&gt;Node12</title>
<path fill="none" stroke="midnightblue" d="M662.26,-30.04C670.66,-28.99 679.28,-27.91 687.71,-26.86"/>
<polygon fill="midnightblue" stroke="midnightblue" points="688.37,-30.3 697.86,-25.59 687.51,-23.36 688.37,-30.3"/>
</g>
<!-- Node13 -->
<g id="node13" class="node">
<title>Node13</title>
<g id="a_node13"><a xlink:href="namespaceconsole_1_1serial.html#a3a7c1f95ae3c24136ea63bb31fdf0391" target="_top" xlink:title=" ">
<polygon fill="white" stroke="black" points="844,-9.32 844,-28.32 964,-28.32 964,-9.32 844,-9.32"/>
<text text-anchor="middle" x="904" y="-16.32" font-family="Helvetica,sans-Serif" font-size="10.00">console::serial::putChar</text>
</a>
</g>
</g>
<!-- Node12&#45;&gt;Node13 -->
<g id="edge12" class="edge">
<title>Node12&#45;&gt;Node13</title>
<path fill="none" stroke="midnightblue" d="M808.21,-18.82C816.53,-18.82 825.2,-18.82 833.79,-18.82"/>
<polygon fill="midnightblue" stroke="midnightblue" points="833.79,-22.32 843.79,-18.82 833.79,-15.32 833.79,-22.32"/>
</g>
<!-- Node16 -->
<g id="node16" class="node">
<title>Node16</title>
<g id="a_node16"><a xlink:href="namespaceconsole_1_1cga.html#afa19057ca041b39682d5d4831c43dfa0" target="_top" xlink:title=" ">
<polygon fill="white" stroke="black" points="847.5,-47.32 847.5,-66.32 960.5,-66.32 960.5,-47.32 847.5,-47.32"/>
<text text-anchor="middle" x="904" y="-54.32" font-family="Helvetica,sans-Serif" font-size="10.00">console::cga::putChar</text>
</a>
</g>
</g>
<!-- Node12&#45;&gt;Node16 -->
<g id="edge15" class="edge">
<title>Node12&#45;&gt;Node16</title>
<path fill="none" stroke="midnightblue" d="M791.6,-28.41C811.08,-33.38 835.07,-39.5 855.8,-44.78"/>
<polygon fill="midnightblue" stroke="midnightblue" points="855.12,-48.22 865.67,-47.3 856.85,-41.44 855.12,-48.22"/>
</g>
<!-- Node14 -->
<g id="node14" class="node">
<title>Node14</title>
<g id="a_node14"><a xlink:href="namespaceconsole_1_1serial.html#aa5605d4537106bb1c2bab72d7d1a5824" target="_top" xlink:title=" ">
<polygon fill="white" stroke="black" points="1018,-9.32 1018,-28.32 1122,-28.32 1122,-9.32 1018,-9.32"/>
<text text-anchor="middle" x="1070" y="-16.32" font-family="Helvetica,sans-Serif" font-size="10.00">console::serial::sout</text>
</a>
</g>
</g>
<!-- Node13&#45;&gt;Node14 -->
<g id="edge13" class="edge">
<title>Node13&#45;&gt;Node14</title>
<path fill="none" stroke="midnightblue" d="M964.21,-18.82C978.31,-18.82 993.39,-18.82 1007.59,-18.82"/>
<polygon fill="midnightblue" stroke="midnightblue" points="1007.74,-22.32 1017.74,-18.82 1007.74,-15.32 1007.74,-22.32"/>
</g>
<!-- Node15 -->
<g id="node15" class="node">
<title>Node15</title>
<g id="a_node15"><a xlink:href="x86_8h.html#ade961b44e45ddacbc3c3b7609cf36dc6" target="_top" xlink:title=" ">
<polygon fill="white" stroke="black" points="1187.5,-42.32 1187.5,-61.32 1222.5,-61.32 1222.5,-42.32 1187.5,-42.32"/>
<text text-anchor="middle" x="1205" y="-49.32" font-family="Helvetica,sans-Serif" font-size="10.00">outb</text>
</a>
</g>
</g>
<!-- Node14&#45;&gt;Node15 -->
<g id="edge14" class="edge">
<title>Node14&#45;&gt;Node15</title>
<path fill="none" stroke="midnightblue" d="M1109.47,-28.37C1131.32,-33.79 1158.11,-40.44 1177.59,-45.27"/>
<polygon fill="midnightblue" stroke="midnightblue" points="1176.76,-48.67 1187.31,-47.68 1178.44,-41.88 1176.76,-48.67"/>
</g>
<!-- Node17 -->
<g id="node17" class="node">
<title>Node17</title>
<g id="a_node17"><a xlink:href="namespacemem.html#a64d9d05b439041901498c606de606431" target="_top" xlink:title=" ">
<polygon fill="white" stroke="black" points="1037.5,-90.32 1037.5,-109.32 1102.5,-109.32 1102.5,-90.32 1037.5,-90.32"/>
<text text-anchor="middle" x="1070" y="-97.32" font-family="Helvetica,sans-Serif" font-size="10.00">mem::copy</text>
</a>
</g>
</g>
<!-- Node16&#45;&gt;Node17 -->
<g id="edge16" class="edge">
<title>Node16&#45;&gt;Node17</title>
<path fill="none" stroke="midnightblue" d="M941.4,-66.37C966.92,-73.06 1001.08,-82.01 1027.64,-88.98"/>
<polygon fill="midnightblue" stroke="midnightblue" points="1026.85,-92.39 1037.41,-91.54 1028.62,-85.62 1026.85,-92.39"/>
</g>
<!-- Node18 -->
<g id="node18" class="node">
<title>Node18</title>
<g id="a_node18"><a xlink:href="namespaceconsole_1_1cga.html#a06463d4dc68819e30615ba299d02a78f" target="_top" xlink:title=" ">
<polygon fill="white" stroke="black" points="1000,-47.32 1000,-66.32 1140,-66.32 1140,-47.32 1000,-47.32"/>
<text text-anchor="middle" x="1070" y="-54.32" font-family="Helvetica,sans-Serif" font-size="10.00">console::cga::cursorRefresh</text>
</a>
</g>
</g>
<!-- Node16&#45;&gt;Node18 -->
<g id="edge18" class="edge">
<title>Node16&#45;&gt;Node18</title>
<path fill="none" stroke="midnightblue" d="M960.52,-56.82C969.9,-56.82 979.8,-56.82 989.65,-56.82"/>
<polygon fill="midnightblue" stroke="midnightblue" points="989.87,-60.32 999.87,-56.82 989.87,-53.32 989.87,-60.32"/>
</g>
<!-- Node17&#45;&gt;Node8 -->
<g id="edge17" class="edge">
<title>Node17&#45;&gt;Node8</title>
<path fill="none" stroke="midnightblue" d="M1102.52,-101.96C1121.49,-103.24 1145.77,-104.88 1165.82,-106.24"/>
<polygon fill="midnightblue" stroke="midnightblue" points="1165.66,-109.74 1175.87,-106.92 1166.13,-102.75 1165.66,-109.74"/>
</g>
<!-- Node18&#45;&gt;Node15 -->
<g id="edge19" class="edge">
<title>Node18&#45;&gt;Node15</title>
<path fill="none" stroke="midnightblue" d="M1140.23,-54.22C1153.48,-53.72 1166.59,-53.23 1177.45,-52.82"/>
<polygon fill="midnightblue" stroke="midnightblue" points="1177.61,-56.32 1187.47,-52.44 1177.35,-49.32 1177.61,-56.32"/>
</g>
</g>
</svg>
        <g id="navigator" transform="translate(0 0)" fill="#404254">
                <rect fill="#f2f5e9" fill-opacity="0.5" stroke="#606060" stroke-width=".5" x="0" y="0" width="60" height="60"/>
                <use id="zoomplus" xlink:href="#zoomPlus" x="17" y="9" onmousedown="handleZoom(evt,'in')"/>
                <use id="zoomminus" xlink:href="#zoomMin" x="42" y="9" onmousedown="handleZoom(evt,'out')"/>
                <use id="reset" xlink:href="#resetDef" x="30" y="36" onmousedown="handleReset()"/>
                <g id="arrowUp" xlink:href="#dirArrow" transform="translate(30 24)" onmousedown="handlePan(0,-1)">
                  <use xlink:href="#rim" fill="#404040">
                        <set attributeName="fill" to="#808080" begin="arrowUp.mouseover" end="arrowUp.mouseout"/>
                  </use>
                  <path fill="none" stroke="white" stroke-width="1.5" d="M0,-3.0v7 M-2.5,-0.5L0,-3.0L2.5,-0.5"/>
                </g>
                <g id="arrowRight" xlink:href="#dirArrow" transform="rotate(90) translate(36 -43)" onmousedown="handlePan(1,0)">
                  <use xlink:href="#rim" fill="#404040">
                        <set attributeName="fill" to="#808080" begin="arrowRight.mouseover" end="arrowRight.mouseout"/>
                  </use>
                  <path fill="none" stroke="white" stroke-width="1.5" d="M0,-3.0v7 M-2.5,-0.5L0,-3.0L2.5,-0.5"/>
                </g>
                <g id="arrowDown" xlink:href="#dirArrow" transform="rotate(180) translate(-30 -48)" onmousedown="handlePan(0,1)">
                  <use xlink:href="#rim" fill="#404040">
                        <set attributeName="fill" to="#808080" begin="arrowDown.mouseover" end="arrowDown.mouseout"/>
                  </use>
                  <path fill="none" stroke="white" stroke-width="1.5" d="M0,-3.0v7 M-2.5,-0.5L0,-3.0L2.5,-0.5"/>
                </g>
                <g id="arrowLeft" xlink:href="#dirArrow" transform="rotate(270) translate(-36 17)" onmousedown="handlePan(-1,0)">
                  <use xlink:href="#rim" fill="#404040">
                        <set attributeName="fill" to="#808080" begin="arrowLeft.mouseover" end="arrowLeft.mouseout"/>
                  </use>
                  <path fill="none" stroke="white" stroke-width="1.5" d="M0,-3.0v7 M-2.5,-0.5L0,-3.0L2.5,-0.5"/>
                </g>
        </g>
        <svg viewBox="0 0 15 15" width="100%" height="30px" preserveAspectRatio="xMaxYMin meet">
         <g id="arrow_out" transform="scale(0.3 0.3)">
          <a xlink:href="namespacesys_a286ca6ff7cec0fe637f95bd274dbe2cc_cgraph_org.svg" target="_base">
           <rect id="button" ry="5" rx="5" y="6" x="6" height="38" width="38"
                fill="#f2f5e9" fill-opacity="0.5" stroke="#606060" stroke-width="1.0"/>
           <path id="arrow"
             d="M 11.500037,31.436501 C 11.940474,20.09759 22.043105,11.32322 32.158766,21.979434 L 37.068811,17.246167 C 37.068811,17.246167 37.088388,32 37.088388,32 L 22.160133,31.978069 C 22.160133,31.978069 26.997745,27.140456 26.997745,27.140456 C 18.528582,18.264221 13.291696,25.230495 11.500037,31.436501 z"
             style="fill:#404040;"/>
          </a>
         </g>
        </svg>
</svg>
