<?xml version="1.0" encoding="UTF-8" standalone="no"?>
<!DOCTYPE svg PUBLIC "-//W3C//DTD SVG 1.1//EN"
 "http://www.w3.org/Graphics/SVG/1.1/DTD/svg11.dtd">
<!-- Generated by graphviz version 2.44.1 (20200629.0846)
 -->
<!-- Title: str::append Pages: 1 -->
<svg width="258pt" height="47pt"
 viewBox="0.00 0.00 258.00 47.00" xmlns="http://www.w3.org/2000/svg" xmlns:xlink="http://www.w3.org/1999/xlink">
<g id="graph0" class="graph" transform="scale(1 1) rotate(0) translate(4 43)">
<title>str::append</title>
<polygon fill="white" stroke="transparent" points="-4,4 -4,-43 254,-43 254,4 -4,4"/>
<!-- Node1 -->
<g id="node1" class="node">
<title>Node1</title>
<g id="a_node1"><a xlink:title=" ">
<polygon fill="#bfbfbf" stroke="black" points="0,-0.5 0,-19.5 65,-19.5 65,-0.5 0,-0.5"/>
<text text-anchor="middle" x="32.5" y="-7.5" font-family="Helvetica,sans-Serif" font-size="10.00">str::append</text>
</a>
</g>
</g>
<!-- Node2 -->
<g id="node2" class="node">
<title>Node2</title>
<g id="a_node2"><a xlink:href="namespacestr.html#a2820551f04098e6bf07c04489c8a855c" target="_top" xlink:title=" ">
<polygon fill="white" stroke="black" points="101,-19.5 101,-38.5 156,-38.5 156,-19.5 101,-19.5"/>
<text text-anchor="middle" x="128.5" y="-26.5" font-family="Helvetica,sans-Serif" font-size="10.00">str::copy</text>
</a>
</g>
</g>
<!-- Node1&#45;&gt;Node2 -->
<g id="edge1" class="edge">
<title>Node1&#45;&gt;Node2</title>
<path fill="none" stroke="midnightblue" d="M65.06,-16.38C73.33,-18.05 82.31,-19.87 90.82,-21.59"/>
<polygon fill="midnightblue" stroke="midnightblue" points="90.39,-25.07 100.88,-23.62 91.77,-18.21 90.39,-25.07"/>
</g>
<!-- Node3 -->
<g id="node3" class="node">
<title>Node3</title>
<g id="a_node3"><a xlink:href="namespacestr.html#a062221f630647cf300f0dd982c4ed904" target="_top" xlink:title=" ">
<polygon fill="white" stroke="black" points="192,-0.5 192,-19.5 250,-19.5 250,-0.5 192,-0.5"/>
<text text-anchor="middle" x="221" y="-7.5" font-family="Helvetica,sans-Serif" font-size="10.00">str::count</text>
</a>
</g>
</g>
<!-- Node1&#45;&gt;Node3 -->
<g id="edge3" class="edge">
<title>Node1&#45;&gt;Node3</title>
<path fill="none" stroke="midnightblue" d="M65.14,-10C97.35,-10 147.31,-10 181.73,-10"/>
<polygon fill="midnightblue" stroke="midnightblue" points="181.87,-13.5 191.87,-10 181.87,-6.5 181.87,-13.5"/>
</g>
<!-- Node2&#45;&gt;Node3 -->
<g id="edge2" class="edge">
<title>Node2&#45;&gt;Node3</title>
<path fill="none" stroke="midnightblue" d="M156.16,-23.4C164.26,-21.7 173.31,-19.8 182,-17.98"/>
<polygon fill="midnightblue" stroke="midnightblue" points="182.89,-21.37 191.95,-15.89 181.45,-14.52 182.89,-21.37"/>
</g>
</g>
</svg>
