<?xml version="1.0" encoding="UTF-8" standalone="no"?>
<!DOCTYPE svg PUBLIC "-//W3C//DTD SVG 1.1//EN"
 "http://www.w3.org/Graphics/SVG/1.1/DTD/svg11.dtd">
<!-- Generated by graphviz version 2.44.1 (20200629.0846)
 -->
<!-- Title: vmem::_kaddr Pages: 1 -->
<svg width="1487pt" height="233pt"
 viewBox="0.00 0.00 1487.00 232.87" xmlns="http://www.w3.org/2000/svg" xmlns:xlink="http://www.w3.org/1999/xlink">
<g id="graph0" class="graph" transform="scale(1 1) rotate(0) translate(4 228.87)">
<title>vmem::_kaddr</title>
<polygon fill="white" stroke="transparent" points="-4,4 -4,-228.87 1483,-228.87 1483,4 -4,4"/>
<!-- Node1 -->
<g id="node1" class="node">
<title>Node1</title>
<g id="a_node1"><a xlink:title=" ">
<polygon fill="#bfbfbf" stroke="black" points="0,-38.5 0,-57.5 79,-57.5 79,-38.5 0,-38.5"/>
<text text-anchor="middle" x="39.5" y="-45.5" font-family="Helvetica,sans-Serif" font-size="10.00">vmem::_kaddr</text>
</a>
</g>
</g>
<!-- Node2 -->
<g id="node2" class="node">
<title>Node2</title>
<g id="a_node2"><a xlink:href="panic_8cc.html#adfbd6c4e933c69df0f063e54b52351bf" target="_top" xlink:title=" ">
<polygon fill="white" stroke="black" points="115,-38.5 115,-57.5 188,-57.5 188,-38.5 115,-38.5"/>
<text text-anchor="middle" x="151.5" y="-45.5" font-family="Helvetica,sans-Serif" font-size="10.00">_kernelPanic</text>
</a>
</g>
</g>
<!-- Node1&#45;&gt;Node2 -->
<g id="edge1" class="edge">
<title>Node1&#45;&gt;Node2</title>
<path fill="none" stroke="midnightblue" d="M79.28,-48C87.46,-48 96.17,-48 104.58,-48"/>
<polygon fill="midnightblue" stroke="midnightblue" points="104.64,-51.5 114.64,-48 104.64,-44.5 104.64,-51.5"/>
</g>
<!-- Node3 -->
<g id="node3" class="node">
<title>Node3</title>
<g id="a_node3"><a xlink:href="namespacekdebug.html#a1785ee01647af6842a8908a959087362" target="_top" xlink:title=" ">
<polygon fill="white" stroke="black" points="224,-38.5 224,-57.5 321,-57.5 321,-38.5 224,-38.5"/>
<text text-anchor="middle" x="272.5" y="-45.5" font-family="Helvetica,sans-Serif" font-size="10.00">kdebug::backtrace</text>
</a>
</g>
</g>
<!-- Node2&#45;&gt;Node3 -->
<g id="edge2" class="edge">
<title>Node2&#45;&gt;Node3</title>
<path fill="none" stroke="midnightblue" d="M188.2,-48C196.27,-48 205.04,-48 213.76,-48"/>
<polygon fill="midnightblue" stroke="midnightblue" points="213.93,-51.5 223.93,-48 213.93,-44.5 213.93,-51.5"/>
</g>
<!-- Node4 -->
<g id="node4" class="node">
<title>Node4</title>
<g id="a_node4"><a xlink:href="namespaceconsole_1_1err.html#a124c7e8527c0e3fd2b9636411aea7e82" target="_top" xlink:title=" ">
<polygon fill="white" stroke="black" points="357,-0.5 357,-19.5 449,-19.5 449,-0.5 357,-0.5"/>
<text text-anchor="middle" x="403" y="-7.5" font-family="Helvetica,sans-Serif" font-size="10.00">console::err::print</text>
</a>
</g>
</g>
<!-- Node2&#45;&gt;Node4 -->
<g id="edge24" class="edge">
<title>Node2&#45;&gt;Node4</title>
<path fill="none" stroke="midnightblue" d="M184.3,-38.43C196.6,-35.02 210.87,-31.43 224,-29 264.75,-21.46 311.34,-16.62 346.63,-13.71"/>
<polygon fill="midnightblue" stroke="midnightblue" points="347.04,-17.19 356.73,-12.91 346.49,-10.21 347.04,-17.19"/>
</g>
<!-- Node5 -->
<g id="node5" class="node">
<title>Node5</title>
<g id="a_node5"><a xlink:href="namespaceconsole_1_1err.html#a4cd18e4c409b5b17ecec61ce83b05fba" target="_top" xlink:title=" ">
<polygon fill="white" stroke="black" points="485,-38.5 485,-57.5 589,-57.5 589,-38.5 485,-38.5"/>
<text text-anchor="middle" x="537" y="-45.5" font-family="Helvetica,sans-Serif" font-size="10.00">console::err::printVa</text>
</a>
</g>
</g>
<!-- Node2&#45;&gt;Node5 -->
<g id="edge25" class="edge">
<title>Node2&#45;&gt;Node5</title>
<path fill="none" stroke="midnightblue" d="M181.38,-57.5C194.27,-61.27 209.74,-65.14 224,-67 323.16,-79.95 349.58,-77.73 449,-67 462.72,-65.52 477.45,-62.76 490.81,-59.8"/>
<polygon fill="midnightblue" stroke="midnightblue" points="491.77,-63.17 500.73,-57.51 490.2,-56.35 491.77,-63.17"/>
</g>
<!-- Node3&#45;&gt;Node4 -->
<g id="edge3" class="edge">
<title>Node3&#45;&gt;Node4</title>
<path fill="none" stroke="midnightblue" d="M305.93,-38.41C322.21,-33.6 342.14,-27.7 359.62,-22.53"/>
<polygon fill="midnightblue" stroke="midnightblue" points="360.99,-25.78 369.58,-19.59 359,-19.07 360.99,-25.78"/>
</g>
<!-- Node20 -->
<g id="node20" class="node">
<title>Node20</title>
<g id="a_node20"><a xlink:href="x86_8h.html#a663bfaa6d51e77d46a366f2c55767add" target="_top" xlink:title=" ">
<polygon fill="white" stroke="black" points="375,-38.5 375,-57.5 431,-57.5 431,-38.5 375,-38.5"/>
<text text-anchor="middle" x="403" y="-45.5" font-family="Helvetica,sans-Serif" font-size="10.00">read_ebp</text>
</a>
</g>
</g>
<!-- Node3&#45;&gt;Node20 -->
<g id="edge23" class="edge">
<title>Node3&#45;&gt;Node20</title>
<path fill="none" stroke="midnightblue" d="M321.35,-48C335.54,-48 350.87,-48 364.32,-48"/>
<polygon fill="midnightblue" stroke="midnightblue" points="364.64,-51.5 374.64,-48 364.64,-44.5 364.64,-51.5"/>
</g>
<!-- Node4&#45;&gt;Node5 -->
<g id="edge4" class="edge">
<title>Node4&#45;&gt;Node5</title>
<path fill="none" stroke="midnightblue" d="M437.31,-19.59C454.19,-24.45 474.89,-30.41 492.97,-35.61"/>
<polygon fill="midnightblue" stroke="midnightblue" points="492.12,-39.01 502.7,-38.41 494.06,-32.28 492.12,-39.01"/>
</g>
<!-- Node6 -->
<g id="node6" class="node">
<title>Node6</title>
<g id="a_node6"><a xlink:href="namespaceconsole_1_1ge.html#af642934cb833142f133285fdb75ef7b7" target="_top" xlink:title=" ">
<polygon fill="white" stroke="black" points="625,-95.5 625,-114.5 745,-114.5 745,-95.5 625,-95.5"/>
<text text-anchor="middle" x="685" y="-102.5" font-family="Helvetica,sans-Serif" font-size="10.00">console::ge::printFmtVa</text>
</a>
</g>
</g>
<!-- Node5&#45;&gt;Node6 -->
<g id="edge5" class="edge">
<title>Node5&#45;&gt;Node6</title>
<path fill="none" stroke="midnightblue" d="M562.44,-57.54C586.44,-66.91 623.26,-81.29 650.09,-91.76"/>
<polygon fill="midnightblue" stroke="midnightblue" points="648.9,-95.05 659.48,-95.43 651.44,-88.53 648.9,-95.05"/>
</g>
<!-- Node13 -->
<g id="node13" class="node">
<title>Node13</title>
<g id="a_node13"><a xlink:href="namespaceconsole_1_1out.html#ad9fc97dff4404c2d21aedbb24691e7cb" target="_top" xlink:title=" ">
<polygon fill="white" stroke="black" points="943,-38.5 943,-57.5 1053,-57.5 1053,-38.5 943,-38.5"/>
<text text-anchor="middle" x="998" y="-45.5" font-family="Helvetica,sans-Serif" font-size="10.00">console::out::putChar</text>
</a>
</g>
</g>
<!-- Node5&#45;&gt;Node13 -->
<g id="edge22" class="edge">
<title>Node5&#45;&gt;Node13</title>
<path fill="none" stroke="midnightblue" d="M589.13,-41.55C660.45,-33.53 793.78,-22.01 907,-32 918.49,-33.01 930.72,-34.74 942.33,-36.7"/>
<polygon fill="midnightblue" stroke="midnightblue" points="941.89,-40.17 952.34,-38.46 943.1,-33.28 941.89,-40.17"/>
</g>
<!-- Node7 -->
<g id="node7" class="node">
<title>Node7</title>
<g id="a_node7"><a xlink:href="printfmt_8cc.html#a708ec6ee2b8bd2d7a453d8d9436ed3b3" target="_top" xlink:title=" ">
<polygon fill="white" stroke="black" points="815,-171.5 815,-190.5 873,-190.5 873,-171.5 815,-171.5"/>
<text text-anchor="middle" x="844" y="-178.5" font-family="Helvetica,sans-Serif" font-size="10.00">_getIntVa</text>
</a>
</g>
</g>
<!-- Node6&#45;&gt;Node7 -->
<g id="edge6" class="edge">
<title>Node6&#45;&gt;Node7</title>
<path fill="none" stroke="midnightblue" d="M699.59,-114.61C717.53,-126.95 750.43,-148.39 781,-162 788.6,-165.39 796.99,-168.4 805.07,-170.98"/>
<polygon fill="midnightblue" stroke="midnightblue" points="804.11,-174.34 814.7,-173.9 806.14,-167.65 804.11,-174.34"/>
</g>
<!-- Node8 -->
<g id="node8" class="node">
<title>Node8</title>
<g id="a_node8"><a xlink:href="printfmt_8cc.html#af4b46892c76c8bfd27efdb20847eb7c8" target="_top" xlink:title=" ">
<polygon fill="white" stroke="black" points="811.5,-133.5 811.5,-152.5 876.5,-152.5 876.5,-133.5 811.5,-133.5"/>
<text text-anchor="middle" x="844" y="-140.5" font-family="Helvetica,sans-Serif" font-size="10.00">_getUIntVa</text>
</a>
</g>
</g>
<!-- Node6&#45;&gt;Node8 -->
<g id="edge7" class="edge">
<title>Node6&#45;&gt;Node8</title>
<path fill="none" stroke="midnightblue" d="M725.62,-114.59C748.72,-120.18 777.84,-127.23 801.3,-132.91"/>
<polygon fill="midnightblue" stroke="midnightblue" points="800.76,-136.38 811.3,-135.33 802.4,-129.57 800.76,-136.38"/>
</g>
<!-- Node9 -->
<g id="node9" class="node">
<title>Node9</title>
<g id="a_node9"><a xlink:href="namespacestr.html#a062221f630647cf300f0dd982c4ed904" target="_top" xlink:title=" ">
<polygon fill="white" stroke="black" points="1421,-128.5 1421,-147.5 1479,-147.5 1479,-128.5 1421,-128.5"/>
<text text-anchor="middle" x="1450" y="-135.5" font-family="Helvetica,sans-Serif" font-size="10.00">str::count</text>
</a>
</g>
</g>
<!-- Node6&#45;&gt;Node9 -->
<g id="edge8" class="edge">
<title>Node6&#45;&gt;Node9</title>
<path fill="none" stroke="midnightblue" d="M692.18,-114.72C705.55,-134.79 739.36,-180.57 781,-200 868.33,-240.75 900.63,-219 997,-219 997,-219 997,-219 1150,-219 1251.55,-219 1365.97,-174.93 1419.02,-151.8"/>
<polygon fill="midnightblue" stroke="midnightblue" points="1420.77,-154.86 1428.5,-147.61 1417.93,-148.46 1420.77,-154.86"/>
</g>
<!-- Node10 -->
<g id="node10" class="node">
<title>Node10</title>
<g id="a_node10"><a xlink:href="printfmt_8cc.html#a0e3e484ece5e75b9f5fbe337f0ae8ae3" target="_top" xlink:title=" ">
<polygon fill="white" stroke="black" points="817.5,-95.5 817.5,-114.5 870.5,-114.5 870.5,-95.5 817.5,-95.5"/>
<text text-anchor="middle" x="844" y="-102.5" font-family="Helvetica,sans-Serif" font-size="10.00">describe</text>
</a>
</g>
</g>
<!-- Node6&#45;&gt;Node10 -->
<g id="edge9" class="edge">
<title>Node6&#45;&gt;Node10</title>
<path fill="none" stroke="midnightblue" d="M745.35,-105C766.12,-105 788.78,-105 807.04,-105"/>
<polygon fill="midnightblue" stroke="midnightblue" points="807.24,-108.5 817.24,-105 807.24,-101.5 807.24,-108.5"/>
</g>
<!-- Node12 -->
<g id="node12" class="node">
<title>Node12</title>
<g id="a_node12"><a xlink:href="namespaceconsole_1_1ge.html#a7e301813fd34fde772376afc5fdad95d" target="_top" xlink:title=" ">
<polygon fill="white" stroke="black" points="781,-57.5 781,-76.5 907,-76.5 907,-57.5 781,-57.5"/>
<text text-anchor="middle" x="844" y="-64.5" font-family="Helvetica,sans-Serif" font-size="10.00">console::ge::printNumber</text>
</a>
</g>
</g>
<!-- Node6&#45;&gt;Node12 -->
<g id="edge11" class="edge">
<title>Node6&#45;&gt;Node12</title>
<path fill="none" stroke="midnightblue" d="M725.62,-95.41C746.34,-90.4 771.89,-84.21 793.86,-78.89"/>
<polygon fill="midnightblue" stroke="midnightblue" points="794.77,-82.27 803.67,-76.52 793.12,-75.47 794.77,-82.27"/>
</g>
<!-- Node6&#45;&gt;Node13 -->
<g id="edge21" class="edge">
<title>Node6&#45;&gt;Node13</title>
<path fill="none" stroke="midnightblue" d="M697.33,-95.36C714.22,-81.67 747.63,-57.24 781,-48 830.52,-34.28 888.9,-35.25 932.48,-39.11"/>
<polygon fill="midnightblue" stroke="midnightblue" points="932.38,-42.62 942.66,-40.09 933.05,-35.65 932.38,-42.62"/>
</g>
<!-- Node11 -->
<g id="node11" class="node">
<title>Node11</title>
<g id="a_node11"><a xlink:href="namespacemonitor.html#a318993193c866642f8389a1c1f285739" target="_top" xlink:title=" ">
<polygon fill="white" stroke="black" points="961,-95.5 961,-114.5 1035,-114.5 1035,-95.5 961,-95.5"/>
<text text-anchor="middle" x="998" y="-102.5" font-family="Helvetica,sans-Serif" font-size="10.00">monitor::fuck</text>
</a>
</g>
</g>
<!-- Node10&#45;&gt;Node11 -->
<g id="edge10" class="edge">
<title>Node10&#45;&gt;Node11</title>
<path fill="none" stroke="midnightblue" d="M870.78,-105C892.62,-105 924.46,-105 950.7,-105"/>
<polygon fill="midnightblue" stroke="midnightblue" points="950.82,-108.5 960.82,-105 950.82,-101.5 950.82,-108.5"/>
</g>
<!-- Node12&#45;&gt;Node13 -->
<g id="edge12" class="edge">
<title>Node12&#45;&gt;Node13</title>
<path fill="none" stroke="midnightblue" d="M907.26,-59.22C915.66,-58.17 924.28,-57.09 932.71,-56.04"/>
<polygon fill="midnightblue" stroke="midnightblue" points="933.37,-59.48 942.86,-54.77 932.51,-52.53 933.37,-59.48"/>
</g>
<!-- Node14 -->
<g id="node14" class="node">
<title>Node14</title>
<g id="a_node14"><a xlink:href="namespaceconsole_1_1serial.html#a3a7c1f95ae3c24136ea63bb31fdf0391" target="_top" xlink:title=" ">
<polygon fill="white" stroke="black" points="1089,-38.5 1089,-57.5 1209,-57.5 1209,-38.5 1089,-38.5"/>
<text text-anchor="middle" x="1149" y="-45.5" font-family="Helvetica,sans-Serif" font-size="10.00">console::serial::putChar</text>
</a>
</g>
</g>
<!-- Node13&#45;&gt;Node14 -->
<g id="edge13" class="edge">
<title>Node13&#45;&gt;Node14</title>
<path fill="none" stroke="midnightblue" d="M1053.21,-48C1061.53,-48 1070.2,-48 1078.79,-48"/>
<polygon fill="midnightblue" stroke="midnightblue" points="1078.79,-51.5 1088.79,-48 1078.79,-44.5 1078.79,-51.5"/>
</g>
<!-- Node17 -->
<g id="node17" class="node">
<title>Node17</title>
<g id="a_node17"><a xlink:href="namespaceconsole_1_1cga.html#afa19057ca041b39682d5d4831c43dfa0" target="_top" xlink:title=" ">
<polygon fill="white" stroke="black" points="1092.5,-76.5 1092.5,-95.5 1205.5,-95.5 1205.5,-76.5 1092.5,-76.5"/>
<text text-anchor="middle" x="1149" y="-83.5" font-family="Helvetica,sans-Serif" font-size="10.00">console::cga::putChar</text>
</a>
</g>
</g>
<!-- Node13&#45;&gt;Node17 -->
<g id="edge16" class="edge">
<title>Node13&#45;&gt;Node17</title>
<path fill="none" stroke="midnightblue" d="M1036.6,-57.59C1056.08,-62.56 1080.07,-68.68 1100.8,-73.96"/>
<polygon fill="midnightblue" stroke="midnightblue" points="1100.12,-77.4 1110.67,-76.48 1101.85,-70.62 1100.12,-77.4"/>
</g>
<!-- Node15 -->
<g id="node15" class="node">
<title>Node15</title>
<g id="a_node15"><a xlink:href="namespaceconsole_1_1serial.html#aa5605d4537106bb1c2bab72d7d1a5824" target="_top" xlink:title=" ">
<polygon fill="white" stroke="black" points="1263,-38.5 1263,-57.5 1367,-57.5 1367,-38.5 1263,-38.5"/>
<text text-anchor="middle" x="1315" y="-45.5" font-family="Helvetica,sans-Serif" font-size="10.00">console::serial::sout</text>
</a>
</g>
</g>
<!-- Node14&#45;&gt;Node15 -->
<g id="edge14" class="edge">
<title>Node14&#45;&gt;Node15</title>
<path fill="none" stroke="midnightblue" d="M1209.21,-48C1223.31,-48 1238.39,-48 1252.59,-48"/>
<polygon fill="midnightblue" stroke="midnightblue" points="1252.74,-51.5 1262.74,-48 1252.74,-44.5 1252.74,-51.5"/>
</g>
<!-- Node16 -->
<g id="node16" class="node">
<title>Node16</title>
<g id="a_node16"><a xlink:href="x86_8h.html#ade961b44e45ddacbc3c3b7609cf36dc6" target="_top" xlink:title=" ">
<polygon fill="white" stroke="black" points="1432.5,-71.5 1432.5,-90.5 1467.5,-90.5 1467.5,-71.5 1432.5,-71.5"/>
<text text-anchor="middle" x="1450" y="-78.5" font-family="Helvetica,sans-Serif" font-size="10.00">outb</text>
</a>
</g>
</g>
<!-- Node15&#45;&gt;Node16 -->
<g id="edge15" class="edge">
<title>Node15&#45;&gt;Node16</title>
<path fill="none" stroke="midnightblue" d="M1354.47,-57.54C1376.32,-62.97 1403.11,-69.61 1422.59,-74.45"/>
<polygon fill="midnightblue" stroke="midnightblue" points="1421.76,-77.85 1432.31,-76.86 1423.44,-71.05 1421.76,-77.85"/>
</g>
<!-- Node18 -->
<g id="node18" class="node">
<title>Node18</title>
<g id="a_node18"><a xlink:href="namespacemem.html#a64d9d05b439041901498c606de606431" target="_top" xlink:title=" ">
<polygon fill="white" stroke="black" points="1282.5,-119.5 1282.5,-138.5 1347.5,-138.5 1347.5,-119.5 1282.5,-119.5"/>
<text text-anchor="middle" x="1315" y="-126.5" font-family="Helvetica,sans-Serif" font-size="10.00">mem::copy</text>
</a>
</g>
</g>
<!-- Node17&#45;&gt;Node18 -->
<g id="edge17" class="edge">
<title>Node17&#45;&gt;Node18</title>
<path fill="none" stroke="midnightblue" d="M1186.4,-95.54C1211.92,-102.23 1246.08,-111.19 1272.64,-118.15"/>
<polygon fill="midnightblue" stroke="midnightblue" points="1271.85,-121.57 1282.41,-120.72 1273.62,-114.79 1271.85,-121.57"/>
</g>
<!-- Node19 -->
<g id="node19" class="node">
<title>Node19</title>
<g id="a_node19"><a xlink:href="namespaceconsole_1_1cga.html#a06463d4dc68819e30615ba299d02a78f" target="_top" xlink:title=" ">
<polygon fill="white" stroke="black" points="1245,-76.5 1245,-95.5 1385,-95.5 1385,-76.5 1245,-76.5"/>
<text text-anchor="middle" x="1315" y="-83.5" font-family="Helvetica,sans-Serif" font-size="10.00">console::cga::cursorRefresh</text>
</a>
</g>
</g>
<!-- Node17&#45;&gt;Node19 -->
<g id="edge19" class="edge">
<title>Node17&#45;&gt;Node19</title>
<path fill="none" stroke="midnightblue" d="M1205.52,-86C1214.9,-86 1224.8,-86 1234.65,-86"/>
<polygon fill="midnightblue" stroke="midnightblue" points="1234.87,-89.5 1244.87,-86 1234.87,-82.5 1234.87,-89.5"/>
</g>
<!-- Node18&#45;&gt;Node9 -->
<g id="edge18" class="edge">
<title>Node18&#45;&gt;Node9</title>
<path fill="none" stroke="midnightblue" d="M1347.52,-131.13C1366.49,-132.42 1390.77,-134.06 1410.82,-135.42"/>
<polygon fill="midnightblue" stroke="midnightblue" points="1410.66,-138.91 1420.87,-136.1 1411.13,-131.93 1410.66,-138.91"/>
</g>
<!-- Node19&#45;&gt;Node16 -->
<g id="edge20" class="edge">
<title>Node19&#45;&gt;Node16</title>
<path fill="none" stroke="midnightblue" d="M1385.23,-83.4C1398.48,-82.9 1411.59,-82.41 1422.45,-82"/>
<polygon fill="midnightblue" stroke="midnightblue" points="1422.61,-85.49 1432.47,-81.62 1422.35,-78.5 1422.61,-85.49"/>
</g>
</g>
</svg>
