<?xml version="1.0" encoding="UTF-8" standalone="no"?>
<!DOCTYPE svg PUBLIC "-//W3C//DTD SVG 1.1//EN"
 "http://www.w3.org/Graphics/SVG/1.1/DTD/svg11.dtd">
<!-- Generated by graphviz version 2.44.1 (20200629.0846)
 -->
<!-- Title: monitor::page Pages: 1 -->
<!--zoomable 280 -->
<svg id="main" version="1.1" xmlns="http://www.w3.org/2000/svg" xmlns:xlink="http://www.w3.org/1999/xlink" xml:space="preserve" onload="init(evt)">
<style type="text/css"><![CDATA[
.edge:hover path { stroke: red; }
.edge:hover polygon { stroke: red; fill: red; }
]]></style>
<script type="text/javascript"><![CDATA[
var edges = document.getElementsByTagName('g');
if (edges && edges.length) {
  for (var i=0;i<edges.length;i++) {
    if (edges[i].id.substr(0,4)=='edge') {
      edges[i].setAttribute('class','edge');
    }
  }
}
]]></script>
        <defs>
                <circle id="rim" cx="0" cy="0" r="7"/>
                <circle id="rim2" cx="0" cy="0" r="3.5"/>
                <g id="zoomPlus">
                        <use xlink:href="#rim" fill="#404040">
                                <set attributeName="fill" to="#808080" begin="zoomplus.mouseover" end="zoomplus.mouseout"/>
                        </use>
                        <path d="M-4,0h8M0,-4v8" fill="none" stroke="white" stroke-width="1.5" pointer-events="none"/>
                </g>
                <g id="zoomMin">
                        <use xlink:href="#rim" fill="#404040">
                                <set attributeName="fill" to="#808080" begin="zoomminus.mouseover" end="zoomminus.mouseout"/>
                        </use>
                        <path d="M-4,0h8" fill="none" stroke="white" stroke-width="1.5" pointer-events="none"/>
                </g>
                <g id="dirArrow">
                        <path fill="none" stroke="white" stroke-width="1.5" d="M0,-3.0v7 M-2.5,-0.5L0,-3.0L2.5,-0.5"/>
                </g>
               <g id="resetDef">
                       <use xlink:href="#rim2" fill="#404040">
                               <set attributeName="fill" to="#808080" begin="reset.mouseover" end="reset.mouseout"/>
                       </use>
               </g>
        </defs>

<script type="text/javascript">
var viewWidth = 1278;
var viewHeight = 280;
var sectionId = 'dynsection-5';
</script>
<script xlink:href="svgpan.js"/>
<svg id="graph" class="graph">
<g id="viewport">
<title>monitor::page</title>
<polygon fill="white" stroke="transparent" points="-4,4 -4,-276.09 1274,-276.09 1274,4 -4,4"/>
<!-- Node1 -->
<g id="node1" class="node">
<title>Node1</title>
<g id="a_node1"><a xlink:title=" ">
<polygon fill="#bfbfbf" stroke="black" points="0,-224.59 0,-243.59 76,-243.59 76,-224.59 0,-224.59"/>
<text text-anchor="middle" x="38" y="-231.59" font-family="Helvetica,sans-Serif" font-size="10.00">monitor::page</text>
</a>
</g>
</g>
<!-- Node2 -->
<g id="node2" class="node">
<title>Node2</title>
<g id="a_node2"><a xlink:href="namespacestr.html#a062221f630647cf300f0dd982c4ed904" target="_top" xlink:title=" ">
<polygon fill="white" stroke="black" points="1212,-205.59 1212,-224.59 1270,-224.59 1270,-205.59 1212,-205.59"/>
<text text-anchor="middle" x="1241" y="-212.59" font-family="Helvetica,sans-Serif" font-size="10.00">str::count</text>
</a>
</g>
</g>
<!-- Node1&#45;&gt;Node2 -->
<g id="edge1" class="edge">
<title>Node1&#45;&gt;Node2</title>
<path fill="none" stroke="midnightblue" d="M76.1,-242.62C128.17,-253.83 226.02,-272.09 310.5,-272.09 310.5,-272.09 310.5,-272.09 941,-272.09 1046.41,-272.09 1073.97,-266.57 1176,-240.09 1187.4,-237.14 1199.53,-232.74 1210.13,-228.45"/>
<polygon fill="midnightblue" stroke="midnightblue" points="1211.49,-231.68 1219.37,-224.59 1208.8,-225.22 1211.49,-231.68"/>
</g>
<!-- Node3 -->
<g id="node3" class="node">
<title>Node3</title>
<g id="a_node3"><a xlink:href="structvmem_1_1_page_info.html#ab46edf3eef912a8556363c2beb310f35" target="_top" xlink:title=" ">
<polygon fill="white" stroke="black" points="243,-224.59 243,-243.59 380,-243.59 380,-224.59 243,-224.59"/>
<text text-anchor="middle" x="311.5" y="-231.59" font-family="Helvetica,sans-Serif" font-size="10.00">vmem::PageInfo::freeCount</text>
</a>
</g>
</g>
<!-- Node1&#45;&gt;Node3 -->
<g id="edge2" class="edge">
<title>Node1&#45;&gt;Node3</title>
<path fill="none" stroke="midnightblue" d="M76.18,-234.09C116.35,-234.09 181.49,-234.09 232.9,-234.09"/>
<polygon fill="midnightblue" stroke="midnightblue" points="232.99,-237.59 242.99,-234.09 232.99,-230.59 232.99,-237.59"/>
</g>
<!-- Node4 -->
<g id="node4" class="node">
<title>Node4</title>
<g id="a_node4"><a xlink:href="namespaceconsole_1_1out.html#ac6f663e3971b66b8e130ee94755a150e" target="_top" xlink:title=" ">
<polygon fill="white" stroke="black" points="112,-129.59 112,-148.59 207,-148.59 207,-129.59 112,-129.59"/>
<text text-anchor="middle" x="159.5" y="-136.59" font-family="Helvetica,sans-Serif" font-size="10.00">console::out::print</text>
</a>
</g>
</g>
<!-- Node1&#45;&gt;Node4 -->
<g id="edge4" class="edge">
<title>Node1&#45;&gt;Node4</title>
<path fill="none" stroke="midnightblue" d="M51.34,-224.29C71.93,-207.92 113.49,-174.88 138.36,-155.1"/>
<polygon fill="midnightblue" stroke="midnightblue" points="140.76,-157.67 146.41,-148.71 136.4,-152.19 140.76,-157.67"/>
</g>
<!-- Node3&#45;&gt;Node2 -->
<g id="edge3" class="edge">
<title>Node3&#45;&gt;Node2</title>
<path fill="none" stroke="midnightblue" d="M380.24,-234.09C445.3,-234.09 546.37,-234.09 634,-234.09 634,-234.09 634,-234.09 941,-234.09 1034.77,-234.09 1144.75,-224.67 1201.61,-219.1"/>
<polygon fill="midnightblue" stroke="midnightblue" points="1201.99,-222.58 1211.59,-218.1 1201.29,-215.61 1201.99,-222.58"/>
</g>
<!-- Node5 -->
<g id="node5" class="node">
<title>Node5</title>
<g id="a_node5"><a xlink:href="namespaceconsole_1_1out.html#a8f791bfac54067cadb1b9f18117b987b" target="_top" xlink:title=" ">
<polygon fill="white" stroke="black" points="258.5,-91.59 258.5,-110.59 364.5,-110.59 364.5,-91.59 258.5,-91.59"/>
<text text-anchor="middle" x="311.5" y="-98.59" font-family="Helvetica,sans-Serif" font-size="10.00">console::out::printVa</text>
</a>
</g>
</g>
<!-- Node4&#45;&gt;Node5 -->
<g id="edge5" class="edge">
<title>Node4&#45;&gt;Node5</title>
<path fill="none" stroke="midnightblue" d="M198.35,-129.51C217.97,-124.54 242.12,-118.42 262.98,-113.13"/>
<polygon fill="midnightblue" stroke="midnightblue" points="264.09,-116.46 272.92,-110.61 262.37,-109.68 264.09,-116.46"/>
</g>
<!-- Node6 -->
<g id="node6" class="node">
<title>Node6</title>
<g id="a_node6"><a xlink:href="namespaceconsole_1_1ge.html#af642934cb833142f133285fdb75ef7b7" target="_top" xlink:title=" ">
<polygon fill="white" stroke="black" points="416,-91.59 416,-110.59 536,-110.59 536,-91.59 416,-91.59"/>
<text text-anchor="middle" x="476" y="-98.59" font-family="Helvetica,sans-Serif" font-size="10.00">console::ge::printFmtVa</text>
</a>
</g>
</g>
<!-- Node5&#45;&gt;Node6 -->
<g id="edge6" class="edge">
<title>Node5&#45;&gt;Node6</title>
<path fill="none" stroke="midnightblue" d="M364.81,-101.09C377.75,-101.09 391.81,-101.09 405.43,-101.09"/>
<polygon fill="midnightblue" stroke="midnightblue" points="405.73,-104.59 415.73,-101.09 405.73,-97.59 405.73,-104.59"/>
</g>
<!-- Node12 -->
<g id="node12" class="node">
<title>Node12</title>
<g id="a_node12"><a xlink:href="namespaceconsole_1_1out.html#ad9fc97dff4404c2d21aedbb24691e7cb" target="_top" xlink:title=" ">
<polygon fill="white" stroke="black" points="734,-15.59 734,-34.59 844,-34.59 844,-15.59 734,-15.59"/>
<text text-anchor="middle" x="789" y="-22.59" font-family="Helvetica,sans-Serif" font-size="10.00">console::out::putChar</text>
</a>
</g>
</g>
<!-- Node5&#45;&gt;Node12 -->
<g id="edge23" class="edge">
<title>Node5&#45;&gt;Node12</title>
<path fill="none" stroke="midnightblue" d="M331.38,-91.54C373.33,-70.92 477.99,-22.76 572,-6.09 627.14,3.68 642.3,-0.28 698,-6.09 712.31,-7.59 727.7,-10.39 741.64,-13.38"/>
<polygon fill="midnightblue" stroke="midnightblue" points="740.97,-16.82 751.49,-15.59 742.5,-9.99 740.97,-16.82"/>
</g>
<!-- Node6&#45;&gt;Node2 -->
<g id="edge9" class="edge">
<title>Node6&#45;&gt;Node2</title>
<path fill="none" stroke="midnightblue" d="M485.26,-110.67C500.46,-127.53 534.75,-162.16 572,-177.09 661.45,-212.95 691.63,-196.09 788,-196.09 788,-196.09 788,-196.09 941,-196.09 1034.77,-196.09 1144.75,-205.52 1201.61,-211.09"/>
<polygon fill="midnightblue" stroke="midnightblue" points="1201.29,-214.58 1211.59,-212.08 1201.99,-207.61 1201.29,-214.58"/>
</g>
<!-- Node7 -->
<g id="node7" class="node">
<title>Node7</title>
<g id="a_node7"><a xlink:href="printfmt_8cc.html#a708ec6ee2b8bd2d7a453d8d9436ed3b3" target="_top" xlink:title=" ">
<polygon fill="white" stroke="black" points="606,-148.59 606,-167.59 664,-167.59 664,-148.59 606,-148.59"/>
<text text-anchor="middle" x="635" y="-155.59" font-family="Helvetica,sans-Serif" font-size="10.00">_getIntVa</text>
</a>
</g>
</g>
<!-- Node6&#45;&gt;Node7 -->
<g id="edge7" class="edge">
<title>Node6&#45;&gt;Node7</title>
<path fill="none" stroke="midnightblue" d="M499.45,-110.69C518.57,-118.71 546.87,-130.23 572,-139.09 579.69,-141.8 587.99,-144.5 595.94,-146.98"/>
<polygon fill="midnightblue" stroke="midnightblue" points="595.17,-150.4 605.75,-149.98 597.21,-143.71 595.17,-150.4"/>
</g>
<!-- Node8 -->
<g id="node8" class="node">
<title>Node8</title>
<g id="a_node8"><a xlink:href="printfmt_8cc.html#af4b46892c76c8bfd27efdb20847eb7c8" target="_top" xlink:title=" ">
<polygon fill="white" stroke="black" points="602.5,-110.59 602.5,-129.59 667.5,-129.59 667.5,-110.59 602.5,-110.59"/>
<text text-anchor="middle" x="635" y="-117.59" font-family="Helvetica,sans-Serif" font-size="10.00">_getUIntVa</text>
</a>
</g>
</g>
<!-- Node6&#45;&gt;Node8 -->
<g id="edge8" class="edge">
<title>Node6&#45;&gt;Node8</title>
<path fill="none" stroke="midnightblue" d="M536.35,-108.28C554.91,-110.52 574.98,-112.95 592.07,-115.02"/>
<polygon fill="midnightblue" stroke="midnightblue" points="591.94,-118.53 602.29,-116.26 592.78,-111.58 591.94,-118.53"/>
</g>
<!-- Node9 -->
<g id="node9" class="node">
<title>Node9</title>
<g id="a_node9"><a xlink:href="printfmt_8cc.html#a0e3e484ece5e75b9f5fbe337f0ae8ae3" target="_top" xlink:title=" ">
<polygon fill="white" stroke="black" points="608.5,-72.59 608.5,-91.59 661.5,-91.59 661.5,-72.59 608.5,-72.59"/>
<text text-anchor="middle" x="635" y="-79.59" font-family="Helvetica,sans-Serif" font-size="10.00">describe</text>
</a>
</g>
</g>
<!-- Node6&#45;&gt;Node9 -->
<g id="edge10" class="edge">
<title>Node6&#45;&gt;Node9</title>
<path fill="none" stroke="midnightblue" d="M536.35,-93.91C557.21,-91.39 579.99,-88.63 598.3,-86.41"/>
<polygon fill="midnightblue" stroke="midnightblue" points="598.73,-89.89 608.24,-85.21 597.89,-82.94 598.73,-89.89"/>
</g>
<!-- Node11 -->
<g id="node11" class="node">
<title>Node11</title>
<g id="a_node11"><a xlink:href="namespaceconsole_1_1ge.html#a7e301813fd34fde772376afc5fdad95d" target="_top" xlink:title=" ">
<polygon fill="white" stroke="black" points="572,-34.59 572,-53.59 698,-53.59 698,-34.59 572,-34.59"/>
<text text-anchor="middle" x="635" y="-41.59" font-family="Helvetica,sans-Serif" font-size="10.00">console::ge::printNumber</text>
</a>
</g>
</g>
<!-- Node6&#45;&gt;Node11 -->
<g id="edge12" class="edge">
<title>Node6&#45;&gt;Node11</title>
<path fill="none" stroke="midnightblue" d="M499.45,-91.5C518.57,-83.48 546.87,-71.95 572,-63.09 578.13,-60.93 584.65,-58.78 591.07,-56.74"/>
<polygon fill="midnightblue" stroke="midnightblue" points="592.51,-59.96 601.01,-53.65 590.42,-53.28 592.51,-59.96"/>
</g>
<!-- Node6&#45;&gt;Node12 -->
<g id="edge22" class="edge">
<title>Node6&#45;&gt;Node12</title>
<path fill="none" stroke="midnightblue" d="M484.9,-91.47C499.79,-74.18 533.93,-38.45 572,-25.09 621.41,-7.76 681.17,-9.34 725.3,-14.35"/>
<polygon fill="midnightblue" stroke="midnightblue" points="724.97,-17.83 735.32,-15.58 725.82,-10.89 724.97,-17.83"/>
</g>
<!-- Node10 -->
<g id="node10" class="node">
<title>Node10</title>
<g id="a_node10"><a xlink:href="namespacemonitor.html#a318993193c866642f8389a1c1f285739" target="_top" xlink:title=" ">
<polygon fill="white" stroke="black" points="752,-72.59 752,-91.59 826,-91.59 826,-72.59 752,-72.59"/>
<text text-anchor="middle" x="789" y="-79.59" font-family="Helvetica,sans-Serif" font-size="10.00">monitor::fuck</text>
</a>
</g>
</g>
<!-- Node9&#45;&gt;Node10 -->
<g id="edge11" class="edge">
<title>Node9&#45;&gt;Node10</title>
<path fill="none" stroke="midnightblue" d="M661.78,-82.09C683.62,-82.09 715.46,-82.09 741.7,-82.09"/>
<polygon fill="midnightblue" stroke="midnightblue" points="741.82,-85.59 751.82,-82.09 741.82,-78.59 741.82,-85.59"/>
</g>
<!-- Node11&#45;&gt;Node12 -->
<g id="edge13" class="edge">
<title>Node11&#45;&gt;Node12</title>
<path fill="none" stroke="midnightblue" d="M698.26,-36.31C706.66,-35.26 715.28,-34.18 723.71,-33.13"/>
<polygon fill="midnightblue" stroke="midnightblue" points="724.37,-36.57 733.86,-31.86 723.51,-29.63 724.37,-36.57"/>
</g>
<!-- Node13 -->
<g id="node13" class="node">
<title>Node13</title>
<g id="a_node13"><a xlink:href="namespaceconsole_1_1serial.html#a3a7c1f95ae3c24136ea63bb31fdf0391" target="_top" xlink:title=" ">
<polygon fill="white" stroke="black" points="880,-15.59 880,-34.59 1000,-34.59 1000,-15.59 880,-15.59"/>
<text text-anchor="middle" x="940" y="-22.59" font-family="Helvetica,sans-Serif" font-size="10.00">console::serial::putChar</text>
</a>
</g>
</g>
<!-- Node12&#45;&gt;Node13 -->
<g id="edge14" class="edge">
<title>Node12&#45;&gt;Node13</title>
<path fill="none" stroke="midnightblue" d="M844.21,-25.09C852.53,-25.09 861.2,-25.09 869.79,-25.09"/>
<polygon fill="midnightblue" stroke="midnightblue" points="869.79,-28.59 879.79,-25.09 869.79,-21.59 869.79,-28.59"/>
</g>
<!-- Node16 -->
<g id="node16" class="node">
<title>Node16</title>
<g id="a_node16"><a xlink:href="namespaceconsole_1_1cga.html#afa19057ca041b39682d5d4831c43dfa0" target="_top" xlink:title=" ">
<polygon fill="white" stroke="black" points="883.5,-53.59 883.5,-72.59 996.5,-72.59 996.5,-53.59 883.5,-53.59"/>
<text text-anchor="middle" x="940" y="-60.59" font-family="Helvetica,sans-Serif" font-size="10.00">console::cga::putChar</text>
</a>
</g>
</g>
<!-- Node12&#45;&gt;Node16 -->
<g id="edge17" class="edge">
<title>Node12&#45;&gt;Node16</title>
<path fill="none" stroke="midnightblue" d="M827.6,-34.68C847.08,-39.65 871.07,-45.77 891.8,-51.06"/>
<polygon fill="midnightblue" stroke="midnightblue" points="891.12,-54.49 901.67,-53.57 892.85,-47.71 891.12,-54.49"/>
</g>
<!-- Node14 -->
<g id="node14" class="node">
<title>Node14</title>
<g id="a_node14"><a xlink:href="namespaceconsole_1_1serial.html#aa5605d4537106bb1c2bab72d7d1a5824" target="_top" xlink:title=" ">
<polygon fill="white" stroke="black" points="1054,-15.59 1054,-34.59 1158,-34.59 1158,-15.59 1054,-15.59"/>
<text text-anchor="middle" x="1106" y="-22.59" font-family="Helvetica,sans-Serif" font-size="10.00">console::serial::sout</text>
</a>
</g>
</g>
<!-- Node13&#45;&gt;Node14 -->
<g id="edge15" class="edge">
<title>Node13&#45;&gt;Node14</title>
<path fill="none" stroke="midnightblue" d="M1000.21,-25.09C1014.31,-25.09 1029.39,-25.09 1043.59,-25.09"/>
<polygon fill="midnightblue" stroke="midnightblue" points="1043.74,-28.59 1053.74,-25.09 1043.74,-21.59 1043.74,-28.59"/>
</g>
<!-- Node15 -->
<g id="node15" class="node">
<title>Node15</title>
<g id="a_node15"><a xlink:href="x86_8h.html#ade961b44e45ddacbc3c3b7609cf36dc6" target="_top" xlink:title=" ">
<polygon fill="white" stroke="black" points="1223.5,-34.59 1223.5,-53.59 1258.5,-53.59 1258.5,-34.59 1223.5,-34.59"/>
<text text-anchor="middle" x="1241" y="-41.59" font-family="Helvetica,sans-Serif" font-size="10.00">outb</text>
</a>
</g>
</g>
<!-- Node14&#45;&gt;Node15 -->
<g id="edge16" class="edge">
<title>Node14&#45;&gt;Node15</title>
<path fill="none" stroke="midnightblue" d="M1158.04,-32.39C1176.85,-35.07 1197.4,-38.01 1213.22,-40.27"/>
<polygon fill="midnightblue" stroke="midnightblue" points="1212.95,-43.76 1223.34,-41.71 1213.94,-36.84 1212.95,-43.76"/>
</g>
<!-- Node17 -->
<g id="node17" class="node">
<title>Node17</title>
<g id="a_node17"><a xlink:href="namespacemem.html#a64d9d05b439041901498c606de606431" target="_top" xlink:title=" ">
<polygon fill="white" stroke="black" points="1073.5,-120.59 1073.5,-139.59 1138.5,-139.59 1138.5,-120.59 1073.5,-120.59"/>
<text text-anchor="middle" x="1106" y="-127.59" font-family="Helvetica,sans-Serif" font-size="10.00">mem::copy</text>
</a>
</g>
</g>
<!-- Node16&#45;&gt;Node17 -->
<g id="edge18" class="edge">
<title>Node16&#45;&gt;Node17</title>
<path fill="none" stroke="midnightblue" d="M964.5,-72.69C992.75,-84.24 1040.34,-103.68 1072.2,-116.69"/>
<polygon fill="midnightblue" stroke="midnightblue" points="1070.97,-119.97 1081.55,-120.51 1073.61,-113.49 1070.97,-119.97"/>
</g>
<!-- Node18 -->
<g id="node18" class="node">
<title>Node18</title>
<g id="a_node18"><a xlink:href="namespaceconsole_1_1cga.html#a06463d4dc68819e30615ba299d02a78f" target="_top" xlink:title=" ">
<polygon fill="white" stroke="black" points="1036,-53.59 1036,-72.59 1176,-72.59 1176,-53.59 1036,-53.59"/>
<text text-anchor="middle" x="1106" y="-60.59" font-family="Helvetica,sans-Serif" font-size="10.00">console::cga::cursorRefresh</text>
</a>
</g>
</g>
<!-- Node16&#45;&gt;Node18 -->
<g id="edge20" class="edge">
<title>Node16&#45;&gt;Node18</title>
<path fill="none" stroke="midnightblue" d="M996.52,-63.09C1005.9,-63.09 1015.8,-63.09 1025.65,-63.09"/>
<polygon fill="midnightblue" stroke="midnightblue" points="1025.87,-66.59 1035.87,-63.09 1025.87,-59.59 1025.87,-66.59"/>
</g>
<!-- Node17&#45;&gt;Node2 -->
<g id="edge19" class="edge">
<title>Node17&#45;&gt;Node2</title>
<path fill="none" stroke="midnightblue" d="M1122,-139.68C1144.95,-154.35 1188.98,-182.49 1216.29,-199.94"/>
<polygon fill="midnightblue" stroke="midnightblue" points="1214.54,-202.98 1224.85,-205.41 1218.31,-197.08 1214.54,-202.98"/>
</g>
<!-- Node18&#45;&gt;Node15 -->
<g id="edge21" class="edge">
<title>Node18&#45;&gt;Node15</title>
<path fill="none" stroke="midnightblue" d="M1173.89,-53.54C1187.81,-51.55 1201.71,-49.56 1213.15,-47.93"/>
<polygon fill="midnightblue" stroke="midnightblue" points="1213.87,-51.36 1223.28,-46.48 1212.88,-44.43 1213.87,-51.36"/>
</g>
</g>
</svg>
        <g id="navigator" transform="translate(0 0)" fill="#404254">
                <rect fill="#f2f5e9" fill-opacity="0.5" stroke="#606060" stroke-width=".5" x="0" y="0" width="60" height="60"/>
                <use id="zoomplus" xlink:href="#zoomPlus" x="17" y="9" onmousedown="handleZoom(evt,'in')"/>
                <use id="zoomminus" xlink:href="#zoomMin" x="42" y="9" onmousedown="handleZoom(evt,'out')"/>
                <use id="reset" xlink:href="#resetDef" x="30" y="36" onmousedown="handleReset()"/>
                <g id="arrowUp" xlink:href="#dirArrow" transform="translate(30 24)" onmousedown="handlePan(0,-1)">
                  <use xlink:href="#rim" fill="#404040">
                        <set attributeName="fill" to="#808080" begin="arrowUp.mouseover" end="arrowUp.mouseout"/>
                  </use>
                  <path fill="none" stroke="white" stroke-width="1.5" d="M0,-3.0v7 M-2.5,-0.5L0,-3.0L2.5,-0.5"/>
                </g>
                <g id="arrowRight" xlink:href="#dirArrow" transform="rotate(90) translate(36 -43)" onmousedown="handlePan(1,0)">
                  <use xlink:href="#rim" fill="#404040">
                        <set attributeName="fill" to="#808080" begin="arrowRight.mouseover" end="arrowRight.mouseout"/>
                  </use>
                  <path fill="none" stroke="white" stroke-width="1.5" d="M0,-3.0v7 M-2.5,-0.5L0,-3.0L2.5,-0.5"/>
                </g>
                <g id="arrowDown" xlink:href="#dirArrow" transform="rotate(180) translate(-30 -48)" onmousedown="handlePan(0,1)">
                  <use xlink:href="#rim" fill="#404040">
                        <set attributeName="fill" to="#808080" begin="arrowDown.mouseover" end="arrowDown.mouseout"/>
                  </use>
                  <path fill="none" stroke="white" stroke-width="1.5" d="M0,-3.0v7 M-2.5,-0.5L0,-3.0L2.5,-0.5"/>
                </g>
                <g id="arrowLeft" xlink:href="#dirArrow" transform="rotate(270) translate(-36 17)" onmousedown="handlePan(-1,0)">
                  <use xlink:href="#rim" fill="#404040">
                        <set attributeName="fill" to="#808080" begin="arrowLeft.mouseover" end="arrowLeft.mouseout"/>
                  </use>
                  <path fill="none" stroke="white" stroke-width="1.5" d="M0,-3.0v7 M-2.5,-0.5L0,-3.0L2.5,-0.5"/>
                </g>
        </g>
        <svg viewBox="0 0 15 15" width="100%" height="30px" preserveAspectRatio="xMaxYMin meet">
         <g id="arrow_out" transform="scale(0.3 0.3)">
          <a xlink:href="namespacemonitor_a4b5d3ce92dd6d48ccbb57e3286d8499b_cgraph_org.svg" target="_base">
           <rect id="button" ry="5" rx="5" y="6" x="6" height="38" width="38"
                fill="#f2f5e9" fill-opacity="0.5" stroke="#606060" stroke-width="1.0"/>
           <path id="arrow"
             d="M 11.500037,31.436501 C 11.940474,20.09759 22.043105,11.32322 32.158766,21.979434 L 37.068811,17.246167 C 37.068811,17.246167 37.088388,32 37.088388,32 L 22.160133,31.978069 C 22.160133,31.978069 26.997745,27.140456 26.997745,27.140456 C 18.528582,18.264221 13.291696,25.230495 11.500037,31.436501 z"
             style="fill:#404040;"/>
          </a>
         </g>
        </svg>
</svg>
