<?xml version="1.0" encoding="UTF-8" standalone="no"?>
<!DOCTYPE svg PUBLIC "-//W3C//DTD SVG 1.1//EN"
 "http://www.w3.org/Graphics/SVG/1.1/DTD/svg11.dtd">
<!-- Generated by graphviz version 2.44.1 (20200629.0846)
 -->
<!-- Title: ksyscall::main Pages: 1 -->
<!--zoomable 725 -->
<svg id="main" version="1.1" xmlns="http://www.w3.org/2000/svg" xmlns:xlink="http://www.w3.org/1999/xlink" xml:space="preserve" onload="init(evt)">
<style type="text/css"><![CDATA[
.edge:hover path { stroke: red; }
.edge:hover polygon { stroke: red; fill: red; }
]]></style>
<script type="text/javascript"><![CDATA[
var edges = document.getElementsByTagName('g');
if (edges && edges.length) {
  for (var i=0;i<edges.length;i++) {
    if (edges[i].id.substr(0,4)=='edge') {
      edges[i].setAttribute('class','edge');
    }
  }
}
]]></script>
        <defs>
                <circle id="rim" cx="0" cy="0" r="7"/>
                <circle id="rim2" cx="0" cy="0" r="3.5"/>
                <g id="zoomPlus">
                        <use xlink:href="#rim" fill="#404040">
                                <set attributeName="fill" to="#808080" begin="zoomplus.mouseover" end="zoomplus.mouseout"/>
                        </use>
                        <path d="M-4,0h8M0,-4v8" fill="none" stroke="white" stroke-width="1.5" pointer-events="none"/>
                </g>
                <g id="zoomMin">
                        <use xlink:href="#rim" fill="#404040">
                                <set attributeName="fill" to="#808080" begin="zoomminus.mouseover" end="zoomminus.mouseout"/>
                        </use>
                        <path d="M-4,0h8" fill="none" stroke="white" stroke-width="1.5" pointer-events="none"/>
                </g>
                <g id="dirArrow">
                        <path fill="none" stroke="white" stroke-width="1.5" d="M0,-3.0v7 M-2.5,-0.5L0,-3.0L2.5,-0.5"/>
                </g>
               <g id="resetDef">
                       <use xlink:href="#rim2" fill="#404040">
                               <set attributeName="fill" to="#808080" begin="reset.mouseover" end="reset.mouseout"/>
                       </use>
               </g>
        </defs>

<script type="text/javascript">
var viewWidth = 1853;
var viewHeight = 725;
var sectionId = 'dynsection-2';
</script>
<script xlink:href="svgpan.js"/>
<svg id="graph" class="graph">
<g id="viewport">
<title>ksyscall::main</title>
<polygon fill="white" stroke="transparent" points="-4,4 -4,-721 1849,-721 1849,4 -4,4"/>
<!-- Node1 -->
<g id="node1" class="node">
<title>Node1</title>
<g id="a_node1"><a xlink:title=" ">
<polygon fill="#bfbfbf" stroke="black" points="0,-304.5 0,-323.5 80,-323.5 80,-304.5 0,-304.5"/>
<text text-anchor="middle" x="40" y="-311.5" font-family="Helvetica,sans-Serif" font-size="10.00">ksyscall::main</text>
</a>
</g>
</g>
<!-- Node2 -->
<g id="node2" class="node">
<title>Node2</title>
<g id="a_node2"><a xlink:href="namespaceksyscall.html#a195263365bad3443fd1322d8658f40ce" target="_top" xlink:title=" ">
<polygon fill="white" stroke="black" points="128,-304.5 128,-323.5 202,-323.5 202,-304.5 128,-304.5"/>
<text text-anchor="middle" x="165" y="-311.5" font-family="Helvetica,sans-Serif" font-size="10.00">ksyscall::exit</text>
</a>
</g>
</g>
<!-- Node1&#45;&gt;Node2 -->
<g id="edge1" class="edge">
<title>Node1&#45;&gt;Node2</title>
<path fill="none" stroke="midnightblue" d="M80.26,-314C92.12,-314 105.26,-314 117.55,-314"/>
<polygon fill="midnightblue" stroke="midnightblue" points="117.62,-317.5 127.62,-314 117.62,-310.5 117.62,-317.5"/>
</g>
<!-- Node32 -->
<g id="node32" class="node">
<title>Node32</title>
<g id="a_node32"><a xlink:href="namespaceksyscall.html#abcdaea607723e03ea3fb919c121981ec" target="_top" xlink:title=" ">
<polygon fill="white" stroke="black" points="265.5,-238.5 265.5,-257.5 358.5,-257.5 358.5,-238.5 265.5,-238.5"/>
<text text-anchor="middle" x="312" y="-245.5" font-family="Helvetica,sans-Serif" font-size="10.00">ksyscall::getChar</text>
</a>
</g>
</g>
<!-- Node1&#45;&gt;Node32 -->
<g id="edge41" class="edge">
<title>Node1&#45;&gt;Node32</title>
<path fill="none" stroke="midnightblue" d="M78.36,-304.44C90.37,-301.4 103.74,-298.03 116,-295 165.14,-282.85 221.34,-269.35 260.74,-259.94"/>
<polygon fill="midnightblue" stroke="midnightblue" points="261.72,-263.31 270.63,-257.59 260.09,-256.5 261.72,-263.31"/>
</g>
<!-- Node33 -->
<g id="node33" class="node">
<title>Node33</title>
<g id="a_node33"><a xlink:href="namespaceksyscall.html#a20b510ff748ce75bc0860b4ff4e15a60" target="_top" xlink:title=" ">
<polygon fill="white" stroke="black" points="116,-380.5 116,-399.5 214,-399.5 214,-380.5 116,-380.5"/>
<text text-anchor="middle" x="165" y="-387.5" font-family="Helvetica,sans-Serif" font-size="10.00">ksyscall::putString</text>
</a>
</g>
</g>
<!-- Node1&#45;&gt;Node33 -->
<g id="edge43" class="edge">
<title>Node1&#45;&gt;Node33</title>
<path fill="none" stroke="midnightblue" d="M56.58,-323.63C77.56,-336.59 115.1,-359.79 139.78,-375.04"/>
<polygon fill="midnightblue" stroke="midnightblue" points="138.2,-378.17 148.55,-380.45 141.88,-372.22 138.2,-378.17"/>
</g>
<!-- Node3 -->
<g id="node3" class="node">
<title>Node3</title>
<g id="a_node3"><a xlink:href="structtask_1_1_task.html#acc107ba9ef939a92f459873765fb73eb" target="_top" xlink:title=" ">
<polygon fill="white" stroke="black" points="261.5,-304.5 261.5,-323.5 362.5,-323.5 362.5,-304.5 261.5,-304.5"/>
<text text-anchor="middle" x="312" y="-311.5" font-family="Helvetica,sans-Serif" font-size="10.00">task::Task::destroy</text>
</a>
</g>
</g>
<!-- Node2&#45;&gt;Node3 -->
<g id="edge2" class="edge">
<title>Node2&#45;&gt;Node3</title>
<path fill="none" stroke="midnightblue" d="M202.22,-314C217.01,-314 234.52,-314 251.13,-314"/>
<polygon fill="midnightblue" stroke="midnightblue" points="251.31,-317.5 261.31,-314 251.31,-310.5 251.31,-317.5"/>
</g>
<!-- Node4 -->
<g id="node4" class="node">
<title>Node4</title>
<g id="a_node4"><a xlink:href="x86_8h.html#ab3bac932074f6042165d3016b701900a" target="_top" xlink:title=" ">
<polygon fill="white" stroke="black" points="432,-304.5 432,-323.5 464,-323.5 464,-304.5 432,-304.5"/>
<text text-anchor="middle" x="448" y="-311.5" font-family="Helvetica,sans-Serif" font-size="10.00">lcr3</text>
</a>
</g>
</g>
<!-- Node3&#45;&gt;Node4 -->
<g id="edge3" class="edge">
<title>Node3&#45;&gt;Node4</title>
<path fill="none" stroke="midnightblue" d="M362.52,-314C382.7,-314 405.16,-314 421.84,-314"/>
<polygon fill="midnightblue" stroke="midnightblue" points="421.89,-317.5 431.89,-314 421.89,-310.5 421.89,-317.5"/>
</g>
<!-- Node5 -->
<g id="node5" class="node">
<title>Node5</title>
<g id="a_node5"><a xlink:href="namespacemonitor.html#ac02f947e274eb7d38cdfa803c21ef579" target="_top" xlink:title=" ">
<polygon fill="white" stroke="black" points="410,-380.5 410,-399.5 486,-399.5 486,-380.5 410,-380.5"/>
<text text-anchor="middle" x="448" y="-387.5" font-family="Helvetica,sans-Serif" font-size="10.00">monitor::main</text>
</a>
</g>
</g>
<!-- Node3&#45;&gt;Node5 -->
<g id="edge4" class="edge">
<title>Node3&#45;&gt;Node5</title>
<path fill="none" stroke="midnightblue" d="M329.97,-323.63C353.03,-336.7 394.45,-360.2 421.32,-375.44"/>
<polygon fill="midnightblue" stroke="midnightblue" points="419.74,-378.56 430.17,-380.45 423.19,-372.47 419.74,-378.56"/>
</g>
<!-- Node12 -->
<g id="node12" class="node">
<title>Node12</title>
<g id="a_node12"><a xlink:href="namespaceconsole_1_1out.html#ac6f663e3971b66b8e130ee94755a150e" target="_top" xlink:title=" ">
<polygon fill="white" stroke="black" points="526.5,-304.5 526.5,-323.5 621.5,-323.5 621.5,-304.5 526.5,-304.5"/>
<text text-anchor="middle" x="574" y="-311.5" font-family="Helvetica,sans-Serif" font-size="10.00">console::out::print</text>
</a>
</g>
</g>
<!-- Node3&#45;&gt;Node12 -->
<g id="edge40" class="edge">
<title>Node3&#45;&gt;Node12</title>
<path fill="none" stroke="midnightblue" d="M352.39,-304.49C369.91,-300.72 390.87,-296.86 410,-295 443.62,-291.74 452.42,-291.38 486,-295 499.72,-296.48 514.45,-299.24 527.81,-302.2"/>
<polygon fill="midnightblue" stroke="midnightblue" points="527.2,-305.65 537.73,-304.49 528.77,-298.83 527.2,-305.65"/>
</g>
<!-- Node6 -->
<g id="node6" class="node">
<title>Node6</title>
<g id="a_node6"><a xlink:href="namespacemonitor.html#a8b88ed0586263051a6af8dbff388e314" target="_top" xlink:title=" ">
<polygon fill="white" stroke="black" points="524,-456.5 524,-475.5 624,-475.5 624,-456.5 524,-456.5"/>
<text text-anchor="middle" x="574" y="-463.5" font-family="Helvetica,sans-Serif" font-size="10.00">monitor::parseCmd</text>
</a>
</g>
</g>
<!-- Node5&#45;&gt;Node6 -->
<g id="edge5" class="edge">
<title>Node5&#45;&gt;Node6</title>
<path fill="none" stroke="midnightblue" d="M464.7,-399.63C485.85,-412.59 523.7,-435.79 548.58,-451.04"/>
<polygon fill="midnightblue" stroke="midnightblue" points="547.07,-454.21 557.42,-456.45 550.73,-448.24 547.07,-454.21"/>
</g>
<!-- Node5&#45;&gt;Node12 -->
<g id="edge11" class="edge">
<title>Node5&#45;&gt;Node12</title>
<path fill="none" stroke="midnightblue" d="M465.24,-380.29C471.85,-376.12 479.46,-371.06 486,-366 503.16,-352.71 503.49,-344.33 522,-333 525.21,-331.03 528.66,-329.22 532.19,-327.56"/>
<polygon fill="midnightblue" stroke="midnightblue" points="533.82,-330.67 541.63,-323.51 531.06,-324.23 533.82,-330.67"/>
</g>
<!-- Node27 -->
<g id="node27" class="node">
<title>Node27</title>
<g id="a_node27"><a xlink:href="namespaceconsole_1_1err.html#a124c7e8527c0e3fd2b9636411aea7e82" target="_top" xlink:title=" ">
<polygon fill="white" stroke="black" points="528,-380.5 528,-399.5 620,-399.5 620,-380.5 528,-380.5"/>
<text text-anchor="middle" x="574" y="-387.5" font-family="Helvetica,sans-Serif" font-size="10.00">console::err::print</text>
</a>
</g>
</g>
<!-- Node5&#45;&gt;Node27 -->
<g id="edge31" class="edge">
<title>Node5&#45;&gt;Node27</title>
<path fill="none" stroke="midnightblue" d="M486.2,-390C496.15,-390 507.12,-390 517.81,-390"/>
<polygon fill="midnightblue" stroke="midnightblue" points="517.94,-393.5 527.94,-390 517.94,-386.5 517.94,-393.5"/>
</g>
<!-- Node29 -->
<g id="node29" class="node">
<title>Node29</title>
<g id="a_node29"><a xlink:href="namespaceconsole_1_1in.html#afa763e7729f2e6fbdcf4c14e44ad7a29" target="_top" xlink:title=" ">
<polygon fill="white" stroke="black" points="522,-342.5 522,-361.5 626,-361.5 626,-342.5 522,-342.5"/>
<text text-anchor="middle" x="574" y="-349.5" font-family="Helvetica,sans-Serif" font-size="10.00">console::in::readline</text>
</a>
</g>
</g>
<!-- Node5&#45;&gt;Node29 -->
<g id="edge35" class="edge">
<title>Node5&#45;&gt;Node29</title>
<path fill="none" stroke="midnightblue" d="M480.29,-380.41C496,-375.6 515.24,-369.7 532.11,-364.53"/>
<polygon fill="midnightblue" stroke="midnightblue" points="533.18,-367.86 541.72,-361.59 531.13,-361.17 533.18,-367.86"/>
</g>
<!-- Node7 -->
<g id="node7" class="node">
<title>Node7</title>
<g id="a_node7"><a xlink:href="namespacestr.html#ace5edf7e67a558a1c4ead28a66faba41" target="_top" xlink:title=" ">
<polygon fill="white" stroke="black" points="681.5,-456.5 681.5,-475.5 757.5,-475.5 757.5,-456.5 681.5,-456.5"/>
<text text-anchor="middle" x="719.5" y="-463.5" font-family="Helvetica,sans-Serif" font-size="10.00">str::cmpCase</text>
</a>
</g>
</g>
<!-- Node6&#45;&gt;Node7 -->
<g id="edge6" class="edge">
<title>Node6&#45;&gt;Node7</title>
<path fill="none" stroke="midnightblue" d="M624.38,-466C639.54,-466 656.16,-466 671.17,-466"/>
<polygon fill="midnightblue" stroke="midnightblue" points="671.27,-469.5 681.27,-466 671.27,-462.5 671.27,-469.5"/>
</g>
<!-- Node8 -->
<g id="node8" class="node">
<title>Node8</title>
<g id="a_node8"><a xlink:href="namespacestr.html#a12522233f7d73122d76de5c82e44a183" target="_top" xlink:title=" ">
<polygon fill="white" stroke="black" points="686,-494.5 686,-513.5 753,-513.5 753,-494.5 686,-494.5"/>
<text text-anchor="middle" x="719.5" y="-501.5" font-family="Helvetica,sans-Serif" font-size="10.00">str::splitWs</text>
</a>
</g>
</g>
<!-- Node6&#45;&gt;Node8 -->
<g id="edge7" class="edge">
<title>Node6&#45;&gt;Node8</title>
<path fill="none" stroke="midnightblue" d="M611.21,-475.59C630.9,-480.8 655.38,-487.28 675.97,-492.74"/>
<polygon fill="midnightblue" stroke="midnightblue" points="675.17,-496.15 685.74,-495.32 676.96,-489.38 675.17,-496.15"/>
</g>
<!-- Node9 -->
<g id="node9" class="node">
<title>Node9</title>
<g id="a_node9"><a xlink:href="namespacestr.html#a0e183e333ba05550c6b206906dbf0f10" target="_top" xlink:title=" ">
<polygon fill="white" stroke="black" points="840,-494.5 840,-513.5 892,-513.5 892,-494.5 840,-494.5"/>
<text text-anchor="middle" x="866" y="-501.5" font-family="Helvetica,sans-Serif" font-size="10.00">str::split</text>
</a>
</g>
</g>
<!-- Node8&#45;&gt;Node9 -->
<g id="edge8" class="edge">
<title>Node8&#45;&gt;Node9</title>
<path fill="none" stroke="midnightblue" d="M753.29,-504C776.11,-504 806.5,-504 829.82,-504"/>
<polygon fill="midnightblue" stroke="midnightblue" points="829.99,-507.5 839.99,-504 829.99,-500.5 829.99,-507.5"/>
</g>
<!-- Node10 -->
<g id="node10" class="node">
<title>Node10</title>
<g id="a_node10"><a xlink:href="namespacestr.html#a062221f630647cf300f0dd982c4ed904" target="_top" xlink:title=" ">
<polygon fill="white" stroke="black" points="1787,-536.5 1787,-555.5 1845,-555.5 1845,-536.5 1787,-536.5"/>
<text text-anchor="middle" x="1816" y="-543.5" font-family="Helvetica,sans-Serif" font-size="10.00">str::count</text>
</a>
</g>
</g>
<!-- Node9&#45;&gt;Node10 -->
<g id="edge9" class="edge">
<title>Node9&#45;&gt;Node10</title>
<path fill="none" stroke="midnightblue" d="M892.14,-502.77C983.79,-498.58 1308.54,-486.28 1575,-508 1646.73,-513.85 1729.44,-528.78 1776.64,-538.09"/>
<polygon fill="midnightblue" stroke="midnightblue" points="1776.23,-541.57 1786.72,-540.1 1777.6,-534.71 1776.23,-541.57"/>
</g>
<!-- Node11 -->
<g id="node11" class="node">
<title>Node11</title>
<g id="a_node11"><a xlink:href="namespacestr.html#a4b4d986113337f946299cef82449cf52" target="_top" xlink:title=" ">
<polygon fill="white" stroke="black" points="990,-456.5 990,-475.5 1040,-475.5 1040,-456.5 990,-456.5"/>
<text text-anchor="middle" x="1015" y="-463.5" font-family="Helvetica,sans-Serif" font-size="10.00">str::find</text>
</a>
</g>
</g>
<!-- Node9&#45;&gt;Node11 -->
<g id="edge10" class="edge">
<title>Node9&#45;&gt;Node11</title>
<path fill="none" stroke="midnightblue" d="M892.27,-497.47C916.44,-491.22 953.06,-481.75 979.82,-474.84"/>
<polygon fill="midnightblue" stroke="midnightblue" points="980.74,-478.21 989.55,-472.32 978.99,-471.44 980.74,-478.21"/>
</g>
<!-- Node13 -->
<g id="node13" class="node">
<title>Node13</title>
<g id="a_node13"><a xlink:href="namespaceconsole_1_1out.html#a8f791bfac54067cadb1b9f18117b987b" target="_top" xlink:title=" ">
<polygon fill="white" stroke="black" points="813,-304.5 813,-323.5 919,-323.5 919,-304.5 813,-304.5"/>
<text text-anchor="middle" x="866" y="-311.5" font-family="Helvetica,sans-Serif" font-size="10.00">console::out::printVa</text>
</a>
</g>
</g>
<!-- Node12&#45;&gt;Node13 -->
<g id="edge12" class="edge">
<title>Node12&#45;&gt;Node13</title>
<path fill="none" stroke="midnightblue" d="M621.59,-314C670.7,-314 748.33,-314 802.68,-314"/>
<polygon fill="midnightblue" stroke="midnightblue" points="802.89,-317.5 812.89,-314 802.89,-310.5 802.89,-317.5"/>
</g>
<!-- Node14 -->
<g id="node14" class="node">
<title>Node14</title>
<g id="a_node14"><a xlink:href="namespaceconsole_1_1ge.html#af642934cb833142f133285fdb75ef7b7" target="_top" xlink:title=" ">
<polygon fill="white" stroke="black" points="955,-209.5 955,-228.5 1075,-228.5 1075,-209.5 955,-209.5"/>
<text text-anchor="middle" x="1015" y="-216.5" font-family="Helvetica,sans-Serif" font-size="10.00">console::ge::printFmtVa</text>
</a>
</g>
</g>
<!-- Node13&#45;&gt;Node14 -->
<g id="edge13" class="edge">
<title>Node13&#45;&gt;Node14</title>
<path fill="none" stroke="midnightblue" d="M881.9,-304.37C907.44,-287.87 959.74,-254.06 990.32,-234.3"/>
<polygon fill="midnightblue" stroke="midnightblue" points="992.56,-237.02 999.06,-228.66 988.76,-231.15 992.56,-237.02"/>
</g>
<!-- Node20 -->
<g id="node20" class="node">
<title>Node20</title>
<g id="a_node20"><a xlink:href="namespaceconsole_1_1out.html#ad9fc97dff4404c2d21aedbb24691e7cb" target="_top" xlink:title=" ">
<polygon fill="white" stroke="black" points="1286,-304.5 1286,-323.5 1396,-323.5 1396,-304.5 1286,-304.5"/>
<text text-anchor="middle" x="1341" y="-311.5" font-family="Helvetica,sans-Serif" font-size="10.00">console::out::putChar</text>
</a>
</g>
</g>
<!-- Node13&#45;&gt;Node20 -->
<g id="edge30" class="edge">
<title>Node13&#45;&gt;Node20</title>
<path fill="none" stroke="midnightblue" d="M919.43,-314C1006.6,-314 1181.09,-314 1275.6,-314"/>
<polygon fill="midnightblue" stroke="midnightblue" points="1275.88,-317.5 1285.88,-314 1275.88,-310.5 1275.88,-317.5"/>
</g>
<!-- Node14&#45;&gt;Node10 -->
<g id="edge16" class="edge">
<title>Node14&#45;&gt;Node10</title>
<path fill="none" stroke="midnightblue" d="M1020.56,-209.47C1032.05,-186.67 1064.6,-129.12 1111,-105 1201.61,-57.89 1237.87,-86 1340,-86 1340,-86 1340,-86 1511,-86 1725.59,-86 1797.47,-438.73 1812.02,-526.44"/>
<polygon fill="midnightblue" stroke="midnightblue" points="1808.58,-527.07 1813.61,-536.39 1815.49,-525.97 1808.58,-527.07"/>
</g>
<!-- Node15 -->
<g id="node15" class="node">
<title>Node15</title>
<g id="a_node15"><a xlink:href="printfmt_8cc.html#a708ec6ee2b8bd2d7a453d8d9436ed3b3" target="_top" xlink:title=" ">
<polygon fill="white" stroke="black" points="1145,-190.5 1145,-209.5 1203,-209.5 1203,-190.5 1145,-190.5"/>
<text text-anchor="middle" x="1174" y="-197.5" font-family="Helvetica,sans-Serif" font-size="10.00">_getIntVa</text>
</a>
</g>
</g>
<!-- Node14&#45;&gt;Node15 -->
<g id="edge14" class="edge">
<title>Node14&#45;&gt;Node15</title>
<path fill="none" stroke="midnightblue" d="M1075.35,-211.82C1095.24,-209.41 1116.88,-206.79 1134.72,-204.63"/>
<polygon fill="midnightblue" stroke="midnightblue" points="1135.23,-208.1 1144.74,-203.42 1134.39,-201.15 1135.23,-208.1"/>
</g>
<!-- Node16 -->
<g id="node16" class="node">
<title>Node16</title>
<g id="a_node16"><a xlink:href="printfmt_8cc.html#af4b46892c76c8bfd27efdb20847eb7c8" target="_top" xlink:title=" ">
<polygon fill="white" stroke="black" points="1141.5,-152.5 1141.5,-171.5 1206.5,-171.5 1206.5,-152.5 1141.5,-152.5"/>
<text text-anchor="middle" x="1174" y="-159.5" font-family="Helvetica,sans-Serif" font-size="10.00">_getUIntVa</text>
</a>
</g>
</g>
<!-- Node14&#45;&gt;Node16 -->
<g id="edge15" class="edge">
<title>Node14&#45;&gt;Node16</title>
<path fill="none" stroke="midnightblue" d="M1038.45,-209.41C1057.57,-201.38 1085.87,-189.86 1111,-181 1117.56,-178.69 1124.57,-176.38 1131.43,-174.22"/>
<polygon fill="midnightblue" stroke="midnightblue" points="1132.78,-177.46 1141.29,-171.16 1130.71,-170.78 1132.78,-177.46"/>
</g>
<!-- Node17 -->
<g id="node17" class="node">
<title>Node17</title>
<g id="a_node17"><a xlink:href="printfmt_8cc.html#a0e3e484ece5e75b9f5fbe337f0ae8ae3" target="_top" xlink:title=" ">
<polygon fill="white" stroke="black" points="1147.5,-114.5 1147.5,-133.5 1200.5,-133.5 1200.5,-114.5 1147.5,-114.5"/>
<text text-anchor="middle" x="1174" y="-121.5" font-family="Helvetica,sans-Serif" font-size="10.00">describe</text>
</a>
</g>
</g>
<!-- Node14&#45;&gt;Node17 -->
<g id="edge17" class="edge">
<title>Node14&#45;&gt;Node17</title>
<path fill="none" stroke="midnightblue" d="M1025.37,-209.43C1041.48,-193.5 1076.08,-161.45 1111,-143 1119.24,-138.64 1128.64,-135.12 1137.59,-132.34"/>
<polygon fill="midnightblue" stroke="midnightblue" points="1138.76,-135.64 1147.41,-129.52 1136.83,-128.92 1138.76,-135.64"/>
</g>
<!-- Node19 -->
<g id="node19" class="node">
<title>Node19</title>
<g id="a_node19"><a xlink:href="namespaceconsole_1_1ge.html#a7e301813fd34fde772376afc5fdad95d" target="_top" xlink:title=" ">
<polygon fill="white" stroke="black" points="1111,-228.5 1111,-247.5 1237,-247.5 1237,-228.5 1111,-228.5"/>
<text text-anchor="middle" x="1174" y="-235.5" font-family="Helvetica,sans-Serif" font-size="10.00">console::ge::printNumber</text>
</a>
</g>
</g>
<!-- Node14&#45;&gt;Node19 -->
<g id="edge19" class="edge">
<title>Node14&#45;&gt;Node19</title>
<path fill="none" stroke="midnightblue" d="M1075.35,-226.18C1083.72,-227.2 1092.39,-228.24 1100.96,-229.28"/>
<polygon fill="midnightblue" stroke="midnightblue" points="1100.6,-232.76 1110.95,-230.49 1101.44,-225.81 1100.6,-232.76"/>
</g>
<!-- Node14&#45;&gt;Node20 -->
<g id="edge29" class="edge">
<title>Node14&#45;&gt;Node20</title>
<path fill="none" stroke="midnightblue" d="M1037.58,-228.61C1056.63,-236.86 1085.3,-248.71 1111,-257 1169.12,-275.76 1237.2,-292 1283.93,-302.29"/>
<polygon fill="midnightblue" stroke="midnightblue" points="1283.34,-305.75 1293.86,-304.46 1284.84,-298.91 1283.34,-305.75"/>
</g>
<!-- Node18 -->
<g id="node18" class="node">
<title>Node18</title>
<g id="a_node18"><a xlink:href="namespacemonitor.html#a318993193c866642f8389a1c1f285739" target="_top" xlink:title=" ">
<polygon fill="white" stroke="black" points="1304,-114.5 1304,-133.5 1378,-133.5 1378,-114.5 1304,-114.5"/>
<text text-anchor="middle" x="1341" y="-121.5" font-family="Helvetica,sans-Serif" font-size="10.00">monitor::fuck</text>
</a>
</g>
</g>
<!-- Node17&#45;&gt;Node18 -->
<g id="edge18" class="edge">
<title>Node17&#45;&gt;Node18</title>
<path fill="none" stroke="midnightblue" d="M1200.78,-124C1225.59,-124 1263.66,-124 1293.73,-124"/>
<polygon fill="midnightblue" stroke="midnightblue" points="1293.99,-127.5 1303.99,-124 1293.99,-120.5 1293.99,-127.5"/>
</g>
<!-- Node19&#45;&gt;Node20 -->
<g id="edge20" class="edge">
<title>Node19&#45;&gt;Node20</title>
<path fill="none" stroke="midnightblue" d="M1201.48,-247.6C1212.56,-251.78 1225.5,-256.89 1237,-262 1263.39,-273.73 1292.72,-288.74 1313.31,-299.62"/>
<polygon fill="midnightblue" stroke="midnightblue" points="1311.92,-302.84 1322.39,-304.44 1315.2,-296.66 1311.92,-302.84"/>
</g>
<!-- Node21 -->
<g id="node21" class="node">
<title>Node21</title>
<g id="a_node21"><a xlink:href="namespaceconsole_1_1serial.html#a3a7c1f95ae3c24136ea63bb31fdf0391" target="_top" xlink:title=" ">
<polygon fill="white" stroke="black" points="1450,-19.5 1450,-38.5 1570,-38.5 1570,-19.5 1450,-19.5"/>
<text text-anchor="middle" x="1510" y="-26.5" font-family="Helvetica,sans-Serif" font-size="10.00">console::serial::putChar</text>
</a>
</g>
</g>
<!-- Node20&#45;&gt;Node21 -->
<g id="edge21" class="edge">
<title>Node20&#45;&gt;Node21</title>
<path fill="none" stroke="midnightblue" d="M1347.75,-304.19C1371.99,-262.82 1466.08,-102.25 1498.19,-47.45"/>
<polygon fill="midnightblue" stroke="midnightblue" points="1501.24,-49.17 1503.28,-38.77 1495.2,-45.63 1501.24,-49.17"/>
</g>
<!-- Node24 -->
<g id="node24" class="node">
<title>Node24</title>
<g id="a_node24"><a xlink:href="namespaceconsole_1_1cga.html#afa19057ca041b39682d5d4831c43dfa0" target="_top" xlink:title=" ">
<polygon fill="white" stroke="black" points="1453.5,-304.5 1453.5,-323.5 1566.5,-323.5 1566.5,-304.5 1453.5,-304.5"/>
<text text-anchor="middle" x="1510" y="-311.5" font-family="Helvetica,sans-Serif" font-size="10.00">console::cga::putChar</text>
</a>
</g>
</g>
<!-- Node20&#45;&gt;Node24 -->
<g id="edge24" class="edge">
<title>Node20&#45;&gt;Node24</title>
<path fill="none" stroke="midnightblue" d="M1396.22,-314C1411.22,-314 1427.66,-314 1443.24,-314"/>
<polygon fill="midnightblue" stroke="midnightblue" points="1443.33,-317.5 1453.33,-314 1443.33,-310.5 1443.33,-317.5"/>
</g>
<!-- Node22 -->
<g id="node22" class="node">
<title>Node22</title>
<g id="a_node22"><a xlink:href="namespaceconsole_1_1serial.html#aa5605d4537106bb1c2bab72d7d1a5824" target="_top" xlink:title=" ">
<polygon fill="white" stroke="black" points="1629,-0.5 1629,-19.5 1733,-19.5 1733,-0.5 1629,-0.5"/>
<text text-anchor="middle" x="1681" y="-7.5" font-family="Helvetica,sans-Serif" font-size="10.00">console::serial::sout</text>
</a>
</g>
</g>
<!-- Node21&#45;&gt;Node22 -->
<g id="edge22" class="edge">
<title>Node21&#45;&gt;Node22</title>
<path fill="none" stroke="midnightblue" d="M1570.11,-22.35C1585.8,-20.59 1602.79,-18.68 1618.6,-16.9"/>
<polygon fill="midnightblue" stroke="midnightblue" points="1619.25,-20.35 1628.8,-15.76 1618.47,-13.4 1619.25,-20.35"/>
</g>
<!-- Node23 -->
<g id="node23" class="node">
<title>Node23</title>
<g id="a_node23"><a xlink:href="x86_8h.html#ade961b44e45ddacbc3c3b7609cf36dc6" target="_top" xlink:title=" ">
<polygon fill="white" stroke="black" points="1798.5,-19.5 1798.5,-38.5 1833.5,-38.5 1833.5,-19.5 1798.5,-19.5"/>
<text text-anchor="middle" x="1816" y="-26.5" font-family="Helvetica,sans-Serif" font-size="10.00">outb</text>
</a>
</g>
</g>
<!-- Node22&#45;&gt;Node23 -->
<g id="edge23" class="edge">
<title>Node22&#45;&gt;Node23</title>
<path fill="none" stroke="midnightblue" d="M1733.04,-17.29C1751.85,-19.98 1772.4,-22.91 1788.22,-25.17"/>
<polygon fill="midnightblue" stroke="midnightblue" points="1787.95,-28.67 1798.34,-26.62 1788.94,-21.74 1787.95,-28.67"/>
</g>
<!-- Node25 -->
<g id="node25" class="node">
<title>Node25</title>
<g id="a_node25"><a xlink:href="namespacemem.html#a64d9d05b439041901498c606de606431" target="_top" xlink:title=" ">
<polygon fill="white" stroke="black" points="1648.5,-403.5 1648.5,-422.5 1713.5,-422.5 1713.5,-403.5 1648.5,-403.5"/>
<text text-anchor="middle" x="1681" y="-410.5" font-family="Helvetica,sans-Serif" font-size="10.00">mem::copy</text>
</a>
</g>
</g>
<!-- Node24&#45;&gt;Node25 -->
<g id="edge25" class="edge">
<title>Node24&#45;&gt;Node25</title>
<path fill="none" stroke="midnightblue" d="M1527.51,-323.67C1557.25,-341.09 1619.95,-377.83 1654.98,-398.35"/>
<polygon fill="midnightblue" stroke="midnightblue" points="1653.27,-401.4 1663.67,-403.43 1656.81,-395.36 1653.27,-401.4"/>
</g>
<!-- Node26 -->
<g id="node26" class="node">
<title>Node26</title>
<g id="a_node26"><a xlink:href="namespaceconsole_1_1cga.html#a06463d4dc68819e30615ba299d02a78f" target="_top" xlink:title=" ">
<polygon fill="white" stroke="black" points="1611,-38.5 1611,-57.5 1751,-57.5 1751,-38.5 1611,-38.5"/>
<text text-anchor="middle" x="1681" y="-45.5" font-family="Helvetica,sans-Serif" font-size="10.00">console::cga::cursorRefresh</text>
</a>
</g>
</g>
<!-- Node24&#45;&gt;Node26 -->
<g id="edge27" class="edge">
<title>Node24&#45;&gt;Node26</title>
<path fill="none" stroke="midnightblue" d="M1517.22,-304.22C1542.22,-264.86 1635.68,-117.75 1668.51,-66.08"/>
<polygon fill="midnightblue" stroke="midnightblue" points="1671.5,-67.91 1673.91,-57.59 1665.59,-64.15 1671.5,-67.91"/>
</g>
<!-- Node25&#45;&gt;Node10 -->
<g id="edge26" class="edge">
<title>Node25&#45;&gt;Node10</title>
<path fill="none" stroke="midnightblue" d="M1693.57,-422.74C1707.56,-434.66 1731.63,-455.66 1751,-475 1768.47,-492.45 1787.26,-513.6 1799.92,-528.25"/>
<polygon fill="midnightblue" stroke="midnightblue" points="1797.45,-530.75 1806.62,-536.06 1802.76,-526.19 1797.45,-530.75"/>
</g>
<!-- Node26&#45;&gt;Node23 -->
<g id="edge28" class="edge">
<title>Node26&#45;&gt;Node23</title>
<path fill="none" stroke="midnightblue" d="M1748.89,-38.44C1762.81,-36.46 1776.71,-34.47 1788.15,-32.84"/>
<polygon fill="midnightblue" stroke="midnightblue" points="1788.87,-36.27 1798.28,-31.39 1787.88,-29.34 1788.87,-36.27"/>
</g>
<!-- Node28 -->
<g id="node28" class="node">
<title>Node28</title>
<g id="a_node28"><a xlink:href="namespaceconsole_1_1err.html#a4cd18e4c409b5b17ecec61ce83b05fba" target="_top" xlink:title=" ">
<polygon fill="white" stroke="black" points="814,-380.5 814,-399.5 918,-399.5 918,-380.5 814,-380.5"/>
<text text-anchor="middle" x="866" y="-387.5" font-family="Helvetica,sans-Serif" font-size="10.00">console::err::printVa</text>
</a>
</g>
</g>
<!-- Node27&#45;&gt;Node28 -->
<g id="edge32" class="edge">
<title>Node27&#45;&gt;Node28</title>
<path fill="none" stroke="midnightblue" d="M620.31,-390C669.55,-390 748.51,-390 803.36,-390"/>
<polygon fill="midnightblue" stroke="midnightblue" points="803.65,-393.5 813.65,-390 803.65,-386.5 803.65,-393.5"/>
</g>
<!-- Node28&#45;&gt;Node14 -->
<g id="edge33" class="edge">
<title>Node28&#45;&gt;Node14</title>
<path fill="none" stroke="midnightblue" d="M875.97,-380.44C886.44,-369.21 904.21,-349.96 919,-333 948.3,-299.4 981.39,-259.14 999.76,-236.57"/>
<polygon fill="midnightblue" stroke="midnightblue" points="1002.67,-238.55 1006.26,-228.58 997.24,-234.13 1002.67,-238.55"/>
</g>
<!-- Node28&#45;&gt;Node20 -->
<g id="edge34" class="edge">
<title>Node28&#45;&gt;Node20</title>
<path fill="none" stroke="midnightblue" d="M918.02,-393.05C990.37,-395.97 1126.3,-396.18 1237,-366 1266.33,-358 1297.08,-341.21 1317.26,-328.87"/>
<polygon fill="midnightblue" stroke="midnightblue" points="1319.13,-331.83 1325.75,-323.55 1315.42,-325.89 1319.13,-331.83"/>
</g>
<!-- Node30 -->
<g id="node30" class="node">
<title>Node30</title>
<g id="a_node30"><a xlink:href="namespaceconsole_1_1in.html#ac28354dad0498aa6bb0c178b10d62c8a" target="_top" xlink:title=" ">
<polygon fill="white" stroke="black" points="662,-342.5 662,-361.5 777,-361.5 777,-342.5 662,-342.5"/>
<text text-anchor="middle" x="719.5" y="-349.5" font-family="Helvetica,sans-Serif" font-size="10.00">console::in::readlineVa</text>
</a>
</g>
</g>
<!-- Node29&#45;&gt;Node30 -->
<g id="edge36" class="edge">
<title>Node29&#45;&gt;Node30</title>
<path fill="none" stroke="midnightblue" d="M626.4,-352C634.52,-352 643.02,-352 651.43,-352"/>
<polygon fill="midnightblue" stroke="midnightblue" points="651.62,-355.5 661.62,-352 651.62,-348.5 651.62,-355.5"/>
</g>
<!-- Node30&#45;&gt;Node13 -->
<g id="edge38" class="edge">
<title>Node30&#45;&gt;Node13</title>
<path fill="none" stroke="midnightblue" d="M756.96,-342.41C775.77,-337.46 798.91,-331.38 818.95,-326.11"/>
<polygon fill="midnightblue" stroke="midnightblue" points="820.02,-329.45 828.8,-323.52 818.24,-322.68 820.02,-329.45"/>
</g>
<!-- Node30&#45;&gt;Node20 -->
<g id="edge39" class="edge">
<title>Node30&#45;&gt;Node20</title>
<path fill="none" stroke="midnightblue" d="M777.17,-351.01C872.35,-348.98 1070.27,-343.17 1237,-328 1249.55,-326.86 1262.92,-325.3 1275.72,-323.63"/>
<polygon fill="midnightblue" stroke="midnightblue" points="1276.4,-327.07 1285.85,-322.28 1275.47,-320.13 1276.4,-327.07"/>
</g>
<!-- Node31 -->
<g id="node31" class="node">
<title>Node31</title>
<g id="a_node31"><a xlink:href="namespaceconsole_1_1in.html#a6fc069f2bc57fda183e3b991c31ec5a7" target="_top" xlink:title=" ">
<polygon fill="white" stroke="black" points="814,-247.5 814,-266.5 918,-266.5 918,-247.5 814,-247.5"/>
<text text-anchor="middle" x="866" y="-254.5" font-family="Helvetica,sans-Serif" font-size="10.00">console::in::getChar</text>
</a>
</g>
</g>
<!-- Node30&#45;&gt;Node31 -->
<g id="edge37" class="edge">
<title>Node30&#45;&gt;Node31</title>
<path fill="none" stroke="midnightblue" d="M735.15,-342.37C760.25,-325.87 811.67,-292.06 841.72,-272.3"/>
<polygon fill="midnightblue" stroke="midnightblue" points="843.88,-275.08 850.31,-266.66 840.03,-269.23 843.88,-275.08"/>
</g>
<!-- Node32&#45;&gt;Node31 -->
<g id="edge42" class="edge">
<title>Node32&#45;&gt;Node31</title>
<path fill="none" stroke="midnightblue" d="M358.64,-248.74C457.58,-250.36 691.89,-254.18 803.64,-256"/>
<polygon fill="midnightblue" stroke="midnightblue" points="803.69,-259.5 813.74,-256.16 803.8,-252.5 803.69,-259.5"/>
</g>
<!-- Node33&#45;&gt;Node3 -->
<g id="edge45" class="edge">
<title>Node33&#45;&gt;Node3</title>
<path fill="none" stroke="midnightblue" d="M179.82,-380.37C196.11,-369.27 224.24,-350.91 250,-338 257.59,-334.19 265.95,-330.57 273.97,-327.34"/>
<polygon fill="midnightblue" stroke="midnightblue" points="275.47,-330.51 283.52,-323.61 272.93,-323.99 275.47,-330.51"/>
</g>
<!-- Node33&#45;&gt;Node10 -->
<g id="edge44" class="edge">
<title>Node33&#45;&gt;Node10</title>
<path fill="none" stroke="midnightblue" d="M168.89,-399.79C185.6,-454.2 275.21,-717 447,-717 447,-717 447,-717 1511,-717 1621.75,-717 1662.55,-716.64 1751,-650 1780.07,-628.1 1798.94,-588.79 1808.21,-565.28"/>
<polygon fill="midnightblue" stroke="midnightblue" points="1811.56,-566.3 1811.8,-555.71 1805.01,-563.84 1811.56,-566.3"/>
</g>
<!-- Node33&#45;&gt;Node12 -->
<g id="edge46" class="edge">
<title>Node33&#45;&gt;Node12</title>
<path fill="none" stroke="midnightblue" d="M214.09,-382.03C276.79,-371.5 389.82,-352.06 486,-333 497.38,-330.75 509.56,-328.18 521.09,-325.68"/>
<polygon fill="midnightblue" stroke="midnightblue" points="522.01,-329.06 531.03,-323.51 520.51,-322.22 522.01,-329.06"/>
</g>
<!-- Node33&#45;&gt;Node20 -->
<g id="edge47" class="edge">
<title>Node33&#45;&gt;Node20</title>
<path fill="none" stroke="midnightblue" d="M209.56,-399.59C264.59,-410.85 362.33,-428 447,-428 447,-428 447,-428 1016,-428 1115.66,-428 1145.32,-429.08 1237,-390 1270.81,-375.59 1303.92,-348.08 1323.13,-330.41"/>
<polygon fill="midnightblue" stroke="midnightblue" points="1325.58,-332.91 1330.47,-323.51 1320.78,-327.81 1325.58,-332.91"/>
</g>
<!-- Node34 -->
<g id="node34" class="node">
<title>Node34</title>
<g id="a_node34"><a xlink:href="namespacevmem_1_1pgdir.html#ac95ef4d1250d2d48baf0c3f907025f45" target="_top" xlink:title=" ">
<polygon fill="white" stroke="black" points="250,-508.5 250,-527.5 374,-527.5 374,-508.5 250,-508.5"/>
<text text-anchor="middle" x="312" y="-515.5" font-family="Helvetica,sans-Serif" font-size="10.00">vmem::pgdir::userCheck</text>
</a>
</g>
</g>
<!-- Node33&#45;&gt;Node34 -->
<g id="edge48" class="edge">
<title>Node33&#45;&gt;Node34</title>
<path fill="none" stroke="midnightblue" d="M176.9,-399.62C201.46,-421.3 261.39,-474.21 292.13,-501.34"/>
<polygon fill="midnightblue" stroke="midnightblue" points="290.16,-504.27 299.97,-508.27 294.79,-499.03 290.16,-504.27"/>
</g>
<!-- Node35 -->
<g id="node35" class="node">
<title>Node35</title>
<g id="a_node35"><a xlink:href="namespacevmem_1_1pgdir.html#a933a8f939084dabdb1a4b5401bebf8d7" target="_top" xlink:title=" ">
<polygon fill="white" stroke="black" points="1120.5,-574.5 1120.5,-593.5 1227.5,-593.5 1227.5,-574.5 1120.5,-574.5"/>
<text text-anchor="middle" x="1174" y="-581.5" font-family="Helvetica,sans-Serif" font-size="10.00">vmem::pgdir::findPte</text>
</a>
</g>
</g>
<!-- Node34&#45;&gt;Node35 -->
<g id="edge49" class="edge">
<title>Node34&#45;&gt;Node35</title>
<path fill="none" stroke="midnightblue" d="M341.48,-527.54C388.92,-542.55 487.38,-570 573,-570 573,-570 573,-570 867,-570 951.25,-570 1048.42,-575.36 1110.25,-579.45"/>
<polygon fill="midnightblue" stroke="midnightblue" points="1110.03,-582.94 1120.24,-580.12 1110.49,-575.96 1110.03,-582.94"/>
</g>
<!-- Node36 -->
<g id="node36" class="node">
<title>Node36</title>
<g id="a_node36"><a xlink:href="structvmem_1_1_page_info.html#afcdcb7e941219a8ec999353658e3c2aa" target="_top" xlink:title=" ">
<polygon fill="white" stroke="black" points="1283.5,-631.5 1283.5,-650.5 1398.5,-650.5 1398.5,-631.5 1283.5,-631.5"/>
<text text-anchor="middle" x="1341" y="-638.5" font-family="Helvetica,sans-Serif" font-size="10.00">vmem::PageInfo::alloc</text>
</a>
</g>
</g>
<!-- Node35&#45;&gt;Node36 -->
<g id="edge50" class="edge">
<title>Node35&#45;&gt;Node36</title>
<path fill="none" stroke="midnightblue" d="M1202.62,-593.54C1229.98,-602.99 1272.09,-617.54 1302.48,-628.04"/>
<polygon fill="midnightblue" stroke="midnightblue" points="1301.7,-631.47 1312.29,-631.43 1303.98,-624.85 1301.7,-631.47"/>
</g>
<!-- Node37 -->
<g id="node37" class="node">
<title>Node37</title>
<g id="a_node37"><a xlink:href="namespacemem.html#a981dd0cb1408b798a79443c6245e9c55" target="_top" xlink:title=" ">
<polygon fill="white" stroke="black" points="1477.5,-631.5 1477.5,-650.5 1542.5,-650.5 1542.5,-631.5 1477.5,-631.5"/>
<text text-anchor="middle" x="1510" y="-638.5" font-family="Helvetica,sans-Serif" font-size="10.00">mem::clear</text>
</a>
</g>
</g>
<!-- Node35&#45;&gt;Node37 -->
<g id="edge57" class="edge">
<title>Node35&#45;&gt;Node37</title>
<path fill="none" stroke="midnightblue" d="M1183.22,-593.63C1198.69,-610.93 1234.09,-646.68 1273,-660 1339.62,-682.81 1422.76,-666.58 1470.48,-653.35"/>
<polygon fill="midnightblue" stroke="midnightblue" points="1471.46,-656.71 1480.11,-650.59 1469.53,-649.98 1471.46,-656.71"/>
</g>
<!-- Node39 -->
<g id="node39" class="node">
<title>Node39</title>
<g id="a_node39"><a xlink:href="structvmem_1_1_page_info.html#afc863f1d364462ddd2c20bf31f588337" target="_top" xlink:title=" ">
<polygon fill="white" stroke="black" points="1445,-593.5 1445,-612.5 1575,-612.5 1575,-593.5 1445,-593.5"/>
<text text-anchor="middle" x="1510" y="-600.5" font-family="Helvetica,sans-Serif" font-size="10.00">vmem::PageInfo::toKernV</text>
</a>
</g>
</g>
<!-- Node35&#45;&gt;Node39 -->
<g id="edge60" class="edge">
<title>Node35&#45;&gt;Node39</title>
<path fill="none" stroke="midnightblue" d="M1227.55,-586.99C1283.24,-590.16 1371.64,-595.19 1434.5,-598.76"/>
<polygon fill="midnightblue" stroke="midnightblue" points="1434.57,-602.27 1444.75,-599.35 1434.96,-595.28 1434.57,-602.27"/>
</g>
<!-- Node40 -->
<g id="node40" class="node">
<title>Node40</title>
<g id="a_node40"><a xlink:href="structvmem_1_1_page_info.html#accf2071c7875c29c9aa78a01ef5963a1" target="_top" xlink:title=" ">
<polygon fill="white" stroke="black" points="1621,-555.5 1621,-574.5 1741,-574.5 1741,-555.5 1621,-555.5"/>
<text text-anchor="middle" x="1681" y="-562.5" font-family="Helvetica,sans-Serif" font-size="10.00">vmem::PageInfo::toPhy</text>
</a>
</g>
</g>
<!-- Node35&#45;&gt;Node40 -->
<g id="edge61" class="edge">
<title>Node35&#45;&gt;Node40</title>
<path fill="none" stroke="midnightblue" d="M1227.61,-582.02C1319.33,-578.57 1508.42,-571.46 1610.69,-567.61"/>
<polygon fill="midnightblue" stroke="midnightblue" points="1611.05,-571.1 1620.91,-567.22 1610.79,-564.1 1611.05,-571.1"/>
</g>
<!-- Node41 -->
<g id="node41" class="node">
<title>Node41</title>
<g id="a_node41"><a xlink:href="namespacevmem_1_1pgdir.html#a972bb045d4c58b0ea9c569e05831bbb6" target="_top" xlink:title=" ">
<polygon fill="white" stroke="black" points="1273,-517.5 1273,-536.5 1409,-536.5 1409,-517.5 1273,-517.5"/>
<text text-anchor="middle" x="1341" y="-524.5" font-family="Helvetica,sans-Serif" font-size="10.00">vmem::pgdir::invalidateTLB</text>
</a>
</g>
</g>
<!-- Node35&#45;&gt;Node41 -->
<g id="edge58" class="edge">
<title>Node35&#45;&gt;Node41</title>
<path fill="none" stroke="midnightblue" d="M1202.62,-574.46C1229.98,-565.01 1272.09,-550.46 1302.48,-539.96"/>
<polygon fill="midnightblue" stroke="midnightblue" points="1303.98,-543.15 1312.29,-536.57 1301.7,-536.53 1303.98,-543.15"/>
</g>
<!-- Node36&#45;&gt;Node37 -->
<g id="edge51" class="edge">
<title>Node36&#45;&gt;Node37</title>
<path fill="none" stroke="midnightblue" d="M1398.54,-641C1421.04,-641 1446.47,-641 1467.26,-641"/>
<polygon fill="midnightblue" stroke="midnightblue" points="1467.36,-644.5 1477.36,-641 1467.36,-637.5 1467.36,-644.5"/>
</g>
<!-- Node36&#45;&gt;Node39 -->
<g id="edge55" class="edge">
<title>Node36&#45;&gt;Node39</title>
<path fill="none" stroke="midnightblue" d="M1384.14,-631.41C1406.38,-626.35 1433.85,-620.1 1457.36,-614.75"/>
<polygon fill="midnightblue" stroke="midnightblue" points="1458.19,-618.15 1467.16,-612.52 1456.63,-611.33 1458.19,-618.15"/>
</g>
<!-- Node37&#45;&gt;Node10 -->
<g id="edge52" class="edge">
<title>Node37&#45;&gt;Node10</title>
<path fill="none" stroke="midnightblue" d="M1542.61,-645.88C1590.59,-651.71 1683.35,-656.79 1751,-622 1775.59,-609.35 1794.48,-582.74 1805.17,-564.62"/>
<polygon fill="midnightblue" stroke="midnightblue" points="1808.41,-566 1810.24,-555.56 1802.3,-562.57 1808.41,-566"/>
</g>
<!-- Node38 -->
<g id="node38" class="node">
<title>Node38</title>
<g id="a_node38"><a xlink:href="namespacemem.html#adbaba9127c03fb914f752bfe19d6d089" target="_top" xlink:title=" ">
<polygon fill="white" stroke="black" points="1652,-593.5 1652,-612.5 1710,-612.5 1710,-593.5 1652,-593.5"/>
<text text-anchor="middle" x="1681" y="-600.5" font-family="Helvetica,sans-Serif" font-size="10.00">mem::set</text>
</a>
</g>
</g>
<!-- Node37&#45;&gt;Node38 -->
<g id="edge53" class="edge">
<title>Node37&#45;&gt;Node38</title>
<path fill="none" stroke="midnightblue" d="M1542.79,-633.85C1570.93,-627.53 1612.05,-618.28 1641.94,-611.56"/>
<polygon fill="midnightblue" stroke="midnightblue" points="1643.01,-614.9 1652,-609.3 1641.48,-608.07 1643.01,-614.9"/>
</g>
<!-- Node38&#45;&gt;Node10 -->
<g id="edge54" class="edge">
<title>Node38&#45;&gt;Node10</title>
<path fill="none" stroke="midnightblue" d="M1710.11,-597.07C1722.86,-593.92 1737.97,-589.55 1751,-584 1765.59,-577.79 1780.9,-568.8 1792.89,-561.13"/>
<polygon fill="midnightblue" stroke="midnightblue" points="1794.9,-563.99 1801.34,-555.58 1791.06,-558.14 1794.9,-563.99"/>
</g>
<!-- Node39&#45;&gt;Node40 -->
<g id="edge56" class="edge">
<title>Node39&#45;&gt;Node40</title>
<path fill="none" stroke="midnightblue" d="M1553.65,-593.41C1576.15,-588.35 1603.95,-582.1 1627.74,-576.75"/>
<polygon fill="midnightblue" stroke="midnightblue" points="1628.67,-580.13 1637.66,-574.52 1627.14,-573.3 1628.67,-580.13"/>
</g>
<!-- Node42 -->
<g id="node42" class="node">
<title>Node42</title>
<g id="a_node42"><a xlink:href="x86_8h.html#a2c1c4c8523ed258a75c563a8f94d1686" target="_top" xlink:title=" ">
<polygon fill="white" stroke="black" points="1489,-517.5 1489,-536.5 1531,-536.5 1531,-517.5 1489,-517.5"/>
<text text-anchor="middle" x="1510" y="-524.5" font-family="Helvetica,sans-Serif" font-size="10.00">invlpg</text>
</a>
</g>
</g>
<!-- Node41&#45;&gt;Node42 -->
<g id="edge59" class="edge">
<title>Node41&#45;&gt;Node42</title>
<path fill="none" stroke="midnightblue" d="M1409.44,-527C1433.58,-527 1459.58,-527 1478.95,-527"/>
<polygon fill="midnightblue" stroke="midnightblue" points="1478.98,-530.5 1488.98,-527 1478.98,-523.5 1478.98,-530.5"/>
</g>
</g>
</svg>
        <g id="navigator" transform="translate(0 0)" fill="#404254">
                <rect fill="#f2f5e9" fill-opacity="0.5" stroke="#606060" stroke-width=".5" x="0" y="0" width="60" height="60"/>
                <use id="zoomplus" xlink:href="#zoomPlus" x="17" y="9" onmousedown="handleZoom(evt,'in')"/>
                <use id="zoomminus" xlink:href="#zoomMin" x="42" y="9" onmousedown="handleZoom(evt,'out')"/>
                <use id="reset" xlink:href="#resetDef" x="30" y="36" onmousedown="handleReset()"/>
                <g id="arrowUp" xlink:href="#dirArrow" transform="translate(30 24)" onmousedown="handlePan(0,-1)">
                  <use xlink:href="#rim" fill="#404040">
                        <set attributeName="fill" to="#808080" begin="arrowUp.mouseover" end="arrowUp.mouseout"/>
                  </use>
                  <path fill="none" stroke="white" stroke-width="1.5" d="M0,-3.0v7 M-2.5,-0.5L0,-3.0L2.5,-0.5"/>
                </g>
                <g id="arrowRight" xlink:href="#dirArrow" transform="rotate(90) translate(36 -43)" onmousedown="handlePan(1,0)">
                  <use xlink:href="#rim" fill="#404040">
                        <set attributeName="fill" to="#808080" begin="arrowRight.mouseover" end="arrowRight.mouseout"/>
                  </use>
                  <path fill="none" stroke="white" stroke-width="1.5" d="M0,-3.0v7 M-2.5,-0.5L0,-3.0L2.5,-0.5"/>
                </g>
                <g id="arrowDown" xlink:href="#dirArrow" transform="rotate(180) translate(-30 -48)" onmousedown="handlePan(0,1)">
                  <use xlink:href="#rim" fill="#404040">
                        <set attributeName="fill" to="#808080" begin="arrowDown.mouseover" end="arrowDown.mouseout"/>
                  </use>
                  <path fill="none" stroke="white" stroke-width="1.5" d="M0,-3.0v7 M-2.5,-0.5L0,-3.0L2.5,-0.5"/>
                </g>
                <g id="arrowLeft" xlink:href="#dirArrow" transform="rotate(270) translate(-36 17)" onmousedown="handlePan(-1,0)">
                  <use xlink:href="#rim" fill="#404040">
                        <set attributeName="fill" to="#808080" begin="arrowLeft.mouseover" end="arrowLeft.mouseout"/>
                  </use>
                  <path fill="none" stroke="white" stroke-width="1.5" d="M0,-3.0v7 M-2.5,-0.5L0,-3.0L2.5,-0.5"/>
                </g>
        </g>
        <svg viewBox="0 0 15 15" width="100%" height="30px" preserveAspectRatio="xMaxYMin meet">
         <g id="arrow_out" transform="scale(0.3 0.3)">
          <a xlink:href="namespaceksyscall_aba9c613d417687038b4c06b86a373095_cgraph_org.svg" target="_base">
           <rect id="button" ry="5" rx="5" y="6" x="6" height="38" width="38"
                fill="#f2f5e9" fill-opacity="0.5" stroke="#606060" stroke-width="1.0"/>
           <path id="arrow"
             d="M 11.500037,31.436501 C 11.940474,20.09759 22.043105,11.32322 32.158766,21.979434 L 37.068811,17.246167 C 37.068811,17.246167 37.088388,32 37.088388,32 L 22.160133,31.978069 C 22.160133,31.978069 26.997745,27.140456 26.997745,27.140456 C 18.528582,18.264221 13.291696,25.230495 11.500037,31.436501 z"
             style="fill:#404040;"/>
          </a>
         </g>
        </svg>
</svg>
