<?xml version="1.0" encoding="UTF-8" standalone="no"?>
<!DOCTYPE svg PUBLIC "-//W3C//DTD SVG 1.1//EN"
 "http://www.w3.org/Graphics/SVG/1.1/DTD/svg11.dtd">
<!-- Generated by graphviz version 2.44.1 (20200629.0846)
 -->
<!-- Title: monitor::vmdumpv Pages: 1 -->
<svg width="1445pt" height="438pt"
 viewBox="0.00 0.00 1445.00 438.19" xmlns="http://www.w3.org/2000/svg" xmlns:xlink="http://www.w3.org/1999/xlink">
<g id="graph0" class="graph" transform="scale(1 1) rotate(0) translate(4 434.19)">
<title>monitor::vmdumpv</title>
<polygon fill="white" stroke="transparent" points="-4,4 -4,-434.19 1441,-434.19 1441,4 -4,4"/>
<!-- Node1 -->
<g id="node1" class="node">
<title>Node1</title>
<g id="a_node1"><a xlink:title=" ">
<polygon fill="#bfbfbf" stroke="black" points="0,-132.75 0,-151.75 98,-151.75 98,-132.75 0,-132.75"/>
<text text-anchor="middle" x="49" y="-139.75" font-family="Helvetica,sans-Serif" font-size="10.00">monitor::vmdumpv</text>
</a>
</g>
</g>
<!-- Node2 -->
<g id="node2" class="node">
<title>Node2</title>
<g id="a_node2"><a xlink:href="namespacevmem_1_1utils.html#ad7f7376677ebdefd78c092c546a2f7f4" target="_top" xlink:title=" ">
<polygon fill="white" stroke="black" points="134,-160.75 134,-179.75 238,-179.75 238,-160.75 134,-160.75"/>
<text text-anchor="middle" x="186" y="-167.75" font-family="Helvetica,sans-Serif" font-size="10.00">vmem::utils::dumpV</text>
</a>
</g>
</g>
<!-- Node1&#45;&gt;Node2 -->
<g id="edge1" class="edge">
<title>Node1&#45;&gt;Node2</title>
<path fill="none" stroke="midnightblue" d="M96.08,-151.8C106.73,-154.01 118.16,-156.38 129.17,-158.67"/>
<polygon fill="midnightblue" stroke="midnightblue" points="128.62,-162.13 139.13,-160.73 130.05,-155.27 128.62,-162.13"/>
</g>
<!-- Node29 -->
<g id="node29" class="node">
<title>Node29</title>
<g id="a_node29"><a xlink:href="namespacestr.html#a7bea2669afeb636a996a561e640d2ee8" target="_top" xlink:title=" ">
<polygon fill="white" stroke="black" points="154.5,-113.75 154.5,-132.75 217.5,-132.75 217.5,-113.75 154.5,-113.75"/>
<text text-anchor="middle" x="186" y="-120.75" font-family="Helvetica,sans-Serif" font-size="10.00">str::toLong</text>
</a>
</g>
</g>
<!-- Node1&#45;&gt;Node29 -->
<g id="edge39" class="edge">
<title>Node1&#45;&gt;Node29</title>
<path fill="none" stroke="midnightblue" d="M98.36,-135.44C113.33,-133.33 129.68,-131.03 144.1,-129"/>
<polygon fill="midnightblue" stroke="midnightblue" points="144.8,-132.44 154.21,-127.58 143.82,-125.51 144.8,-132.44"/>
</g>
<!-- Node3 -->
<g id="node3" class="node">
<title>Node3</title>
<g id="a_node3"><a xlink:href="namespacevmem_1_1pgdir.html#a933a8f939084dabdb1a4b5401bebf8d7" target="_top" xlink:title=" ">
<polygon fill="white" stroke="black" points="712.5,-322.75 712.5,-341.75 819.5,-341.75 819.5,-322.75 712.5,-322.75"/>
<text text-anchor="middle" x="766" y="-329.75" font-family="Helvetica,sans-Serif" font-size="10.00">vmem::pgdir::findPte</text>
</a>
</g>
</g>
<!-- Node2&#45;&gt;Node3 -->
<g id="edge2" class="edge">
<title>Node2&#45;&gt;Node3</title>
<path fill="none" stroke="midnightblue" d="M214.3,-179.79C231.38,-185.65 253.88,-193.17 274,-199.25 435.4,-247.96 629.11,-297.98 717.2,-320.27"/>
<polygon fill="midnightblue" stroke="midnightblue" points="716.35,-323.66 726.9,-322.72 718.06,-316.88 716.35,-323.66"/>
</g>
<!-- Node12 -->
<g id="node12" class="node">
<title>Node12</title>
<g id="a_node12"><a xlink:href="namespaceconsole_1_1out.html#ac6f663e3971b66b8e130ee94755a150e" target="_top" xlink:title=" ">
<polygon fill="white" stroke="black" points="274,-170.75 274,-189.75 369,-189.75 369,-170.75 274,-170.75"/>
<text text-anchor="middle" x="321.5" y="-177.75" font-family="Helvetica,sans-Serif" font-size="10.00">console::out::print</text>
</a>
</g>
</g>
<!-- Node2&#45;&gt;Node12 -->
<g id="edge15" class="edge">
<title>Node2&#45;&gt;Node12</title>
<path fill="none" stroke="midnightblue" d="M238.23,-174.08C246.6,-174.71 255.31,-175.36 263.79,-176"/>
<polygon fill="midnightblue" stroke="midnightblue" points="263.76,-179.5 274,-176.76 264.28,-172.52 263.76,-179.5"/>
</g>
<!-- Node27 -->
<g id="node27" class="node">
<title>Node27</title>
<g id="a_node27"><a xlink:href="namespaceconsole_1_1err.html#a124c7e8527c0e3fd2b9636411aea7e82" target="_top" xlink:title=" ">
<polygon fill="white" stroke="black" points="275.5,-132.75 275.5,-151.75 367.5,-151.75 367.5,-132.75 275.5,-132.75"/>
<text text-anchor="middle" x="321.5" y="-139.75" font-family="Helvetica,sans-Serif" font-size="10.00">console::err::print</text>
</a>
</g>
</g>
<!-- Node2&#45;&gt;Node27 -->
<g id="edge35" class="edge">
<title>Node2&#45;&gt;Node27</title>
<path fill="none" stroke="midnightblue" d="M232.57,-160.69C243.1,-158.48 254.4,-156.11 265.29,-153.82"/>
<polygon fill="midnightblue" stroke="midnightblue" points="266.07,-157.24 275.14,-151.76 264.63,-150.39 266.07,-157.24"/>
</g>
<!-- Node4 -->
<g id="node4" class="node">
<title>Node4</title>
<g id="a_node4"><a xlink:href="structvmem_1_1_page_info.html#afcdcb7e941219a8ec999353658e3c2aa" target="_top" xlink:title=" ">
<polygon fill="white" stroke="black" points="875.5,-303.75 875.5,-322.75 990.5,-322.75 990.5,-303.75 875.5,-303.75"/>
<text text-anchor="middle" x="933" y="-310.75" font-family="Helvetica,sans-Serif" font-size="10.00">vmem::PageInfo::alloc</text>
</a>
</g>
</g>
<!-- Node3&#45;&gt;Node4 -->
<g id="edge3" class="edge">
<title>Node3&#45;&gt;Node4</title>
<path fill="none" stroke="midnightblue" d="M819.66,-326.18C834.07,-324.52 849.88,-322.7 864.97,-320.96"/>
<polygon fill="midnightblue" stroke="midnightblue" points="865.74,-324.4 875.28,-319.78 864.94,-317.44 865.74,-324.4"/>
</g>
<!-- Node5 -->
<g id="node5" class="node">
<title>Node5</title>
<g id="a_node5"><a xlink:href="namespacemem.html#a981dd0cb1408b798a79443c6245e9c55" target="_top" xlink:title=" ">
<polygon fill="white" stroke="black" points="1069.5,-284.75 1069.5,-303.75 1134.5,-303.75 1134.5,-284.75 1069.5,-284.75"/>
<text text-anchor="middle" x="1102" y="-291.75" font-family="Helvetica,sans-Serif" font-size="10.00">mem::clear</text>
</a>
</g>
</g>
<!-- Node3&#45;&gt;Node5 -->
<g id="edge10" class="edge">
<title>Node3&#45;&gt;Node5</title>
<path fill="none" stroke="midnightblue" d="M785.54,-322.66C804.81,-313.29 836.12,-299.65 865,-294.25 932.02,-281.71 1011.63,-285.47 1059.15,-289.64"/>
<polygon fill="midnightblue" stroke="midnightblue" points="1059.08,-293.15 1069.36,-290.58 1059.72,-286.18 1059.08,-293.15"/>
</g>
<!-- Node8 -->
<g id="node8" class="node">
<title>Node8</title>
<g id="a_node8"><a xlink:href="structvmem_1_1_page_info.html#afc863f1d364462ddd2c20bf31f588337" target="_top" xlink:title=" ">
<polygon fill="white" stroke="black" points="1037,-341.75 1037,-360.75 1167,-360.75 1167,-341.75 1037,-341.75"/>
<text text-anchor="middle" x="1102" y="-348.75" font-family="Helvetica,sans-Serif" font-size="10.00">vmem::PageInfo::toKernV</text>
</a>
</g>
</g>
<!-- Node3&#45;&gt;Node8 -->
<g id="edge13" class="edge">
<title>Node3&#45;&gt;Node8</title>
<path fill="none" stroke="midnightblue" d="M819.55,-335.23C875.24,-338.4 963.64,-343.43 1026.5,-347.01"/>
<polygon fill="midnightblue" stroke="midnightblue" points="1026.57,-350.52 1036.75,-347.59 1026.96,-343.53 1026.57,-350.52"/>
</g>
<!-- Node9 -->
<g id="node9" class="node">
<title>Node9</title>
<g id="a_node9"><a xlink:href="structvmem_1_1_page_info.html#accf2071c7875c29c9aa78a01ef5963a1" target="_top" xlink:title=" ">
<polygon fill="white" stroke="black" points="1213,-379.75 1213,-398.75 1333,-398.75 1333,-379.75 1213,-379.75"/>
<text text-anchor="middle" x="1273" y="-386.75" font-family="Helvetica,sans-Serif" font-size="10.00">vmem::PageInfo::toPhy</text>
</a>
</g>
</g>
<!-- Node3&#45;&gt;Node9 -->
<g id="edge14" class="edge">
<title>Node3&#45;&gt;Node9</title>
<path fill="none" stroke="midnightblue" d="M775.22,-341.88C790.69,-359.18 826.09,-394.93 865,-408.25 991.4,-451.51 1152.82,-420.6 1228.79,-401.41"/>
<polygon fill="midnightblue" stroke="midnightblue" points="1230.12,-404.68 1238.93,-398.79 1228.37,-397.9 1230.12,-404.68"/>
</g>
<!-- Node10 -->
<g id="node10" class="node">
<title>Node10</title>
<g id="a_node10"><a xlink:href="namespacevmem_1_1pgdir.html#a972bb045d4c58b0ea9c569e05831bbb6" target="_top" xlink:title=" ">
<polygon fill="white" stroke="black" points="865,-379.75 865,-398.75 1001,-398.75 1001,-379.75 865,-379.75"/>
<text text-anchor="middle" x="933" y="-386.75" font-family="Helvetica,sans-Serif" font-size="10.00">vmem::pgdir::invalidateTLB</text>
</a>
</g>
</g>
<!-- Node3&#45;&gt;Node10 -->
<g id="edge11" class="edge">
<title>Node3&#45;&gt;Node10</title>
<path fill="none" stroke="midnightblue" d="M794.62,-341.79C821.98,-351.24 864.09,-365.79 894.48,-376.28"/>
<polygon fill="midnightblue" stroke="midnightblue" points="893.7,-379.72 904.29,-379.67 895.98,-373.1 893.7,-379.72"/>
</g>
<!-- Node4&#45;&gt;Node5 -->
<g id="edge4" class="edge">
<title>Node4&#45;&gt;Node5</title>
<path fill="none" stroke="midnightblue" d="M990.54,-306.81C1013.04,-304.25 1038.47,-301.36 1059.26,-298.99"/>
<polygon fill="midnightblue" stroke="midnightblue" points="1059.82,-302.45 1069.36,-297.85 1059.02,-295.5 1059.82,-302.45"/>
</g>
<!-- Node4&#45;&gt;Node8 -->
<g id="edge8" class="edge">
<title>Node4&#45;&gt;Node8</title>
<path fill="none" stroke="midnightblue" d="M976.14,-322.83C998.38,-327.89 1025.85,-334.14 1049.36,-339.49"/>
<polygon fill="midnightblue" stroke="midnightblue" points="1048.63,-342.92 1059.16,-341.73 1050.19,-336.09 1048.63,-342.92"/>
</g>
<!-- Node6 -->
<g id="node6" class="node">
<title>Node6</title>
<g id="a_node6"><a xlink:href="namespacestr.html#a062221f630647cf300f0dd982c4ed904" target="_top" xlink:title=" ">
<polygon fill="white" stroke="black" points="1379,-246.75 1379,-265.75 1437,-265.75 1437,-246.75 1379,-246.75"/>
<text text-anchor="middle" x="1408" y="-253.75" font-family="Helvetica,sans-Serif" font-size="10.00">str::count</text>
</a>
</g>
</g>
<!-- Node5&#45;&gt;Node6 -->
<g id="edge5" class="edge">
<title>Node5&#45;&gt;Node6</title>
<path fill="none" stroke="midnightblue" d="M1134.77,-299.49C1181.4,-306.03 1270.68,-314.1 1343,-294.25 1358.89,-289.88 1374.83,-280.44 1386.82,-272.06"/>
<polygon fill="midnightblue" stroke="midnightblue" points="1389.16,-274.69 1395.16,-265.96 1385.02,-269.04 1389.16,-274.69"/>
</g>
<!-- Node7 -->
<g id="node7" class="node">
<title>Node7</title>
<g id="a_node7"><a xlink:href="namespacemem.html#adbaba9127c03fb914f752bfe19d6d089" target="_top" xlink:title=" ">
<polygon fill="white" stroke="black" points="1244,-265.75 1244,-284.75 1302,-284.75 1302,-265.75 1244,-265.75"/>
<text text-anchor="middle" x="1273" y="-272.75" font-family="Helvetica,sans-Serif" font-size="10.00">mem::set</text>
</a>
</g>
</g>
<!-- Node5&#45;&gt;Node7 -->
<g id="edge6" class="edge">
<title>Node5&#45;&gt;Node7</title>
<path fill="none" stroke="midnightblue" d="M1134.79,-290.67C1162.93,-287.51 1204.05,-282.88 1233.94,-279.52"/>
<polygon fill="midnightblue" stroke="midnightblue" points="1234.45,-282.99 1244,-278.39 1233.67,-276.03 1234.45,-282.99"/>
</g>
<!-- Node7&#45;&gt;Node6 -->
<g id="edge7" class="edge">
<title>Node7&#45;&gt;Node6</title>
<path fill="none" stroke="midnightblue" d="M1302.21,-271.22C1321.6,-268.44 1347.59,-264.73 1368.84,-261.7"/>
<polygon fill="midnightblue" stroke="midnightblue" points="1369.43,-265.15 1378.83,-260.27 1368.44,-258.22 1369.43,-265.15"/>
</g>
<!-- Node8&#45;&gt;Node9 -->
<g id="edge9" class="edge">
<title>Node8&#45;&gt;Node9</title>
<path fill="none" stroke="midnightblue" d="M1145.65,-360.83C1168.15,-365.89 1195.95,-372.14 1219.74,-377.49"/>
<polygon fill="midnightblue" stroke="midnightblue" points="1219.14,-380.95 1229.66,-379.73 1220.67,-374.12 1219.14,-380.95"/>
</g>
<!-- Node11 -->
<g id="node11" class="node">
<title>Node11</title>
<g id="a_node11"><a xlink:href="x86_8h.html#a2c1c4c8523ed258a75c563a8f94d1686" target="_top" xlink:title=" ">
<polygon fill="white" stroke="black" points="1081,-379.75 1081,-398.75 1123,-398.75 1123,-379.75 1081,-379.75"/>
<text text-anchor="middle" x="1102" y="-386.75" font-family="Helvetica,sans-Serif" font-size="10.00">invlpg</text>
</a>
</g>
</g>
<!-- Node10&#45;&gt;Node11 -->
<g id="edge12" class="edge">
<title>Node10&#45;&gt;Node11</title>
<path fill="none" stroke="midnightblue" d="M1001.44,-389.25C1025.58,-389.25 1051.58,-389.25 1070.95,-389.25"/>
<polygon fill="midnightblue" stroke="midnightblue" points="1070.98,-392.75 1080.98,-389.25 1070.98,-385.75 1070.98,-392.75"/>
</g>
<!-- Node13 -->
<g id="node13" class="node">
<title>Node13</title>
<g id="a_node13"><a xlink:href="namespaceconsole_1_1out.html#a8f791bfac54067cadb1b9f18117b987b" target="_top" xlink:title=" ">
<polygon fill="white" stroke="black" points="405,-170.75 405,-189.75 511,-189.75 511,-170.75 405,-170.75"/>
<text text-anchor="middle" x="458" y="-177.75" font-family="Helvetica,sans-Serif" font-size="10.00">console::out::printVa</text>
</a>
</g>
</g>
<!-- Node12&#45;&gt;Node13 -->
<g id="edge16" class="edge">
<title>Node12&#45;&gt;Node13</title>
<path fill="none" stroke="midnightblue" d="M369.16,-180.25C377.45,-180.25 386.2,-180.25 394.84,-180.25"/>
<polygon fill="midnightblue" stroke="midnightblue" points="394.9,-183.75 404.9,-180.25 394.9,-176.75 394.9,-183.75"/>
</g>
<!-- Node14 -->
<g id="node14" class="node">
<title>Node14</title>
<g id="a_node14"><a xlink:href="namespaceconsole_1_1ge.html#af642934cb833142f133285fdb75ef7b7" target="_top" xlink:title=" ">
<polygon fill="white" stroke="black" points="547,-113.75 547,-132.75 667,-132.75 667,-113.75 547,-113.75"/>
<text text-anchor="middle" x="607" y="-120.75" font-family="Helvetica,sans-Serif" font-size="10.00">console::ge::printFmtVa</text>
</a>
</g>
</g>
<!-- Node13&#45;&gt;Node14 -->
<g id="edge17" class="edge">
<title>Node13&#45;&gt;Node14</title>
<path fill="none" stroke="midnightblue" d="M483.6,-170.7C507.77,-161.33 544.85,-146.96 571.86,-136.48"/>
<polygon fill="midnightblue" stroke="midnightblue" points="573.26,-139.7 581.32,-132.82 570.73,-133.17 573.26,-139.7"/>
</g>
<!-- Node20 -->
<g id="node20" class="node">
<title>Node20</title>
<g id="a_node20"><a xlink:href="namespaceconsole_1_1out.html#ad9fc97dff4404c2d21aedbb24691e7cb" target="_top" xlink:title=" ">
<polygon fill="white" stroke="black" points="878,-75.75 878,-94.75 988,-94.75 988,-75.75 878,-75.75"/>
<text text-anchor="middle" x="933" y="-82.75" font-family="Helvetica,sans-Serif" font-size="10.00">console::out::putChar</text>
</a>
</g>
</g>
<!-- Node13&#45;&gt;Node20 -->
<g id="edge34" class="edge">
<title>Node13&#45;&gt;Node20</title>
<path fill="none" stroke="midnightblue" d="M497.47,-189.8C566.98,-205.05 716.74,-228.53 829,-180.25 850.37,-171.05 848.12,-158.25 865,-142.25 880.24,-127.8 898.43,-112.43 912.01,-101.3"/>
<polygon fill="midnightblue" stroke="midnightblue" points="914.25,-103.99 919.8,-94.96 909.84,-98.56 914.25,-103.99"/>
</g>
<!-- Node14&#45;&gt;Node6 -->
<g id="edge20" class="edge">
<title>Node14&#45;&gt;Node6</title>
<path fill="none" stroke="midnightblue" d="M621.17,-132.89C638.92,-145.47 671.9,-167.38 703,-180.25 799.92,-220.33 827.12,-237.25 932,-237.25 932,-237.25 932,-237.25 1103,-237.25 1198.83,-237.25 1311.32,-246.77 1368.87,-252.33"/>
<polygon fill="midnightblue" stroke="midnightblue" points="1368.66,-255.83 1378.96,-253.32 1369.35,-248.86 1368.66,-255.83"/>
</g>
<!-- Node15 -->
<g id="node15" class="node">
<title>Node15</title>
<g id="a_node15"><a xlink:href="printfmt_8cc.html#a708ec6ee2b8bd2d7a453d8d9436ed3b3" target="_top" xlink:title=" ">
<polygon fill="white" stroke="black" points="737,-113.75 737,-132.75 795,-132.75 795,-113.75 737,-113.75"/>
<text text-anchor="middle" x="766" y="-120.75" font-family="Helvetica,sans-Serif" font-size="10.00">_getIntVa</text>
</a>
</g>
</g>
<!-- Node14&#45;&gt;Node15 -->
<g id="edge18" class="edge">
<title>Node14&#45;&gt;Node15</title>
<path fill="none" stroke="midnightblue" d="M667.35,-123.25C687.24,-123.25 708.88,-123.25 726.72,-123.25"/>
<polygon fill="midnightblue" stroke="midnightblue" points="726.74,-126.75 736.74,-123.25 726.74,-119.75 726.74,-126.75"/>
</g>
<!-- Node16 -->
<g id="node16" class="node">
<title>Node16</title>
<g id="a_node16"><a xlink:href="printfmt_8cc.html#af4b46892c76c8bfd27efdb20847eb7c8" target="_top" xlink:title=" ">
<polygon fill="white" stroke="black" points="733.5,-37.75 733.5,-56.75 798.5,-56.75 798.5,-37.75 733.5,-37.75"/>
<text text-anchor="middle" x="766" y="-44.75" font-family="Helvetica,sans-Serif" font-size="10.00">_getUIntVa</text>
</a>
</g>
</g>
<!-- Node14&#45;&gt;Node16 -->
<g id="edge19" class="edge">
<title>Node14&#45;&gt;Node16</title>
<path fill="none" stroke="midnightblue" d="M621.59,-113.64C639.53,-101.3 672.43,-79.86 703,-66.25 709.43,-63.38 716.41,-60.79 723.29,-58.5"/>
<polygon fill="midnightblue" stroke="midnightblue" points="724.75,-61.71 733.23,-55.37 722.65,-55.03 724.75,-61.71"/>
</g>
<!-- Node17 -->
<g id="node17" class="node">
<title>Node17</title>
<g id="a_node17"><a xlink:href="printfmt_8cc.html#a0e3e484ece5e75b9f5fbe337f0ae8ae3" target="_top" xlink:title=" ">
<polygon fill="white" stroke="black" points="739.5,-151.75 739.5,-170.75 792.5,-170.75 792.5,-151.75 739.5,-151.75"/>
<text text-anchor="middle" x="766" y="-158.75" font-family="Helvetica,sans-Serif" font-size="10.00">describe</text>
</a>
</g>
</g>
<!-- Node14&#45;&gt;Node17 -->
<g id="edge21" class="edge">
<title>Node14&#45;&gt;Node17</title>
<path fill="none" stroke="midnightblue" d="M647.62,-132.83C672.73,-138.91 704.96,-146.71 729.29,-152.6"/>
<polygon fill="midnightblue" stroke="midnightblue" points="728.64,-156.05 739.18,-155 730.29,-149.24 728.64,-156.05"/>
</g>
<!-- Node19 -->
<g id="node19" class="node">
<title>Node19</title>
<g id="a_node19"><a xlink:href="namespaceconsole_1_1ge.html#a7e301813fd34fde772376afc5fdad95d" target="_top" xlink:title=" ">
<polygon fill="white" stroke="black" points="703,-75.75 703,-94.75 829,-94.75 829,-75.75 703,-75.75"/>
<text text-anchor="middle" x="766" y="-82.75" font-family="Helvetica,sans-Serif" font-size="10.00">console::ge::printNumber</text>
</a>
</g>
</g>
<!-- Node14&#45;&gt;Node19 -->
<g id="edge23" class="edge">
<title>Node14&#45;&gt;Node19</title>
<path fill="none" stroke="midnightblue" d="M647.62,-113.66C668.34,-108.64 693.89,-102.46 715.86,-97.14"/>
<polygon fill="midnightblue" stroke="midnightblue" points="716.77,-100.52 725.67,-94.77 715.12,-93.72 716.77,-100.52"/>
</g>
<!-- Node14&#45;&gt;Node20 -->
<g id="edge33" class="edge">
<title>Node14&#45;&gt;Node20</title>
<path fill="none" stroke="midnightblue" d="M613.85,-113.55C626.84,-93.08 660.33,-45.92 703,-28.25 754.74,-6.82 774.78,-14.24 829,-28.25 859.89,-36.22 891.4,-55.66 911.3,-69.62"/>
<polygon fill="midnightblue" stroke="midnightblue" points="909.42,-72.58 919.57,-75.59 913.51,-66.9 909.42,-72.58"/>
</g>
<!-- Node18 -->
<g id="node18" class="node">
<title>Node18</title>
<g id="a_node18"><a xlink:href="namespacemonitor.html#a318993193c866642f8389a1c1f285739" target="_top" xlink:title=" ">
<polygon fill="white" stroke="black" points="896,-151.75 896,-170.75 970,-170.75 970,-151.75 896,-151.75"/>
<text text-anchor="middle" x="933" y="-158.75" font-family="Helvetica,sans-Serif" font-size="10.00">monitor::fuck</text>
</a>
</g>
</g>
<!-- Node17&#45;&gt;Node18 -->
<g id="edge22" class="edge">
<title>Node17&#45;&gt;Node18</title>
<path fill="none" stroke="midnightblue" d="M792.78,-161.25C817.59,-161.25 855.66,-161.25 885.73,-161.25"/>
<polygon fill="midnightblue" stroke="midnightblue" points="885.99,-164.75 895.99,-161.25 885.99,-157.75 885.99,-164.75"/>
</g>
<!-- Node19&#45;&gt;Node20 -->
<g id="edge24" class="edge">
<title>Node19&#45;&gt;Node20</title>
<path fill="none" stroke="midnightblue" d="M829.38,-85.25C841.86,-85.25 854.99,-85.25 867.53,-85.25"/>
<polygon fill="midnightblue" stroke="midnightblue" points="867.91,-88.75 877.91,-85.25 867.91,-81.75 867.91,-88.75"/>
</g>
<!-- Node21 -->
<g id="node21" class="node">
<title>Node21</title>
<g id="a_node21"><a xlink:href="namespaceconsole_1_1serial.html#a3a7c1f95ae3c24136ea63bb31fdf0391" target="_top" xlink:title=" ">
<polygon fill="white" stroke="black" points="1042,-75.75 1042,-94.75 1162,-94.75 1162,-75.75 1042,-75.75"/>
<text text-anchor="middle" x="1102" y="-82.75" font-family="Helvetica,sans-Serif" font-size="10.00">console::serial::putChar</text>
</a>
</g>
</g>
<!-- Node20&#45;&gt;Node21 -->
<g id="edge25" class="edge">
<title>Node20&#45;&gt;Node21</title>
<path fill="none" stroke="midnightblue" d="M988.22,-85.25C1002.02,-85.25 1017.03,-85.25 1031.47,-85.25"/>
<polygon fill="midnightblue" stroke="midnightblue" points="1031.86,-88.75 1041.86,-85.25 1031.86,-81.75 1031.86,-88.75"/>
</g>
<!-- Node24 -->
<g id="node24" class="node">
<title>Node24</title>
<g id="a_node24"><a xlink:href="namespaceconsole_1_1cga.html#afa19057ca041b39682d5d4831c43dfa0" target="_top" xlink:title=" ">
<polygon fill="white" stroke="black" points="1045.5,-113.75 1045.5,-132.75 1158.5,-132.75 1158.5,-113.75 1045.5,-113.75"/>
<text text-anchor="middle" x="1102" y="-120.75" font-family="Helvetica,sans-Serif" font-size="10.00">console::cga::putChar</text>
</a>
</g>
</g>
<!-- Node20&#45;&gt;Node24 -->
<g id="edge28" class="edge">
<title>Node20&#45;&gt;Node24</title>
<path fill="none" stroke="midnightblue" d="M976.14,-94.83C998.38,-99.89 1025.85,-106.14 1049.36,-111.49"/>
<polygon fill="midnightblue" stroke="midnightblue" points="1048.63,-114.92 1059.16,-113.73 1050.19,-108.09 1048.63,-114.92"/>
</g>
<!-- Node22 -->
<g id="node22" class="node">
<title>Node22</title>
<g id="a_node22"><a xlink:href="namespaceconsole_1_1serial.html#aa5605d4537106bb1c2bab72d7d1a5824" target="_top" xlink:title=" ">
<polygon fill="white" stroke="black" points="1221,-75.75 1221,-94.75 1325,-94.75 1325,-75.75 1221,-75.75"/>
<text text-anchor="middle" x="1273" y="-82.75" font-family="Helvetica,sans-Serif" font-size="10.00">console::serial::sout</text>
</a>
</g>
</g>
<!-- Node21&#45;&gt;Node22 -->
<g id="edge26" class="edge">
<title>Node21&#45;&gt;Node22</title>
<path fill="none" stroke="midnightblue" d="M1162.11,-85.25C1177.8,-85.25 1194.79,-85.25 1210.6,-85.25"/>
<polygon fill="midnightblue" stroke="midnightblue" points="1210.8,-88.75 1220.8,-85.25 1210.8,-81.75 1210.8,-88.75"/>
</g>
<!-- Node23 -->
<g id="node23" class="node">
<title>Node23</title>
<g id="a_node23"><a xlink:href="x86_8h.html#ade961b44e45ddacbc3c3b7609cf36dc6" target="_top" xlink:title=" ">
<polygon fill="white" stroke="black" points="1390.5,-94.75 1390.5,-113.75 1425.5,-113.75 1425.5,-94.75 1390.5,-94.75"/>
<text text-anchor="middle" x="1408" y="-101.75" font-family="Helvetica,sans-Serif" font-size="10.00">outb</text>
</a>
</g>
</g>
<!-- Node22&#45;&gt;Node23 -->
<g id="edge27" class="edge">
<title>Node22&#45;&gt;Node23</title>
<path fill="none" stroke="midnightblue" d="M1325.04,-92.54C1343.85,-95.22 1364.4,-98.16 1380.22,-100.42"/>
<polygon fill="midnightblue" stroke="midnightblue" points="1379.95,-103.92 1390.34,-101.87 1380.94,-96.99 1379.95,-103.92"/>
</g>
<!-- Node25 -->
<g id="node25" class="node">
<title>Node25</title>
<g id="a_node25"><a xlink:href="namespacemem.html#a64d9d05b439041901498c606de606431" target="_top" xlink:title=" ">
<polygon fill="white" stroke="black" points="1240.5,-170.75 1240.5,-189.75 1305.5,-189.75 1305.5,-170.75 1240.5,-170.75"/>
<text text-anchor="middle" x="1273" y="-177.75" font-family="Helvetica,sans-Serif" font-size="10.00">mem::copy</text>
</a>
</g>
</g>
<!-- Node24&#45;&gt;Node25 -->
<g id="edge29" class="edge">
<title>Node24&#45;&gt;Node25</title>
<path fill="none" stroke="midnightblue" d="M1131.29,-132.79C1159.44,-142.28 1202.82,-156.91 1233.97,-167.42"/>
<polygon fill="midnightblue" stroke="midnightblue" points="1233.03,-170.79 1243.62,-170.67 1235.26,-164.16 1233.03,-170.79"/>
</g>
<!-- Node26 -->
<g id="node26" class="node">
<title>Node26</title>
<g id="a_node26"><a xlink:href="namespaceconsole_1_1cga.html#a06463d4dc68819e30615ba299d02a78f" target="_top" xlink:title=" ">
<polygon fill="white" stroke="black" points="1203,-113.75 1203,-132.75 1343,-132.75 1343,-113.75 1203,-113.75"/>
<text text-anchor="middle" x="1273" y="-120.75" font-family="Helvetica,sans-Serif" font-size="10.00">console::cga::cursorRefresh</text>
</a>
</g>
</g>
<!-- Node24&#45;&gt;Node26 -->
<g id="edge31" class="edge">
<title>Node24&#45;&gt;Node26</title>
<path fill="none" stroke="midnightblue" d="M1158.81,-123.25C1169.74,-123.25 1181.39,-123.25 1192.92,-123.25"/>
<polygon fill="midnightblue" stroke="midnightblue" points="1192.99,-126.75 1202.99,-123.25 1192.99,-119.75 1192.99,-126.75"/>
</g>
<!-- Node25&#45;&gt;Node6 -->
<g id="edge30" class="edge">
<title>Node25&#45;&gt;Node6</title>
<path fill="none" stroke="midnightblue" d="M1290.84,-189.87C1313.73,-202.95 1354.84,-226.44 1381.51,-241.68"/>
<polygon fill="midnightblue" stroke="midnightblue" points="1379.87,-244.78 1390.29,-246.7 1383.35,-238.7 1379.87,-244.78"/>
</g>
<!-- Node26&#45;&gt;Node23 -->
<g id="edge32" class="edge">
<title>Node26&#45;&gt;Node23</title>
<path fill="none" stroke="midnightblue" d="M1340.89,-113.69C1354.81,-111.7 1368.71,-109.72 1380.15,-108.08"/>
<polygon fill="midnightblue" stroke="midnightblue" points="1380.87,-111.51 1390.28,-106.63 1379.88,-104.58 1380.87,-111.51"/>
</g>
<!-- Node28 -->
<g id="node28" class="node">
<title>Node28</title>
<g id="a_node28"><a xlink:href="namespaceconsole_1_1err.html#a4cd18e4c409b5b17ecec61ce83b05fba" target="_top" xlink:title=" ">
<polygon fill="white" stroke="black" points="406,-113.75 406,-132.75 510,-132.75 510,-113.75 406,-113.75"/>
<text text-anchor="middle" x="458" y="-120.75" font-family="Helvetica,sans-Serif" font-size="10.00">console::err::printVa</text>
</a>
</g>
</g>
<!-- Node27&#45;&gt;Node28 -->
<g id="edge36" class="edge">
<title>Node27&#45;&gt;Node28</title>
<path fill="none" stroke="midnightblue" d="M367.66,-135.87C376.63,-134.6 386.18,-133.25 395.59,-131.92"/>
<polygon fill="midnightblue" stroke="midnightblue" points="396.28,-135.36 405.7,-130.49 395.3,-128.43 396.28,-135.36"/>
</g>
<!-- Node28&#45;&gt;Node14 -->
<g id="edge37" class="edge">
<title>Node28&#45;&gt;Node14</title>
<path fill="none" stroke="midnightblue" d="M510,-123.25C518.62,-123.25 527.69,-123.25 536.68,-123.25"/>
<polygon fill="midnightblue" stroke="midnightblue" points="536.76,-126.75 546.76,-123.25 536.76,-119.75 536.76,-126.75"/>
</g>
<!-- Node28&#45;&gt;Node20 -->
<g id="edge38" class="edge">
<title>Node28&#45;&gt;Node20</title>
<path fill="none" stroke="midnightblue" d="M473.89,-113.6C510.81,-90.32 610.33,-31.5 703,-11.25 757.71,0.71 775.69,5.92 829,-11.25 863.84,-22.46 896.87,-50.32 915.75,-68.47"/>
<polygon fill="midnightblue" stroke="midnightblue" points="913.36,-71.04 922.93,-75.58 918.28,-66.06 913.36,-71.04"/>
</g>
<!-- Node30 -->
<g id="node30" class="node">
<title>Node30</title>
<g id="a_node30"><a xlink:href="ctype_8h.html#afa0dfddc51a97feb51f3ecfbe30125b1" target="_top" xlink:title=" ">
<polygon fill="white" stroke="black" points="283,-94.75 283,-113.75 360,-113.75 360,-94.75 283,-94.75"/>
<text text-anchor="middle" x="321.5" y="-101.75" font-family="Helvetica,sans-Serif" font-size="10.00">isWhiteSpace</text>
</a>
</g>
</g>
<!-- Node29&#45;&gt;Node30 -->
<g id="edge40" class="edge">
<title>Node29&#45;&gt;Node30</title>
<path fill="none" stroke="midnightblue" d="M217.63,-118.89C234,-116.56 254.51,-113.64 272.9,-111.02"/>
<polygon fill="midnightblue" stroke="midnightblue" points="273.46,-114.48 282.87,-109.6 272.47,-107.55 273.46,-114.48"/>
</g>
</g>
</svg>
