<?xml version="1.0" encoding="UTF-8" standalone="no"?>
<!DOCTYPE svg PUBLIC "-//W3C//DTD SVG 1.1//EN"
 "http://www.w3.org/Graphics/SVG/1.1/DTD/svg11.dtd">
<!-- Generated by graphviz version 2.44.1 (20200629.0846)
 -->
<!-- Title: console::in::readline Pages: 1 -->
<svg width="1295pt" height="269pt"
 viewBox="0.00 0.00 1295.00 269.08" xmlns="http://www.w3.org/2000/svg" xmlns:xlink="http://www.w3.org/1999/xlink">
<g id="graph0" class="graph" transform="scale(1 1) rotate(0) translate(4 265.08)">
<title>console::in::readline</title>
<polygon fill="white" stroke="transparent" points="-4,4 -4,-265.08 1291,-265.08 1291,4 -4,4"/>
<!-- Node1 -->
<g id="node1" class="node">
<title>Node1</title>
<g id="a_node1"><a xlink:title=" ">
<polygon fill="#bfbfbf" stroke="black" points="0,-13.58 0,-32.58 104,-32.58 104,-13.58 0,-13.58"/>
<text text-anchor="middle" x="52" y="-20.58" font-family="Helvetica,sans-Serif" font-size="10.00">console::in::readline</text>
</a>
</g>
</g>
<!-- Node2 -->
<g id="node2" class="node">
<title>Node2</title>
<g id="a_node2"><a xlink:href="namespaceconsole_1_1in.html#ac28354dad0498aa6bb0c178b10d62c8a" target="_top" xlink:title=" ">
<polygon fill="white" stroke="black" points="140,-13.58 140,-32.58 255,-32.58 255,-13.58 140,-13.58"/>
<text text-anchor="middle" x="197.5" y="-20.58" font-family="Helvetica,sans-Serif" font-size="10.00">console::in::readlineVa</text>
</a>
</g>
</g>
<!-- Node1&#45;&gt;Node2 -->
<g id="edge1" class="edge">
<title>Node1&#45;&gt;Node2</title>
<path fill="none" stroke="midnightblue" d="M104.4,-23.08C112.52,-23.08 121.02,-23.08 129.43,-23.08"/>
<polygon fill="midnightblue" stroke="midnightblue" points="129.62,-26.58 139.62,-23.08 129.62,-19.58 129.62,-26.58"/>
</g>
<!-- Node3 -->
<g id="node3" class="node">
<title>Node3</title>
<g id="a_node3"><a xlink:href="namespaceconsole_1_1in.html#a6fc069f2bc57fda183e3b991c31ec5a7" target="_top" xlink:title=" ">
<polygon fill="white" stroke="black" points="292,-51.58 292,-70.58 396,-70.58 396,-51.58 292,-51.58"/>
<text text-anchor="middle" x="344" y="-58.58" font-family="Helvetica,sans-Serif" font-size="10.00">console::in::getChar</text>
</a>
</g>
</g>
<!-- Node2&#45;&gt;Node3 -->
<g id="edge2" class="edge">
<title>Node2&#45;&gt;Node3</title>
<path fill="none" stroke="midnightblue" d="M234.96,-32.66C253.77,-37.61 276.91,-43.7 296.95,-48.97"/>
<polygon fill="midnightblue" stroke="midnightblue" points="296.24,-52.4 306.8,-51.56 298.02,-45.63 296.24,-52.4"/>
</g>
<!-- Node4 -->
<g id="node4" class="node">
<title>Node4</title>
<g id="a_node4"><a xlink:href="namespaceconsole_1_1out.html#a8f791bfac54067cadb1b9f18117b987b" target="_top" xlink:title=" ">
<polygon fill="white" stroke="black" points="291,-13.58 291,-32.58 397,-32.58 397,-13.58 291,-13.58"/>
<text text-anchor="middle" x="344" y="-20.58" font-family="Helvetica,sans-Serif" font-size="10.00">console::out::printVa</text>
</a>
</g>
</g>
<!-- Node2&#45;&gt;Node4 -->
<g id="edge3" class="edge">
<title>Node2&#45;&gt;Node4</title>
<path fill="none" stroke="midnightblue" d="M255.2,-23.08C263.51,-23.08 272.12,-23.08 280.55,-23.08"/>
<polygon fill="midnightblue" stroke="midnightblue" points="280.71,-26.58 290.71,-23.08 280.71,-19.58 280.71,-26.58"/>
</g>
<!-- Node12 -->
<g id="node12" class="node">
<title>Node12</title>
<g id="a_node12"><a xlink:href="namespaceconsole_1_1out.html#ad9fc97dff4404c2d21aedbb24691e7cb" target="_top" xlink:title=" ">
<polygon fill="white" stroke="black" points="751,-70.58 751,-89.58 861,-89.58 861,-70.58 751,-70.58"/>
<text text-anchor="middle" x="806" y="-77.58" font-family="Helvetica,sans-Serif" font-size="10.00">console::out::putChar</text>
</a>
</g>
</g>
<!-- Node2&#45;&gt;Node12 -->
<g id="edge22" class="edge">
<title>Node2&#45;&gt;Node12</title>
<path fill="none" stroke="midnightblue" d="M236.04,-13.57C252.74,-9.8 272.73,-5.93 291,-4.08 405.64,7.58 680.8,-8.78 715,-20.08 742.48,-29.16 769.5,-49.05 786.64,-63.45"/>
<polygon fill="midnightblue" stroke="midnightblue" points="784.81,-66.49 794.66,-70.39 789.39,-61.2 784.81,-66.49"/>
</g>
<!-- Node5 -->
<g id="node5" class="node">
<title>Node5</title>
<g id="a_node5"><a xlink:href="namespaceconsole_1_1ge.html#af642934cb833142f133285fdb75ef7b7" target="_top" xlink:title=" ">
<polygon fill="white" stroke="black" points="433,-127.58 433,-146.58 553,-146.58 553,-127.58 433,-127.58"/>
<text text-anchor="middle" x="493" y="-134.58" font-family="Helvetica,sans-Serif" font-size="10.00">console::ge::printFmtVa</text>
</a>
</g>
</g>
<!-- Node4&#45;&gt;Node5 -->
<g id="edge4" class="edge">
<title>Node4&#45;&gt;Node5</title>
<path fill="none" stroke="midnightblue" d="M377.93,-32.64C384.5,-35.22 391.17,-38.35 397,-42.08 430.38,-63.37 461.26,-98.19 478.28,-119.24"/>
<polygon fill="midnightblue" stroke="midnightblue" points="475.74,-121.67 484.7,-127.34 481.23,-117.33 475.74,-121.67"/>
</g>
<!-- Node4&#45;&gt;Node12 -->
<g id="edge21" class="edge">
<title>Node4&#45;&gt;Node12</title>
<path fill="none" stroke="midnightblue" d="M397.26,-20.12C469.64,-17.29 604.03,-16.63 715,-42.08 737.18,-47.16 760.83,-57.35 778.32,-65.9"/>
<polygon fill="midnightblue" stroke="midnightblue" points="776.84,-69.08 787.35,-70.44 779.98,-62.82 776.84,-69.08"/>
</g>
<!-- Node6 -->
<g id="node6" class="node">
<title>Node6</title>
<g id="a_node6"><a xlink:href="printfmt_8cc.html#a708ec6ee2b8bd2d7a453d8d9436ed3b3" target="_top" xlink:title=" ">
<polygon fill="white" stroke="black" points="623,-51.58 623,-70.58 681,-70.58 681,-51.58 623,-51.58"/>
<text text-anchor="middle" x="652" y="-58.58" font-family="Helvetica,sans-Serif" font-size="10.00">_getIntVa</text>
</a>
</g>
</g>
<!-- Node5&#45;&gt;Node6 -->
<g id="edge5" class="edge">
<title>Node5&#45;&gt;Node6</title>
<path fill="none" stroke="midnightblue" d="M507.59,-127.47C525.53,-115.13 558.43,-93.69 589,-80.08 596.6,-76.69 604.99,-73.68 613.07,-71.1"/>
<polygon fill="midnightblue" stroke="midnightblue" points="614.14,-74.43 622.7,-68.18 612.11,-67.73 614.14,-74.43"/>
</g>
<!-- Node7 -->
<g id="node7" class="node">
<title>Node7</title>
<g id="a_node7"><a xlink:href="printfmt_8cc.html#af4b46892c76c8bfd27efdb20847eb7c8" target="_top" xlink:title=" ">
<polygon fill="white" stroke="black" points="619.5,-241.58 619.5,-260.58 684.5,-260.58 684.5,-241.58 619.5,-241.58"/>
<text text-anchor="middle" x="652" y="-248.58" font-family="Helvetica,sans-Serif" font-size="10.00">_getUIntVa</text>
</a>
</g>
</g>
<!-- Node5&#45;&gt;Node7 -->
<g id="edge6" class="edge">
<title>Node5&#45;&gt;Node7</title>
<path fill="none" stroke="midnightblue" d="M500.97,-146.69C515.3,-165.79 550.02,-208.64 589,-232.08 595.37,-235.9 602.57,-239.02 609.76,-241.54"/>
<polygon fill="midnightblue" stroke="midnightblue" points="608.88,-244.93 619.47,-244.61 610.99,-238.26 608.88,-244.93"/>
</g>
<!-- Node8 -->
<g id="node8" class="node">
<title>Node8</title>
<g id="a_node8"><a xlink:href="namespacestr.html#a062221f630647cf300f0dd982c4ed904" target="_top" xlink:title=" ">
<polygon fill="white" stroke="black" points="1229,-136.58 1229,-155.58 1287,-155.58 1287,-136.58 1229,-136.58"/>
<text text-anchor="middle" x="1258" y="-143.58" font-family="Helvetica,sans-Serif" font-size="10.00">str::count</text>
</a>
</g>
</g>
<!-- Node5&#45;&gt;Node8 -->
<g id="edge7" class="edge">
<title>Node5&#45;&gt;Node8</title>
<path fill="none" stroke="midnightblue" d="M541.99,-146.62C602.9,-157.87 711.31,-175.08 805,-175.08 805,-175.08 805,-175.08 958,-175.08 1062.79,-175.08 1088.94,-168.39 1193,-156.08 1201.34,-155.09 1210.25,-153.83 1218.7,-152.54"/>
<polygon fill="midnightblue" stroke="midnightblue" points="1219.37,-155.97 1228.71,-150.96 1218.28,-149.06 1219.37,-155.97"/>
</g>
<!-- Node9 -->
<g id="node9" class="node">
<title>Node9</title>
<g id="a_node9"><a xlink:href="printfmt_8cc.html#a0e3e484ece5e75b9f5fbe337f0ae8ae3" target="_top" xlink:title=" ">
<polygon fill="white" stroke="black" points="625.5,-203.58 625.5,-222.58 678.5,-222.58 678.5,-203.58 625.5,-203.58"/>
<text text-anchor="middle" x="652" y="-210.58" font-family="Helvetica,sans-Serif" font-size="10.00">describe</text>
</a>
</g>
</g>
<!-- Node5&#45;&gt;Node9 -->
<g id="edge8" class="edge">
<title>Node5&#45;&gt;Node9</title>
<path fill="none" stroke="midnightblue" d="M510.14,-146.76C528.77,-157.75 560.53,-175.84 589,-189.08 597.61,-193.08 607.09,-196.98 615.98,-200.45"/>
<polygon fill="midnightblue" stroke="midnightblue" points="614.75,-203.72 625.35,-204.01 617.25,-197.18 614.75,-203.72"/>
</g>
<!-- Node11 -->
<g id="node11" class="node">
<title>Node11</title>
<g id="a_node11"><a xlink:href="namespaceconsole_1_1ge.html#a7e301813fd34fde772376afc5fdad95d" target="_top" xlink:title=" ">
<polygon fill="white" stroke="black" points="589,-89.58 589,-108.58 715,-108.58 715,-89.58 589,-89.58"/>
<text text-anchor="middle" x="652" y="-96.58" font-family="Helvetica,sans-Serif" font-size="10.00">console::ge::printNumber</text>
</a>
</g>
</g>
<!-- Node5&#45;&gt;Node11 -->
<g id="edge10" class="edge">
<title>Node5&#45;&gt;Node11</title>
<path fill="none" stroke="midnightblue" d="M533.62,-127.49C554.34,-122.47 579.89,-116.29 601.86,-110.97"/>
<polygon fill="midnightblue" stroke="midnightblue" points="602.77,-114.35 611.67,-108.6 601.12,-107.55 602.77,-114.35"/>
</g>
<!-- Node5&#45;&gt;Node12 -->
<g id="edge20" class="edge">
<title>Node5&#45;&gt;Node12</title>
<path fill="none" stroke="midnightblue" d="M553.45,-136.99C598.41,-135.72 661.36,-131.35 715,-118.08 736.95,-112.64 760.44,-102.56 777.92,-94.15"/>
<polygon fill="midnightblue" stroke="midnightblue" points="779.55,-97.25 786.97,-89.69 776.45,-90.97 779.55,-97.25"/>
</g>
<!-- Node10 -->
<g id="node10" class="node">
<title>Node10</title>
<g id="a_node10"><a xlink:href="namespacemonitor.html#a318993193c866642f8389a1c1f285739" target="_top" xlink:title=" ">
<polygon fill="white" stroke="black" points="769,-203.58 769,-222.58 843,-222.58 843,-203.58 769,-203.58"/>
<text text-anchor="middle" x="806" y="-210.58" font-family="Helvetica,sans-Serif" font-size="10.00">monitor::fuck</text>
</a>
</g>
</g>
<!-- Node9&#45;&gt;Node10 -->
<g id="edge9" class="edge">
<title>Node9&#45;&gt;Node10</title>
<path fill="none" stroke="midnightblue" d="M678.78,-213.08C700.62,-213.08 732.46,-213.08 758.7,-213.08"/>
<polygon fill="midnightblue" stroke="midnightblue" points="758.82,-216.58 768.82,-213.08 758.82,-209.58 758.82,-216.58"/>
</g>
<!-- Node11&#45;&gt;Node12 -->
<g id="edge11" class="edge">
<title>Node11&#45;&gt;Node12</title>
<path fill="none" stroke="midnightblue" d="M715.26,-91.29C723.66,-90.24 732.28,-89.17 740.71,-88.11"/>
<polygon fill="midnightblue" stroke="midnightblue" points="741.37,-91.56 750.86,-86.84 740.51,-84.61 741.37,-91.56"/>
</g>
<!-- Node13 -->
<g id="node13" class="node">
<title>Node13</title>
<g id="a_node13"><a xlink:href="namespaceconsole_1_1serial.html#a3a7c1f95ae3c24136ea63bb31fdf0391" target="_top" xlink:title=" ">
<polygon fill="white" stroke="black" points="897,-51.58 897,-70.58 1017,-70.58 1017,-51.58 897,-51.58"/>
<text text-anchor="middle" x="957" y="-58.58" font-family="Helvetica,sans-Serif" font-size="10.00">console::serial::putChar</text>
</a>
</g>
</g>
<!-- Node12&#45;&gt;Node13 -->
<g id="edge12" class="edge">
<title>Node12&#45;&gt;Node13</title>
<path fill="none" stroke="midnightblue" d="M861.21,-73.16C869.53,-72.1 878.2,-71 886.79,-69.9"/>
<polygon fill="midnightblue" stroke="midnightblue" points="887.32,-73.36 896.79,-68.63 886.43,-66.42 887.32,-73.36"/>
</g>
<!-- Node16 -->
<g id="node16" class="node">
<title>Node16</title>
<g id="a_node16"><a xlink:href="namespaceconsole_1_1cga.html#afa19057ca041b39682d5d4831c43dfa0" target="_top" xlink:title=" ">
<polygon fill="white" stroke="black" points="900.5,-89.58 900.5,-108.58 1013.5,-108.58 1013.5,-89.58 900.5,-89.58"/>
<text text-anchor="middle" x="957" y="-96.58" font-family="Helvetica,sans-Serif" font-size="10.00">console::cga::putChar</text>
</a>
</g>
</g>
<!-- Node12&#45;&gt;Node16 -->
<g id="edge15" class="edge">
<title>Node12&#45;&gt;Node16</title>
<path fill="none" stroke="midnightblue" d="M861.21,-86.99C870.66,-88.19 880.58,-89.46 890.3,-90.7"/>
<polygon fill="midnightblue" stroke="midnightblue" points="889.96,-94.18 900.33,-91.98 890.85,-87.24 889.96,-94.18"/>
</g>
<!-- Node14 -->
<g id="node14" class="node">
<title>Node14</title>
<g id="a_node14"><a xlink:href="namespaceconsole_1_1serial.html#aa5605d4537106bb1c2bab72d7d1a5824" target="_top" xlink:title=" ">
<polygon fill="white" stroke="black" points="1071,-51.58 1071,-70.58 1175,-70.58 1175,-51.58 1071,-51.58"/>
<text text-anchor="middle" x="1123" y="-58.58" font-family="Helvetica,sans-Serif" font-size="10.00">console::serial::sout</text>
</a>
</g>
</g>
<!-- Node13&#45;&gt;Node14 -->
<g id="edge13" class="edge">
<title>Node13&#45;&gt;Node14</title>
<path fill="none" stroke="midnightblue" d="M1017.21,-61.08C1031.31,-61.08 1046.39,-61.08 1060.59,-61.08"/>
<polygon fill="midnightblue" stroke="midnightblue" points="1060.74,-64.58 1070.74,-61.08 1060.74,-57.58 1060.74,-64.58"/>
</g>
<!-- Node15 -->
<g id="node15" class="node">
<title>Node15</title>
<g id="a_node15"><a xlink:href="x86_8h.html#ade961b44e45ddacbc3c3b7609cf36dc6" target="_top" xlink:title=" ">
<polygon fill="white" stroke="black" points="1240.5,-79.58 1240.5,-98.58 1275.5,-98.58 1275.5,-79.58 1240.5,-79.58"/>
<text text-anchor="middle" x="1258" y="-86.58" font-family="Helvetica,sans-Serif" font-size="10.00">outb</text>
</a>
</g>
</g>
<!-- Node14&#45;&gt;Node15 -->
<g id="edge14" class="edge">
<title>Node14&#45;&gt;Node15</title>
<path fill="none" stroke="midnightblue" d="M1169.4,-70.63C1189.71,-74.91 1212.96,-79.8 1230.4,-83.48"/>
<polygon fill="midnightblue" stroke="midnightblue" points="1229.92,-86.95 1240.43,-85.59 1231.37,-80.1 1229.92,-86.95"/>
</g>
<!-- Node17 -->
<g id="node17" class="node">
<title>Node17</title>
<g id="a_node17"><a xlink:href="namespacemem.html#a64d9d05b439041901498c606de606431" target="_top" xlink:title=" ">
<polygon fill="white" stroke="black" points="1090.5,-127.58 1090.5,-146.58 1155.5,-146.58 1155.5,-127.58 1090.5,-127.58"/>
<text text-anchor="middle" x="1123" y="-134.58" font-family="Helvetica,sans-Serif" font-size="10.00">mem::copy</text>
</a>
</g>
</g>
<!-- Node16&#45;&gt;Node17 -->
<g id="edge16" class="edge">
<title>Node16&#45;&gt;Node17</title>
<path fill="none" stroke="midnightblue" d="M999.38,-108.66C1024.24,-114.42 1055.75,-121.73 1080.6,-127.48"/>
<polygon fill="midnightblue" stroke="midnightblue" points="1079.93,-130.92 1090.46,-129.77 1081.51,-124.1 1079.93,-130.92"/>
</g>
<!-- Node18 -->
<g id="node18" class="node">
<title>Node18</title>
<g id="a_node18"><a xlink:href="namespaceconsole_1_1cga.html#a06463d4dc68819e30615ba299d02a78f" target="_top" xlink:title=" ">
<polygon fill="white" stroke="black" points="1053,-89.58 1053,-108.58 1193,-108.58 1193,-89.58 1053,-89.58"/>
<text text-anchor="middle" x="1123" y="-96.58" font-family="Helvetica,sans-Serif" font-size="10.00">console::cga::cursorRefresh</text>
</a>
</g>
</g>
<!-- Node16&#45;&gt;Node18 -->
<g id="edge18" class="edge">
<title>Node16&#45;&gt;Node18</title>
<path fill="none" stroke="midnightblue" d="M1013.52,-99.08C1022.9,-99.08 1032.8,-99.08 1042.65,-99.08"/>
<polygon fill="midnightblue" stroke="midnightblue" points="1042.87,-102.58 1052.87,-99.08 1042.87,-95.58 1042.87,-102.58"/>
</g>
<!-- Node17&#45;&gt;Node8 -->
<g id="edge17" class="edge">
<title>Node17&#45;&gt;Node8</title>
<path fill="none" stroke="midnightblue" d="M1155.52,-139.21C1174.49,-140.49 1198.77,-142.14 1218.82,-143.49"/>
<polygon fill="midnightblue" stroke="midnightblue" points="1218.66,-146.99 1228.87,-144.17 1219.13,-140.01 1218.66,-146.99"/>
</g>
<!-- Node18&#45;&gt;Node15 -->
<g id="edge19" class="edge">
<title>Node18&#45;&gt;Node15</title>
<path fill="none" stroke="midnightblue" d="M1193.23,-93.87C1206.48,-92.87 1219.59,-91.89 1230.45,-91.07"/>
<polygon fill="midnightblue" stroke="midnightblue" points="1230.76,-94.56 1240.47,-90.32 1230.24,-87.58 1230.76,-94.56"/>
</g>
</g>
</svg>
