<?xml version="1.0" encoding="UTF-8" standalone="no"?>
<!DOCTYPE svg PUBLIC "-//W3C//DTD SVG 1.1//EN"
 "http://www.w3.org/Graphics/SVG/1.1/DTD/svg11.dtd">
<!-- Generated by graphviz version 2.44.1 (20200629.0846)
 -->
<!-- Title: kdebug::backtrace Pages: 1 -->
<!--zoomable 233 -->
<svg id="main" version="1.1" xmlns="http://www.w3.org/2000/svg" xmlns:xlink="http://www.w3.org/1999/xlink" xml:space="preserve" onload="init(evt)">
<style type="text/css"><![CDATA[
.edge:hover path { stroke: red; }
.edge:hover polygon { stroke: red; fill: red; }
]]></style>
<script type="text/javascript"><![CDATA[
var edges = document.getElementsByTagName('g');
if (edges && edges.length) {
  for (var i=0;i<edges.length;i++) {
    if (edges[i].id.substr(0,4)=='edge') {
      edges[i].setAttribute('class','edge');
    }
  }
}
]]></script>
        <defs>
                <circle id="rim" cx="0" cy="0" r="7"/>
                <circle id="rim2" cx="0" cy="0" r="3.5"/>
                <g id="zoomPlus">
                        <use xlink:href="#rim" fill="#404040">
                                <set attributeName="fill" to="#808080" begin="zoomplus.mouseover" end="zoomplus.mouseout"/>
                        </use>
                        <path d="M-4,0h8M0,-4v8" fill="none" stroke="white" stroke-width="1.5" pointer-events="none"/>
                </g>
                <g id="zoomMin">
                        <use xlink:href="#rim" fill="#404040">
                                <set attributeName="fill" to="#808080" begin="zoomminus.mouseover" end="zoomminus.mouseout"/>
                        </use>
                        <path d="M-4,0h8" fill="none" stroke="white" stroke-width="1.5" pointer-events="none"/>
                </g>
                <g id="dirArrow">
                        <path fill="none" stroke="white" stroke-width="1.5" d="M0,-3.0v7 M-2.5,-0.5L0,-3.0L2.5,-0.5"/>
                </g>
               <g id="resetDef">
                       <use xlink:href="#rim2" fill="#404040">
                               <set attributeName="fill" to="#808080" begin="reset.mouseover" end="reset.mouseout"/>
                       </use>
               </g>
        </defs>

<script type="text/javascript">
var viewWidth = 1263;
var viewHeight = 233;
var sectionId = 'dynsection-0';
</script>
<script xlink:href="svgpan.js"/>
<svg id="graph" class="graph">
<g id="viewport">
<title>kdebug::backtrace</title>
<polygon fill="white" stroke="transparent" points="-4,4 -4,-228.87 1259,-228.87 1259,4 -4,4"/>
<!-- Node1 -->
<g id="node1" class="node">
<title>Node1</title>
<g id="a_node1"><a xlink:title=" ">
<polygon fill="#bfbfbf" stroke="black" points="0,-19.5 0,-38.5 97,-38.5 97,-19.5 0,-19.5"/>
<text text-anchor="middle" x="48.5" y="-26.5" font-family="Helvetica,sans-Serif" font-size="10.00">kdebug::backtrace</text>
</a>
</g>
</g>
<!-- Node2 -->
<g id="node2" class="node">
<title>Node2</title>
<g id="a_node2"><a xlink:href="namespaceconsole_1_1err.html#a124c7e8527c0e3fd2b9636411aea7e82" target="_top" xlink:title=" ">
<polygon fill="white" stroke="black" points="133,-38.5 133,-57.5 225,-57.5 225,-38.5 133,-38.5"/>
<text text-anchor="middle" x="179" y="-45.5" font-family="Helvetica,sans-Serif" font-size="10.00">console::err::print</text>
</a>
</g>
</g>
<!-- Node1&#45;&gt;Node2 -->
<g id="edge1" class="edge">
<title>Node1&#45;&gt;Node2</title>
<path fill="none" stroke="midnightblue" d="M97.35,-36.07C105.57,-37.29 114.17,-38.56 122.57,-39.8"/>
<polygon fill="midnightblue" stroke="midnightblue" points="122.26,-43.3 132.67,-41.3 123.29,-36.37 122.26,-43.3"/>
</g>
<!-- Node18 -->
<g id="node18" class="node">
<title>Node18</title>
<g id="a_node18"><a xlink:href="x86_8h.html#a663bfaa6d51e77d46a366f2c55767add" target="_top" xlink:title=" ">
<polygon fill="white" stroke="black" points="151,-0.5 151,-19.5 207,-19.5 207,-0.5 151,-0.5"/>
<text text-anchor="middle" x="179" y="-7.5" font-family="Helvetica,sans-Serif" font-size="10.00">read_ebp</text>
</a>
</g>
</g>
<!-- Node1&#45;&gt;Node18 -->
<g id="edge21" class="edge">
<title>Node1&#45;&gt;Node18</title>
<path fill="none" stroke="midnightblue" d="M97.35,-21.93C111.68,-19.81 127.17,-17.52 140.72,-15.51"/>
<polygon fill="midnightblue" stroke="midnightblue" points="141.26,-18.97 150.64,-14.05 140.24,-12.05 141.26,-18.97"/>
</g>
<!-- Node3 -->
<g id="node3" class="node">
<title>Node3</title>
<g id="a_node3"><a xlink:href="namespaceconsole_1_1err.html#a4cd18e4c409b5b17ecec61ce83b05fba" target="_top" xlink:title=" ">
<polygon fill="white" stroke="black" points="261,-38.5 261,-57.5 365,-57.5 365,-38.5 261,-38.5"/>
<text text-anchor="middle" x="313" y="-45.5" font-family="Helvetica,sans-Serif" font-size="10.00">console::err::printVa</text>
</a>
</g>
</g>
<!-- Node2&#45;&gt;Node3 -->
<g id="edge2" class="edge">
<title>Node2&#45;&gt;Node3</title>
<path fill="none" stroke="midnightblue" d="M225.06,-48C233.32,-48 242.08,-48 250.73,-48"/>
<polygon fill="midnightblue" stroke="midnightblue" points="250.79,-51.5 260.79,-48 250.79,-44.5 250.79,-51.5"/>
</g>
<!-- Node4 -->
<g id="node4" class="node">
<title>Node4</title>
<g id="a_node4"><a xlink:href="namespaceconsole_1_1ge.html#af642934cb833142f133285fdb75ef7b7" target="_top" xlink:title=" ">
<polygon fill="white" stroke="black" points="401,-95.5 401,-114.5 521,-114.5 521,-95.5 401,-95.5"/>
<text text-anchor="middle" x="461" y="-102.5" font-family="Helvetica,sans-Serif" font-size="10.00">console::ge::printFmtVa</text>
</a>
</g>
</g>
<!-- Node3&#45;&gt;Node4 -->
<g id="edge3" class="edge">
<title>Node3&#45;&gt;Node4</title>
<path fill="none" stroke="midnightblue" d="M338.44,-57.54C362.44,-66.91 399.26,-81.29 426.09,-91.76"/>
<polygon fill="midnightblue" stroke="midnightblue" points="424.9,-95.05 435.48,-95.43 427.44,-88.53 424.9,-95.05"/>
</g>
<!-- Node11 -->
<g id="node11" class="node">
<title>Node11</title>
<g id="a_node11"><a xlink:href="namespaceconsole_1_1out.html#ad9fc97dff4404c2d21aedbb24691e7cb" target="_top" xlink:title=" ">
<polygon fill="white" stroke="black" points="719,-38.5 719,-57.5 829,-57.5 829,-38.5 719,-38.5"/>
<text text-anchor="middle" x="774" y="-45.5" font-family="Helvetica,sans-Serif" font-size="10.00">console::out::putChar</text>
</a>
</g>
</g>
<!-- Node3&#45;&gt;Node11 -->
<g id="edge20" class="edge">
<title>Node3&#45;&gt;Node11</title>
<path fill="none" stroke="midnightblue" d="M365.13,-41.55C436.45,-33.53 569.78,-22.01 683,-32 694.49,-33.01 706.72,-34.74 718.33,-36.7"/>
<polygon fill="midnightblue" stroke="midnightblue" points="717.89,-40.17 728.34,-38.46 719.1,-33.28 717.89,-40.17"/>
</g>
<!-- Node5 -->
<g id="node5" class="node">
<title>Node5</title>
<g id="a_node5"><a xlink:href="printfmt_8cc.html#a708ec6ee2b8bd2d7a453d8d9436ed3b3" target="_top" xlink:title=" ">
<polygon fill="white" stroke="black" points="591,-171.5 591,-190.5 649,-190.5 649,-171.5 591,-171.5"/>
<text text-anchor="middle" x="620" y="-178.5" font-family="Helvetica,sans-Serif" font-size="10.00">_getIntVa</text>
</a>
</g>
</g>
<!-- Node4&#45;&gt;Node5 -->
<g id="edge4" class="edge">
<title>Node4&#45;&gt;Node5</title>
<path fill="none" stroke="midnightblue" d="M475.59,-114.61C493.53,-126.95 526.43,-148.39 557,-162 564.6,-165.39 572.99,-168.4 581.07,-170.98"/>
<polygon fill="midnightblue" stroke="midnightblue" points="580.11,-174.34 590.7,-173.9 582.14,-167.65 580.11,-174.34"/>
</g>
<!-- Node6 -->
<g id="node6" class="node">
<title>Node6</title>
<g id="a_node6"><a xlink:href="printfmt_8cc.html#af4b46892c76c8bfd27efdb20847eb7c8" target="_top" xlink:title=" ">
<polygon fill="white" stroke="black" points="587.5,-133.5 587.5,-152.5 652.5,-152.5 652.5,-133.5 587.5,-133.5"/>
<text text-anchor="middle" x="620" y="-140.5" font-family="Helvetica,sans-Serif" font-size="10.00">_getUIntVa</text>
</a>
</g>
</g>
<!-- Node4&#45;&gt;Node6 -->
<g id="edge5" class="edge">
<title>Node4&#45;&gt;Node6</title>
<path fill="none" stroke="midnightblue" d="M501.62,-114.59C524.72,-120.18 553.84,-127.23 577.3,-132.91"/>
<polygon fill="midnightblue" stroke="midnightblue" points="576.76,-136.38 587.3,-135.33 578.4,-129.57 576.76,-136.38"/>
</g>
<!-- Node7 -->
<g id="node7" class="node">
<title>Node7</title>
<g id="a_node7"><a xlink:href="namespacestr.html#a062221f630647cf300f0dd982c4ed904" target="_top" xlink:title=" ">
<polygon fill="white" stroke="black" points="1197,-128.5 1197,-147.5 1255,-147.5 1255,-128.5 1197,-128.5"/>
<text text-anchor="middle" x="1226" y="-135.5" font-family="Helvetica,sans-Serif" font-size="10.00">str::count</text>
</a>
</g>
</g>
<!-- Node4&#45;&gt;Node7 -->
<g id="edge6" class="edge">
<title>Node4&#45;&gt;Node7</title>
<path fill="none" stroke="midnightblue" d="M468.18,-114.72C481.55,-134.79 515.36,-180.57 557,-200 644.33,-240.75 676.63,-219 773,-219 773,-219 773,-219 926,-219 1027.55,-219 1141.97,-174.93 1195.02,-151.8"/>
<polygon fill="midnightblue" stroke="midnightblue" points="1196.77,-154.86 1204.5,-147.61 1193.93,-148.46 1196.77,-154.86"/>
</g>
<!-- Node8 -->
<g id="node8" class="node">
<title>Node8</title>
<g id="a_node8"><a xlink:href="printfmt_8cc.html#a0e3e484ece5e75b9f5fbe337f0ae8ae3" target="_top" xlink:title=" ">
<polygon fill="white" stroke="black" points="593.5,-95.5 593.5,-114.5 646.5,-114.5 646.5,-95.5 593.5,-95.5"/>
<text text-anchor="middle" x="620" y="-102.5" font-family="Helvetica,sans-Serif" font-size="10.00">describe</text>
</a>
</g>
</g>
<!-- Node4&#45;&gt;Node8 -->
<g id="edge7" class="edge">
<title>Node4&#45;&gt;Node8</title>
<path fill="none" stroke="midnightblue" d="M521.35,-105C542.12,-105 564.78,-105 583.04,-105"/>
<polygon fill="midnightblue" stroke="midnightblue" points="583.24,-108.5 593.24,-105 583.24,-101.5 583.24,-108.5"/>
</g>
<!-- Node10 -->
<g id="node10" class="node">
<title>Node10</title>
<g id="a_node10"><a xlink:href="namespaceconsole_1_1ge.html#a7e301813fd34fde772376afc5fdad95d" target="_top" xlink:title=" ">
<polygon fill="white" stroke="black" points="557,-57.5 557,-76.5 683,-76.5 683,-57.5 557,-57.5"/>
<text text-anchor="middle" x="620" y="-64.5" font-family="Helvetica,sans-Serif" font-size="10.00">console::ge::printNumber</text>
</a>
</g>
</g>
<!-- Node4&#45;&gt;Node10 -->
<g id="edge9" class="edge">
<title>Node4&#45;&gt;Node10</title>
<path fill="none" stroke="midnightblue" d="M501.62,-95.41C522.34,-90.4 547.89,-84.21 569.86,-78.89"/>
<polygon fill="midnightblue" stroke="midnightblue" points="570.77,-82.27 579.67,-76.52 569.12,-75.47 570.77,-82.27"/>
</g>
<!-- Node4&#45;&gt;Node11 -->
<g id="edge19" class="edge">
<title>Node4&#45;&gt;Node11</title>
<path fill="none" stroke="midnightblue" d="M473.33,-95.36C490.22,-81.67 523.63,-57.24 557,-48 606.52,-34.28 664.9,-35.25 708.48,-39.11"/>
<polygon fill="midnightblue" stroke="midnightblue" points="708.38,-42.62 718.66,-40.09 709.05,-35.65 708.38,-42.62"/>
</g>
<!-- Node9 -->
<g id="node9" class="node">
<title>Node9</title>
<g id="a_node9"><a xlink:href="namespacemonitor.html#a318993193c866642f8389a1c1f285739" target="_top" xlink:title=" ">
<polygon fill="white" stroke="black" points="737,-95.5 737,-114.5 811,-114.5 811,-95.5 737,-95.5"/>
<text text-anchor="middle" x="774" y="-102.5" font-family="Helvetica,sans-Serif" font-size="10.00">monitor::fuck</text>
</a>
</g>
</g>
<!-- Node8&#45;&gt;Node9 -->
<g id="edge8" class="edge">
<title>Node8&#45;&gt;Node9</title>
<path fill="none" stroke="midnightblue" d="M646.78,-105C668.62,-105 700.46,-105 726.7,-105"/>
<polygon fill="midnightblue" stroke="midnightblue" points="726.82,-108.5 736.82,-105 726.82,-101.5 726.82,-108.5"/>
</g>
<!-- Node10&#45;&gt;Node11 -->
<g id="edge10" class="edge">
<title>Node10&#45;&gt;Node11</title>
<path fill="none" stroke="midnightblue" d="M683.26,-59.22C691.66,-58.17 700.28,-57.09 708.71,-56.04"/>
<polygon fill="midnightblue" stroke="midnightblue" points="709.37,-59.48 718.86,-54.77 708.51,-52.53 709.37,-59.48"/>
</g>
<!-- Node12 -->
<g id="node12" class="node">
<title>Node12</title>
<g id="a_node12"><a xlink:href="namespaceconsole_1_1serial.html#a3a7c1f95ae3c24136ea63bb31fdf0391" target="_top" xlink:title=" ">
<polygon fill="white" stroke="black" points="865,-38.5 865,-57.5 985,-57.5 985,-38.5 865,-38.5"/>
<text text-anchor="middle" x="925" y="-45.5" font-family="Helvetica,sans-Serif" font-size="10.00">console::serial::putChar</text>
</a>
</g>
</g>
<!-- Node11&#45;&gt;Node12 -->
<g id="edge11" class="edge">
<title>Node11&#45;&gt;Node12</title>
<path fill="none" stroke="midnightblue" d="M829.21,-48C837.53,-48 846.2,-48 854.79,-48"/>
<polygon fill="midnightblue" stroke="midnightblue" points="854.79,-51.5 864.79,-48 854.79,-44.5 854.79,-51.5"/>
</g>
<!-- Node15 -->
<g id="node15" class="node">
<title>Node15</title>
<g id="a_node15"><a xlink:href="namespaceconsole_1_1cga.html#afa19057ca041b39682d5d4831c43dfa0" target="_top" xlink:title=" ">
<polygon fill="white" stroke="black" points="868.5,-76.5 868.5,-95.5 981.5,-95.5 981.5,-76.5 868.5,-76.5"/>
<text text-anchor="middle" x="925" y="-83.5" font-family="Helvetica,sans-Serif" font-size="10.00">console::cga::putChar</text>
</a>
</g>
</g>
<!-- Node11&#45;&gt;Node15 -->
<g id="edge14" class="edge">
<title>Node11&#45;&gt;Node15</title>
<path fill="none" stroke="midnightblue" d="M812.6,-57.59C832.08,-62.56 856.07,-68.68 876.8,-73.96"/>
<polygon fill="midnightblue" stroke="midnightblue" points="876.12,-77.4 886.67,-76.48 877.85,-70.62 876.12,-77.4"/>
</g>
<!-- Node13 -->
<g id="node13" class="node">
<title>Node13</title>
<g id="a_node13"><a xlink:href="namespaceconsole_1_1serial.html#aa5605d4537106bb1c2bab72d7d1a5824" target="_top" xlink:title=" ">
<polygon fill="white" stroke="black" points="1039,-38.5 1039,-57.5 1143,-57.5 1143,-38.5 1039,-38.5"/>
<text text-anchor="middle" x="1091" y="-45.5" font-family="Helvetica,sans-Serif" font-size="10.00">console::serial::sout</text>
</a>
</g>
</g>
<!-- Node12&#45;&gt;Node13 -->
<g id="edge12" class="edge">
<title>Node12&#45;&gt;Node13</title>
<path fill="none" stroke="midnightblue" d="M985.21,-48C999.31,-48 1014.39,-48 1028.59,-48"/>
<polygon fill="midnightblue" stroke="midnightblue" points="1028.74,-51.5 1038.74,-48 1028.74,-44.5 1028.74,-51.5"/>
</g>
<!-- Node14 -->
<g id="node14" class="node">
<title>Node14</title>
<g id="a_node14"><a xlink:href="x86_8h.html#ade961b44e45ddacbc3c3b7609cf36dc6" target="_top" xlink:title=" ">
<polygon fill="white" stroke="black" points="1208.5,-71.5 1208.5,-90.5 1243.5,-90.5 1243.5,-71.5 1208.5,-71.5"/>
<text text-anchor="middle" x="1226" y="-78.5" font-family="Helvetica,sans-Serif" font-size="10.00">outb</text>
</a>
</g>
</g>
<!-- Node13&#45;&gt;Node14 -->
<g id="edge13" class="edge">
<title>Node13&#45;&gt;Node14</title>
<path fill="none" stroke="midnightblue" d="M1130.47,-57.54C1152.32,-62.97 1179.11,-69.61 1198.59,-74.45"/>
<polygon fill="midnightblue" stroke="midnightblue" points="1197.76,-77.85 1208.31,-76.86 1199.44,-71.05 1197.76,-77.85"/>
</g>
<!-- Node16 -->
<g id="node16" class="node">
<title>Node16</title>
<g id="a_node16"><a xlink:href="namespacemem.html#a64d9d05b439041901498c606de606431" target="_top" xlink:title=" ">
<polygon fill="white" stroke="black" points="1058.5,-119.5 1058.5,-138.5 1123.5,-138.5 1123.5,-119.5 1058.5,-119.5"/>
<text text-anchor="middle" x="1091" y="-126.5" font-family="Helvetica,sans-Serif" font-size="10.00">mem::copy</text>
</a>
</g>
</g>
<!-- Node15&#45;&gt;Node16 -->
<g id="edge15" class="edge">
<title>Node15&#45;&gt;Node16</title>
<path fill="none" stroke="midnightblue" d="M962.4,-95.54C987.92,-102.23 1022.08,-111.19 1048.64,-118.15"/>
<polygon fill="midnightblue" stroke="midnightblue" points="1047.85,-121.57 1058.41,-120.72 1049.62,-114.79 1047.85,-121.57"/>
</g>
<!-- Node17 -->
<g id="node17" class="node">
<title>Node17</title>
<g id="a_node17"><a xlink:href="namespaceconsole_1_1cga.html#a06463d4dc68819e30615ba299d02a78f" target="_top" xlink:title=" ">
<polygon fill="white" stroke="black" points="1021,-76.5 1021,-95.5 1161,-95.5 1161,-76.5 1021,-76.5"/>
<text text-anchor="middle" x="1091" y="-83.5" font-family="Helvetica,sans-Serif" font-size="10.00">console::cga::cursorRefresh</text>
</a>
</g>
</g>
<!-- Node15&#45;&gt;Node17 -->
<g id="edge17" class="edge">
<title>Node15&#45;&gt;Node17</title>
<path fill="none" stroke="midnightblue" d="M981.52,-86C990.9,-86 1000.8,-86 1010.65,-86"/>
<polygon fill="midnightblue" stroke="midnightblue" points="1010.87,-89.5 1020.87,-86 1010.87,-82.5 1010.87,-89.5"/>
</g>
<!-- Node16&#45;&gt;Node7 -->
<g id="edge16" class="edge">
<title>Node16&#45;&gt;Node7</title>
<path fill="none" stroke="midnightblue" d="M1123.52,-131.13C1142.49,-132.42 1166.77,-134.06 1186.82,-135.42"/>
<polygon fill="midnightblue" stroke="midnightblue" points="1186.66,-138.91 1196.87,-136.1 1187.13,-131.93 1186.66,-138.91"/>
</g>
<!-- Node17&#45;&gt;Node14 -->
<g id="edge18" class="edge">
<title>Node17&#45;&gt;Node14</title>
<path fill="none" stroke="midnightblue" d="M1161.23,-83.4C1174.48,-82.9 1187.59,-82.41 1198.45,-82"/>
<polygon fill="midnightblue" stroke="midnightblue" points="1198.61,-85.49 1208.47,-81.62 1198.35,-78.5 1198.61,-85.49"/>
</g>
</g>
</svg>
        <g id="navigator" transform="translate(0 0)" fill="#404254">
                <rect fill="#f2f5e9" fill-opacity="0.5" stroke="#606060" stroke-width=".5" x="0" y="0" width="60" height="60"/>
                <use id="zoomplus" xlink:href="#zoomPlus" x="17" y="9" onmousedown="handleZoom(evt,'in')"/>
                <use id="zoomminus" xlink:href="#zoomMin" x="42" y="9" onmousedown="handleZoom(evt,'out')"/>
                <use id="reset" xlink:href="#resetDef" x="30" y="36" onmousedown="handleReset()"/>
                <g id="arrowUp" xlink:href="#dirArrow" transform="translate(30 24)" onmousedown="handlePan(0,-1)">
                  <use xlink:href="#rim" fill="#404040">
                        <set attributeName="fill" to="#808080" begin="arrowUp.mouseover" end="arrowUp.mouseout"/>
                  </use>
                  <path fill="none" stroke="white" stroke-width="1.5" d="M0,-3.0v7 M-2.5,-0.5L0,-3.0L2.5,-0.5"/>
                </g>
                <g id="arrowRight" xlink:href="#dirArrow" transform="rotate(90) translate(36 -43)" onmousedown="handlePan(1,0)">
                  <use xlink:href="#rim" fill="#404040">
                        <set attributeName="fill" to="#808080" begin="arrowRight.mouseover" end="arrowRight.mouseout"/>
                  </use>
                  <path fill="none" stroke="white" stroke-width="1.5" d="M0,-3.0v7 M-2.5,-0.5L0,-3.0L2.5,-0.5"/>
                </g>
                <g id="arrowDown" xlink:href="#dirArrow" transform="rotate(180) translate(-30 -48)" onmousedown="handlePan(0,1)">
                  <use xlink:href="#rim" fill="#404040">
                        <set attributeName="fill" to="#808080" begin="arrowDown.mouseover" end="arrowDown.mouseout"/>
                  </use>
                  <path fill="none" stroke="white" stroke-width="1.5" d="M0,-3.0v7 M-2.5,-0.5L0,-3.0L2.5,-0.5"/>
                </g>
                <g id="arrowLeft" xlink:href="#dirArrow" transform="rotate(270) translate(-36 17)" onmousedown="handlePan(-1,0)">
                  <use xlink:href="#rim" fill="#404040">
                        <set attributeName="fill" to="#808080" begin="arrowLeft.mouseover" end="arrowLeft.mouseout"/>
                  </use>
                  <path fill="none" stroke="white" stroke-width="1.5" d="M0,-3.0v7 M-2.5,-0.5L0,-3.0L2.5,-0.5"/>
                </g>
        </g>
        <svg viewBox="0 0 15 15" width="100%" height="30px" preserveAspectRatio="xMaxYMin meet">
         <g id="arrow_out" transform="scale(0.3 0.3)">
          <a xlink:href="namespacekdebug_a1785ee01647af6842a8908a959087362_cgraph_org.svg" target="_base">
           <rect id="button" ry="5" rx="5" y="6" x="6" height="38" width="38"
                fill="#f2f5e9" fill-opacity="0.5" stroke="#606060" stroke-width="1.0"/>
           <path id="arrow"
             d="M 11.500037,31.436501 C 11.940474,20.09759 22.043105,11.32322 32.158766,21.979434 L 37.068811,17.246167 C 37.068811,17.246167 37.088388,32 37.088388,32 L 22.160133,31.978069 C 22.160133,31.978069 26.997745,27.140456 26.997745,27.140456 C 18.528582,18.264221 13.291696,25.230495 11.500037,31.436501 z"
             style="fill:#404040;"/>
          </a>
         </g>
        </svg>
</svg>
