<?xml version="1.0" encoding="UTF-8" standalone="no"?>
<!DOCTYPE svg PUBLIC "-//W3C//DTD SVG 1.1//EN"
 "http://www.w3.org/Graphics/SVG/1.1/DTD/svg11.dtd">
<!-- Generated by graphviz version 2.44.1 (20200629.0846)
 -->
<!-- Title: monitor::echo Pages: 1 -->
<!--zoomable 266 -->
<svg id="main" version="1.1" xmlns="http://www.w3.org/2000/svg" xmlns:xlink="http://www.w3.org/1999/xlink" xml:space="preserve" onload="init(evt)">
<style type="text/css"><![CDATA[
.edge:hover path { stroke: red; }
.edge:hover polygon { stroke: red; fill: red; }
]]></style>
<script type="text/javascript"><![CDATA[
var edges = document.getElementsByTagName('g');
if (edges && edges.length) {
  for (var i=0;i<edges.length;i++) {
    if (edges[i].id.substr(0,4)=='edge') {
      edges[i].setAttribute('class','edge');
    }
  }
}
]]></script>
        <defs>
                <circle id="rim" cx="0" cy="0" r="7"/>
                <circle id="rim2" cx="0" cy="0" r="3.5"/>
                <g id="zoomPlus">
                        <use xlink:href="#rim" fill="#404040">
                                <set attributeName="fill" to="#808080" begin="zoomplus.mouseover" end="zoomplus.mouseout"/>
                        </use>
                        <path d="M-4,0h8M0,-4v8" fill="none" stroke="white" stroke-width="1.5" pointer-events="none"/>
                </g>
                <g id="zoomMin">
                        <use xlink:href="#rim" fill="#404040">
                                <set attributeName="fill" to="#808080" begin="zoomminus.mouseover" end="zoomminus.mouseout"/>
                        </use>
                        <path d="M-4,0h8" fill="none" stroke="white" stroke-width="1.5" pointer-events="none"/>
                </g>
                <g id="dirArrow">
                        <path fill="none" stroke="white" stroke-width="1.5" d="M0,-3.0v7 M-2.5,-0.5L0,-3.0L2.5,-0.5"/>
                </g>
               <g id="resetDef">
                       <use xlink:href="#rim2" fill="#404040">
                               <set attributeName="fill" to="#808080" begin="reset.mouseover" end="reset.mouseout"/>
                       </use>
               </g>
        </defs>

<script type="text/javascript">
var viewWidth = 1247;
var viewHeight = 266;
var sectionId = 'dynsection-2';
</script>
<script xlink:href="svgpan.js"/>
<svg id="graph" class="graph">
<g id="viewport">
<title>monitor::echo</title>
<polygon fill="white" stroke="transparent" points="-4,4 -4,-261.62 1243,-261.62 1243,4 -4,4"/>
<!-- Node1 -->
<g id="node1" class="node">
<title>Node1</title>
<g id="a_node1"><a xlink:title=" ">
<polygon fill="#bfbfbf" stroke="black" points="0,-191.12 0,-210.12 76,-210.12 76,-191.12 0,-191.12"/>
<text text-anchor="middle" x="38" y="-198.12" font-family="Helvetica,sans-Serif" font-size="10.00">monitor::echo</text>
</a>
</g>
</g>
<!-- Node2 -->
<g id="node2" class="node">
<title>Node2</title>
<g id="a_node2"><a xlink:href="namespacestr.html#a062221f630647cf300f0dd982c4ed904" target="_top" xlink:title=" ">
<polygon fill="white" stroke="black" points="1181,-134.12 1181,-153.12 1239,-153.12 1239,-134.12 1181,-134.12"/>
<text text-anchor="middle" x="1210" y="-141.12" font-family="Helvetica,sans-Serif" font-size="10.00">str::count</text>
</a>
</g>
</g>
<!-- Node1&#45;&gt;Node2 -->
<g id="edge1" class="edge">
<title>Node1&#45;&gt;Node2</title>
<path fill="none" stroke="midnightblue" d="M64.38,-210.16C109.9,-226.39 208.72,-257.62 295,-257.62 295,-257.62 295,-257.62 910,-257.62 1019.86,-257.62 1138.41,-189.59 1186.67,-158.64"/>
<polygon fill="midnightblue" stroke="midnightblue" points="1188.64,-161.53 1195.1,-153.14 1184.82,-155.67 1188.64,-161.53"/>
</g>
<!-- Node3 -->
<g id="node3" class="node">
<title>Node3</title>
<g id="a_node3"><a xlink:href="namespaceconsole_1_1out.html#ac6f663e3971b66b8e130ee94755a150e" target="_top" xlink:title=" ">
<polygon fill="white" stroke="black" points="112,-172.12 112,-191.12 207,-191.12 207,-172.12 112,-172.12"/>
<text text-anchor="middle" x="159.5" y="-179.12" font-family="Helvetica,sans-Serif" font-size="10.00">console::out::print</text>
</a>
</g>
</g>
<!-- Node1&#45;&gt;Node3 -->
<g id="edge2" class="edge">
<title>Node1&#45;&gt;Node3</title>
<path fill="none" stroke="midnightblue" d="M76.16,-194.71C84.23,-193.43 92.95,-192.04 101.6,-190.67"/>
<polygon fill="midnightblue" stroke="midnightblue" points="102.34,-194.09 111.66,-189.07 101.24,-187.18 102.34,-194.09"/>
</g>
<!-- Node4 -->
<g id="node4" class="node">
<title>Node4</title>
<g id="a_node4"><a xlink:href="namespaceconsole_1_1out.html#a8f791bfac54067cadb1b9f18117b987b" target="_top" xlink:title=" ">
<polygon fill="white" stroke="black" points="243,-115.12 243,-134.12 349,-134.12 349,-115.12 243,-115.12"/>
<text text-anchor="middle" x="296" y="-122.12" font-family="Helvetica,sans-Serif" font-size="10.00">console::out::printVa</text>
</a>
</g>
</g>
<!-- Node3&#45;&gt;Node4 -->
<g id="edge3" class="edge">
<title>Node3&#45;&gt;Node4</title>
<path fill="none" stroke="midnightblue" d="M183.01,-172.08C204.93,-162.79 238.45,-148.58 263.11,-138.13"/>
<polygon fill="midnightblue" stroke="midnightblue" points="264.57,-141.31 272.41,-134.19 261.84,-134.87 264.57,-141.31"/>
</g>
<!-- Node5 -->
<g id="node5" class="node">
<title>Node5</title>
<g id="a_node5"><a xlink:href="namespaceconsole_1_1ge.html#af642934cb833142f133285fdb75ef7b7" target="_top" xlink:title=" ">
<polygon fill="white" stroke="black" points="385,-115.12 385,-134.12 505,-134.12 505,-115.12 385,-115.12"/>
<text text-anchor="middle" x="445" y="-122.12" font-family="Helvetica,sans-Serif" font-size="10.00">console::ge::printFmtVa</text>
</a>
</g>
</g>
<!-- Node4&#45;&gt;Node5 -->
<g id="edge4" class="edge">
<title>Node4&#45;&gt;Node5</title>
<path fill="none" stroke="midnightblue" d="M349.24,-124.62C357.54,-124.62 366.24,-124.62 374.86,-124.62"/>
<polygon fill="midnightblue" stroke="midnightblue" points="374.92,-128.12 384.92,-124.62 374.92,-121.12 374.92,-128.12"/>
</g>
<!-- Node11 -->
<g id="node11" class="node">
<title>Node11</title>
<g id="a_node11"><a xlink:href="namespaceconsole_1_1out.html#ad9fc97dff4404c2d21aedbb24691e7cb" target="_top" xlink:title=" ">
<polygon fill="white" stroke="black" points="703,-58.12 703,-77.12 813,-77.12 813,-58.12 703,-58.12"/>
<text text-anchor="middle" x="758" y="-65.12" font-family="Helvetica,sans-Serif" font-size="10.00">console::out::putChar</text>
</a>
</g>
</g>
<!-- Node4&#45;&gt;Node11 -->
<g id="edge21" class="edge">
<title>Node4&#45;&gt;Node11</title>
<path fill="none" stroke="midnightblue" d="M311.59,-114.98C348.23,-91.41 447.89,-31.3 541,-10.62 595.67,1.52 613.22,4.98 667,-10.62 694.23,-18.52 721.12,-37.39 738.31,-51.27"/>
<polygon fill="midnightblue" stroke="midnightblue" points="736.44,-54.27 746.37,-57.98 740.93,-48.89 736.44,-54.27"/>
</g>
<!-- Node5&#45;&gt;Node2 -->
<g id="edge7" class="edge">
<title>Node5&#45;&gt;Node2</title>
<path fill="none" stroke="midnightblue" d="M505.27,-130.4C567.79,-135.99 669.23,-143.62 757,-143.62 757,-143.62 757,-143.62 910,-143.62 1003.63,-143.62 1113.76,-143.62 1170.65,-143.62"/>
<polygon fill="midnightblue" stroke="midnightblue" points="1170.97,-147.12 1180.97,-143.62 1170.97,-140.12 1170.97,-147.12"/>
</g>
<!-- Node6 -->
<g id="node6" class="node">
<title>Node6</title>
<g id="a_node6"><a xlink:href="printfmt_8cc.html#a708ec6ee2b8bd2d7a453d8d9436ed3b3" target="_top" xlink:title=" ">
<polygon fill="white" stroke="black" points="575,-20.12 575,-39.12 633,-39.12 633,-20.12 575,-20.12"/>
<text text-anchor="middle" x="604" y="-27.12" font-family="Helvetica,sans-Serif" font-size="10.00">_getIntVa</text>
</a>
</g>
</g>
<!-- Node5&#45;&gt;Node6 -->
<g id="edge5" class="edge">
<title>Node5&#45;&gt;Node6</title>
<path fill="none" stroke="midnightblue" d="M455.37,-115.05C471.48,-99.12 506.08,-67.07 541,-48.62 548.5,-44.66 556.96,-41.38 565.16,-38.73"/>
<polygon fill="midnightblue" stroke="midnightblue" points="566.37,-42.02 574.95,-35.8 564.37,-35.31 566.37,-42.02"/>
</g>
<!-- Node7 -->
<g id="node7" class="node">
<title>Node7</title>
<g id="a_node7"><a xlink:href="printfmt_8cc.html#af4b46892c76c8bfd27efdb20847eb7c8" target="_top" xlink:title=" ">
<polygon fill="white" stroke="black" points="571.5,-210.12 571.5,-229.12 636.5,-229.12 636.5,-210.12 571.5,-210.12"/>
<text text-anchor="middle" x="604" y="-217.12" font-family="Helvetica,sans-Serif" font-size="10.00">_getUIntVa</text>
</a>
</g>
</g>
<!-- Node5&#45;&gt;Node7 -->
<g id="edge6" class="edge">
<title>Node5&#45;&gt;Node7</title>
<path fill="none" stroke="midnightblue" d="M455.37,-134.18C471.48,-150.12 506.08,-182.17 541,-200.62 547.5,-204.05 554.72,-206.97 561.87,-209.41"/>
<polygon fill="midnightblue" stroke="midnightblue" points="560.91,-212.78 571.5,-212.45 563.02,-206.11 560.91,-212.78"/>
</g>
<!-- Node8 -->
<g id="node8" class="node">
<title>Node8</title>
<g id="a_node8"><a xlink:href="printfmt_8cc.html#a0e3e484ece5e75b9f5fbe337f0ae8ae3" target="_top" xlink:title=" ">
<polygon fill="white" stroke="black" points="577.5,-172.12 577.5,-191.12 630.5,-191.12 630.5,-172.12 577.5,-172.12"/>
<text text-anchor="middle" x="604" y="-179.12" font-family="Helvetica,sans-Serif" font-size="10.00">describe</text>
</a>
</g>
</g>
<!-- Node5&#45;&gt;Node8 -->
<g id="edge8" class="edge">
<title>Node5&#45;&gt;Node8</title>
<path fill="none" stroke="midnightblue" d="M472.28,-134.16C498.44,-143.66 538.76,-158.29 567.7,-168.8"/>
<polygon fill="midnightblue" stroke="midnightblue" points="566.82,-172.21 577.42,-172.33 569.21,-165.63 566.82,-172.21"/>
</g>
<!-- Node10 -->
<g id="node10" class="node">
<title>Node10</title>
<g id="a_node10"><a xlink:href="namespaceconsole_1_1ge.html#a7e301813fd34fde772376afc5fdad95d" target="_top" xlink:title=" ">
<polygon fill="white" stroke="black" points="541,-58.12 541,-77.12 667,-77.12 667,-58.12 541,-58.12"/>
<text text-anchor="middle" x="604" y="-65.12" font-family="Helvetica,sans-Serif" font-size="10.00">console::ge::printNumber</text>
</a>
</g>
</g>
<!-- Node5&#45;&gt;Node10 -->
<g id="edge10" class="edge">
<title>Node5&#45;&gt;Node10</title>
<path fill="none" stroke="midnightblue" d="M472.28,-115.08C498.2,-105.67 538.03,-91.2 566.92,-80.72"/>
<polygon fill="midnightblue" stroke="midnightblue" points="568.43,-83.89 576.64,-77.19 566.04,-77.31 568.43,-83.89"/>
</g>
<!-- Node5&#45;&gt;Node11 -->
<g id="edge20" class="edge">
<title>Node5&#45;&gt;Node11</title>
<path fill="none" stroke="midnightblue" d="M505.2,-115.06C549.77,-107.72 612.32,-97.09 667,-86.62 678.89,-84.34 691.62,-81.75 703.66,-79.23"/>
<polygon fill="midnightblue" stroke="midnightblue" points="704.52,-82.62 713.58,-77.13 703.07,-75.77 704.52,-82.62"/>
</g>
<!-- Node9 -->
<g id="node9" class="node">
<title>Node9</title>
<g id="a_node9"><a xlink:href="namespacemonitor.html#a318993193c866642f8389a1c1f285739" target="_top" xlink:title=" ">
<polygon fill="white" stroke="black" points="721,-172.12 721,-191.12 795,-191.12 795,-172.12 721,-172.12"/>
<text text-anchor="middle" x="758" y="-179.12" font-family="Helvetica,sans-Serif" font-size="10.00">monitor::fuck</text>
</a>
</g>
</g>
<!-- Node8&#45;&gt;Node9 -->
<g id="edge9" class="edge">
<title>Node8&#45;&gt;Node9</title>
<path fill="none" stroke="midnightblue" d="M630.78,-181.62C652.62,-181.62 684.46,-181.62 710.7,-181.62"/>
<polygon fill="midnightblue" stroke="midnightblue" points="710.82,-185.12 720.82,-181.62 710.82,-178.12 710.82,-185.12"/>
</g>
<!-- Node10&#45;&gt;Node11 -->
<g id="edge11" class="edge">
<title>Node10&#45;&gt;Node11</title>
<path fill="none" stroke="midnightblue" d="M667.26,-67.62C675.66,-67.62 684.28,-67.62 692.71,-67.62"/>
<polygon fill="midnightblue" stroke="midnightblue" points="692.86,-71.12 702.86,-67.62 692.86,-64.12 692.86,-71.12"/>
</g>
<!-- Node12 -->
<g id="node12" class="node">
<title>Node12</title>
<g id="a_node12"><a xlink:href="namespaceconsole_1_1serial.html#a3a7c1f95ae3c24136ea63bb31fdf0391" target="_top" xlink:title=" ">
<polygon fill="white" stroke="black" points="849,-20.12 849,-39.12 969,-39.12 969,-20.12 849,-20.12"/>
<text text-anchor="middle" x="909" y="-27.12" font-family="Helvetica,sans-Serif" font-size="10.00">console::serial::putChar</text>
</a>
</g>
</g>
<!-- Node11&#45;&gt;Node12 -->
<g id="edge12" class="edge">
<title>Node11&#45;&gt;Node12</title>
<path fill="none" stroke="midnightblue" d="M796.6,-58.03C816.08,-53.06 840.07,-46.94 860.8,-41.66"/>
<polygon fill="midnightblue" stroke="midnightblue" points="861.85,-45 870.67,-39.14 860.12,-38.22 861.85,-45"/>
</g>
<!-- Node15 -->
<g id="node15" class="node">
<title>Node15</title>
<g id="a_node15"><a xlink:href="namespaceconsole_1_1cga.html#afa19057ca041b39682d5d4831c43dfa0" target="_top" xlink:title=" ">
<polygon fill="white" stroke="black" points="852.5,-58.12 852.5,-77.12 965.5,-77.12 965.5,-58.12 852.5,-58.12"/>
<text text-anchor="middle" x="909" y="-65.12" font-family="Helvetica,sans-Serif" font-size="10.00">console::cga::putChar</text>
</a>
</g>
</g>
<!-- Node11&#45;&gt;Node15 -->
<g id="edge15" class="edge">
<title>Node11&#45;&gt;Node15</title>
<path fill="none" stroke="midnightblue" d="M813.21,-67.62C822.66,-67.62 832.58,-67.62 842.3,-67.62"/>
<polygon fill="midnightblue" stroke="midnightblue" points="842.33,-71.12 852.33,-67.62 842.33,-64.12 842.33,-71.12"/>
</g>
<!-- Node13 -->
<g id="node13" class="node">
<title>Node13</title>
<g id="a_node13"><a xlink:href="namespaceconsole_1_1serial.html#aa5605d4537106bb1c2bab72d7d1a5824" target="_top" xlink:title=" ">
<polygon fill="white" stroke="black" points="1023,-20.12 1023,-39.12 1127,-39.12 1127,-20.12 1023,-20.12"/>
<text text-anchor="middle" x="1075" y="-27.12" font-family="Helvetica,sans-Serif" font-size="10.00">console::serial::sout</text>
</a>
</g>
</g>
<!-- Node12&#45;&gt;Node13 -->
<g id="edge13" class="edge">
<title>Node12&#45;&gt;Node13</title>
<path fill="none" stroke="midnightblue" d="M969.21,-29.62C983.31,-29.62 998.39,-29.62 1012.59,-29.62"/>
<polygon fill="midnightblue" stroke="midnightblue" points="1012.74,-33.12 1022.74,-29.62 1012.74,-26.12 1012.74,-33.12"/>
</g>
<!-- Node14 -->
<g id="node14" class="node">
<title>Node14</title>
<g id="a_node14"><a xlink:href="x86_8h.html#ade961b44e45ddacbc3c3b7609cf36dc6" target="_top" xlink:title=" ">
<polygon fill="white" stroke="black" points="1192.5,-39.12 1192.5,-58.12 1227.5,-58.12 1227.5,-39.12 1192.5,-39.12"/>
<text text-anchor="middle" x="1210" y="-46.12" font-family="Helvetica,sans-Serif" font-size="10.00">outb</text>
</a>
</g>
</g>
<!-- Node13&#45;&gt;Node14 -->
<g id="edge14" class="edge">
<title>Node13&#45;&gt;Node14</title>
<path fill="none" stroke="midnightblue" d="M1127.04,-36.91C1145.85,-39.6 1166.4,-42.53 1182.22,-44.79"/>
<polygon fill="midnightblue" stroke="midnightblue" points="1181.95,-48.29 1192.34,-46.24 1182.94,-41.36 1181.95,-48.29"/>
</g>
<!-- Node16 -->
<g id="node16" class="node">
<title>Node16</title>
<g id="a_node16"><a xlink:href="namespacemem.html#a64d9d05b439041901498c606de606431" target="_top" xlink:title=" ">
<polygon fill="white" stroke="black" points="1042.5,-96.12 1042.5,-115.12 1107.5,-115.12 1107.5,-96.12 1042.5,-96.12"/>
<text text-anchor="middle" x="1075" y="-103.12" font-family="Helvetica,sans-Serif" font-size="10.00">mem::copy</text>
</a>
</g>
</g>
<!-- Node15&#45;&gt;Node16 -->
<g id="edge16" class="edge">
<title>Node15&#45;&gt;Node16</title>
<path fill="none" stroke="midnightblue" d="M951.38,-77.21C976.24,-82.97 1007.75,-90.27 1032.6,-96.03"/>
<polygon fill="midnightblue" stroke="midnightblue" points="1031.93,-99.46 1042.46,-98.31 1033.51,-92.64 1031.93,-99.46"/>
</g>
<!-- Node17 -->
<g id="node17" class="node">
<title>Node17</title>
<g id="a_node17"><a xlink:href="namespaceconsole_1_1cga.html#a06463d4dc68819e30615ba299d02a78f" target="_top" xlink:title=" ">
<polygon fill="white" stroke="black" points="1005,-58.12 1005,-77.12 1145,-77.12 1145,-58.12 1005,-58.12"/>
<text text-anchor="middle" x="1075" y="-65.12" font-family="Helvetica,sans-Serif" font-size="10.00">console::cga::cursorRefresh</text>
</a>
</g>
</g>
<!-- Node15&#45;&gt;Node17 -->
<g id="edge18" class="edge">
<title>Node15&#45;&gt;Node17</title>
<path fill="none" stroke="midnightblue" d="M965.52,-67.62C974.9,-67.62 984.8,-67.62 994.65,-67.62"/>
<polygon fill="midnightblue" stroke="midnightblue" points="994.87,-71.12 1004.87,-67.62 994.87,-64.12 994.87,-71.12"/>
</g>
<!-- Node16&#45;&gt;Node2 -->
<g id="edge17" class="edge">
<title>Node16&#45;&gt;Node2</title>
<path fill="none" stroke="midnightblue" d="M1107.52,-114.62C1126.58,-120.07 1150.99,-127.04 1171.1,-132.79"/>
<polygon fill="midnightblue" stroke="midnightblue" points="1170.3,-136.2 1180.87,-135.58 1172.22,-129.47 1170.3,-136.2"/>
</g>
<!-- Node17&#45;&gt;Node14 -->
<g id="edge19" class="edge">
<title>Node17&#45;&gt;Node14</title>
<path fill="none" stroke="midnightblue" d="M1142.89,-58.06C1156.81,-56.07 1170.71,-54.09 1182.15,-52.45"/>
<polygon fill="midnightblue" stroke="midnightblue" points="1182.87,-55.89 1192.28,-51.01 1181.88,-48.96 1182.87,-55.89"/>
</g>
</g>
</svg>
        <g id="navigator" transform="translate(0 0)" fill="#404254">
                <rect fill="#f2f5e9" fill-opacity="0.5" stroke="#606060" stroke-width=".5" x="0" y="0" width="60" height="60"/>
                <use id="zoomplus" xlink:href="#zoomPlus" x="17" y="9" onmousedown="handleZoom(evt,'in')"/>
                <use id="zoomminus" xlink:href="#zoomMin" x="42" y="9" onmousedown="handleZoom(evt,'out')"/>
                <use id="reset" xlink:href="#resetDef" x="30" y="36" onmousedown="handleReset()"/>
                <g id="arrowUp" xlink:href="#dirArrow" transform="translate(30 24)" onmousedown="handlePan(0,-1)">
                  <use xlink:href="#rim" fill="#404040">
                        <set attributeName="fill" to="#808080" begin="arrowUp.mouseover" end="arrowUp.mouseout"/>
                  </use>
                  <path fill="none" stroke="white" stroke-width="1.5" d="M0,-3.0v7 M-2.5,-0.5L0,-3.0L2.5,-0.5"/>
                </g>
                <g id="arrowRight" xlink:href="#dirArrow" transform="rotate(90) translate(36 -43)" onmousedown="handlePan(1,0)">
                  <use xlink:href="#rim" fill="#404040">
                        <set attributeName="fill" to="#808080" begin="arrowRight.mouseover" end="arrowRight.mouseout"/>
                  </use>
                  <path fill="none" stroke="white" stroke-width="1.5" d="M0,-3.0v7 M-2.5,-0.5L0,-3.0L2.5,-0.5"/>
                </g>
                <g id="arrowDown" xlink:href="#dirArrow" transform="rotate(180) translate(-30 -48)" onmousedown="handlePan(0,1)">
                  <use xlink:href="#rim" fill="#404040">
                        <set attributeName="fill" to="#808080" begin="arrowDown.mouseover" end="arrowDown.mouseout"/>
                  </use>
                  <path fill="none" stroke="white" stroke-width="1.5" d="M0,-3.0v7 M-2.5,-0.5L0,-3.0L2.5,-0.5"/>
                </g>
                <g id="arrowLeft" xlink:href="#dirArrow" transform="rotate(270) translate(-36 17)" onmousedown="handlePan(-1,0)">
                  <use xlink:href="#rim" fill="#404040">
                        <set attributeName="fill" to="#808080" begin="arrowLeft.mouseover" end="arrowLeft.mouseout"/>
                  </use>
                  <path fill="none" stroke="white" stroke-width="1.5" d="M0,-3.0v7 M-2.5,-0.5L0,-3.0L2.5,-0.5"/>
                </g>
        </g>
        <svg viewBox="0 0 15 15" width="100%" height="30px" preserveAspectRatio="xMaxYMin meet">
         <g id="arrow_out" transform="scale(0.3 0.3)">
          <a xlink:href="namespacemonitor_a16ad83fbd851a297f054636107d750b6_cgraph_org.svg" target="_base">
           <rect id="button" ry="5" rx="5" y="6" x="6" height="38" width="38"
                fill="#f2f5e9" fill-opacity="0.5" stroke="#606060" stroke-width="1.0"/>
           <path id="arrow"
             d="M 11.500037,31.436501 C 11.940474,20.09759 22.043105,11.32322 32.158766,21.979434 L 37.068811,17.246167 C 37.068811,17.246167 37.088388,32 37.088388,32 L 22.160133,31.978069 C 22.160133,31.978069 26.997745,27.140456 26.997745,27.140456 C 18.528582,18.264221 13.291696,25.230495 11.500037,31.436501 z"
             style="fill:#404040;"/>
          </a>
         </g>
        </svg>
</svg>
