<?xml version="1.0" encoding="UTF-8" standalone="no"?>
<!DOCTYPE svg PUBLIC "-//W3C//DTD SVG 1.1//EN"
 "http://www.w3.org/Graphics/SVG/1.1/DTD/svg11.dtd">
<!-- Generated by graphviz version 2.44.1 (20200629.0846)
 -->
<!-- Title: console::out::printVa Pages: 1 -->
<svg width="1004pt" height="204pt"
 viewBox="0.00 0.00 1004.00 203.69" xmlns="http://www.w3.org/2000/svg" xmlns:xlink="http://www.w3.org/1999/xlink">
<g id="graph0" class="graph" transform="scale(1 1) rotate(0) translate(4 199.69)">
<title>console::out::printVa</title>
<polygon fill="white" stroke="transparent" points="-4,4 -4,-199.69 1000,-199.69 1000,4 -4,4"/>
<!-- Node1 -->
<g id="node1" class="node">
<title>Node1</title>
<g id="a_node1"><a xlink:title=" ">
<polygon fill="#bfbfbf" stroke="black" points="0,-9.32 0,-28.32 106,-28.32 106,-9.32 0,-9.32"/>
<text text-anchor="middle" x="53" y="-16.32" font-family="Helvetica,sans-Serif" font-size="10.00">console::out::printVa</text>
</a>
</g>
</g>
<!-- Node2 -->
<g id="node2" class="node">
<title>Node2</title>
<g id="a_node2"><a xlink:href="namespaceconsole_1_1ge.html#af642934cb833142f133285fdb75ef7b7" target="_top" xlink:title=" ">
<polygon fill="white" stroke="black" points="142,-66.32 142,-85.32 262,-85.32 262,-66.32 142,-66.32"/>
<text text-anchor="middle" x="202" y="-73.32" font-family="Helvetica,sans-Serif" font-size="10.00">console::ge::printFmtVa</text>
</a>
</g>
</g>
<!-- Node1&#45;&gt;Node2 -->
<g id="edge1" class="edge">
<title>Node1&#45;&gt;Node2</title>
<path fill="none" stroke="midnightblue" d="M78.6,-28.36C102.77,-37.73 139.85,-52.11 166.86,-62.58"/>
<polygon fill="midnightblue" stroke="midnightblue" points="165.73,-65.9 176.32,-66.25 168.26,-59.37 165.73,-65.9"/>
</g>
<!-- Node9 -->
<g id="node9" class="node">
<title>Node9</title>
<g id="a_node9"><a xlink:href="namespaceconsole_1_1out.html#ad9fc97dff4404c2d21aedbb24691e7cb" target="_top" xlink:title=" ">
<polygon fill="white" stroke="black" points="460,-9.32 460,-28.32 570,-28.32 570,-9.32 460,-9.32"/>
<text text-anchor="middle" x="515" y="-16.32" font-family="Helvetica,sans-Serif" font-size="10.00">console::out::putChar</text>
</a>
</g>
</g>
<!-- Node1&#45;&gt;Node9 -->
<g id="edge18" class="edge">
<title>Node1&#45;&gt;Node9</title>
<path fill="none" stroke="midnightblue" d="M106.17,-12.67C177.89,-5.14 310.92,5.54 424,-3.82 434.29,-4.67 445.17,-6.06 455.68,-7.66"/>
<polygon fill="midnightblue" stroke="midnightblue" points="455.18,-11.13 465.61,-9.25 456.28,-4.22 455.18,-11.13"/>
</g>
<!-- Node3 -->
<g id="node3" class="node">
<title>Node3</title>
<g id="a_node3"><a xlink:href="printfmt_8cc.html#a708ec6ee2b8bd2d7a453d8d9436ed3b3" target="_top" xlink:title=" ">
<polygon fill="white" stroke="black" points="332,-142.32 332,-161.32 390,-161.32 390,-142.32 332,-142.32"/>
<text text-anchor="middle" x="361" y="-149.32" font-family="Helvetica,sans-Serif" font-size="10.00">_getIntVa</text>
</a>
</g>
</g>
<!-- Node2&#45;&gt;Node3 -->
<g id="edge2" class="edge">
<title>Node2&#45;&gt;Node3</title>
<path fill="none" stroke="midnightblue" d="M216.59,-85.43C234.53,-97.77 267.43,-119.21 298,-132.82 305.6,-136.21 313.99,-139.22 322.07,-141.8"/>
<polygon fill="midnightblue" stroke="midnightblue" points="321.11,-145.17 331.7,-144.72 323.14,-138.47 321.11,-145.17"/>
</g>
<!-- Node4 -->
<g id="node4" class="node">
<title>Node4</title>
<g id="a_node4"><a xlink:href="printfmt_8cc.html#af4b46892c76c8bfd27efdb20847eb7c8" target="_top" xlink:title=" ">
<polygon fill="white" stroke="black" points="328.5,-104.32 328.5,-123.32 393.5,-123.32 393.5,-104.32 328.5,-104.32"/>
<text text-anchor="middle" x="361" y="-111.32" font-family="Helvetica,sans-Serif" font-size="10.00">_getUIntVa</text>
</a>
</g>
</g>
<!-- Node2&#45;&gt;Node4 -->
<g id="edge3" class="edge">
<title>Node2&#45;&gt;Node4</title>
<path fill="none" stroke="midnightblue" d="M242.62,-85.41C265.72,-91 294.84,-98.05 318.3,-103.73"/>
<polygon fill="midnightblue" stroke="midnightblue" points="317.76,-107.2 328.3,-106.15 319.4,-100.4 317.76,-107.2"/>
</g>
<!-- Node5 -->
<g id="node5" class="node">
<title>Node5</title>
<g id="a_node5"><a xlink:href="namespacestr.html#a062221f630647cf300f0dd982c4ed904" target="_top" xlink:title=" ">
<polygon fill="white" stroke="black" points="938,-99.32 938,-118.32 996,-118.32 996,-99.32 938,-99.32"/>
<text text-anchor="middle" x="967" y="-106.32" font-family="Helvetica,sans-Serif" font-size="10.00">str::count</text>
</a>
</g>
</g>
<!-- Node2&#45;&gt;Node5 -->
<g id="edge4" class="edge">
<title>Node2&#45;&gt;Node5</title>
<path fill="none" stroke="midnightblue" d="M209.18,-85.54C222.55,-105.61 256.36,-151.39 298,-170.82 385.33,-211.57 417.63,-189.82 514,-189.82 514,-189.82 514,-189.82 667,-189.82 768.55,-189.82 882.97,-145.75 936.02,-122.63"/>
<polygon fill="midnightblue" stroke="midnightblue" points="937.77,-125.68 945.5,-118.43 934.93,-119.28 937.77,-125.68"/>
</g>
<!-- Node6 -->
<g id="node6" class="node">
<title>Node6</title>
<g id="a_node6"><a xlink:href="printfmt_8cc.html#a0e3e484ece5e75b9f5fbe337f0ae8ae3" target="_top" xlink:title=" ">
<polygon fill="white" stroke="black" points="334.5,-66.32 334.5,-85.32 387.5,-85.32 387.5,-66.32 334.5,-66.32"/>
<text text-anchor="middle" x="361" y="-73.32" font-family="Helvetica,sans-Serif" font-size="10.00">describe</text>
</a>
</g>
</g>
<!-- Node2&#45;&gt;Node6 -->
<g id="edge5" class="edge">
<title>Node2&#45;&gt;Node6</title>
<path fill="none" stroke="midnightblue" d="M262.35,-75.82C283.12,-75.82 305.78,-75.82 324.04,-75.82"/>
<polygon fill="midnightblue" stroke="midnightblue" points="324.24,-79.32 334.24,-75.82 324.24,-72.32 324.24,-79.32"/>
</g>
<!-- Node8 -->
<g id="node8" class="node">
<title>Node8</title>
<g id="a_node8"><a xlink:href="namespaceconsole_1_1ge.html#a7e301813fd34fde772376afc5fdad95d" target="_top" xlink:title=" ">
<polygon fill="white" stroke="black" points="298,-28.32 298,-47.32 424,-47.32 424,-28.32 298,-28.32"/>
<text text-anchor="middle" x="361" y="-35.32" font-family="Helvetica,sans-Serif" font-size="10.00">console::ge::printNumber</text>
</a>
</g>
</g>
<!-- Node2&#45;&gt;Node8 -->
<g id="edge7" class="edge">
<title>Node2&#45;&gt;Node8</title>
<path fill="none" stroke="midnightblue" d="M242.62,-66.23C263.34,-61.22 288.89,-55.03 310.86,-49.72"/>
<polygon fill="midnightblue" stroke="midnightblue" points="311.77,-53.1 320.67,-47.34 310.12,-46.29 311.77,-53.1"/>
</g>
<!-- Node2&#45;&gt;Node9 -->
<g id="edge17" class="edge">
<title>Node2&#45;&gt;Node9</title>
<path fill="none" stroke="midnightblue" d="M214.33,-66.18C231.22,-52.49 264.63,-28.06 298,-18.82 347.52,-5.11 405.9,-6.07 449.48,-9.93"/>
<polygon fill="midnightblue" stroke="midnightblue" points="449.38,-13.44 459.66,-10.91 450.05,-6.47 449.38,-13.44"/>
</g>
<!-- Node7 -->
<g id="node7" class="node">
<title>Node7</title>
<g id="a_node7"><a xlink:href="namespacemonitor.html#a318993193c866642f8389a1c1f285739" target="_top" xlink:title=" ">
<polygon fill="white" stroke="black" points="478,-66.32 478,-85.32 552,-85.32 552,-66.32 478,-66.32"/>
<text text-anchor="middle" x="515" y="-73.32" font-family="Helvetica,sans-Serif" font-size="10.00">monitor::fuck</text>
</a>
</g>
</g>
<!-- Node6&#45;&gt;Node7 -->
<g id="edge6" class="edge">
<title>Node6&#45;&gt;Node7</title>
<path fill="none" stroke="midnightblue" d="M387.78,-75.82C409.62,-75.82 441.46,-75.82 467.7,-75.82"/>
<polygon fill="midnightblue" stroke="midnightblue" points="467.82,-79.32 477.82,-75.82 467.82,-72.32 467.82,-79.32"/>
</g>
<!-- Node8&#45;&gt;Node9 -->
<g id="edge8" class="edge">
<title>Node8&#45;&gt;Node9</title>
<path fill="none" stroke="midnightblue" d="M424.26,-30.04C432.66,-28.99 441.28,-27.91 449.71,-26.86"/>
<polygon fill="midnightblue" stroke="midnightblue" points="450.37,-30.3 459.86,-25.59 449.51,-23.36 450.37,-30.3"/>
</g>
<!-- Node10 -->
<g id="node10" class="node">
<title>Node10</title>
<g id="a_node10"><a xlink:href="namespaceconsole_1_1serial.html#a3a7c1f95ae3c24136ea63bb31fdf0391" target="_top" xlink:title=" ">
<polygon fill="white" stroke="black" points="606,-9.32 606,-28.32 726,-28.32 726,-9.32 606,-9.32"/>
<text text-anchor="middle" x="666" y="-16.32" font-family="Helvetica,sans-Serif" font-size="10.00">console::serial::putChar</text>
</a>
</g>
</g>
<!-- Node9&#45;&gt;Node10 -->
<g id="edge9" class="edge">
<title>Node9&#45;&gt;Node10</title>
<path fill="none" stroke="midnightblue" d="M570.21,-18.82C578.53,-18.82 587.2,-18.82 595.79,-18.82"/>
<polygon fill="midnightblue" stroke="midnightblue" points="595.79,-22.32 605.79,-18.82 595.79,-15.32 595.79,-22.32"/>
</g>
<!-- Node13 -->
<g id="node13" class="node">
<title>Node13</title>
<g id="a_node13"><a xlink:href="namespaceconsole_1_1cga.html#afa19057ca041b39682d5d4831c43dfa0" target="_top" xlink:title=" ">
<polygon fill="white" stroke="black" points="609.5,-47.32 609.5,-66.32 722.5,-66.32 722.5,-47.32 609.5,-47.32"/>
<text text-anchor="middle" x="666" y="-54.32" font-family="Helvetica,sans-Serif" font-size="10.00">console::cga::putChar</text>
</a>
</g>
</g>
<!-- Node9&#45;&gt;Node13 -->
<g id="edge12" class="edge">
<title>Node9&#45;&gt;Node13</title>
<path fill="none" stroke="midnightblue" d="M553.6,-28.41C573.08,-33.38 597.07,-39.5 617.8,-44.78"/>
<polygon fill="midnightblue" stroke="midnightblue" points="617.12,-48.22 627.67,-47.3 618.85,-41.44 617.12,-48.22"/>
</g>
<!-- Node11 -->
<g id="node11" class="node">
<title>Node11</title>
<g id="a_node11"><a xlink:href="namespaceconsole_1_1serial.html#aa5605d4537106bb1c2bab72d7d1a5824" target="_top" xlink:title=" ">
<polygon fill="white" stroke="black" points="780,-9.32 780,-28.32 884,-28.32 884,-9.32 780,-9.32"/>
<text text-anchor="middle" x="832" y="-16.32" font-family="Helvetica,sans-Serif" font-size="10.00">console::serial::sout</text>
</a>
</g>
</g>
<!-- Node10&#45;&gt;Node11 -->
<g id="edge10" class="edge">
<title>Node10&#45;&gt;Node11</title>
<path fill="none" stroke="midnightblue" d="M726.21,-18.82C740.31,-18.82 755.39,-18.82 769.59,-18.82"/>
<polygon fill="midnightblue" stroke="midnightblue" points="769.74,-22.32 779.74,-18.82 769.74,-15.32 769.74,-22.32"/>
</g>
<!-- Node12 -->
<g id="node12" class="node">
<title>Node12</title>
<g id="a_node12"><a xlink:href="x86_8h.html#ade961b44e45ddacbc3c3b7609cf36dc6" target="_top" xlink:title=" ">
<polygon fill="white" stroke="black" points="949.5,-42.32 949.5,-61.32 984.5,-61.32 984.5,-42.32 949.5,-42.32"/>
<text text-anchor="middle" x="967" y="-49.32" font-family="Helvetica,sans-Serif" font-size="10.00">outb</text>
</a>
</g>
</g>
<!-- Node11&#45;&gt;Node12 -->
<g id="edge11" class="edge">
<title>Node11&#45;&gt;Node12</title>
<path fill="none" stroke="midnightblue" d="M871.47,-28.37C893.32,-33.79 920.11,-40.44 939.59,-45.27"/>
<polygon fill="midnightblue" stroke="midnightblue" points="938.76,-48.67 949.31,-47.68 940.44,-41.88 938.76,-48.67"/>
</g>
<!-- Node14 -->
<g id="node14" class="node">
<title>Node14</title>
<g id="a_node14"><a xlink:href="namespacemem.html#a64d9d05b439041901498c606de606431" target="_top" xlink:title=" ">
<polygon fill="white" stroke="black" points="799.5,-90.32 799.5,-109.32 864.5,-109.32 864.5,-90.32 799.5,-90.32"/>
<text text-anchor="middle" x="832" y="-97.32" font-family="Helvetica,sans-Serif" font-size="10.00">mem::copy</text>
</a>
</g>
</g>
<!-- Node13&#45;&gt;Node14 -->
<g id="edge13" class="edge">
<title>Node13&#45;&gt;Node14</title>
<path fill="none" stroke="midnightblue" d="M703.4,-66.37C728.92,-73.06 763.08,-82.01 789.64,-88.98"/>
<polygon fill="midnightblue" stroke="midnightblue" points="788.85,-92.39 799.41,-91.54 790.62,-85.62 788.85,-92.39"/>
</g>
<!-- Node15 -->
<g id="node15" class="node">
<title>Node15</title>
<g id="a_node15"><a xlink:href="namespaceconsole_1_1cga.html#a06463d4dc68819e30615ba299d02a78f" target="_top" xlink:title=" ">
<polygon fill="white" stroke="black" points="762,-47.32 762,-66.32 902,-66.32 902,-47.32 762,-47.32"/>
<text text-anchor="middle" x="832" y="-54.32" font-family="Helvetica,sans-Serif" font-size="10.00">console::cga::cursorRefresh</text>
</a>
</g>
</g>
<!-- Node13&#45;&gt;Node15 -->
<g id="edge15" class="edge">
<title>Node13&#45;&gt;Node15</title>
<path fill="none" stroke="midnightblue" d="M722.52,-56.82C731.9,-56.82 741.8,-56.82 751.65,-56.82"/>
<polygon fill="midnightblue" stroke="midnightblue" points="751.87,-60.32 761.87,-56.82 751.87,-53.32 751.87,-60.32"/>
</g>
<!-- Node14&#45;&gt;Node5 -->
<g id="edge14" class="edge">
<title>Node14&#45;&gt;Node5</title>
<path fill="none" stroke="midnightblue" d="M864.52,-101.96C883.49,-103.24 907.77,-104.88 927.82,-106.24"/>
<polygon fill="midnightblue" stroke="midnightblue" points="927.66,-109.74 937.87,-106.92 928.13,-102.75 927.66,-109.74"/>
</g>
<!-- Node15&#45;&gt;Node12 -->
<g id="edge16" class="edge">
<title>Node15&#45;&gt;Node12</title>
<path fill="none" stroke="midnightblue" d="M902.23,-54.22C915.48,-53.72 928.59,-53.23 939.45,-52.82"/>
<polygon fill="midnightblue" stroke="midnightblue" points="939.61,-56.32 949.47,-52.44 939.35,-49.32 939.61,-56.32"/>
</g>
</g>
</svg>
