<?xml version="1.0" encoding="UTF-8" standalone="no"?>
<!DOCTYPE svg PUBLIC "-//W3C//DTD SVG 1.1//EN"
 "http://www.w3.org/Graphics/SVG/1.1/DTD/svg11.dtd">
<!-- Generated by graphviz version 2.44.1 (20200629.0846)
 -->
<!-- Title: vmem::detect Pages: 1 -->
<svg width="415pt" height="66pt"
 viewBox="0.00 0.00 415.00 66.00" xmlns="http://www.w3.org/2000/svg" xmlns:xlink="http://www.w3.org/1999/xlink">
<g id="graph0" class="graph" transform="scale(1 1) rotate(0) translate(4 62)">
<title>vmem::detect</title>
<polygon fill="white" stroke="transparent" points="-4,4 -4,-62 411,-62 411,4 -4,4"/>
<!-- Node1 -->
<g id="node1" class="node">
<title>Node1</title>
<g id="a_node1"><a xlink:title=" ">
<polygon fill="#bfbfbf" stroke="black" points="0,-19.5 0,-38.5 77,-38.5 77,-19.5 0,-19.5"/>
<text text-anchor="middle" x="38.5" y="-26.5" font-family="Helvetica,sans-Serif" font-size="10.00">vmem::detect</text>
</a>
</g>
</g>
<!-- Node2 -->
<g id="node2" class="node">
<title>Node2</title>
<g id="a_node2"><a xlink:href="namespacenvram.html#a44880d1bbe939e863adda0302febc9ef" target="_top" xlink:title=" ">
<polygon fill="white" stroke="black" points="113,-19.5 113,-38.5 181,-38.5 181,-19.5 113,-19.5"/>
<text text-anchor="middle" x="147" y="-26.5" font-family="Helvetica,sans-Serif" font-size="10.00">nvram::read</text>
</a>
</g>
</g>
<!-- Node1&#45;&gt;Node2 -->
<g id="edge1" class="edge">
<title>Node1&#45;&gt;Node2</title>
<path fill="none" stroke="midnightblue" d="M77.05,-29C85.31,-29 94.12,-29 102.59,-29"/>
<polygon fill="midnightblue" stroke="midnightblue" points="102.69,-32.5 112.69,-29 102.69,-25.5 102.69,-32.5"/>
</g>
<!-- Node3 -->
<g id="node3" class="node">
<title>Node3</title>
<g id="a_node3"><a xlink:href="namespacenvram.html#a15178b214d95c476ade1c8c83c918aa1" target="_top" xlink:title=" ">
<polygon fill="white" stroke="black" points="217,-19.5 217,-38.5 336,-38.5 336,-19.5 217,-19.5"/>
<text text-anchor="middle" x="276.5" y="-26.5" font-family="Helvetica,sans-Serif" font-size="10.00">nvram::mc146818_read</text>
</a>
</g>
</g>
<!-- Node2&#45;&gt;Node3 -->
<g id="edge2" class="edge">
<title>Node2&#45;&gt;Node3</title>
<path fill="none" stroke="midnightblue" d="M181.17,-29C189.1,-29 197.86,-29 206.76,-29"/>
<polygon fill="midnightblue" stroke="midnightblue" points="206.81,-32.5 216.81,-29 206.81,-25.5 206.81,-32.5"/>
</g>
<!-- Node4 -->
<g id="node4" class="node">
<title>Node4</title>
<g id="a_node4"><a xlink:href="x86_8h.html#afdc603aa210ab8fd9995ce74940f5d7f" target="_top" xlink:title=" ">
<polygon fill="white" stroke="black" points="375,-38.5 375,-57.5 404,-57.5 404,-38.5 375,-38.5"/>
<text text-anchor="middle" x="389.5" y="-45.5" font-family="Helvetica,sans-Serif" font-size="10.00">inb</text>
</a>
</g>
</g>
<!-- Node3&#45;&gt;Node4 -->
<g id="edge3" class="edge">
<title>Node3&#45;&gt;Node4</title>
<path fill="none" stroke="midnightblue" d="M333.33,-38.56C344.5,-40.47 355.66,-42.38 364.99,-43.98"/>
<polygon fill="midnightblue" stroke="midnightblue" points="364.54,-47.45 374.99,-45.69 365.72,-40.55 364.54,-47.45"/>
</g>
<!-- Node5 -->
<g id="node5" class="node">
<title>Node5</title>
<g id="a_node5"><a xlink:href="x86_8h.html#ade961b44e45ddacbc3c3b7609cf36dc6" target="_top" xlink:title=" ">
<polygon fill="white" stroke="black" points="372,-0.5 372,-19.5 407,-19.5 407,-0.5 372,-0.5"/>
<text text-anchor="middle" x="389.5" y="-7.5" font-family="Helvetica,sans-Serif" font-size="10.00">outb</text>
</a>
</g>
</g>
<!-- Node3&#45;&gt;Node5 -->
<g id="edge4" class="edge">
<title>Node3&#45;&gt;Node5</title>
<path fill="none" stroke="midnightblue" d="M333.33,-19.44C343.19,-17.75 353.05,-16.07 361.64,-14.6"/>
<polygon fill="midnightblue" stroke="midnightblue" points="362.49,-18 371.76,-12.87 361.31,-11.1 362.49,-18"/>
</g>
</g>
</svg>
