<?xml version="1.0" encoding="UTF-8" standalone="no"?>
<!DOCTYPE svg PUBLIC "-//W3C//DTD SVG 1.1//EN"
 "http://www.w3.org/Graphics/SVG/1.1/DTD/svg11.dtd">
<!-- Generated by graphviz version 2.44.1 (20200629.0846)
 -->
<!-- Title: mp::lapic::init Pages: 1 -->
<svg width="1124pt" height="165pt"
 viewBox="0.00 0.00 1124.00 164.88" xmlns="http://www.w3.org/2000/svg" xmlns:xlink="http://www.w3.org/1999/xlink">
<g id="graph0" class="graph" transform="scale(1 1) rotate(0) translate(4 160.88)">
<title>mp::lapic::init</title>
<polygon fill="white" stroke="transparent" points="-4,4 -4,-160.88 1120,-160.88 1120,4 -4,4"/>
<!-- Node1 -->
<g id="node1" class="node">
<title>Node1</title>
<g id="a_node1"><a xlink:title=" ">
<polygon fill="#bfbfbf" stroke="black" points="0,-38.5 0,-57.5 75,-57.5 75,-38.5 0,-38.5"/>
<text text-anchor="middle" x="37.5" y="-45.5" font-family="Helvetica,sans-Serif" font-size="10.00">mp::lapic::init</text>
</a>
</g>
</g>
<!-- Node2 -->
<g id="node2" class="node">
<title>Node2</title>
<g id="a_node2"><a xlink:href="namespacemp_1_1lapic.html#a89d1f9c2d3539bb6d95a9bfa27a6567e" target="_top" xlink:title=" ">
<polygon fill="white" stroke="black" points="125.5,-76.5 125.5,-95.5 215.5,-95.5 215.5,-76.5 125.5,-76.5"/>
<text text-anchor="middle" x="170.5" y="-83.5" font-family="Helvetica,sans-Serif" font-size="10.00">mp::lapic::lapicw</text>
</a>
</g>
</g>
<!-- Node1&#45;&gt;Node2 -->
<g id="edge1" class="edge">
<title>Node1&#45;&gt;Node2</title>
<path fill="none" stroke="midnightblue" d="M71.56,-57.59C88.31,-62.45 108.86,-68.41 126.8,-73.61"/>
<polygon fill="midnightblue" stroke="midnightblue" points="125.87,-76.99 136.45,-76.41 127.82,-70.27 125.87,-76.99"/>
</g>
<!-- Node3 -->
<g id="node3" class="node">
<title>Node3</title>
<g id="a_node3"><a xlink:href="namespacevmem_1_1pgdir.html#a00038e22197d7591a4b36d82a1b1f546" target="_top" xlink:title=" ">
<polygon fill="white" stroke="black" points="111,-38.5 111,-57.5 230,-57.5 230,-38.5 111,-38.5"/>
<text text-anchor="middle" x="170.5" y="-45.5" font-family="Helvetica,sans-Serif" font-size="10.00">vmem::pgdir::mmioMap</text>
</a>
</g>
</g>
<!-- Node1&#45;&gt;Node3 -->
<g id="edge2" class="edge">
<title>Node1&#45;&gt;Node3</title>
<path fill="none" stroke="midnightblue" d="M75.34,-48C83.28,-48 91.92,-48 100.64,-48"/>
<polygon fill="midnightblue" stroke="midnightblue" points="100.88,-51.5 110.88,-48 100.88,-44.5 100.88,-51.5"/>
</g>
<!-- Node14 -->
<g id="node14" class="node">
<title>Node14</title>
<g id="a_node14"><a xlink:href="namespacemp.html#ac228ae52f74f9d0d79d59aca47da5308" target="_top" xlink:title=" ">
<polygon fill="white" stroke="black" points="133.5,-0.5 133.5,-19.5 207.5,-19.5 207.5,-0.5 133.5,-0.5"/>
<text text-anchor="middle" x="170.5" y="-7.5" font-family="Helvetica,sans-Serif" font-size="10.00">mp::thisCPU</text>
</a>
</g>
</g>
<!-- Node1&#45;&gt;Node14 -->
<g id="edge18" class="edge">
<title>Node1&#45;&gt;Node14</title>
<path fill="none" stroke="midnightblue" d="M71.56,-38.41C88.31,-33.55 108.86,-27.59 126.8,-22.39"/>
<polygon fill="midnightblue" stroke="midnightblue" points="127.82,-25.73 136.45,-19.59 125.87,-19.01 127.82,-25.73"/>
</g>
<!-- Node4 -->
<g id="node4" class="node">
<title>Node4</title>
<g id="a_node4"><a xlink:href="namespacevmem_1_1pgdir.html#a07dd6afb36a9efd207d6372a0f0f36e8" target="_top" xlink:title=" ">
<polygon fill="white" stroke="black" points="266,-38.5 266,-57.5 385,-57.5 385,-38.5 266,-38.5"/>
<text text-anchor="middle" x="325.5" y="-45.5" font-family="Helvetica,sans-Serif" font-size="10.00">vmem::pgdir::staticMap</text>
</a>
</g>
</g>
<!-- Node3&#45;&gt;Node4 -->
<g id="edge3" class="edge">
<title>Node3&#45;&gt;Node4</title>
<path fill="none" stroke="midnightblue" d="M230.22,-48C238.54,-48 247.17,-48 255.67,-48"/>
<polygon fill="midnightblue" stroke="midnightblue" points="255.94,-51.5 265.94,-48 255.94,-44.5 255.94,-51.5"/>
</g>
<!-- Node5 -->
<g id="node5" class="node">
<title>Node5</title>
<g id="a_node5"><a xlink:href="namespacevmem_1_1pgdir.html#a933a8f939084dabdb1a4b5401bebf8d7" target="_top" xlink:title=" ">
<polygon fill="white" stroke="black" points="421,-66.5 421,-85.5 528,-85.5 528,-66.5 421,-66.5"/>
<text text-anchor="middle" x="474.5" y="-73.5" font-family="Helvetica,sans-Serif" font-size="10.00">vmem::pgdir::findPte</text>
</a>
</g>
</g>
<!-- Node4&#45;&gt;Node5 -->
<g id="edge4" class="edge">
<title>Node4&#45;&gt;Node5</title>
<path fill="none" stroke="midnightblue" d="M376.68,-57.56C388.5,-59.81 401.23,-62.23 413.44,-64.56"/>
<polygon fill="midnightblue" stroke="midnightblue" points="413.07,-68.05 423.55,-66.49 414.38,-61.18 413.07,-68.05"/>
</g>
<!-- Node12 -->
<g id="node12" class="node">
<title>Node12</title>
<g id="a_node12"><a xlink:href="namespacevmem_1_1pgdir.html#a972bb045d4c58b0ea9c569e05831bbb6" target="_top" xlink:title=" ">
<polygon fill="white" stroke="black" points="564,-0.5 564,-19.5 700,-19.5 700,-0.5 564,-0.5"/>
<text text-anchor="middle" x="632" y="-7.5" font-family="Helvetica,sans-Serif" font-size="10.00">vmem::pgdir::invalidateTLB</text>
</a>
</g>
</g>
<!-- Node4&#45;&gt;Node12 -->
<g id="edge17" class="edge">
<title>Node4&#45;&gt;Node12</title>
<path fill="none" stroke="midnightblue" d="M385.21,-40.67C433.27,-34.68 501.63,-26.15 554.06,-19.6"/>
<polygon fill="midnightblue" stroke="midnightblue" points="554.5,-23.07 563.99,-18.36 553.63,-16.13 554.5,-23.07"/>
</g>
<!-- Node6 -->
<g id="node6" class="node">
<title>Node6</title>
<g id="a_node6"><a xlink:href="structvmem_1_1_page_info.html#afcdcb7e941219a8ec999353658e3c2aa" target="_top" xlink:title=" ">
<polygon fill="white" stroke="black" points="574.5,-114.5 574.5,-133.5 689.5,-133.5 689.5,-114.5 574.5,-114.5"/>
<text text-anchor="middle" x="632" y="-121.5" font-family="Helvetica,sans-Serif" font-size="10.00">vmem::PageInfo::alloc</text>
</a>
</g>
</g>
<!-- Node5&#45;&gt;Node6 -->
<g id="edge5" class="edge">
<title>Node5&#45;&gt;Node6</title>
<path fill="none" stroke="midnightblue" d="M506.59,-85.6C530.64,-93.02 564.14,-103.36 590.32,-111.44"/>
<polygon fill="midnightblue" stroke="midnightblue" points="589.37,-114.81 599.96,-114.42 591.44,-108.12 589.37,-114.81"/>
</g>
<!-- Node7 -->
<g id="node7" class="node">
<title>Node7</title>
<g id="a_node7"><a xlink:href="namespacemem.html#a981dd0cb1408b798a79443c6245e9c55" target="_top" xlink:title=" ">
<polygon fill="white" stroke="black" points="768.5,-128.5 768.5,-147.5 833.5,-147.5 833.5,-128.5 768.5,-128.5"/>
<text text-anchor="middle" x="801" y="-135.5" font-family="Helvetica,sans-Serif" font-size="10.00">mem::clear</text>
</a>
</g>
</g>
<!-- Node5&#45;&gt;Node7 -->
<g id="edge12" class="edge">
<title>Node5&#45;&gt;Node7</title>
<path fill="none" stroke="midnightblue" d="M484.11,-85.73C498.7,-101.39 530.02,-131.59 564,-143 629.15,-164.88 710.21,-155.95 758.39,-147.18"/>
<polygon fill="midnightblue" stroke="midnightblue" points="759.27,-150.58 768.44,-145.27 757.96,-143.7 759.27,-150.58"/>
</g>
<!-- Node10 -->
<g id="node10" class="node">
<title>Node10</title>
<g id="a_node10"><a xlink:href="structvmem_1_1_page_info.html#afc863f1d364462ddd2c20bf31f588337" target="_top" xlink:title=" ">
<polygon fill="white" stroke="black" points="736,-76.5 736,-95.5 866,-95.5 866,-76.5 736,-76.5"/>
<text text-anchor="middle" x="801" y="-83.5" font-family="Helvetica,sans-Serif" font-size="10.00">vmem::PageInfo::toKernV</text>
</a>
</g>
</g>
<!-- Node5&#45;&gt;Node10 -->
<g id="edge15" class="edge">
<title>Node5&#45;&gt;Node10</title>
<path fill="none" stroke="midnightblue" d="M528.36,-77.63C581.92,-79.28 665.26,-81.85 725.5,-83.7"/>
<polygon fill="midnightblue" stroke="midnightblue" points="725.61,-87.21 735.72,-84.02 725.83,-80.21 725.61,-87.21"/>
</g>
<!-- Node11 -->
<g id="node11" class="node">
<title>Node11</title>
<g id="a_node11"><a xlink:href="structvmem_1_1_page_info.html#accf2071c7875c29c9aa78a01ef5963a1" target="_top" xlink:title=" ">
<polygon fill="white" stroke="black" points="902,-57.5 902,-76.5 1022,-76.5 1022,-57.5 902,-57.5"/>
<text text-anchor="middle" x="962" y="-64.5" font-family="Helvetica,sans-Serif" font-size="10.00">vmem::PageInfo::toPhy</text>
</a>
</g>
</g>
<!-- Node5&#45;&gt;Node11 -->
<g id="edge16" class="edge">
<title>Node5&#45;&gt;Node11</title>
<path fill="none" stroke="midnightblue" d="M528.37,-73.64C580.99,-71.41 664.06,-68.24 736,-67 788.18,-66.1 847.17,-66.14 891.66,-66.38"/>
<polygon fill="midnightblue" stroke="midnightblue" points="891.76,-69.88 901.78,-66.44 891.8,-62.88 891.76,-69.88"/>
</g>
<!-- Node5&#45;&gt;Node12 -->
<g id="edge13" class="edge">
<title>Node5&#45;&gt;Node12</title>
<path fill="none" stroke="midnightblue" d="M494.25,-66.44C511.99,-57.54 539.5,-44.17 564,-34 573.23,-30.17 583.32,-26.36 592.8,-22.95"/>
<polygon fill="midnightblue" stroke="midnightblue" points="594.14,-26.18 602.4,-19.54 591.8,-19.58 594.14,-26.18"/>
</g>
<!-- Node6&#45;&gt;Node7 -->
<g id="edge6" class="edge">
<title>Node6&#45;&gt;Node7</title>
<path fill="none" stroke="midnightblue" d="M689.54,-128.74C712.04,-130.63 737.47,-132.76 758.26,-134.5"/>
<polygon fill="midnightblue" stroke="midnightblue" points="758.1,-138 768.36,-135.35 758.68,-131.02 758.1,-138"/>
</g>
<!-- Node6&#45;&gt;Node10 -->
<g id="edge10" class="edge">
<title>Node6&#45;&gt;Node10</title>
<path fill="none" stroke="midnightblue" d="M675.14,-114.41C697.38,-109.35 724.85,-103.1 748.36,-97.75"/>
<polygon fill="midnightblue" stroke="midnightblue" points="749.19,-101.15 758.16,-95.52 747.63,-94.33 749.19,-101.15"/>
</g>
<!-- Node8 -->
<g id="node8" class="node">
<title>Node8</title>
<g id="a_node8"><a xlink:href="namespacestr.html#a062221f630647cf300f0dd982c4ed904" target="_top" xlink:title=" ">
<polygon fill="white" stroke="black" points="1058,-123.5 1058,-142.5 1116,-142.5 1116,-123.5 1058,-123.5"/>
<text text-anchor="middle" x="1087" y="-130.5" font-family="Helvetica,sans-Serif" font-size="10.00">str::count</text>
</a>
</g>
</g>
<!-- Node7&#45;&gt;Node8 -->
<g id="edge7" class="edge">
<title>Node7&#45;&gt;Node8</title>
<path fill="none" stroke="midnightblue" d="M833.75,-137.44C886.24,-136.52 990.91,-134.67 1047.52,-133.68"/>
<polygon fill="midnightblue" stroke="midnightblue" points="1047.9,-137.17 1057.84,-133.5 1047.78,-130.17 1047.9,-137.17"/>
</g>
<!-- Node9 -->
<g id="node9" class="node">
<title>Node9</title>
<g id="a_node9"><a xlink:href="namespacemem.html#adbaba9127c03fb914f752bfe19d6d089" target="_top" xlink:title=" ">
<polygon fill="white" stroke="black" points="933,-104.5 933,-123.5 991,-123.5 991,-104.5 933,-104.5"/>
<text text-anchor="middle" x="962" y="-111.5" font-family="Helvetica,sans-Serif" font-size="10.00">mem::set</text>
</a>
</g>
</g>
<!-- Node7&#45;&gt;Node9 -->
<g id="edge8" class="edge">
<title>Node7&#45;&gt;Node9</title>
<path fill="none" stroke="midnightblue" d="M833.79,-133.2C859.51,-129.32 895.79,-123.84 923.03,-119.73"/>
<polygon fill="midnightblue" stroke="midnightblue" points="923.62,-123.18 932.99,-118.23 922.58,-116.26 923.62,-123.18"/>
</g>
<!-- Node9&#45;&gt;Node8 -->
<g id="edge9" class="edge">
<title>Node9&#45;&gt;Node8</title>
<path fill="none" stroke="midnightblue" d="M991.22,-118.36C1008.02,-120.95 1029.55,-124.28 1047.85,-127.11"/>
<polygon fill="midnightblue" stroke="midnightblue" points="1047.5,-130.59 1057.91,-128.66 1048.56,-123.68 1047.5,-130.59"/>
</g>
<!-- Node10&#45;&gt;Node11 -->
<g id="edge11" class="edge">
<title>Node10&#45;&gt;Node11</title>
<path fill="none" stroke="midnightblue" d="M866.21,-78.33C874.7,-77.31 883.43,-76.27 891.99,-75.25"/>
<polygon fill="midnightblue" stroke="midnightblue" points="892.43,-78.72 901.94,-74.06 891.6,-71.77 892.43,-78.72"/>
</g>
<!-- Node13 -->
<g id="node13" class="node">
<title>Node13</title>
<g id="a_node13"><a xlink:href="x86_8h.html#a2c1c4c8523ed258a75c563a8f94d1686" target="_top" xlink:title=" ">
<polygon fill="white" stroke="black" points="780,-0.5 780,-19.5 822,-19.5 822,-0.5 780,-0.5"/>
<text text-anchor="middle" x="801" y="-7.5" font-family="Helvetica,sans-Serif" font-size="10.00">invlpg</text>
</a>
</g>
</g>
<!-- Node12&#45;&gt;Node13 -->
<g id="edge14" class="edge">
<title>Node12&#45;&gt;Node13</title>
<path fill="none" stroke="midnightblue" d="M700.44,-10C724.58,-10 750.58,-10 769.95,-10"/>
<polygon fill="midnightblue" stroke="midnightblue" points="769.98,-13.5 779.98,-10 769.98,-6.5 769.98,-13.5"/>
</g>
</g>
</svg>
