<?xml version="1.0" encoding="UTF-8" standalone="no"?>
<!DOCTYPE svg PUBLIC "-//W3C//DTD SVG 1.1//EN"
 "http://www.w3.org/Graphics/SVG/1.1/DTD/svg11.dtd">
<!-- Generated by graphviz version 2.44.1 (20200629.0846)
 -->
<!-- Title: mem::clear Pages: 1 -->
<svg width="261pt" height="47pt"
 viewBox="0.00 0.00 261.00 47.00" xmlns="http://www.w3.org/2000/svg" xmlns:xlink="http://www.w3.org/1999/xlink">
<g id="graph0" class="graph" transform="scale(1 1) rotate(0) translate(4 43)">
<title>mem::clear</title>
<polygon fill="white" stroke="transparent" points="-4,4 -4,-43 257,-43 257,4 -4,4"/>
<!-- Node1 -->
<g id="node1" class="node">
<title>Node1</title>
<g id="a_node1"><a xlink:title=" ">
<polygon fill="#bfbfbf" stroke="black" points="0,-19.5 0,-38.5 65,-38.5 65,-19.5 0,-19.5"/>
<text text-anchor="middle" x="32.5" y="-26.5" font-family="Helvetica,sans-Serif" font-size="10.00">mem::clear</text>
</a>
</g>
</g>
<!-- Node2 -->
<g id="node2" class="node">
<title>Node2</title>
<g id="a_node2"><a xlink:href="namespacestr.html#a062221f630647cf300f0dd982c4ed904" target="_top" xlink:title=" ">
<polygon fill="white" stroke="black" points="195,-19.5 195,-38.5 253,-38.5 253,-19.5 195,-19.5"/>
<text text-anchor="middle" x="224" y="-26.5" font-family="Helvetica,sans-Serif" font-size="10.00">str::count</text>
</a>
</g>
</g>
<!-- Node1&#45;&gt;Node2 -->
<g id="edge1" class="edge">
<title>Node1&#45;&gt;Node2</title>
<path fill="none" stroke="midnightblue" d="M65.22,-29C98.07,-29 149.41,-29 184.55,-29"/>
<polygon fill="midnightblue" stroke="midnightblue" points="184.89,-32.5 194.89,-29 184.89,-25.5 184.89,-32.5"/>
</g>
<!-- Node3 -->
<g id="node3" class="node">
<title>Node3</title>
<g id="a_node3"><a xlink:href="namespacemem.html#adbaba9127c03fb914f752bfe19d6d089" target="_top" xlink:title=" ">
<polygon fill="white" stroke="black" points="101,-0.5 101,-19.5 159,-19.5 159,-0.5 101,-0.5"/>
<text text-anchor="middle" x="130" y="-7.5" font-family="Helvetica,sans-Serif" font-size="10.00">mem::set</text>
</a>
</g>
</g>
<!-- Node1&#45;&gt;Node3 -->
<g id="edge2" class="edge">
<title>Node1&#45;&gt;Node3</title>
<path fill="none" stroke="midnightblue" d="M65.03,-22.73C73.22,-21.1 82.13,-19.32 90.63,-17.63"/>
<polygon fill="midnightblue" stroke="midnightblue" points="91.59,-21.01 100.72,-15.63 90.23,-14.15 91.59,-21.01"/>
</g>
<!-- Node3&#45;&gt;Node2 -->
<g id="edge3" class="edge">
<title>Node3&#45;&gt;Node2</title>
<path fill="none" stroke="midnightblue" d="M159.1,-15.8C167.23,-17.48 176.24,-19.34 184.87,-21.13"/>
<polygon fill="midnightblue" stroke="midnightblue" points="184.25,-24.57 194.75,-23.17 185.67,-17.72 184.25,-24.57"/>
</g>
</g>
</svg>
