<?xml version="1.0" encoding="UTF-8" standalone="no"?>
<!DOCTYPE svg PUBLIC "-//W3C//DTD SVG 1.1//EN"
 "http://www.w3.org/Graphics/SVG/1.1/DTD/svg11.dtd">
<!-- Generated by graphviz version 2.44.1 (20200629.0846)
 -->
<!-- Title: std::__throw_bad_function_call Pages: 1 -->
<!--zoomable 204 -->
<svg id="main" version="1.1" xmlns="http://www.w3.org/2000/svg" xmlns:xlink="http://www.w3.org/1999/xlink" xml:space="preserve" onload="init(evt)">
<style type="text/css"><![CDATA[
.edge:hover path { stroke: red; }
.edge:hover polygon { stroke: red; fill: red; }
]]></style>
<script type="text/javascript"><![CDATA[
var edges = document.getElementsByTagName('g');
if (edges && edges.length) {
  for (var i=0;i<edges.length;i++) {
    if (edges[i].id.substr(0,4)=='edge') {
      edges[i].setAttribute('class','edge');
    }
  }
}
]]></script>
        <defs>
                <circle id="rim" cx="0" cy="0" r="7"/>
                <circle id="rim2" cx="0" cy="0" r="3.5"/>
                <g id="zoomPlus">
                        <use xlink:href="#rim" fill="#404040">
                                <set attributeName="fill" to="#808080" begin="zoomplus.mouseover" end="zoomplus.mouseout"/>
                        </use>
                        <path d="M-4,0h8M0,-4v8" fill="none" stroke="white" stroke-width="1.5" pointer-events="none"/>
                </g>
                <g id="zoomMin">
                        <use xlink:href="#rim" fill="#404040">
                                <set attributeName="fill" to="#808080" begin="zoomminus.mouseover" end="zoomminus.mouseout"/>
                        </use>
                        <path d="M-4,0h8" fill="none" stroke="white" stroke-width="1.5" pointer-events="none"/>
                </g>
                <g id="dirArrow">
                        <path fill="none" stroke="white" stroke-width="1.5" d="M0,-3.0v7 M-2.5,-0.5L0,-3.0L2.5,-0.5"/>
                </g>
               <g id="resetDef">
                       <use xlink:href="#rim2" fill="#404040">
                               <set attributeName="fill" to="#808080" begin="reset.mouseover" end="reset.mouseout"/>
                       </use>
               </g>
        </defs>

<script type="text/javascript">
var viewWidth = 1318;
var viewHeight = 204;
var sectionId = 'dynsection-0';
</script>
<script xlink:href="svgpan.js"/>
<svg id="graph" class="graph">
<g id="viewport">
<title>std::__throw_bad_function_call</title>
<polygon fill="white" stroke="transparent" points="-4,4 -4,-199.67 1314,-199.67 1314,4 -4,4"/>
<!-- Node1 -->
<g id="node1" class="node">
<title>Node1</title>
<g id="a_node1"><a xlink:title=" ">
<polygon fill="#bfbfbf" stroke="black" points="0,-9.3 0,-28.3 152,-28.3 152,-9.3 0,-9.3"/>
<text text-anchor="middle" x="76" y="-16.3" font-family="Helvetica,sans-Serif" font-size="10.00">std::__throw_bad_function_call</text>
</a>
</g>
</g>
<!-- Node2 -->
<g id="node2" class="node">
<title>Node2</title>
<g id="a_node2"><a xlink:href="namespaceconsole_1_1err.html#a124c7e8527c0e3fd2b9636411aea7e82" target="_top" xlink:title=" ">
<polygon fill="white" stroke="black" points="188,-9.3 188,-28.3 280,-28.3 280,-9.3 188,-9.3"/>
<text text-anchor="middle" x="234" y="-16.3" font-family="Helvetica,sans-Serif" font-size="10.00">console::err::print</text>
</a>
</g>
</g>
<!-- Node1&#45;&gt;Node2 -->
<g id="edge1" class="edge">
<title>Node1&#45;&gt;Node2</title>
<path fill="none" stroke="midnightblue" d="M152.26,-18.8C160.8,-18.8 169.39,-18.8 177.62,-18.8"/>
<polygon fill="midnightblue" stroke="midnightblue" points="177.81,-22.3 187.81,-18.8 177.81,-15.3 177.81,-22.3"/>
</g>
<!-- Node3 -->
<g id="node3" class="node">
<title>Node3</title>
<g id="a_node3"><a xlink:href="namespaceconsole_1_1err.html#a4cd18e4c409b5b17ecec61ce83b05fba" target="_top" xlink:title=" ">
<polygon fill="white" stroke="black" points="316,-9.3 316,-28.3 420,-28.3 420,-9.3 316,-9.3"/>
<text text-anchor="middle" x="368" y="-16.3" font-family="Helvetica,sans-Serif" font-size="10.00">console::err::printVa</text>
</a>
</g>
</g>
<!-- Node2&#45;&gt;Node3 -->
<g id="edge2" class="edge">
<title>Node2&#45;&gt;Node3</title>
<path fill="none" stroke="midnightblue" d="M280.06,-18.8C288.32,-18.8 297.08,-18.8 305.73,-18.8"/>
<polygon fill="midnightblue" stroke="midnightblue" points="305.79,-22.3 315.79,-18.8 305.79,-15.3 305.79,-22.3"/>
</g>
<!-- Node4 -->
<g id="node4" class="node">
<title>Node4</title>
<g id="a_node4"><a xlink:href="namespaceconsole_1_1ge.html#af642934cb833142f133285fdb75ef7b7" target="_top" xlink:title=" ">
<polygon fill="white" stroke="black" points="456,-66.3 456,-85.3 576,-85.3 576,-66.3 456,-66.3"/>
<text text-anchor="middle" x="516" y="-73.3" font-family="Helvetica,sans-Serif" font-size="10.00">console::ge::printFmtVa</text>
</a>
</g>
</g>
<!-- Node3&#45;&gt;Node4 -->
<g id="edge3" class="edge">
<title>Node3&#45;&gt;Node4</title>
<path fill="none" stroke="midnightblue" d="M393.44,-28.34C417.44,-37.71 454.26,-52.09 481.09,-62.56"/>
<polygon fill="midnightblue" stroke="midnightblue" points="479.9,-65.85 490.48,-66.23 482.44,-59.33 479.9,-65.85"/>
</g>
<!-- Node11 -->
<g id="node11" class="node">
<title>Node11</title>
<g id="a_node11"><a xlink:href="namespaceconsole_1_1out.html#ad9fc97dff4404c2d21aedbb24691e7cb" target="_top" xlink:title=" ">
<polygon fill="white" stroke="black" points="774,-9.3 774,-28.3 884,-28.3 884,-9.3 774,-9.3"/>
<text text-anchor="middle" x="829" y="-16.3" font-family="Helvetica,sans-Serif" font-size="10.00">console::out::putChar</text>
</a>
</g>
</g>
<!-- Node3&#45;&gt;Node11 -->
<g id="edge20" class="edge">
<title>Node3&#45;&gt;Node11</title>
<path fill="none" stroke="midnightblue" d="M420.12,-12.76C491.42,-5.23 624.74,5.57 738,-3.8 748.29,-4.65 759.17,-6.04 769.68,-7.64"/>
<polygon fill="midnightblue" stroke="midnightblue" points="769.18,-11.11 779.61,-9.23 770.28,-4.2 769.18,-11.11"/>
</g>
<!-- Node5 -->
<g id="node5" class="node">
<title>Node5</title>
<g id="a_node5"><a xlink:href="printfmt_8cc.html#a708ec6ee2b8bd2d7a453d8d9436ed3b3" target="_top" xlink:title=" ">
<polygon fill="white" stroke="black" points="646,-142.3 646,-161.3 704,-161.3 704,-142.3 646,-142.3"/>
<text text-anchor="middle" x="675" y="-149.3" font-family="Helvetica,sans-Serif" font-size="10.00">_getIntVa</text>
</a>
</g>
</g>
<!-- Node4&#45;&gt;Node5 -->
<g id="edge4" class="edge">
<title>Node4&#45;&gt;Node5</title>
<path fill="none" stroke="midnightblue" d="M530.59,-85.41C548.53,-97.75 581.43,-119.19 612,-132.8 619.6,-136.19 627.99,-139.2 636.07,-141.78"/>
<polygon fill="midnightblue" stroke="midnightblue" points="635.11,-145.15 645.7,-144.7 637.14,-138.45 635.11,-145.15"/>
</g>
<!-- Node6 -->
<g id="node6" class="node">
<title>Node6</title>
<g id="a_node6"><a xlink:href="printfmt_8cc.html#af4b46892c76c8bfd27efdb20847eb7c8" target="_top" xlink:title=" ">
<polygon fill="white" stroke="black" points="642.5,-104.3 642.5,-123.3 707.5,-123.3 707.5,-104.3 642.5,-104.3"/>
<text text-anchor="middle" x="675" y="-111.3" font-family="Helvetica,sans-Serif" font-size="10.00">_getUIntVa</text>
</a>
</g>
</g>
<!-- Node4&#45;&gt;Node6 -->
<g id="edge5" class="edge">
<title>Node4&#45;&gt;Node6</title>
<path fill="none" stroke="midnightblue" d="M556.62,-85.39C579.72,-90.98 608.84,-98.03 632.3,-103.71"/>
<polygon fill="midnightblue" stroke="midnightblue" points="631.76,-107.18 642.3,-106.13 633.4,-100.38 631.76,-107.18"/>
</g>
<!-- Node7 -->
<g id="node7" class="node">
<title>Node7</title>
<g id="a_node7"><a xlink:href="namespacestr.html#a062221f630647cf300f0dd982c4ed904" target="_top" xlink:title=" ">
<polygon fill="white" stroke="black" points="1252,-99.3 1252,-118.3 1310,-118.3 1310,-99.3 1252,-99.3"/>
<text text-anchor="middle" x="1281" y="-106.3" font-family="Helvetica,sans-Serif" font-size="10.00">str::count</text>
</a>
</g>
</g>
<!-- Node4&#45;&gt;Node7 -->
<g id="edge6" class="edge">
<title>Node4&#45;&gt;Node7</title>
<path fill="none" stroke="midnightblue" d="M523.18,-85.52C536.55,-105.59 570.36,-151.37 612,-170.8 699.33,-211.55 731.63,-189.8 828,-189.8 828,-189.8 828,-189.8 981,-189.8 1082.55,-189.8 1196.97,-145.73 1250.02,-122.61"/>
<polygon fill="midnightblue" stroke="midnightblue" points="1251.77,-125.66 1259.5,-118.41 1248.93,-119.26 1251.77,-125.66"/>
</g>
<!-- Node8 -->
<g id="node8" class="node">
<title>Node8</title>
<g id="a_node8"><a xlink:href="printfmt_8cc.html#a0e3e484ece5e75b9f5fbe337f0ae8ae3" target="_top" xlink:title=" ">
<polygon fill="white" stroke="black" points="648.5,-66.3 648.5,-85.3 701.5,-85.3 701.5,-66.3 648.5,-66.3"/>
<text text-anchor="middle" x="675" y="-73.3" font-family="Helvetica,sans-Serif" font-size="10.00">describe</text>
</a>
</g>
</g>
<!-- Node4&#45;&gt;Node8 -->
<g id="edge7" class="edge">
<title>Node4&#45;&gt;Node8</title>
<path fill="none" stroke="midnightblue" d="M576.35,-75.8C597.12,-75.8 619.78,-75.8 638.04,-75.8"/>
<polygon fill="midnightblue" stroke="midnightblue" points="638.24,-79.3 648.24,-75.8 638.24,-72.3 638.24,-79.3"/>
</g>
<!-- Node10 -->
<g id="node10" class="node">
<title>Node10</title>
<g id="a_node10"><a xlink:href="namespaceconsole_1_1ge.html#a7e301813fd34fde772376afc5fdad95d" target="_top" xlink:title=" ">
<polygon fill="white" stroke="black" points="612,-28.3 612,-47.3 738,-47.3 738,-28.3 612,-28.3"/>
<text text-anchor="middle" x="675" y="-35.3" font-family="Helvetica,sans-Serif" font-size="10.00">console::ge::printNumber</text>
</a>
</g>
</g>
<!-- Node4&#45;&gt;Node10 -->
<g id="edge9" class="edge">
<title>Node4&#45;&gt;Node10</title>
<path fill="none" stroke="midnightblue" d="M556.62,-66.21C577.34,-61.2 602.89,-55.01 624.86,-49.7"/>
<polygon fill="midnightblue" stroke="midnightblue" points="625.77,-53.08 634.67,-47.32 624.12,-46.27 625.77,-53.08"/>
</g>
<!-- Node4&#45;&gt;Node11 -->
<g id="edge19" class="edge">
<title>Node4&#45;&gt;Node11</title>
<path fill="none" stroke="midnightblue" d="M528.33,-66.16C545.22,-52.47 578.63,-28.04 612,-18.8 661.52,-5.09 719.9,-6.05 763.48,-9.91"/>
<polygon fill="midnightblue" stroke="midnightblue" points="763.38,-13.42 773.66,-10.89 764.05,-6.45 763.38,-13.42"/>
</g>
<!-- Node9 -->
<g id="node9" class="node">
<title>Node9</title>
<g id="a_node9"><a xlink:href="namespacemonitor.html#a318993193c866642f8389a1c1f285739" target="_top" xlink:title=" ">
<polygon fill="white" stroke="black" points="792,-66.3 792,-85.3 866,-85.3 866,-66.3 792,-66.3"/>
<text text-anchor="middle" x="829" y="-73.3" font-family="Helvetica,sans-Serif" font-size="10.00">monitor::fuck</text>
</a>
</g>
</g>
<!-- Node8&#45;&gt;Node9 -->
<g id="edge8" class="edge">
<title>Node8&#45;&gt;Node9</title>
<path fill="none" stroke="midnightblue" d="M701.78,-75.8C723.62,-75.8 755.46,-75.8 781.7,-75.8"/>
<polygon fill="midnightblue" stroke="midnightblue" points="781.82,-79.3 791.82,-75.8 781.82,-72.3 781.82,-79.3"/>
</g>
<!-- Node10&#45;&gt;Node11 -->
<g id="edge10" class="edge">
<title>Node10&#45;&gt;Node11</title>
<path fill="none" stroke="midnightblue" d="M738.26,-30.02C746.66,-28.97 755.28,-27.89 763.71,-26.84"/>
<polygon fill="midnightblue" stroke="midnightblue" points="764.37,-30.28 773.86,-25.57 763.51,-23.34 764.37,-30.28"/>
</g>
<!-- Node12 -->
<g id="node12" class="node">
<title>Node12</title>
<g id="a_node12"><a xlink:href="namespaceconsole_1_1serial.html#a3a7c1f95ae3c24136ea63bb31fdf0391" target="_top" xlink:title=" ">
<polygon fill="white" stroke="black" points="920,-9.3 920,-28.3 1040,-28.3 1040,-9.3 920,-9.3"/>
<text text-anchor="middle" x="980" y="-16.3" font-family="Helvetica,sans-Serif" font-size="10.00">console::serial::putChar</text>
</a>
</g>
</g>
<!-- Node11&#45;&gt;Node12 -->
<g id="edge11" class="edge">
<title>Node11&#45;&gt;Node12</title>
<path fill="none" stroke="midnightblue" d="M884.21,-18.8C892.53,-18.8 901.2,-18.8 909.79,-18.8"/>
<polygon fill="midnightblue" stroke="midnightblue" points="909.79,-22.3 919.79,-18.8 909.79,-15.3 909.79,-22.3"/>
</g>
<!-- Node15 -->
<g id="node15" class="node">
<title>Node15</title>
<g id="a_node15"><a xlink:href="namespaceconsole_1_1cga.html#afa19057ca041b39682d5d4831c43dfa0" target="_top" xlink:title=" ">
<polygon fill="white" stroke="black" points="923.5,-47.3 923.5,-66.3 1036.5,-66.3 1036.5,-47.3 923.5,-47.3"/>
<text text-anchor="middle" x="980" y="-54.3" font-family="Helvetica,sans-Serif" font-size="10.00">console::cga::putChar</text>
</a>
</g>
</g>
<!-- Node11&#45;&gt;Node15 -->
<g id="edge14" class="edge">
<title>Node11&#45;&gt;Node15</title>
<path fill="none" stroke="midnightblue" d="M867.6,-28.39C887.08,-33.36 911.07,-39.48 931.8,-44.76"/>
<polygon fill="midnightblue" stroke="midnightblue" points="931.12,-48.2 941.67,-47.28 932.85,-41.42 931.12,-48.2"/>
</g>
<!-- Node13 -->
<g id="node13" class="node">
<title>Node13</title>
<g id="a_node13"><a xlink:href="namespaceconsole_1_1serial.html#aa5605d4537106bb1c2bab72d7d1a5824" target="_top" xlink:title=" ">
<polygon fill="white" stroke="black" points="1094,-9.3 1094,-28.3 1198,-28.3 1198,-9.3 1094,-9.3"/>
<text text-anchor="middle" x="1146" y="-16.3" font-family="Helvetica,sans-Serif" font-size="10.00">console::serial::sout</text>
</a>
</g>
</g>
<!-- Node12&#45;&gt;Node13 -->
<g id="edge12" class="edge">
<title>Node12&#45;&gt;Node13</title>
<path fill="none" stroke="midnightblue" d="M1040.21,-18.8C1054.31,-18.8 1069.39,-18.8 1083.59,-18.8"/>
<polygon fill="midnightblue" stroke="midnightblue" points="1083.74,-22.3 1093.74,-18.8 1083.74,-15.3 1083.74,-22.3"/>
</g>
<!-- Node14 -->
<g id="node14" class="node">
<title>Node14</title>
<g id="a_node14"><a xlink:href="x86_8h.html#ade961b44e45ddacbc3c3b7609cf36dc6" target="_top" xlink:title=" ">
<polygon fill="white" stroke="black" points="1263.5,-42.3 1263.5,-61.3 1298.5,-61.3 1298.5,-42.3 1263.5,-42.3"/>
<text text-anchor="middle" x="1281" y="-49.3" font-family="Helvetica,sans-Serif" font-size="10.00">outb</text>
</a>
</g>
</g>
<!-- Node13&#45;&gt;Node14 -->
<g id="edge13" class="edge">
<title>Node13&#45;&gt;Node14</title>
<path fill="none" stroke="midnightblue" d="M1185.47,-28.35C1207.32,-33.77 1234.11,-40.42 1253.59,-45.25"/>
<polygon fill="midnightblue" stroke="midnightblue" points="1252.76,-48.65 1263.31,-47.66 1254.44,-41.86 1252.76,-48.65"/>
</g>
<!-- Node16 -->
<g id="node16" class="node">
<title>Node16</title>
<g id="a_node16"><a xlink:href="namespacemem.html#a64d9d05b439041901498c606de606431" target="_top" xlink:title=" ">
<polygon fill="white" stroke="black" points="1113.5,-90.3 1113.5,-109.3 1178.5,-109.3 1178.5,-90.3 1113.5,-90.3"/>
<text text-anchor="middle" x="1146" y="-97.3" font-family="Helvetica,sans-Serif" font-size="10.00">mem::copy</text>
</a>
</g>
</g>
<!-- Node15&#45;&gt;Node16 -->
<g id="edge15" class="edge">
<title>Node15&#45;&gt;Node16</title>
<path fill="none" stroke="midnightblue" d="M1017.4,-66.35C1042.92,-73.04 1077.08,-81.99 1103.64,-88.96"/>
<polygon fill="midnightblue" stroke="midnightblue" points="1102.85,-92.37 1113.41,-91.52 1104.62,-85.6 1102.85,-92.37"/>
</g>
<!-- Node17 -->
<g id="node17" class="node">
<title>Node17</title>
<g id="a_node17"><a xlink:href="namespaceconsole_1_1cga.html#a06463d4dc68819e30615ba299d02a78f" target="_top" xlink:title=" ">
<polygon fill="white" stroke="black" points="1076,-47.3 1076,-66.3 1216,-66.3 1216,-47.3 1076,-47.3"/>
<text text-anchor="middle" x="1146" y="-54.3" font-family="Helvetica,sans-Serif" font-size="10.00">console::cga::cursorRefresh</text>
</a>
</g>
</g>
<!-- Node15&#45;&gt;Node17 -->
<g id="edge17" class="edge">
<title>Node15&#45;&gt;Node17</title>
<path fill="none" stroke="midnightblue" d="M1036.52,-56.8C1045.9,-56.8 1055.8,-56.8 1065.65,-56.8"/>
<polygon fill="midnightblue" stroke="midnightblue" points="1065.87,-60.3 1075.87,-56.8 1065.87,-53.3 1065.87,-60.3"/>
</g>
<!-- Node16&#45;&gt;Node7 -->
<g id="edge16" class="edge">
<title>Node16&#45;&gt;Node7</title>
<path fill="none" stroke="midnightblue" d="M1178.52,-101.94C1197.49,-103.22 1221.77,-104.86 1241.82,-106.22"/>
<polygon fill="midnightblue" stroke="midnightblue" points="1241.66,-109.72 1251.87,-106.9 1242.13,-102.73 1241.66,-109.72"/>
</g>
<!-- Node17&#45;&gt;Node14 -->
<g id="edge18" class="edge">
<title>Node17&#45;&gt;Node14</title>
<path fill="none" stroke="midnightblue" d="M1216.23,-54.2C1229.48,-53.7 1242.59,-53.21 1253.45,-52.8"/>
<polygon fill="midnightblue" stroke="midnightblue" points="1253.61,-56.3 1263.47,-52.42 1253.35,-49.3 1253.61,-56.3"/>
</g>
</g>
</svg>
        <g id="navigator" transform="translate(0 0)" fill="#404254">
                <rect fill="#f2f5e9" fill-opacity="0.5" stroke="#606060" stroke-width=".5" x="0" y="0" width="60" height="60"/>
                <use id="zoomplus" xlink:href="#zoomPlus" x="17" y="9" onmousedown="handleZoom(evt,'in')"/>
                <use id="zoomminus" xlink:href="#zoomMin" x="42" y="9" onmousedown="handleZoom(evt,'out')"/>
                <use id="reset" xlink:href="#resetDef" x="30" y="36" onmousedown="handleReset()"/>
                <g id="arrowUp" xlink:href="#dirArrow" transform="translate(30 24)" onmousedown="handlePan(0,-1)">
                  <use xlink:href="#rim" fill="#404040">
                        <set attributeName="fill" to="#808080" begin="arrowUp.mouseover" end="arrowUp.mouseout"/>
                  </use>
                  <path fill="none" stroke="white" stroke-width="1.5" d="M0,-3.0v7 M-2.5,-0.5L0,-3.0L2.5,-0.5"/>
                </g>
                <g id="arrowRight" xlink:href="#dirArrow" transform="rotate(90) translate(36 -43)" onmousedown="handlePan(1,0)">
                  <use xlink:href="#rim" fill="#404040">
                        <set attributeName="fill" to="#808080" begin="arrowRight.mouseover" end="arrowRight.mouseout"/>
                  </use>
                  <path fill="none" stroke="white" stroke-width="1.5" d="M0,-3.0v7 M-2.5,-0.5L0,-3.0L2.5,-0.5"/>
                </g>
                <g id="arrowDown" xlink:href="#dirArrow" transform="rotate(180) translate(-30 -48)" onmousedown="handlePan(0,1)">
                  <use xlink:href="#rim" fill="#404040">
                        <set attributeName="fill" to="#808080" begin="arrowDown.mouseover" end="arrowDown.mouseout"/>
                  </use>
                  <path fill="none" stroke="white" stroke-width="1.5" d="M0,-3.0v7 M-2.5,-0.5L0,-3.0L2.5,-0.5"/>
                </g>
                <g id="arrowLeft" xlink:href="#dirArrow" transform="rotate(270) translate(-36 17)" onmousedown="handlePan(-1,0)">
                  <use xlink:href="#rim" fill="#404040">
                        <set attributeName="fill" to="#808080" begin="arrowLeft.mouseover" end="arrowLeft.mouseout"/>
                  </use>
                  <path fill="none" stroke="white" stroke-width="1.5" d="M0,-3.0v7 M-2.5,-0.5L0,-3.0L2.5,-0.5"/>
                </g>
        </g>
        <svg viewBox="0 0 15 15" width="100%" height="30px" preserveAspectRatio="xMaxYMin meet">
         <g id="arrow_out" transform="scale(0.3 0.3)">
          <a xlink:href="namespacestd_a68007c73c66abf5fc76576c747a5539b_cgraph_org.svg" target="_base">
           <rect id="button" ry="5" rx="5" y="6" x="6" height="38" width="38"
                fill="#f2f5e9" fill-opacity="0.5" stroke="#606060" stroke-width="1.0"/>
           <path id="arrow"
             d="M 11.500037,31.436501 C 11.940474,20.09759 22.043105,11.32322 32.158766,21.979434 L 37.068811,17.246167 C 37.068811,17.246167 37.088388,32 37.088388,32 L 22.160133,31.978069 C 22.160133,31.978069 26.997745,27.140456 26.997745,27.140456 C 18.528582,18.264221 13.291696,25.230495 11.500037,31.436501 z"
             style="fill:#404040;"/>
          </a>
         </g>
        </svg>
</svg>
