<?xml version="1.0" encoding="UTF-8" standalone="no"?>
<!DOCTYPE svg PUBLIC "-//W3C//DTD SVG 1.1//EN"
 "http://www.w3.org/Graphics/SVG/1.1/DTD/svg11.dtd">
<!-- Generated by graphviz version 2.44.1 (20200629.0846)
 -->
<!-- Title: ksyscall::putString Pages: 1 -->
<!--zoomable 631 -->
<svg id="main" version="1.1" xmlns="http://www.w3.org/2000/svg" xmlns:xlink="http://www.w3.org/1999/xlink" xml:space="preserve" onload="init(evt)">
<style type="text/css"><![CDATA[
.edge:hover path { stroke: red; }
.edge:hover polygon { stroke: red; fill: red; }
]]></style>
<script type="text/javascript"><![CDATA[
var edges = document.getElementsByTagName('g');
if (edges && edges.length) {
  for (var i=0;i<edges.length;i++) {
    if (edges[i].id.substr(0,4)=='edge') {
      edges[i].setAttribute('class','edge');
    }
  }
}
]]></script>
        <defs>
                <circle id="rim" cx="0" cy="0" r="7"/>
                <circle id="rim2" cx="0" cy="0" r="3.5"/>
                <g id="zoomPlus">
                        <use xlink:href="#rim" fill="#404040">
                                <set attributeName="fill" to="#808080" begin="zoomplus.mouseover" end="zoomplus.mouseout"/>
                        </use>
                        <path d="M-4,0h8M0,-4v8" fill="none" stroke="white" stroke-width="1.5" pointer-events="none"/>
                </g>
                <g id="zoomMin">
                        <use xlink:href="#rim" fill="#404040">
                                <set attributeName="fill" to="#808080" begin="zoomminus.mouseover" end="zoomminus.mouseout"/>
                        </use>
                        <path d="M-4,0h8" fill="none" stroke="white" stroke-width="1.5" pointer-events="none"/>
                </g>
                <g id="dirArrow">
                        <path fill="none" stroke="white" stroke-width="1.5" d="M0,-3.0v7 M-2.5,-0.5L0,-3.0L2.5,-0.5"/>
                </g>
               <g id="resetDef">
                       <use xlink:href="#rim2" fill="#404040">
                               <set attributeName="fill" to="#808080" begin="reset.mouseover" end="reset.mouseout"/>
                       </use>
               </g>
        </defs>

<script type="text/javascript">
var viewWidth = 1737;
var viewHeight = 631;
var sectionId = 'dynsection-4';
</script>
<script xlink:href="svgpan.js"/>
<svg id="graph" class="graph">
<g id="viewport">
<title>ksyscall::putString</title>
<polygon fill="white" stroke="transparent" points="-4,4 -4,-627.38 1733,-627.38 1733,4 -4,4"/>
<!-- Node1 -->
<g id="node1" class="node">
<title>Node1</title>
<g id="a_node1"><a xlink:title=" ">
<polygon fill="#bfbfbf" stroke="black" points="0,-256.5 0,-275.5 98,-275.5 98,-256.5 0,-256.5"/>
<text text-anchor="middle" x="49" y="-263.5" font-family="Helvetica,sans-Serif" font-size="10.00">ksyscall::putString</text>
</a>
</g>
</g>
<!-- Node2 -->
<g id="node2" class="node">
<title>Node2</title>
<g id="a_node2"><a xlink:href="namespacestr.html#a062221f630647cf300f0dd982c4ed904" target="_top" xlink:title=" ">
<polygon fill="white" stroke="black" points="1671,-209.5 1671,-228.5 1729,-228.5 1729,-209.5 1671,-209.5"/>
<text text-anchor="middle" x="1700" y="-216.5" font-family="Helvetica,sans-Serif" font-size="10.00">str::count</text>
</a>
</g>
</g>
<!-- Node1&#45;&gt;Node2 -->
<g id="edge1" class="edge">
<title>Node1&#45;&gt;Node2</title>
<path fill="none" stroke="midnightblue" d="M73.98,-256.4C121.96,-238.1 233.53,-200 331,-200 331,-200 331,-200 1395,-200 1490.83,-200 1603.32,-209.52 1660.87,-215.08"/>
<polygon fill="midnightblue" stroke="midnightblue" points="1660.66,-218.58 1670.96,-216.07 1661.35,-211.61 1660.66,-218.58"/>
</g>
<!-- Node3 -->
<g id="node3" class="node">
<title>Node3</title>
<g id="a_node3"><a xlink:href="structtask_1_1_task.html#acc107ba9ef939a92f459873765fb73eb" target="_top" xlink:title=" ">
<polygon fill="white" stroke="black" points="145.5,-313.5 145.5,-332.5 246.5,-332.5 246.5,-313.5 145.5,-313.5"/>
<text text-anchor="middle" x="196" y="-320.5" font-family="Helvetica,sans-Serif" font-size="10.00">task::Task::destroy</text>
</a>
</g>
</g>
<!-- Node1&#45;&gt;Node3 -->
<g id="edge2" class="edge">
<title>Node1&#45;&gt;Node3</title>
<path fill="none" stroke="midnightblue" d="M74.27,-275.54C98.11,-284.91 134.68,-299.29 161.33,-309.76"/>
<polygon fill="midnightblue" stroke="midnightblue" points="160.06,-313.03 170.65,-313.43 162.62,-306.51 160.06,-313.03"/>
</g>
<!-- Node11 -->
<g id="node11" class="node">
<title>Node11</title>
<g id="a_node11"><a xlink:href="namespaceconsole_1_1out.html#ac6f663e3971b66b8e130ee94755a150e" target="_top" xlink:title=" ">
<polygon fill="white" stroke="black" points="410.5,-294.5 410.5,-313.5 505.5,-313.5 505.5,-294.5 410.5,-294.5"/>
<text text-anchor="middle" x="458" y="-301.5" font-family="Helvetica,sans-Serif" font-size="10.00">console::out::print</text>
</a>
</g>
</g>
<!-- Node1&#45;&gt;Node11 -->
<g id="edge41" class="edge">
<title>Node1&#45;&gt;Node11</title>
<path fill="none" stroke="midnightblue" d="M98.29,-270.51C173.76,-277.55 319.34,-291.15 399.9,-298.67"/>
<polygon fill="midnightblue" stroke="midnightblue" points="400.06,-302.2 410.34,-299.64 400.71,-295.23 400.06,-302.2"/>
</g>
<!-- Node19 -->
<g id="node19" class="node">
<title>Node19</title>
<g id="a_node19"><a xlink:href="namespaceconsole_1_1out.html#ad9fc97dff4404c2d21aedbb24691e7cb" target="_top" xlink:title=" ">
<polygon fill="white" stroke="black" points="1170,-418.5 1170,-437.5 1280,-437.5 1280,-418.5 1170,-418.5"/>
<text text-anchor="middle" x="1225" y="-425.5" font-family="Helvetica,sans-Serif" font-size="10.00">console::out::putChar</text>
</a>
</g>
</g>
<!-- Node1&#45;&gt;Node19 -->
<g id="edge42" class="edge">
<title>Node1&#45;&gt;Node19</title>
<path fill="none" stroke="midnightblue" d="M52.44,-275.78C67.29,-332.63 150.76,-618 331,-618 331,-618 331,-618 900,-618 999.12,-618 1037.38,-641.23 1121,-588 1174.06,-554.22 1205.17,-482.19 1217.63,-447.48"/>
<polygon fill="midnightblue" stroke="midnightblue" points="1221.08,-448.22 1221.02,-437.62 1214.46,-445.94 1221.08,-448.22"/>
</g>
<!-- Node31 -->
<g id="node31" class="node">
<title>Node31</title>
<g id="a_node31"><a xlink:href="namespacevmem_1_1pgdir.html#ac95ef4d1250d2d48baf0c3f907025f45" target="_top" xlink:title=" ">
<polygon fill="white" stroke="black" points="134,-114.5 134,-133.5 258,-133.5 258,-114.5 134,-114.5"/>
<text text-anchor="middle" x="196" y="-121.5" font-family="Helvetica,sans-Serif" font-size="10.00">vmem::pgdir::userCheck</text>
</a>
</g>
</g>
<!-- Node1&#45;&gt;Node31 -->
<g id="edge43" class="edge">
<title>Node1&#45;&gt;Node31</title>
<path fill="none" stroke="midnightblue" d="M59.97,-256.24C84.28,-232.43 146.9,-171.11 177.56,-141.08"/>
<polygon fill="midnightblue" stroke="midnightblue" points="180.27,-143.33 184.96,-133.83 175.37,-138.32 180.27,-143.33"/>
</g>
<!-- Node4 -->
<g id="node4" class="node">
<title>Node4</title>
<g id="a_node4"><a xlink:href="x86_8h.html#ab3bac932074f6042165d3016b701900a" target="_top" xlink:title=" ">
<polygon fill="white" stroke="black" points="316,-332.5 316,-351.5 348,-351.5 348,-332.5 316,-332.5"/>
<text text-anchor="middle" x="332" y="-339.5" font-family="Helvetica,sans-Serif" font-size="10.00">lcr3</text>
</a>
</g>
</g>
<!-- Node3&#45;&gt;Node4 -->
<g id="edge3" class="edge">
<title>Node3&#45;&gt;Node4</title>
<path fill="none" stroke="midnightblue" d="M246.52,-330.02C266.7,-332.88 289.16,-336.07 305.84,-338.43"/>
<polygon fill="midnightblue" stroke="midnightblue" points="305.5,-341.92 315.89,-339.86 306.48,-334.99 305.5,-341.92"/>
</g>
<!-- Node5 -->
<g id="node5" class="node">
<title>Node5</title>
<g id="a_node5"><a xlink:href="namespacemonitor.html#ac02f947e274eb7d38cdfa803c21ef579" target="_top" xlink:title=" ">
<polygon fill="white" stroke="black" points="294,-370.5 294,-389.5 370,-389.5 370,-370.5 294,-370.5"/>
<text text-anchor="middle" x="332" y="-377.5" font-family="Helvetica,sans-Serif" font-size="10.00">monitor::main</text>
</a>
</g>
</g>
<!-- Node3&#45;&gt;Node5 -->
<g id="edge4" class="edge">
<title>Node3&#45;&gt;Node5</title>
<path fill="none" stroke="midnightblue" d="M219.43,-332.54C241.27,-341.83 274.66,-356.04 299.23,-366.49"/>
<polygon fill="midnightblue" stroke="midnightblue" points="297.93,-369.73 308.5,-370.43 300.67,-363.29 297.93,-369.73"/>
</g>
<!-- Node3&#45;&gt;Node11 -->
<g id="edge40" class="edge">
<title>Node3&#45;&gt;Node11</title>
<path fill="none" stroke="midnightblue" d="M246.52,-319.38C290.35,-316.18 354.31,-311.5 400.2,-308.15"/>
<polygon fill="midnightblue" stroke="midnightblue" points="400.57,-311.63 410.29,-307.41 400.06,-304.65 400.57,-311.63"/>
</g>
<!-- Node6 -->
<g id="node6" class="node">
<title>Node6</title>
<g id="a_node6"><a xlink:href="namespacemonitor.html#a8b88ed0586263051a6af8dbff388e314" target="_top" xlink:title=" ">
<polygon fill="white" stroke="black" points="408,-370.5 408,-389.5 508,-389.5 508,-370.5 408,-370.5"/>
<text text-anchor="middle" x="458" y="-377.5" font-family="Helvetica,sans-Serif" font-size="10.00">monitor::parseCmd</text>
</a>
</g>
</g>
<!-- Node5&#45;&gt;Node6 -->
<g id="edge5" class="edge">
<title>Node5&#45;&gt;Node6</title>
<path fill="none" stroke="midnightblue" d="M370.2,-380C378.9,-380 388.38,-380 397.77,-380"/>
<polygon fill="midnightblue" stroke="midnightblue" points="397.88,-383.5 407.88,-380 397.88,-376.5 397.88,-383.5"/>
</g>
<!-- Node5&#45;&gt;Node11 -->
<g id="edge11" class="edge">
<title>Node5&#45;&gt;Node11</title>
<path fill="none" stroke="midnightblue" d="M352.79,-370.32C358.42,-367.44 364.51,-364.2 370,-361 392.72,-347.77 417.75,-331.15 435.1,-319.27"/>
<polygon fill="midnightblue" stroke="midnightblue" points="437.17,-322.1 443.42,-313.54 433.2,-316.33 437.17,-322.1"/>
</g>
<!-- Node26 -->
<g id="node26" class="node">
<title>Node26</title>
<g id="a_node26"><a xlink:href="namespaceconsole_1_1err.html#a124c7e8527c0e3fd2b9636411aea7e82" target="_top" xlink:title=" ">
<polygon fill="white" stroke="black" points="412,-522.5 412,-541.5 504,-541.5 504,-522.5 412,-522.5"/>
<text text-anchor="middle" x="458" y="-529.5" font-family="Helvetica,sans-Serif" font-size="10.00">console::err::print</text>
</a>
</g>
</g>
<!-- Node5&#45;&gt;Node26 -->
<g id="edge31" class="edge">
<title>Node5&#45;&gt;Node26</title>
<path fill="none" stroke="midnightblue" d="M340.76,-389.51C361.11,-414.46 416.3,-482.11 442.64,-514.39"/>
<polygon fill="midnightblue" stroke="midnightblue" points="440.21,-516.96 449.25,-522.5 445.64,-512.53 440.21,-516.96"/>
</g>
<!-- Node28 -->
<g id="node28" class="node">
<title>Node28</title>
<g id="a_node28"><a xlink:href="namespaceconsole_1_1in.html#afa763e7729f2e6fbdcf4c14e44ad7a29" target="_top" xlink:title=" ">
<polygon fill="white" stroke="black" points="406,-408.5 406,-427.5 510,-427.5 510,-408.5 406,-408.5"/>
<text text-anchor="middle" x="458" y="-415.5" font-family="Helvetica,sans-Serif" font-size="10.00">console::in::readline</text>
</a>
</g>
</g>
<!-- Node5&#45;&gt;Node28 -->
<g id="edge35" class="edge">
<title>Node5&#45;&gt;Node28</title>
<path fill="none" stroke="midnightblue" d="M364.29,-389.59C380,-394.4 399.24,-400.3 416.11,-405.47"/>
<polygon fill="midnightblue" stroke="midnightblue" points="415.13,-408.83 425.72,-408.41 417.18,-402.14 415.13,-408.83"/>
</g>
<!-- Node7 -->
<g id="node7" class="node">
<title>Node7</title>
<g id="a_node7"><a xlink:href="namespacestr.html#ace5edf7e67a558a1c4ead28a66faba41" target="_top" xlink:title=" ">
<polygon fill="white" stroke="black" points="565.5,-370.5 565.5,-389.5 641.5,-389.5 641.5,-370.5 565.5,-370.5"/>
<text text-anchor="middle" x="603.5" y="-377.5" font-family="Helvetica,sans-Serif" font-size="10.00">str::cmpCase</text>
</a>
</g>
</g>
<!-- Node6&#45;&gt;Node7 -->
<g id="edge6" class="edge">
<title>Node6&#45;&gt;Node7</title>
<path fill="none" stroke="midnightblue" d="M508.38,-380C523.54,-380 540.16,-380 555.17,-380"/>
<polygon fill="midnightblue" stroke="midnightblue" points="555.27,-383.5 565.27,-380 555.27,-376.5 555.27,-383.5"/>
</g>
<!-- Node8 -->
<g id="node8" class="node">
<title>Node8</title>
<g id="a_node8"><a xlink:href="namespacestr.html#a12522233f7d73122d76de5c82e44a183" target="_top" xlink:title=" ">
<polygon fill="white" stroke="black" points="570,-332.5 570,-351.5 637,-351.5 637,-332.5 570,-332.5"/>
<text text-anchor="middle" x="603.5" y="-339.5" font-family="Helvetica,sans-Serif" font-size="10.00">str::splitWs</text>
</a>
</g>
</g>
<!-- Node6&#45;&gt;Node8 -->
<g id="edge7" class="edge">
<title>Node6&#45;&gt;Node8</title>
<path fill="none" stroke="midnightblue" d="M495.21,-370.41C514.9,-365.2 539.38,-358.72 559.97,-353.26"/>
<polygon fill="midnightblue" stroke="midnightblue" points="560.96,-356.62 569.74,-350.68 559.17,-349.85 560.96,-356.62"/>
</g>
<!-- Node9 -->
<g id="node9" class="node">
<title>Node9</title>
<g id="a_node9"><a xlink:href="namespacestr.html#a0e183e333ba05550c6b206906dbf0f10" target="_top" xlink:title=" ">
<polygon fill="white" stroke="black" points="724,-266.5 724,-285.5 776,-285.5 776,-266.5 724,-266.5"/>
<text text-anchor="middle" x="750" y="-273.5" font-family="Helvetica,sans-Serif" font-size="10.00">str::split</text>
</a>
</g>
</g>
<!-- Node8&#45;&gt;Node9 -->
<g id="edge8" class="edge">
<title>Node8&#45;&gt;Node9</title>
<path fill="none" stroke="midnightblue" d="M625.51,-332.4C650.02,-321.21 690.73,-302.62 718.66,-289.86"/>
<polygon fill="midnightblue" stroke="midnightblue" points="720.32,-292.95 727.96,-285.61 717.41,-286.58 720.32,-292.95"/>
</g>
<!-- Node9&#45;&gt;Node2 -->
<g id="edge9" class="edge">
<title>Node9&#45;&gt;Node2</title>
<path fill="none" stroke="midnightblue" d="M776.26,-269.66C793.77,-265.49 817.67,-260.22 839,-257 935.17,-242.49 959.74,-238 1057,-238 1057,-238 1057,-238 1395,-238 1490.83,-238 1603.32,-228.48 1660.87,-222.92"/>
<polygon fill="midnightblue" stroke="midnightblue" points="1661.35,-226.39 1670.96,-221.93 1660.66,-219.42 1661.35,-226.39"/>
</g>
<!-- Node10 -->
<g id="node10" class="node">
<title>Node10</title>
<g id="a_node10"><a xlink:href="namespacestr.html#a4b4d986113337f946299cef82449cf52" target="_top" xlink:title=" ">
<polygon fill="white" stroke="black" points="874,-266.5 874,-285.5 924,-285.5 924,-266.5 874,-266.5"/>
<text text-anchor="middle" x="899" y="-273.5" font-family="Helvetica,sans-Serif" font-size="10.00">str::find</text>
</a>
</g>
</g>
<!-- Node9&#45;&gt;Node10 -->
<g id="edge10" class="edge">
<title>Node9&#45;&gt;Node10</title>
<path fill="none" stroke="midnightblue" d="M776.27,-276C800.33,-276 836.73,-276 863.47,-276"/>
<polygon fill="midnightblue" stroke="midnightblue" points="863.55,-279.5 873.55,-276 863.55,-272.5 863.55,-279.5"/>
</g>
<!-- Node12 -->
<g id="node12" class="node">
<title>Node12</title>
<g id="a_node12"><a xlink:href="namespaceconsole_1_1out.html#a8f791bfac54067cadb1b9f18117b987b" target="_top" xlink:title=" ">
<polygon fill="white" stroke="black" points="697,-323.5 697,-342.5 803,-342.5 803,-323.5 697,-323.5"/>
<text text-anchor="middle" x="750" y="-330.5" font-family="Helvetica,sans-Serif" font-size="10.00">console::out::printVa</text>
</a>
</g>
</g>
<!-- Node11&#45;&gt;Node12 -->
<g id="edge12" class="edge">
<title>Node11&#45;&gt;Node12</title>
<path fill="none" stroke="midnightblue" d="M505.56,-308.12C546.52,-311.81 607.75,-317.47 661,-323 669.35,-323.87 678.15,-324.82 686.82,-325.78"/>
<polygon fill="midnightblue" stroke="midnightblue" points="686.57,-329.28 696.9,-326.91 687.35,-322.32 686.57,-329.28"/>
</g>
<!-- Node13 -->
<g id="node13" class="node">
<title>Node13</title>
<g id="a_node13"><a xlink:href="namespaceconsole_1_1ge.html#af642934cb833142f133285fdb75ef7b7" target="_top" xlink:title=" ">
<polygon fill="white" stroke="black" points="839,-399.5 839,-418.5 959,-418.5 959,-399.5 839,-399.5"/>
<text text-anchor="middle" x="899" y="-406.5" font-family="Helvetica,sans-Serif" font-size="10.00">console::ge::printFmtVa</text>
</a>
</g>
</g>
<!-- Node12&#45;&gt;Node13 -->
<g id="edge13" class="edge">
<title>Node12&#45;&gt;Node13</title>
<path fill="none" stroke="midnightblue" d="M769.62,-342.63C795.13,-355.82 841.15,-379.61 870.6,-394.83"/>
<polygon fill="midnightblue" stroke="midnightblue" points="869.04,-397.97 879.53,-399.45 872.26,-391.75 869.04,-397.97"/>
</g>
<!-- Node12&#45;&gt;Node19 -->
<g id="edge30" class="edge">
<title>Node12&#45;&gt;Node19</title>
<path fill="none" stroke="midnightblue" d="M789.47,-323.44C858.98,-308.2 1008.74,-284.71 1121,-333 1142.37,-342.19 1140.12,-355 1157,-371 1172.24,-385.44 1190.43,-400.81 1204.01,-411.95"/>
<polygon fill="midnightblue" stroke="midnightblue" points="1201.84,-414.69 1211.8,-418.29 1206.25,-409.26 1201.84,-414.69"/>
</g>
<!-- Node13&#45;&gt;Node2 -->
<g id="edge16" class="edge">
<title>Node13&#45;&gt;Node2</title>
<path fill="none" stroke="midnightblue" d="M908.25,-399.41C923.44,-382.52 957.71,-347.84 995,-333 1089.89,-295.24 1121.87,-314 1224,-314 1224,-314 1224,-314 1395,-314 1505.17,-314 1532.07,-291.27 1635,-252 1648.23,-246.95 1662.28,-239.91 1673.84,-233.63"/>
<polygon fill="midnightblue" stroke="midnightblue" points="1675.86,-236.51 1682.89,-228.59 1672.45,-230.4 1675.86,-236.51"/>
</g>
<!-- Node14 -->
<g id="node14" class="node">
<title>Node14</title>
<g id="a_node14"><a xlink:href="printfmt_8cc.html#a708ec6ee2b8bd2d7a453d8d9436ed3b3" target="_top" xlink:title=" ">
<polygon fill="white" stroke="black" points="1029,-494.5 1029,-513.5 1087,-513.5 1087,-494.5 1029,-494.5"/>
<text text-anchor="middle" x="1058" y="-501.5" font-family="Helvetica,sans-Serif" font-size="10.00">_getIntVa</text>
</a>
</g>
</g>
<!-- Node13&#45;&gt;Node14 -->
<g id="edge14" class="edge">
<title>Node13&#45;&gt;Node14</title>
<path fill="none" stroke="midnightblue" d="M909.37,-418.57C925.48,-434.5 960.08,-466.55 995,-485 1002.5,-488.96 1010.96,-492.24 1019.16,-494.89"/>
<polygon fill="midnightblue" stroke="midnightblue" points="1018.37,-498.31 1028.95,-497.82 1020.37,-491.6 1018.37,-498.31"/>
</g>
<!-- Node15 -->
<g id="node15" class="node">
<title>Node15</title>
<g id="a_node15"><a xlink:href="printfmt_8cc.html#af4b46892c76c8bfd27efdb20847eb7c8" target="_top" xlink:title=" ">
<polygon fill="white" stroke="black" points="1025.5,-456.5 1025.5,-475.5 1090.5,-475.5 1090.5,-456.5 1025.5,-456.5"/>
<text text-anchor="middle" x="1058" y="-463.5" font-family="Helvetica,sans-Serif" font-size="10.00">_getUIntVa</text>
</a>
</g>
</g>
<!-- Node13&#45;&gt;Node15 -->
<g id="edge15" class="edge">
<title>Node13&#45;&gt;Node15</title>
<path fill="none" stroke="midnightblue" d="M922.45,-418.59C941.57,-426.62 969.87,-438.14 995,-447 1001.56,-449.31 1008.57,-451.62 1015.43,-453.78"/>
<polygon fill="midnightblue" stroke="midnightblue" points="1014.71,-457.22 1025.29,-456.84 1016.78,-450.54 1014.71,-457.22"/>
</g>
<!-- Node16 -->
<g id="node16" class="node">
<title>Node16</title>
<g id="a_node16"><a xlink:href="printfmt_8cc.html#a0e3e484ece5e75b9f5fbe337f0ae8ae3" target="_top" xlink:title=" ">
<polygon fill="white" stroke="black" points="1031.5,-342.5 1031.5,-361.5 1084.5,-361.5 1084.5,-342.5 1031.5,-342.5"/>
<text text-anchor="middle" x="1058" y="-349.5" font-family="Helvetica,sans-Serif" font-size="10.00">describe</text>
</a>
</g>
</g>
<!-- Node13&#45;&gt;Node16 -->
<g id="edge17" class="edge">
<title>Node13&#45;&gt;Node16</title>
<path fill="none" stroke="midnightblue" d="M926.28,-399.46C952.44,-389.96 992.76,-375.32 1021.7,-364.82"/>
<polygon fill="midnightblue" stroke="midnightblue" points="1023.21,-367.99 1031.42,-361.29 1020.82,-361.41 1023.21,-367.99"/>
</g>
<!-- Node18 -->
<g id="node18" class="node">
<title>Node18</title>
<g id="a_node18"><a xlink:href="namespaceconsole_1_1ge.html#a7e301813fd34fde772376afc5fdad95d" target="_top" xlink:title=" ">
<polygon fill="white" stroke="black" points="995,-418.5 995,-437.5 1121,-437.5 1121,-418.5 995,-418.5"/>
<text text-anchor="middle" x="1058" y="-425.5" font-family="Helvetica,sans-Serif" font-size="10.00">console::ge::printNumber</text>
</a>
</g>
</g>
<!-- Node13&#45;&gt;Node18 -->
<g id="edge19" class="edge">
<title>Node13&#45;&gt;Node18</title>
<path fill="none" stroke="midnightblue" d="M959.35,-416.18C967.72,-417.2 976.39,-418.24 984.96,-419.28"/>
<polygon fill="midnightblue" stroke="midnightblue" points="984.6,-422.76 994.95,-420.49 985.44,-415.81 984.6,-422.76"/>
</g>
<!-- Node13&#45;&gt;Node19 -->
<g id="edge29" class="edge">
<title>Node13&#45;&gt;Node19</title>
<path fill="none" stroke="midnightblue" d="M959.23,-406.08C1003.81,-404.59 1066.36,-404 1121,-409 1137.8,-410.54 1155.94,-413.45 1172.25,-416.55"/>
<polygon fill="midnightblue" stroke="midnightblue" points="1171.66,-420 1182.15,-418.49 1173.01,-413.13 1171.66,-420"/>
</g>
<!-- Node17 -->
<g id="node17" class="node">
<title>Node17</title>
<g id="a_node17"><a xlink:href="namespacemonitor.html#a318993193c866642f8389a1c1f285739" target="_top" xlink:title=" ">
<polygon fill="white" stroke="black" points="1188,-342.5 1188,-361.5 1262,-361.5 1262,-342.5 1188,-342.5"/>
<text text-anchor="middle" x="1225" y="-349.5" font-family="Helvetica,sans-Serif" font-size="10.00">monitor::fuck</text>
</a>
</g>
</g>
<!-- Node16&#45;&gt;Node17 -->
<g id="edge18" class="edge">
<title>Node16&#45;&gt;Node17</title>
<path fill="none" stroke="midnightblue" d="M1084.78,-352C1109.59,-352 1147.66,-352 1177.73,-352"/>
<polygon fill="midnightblue" stroke="midnightblue" points="1177.99,-355.5 1187.99,-352 1177.99,-348.5 1177.99,-355.5"/>
</g>
<!-- Node18&#45;&gt;Node19 -->
<g id="edge20" class="edge">
<title>Node18&#45;&gt;Node19</title>
<path fill="none" stroke="midnightblue" d="M1121.38,-428C1133.86,-428 1146.99,-428 1159.53,-428"/>
<polygon fill="midnightblue" stroke="midnightblue" points="1159.91,-431.5 1169.91,-428 1159.91,-424.5 1159.91,-431.5"/>
</g>
<!-- Node20 -->
<g id="node20" class="node">
<title>Node20</title>
<g id="a_node20"><a xlink:href="namespaceconsole_1_1serial.html#a3a7c1f95ae3c24136ea63bb31fdf0391" target="_top" xlink:title=" ">
<polygon fill="white" stroke="black" points="1334,-418.5 1334,-437.5 1454,-437.5 1454,-418.5 1334,-418.5"/>
<text text-anchor="middle" x="1394" y="-425.5" font-family="Helvetica,sans-Serif" font-size="10.00">console::serial::putChar</text>
</a>
</g>
</g>
<!-- Node19&#45;&gt;Node20 -->
<g id="edge21" class="edge">
<title>Node19&#45;&gt;Node20</title>
<path fill="none" stroke="midnightblue" d="M1280.22,-428C1294.02,-428 1309.03,-428 1323.47,-428"/>
<polygon fill="midnightblue" stroke="midnightblue" points="1323.86,-431.5 1333.86,-428 1323.86,-424.5 1323.86,-431.5"/>
</g>
<!-- Node23 -->
<g id="node23" class="node">
<title>Node23</title>
<g id="a_node23"><a xlink:href="namespaceconsole_1_1cga.html#afa19057ca041b39682d5d4831c43dfa0" target="_top" xlink:title=" ">
<polygon fill="white" stroke="black" points="1337.5,-380.5 1337.5,-399.5 1450.5,-399.5 1450.5,-380.5 1337.5,-380.5"/>
<text text-anchor="middle" x="1394" y="-387.5" font-family="Helvetica,sans-Serif" font-size="10.00">console::cga::putChar</text>
</a>
</g>
</g>
<!-- Node19&#45;&gt;Node23 -->
<g id="edge24" class="edge">
<title>Node19&#45;&gt;Node23</title>
<path fill="none" stroke="midnightblue" d="M1268.14,-418.41C1290.38,-413.35 1317.85,-407.1 1341.36,-401.75"/>
<polygon fill="midnightblue" stroke="midnightblue" points="1342.19,-405.15 1351.16,-399.52 1340.63,-398.33 1342.19,-405.15"/>
</g>
<!-- Node21 -->
<g id="node21" class="node">
<title>Node21</title>
<g id="a_node21"><a xlink:href="namespaceconsole_1_1serial.html#aa5605d4537106bb1c2bab72d7d1a5824" target="_top" xlink:title=" ">
<polygon fill="white" stroke="black" points="1513,-418.5 1513,-437.5 1617,-437.5 1617,-418.5 1513,-418.5"/>
<text text-anchor="middle" x="1565" y="-425.5" font-family="Helvetica,sans-Serif" font-size="10.00">console::serial::sout</text>
</a>
</g>
</g>
<!-- Node20&#45;&gt;Node21 -->
<g id="edge22" class="edge">
<title>Node20&#45;&gt;Node21</title>
<path fill="none" stroke="midnightblue" d="M1454.11,-428C1469.8,-428 1486.79,-428 1502.6,-428"/>
<polygon fill="midnightblue" stroke="midnightblue" points="1502.8,-431.5 1512.8,-428 1502.8,-424.5 1502.8,-431.5"/>
</g>
<!-- Node22 -->
<g id="node22" class="node">
<title>Node22</title>
<g id="a_node22"><a xlink:href="x86_8h.html#ade961b44e45ddacbc3c3b7609cf36dc6" target="_top" xlink:title=" ">
<polygon fill="white" stroke="black" points="1682.5,-399.5 1682.5,-418.5 1717.5,-418.5 1717.5,-399.5 1682.5,-399.5"/>
<text text-anchor="middle" x="1700" y="-406.5" font-family="Helvetica,sans-Serif" font-size="10.00">outb</text>
</a>
</g>
</g>
<!-- Node21&#45;&gt;Node22 -->
<g id="edge23" class="edge">
<title>Node21&#45;&gt;Node22</title>
<path fill="none" stroke="midnightblue" d="M1617.04,-420.71C1635.85,-418.02 1656.4,-415.09 1672.22,-412.83"/>
<polygon fill="midnightblue" stroke="midnightblue" points="1672.94,-416.26 1682.34,-411.38 1671.95,-409.33 1672.94,-416.26"/>
</g>
<!-- Node24 -->
<g id="node24" class="node">
<title>Node24</title>
<g id="a_node24"><a xlink:href="namespacemem.html#a64d9d05b439041901498c606de606431" target="_top" xlink:title=" ">
<polygon fill="white" stroke="black" points="1532.5,-342.5 1532.5,-361.5 1597.5,-361.5 1597.5,-342.5 1532.5,-342.5"/>
<text text-anchor="middle" x="1565" y="-349.5" font-family="Helvetica,sans-Serif" font-size="10.00">mem::copy</text>
</a>
</g>
</g>
<!-- Node23&#45;&gt;Node24 -->
<g id="edge25" class="edge">
<title>Node23&#45;&gt;Node24</title>
<path fill="none" stroke="midnightblue" d="M1437.65,-380.41C1463.63,-374.57 1496.68,-367.14 1522.46,-361.34"/>
<polygon fill="midnightblue" stroke="midnightblue" points="1523.32,-364.74 1532.31,-359.13 1521.78,-357.91 1523.32,-364.74"/>
</g>
<!-- Node25 -->
<g id="node25" class="node">
<title>Node25</title>
<g id="a_node25"><a xlink:href="namespaceconsole_1_1cga.html#a06463d4dc68819e30615ba299d02a78f" target="_top" xlink:title=" ">
<polygon fill="white" stroke="black" points="1495,-380.5 1495,-399.5 1635,-399.5 1635,-380.5 1495,-380.5"/>
<text text-anchor="middle" x="1565" y="-387.5" font-family="Helvetica,sans-Serif" font-size="10.00">console::cga::cursorRefresh</text>
</a>
</g>
</g>
<!-- Node23&#45;&gt;Node25 -->
<g id="edge27" class="edge">
<title>Node23&#45;&gt;Node25</title>
<path fill="none" stroke="midnightblue" d="M1450.81,-390C1461.74,-390 1473.39,-390 1484.92,-390"/>
<polygon fill="midnightblue" stroke="midnightblue" points="1484.99,-393.5 1494.99,-390 1484.99,-386.5 1484.99,-393.5"/>
</g>
<!-- Node24&#45;&gt;Node2 -->
<g id="edge26" class="edge">
<title>Node24&#45;&gt;Node2</title>
<path fill="none" stroke="midnightblue" d="M1597.55,-346.02C1610.22,-342.42 1624.31,-336.77 1635,-328 1664.4,-303.87 1683.33,-262.44 1692.49,-238.2"/>
<polygon fill="midnightblue" stroke="midnightblue" points="1695.82,-239.28 1695.91,-228.68 1689.23,-236.91 1695.82,-239.28"/>
</g>
<!-- Node25&#45;&gt;Node22 -->
<g id="edge28" class="edge">
<title>Node25&#45;&gt;Node22</title>
<path fill="none" stroke="midnightblue" d="M1632.89,-399.56C1646.81,-401.54 1660.71,-403.53 1672.15,-405.16"/>
<polygon fill="midnightblue" stroke="midnightblue" points="1671.88,-408.66 1682.28,-406.61 1672.87,-401.73 1671.88,-408.66"/>
</g>
<!-- Node27 -->
<g id="node27" class="node">
<title>Node27</title>
<g id="a_node27"><a xlink:href="namespaceconsole_1_1err.html#a4cd18e4c409b5b17ecec61ce83b05fba" target="_top" xlink:title=" ">
<polygon fill="white" stroke="black" points="698,-570.5 698,-589.5 802,-589.5 802,-570.5 698,-570.5"/>
<text text-anchor="middle" x="750" y="-577.5" font-family="Helvetica,sans-Serif" font-size="10.00">console::err::printVa</text>
</a>
</g>
</g>
<!-- Node26&#45;&gt;Node27 -->
<g id="edge32" class="edge">
<title>Node26&#45;&gt;Node27</title>
<path fill="none" stroke="midnightblue" d="M504.31,-539.5C553.65,-547.67 632.84,-560.77 687.71,-569.85"/>
<polygon fill="midnightblue" stroke="midnightblue" points="687.22,-573.32 697.65,-571.5 688.36,-566.42 687.22,-573.32"/>
</g>
<!-- Node27&#45;&gt;Node13 -->
<g id="edge33" class="edge">
<title>Node27&#45;&gt;Node13</title>
<path fill="none" stroke="midnightblue" d="M759.32,-570.32C783.28,-542.45 852.61,-461.8 883.2,-426.22"/>
<polygon fill="midnightblue" stroke="midnightblue" points="885.9,-428.44 889.77,-418.58 880.59,-423.88 885.9,-428.44"/>
</g>
<!-- Node27&#45;&gt;Node19 -->
<g id="edge34" class="edge">
<title>Node27&#45;&gt;Node19</title>
<path fill="none" stroke="midnightblue" d="M802.28,-589.03C877.02,-599.57 1018.17,-609.4 1121,-556 1167.65,-531.78 1200.51,-476.1 1215.26,-446.81"/>
<polygon fill="midnightblue" stroke="midnightblue" points="1218.49,-448.17 1219.72,-437.64 1212.2,-445.11 1218.49,-448.17"/>
</g>
<!-- Node29 -->
<g id="node29" class="node">
<title>Node29</title>
<g id="a_node29"><a xlink:href="namespaceconsole_1_1in.html#ac28354dad0498aa6bb0c178b10d62c8a" target="_top" xlink:title=" ">
<polygon fill="white" stroke="black" points="546,-408.5 546,-427.5 661,-427.5 661,-408.5 546,-408.5"/>
<text text-anchor="middle" x="603.5" y="-415.5" font-family="Helvetica,sans-Serif" font-size="10.00">console::in::readlineVa</text>
</a>
</g>
</g>
<!-- Node28&#45;&gt;Node29 -->
<g id="edge36" class="edge">
<title>Node28&#45;&gt;Node29</title>
<path fill="none" stroke="midnightblue" d="M510.4,-418C518.52,-418 527.02,-418 535.43,-418"/>
<polygon fill="midnightblue" stroke="midnightblue" points="535.62,-421.5 545.62,-418 535.62,-414.5 535.62,-421.5"/>
</g>
<!-- Node29&#45;&gt;Node12 -->
<g id="edge38" class="edge">
<title>Node29&#45;&gt;Node12</title>
<path fill="none" stroke="midnightblue" d="M638.69,-408.46C646.23,-405.82 654.04,-402.66 661,-399 687.05,-385.3 713.64,-364.18 730.66,-349.53"/>
<polygon fill="midnightblue" stroke="midnightblue" points="733.43,-351.76 738.64,-342.53 728.82,-346.49 733.43,-351.76"/>
</g>
<!-- Node29&#45;&gt;Node19 -->
<g id="edge39" class="edge">
<title>Node29&#45;&gt;Node19</title>
<path fill="none" stroke="midnightblue" d="M620.7,-427.73C685.69,-465.47 933.07,-596.43 1121,-523 1160.61,-507.52 1194.15,-468.89 1211.44,-445.94"/>
<polygon fill="midnightblue" stroke="midnightblue" points="1214.37,-447.86 1217.44,-437.72 1208.72,-443.73 1214.37,-447.86"/>
</g>
<!-- Node30 -->
<g id="node30" class="node">
<title>Node30</title>
<g id="a_node30"><a xlink:href="namespaceconsole_1_1in.html#a6fc069f2bc57fda183e3b991c31ec5a7" target="_top" xlink:title=" ">
<polygon fill="white" stroke="black" points="698,-408.5 698,-427.5 802,-427.5 802,-408.5 698,-408.5"/>
<text text-anchor="middle" x="750" y="-415.5" font-family="Helvetica,sans-Serif" font-size="10.00">console::in::getChar</text>
</a>
</g>
</g>
<!-- Node29&#45;&gt;Node30 -->
<g id="edge37" class="edge">
<title>Node29&#45;&gt;Node30</title>
<path fill="none" stroke="midnightblue" d="M661.2,-418C669.83,-418 678.78,-418 687.52,-418"/>
<polygon fill="midnightblue" stroke="midnightblue" points="687.64,-421.5 697.64,-418 687.64,-414.5 687.64,-421.5"/>
</g>
<!-- Node32 -->
<g id="node32" class="node">
<title>Node32</title>
<g id="a_node32"><a xlink:href="namespacevmem_1_1pgdir.html#a933a8f939084dabdb1a4b5401bebf8d7" target="_top" xlink:title=" ">
<polygon fill="white" stroke="black" points="1004.5,-85.5 1004.5,-104.5 1111.5,-104.5 1111.5,-85.5 1004.5,-85.5"/>
<text text-anchor="middle" x="1058" y="-92.5" font-family="Helvetica,sans-Serif" font-size="10.00">vmem::pgdir::findPte</text>
</a>
</g>
</g>
<!-- Node31&#45;&gt;Node32 -->
<g id="edge44" class="edge">
<title>Node31&#45;&gt;Node32</title>
<path fill="none" stroke="midnightblue" d="M258.18,-120.32C310.85,-117.47 388.9,-114 457,-114 457,-114 457,-114 751,-114 835.33,-114 932.48,-106.72 994.28,-101.18"/>
<polygon fill="midnightblue" stroke="midnightblue" points="994.62,-104.66 1004.27,-100.27 993.99,-97.69 994.62,-104.66"/>
</g>
<!-- Node33 -->
<g id="node33" class="node">
<title>Node33</title>
<g id="a_node33"><a xlink:href="structvmem_1_1_page_info.html#afcdcb7e941219a8ec999353658e3c2aa" target="_top" xlink:title=" ">
<polygon fill="white" stroke="black" points="1167.5,-114.5 1167.5,-133.5 1282.5,-133.5 1282.5,-114.5 1167.5,-114.5"/>
<text text-anchor="middle" x="1225" y="-121.5" font-family="Helvetica,sans-Serif" font-size="10.00">vmem::PageInfo::alloc</text>
</a>
</g>
</g>
<!-- Node32&#45;&gt;Node33 -->
<g id="edge45" class="edge">
<title>Node32&#45;&gt;Node33</title>
<path fill="none" stroke="midnightblue" d="M1111.66,-104.26C1126.9,-106.93 1143.71,-109.89 1159.59,-112.68"/>
<polygon fill="midnightblue" stroke="midnightblue" points="1159.4,-116.2 1169.85,-114.48 1160.61,-109.31 1159.4,-116.2"/>
</g>
<!-- Node34 -->
<g id="node34" class="node">
<title>Node34</title>
<g id="a_node34"><a xlink:href="namespacemem.html#a981dd0cb1408b798a79443c6245e9c55" target="_top" xlink:title=" ">
<polygon fill="white" stroke="black" points="1361.5,-133.5 1361.5,-152.5 1426.5,-152.5 1426.5,-133.5 1361.5,-133.5"/>
<text text-anchor="middle" x="1394" y="-140.5" font-family="Helvetica,sans-Serif" font-size="10.00">mem::clear</text>
</a>
</g>
</g>
<!-- Node32&#45;&gt;Node34 -->
<g id="edge52" class="edge">
<title>Node32&#45;&gt;Node34</title>
<path fill="none" stroke="midnightblue" d="M1073.16,-104.53C1091.54,-116.28 1125.07,-135.6 1157,-143 1223.56,-158.43 1303.55,-153.75 1351.23,-148.62"/>
<polygon fill="midnightblue" stroke="midnightblue" points="1351.64,-152.1 1361.18,-147.49 1350.85,-145.14 1351.64,-152.1"/>
</g>
<!-- Node36 -->
<g id="node36" class="node">
<title>Node36</title>
<g id="a_node36"><a xlink:href="structvmem_1_1_page_info.html#afc863f1d364462ddd2c20bf31f588337" target="_top" xlink:title=" ">
<polygon fill="white" stroke="black" points="1329,-76.5 1329,-95.5 1459,-95.5 1459,-76.5 1329,-76.5"/>
<text text-anchor="middle" x="1394" y="-83.5" font-family="Helvetica,sans-Serif" font-size="10.00">vmem::PageInfo::toKernV</text>
</a>
</g>
</g>
<!-- Node32&#45;&gt;Node36 -->
<g id="edge55" class="edge">
<title>Node32&#45;&gt;Node36</title>
<path fill="none" stroke="midnightblue" d="M1111.55,-93.58C1167.24,-92.08 1255.64,-89.7 1318.5,-88.01"/>
<polygon fill="midnightblue" stroke="midnightblue" points="1318.85,-91.5 1328.75,-87.73 1318.66,-84.5 1318.85,-91.5"/>
</g>
<!-- Node37 -->
<g id="node37" class="node">
<title>Node37</title>
<g id="a_node37"><a xlink:href="structvmem_1_1_page_info.html#accf2071c7875c29c9aa78a01ef5963a1" target="_top" xlink:title=" ">
<polygon fill="white" stroke="black" points="1505,-57.5 1505,-76.5 1625,-76.5 1625,-57.5 1505,-57.5"/>
<text text-anchor="middle" x="1565" y="-64.5" font-family="Helvetica,sans-Serif" font-size="10.00">vmem::PageInfo::toPhy</text>
</a>
</g>
</g>
<!-- Node32&#45;&gt;Node37 -->
<g id="edge56" class="edge">
<title>Node32&#45;&gt;Node37</title>
<path fill="none" stroke="midnightblue" d="M1111.65,-87.91C1165.97,-80.98 1253.23,-70.92 1329,-67 1384.61,-64.12 1447.72,-64.31 1494.53,-65.12"/>
<polygon fill="midnightblue" stroke="midnightblue" points="1494.5,-68.62 1504.56,-65.31 1494.63,-61.62 1494.5,-68.62"/>
</g>
<!-- Node38 -->
<g id="node38" class="node">
<title>Node38</title>
<g id="a_node38"><a xlink:href="namespacevmem_1_1pgdir.html#a972bb045d4c58b0ea9c569e05831bbb6" target="_top" xlink:title=" ">
<polygon fill="white" stroke="black" points="1157,-0.5 1157,-19.5 1293,-19.5 1293,-0.5 1157,-0.5"/>
<text text-anchor="middle" x="1225" y="-7.5" font-family="Helvetica,sans-Serif" font-size="10.00">vmem::pgdir::invalidateTLB</text>
</a>
</g>
</g>
<!-- Node32&#45;&gt;Node38 -->
<g id="edge53" class="edge">
<title>Node32&#45;&gt;Node38</title>
<path fill="none" stroke="midnightblue" d="M1072.43,-85.35C1090.83,-72.43 1125.25,-49.35 1157,-34 1165.41,-29.93 1174.71,-26.17 1183.62,-22.89"/>
<polygon fill="midnightblue" stroke="midnightblue" points="1184.83,-26.18 1193.09,-19.53 1182.49,-19.58 1184.83,-26.18"/>
</g>
<!-- Node33&#45;&gt;Node34 -->
<g id="edge46" class="edge">
<title>Node33&#45;&gt;Node34</title>
<path fill="none" stroke="midnightblue" d="M1282.54,-130.43C1305.04,-132.99 1330.47,-135.89 1351.26,-138.25"/>
<polygon fill="midnightblue" stroke="midnightblue" points="1351.02,-141.75 1361.36,-139.4 1351.82,-134.79 1351.02,-141.75"/>
</g>
<!-- Node33&#45;&gt;Node36 -->
<g id="edge50" class="edge">
<title>Node33&#45;&gt;Node36</title>
<path fill="none" stroke="midnightblue" d="M1268.14,-114.41C1290.38,-109.35 1317.85,-103.1 1341.36,-97.75"/>
<polygon fill="midnightblue" stroke="midnightblue" points="1342.19,-101.15 1351.16,-95.52 1340.63,-94.33 1342.19,-101.15"/>
</g>
<!-- Node34&#45;&gt;Node2 -->
<g id="edge47" class="edge">
<title>Node34&#45;&gt;Node2</title>
<path fill="none" stroke="midnightblue" d="M1426.82,-145.65C1473.5,-150.22 1562.84,-161.55 1635,-186 1648.73,-190.65 1663.16,-197.86 1674.83,-204.36"/>
<polygon fill="midnightblue" stroke="midnightblue" points="1673.12,-207.41 1683.54,-209.35 1676.61,-201.34 1673.12,-207.41"/>
</g>
<!-- Node35 -->
<g id="node35" class="node">
<title>Node35</title>
<g id="a_node35"><a xlink:href="namespacemem.html#adbaba9127c03fb914f752bfe19d6d089" target="_top" xlink:title=" ">
<polygon fill="white" stroke="black" points="1536,-114.5 1536,-133.5 1594,-133.5 1594,-114.5 1536,-114.5"/>
<text text-anchor="middle" x="1565" y="-121.5" font-family="Helvetica,sans-Serif" font-size="10.00">mem::set</text>
</a>
</g>
</g>
<!-- Node34&#45;&gt;Node35 -->
<g id="edge48" class="edge">
<title>Node34&#45;&gt;Node35</title>
<path fill="none" stroke="midnightblue" d="M1426.79,-139.43C1454.93,-136.26 1496.05,-131.64 1525.94,-128.28"/>
<polygon fill="midnightblue" stroke="midnightblue" points="1526.45,-131.74 1536,-127.15 1525.67,-124.79 1526.45,-131.74"/>
</g>
<!-- Node35&#45;&gt;Node2 -->
<g id="edge49" class="edge">
<title>Node35&#45;&gt;Node2</title>
<path fill="none" stroke="midnightblue" d="M1594,-130.29C1607.16,-134.08 1622.64,-139.79 1635,-148 1656.27,-162.12 1675.08,-184.9 1686.71,-200.84"/>
<polygon fill="midnightblue" stroke="midnightblue" points="1684.07,-203.17 1692.7,-209.32 1689.79,-199.13 1684.07,-203.17"/>
</g>
<!-- Node36&#45;&gt;Node37 -->
<g id="edge51" class="edge">
<title>Node36&#45;&gt;Node37</title>
<path fill="none" stroke="midnightblue" d="M1459.37,-78.76C1470.92,-77.46 1482.99,-76.11 1494.67,-74.79"/>
<polygon fill="midnightblue" stroke="midnightblue" points="1495.26,-78.25 1504.8,-73.66 1494.47,-71.29 1495.26,-78.25"/>
</g>
<!-- Node39 -->
<g id="node39" class="node">
<title>Node39</title>
<g id="a_node39"><a xlink:href="x86_8h.html#a2c1c4c8523ed258a75c563a8f94d1686" target="_top" xlink:title=" ">
<polygon fill="white" stroke="black" points="1373,-0.5 1373,-19.5 1415,-19.5 1415,-0.5 1373,-0.5"/>
<text text-anchor="middle" x="1394" y="-7.5" font-family="Helvetica,sans-Serif" font-size="10.00">invlpg</text>
</a>
</g>
</g>
<!-- Node38&#45;&gt;Node39 -->
<g id="edge54" class="edge">
<title>Node38&#45;&gt;Node39</title>
<path fill="none" stroke="midnightblue" d="M1293.44,-10C1317.58,-10 1343.58,-10 1362.95,-10"/>
<polygon fill="midnightblue" stroke="midnightblue" points="1362.98,-13.5 1372.98,-10 1362.98,-6.5 1362.98,-13.5"/>
</g>
</g>
</svg>
        <g id="navigator" transform="translate(0 0)" fill="#404254">
                <rect fill="#f2f5e9" fill-opacity="0.5" stroke="#606060" stroke-width=".5" x="0" y="0" width="60" height="60"/>
                <use id="zoomplus" xlink:href="#zoomPlus" x="17" y="9" onmousedown="handleZoom(evt,'in')"/>
                <use id="zoomminus" xlink:href="#zoomMin" x="42" y="9" onmousedown="handleZoom(evt,'out')"/>
                <use id="reset" xlink:href="#resetDef" x="30" y="36" onmousedown="handleReset()"/>
                <g id="arrowUp" xlink:href="#dirArrow" transform="translate(30 24)" onmousedown="handlePan(0,-1)">
                  <use xlink:href="#rim" fill="#404040">
                        <set attributeName="fill" to="#808080" begin="arrowUp.mouseover" end="arrowUp.mouseout"/>
                  </use>
                  <path fill="none" stroke="white" stroke-width="1.5" d="M0,-3.0v7 M-2.5,-0.5L0,-3.0L2.5,-0.5"/>
                </g>
                <g id="arrowRight" xlink:href="#dirArrow" transform="rotate(90) translate(36 -43)" onmousedown="handlePan(1,0)">
                  <use xlink:href="#rim" fill="#404040">
                        <set attributeName="fill" to="#808080" begin="arrowRight.mouseover" end="arrowRight.mouseout"/>
                  </use>
                  <path fill="none" stroke="white" stroke-width="1.5" d="M0,-3.0v7 M-2.5,-0.5L0,-3.0L2.5,-0.5"/>
                </g>
                <g id="arrowDown" xlink:href="#dirArrow" transform="rotate(180) translate(-30 -48)" onmousedown="handlePan(0,1)">
                  <use xlink:href="#rim" fill="#404040">
                        <set attributeName="fill" to="#808080" begin="arrowDown.mouseover" end="arrowDown.mouseout"/>
                  </use>
                  <path fill="none" stroke="white" stroke-width="1.5" d="M0,-3.0v7 M-2.5,-0.5L0,-3.0L2.5,-0.5"/>
                </g>
                <g id="arrowLeft" xlink:href="#dirArrow" transform="rotate(270) translate(-36 17)" onmousedown="handlePan(-1,0)">
                  <use xlink:href="#rim" fill="#404040">
                        <set attributeName="fill" to="#808080" begin="arrowLeft.mouseover" end="arrowLeft.mouseout"/>
                  </use>
                  <path fill="none" stroke="white" stroke-width="1.5" d="M0,-3.0v7 M-2.5,-0.5L0,-3.0L2.5,-0.5"/>
                </g>
        </g>
        <svg viewBox="0 0 15 15" width="100%" height="30px" preserveAspectRatio="xMaxYMin meet">
         <g id="arrow_out" transform="scale(0.3 0.3)">
          <a xlink:href="namespaceksyscall_a20b510ff748ce75bc0860b4ff4e15a60_cgraph_org.svg" target="_base">
           <rect id="button" ry="5" rx="5" y="6" x="6" height="38" width="38"
                fill="#f2f5e9" fill-opacity="0.5" stroke="#606060" stroke-width="1.0"/>
           <path id="arrow"
             d="M 11.500037,31.436501 C 11.940474,20.09759 22.043105,11.32322 32.158766,21.979434 L 37.068811,17.246167 C 37.068811,17.246167 37.088388,32 37.088388,32 L 22.160133,31.978069 C 22.160133,31.978069 26.997745,27.140456 26.997745,27.140456 C 18.528582,18.264221 13.291696,25.230495 11.500037,31.436501 z"
             style="fill:#404040;"/>
          </a>
         </g>
        </svg>
</svg>
