<?xml version="1.0" encoding="UTF-8" standalone="no"?>
<!DOCTYPE svg PUBLIC "-//W3C//DTD SVG 1.1//EN"
 "http://www.w3.org/Graphics/SVG/1.1/DTD/svg11.dtd">
<!-- Generated by graphviz version 2.44.1 (20200629.0846)
 -->
<!-- Title: console::_geUserConsolePutChar Pages: 1 -->
<svg width="2206pt" height="631pt"
 viewBox="0.00 0.00 2206.00 631.38" xmlns="http://www.w3.org/2000/svg" xmlns:xlink="http://www.w3.org/1999/xlink">
<g id="graph0" class="graph" transform="scale(1 1) rotate(0) translate(4 627.38)">
<title>console::_geUserConsolePutChar</title>
<polygon fill="white" stroke="transparent" points="-4,4 -4,-627.38 2202,-627.38 2202,4 -4,4"/>
<!-- Node1 -->
<g id="node1" class="node">
<title>Node1</title>
<g id="a_node1"><a xlink:title=" ">
<polygon fill="#bfbfbf" stroke="black" points="0,-256.5 0,-275.5 165,-275.5 165,-256.5 0,-256.5"/>
<text text-anchor="middle" x="82.5" y="-263.5" font-family="Helvetica,sans-Serif" font-size="10.00">console::_geUserConsolePutChar</text>
</a>
</g>
</g>
<!-- Node2 -->
<g id="node2" class="node">
<title>Node2</title>
<g id="a_node2"><a xlink:href="structconsole_1_1_print_buf.html#a3819e79b0285125e2e4c179af29006dc" target="_top" xlink:title=" ">
<polygon fill="white" stroke="black" points="201,-251 201,-281 299,-281 299,-251 201,-251"/>
<text text-anchor="start" x="209" y="-269" font-family="Helvetica,sans-Serif" font-size="10.00">console::PrintBuf::</text>
<text text-anchor="middle" x="250" y="-258" font-family="Helvetica,sans-Serif" font-size="10.00">putChar</text>
</a>
</g>
</g>
<!-- Node1&#45;&gt;Node2 -->
<g id="edge1" class="edge">
<title>Node1&#45;&gt;Node2</title>
<path fill="none" stroke="midnightblue" d="M165.28,-266C173.87,-266 182.47,-266 190.72,-266"/>
<polygon fill="midnightblue" stroke="midnightblue" points="190.95,-269.5 200.95,-266 190.95,-262.5 190.95,-269.5"/>
</g>
<!-- Node3 -->
<g id="node3" class="node">
<title>Node3</title>
<g id="a_node3"><a xlink:href="structconsole_1_1_print_buf.html#a956b11aeb8472c86c9fb4996bda4edaa" target="_top" xlink:title=" ">
<polygon fill="white" stroke="black" points="335,-251 335,-281 433,-281 433,-251 335,-251"/>
<text text-anchor="start" x="343" y="-269" font-family="Helvetica,sans-Serif" font-size="10.00">console::PrintBuf::</text>
<text text-anchor="middle" x="384" y="-258" font-family="Helvetica,sans-Serif" font-size="10.00">flush</text>
</a>
</g>
</g>
<!-- Node2&#45;&gt;Node3 -->
<g id="edge2" class="edge">
<title>Node2&#45;&gt;Node3</title>
<path fill="none" stroke="midnightblue" d="M299.03,-266C307.31,-266 316,-266 324.52,-266"/>
<polygon fill="midnightblue" stroke="midnightblue" points="324.79,-269.5 334.79,-266 324.79,-262.5 324.79,-269.5"/>
</g>
<!-- Node4 -->
<g id="node4" class="node">
<title>Node4</title>
<g id="a_node4"><a xlink:href="namespaceksyscall.html#a20b510ff748ce75bc0860b4ff4e15a60" target="_top" xlink:title=" ">
<polygon fill="white" stroke="black" points="469,-256.5 469,-275.5 567,-275.5 567,-256.5 469,-256.5"/>
<text text-anchor="middle" x="518" y="-263.5" font-family="Helvetica,sans-Serif" font-size="10.00">ksyscall::putString</text>
</a>
</g>
</g>
<!-- Node3&#45;&gt;Node4 -->
<g id="edge3" class="edge">
<title>Node3&#45;&gt;Node4</title>
<path fill="none" stroke="midnightblue" d="M433.03,-266C441.31,-266 450,-266 458.52,-266"/>
<polygon fill="midnightblue" stroke="midnightblue" points="458.79,-269.5 468.79,-266 458.79,-262.5 458.79,-269.5"/>
</g>
<!-- Node5 -->
<g id="node5" class="node">
<title>Node5</title>
<g id="a_node5"><a xlink:href="namespacestr.html#a062221f630647cf300f0dd982c4ed904" target="_top" xlink:title=" ">
<polygon fill="white" stroke="black" points="2140,-209.5 2140,-228.5 2198,-228.5 2198,-209.5 2140,-209.5"/>
<text text-anchor="middle" x="2169" y="-216.5" font-family="Helvetica,sans-Serif" font-size="10.00">str::count</text>
</a>
</g>
</g>
<!-- Node4&#45;&gt;Node5 -->
<g id="edge4" class="edge">
<title>Node4&#45;&gt;Node5</title>
<path fill="none" stroke="midnightblue" d="M542.98,-256.4C590.96,-238.1 702.53,-200 800,-200 800,-200 800,-200 1864,-200 1959.83,-200 2072.32,-209.52 2129.87,-215.08"/>
<polygon fill="midnightblue" stroke="midnightblue" points="2129.66,-218.58 2139.96,-216.07 2130.35,-211.61 2129.66,-218.58"/>
</g>
<!-- Node6 -->
<g id="node6" class="node">
<title>Node6</title>
<g id="a_node6"><a xlink:href="structtask_1_1_task.html#acc107ba9ef939a92f459873765fb73eb" target="_top" xlink:title=" ">
<polygon fill="white" stroke="black" points="614.5,-313.5 614.5,-332.5 715.5,-332.5 715.5,-313.5 614.5,-313.5"/>
<text text-anchor="middle" x="665" y="-320.5" font-family="Helvetica,sans-Serif" font-size="10.00">task::Task::destroy</text>
</a>
</g>
</g>
<!-- Node4&#45;&gt;Node6 -->
<g id="edge5" class="edge">
<title>Node4&#45;&gt;Node6</title>
<path fill="none" stroke="midnightblue" d="M543.27,-275.54C567.11,-284.91 603.68,-299.29 630.33,-309.76"/>
<polygon fill="midnightblue" stroke="midnightblue" points="629.06,-313.03 639.65,-313.43 631.62,-306.51 629.06,-313.03"/>
</g>
<!-- Node14 -->
<g id="node14" class="node">
<title>Node14</title>
<g id="a_node14"><a xlink:href="namespaceconsole_1_1out.html#ac6f663e3971b66b8e130ee94755a150e" target="_top" xlink:title=" ">
<polygon fill="white" stroke="black" points="879.5,-294.5 879.5,-313.5 974.5,-313.5 974.5,-294.5 879.5,-294.5"/>
<text text-anchor="middle" x="927" y="-301.5" font-family="Helvetica,sans-Serif" font-size="10.00">console::out::print</text>
</a>
</g>
</g>
<!-- Node4&#45;&gt;Node14 -->
<g id="edge44" class="edge">
<title>Node4&#45;&gt;Node14</title>
<path fill="none" stroke="midnightblue" d="M567.29,-270.51C642.76,-277.55 788.34,-291.15 868.9,-298.67"/>
<polygon fill="midnightblue" stroke="midnightblue" points="869.06,-302.2 879.34,-299.64 869.71,-295.23 869.06,-302.2"/>
</g>
<!-- Node22 -->
<g id="node22" class="node">
<title>Node22</title>
<g id="a_node22"><a xlink:href="namespaceconsole_1_1out.html#ad9fc97dff4404c2d21aedbb24691e7cb" target="_top" xlink:title=" ">
<polygon fill="white" stroke="black" points="1639,-418.5 1639,-437.5 1749,-437.5 1749,-418.5 1639,-418.5"/>
<text text-anchor="middle" x="1694" y="-425.5" font-family="Helvetica,sans-Serif" font-size="10.00">console::out::putChar</text>
</a>
</g>
</g>
<!-- Node4&#45;&gt;Node22 -->
<g id="edge45" class="edge">
<title>Node4&#45;&gt;Node22</title>
<path fill="none" stroke="midnightblue" d="M521.44,-275.78C536.29,-332.63 619.76,-618 800,-618 800,-618 800,-618 1369,-618 1468.12,-618 1506.38,-641.23 1590,-588 1643.06,-554.22 1674.17,-482.19 1686.63,-447.48"/>
<polygon fill="midnightblue" stroke="midnightblue" points="1690.08,-448.22 1690.02,-437.62 1683.46,-445.94 1690.08,-448.22"/>
</g>
<!-- Node34 -->
<g id="node34" class="node">
<title>Node34</title>
<g id="a_node34"><a xlink:href="namespacevmem_1_1pgdir.html#ac95ef4d1250d2d48baf0c3f907025f45" target="_top" xlink:title=" ">
<polygon fill="white" stroke="black" points="603,-114.5 603,-133.5 727,-133.5 727,-114.5 603,-114.5"/>
<text text-anchor="middle" x="665" y="-121.5" font-family="Helvetica,sans-Serif" font-size="10.00">vmem::pgdir::userCheck</text>
</a>
</g>
</g>
<!-- Node4&#45;&gt;Node34 -->
<g id="edge46" class="edge">
<title>Node4&#45;&gt;Node34</title>
<path fill="none" stroke="midnightblue" d="M528.97,-256.24C553.28,-232.43 615.9,-171.11 646.56,-141.08"/>
<polygon fill="midnightblue" stroke="midnightblue" points="649.27,-143.33 653.96,-133.83 644.37,-138.32 649.27,-143.33"/>
</g>
<!-- Node7 -->
<g id="node7" class="node">
<title>Node7</title>
<g id="a_node7"><a xlink:href="x86_8h.html#ab3bac932074f6042165d3016b701900a" target="_top" xlink:title=" ">
<polygon fill="white" stroke="black" points="785,-332.5 785,-351.5 817,-351.5 817,-332.5 785,-332.5"/>
<text text-anchor="middle" x="801" y="-339.5" font-family="Helvetica,sans-Serif" font-size="10.00">lcr3</text>
</a>
</g>
</g>
<!-- Node6&#45;&gt;Node7 -->
<g id="edge6" class="edge">
<title>Node6&#45;&gt;Node7</title>
<path fill="none" stroke="midnightblue" d="M715.52,-330.02C735.7,-332.88 758.16,-336.07 774.84,-338.43"/>
<polygon fill="midnightblue" stroke="midnightblue" points="774.5,-341.92 784.89,-339.86 775.48,-334.99 774.5,-341.92"/>
</g>
<!-- Node8 -->
<g id="node8" class="node">
<title>Node8</title>
<g id="a_node8"><a xlink:href="namespacemonitor.html#ac02f947e274eb7d38cdfa803c21ef579" target="_top" xlink:title=" ">
<polygon fill="white" stroke="black" points="763,-370.5 763,-389.5 839,-389.5 839,-370.5 763,-370.5"/>
<text text-anchor="middle" x="801" y="-377.5" font-family="Helvetica,sans-Serif" font-size="10.00">monitor::main</text>
</a>
</g>
</g>
<!-- Node6&#45;&gt;Node8 -->
<g id="edge7" class="edge">
<title>Node6&#45;&gt;Node8</title>
<path fill="none" stroke="midnightblue" d="M688.43,-332.54C710.27,-341.83 743.66,-356.04 768.23,-366.49"/>
<polygon fill="midnightblue" stroke="midnightblue" points="766.93,-369.73 777.5,-370.43 769.67,-363.29 766.93,-369.73"/>
</g>
<!-- Node6&#45;&gt;Node14 -->
<g id="edge43" class="edge">
<title>Node6&#45;&gt;Node14</title>
<path fill="none" stroke="midnightblue" d="M715.52,-319.38C759.35,-316.18 823.31,-311.5 869.2,-308.15"/>
<polygon fill="midnightblue" stroke="midnightblue" points="869.57,-311.63 879.29,-307.41 869.06,-304.65 869.57,-311.63"/>
</g>
<!-- Node9 -->
<g id="node9" class="node">
<title>Node9</title>
<g id="a_node9"><a xlink:href="namespacemonitor.html#a8b88ed0586263051a6af8dbff388e314" target="_top" xlink:title=" ">
<polygon fill="white" stroke="black" points="877,-370.5 877,-389.5 977,-389.5 977,-370.5 877,-370.5"/>
<text text-anchor="middle" x="927" y="-377.5" font-family="Helvetica,sans-Serif" font-size="10.00">monitor::parseCmd</text>
</a>
</g>
</g>
<!-- Node8&#45;&gt;Node9 -->
<g id="edge8" class="edge">
<title>Node8&#45;&gt;Node9</title>
<path fill="none" stroke="midnightblue" d="M839.2,-380C847.9,-380 857.38,-380 866.77,-380"/>
<polygon fill="midnightblue" stroke="midnightblue" points="866.88,-383.5 876.88,-380 866.88,-376.5 866.88,-383.5"/>
</g>
<!-- Node8&#45;&gt;Node14 -->
<g id="edge14" class="edge">
<title>Node8&#45;&gt;Node14</title>
<path fill="none" stroke="midnightblue" d="M821.79,-370.32C827.42,-367.44 833.51,-364.2 839,-361 861.72,-347.77 886.75,-331.15 904.1,-319.27"/>
<polygon fill="midnightblue" stroke="midnightblue" points="906.17,-322.1 912.42,-313.54 902.2,-316.33 906.17,-322.1"/>
</g>
<!-- Node29 -->
<g id="node29" class="node">
<title>Node29</title>
<g id="a_node29"><a xlink:href="namespaceconsole_1_1err.html#a124c7e8527c0e3fd2b9636411aea7e82" target="_top" xlink:title=" ">
<polygon fill="white" stroke="black" points="881,-522.5 881,-541.5 973,-541.5 973,-522.5 881,-522.5"/>
<text text-anchor="middle" x="927" y="-529.5" font-family="Helvetica,sans-Serif" font-size="10.00">console::err::print</text>
</a>
</g>
</g>
<!-- Node8&#45;&gt;Node29 -->
<g id="edge34" class="edge">
<title>Node8&#45;&gt;Node29</title>
<path fill="none" stroke="midnightblue" d="M809.76,-389.51C830.11,-414.46 885.3,-482.11 911.64,-514.39"/>
<polygon fill="midnightblue" stroke="midnightblue" points="909.21,-516.96 918.25,-522.5 914.64,-512.53 909.21,-516.96"/>
</g>
<!-- Node31 -->
<g id="node31" class="node">
<title>Node31</title>
<g id="a_node31"><a xlink:href="namespaceconsole_1_1in.html#afa763e7729f2e6fbdcf4c14e44ad7a29" target="_top" xlink:title=" ">
<polygon fill="white" stroke="black" points="875,-408.5 875,-427.5 979,-427.5 979,-408.5 875,-408.5"/>
<text text-anchor="middle" x="927" y="-415.5" font-family="Helvetica,sans-Serif" font-size="10.00">console::in::readline</text>
</a>
</g>
</g>
<!-- Node8&#45;&gt;Node31 -->
<g id="edge38" class="edge">
<title>Node8&#45;&gt;Node31</title>
<path fill="none" stroke="midnightblue" d="M833.29,-389.59C849,-394.4 868.24,-400.3 885.11,-405.47"/>
<polygon fill="midnightblue" stroke="midnightblue" points="884.13,-408.83 894.72,-408.41 886.18,-402.14 884.13,-408.83"/>
</g>
<!-- Node10 -->
<g id="node10" class="node">
<title>Node10</title>
<g id="a_node10"><a xlink:href="namespacestr.html#ace5edf7e67a558a1c4ead28a66faba41" target="_top" xlink:title=" ">
<polygon fill="white" stroke="black" points="1034.5,-370.5 1034.5,-389.5 1110.5,-389.5 1110.5,-370.5 1034.5,-370.5"/>
<text text-anchor="middle" x="1072.5" y="-377.5" font-family="Helvetica,sans-Serif" font-size="10.00">str::cmpCase</text>
</a>
</g>
</g>
<!-- Node9&#45;&gt;Node10 -->
<g id="edge9" class="edge">
<title>Node9&#45;&gt;Node10</title>
<path fill="none" stroke="midnightblue" d="M977.38,-380C992.54,-380 1009.16,-380 1024.17,-380"/>
<polygon fill="midnightblue" stroke="midnightblue" points="1024.27,-383.5 1034.27,-380 1024.27,-376.5 1024.27,-383.5"/>
</g>
<!-- Node11 -->
<g id="node11" class="node">
<title>Node11</title>
<g id="a_node11"><a xlink:href="namespacestr.html#a12522233f7d73122d76de5c82e44a183" target="_top" xlink:title=" ">
<polygon fill="white" stroke="black" points="1039,-332.5 1039,-351.5 1106,-351.5 1106,-332.5 1039,-332.5"/>
<text text-anchor="middle" x="1072.5" y="-339.5" font-family="Helvetica,sans-Serif" font-size="10.00">str::splitWs</text>
</a>
</g>
</g>
<!-- Node9&#45;&gt;Node11 -->
<g id="edge10" class="edge">
<title>Node9&#45;&gt;Node11</title>
<path fill="none" stroke="midnightblue" d="M964.21,-370.41C983.9,-365.2 1008.38,-358.72 1028.97,-353.26"/>
<polygon fill="midnightblue" stroke="midnightblue" points="1029.96,-356.62 1038.74,-350.68 1028.17,-349.85 1029.96,-356.62"/>
</g>
<!-- Node12 -->
<g id="node12" class="node">
<title>Node12</title>
<g id="a_node12"><a xlink:href="namespacestr.html#a0e183e333ba05550c6b206906dbf0f10" target="_top" xlink:title=" ">
<polygon fill="white" stroke="black" points="1193,-266.5 1193,-285.5 1245,-285.5 1245,-266.5 1193,-266.5"/>
<text text-anchor="middle" x="1219" y="-273.5" font-family="Helvetica,sans-Serif" font-size="10.00">str::split</text>
</a>
</g>
</g>
<!-- Node11&#45;&gt;Node12 -->
<g id="edge11" class="edge">
<title>Node11&#45;&gt;Node12</title>
<path fill="none" stroke="midnightblue" d="M1094.51,-332.4C1119.02,-321.21 1159.73,-302.62 1187.66,-289.86"/>
<polygon fill="midnightblue" stroke="midnightblue" points="1189.32,-292.95 1196.96,-285.61 1186.41,-286.58 1189.32,-292.95"/>
</g>
<!-- Node12&#45;&gt;Node5 -->
<g id="edge12" class="edge">
<title>Node12&#45;&gt;Node5</title>
<path fill="none" stroke="midnightblue" d="M1245.26,-269.66C1262.77,-265.49 1286.67,-260.22 1308,-257 1404.17,-242.49 1428.74,-238 1526,-238 1526,-238 1526,-238 1864,-238 1959.83,-238 2072.32,-228.48 2129.87,-222.92"/>
<polygon fill="midnightblue" stroke="midnightblue" points="2130.35,-226.39 2139.96,-221.93 2129.66,-219.42 2130.35,-226.39"/>
</g>
<!-- Node13 -->
<g id="node13" class="node">
<title>Node13</title>
<g id="a_node13"><a xlink:href="namespacestr.html#a4b4d986113337f946299cef82449cf52" target="_top" xlink:title=" ">
<polygon fill="white" stroke="black" points="1343,-266.5 1343,-285.5 1393,-285.5 1393,-266.5 1343,-266.5"/>
<text text-anchor="middle" x="1368" y="-273.5" font-family="Helvetica,sans-Serif" font-size="10.00">str::find</text>
</a>
</g>
</g>
<!-- Node12&#45;&gt;Node13 -->
<g id="edge13" class="edge">
<title>Node12&#45;&gt;Node13</title>
<path fill="none" stroke="midnightblue" d="M1245.27,-276C1269.33,-276 1305.73,-276 1332.47,-276"/>
<polygon fill="midnightblue" stroke="midnightblue" points="1332.55,-279.5 1342.55,-276 1332.55,-272.5 1332.55,-279.5"/>
</g>
<!-- Node15 -->
<g id="node15" class="node">
<title>Node15</title>
<g id="a_node15"><a xlink:href="namespaceconsole_1_1out.html#a8f791bfac54067cadb1b9f18117b987b" target="_top" xlink:title=" ">
<polygon fill="white" stroke="black" points="1166,-323.5 1166,-342.5 1272,-342.5 1272,-323.5 1166,-323.5"/>
<text text-anchor="middle" x="1219" y="-330.5" font-family="Helvetica,sans-Serif" font-size="10.00">console::out::printVa</text>
</a>
</g>
</g>
<!-- Node14&#45;&gt;Node15 -->
<g id="edge15" class="edge">
<title>Node14&#45;&gt;Node15</title>
<path fill="none" stroke="midnightblue" d="M974.56,-308.12C1015.52,-311.81 1076.75,-317.47 1130,-323 1138.35,-323.87 1147.15,-324.82 1155.82,-325.78"/>
<polygon fill="midnightblue" stroke="midnightblue" points="1155.57,-329.28 1165.9,-326.91 1156.35,-322.32 1155.57,-329.28"/>
</g>
<!-- Node16 -->
<g id="node16" class="node">
<title>Node16</title>
<g id="a_node16"><a xlink:href="namespaceconsole_1_1ge.html#af642934cb833142f133285fdb75ef7b7" target="_top" xlink:title=" ">
<polygon fill="white" stroke="black" points="1308,-399.5 1308,-418.5 1428,-418.5 1428,-399.5 1308,-399.5"/>
<text text-anchor="middle" x="1368" y="-406.5" font-family="Helvetica,sans-Serif" font-size="10.00">console::ge::printFmtVa</text>
</a>
</g>
</g>
<!-- Node15&#45;&gt;Node16 -->
<g id="edge16" class="edge">
<title>Node15&#45;&gt;Node16</title>
<path fill="none" stroke="midnightblue" d="M1238.62,-342.63C1264.13,-355.82 1310.15,-379.61 1339.6,-394.83"/>
<polygon fill="midnightblue" stroke="midnightblue" points="1338.04,-397.97 1348.53,-399.45 1341.26,-391.75 1338.04,-397.97"/>
</g>
<!-- Node15&#45;&gt;Node22 -->
<g id="edge33" class="edge">
<title>Node15&#45;&gt;Node22</title>
<path fill="none" stroke="midnightblue" d="M1258.47,-323.44C1327.98,-308.2 1477.74,-284.71 1590,-333 1611.37,-342.19 1609.12,-355 1626,-371 1641.24,-385.44 1659.43,-400.81 1673.01,-411.95"/>
<polygon fill="midnightblue" stroke="midnightblue" points="1670.84,-414.69 1680.8,-418.29 1675.25,-409.26 1670.84,-414.69"/>
</g>
<!-- Node16&#45;&gt;Node5 -->
<g id="edge19" class="edge">
<title>Node16&#45;&gt;Node5</title>
<path fill="none" stroke="midnightblue" d="M1377.25,-399.41C1392.44,-382.52 1426.71,-347.84 1464,-333 1558.89,-295.24 1590.87,-314 1693,-314 1693,-314 1693,-314 1864,-314 1974.17,-314 2001.07,-291.27 2104,-252 2117.23,-246.95 2131.28,-239.91 2142.84,-233.63"/>
<polygon fill="midnightblue" stroke="midnightblue" points="2144.86,-236.51 2151.89,-228.59 2141.45,-230.4 2144.86,-236.51"/>
</g>
<!-- Node17 -->
<g id="node17" class="node">
<title>Node17</title>
<g id="a_node17"><a xlink:href="printfmt_8cc.html#a708ec6ee2b8bd2d7a453d8d9436ed3b3" target="_top" xlink:title=" ">
<polygon fill="white" stroke="black" points="1498,-494.5 1498,-513.5 1556,-513.5 1556,-494.5 1498,-494.5"/>
<text text-anchor="middle" x="1527" y="-501.5" font-family="Helvetica,sans-Serif" font-size="10.00">_getIntVa</text>
</a>
</g>
</g>
<!-- Node16&#45;&gt;Node17 -->
<g id="edge17" class="edge">
<title>Node16&#45;&gt;Node17</title>
<path fill="none" stroke="midnightblue" d="M1378.37,-418.57C1394.48,-434.5 1429.08,-466.55 1464,-485 1471.5,-488.96 1479.96,-492.24 1488.16,-494.89"/>
<polygon fill="midnightblue" stroke="midnightblue" points="1487.37,-498.31 1497.95,-497.82 1489.37,-491.6 1487.37,-498.31"/>
</g>
<!-- Node18 -->
<g id="node18" class="node">
<title>Node18</title>
<g id="a_node18"><a xlink:href="printfmt_8cc.html#af4b46892c76c8bfd27efdb20847eb7c8" target="_top" xlink:title=" ">
<polygon fill="white" stroke="black" points="1494.5,-456.5 1494.5,-475.5 1559.5,-475.5 1559.5,-456.5 1494.5,-456.5"/>
<text text-anchor="middle" x="1527" y="-463.5" font-family="Helvetica,sans-Serif" font-size="10.00">_getUIntVa</text>
</a>
</g>
</g>
<!-- Node16&#45;&gt;Node18 -->
<g id="edge18" class="edge">
<title>Node16&#45;&gt;Node18</title>
<path fill="none" stroke="midnightblue" d="M1391.45,-418.59C1410.57,-426.62 1438.87,-438.14 1464,-447 1470.56,-449.31 1477.57,-451.62 1484.43,-453.78"/>
<polygon fill="midnightblue" stroke="midnightblue" points="1483.71,-457.22 1494.29,-456.84 1485.78,-450.54 1483.71,-457.22"/>
</g>
<!-- Node19 -->
<g id="node19" class="node">
<title>Node19</title>
<g id="a_node19"><a xlink:href="printfmt_8cc.html#a0e3e484ece5e75b9f5fbe337f0ae8ae3" target="_top" xlink:title=" ">
<polygon fill="white" stroke="black" points="1500.5,-342.5 1500.5,-361.5 1553.5,-361.5 1553.5,-342.5 1500.5,-342.5"/>
<text text-anchor="middle" x="1527" y="-349.5" font-family="Helvetica,sans-Serif" font-size="10.00">describe</text>
</a>
</g>
</g>
<!-- Node16&#45;&gt;Node19 -->
<g id="edge20" class="edge">
<title>Node16&#45;&gt;Node19</title>
<path fill="none" stroke="midnightblue" d="M1395.28,-399.46C1421.44,-389.96 1461.76,-375.32 1490.7,-364.82"/>
<polygon fill="midnightblue" stroke="midnightblue" points="1492.21,-367.99 1500.42,-361.29 1489.82,-361.41 1492.21,-367.99"/>
</g>
<!-- Node21 -->
<g id="node21" class="node">
<title>Node21</title>
<g id="a_node21"><a xlink:href="namespaceconsole_1_1ge.html#a7e301813fd34fde772376afc5fdad95d" target="_top" xlink:title=" ">
<polygon fill="white" stroke="black" points="1464,-418.5 1464,-437.5 1590,-437.5 1590,-418.5 1464,-418.5"/>
<text text-anchor="middle" x="1527" y="-425.5" font-family="Helvetica,sans-Serif" font-size="10.00">console::ge::printNumber</text>
</a>
</g>
</g>
<!-- Node16&#45;&gt;Node21 -->
<g id="edge22" class="edge">
<title>Node16&#45;&gt;Node21</title>
<path fill="none" stroke="midnightblue" d="M1428.35,-416.18C1436.72,-417.2 1445.39,-418.24 1453.96,-419.28"/>
<polygon fill="midnightblue" stroke="midnightblue" points="1453.6,-422.76 1463.95,-420.49 1454.44,-415.81 1453.6,-422.76"/>
</g>
<!-- Node16&#45;&gt;Node22 -->
<g id="edge32" class="edge">
<title>Node16&#45;&gt;Node22</title>
<path fill="none" stroke="midnightblue" d="M1428.23,-406.08C1472.81,-404.59 1535.36,-404 1590,-409 1606.8,-410.54 1624.94,-413.45 1641.25,-416.55"/>
<polygon fill="midnightblue" stroke="midnightblue" points="1640.66,-420 1651.15,-418.49 1642.01,-413.13 1640.66,-420"/>
</g>
<!-- Node20 -->
<g id="node20" class="node">
<title>Node20</title>
<g id="a_node20"><a xlink:href="namespacemonitor.html#a318993193c866642f8389a1c1f285739" target="_top" xlink:title=" ">
<polygon fill="white" stroke="black" points="1657,-342.5 1657,-361.5 1731,-361.5 1731,-342.5 1657,-342.5"/>
<text text-anchor="middle" x="1694" y="-349.5" font-family="Helvetica,sans-Serif" font-size="10.00">monitor::fuck</text>
</a>
</g>
</g>
<!-- Node19&#45;&gt;Node20 -->
<g id="edge21" class="edge">
<title>Node19&#45;&gt;Node20</title>
<path fill="none" stroke="midnightblue" d="M1553.78,-352C1578.59,-352 1616.66,-352 1646.73,-352"/>
<polygon fill="midnightblue" stroke="midnightblue" points="1646.99,-355.5 1656.99,-352 1646.99,-348.5 1646.99,-355.5"/>
</g>
<!-- Node21&#45;&gt;Node22 -->
<g id="edge23" class="edge">
<title>Node21&#45;&gt;Node22</title>
<path fill="none" stroke="midnightblue" d="M1590.38,-428C1602.86,-428 1615.99,-428 1628.53,-428"/>
<polygon fill="midnightblue" stroke="midnightblue" points="1628.91,-431.5 1638.91,-428 1628.91,-424.5 1628.91,-431.5"/>
</g>
<!-- Node23 -->
<g id="node23" class="node">
<title>Node23</title>
<g id="a_node23"><a xlink:href="namespaceconsole_1_1serial.html#a3a7c1f95ae3c24136ea63bb31fdf0391" target="_top" xlink:title=" ">
<polygon fill="white" stroke="black" points="1803,-418.5 1803,-437.5 1923,-437.5 1923,-418.5 1803,-418.5"/>
<text text-anchor="middle" x="1863" y="-425.5" font-family="Helvetica,sans-Serif" font-size="10.00">console::serial::putChar</text>
</a>
</g>
</g>
<!-- Node22&#45;&gt;Node23 -->
<g id="edge24" class="edge">
<title>Node22&#45;&gt;Node23</title>
<path fill="none" stroke="midnightblue" d="M1749.22,-428C1763.02,-428 1778.03,-428 1792.47,-428"/>
<polygon fill="midnightblue" stroke="midnightblue" points="1792.86,-431.5 1802.86,-428 1792.86,-424.5 1792.86,-431.5"/>
</g>
<!-- Node26 -->
<g id="node26" class="node">
<title>Node26</title>
<g id="a_node26"><a xlink:href="namespaceconsole_1_1cga.html#afa19057ca041b39682d5d4831c43dfa0" target="_top" xlink:title=" ">
<polygon fill="white" stroke="black" points="1806.5,-380.5 1806.5,-399.5 1919.5,-399.5 1919.5,-380.5 1806.5,-380.5"/>
<text text-anchor="middle" x="1863" y="-387.5" font-family="Helvetica,sans-Serif" font-size="10.00">console::cga::putChar</text>
</a>
</g>
</g>
<!-- Node22&#45;&gt;Node26 -->
<g id="edge27" class="edge">
<title>Node22&#45;&gt;Node26</title>
<path fill="none" stroke="midnightblue" d="M1737.14,-418.41C1759.38,-413.35 1786.85,-407.1 1810.36,-401.75"/>
<polygon fill="midnightblue" stroke="midnightblue" points="1811.19,-405.15 1820.16,-399.52 1809.63,-398.33 1811.19,-405.15"/>
</g>
<!-- Node24 -->
<g id="node24" class="node">
<title>Node24</title>
<g id="a_node24"><a xlink:href="namespaceconsole_1_1serial.html#aa5605d4537106bb1c2bab72d7d1a5824" target="_top" xlink:title=" ">
<polygon fill="white" stroke="black" points="1982,-418.5 1982,-437.5 2086,-437.5 2086,-418.5 1982,-418.5"/>
<text text-anchor="middle" x="2034" y="-425.5" font-family="Helvetica,sans-Serif" font-size="10.00">console::serial::sout</text>
</a>
</g>
</g>
<!-- Node23&#45;&gt;Node24 -->
<g id="edge25" class="edge">
<title>Node23&#45;&gt;Node24</title>
<path fill="none" stroke="midnightblue" d="M1923.11,-428C1938.8,-428 1955.79,-428 1971.6,-428"/>
<polygon fill="midnightblue" stroke="midnightblue" points="1971.8,-431.5 1981.8,-428 1971.8,-424.5 1971.8,-431.5"/>
</g>
<!-- Node25 -->
<g id="node25" class="node">
<title>Node25</title>
<g id="a_node25"><a xlink:href="x86_8h.html#ade961b44e45ddacbc3c3b7609cf36dc6" target="_top" xlink:title=" ">
<polygon fill="white" stroke="black" points="2151.5,-399.5 2151.5,-418.5 2186.5,-418.5 2186.5,-399.5 2151.5,-399.5"/>
<text text-anchor="middle" x="2169" y="-406.5" font-family="Helvetica,sans-Serif" font-size="10.00">outb</text>
</a>
</g>
</g>
<!-- Node24&#45;&gt;Node25 -->
<g id="edge26" class="edge">
<title>Node24&#45;&gt;Node25</title>
<path fill="none" stroke="midnightblue" d="M2086.04,-420.71C2104.85,-418.02 2125.4,-415.09 2141.22,-412.83"/>
<polygon fill="midnightblue" stroke="midnightblue" points="2141.94,-416.26 2151.34,-411.38 2140.95,-409.33 2141.94,-416.26"/>
</g>
<!-- Node27 -->
<g id="node27" class="node">
<title>Node27</title>
<g id="a_node27"><a xlink:href="namespacemem.html#a64d9d05b439041901498c606de606431" target="_top" xlink:title=" ">
<polygon fill="white" stroke="black" points="2001.5,-342.5 2001.5,-361.5 2066.5,-361.5 2066.5,-342.5 2001.5,-342.5"/>
<text text-anchor="middle" x="2034" y="-349.5" font-family="Helvetica,sans-Serif" font-size="10.00">mem::copy</text>
</a>
</g>
</g>
<!-- Node26&#45;&gt;Node27 -->
<g id="edge28" class="edge">
<title>Node26&#45;&gt;Node27</title>
<path fill="none" stroke="midnightblue" d="M1906.65,-380.41C1932.63,-374.57 1965.68,-367.14 1991.46,-361.34"/>
<polygon fill="midnightblue" stroke="midnightblue" points="1992.32,-364.74 2001.31,-359.13 1990.78,-357.91 1992.32,-364.74"/>
</g>
<!-- Node28 -->
<g id="node28" class="node">
<title>Node28</title>
<g id="a_node28"><a xlink:href="namespaceconsole_1_1cga.html#a06463d4dc68819e30615ba299d02a78f" target="_top" xlink:title=" ">
<polygon fill="white" stroke="black" points="1964,-380.5 1964,-399.5 2104,-399.5 2104,-380.5 1964,-380.5"/>
<text text-anchor="middle" x="2034" y="-387.5" font-family="Helvetica,sans-Serif" font-size="10.00">console::cga::cursorRefresh</text>
</a>
</g>
</g>
<!-- Node26&#45;&gt;Node28 -->
<g id="edge30" class="edge">
<title>Node26&#45;&gt;Node28</title>
<path fill="none" stroke="midnightblue" d="M1919.81,-390C1930.74,-390 1942.39,-390 1953.92,-390"/>
<polygon fill="midnightblue" stroke="midnightblue" points="1953.99,-393.5 1963.99,-390 1953.99,-386.5 1953.99,-393.5"/>
</g>
<!-- Node27&#45;&gt;Node5 -->
<g id="edge29" class="edge">
<title>Node27&#45;&gt;Node5</title>
<path fill="none" stroke="midnightblue" d="M2066.55,-346.02C2079.22,-342.42 2093.31,-336.77 2104,-328 2133.4,-303.87 2152.33,-262.44 2161.49,-238.2"/>
<polygon fill="midnightblue" stroke="midnightblue" points="2164.82,-239.28 2164.91,-228.68 2158.23,-236.91 2164.82,-239.28"/>
</g>
<!-- Node28&#45;&gt;Node25 -->
<g id="edge31" class="edge">
<title>Node28&#45;&gt;Node25</title>
<path fill="none" stroke="midnightblue" d="M2101.89,-399.56C2115.81,-401.54 2129.71,-403.53 2141.15,-405.16"/>
<polygon fill="midnightblue" stroke="midnightblue" points="2140.88,-408.66 2151.28,-406.61 2141.87,-401.73 2140.88,-408.66"/>
</g>
<!-- Node30 -->
<g id="node30" class="node">
<title>Node30</title>
<g id="a_node30"><a xlink:href="namespaceconsole_1_1err.html#a4cd18e4c409b5b17ecec61ce83b05fba" target="_top" xlink:title=" ">
<polygon fill="white" stroke="black" points="1167,-570.5 1167,-589.5 1271,-589.5 1271,-570.5 1167,-570.5"/>
<text text-anchor="middle" x="1219" y="-577.5" font-family="Helvetica,sans-Serif" font-size="10.00">console::err::printVa</text>
</a>
</g>
</g>
<!-- Node29&#45;&gt;Node30 -->
<g id="edge35" class="edge">
<title>Node29&#45;&gt;Node30</title>
<path fill="none" stroke="midnightblue" d="M973.31,-539.5C1022.65,-547.67 1101.84,-560.77 1156.71,-569.85"/>
<polygon fill="midnightblue" stroke="midnightblue" points="1156.22,-573.32 1166.65,-571.5 1157.36,-566.42 1156.22,-573.32"/>
</g>
<!-- Node30&#45;&gt;Node16 -->
<g id="edge36" class="edge">
<title>Node30&#45;&gt;Node16</title>
<path fill="none" stroke="midnightblue" d="M1228.32,-570.32C1252.28,-542.45 1321.61,-461.8 1352.2,-426.22"/>
<polygon fill="midnightblue" stroke="midnightblue" points="1354.9,-428.44 1358.77,-418.58 1349.59,-423.88 1354.9,-428.44"/>
</g>
<!-- Node30&#45;&gt;Node22 -->
<g id="edge37" class="edge">
<title>Node30&#45;&gt;Node22</title>
<path fill="none" stroke="midnightblue" d="M1271.28,-589.03C1346.02,-599.57 1487.17,-609.4 1590,-556 1636.65,-531.78 1669.51,-476.1 1684.26,-446.81"/>
<polygon fill="midnightblue" stroke="midnightblue" points="1687.49,-448.17 1688.72,-437.64 1681.2,-445.11 1687.49,-448.17"/>
</g>
<!-- Node32 -->
<g id="node32" class="node">
<title>Node32</title>
<g id="a_node32"><a xlink:href="namespaceconsole_1_1in.html#ac28354dad0498aa6bb0c178b10d62c8a" target="_top" xlink:title=" ">
<polygon fill="white" stroke="black" points="1015,-408.5 1015,-427.5 1130,-427.5 1130,-408.5 1015,-408.5"/>
<text text-anchor="middle" x="1072.5" y="-415.5" font-family="Helvetica,sans-Serif" font-size="10.00">console::in::readlineVa</text>
</a>
</g>
</g>
<!-- Node31&#45;&gt;Node32 -->
<g id="edge39" class="edge">
<title>Node31&#45;&gt;Node32</title>
<path fill="none" stroke="midnightblue" d="M979.4,-418C987.52,-418 996.02,-418 1004.43,-418"/>
<polygon fill="midnightblue" stroke="midnightblue" points="1004.62,-421.5 1014.62,-418 1004.62,-414.5 1004.62,-421.5"/>
</g>
<!-- Node32&#45;&gt;Node15 -->
<g id="edge41" class="edge">
<title>Node32&#45;&gt;Node15</title>
<path fill="none" stroke="midnightblue" d="M1107.69,-408.46C1115.23,-405.82 1123.04,-402.66 1130,-399 1156.05,-385.3 1182.64,-364.18 1199.66,-349.53"/>
<polygon fill="midnightblue" stroke="midnightblue" points="1202.43,-351.76 1207.64,-342.53 1197.82,-346.49 1202.43,-351.76"/>
</g>
<!-- Node32&#45;&gt;Node22 -->
<g id="edge42" class="edge">
<title>Node32&#45;&gt;Node22</title>
<path fill="none" stroke="midnightblue" d="M1089.7,-427.73C1154.69,-465.47 1402.07,-596.43 1590,-523 1629.61,-507.52 1663.15,-468.89 1680.44,-445.94"/>
<polygon fill="midnightblue" stroke="midnightblue" points="1683.37,-447.86 1686.44,-437.72 1677.72,-443.73 1683.37,-447.86"/>
</g>
<!-- Node33 -->
<g id="node33" class="node">
<title>Node33</title>
<g id="a_node33"><a xlink:href="namespaceconsole_1_1in.html#a6fc069f2bc57fda183e3b991c31ec5a7" target="_top" xlink:title=" ">
<polygon fill="white" stroke="black" points="1167,-408.5 1167,-427.5 1271,-427.5 1271,-408.5 1167,-408.5"/>
<text text-anchor="middle" x="1219" y="-415.5" font-family="Helvetica,sans-Serif" font-size="10.00">console::in::getChar</text>
</a>
</g>
</g>
<!-- Node32&#45;&gt;Node33 -->
<g id="edge40" class="edge">
<title>Node32&#45;&gt;Node33</title>
<path fill="none" stroke="midnightblue" d="M1130.2,-418C1138.83,-418 1147.78,-418 1156.52,-418"/>
<polygon fill="midnightblue" stroke="midnightblue" points="1156.64,-421.5 1166.64,-418 1156.64,-414.5 1156.64,-421.5"/>
</g>
<!-- Node35 -->
<g id="node35" class="node">
<title>Node35</title>
<g id="a_node35"><a xlink:href="namespacevmem_1_1pgdir.html#a933a8f939084dabdb1a4b5401bebf8d7" target="_top" xlink:title=" ">
<polygon fill="white" stroke="black" points="1473.5,-85.5 1473.5,-104.5 1580.5,-104.5 1580.5,-85.5 1473.5,-85.5"/>
<text text-anchor="middle" x="1527" y="-92.5" font-family="Helvetica,sans-Serif" font-size="10.00">vmem::pgdir::findPte</text>
</a>
</g>
</g>
<!-- Node34&#45;&gt;Node35 -->
<g id="edge47" class="edge">
<title>Node34&#45;&gt;Node35</title>
<path fill="none" stroke="midnightblue" d="M727.18,-120.32C779.85,-117.47 857.9,-114 926,-114 926,-114 926,-114 1220,-114 1304.33,-114 1401.48,-106.72 1463.28,-101.18"/>
<polygon fill="midnightblue" stroke="midnightblue" points="1463.62,-104.66 1473.27,-100.27 1462.99,-97.69 1463.62,-104.66"/>
</g>
<!-- Node36 -->
<g id="node36" class="node">
<title>Node36</title>
<g id="a_node36"><a xlink:href="structvmem_1_1_page_info.html#afcdcb7e941219a8ec999353658e3c2aa" target="_top" xlink:title=" ">
<polygon fill="white" stroke="black" points="1636.5,-114.5 1636.5,-133.5 1751.5,-133.5 1751.5,-114.5 1636.5,-114.5"/>
<text text-anchor="middle" x="1694" y="-121.5" font-family="Helvetica,sans-Serif" font-size="10.00">vmem::PageInfo::alloc</text>
</a>
</g>
</g>
<!-- Node35&#45;&gt;Node36 -->
<g id="edge48" class="edge">
<title>Node35&#45;&gt;Node36</title>
<path fill="none" stroke="midnightblue" d="M1580.66,-104.26C1595.9,-106.93 1612.71,-109.89 1628.59,-112.68"/>
<polygon fill="midnightblue" stroke="midnightblue" points="1628.4,-116.2 1638.85,-114.48 1629.61,-109.31 1628.4,-116.2"/>
</g>
<!-- Node37 -->
<g id="node37" class="node">
<title>Node37</title>
<g id="a_node37"><a xlink:href="namespacemem.html#a981dd0cb1408b798a79443c6245e9c55" target="_top" xlink:title=" ">
<polygon fill="white" stroke="black" points="1830.5,-133.5 1830.5,-152.5 1895.5,-152.5 1895.5,-133.5 1830.5,-133.5"/>
<text text-anchor="middle" x="1863" y="-140.5" font-family="Helvetica,sans-Serif" font-size="10.00">mem::clear</text>
</a>
</g>
</g>
<!-- Node35&#45;&gt;Node37 -->
<g id="edge55" class="edge">
<title>Node35&#45;&gt;Node37</title>
<path fill="none" stroke="midnightblue" d="M1542.16,-104.53C1560.54,-116.28 1594.07,-135.6 1626,-143 1692.56,-158.43 1772.55,-153.75 1820.23,-148.62"/>
<polygon fill="midnightblue" stroke="midnightblue" points="1820.64,-152.1 1830.18,-147.49 1819.85,-145.14 1820.64,-152.1"/>
</g>
<!-- Node39 -->
<g id="node39" class="node">
<title>Node39</title>
<g id="a_node39"><a xlink:href="structvmem_1_1_page_info.html#afc863f1d364462ddd2c20bf31f588337" target="_top" xlink:title=" ">
<polygon fill="white" stroke="black" points="1798,-76.5 1798,-95.5 1928,-95.5 1928,-76.5 1798,-76.5"/>
<text text-anchor="middle" x="1863" y="-83.5" font-family="Helvetica,sans-Serif" font-size="10.00">vmem::PageInfo::toKernV</text>
</a>
</g>
</g>
<!-- Node35&#45;&gt;Node39 -->
<g id="edge58" class="edge">
<title>Node35&#45;&gt;Node39</title>
<path fill="none" stroke="midnightblue" d="M1580.55,-93.58C1636.24,-92.08 1724.64,-89.7 1787.5,-88.01"/>
<polygon fill="midnightblue" stroke="midnightblue" points="1787.85,-91.5 1797.75,-87.73 1787.66,-84.5 1787.85,-91.5"/>
</g>
<!-- Node40 -->
<g id="node40" class="node">
<title>Node40</title>
<g id="a_node40"><a xlink:href="structvmem_1_1_page_info.html#accf2071c7875c29c9aa78a01ef5963a1" target="_top" xlink:title=" ">
<polygon fill="white" stroke="black" points="1974,-57.5 1974,-76.5 2094,-76.5 2094,-57.5 1974,-57.5"/>
<text text-anchor="middle" x="2034" y="-64.5" font-family="Helvetica,sans-Serif" font-size="10.00">vmem::PageInfo::toPhy</text>
</a>
</g>
</g>
<!-- Node35&#45;&gt;Node40 -->
<g id="edge59" class="edge">
<title>Node35&#45;&gt;Node40</title>
<path fill="none" stroke="midnightblue" d="M1580.65,-87.91C1634.97,-80.98 1722.23,-70.92 1798,-67 1853.61,-64.12 1916.72,-64.31 1963.53,-65.12"/>
<polygon fill="midnightblue" stroke="midnightblue" points="1963.5,-68.62 1973.56,-65.31 1963.63,-61.62 1963.5,-68.62"/>
</g>
<!-- Node41 -->
<g id="node41" class="node">
<title>Node41</title>
<g id="a_node41"><a xlink:href="namespacevmem_1_1pgdir.html#a972bb045d4c58b0ea9c569e05831bbb6" target="_top" xlink:title=" ">
<polygon fill="white" stroke="black" points="1626,-0.5 1626,-19.5 1762,-19.5 1762,-0.5 1626,-0.5"/>
<text text-anchor="middle" x="1694" y="-7.5" font-family="Helvetica,sans-Serif" font-size="10.00">vmem::pgdir::invalidateTLB</text>
</a>
</g>
</g>
<!-- Node35&#45;&gt;Node41 -->
<g id="edge56" class="edge">
<title>Node35&#45;&gt;Node41</title>
<path fill="none" stroke="midnightblue" d="M1541.43,-85.35C1559.83,-72.43 1594.25,-49.35 1626,-34 1634.41,-29.93 1643.71,-26.17 1652.62,-22.89"/>
<polygon fill="midnightblue" stroke="midnightblue" points="1653.83,-26.18 1662.09,-19.53 1651.49,-19.58 1653.83,-26.18"/>
</g>
<!-- Node36&#45;&gt;Node37 -->
<g id="edge49" class="edge">
<title>Node36&#45;&gt;Node37</title>
<path fill="none" stroke="midnightblue" d="M1751.54,-130.43C1774.04,-132.99 1799.47,-135.89 1820.26,-138.25"/>
<polygon fill="midnightblue" stroke="midnightblue" points="1820.02,-141.75 1830.36,-139.4 1820.82,-134.79 1820.02,-141.75"/>
</g>
<!-- Node36&#45;&gt;Node39 -->
<g id="edge53" class="edge">
<title>Node36&#45;&gt;Node39</title>
<path fill="none" stroke="midnightblue" d="M1737.14,-114.41C1759.38,-109.35 1786.85,-103.1 1810.36,-97.75"/>
<polygon fill="midnightblue" stroke="midnightblue" points="1811.19,-101.15 1820.16,-95.52 1809.63,-94.33 1811.19,-101.15"/>
</g>
<!-- Node37&#45;&gt;Node5 -->
<g id="edge50" class="edge">
<title>Node37&#45;&gt;Node5</title>
<path fill="none" stroke="midnightblue" d="M1895.82,-145.65C1942.5,-150.22 2031.84,-161.55 2104,-186 2117.73,-190.65 2132.16,-197.86 2143.83,-204.36"/>
<polygon fill="midnightblue" stroke="midnightblue" points="2142.12,-207.41 2152.54,-209.35 2145.61,-201.34 2142.12,-207.41"/>
</g>
<!-- Node38 -->
<g id="node38" class="node">
<title>Node38</title>
<g id="a_node38"><a xlink:href="namespacemem.html#adbaba9127c03fb914f752bfe19d6d089" target="_top" xlink:title=" ">
<polygon fill="white" stroke="black" points="2005,-114.5 2005,-133.5 2063,-133.5 2063,-114.5 2005,-114.5"/>
<text text-anchor="middle" x="2034" y="-121.5" font-family="Helvetica,sans-Serif" font-size="10.00">mem::set</text>
</a>
</g>
</g>
<!-- Node37&#45;&gt;Node38 -->
<g id="edge51" class="edge">
<title>Node37&#45;&gt;Node38</title>
<path fill="none" stroke="midnightblue" d="M1895.79,-139.43C1923.93,-136.26 1965.05,-131.64 1994.94,-128.28"/>
<polygon fill="midnightblue" stroke="midnightblue" points="1995.45,-131.74 2005,-127.15 1994.67,-124.79 1995.45,-131.74"/>
</g>
<!-- Node38&#45;&gt;Node5 -->
<g id="edge52" class="edge">
<title>Node38&#45;&gt;Node5</title>
<path fill="none" stroke="midnightblue" d="M2063,-130.29C2076.16,-134.08 2091.64,-139.79 2104,-148 2125.27,-162.12 2144.08,-184.9 2155.71,-200.84"/>
<polygon fill="midnightblue" stroke="midnightblue" points="2153.07,-203.17 2161.7,-209.32 2158.79,-199.13 2153.07,-203.17"/>
</g>
<!-- Node39&#45;&gt;Node40 -->
<g id="edge54" class="edge">
<title>Node39&#45;&gt;Node40</title>
<path fill="none" stroke="midnightblue" d="M1928.37,-78.76C1939.92,-77.46 1951.99,-76.11 1963.67,-74.79"/>
<polygon fill="midnightblue" stroke="midnightblue" points="1964.26,-78.25 1973.8,-73.66 1963.47,-71.29 1964.26,-78.25"/>
</g>
<!-- Node42 -->
<g id="node42" class="node">
<title>Node42</title>
<g id="a_node42"><a xlink:href="x86_8h.html#a2c1c4c8523ed258a75c563a8f94d1686" target="_top" xlink:title=" ">
<polygon fill="white" stroke="black" points="1842,-0.5 1842,-19.5 1884,-19.5 1884,-0.5 1842,-0.5"/>
<text text-anchor="middle" x="1863" y="-7.5" font-family="Helvetica,sans-Serif" font-size="10.00">invlpg</text>
</a>
</g>
</g>
<!-- Node41&#45;&gt;Node42 -->
<g id="edge57" class="edge">
<title>Node41&#45;&gt;Node42</title>
<path fill="none" stroke="midnightblue" d="M1762.44,-10C1786.58,-10 1812.58,-10 1831.95,-10"/>
<polygon fill="midnightblue" stroke="midnightblue" points="1831.98,-13.5 1841.98,-10 1831.98,-6.5 1831.98,-13.5"/>
</g>
</g>
</svg>
