<?xml version="1.0" encoding="UTF-8" standalone="no"?>
<!DOCTYPE svg PUBLIC "-//W3C//DTD SVG 1.1//EN"
 "http://www.w3.org/Graphics/SVG/1.1/DTD/svg11.dtd">
<!-- Generated by graphviz version 2.44.1 (20200629.0846)
 -->
<!-- Title: vmem::pgdir::remove Pages: 1 -->
<svg width="1017pt" height="163pt"
 viewBox="0.00 0.00 1017.00 162.95" xmlns="http://www.w3.org/2000/svg" xmlns:xlink="http://www.w3.org/1999/xlink">
<g id="graph0" class="graph" transform="scale(1 1) rotate(0) translate(4 158.95)">
<title>vmem::pgdir::remove</title>
<polygon fill="white" stroke="transparent" points="-4,4 -4,-158.95 1013,-158.95 1013,4 -4,4"/>
<!-- Node1 -->
<g id="node1" class="node">
<title>Node1</title>
<g id="a_node1"><a xlink:title=" ">
<polygon fill="#bfbfbf" stroke="black" points="0,-19.5 0,-38.5 109,-38.5 109,-19.5 0,-19.5"/>
<text text-anchor="middle" x="54.5" y="-26.5" font-family="Helvetica,sans-Serif" font-size="10.00">vmem::pgdir::remove</text>
</a>
</g>
</g>
<!-- Node2 -->
<g id="node2" class="node">
<title>Node2</title>
<g id="a_node2"><a xlink:href="namespacevmem_1_1pgdir.html#a18669c6fe92ff279442cecceca1263cc" target="_top" xlink:title=" ">
<polygon fill="white" stroke="black" points="145,-38.5 145,-57.5 254,-57.5 254,-38.5 145,-38.5"/>
<text text-anchor="middle" x="199.5" y="-45.5" font-family="Helvetica,sans-Serif" font-size="10.00">vmem::pgdir::findInfo</text>
</a>
</g>
</g>
<!-- Node1&#45;&gt;Node2 -->
<g id="edge1" class="edge">
<title>Node1&#45;&gt;Node2</title>
<path fill="none" stroke="midnightblue" d="M109.15,-36.13C117.38,-37.22 125.94,-38.36 134.37,-39.48"/>
<polygon fill="midnightblue" stroke="midnightblue" points="134.17,-42.98 144.54,-40.83 135.09,-36.04 134.17,-42.98"/>
</g>
<!-- Node10 -->
<g id="node10" class="node">
<title>Node10</title>
<g id="a_node10"><a xlink:href="namespacevmem_1_1pgdir.html#a972bb045d4c58b0ea9c569e05831bbb6" target="_top" xlink:title=" ">
<polygon fill="white" stroke="black" points="457,-0.5 457,-19.5 593,-19.5 593,-0.5 457,-0.5"/>
<text text-anchor="middle" x="525" y="-7.5" font-family="Helvetica,sans-Serif" font-size="10.00">vmem::pgdir::invalidateTLB</text>
</a>
</g>
</g>
<!-- Node1&#45;&gt;Node10 -->
<g id="edge16" class="edge">
<title>Node1&#45;&gt;Node10</title>
<path fill="none" stroke="midnightblue" d="M109.24,-26.82C192.15,-23.46 351.59,-16.99 446.82,-13.13"/>
<polygon fill="midnightblue" stroke="midnightblue" points="447.11,-16.62 456.96,-12.72 446.83,-9.63 447.11,-16.62"/>
</g>
<!-- Node3 -->
<g id="node3" class="node">
<title>Node3</title>
<g id="a_node3"><a xlink:href="namespacevmem_1_1pgdir.html#a933a8f939084dabdb1a4b5401bebf8d7" target="_top" xlink:title=" ">
<polygon fill="white" stroke="black" points="302,-76.5 302,-95.5 409,-95.5 409,-76.5 302,-76.5"/>
<text text-anchor="middle" x="355.5" y="-83.5" font-family="Helvetica,sans-Serif" font-size="10.00">vmem::pgdir::findPte</text>
</a>
</g>
</g>
<!-- Node2&#45;&gt;Node3 -->
<g id="edge2" class="edge">
<title>Node2&#45;&gt;Node3</title>
<path fill="none" stroke="midnightblue" d="M239.36,-57.59C259.59,-62.58 284.52,-68.73 306,-74.03"/>
<polygon fill="midnightblue" stroke="midnightblue" points="305.37,-77.48 315.92,-76.48 307.05,-70.69 305.37,-77.48"/>
</g>
<!-- Node12 -->
<g id="node12" class="node">
<title>Node12</title>
<g id="a_node12"><a xlink:href="structvmem_1_1_page_info.html#a1e3111217d6a051c9d8b83200710a0b3" target="_top" xlink:title=" ">
<polygon fill="white" stroke="black" points="290,-38.5 290,-57.5 421,-57.5 421,-38.5 290,-38.5"/>
<text text-anchor="middle" x="355.5" y="-45.5" font-family="Helvetica,sans-Serif" font-size="10.00">vmem::PageInfo::fromPhy</text>
</a>
</g>
</g>
<!-- Node2&#45;&gt;Node12 -->
<g id="edge15" class="edge">
<title>Node2&#45;&gt;Node12</title>
<path fill="none" stroke="midnightblue" d="M254.36,-48C262.59,-48 271.21,-48 279.79,-48"/>
<polygon fill="midnightblue" stroke="midnightblue" points="279.82,-51.5 289.82,-48 279.82,-44.5 279.82,-51.5"/>
</g>
<!-- Node4 -->
<g id="node4" class="node">
<title>Node4</title>
<g id="a_node4"><a xlink:href="structvmem_1_1_page_info.html#afcdcb7e941219a8ec999353658e3c2aa" target="_top" xlink:title=" ">
<polygon fill="white" stroke="black" points="467.5,-114.5 467.5,-133.5 582.5,-133.5 582.5,-114.5 467.5,-114.5"/>
<text text-anchor="middle" x="525" y="-121.5" font-family="Helvetica,sans-Serif" font-size="10.00">vmem::PageInfo::alloc</text>
</a>
</g>
</g>
<!-- Node3&#45;&gt;Node4 -->
<g id="edge3" class="edge">
<title>Node3&#45;&gt;Node4</title>
<path fill="none" stroke="midnightblue" d="M398.77,-95.59C421.07,-100.65 448.62,-106.9 472.2,-112.25"/>
<polygon fill="midnightblue" stroke="midnightblue" points="471.51,-115.68 482.04,-114.48 473.06,-108.85 471.51,-115.68"/>
</g>
<!-- Node5 -->
<g id="node5" class="node">
<title>Node5</title>
<g id="a_node5"><a xlink:href="namespacemem.html#a981dd0cb1408b798a79443c6245e9c55" target="_top" xlink:title=" ">
<polygon fill="white" stroke="black" points="661.5,-133.5 661.5,-152.5 726.5,-152.5 726.5,-133.5 661.5,-133.5"/>
<text text-anchor="middle" x="694" y="-140.5" font-family="Helvetica,sans-Serif" font-size="10.00">mem::clear</text>
</a>
</g>
</g>
<!-- Node3&#45;&gt;Node5 -->
<g id="edge10" class="edge">
<title>Node3&#45;&gt;Node5</title>
<path fill="none" stroke="midnightblue" d="M368.58,-95.65C386.59,-109.35 422.09,-133.79 457,-143 523.25,-160.48 603.65,-155.12 651.45,-149.31"/>
<polygon fill="midnightblue" stroke="midnightblue" points="651.95,-152.77 661.42,-148.03 651.06,-145.83 651.95,-152.77"/>
</g>
<!-- Node8 -->
<g id="node8" class="node">
<title>Node8</title>
<g id="a_node8"><a xlink:href="structvmem_1_1_page_info.html#afc863f1d364462ddd2c20bf31f588337" target="_top" xlink:title=" ">
<polygon fill="white" stroke="black" points="629,-76.5 629,-95.5 759,-95.5 759,-76.5 629,-76.5"/>
<text text-anchor="middle" x="694" y="-83.5" font-family="Helvetica,sans-Serif" font-size="10.00">vmem::PageInfo::toKernV</text>
</a>
</g>
</g>
<!-- Node3&#45;&gt;Node8 -->
<g id="edge13" class="edge">
<title>Node3&#45;&gt;Node8</title>
<path fill="none" stroke="midnightblue" d="M409.08,-86C465.28,-86 554.87,-86 618.37,-86"/>
<polygon fill="midnightblue" stroke="midnightblue" points="618.72,-89.5 628.72,-86 618.72,-82.5 618.72,-89.5"/>
</g>
<!-- Node9 -->
<g id="node9" class="node">
<title>Node9</title>
<g id="a_node9"><a xlink:href="structvmem_1_1_page_info.html#accf2071c7875c29c9aa78a01ef5963a1" target="_top" xlink:title=" ">
<polygon fill="white" stroke="black" points="795,-62.5 795,-81.5 915,-81.5 915,-62.5 795,-62.5"/>
<text text-anchor="middle" x="855" y="-69.5" font-family="Helvetica,sans-Serif" font-size="10.00">vmem::PageInfo::toPhy</text>
</a>
</g>
</g>
<!-- Node3&#45;&gt;Node9 -->
<g id="edge14" class="edge">
<title>Node3&#45;&gt;Node9</title>
<path fill="none" stroke="midnightblue" d="M409.19,-81.23C464.04,-76.53 552.46,-69.67 629,-67 686.74,-64.99 701.24,-65.48 759,-67 767.37,-67.22 776.14,-67.55 784.84,-67.93"/>
<polygon fill="midnightblue" stroke="midnightblue" points="784.83,-71.44 794.98,-68.41 785.16,-64.45 784.83,-71.44"/>
</g>
<!-- Node3&#45;&gt;Node10 -->
<g id="edge11" class="edge">
<title>Node3&#45;&gt;Node10</title>
<path fill="none" stroke="midnightblue" d="M399.26,-76.4C406.76,-73.89 414.29,-70.79 421,-67 439.9,-56.32 438.42,-45.21 457,-34 463.99,-29.78 471.85,-26.14 479.64,-23.06"/>
<polygon fill="midnightblue" stroke="midnightblue" points="480.9,-26.33 489.07,-19.58 478.47,-19.76 480.9,-26.33"/>
</g>
<!-- Node4&#45;&gt;Node5 -->
<g id="edge4" class="edge">
<title>Node4&#45;&gt;Node5</title>
<path fill="none" stroke="midnightblue" d="M582.54,-130.43C605.04,-132.99 630.47,-135.89 651.26,-138.25"/>
<polygon fill="midnightblue" stroke="midnightblue" points="651.02,-141.75 661.36,-139.4 651.82,-134.79 651.02,-141.75"/>
</g>
<!-- Node4&#45;&gt;Node8 -->
<g id="edge8" class="edge">
<title>Node4&#45;&gt;Node8</title>
<path fill="none" stroke="midnightblue" d="M568.14,-114.41C590.38,-109.35 617.85,-103.1 641.36,-97.75"/>
<polygon fill="midnightblue" stroke="midnightblue" points="642.19,-101.15 651.16,-95.52 640.63,-94.33 642.19,-101.15"/>
</g>
<!-- Node6 -->
<g id="node6" class="node">
<title>Node6</title>
<g id="a_node6"><a xlink:href="namespacestr.html#a062221f630647cf300f0dd982c4ed904" target="_top" xlink:title=" ">
<polygon fill="white" stroke="black" points="951,-128.5 951,-147.5 1009,-147.5 1009,-128.5 951,-128.5"/>
<text text-anchor="middle" x="980" y="-135.5" font-family="Helvetica,sans-Serif" font-size="10.00">str::count</text>
</a>
</g>
</g>
<!-- Node5&#45;&gt;Node6 -->
<g id="edge5" class="edge">
<title>Node5&#45;&gt;Node6</title>
<path fill="none" stroke="midnightblue" d="M726.75,-142.44C779.24,-141.52 883.91,-139.67 940.52,-138.68"/>
<polygon fill="midnightblue" stroke="midnightblue" points="940.9,-142.17 950.84,-138.5 940.78,-135.17 940.9,-142.17"/>
</g>
<!-- Node7 -->
<g id="node7" class="node">
<title>Node7</title>
<g id="a_node7"><a xlink:href="namespacemem.html#adbaba9127c03fb914f752bfe19d6d089" target="_top" xlink:title=" ">
<polygon fill="white" stroke="black" points="826,-109.5 826,-128.5 884,-128.5 884,-109.5 826,-109.5"/>
<text text-anchor="middle" x="855" y="-116.5" font-family="Helvetica,sans-Serif" font-size="10.00">mem::set</text>
</a>
</g>
</g>
<!-- Node5&#45;&gt;Node7 -->
<g id="edge6" class="edge">
<title>Node5&#45;&gt;Node7</title>
<path fill="none" stroke="midnightblue" d="M726.79,-138.2C752.51,-134.32 788.79,-128.84 816.03,-124.73"/>
<polygon fill="midnightblue" stroke="midnightblue" points="816.62,-128.18 825.99,-123.23 815.58,-121.26 816.62,-128.18"/>
</g>
<!-- Node7&#45;&gt;Node6 -->
<g id="edge7" class="edge">
<title>Node7&#45;&gt;Node6</title>
<path fill="none" stroke="midnightblue" d="M884.22,-123.36C901.02,-125.95 922.55,-129.28 940.85,-132.11"/>
<polygon fill="midnightblue" stroke="midnightblue" points="940.5,-135.59 950.91,-133.66 941.56,-128.68 940.5,-135.59"/>
</g>
<!-- Node8&#45;&gt;Node9 -->
<g id="edge9" class="edge">
<title>Node8&#45;&gt;Node9</title>
<path fill="none" stroke="midnightblue" d="M759.21,-80.35C767.61,-79.61 776.24,-78.85 784.71,-78.1"/>
<polygon fill="midnightblue" stroke="midnightblue" points="785.29,-81.56 794.94,-77.2 784.67,-74.59 785.29,-81.56"/>
</g>
<!-- Node11 -->
<g id="node11" class="node">
<title>Node11</title>
<g id="a_node11"><a xlink:href="x86_8h.html#a2c1c4c8523ed258a75c563a8f94d1686" target="_top" xlink:title=" ">
<polygon fill="white" stroke="black" points="673,-0.5 673,-19.5 715,-19.5 715,-0.5 673,-0.5"/>
<text text-anchor="middle" x="694" y="-7.5" font-family="Helvetica,sans-Serif" font-size="10.00">invlpg</text>
</a>
</g>
</g>
<!-- Node10&#45;&gt;Node11 -->
<g id="edge12" class="edge">
<title>Node10&#45;&gt;Node11</title>
<path fill="none" stroke="midnightblue" d="M593.44,-10C617.58,-10 643.58,-10 662.95,-10"/>
<polygon fill="midnightblue" stroke="midnightblue" points="662.98,-13.5 672.98,-10 662.98,-6.5 662.98,-13.5"/>
</g>
</g>
</svg>
