<?xml version="1.0" encoding="UTF-8" standalone="no"?>
<!DOCTYPE svg PUBLIC "-//W3C//DTD SVG 1.1//EN"
 "http://www.w3.org/Graphics/SVG/1.1/DTD/svg11.dtd">
<!-- Generated by graphviz version 2.44.1 (20200629.0846)
 -->
<!-- Title: trap::handler::pageFault Pages: 1 -->
<svg width="1699pt" height="503pt"
 viewBox="0.00 0.00 1699.00 503.00" xmlns="http://www.w3.org/2000/svg" xmlns:xlink="http://www.w3.org/1999/xlink">
<g id="graph0" class="graph" transform="scale(1 1) rotate(0) translate(4 499)">
<title>trap::handler::pageFault</title>
<polygon fill="white" stroke="transparent" points="-4,4 -4,-499 1695,-499 1695,4 -4,4"/>
<!-- Node1 -->
<g id="node1" class="node">
<title>Node1</title>
<g id="a_node1"><a xlink:title=" ">
<polygon fill="#bfbfbf" stroke="black" points="0,-38.5 0,-57.5 119,-57.5 119,-38.5 0,-38.5"/>
<text text-anchor="middle" x="59.5" y="-45.5" font-family="Helvetica,sans-Serif" font-size="10.00">trap::handler::pageFault</text>
</a>
</g>
</g>
<!-- Node2 -->
<g id="node2" class="node">
<title>Node2</title>
<g id="a_node2"><a xlink:href="structtask_1_1_task.html#acc107ba9ef939a92f459873765fb73eb" target="_top" xlink:title=" ">
<polygon fill="white" stroke="black" points="155,-95.5 155,-114.5 256,-114.5 256,-95.5 155,-95.5"/>
<text text-anchor="middle" x="205.5" y="-102.5" font-family="Helvetica,sans-Serif" font-size="10.00">task::Task::destroy</text>
</a>
</g>
</g>
<!-- Node1&#45;&gt;Node2 -->
<g id="edge1" class="edge">
<title>Node1&#45;&gt;Node2</title>
<path fill="none" stroke="midnightblue" d="M84.6,-57.54C108.17,-66.87 144.28,-81.16 170.71,-91.62"/>
<polygon fill="midnightblue" stroke="midnightblue" points="169.73,-95 180.32,-95.43 172.31,-88.49 169.73,-95"/>
</g>
<!-- Node11 -->
<g id="node11" class="node">
<title>Node11</title>
<g id="a_node11"><a xlink:href="namespaceconsole_1_1out.html#ac6f663e3971b66b8e130ee94755a150e" target="_top" xlink:title=" ">
<polygon fill="white" stroke="black" points="408.5,-95.5 408.5,-114.5 503.5,-114.5 503.5,-95.5 408.5,-95.5"/>
<text text-anchor="middle" x="456" y="-102.5" font-family="Helvetica,sans-Serif" font-size="10.00">console::out::print</text>
</a>
</g>
</g>
<!-- Node1&#45;&gt;Node11 -->
<g id="edge40" class="edge">
<title>Node1&#45;&gt;Node11</title>
<path fill="none" stroke="midnightblue" d="M119.21,-45.6C181.76,-44.44 283.25,-46.55 368,-67 389.3,-72.14 411.93,-82.18 428.77,-90.66"/>
<polygon fill="midnightblue" stroke="midnightblue" points="427.48,-93.93 437.97,-95.41 430.69,-87.71 427.48,-93.93"/>
</g>
<!-- Node31 -->
<g id="node31" class="node">
<title>Node31</title>
<g id="a_node31"><a xlink:href="x86_8h.html#a3dc6d9821f5d1882b68147fd25aa11cd" target="_top" xlink:title=" ">
<polygon fill="white" stroke="black" points="189,-0.5 189,-19.5 222,-19.5 222,-0.5 189,-0.5"/>
<text text-anchor="middle" x="205.5" y="-7.5" font-family="Helvetica,sans-Serif" font-size="10.00">rcr2</text>
</a>
</g>
</g>
<!-- Node1&#45;&gt;Node31 -->
<g id="edge41" class="edge">
<title>Node1&#45;&gt;Node31</title>
<path fill="none" stroke="midnightblue" d="M96.84,-38.41C122.44,-31.65 156.1,-22.77 178.92,-16.75"/>
<polygon fill="midnightblue" stroke="midnightblue" points="180.09,-20.06 188.87,-14.13 178.3,-13.29 180.09,-20.06"/>
</g>
<!-- Node3 -->
<g id="node3" class="node">
<title>Node3</title>
<g id="a_node3"><a xlink:href="x86_8h.html#ab3bac932074f6042165d3016b701900a" target="_top" xlink:title=" ">
<polygon fill="white" stroke="black" points="314,-76.5 314,-95.5 346,-95.5 346,-76.5 314,-76.5"/>
<text text-anchor="middle" x="330" y="-83.5" font-family="Helvetica,sans-Serif" font-size="10.00">lcr3</text>
</a>
</g>
</g>
<!-- Node2&#45;&gt;Node3 -->
<g id="edge2" class="edge">
<title>Node2&#45;&gt;Node3</title>
<path fill="none" stroke="midnightblue" d="M256.33,-97.27C272.63,-94.74 290.06,-92.04 303.76,-89.91"/>
<polygon fill="midnightblue" stroke="midnightblue" points="304.51,-93.34 313.86,-88.35 303.44,-86.42 304.51,-93.34"/>
</g>
<!-- Node4 -->
<g id="node4" class="node">
<title>Node4</title>
<g id="a_node4"><a xlink:href="namespacemonitor.html#ac02f947e274eb7d38cdfa803c21ef579" target="_top" xlink:title=" ">
<polygon fill="white" stroke="black" points="292,-152.5 292,-171.5 368,-171.5 368,-152.5 292,-152.5"/>
<text text-anchor="middle" x="330" y="-159.5" font-family="Helvetica,sans-Serif" font-size="10.00">monitor::main</text>
</a>
</g>
</g>
<!-- Node2&#45;&gt;Node4 -->
<g id="edge3" class="edge">
<title>Node2&#45;&gt;Node4</title>
<path fill="none" stroke="midnightblue" d="M227,-114.54C246.79,-123.75 276.96,-137.78 299.36,-148.21"/>
<polygon fill="midnightblue" stroke="midnightblue" points="297.89,-151.38 308.43,-152.43 300.84,-145.04 297.89,-151.38"/>
</g>
<!-- Node2&#45;&gt;Node11 -->
<g id="edge39" class="edge">
<title>Node2&#45;&gt;Node11</title>
<path fill="none" stroke="midnightblue" d="M256.19,-105C297.15,-105 355.25,-105 398.08,-105"/>
<polygon fill="midnightblue" stroke="midnightblue" points="398.34,-108.5 408.34,-105 398.34,-101.5 398.34,-108.5"/>
</g>
<!-- Node5 -->
<g id="node5" class="node">
<title>Node5</title>
<g id="a_node5"><a xlink:href="namespacemonitor.html#a8b88ed0586263051a6af8dbff388e314" target="_top" xlink:title=" ">
<polygon fill="white" stroke="black" points="406,-323.5 406,-342.5 506,-342.5 506,-323.5 406,-323.5"/>
<text text-anchor="middle" x="456" y="-330.5" font-family="Helvetica,sans-Serif" font-size="10.00">monitor::parseCmd</text>
</a>
</g>
</g>
<!-- Node4&#45;&gt;Node5 -->
<g id="edge4" class="edge">
<title>Node4&#45;&gt;Node5</title>
<path fill="none" stroke="midnightblue" d="M338.02,-171.68C358.06,-199.31 415.73,-278.84 441.86,-314.87"/>
<polygon fill="midnightblue" stroke="midnightblue" points="439.35,-317.38 448.05,-323.42 445.02,-313.27 439.35,-317.38"/>
</g>
<!-- Node4&#45;&gt;Node11 -->
<g id="edge10" class="edge">
<title>Node4&#45;&gt;Node11</title>
<path fill="none" stroke="midnightblue" d="M347.82,-152.49C362.43,-144.41 384.29,-132.76 404,-124 408.46,-122.02 413.2,-120.06 417.92,-118.2"/>
<polygon fill="midnightblue" stroke="midnightblue" points="419.4,-121.38 427.49,-114.54 416.9,-114.84 419.4,-121.38"/>
</g>
<!-- Node26 -->
<g id="node26" class="node">
<title>Node26</title>
<g id="a_node26"><a xlink:href="namespaceconsole_1_1err.html#a124c7e8527c0e3fd2b9636411aea7e82" target="_top" xlink:title=" ">
<polygon fill="white" stroke="black" points="410,-171.5 410,-190.5 502,-190.5 502,-171.5 410,-171.5"/>
<text text-anchor="middle" x="456" y="-178.5" font-family="Helvetica,sans-Serif" font-size="10.00">console::err::print</text>
</a>
</g>
</g>
<!-- Node4&#45;&gt;Node26 -->
<g id="edge30" class="edge">
<title>Node4&#45;&gt;Node26</title>
<path fill="none" stroke="midnightblue" d="M368.2,-167.7C378.15,-169.22 389.12,-170.91 399.81,-172.54"/>
<polygon fill="midnightblue" stroke="midnightblue" points="399.52,-176.04 409.94,-174.1 400.58,-169.12 399.52,-176.04"/>
</g>
<!-- Node28 -->
<g id="node28" class="node">
<title>Node28</title>
<g id="a_node28"><a xlink:href="namespaceconsole_1_1in.html#afa763e7729f2e6fbdcf4c14e44ad7a29" target="_top" xlink:title=" ">
<polygon fill="white" stroke="black" points="404,-133.5 404,-152.5 508,-152.5 508,-133.5 404,-133.5"/>
<text text-anchor="middle" x="456" y="-140.5" font-family="Helvetica,sans-Serif" font-size="10.00">console::in::readline</text>
</a>
</g>
</g>
<!-- Node4&#45;&gt;Node28 -->
<g id="edge34" class="edge">
<title>Node4&#45;&gt;Node28</title>
<path fill="none" stroke="midnightblue" d="M368.2,-156.3C376.2,-155.07 384.86,-153.75 393.51,-152.42"/>
<polygon fill="midnightblue" stroke="midnightblue" points="394.25,-155.85 403.61,-150.87 393.19,-148.93 394.25,-155.85"/>
</g>
<!-- Node6 -->
<g id="node6" class="node">
<title>Node6</title>
<g id="a_node6"><a xlink:href="namespacestr.html#ace5edf7e67a558a1c4ead28a66faba41" target="_top" xlink:title=" ">
<polygon fill="white" stroke="black" points="563.5,-323.5 563.5,-342.5 639.5,-342.5 639.5,-323.5 563.5,-323.5"/>
<text text-anchor="middle" x="601.5" y="-330.5" font-family="Helvetica,sans-Serif" font-size="10.00">str::cmpCase</text>
</a>
</g>
</g>
<!-- Node5&#45;&gt;Node6 -->
<g id="edge5" class="edge">
<title>Node5&#45;&gt;Node6</title>
<path fill="none" stroke="midnightblue" d="M506.38,-333C521.54,-333 538.16,-333 553.17,-333"/>
<polygon fill="midnightblue" stroke="midnightblue" points="553.27,-336.5 563.27,-333 553.27,-329.5 553.27,-336.5"/>
</g>
<!-- Node7 -->
<g id="node7" class="node">
<title>Node7</title>
<g id="a_node7"><a xlink:href="namespacestr.html#a12522233f7d73122d76de5c82e44a183" target="_top" xlink:title=" ">
<polygon fill="white" stroke="black" points="568,-399.5 568,-418.5 635,-418.5 635,-399.5 568,-399.5"/>
<text text-anchor="middle" x="601.5" y="-406.5" font-family="Helvetica,sans-Serif" font-size="10.00">str::splitWs</text>
</a>
</g>
</g>
<!-- Node5&#45;&gt;Node7 -->
<g id="edge6" class="edge">
<title>Node5&#45;&gt;Node7</title>
<path fill="none" stroke="midnightblue" d="M475.17,-342.63C499.97,-355.76 544.61,-379.4 573.38,-394.64"/>
<polygon fill="midnightblue" stroke="midnightblue" points="572,-397.87 582.47,-399.45 575.27,-391.68 572,-397.87"/>
</g>
<!-- Node8 -->
<g id="node8" class="node">
<title>Node8</title>
<g id="a_node8"><a xlink:href="namespacestr.html#a0e183e333ba05550c6b206906dbf0f10" target="_top" xlink:title=" ">
<polygon fill="white" stroke="black" points="722,-437.5 722,-456.5 774,-456.5 774,-437.5 722,-437.5"/>
<text text-anchor="middle" x="748" y="-444.5" font-family="Helvetica,sans-Serif" font-size="10.00">str::split</text>
</a>
</g>
</g>
<!-- Node7&#45;&gt;Node8 -->
<g id="edge7" class="edge">
<title>Node7&#45;&gt;Node8</title>
<path fill="none" stroke="midnightblue" d="M635.29,-417.62C658.21,-423.65 688.77,-431.69 712.14,-437.83"/>
<polygon fill="midnightblue" stroke="midnightblue" points="711.43,-441.26 721.99,-440.42 713.21,-434.49 711.43,-441.26"/>
</g>
<!-- Node9 -->
<g id="node9" class="node">
<title>Node9</title>
<g id="a_node9"><a xlink:href="namespacestr.html#a062221f630647cf300f0dd982c4ed904" target="_top" xlink:title=" ">
<polygon fill="white" stroke="black" points="1633,-361.5 1633,-380.5 1691,-380.5 1691,-361.5 1633,-361.5"/>
<text text-anchor="middle" x="1662" y="-368.5" font-family="Helvetica,sans-Serif" font-size="10.00">str::count</text>
</a>
</g>
</g>
<!-- Node8&#45;&gt;Node9 -->
<g id="edge8" class="edge">
<title>Node8&#45;&gt;Node9</title>
<path fill="none" stroke="midnightblue" d="M774.39,-447C826.82,-447 950.88,-447 1055,-447 1055,-447 1055,-447 1362,-447 1462.34,-447 1575.95,-406.3 1629.67,-384.47"/>
<polygon fill="midnightblue" stroke="midnightblue" points="1631.07,-387.67 1638.98,-380.63 1628.4,-381.2 1631.07,-387.67"/>
</g>
<!-- Node10 -->
<g id="node10" class="node">
<title>Node10</title>
<g id="a_node10"><a xlink:href="namespacestr.html#a4b4d986113337f946299cef82449cf52" target="_top" xlink:title=" ">
<polygon fill="white" stroke="black" points="872,-475.5 872,-494.5 922,-494.5 922,-475.5 872,-475.5"/>
<text text-anchor="middle" x="897" y="-482.5" font-family="Helvetica,sans-Serif" font-size="10.00">str::find</text>
</a>
</g>
</g>
<!-- Node8&#45;&gt;Node10 -->
<g id="edge9" class="edge">
<title>Node8&#45;&gt;Node10</title>
<path fill="none" stroke="midnightblue" d="M774.27,-453.53C798.44,-459.78 835.06,-469.25 861.82,-476.16"/>
<polygon fill="midnightblue" stroke="midnightblue" points="860.99,-479.56 871.55,-478.68 862.74,-472.79 860.99,-479.56"/>
</g>
<!-- Node12 -->
<g id="node12" class="node">
<title>Node12</title>
<g id="a_node12"><a xlink:href="namespaceconsole_1_1out.html#a8f791bfac54067cadb1b9f18117b987b" target="_top" xlink:title=" ">
<polygon fill="white" stroke="black" points="695,-95.5 695,-114.5 801,-114.5 801,-95.5 695,-95.5"/>
<text text-anchor="middle" x="748" y="-102.5" font-family="Helvetica,sans-Serif" font-size="10.00">console::out::printVa</text>
</a>
</g>
</g>
<!-- Node11&#45;&gt;Node12 -->
<g id="edge11" class="edge">
<title>Node11&#45;&gt;Node12</title>
<path fill="none" stroke="midnightblue" d="M503.59,-105C552.7,-105 630.33,-105 684.68,-105"/>
<polygon fill="midnightblue" stroke="midnightblue" points="684.89,-108.5 694.89,-105 684.89,-101.5 684.89,-108.5"/>
</g>
<!-- Node13 -->
<g id="node13" class="node">
<title>Node13</title>
<g id="a_node13"><a xlink:href="namespaceconsole_1_1ge.html#af642934cb833142f133285fdb75ef7b7" target="_top" xlink:title=" ">
<polygon fill="white" stroke="black" points="837,-247.5 837,-266.5 957,-266.5 957,-247.5 837,-247.5"/>
<text text-anchor="middle" x="897" y="-254.5" font-family="Helvetica,sans-Serif" font-size="10.00">console::ge::printFmtVa</text>
</a>
</g>
</g>
<!-- Node12&#45;&gt;Node13 -->
<g id="edge12" class="edge">
<title>Node12&#45;&gt;Node13</title>
<path fill="none" stroke="midnightblue" d="M758.2,-114.51C782.53,-139.67 848.87,-208.26 879.76,-240.21"/>
<polygon fill="midnightblue" stroke="midnightblue" points="877.34,-242.74 886.81,-247.5 882.37,-237.87 877.34,-242.74"/>
</g>
<!-- Node19 -->
<g id="node19" class="node">
<title>Node19</title>
<g id="a_node19"><a xlink:href="namespaceconsole_1_1out.html#ad9fc97dff4404c2d21aedbb24691e7cb" target="_top" xlink:title=" ">
<polygon fill="white" stroke="black" points="1155,-228.5 1155,-247.5 1265,-247.5 1265,-228.5 1155,-228.5"/>
<text text-anchor="middle" x="1210" y="-235.5" font-family="Helvetica,sans-Serif" font-size="10.00">console::out::putChar</text>
</a>
</g>
</g>
<!-- Node12&#45;&gt;Node19 -->
<g id="edge29" class="edge">
<title>Node12&#45;&gt;Node19</title>
<path fill="none" stroke="midnightblue" d="M801.13,-96.01C876,-85.73 1016.27,-76.47 1119,-129 1157.77,-148.83 1186.03,-193.54 1199.73,-219.11"/>
<polygon fill="midnightblue" stroke="midnightblue" points="1196.71,-220.89 1204.4,-228.18 1202.93,-217.69 1196.71,-220.89"/>
</g>
<!-- Node13&#45;&gt;Node9 -->
<g id="edge15" class="edge">
<title>Node13&#45;&gt;Node9</title>
<path fill="none" stroke="midnightblue" d="M904.18,-266.72C917.55,-286.79 951.36,-332.57 993,-352 1080.33,-392.75 1112.63,-371 1209,-371 1209,-371 1209,-371 1362,-371 1455.63,-371 1565.76,-371 1622.65,-371"/>
<polygon fill="midnightblue" stroke="midnightblue" points="1622.97,-374.5 1632.97,-371 1622.97,-367.5 1622.97,-374.5"/>
</g>
<!-- Node14 -->
<g id="node14" class="node">
<title>Node14</title>
<g id="a_node14"><a xlink:href="printfmt_8cc.html#a708ec6ee2b8bd2d7a453d8d9436ed3b3" target="_top" xlink:title=" ">
<polygon fill="white" stroke="black" points="1027,-171.5 1027,-190.5 1085,-190.5 1085,-171.5 1027,-171.5"/>
<text text-anchor="middle" x="1056" y="-178.5" font-family="Helvetica,sans-Serif" font-size="10.00">_getIntVa</text>
</a>
</g>
</g>
<!-- Node13&#45;&gt;Node14 -->
<g id="edge13" class="edge">
<title>Node13&#45;&gt;Node14</title>
<path fill="none" stroke="midnightblue" d="M911.59,-247.39C929.53,-235.05 962.43,-213.61 993,-200 1000.6,-196.61 1008.99,-193.6 1017.07,-191.02"/>
<polygon fill="midnightblue" stroke="midnightblue" points="1018.14,-194.35 1026.7,-188.1 1016.11,-187.66 1018.14,-194.35"/>
</g>
<!-- Node15 -->
<g id="node15" class="node">
<title>Node15</title>
<g id="a_node15"><a xlink:href="printfmt_8cc.html#af4b46892c76c8bfd27efdb20847eb7c8" target="_top" xlink:title=" ">
<polygon fill="white" stroke="black" points="1023.5,-285.5 1023.5,-304.5 1088.5,-304.5 1088.5,-285.5 1023.5,-285.5"/>
<text text-anchor="middle" x="1056" y="-292.5" font-family="Helvetica,sans-Serif" font-size="10.00">_getUIntVa</text>
</a>
</g>
</g>
<!-- Node13&#45;&gt;Node15 -->
<g id="edge14" class="edge">
<title>Node13&#45;&gt;Node15</title>
<path fill="none" stroke="midnightblue" d="M937.62,-266.59C960.72,-272.18 989.84,-279.23 1013.3,-284.91"/>
<polygon fill="midnightblue" stroke="midnightblue" points="1012.76,-288.38 1023.3,-287.33 1014.4,-281.57 1012.76,-288.38"/>
</g>
<!-- Node16 -->
<g id="node16" class="node">
<title>Node16</title>
<g id="a_node16"><a xlink:href="printfmt_8cc.html#a0e3e484ece5e75b9f5fbe337f0ae8ae3" target="_top" xlink:title=" ">
<polygon fill="white" stroke="black" points="1029.5,-323.5 1029.5,-342.5 1082.5,-342.5 1082.5,-323.5 1029.5,-323.5"/>
<text text-anchor="middle" x="1056" y="-330.5" font-family="Helvetica,sans-Serif" font-size="10.00">describe</text>
</a>
</g>
</g>
<!-- Node13&#45;&gt;Node16 -->
<g id="edge16" class="edge">
<title>Node13&#45;&gt;Node16</title>
<path fill="none" stroke="midnightblue" d="M911.59,-266.61C929.53,-278.95 962.43,-300.39 993,-314 1001.44,-317.76 1010.85,-321.06 1019.73,-323.81"/>
<polygon fill="midnightblue" stroke="midnightblue" points="1018.87,-327.21 1029.45,-326.68 1020.85,-320.5 1018.87,-327.21"/>
</g>
<!-- Node18 -->
<g id="node18" class="node">
<title>Node18</title>
<g id="a_node18"><a xlink:href="namespaceconsole_1_1ge.html#a7e301813fd34fde772376afc5fdad95d" target="_top" xlink:title=" ">
<polygon fill="white" stroke="black" points="993,-209.5 993,-228.5 1119,-228.5 1119,-209.5 993,-209.5"/>
<text text-anchor="middle" x="1056" y="-216.5" font-family="Helvetica,sans-Serif" font-size="10.00">console::ge::printNumber</text>
</a>
</g>
</g>
<!-- Node13&#45;&gt;Node18 -->
<g id="edge18" class="edge">
<title>Node13&#45;&gt;Node18</title>
<path fill="none" stroke="midnightblue" d="M937.62,-247.41C958.34,-242.4 983.89,-236.21 1005.86,-230.89"/>
<polygon fill="midnightblue" stroke="midnightblue" points="1006.77,-234.27 1015.67,-228.52 1005.12,-227.47 1006.77,-234.27"/>
</g>
<!-- Node13&#45;&gt;Node19 -->
<g id="edge28" class="edge">
<title>Node13&#45;&gt;Node19</title>
<path fill="none" stroke="midnightblue" d="M957.23,-253.38C1010.9,-250.1 1089.8,-245.28 1144.93,-241.91"/>
<polygon fill="midnightblue" stroke="midnightblue" points="1145.16,-245.41 1154.93,-241.3 1144.74,-238.42 1145.16,-245.41"/>
</g>
<!-- Node17 -->
<g id="node17" class="node">
<title>Node17</title>
<g id="a_node17"><a xlink:href="namespacemonitor.html#a318993193c866642f8389a1c1f285739" target="_top" xlink:title=" ">
<polygon fill="white" stroke="black" points="1173,-323.5 1173,-342.5 1247,-342.5 1247,-323.5 1173,-323.5"/>
<text text-anchor="middle" x="1210" y="-330.5" font-family="Helvetica,sans-Serif" font-size="10.00">monitor::fuck</text>
</a>
</g>
</g>
<!-- Node16&#45;&gt;Node17 -->
<g id="edge17" class="edge">
<title>Node16&#45;&gt;Node17</title>
<path fill="none" stroke="midnightblue" d="M1082.78,-333C1104.62,-333 1136.46,-333 1162.7,-333"/>
<polygon fill="midnightblue" stroke="midnightblue" points="1162.82,-336.5 1172.82,-333 1162.82,-329.5 1162.82,-336.5"/>
</g>
<!-- Node18&#45;&gt;Node19 -->
<g id="edge19" class="edge">
<title>Node18&#45;&gt;Node19</title>
<path fill="none" stroke="midnightblue" d="M1119.26,-226.78C1127.66,-227.83 1136.28,-228.91 1144.71,-229.96"/>
<polygon fill="midnightblue" stroke="midnightblue" points="1144.51,-233.47 1154.86,-231.23 1145.37,-226.52 1144.51,-233.47"/>
</g>
<!-- Node20 -->
<g id="node20" class="node">
<title>Node20</title>
<g id="a_node20"><a xlink:href="namespaceconsole_1_1serial.html#a3a7c1f95ae3c24136ea63bb31fdf0391" target="_top" xlink:title=" ">
<polygon fill="white" stroke="black" points="1301,-228.5 1301,-247.5 1421,-247.5 1421,-228.5 1301,-228.5"/>
<text text-anchor="middle" x="1361" y="-235.5" font-family="Helvetica,sans-Serif" font-size="10.00">console::serial::putChar</text>
</a>
</g>
</g>
<!-- Node19&#45;&gt;Node20 -->
<g id="edge20" class="edge">
<title>Node19&#45;&gt;Node20</title>
<path fill="none" stroke="midnightblue" d="M1265.21,-238C1273.53,-238 1282.2,-238 1290.79,-238"/>
<polygon fill="midnightblue" stroke="midnightblue" points="1290.79,-241.5 1300.79,-238 1290.79,-234.5 1290.79,-241.5"/>
</g>
<!-- Node23 -->
<g id="node23" class="node">
<title>Node23</title>
<g id="a_node23"><a xlink:href="namespaceconsole_1_1cga.html#afa19057ca041b39682d5d4831c43dfa0" target="_top" xlink:title=" ">
<polygon fill="white" stroke="black" points="1304.5,-266.5 1304.5,-285.5 1417.5,-285.5 1417.5,-266.5 1304.5,-266.5"/>
<text text-anchor="middle" x="1361" y="-273.5" font-family="Helvetica,sans-Serif" font-size="10.00">console::cga::putChar</text>
</a>
</g>
</g>
<!-- Node19&#45;&gt;Node23 -->
<g id="edge23" class="edge">
<title>Node19&#45;&gt;Node23</title>
<path fill="none" stroke="midnightblue" d="M1248.6,-247.59C1268.08,-252.56 1292.07,-258.68 1312.8,-263.96"/>
<polygon fill="midnightblue" stroke="midnightblue" points="1312.12,-267.4 1322.67,-266.48 1313.85,-260.62 1312.12,-267.4"/>
</g>
<!-- Node21 -->
<g id="node21" class="node">
<title>Node21</title>
<g id="a_node21"><a xlink:href="namespaceconsole_1_1serial.html#aa5605d4537106bb1c2bab72d7d1a5824" target="_top" xlink:title=" ">
<polygon fill="white" stroke="black" points="1475,-228.5 1475,-247.5 1579,-247.5 1579,-228.5 1475,-228.5"/>
<text text-anchor="middle" x="1527" y="-235.5" font-family="Helvetica,sans-Serif" font-size="10.00">console::serial::sout</text>
</a>
</g>
</g>
<!-- Node20&#45;&gt;Node21 -->
<g id="edge21" class="edge">
<title>Node20&#45;&gt;Node21</title>
<path fill="none" stroke="midnightblue" d="M1421.21,-238C1435.31,-238 1450.39,-238 1464.59,-238"/>
<polygon fill="midnightblue" stroke="midnightblue" points="1464.74,-241.5 1474.74,-238 1464.74,-234.5 1464.74,-241.5"/>
</g>
<!-- Node22 -->
<g id="node22" class="node">
<title>Node22</title>
<g id="a_node22"><a xlink:href="x86_8h.html#ade961b44e45ddacbc3c3b7609cf36dc6" target="_top" xlink:title=" ">
<polygon fill="white" stroke="black" points="1644.5,-247.5 1644.5,-266.5 1679.5,-266.5 1679.5,-247.5 1644.5,-247.5"/>
<text text-anchor="middle" x="1662" y="-254.5" font-family="Helvetica,sans-Serif" font-size="10.00">outb</text>
</a>
</g>
</g>
<!-- Node21&#45;&gt;Node22 -->
<g id="edge22" class="edge">
<title>Node21&#45;&gt;Node22</title>
<path fill="none" stroke="midnightblue" d="M1579.04,-245.29C1597.85,-247.98 1618.4,-250.91 1634.22,-253.17"/>
<polygon fill="midnightblue" stroke="midnightblue" points="1633.95,-256.67 1644.34,-254.62 1634.94,-249.74 1633.95,-256.67"/>
</g>
<!-- Node24 -->
<g id="node24" class="node">
<title>Node24</title>
<g id="a_node24"><a xlink:href="namespacemem.html#a64d9d05b439041901498c606de606431" target="_top" xlink:title=" ">
<polygon fill="white" stroke="black" points="1494.5,-314.5 1494.5,-333.5 1559.5,-333.5 1559.5,-314.5 1494.5,-314.5"/>
<text text-anchor="middle" x="1527" y="-321.5" font-family="Helvetica,sans-Serif" font-size="10.00">mem::copy</text>
</a>
</g>
</g>
<!-- Node23&#45;&gt;Node24 -->
<g id="edge24" class="edge">
<title>Node23&#45;&gt;Node24</title>
<path fill="none" stroke="midnightblue" d="M1394.79,-285.6C1420.6,-293.15 1456.73,-303.73 1484.54,-311.87"/>
<polygon fill="midnightblue" stroke="midnightblue" points="1483.8,-315.29 1494.38,-314.74 1485.76,-308.58 1483.8,-315.29"/>
</g>
<!-- Node25 -->
<g id="node25" class="node">
<title>Node25</title>
<g id="a_node25"><a xlink:href="namespaceconsole_1_1cga.html#a06463d4dc68819e30615ba299d02a78f" target="_top" xlink:title=" ">
<polygon fill="white" stroke="black" points="1457,-266.5 1457,-285.5 1597,-285.5 1597,-266.5 1457,-266.5"/>
<text text-anchor="middle" x="1527" y="-273.5" font-family="Helvetica,sans-Serif" font-size="10.00">console::cga::cursorRefresh</text>
</a>
</g>
</g>
<!-- Node23&#45;&gt;Node25 -->
<g id="edge26" class="edge">
<title>Node23&#45;&gt;Node25</title>
<path fill="none" stroke="midnightblue" d="M1417.52,-276C1426.9,-276 1436.8,-276 1446.65,-276"/>
<polygon fill="midnightblue" stroke="midnightblue" points="1446.87,-279.5 1456.87,-276 1446.87,-272.5 1446.87,-279.5"/>
</g>
<!-- Node24&#45;&gt;Node9 -->
<g id="edge25" class="edge">
<title>Node24&#45;&gt;Node9</title>
<path fill="none" stroke="midnightblue" d="M1554.91,-333.51C1574.79,-340.54 1602.09,-350.18 1624.02,-357.93"/>
<polygon fill="midnightblue" stroke="midnightblue" points="1623.07,-361.31 1633.67,-361.34 1625.41,-354.71 1623.07,-361.31"/>
</g>
<!-- Node25&#45;&gt;Node22 -->
<g id="edge27" class="edge">
<title>Node25&#45;&gt;Node22</title>
<path fill="none" stroke="midnightblue" d="M1594.89,-266.44C1608.81,-264.46 1622.71,-262.47 1634.15,-260.84"/>
<polygon fill="midnightblue" stroke="midnightblue" points="1634.87,-264.27 1644.28,-259.39 1633.88,-257.34 1634.87,-264.27"/>
</g>
<!-- Node27 -->
<g id="node27" class="node">
<title>Node27</title>
<g id="a_node27"><a xlink:href="namespaceconsole_1_1err.html#a4cd18e4c409b5b17ecec61ce83b05fba" target="_top" xlink:title=" ">
<polygon fill="white" stroke="black" points="696,-247.5 696,-266.5 800,-266.5 800,-247.5 696,-247.5"/>
<text text-anchor="middle" x="748" y="-254.5" font-family="Helvetica,sans-Serif" font-size="10.00">console::err::printVa</text>
</a>
</g>
</g>
<!-- Node26&#45;&gt;Node27 -->
<g id="edge31" class="edge">
<title>Node26&#45;&gt;Node27</title>
<path fill="none" stroke="midnightblue" d="M493.44,-190.55C545.96,-204.31 642.95,-229.73 700.55,-244.83"/>
<polygon fill="midnightblue" stroke="midnightblue" points="699.93,-248.28 710.49,-247.43 701.7,-241.51 699.93,-248.28"/>
</g>
<!-- Node27&#45;&gt;Node13 -->
<g id="edge32" class="edge">
<title>Node27&#45;&gt;Node13</title>
<path fill="none" stroke="midnightblue" d="M800,-257C808.62,-257 817.69,-257 826.68,-257"/>
<polygon fill="midnightblue" stroke="midnightblue" points="826.76,-260.5 836.76,-257 826.76,-253.5 826.76,-260.5"/>
</g>
<!-- Node27&#45;&gt;Node19 -->
<g id="edge33" class="edge">
<title>Node27&#45;&gt;Node19</title>
<path fill="none" stroke="midnightblue" d="M762.1,-266.59C811.26,-301.31 988.6,-415.19 1119,-352 1129.79,-346.77 1174.24,-286.37 1196.37,-255.68"/>
<polygon fill="midnightblue" stroke="midnightblue" points="1199.22,-257.7 1202.21,-247.54 1193.54,-253.62 1199.22,-257.7"/>
</g>
<!-- Node29 -->
<g id="node29" class="node">
<title>Node29</title>
<g id="a_node29"><a xlink:href="namespaceconsole_1_1in.html#ac28354dad0498aa6bb0c178b10d62c8a" target="_top" xlink:title=" ">
<polygon fill="white" stroke="black" points="544,-133.5 544,-152.5 659,-152.5 659,-133.5 544,-133.5"/>
<text text-anchor="middle" x="601.5" y="-140.5" font-family="Helvetica,sans-Serif" font-size="10.00">console::in::readlineVa</text>
</a>
</g>
</g>
<!-- Node28&#45;&gt;Node29 -->
<g id="edge35" class="edge">
<title>Node28&#45;&gt;Node29</title>
<path fill="none" stroke="midnightblue" d="M508.4,-143C516.52,-143 525.02,-143 533.43,-143"/>
<polygon fill="midnightblue" stroke="midnightblue" points="533.62,-146.5 543.62,-143 533.62,-139.5 533.62,-146.5"/>
</g>
<!-- Node29&#45;&gt;Node12 -->
<g id="edge37" class="edge">
<title>Node29&#45;&gt;Node12</title>
<path fill="none" stroke="midnightblue" d="M638.96,-133.41C657.77,-128.46 680.91,-122.38 700.95,-117.11"/>
<polygon fill="midnightblue" stroke="midnightblue" points="702.02,-120.45 710.8,-114.52 700.24,-113.68 702.02,-120.45"/>
</g>
<!-- Node29&#45;&gt;Node19 -->
<g id="edge38" class="edge">
<title>Node29&#45;&gt;Node19</title>
<path fill="none" stroke="midnightblue" d="M659.02,-140.48C775.14,-136.05 1036.56,-130.12 1119,-162 1150.43,-174.15 1178.68,-202.15 1194.83,-220.55"/>
<polygon fill="midnightblue" stroke="midnightblue" points="1192.22,-222.89 1201.36,-228.24 1197.56,-218.36 1192.22,-222.89"/>
</g>
<!-- Node30 -->
<g id="node30" class="node">
<title>Node30</title>
<g id="a_node30"><a xlink:href="namespaceconsole_1_1in.html#a6fc069f2bc57fda183e3b991c31ec5a7" target="_top" xlink:title=" ">
<polygon fill="white" stroke="black" points="696,-171.5 696,-190.5 800,-190.5 800,-171.5 696,-171.5"/>
<text text-anchor="middle" x="748" y="-178.5" font-family="Helvetica,sans-Serif" font-size="10.00">console::in::getChar</text>
</a>
</g>
</g>
<!-- Node29&#45;&gt;Node30 -->
<g id="edge36" class="edge">
<title>Node29&#45;&gt;Node30</title>
<path fill="none" stroke="midnightblue" d="M638.96,-152.59C657.77,-157.54 680.91,-163.62 700.95,-168.89"/>
<polygon fill="midnightblue" stroke="midnightblue" points="700.24,-172.32 710.8,-171.48 702.02,-165.55 700.24,-172.32"/>
</g>
</g>
</svg>
