<?xml version="1.0" encoding="UTF-8" standalone="no"?>
<!DOCTYPE svg PUBLIC "-//W3C//DTD SVG 1.1//EN"
 "http://www.w3.org/Graphics/SVG/1.1/DTD/svg11.dtd">
<!-- Generated by graphviz version 2.44.1 (20200629.0846)
 -->
<!-- Title: console::out::print Pages: 1 -->
<svg width="1135pt" height="204pt"
 viewBox="0.00 0.00 1135.00 203.69" xmlns="http://www.w3.org/2000/svg" xmlns:xlink="http://www.w3.org/1999/xlink">
<g id="graph0" class="graph" transform="scale(1 1) rotate(0) translate(4 199.69)">
<title>console::out::print</title>
<polygon fill="white" stroke="transparent" points="-4,4 -4,-199.69 1131,-199.69 1131,4 -4,4"/>
<!-- Node1 -->
<g id="node1" class="node">
<title>Node1</title>
<g id="a_node1"><a xlink:title=" ">
<polygon fill="#bfbfbf" stroke="black" points="0,-9.32 0,-28.32 95,-28.32 95,-9.32 0,-9.32"/>
<text text-anchor="middle" x="47.5" y="-16.32" font-family="Helvetica,sans-Serif" font-size="10.00">console::out::print</text>
</a>
</g>
</g>
<!-- Node2 -->
<g id="node2" class="node">
<title>Node2</title>
<g id="a_node2"><a xlink:href="namespaceconsole_1_1out.html#a8f791bfac54067cadb1b9f18117b987b" target="_top" xlink:title=" ">
<polygon fill="white" stroke="black" points="131,-9.32 131,-28.32 237,-28.32 237,-9.32 131,-9.32"/>
<text text-anchor="middle" x="184" y="-16.32" font-family="Helvetica,sans-Serif" font-size="10.00">console::out::printVa</text>
</a>
</g>
</g>
<!-- Node1&#45;&gt;Node2 -->
<g id="edge1" class="edge">
<title>Node1&#45;&gt;Node2</title>
<path fill="none" stroke="midnightblue" d="M95.16,-18.82C103.45,-18.82 112.2,-18.82 120.84,-18.82"/>
<polygon fill="midnightblue" stroke="midnightblue" points="120.9,-22.32 130.9,-18.82 120.9,-15.32 120.9,-22.32"/>
</g>
<!-- Node3 -->
<g id="node3" class="node">
<title>Node3</title>
<g id="a_node3"><a xlink:href="namespaceconsole_1_1ge.html#af642934cb833142f133285fdb75ef7b7" target="_top" xlink:title=" ">
<polygon fill="white" stroke="black" points="273,-66.32 273,-85.32 393,-85.32 393,-66.32 273,-66.32"/>
<text text-anchor="middle" x="333" y="-73.32" font-family="Helvetica,sans-Serif" font-size="10.00">console::ge::printFmtVa</text>
</a>
</g>
</g>
<!-- Node2&#45;&gt;Node3 -->
<g id="edge2" class="edge">
<title>Node2&#45;&gt;Node3</title>
<path fill="none" stroke="midnightblue" d="M209.6,-28.36C233.77,-37.73 270.85,-52.11 297.86,-62.58"/>
<polygon fill="midnightblue" stroke="midnightblue" points="296.73,-65.9 307.32,-66.25 299.26,-59.37 296.73,-65.9"/>
</g>
<!-- Node10 -->
<g id="node10" class="node">
<title>Node10</title>
<g id="a_node10"><a xlink:href="namespaceconsole_1_1out.html#ad9fc97dff4404c2d21aedbb24691e7cb" target="_top" xlink:title=" ">
<polygon fill="white" stroke="black" points="591,-9.32 591,-28.32 701,-28.32 701,-9.32 591,-9.32"/>
<text text-anchor="middle" x="646" y="-16.32" font-family="Helvetica,sans-Serif" font-size="10.00">console::out::putChar</text>
</a>
</g>
</g>
<!-- Node2&#45;&gt;Node10 -->
<g id="edge19" class="edge">
<title>Node2&#45;&gt;Node10</title>
<path fill="none" stroke="midnightblue" d="M237.17,-12.67C308.89,-5.14 441.92,5.54 555,-3.82 565.29,-4.67 576.17,-6.06 586.68,-7.66"/>
<polygon fill="midnightblue" stroke="midnightblue" points="586.18,-11.13 596.61,-9.25 587.28,-4.22 586.18,-11.13"/>
</g>
<!-- Node4 -->
<g id="node4" class="node">
<title>Node4</title>
<g id="a_node4"><a xlink:href="printfmt_8cc.html#a708ec6ee2b8bd2d7a453d8d9436ed3b3" target="_top" xlink:title=" ">
<polygon fill="white" stroke="black" points="463,-142.32 463,-161.32 521,-161.32 521,-142.32 463,-142.32"/>
<text text-anchor="middle" x="492" y="-149.32" font-family="Helvetica,sans-Serif" font-size="10.00">_getIntVa</text>
</a>
</g>
</g>
<!-- Node3&#45;&gt;Node4 -->
<g id="edge3" class="edge">
<title>Node3&#45;&gt;Node4</title>
<path fill="none" stroke="midnightblue" d="M347.59,-85.43C365.53,-97.77 398.43,-119.21 429,-132.82 436.6,-136.21 444.99,-139.22 453.07,-141.8"/>
<polygon fill="midnightblue" stroke="midnightblue" points="452.11,-145.17 462.7,-144.72 454.14,-138.47 452.11,-145.17"/>
</g>
<!-- Node5 -->
<g id="node5" class="node">
<title>Node5</title>
<g id="a_node5"><a xlink:href="printfmt_8cc.html#af4b46892c76c8bfd27efdb20847eb7c8" target="_top" xlink:title=" ">
<polygon fill="white" stroke="black" points="459.5,-104.32 459.5,-123.32 524.5,-123.32 524.5,-104.32 459.5,-104.32"/>
<text text-anchor="middle" x="492" y="-111.32" font-family="Helvetica,sans-Serif" font-size="10.00">_getUIntVa</text>
</a>
</g>
</g>
<!-- Node3&#45;&gt;Node5 -->
<g id="edge4" class="edge">
<title>Node3&#45;&gt;Node5</title>
<path fill="none" stroke="midnightblue" d="M373.62,-85.41C396.72,-91 425.84,-98.05 449.3,-103.73"/>
<polygon fill="midnightblue" stroke="midnightblue" points="448.76,-107.2 459.3,-106.15 450.4,-100.4 448.76,-107.2"/>
</g>
<!-- Node6 -->
<g id="node6" class="node">
<title>Node6</title>
<g id="a_node6"><a xlink:href="namespacestr.html#a062221f630647cf300f0dd982c4ed904" target="_top" xlink:title=" ">
<polygon fill="white" stroke="black" points="1069,-99.32 1069,-118.32 1127,-118.32 1127,-99.32 1069,-99.32"/>
<text text-anchor="middle" x="1098" y="-106.32" font-family="Helvetica,sans-Serif" font-size="10.00">str::count</text>
</a>
</g>
</g>
<!-- Node3&#45;&gt;Node6 -->
<g id="edge5" class="edge">
<title>Node3&#45;&gt;Node6</title>
<path fill="none" stroke="midnightblue" d="M340.18,-85.54C353.55,-105.61 387.36,-151.39 429,-170.82 516.33,-211.57 548.63,-189.82 645,-189.82 645,-189.82 645,-189.82 798,-189.82 899.55,-189.82 1013.97,-145.75 1067.02,-122.63"/>
<polygon fill="midnightblue" stroke="midnightblue" points="1068.77,-125.68 1076.5,-118.43 1065.93,-119.28 1068.77,-125.68"/>
</g>
<!-- Node7 -->
<g id="node7" class="node">
<title>Node7</title>
<g id="a_node7"><a xlink:href="printfmt_8cc.html#a0e3e484ece5e75b9f5fbe337f0ae8ae3" target="_top" xlink:title=" ">
<polygon fill="white" stroke="black" points="465.5,-66.32 465.5,-85.32 518.5,-85.32 518.5,-66.32 465.5,-66.32"/>
<text text-anchor="middle" x="492" y="-73.32" font-family="Helvetica,sans-Serif" font-size="10.00">describe</text>
</a>
</g>
</g>
<!-- Node3&#45;&gt;Node7 -->
<g id="edge6" class="edge">
<title>Node3&#45;&gt;Node7</title>
<path fill="none" stroke="midnightblue" d="M393.35,-75.82C414.12,-75.82 436.78,-75.82 455.04,-75.82"/>
<polygon fill="midnightblue" stroke="midnightblue" points="455.24,-79.32 465.24,-75.82 455.24,-72.32 455.24,-79.32"/>
</g>
<!-- Node9 -->
<g id="node9" class="node">
<title>Node9</title>
<g id="a_node9"><a xlink:href="namespaceconsole_1_1ge.html#a7e301813fd34fde772376afc5fdad95d" target="_top" xlink:title=" ">
<polygon fill="white" stroke="black" points="429,-28.32 429,-47.32 555,-47.32 555,-28.32 429,-28.32"/>
<text text-anchor="middle" x="492" y="-35.32" font-family="Helvetica,sans-Serif" font-size="10.00">console::ge::printNumber</text>
</a>
</g>
</g>
<!-- Node3&#45;&gt;Node9 -->
<g id="edge8" class="edge">
<title>Node3&#45;&gt;Node9</title>
<path fill="none" stroke="midnightblue" d="M373.62,-66.23C394.34,-61.22 419.89,-55.03 441.86,-49.72"/>
<polygon fill="midnightblue" stroke="midnightblue" points="442.77,-53.1 451.67,-47.34 441.12,-46.29 442.77,-53.1"/>
</g>
<!-- Node3&#45;&gt;Node10 -->
<g id="edge18" class="edge">
<title>Node3&#45;&gt;Node10</title>
<path fill="none" stroke="midnightblue" d="M345.33,-66.18C362.22,-52.49 395.63,-28.06 429,-18.82 478.52,-5.11 536.9,-6.07 580.48,-9.93"/>
<polygon fill="midnightblue" stroke="midnightblue" points="580.38,-13.44 590.66,-10.91 581.05,-6.47 580.38,-13.44"/>
</g>
<!-- Node8 -->
<g id="node8" class="node">
<title>Node8</title>
<g id="a_node8"><a xlink:href="namespacemonitor.html#a318993193c866642f8389a1c1f285739" target="_top" xlink:title=" ">
<polygon fill="white" stroke="black" points="609,-66.32 609,-85.32 683,-85.32 683,-66.32 609,-66.32"/>
<text text-anchor="middle" x="646" y="-73.32" font-family="Helvetica,sans-Serif" font-size="10.00">monitor::fuck</text>
</a>
</g>
</g>
<!-- Node7&#45;&gt;Node8 -->
<g id="edge7" class="edge">
<title>Node7&#45;&gt;Node8</title>
<path fill="none" stroke="midnightblue" d="M518.78,-75.82C540.62,-75.82 572.46,-75.82 598.7,-75.82"/>
<polygon fill="midnightblue" stroke="midnightblue" points="598.82,-79.32 608.82,-75.82 598.82,-72.32 598.82,-79.32"/>
</g>
<!-- Node9&#45;&gt;Node10 -->
<g id="edge9" class="edge">
<title>Node9&#45;&gt;Node10</title>
<path fill="none" stroke="midnightblue" d="M555.26,-30.04C563.66,-28.99 572.28,-27.91 580.71,-26.86"/>
<polygon fill="midnightblue" stroke="midnightblue" points="581.37,-30.3 590.86,-25.59 580.51,-23.36 581.37,-30.3"/>
</g>
<!-- Node11 -->
<g id="node11" class="node">
<title>Node11</title>
<g id="a_node11"><a xlink:href="namespaceconsole_1_1serial.html#a3a7c1f95ae3c24136ea63bb31fdf0391" target="_top" xlink:title=" ">
<polygon fill="white" stroke="black" points="737,-9.32 737,-28.32 857,-28.32 857,-9.32 737,-9.32"/>
<text text-anchor="middle" x="797" y="-16.32" font-family="Helvetica,sans-Serif" font-size="10.00">console::serial::putChar</text>
</a>
</g>
</g>
<!-- Node10&#45;&gt;Node11 -->
<g id="edge10" class="edge">
<title>Node10&#45;&gt;Node11</title>
<path fill="none" stroke="midnightblue" d="M701.21,-18.82C709.53,-18.82 718.2,-18.82 726.79,-18.82"/>
<polygon fill="midnightblue" stroke="midnightblue" points="726.79,-22.32 736.79,-18.82 726.79,-15.32 726.79,-22.32"/>
</g>
<!-- Node14 -->
<g id="node14" class="node">
<title>Node14</title>
<g id="a_node14"><a xlink:href="namespaceconsole_1_1cga.html#afa19057ca041b39682d5d4831c43dfa0" target="_top" xlink:title=" ">
<polygon fill="white" stroke="black" points="740.5,-47.32 740.5,-66.32 853.5,-66.32 853.5,-47.32 740.5,-47.32"/>
<text text-anchor="middle" x="797" y="-54.32" font-family="Helvetica,sans-Serif" font-size="10.00">console::cga::putChar</text>
</a>
</g>
</g>
<!-- Node10&#45;&gt;Node14 -->
<g id="edge13" class="edge">
<title>Node10&#45;&gt;Node14</title>
<path fill="none" stroke="midnightblue" d="M684.6,-28.41C704.08,-33.38 728.07,-39.5 748.8,-44.78"/>
<polygon fill="midnightblue" stroke="midnightblue" points="748.12,-48.22 758.67,-47.3 749.85,-41.44 748.12,-48.22"/>
</g>
<!-- Node12 -->
<g id="node12" class="node">
<title>Node12</title>
<g id="a_node12"><a xlink:href="namespaceconsole_1_1serial.html#aa5605d4537106bb1c2bab72d7d1a5824" target="_top" xlink:title=" ">
<polygon fill="white" stroke="black" points="911,-9.32 911,-28.32 1015,-28.32 1015,-9.32 911,-9.32"/>
<text text-anchor="middle" x="963" y="-16.32" font-family="Helvetica,sans-Serif" font-size="10.00">console::serial::sout</text>
</a>
</g>
</g>
<!-- Node11&#45;&gt;Node12 -->
<g id="edge11" class="edge">
<title>Node11&#45;&gt;Node12</title>
<path fill="none" stroke="midnightblue" d="M857.21,-18.82C871.31,-18.82 886.39,-18.82 900.59,-18.82"/>
<polygon fill="midnightblue" stroke="midnightblue" points="900.74,-22.32 910.74,-18.82 900.74,-15.32 900.74,-22.32"/>
</g>
<!-- Node13 -->
<g id="node13" class="node">
<title>Node13</title>
<g id="a_node13"><a xlink:href="x86_8h.html#ade961b44e45ddacbc3c3b7609cf36dc6" target="_top" xlink:title=" ">
<polygon fill="white" stroke="black" points="1080.5,-42.32 1080.5,-61.32 1115.5,-61.32 1115.5,-42.32 1080.5,-42.32"/>
<text text-anchor="middle" x="1098" y="-49.32" font-family="Helvetica,sans-Serif" font-size="10.00">outb</text>
</a>
</g>
</g>
<!-- Node12&#45;&gt;Node13 -->
<g id="edge12" class="edge">
<title>Node12&#45;&gt;Node13</title>
<path fill="none" stroke="midnightblue" d="M1002.47,-28.37C1024.32,-33.79 1051.11,-40.44 1070.59,-45.27"/>
<polygon fill="midnightblue" stroke="midnightblue" points="1069.76,-48.67 1080.31,-47.68 1071.44,-41.88 1069.76,-48.67"/>
</g>
<!-- Node15 -->
<g id="node15" class="node">
<title>Node15</title>
<g id="a_node15"><a xlink:href="namespacemem.html#a64d9d05b439041901498c606de606431" target="_top" xlink:title=" ">
<polygon fill="white" stroke="black" points="930.5,-90.32 930.5,-109.32 995.5,-109.32 995.5,-90.32 930.5,-90.32"/>
<text text-anchor="middle" x="963" y="-97.32" font-family="Helvetica,sans-Serif" font-size="10.00">mem::copy</text>
</a>
</g>
</g>
<!-- Node14&#45;&gt;Node15 -->
<g id="edge14" class="edge">
<title>Node14&#45;&gt;Node15</title>
<path fill="none" stroke="midnightblue" d="M834.4,-66.37C859.92,-73.06 894.08,-82.01 920.64,-88.98"/>
<polygon fill="midnightblue" stroke="midnightblue" points="919.85,-92.39 930.41,-91.54 921.62,-85.62 919.85,-92.39"/>
</g>
<!-- Node16 -->
<g id="node16" class="node">
<title>Node16</title>
<g id="a_node16"><a xlink:href="namespaceconsole_1_1cga.html#a06463d4dc68819e30615ba299d02a78f" target="_top" xlink:title=" ">
<polygon fill="white" stroke="black" points="893,-47.32 893,-66.32 1033,-66.32 1033,-47.32 893,-47.32"/>
<text text-anchor="middle" x="963" y="-54.32" font-family="Helvetica,sans-Serif" font-size="10.00">console::cga::cursorRefresh</text>
</a>
</g>
</g>
<!-- Node14&#45;&gt;Node16 -->
<g id="edge16" class="edge">
<title>Node14&#45;&gt;Node16</title>
<path fill="none" stroke="midnightblue" d="M853.52,-56.82C862.9,-56.82 872.8,-56.82 882.65,-56.82"/>
<polygon fill="midnightblue" stroke="midnightblue" points="882.87,-60.32 892.87,-56.82 882.87,-53.32 882.87,-60.32"/>
</g>
<!-- Node15&#45;&gt;Node6 -->
<g id="edge15" class="edge">
<title>Node15&#45;&gt;Node6</title>
<path fill="none" stroke="midnightblue" d="M995.52,-101.96C1014.49,-103.24 1038.77,-104.88 1058.82,-106.24"/>
<polygon fill="midnightblue" stroke="midnightblue" points="1058.66,-109.74 1068.87,-106.92 1059.13,-102.75 1058.66,-109.74"/>
</g>
<!-- Node16&#45;&gt;Node13 -->
<g id="edge17" class="edge">
<title>Node16&#45;&gt;Node13</title>
<path fill="none" stroke="midnightblue" d="M1033.23,-54.22C1046.48,-53.72 1059.59,-53.23 1070.45,-52.82"/>
<polygon fill="midnightblue" stroke="midnightblue" points="1070.61,-56.32 1080.47,-52.44 1070.35,-49.32 1070.61,-56.32"/>
</g>
</g>
</svg>
