<?xml version="1.0" encoding="UTF-8" standalone="no"?>
<!DOCTYPE svg PUBLIC "-//W3C//DTD SVG 1.1//EN"
 "http://www.w3.org/Graphics/SVG/1.1/DTD/svg11.dtd">
<!-- Generated by graphviz version 2.44.1 (20200629.0846)
 -->
<!-- Title: vmem::pgdir::insert Pages: 1 -->
<!--zoomable 228 -->
<svg id="main" version="1.1" xmlns="http://www.w3.org/2000/svg" xmlns:xlink="http://www.w3.org/1999/xlink" xml:space="preserve" onload="init(evt)">
<style type="text/css"><![CDATA[
.edge:hover path { stroke: red; }
.edge:hover polygon { stroke: red; fill: red; }
]]></style>
<script type="text/javascript"><![CDATA[
var edges = document.getElementsByTagName('g');
if (edges && edges.length) {
  for (var i=0;i<edges.length;i++) {
    if (edges[i].id.substr(0,4)=='edge') {
      edges[i].setAttribute('class','edge');
    }
  }
}
]]></script>
        <defs>
                <circle id="rim" cx="0" cy="0" r="7"/>
                <circle id="rim2" cx="0" cy="0" r="3.5"/>
                <g id="zoomPlus">
                        <use xlink:href="#rim" fill="#404040">
                                <set attributeName="fill" to="#808080" begin="zoomplus.mouseover" end="zoomplus.mouseout"/>
                        </use>
                        <path d="M-4,0h8M0,-4v8" fill="none" stroke="white" stroke-width="1.5" pointer-events="none"/>
                </g>
                <g id="zoomMin">
                        <use xlink:href="#rim" fill="#404040">
                                <set attributeName="fill" to="#808080" begin="zoomminus.mouseover" end="zoomminus.mouseout"/>
                        </use>
                        <path d="M-4,0h8" fill="none" stroke="white" stroke-width="1.5" pointer-events="none"/>
                </g>
                <g id="dirArrow">
                        <path fill="none" stroke="white" stroke-width="1.5" d="M0,-3.0v7 M-2.5,-0.5L0,-3.0L2.5,-0.5"/>
                </g>
               <g id="resetDef">
                       <use xlink:href="#rim2" fill="#404040">
                               <set attributeName="fill" to="#808080" begin="reset.mouseover" end="reset.mouseout"/>
                       </use>
               </g>
        </defs>

<script type="text/javascript">
var viewWidth = 1154;
var viewHeight = 228;
var sectionId = 'dynsection-4';
</script>
<script xlink:href="svgpan.js"/>
<svg id="graph" class="graph">
<g id="viewport">
<title>vmem::pgdir::insert</title>
<polygon fill="white" stroke="transparent" points="-4,4 -4,-224.17 1150,-224.17 1150,4 -4,4"/>
<!-- Node1 -->
<g id="node1" class="node">
<title>Node1</title>
<g id="a_node1"><a xlink:title=" ">
<polygon fill="#bfbfbf" stroke="black" points="0,-77.67 0,-96.67 101,-96.67 101,-77.67 0,-77.67"/>
<text text-anchor="middle" x="50.5" y="-84.67" font-family="Helvetica,sans-Serif" font-size="10.00">vmem::pgdir::insert</text>
</a>
</g>
</g>
<!-- Node2 -->
<g id="node2" class="node">
<title>Node2</title>
<g id="a_node2"><a xlink:href="namespacevmem_1_1pgdir.html#a933a8f939084dabdb1a4b5401bebf8d7" target="_top" xlink:title=" ">
<polygon fill="white" stroke="black" points="439,-115.67 439,-134.67 546,-134.67 546,-115.67 439,-115.67"/>
<text text-anchor="middle" x="492.5" y="-122.67" font-family="Helvetica,sans-Serif" font-size="10.00">vmem::pgdir::findPte</text>
</a>
</g>
</g>
<!-- Node1&#45;&gt;Node2 -->
<g id="edge1" class="edge">
<title>Node1&#45;&gt;Node2</title>
<path fill="none" stroke="midnightblue" d="M88.29,-96.74C103.3,-100.28 120.88,-103.96 137,-106.17 238.56,-120.08 357.79,-123.93 428.86,-124.93"/>
<polygon fill="midnightblue" stroke="midnightblue" points="428.94,-128.43 438.99,-125.05 429.03,-121.43 428.94,-128.43"/>
</g>
<!-- Node8 -->
<g id="node8" class="node">
<title>Node8</title>
<g id="a_node8"><a xlink:href="structvmem_1_1_page_info.html#accf2071c7875c29c9aa78a01ef5963a1" target="_top" xlink:title=" ">
<polygon fill="white" stroke="black" points="932,-172.67 932,-191.67 1052,-191.67 1052,-172.67 932,-172.67"/>
<text text-anchor="middle" x="992" y="-179.67" font-family="Helvetica,sans-Serif" font-size="10.00">vmem::PageInfo::toPhy</text>
</a>
</g>
</g>
<!-- Node1&#45;&gt;Node8 -->
<g id="edge21" class="edge">
<title>Node1&#45;&gt;Node8</title>
<path fill="none" stroke="midnightblue" d="M62.52,-96.73C98.81,-127.23 218.99,-220.17 335.5,-220.17 335.5,-220.17 335.5,-220.17 663,-220.17 756.73,-220.17 864.53,-204.67 930.19,-193.47"/>
<polygon fill="midnightblue" stroke="midnightblue" points="931.1,-196.86 940.36,-191.71 929.91,-189.96 931.1,-196.86"/>
</g>
<!-- Node9 -->
<g id="node9" class="node">
<title>Node9</title>
<g id="a_node9"><a xlink:href="namespacevmem_1_1pgdir.html#a972bb045d4c58b0ea9c569e05831bbb6" target="_top" xlink:title=" ">
<polygon fill="white" stroke="black" points="594,-20.67 594,-39.67 730,-39.67 730,-20.67 594,-20.67"/>
<text text-anchor="middle" x="662" y="-27.67" font-family="Helvetica,sans-Serif" font-size="10.00">vmem::pgdir::invalidateTLB</text>
</a>
</g>
</g>
<!-- Node1&#45;&gt;Node9 -->
<g id="edge15" class="edge">
<title>Node1&#45;&gt;Node9</title>
<path fill="none" stroke="midnightblue" d="M61.51,-77.54C76.48,-63.87 106.27,-39.47 137,-30.17 298.25,18.65 500.43,-3.16 599.93,-18.96"/>
<polygon fill="midnightblue" stroke="midnightblue" points="599.67,-22.47 610.1,-20.62 600.79,-15.56 599.67,-22.47"/>
</g>
<!-- Node11 -->
<g id="node11" class="node">
<title>Node11</title>
<g id="a_node11"><a xlink:href="namespacemonitor.html#a318993193c866642f8389a1c1f285739" target="_top" xlink:title=" ">
<polygon fill="white" stroke="black" points="154.5,-39.67 154.5,-58.67 228.5,-58.67 228.5,-39.67 154.5,-39.67"/>
<text text-anchor="middle" x="191.5" y="-46.67" font-family="Helvetica,sans-Serif" font-size="10.00">monitor::fuck</text>
</a>
</g>
</g>
<!-- Node1&#45;&gt;Node11 -->
<g id="edge14" class="edge">
<title>Node1&#45;&gt;Node11</title>
<path fill="none" stroke="midnightblue" d="M86.58,-77.58C104.52,-72.67 126.56,-66.65 145.72,-61.41"/>
<polygon fill="midnightblue" stroke="midnightblue" points="146.71,-64.77 155.44,-58.75 144.87,-58.01 146.71,-64.77"/>
</g>
<!-- Node12 -->
<g id="node12" class="node">
<title>Node12</title>
<g id="a_node12"><a xlink:href="namespacevmem_1_1pgdir.html#a0fac039ba671f03a7cccf3f4af55cbf5" target="_top" xlink:title=" ">
<polygon fill="white" stroke="black" points="137,-77.67 137,-96.67 246,-96.67 246,-77.67 137,-77.67"/>
<text text-anchor="middle" x="191.5" y="-84.67" font-family="Helvetica,sans-Serif" font-size="10.00">vmem::pgdir::remove</text>
</a>
</g>
</g>
<!-- Node1&#45;&gt;Node12 -->
<g id="edge16" class="edge">
<title>Node1&#45;&gt;Node12</title>
<path fill="none" stroke="midnightblue" d="M101.29,-87.17C109.49,-87.17 118.08,-87.17 126.57,-87.17"/>
<polygon fill="midnightblue" stroke="midnightblue" points="126.82,-90.67 136.82,-87.17 126.82,-83.67 126.82,-90.67"/>
</g>
<!-- Node3 -->
<g id="node3" class="node">
<title>Node3</title>
<g id="a_node3"><a xlink:href="structvmem_1_1_page_info.html#afcdcb7e941219a8ec999353658e3c2aa" target="_top" xlink:title=" ">
<polygon fill="white" stroke="black" points="604.5,-96.67 604.5,-115.67 719.5,-115.67 719.5,-96.67 604.5,-96.67"/>
<text text-anchor="middle" x="662" y="-103.67" font-family="Helvetica,sans-Serif" font-size="10.00">vmem::PageInfo::alloc</text>
</a>
</g>
</g>
<!-- Node2&#45;&gt;Node3 -->
<g id="edge2" class="edge">
<title>Node2&#45;&gt;Node3</title>
<path fill="none" stroke="midnightblue" d="M546.04,-119.21C561.23,-117.49 578.02,-115.58 593.96,-113.77"/>
<polygon fill="midnightblue" stroke="midnightblue" points="594.75,-117.2 604.29,-112.6 593.96,-110.25 594.75,-117.2"/>
</g>
<!-- Node4 -->
<g id="node4" class="node">
<title>Node4</title>
<g id="a_node4"><a xlink:href="namespacemem.html#a981dd0cb1408b798a79443c6245e9c55" target="_top" xlink:title=" ">
<polygon fill="white" stroke="black" points="798.5,-77.67 798.5,-96.67 863.5,-96.67 863.5,-77.67 798.5,-77.67"/>
<text text-anchor="middle" x="831" y="-84.67" font-family="Helvetica,sans-Serif" font-size="10.00">mem::clear</text>
</a>
</g>
</g>
<!-- Node2&#45;&gt;Node4 -->
<g id="edge9" class="edge">
<title>Node2&#45;&gt;Node4</title>
<path fill="none" stroke="midnightblue" d="M530.43,-115.66C539.57,-112.94 549.24,-109.73 558,-106.17 574.76,-99.36 576.44,-91.52 594,-87.17 660.51,-70.69 740.83,-75.74 788.54,-81.23"/>
<polygon fill="midnightblue" stroke="midnightblue" points="788.15,-84.7 798.5,-82.43 788.99,-77.75 788.15,-84.7"/>
</g>
<!-- Node7 -->
<g id="node7" class="node">
<title>Node7</title>
<g id="a_node7"><a xlink:href="structvmem_1_1_page_info.html#afc863f1d364462ddd2c20bf31f588337" target="_top" xlink:title=" ">
<polygon fill="white" stroke="black" points="766,-134.67 766,-153.67 896,-153.67 896,-134.67 766,-134.67"/>
<text text-anchor="middle" x="831" y="-141.67" font-family="Helvetica,sans-Serif" font-size="10.00">vmem::PageInfo::toKernV</text>
</a>
</g>
</g>
<!-- Node2&#45;&gt;Node7 -->
<g id="edge12" class="edge">
<title>Node2&#45;&gt;Node7</title>
<path fill="none" stroke="midnightblue" d="M546.08,-128.14C602.28,-131.31 691.87,-136.37 755.37,-139.95"/>
<polygon fill="midnightblue" stroke="midnightblue" points="755.53,-143.47 765.72,-140.54 755.93,-136.48 755.53,-143.47"/>
</g>
<!-- Node2&#45;&gt;Node8 -->
<g id="edge13" class="edge">
<title>Node2&#45;&gt;Node8</title>
<path fill="none" stroke="midnightblue" d="M529.55,-134.69C548.59,-139.39 572.43,-144.78 594,-148.17 707.96,-166.09 841.91,-175.09 921.45,-179.19"/>
<polygon fill="midnightblue" stroke="midnightblue" points="921.67,-182.7 931.83,-179.71 922.02,-175.71 921.67,-182.7"/>
</g>
<!-- Node2&#45;&gt;Node9 -->
<g id="edge10" class="edge">
<title>Node2&#45;&gt;Node9</title>
<path fill="none" stroke="midnightblue" d="M540.06,-115.64C546.42,-113.17 552.61,-110.07 558,-106.17 580.78,-89.7 571.7,-71.28 594,-54.17 599.47,-49.97 605.73,-46.47 612.18,-43.55"/>
<polygon fill="midnightblue" stroke="midnightblue" points="613.76,-46.69 621.71,-39.68 611.13,-40.2 613.76,-46.69"/>
</g>
<!-- Node3&#45;&gt;Node4 -->
<g id="edge3" class="edge">
<title>Node3&#45;&gt;Node4</title>
<path fill="none" stroke="midnightblue" d="M719.54,-99.74C742.04,-97.17 767.47,-94.28 788.26,-91.92"/>
<polygon fill="midnightblue" stroke="midnightblue" points="788.82,-95.38 798.36,-90.77 788.02,-88.42 788.82,-95.38"/>
</g>
<!-- Node3&#45;&gt;Node7 -->
<g id="edge7" class="edge">
<title>Node3&#45;&gt;Node7</title>
<path fill="none" stroke="midnightblue" d="M705.14,-115.76C727.38,-120.82 754.85,-127.07 778.36,-132.42"/>
<polygon fill="midnightblue" stroke="midnightblue" points="777.63,-135.84 788.16,-134.65 779.19,-129.02 777.63,-135.84"/>
</g>
<!-- Node5 -->
<g id="node5" class="node">
<title>Node5</title>
<g id="a_node5"><a xlink:href="namespacestr.html#a062221f630647cf300f0dd982c4ed904" target="_top" xlink:title=" ">
<polygon fill="white" stroke="black" points="1088,-77.67 1088,-96.67 1146,-96.67 1146,-77.67 1088,-77.67"/>
<text text-anchor="middle" x="1117" y="-84.67" font-family="Helvetica,sans-Serif" font-size="10.00">str::count</text>
</a>
</g>
</g>
<!-- Node4&#45;&gt;Node5 -->
<g id="edge4" class="edge">
<title>Node4&#45;&gt;Node5</title>
<path fill="none" stroke="midnightblue" d="M863.75,-87.17C916.24,-87.17 1020.91,-87.17 1077.52,-87.17"/>
<polygon fill="midnightblue" stroke="midnightblue" points="1077.84,-90.67 1087.84,-87.17 1077.84,-83.67 1077.84,-90.67"/>
</g>
<!-- Node6 -->
<g id="node6" class="node">
<title>Node6</title>
<g id="a_node6"><a xlink:href="namespacemem.html#adbaba9127c03fb914f752bfe19d6d089" target="_top" xlink:title=" ">
<polygon fill="white" stroke="black" points="963,-96.67 963,-115.67 1021,-115.67 1021,-96.67 963,-96.67"/>
<text text-anchor="middle" x="992" y="-103.67" font-family="Helvetica,sans-Serif" font-size="10.00">mem::set</text>
</a>
</g>
</g>
<!-- Node4&#45;&gt;Node6 -->
<g id="edge5" class="edge">
<title>Node4&#45;&gt;Node6</title>
<path fill="none" stroke="midnightblue" d="M863.79,-90.97C889.51,-94.04 925.79,-98.38 953.03,-101.63"/>
<polygon fill="midnightblue" stroke="midnightblue" points="952.64,-105.11 962.99,-102.82 953.47,-98.16 952.64,-105.11"/>
</g>
<!-- Node6&#45;&gt;Node5 -->
<g id="edge6" class="edge">
<title>Node6&#45;&gt;Node5</title>
<path fill="none" stroke="midnightblue" d="M1021.22,-101.81C1038.02,-99.21 1059.55,-95.89 1077.85,-93.06"/>
<polygon fill="midnightblue" stroke="midnightblue" points="1078.56,-96.49 1087.91,-91.51 1077.5,-89.57 1078.56,-96.49"/>
</g>
<!-- Node7&#45;&gt;Node8 -->
<g id="edge8" class="edge">
<title>Node7&#45;&gt;Node8</title>
<path fill="none" stroke="midnightblue" d="M872.12,-153.76C893.1,-158.77 918.98,-164.96 941.23,-170.27"/>
<polygon fill="midnightblue" stroke="midnightblue" points="940.63,-173.73 951.17,-172.65 942.25,-166.92 940.63,-173.73"/>
</g>
<!-- Node10 -->
<g id="node10" class="node">
<title>Node10</title>
<g id="a_node10"><a xlink:href="x86_8h.html#a2c1c4c8523ed258a75c563a8f94d1686" target="_top" xlink:title=" ">
<polygon fill="white" stroke="black" points="810,-20.67 810,-39.67 852,-39.67 852,-20.67 810,-20.67"/>
<text text-anchor="middle" x="831" y="-27.67" font-family="Helvetica,sans-Serif" font-size="10.00">invlpg</text>
</a>
</g>
</g>
<!-- Node9&#45;&gt;Node10 -->
<g id="edge11" class="edge">
<title>Node9&#45;&gt;Node10</title>
<path fill="none" stroke="midnightblue" d="M730.44,-30.17C754.58,-30.17 780.58,-30.17 799.95,-30.17"/>
<polygon fill="midnightblue" stroke="midnightblue" points="799.98,-33.67 809.98,-30.17 799.98,-26.67 799.98,-33.67"/>
</g>
<!-- Node12&#45;&gt;Node9 -->
<g id="edge20" class="edge">
<title>Node12&#45;&gt;Node9</title>
<path fill="none" stroke="midnightblue" d="M232.87,-77.62C248.19,-74.25 265.83,-70.69 282,-68.17 385.96,-51.97 507.09,-41.23 583.9,-35.42"/>
<polygon fill="midnightblue" stroke="midnightblue" points="584.26,-38.9 593.97,-34.66 583.73,-31.92 584.26,-38.9"/>
</g>
<!-- Node13 -->
<g id="node13" class="node">
<title>Node13</title>
<g id="a_node13"><a xlink:href="namespacevmem_1_1pgdir.html#a18669c6fe92ff279442cecceca1263cc" target="_top" xlink:title=" ">
<polygon fill="white" stroke="black" points="282,-77.67 282,-96.67 391,-96.67 391,-77.67 282,-77.67"/>
<text text-anchor="middle" x="336.5" y="-84.67" font-family="Helvetica,sans-Serif" font-size="10.00">vmem::pgdir::findInfo</text>
</a>
</g>
</g>
<!-- Node12&#45;&gt;Node13 -->
<g id="edge17" class="edge">
<title>Node12&#45;&gt;Node13</title>
<path fill="none" stroke="midnightblue" d="M246.15,-87.17C254.38,-87.17 262.94,-87.17 271.37,-87.17"/>
<polygon fill="midnightblue" stroke="midnightblue" points="271.54,-90.67 281.54,-87.17 271.54,-83.67 271.54,-90.67"/>
</g>
<!-- Node13&#45;&gt;Node2 -->
<g id="edge18" class="edge">
<title>Node13&#45;&gt;Node2</title>
<path fill="none" stroke="midnightblue" d="M376.36,-96.76C396.59,-101.75 421.52,-107.9 443,-113.2"/>
<polygon fill="midnightblue" stroke="midnightblue" points="442.37,-116.65 452.92,-115.65 444.05,-109.85 442.37,-116.65"/>
</g>
<!-- Node14 -->
<g id="node14" class="node">
<title>Node14</title>
<g id="a_node14"><a xlink:href="structvmem_1_1_page_info.html#a1e3111217d6a051c9d8b83200710a0b3" target="_top" xlink:title=" ">
<polygon fill="white" stroke="black" points="427,-77.67 427,-96.67 558,-96.67 558,-77.67 427,-77.67"/>
<text text-anchor="middle" x="492.5" y="-84.67" font-family="Helvetica,sans-Serif" font-size="10.00">vmem::PageInfo::fromPhy</text>
</a>
</g>
</g>
<!-- Node13&#45;&gt;Node14 -->
<g id="edge19" class="edge">
<title>Node13&#45;&gt;Node14</title>
<path fill="none" stroke="midnightblue" d="M391.36,-87.17C399.59,-87.17 408.21,-87.17 416.79,-87.17"/>
<polygon fill="midnightblue" stroke="midnightblue" points="416.82,-90.67 426.82,-87.17 416.82,-83.67 416.82,-90.67"/>
</g>
</g>
</svg>
        <g id="navigator" transform="translate(0 0)" fill="#404254">
                <rect fill="#f2f5e9" fill-opacity="0.5" stroke="#606060" stroke-width=".5" x="0" y="0" width="60" height="60"/>
                <use id="zoomplus" xlink:href="#zoomPlus" x="17" y="9" onmousedown="handleZoom(evt,'in')"/>
                <use id="zoomminus" xlink:href="#zoomMin" x="42" y="9" onmousedown="handleZoom(evt,'out')"/>
                <use id="reset" xlink:href="#resetDef" x="30" y="36" onmousedown="handleReset()"/>
                <g id="arrowUp" xlink:href="#dirArrow" transform="translate(30 24)" onmousedown="handlePan(0,-1)">
                  <use xlink:href="#rim" fill="#404040">
                        <set attributeName="fill" to="#808080" begin="arrowUp.mouseover" end="arrowUp.mouseout"/>
                  </use>
                  <path fill="none" stroke="white" stroke-width="1.5" d="M0,-3.0v7 M-2.5,-0.5L0,-3.0L2.5,-0.5"/>
                </g>
                <g id="arrowRight" xlink:href="#dirArrow" transform="rotate(90) translate(36 -43)" onmousedown="handlePan(1,0)">
                  <use xlink:href="#rim" fill="#404040">
                        <set attributeName="fill" to="#808080" begin="arrowRight.mouseover" end="arrowRight.mouseout"/>
                  </use>
                  <path fill="none" stroke="white" stroke-width="1.5" d="M0,-3.0v7 M-2.5,-0.5L0,-3.0L2.5,-0.5"/>
                </g>
                <g id="arrowDown" xlink:href="#dirArrow" transform="rotate(180) translate(-30 -48)" onmousedown="handlePan(0,1)">
                  <use xlink:href="#rim" fill="#404040">
                        <set attributeName="fill" to="#808080" begin="arrowDown.mouseover" end="arrowDown.mouseout"/>
                  </use>
                  <path fill="none" stroke="white" stroke-width="1.5" d="M0,-3.0v7 M-2.5,-0.5L0,-3.0L2.5,-0.5"/>
                </g>
                <g id="arrowLeft" xlink:href="#dirArrow" transform="rotate(270) translate(-36 17)" onmousedown="handlePan(-1,0)">
                  <use xlink:href="#rim" fill="#404040">
                        <set attributeName="fill" to="#808080" begin="arrowLeft.mouseover" end="arrowLeft.mouseout"/>
                  </use>
                  <path fill="none" stroke="white" stroke-width="1.5" d="M0,-3.0v7 M-2.5,-0.5L0,-3.0L2.5,-0.5"/>
                </g>
        </g>
        <svg viewBox="0 0 15 15" width="100%" height="30px" preserveAspectRatio="xMaxYMin meet">
         <g id="arrow_out" transform="scale(0.3 0.3)">
          <a xlink:href="namespacevmem_1_1pgdir_a92ee80fc1a93d347be69ce9efae61c10_cgraph_org.svg" target="_base">
           <rect id="button" ry="5" rx="5" y="6" x="6" height="38" width="38"
                fill="#f2f5e9" fill-opacity="0.5" stroke="#606060" stroke-width="1.0"/>
           <path id="arrow"
             d="M 11.500037,31.436501 C 11.940474,20.09759 22.043105,11.32322 32.158766,21.979434 L 37.068811,17.246167 C 37.068811,17.246167 37.088388,32 37.088388,32 L 22.160133,31.978069 C 22.160133,31.978069 26.997745,27.140456 26.997745,27.140456 C 18.528582,18.264221 13.291696,25.230495 11.500037,31.436501 z"
             style="fill:#404040;"/>
          </a>
         </g>
        </svg>
</svg>
