<?xml version="1.0" encoding="UTF-8" standalone="no"?>
<!DOCTYPE svg PUBLIC "-//W3C//DTD SVG 1.1//EN"
 "http://www.w3.org/Graphics/SVG/1.1/DTD/svg11.dtd">
<!-- Generated by graphviz version 2.44.1 (20200629.0846)
 -->
<!-- Title: mp::init Pages: 1 -->
<!--zoomable 501 -->
<svg id="main" version="1.1" xmlns="http://www.w3.org/2000/svg" xmlns:xlink="http://www.w3.org/1999/xlink" xml:space="preserve" onload="init(evt)">
<style type="text/css"><![CDATA[
.edge:hover path { stroke: red; }
.edge:hover polygon { stroke: red; fill: red; }
]]></style>
<script type="text/javascript"><![CDATA[
var edges = document.getElementsByTagName('g');
if (edges && edges.length) {
  for (var i=0;i<edges.length;i++) {
    if (edges[i].id.substr(0,4)=='edge') {
      edges[i].setAttribute('class','edge');
    }
  }
}
]]></script>
        <defs>
                <circle id="rim" cx="0" cy="0" r="7"/>
                <circle id="rim2" cx="0" cy="0" r="3.5"/>
                <g id="zoomPlus">
                        <use xlink:href="#rim" fill="#404040">
                                <set attributeName="fill" to="#808080" begin="zoomplus.mouseover" end="zoomplus.mouseout"/>
                        </use>
                        <path d="M-4,0h8M0,-4v8" fill="none" stroke="white" stroke-width="1.5" pointer-events="none"/>
                </g>
                <g id="zoomMin">
                        <use xlink:href="#rim" fill="#404040">
                                <set attributeName="fill" to="#808080" begin="zoomminus.mouseover" end="zoomminus.mouseout"/>
                        </use>
                        <path d="M-4,0h8" fill="none" stroke="white" stroke-width="1.5" pointer-events="none"/>
                </g>
                <g id="dirArrow">
                        <path fill="none" stroke="white" stroke-width="1.5" d="M0,-3.0v7 M-2.5,-0.5L0,-3.0L2.5,-0.5"/>
                </g>
               <g id="resetDef">
                       <use xlink:href="#rim2" fill="#404040">
                               <set attributeName="fill" to="#808080" begin="reset.mouseover" end="reset.mouseout"/>
                       </use>
               </g>
        </defs>

<script type="text/javascript">
var viewWidth = 1383;
var viewHeight = 501;
var sectionId = 'dynsection-0';
</script>
<script xlink:href="svgpan.js"/>
<svg id="graph" class="graph">
<g id="viewport">
<title>mp::init</title>
<polygon fill="white" stroke="transparent" points="-4,4 -4,-497.27 1379,-497.27 1379,4 -4,4"/>
<!-- Node1 -->
<g id="node1" class="node">
<title>Node1</title>
<g id="a_node1"><a xlink:title=" ">
<polygon fill="#bfbfbf" stroke="black" points="0,-247.5 0,-266.5 49,-266.5 49,-247.5 0,-247.5"/>
<text text-anchor="middle" x="24.5" y="-254.5" font-family="Helvetica,sans-Serif" font-size="10.00">mp::init</text>
</a>
</g>
</g>
<!-- Node2 -->
<g id="node2" class="node">
<title>Node2</title>
<g id="a_node2"><a xlink:href="namespacemp.html#a68789ab3ae0e30a2fc2c7e29ba165a83" target="_top" xlink:title=" ">
<polygon fill="white" stroke="black" points="199.5,-285.5 199.5,-304.5 293.5,-304.5 293.5,-285.5 199.5,-285.5"/>
<text text-anchor="middle" x="246.5" y="-292.5" font-family="Helvetica,sans-Serif" font-size="10.00">mp::checksumOk</text>
</a>
</g>
</g>
<!-- Node1&#45;&gt;Node2 -->
<g id="edge1" class="edge">
<title>Node1&#45;&gt;Node2</title>
<path fill="none" stroke="midnightblue" d="M36.38,-266.7C47.64,-276.03 66.18,-289.5 85,-295 118.52,-304.79 157.69,-305 188.94,-302.65"/>
<polygon fill="midnightblue" stroke="midnightblue" points="189.55,-306.11 199.22,-301.77 188.95,-299.14 189.55,-306.11"/>
</g>
<!-- Node3 -->
<g id="node3" class="node">
<title>Node3</title>
<g id="a_node3"><a xlink:href="namespacemem.html#a568ab26b8411b4ea9a13ab993465184f" target="_top" xlink:title=" ">
<polygon fill="white" stroke="black" points="215,-190.5 215,-209.5 278,-209.5 278,-190.5 215,-190.5"/>
<text text-anchor="middle" x="246.5" y="-197.5" font-family="Helvetica,sans-Serif" font-size="10.00">mem::cmp</text>
</a>
</g>
</g>
<!-- Node1&#45;&gt;Node3 -->
<g id="edge2" class="edge">
<title>Node1&#45;&gt;Node3</title>
<path fill="none" stroke="midnightblue" d="M39.5,-247.34C51.15,-239.77 68.45,-229.62 85,-224 124.36,-210.63 171.66,-204.7 204.67,-202.08"/>
<polygon fill="midnightblue" stroke="midnightblue" points="205.14,-205.55 214.86,-201.33 204.64,-198.57 205.14,-205.55"/>
</g>
<!-- Node5 -->
<g id="node5" class="node">
<title>Node5</title>
<g id="a_node5"><a xlink:href="namespacemem.html#a64d9d05b439041901498c606de606431" target="_top" xlink:title=" ">
<polygon fill="white" stroke="black" points="1178.5,-228.5 1178.5,-247.5 1243.5,-247.5 1243.5,-228.5 1178.5,-228.5"/>
<text text-anchor="middle" x="1211" y="-235.5" font-family="Helvetica,sans-Serif" font-size="10.00">mem::copy</text>
</a>
</g>
</g>
<!-- Node1&#45;&gt;Node5 -->
<g id="edge4" class="edge">
<title>Node1&#45;&gt;Node5</title>
<path fill="none" stroke="midnightblue" d="M49.21,-253.6C89.47,-248.14 173.81,-238 245.5,-238 245.5,-238 245.5,-238 872,-238 978.73,-238 1104.41,-238 1168.24,-238"/>
<polygon fill="midnightblue" stroke="midnightblue" points="1168.31,-241.5 1178.31,-238 1168.31,-234.5 1168.31,-241.5"/>
</g>
<!-- Node6 -->
<g id="node6" class="node">
<title>Node6</title>
<g id="a_node6"><a xlink:href="namespacemp_1_1lapic.html#a4dc5a42e5633604126309b44a4a1aa34" target="_top" xlink:title=" ">
<polygon fill="white" stroke="black" points="209,-95.5 209,-114.5 284,-114.5 284,-95.5 209,-95.5"/>
<text text-anchor="middle" x="246.5" y="-102.5" font-family="Helvetica,sans-Serif" font-size="10.00">mp::lapic::init</text>
</a>
</g>
</g>
<!-- Node1&#45;&gt;Node6 -->
<g id="edge6" class="edge">
<title>Node1&#45;&gt;Node6</title>
<path fill="none" stroke="midnightblue" d="M34.66,-247.42C45.92,-235.91 65.89,-216.37 85,-202 129.05,-168.87 185.03,-137.14 217.89,-119.44"/>
<polygon fill="midnightblue" stroke="midnightblue" points="219.74,-122.42 226.92,-114.63 216.45,-116.25 219.74,-122.42"/>
</g>
<!-- Node19 -->
<g id="node19" class="node">
<title>Node19</title>
<g id="a_node19"><a xlink:href="namespaceconsole_1_1out.html#ac6f663e3971b66b8e130ee94755a150e" target="_top" xlink:title=" ">
<polygon fill="white" stroke="black" points="199,-342.5 199,-361.5 294,-361.5 294,-342.5 199,-342.5"/>
<text text-anchor="middle" x="246.5" y="-349.5" font-family="Helvetica,sans-Serif" font-size="10.00">console::out::print</text>
</a>
</g>
</g>
<!-- Node1&#45;&gt;Node19 -->
<g id="edge25" class="edge">
<title>Node1&#45;&gt;Node19</title>
<path fill="none" stroke="midnightblue" d="M32.87,-266.5C43.16,-279.09 63.05,-301.1 85,-313 117.07,-330.39 156.91,-340.12 188.87,-345.52"/>
<polygon fill="midnightblue" stroke="midnightblue" points="188.53,-349.01 198.95,-347.13 189.63,-342.1 188.53,-349.01"/>
</g>
<!-- Node33 -->
<g id="node33" class="node">
<title>Node33</title>
<g id="a_node33"><a xlink:href="namespacemp.html#aee68d08a23f0a0d188f20f4cb0fbaa21" target="_top" xlink:title=" ">
<polygon fill="white" stroke="black" points="85,-266.5 85,-285.5 163,-285.5 163,-266.5 85,-266.5"/>
<text text-anchor="middle" x="124" y="-273.5" font-family="Helvetica,sans-Serif" font-size="10.00">mp::searchFP</text>
</a>
</g>
</g>
<!-- Node1&#45;&gt;Node33 -->
<g id="edge44" class="edge">
<title>Node1&#45;&gt;Node33</title>
<path fill="none" stroke="midnightblue" d="M49.1,-261.6C56.88,-263.12 65.84,-264.86 74.77,-266.6"/>
<polygon fill="midnightblue" stroke="midnightblue" points="74.3,-270.08 84.78,-268.55 75.64,-263.2 74.3,-270.08"/>
</g>
<!-- Node4 -->
<g id="node4" class="node">
<title>Node4</title>
<g id="a_node4"><a xlink:href="namespacestr.html#a062221f630647cf300f0dd982c4ed904" target="_top" xlink:title=" ">
<polygon fill="white" stroke="black" points="1317,-190.5 1317,-209.5 1375,-209.5 1375,-190.5 1317,-190.5"/>
<text text-anchor="middle" x="1346" y="-197.5" font-family="Helvetica,sans-Serif" font-size="10.00">str::count</text>
</a>
</g>
</g>
<!-- Node3&#45;&gt;Node4 -->
<g id="edge3" class="edge">
<title>Node3&#45;&gt;Node4</title>
<path fill="none" stroke="midnightblue" d="M278.23,-200C332.07,-200 446.97,-200 544,-200 544,-200 544,-200 1041,-200 1136.64,-200 1249.22,-200 1306.82,-200"/>
<polygon fill="midnightblue" stroke="midnightblue" points="1306.92,-203.5 1316.92,-200 1306.92,-196.5 1306.92,-203.5"/>
</g>
<!-- Node5&#45;&gt;Node4 -->
<g id="edge5" class="edge">
<title>Node5&#45;&gt;Node4</title>
<path fill="none" stroke="midnightblue" d="M1243.52,-228.99C1262.58,-223.55 1286.99,-216.57 1307.1,-210.83"/>
<polygon fill="midnightblue" stroke="midnightblue" points="1308.22,-214.15 1316.87,-208.04 1306.3,-207.42 1308.22,-214.15"/>
</g>
<!-- Node7 -->
<g id="node7" class="node">
<title>Node7</title>
<g id="a_node7"><a xlink:href="namespacemp_1_1lapic.html#a89d1f9c2d3539bb6d95a9bfa27a6567e" target="_top" xlink:title=" ">
<polygon fill="white" stroke="black" points="344.5,-76.5 344.5,-95.5 434.5,-95.5 434.5,-76.5 344.5,-76.5"/>
<text text-anchor="middle" x="389.5" y="-83.5" font-family="Helvetica,sans-Serif" font-size="10.00">mp::lapic::lapicw</text>
</a>
</g>
</g>
<!-- Node6&#45;&gt;Node7 -->
<g id="edge7" class="edge">
<title>Node6&#45;&gt;Node7</title>
<path fill="none" stroke="midnightblue" d="M284.18,-100.06C299.45,-98 317.5,-95.57 334.25,-93.31"/>
<polygon fill="midnightblue" stroke="midnightblue" points="335.03,-96.74 344.47,-91.93 334.1,-89.8 335.03,-96.74"/>
</g>
<!-- Node8 -->
<g id="node8" class="node">
<title>Node8</title>
<g id="a_node8"><a xlink:href="namespacevmem_1_1pgdir.html#a00038e22197d7591a4b36d82a1b1f546" target="_top" xlink:title=" ">
<polygon fill="white" stroke="black" points="330,-114.5 330,-133.5 449,-133.5 449,-114.5 330,-114.5"/>
<text text-anchor="middle" x="389.5" y="-121.5" font-family="Helvetica,sans-Serif" font-size="10.00">vmem::pgdir::mmioMap</text>
</a>
</g>
</g>
<!-- Node6&#45;&gt;Node8 -->
<g id="edge8" class="edge">
<title>Node6&#45;&gt;Node8</title>
<path fill="none" stroke="midnightblue" d="M284.18,-109.94C295.08,-111.41 307.39,-113.07 319.64,-114.72"/>
<polygon fill="midnightblue" stroke="midnightblue" points="319.5,-118.23 329.88,-116.1 320.44,-111.3 319.5,-118.23"/>
</g>
<!-- Node18 -->
<g id="node18" class="node">
<title>Node18</title>
<g id="a_node18"><a xlink:href="namespacemp.html#ac228ae52f74f9d0d79d59aca47da5308" target="_top" xlink:title=" ">
<polygon fill="white" stroke="black" points="352.5,-38.5 352.5,-57.5 426.5,-57.5 426.5,-38.5 352.5,-38.5"/>
<text text-anchor="middle" x="389.5" y="-45.5" font-family="Helvetica,sans-Serif" font-size="10.00">mp::thisCPU</text>
</a>
</g>
</g>
<!-- Node6&#45;&gt;Node18 -->
<g id="edge24" class="edge">
<title>Node6&#45;&gt;Node18</title>
<path fill="none" stroke="midnightblue" d="M266.56,-95.44C283.11,-87.34 307.82,-75.67 330,-67 335.48,-64.86 341.31,-62.76 347.09,-60.78"/>
<polygon fill="midnightblue" stroke="midnightblue" points="348.3,-64.06 356.68,-57.58 346.09,-57.42 348.3,-64.06"/>
</g>
<!-- Node9 -->
<g id="node9" class="node">
<title>Node9</title>
<g id="a_node9"><a xlink:href="namespacevmem_1_1pgdir.html#a07dd6afb36a9efd207d6372a0f0f36e8" target="_top" xlink:title=" ">
<polygon fill="white" stroke="black" points="485.5,-76.5 485.5,-95.5 604.5,-95.5 604.5,-76.5 485.5,-76.5"/>
<text text-anchor="middle" x="545" y="-83.5" font-family="Helvetica,sans-Serif" font-size="10.00">vmem::pgdir::staticMap</text>
</a>
</g>
</g>
<!-- Node8&#45;&gt;Node9 -->
<g id="edge9" class="edge">
<title>Node8&#45;&gt;Node9</title>
<path fill="none" stroke="midnightblue" d="M429.23,-114.41C449.4,-109.42 474.25,-103.27 495.66,-97.97"/>
<polygon fill="midnightblue" stroke="midnightblue" points="496.68,-101.32 505.54,-95.52 495,-94.53 496.68,-101.32"/>
</g>
<!-- Node10 -->
<g id="node10" class="node">
<title>Node10</title>
<g id="a_node10"><a xlink:href="namespacevmem_1_1pgdir.html#a933a8f939084dabdb1a4b5401bebf8d7" target="_top" xlink:title=" ">
<polygon fill="white" stroke="black" points="650.5,-76.5 650.5,-95.5 757.5,-95.5 757.5,-76.5 650.5,-76.5"/>
<text text-anchor="middle" x="704" y="-83.5" font-family="Helvetica,sans-Serif" font-size="10.00">vmem::pgdir::findPte</text>
</a>
</g>
</g>
<!-- Node9&#45;&gt;Node10 -->
<g id="edge10" class="edge">
<title>Node9&#45;&gt;Node10</title>
<path fill="none" stroke="midnightblue" d="M604.91,-86C616.48,-86 628.67,-86 640.36,-86"/>
<polygon fill="midnightblue" stroke="midnightblue" points="640.48,-89.5 650.48,-86 640.48,-82.5 640.48,-89.5"/>
</g>
<!-- Node16 -->
<g id="node16" class="node">
<title>Node16</title>
<g id="a_node16"><a xlink:href="namespacevmem_1_1pgdir.html#a972bb045d4c58b0ea9c569e05831bbb6" target="_top" xlink:title=" ">
<polygon fill="white" stroke="black" points="803,-0.5 803,-19.5 939,-19.5 939,-0.5 803,-0.5"/>
<text text-anchor="middle" x="871" y="-7.5" font-family="Helvetica,sans-Serif" font-size="10.00">vmem::pgdir::invalidateTLB</text>
</a>
</g>
</g>
<!-- Node9&#45;&gt;Node16 -->
<g id="edge23" class="edge">
<title>Node9&#45;&gt;Node16</title>
<path fill="none" stroke="midnightblue" d="M586.71,-76.45C645.83,-62.58 755.4,-36.88 819.57,-21.83"/>
<polygon fill="midnightblue" stroke="midnightblue" points="820.52,-25.2 829.46,-19.51 818.92,-18.39 820.52,-25.2"/>
</g>
<!-- Node11 -->
<g id="node11" class="node">
<title>Node11</title>
<g id="a_node11"><a xlink:href="structvmem_1_1_page_info.html#afcdcb7e941219a8ec999353658e3c2aa" target="_top" xlink:title=" ">
<polygon fill="white" stroke="black" points="813.5,-114.5 813.5,-133.5 928.5,-133.5 928.5,-114.5 813.5,-114.5"/>
<text text-anchor="middle" x="871" y="-121.5" font-family="Helvetica,sans-Serif" font-size="10.00">vmem::PageInfo::alloc</text>
</a>
</g>
</g>
<!-- Node10&#45;&gt;Node11 -->
<g id="edge11" class="edge">
<title>Node10&#45;&gt;Node11</title>
<path fill="none" stroke="midnightblue" d="M746.64,-95.59C768.51,-100.63 795.51,-106.84 818.66,-112.18"/>
<polygon fill="midnightblue" stroke="midnightblue" points="818.13,-115.65 828.66,-114.48 819.7,-108.82 818.13,-115.65"/>
</g>
<!-- Node12 -->
<g id="node12" class="node">
<title>Node12</title>
<g id="a_node12"><a xlink:href="namespacemem.html#a981dd0cb1408b798a79443c6245e9c55" target="_top" xlink:title=" ">
<polygon fill="white" stroke="black" points="1007.5,-133.5 1007.5,-152.5 1072.5,-152.5 1072.5,-133.5 1007.5,-133.5"/>
<text text-anchor="middle" x="1040" y="-140.5" font-family="Helvetica,sans-Serif" font-size="10.00">mem::clear</text>
</a>
</g>
</g>
<!-- Node10&#45;&gt;Node12 -->
<g id="edge18" class="edge">
<title>Node10&#45;&gt;Node12</title>
<path fill="none" stroke="midnightblue" d="M716.74,-95.65C734.24,-109.34 768.79,-133.78 803,-143 869.15,-160.84 949.59,-155.37 997.41,-149.44"/>
<polygon fill="midnightblue" stroke="midnightblue" points="997.93,-152.9 1007.39,-148.13 997.03,-145.96 997.93,-152.9"/>
</g>
<!-- Node14 -->
<g id="node14" class="node">
<title>Node14</title>
<g id="a_node14"><a xlink:href="structvmem_1_1_page_info.html#afc863f1d364462ddd2c20bf31f588337" target="_top" xlink:title=" ">
<polygon fill="white" stroke="black" points="975,-76.5 975,-95.5 1105,-95.5 1105,-76.5 975,-76.5"/>
<text text-anchor="middle" x="1040" y="-83.5" font-family="Helvetica,sans-Serif" font-size="10.00">vmem::PageInfo::toKernV</text>
</a>
</g>
</g>
<!-- Node10&#45;&gt;Node14 -->
<g id="edge21" class="edge">
<title>Node10&#45;&gt;Node14</title>
<path fill="none" stroke="midnightblue" d="M757.55,-86C813.24,-86 901.64,-86 964.5,-86"/>
<polygon fill="midnightblue" stroke="midnightblue" points="964.75,-89.5 974.75,-86 964.75,-82.5 964.75,-89.5"/>
</g>
<!-- Node15 -->
<g id="node15" class="node">
<title>Node15</title>
<g id="a_node15"><a xlink:href="structvmem_1_1_page_info.html#accf2071c7875c29c9aa78a01ef5963a1" target="_top" xlink:title=" ">
<polygon fill="white" stroke="black" points="1151,-57.5 1151,-76.5 1271,-76.5 1271,-57.5 1151,-57.5"/>
<text text-anchor="middle" x="1211" y="-64.5" font-family="Helvetica,sans-Serif" font-size="10.00">vmem::PageInfo::toPhy</text>
</a>
</g>
</g>
<!-- Node10&#45;&gt;Node15 -->
<g id="edge22" class="edge">
<title>Node10&#45;&gt;Node15</title>
<path fill="none" stroke="midnightblue" d="M757.71,-81.19C812.09,-76.49 899.39,-69.66 975,-67 1030.65,-65.04 1093.76,-65.17 1140.55,-65.72"/>
<polygon fill="midnightblue" stroke="midnightblue" points="1140.54,-69.22 1150.58,-65.85 1140.63,-62.22 1140.54,-69.22"/>
</g>
<!-- Node10&#45;&gt;Node16 -->
<g id="edge19" class="edge">
<title>Node10&#45;&gt;Node16</title>
<path fill="none" stroke="midnightblue" d="M721.29,-76.43C740.45,-65.38 773.4,-47.07 803,-34 811.8,-30.11 821.44,-26.37 830.6,-23.05"/>
<polygon fill="midnightblue" stroke="midnightblue" points="832.03,-26.25 840.29,-19.61 829.69,-19.65 832.03,-26.25"/>
</g>
<!-- Node11&#45;&gt;Node12 -->
<g id="edge12" class="edge">
<title>Node11&#45;&gt;Node12</title>
<path fill="none" stroke="midnightblue" d="M928.54,-130.43C951.04,-132.99 976.47,-135.89 997.26,-138.25"/>
<polygon fill="midnightblue" stroke="midnightblue" points="997.02,-141.75 1007.36,-139.4 997.82,-134.79 997.02,-141.75"/>
</g>
<!-- Node11&#45;&gt;Node14 -->
<g id="edge16" class="edge">
<title>Node11&#45;&gt;Node14</title>
<path fill="none" stroke="midnightblue" d="M914.14,-114.41C936.38,-109.35 963.85,-103.1 987.36,-97.75"/>
<polygon fill="midnightblue" stroke="midnightblue" points="988.19,-101.15 997.16,-95.52 986.63,-94.33 988.19,-101.15"/>
</g>
<!-- Node12&#45;&gt;Node4 -->
<g id="edge13" class="edge">
<title>Node12&#45;&gt;Node4</title>
<path fill="none" stroke="midnightblue" d="M1072.58,-136.09C1119.73,-127.28 1210.52,-116.16 1281,-143 1301.73,-150.89 1320.02,-168.92 1331.68,-182.6"/>
<polygon fill="midnightblue" stroke="midnightblue" points="1329.02,-184.88 1338.05,-190.43 1334.45,-180.47 1329.02,-184.88"/>
</g>
<!-- Node13 -->
<g id="node13" class="node">
<title>Node13</title>
<g id="a_node13"><a xlink:href="namespacemem.html#adbaba9127c03fb914f752bfe19d6d089" target="_top" xlink:title=" ">
<polygon fill="white" stroke="black" points="1182,-152.5 1182,-171.5 1240,-171.5 1240,-152.5 1182,-152.5"/>
<text text-anchor="middle" x="1211" y="-159.5" font-family="Helvetica,sans-Serif" font-size="10.00">mem::set</text>
</a>
</g>
</g>
<!-- Node12&#45;&gt;Node13 -->
<g id="edge14" class="edge">
<title>Node12&#45;&gt;Node13</title>
<path fill="none" stroke="midnightblue" d="M1072.79,-146.57C1100.93,-149.74 1142.05,-154.36 1171.94,-157.72"/>
<polygon fill="midnightblue" stroke="midnightblue" points="1171.67,-161.21 1182,-158.85 1172.45,-154.26 1171.67,-161.21"/>
</g>
<!-- Node13&#45;&gt;Node4 -->
<g id="edge15" class="edge">
<title>Node13&#45;&gt;Node4</title>
<path fill="none" stroke="midnightblue" d="M1240.21,-170.06C1259.69,-175.63 1285.83,-183.09 1307.13,-189.18"/>
<polygon fill="midnightblue" stroke="midnightblue" points="1306.26,-192.57 1316.83,-191.95 1308.18,-185.84 1306.26,-192.57"/>
</g>
<!-- Node14&#45;&gt;Node15 -->
<g id="edge17" class="edge">
<title>Node14&#45;&gt;Node15</title>
<path fill="none" stroke="midnightblue" d="M1105.37,-78.76C1116.92,-77.46 1128.99,-76.11 1140.67,-74.79"/>
<polygon fill="midnightblue" stroke="midnightblue" points="1141.26,-78.25 1150.8,-73.66 1140.47,-71.29 1141.26,-78.25"/>
</g>
<!-- Node17 -->
<g id="node17" class="node">
<title>Node17</title>
<g id="a_node17"><a xlink:href="x86_8h.html#a2c1c4c8523ed258a75c563a8f94d1686" target="_top" xlink:title=" ">
<polygon fill="white" stroke="black" points="1019,-0.5 1019,-19.5 1061,-19.5 1061,-0.5 1019,-0.5"/>
<text text-anchor="middle" x="1040" y="-7.5" font-family="Helvetica,sans-Serif" font-size="10.00">invlpg</text>
</a>
</g>
</g>
<!-- Node16&#45;&gt;Node17 -->
<g id="edge20" class="edge">
<title>Node16&#45;&gt;Node17</title>
<path fill="none" stroke="midnightblue" d="M939.44,-10C963.58,-10 989.58,-10 1008.95,-10"/>
<polygon fill="midnightblue" stroke="midnightblue" points="1008.98,-13.5 1018.98,-10 1008.98,-6.5 1008.98,-13.5"/>
</g>
<!-- Node20 -->
<g id="node20" class="node">
<title>Node20</title>
<g id="a_node20"><a xlink:href="namespaceconsole_1_1out.html#a8f791bfac54067cadb1b9f18117b987b" target="_top" xlink:title=" ">
<polygon fill="white" stroke="black" points="336.5,-361.5 336.5,-380.5 442.5,-380.5 442.5,-361.5 336.5,-361.5"/>
<text text-anchor="middle" x="389.5" y="-368.5" font-family="Helvetica,sans-Serif" font-size="10.00">console::out::printVa</text>
</a>
</g>
</g>
<!-- Node19&#45;&gt;Node20 -->
<g id="edge26" class="edge">
<title>Node19&#45;&gt;Node20</title>
<path fill="none" stroke="midnightblue" d="M294.06,-358.27C304.27,-359.65 315.24,-361.13 325.97,-362.57"/>
<polygon fill="midnightblue" stroke="midnightblue" points="325.76,-366.08 336.14,-363.94 326.7,-359.14 325.76,-366.08"/>
</g>
<!-- Node21 -->
<g id="node21" class="node">
<title>Node21</title>
<g id="a_node21"><a xlink:href="namespaceconsole_1_1ge.html#af642934cb833142f133285fdb75ef7b7" target="_top" xlink:title=" ">
<polygon fill="white" stroke="black" points="485,-361.5 485,-380.5 605,-380.5 605,-361.5 485,-361.5"/>
<text text-anchor="middle" x="545" y="-368.5" font-family="Helvetica,sans-Serif" font-size="10.00">console::ge::printFmtVa</text>
</a>
</g>
</g>
<!-- Node20&#45;&gt;Node21 -->
<g id="edge27" class="edge">
<title>Node20&#45;&gt;Node21</title>
<path fill="none" stroke="midnightblue" d="M442.9,-371C453.16,-371 464.08,-371 474.8,-371"/>
<polygon fill="midnightblue" stroke="midnightblue" points="474.99,-374.5 484.99,-371 474.99,-367.5 474.99,-374.5"/>
</g>
<!-- Node27 -->
<g id="node27" class="node">
<title>Node27</title>
<g id="a_node27"><a xlink:href="namespaceconsole_1_1out.html#ad9fc97dff4404c2d21aedbb24691e7cb" target="_top" xlink:title=" ">
<polygon fill="white" stroke="black" points="816,-437.5 816,-456.5 926,-456.5 926,-437.5 816,-437.5"/>
<text text-anchor="middle" x="871" y="-444.5" font-family="Helvetica,sans-Serif" font-size="10.00">console::out::putChar</text>
</a>
</g>
</g>
<!-- Node20&#45;&gt;Node27 -->
<g id="edge43" class="edge">
<title>Node20&#45;&gt;Node27</title>
<path fill="none" stroke="midnightblue" d="M405.52,-380.64C443.23,-404.22 545.74,-464.34 641,-485 695.73,-496.87 711.87,-494.84 767,-485 792.96,-480.36 820.95,-469.64 841.18,-460.76"/>
<polygon fill="midnightblue" stroke="midnightblue" points="842.77,-463.88 850.45,-456.59 839.9,-457.5 842.77,-463.88"/>
</g>
<!-- Node21&#45;&gt;Node4 -->
<g id="edge30" class="edge">
<title>Node21&#45;&gt;Node4</title>
<path fill="none" stroke="midnightblue" d="M554.25,-361.41C569.44,-344.52 603.71,-309.84 641,-295 735.89,-257.24 767.87,-276 870,-276 870,-276 870,-276 1041,-276 1148,-276 1182.58,-298.99 1281,-257 1301.17,-248.39 1319.33,-230.8 1331.11,-217.42"/>
<polygon fill="midnightblue" stroke="midnightblue" points="1333.81,-219.66 1337.58,-209.76 1328.46,-215.14 1333.81,-219.66"/>
</g>
<!-- Node22 -->
<g id="node22" class="node">
<title>Node22</title>
<g id="a_node22"><a xlink:href="printfmt_8cc.html#a708ec6ee2b8bd2d7a453d8d9436ed3b3" target="_top" xlink:title=" ">
<polygon fill="white" stroke="black" points="675,-380.5 675,-399.5 733,-399.5 733,-380.5 675,-380.5"/>
<text text-anchor="middle" x="704" y="-387.5" font-family="Helvetica,sans-Serif" font-size="10.00">_getIntVa</text>
</a>
</g>
</g>
<!-- Node21&#45;&gt;Node22 -->
<g id="edge28" class="edge">
<title>Node21&#45;&gt;Node22</title>
<path fill="none" stroke="midnightblue" d="M605.35,-378.18C625.24,-380.59 646.88,-383.21 664.72,-385.37"/>
<polygon fill="midnightblue" stroke="midnightblue" points="664.39,-388.85 674.74,-386.58 665.23,-381.9 664.39,-388.85"/>
</g>
<!-- Node23 -->
<g id="node23" class="node">
<title>Node23</title>
<g id="a_node23"><a xlink:href="printfmt_8cc.html#af4b46892c76c8bfd27efdb20847eb7c8" target="_top" xlink:title=" ">
<polygon fill="white" stroke="black" points="671.5,-342.5 671.5,-361.5 736.5,-361.5 736.5,-342.5 671.5,-342.5"/>
<text text-anchor="middle" x="704" y="-349.5" font-family="Helvetica,sans-Serif" font-size="10.00">_getUIntVa</text>
</a>
</g>
</g>
<!-- Node21&#45;&gt;Node23 -->
<g id="edge29" class="edge">
<title>Node21&#45;&gt;Node23</title>
<path fill="none" stroke="midnightblue" d="M605.35,-363.82C623.91,-361.57 643.98,-359.14 661.07,-357.07"/>
<polygon fill="midnightblue" stroke="midnightblue" points="661.78,-360.51 671.29,-355.84 660.94,-353.56 661.78,-360.51"/>
</g>
<!-- Node24 -->
<g id="node24" class="node">
<title>Node24</title>
<g id="a_node24"><a xlink:href="printfmt_8cc.html#a0e3e484ece5e75b9f5fbe337f0ae8ae3" target="_top" xlink:title=" ">
<polygon fill="white" stroke="black" points="677.5,-304.5 677.5,-323.5 730.5,-323.5 730.5,-304.5 677.5,-304.5"/>
<text text-anchor="middle" x="704" y="-311.5" font-family="Helvetica,sans-Serif" font-size="10.00">describe</text>
</a>
</g>
</g>
<!-- Node21&#45;&gt;Node24 -->
<g id="edge31" class="edge">
<title>Node21&#45;&gt;Node24</title>
<path fill="none" stroke="midnightblue" d="M568.45,-361.41C587.57,-353.38 615.87,-341.86 641,-333 649.47,-330.01 658.68,-327.04 667.35,-324.37"/>
<polygon fill="midnightblue" stroke="midnightblue" points="668.65,-327.63 677.2,-321.38 666.62,-320.93 668.65,-327.63"/>
</g>
<!-- Node26 -->
<g id="node26" class="node">
<title>Node26</title>
<g id="a_node26"><a xlink:href="namespaceconsole_1_1ge.html#a7e301813fd34fde772376afc5fdad95d" target="_top" xlink:title=" ">
<polygon fill="white" stroke="black" points="641,-456.5 641,-475.5 767,-475.5 767,-456.5 641,-456.5"/>
<text text-anchor="middle" x="704" y="-463.5" font-family="Helvetica,sans-Serif" font-size="10.00">console::ge::printNumber</text>
</a>
</g>
</g>
<!-- Node21&#45;&gt;Node26 -->
<g id="edge33" class="edge">
<title>Node21&#45;&gt;Node26</title>
<path fill="none" stroke="midnightblue" d="M556.73,-380.58C573.65,-395.31 608.03,-423.75 641,-442 648.25,-446.01 656.31,-449.66 664.16,-452.84"/>
<polygon fill="midnightblue" stroke="midnightblue" points="662.96,-456.13 673.55,-456.47 665.49,-449.6 662.96,-456.13"/>
</g>
<!-- Node21&#45;&gt;Node27 -->
<g id="edge42" class="edge">
<title>Node21&#45;&gt;Node27</title>
<path fill="none" stroke="midnightblue" d="M566.31,-380.62C585.25,-389.22 614.48,-401.59 641,-409 695.49,-424.23 759.08,-434.18 805.4,-440.06"/>
<polygon fill="midnightblue" stroke="midnightblue" points="805.25,-443.57 815.61,-441.33 806.12,-436.63 805.25,-443.57"/>
</g>
<!-- Node25 -->
<g id="node25" class="node">
<title>Node25</title>
<g id="a_node25"><a xlink:href="namespacemonitor.html#a318993193c866642f8389a1c1f285739" target="_top" xlink:title=" ">
<polygon fill="white" stroke="black" points="834,-304.5 834,-323.5 908,-323.5 908,-304.5 834,-304.5"/>
<text text-anchor="middle" x="871" y="-311.5" font-family="Helvetica,sans-Serif" font-size="10.00">monitor::fuck</text>
</a>
</g>
</g>
<!-- Node24&#45;&gt;Node25 -->
<g id="edge32" class="edge">
<title>Node24&#45;&gt;Node25</title>
<path fill="none" stroke="midnightblue" d="M730.78,-314C755.59,-314 793.66,-314 823.73,-314"/>
<polygon fill="midnightblue" stroke="midnightblue" points="823.99,-317.5 833.99,-314 823.99,-310.5 823.99,-317.5"/>
</g>
<!-- Node26&#45;&gt;Node27 -->
<g id="edge34" class="edge">
<title>Node26&#45;&gt;Node27</title>
<path fill="none" stroke="midnightblue" d="M767.38,-458.82C779.98,-457.37 793.25,-455.84 805.91,-454.38"/>
<polygon fill="midnightblue" stroke="midnightblue" points="806.37,-457.85 815.91,-453.23 805.57,-450.9 806.37,-457.85"/>
</g>
<!-- Node28 -->
<g id="node28" class="node">
<title>Node28</title>
<g id="a_node28"><a xlink:href="namespaceconsole_1_1serial.html#a3a7c1f95ae3c24136ea63bb31fdf0391" target="_top" xlink:title=" ">
<polygon fill="white" stroke="black" points="980,-437.5 980,-456.5 1100,-456.5 1100,-437.5 980,-437.5"/>
<text text-anchor="middle" x="1040" y="-444.5" font-family="Helvetica,sans-Serif" font-size="10.00">console::serial::putChar</text>
</a>
</g>
</g>
<!-- Node27&#45;&gt;Node28 -->
<g id="edge35" class="edge">
<title>Node27&#45;&gt;Node28</title>
<path fill="none" stroke="midnightblue" d="M926.22,-447C940.02,-447 955.03,-447 969.47,-447"/>
<polygon fill="midnightblue" stroke="midnightblue" points="969.86,-450.5 979.86,-447 969.86,-443.5 969.86,-450.5"/>
</g>
<!-- Node31 -->
<g id="node31" class="node">
<title>Node31</title>
<g id="a_node31"><a xlink:href="namespaceconsole_1_1cga.html#afa19057ca041b39682d5d4831c43dfa0" target="_top" xlink:title=" ">
<polygon fill="white" stroke="black" points="983.5,-399.5 983.5,-418.5 1096.5,-418.5 1096.5,-399.5 983.5,-399.5"/>
<text text-anchor="middle" x="1040" y="-406.5" font-family="Helvetica,sans-Serif" font-size="10.00">console::cga::putChar</text>
</a>
</g>
</g>
<!-- Node27&#45;&gt;Node31 -->
<g id="edge38" class="edge">
<title>Node27&#45;&gt;Node31</title>
<path fill="none" stroke="midnightblue" d="M914.14,-437.41C936.38,-432.35 963.85,-426.1 987.36,-420.75"/>
<polygon fill="midnightblue" stroke="midnightblue" points="988.19,-424.15 997.16,-418.52 986.63,-417.33 988.19,-424.15"/>
</g>
<!-- Node29 -->
<g id="node29" class="node">
<title>Node29</title>
<g id="a_node29"><a xlink:href="namespaceconsole_1_1serial.html#aa5605d4537106bb1c2bab72d7d1a5824" target="_top" xlink:title=" ">
<polygon fill="white" stroke="black" points="1159,-437.5 1159,-456.5 1263,-456.5 1263,-437.5 1159,-437.5"/>
<text text-anchor="middle" x="1211" y="-444.5" font-family="Helvetica,sans-Serif" font-size="10.00">console::serial::sout</text>
</a>
</g>
</g>
<!-- Node28&#45;&gt;Node29 -->
<g id="edge36" class="edge">
<title>Node28&#45;&gt;Node29</title>
<path fill="none" stroke="midnightblue" d="M1100.11,-447C1115.8,-447 1132.79,-447 1148.6,-447"/>
<polygon fill="midnightblue" stroke="midnightblue" points="1148.8,-450.5 1158.8,-447 1148.8,-443.5 1148.8,-450.5"/>
</g>
<!-- Node30 -->
<g id="node30" class="node">
<title>Node30</title>
<g id="a_node30"><a xlink:href="x86_8h.html#ade961b44e45ddacbc3c3b7609cf36dc6" target="_top" xlink:title=" ">
<polygon fill="white" stroke="black" points="1328.5,-418.5 1328.5,-437.5 1363.5,-437.5 1363.5,-418.5 1328.5,-418.5"/>
<text text-anchor="middle" x="1346" y="-425.5" font-family="Helvetica,sans-Serif" font-size="10.00">outb</text>
</a>
</g>
</g>
<!-- Node29&#45;&gt;Node30 -->
<g id="edge37" class="edge">
<title>Node29&#45;&gt;Node30</title>
<path fill="none" stroke="midnightblue" d="M1263.04,-439.71C1281.85,-437.02 1302.4,-434.09 1318.22,-431.83"/>
<polygon fill="midnightblue" stroke="midnightblue" points="1318.94,-435.26 1328.34,-430.38 1317.95,-428.33 1318.94,-435.26"/>
</g>
<!-- Node31&#45;&gt;Node5 -->
<g id="edge39" class="edge">
<title>Node31&#45;&gt;Node5</title>
<path fill="none" stroke="midnightblue" d="M1050.57,-399.32C1078.22,-371.33 1158.49,-290.12 1193.43,-254.77"/>
<polygon fill="midnightblue" stroke="midnightblue" points="1195.99,-257.15 1200.53,-247.58 1191.02,-252.23 1195.99,-257.15"/>
</g>
<!-- Node32 -->
<g id="node32" class="node">
<title>Node32</title>
<g id="a_node32"><a xlink:href="namespaceconsole_1_1cga.html#a06463d4dc68819e30615ba299d02a78f" target="_top" xlink:title=" ">
<polygon fill="white" stroke="black" points="1141,-399.5 1141,-418.5 1281,-418.5 1281,-399.5 1141,-399.5"/>
<text text-anchor="middle" x="1211" y="-406.5" font-family="Helvetica,sans-Serif" font-size="10.00">console::cga::cursorRefresh</text>
</a>
</g>
</g>
<!-- Node31&#45;&gt;Node32 -->
<g id="edge40" class="edge">
<title>Node31&#45;&gt;Node32</title>
<path fill="none" stroke="midnightblue" d="M1096.81,-409C1107.74,-409 1119.39,-409 1130.92,-409"/>
<polygon fill="midnightblue" stroke="midnightblue" points="1130.99,-412.5 1140.99,-409 1130.99,-405.5 1130.99,-412.5"/>
</g>
<!-- Node32&#45;&gt;Node30 -->
<g id="edge41" class="edge">
<title>Node32&#45;&gt;Node30</title>
<path fill="none" stroke="midnightblue" d="M1278.89,-418.56C1292.81,-420.54 1306.71,-422.53 1318.15,-424.16"/>
<polygon fill="midnightblue" stroke="midnightblue" points="1317.88,-427.66 1328.28,-425.61 1318.87,-420.73 1317.88,-427.66"/>
</g>
<!-- Node33&#45;&gt;Node2 -->
<g id="edge45" class="edge">
<title>Node33&#45;&gt;Node2</title>
<path fill="none" stroke="midnightblue" d="M163.13,-282.01C171.44,-283.32 180.41,-284.74 189.27,-286.13"/>
<polygon fill="midnightblue" stroke="midnightblue" points="188.75,-289.59 199.17,-287.69 189.84,-282.68 188.75,-289.59"/>
</g>
<!-- Node33&#45;&gt;Node3 -->
<g id="edge46" class="edge">
<title>Node33&#45;&gt;Node3</title>
<path fill="none" stroke="midnightblue" d="M140.26,-266.37C160.81,-253.41 197.6,-230.21 221.77,-214.96"/>
<polygon fill="midnightblue" stroke="midnightblue" points="223.77,-217.84 230.36,-209.55 220.04,-211.92 223.77,-217.84"/>
</g>
<!-- Node33&#45;&gt;Node19 -->
<g id="edge47" class="edge">
<title>Node33&#45;&gt;Node19</title>
<path fill="none" stroke="midnightblue" d="M140.26,-285.63C160.81,-298.59 197.6,-321.79 221.77,-337.04"/>
<polygon fill="midnightblue" stroke="midnightblue" points="220.04,-340.08 230.36,-342.45 223.77,-334.16 220.04,-340.08"/>
</g>
</g>
</svg>
        <g id="navigator" transform="translate(0 0)" fill="#404254">
                <rect fill="#f2f5e9" fill-opacity="0.5" stroke="#606060" stroke-width=".5" x="0" y="0" width="60" height="60"/>
                <use id="zoomplus" xlink:href="#zoomPlus" x="17" y="9" onmousedown="handleZoom(evt,'in')"/>
                <use id="zoomminus" xlink:href="#zoomMin" x="42" y="9" onmousedown="handleZoom(evt,'out')"/>
                <use id="reset" xlink:href="#resetDef" x="30" y="36" onmousedown="handleReset()"/>
                <g id="arrowUp" xlink:href="#dirArrow" transform="translate(30 24)" onmousedown="handlePan(0,-1)">
                  <use xlink:href="#rim" fill="#404040">
                        <set attributeName="fill" to="#808080" begin="arrowUp.mouseover" end="arrowUp.mouseout"/>
                  </use>
                  <path fill="none" stroke="white" stroke-width="1.5" d="M0,-3.0v7 M-2.5,-0.5L0,-3.0L2.5,-0.5"/>
                </g>
                <g id="arrowRight" xlink:href="#dirArrow" transform="rotate(90) translate(36 -43)" onmousedown="handlePan(1,0)">
                  <use xlink:href="#rim" fill="#404040">
                        <set attributeName="fill" to="#808080" begin="arrowRight.mouseover" end="arrowRight.mouseout"/>
                  </use>
                  <path fill="none" stroke="white" stroke-width="1.5" d="M0,-3.0v7 M-2.5,-0.5L0,-3.0L2.5,-0.5"/>
                </g>
                <g id="arrowDown" xlink:href="#dirArrow" transform="rotate(180) translate(-30 -48)" onmousedown="handlePan(0,1)">
                  <use xlink:href="#rim" fill="#404040">
                        <set attributeName="fill" to="#808080" begin="arrowDown.mouseover" end="arrowDown.mouseout"/>
                  </use>
                  <path fill="none" stroke="white" stroke-width="1.5" d="M0,-3.0v7 M-2.5,-0.5L0,-3.0L2.5,-0.5"/>
                </g>
                <g id="arrowLeft" xlink:href="#dirArrow" transform="rotate(270) translate(-36 17)" onmousedown="handlePan(-1,0)">
                  <use xlink:href="#rim" fill="#404040">
                        <set attributeName="fill" to="#808080" begin="arrowLeft.mouseover" end="arrowLeft.mouseout"/>
                  </use>
                  <path fill="none" stroke="white" stroke-width="1.5" d="M0,-3.0v7 M-2.5,-0.5L0,-3.0L2.5,-0.5"/>
                </g>
        </g>
        <svg viewBox="0 0 15 15" width="100%" height="30px" preserveAspectRatio="xMaxYMin meet">
         <g id="arrow_out" transform="scale(0.3 0.3)">
          <a xlink:href="namespacemp_aca569437a586ae78d6ef2dd618db865d_cgraph_org.svg" target="_base">
           <rect id="button" ry="5" rx="5" y="6" x="6" height="38" width="38"
                fill="#f2f5e9" fill-opacity="0.5" stroke="#606060" stroke-width="1.0"/>
           <path id="arrow"
             d="M 11.500037,31.436501 C 11.940474,20.09759 22.043105,11.32322 32.158766,21.979434 L 37.068811,17.246167 C 37.068811,17.246167 37.088388,32 37.088388,32 L 22.160133,31.978069 C 22.160133,31.978069 26.997745,27.140456 26.997745,27.140456 C 18.528582,18.264221 13.291696,25.230495 11.500037,31.436501 z"
             style="fill:#404040;"/>
          </a>
         </g>
        </svg>
</svg>
