<?xml version="1.0" encoding="UTF-8" standalone="no"?>
<!DOCTYPE svg PUBLIC "-//W3C//DTD SVG 1.1//EN"
 "http://www.w3.org/Graphics/SVG/1.1/DTD/svg11.dtd">
<!-- Generated by graphviz version 2.44.1 (20200629.0846)
 -->
<!-- Title: trap::describe Pages: 1 -->
<!--zoomable 416 -->
<svg id="main" version="1.1" xmlns="http://www.w3.org/2000/svg" xmlns:xlink="http://www.w3.org/1999/xlink" xml:space="preserve" onload="init(evt)">
<style type="text/css"><![CDATA[
.edge:hover path { stroke: red; }
.edge:hover polygon { stroke: red; fill: red; }
]]></style>
<script type="text/javascript"><![CDATA[
var edges = document.getElementsByTagName('g');
if (edges && edges.length) {
  for (var i=0;i<edges.length;i++) {
    if (edges[i].id.substr(0,4)=='edge') {
      edges[i].setAttribute('class','edge');
    }
  }
}
]]></script>
        <defs>
                <circle id="rim" cx="0" cy="0" r="7"/>
                <circle id="rim2" cx="0" cy="0" r="3.5"/>
                <g id="zoomPlus">
                        <use xlink:href="#rim" fill="#404040">
                                <set attributeName="fill" to="#808080" begin="zoomplus.mouseover" end="zoomplus.mouseout"/>
                        </use>
                        <path d="M-4,0h8M0,-4v8" fill="none" stroke="white" stroke-width="1.5" pointer-events="none"/>
                </g>
                <g id="zoomMin">
                        <use xlink:href="#rim" fill="#404040">
                                <set attributeName="fill" to="#808080" begin="zoomminus.mouseover" end="zoomminus.mouseout"/>
                        </use>
                        <path d="M-4,0h8" fill="none" stroke="white" stroke-width="1.5" pointer-events="none"/>
                </g>
                <g id="dirArrow">
                        <path fill="none" stroke="white" stroke-width="1.5" d="M0,-3.0v7 M-2.5,-0.5L0,-3.0L2.5,-0.5"/>
                </g>
               <g id="resetDef">
                       <use xlink:href="#rim2" fill="#404040">
                               <set attributeName="fill" to="#808080" begin="reset.mouseover" end="reset.mouseout"/>
                       </use>
               </g>
        </defs>

<script type="text/javascript">
var viewWidth = 1813;
var viewHeight = 416;
var sectionId = 'dynsection-0';
</script>
<script xlink:href="svgpan.js"/>
<svg id="graph" class="graph">
<g id="viewport">
<title>trap::describe</title>
<polygon fill="white" stroke="transparent" points="-4,4 -4,-411.53 1809,-411.53 1809,4 -4,4"/>
<!-- Node1 -->
<g id="node1" class="node">
<title>Node1</title>
<g id="a_node1"><a xlink:title=" ">
<polygon fill="#bfbfbf" stroke="black" points="0,-88.03 0,-107.03 76,-107.03 76,-88.03 0,-88.03"/>
<text text-anchor="middle" x="38" y="-95.03" font-family="Helvetica,sans-Serif" font-size="10.00">trap::describe</text>
</a>
</g>
</g>
<!-- Node2 -->
<g id="node2" class="node">
<title>Node2</title>
<g id="a_node2"><a xlink:href="x86_8h.html#a7212dae3820e33d3e65b624a9fee1b04" target="_top" xlink:title=" ">
<polygon fill="white" stroke="black" points="140.5,-126.03 140.5,-145.03 202.5,-145.03 202.5,-126.03 140.5,-126.03"/>
<text text-anchor="middle" x="171.5" y="-133.03" font-family="Helvetica,sans-Serif" font-size="10.00">breakpoint</text>
</a>
</g>
</g>
<!-- Node1&#45;&gt;Node2 -->
<g id="edge1" class="edge">
<title>Node1&#45;&gt;Node2</title>
<path fill="none" stroke="midnightblue" d="M72.18,-107.12C89.98,-112.26 112.04,-118.64 130.76,-124.04"/>
<polygon fill="midnightblue" stroke="midnightblue" points="129.9,-127.44 140.48,-126.85 131.84,-120.71 129.9,-127.44"/>
</g>
<!-- Node3 -->
<g id="node3" class="node">
<title>Node3</title>
<g id="a_node3"><a xlink:href="namespacetrap_1_1handler.html#aa067cfbe3cae2802d8b48a14d125daa3" target="_top" xlink:title=" ">
<polygon fill="white" stroke="black" points="267,-98.03 267,-117.03 370,-117.03 370,-98.03 267,-98.03"/>
<text text-anchor="middle" x="318.5" y="-105.03" font-family="Helvetica,sans-Serif" font-size="10.00">trap::handler::debug</text>
</a>
</g>
</g>
<!-- Node1&#45;&gt;Node3 -->
<g id="edge2" class="edge">
<title>Node1&#45;&gt;Node3</title>
<path fill="none" stroke="midnightblue" d="M76.27,-98.87C122.36,-100.52 201.45,-103.36 256.45,-105.34"/>
<polygon fill="midnightblue" stroke="midnightblue" points="256.65,-108.85 266.77,-105.71 256.9,-101.85 256.65,-108.85"/>
</g>
<!-- Node31 -->
<g id="node31" class="node">
<title>Node31</title>
<g id="a_node31"><a xlink:href="namespacetrap_1_1handler.html#a65cff701e96f1293ec6f8dcb105724a5" target="_top" xlink:title=" ">
<polygon fill="white" stroke="black" points="112,-41.03 112,-60.03 231,-60.03 231,-41.03 112,-41.03"/>
<text text-anchor="middle" x="171.5" y="-48.03" font-family="Helvetica,sans-Serif" font-size="10.00">trap::handler::pageFault</text>
</a>
</g>
</g>
<!-- Node1&#45;&gt;Node31 -->
<g id="edge40" class="edge">
<title>Node1&#45;&gt;Node31</title>
<path fill="none" stroke="midnightblue" d="M65.61,-88.02C85.27,-80.99 112.26,-71.35 133.94,-63.6"/>
<polygon fill="midnightblue" stroke="midnightblue" points="135.24,-66.85 143.48,-60.19 132.88,-60.26 135.24,-66.85"/>
</g>
<!-- Node4 -->
<g id="node4" class="node">
<title>Node4</title>
<g id="a_node4"><a xlink:href="namespacemonitor.html#ac02f947e274eb7d38cdfa803c21ef579" target="_top" xlink:title=" ">
<polygon fill="white" stroke="black" points="406,-136.03 406,-155.03 482,-155.03 482,-136.03 406,-136.03"/>
<text text-anchor="middle" x="444" y="-143.03" font-family="Helvetica,sans-Serif" font-size="10.00">monitor::main</text>
</a>
</g>
</g>
<!-- Node3&#45;&gt;Node4 -->
<g id="edge3" class="edge">
<title>Node3&#45;&gt;Node4</title>
<path fill="none" stroke="midnightblue" d="M350.66,-117.12C366.31,-121.93 385.47,-127.83 402.27,-133"/>
<polygon fill="midnightblue" stroke="midnightblue" points="401.26,-136.35 411.85,-135.94 403.32,-129.66 401.26,-136.35"/>
</g>
<!-- Node11 -->
<g id="node11" class="node">
<title>Node11</title>
<g id="a_node11"><a xlink:href="namespaceconsole_1_1out.html#ac6f663e3971b66b8e130ee94755a150e" target="_top" xlink:title=" ">
<polygon fill="white" stroke="black" points="522.5,-22.03 522.5,-41.03 617.5,-41.03 617.5,-22.03 522.5,-22.03"/>
<text text-anchor="middle" x="570" y="-29.03" font-family="Helvetica,sans-Serif" font-size="10.00">console::out::print</text>
</a>
</g>
</g>
<!-- Node3&#45;&gt;Node11 -->
<g id="edge39" class="edge">
<title>Node3&#45;&gt;Node11</title>
<path fill="none" stroke="midnightblue" d="M370.3,-107.56C403.06,-106.15 446.09,-101.57 482,-88.53 507.73,-79.19 533.49,-60.93 550.23,-47.58"/>
<polygon fill="midnightblue" stroke="midnightblue" points="552.59,-50.17 558.11,-41.13 548.15,-44.76 552.59,-50.17"/>
</g>
<!-- Node5 -->
<g id="node5" class="node">
<title>Node5</title>
<g id="a_node5"><a xlink:href="namespacemonitor.html#a8b88ed0586263051a6af8dbff388e314" target="_top" xlink:title=" ">
<polygon fill="white" stroke="black" points="520,-218.03 520,-237.03 620,-237.03 620,-218.03 520,-218.03"/>
<text text-anchor="middle" x="570" y="-225.03" font-family="Helvetica,sans-Serif" font-size="10.00">monitor::parseCmd</text>
</a>
</g>
</g>
<!-- Node4&#45;&gt;Node5 -->
<g id="edge4" class="edge">
<title>Node4&#45;&gt;Node5</title>
<path fill="none" stroke="midnightblue" d="M459.71,-155.26C480.97,-169.31 520.48,-195.44 545.72,-212.13"/>
<polygon fill="midnightblue" stroke="midnightblue" points="544.04,-215.22 554.31,-217.81 547.9,-209.38 544.04,-215.22"/>
</g>
<!-- Node4&#45;&gt;Node11 -->
<g id="edge10" class="edge">
<title>Node4&#45;&gt;Node11</title>
<path fill="none" stroke="midnightblue" d="M462.43,-135.88C468.92,-131.87 476.13,-126.91 482,-121.53 501.15,-104 500.09,-94.32 518,-75.53 527.49,-65.58 539.01,-55.49 548.71,-47.49"/>
<polygon fill="midnightblue" stroke="midnightblue" points="551.09,-50.06 556.66,-41.04 546.69,-44.62 551.09,-50.06"/>
</g>
<!-- Node26 -->
<g id="node26" class="node">
<title>Node26</title>
<g id="a_node26"><a xlink:href="namespaceconsole_1_1err.html#a124c7e8527c0e3fd2b9636411aea7e82" target="_top" xlink:title=" ">
<polygon fill="white" stroke="black" points="524,-142.03 524,-161.03 616,-161.03 616,-142.03 524,-142.03"/>
<text text-anchor="middle" x="570" y="-149.03" font-family="Helvetica,sans-Serif" font-size="10.00">console::err::print</text>
</a>
</g>
</g>
<!-- Node4&#45;&gt;Node26 -->
<g id="edge30" class="edge">
<title>Node4&#45;&gt;Node26</title>
<path fill="none" stroke="midnightblue" d="M482.2,-147.33C492.15,-147.81 503.12,-148.34 513.81,-148.86"/>
<polygon fill="midnightblue" stroke="midnightblue" points="513.78,-152.36 523.94,-149.35 514.12,-145.37 513.78,-152.36"/>
</g>
<!-- Node28 -->
<g id="node28" class="node">
<title>Node28</title>
<g id="a_node28"><a xlink:href="namespaceconsole_1_1in.html#afa763e7729f2e6fbdcf4c14e44ad7a29" target="_top" xlink:title=" ">
<polygon fill="white" stroke="black" points="518,-85.03 518,-104.03 622,-104.03 622,-85.03 518,-85.03"/>
<text text-anchor="middle" x="570" y="-92.03" font-family="Helvetica,sans-Serif" font-size="10.00">console::in::readline</text>
</a>
</g>
</g>
<!-- Node4&#45;&gt;Node28 -->
<g id="edge34" class="edge">
<title>Node4&#45;&gt;Node28</title>
<path fill="none" stroke="midnightblue" d="M468.32,-135.94C487.55,-128.03 515.03,-116.73 536.43,-107.93"/>
<polygon fill="midnightblue" stroke="midnightblue" points="537.86,-111.12 545.78,-104.08 535.2,-104.65 537.86,-111.12"/>
</g>
<!-- Node6 -->
<g id="node6" class="node">
<title>Node6</title>
<g id="a_node6"><a xlink:href="namespacestr.html#ace5edf7e67a558a1c4ead28a66faba41" target="_top" xlink:title=" ">
<polygon fill="white" stroke="black" points="677.5,-218.03 677.5,-237.03 753.5,-237.03 753.5,-218.03 677.5,-218.03"/>
<text text-anchor="middle" x="715.5" y="-225.03" font-family="Helvetica,sans-Serif" font-size="10.00">str::cmpCase</text>
</a>
</g>
</g>
<!-- Node5&#45;&gt;Node6 -->
<g id="edge5" class="edge">
<title>Node5&#45;&gt;Node6</title>
<path fill="none" stroke="midnightblue" d="M620.38,-227.53C635.54,-227.53 652.16,-227.53 667.17,-227.53"/>
<polygon fill="midnightblue" stroke="midnightblue" points="667.27,-231.03 677.27,-227.53 667.27,-224.03 667.27,-231.03"/>
</g>
<!-- Node7 -->
<g id="node7" class="node">
<title>Node7</title>
<g id="a_node7"><a xlink:href="namespacestr.html#a12522233f7d73122d76de5c82e44a183" target="_top" xlink:title=" ">
<polygon fill="white" stroke="black" points="682,-319.03 682,-338.03 749,-338.03 749,-319.03 682,-319.03"/>
<text text-anchor="middle" x="715.5" y="-326.03" font-family="Helvetica,sans-Serif" font-size="10.00">str::splitWs</text>
</a>
</g>
</g>
<!-- Node5&#45;&gt;Node7 -->
<g id="edge6" class="edge">
<title>Node5&#45;&gt;Node7</title>
<path fill="none" stroke="midnightblue" d="M584.5,-237.03C609.29,-254.48 662.26,-291.76 692.38,-312.96"/>
<polygon fill="midnightblue" stroke="midnightblue" points="690.74,-316.09 700.93,-318.98 694.77,-310.36 690.74,-316.09"/>
</g>
<!-- Node8 -->
<g id="node8" class="node">
<title>Node8</title>
<g id="a_node8"><a xlink:href="namespacestr.html#a0e183e333ba05550c6b206906dbf0f10" target="_top" xlink:title=" ">
<polygon fill="white" stroke="black" points="836,-350.03 836,-369.03 888,-369.03 888,-350.03 836,-350.03"/>
<text text-anchor="middle" x="862" y="-357.03" font-family="Helvetica,sans-Serif" font-size="10.00">str::split</text>
</a>
</g>
</g>
<!-- Node7&#45;&gt;Node8 -->
<g id="edge7" class="edge">
<title>Node7&#45;&gt;Node8</title>
<path fill="none" stroke="midnightblue" d="M749.29,-335.56C772.21,-340.48 802.77,-347.04 826.14,-352.05"/>
<polygon fill="midnightblue" stroke="midnightblue" points="825.48,-355.49 835.99,-354.16 826.95,-348.64 825.48,-355.49"/>
</g>
<!-- Node9 -->
<g id="node9" class="node">
<title>Node9</title>
<g id="a_node9"><a xlink:href="namespacestr.html#a062221f630647cf300f0dd982c4ed904" target="_top" xlink:title=" ">
<polygon fill="white" stroke="black" points="1747,-312.03 1747,-331.03 1805,-331.03 1805,-312.03 1747,-312.03"/>
<text text-anchor="middle" x="1776" y="-319.03" font-family="Helvetica,sans-Serif" font-size="10.00">str::count</text>
</a>
</g>
</g>
<!-- Node8&#45;&gt;Node9 -->
<g id="edge8" class="edge">
<title>Node8&#45;&gt;Node9</title>
<path fill="none" stroke="midnightblue" d="M888.39,-359.53C940.82,-359.53 1064.88,-359.53 1169,-359.53 1169,-359.53 1169,-359.53 1476,-359.53 1580.99,-359.53 1607.33,-352.11 1711,-335.53 1719.38,-334.19 1728.32,-332.44 1736.77,-330.63"/>
<polygon fill="midnightblue" stroke="midnightblue" points="1737.77,-334 1746.78,-328.43 1736.26,-327.16 1737.77,-334"/>
</g>
<!-- Node10 -->
<g id="node10" class="node">
<title>Node10</title>
<g id="a_node10"><a xlink:href="namespacestr.html#a4b4d986113337f946299cef82449cf52" target="_top" xlink:title=" ">
<polygon fill="white" stroke="black" points="986,-388.03 986,-407.03 1036,-407.03 1036,-388.03 986,-388.03"/>
<text text-anchor="middle" x="1011" y="-395.03" font-family="Helvetica,sans-Serif" font-size="10.00">str::find</text>
</a>
</g>
</g>
<!-- Node8&#45;&gt;Node10 -->
<g id="edge9" class="edge">
<title>Node8&#45;&gt;Node10</title>
<path fill="none" stroke="midnightblue" d="M888.27,-366.06C912.44,-372.31 949.06,-381.78 975.82,-388.69"/>
<polygon fill="midnightblue" stroke="midnightblue" points="974.99,-392.09 985.55,-391.21 976.74,-385.32 974.99,-392.09"/>
</g>
<!-- Node12 -->
<g id="node12" class="node">
<title>Node12</title>
<g id="a_node12"><a xlink:href="namespaceconsole_1_1out.html#a8f791bfac54067cadb1b9f18117b987b" target="_top" xlink:title=" ">
<polygon fill="white" stroke="black" points="809,-8.03 809,-27.03 915,-27.03 915,-8.03 809,-8.03"/>
<text text-anchor="middle" x="862" y="-15.03" font-family="Helvetica,sans-Serif" font-size="10.00">console::out::printVa</text>
</a>
</g>
</g>
<!-- Node11&#45;&gt;Node12 -->
<g id="edge11" class="edge">
<title>Node11&#45;&gt;Node12</title>
<path fill="none" stroke="midnightblue" d="M617.59,-29.28C666.7,-26.91 744.33,-23.16 798.68,-20.54"/>
<polygon fill="midnightblue" stroke="midnightblue" points="799.07,-24.02 808.89,-20.05 798.73,-17.03 799.07,-24.02"/>
</g>
<!-- Node13 -->
<g id="node13" class="node">
<title>Node13</title>
<g id="a_node13"><a xlink:href="namespaceconsole_1_1ge.html#af642934cb833142f133285fdb75ef7b7" target="_top" xlink:title=" ">
<polygon fill="white" stroke="black" points="951,-160.03 951,-179.03 1071,-179.03 1071,-160.03 951,-160.03"/>
<text text-anchor="middle" x="1011" y="-167.03" font-family="Helvetica,sans-Serif" font-size="10.00">console::ge::printFmtVa</text>
</a>
</g>
</g>
<!-- Node12&#45;&gt;Node13 -->
<g id="edge12" class="edge">
<title>Node12&#45;&gt;Node13</title>
<path fill="none" stroke="midnightblue" d="M872.2,-27.04C896.53,-52.2 962.87,-120.79 993.76,-152.74"/>
<polygon fill="midnightblue" stroke="midnightblue" points="991.34,-155.27 1000.81,-160.03 996.37,-150.4 991.34,-155.27"/>
</g>
<!-- Node19 -->
<g id="node19" class="node">
<title>Node19</title>
<g id="a_node19"><a xlink:href="namespaceconsole_1_1out.html#ad9fc97dff4404c2d21aedbb24691e7cb" target="_top" xlink:title=" ">
<polygon fill="white" stroke="black" points="1269,-141.03 1269,-160.03 1379,-160.03 1379,-141.03 1269,-141.03"/>
<text text-anchor="middle" x="1324" y="-148.03" font-family="Helvetica,sans-Serif" font-size="10.00">console::out::putChar</text>
</a>
</g>
</g>
<!-- Node12&#45;&gt;Node19 -->
<g id="edge29" class="edge">
<title>Node12&#45;&gt;Node19</title>
<path fill="none" stroke="midnightblue" d="M915.13,-8.54C990,1.74 1130.27,11 1233,-41.53 1271.77,-61.36 1300.03,-106.07 1313.73,-131.64"/>
<polygon fill="midnightblue" stroke="midnightblue" points="1310.71,-133.42 1318.4,-140.71 1316.93,-130.22 1310.71,-133.42"/>
</g>
<!-- Node13&#45;&gt;Node9 -->
<g id="edge15" class="edge">
<title>Node13&#45;&gt;Node9</title>
<path fill="none" stroke="midnightblue" d="M1018.89,-179.28C1033.09,-198.61 1067.57,-241.86 1107,-264.53 1193.08,-314.01 1223.71,-321.53 1323,-321.53 1323,-321.53 1323,-321.53 1476,-321.53 1569.63,-321.53 1679.76,-321.53 1736.65,-321.53"/>
<polygon fill="midnightblue" stroke="midnightblue" points="1736.97,-325.03 1746.97,-321.53 1736.97,-318.03 1736.97,-325.03"/>
</g>
<!-- Node14 -->
<g id="node14" class="node">
<title>Node14</title>
<g id="a_node14"><a xlink:href="printfmt_8cc.html#a708ec6ee2b8bd2d7a453d8d9436ed3b3" target="_top" xlink:title=" ">
<polygon fill="white" stroke="black" points="1141,-84.03 1141,-103.03 1199,-103.03 1199,-84.03 1141,-84.03"/>
<text text-anchor="middle" x="1170" y="-91.03" font-family="Helvetica,sans-Serif" font-size="10.00">_getIntVa</text>
</a>
</g>
</g>
<!-- Node13&#45;&gt;Node14 -->
<g id="edge13" class="edge">
<title>Node13&#45;&gt;Node14</title>
<path fill="none" stroke="midnightblue" d="M1028.14,-159.84C1046.77,-148.86 1078.53,-130.76 1107,-117.53 1115.21,-113.71 1124.22,-109.98 1132.75,-106.64"/>
<polygon fill="midnightblue" stroke="midnightblue" points="1134.04,-109.9 1142.13,-103.05 1131.54,-103.36 1134.04,-109.9"/>
</g>
<!-- Node15 -->
<g id="node15" class="node">
<title>Node15</title>
<g id="a_node15"><a xlink:href="printfmt_8cc.html#af4b46892c76c8bfd27efdb20847eb7c8" target="_top" xlink:title=" ">
<polygon fill="white" stroke="black" points="1137.5,-198.03 1137.5,-217.03 1202.5,-217.03 1202.5,-198.03 1137.5,-198.03"/>
<text text-anchor="middle" x="1170" y="-205.03" font-family="Helvetica,sans-Serif" font-size="10.00">_getUIntVa</text>
</a>
</g>
</g>
<!-- Node13&#45;&gt;Node15 -->
<g id="edge14" class="edge">
<title>Node13&#45;&gt;Node15</title>
<path fill="none" stroke="midnightblue" d="M1051.62,-179.12C1074.72,-184.71 1103.84,-191.76 1127.3,-197.44"/>
<polygon fill="midnightblue" stroke="midnightblue" points="1126.76,-200.91 1137.3,-199.86 1128.4,-194.1 1126.76,-200.91"/>
</g>
<!-- Node16 -->
<g id="node16" class="node">
<title>Node16</title>
<g id="a_node16"><a xlink:href="printfmt_8cc.html#a0e3e484ece5e75b9f5fbe337f0ae8ae3" target="_top" xlink:title=" ">
<polygon fill="white" stroke="black" points="1143.5,-236.03 1143.5,-255.03 1196.5,-255.03 1196.5,-236.03 1143.5,-236.03"/>
<text text-anchor="middle" x="1170" y="-243.03" font-family="Helvetica,sans-Serif" font-size="10.00">describe</text>
</a>
</g>
</g>
<!-- Node13&#45;&gt;Node16 -->
<g id="edge16" class="edge">
<title>Node13&#45;&gt;Node16</title>
<path fill="none" stroke="midnightblue" d="M1025.59,-179.14C1043.53,-191.48 1076.43,-212.92 1107,-226.53 1115.44,-230.29 1124.85,-233.59 1133.73,-236.34"/>
<polygon fill="midnightblue" stroke="midnightblue" points="1132.87,-239.74 1143.45,-239.21 1134.85,-233.03 1132.87,-239.74"/>
</g>
<!-- Node18 -->
<g id="node18" class="node">
<title>Node18</title>
<g id="a_node18"><a xlink:href="namespaceconsole_1_1ge.html#a7e301813fd34fde772376afc5fdad95d" target="_top" xlink:title=" ">
<polygon fill="white" stroke="black" points="1107,-160.03 1107,-179.03 1233,-179.03 1233,-160.03 1107,-160.03"/>
<text text-anchor="middle" x="1170" y="-167.03" font-family="Helvetica,sans-Serif" font-size="10.00">console::ge::printNumber</text>
</a>
</g>
</g>
<!-- Node13&#45;&gt;Node18 -->
<g id="edge18" class="edge">
<title>Node13&#45;&gt;Node18</title>
<path fill="none" stroke="midnightblue" d="M1071.35,-169.53C1079.63,-169.53 1088.2,-169.53 1096.68,-169.53"/>
<polygon fill="midnightblue" stroke="midnightblue" points="1096.95,-173.03 1106.95,-169.53 1096.95,-166.03 1096.95,-173.03"/>
</g>
<!-- Node13&#45;&gt;Node19 -->
<g id="edge28" class="edge">
<title>Node13&#45;&gt;Node19</title>
<path fill="none" stroke="midnightblue" d="M1050.57,-160.02C1067.73,-156.25 1088.25,-152.39 1107,-150.53 1157.79,-145.5 1215.62,-145.82 1258.65,-147.22"/>
<polygon fill="midnightblue" stroke="midnightblue" points="1258.59,-150.72 1268.71,-147.58 1258.84,-143.72 1258.59,-150.72"/>
</g>
<!-- Node17 -->
<g id="node17" class="node">
<title>Node17</title>
<g id="a_node17"><a xlink:href="namespacemonitor.html#a318993193c866642f8389a1c1f285739" target="_top" xlink:title=" ">
<polygon fill="white" stroke="black" points="1287,-236.03 1287,-255.03 1361,-255.03 1361,-236.03 1287,-236.03"/>
<text text-anchor="middle" x="1324" y="-243.03" font-family="Helvetica,sans-Serif" font-size="10.00">monitor::fuck</text>
</a>
</g>
</g>
<!-- Node16&#45;&gt;Node17 -->
<g id="edge17" class="edge">
<title>Node16&#45;&gt;Node17</title>
<path fill="none" stroke="midnightblue" d="M1196.78,-245.53C1218.62,-245.53 1250.46,-245.53 1276.7,-245.53"/>
<polygon fill="midnightblue" stroke="midnightblue" points="1276.82,-249.03 1286.82,-245.53 1276.82,-242.03 1276.82,-249.03"/>
</g>
<!-- Node18&#45;&gt;Node19 -->
<g id="edge19" class="edge">
<title>Node18&#45;&gt;Node19</title>
<path fill="none" stroke="midnightblue" d="M1233.26,-161.75C1241.66,-160.7 1250.28,-159.62 1258.71,-158.57"/>
<polygon fill="midnightblue" stroke="midnightblue" points="1259.37,-162.01 1268.86,-157.3 1258.51,-155.06 1259.37,-162.01"/>
</g>
<!-- Node20 -->
<g id="node20" class="node">
<title>Node20</title>
<g id="a_node20"><a xlink:href="namespaceconsole_1_1serial.html#a3a7c1f95ae3c24136ea63bb31fdf0391" target="_top" xlink:title=" ">
<polygon fill="white" stroke="black" points="1415,-141.03 1415,-160.03 1535,-160.03 1535,-141.03 1415,-141.03"/>
<text text-anchor="middle" x="1475" y="-148.03" font-family="Helvetica,sans-Serif" font-size="10.00">console::serial::putChar</text>
</a>
</g>
</g>
<!-- Node19&#45;&gt;Node20 -->
<g id="edge20" class="edge">
<title>Node19&#45;&gt;Node20</title>
<path fill="none" stroke="midnightblue" d="M1379.21,-150.53C1387.53,-150.53 1396.2,-150.53 1404.79,-150.53"/>
<polygon fill="midnightblue" stroke="midnightblue" points="1404.79,-154.03 1414.79,-150.53 1404.79,-147.03 1404.79,-154.03"/>
</g>
<!-- Node23 -->
<g id="node23" class="node">
<title>Node23</title>
<g id="a_node23"><a xlink:href="namespaceconsole_1_1cga.html#afa19057ca041b39682d5d4831c43dfa0" target="_top" xlink:title=" ">
<polygon fill="white" stroke="black" points="1418.5,-179.03 1418.5,-198.03 1531.5,-198.03 1531.5,-179.03 1418.5,-179.03"/>
<text text-anchor="middle" x="1475" y="-186.03" font-family="Helvetica,sans-Serif" font-size="10.00">console::cga::putChar</text>
</a>
</g>
</g>
<!-- Node19&#45;&gt;Node23 -->
<g id="edge23" class="edge">
<title>Node19&#45;&gt;Node23</title>
<path fill="none" stroke="midnightblue" d="M1362.6,-160.12C1382.08,-165.09 1406.07,-171.21 1426.8,-176.49"/>
<polygon fill="midnightblue" stroke="midnightblue" points="1426.12,-179.93 1436.67,-179.01 1427.85,-173.15 1426.12,-179.93"/>
</g>
<!-- Node21 -->
<g id="node21" class="node">
<title>Node21</title>
<g id="a_node21"><a xlink:href="namespaceconsole_1_1serial.html#aa5605d4537106bb1c2bab72d7d1a5824" target="_top" xlink:title=" ">
<polygon fill="white" stroke="black" points="1589,-141.03 1589,-160.03 1693,-160.03 1693,-141.03 1589,-141.03"/>
<text text-anchor="middle" x="1641" y="-148.03" font-family="Helvetica,sans-Serif" font-size="10.00">console::serial::sout</text>
</a>
</g>
</g>
<!-- Node20&#45;&gt;Node21 -->
<g id="edge21" class="edge">
<title>Node20&#45;&gt;Node21</title>
<path fill="none" stroke="midnightblue" d="M1535.21,-150.53C1549.31,-150.53 1564.39,-150.53 1578.59,-150.53"/>
<polygon fill="midnightblue" stroke="midnightblue" points="1578.74,-154.03 1588.74,-150.53 1578.74,-147.03 1578.74,-154.03"/>
</g>
<!-- Node22 -->
<g id="node22" class="node">
<title>Node22</title>
<g id="a_node22"><a xlink:href="x86_8h.html#ade961b44e45ddacbc3c3b7609cf36dc6" target="_top" xlink:title=" ">
<polygon fill="white" stroke="black" points="1758.5,-160.03 1758.5,-179.03 1793.5,-179.03 1793.5,-160.03 1758.5,-160.03"/>
<text text-anchor="middle" x="1776" y="-167.03" font-family="Helvetica,sans-Serif" font-size="10.00">outb</text>
</a>
</g>
</g>
<!-- Node21&#45;&gt;Node22 -->
<g id="edge22" class="edge">
<title>Node21&#45;&gt;Node22</title>
<path fill="none" stroke="midnightblue" d="M1693.04,-157.82C1711.85,-160.51 1732.4,-163.44 1748.22,-165.7"/>
<polygon fill="midnightblue" stroke="midnightblue" points="1747.95,-169.2 1758.34,-167.15 1748.94,-162.27 1747.95,-169.2"/>
</g>
<!-- Node24 -->
<g id="node24" class="node">
<title>Node24</title>
<g id="a_node24"><a xlink:href="namespacemem.html#a64d9d05b439041901498c606de606431" target="_top" xlink:title=" ">
<polygon fill="white" stroke="black" points="1608.5,-255.03 1608.5,-274.03 1673.5,-274.03 1673.5,-255.03 1608.5,-255.03"/>
<text text-anchor="middle" x="1641" y="-262.03" font-family="Helvetica,sans-Serif" font-size="10.00">mem::copy</text>
</a>
</g>
</g>
<!-- Node23&#45;&gt;Node24 -->
<g id="edge24" class="edge">
<title>Node23&#45;&gt;Node24</title>
<path fill="none" stroke="midnightblue" d="M1496.77,-198.16C1525.48,-211.46 1577.46,-235.55 1610.28,-250.76"/>
<polygon fill="midnightblue" stroke="midnightblue" points="1608.85,-253.95 1619.4,-254.98 1611.8,-247.6 1608.85,-253.95"/>
</g>
<!-- Node25 -->
<g id="node25" class="node">
<title>Node25</title>
<g id="a_node25"><a xlink:href="namespaceconsole_1_1cga.html#a06463d4dc68819e30615ba299d02a78f" target="_top" xlink:title=" ">
<polygon fill="white" stroke="black" points="1571,-179.03 1571,-198.03 1711,-198.03 1711,-179.03 1571,-179.03"/>
<text text-anchor="middle" x="1641" y="-186.03" font-family="Helvetica,sans-Serif" font-size="10.00">console::cga::cursorRefresh</text>
</a>
</g>
</g>
<!-- Node23&#45;&gt;Node25 -->
<g id="edge26" class="edge">
<title>Node23&#45;&gt;Node25</title>
<path fill="none" stroke="midnightblue" d="M1531.52,-188.53C1540.9,-188.53 1550.8,-188.53 1560.65,-188.53"/>
<polygon fill="midnightblue" stroke="midnightblue" points="1560.87,-192.03 1570.87,-188.53 1560.87,-185.03 1560.87,-192.03"/>
</g>
<!-- Node24&#45;&gt;Node9 -->
<g id="edge25" class="edge">
<title>Node24&#45;&gt;Node9</title>
<path fill="none" stroke="midnightblue" d="M1664.26,-274.07C1685.94,-283.36 1719.08,-297.57 1743.47,-308.02"/>
<polygon fill="midnightblue" stroke="midnightblue" points="1742.1,-311.24 1752.67,-311.96 1744.85,-304.8 1742.1,-311.24"/>
</g>
<!-- Node25&#45;&gt;Node22 -->
<g id="edge27" class="edge">
<title>Node25&#45;&gt;Node22</title>
<path fill="none" stroke="midnightblue" d="M1708.89,-178.97C1722.81,-176.99 1736.71,-175 1748.15,-173.37"/>
<polygon fill="midnightblue" stroke="midnightblue" points="1748.87,-176.8 1758.28,-171.92 1747.88,-169.87 1748.87,-176.8"/>
</g>
<!-- Node27 -->
<g id="node27" class="node">
<title>Node27</title>
<g id="a_node27"><a xlink:href="namespaceconsole_1_1err.html#a4cd18e4c409b5b17ecec61ce83b05fba" target="_top" xlink:title=" ">
<polygon fill="white" stroke="black" points="810,-160.03 810,-179.03 914,-179.03 914,-160.03 810,-160.03"/>
<text text-anchor="middle" x="862" y="-167.03" font-family="Helvetica,sans-Serif" font-size="10.00">console::err::printVa</text>
</a>
</g>
</g>
<!-- Node26&#45;&gt;Node27 -->
<g id="edge31" class="edge">
<title>Node26&#45;&gt;Node27</title>
<path fill="none" stroke="midnightblue" d="M616.31,-154.34C665.55,-157.4 744.51,-162.3 799.36,-165.7"/>
<polygon fill="midnightblue" stroke="midnightblue" points="799.46,-169.22 809.65,-166.34 799.89,-162.23 799.46,-169.22"/>
</g>
<!-- Node27&#45;&gt;Node13 -->
<g id="edge32" class="edge">
<title>Node27&#45;&gt;Node13</title>
<path fill="none" stroke="midnightblue" d="M914,-169.53C922.62,-169.53 931.69,-169.53 940.68,-169.53"/>
<polygon fill="midnightblue" stroke="midnightblue" points="940.76,-173.03 950.76,-169.53 940.76,-166.03 940.76,-173.03"/>
</g>
<!-- Node27&#45;&gt;Node19 -->
<g id="edge33" class="edge">
<title>Node27&#45;&gt;Node19</title>
<path fill="none" stroke="midnightblue" d="M876.1,-179.12C925.26,-213.84 1102.6,-327.72 1233,-264.53 1243.79,-259.3 1288.24,-198.9 1310.37,-168.21"/>
<polygon fill="midnightblue" stroke="midnightblue" points="1313.22,-170.23 1316.21,-160.07 1307.54,-166.15 1313.22,-170.23"/>
</g>
<!-- Node29 -->
<g id="node29" class="node">
<title>Node29</title>
<g id="a_node29"><a xlink:href="namespaceconsole_1_1in.html#ac28354dad0498aa6bb0c178b10d62c8a" target="_top" xlink:title=" ">
<polygon fill="white" stroke="black" points="658,-71.03 658,-90.03 773,-90.03 773,-71.03 658,-71.03"/>
<text text-anchor="middle" x="715.5" y="-78.03" font-family="Helvetica,sans-Serif" font-size="10.00">console::in::readlineVa</text>
</a>
</g>
</g>
<!-- Node28&#45;&gt;Node29 -->
<g id="edge35" class="edge">
<title>Node28&#45;&gt;Node29</title>
<path fill="none" stroke="midnightblue" d="M622.4,-89.52C630.52,-88.72 639.02,-87.89 647.43,-87.07"/>
<polygon fill="midnightblue" stroke="midnightblue" points="648,-90.53 657.62,-86.08 647.32,-83.57 648,-90.53"/>
</g>
<!-- Node29&#45;&gt;Node12 -->
<g id="edge37" class="edge">
<title>Node29&#45;&gt;Node12</title>
<path fill="none" stroke="midnightblue" d="M738.45,-70.96C762.74,-60.37 802.1,-43.21 829.64,-31.2"/>
<polygon fill="midnightblue" stroke="midnightblue" points="831.08,-34.39 838.85,-27.19 828.28,-27.98 831.08,-34.39"/>
</g>
<!-- Node29&#45;&gt;Node19 -->
<g id="edge38" class="edge">
<title>Node29&#45;&gt;Node19</title>
<path fill="none" stroke="midnightblue" d="M755.32,-71.02C843.51,-51.34 1064.35,-12.85 1233,-74.53 1264.81,-86.16 1293.13,-114.56 1309.17,-133.15"/>
<polygon fill="midnightblue" stroke="midnightblue" points="1306.54,-135.47 1315.63,-140.91 1311.92,-130.99 1306.54,-135.47"/>
</g>
<!-- Node30 -->
<g id="node30" class="node">
<title>Node30</title>
<g id="a_node30"><a xlink:href="namespaceconsole_1_1in.html#a6fc069f2bc57fda183e3b991c31ec5a7" target="_top" xlink:title=" ">
<polygon fill="white" stroke="black" points="810,-84.03 810,-103.03 914,-103.03 914,-84.03 810,-84.03"/>
<text text-anchor="middle" x="862" y="-91.03" font-family="Helvetica,sans-Serif" font-size="10.00">console::in::getChar</text>
</a>
</g>
</g>
<!-- Node29&#45;&gt;Node30 -->
<g id="edge36" class="edge">
<title>Node29&#45;&gt;Node30</title>
<path fill="none" stroke="midnightblue" d="M773.2,-85.63C781.83,-86.41 790.78,-87.21 799.52,-88"/>
<polygon fill="midnightblue" stroke="midnightblue" points="799.37,-91.5 809.64,-88.91 800,-84.53 799.37,-91.5"/>
</g>
<!-- Node31&#45;&gt;Node11 -->
<g id="edge45" class="edge">
<title>Node31&#45;&gt;Node11</title>
<path fill="none" stroke="midnightblue" d="M190.33,-40.95C208.88,-31.57 239.05,-17.94 267,-12.53 352.81,4.08 454.64,-8.93 515.42,-20.07"/>
<polygon fill="midnightblue" stroke="midnightblue" points="515.08,-23.56 525.55,-21.98 516.37,-16.68 515.08,-23.56"/>
</g>
<!-- Node32 -->
<g id="node32" class="node">
<title>Node32</title>
<g id="a_node32"><a xlink:href="structtask_1_1_task.html#acc107ba9ef939a92f459873765fb73eb" target="_top" xlink:title=" ">
<polygon fill="white" stroke="black" points="268,-60.03 268,-79.03 369,-79.03 369,-60.03 268,-60.03"/>
<text text-anchor="middle" x="318.5" y="-67.03" font-family="Helvetica,sans-Serif" font-size="10.00">task::Task::destroy</text>
</a>
</g>
</g>
<!-- Node31&#45;&gt;Node32 -->
<g id="edge41" class="edge">
<title>Node31&#45;&gt;Node32</title>
<path fill="none" stroke="midnightblue" d="M231.06,-58.2C239.76,-59.34 248.74,-60.52 257.47,-61.66"/>
<polygon fill="midnightblue" stroke="midnightblue" points="257.2,-65.16 267.57,-62.99 258.11,-58.22 257.2,-65.16"/>
</g>
<!-- Node34 -->
<g id="node34" class="node">
<title>Node34</title>
<g id="a_node34"><a xlink:href="x86_8h.html#a3dc6d9821f5d1882b68147fd25aa11cd" target="_top" xlink:title=" ">
<polygon fill="white" stroke="black" points="302,-22.03 302,-41.03 335,-41.03 335,-22.03 302,-22.03"/>
<text text-anchor="middle" x="318.5" y="-29.03" font-family="Helvetica,sans-Serif" font-size="10.00">rcr2</text>
</a>
</g>
</g>
<!-- Node31&#45;&gt;Node34 -->
<g id="edge46" class="edge">
<title>Node31&#45;&gt;Node34</title>
<path fill="none" stroke="midnightblue" d="M231.06,-42.86C252.08,-40.1 274.72,-37.14 291.56,-34.93"/>
<polygon fill="midnightblue" stroke="midnightblue" points="292.25,-38.37 301.71,-33.6 291.34,-31.43 292.25,-38.37"/>
</g>
<!-- Node32&#45;&gt;Node4 -->
<g id="edge43" class="edge">
<title>Node32&#45;&gt;Node4</title>
<path fill="none" stroke="midnightblue" d="M349.55,-79.13C356.45,-81.79 363.63,-84.95 370,-88.53 390.4,-99.98 411.18,-116.82 425.33,-129.23"/>
<polygon fill="midnightblue" stroke="midnightblue" points="423.05,-131.89 432.84,-135.95 427.72,-126.67 423.05,-131.89"/>
</g>
<!-- Node32&#45;&gt;Node11 -->
<g id="edge44" class="edge">
<title>Node32&#45;&gt;Node11</title>
<path fill="none" stroke="midnightblue" d="M358.96,-59.99C373.66,-56.67 390.53,-53.12 406,-50.53 441.09,-44.65 480.73,-39.98 512.14,-36.75"/>
<polygon fill="midnightblue" stroke="midnightblue" points="512.86,-40.19 522.45,-35.7 512.15,-33.23 512.86,-40.19"/>
</g>
<!-- Node33 -->
<g id="node33" class="node">
<title>Node33</title>
<g id="a_node33"><a xlink:href="x86_8h.html#ab3bac932074f6042165d3016b701900a" target="_top" xlink:title=" ">
<polygon fill="white" stroke="black" points="428,-60.03 428,-79.03 460,-79.03 460,-60.03 428,-60.03"/>
<text text-anchor="middle" x="444" y="-67.03" font-family="Helvetica,sans-Serif" font-size="10.00">lcr3</text>
</a>
</g>
</g>
<!-- Node32&#45;&gt;Node33 -->
<g id="edge42" class="edge">
<title>Node32&#45;&gt;Node33</title>
<path fill="none" stroke="midnightblue" d="M369.02,-69.53C385.65,-69.53 403.51,-69.53 417.51,-69.53"/>
<polygon fill="midnightblue" stroke="midnightblue" points="417.82,-73.03 427.82,-69.53 417.82,-66.03 417.82,-73.03"/>
</g>
</g>
</svg>
        <g id="navigator" transform="translate(0 0)" fill="#404254">
                <rect fill="#f2f5e9" fill-opacity="0.5" stroke="#606060" stroke-width=".5" x="0" y="0" width="60" height="60"/>
                <use id="zoomplus" xlink:href="#zoomPlus" x="17" y="9" onmousedown="handleZoom(evt,'in')"/>
                <use id="zoomminus" xlink:href="#zoomMin" x="42" y="9" onmousedown="handleZoom(evt,'out')"/>
                <use id="reset" xlink:href="#resetDef" x="30" y="36" onmousedown="handleReset()"/>
                <g id="arrowUp" xlink:href="#dirArrow" transform="translate(30 24)" onmousedown="handlePan(0,-1)">
                  <use xlink:href="#rim" fill="#404040">
                        <set attributeName="fill" to="#808080" begin="arrowUp.mouseover" end="arrowUp.mouseout"/>
                  </use>
                  <path fill="none" stroke="white" stroke-width="1.5" d="M0,-3.0v7 M-2.5,-0.5L0,-3.0L2.5,-0.5"/>
                </g>
                <g id="arrowRight" xlink:href="#dirArrow" transform="rotate(90) translate(36 -43)" onmousedown="handlePan(1,0)">
                  <use xlink:href="#rim" fill="#404040">
                        <set attributeName="fill" to="#808080" begin="arrowRight.mouseover" end="arrowRight.mouseout"/>
                  </use>
                  <path fill="none" stroke="white" stroke-width="1.5" d="M0,-3.0v7 M-2.5,-0.5L0,-3.0L2.5,-0.5"/>
                </g>
                <g id="arrowDown" xlink:href="#dirArrow" transform="rotate(180) translate(-30 -48)" onmousedown="handlePan(0,1)">
                  <use xlink:href="#rim" fill="#404040">
                        <set attributeName="fill" to="#808080" begin="arrowDown.mouseover" end="arrowDown.mouseout"/>
                  </use>
                  <path fill="none" stroke="white" stroke-width="1.5" d="M0,-3.0v7 M-2.5,-0.5L0,-3.0L2.5,-0.5"/>
                </g>
                <g id="arrowLeft" xlink:href="#dirArrow" transform="rotate(270) translate(-36 17)" onmousedown="handlePan(-1,0)">
                  <use xlink:href="#rim" fill="#404040">
                        <set attributeName="fill" to="#808080" begin="arrowLeft.mouseover" end="arrowLeft.mouseout"/>
                  </use>
                  <path fill="none" stroke="white" stroke-width="1.5" d="M0,-3.0v7 M-2.5,-0.5L0,-3.0L2.5,-0.5"/>
                </g>
        </g>
        <svg viewBox="0 0 15 15" width="100%" height="30px" preserveAspectRatio="xMaxYMin meet">
         <g id="arrow_out" transform="scale(0.3 0.3)">
          <a xlink:href="namespacetrap_acef8324bb6b4e213fd060ebe9f59f0b1_cgraph_org.svg" target="_base">
           <rect id="button" ry="5" rx="5" y="6" x="6" height="38" width="38"
                fill="#f2f5e9" fill-opacity="0.5" stroke="#606060" stroke-width="1.0"/>
           <path id="arrow"
             d="M 11.500037,31.436501 C 11.940474,20.09759 22.043105,11.32322 32.158766,21.979434 L 37.068811,17.246167 C 37.068811,17.246167 37.088388,32 37.088388,32 L 22.160133,31.978069 C 22.160133,31.978069 26.997745,27.140456 26.997745,27.140456 C 18.528582,18.264221 13.291696,25.230495 11.500037,31.436501 z"
             style="fill:#404040;"/>
          </a>
         </g>
        </svg>
</svg>
