<?xml version="1.0" encoding="UTF-8" standalone="no"?>
<!DOCTYPE svg PUBLIC "-//W3C//DTD SVG 1.1//EN"
 "http://www.w3.org/Graphics/SVG/1.1/DTD/svg11.dtd">
<!-- Generated by graphviz version 2.44.1 (20200629.0846)
 -->
<!-- Title: monitor::vmshow Pages: 1 -->
<svg width="1468pt" height="480pt"
 viewBox="0.00 0.00 1468.00 479.73" xmlns="http://www.w3.org/2000/svg" xmlns:xlink="http://www.w3.org/1999/xlink">
<g id="graph0" class="graph" transform="scale(1 1) rotate(0) translate(4 475.73)">
<title>monitor::vmshow</title>
<polygon fill="white" stroke="transparent" points="-4,4 -4,-475.73 1464,-475.73 1464,4 -4,4"/>
<!-- Node1 -->
<g id="node1" class="node">
<title>Node1</title>
<g id="a_node1"><a xlink:title=" ">
<polygon fill="#bfbfbf" stroke="black" points="0,-91.23 0,-110.23 92,-110.23 92,-91.23 0,-91.23"/>
<text text-anchor="middle" x="46" y="-98.23" font-family="Helvetica,sans-Serif" font-size="10.00">monitor::vmshow</text>
</a>
</g>
</g>
<!-- Node2 -->
<g id="node2" class="node">
<title>Node2</title>
<g id="a_node2"><a xlink:href="namespacevmem_1_1utils.html#a25776463c68cc6fffbd1bed90bc98f12" target="_top" xlink:title=" ">
<polygon fill="white" stroke="black" points="128,-129.23 128,-148.23 225,-148.23 225,-129.23 128,-129.23"/>
<text text-anchor="middle" x="176.5" y="-136.23" font-family="Helvetica,sans-Serif" font-size="10.00">vmem::utils::show</text>
</a>
</g>
</g>
<!-- Node1&#45;&gt;Node2 -->
<g id="edge1" class="edge">
<title>Node1&#45;&gt;Node2</title>
<path fill="none" stroke="midnightblue" d="M79.43,-110.32C95.71,-115.14 115.64,-121.03 133.12,-126.2"/>
<polygon fill="midnightblue" stroke="midnightblue" points="132.5,-129.67 143.08,-129.15 134.49,-122.96 132.5,-129.67"/>
</g>
<!-- Node31 -->
<g id="node31" class="node">
<title>Node31</title>
<g id="a_node31"><a xlink:href="namespacestr.html#a7bea2669afeb636a996a561e640d2ee8" target="_top" xlink:title=" ">
<polygon fill="white" stroke="black" points="145,-72.23 145,-91.23 208,-91.23 208,-72.23 145,-72.23"/>
<text text-anchor="middle" x="176.5" y="-79.23" font-family="Helvetica,sans-Serif" font-size="10.00">str::toLong</text>
</a>
</g>
</g>
<!-- Node1&#45;&gt;Node31 -->
<g id="edge41" class="edge">
<title>Node1&#45;&gt;Node31</title>
<path fill="none" stroke="midnightblue" d="M92.3,-94.04C106.12,-91.99 121.23,-89.76 134.73,-87.76"/>
<polygon fill="midnightblue" stroke="midnightblue" points="135.31,-91.21 144.69,-86.29 134.29,-84.29 135.31,-91.21"/>
</g>
<!-- Node3 -->
<g id="node3" class="node">
<title>Node3</title>
<g id="a_node3"><a xlink:href="namespacevmem_1_1pgdir.html#a933a8f939084dabdb1a4b5401bebf8d7" target="_top" xlink:title=" ">
<polygon fill="white" stroke="black" points="735.5,-357.23 735.5,-376.23 842.5,-376.23 842.5,-357.23 735.5,-357.23"/>
<text text-anchor="middle" x="789" y="-364.23" font-family="Helvetica,sans-Serif" font-size="10.00">vmem::pgdir::findPte</text>
</a>
</g>
</g>
<!-- Node2&#45;&gt;Node3 -->
<g id="edge2" class="edge">
<title>Node2&#45;&gt;Node3</title>
<path fill="none" stroke="midnightblue" d="M196.41,-148.29C213.12,-156.51 238.3,-168.33 261,-176.73 317.85,-197.79 334.54,-195.41 392,-214.73 528.77,-260.73 688.16,-325.36 755.42,-353.16"/>
<polygon fill="midnightblue" stroke="midnightblue" points="754.46,-356.55 765.04,-357.14 757.14,-350.08 754.46,-356.55"/>
</g>
<!-- Node12 -->
<g id="node12" class="node">
<title>Node12</title>
<g id="a_node12"><a xlink:href="namespacevmem_1_1utils.html#aadd87370580c649ff15be061f87ad117" target="_top" xlink:title=" ">
<polygon fill="white" stroke="black" points="275.5,-72.23 275.5,-91.23 377.5,-91.23 377.5,-72.23 275.5,-72.23"/>
<text text-anchor="middle" x="326.5" y="-79.23" font-family="Helvetica,sans-Serif" font-size="10.00">vmem::utils::flagStr</text>
</a>
</g>
</g>
<!-- Node2&#45;&gt;Node12 -->
<g id="edge15" class="edge">
<title>Node2&#45;&gt;Node12</title>
<path fill="none" stroke="midnightblue" d="M196.41,-129.2C213.13,-121 238.32,-109.19 261,-100.73 267.03,-98.49 273.45,-96.33 279.82,-94.32"/>
<polygon fill="midnightblue" stroke="midnightblue" points="281.17,-97.57 289.72,-91.3 279.13,-90.87 281.17,-97.57"/>
</g>
<!-- Node13 -->
<g id="node13" class="node">
<title>Node13</title>
<g id="a_node13"><a xlink:href="structvmem_1_1_page_info.html#a1e3111217d6a051c9d8b83200710a0b3" target="_top" xlink:title=" ">
<polygon fill="white" stroke="black" points="261,-224.23 261,-243.23 392,-243.23 392,-224.23 261,-224.23"/>
<text text-anchor="middle" x="326.5" y="-231.23" font-family="Helvetica,sans-Serif" font-size="10.00">vmem::PageInfo::fromPhy</text>
</a>
</g>
</g>
<!-- Node2&#45;&gt;Node13 -->
<g id="edge16" class="edge">
<title>Node2&#45;&gt;Node13</title>
<path fill="none" stroke="midnightblue" d="M186.91,-148.71C201.53,-163.72 231.13,-192.21 261,-209.73 267.96,-213.81 275.73,-217.41 283.4,-220.5"/>
<polygon fill="midnightblue" stroke="midnightblue" points="282.41,-223.86 293,-224.13 284.89,-217.32 282.41,-223.86"/>
</g>
<!-- Node14 -->
<g id="node14" class="node">
<title>Node14</title>
<g id="a_node14"><a xlink:href="namespaceconsole_1_1out.html#ac6f663e3971b66b8e130ee94755a150e" target="_top" xlink:title=" ">
<polygon fill="white" stroke="black" points="279,-110.23 279,-129.23 374,-129.23 374,-110.23 279,-110.23"/>
<text text-anchor="middle" x="326.5" y="-117.23" font-family="Helvetica,sans-Serif" font-size="10.00">console::out::print</text>
</a>
</g>
</g>
<!-- Node2&#45;&gt;Node14 -->
<g id="edge17" class="edge">
<title>Node2&#45;&gt;Node14</title>
<path fill="none" stroke="midnightblue" d="M225.14,-132.62C239.01,-130.84 254.31,-128.87 268.68,-127.03"/>
<polygon fill="midnightblue" stroke="midnightblue" points="269.48,-130.45 278.96,-125.71 268.59,-123.51 269.48,-130.45"/>
</g>
<!-- Node29 -->
<g id="node29" class="node">
<title>Node29</title>
<g id="a_node29"><a xlink:href="namespaceconsole_1_1err.html#a124c7e8527c0e3fd2b9636411aea7e82" target="_top" xlink:title=" ">
<polygon fill="white" stroke="black" points="280.5,-148.23 280.5,-167.23 372.5,-167.23 372.5,-148.23 280.5,-148.23"/>
<text text-anchor="middle" x="326.5" y="-155.23" font-family="Helvetica,sans-Serif" font-size="10.00">console::err::print</text>
</a>
</g>
</g>
<!-- Node2&#45;&gt;Node29 -->
<g id="edge37" class="edge">
<title>Node2&#45;&gt;Node29</title>
<path fill="none" stroke="midnightblue" d="M225.14,-144.85C239.56,-146.7 255.51,-148.75 270.38,-150.66"/>
<polygon fill="midnightblue" stroke="midnightblue" points="270.1,-154.15 280.46,-151.95 270.99,-147.21 270.1,-154.15"/>
</g>
<!-- Node4 -->
<g id="node4" class="node">
<title>Node4</title>
<g id="a_node4"><a xlink:href="structvmem_1_1_page_info.html#afcdcb7e941219a8ec999353658e3c2aa" target="_top" xlink:title=" ">
<polygon fill="white" stroke="black" points="898.5,-338.23 898.5,-357.23 1013.5,-357.23 1013.5,-338.23 898.5,-338.23"/>
<text text-anchor="middle" x="956" y="-345.23" font-family="Helvetica,sans-Serif" font-size="10.00">vmem::PageInfo::alloc</text>
</a>
</g>
</g>
<!-- Node3&#45;&gt;Node4 -->
<g id="edge3" class="edge">
<title>Node3&#45;&gt;Node4</title>
<path fill="none" stroke="midnightblue" d="M842.66,-360.67C857.07,-359.01 872.88,-357.19 887.97,-355.45"/>
<polygon fill="midnightblue" stroke="midnightblue" points="888.74,-358.89 898.28,-354.27 887.94,-351.93 888.74,-358.89"/>
</g>
<!-- Node5 -->
<g id="node5" class="node">
<title>Node5</title>
<g id="a_node5"><a xlink:href="namespacemem.html#a981dd0cb1408b798a79443c6245e9c55" target="_top" xlink:title=" ">
<polygon fill="white" stroke="black" points="1092.5,-319.23 1092.5,-338.23 1157.5,-338.23 1157.5,-319.23 1092.5,-319.23"/>
<text text-anchor="middle" x="1125" y="-326.23" font-family="Helvetica,sans-Serif" font-size="10.00">mem::clear</text>
</a>
</g>
</g>
<!-- Node3&#45;&gt;Node5 -->
<g id="edge10" class="edge">
<title>Node3&#45;&gt;Node5</title>
<path fill="none" stroke="midnightblue" d="M808.54,-357.15C827.81,-347.77 859.12,-334.14 888,-328.73 955.02,-316.2 1034.63,-319.96 1082.15,-324.13"/>
<polygon fill="midnightblue" stroke="midnightblue" points="1082.08,-327.64 1092.36,-325.07 1082.72,-320.67 1082.08,-327.64"/>
</g>
<!-- Node8 -->
<g id="node8" class="node">
<title>Node8</title>
<g id="a_node8"><a xlink:href="structvmem_1_1_page_info.html#afc863f1d364462ddd2c20bf31f588337" target="_top" xlink:title=" ">
<polygon fill="white" stroke="black" points="1060,-376.23 1060,-395.23 1190,-395.23 1190,-376.23 1060,-376.23"/>
<text text-anchor="middle" x="1125" y="-383.23" font-family="Helvetica,sans-Serif" font-size="10.00">vmem::PageInfo::toKernV</text>
</a>
</g>
</g>
<!-- Node3&#45;&gt;Node8 -->
<g id="edge13" class="edge">
<title>Node3&#45;&gt;Node8</title>
<path fill="none" stroke="midnightblue" d="M842.55,-369.72C898.24,-372.89 986.64,-377.92 1049.5,-381.5"/>
<polygon fill="midnightblue" stroke="midnightblue" points="1049.57,-385.01 1059.75,-382.08 1049.96,-378.02 1049.57,-385.01"/>
</g>
<!-- Node9 -->
<g id="node9" class="node">
<title>Node9</title>
<g id="a_node9"><a xlink:href="structvmem_1_1_page_info.html#accf2071c7875c29c9aa78a01ef5963a1" target="_top" xlink:title=" ">
<polygon fill="white" stroke="black" points="1236,-395.23 1236,-414.23 1356,-414.23 1356,-395.23 1236,-395.23"/>
<text text-anchor="middle" x="1296" y="-402.23" font-family="Helvetica,sans-Serif" font-size="10.00">vmem::PageInfo::toPhy</text>
</a>
</g>
</g>
<!-- Node3&#45;&gt;Node9 -->
<g id="edge14" class="edge">
<title>Node3&#45;&gt;Node9</title>
<path fill="none" stroke="midnightblue" d="M825.14,-376.27C843.7,-380.98 866.95,-386.36 888,-389.73 1005.51,-408.55 1144.42,-409.11 1225.8,-407.28"/>
<polygon fill="midnightblue" stroke="midnightblue" points="1226.01,-410.78 1235.92,-407.04 1225.84,-403.78 1226.01,-410.78"/>
</g>
<!-- Node10 -->
<g id="node10" class="node">
<title>Node10</title>
<g id="a_node10"><a xlink:href="namespacevmem_1_1pgdir.html#a972bb045d4c58b0ea9c569e05831bbb6" target="_top" xlink:title=" ">
<polygon fill="white" stroke="black" points="888,-452.23 888,-471.23 1024,-471.23 1024,-452.23 888,-452.23"/>
<text text-anchor="middle" x="956" y="-459.23" font-family="Helvetica,sans-Serif" font-size="10.00">vmem::pgdir::invalidateTLB</text>
</a>
</g>
</g>
<!-- Node3&#45;&gt;Node10 -->
<g id="edge11" class="edge">
<title>Node3&#45;&gt;Node10</title>
<path fill="none" stroke="midnightblue" d="M801.07,-376.38C818.53,-391.22 853.99,-419.79 888,-437.73 895.86,-441.88 904.59,-445.59 913.09,-448.79"/>
<polygon fill="midnightblue" stroke="midnightblue" points="911.92,-452.09 922.52,-452.17 914.29,-445.5 911.92,-452.09"/>
</g>
<!-- Node4&#45;&gt;Node5 -->
<g id="edge4" class="edge">
<title>Node4&#45;&gt;Node5</title>
<path fill="none" stroke="midnightblue" d="M1013.54,-341.3C1036.04,-338.74 1061.47,-335.85 1082.26,-333.48"/>
<polygon fill="midnightblue" stroke="midnightblue" points="1082.82,-336.94 1092.36,-332.33 1082.02,-329.99 1082.82,-336.94"/>
</g>
<!-- Node4&#45;&gt;Node8 -->
<g id="edge8" class="edge">
<title>Node4&#45;&gt;Node8</title>
<path fill="none" stroke="midnightblue" d="M999.14,-357.32C1021.38,-362.38 1048.85,-368.63 1072.36,-373.98"/>
<polygon fill="midnightblue" stroke="midnightblue" points="1071.63,-377.41 1082.16,-376.21 1073.19,-370.58 1071.63,-377.41"/>
</g>
<!-- Node6 -->
<g id="node6" class="node">
<title>Node6</title>
<g id="a_node6"><a xlink:href="namespacestr.html#a062221f630647cf300f0dd982c4ed904" target="_top" xlink:title=" ">
<polygon fill="white" stroke="black" points="1402,-281.23 1402,-300.23 1460,-300.23 1460,-281.23 1402,-281.23"/>
<text text-anchor="middle" x="1431" y="-288.23" font-family="Helvetica,sans-Serif" font-size="10.00">str::count</text>
</a>
</g>
</g>
<!-- Node5&#45;&gt;Node6 -->
<g id="edge5" class="edge">
<title>Node5&#45;&gt;Node6</title>
<path fill="none" stroke="midnightblue" d="M1157.67,-324.77C1213.91,-317.75 1330.97,-303.11 1391.66,-295.53"/>
<polygon fill="midnightblue" stroke="midnightblue" points="1392.47,-298.95 1401.96,-294.24 1391.6,-292.01 1392.47,-298.95"/>
</g>
<!-- Node7 -->
<g id="node7" class="node">
<title>Node7</title>
<g id="a_node7"><a xlink:href="namespacemem.html#adbaba9127c03fb914f752bfe19d6d089" target="_top" xlink:title=" ">
<polygon fill="white" stroke="black" points="1267,-338.23 1267,-357.23 1325,-357.23 1325,-338.23 1267,-338.23"/>
<text text-anchor="middle" x="1296" y="-345.23" font-family="Helvetica,sans-Serif" font-size="10.00">mem::set</text>
</a>
</g>
</g>
<!-- Node5&#45;&gt;Node7 -->
<g id="edge6" class="edge">
<title>Node5&#45;&gt;Node7</title>
<path fill="none" stroke="midnightblue" d="M1157.79,-332.31C1185.93,-335.47 1227.05,-340.09 1256.94,-343.45"/>
<polygon fill="midnightblue" stroke="midnightblue" points="1256.67,-346.95 1267,-344.59 1257.45,-339.99 1256.67,-346.95"/>
</g>
<!-- Node7&#45;&gt;Node6 -->
<g id="edge7" class="edge">
<title>Node7&#45;&gt;Node6</title>
<path fill="none" stroke="midnightblue" d="M1325.21,-338.93C1337.84,-334.72 1352.83,-329.39 1366,-323.73 1378.74,-318.26 1392.46,-311.34 1403.92,-305.24"/>
<polygon fill="midnightblue" stroke="midnightblue" points="1405.8,-308.21 1412.93,-300.37 1402.47,-302.05 1405.8,-308.21"/>
</g>
<!-- Node8&#45;&gt;Node9 -->
<g id="edge9" class="edge">
<title>Node8&#45;&gt;Node9</title>
<path fill="none" stroke="midnightblue" d="M1190.37,-392.97C1201.92,-394.27 1213.99,-395.63 1225.67,-396.94"/>
<polygon fill="midnightblue" stroke="midnightblue" points="1225.47,-400.44 1235.8,-398.08 1226.26,-393.48 1225.47,-400.44"/>
</g>
<!-- Node11 -->
<g id="node11" class="node">
<title>Node11</title>
<g id="a_node11"><a xlink:href="x86_8h.html#a2c1c4c8523ed258a75c563a8f94d1686" target="_top" xlink:title=" ">
<polygon fill="white" stroke="black" points="1104,-452.23 1104,-471.23 1146,-471.23 1146,-452.23 1104,-452.23"/>
<text text-anchor="middle" x="1125" y="-459.23" font-family="Helvetica,sans-Serif" font-size="10.00">invlpg</text>
</a>
</g>
</g>
<!-- Node10&#45;&gt;Node11 -->
<g id="edge12" class="edge">
<title>Node10&#45;&gt;Node11</title>
<path fill="none" stroke="midnightblue" d="M1024.44,-461.73C1048.58,-461.73 1074.58,-461.73 1093.95,-461.73"/>
<polygon fill="midnightblue" stroke="midnightblue" points="1093.98,-465.23 1103.98,-461.73 1093.98,-458.23 1093.98,-465.23"/>
</g>
<!-- Node15 -->
<g id="node15" class="node">
<title>Node15</title>
<g id="a_node15"><a xlink:href="namespaceconsole_1_1out.html#a8f791bfac54067cadb1b9f18117b987b" target="_top" xlink:title=" ">
<polygon fill="white" stroke="black" points="428,-110.23 428,-129.23 534,-129.23 534,-110.23 428,-110.23"/>
<text text-anchor="middle" x="481" y="-117.23" font-family="Helvetica,sans-Serif" font-size="10.00">console::out::printVa</text>
</a>
</g>
</g>
<!-- Node14&#45;&gt;Node15 -->
<g id="edge18" class="edge">
<title>Node14&#45;&gt;Node15</title>
<path fill="none" stroke="midnightblue" d="M374.08,-119.73C387.76,-119.73 402.94,-119.73 417.44,-119.73"/>
<polygon fill="midnightblue" stroke="midnightblue" points="417.84,-123.23 427.84,-119.73 417.84,-116.23 417.84,-123.23"/>
</g>
<!-- Node16 -->
<g id="node16" class="node">
<title>Node16</title>
<g id="a_node16"><a xlink:href="namespaceconsole_1_1ge.html#af642934cb833142f133285fdb75ef7b7" target="_top" xlink:title=" ">
<polygon fill="white" stroke="black" points="570,-148.23 570,-167.23 690,-167.23 690,-148.23 570,-148.23"/>
<text text-anchor="middle" x="630" y="-155.23" font-family="Helvetica,sans-Serif" font-size="10.00">console::ge::printFmtVa</text>
</a>
</g>
</g>
<!-- Node15&#45;&gt;Node16 -->
<g id="edge19" class="edge">
<title>Node15&#45;&gt;Node16</title>
<path fill="none" stroke="midnightblue" d="M519.09,-129.32C538.32,-134.29 561.99,-140.41 582.43,-145.7"/>
<polygon fill="midnightblue" stroke="midnightblue" points="581.61,-149.1 592.17,-148.21 583.37,-142.32 581.61,-149.1"/>
</g>
<!-- Node22 -->
<g id="node22" class="node">
<title>Node22</title>
<g id="a_node22"><a xlink:href="namespaceconsole_1_1out.html#ad9fc97dff4404c2d21aedbb24691e7cb" target="_top" xlink:title=" ">
<polygon fill="white" stroke="black" points="901,-72.23 901,-91.23 1011,-91.23 1011,-72.23 901,-72.23"/>
<text text-anchor="middle" x="956" y="-79.23" font-family="Helvetica,sans-Serif" font-size="10.00">console::out::putChar</text>
</a>
</g>
</g>
<!-- Node15&#45;&gt;Node22 -->
<g id="edge36" class="edge">
<title>Node15&#45;&gt;Node22</title>
<path fill="none" stroke="midnightblue" d="M487.73,-109.96C499.91,-90.28 530.52,-46.35 570,-29.73 685.52,18.88 730.08,-0.7 852,-29.73 881.74,-36.82 912.63,-53.94 932.73,-66.61"/>
<polygon fill="midnightblue" stroke="midnightblue" points="930.86,-69.57 941.16,-72.07 934.67,-63.69 930.86,-69.57"/>
</g>
<!-- Node16&#45;&gt;Node6 -->
<g id="edge22" class="edge">
<title>Node16&#45;&gt;Node6</title>
<path fill="none" stroke="midnightblue" d="M637.17,-167.47C650.53,-187.57 684.31,-233.41 726,-252.73 818.66,-295.69 852.87,-271.73 955,-271.73 955,-271.73 955,-271.73 1126,-271.73 1221.83,-271.73 1334.32,-281.26 1391.87,-286.82"/>
<polygon fill="midnightblue" stroke="midnightblue" points="1391.66,-290.31 1401.96,-287.81 1392.35,-283.35 1391.66,-290.31"/>
</g>
<!-- Node17 -->
<g id="node17" class="node">
<title>Node17</title>
<g id="a_node17"><a xlink:href="printfmt_8cc.html#a708ec6ee2b8bd2d7a453d8d9436ed3b3" target="_top" xlink:title=" ">
<polygon fill="white" stroke="black" points="760,-186.23 760,-205.23 818,-205.23 818,-186.23 760,-186.23"/>
<text text-anchor="middle" x="789" y="-193.23" font-family="Helvetica,sans-Serif" font-size="10.00">_getIntVa</text>
</a>
</g>
</g>
<!-- Node16&#45;&gt;Node17 -->
<g id="edge20" class="edge">
<title>Node16&#45;&gt;Node17</title>
<path fill="none" stroke="midnightblue" d="M670.62,-167.32C694.94,-173.21 725.92,-180.71 749.95,-186.53"/>
<polygon fill="midnightblue" stroke="midnightblue" points="749.24,-189.95 759.78,-188.9 750.89,-183.15 749.24,-189.95"/>
</g>
<!-- Node18 -->
<g id="node18" class="node">
<title>Node18</title>
<g id="a_node18"><a xlink:href="printfmt_8cc.html#af4b46892c76c8bfd27efdb20847eb7c8" target="_top" xlink:title=" ">
<polygon fill="white" stroke="black" points="756.5,-148.23 756.5,-167.23 821.5,-167.23 821.5,-148.23 756.5,-148.23"/>
<text text-anchor="middle" x="789" y="-155.23" font-family="Helvetica,sans-Serif" font-size="10.00">_getUIntVa</text>
</a>
</g>
</g>
<!-- Node16&#45;&gt;Node18 -->
<g id="edge21" class="edge">
<title>Node16&#45;&gt;Node18</title>
<path fill="none" stroke="midnightblue" d="M690.35,-157.73C708.91,-157.73 728.98,-157.73 746.07,-157.73"/>
<polygon fill="midnightblue" stroke="midnightblue" points="746.29,-161.23 756.29,-157.73 746.29,-154.23 746.29,-161.23"/>
</g>
<!-- Node19 -->
<g id="node19" class="node">
<title>Node19</title>
<g id="a_node19"><a xlink:href="printfmt_8cc.html#a0e3e484ece5e75b9f5fbe337f0ae8ae3" target="_top" xlink:title=" ">
<polygon fill="white" stroke="black" points="762.5,-224.23 762.5,-243.23 815.5,-243.23 815.5,-224.23 762.5,-224.23"/>
<text text-anchor="middle" x="789" y="-231.23" font-family="Helvetica,sans-Serif" font-size="10.00">describe</text>
</a>
</g>
</g>
<!-- Node16&#45;&gt;Node19 -->
<g id="edge23" class="edge">
<title>Node16&#45;&gt;Node19</title>
<path fill="none" stroke="midnightblue" d="M660.22,-167.25C670.05,-171.06 680.84,-175.94 690,-181.73 708.34,-193.34 707.16,-203.96 726,-214.73 734.09,-219.36 743.44,-222.99 752.38,-225.77"/>
<polygon fill="midnightblue" stroke="midnightblue" points="751.64,-229.2 762.22,-228.56 753.55,-222.46 751.64,-229.2"/>
</g>
<!-- Node21 -->
<g id="node21" class="node">
<title>Node21</title>
<g id="a_node21"><a xlink:href="namespaceconsole_1_1ge.html#a7e301813fd34fde772376afc5fdad95d" target="_top" xlink:title=" ">
<polygon fill="white" stroke="black" points="726,-110.23 726,-129.23 852,-129.23 852,-110.23 726,-110.23"/>
<text text-anchor="middle" x="789" y="-117.23" font-family="Helvetica,sans-Serif" font-size="10.00">console::ge::printNumber</text>
</a>
</g>
</g>
<!-- Node16&#45;&gt;Node21 -->
<g id="edge25" class="edge">
<title>Node16&#45;&gt;Node21</title>
<path fill="none" stroke="midnightblue" d="M670.62,-148.14C691.34,-143.13 716.89,-136.95 738.86,-131.63"/>
<polygon fill="midnightblue" stroke="midnightblue" points="739.77,-135.01 748.67,-129.25 738.12,-128.2 739.77,-135.01"/>
</g>
<!-- Node16&#45;&gt;Node22 -->
<g id="edge35" class="edge">
<title>Node16&#45;&gt;Node22</title>
<path fill="none" stroke="midnightblue" d="M642.72,-148.23C659.84,-134.95 693.23,-111.29 726,-100.73 779.77,-83.41 844.13,-79.44 890.9,-79.35"/>
<polygon fill="midnightblue" stroke="midnightblue" points="890.89,-82.85 900.9,-79.39 890.92,-75.85 890.89,-82.85"/>
</g>
<!-- Node20 -->
<g id="node20" class="node">
<title>Node20</title>
<g id="a_node20"><a xlink:href="namespacemonitor.html#a318993193c866642f8389a1c1f285739" target="_top" xlink:title=" ">
<polygon fill="white" stroke="black" points="919,-224.23 919,-243.23 993,-243.23 993,-224.23 919,-224.23"/>
<text text-anchor="middle" x="956" y="-231.23" font-family="Helvetica,sans-Serif" font-size="10.00">monitor::fuck</text>
</a>
</g>
</g>
<!-- Node19&#45;&gt;Node20 -->
<g id="edge24" class="edge">
<title>Node19&#45;&gt;Node20</title>
<path fill="none" stroke="midnightblue" d="M815.78,-233.73C840.59,-233.73 878.66,-233.73 908.73,-233.73"/>
<polygon fill="midnightblue" stroke="midnightblue" points="908.99,-237.23 918.99,-233.73 908.99,-230.23 908.99,-237.23"/>
</g>
<!-- Node21&#45;&gt;Node22 -->
<g id="edge26" class="edge">
<title>Node21&#45;&gt;Node22</title>
<path fill="none" stroke="midnightblue" d="M831.64,-110.14C853.51,-105.11 880.51,-98.89 903.66,-93.56"/>
<polygon fill="midnightblue" stroke="midnightblue" points="904.7,-96.91 913.66,-91.25 903.13,-90.09 904.7,-96.91"/>
</g>
<!-- Node23 -->
<g id="node23" class="node">
<title>Node23</title>
<g id="a_node23"><a xlink:href="namespaceconsole_1_1serial.html#a3a7c1f95ae3c24136ea63bb31fdf0391" target="_top" xlink:title=" ">
<polygon fill="white" stroke="black" points="1065,-72.23 1065,-91.23 1185,-91.23 1185,-72.23 1065,-72.23"/>
<text text-anchor="middle" x="1125" y="-79.23" font-family="Helvetica,sans-Serif" font-size="10.00">console::serial::putChar</text>
</a>
</g>
</g>
<!-- Node22&#45;&gt;Node23 -->
<g id="edge27" class="edge">
<title>Node22&#45;&gt;Node23</title>
<path fill="none" stroke="midnightblue" d="M1011.22,-81.73C1025.02,-81.73 1040.03,-81.73 1054.47,-81.73"/>
<polygon fill="midnightblue" stroke="midnightblue" points="1054.86,-85.23 1064.86,-81.73 1054.86,-78.23 1054.86,-85.23"/>
</g>
<!-- Node26 -->
<g id="node26" class="node">
<title>Node26</title>
<g id="a_node26"><a xlink:href="namespaceconsole_1_1cga.html#afa19057ca041b39682d5d4831c43dfa0" target="_top" xlink:title=" ">
<polygon fill="white" stroke="black" points="1068.5,-110.23 1068.5,-129.23 1181.5,-129.23 1181.5,-110.23 1068.5,-110.23"/>
<text text-anchor="middle" x="1125" y="-117.23" font-family="Helvetica,sans-Serif" font-size="10.00">console::cga::putChar</text>
</a>
</g>
</g>
<!-- Node22&#45;&gt;Node26 -->
<g id="edge30" class="edge">
<title>Node22&#45;&gt;Node26</title>
<path fill="none" stroke="midnightblue" d="M999.14,-91.32C1021.38,-96.38 1048.85,-102.63 1072.36,-107.98"/>
<polygon fill="midnightblue" stroke="midnightblue" points="1071.63,-111.41 1082.16,-110.21 1073.19,-104.58 1071.63,-111.41"/>
</g>
<!-- Node24 -->
<g id="node24" class="node">
<title>Node24</title>
<g id="a_node24"><a xlink:href="namespaceconsole_1_1serial.html#aa5605d4537106bb1c2bab72d7d1a5824" target="_top" xlink:title=" ">
<polygon fill="white" stroke="black" points="1244,-72.23 1244,-91.23 1348,-91.23 1348,-72.23 1244,-72.23"/>
<text text-anchor="middle" x="1296" y="-79.23" font-family="Helvetica,sans-Serif" font-size="10.00">console::serial::sout</text>
</a>
</g>
</g>
<!-- Node23&#45;&gt;Node24 -->
<g id="edge28" class="edge">
<title>Node23&#45;&gt;Node24</title>
<path fill="none" stroke="midnightblue" d="M1185.11,-81.73C1200.8,-81.73 1217.79,-81.73 1233.6,-81.73"/>
<polygon fill="midnightblue" stroke="midnightblue" points="1233.8,-85.23 1243.8,-81.73 1233.8,-78.23 1233.8,-85.23"/>
</g>
<!-- Node25 -->
<g id="node25" class="node">
<title>Node25</title>
<g id="a_node25"><a xlink:href="x86_8h.html#ade961b44e45ddacbc3c3b7609cf36dc6" target="_top" xlink:title=" ">
<polygon fill="white" stroke="black" points="1413.5,-91.23 1413.5,-110.23 1448.5,-110.23 1448.5,-91.23 1413.5,-91.23"/>
<text text-anchor="middle" x="1431" y="-98.23" font-family="Helvetica,sans-Serif" font-size="10.00">outb</text>
</a>
</g>
</g>
<!-- Node24&#45;&gt;Node25 -->
<g id="edge29" class="edge">
<title>Node24&#45;&gt;Node25</title>
<path fill="none" stroke="midnightblue" d="M1348.04,-89.03C1366.85,-91.71 1387.4,-94.65 1403.22,-96.91"/>
<polygon fill="midnightblue" stroke="midnightblue" points="1402.95,-100.4 1413.34,-98.35 1403.94,-93.47 1402.95,-100.4"/>
</g>
<!-- Node27 -->
<g id="node27" class="node">
<title>Node27</title>
<g id="a_node27"><a xlink:href="namespacemem.html#a64d9d05b439041901498c606de606431" target="_top" xlink:title=" ">
<polygon fill="white" stroke="black" points="1263.5,-186.23 1263.5,-205.23 1328.5,-205.23 1328.5,-186.23 1263.5,-186.23"/>
<text text-anchor="middle" x="1296" y="-193.23" font-family="Helvetica,sans-Serif" font-size="10.00">mem::copy</text>
</a>
</g>
</g>
<!-- Node26&#45;&gt;Node27 -->
<g id="edge31" class="edge">
<title>Node26&#45;&gt;Node27</title>
<path fill="none" stroke="midnightblue" d="M1147.4,-129.36C1176.99,-142.66 1230.56,-166.75 1264.37,-181.96"/>
<polygon fill="midnightblue" stroke="midnightblue" points="1263.21,-185.28 1273.77,-186.19 1266.09,-178.89 1263.21,-185.28"/>
</g>
<!-- Node28 -->
<g id="node28" class="node">
<title>Node28</title>
<g id="a_node28"><a xlink:href="namespaceconsole_1_1cga.html#a06463d4dc68819e30615ba299d02a78f" target="_top" xlink:title=" ">
<polygon fill="white" stroke="black" points="1226,-110.23 1226,-129.23 1366,-129.23 1366,-110.23 1226,-110.23"/>
<text text-anchor="middle" x="1296" y="-117.23" font-family="Helvetica,sans-Serif" font-size="10.00">console::cga::cursorRefresh</text>
</a>
</g>
</g>
<!-- Node26&#45;&gt;Node28 -->
<g id="edge33" class="edge">
<title>Node26&#45;&gt;Node28</title>
<path fill="none" stroke="midnightblue" d="M1181.81,-119.73C1192.74,-119.73 1204.39,-119.73 1215.92,-119.73"/>
<polygon fill="midnightblue" stroke="midnightblue" points="1215.99,-123.23 1225.99,-119.73 1215.99,-116.23 1215.99,-123.23"/>
</g>
<!-- Node27&#45;&gt;Node6 -->
<g id="edge32" class="edge">
<title>Node27&#45;&gt;Node6</title>
<path fill="none" stroke="midnightblue" d="M1310.73,-205.54C1333.85,-222.05 1380.71,-255.53 1408.31,-275.24"/>
<polygon fill="midnightblue" stroke="midnightblue" points="1406.37,-278.16 1416.54,-281.12 1410.44,-272.46 1406.37,-278.16"/>
</g>
<!-- Node28&#45;&gt;Node25 -->
<g id="edge34" class="edge">
<title>Node28&#45;&gt;Node25</title>
<path fill="none" stroke="midnightblue" d="M1363.89,-110.18C1377.81,-108.19 1391.71,-106.2 1403.15,-104.57"/>
<polygon fill="midnightblue" stroke="midnightblue" points="1403.87,-108 1413.28,-103.12 1402.88,-101.07 1403.87,-108"/>
</g>
<!-- Node30 -->
<g id="node30" class="node">
<title>Node30</title>
<g id="a_node30"><a xlink:href="namespaceconsole_1_1err.html#a4cd18e4c409b5b17ecec61ce83b05fba" target="_top" xlink:title=" ">
<polygon fill="white" stroke="black" points="429,-148.23 429,-167.23 533,-167.23 533,-148.23 429,-148.23"/>
<text text-anchor="middle" x="481" y="-155.23" font-family="Helvetica,sans-Serif" font-size="10.00">console::err::printVa</text>
</a>
</g>
</g>
<!-- Node29&#45;&gt;Node30 -->
<g id="edge38" class="edge">
<title>Node29&#45;&gt;Node30</title>
<path fill="none" stroke="midnightblue" d="M372.84,-157.73C387.18,-157.73 403.27,-157.73 418.55,-157.73"/>
<polygon fill="midnightblue" stroke="midnightblue" points="418.95,-161.23 428.95,-157.73 418.95,-154.23 418.95,-161.23"/>
</g>
<!-- Node30&#45;&gt;Node16 -->
<g id="edge39" class="edge">
<title>Node30&#45;&gt;Node16</title>
<path fill="none" stroke="midnightblue" d="M533,-157.73C541.62,-157.73 550.69,-157.73 559.68,-157.73"/>
<polygon fill="midnightblue" stroke="midnightblue" points="559.76,-161.23 569.76,-157.73 559.76,-154.23 559.76,-161.23"/>
</g>
<!-- Node30&#45;&gt;Node22 -->
<g id="edge40" class="edge">
<title>Node30&#45;&gt;Node22</title>
<path fill="none" stroke="midnightblue" d="M509.2,-148.16C568.12,-127.49 704.02,-80.29 726,-76.73 781.28,-67.8 796.02,-75.38 852,-76.73 864.5,-77.04 877.84,-77.55 890.64,-78.13"/>
<polygon fill="midnightblue" stroke="midnightblue" points="890.61,-81.63 900.76,-78.61 890.94,-74.64 890.61,-81.63"/>
</g>
<!-- Node32 -->
<g id="node32" class="node">
<title>Node32</title>
<g id="a_node32"><a xlink:href="ctype_8h.html#afa0dfddc51a97feb51f3ecfbe30125b1" target="_top" xlink:title=" ">
<polygon fill="white" stroke="black" points="288,-34.23 288,-53.23 365,-53.23 365,-34.23 288,-34.23"/>
<text text-anchor="middle" x="326.5" y="-41.23" font-family="Helvetica,sans-Serif" font-size="10.00">isWhiteSpace</text>
</a>
</g>
</g>
<!-- Node31&#45;&gt;Node32 -->
<g id="edge42" class="edge">
<title>Node31&#45;&gt;Node32</title>
<path fill="none" stroke="midnightblue" d="M208.17,-73.86C228.45,-68.65 255.44,-61.72 278.42,-55.82"/>
<polygon fill="midnightblue" stroke="midnightblue" points="279.5,-59.16 288.32,-53.28 277.76,-52.38 279.5,-59.16"/>
</g>
</g>
</svg>
