<?xml version="1.0" encoding="UTF-8" standalone="no"?>
<!DOCTYPE svg PUBLIC "-//W3C//DTD SVG 1.1//EN"
 "http://www.w3.org/Graphics/SVG/1.1/DTD/svg11.dtd">
<!-- Generated by graphviz version 2.44.1 (20200629.0846)
 -->
<!-- Title: vmem::page::init Pages: 1 -->
<svg width="452pt" height="104pt"
 viewBox="0.00 0.00 452.00 104.00" xmlns="http://www.w3.org/2000/svg" xmlns:xlink="http://www.w3.org/1999/xlink">
<g id="graph0" class="graph" transform="scale(1 1) rotate(0) translate(4 100)">
<title>vmem::page::init</title>
<polygon fill="white" stroke="transparent" points="-4,4 -4,-100 448,-100 448,4 -4,4"/>
<!-- Node1 -->
<g id="node1" class="node">
<title>Node1</title>
<g id="a_node1"><a xlink:title=" ">
<polygon fill="#bfbfbf" stroke="black" points="0,-38.5 0,-57.5 89,-57.5 89,-38.5 0,-38.5"/>
<text text-anchor="middle" x="44.5" y="-45.5" font-family="Helvetica,sans-Serif" font-size="10.00">vmem::page::init</text>
</a>
</g>
</g>
<!-- Node2 -->
<g id="node2" class="node">
<title>Node2</title>
<g id="a_node2"><a xlink:href="namespacevmem.html#aba25132214a42a641dafb1b21a1ce2db" target="_top" xlink:title=" ">
<polygon fill="white" stroke="black" points="145.5,-76.5 145.5,-95.5 235.5,-95.5 235.5,-76.5 145.5,-76.5"/>
<text text-anchor="middle" x="190.5" y="-83.5" font-family="Helvetica,sans-Serif" font-size="10.00">vmem::bootAlloc</text>
</a>
</g>
</g>
<!-- Node1&#45;&gt;Node2 -->
<g id="edge1" class="edge">
<title>Node1&#45;&gt;Node2</title>
<path fill="none" stroke="midnightblue" d="M81.84,-57.59C100.58,-62.54 123.64,-68.62 143.61,-73.89"/>
<polygon fill="midnightblue" stroke="midnightblue" points="142.86,-77.31 153.42,-76.48 144.65,-70.54 142.86,-77.31"/>
</g>
<!-- Node3 -->
<g id="node3" class="node">
<title>Node3</title>
<g id="a_node3"><a xlink:href="namespacemem.html#a981dd0cb1408b798a79443c6245e9c55" target="_top" xlink:title=" ">
<polygon fill="white" stroke="black" points="158,-38.5 158,-57.5 223,-57.5 223,-38.5 158,-38.5"/>
<text text-anchor="middle" x="190.5" y="-45.5" font-family="Helvetica,sans-Serif" font-size="10.00">mem::clear</text>
</a>
</g>
</g>
<!-- Node1&#45;&gt;Node3 -->
<g id="edge2" class="edge">
<title>Node1&#45;&gt;Node3</title>
<path fill="none" stroke="midnightblue" d="M89.1,-48C107.73,-48 129.38,-48 147.8,-48"/>
<polygon fill="midnightblue" stroke="midnightblue" points="147.94,-51.5 157.94,-48 147.94,-44.5 147.94,-51.5"/>
</g>
<!-- Node6 -->
<g id="node6" class="node">
<title>Node6</title>
<g id="a_node6"><a xlink:href="structvmem_1_1_page_info.html#a1e3111217d6a051c9d8b83200710a0b3" target="_top" xlink:title=" ">
<polygon fill="white" stroke="black" points="125,-0.5 125,-19.5 256,-19.5 256,-0.5 125,-0.5"/>
<text text-anchor="middle" x="190.5" y="-7.5" font-family="Helvetica,sans-Serif" font-size="10.00">vmem::PageInfo::fromPhy</text>
</a>
</g>
</g>
<!-- Node1&#45;&gt;Node6 -->
<g id="edge6" class="edge">
<title>Node1&#45;&gt;Node6</title>
<path fill="none" stroke="midnightblue" d="M81.84,-38.41C100.58,-33.46 123.64,-27.38 143.61,-22.11"/>
<polygon fill="midnightblue" stroke="midnightblue" points="144.65,-25.46 153.42,-19.52 142.86,-18.69 144.65,-25.46"/>
</g>
<!-- Node4 -->
<g id="node4" class="node">
<title>Node4</title>
<g id="a_node4"><a xlink:href="namespacestr.html#a062221f630647cf300f0dd982c4ed904" target="_top" xlink:title=" ">
<polygon fill="white" stroke="black" points="386,-38.5 386,-57.5 444,-57.5 444,-38.5 386,-38.5"/>
<text text-anchor="middle" x="415" y="-45.5" font-family="Helvetica,sans-Serif" font-size="10.00">str::count</text>
</a>
</g>
</g>
<!-- Node3&#45;&gt;Node4 -->
<g id="edge3" class="edge">
<title>Node3&#45;&gt;Node4</title>
<path fill="none" stroke="midnightblue" d="M223.38,-48C263.56,-48 332.58,-48 375.62,-48"/>
<polygon fill="midnightblue" stroke="midnightblue" points="375.7,-51.5 385.7,-48 375.7,-44.5 375.7,-51.5"/>
</g>
<!-- Node5 -->
<g id="node5" class="node">
<title>Node5</title>
<g id="a_node5"><a xlink:href="namespacemem.html#adbaba9127c03fb914f752bfe19d6d089" target="_top" xlink:title=" ">
<polygon fill="white" stroke="black" points="292,-19.5 292,-38.5 350,-38.5 350,-19.5 292,-19.5"/>
<text text-anchor="middle" x="321" y="-26.5" font-family="Helvetica,sans-Serif" font-size="10.00">mem::set</text>
</a>
</g>
</g>
<!-- Node3&#45;&gt;Node5 -->
<g id="edge4" class="edge">
<title>Node3&#45;&gt;Node5</title>
<path fill="none" stroke="midnightblue" d="M223.26,-43.3C240.95,-40.69 263.09,-37.42 281.72,-34.66"/>
<polygon fill="midnightblue" stroke="midnightblue" points="282.28,-38.11 291.66,-33.19 281.26,-31.19 282.28,-38.11"/>
</g>
<!-- Node5&#45;&gt;Node4 -->
<g id="edge5" class="edge">
<title>Node5&#45;&gt;Node4</title>
<path fill="none" stroke="midnightblue" d="M350.1,-34.8C358.23,-36.48 367.24,-38.34 375.87,-40.13"/>
<polygon fill="midnightblue" stroke="midnightblue" points="375.25,-43.57 385.75,-42.17 376.67,-36.72 375.25,-43.57"/>
</g>
</g>
</svg>
