<?xml version="1.0" encoding="UTF-8" standalone="no"?>
<!DOCTYPE svg PUBLIC "-//W3C//DTD SVG 1.1//EN"
 "http://www.w3.org/Graphics/SVG/1.1/DTD/svg11.dtd">
<!-- Generated by graphviz version 2.44.1 (20200629.0846)
 -->
<!-- Title: trap::handler::debug Pages: 1 -->
<!--zoomable 334 -->
<svg id="main" version="1.1" xmlns="http://www.w3.org/2000/svg" xmlns:xlink="http://www.w3.org/1999/xlink" xml:space="preserve" onload="init(evt)">
<style type="text/css"><![CDATA[
.edge:hover path { stroke: red; }
.edge:hover polygon { stroke: red; fill: red; }
]]></style>
<script type="text/javascript"><![CDATA[
var edges = document.getElementsByTagName('g');
if (edges && edges.length) {
  for (var i=0;i<edges.length;i++) {
    if (edges[i].id.substr(0,4)=='edge') {
      edges[i].setAttribute('class','edge');
    }
  }
}
]]></script>
        <defs>
                <circle id="rim" cx="0" cy="0" r="7"/>
                <circle id="rim2" cx="0" cy="0" r="3.5"/>
                <g id="zoomPlus">
                        <use xlink:href="#rim" fill="#404040">
                                <set attributeName="fill" to="#808080" begin="zoomplus.mouseover" end="zoomplus.mouseout"/>
                        </use>
                        <path d="M-4,0h8M0,-4v8" fill="none" stroke="white" stroke-width="1.5" pointer-events="none"/>
                </g>
                <g id="zoomMin">
                        <use xlink:href="#rim" fill="#404040">
                                <set attributeName="fill" to="#808080" begin="zoomminus.mouseover" end="zoomminus.mouseout"/>
                        </use>
                        <path d="M-4,0h8" fill="none" stroke="white" stroke-width="1.5" pointer-events="none"/>
                </g>
                <g id="dirArrow">
                        <path fill="none" stroke="white" stroke-width="1.5" d="M0,-3.0v7 M-2.5,-0.5L0,-3.0L2.5,-0.5"/>
                </g>
               <g id="resetDef">
                       <use xlink:href="#rim2" fill="#404040">
                               <set attributeName="fill" to="#808080" begin="reset.mouseover" end="reset.mouseout"/>
                       </use>
               </g>
        </defs>

<script type="text/javascript">
var viewWidth = 1546;
var viewHeight = 334;
var sectionId = 'dynsection-0';
</script>
<script xlink:href="svgpan.js"/>
<svg id="graph" class="graph">
<g id="viewport">
<title>trap::handler::debug</title>
<polygon fill="white" stroke="transparent" points="-4,4 -4,-330.05 1542,-330.05 1542,4 -4,4"/>
<!-- Node1 -->
<g id="node1" class="node">
<title>Node1</title>
<g id="a_node1"><a xlink:title=" ">
<polygon fill="#bfbfbf" stroke="black" points="0,-237.5 0,-256.5 103,-256.5 103,-237.5 0,-237.5"/>
<text text-anchor="middle" x="51.5" y="-244.5" font-family="Helvetica,sans-Serif" font-size="10.00">trap::handler::debug</text>
</a>
</g>
</g>
<!-- Node2 -->
<g id="node2" class="node">
<title>Node2</title>
<g id="a_node2"><a xlink:href="namespacemonitor.html#ac02f947e274eb7d38cdfa803c21ef579" target="_top" xlink:title=" ">
<polygon fill="white" stroke="black" points="139,-218.5 139,-237.5 215,-237.5 215,-218.5 139,-218.5"/>
<text text-anchor="middle" x="177" y="-225.5" font-family="Helvetica,sans-Serif" font-size="10.00">monitor::main</text>
</a>
</g>
</g>
<!-- Node1&#45;&gt;Node2 -->
<g id="edge1" class="edge">
<title>Node1&#45;&gt;Node2</title>
<path fill="none" stroke="midnightblue" d="M103.09,-239.22C111.61,-237.91 120.43,-236.55 128.86,-235.25"/>
<polygon fill="midnightblue" stroke="midnightblue" points="129.56,-238.69 138.91,-233.71 128.5,-231.77 129.56,-238.69"/>
</g>
<!-- Node9 -->
<g id="node9" class="node">
<title>Node9</title>
<g id="a_node9"><a xlink:href="namespaceconsole_1_1out.html#ac6f663e3971b66b8e130ee94755a150e" target="_top" xlink:title=" ">
<polygon fill="white" stroke="black" points="255.5,-256.5 255.5,-275.5 350.5,-275.5 350.5,-256.5 255.5,-256.5"/>
<text text-anchor="middle" x="303" y="-263.5" font-family="Helvetica,sans-Serif" font-size="10.00">console::out::print</text>
</a>
</g>
</g>
<!-- Node1&#45;&gt;Node9 -->
<g id="edge37" class="edge">
<title>Node1&#45;&gt;Node9</title>
<path fill="none" stroke="midnightblue" d="M103.29,-250.87C144.49,-254.01 202.53,-258.43 245.25,-261.68"/>
<polygon fill="midnightblue" stroke="midnightblue" points="245.25,-265.19 255.49,-262.46 245.79,-258.21 245.25,-265.19"/>
</g>
<!-- Node3 -->
<g id="node3" class="node">
<title>Node3</title>
<g id="a_node3"><a xlink:href="namespacemonitor.html#a8b88ed0586263051a6af8dbff388e314" target="_top" xlink:title=" ">
<polygon fill="white" stroke="black" points="253,-218.5 253,-237.5 353,-237.5 353,-218.5 253,-218.5"/>
<text text-anchor="middle" x="303" y="-225.5" font-family="Helvetica,sans-Serif" font-size="10.00">monitor::parseCmd</text>
</a>
</g>
</g>
<!-- Node2&#45;&gt;Node3 -->
<g id="edge2" class="edge">
<title>Node2&#45;&gt;Node3</title>
<path fill="none" stroke="midnightblue" d="M215.2,-228C223.9,-228 233.38,-228 242.77,-228"/>
<polygon fill="midnightblue" stroke="midnightblue" points="242.88,-231.5 252.88,-228 242.88,-224.5 242.88,-231.5"/>
</g>
<!-- Node2&#45;&gt;Node9 -->
<g id="edge8" class="edge">
<title>Node2&#45;&gt;Node9</title>
<path fill="none" stroke="midnightblue" d="M209.29,-237.59C225,-242.4 244.24,-248.3 261.11,-253.47"/>
<polygon fill="midnightblue" stroke="midnightblue" points="260.13,-256.83 270.72,-256.41 262.18,-250.14 260.13,-256.83"/>
</g>
<!-- Node24 -->
<g id="node24" class="node">
<title>Node24</title>
<g id="a_node24"><a xlink:href="namespaceconsole_1_1err.html#a124c7e8527c0e3fd2b9636411aea7e82" target="_top" xlink:title=" ">
<polygon fill="white" stroke="black" points="257,-161.5 257,-180.5 349,-180.5 349,-161.5 257,-161.5"/>
<text text-anchor="middle" x="303" y="-168.5" font-family="Helvetica,sans-Serif" font-size="10.00">console::err::print</text>
</a>
</g>
</g>
<!-- Node2&#45;&gt;Node24 -->
<g id="edge28" class="edge">
<title>Node2&#45;&gt;Node24</title>
<path fill="none" stroke="midnightblue" d="M198.75,-218.46C218.78,-209.25 249.32,-195.22 272,-184.79"/>
<polygon fill="midnightblue" stroke="midnightblue" points="273.55,-187.93 281.18,-180.57 270.63,-181.57 273.55,-187.93"/>
</g>
<!-- Node26 -->
<g id="node26" class="node">
<title>Node26</title>
<g id="a_node26"><a xlink:href="namespaceconsole_1_1in.html#afa763e7729f2e6fbdcf4c14e44ad7a29" target="_top" xlink:title=" ">
<polygon fill="white" stroke="black" points="251,-294.5 251,-313.5 355,-313.5 355,-294.5 251,-294.5"/>
<text text-anchor="middle" x="303" y="-301.5" font-family="Helvetica,sans-Serif" font-size="10.00">console::in::readline</text>
</a>
</g>
</g>
<!-- Node2&#45;&gt;Node26 -->
<g id="edge32" class="edge">
<title>Node2&#45;&gt;Node26</title>
<path fill="none" stroke="midnightblue" d="M188.15,-237.6C201.63,-249.92 226.58,-271.35 251,-285 254.52,-286.97 258.28,-288.81 262.11,-290.5"/>
<polygon fill="midnightblue" stroke="midnightblue" points="261.07,-293.86 271.65,-294.43 263.73,-287.39 261.07,-293.86"/>
</g>
<!-- Node4 -->
<g id="node4" class="node">
<title>Node4</title>
<g id="a_node4"><a xlink:href="namespacestr.html#ace5edf7e67a558a1c4ead28a66faba41" target="_top" xlink:title=" ">
<polygon fill="white" stroke="black" points="410.5,-218.5 410.5,-237.5 486.5,-237.5 486.5,-218.5 410.5,-218.5"/>
<text text-anchor="middle" x="448.5" y="-225.5" font-family="Helvetica,sans-Serif" font-size="10.00">str::cmpCase</text>
</a>
</g>
</g>
<!-- Node3&#45;&gt;Node4 -->
<g id="edge3" class="edge">
<title>Node3&#45;&gt;Node4</title>
<path fill="none" stroke="midnightblue" d="M353.38,-228C368.54,-228 385.16,-228 400.17,-228"/>
<polygon fill="midnightblue" stroke="midnightblue" points="400.27,-231.5 410.27,-228 400.27,-224.5 400.27,-231.5"/>
</g>
<!-- Node5 -->
<g id="node5" class="node">
<title>Node5</title>
<g id="a_node5"><a xlink:href="namespacestr.html#a12522233f7d73122d76de5c82e44a183" target="_top" xlink:title=" ">
<polygon fill="white" stroke="black" points="415,-180.5 415,-199.5 482,-199.5 482,-180.5 415,-180.5"/>
<text text-anchor="middle" x="448.5" y="-187.5" font-family="Helvetica,sans-Serif" font-size="10.00">str::splitWs</text>
</a>
</g>
</g>
<!-- Node3&#45;&gt;Node5 -->
<g id="edge4" class="edge">
<title>Node3&#45;&gt;Node5</title>
<path fill="none" stroke="midnightblue" d="M340.21,-218.41C359.9,-213.2 384.38,-206.72 404.97,-201.26"/>
<polygon fill="midnightblue" stroke="midnightblue" points="405.96,-204.62 414.74,-198.68 404.17,-197.85 405.96,-204.62"/>
</g>
<!-- Node6 -->
<g id="node6" class="node">
<title>Node6</title>
<g id="a_node6"><a xlink:href="namespacestr.html#a0e183e333ba05550c6b206906dbf0f10" target="_top" xlink:title=" ">
<polygon fill="white" stroke="black" points="569,-66.5 569,-85.5 621,-85.5 621,-66.5 569,-66.5"/>
<text text-anchor="middle" x="595" y="-73.5" font-family="Helvetica,sans-Serif" font-size="10.00">str::split</text>
</a>
</g>
</g>
<!-- Node5&#45;&gt;Node6 -->
<g id="edge5" class="edge">
<title>Node5&#45;&gt;Node6</title>
<path fill="none" stroke="midnightblue" d="M461.82,-180.28C486.67,-160.68 543.01,-116.23 573.49,-92.18"/>
<polygon fill="midnightblue" stroke="midnightblue" points="576.03,-94.64 581.71,-85.69 571.69,-89.14 576.03,-94.64"/>
</g>
<!-- Node7 -->
<g id="node7" class="node">
<title>Node7</title>
<g id="a_node7"><a xlink:href="namespacestr.html#a062221f630647cf300f0dd982c4ed904" target="_top" xlink:title=" ">
<polygon fill="white" stroke="black" points="1480,-28.5 1480,-47.5 1538,-47.5 1538,-28.5 1480,-28.5"/>
<text text-anchor="middle" x="1509" y="-35.5" font-family="Helvetica,sans-Serif" font-size="10.00">str::count</text>
</a>
</g>
</g>
<!-- Node6&#45;&gt;Node7 -->
<g id="edge6" class="edge">
<title>Node6&#45;&gt;Node7</title>
<path fill="none" stroke="midnightblue" d="M618.55,-66.37C668.59,-45.92 793.07,0 902,0 902,0 902,0 1209,0 1303.34,0 1413.09,-18.84 1469.76,-29.99"/>
<polygon fill="midnightblue" stroke="midnightblue" points="1469.21,-33.45 1479.71,-31.98 1470.58,-26.59 1469.21,-33.45"/>
</g>
<!-- Node8 -->
<g id="node8" class="node">
<title>Node8</title>
<g id="a_node8"><a xlink:href="namespacestr.html#a4b4d986113337f946299cef82449cf52" target="_top" xlink:title=" ">
<polygon fill="white" stroke="black" points="719,-66.5 719,-85.5 769,-85.5 769,-66.5 719,-66.5"/>
<text text-anchor="middle" x="744" y="-73.5" font-family="Helvetica,sans-Serif" font-size="10.00">str::find</text>
</a>
</g>
</g>
<!-- Node6&#45;&gt;Node8 -->
<g id="edge7" class="edge">
<title>Node6&#45;&gt;Node8</title>
<path fill="none" stroke="midnightblue" d="M621.27,-76C645.33,-76 681.73,-76 708.47,-76"/>
<polygon fill="midnightblue" stroke="midnightblue" points="708.55,-79.5 718.55,-76 708.55,-72.5 708.55,-79.5"/>
</g>
<!-- Node10 -->
<g id="node10" class="node">
<title>Node10</title>
<g id="a_node10"><a xlink:href="namespaceconsole_1_1out.html#a8f791bfac54067cadb1b9f18117b987b" target="_top" xlink:title=" ">
<polygon fill="white" stroke="black" points="542,-256.5 542,-275.5 648,-275.5 648,-256.5 542,-256.5"/>
<text text-anchor="middle" x="595" y="-263.5" font-family="Helvetica,sans-Serif" font-size="10.00">console::out::printVa</text>
</a>
</g>
</g>
<!-- Node9&#45;&gt;Node10 -->
<g id="edge9" class="edge">
<title>Node9&#45;&gt;Node10</title>
<path fill="none" stroke="midnightblue" d="M350.59,-266C399.7,-266 477.33,-266 531.68,-266"/>
<polygon fill="midnightblue" stroke="midnightblue" points="531.89,-269.5 541.89,-266 531.89,-262.5 531.89,-269.5"/>
</g>
<!-- Node11 -->
<g id="node11" class="node">
<title>Node11</title>
<g id="a_node11"><a xlink:href="namespaceconsole_1_1ge.html#af642934cb833142f133285fdb75ef7b7" target="_top" xlink:title=" ">
<polygon fill="white" stroke="black" points="684,-142.5 684,-161.5 804,-161.5 804,-142.5 684,-142.5"/>
<text text-anchor="middle" x="744" y="-149.5" font-family="Helvetica,sans-Serif" font-size="10.00">console::ge::printFmtVa</text>
</a>
</g>
</g>
<!-- Node10&#45;&gt;Node11 -->
<g id="edge10" class="edge">
<title>Node10&#45;&gt;Node11</title>
<path fill="none" stroke="midnightblue" d="M608.28,-256.48C633.51,-236.91 691.41,-192.01 722.45,-167.94"/>
<polygon fill="midnightblue" stroke="midnightblue" points="724.69,-170.63 730.44,-161.74 720.4,-165.1 724.69,-170.63"/>
</g>
<!-- Node17 -->
<g id="node17" class="node">
<title>Node17</title>
<g id="a_node17"><a xlink:href="namespaceconsole_1_1out.html#ad9fc97dff4404c2d21aedbb24691e7cb" target="_top" xlink:title=" ">
<polygon fill="white" stroke="black" points="1002,-237.5 1002,-256.5 1112,-256.5 1112,-237.5 1002,-237.5"/>
<text text-anchor="middle" x="1057" y="-244.5" font-family="Helvetica,sans-Serif" font-size="10.00">console::out::putChar</text>
</a>
</g>
</g>
<!-- Node10&#45;&gt;Node17 -->
<g id="edge27" class="edge">
<title>Node10&#45;&gt;Node17</title>
<path fill="none" stroke="midnightblue" d="M647.02,-275.51C659.1,-277.38 671.97,-279.05 684,-280 808.94,-289.88 842.6,-301.91 966,-280 986.96,-276.28 1009.44,-268.04 1026.69,-260.72"/>
<polygon fill="midnightblue" stroke="midnightblue" points="1028.43,-263.78 1036.19,-256.57 1025.63,-257.37 1028.43,-263.78"/>
</g>
<!-- Node11&#45;&gt;Node7 -->
<g id="edge13" class="edge">
<title>Node11&#45;&gt;Node7</title>
<path fill="none" stroke="midnightblue" d="M755.15,-142.45C767.02,-131.24 787.16,-112 804,-95 820.37,-78.47 819.05,-67.12 840,-57 926.77,-15.08 959.63,-38 1056,-38 1056,-38 1056,-38 1209,-38 1302.63,-38 1412.76,-38 1469.65,-38"/>
<polygon fill="midnightblue" stroke="midnightblue" points="1469.97,-41.5 1479.97,-38 1469.97,-34.5 1469.97,-41.5"/>
</g>
<!-- Node12 -->
<g id="node12" class="node">
<title>Node12</title>
<g id="a_node12"><a xlink:href="printfmt_8cc.html#a708ec6ee2b8bd2d7a453d8d9436ed3b3" target="_top" xlink:title=" ">
<polygon fill="white" stroke="black" points="874,-142.5 874,-161.5 932,-161.5 932,-142.5 874,-142.5"/>
<text text-anchor="middle" x="903" y="-149.5" font-family="Helvetica,sans-Serif" font-size="10.00">_getIntVa</text>
</a>
</g>
</g>
<!-- Node11&#45;&gt;Node12 -->
<g id="edge11" class="edge">
<title>Node11&#45;&gt;Node12</title>
<path fill="none" stroke="midnightblue" d="M804.35,-152C824.24,-152 845.88,-152 863.72,-152"/>
<polygon fill="midnightblue" stroke="midnightblue" points="863.74,-155.5 873.74,-152 863.74,-148.5 863.74,-155.5"/>
</g>
<!-- Node13 -->
<g id="node13" class="node">
<title>Node13</title>
<g id="a_node13"><a xlink:href="printfmt_8cc.html#af4b46892c76c8bfd27efdb20847eb7c8" target="_top" xlink:title=" ">
<polygon fill="white" stroke="black" points="870.5,-104.5 870.5,-123.5 935.5,-123.5 935.5,-104.5 870.5,-104.5"/>
<text text-anchor="middle" x="903" y="-111.5" font-family="Helvetica,sans-Serif" font-size="10.00">_getUIntVa</text>
</a>
</g>
</g>
<!-- Node11&#45;&gt;Node13 -->
<g id="edge12" class="edge">
<title>Node11&#45;&gt;Node13</title>
<path fill="none" stroke="midnightblue" d="M784.62,-142.41C807.72,-136.82 836.84,-129.77 860.3,-124.09"/>
<polygon fill="midnightblue" stroke="midnightblue" points="861.4,-127.43 870.3,-121.67 859.76,-120.62 861.4,-127.43"/>
</g>
<!-- Node14 -->
<g id="node14" class="node">
<title>Node14</title>
<g id="a_node14"><a xlink:href="printfmt_8cc.html#a0e3e484ece5e75b9f5fbe337f0ae8ae3" target="_top" xlink:title=" ">
<polygon fill="white" stroke="black" points="876.5,-66.5 876.5,-85.5 929.5,-85.5 929.5,-66.5 876.5,-66.5"/>
<text text-anchor="middle" x="903" y="-73.5" font-family="Helvetica,sans-Serif" font-size="10.00">describe</text>
</a>
</g>
</g>
<!-- Node11&#45;&gt;Node14 -->
<g id="edge14" class="edge">
<title>Node11&#45;&gt;Node14</title>
<path fill="none" stroke="midnightblue" d="M758.59,-142.39C776.53,-130.05 809.43,-108.61 840,-95 848.44,-91.24 857.85,-87.94 866.73,-85.19"/>
<polygon fill="midnightblue" stroke="midnightblue" points="867.85,-88.5 876.45,-82.32 865.87,-81.79 867.85,-88.5"/>
</g>
<!-- Node16 -->
<g id="node16" class="node">
<title>Node16</title>
<g id="a_node16"><a xlink:href="namespaceconsole_1_1ge.html#a7e301813fd34fde772376afc5fdad95d" target="_top" xlink:title=" ">
<polygon fill="white" stroke="black" points="840,-218.5 840,-237.5 966,-237.5 966,-218.5 840,-218.5"/>
<text text-anchor="middle" x="903" y="-225.5" font-family="Helvetica,sans-Serif" font-size="10.00">console::ge::printNumber</text>
</a>
</g>
</g>
<!-- Node11&#45;&gt;Node16 -->
<g id="edge16" class="edge">
<title>Node11&#45;&gt;Node16</title>
<path fill="none" stroke="midnightblue" d="M761.14,-161.69C779.77,-172.67 811.53,-190.77 840,-204 848.21,-207.82 857.22,-211.55 865.75,-214.89"/>
<polygon fill="midnightblue" stroke="midnightblue" points="864.54,-218.17 875.13,-218.48 867.04,-211.63 864.54,-218.17"/>
</g>
<!-- Node11&#45;&gt;Node17 -->
<g id="edge26" class="edge">
<title>Node11&#45;&gt;Node17</title>
<path fill="none" stroke="midnightblue" d="M790.01,-161.56C835.07,-171.62 906.13,-188.76 966,-209 986.42,-215.9 1008.74,-225.31 1026.04,-233.04"/>
<polygon fill="midnightblue" stroke="midnightblue" points="1025.05,-236.43 1035.6,-237.37 1027.93,-230.06 1025.05,-236.43"/>
</g>
<!-- Node15 -->
<g id="node15" class="node">
<title>Node15</title>
<g id="a_node15"><a xlink:href="namespacemonitor.html#a318993193c866642f8389a1c1f285739" target="_top" xlink:title=" ">
<polygon fill="white" stroke="black" points="1020,-66.5 1020,-85.5 1094,-85.5 1094,-66.5 1020,-66.5"/>
<text text-anchor="middle" x="1057" y="-73.5" font-family="Helvetica,sans-Serif" font-size="10.00">monitor::fuck</text>
</a>
</g>
</g>
<!-- Node14&#45;&gt;Node15 -->
<g id="edge15" class="edge">
<title>Node14&#45;&gt;Node15</title>
<path fill="none" stroke="midnightblue" d="M929.78,-76C951.62,-76 983.46,-76 1009.7,-76"/>
<polygon fill="midnightblue" stroke="midnightblue" points="1009.82,-79.5 1019.82,-76 1009.82,-72.5 1009.82,-79.5"/>
</g>
<!-- Node16&#45;&gt;Node17 -->
<g id="edge17" class="edge">
<title>Node16&#45;&gt;Node17</title>
<path fill="none" stroke="midnightblue" d="M966.26,-235.78C974.66,-236.83 983.28,-237.91 991.71,-238.96"/>
<polygon fill="midnightblue" stroke="midnightblue" points="991.51,-242.47 1001.86,-240.23 992.37,-235.52 991.51,-242.47"/>
</g>
<!-- Node18 -->
<g id="node18" class="node">
<title>Node18</title>
<g id="a_node18"><a xlink:href="namespaceconsole_1_1serial.html#a3a7c1f95ae3c24136ea63bb31fdf0391" target="_top" xlink:title=" ">
<polygon fill="white" stroke="black" points="1148,-237.5 1148,-256.5 1268,-256.5 1268,-237.5 1148,-237.5"/>
<text text-anchor="middle" x="1208" y="-244.5" font-family="Helvetica,sans-Serif" font-size="10.00">console::serial::putChar</text>
</a>
</g>
</g>
<!-- Node17&#45;&gt;Node18 -->
<g id="edge18" class="edge">
<title>Node17&#45;&gt;Node18</title>
<path fill="none" stroke="midnightblue" d="M1112.21,-247C1120.53,-247 1129.2,-247 1137.79,-247"/>
<polygon fill="midnightblue" stroke="midnightblue" points="1137.79,-250.5 1147.79,-247 1137.79,-243.5 1137.79,-250.5"/>
</g>
<!-- Node21 -->
<g id="node21" class="node">
<title>Node21</title>
<g id="a_node21"><a xlink:href="namespaceconsole_1_1cga.html#afa19057ca041b39682d5d4831c43dfa0" target="_top" xlink:title=" ">
<polygon fill="white" stroke="black" points="1151.5,-199.5 1151.5,-218.5 1264.5,-218.5 1264.5,-199.5 1151.5,-199.5"/>
<text text-anchor="middle" x="1208" y="-206.5" font-family="Helvetica,sans-Serif" font-size="10.00">console::cga::putChar</text>
</a>
</g>
</g>
<!-- Node17&#45;&gt;Node21 -->
<g id="edge21" class="edge">
<title>Node17&#45;&gt;Node21</title>
<path fill="none" stroke="midnightblue" d="M1095.6,-237.41C1115.08,-232.44 1139.07,-226.32 1159.8,-221.04"/>
<polygon fill="midnightblue" stroke="midnightblue" points="1160.85,-224.38 1169.67,-218.52 1159.12,-217.6 1160.85,-224.38"/>
</g>
<!-- Node19 -->
<g id="node19" class="node">
<title>Node19</title>
<g id="a_node19"><a xlink:href="namespaceconsole_1_1serial.html#aa5605d4537106bb1c2bab72d7d1a5824" target="_top" xlink:title=" ">
<polygon fill="white" stroke="black" points="1322,-237.5 1322,-256.5 1426,-256.5 1426,-237.5 1322,-237.5"/>
<text text-anchor="middle" x="1374" y="-244.5" font-family="Helvetica,sans-Serif" font-size="10.00">console::serial::sout</text>
</a>
</g>
</g>
<!-- Node18&#45;&gt;Node19 -->
<g id="edge19" class="edge">
<title>Node18&#45;&gt;Node19</title>
<path fill="none" stroke="midnightblue" d="M1268.21,-247C1282.31,-247 1297.39,-247 1311.59,-247"/>
<polygon fill="midnightblue" stroke="midnightblue" points="1311.74,-250.5 1321.74,-247 1311.74,-243.5 1311.74,-250.5"/>
</g>
<!-- Node20 -->
<g id="node20" class="node">
<title>Node20</title>
<g id="a_node20"><a xlink:href="x86_8h.html#ade961b44e45ddacbc3c3b7609cf36dc6" target="_top" xlink:title=" ">
<polygon fill="white" stroke="black" points="1491.5,-218.5 1491.5,-237.5 1526.5,-237.5 1526.5,-218.5 1491.5,-218.5"/>
<text text-anchor="middle" x="1509" y="-225.5" font-family="Helvetica,sans-Serif" font-size="10.00">outb</text>
</a>
</g>
</g>
<!-- Node19&#45;&gt;Node20 -->
<g id="edge20" class="edge">
<title>Node19&#45;&gt;Node20</title>
<path fill="none" stroke="midnightblue" d="M1426.04,-239.71C1444.85,-237.02 1465.4,-234.09 1481.22,-231.83"/>
<polygon fill="midnightblue" stroke="midnightblue" points="1481.94,-235.26 1491.34,-230.38 1480.95,-228.33 1481.94,-235.26"/>
</g>
<!-- Node22 -->
<g id="node22" class="node">
<title>Node22</title>
<g id="a_node22"><a xlink:href="namespacemem.html#a64d9d05b439041901498c606de606431" target="_top" xlink:title=" ">
<polygon fill="white" stroke="black" points="1341.5,-114.5 1341.5,-133.5 1406.5,-133.5 1406.5,-114.5 1341.5,-114.5"/>
<text text-anchor="middle" x="1374" y="-121.5" font-family="Helvetica,sans-Serif" font-size="10.00">mem::copy</text>
</a>
</g>
</g>
<!-- Node21&#45;&gt;Node22 -->
<g id="edge22" class="edge">
<title>Node21&#45;&gt;Node22</title>
<path fill="none" stroke="midnightblue" d="M1227.49,-199.41C1256.16,-184.56 1311.51,-155.87 1345.07,-138.48"/>
<polygon fill="midnightblue" stroke="midnightblue" points="1347.05,-141.39 1354.32,-133.68 1343.83,-135.17 1347.05,-141.39"/>
</g>
<!-- Node23 -->
<g id="node23" class="node">
<title>Node23</title>
<g id="a_node23"><a xlink:href="namespaceconsole_1_1cga.html#a06463d4dc68819e30615ba299d02a78f" target="_top" xlink:title=" ">
<polygon fill="white" stroke="black" points="1304,-199.5 1304,-218.5 1444,-218.5 1444,-199.5 1304,-199.5"/>
<text text-anchor="middle" x="1374" y="-206.5" font-family="Helvetica,sans-Serif" font-size="10.00">console::cga::cursorRefresh</text>
</a>
</g>
</g>
<!-- Node21&#45;&gt;Node23 -->
<g id="edge24" class="edge">
<title>Node21&#45;&gt;Node23</title>
<path fill="none" stroke="midnightblue" d="M1264.52,-209C1273.9,-209 1283.8,-209 1293.65,-209"/>
<polygon fill="midnightblue" stroke="midnightblue" points="1293.87,-212.5 1303.87,-209 1293.87,-205.5 1293.87,-212.5"/>
</g>
<!-- Node22&#45;&gt;Node7 -->
<g id="edge23" class="edge">
<title>Node22&#45;&gt;Node7</title>
<path fill="none" stroke="midnightblue" d="M1389.74,-114.47C1412.71,-99.62 1457.24,-70.82 1484.62,-53.12"/>
<polygon fill="midnightblue" stroke="midnightblue" points="1486.7,-55.94 1493.19,-47.57 1482.89,-50.07 1486.7,-55.94"/>
</g>
<!-- Node23&#45;&gt;Node20 -->
<g id="edge25" class="edge">
<title>Node23&#45;&gt;Node20</title>
<path fill="none" stroke="midnightblue" d="M1441.89,-218.56C1455.81,-220.54 1469.71,-222.53 1481.15,-224.16"/>
<polygon fill="midnightblue" stroke="midnightblue" points="1480.88,-227.66 1491.28,-225.61 1481.87,-220.73 1480.88,-227.66"/>
</g>
<!-- Node25 -->
<g id="node25" class="node">
<title>Node25</title>
<g id="a_node25"><a xlink:href="namespaceconsole_1_1err.html#a4cd18e4c409b5b17ecec61ce83b05fba" target="_top" xlink:title=" ">
<polygon fill="white" stroke="black" points="543,-142.5 543,-161.5 647,-161.5 647,-142.5 543,-142.5"/>
<text text-anchor="middle" x="595" y="-149.5" font-family="Helvetica,sans-Serif" font-size="10.00">console::err::printVa</text>
</a>
</g>
</g>
<!-- Node24&#45;&gt;Node25 -->
<g id="edge29" class="edge">
<title>Node24&#45;&gt;Node25</title>
<path fill="none" stroke="midnightblue" d="M349.31,-168.03C398.55,-164.81 477.51,-159.63 532.36,-156.04"/>
<polygon fill="midnightblue" stroke="midnightblue" points="532.91,-159.51 542.65,-155.36 532.45,-152.53 532.91,-159.51"/>
</g>
<!-- Node25&#45;&gt;Node11 -->
<g id="edge30" class="edge">
<title>Node25&#45;&gt;Node11</title>
<path fill="none" stroke="midnightblue" d="M647,-152C655.62,-152 664.69,-152 673.68,-152"/>
<polygon fill="midnightblue" stroke="midnightblue" points="673.76,-155.5 683.76,-152 673.76,-148.5 673.76,-155.5"/>
</g>
<!-- Node25&#45;&gt;Node17 -->
<g id="edge31" class="edge">
<title>Node25&#45;&gt;Node17</title>
<path fill="none" stroke="midnightblue" d="M613.68,-161.55C652.97,-182.16 751.09,-230.3 840,-247 890.33,-256.45 948.42,-255.82 991.68,-253.17"/>
<polygon fill="midnightblue" stroke="midnightblue" points="992.04,-256.66 1001.78,-252.5 991.57,-249.67 992.04,-256.66"/>
</g>
<!-- Node27 -->
<g id="node27" class="node">
<title>Node27</title>
<g id="a_node27"><a xlink:href="namespaceconsole_1_1in.html#ac28354dad0498aa6bb0c178b10d62c8a" target="_top" xlink:title=" ">
<polygon fill="white" stroke="black" points="391,-294.5 391,-313.5 506,-313.5 506,-294.5 391,-294.5"/>
<text text-anchor="middle" x="448.5" y="-301.5" font-family="Helvetica,sans-Serif" font-size="10.00">console::in::readlineVa</text>
</a>
</g>
</g>
<!-- Node26&#45;&gt;Node27 -->
<g id="edge33" class="edge">
<title>Node26&#45;&gt;Node27</title>
<path fill="none" stroke="midnightblue" d="M355.4,-304C363.52,-304 372.02,-304 380.43,-304"/>
<polygon fill="midnightblue" stroke="midnightblue" points="380.62,-307.5 390.62,-304 380.62,-300.5 380.62,-307.5"/>
</g>
<!-- Node27&#45;&gt;Node10 -->
<g id="edge35" class="edge">
<title>Node27&#45;&gt;Node10</title>
<path fill="none" stroke="midnightblue" d="M485.96,-294.41C504.77,-289.46 527.91,-283.38 547.95,-278.11"/>
<polygon fill="midnightblue" stroke="midnightblue" points="549.02,-281.45 557.8,-275.52 547.24,-274.68 549.02,-281.45"/>
</g>
<!-- Node27&#45;&gt;Node17 -->
<g id="edge36" class="edge">
<title>Node27&#45;&gt;Node17</title>
<path fill="none" stroke="midnightblue" d="M487.04,-313.51C503.74,-317.27 523.73,-321.14 542,-323 664.76,-335.48 954.89,-303.46 966,-300 991.95,-291.91 1018.36,-275.13 1035.8,-262.6"/>
<polygon fill="midnightblue" stroke="midnightblue" points="1038.09,-265.27 1044.05,-256.51 1033.93,-259.63 1038.09,-265.27"/>
</g>
<!-- Node28 -->
<g id="node28" class="node">
<title>Node28</title>
<g id="a_node28"><a xlink:href="namespaceconsole_1_1in.html#a6fc069f2bc57fda183e3b991c31ec5a7" target="_top" xlink:title=" ">
<polygon fill="white" stroke="black" points="543,-294.5 543,-313.5 647,-313.5 647,-294.5 543,-294.5"/>
<text text-anchor="middle" x="595" y="-301.5" font-family="Helvetica,sans-Serif" font-size="10.00">console::in::getChar</text>
</a>
</g>
</g>
<!-- Node27&#45;&gt;Node28 -->
<g id="edge34" class="edge">
<title>Node27&#45;&gt;Node28</title>
<path fill="none" stroke="midnightblue" d="M506.2,-304C514.83,-304 523.78,-304 532.52,-304"/>
<polygon fill="midnightblue" stroke="midnightblue" points="532.64,-307.5 542.64,-304 532.64,-300.5 532.64,-307.5"/>
</g>
</g>
</svg>
        <g id="navigator" transform="translate(0 0)" fill="#404254">
                <rect fill="#f2f5e9" fill-opacity="0.5" stroke="#606060" stroke-width=".5" x="0" y="0" width="60" height="60"/>
                <use id="zoomplus" xlink:href="#zoomPlus" x="17" y="9" onmousedown="handleZoom(evt,'in')"/>
                <use id="zoomminus" xlink:href="#zoomMin" x="42" y="9" onmousedown="handleZoom(evt,'out')"/>
                <use id="reset" xlink:href="#resetDef" x="30" y="36" onmousedown="handleReset()"/>
                <g id="arrowUp" xlink:href="#dirArrow" transform="translate(30 24)" onmousedown="handlePan(0,-1)">
                  <use xlink:href="#rim" fill="#404040">
                        <set attributeName="fill" to="#808080" begin="arrowUp.mouseover" end="arrowUp.mouseout"/>
                  </use>
                  <path fill="none" stroke="white" stroke-width="1.5" d="M0,-3.0v7 M-2.5,-0.5L0,-3.0L2.5,-0.5"/>
                </g>
                <g id="arrowRight" xlink:href="#dirArrow" transform="rotate(90) translate(36 -43)" onmousedown="handlePan(1,0)">
                  <use xlink:href="#rim" fill="#404040">
                        <set attributeName="fill" to="#808080" begin="arrowRight.mouseover" end="arrowRight.mouseout"/>
                  </use>
                  <path fill="none" stroke="white" stroke-width="1.5" d="M0,-3.0v7 M-2.5,-0.5L0,-3.0L2.5,-0.5"/>
                </g>
                <g id="arrowDown" xlink:href="#dirArrow" transform="rotate(180) translate(-30 -48)" onmousedown="handlePan(0,1)">
                  <use xlink:href="#rim" fill="#404040">
                        <set attributeName="fill" to="#808080" begin="arrowDown.mouseover" end="arrowDown.mouseout"/>
                  </use>
                  <path fill="none" stroke="white" stroke-width="1.5" d="M0,-3.0v7 M-2.5,-0.5L0,-3.0L2.5,-0.5"/>
                </g>
                <g id="arrowLeft" xlink:href="#dirArrow" transform="rotate(270) translate(-36 17)" onmousedown="handlePan(-1,0)">
                  <use xlink:href="#rim" fill="#404040">
                        <set attributeName="fill" to="#808080" begin="arrowLeft.mouseover" end="arrowLeft.mouseout"/>
                  </use>
                  <path fill="none" stroke="white" stroke-width="1.5" d="M0,-3.0v7 M-2.5,-0.5L0,-3.0L2.5,-0.5"/>
                </g>
        </g>
        <svg viewBox="0 0 15 15" width="100%" height="30px" preserveAspectRatio="xMaxYMin meet">
         <g id="arrow_out" transform="scale(0.3 0.3)">
          <a xlink:href="namespacetrap_1_1handler_aa067cfbe3cae2802d8b48a14d125daa3_cgraph_org.svg" target="_base">
           <rect id="button" ry="5" rx="5" y="6" x="6" height="38" width="38"
                fill="#f2f5e9" fill-opacity="0.5" stroke="#606060" stroke-width="1.0"/>
           <path id="arrow"
             d="M 11.500037,31.436501 C 11.940474,20.09759 22.043105,11.32322 32.158766,21.979434 L 37.068811,17.246167 C 37.068811,17.246167 37.088388,32 37.088388,32 L 22.160133,31.978069 C 22.160133,31.978069 26.997745,27.140456 26.997745,27.140456 C 18.528582,18.264221 13.291696,25.230495 11.500037,31.436501 z"
             style="fill:#404040;"/>
          </a>
         </g>
        </svg>
</svg>
