<?xml version="1.0" encoding="UTF-8" standalone="no"?>
<!DOCTYPE svg PUBLIC "-//W3C//DTD SVG 1.1//EN"
 "http://www.w3.org/Graphics/SVG/1.1/DTD/svg11.dtd">
<!-- Generated by graphviz version 2.44.1 (20200629.0846)
 -->
<!-- Title: monitor::uname Pages: 1 -->
<svg width="1255pt" height="204pt"
 viewBox="0.00 0.00 1255.00 203.69" xmlns="http://www.w3.org/2000/svg" xmlns:xlink="http://www.w3.org/1999/xlink">
<g id="graph0" class="graph" transform="scale(1 1) rotate(0) translate(4 199.69)">
<title>monitor::uname</title>
<polygon fill="white" stroke="transparent" points="-4,4 -4,-199.69 1251,-199.69 1251,4 -4,4"/>
<!-- Node1 -->
<g id="node1" class="node">
<title>Node1</title>
<g id="a_node1"><a xlink:title=" ">
<polygon fill="#bfbfbf" stroke="black" points="0,-28.32 0,-47.32 84,-47.32 84,-28.32 0,-28.32"/>
<text text-anchor="middle" x="42" y="-35.32" font-family="Helvetica,sans-Serif" font-size="10.00">monitor::uname</text>
</a>
</g>
</g>
<!-- Node2 -->
<g id="node2" class="node">
<title>Node2</title>
<g id="a_node2"><a xlink:href="namespacestr.html#aec7bdc9a6856c577471d8ba6b603e8d6" target="_top" xlink:title=" ">
<polygon fill="white" stroke="black" points="141,-47.32 141,-66.32 194,-66.32 194,-47.32 141,-47.32"/>
<text text-anchor="middle" x="167.5" y="-54.32" font-family="Helvetica,sans-Serif" font-size="10.00">str::cmp</text>
</a>
</g>
</g>
<!-- Node1&#45;&gt;Node2 -->
<g id="edge1" class="edge">
<title>Node1&#45;&gt;Node2</title>
<path fill="none" stroke="midnightblue" d="M84.12,-44.15C99.14,-46.46 116,-49.05 130.54,-51.29"/>
<polygon fill="midnightblue" stroke="midnightblue" points="130.23,-54.78 140.65,-52.85 131.3,-47.87 130.23,-54.78"/>
</g>
<!-- Node3 -->
<g id="node3" class="node">
<title>Node3</title>
<g id="a_node3"><a xlink:href="namespaceconsole_1_1out.html#ac6f663e3971b66b8e130ee94755a150e" target="_top" xlink:title=" ">
<polygon fill="white" stroke="black" points="120,-9.32 120,-28.32 215,-28.32 215,-9.32 120,-9.32"/>
<text text-anchor="middle" x="167.5" y="-16.32" font-family="Helvetica,sans-Serif" font-size="10.00">console::out::print</text>
</a>
</g>
</g>
<!-- Node1&#45;&gt;Node3 -->
<g id="edge2" class="edge">
<title>Node1&#45;&gt;Node3</title>
<path fill="none" stroke="midnightblue" d="M84.12,-31.5C92.29,-30.24 101.01,-28.9 109.6,-27.58"/>
<polygon fill="midnightblue" stroke="midnightblue" points="110.23,-31.02 119.58,-26.04 109.17,-24.1 110.23,-31.02"/>
</g>
<!-- Node4 -->
<g id="node4" class="node">
<title>Node4</title>
<g id="a_node4"><a xlink:href="namespaceconsole_1_1out.html#a8f791bfac54067cadb1b9f18117b987b" target="_top" xlink:title=" ">
<polygon fill="white" stroke="black" points="251,-9.32 251,-28.32 357,-28.32 357,-9.32 251,-9.32"/>
<text text-anchor="middle" x="304" y="-16.32" font-family="Helvetica,sans-Serif" font-size="10.00">console::out::printVa</text>
</a>
</g>
</g>
<!-- Node3&#45;&gt;Node4 -->
<g id="edge3" class="edge">
<title>Node3&#45;&gt;Node4</title>
<path fill="none" stroke="midnightblue" d="M215.16,-18.82C223.45,-18.82 232.2,-18.82 240.84,-18.82"/>
<polygon fill="midnightblue" stroke="midnightblue" points="240.9,-22.32 250.9,-18.82 240.9,-15.32 240.9,-22.32"/>
</g>
<!-- Node5 -->
<g id="node5" class="node">
<title>Node5</title>
<g id="a_node5"><a xlink:href="namespaceconsole_1_1ge.html#af642934cb833142f133285fdb75ef7b7" target="_top" xlink:title=" ">
<polygon fill="white" stroke="black" points="393,-66.32 393,-85.32 513,-85.32 513,-66.32 393,-66.32"/>
<text text-anchor="middle" x="453" y="-73.32" font-family="Helvetica,sans-Serif" font-size="10.00">console::ge::printFmtVa</text>
</a>
</g>
</g>
<!-- Node4&#45;&gt;Node5 -->
<g id="edge4" class="edge">
<title>Node4&#45;&gt;Node5</title>
<path fill="none" stroke="midnightblue" d="M329.6,-28.36C353.77,-37.73 390.85,-52.11 417.86,-62.58"/>
<polygon fill="midnightblue" stroke="midnightblue" points="416.73,-65.9 427.32,-66.25 419.26,-59.37 416.73,-65.9"/>
</g>
<!-- Node12 -->
<g id="node12" class="node">
<title>Node12</title>
<g id="a_node12"><a xlink:href="namespaceconsole_1_1out.html#ad9fc97dff4404c2d21aedbb24691e7cb" target="_top" xlink:title=" ">
<polygon fill="white" stroke="black" points="711,-9.32 711,-28.32 821,-28.32 821,-9.32 711,-9.32"/>
<text text-anchor="middle" x="766" y="-16.32" font-family="Helvetica,sans-Serif" font-size="10.00">console::out::putChar</text>
</a>
</g>
</g>
<!-- Node4&#45;&gt;Node12 -->
<g id="edge21" class="edge">
<title>Node4&#45;&gt;Node12</title>
<path fill="none" stroke="midnightblue" d="M357.17,-12.67C428.89,-5.14 561.92,5.54 675,-3.82 685.29,-4.67 696.17,-6.06 706.68,-7.66"/>
<polygon fill="midnightblue" stroke="midnightblue" points="706.18,-11.13 716.61,-9.25 707.28,-4.22 706.18,-11.13"/>
</g>
<!-- Node6 -->
<g id="node6" class="node">
<title>Node6</title>
<g id="a_node6"><a xlink:href="printfmt_8cc.html#a708ec6ee2b8bd2d7a453d8d9436ed3b3" target="_top" xlink:title=" ">
<polygon fill="white" stroke="black" points="583,-142.32 583,-161.32 641,-161.32 641,-142.32 583,-142.32"/>
<text text-anchor="middle" x="612" y="-149.32" font-family="Helvetica,sans-Serif" font-size="10.00">_getIntVa</text>
</a>
</g>
</g>
<!-- Node5&#45;&gt;Node6 -->
<g id="edge5" class="edge">
<title>Node5&#45;&gt;Node6</title>
<path fill="none" stroke="midnightblue" d="M467.59,-85.43C485.53,-97.77 518.43,-119.21 549,-132.82 556.6,-136.21 564.99,-139.22 573.07,-141.8"/>
<polygon fill="midnightblue" stroke="midnightblue" points="572.11,-145.17 582.7,-144.72 574.14,-138.47 572.11,-145.17"/>
</g>
<!-- Node7 -->
<g id="node7" class="node">
<title>Node7</title>
<g id="a_node7"><a xlink:href="printfmt_8cc.html#af4b46892c76c8bfd27efdb20847eb7c8" target="_top" xlink:title=" ">
<polygon fill="white" stroke="black" points="579.5,-104.32 579.5,-123.32 644.5,-123.32 644.5,-104.32 579.5,-104.32"/>
<text text-anchor="middle" x="612" y="-111.32" font-family="Helvetica,sans-Serif" font-size="10.00">_getUIntVa</text>
</a>
</g>
</g>
<!-- Node5&#45;&gt;Node7 -->
<g id="edge6" class="edge">
<title>Node5&#45;&gt;Node7</title>
<path fill="none" stroke="midnightblue" d="M493.62,-85.41C516.72,-91 545.84,-98.05 569.3,-103.73"/>
<polygon fill="midnightblue" stroke="midnightblue" points="568.76,-107.2 579.3,-106.15 570.4,-100.4 568.76,-107.2"/>
</g>
<!-- Node8 -->
<g id="node8" class="node">
<title>Node8</title>
<g id="a_node8"><a xlink:href="namespacestr.html#a062221f630647cf300f0dd982c4ed904" target="_top" xlink:title=" ">
<polygon fill="white" stroke="black" points="1189,-99.32 1189,-118.32 1247,-118.32 1247,-99.32 1189,-99.32"/>
<text text-anchor="middle" x="1218" y="-106.32" font-family="Helvetica,sans-Serif" font-size="10.00">str::count</text>
</a>
</g>
</g>
<!-- Node5&#45;&gt;Node8 -->
<g id="edge7" class="edge">
<title>Node5&#45;&gt;Node8</title>
<path fill="none" stroke="midnightblue" d="M460.18,-85.54C473.55,-105.61 507.36,-151.39 549,-170.82 636.33,-211.57 668.63,-189.82 765,-189.82 765,-189.82 765,-189.82 918,-189.82 1019.55,-189.82 1133.97,-145.75 1187.02,-122.63"/>
<polygon fill="midnightblue" stroke="midnightblue" points="1188.77,-125.68 1196.5,-118.43 1185.93,-119.28 1188.77,-125.68"/>
</g>
<!-- Node9 -->
<g id="node9" class="node">
<title>Node9</title>
<g id="a_node9"><a xlink:href="printfmt_8cc.html#a0e3e484ece5e75b9f5fbe337f0ae8ae3" target="_top" xlink:title=" ">
<polygon fill="white" stroke="black" points="585.5,-66.32 585.5,-85.32 638.5,-85.32 638.5,-66.32 585.5,-66.32"/>
<text text-anchor="middle" x="612" y="-73.32" font-family="Helvetica,sans-Serif" font-size="10.00">describe</text>
</a>
</g>
</g>
<!-- Node5&#45;&gt;Node9 -->
<g id="edge8" class="edge">
<title>Node5&#45;&gt;Node9</title>
<path fill="none" stroke="midnightblue" d="M513.35,-75.82C534.12,-75.82 556.78,-75.82 575.04,-75.82"/>
<polygon fill="midnightblue" stroke="midnightblue" points="575.24,-79.32 585.24,-75.82 575.24,-72.32 575.24,-79.32"/>
</g>
<!-- Node11 -->
<g id="node11" class="node">
<title>Node11</title>
<g id="a_node11"><a xlink:href="namespaceconsole_1_1ge.html#a7e301813fd34fde772376afc5fdad95d" target="_top" xlink:title=" ">
<polygon fill="white" stroke="black" points="549,-28.32 549,-47.32 675,-47.32 675,-28.32 549,-28.32"/>
<text text-anchor="middle" x="612" y="-35.32" font-family="Helvetica,sans-Serif" font-size="10.00">console::ge::printNumber</text>
</a>
</g>
</g>
<!-- Node5&#45;&gt;Node11 -->
<g id="edge10" class="edge">
<title>Node5&#45;&gt;Node11</title>
<path fill="none" stroke="midnightblue" d="M493.62,-66.23C514.34,-61.22 539.89,-55.03 561.86,-49.72"/>
<polygon fill="midnightblue" stroke="midnightblue" points="562.77,-53.1 571.67,-47.34 561.12,-46.29 562.77,-53.1"/>
</g>
<!-- Node5&#45;&gt;Node12 -->
<g id="edge20" class="edge">
<title>Node5&#45;&gt;Node12</title>
<path fill="none" stroke="midnightblue" d="M465.33,-66.18C482.22,-52.49 515.63,-28.06 549,-18.82 598.52,-5.11 656.9,-6.07 700.48,-9.93"/>
<polygon fill="midnightblue" stroke="midnightblue" points="700.38,-13.44 710.66,-10.91 701.05,-6.47 700.38,-13.44"/>
</g>
<!-- Node10 -->
<g id="node10" class="node">
<title>Node10</title>
<g id="a_node10"><a xlink:href="namespacemonitor.html#a318993193c866642f8389a1c1f285739" target="_top" xlink:title=" ">
<polygon fill="white" stroke="black" points="729,-66.32 729,-85.32 803,-85.32 803,-66.32 729,-66.32"/>
<text text-anchor="middle" x="766" y="-73.32" font-family="Helvetica,sans-Serif" font-size="10.00">monitor::fuck</text>
</a>
</g>
</g>
<!-- Node9&#45;&gt;Node10 -->
<g id="edge9" class="edge">
<title>Node9&#45;&gt;Node10</title>
<path fill="none" stroke="midnightblue" d="M638.78,-75.82C660.62,-75.82 692.46,-75.82 718.7,-75.82"/>
<polygon fill="midnightblue" stroke="midnightblue" points="718.82,-79.32 728.82,-75.82 718.82,-72.32 718.82,-79.32"/>
</g>
<!-- Node11&#45;&gt;Node12 -->
<g id="edge11" class="edge">
<title>Node11&#45;&gt;Node12</title>
<path fill="none" stroke="midnightblue" d="M675.26,-30.04C683.66,-28.99 692.28,-27.91 700.71,-26.86"/>
<polygon fill="midnightblue" stroke="midnightblue" points="701.37,-30.3 710.86,-25.59 700.51,-23.36 701.37,-30.3"/>
</g>
<!-- Node13 -->
<g id="node13" class="node">
<title>Node13</title>
<g id="a_node13"><a xlink:href="namespaceconsole_1_1serial.html#a3a7c1f95ae3c24136ea63bb31fdf0391" target="_top" xlink:title=" ">
<polygon fill="white" stroke="black" points="857,-9.32 857,-28.32 977,-28.32 977,-9.32 857,-9.32"/>
<text text-anchor="middle" x="917" y="-16.32" font-family="Helvetica,sans-Serif" font-size="10.00">console::serial::putChar</text>
</a>
</g>
</g>
<!-- Node12&#45;&gt;Node13 -->
<g id="edge12" class="edge">
<title>Node12&#45;&gt;Node13</title>
<path fill="none" stroke="midnightblue" d="M821.21,-18.82C829.53,-18.82 838.2,-18.82 846.79,-18.82"/>
<polygon fill="midnightblue" stroke="midnightblue" points="846.79,-22.32 856.79,-18.82 846.79,-15.32 846.79,-22.32"/>
</g>
<!-- Node16 -->
<g id="node16" class="node">
<title>Node16</title>
<g id="a_node16"><a xlink:href="namespaceconsole_1_1cga.html#afa19057ca041b39682d5d4831c43dfa0" target="_top" xlink:title=" ">
<polygon fill="white" stroke="black" points="860.5,-47.32 860.5,-66.32 973.5,-66.32 973.5,-47.32 860.5,-47.32"/>
<text text-anchor="middle" x="917" y="-54.32" font-family="Helvetica,sans-Serif" font-size="10.00">console::cga::putChar</text>
</a>
</g>
</g>
<!-- Node12&#45;&gt;Node16 -->
<g id="edge15" class="edge">
<title>Node12&#45;&gt;Node16</title>
<path fill="none" stroke="midnightblue" d="M804.6,-28.41C824.08,-33.38 848.07,-39.5 868.8,-44.78"/>
<polygon fill="midnightblue" stroke="midnightblue" points="868.12,-48.22 878.67,-47.3 869.85,-41.44 868.12,-48.22"/>
</g>
<!-- Node14 -->
<g id="node14" class="node">
<title>Node14</title>
<g id="a_node14"><a xlink:href="namespaceconsole_1_1serial.html#aa5605d4537106bb1c2bab72d7d1a5824" target="_top" xlink:title=" ">
<polygon fill="white" stroke="black" points="1031,-9.32 1031,-28.32 1135,-28.32 1135,-9.32 1031,-9.32"/>
<text text-anchor="middle" x="1083" y="-16.32" font-family="Helvetica,sans-Serif" font-size="10.00">console::serial::sout</text>
</a>
</g>
</g>
<!-- Node13&#45;&gt;Node14 -->
<g id="edge13" class="edge">
<title>Node13&#45;&gt;Node14</title>
<path fill="none" stroke="midnightblue" d="M977.21,-18.82C991.31,-18.82 1006.39,-18.82 1020.59,-18.82"/>
<polygon fill="midnightblue" stroke="midnightblue" points="1020.74,-22.32 1030.74,-18.82 1020.74,-15.32 1020.74,-22.32"/>
</g>
<!-- Node15 -->
<g id="node15" class="node">
<title>Node15</title>
<g id="a_node15"><a xlink:href="x86_8h.html#ade961b44e45ddacbc3c3b7609cf36dc6" target="_top" xlink:title=" ">
<polygon fill="white" stroke="black" points="1200.5,-42.32 1200.5,-61.32 1235.5,-61.32 1235.5,-42.32 1200.5,-42.32"/>
<text text-anchor="middle" x="1218" y="-49.32" font-family="Helvetica,sans-Serif" font-size="10.00">outb</text>
</a>
</g>
</g>
<!-- Node14&#45;&gt;Node15 -->
<g id="edge14" class="edge">
<title>Node14&#45;&gt;Node15</title>
<path fill="none" stroke="midnightblue" d="M1122.47,-28.37C1144.32,-33.79 1171.11,-40.44 1190.59,-45.27"/>
<polygon fill="midnightblue" stroke="midnightblue" points="1189.76,-48.67 1200.31,-47.68 1191.44,-41.88 1189.76,-48.67"/>
</g>
<!-- Node17 -->
<g id="node17" class="node">
<title>Node17</title>
<g id="a_node17"><a xlink:href="namespacemem.html#a64d9d05b439041901498c606de606431" target="_top" xlink:title=" ">
<polygon fill="white" stroke="black" points="1050.5,-90.32 1050.5,-109.32 1115.5,-109.32 1115.5,-90.32 1050.5,-90.32"/>
<text text-anchor="middle" x="1083" y="-97.32" font-family="Helvetica,sans-Serif" font-size="10.00">mem::copy</text>
</a>
</g>
</g>
<!-- Node16&#45;&gt;Node17 -->
<g id="edge16" class="edge">
<title>Node16&#45;&gt;Node17</title>
<path fill="none" stroke="midnightblue" d="M954.4,-66.37C979.92,-73.06 1014.08,-82.01 1040.64,-88.98"/>
<polygon fill="midnightblue" stroke="midnightblue" points="1039.85,-92.39 1050.41,-91.54 1041.62,-85.62 1039.85,-92.39"/>
</g>
<!-- Node18 -->
<g id="node18" class="node">
<title>Node18</title>
<g id="a_node18"><a xlink:href="namespaceconsole_1_1cga.html#a06463d4dc68819e30615ba299d02a78f" target="_top" xlink:title=" ">
<polygon fill="white" stroke="black" points="1013,-47.32 1013,-66.32 1153,-66.32 1153,-47.32 1013,-47.32"/>
<text text-anchor="middle" x="1083" y="-54.32" font-family="Helvetica,sans-Serif" font-size="10.00">console::cga::cursorRefresh</text>
</a>
</g>
</g>
<!-- Node16&#45;&gt;Node18 -->
<g id="edge18" class="edge">
<title>Node16&#45;&gt;Node18</title>
<path fill="none" stroke="midnightblue" d="M973.52,-56.82C982.9,-56.82 992.8,-56.82 1002.65,-56.82"/>
<polygon fill="midnightblue" stroke="midnightblue" points="1002.87,-60.32 1012.87,-56.82 1002.87,-53.32 1002.87,-60.32"/>
</g>
<!-- Node17&#45;&gt;Node8 -->
<g id="edge17" class="edge">
<title>Node17&#45;&gt;Node8</title>
<path fill="none" stroke="midnightblue" d="M1115.52,-101.96C1134.49,-103.24 1158.77,-104.88 1178.82,-106.24"/>
<polygon fill="midnightblue" stroke="midnightblue" points="1178.66,-109.74 1188.87,-106.92 1179.13,-102.75 1178.66,-109.74"/>
</g>
<!-- Node18&#45;&gt;Node15 -->
<g id="edge19" class="edge">
<title>Node18&#45;&gt;Node15</title>
<path fill="none" stroke="midnightblue" d="M1153.23,-54.22C1166.48,-53.72 1179.59,-53.23 1190.45,-52.82"/>
<polygon fill="midnightblue" stroke="midnightblue" points="1190.61,-56.32 1200.47,-52.44 1190.35,-49.32 1190.61,-56.32"/>
</g>
</g>
</svg>
