<?xml version="1.0" encoding="UTF-8" standalone="no"?>
<!DOCTYPE svg PUBLIC "-//W3C//DTD SVG 1.1//EN"
 "http://www.w3.org/Graphics/SVG/1.1/DTD/svg11.dtd">
<!-- Generated by graphviz version 2.44.1 (20200629.0846)
 -->
<!-- Title: vmem::pgdir::userCheck Pages: 1 -->
<svg width="863pt" height="163pt"
 viewBox="0.00 0.00 863.00 163.20" xmlns="http://www.w3.org/2000/svg" xmlns:xlink="http://www.w3.org/1999/xlink">
<g id="graph0" class="graph" transform="scale(1 1) rotate(0) translate(4 159.2)">
<title>vmem::pgdir::userCheck</title>
<polygon fill="white" stroke="transparent" points="-4,4 -4,-159.2 859,-159.2 859,4 -4,4"/>
<!-- Node1 -->
<g id="node1" class="node">
<title>Node1</title>
<g id="a_node1"><a xlink:title=" ">
<polygon fill="#bfbfbf" stroke="black" points="0,-76.5 0,-95.5 124,-95.5 124,-76.5 0,-76.5"/>
<text text-anchor="middle" x="62" y="-83.5" font-family="Helvetica,sans-Serif" font-size="10.00">vmem::pgdir::userCheck</text>
</a>
</g>
</g>
<!-- Node2 -->
<g id="node2" class="node">
<title>Node2</title>
<g id="a_node2"><a xlink:href="namespacevmem_1_1pgdir.html#a933a8f939084dabdb1a4b5401bebf8d7" target="_top" xlink:title=" ">
<polygon fill="white" stroke="black" points="160,-76.5 160,-95.5 267,-95.5 267,-76.5 160,-76.5"/>
<text text-anchor="middle" x="213.5" y="-83.5" font-family="Helvetica,sans-Serif" font-size="10.00">vmem::pgdir::findPte</text>
</a>
</g>
</g>
<!-- Node1&#45;&gt;Node2 -->
<g id="edge1" class="edge">
<title>Node1&#45;&gt;Node2</title>
<path fill="none" stroke="midnightblue" d="M124.24,-86C132.61,-86 141.21,-86 149.61,-86"/>
<polygon fill="midnightblue" stroke="midnightblue" points="149.72,-89.5 159.72,-86 149.72,-82.5 149.72,-89.5"/>
</g>
<!-- Node3 -->
<g id="node3" class="node">
<title>Node3</title>
<g id="a_node3"><a xlink:href="structvmem_1_1_page_info.html#afcdcb7e941219a8ec999353658e3c2aa" target="_top" xlink:title=" ">
<polygon fill="white" stroke="black" points="313.5,-114.5 313.5,-133.5 428.5,-133.5 428.5,-114.5 313.5,-114.5"/>
<text text-anchor="middle" x="371" y="-121.5" font-family="Helvetica,sans-Serif" font-size="10.00">vmem::PageInfo::alloc</text>
</a>
</g>
</g>
<!-- Node2&#45;&gt;Node3 -->
<g id="edge2" class="edge">
<title>Node2&#45;&gt;Node3</title>
<path fill="none" stroke="midnightblue" d="M253.74,-95.59C274.26,-100.6 299.57,-106.79 321.33,-112.11"/>
<polygon fill="midnightblue" stroke="midnightblue" points="320.5,-115.51 331.04,-114.48 322.16,-108.71 320.5,-115.51"/>
</g>
<!-- Node4 -->
<g id="node4" class="node">
<title>Node4</title>
<g id="a_node4"><a xlink:href="namespacemem.html#a981dd0cb1408b798a79443c6245e9c55" target="_top" xlink:title=" ">
<polygon fill="white" stroke="black" points="507.5,-128.5 507.5,-147.5 572.5,-147.5 572.5,-128.5 507.5,-128.5"/>
<text text-anchor="middle" x="540" y="-135.5" font-family="Helvetica,sans-Serif" font-size="10.00">mem::clear</text>
</a>
</g>
</g>
<!-- Node2&#45;&gt;Node4 -->
<g id="edge9" class="edge">
<title>Node2&#45;&gt;Node4</title>
<path fill="none" stroke="midnightblue" d="M224.92,-95.63C240.51,-109.31 271.44,-133.72 303,-143 368.75,-162.34 449.3,-154.28 497.27,-146.36"/>
<polygon fill="midnightblue" stroke="midnightblue" points="498.02,-149.79 507.28,-144.63 496.83,-142.89 498.02,-149.79"/>
</g>
<!-- Node7 -->
<g id="node7" class="node">
<title>Node7</title>
<g id="a_node7"><a xlink:href="structvmem_1_1_page_info.html#afc863f1d364462ddd2c20bf31f588337" target="_top" xlink:title=" ">
<polygon fill="white" stroke="black" points="475,-76.5 475,-95.5 605,-95.5 605,-76.5 475,-76.5"/>
<text text-anchor="middle" x="540" y="-83.5" font-family="Helvetica,sans-Serif" font-size="10.00">vmem::PageInfo::toKernV</text>
</a>
</g>
</g>
<!-- Node2&#45;&gt;Node7 -->
<g id="edge12" class="edge">
<title>Node2&#45;&gt;Node7</title>
<path fill="none" stroke="midnightblue" d="M267.36,-86C320.92,-86 404.26,-86 464.5,-86"/>
<polygon fill="midnightblue" stroke="midnightblue" points="464.72,-89.5 474.72,-86 464.72,-82.5 464.72,-89.5"/>
</g>
<!-- Node8 -->
<g id="node8" class="node">
<title>Node8</title>
<g id="a_node8"><a xlink:href="structvmem_1_1_page_info.html#accf2071c7875c29c9aa78a01ef5963a1" target="_top" xlink:title=" ">
<polygon fill="white" stroke="black" points="641,-57.5 641,-76.5 761,-76.5 761,-57.5 641,-57.5"/>
<text text-anchor="middle" x="701" y="-64.5" font-family="Helvetica,sans-Serif" font-size="10.00">vmem::PageInfo::toPhy</text>
</a>
</g>
</g>
<!-- Node2&#45;&gt;Node8 -->
<g id="edge13" class="edge">
<title>Node2&#45;&gt;Node8</title>
<path fill="none" stroke="midnightblue" d="M267.32,-81.01C319.91,-76.32 402.95,-69.62 475,-67 527.15,-65.1 586.15,-65.18 630.64,-65.7"/>
<polygon fill="midnightblue" stroke="midnightblue" points="630.72,-69.2 640.76,-65.82 630.81,-62.2 630.72,-69.2"/>
</g>
<!-- Node9 -->
<g id="node9" class="node">
<title>Node9</title>
<g id="a_node9"><a xlink:href="namespacevmem_1_1pgdir.html#a972bb045d4c58b0ea9c569e05831bbb6" target="_top" xlink:title=" ">
<polygon fill="white" stroke="black" points="303,-0.5 303,-19.5 439,-19.5 439,-0.5 303,-0.5"/>
<text text-anchor="middle" x="371" y="-7.5" font-family="Helvetica,sans-Serif" font-size="10.00">vmem::pgdir::invalidateTLB</text>
</a>
</g>
</g>
<!-- Node2&#45;&gt;Node9 -->
<g id="edge10" class="edge">
<title>Node2&#45;&gt;Node9</title>
<path fill="none" stroke="midnightblue" d="M228.76,-76.49C245.89,-65.34 275.72,-46.76 303,-34 311.55,-30 320.96,-26.25 329.96,-22.96"/>
<polygon fill="midnightblue" stroke="midnightblue" points="331.24,-26.22 339.5,-19.58 328.9,-19.62 331.24,-26.22"/>
</g>
<!-- Node3&#45;&gt;Node4 -->
<g id="edge3" class="edge">
<title>Node3&#45;&gt;Node4</title>
<path fill="none" stroke="midnightblue" d="M428.54,-128.74C451.04,-130.63 476.47,-132.76 497.26,-134.5"/>
<polygon fill="midnightblue" stroke="midnightblue" points="497.1,-138 507.36,-135.35 497.68,-131.02 497.1,-138"/>
</g>
<!-- Node3&#45;&gt;Node7 -->
<g id="edge7" class="edge">
<title>Node3&#45;&gt;Node7</title>
<path fill="none" stroke="midnightblue" d="M414.14,-114.41C436.38,-109.35 463.85,-103.1 487.36,-97.75"/>
<polygon fill="midnightblue" stroke="midnightblue" points="488.19,-101.15 497.16,-95.52 486.63,-94.33 488.19,-101.15"/>
</g>
<!-- Node5 -->
<g id="node5" class="node">
<title>Node5</title>
<g id="a_node5"><a xlink:href="namespacestr.html#a062221f630647cf300f0dd982c4ed904" target="_top" xlink:title=" ">
<polygon fill="white" stroke="black" points="797,-123.5 797,-142.5 855,-142.5 855,-123.5 797,-123.5"/>
<text text-anchor="middle" x="826" y="-130.5" font-family="Helvetica,sans-Serif" font-size="10.00">str::count</text>
</a>
</g>
</g>
<!-- Node4&#45;&gt;Node5 -->
<g id="edge4" class="edge">
<title>Node4&#45;&gt;Node5</title>
<path fill="none" stroke="midnightblue" d="M572.75,-137.44C625.24,-136.52 729.91,-134.67 786.52,-133.68"/>
<polygon fill="midnightblue" stroke="midnightblue" points="786.9,-137.17 796.84,-133.5 786.78,-130.17 786.9,-137.17"/>
</g>
<!-- Node6 -->
<g id="node6" class="node">
<title>Node6</title>
<g id="a_node6"><a xlink:href="namespacemem.html#adbaba9127c03fb914f752bfe19d6d089" target="_top" xlink:title=" ">
<polygon fill="white" stroke="black" points="672,-104.5 672,-123.5 730,-123.5 730,-104.5 672,-104.5"/>
<text text-anchor="middle" x="701" y="-111.5" font-family="Helvetica,sans-Serif" font-size="10.00">mem::set</text>
</a>
</g>
</g>
<!-- Node4&#45;&gt;Node6 -->
<g id="edge5" class="edge">
<title>Node4&#45;&gt;Node6</title>
<path fill="none" stroke="midnightblue" d="M572.79,-133.2C598.51,-129.32 634.79,-123.84 662.03,-119.73"/>
<polygon fill="midnightblue" stroke="midnightblue" points="662.62,-123.18 671.99,-118.23 661.58,-116.26 662.62,-123.18"/>
</g>
<!-- Node6&#45;&gt;Node5 -->
<g id="edge6" class="edge">
<title>Node6&#45;&gt;Node5</title>
<path fill="none" stroke="midnightblue" d="M730.22,-118.36C747.02,-120.95 768.55,-124.28 786.85,-127.11"/>
<polygon fill="midnightblue" stroke="midnightblue" points="786.5,-130.59 796.91,-128.66 787.56,-123.68 786.5,-130.59"/>
</g>
<!-- Node7&#45;&gt;Node8 -->
<g id="edge8" class="edge">
<title>Node7&#45;&gt;Node8</title>
<path fill="none" stroke="midnightblue" d="M605.21,-78.33C613.7,-77.31 622.43,-76.27 630.99,-75.25"/>
<polygon fill="midnightblue" stroke="midnightblue" points="631.43,-78.72 640.94,-74.06 630.6,-71.77 631.43,-78.72"/>
</g>
<!-- Node10 -->
<g id="node10" class="node">
<title>Node10</title>
<g id="a_node10"><a xlink:href="x86_8h.html#a2c1c4c8523ed258a75c563a8f94d1686" target="_top" xlink:title=" ">
<polygon fill="white" stroke="black" points="519,-0.5 519,-19.5 561,-19.5 561,-0.5 519,-0.5"/>
<text text-anchor="middle" x="540" y="-7.5" font-family="Helvetica,sans-Serif" font-size="10.00">invlpg</text>
</a>
</g>
</g>
<!-- Node9&#45;&gt;Node10 -->
<g id="edge11" class="edge">
<title>Node9&#45;&gt;Node10</title>
<path fill="none" stroke="midnightblue" d="M439.44,-10C463.58,-10 489.58,-10 508.95,-10"/>
<polygon fill="midnightblue" stroke="midnightblue" points="508.98,-13.5 518.98,-10 508.98,-6.5 508.98,-13.5"/>
</g>
</g>
</svg>
