<?xml version="1.0" encoding="UTF-8" standalone="no"?>
<!DOCTYPE svg PUBLIC "-//W3C//DTD SVG 1.1//EN"
 "http://www.w3.org/Graphics/SVG/1.1/DTD/svg11.dtd">
<!-- Generated by graphviz version 2.44.1 (20200629.0846)
 -->
<!-- Title: trap::trap Pages: 1 -->
<svg width="1939pt" height="508pt"
 viewBox="0.00 0.00 1939.00 508.00" xmlns="http://www.w3.org/2000/svg" xmlns:xlink="http://www.w3.org/1999/xlink">
<g id="graph0" class="graph" transform="scale(1 1) rotate(0) translate(4 504)">
<title>trap::trap</title>
<polygon fill="white" stroke="transparent" points="-4,4 -4,-504 1935,-504 1935,4 -4,4"/>
<!-- Node1 -->
<g id="node1" class="node">
<title>Node1</title>
<g id="a_node1"><a xlink:title=" ">
<polygon fill="#bfbfbf" stroke="black" points="0,-76.5 0,-95.5 56,-95.5 56,-76.5 0,-76.5"/>
<text text-anchor="middle" x="28" y="-83.5" font-family="Helvetica,sans-Serif" font-size="10.00">trap::trap</text>
</a>
</g>
</g>
<!-- Node2 -->
<g id="node2" class="node">
<title>Node2</title>
<g id="a_node2"><a xlink:href="printfmt_8cc.html#a0e3e484ece5e75b9f5fbe337f0ae8ae3" target="_top" xlink:title=" ">
<polygon fill="white" stroke="black" points="1269.5,-138.5 1269.5,-157.5 1322.5,-157.5 1322.5,-138.5 1269.5,-138.5"/>
<text text-anchor="middle" x="1296" y="-145.5" font-family="Helvetica,sans-Serif" font-size="10.00">describe</text>
</a>
</g>
</g>
<!-- Node1&#45;&gt;Node2 -->
<g id="edge1" class="edge">
<title>Node1&#45;&gt;Node2</title>
<path fill="none" stroke="midnightblue" d="M56.16,-79.55C104.29,-68.71 207.85,-48 296.5,-48 296.5,-48 296.5,-48 989,-48 1097.69,-48 1217.83,-105.7 1269.3,-133.44"/>
<polygon fill="midnightblue" stroke="midnightblue" points="1267.92,-136.68 1278.38,-138.41 1271.28,-130.54 1267.92,-136.68"/>
</g>
<!-- Node4 -->
<g id="node4" class="node">
<title>Node4</title>
<g id="a_node4"><a xlink:href="structtrap_1_1_frame.html#ad4d384926899741046177043bbe75c27" target="_top" xlink:title=" ">
<polygon fill="white" stroke="black" points="92,-171.5 92,-190.5 202,-190.5 202,-171.5 92,-171.5"/>
<text text-anchor="middle" x="147" y="-178.5" font-family="Helvetica,sans-Serif" font-size="10.00">trap::Frame::dispatch</text>
</a>
</g>
</g>
<!-- Node1&#45;&gt;Node4 -->
<g id="edge3" class="edge">
<title>Node1&#45;&gt;Node4</title>
<path fill="none" stroke="midnightblue" d="M41.08,-95.81C61.24,-112.18 101.93,-145.21 126.29,-164.99"/>
<polygon fill="midnightblue" stroke="midnightblue" points="124.19,-167.8 134.16,-171.39 128.6,-162.37 124.19,-167.8"/>
</g>
<!-- Node14 -->
<g id="node14" class="node">
<title>Node14</title>
<g id="a_node14"><a xlink:href="namespaceconsole_1_1out.html#ac6f663e3971b66b8e130ee94755a150e" target="_top" xlink:title=" ">
<polygon fill="white" stroke="black" points="648.5,-342.5 648.5,-361.5 743.5,-361.5 743.5,-342.5 648.5,-342.5"/>
<text text-anchor="middle" x="696" y="-349.5" font-family="Helvetica,sans-Serif" font-size="10.00">console::out::print</text>
</a>
</g>
</g>
<!-- Node1&#45;&gt;Node14 -->
<g id="edge53" class="edge">
<title>Node1&#45;&gt;Node14</title>
<path fill="none" stroke="midnightblue" d="M31.26,-95.5C45.02,-150.74 122.75,-428 296.5,-428 296.5,-428 296.5,-428 445.5,-428 529.45,-428 622.66,-388.14 667.69,-366.15"/>
<polygon fill="midnightblue" stroke="midnightblue" points="669.41,-369.21 676.8,-361.63 666.29,-362.94 669.41,-369.21"/>
</g>
<!-- Node36 -->
<g id="node36" class="node">
<title>Node36</title>
<g id="a_node36"><a xlink:href="stdlib_8hh.html#ab9656f5950c15e0f988c0cde1c3c07dd" target="_top" xlink:title=" ">
<polygon fill="white" stroke="black" points="274,-76.5 274,-95.5 321,-95.5 321,-76.5 274,-76.5"/>
<text text-anchor="middle" x="297.5" y="-83.5" font-family="Helvetica,sans-Serif" font-size="10.00">syscall</text>
</a>
</g>
</g>
<!-- Node1&#45;&gt;Node36 -->
<g id="edge55" class="edge">
<title>Node1&#45;&gt;Node36</title>
<path fill="none" stroke="midnightblue" d="M56.12,-86C105.58,-86 210.23,-86 263.64,-86"/>
<polygon fill="midnightblue" stroke="midnightblue" points="263.92,-89.5 273.92,-86 263.92,-82.5 263.92,-89.5"/>
</g>
<!-- Node37 -->
<g id="node37" class="node">
<title>Node37</title>
<g id="a_node37"><a xlink:href="x86_8h.html#a895ef9dc493c64a441395eb3765ee110" target="_top" xlink:title=" ">
<polygon fill="white" stroke="black" points="113.5,-0.5 113.5,-19.5 180.5,-19.5 180.5,-0.5 113.5,-0.5"/>
<text text-anchor="middle" x="147" y="-7.5" font-family="Helvetica,sans-Serif" font-size="10.00">read_eflags</text>
</a>
</g>
</g>
<!-- Node1&#45;&gt;Node37 -->
<g id="edge54" class="edge">
<title>Node1&#45;&gt;Node37</title>
<path fill="none" stroke="midnightblue" d="M39.03,-76.24C50.94,-65.01 71.74,-46.54 92,-34 98.04,-30.26 104.76,-26.79 111.35,-23.72"/>
<polygon fill="midnightblue" stroke="midnightblue" points="113.1,-26.77 120.82,-19.51 110.26,-20.37 113.1,-26.77"/>
</g>
<!-- Node3 -->
<g id="node3" class="node">
<title>Node3</title>
<g id="a_node3"><a xlink:href="namespacemonitor.html#a318993193c866642f8389a1c1f285739" target="_top" xlink:title=" ">
<polygon fill="white" stroke="black" points="1413,-138.5 1413,-157.5 1487,-157.5 1487,-138.5 1413,-138.5"/>
<text text-anchor="middle" x="1450" y="-145.5" font-family="Helvetica,sans-Serif" font-size="10.00">monitor::fuck</text>
</a>
</g>
</g>
<!-- Node2&#45;&gt;Node3 -->
<g id="edge2" class="edge">
<title>Node2&#45;&gt;Node3</title>
<path fill="none" stroke="midnightblue" d="M1322.78,-148C1344.62,-148 1376.46,-148 1402.7,-148"/>
<polygon fill="midnightblue" stroke="midnightblue" points="1402.82,-151.5 1412.82,-148 1402.82,-144.5 1402.82,-151.5"/>
</g>
<!-- Node4&#45;&gt;Node2 -->
<g id="edge42" class="edge">
<title>Node4&#45;&gt;Node2</title>
<path fill="none" stroke="midnightblue" d="M202.06,-174.04C282.08,-164.36 436.85,-148 569,-148 569,-148 569,-148 989,-148 1086.57,-148 1201.64,-148 1258.88,-148"/>
<polygon fill="midnightblue" stroke="midnightblue" points="1259.21,-151.5 1269.21,-148 1259.21,-144.5 1259.21,-151.5"/>
</g>
<!-- Node5 -->
<g id="node5" class="node">
<title>Node5</title>
<g id="a_node5"><a xlink:href="x86_8h.html#a7212dae3820e33d3e65b624a9fee1b04" target="_top" xlink:title=" ">
<polygon fill="white" stroke="black" points="266.5,-114.5 266.5,-133.5 328.5,-133.5 328.5,-114.5 266.5,-114.5"/>
<text text-anchor="middle" x="297.5" y="-121.5" font-family="Helvetica,sans-Serif" font-size="10.00">breakpoint</text>
</a>
</g>
</g>
<!-- Node4&#45;&gt;Node5 -->
<g id="edge4" class="edge">
<title>Node4&#45;&gt;Node5</title>
<path fill="none" stroke="midnightblue" d="M172.86,-171.46C197.27,-162.09 234.72,-147.71 262.01,-137.24"/>
<polygon fill="midnightblue" stroke="midnightblue" points="263.48,-140.42 271.56,-133.57 260.97,-133.89 263.48,-140.42"/>
</g>
<!-- Node6 -->
<g id="node6" class="node">
<title>Node6</title>
<g id="a_node6"><a xlink:href="namespacetrap_1_1handler.html#aa067cfbe3cae2802d8b48a14d125daa3" target="_top" xlink:title=" ">
<polygon fill="white" stroke="black" points="393,-228.5 393,-247.5 496,-247.5 496,-228.5 393,-228.5"/>
<text text-anchor="middle" x="444.5" y="-235.5" font-family="Helvetica,sans-Serif" font-size="10.00">trap::handler::debug</text>
</a>
</g>
</g>
<!-- Node4&#45;&gt;Node6 -->
<g id="edge5" class="edge">
<title>Node4&#45;&gt;Node6</title>
<path fill="none" stroke="midnightblue" d="M169.75,-190.62C187.7,-198.15 214.04,-208.29 238,-214 285.83,-225.39 341.28,-231.47 382.51,-234.65"/>
<polygon fill="midnightblue" stroke="midnightblue" points="382.44,-238.15 392.67,-235.4 382.96,-231.17 382.44,-238.15"/>
</g>
<!-- Node7 -->
<g id="node7" class="node">
<title>Node7</title>
<g id="a_node7"><a xlink:href="namespacemonitor.html#ac02f947e274eb7d38cdfa803c21ef579" target="_top" xlink:title=" ">
<polygon fill="white" stroke="black" points="532,-190.5 532,-209.5 608,-209.5 608,-190.5 532,-190.5"/>
<text text-anchor="middle" x="570" y="-197.5" font-family="Helvetica,sans-Serif" font-size="10.00">monitor::main</text>
</a>
</g>
</g>
<!-- Node4&#45;&gt;Node7 -->
<g id="edge43" class="edge">
<title>Node4&#45;&gt;Node7</title>
<path fill="none" stroke="midnightblue" d="M202.18,-183.45C285.28,-187.2 442.85,-194.31 521.65,-197.86"/>
<polygon fill="midnightblue" stroke="midnightblue" points="521.62,-201.37 531.77,-198.32 521.94,-194.37 521.62,-201.37"/>
</g>
<!-- Node4&#45;&gt;Node14 -->
<g id="edge51" class="edge">
<title>Node4&#45;&gt;Node14</title>
<path fill="none" stroke="midnightblue" d="M159.98,-190.68C176.49,-203.48 207.64,-225.71 238,-237 394.01,-295.02 455.8,-227.61 608,-295 626.79,-303.32 626.93,-312.57 644,-324 651.08,-328.74 659.03,-333.4 666.52,-337.51"/>
<polygon fill="midnightblue" stroke="midnightblue" points="665.17,-340.76 675.64,-342.4 668.48,-334.59 665.17,-340.76"/>
</g>
<!-- Node32 -->
<g id="node32" class="node">
<title>Node32</title>
<g id="a_node32"><a xlink:href="namespacetrap_1_1handler.html#a65cff701e96f1293ec6f8dcb105724a5" target="_top" xlink:title=" ">
<polygon fill="white" stroke="black" points="238,-323.5 238,-342.5 357,-342.5 357,-323.5 238,-323.5"/>
<text text-anchor="middle" x="297.5" y="-330.5" font-family="Helvetica,sans-Serif" font-size="10.00">trap::handler::pageFault</text>
</a>
</g>
</g>
<!-- Node4&#45;&gt;Node32 -->
<g id="edge44" class="edge">
<title>Node4&#45;&gt;Node32</title>
<path fill="none" stroke="midnightblue" d="M154.75,-190.71C168.86,-210.62 203.04,-256.96 238,-290 248.7,-300.11 261.81,-309.95 272.91,-317.65"/>
<polygon fill="midnightblue" stroke="midnightblue" points="271.05,-320.62 281.29,-323.34 274.98,-314.83 271.05,-320.62"/>
</g>
<!-- Node4&#45;&gt;Node36 -->
<g id="edge52" class="edge">
<title>Node4&#45;&gt;Node36</title>
<path fill="none" stroke="midnightblue" d="M156.81,-171.46C171.96,-155.57 204.58,-123.59 238,-105 246.14,-100.47 255.52,-96.83 264.35,-93.99"/>
<polygon fill="midnightblue" stroke="midnightblue" points="265.41,-97.32 273.99,-91.12 263.41,-90.61 265.41,-97.32"/>
</g>
<!-- Node6&#45;&gt;Node7 -->
<g id="edge6" class="edge">
<title>Node6&#45;&gt;Node7</title>
<path fill="none" stroke="midnightblue" d="M476.66,-228.41C492.31,-223.6 511.47,-217.7 528.27,-212.53"/>
<polygon fill="midnightblue" stroke="midnightblue" points="529.32,-215.87 537.85,-209.59 527.26,-209.18 529.32,-215.87"/>
</g>
<!-- Node6&#45;&gt;Node14 -->
<g id="edge41" class="edge">
<title>Node6&#45;&gt;Node14</title>
<path fill="none" stroke="midnightblue" d="M496.11,-234.52C530.42,-234.63 575.31,-239.84 608,-262 634.38,-279.88 621.2,-301.74 644,-324 649.37,-329.24 655.91,-333.79 662.5,-337.62"/>
<polygon fill="midnightblue" stroke="midnightblue" points="660.93,-340.75 671.4,-342.39 664.23,-334.58 660.93,-340.75"/>
</g>
<!-- Node8 -->
<g id="node8" class="node">
<title>Node8</title>
<g id="a_node8"><a xlink:href="namespacemonitor.html#a8b88ed0586263051a6af8dbff388e314" target="_top" xlink:title=" ">
<polygon fill="white" stroke="black" points="646,-190.5 646,-209.5 746,-209.5 746,-190.5 646,-190.5"/>
<text text-anchor="middle" x="696" y="-197.5" font-family="Helvetica,sans-Serif" font-size="10.00">monitor::parseCmd</text>
</a>
</g>
</g>
<!-- Node7&#45;&gt;Node8 -->
<g id="edge7" class="edge">
<title>Node7&#45;&gt;Node8</title>
<path fill="none" stroke="midnightblue" d="M608.2,-200C616.9,-200 626.38,-200 635.77,-200"/>
<polygon fill="midnightblue" stroke="midnightblue" points="635.88,-203.5 645.88,-200 635.88,-196.5 635.88,-203.5"/>
</g>
<!-- Node7&#45;&gt;Node14 -->
<g id="edge13" class="edge">
<title>Node7&#45;&gt;Node14</title>
<path fill="none" stroke="midnightblue" d="M590.94,-209.66C597.09,-213.43 603.43,-218.24 608,-224 637.35,-261.01 613.31,-288.09 644,-324 648.54,-329.31 654.35,-333.8 660.42,-337.52"/>
<polygon fill="midnightblue" stroke="midnightblue" points="658.92,-340.69 669.37,-342.43 662.28,-334.55 658.92,-340.69"/>
</g>
<!-- Node27 -->
<g id="node27" class="node">
<title>Node27</title>
<g id="a_node27"><a xlink:href="namespaceconsole_1_1err.html#a124c7e8527c0e3fd2b9636411aea7e82" target="_top" xlink:title=" ">
<polygon fill="white" stroke="black" points="650,-238.5 650,-257.5 742,-257.5 742,-238.5 650,-238.5"/>
<text text-anchor="middle" x="696" y="-245.5" font-family="Helvetica,sans-Serif" font-size="10.00">console::err::print</text>
</a>
</g>
</g>
<!-- Node7&#45;&gt;Node27 -->
<g id="edge32" class="edge">
<title>Node7&#45;&gt;Node27</title>
<path fill="none" stroke="midnightblue" d="M595.8,-209.6C614.47,-216.83 640.28,-226.82 660.89,-234.8"/>
<polygon fill="midnightblue" stroke="midnightblue" points="659.66,-238.07 670.25,-238.42 662.19,-231.54 659.66,-238.07"/>
</g>
<!-- Node29 -->
<g id="node29" class="node">
<title>Node29</title>
<g id="a_node29"><a xlink:href="namespaceconsole_1_1in.html#afa763e7729f2e6fbdcf4c14e44ad7a29" target="_top" xlink:title=" ">
<polygon fill="white" stroke="black" points="644,-295.5 644,-314.5 748,-314.5 748,-295.5 644,-295.5"/>
<text text-anchor="middle" x="696" y="-302.5" font-family="Helvetica,sans-Serif" font-size="10.00">console::in::readline</text>
</a>
</g>
</g>
<!-- Node7&#45;&gt;Node29 -->
<g id="edge36" class="edge">
<title>Node7&#45;&gt;Node29</title>
<path fill="none" stroke="midnightblue" d="M587.96,-209.52C594.53,-213.58 601.92,-218.62 608,-224 626.66,-240.52 625.88,-249.88 644,-267 652.51,-275.05 662.73,-282.95 671.78,-289.45"/>
<polygon fill="midnightblue" stroke="midnightblue" points="669.8,-292.33 680,-295.2 673.81,-286.6 669.8,-292.33"/>
</g>
<!-- Node9 -->
<g id="node9" class="node">
<title>Node9</title>
<g id="a_node9"><a xlink:href="namespacestr.html#ace5edf7e67a558a1c4ead28a66faba41" target="_top" xlink:title=" ">
<polygon fill="white" stroke="black" points="803.5,-214.5 803.5,-233.5 879.5,-233.5 879.5,-214.5 803.5,-214.5"/>
<text text-anchor="middle" x="841.5" y="-221.5" font-family="Helvetica,sans-Serif" font-size="10.00">str::cmpCase</text>
</a>
</g>
</g>
<!-- Node8&#45;&gt;Node9 -->
<g id="edge8" class="edge">
<title>Node8&#45;&gt;Node9</title>
<path fill="none" stroke="midnightblue" d="M746.38,-208.26C761.54,-210.79 778.16,-213.57 793.17,-216.08"/>
<polygon fill="midnightblue" stroke="midnightblue" points="792.83,-219.58 803.27,-217.77 793.98,-212.67 792.83,-219.58"/>
</g>
<!-- Node10 -->
<g id="node10" class="node">
<title>Node10</title>
<g id="a_node10"><a xlink:href="namespacestr.html#a12522233f7d73122d76de5c82e44a183" target="_top" xlink:title=" ">
<polygon fill="white" stroke="black" points="808,-176.5 808,-195.5 875,-195.5 875,-176.5 808,-176.5"/>
<text text-anchor="middle" x="841.5" y="-183.5" font-family="Helvetica,sans-Serif" font-size="10.00">str::splitWs</text>
</a>
</g>
</g>
<!-- Node8&#45;&gt;Node10 -->
<g id="edge9" class="edge">
<title>Node8&#45;&gt;Node10</title>
<path fill="none" stroke="midnightblue" d="M746.38,-195.18C763.01,-193.56 781.42,-191.76 797.51,-190.19"/>
<polygon fill="midnightblue" stroke="midnightblue" points="798.1,-193.65 807.71,-189.2 797.42,-186.69 798.1,-193.65"/>
</g>
<!-- Node11 -->
<g id="node11" class="node">
<title>Node11</title>
<g id="a_node11"><a xlink:href="namespacestr.html#a0e183e333ba05550c6b206906dbf0f10" target="_top" xlink:title=" ">
<polygon fill="white" stroke="black" points="962,-176.5 962,-195.5 1014,-195.5 1014,-176.5 962,-176.5"/>
<text text-anchor="middle" x="988" y="-183.5" font-family="Helvetica,sans-Serif" font-size="10.00">str::split</text>
</a>
</g>
</g>
<!-- Node10&#45;&gt;Node11 -->
<g id="edge10" class="edge">
<title>Node10&#45;&gt;Node11</title>
<path fill="none" stroke="midnightblue" d="M875.29,-186C898.11,-186 928.5,-186 951.82,-186"/>
<polygon fill="midnightblue" stroke="midnightblue" points="951.99,-189.5 961.99,-186 951.99,-182.5 951.99,-189.5"/>
</g>
<!-- Node12 -->
<g id="node12" class="node">
<title>Node12</title>
<g id="a_node12"><a xlink:href="namespacestr.html#a062221f630647cf300f0dd982c4ed904" target="_top" xlink:title=" ">
<polygon fill="white" stroke="black" points="1873,-252.5 1873,-271.5 1931,-271.5 1931,-252.5 1873,-252.5"/>
<text text-anchor="middle" x="1902" y="-259.5" font-family="Helvetica,sans-Serif" font-size="10.00">str::count</text>
</a>
</g>
</g>
<!-- Node11&#45;&gt;Node12 -->
<g id="edge11" class="edge">
<title>Node11&#45;&gt;Node12</title>
<path fill="none" stroke="midnightblue" d="M1014.39,-186C1066.82,-186 1190.88,-186 1295,-186 1295,-186 1295,-186 1602,-186 1702.34,-186 1815.95,-226.7 1869.67,-248.53"/>
<polygon fill="midnightblue" stroke="midnightblue" points="1868.4,-251.8 1878.98,-252.37 1871.07,-245.33 1868.4,-251.8"/>
</g>
<!-- Node13 -->
<g id="node13" class="node">
<title>Node13</title>
<g id="a_node13"><a xlink:href="namespacestr.html#a4b4d986113337f946299cef82449cf52" target="_top" xlink:title=" ">
<polygon fill="white" stroke="black" points="1112,-214.5 1112,-233.5 1162,-233.5 1162,-214.5 1112,-214.5"/>
<text text-anchor="middle" x="1137" y="-221.5" font-family="Helvetica,sans-Serif" font-size="10.00">str::find</text>
</a>
</g>
</g>
<!-- Node11&#45;&gt;Node13 -->
<g id="edge12" class="edge">
<title>Node11&#45;&gt;Node13</title>
<path fill="none" stroke="midnightblue" d="M1014.27,-192.53C1038.44,-198.78 1075.06,-208.25 1101.82,-215.16"/>
<polygon fill="midnightblue" stroke="midnightblue" points="1100.99,-218.56 1111.55,-217.68 1102.74,-211.79 1100.99,-218.56"/>
</g>
<!-- Node15 -->
<g id="node15" class="node">
<title>Node15</title>
<g id="a_node15"><a xlink:href="namespaceconsole_1_1out.html#a8f791bfac54067cadb1b9f18117b987b" target="_top" xlink:title=" ">
<polygon fill="white" stroke="black" points="935,-480.5 935,-499.5 1041,-499.5 1041,-480.5 935,-480.5"/>
<text text-anchor="middle" x="988" y="-487.5" font-family="Helvetica,sans-Serif" font-size="10.00">console::out::printVa</text>
</a>
</g>
</g>
<!-- Node14&#45;&gt;Node15 -->
<g id="edge14" class="edge">
<title>Node14&#45;&gt;Node15</title>
<path fill="none" stroke="midnightblue" d="M703.35,-361.73C716.19,-380.58 747.15,-422.02 784,-443 827.27,-467.64 882.7,-479.37 924.7,-484.95"/>
<polygon fill="midnightblue" stroke="midnightblue" points="924.45,-488.45 934.8,-486.21 925.31,-481.5 924.45,-488.45"/>
</g>
<!-- Node16 -->
<g id="node16" class="node">
<title>Node16</title>
<g id="a_node16"><a xlink:href="namespaceconsole_1_1ge.html#af642934cb833142f133285fdb75ef7b7" target="_top" xlink:title=" ">
<polygon fill="white" stroke="black" points="1077,-309.5 1077,-328.5 1197,-328.5 1197,-309.5 1077,-309.5"/>
<text text-anchor="middle" x="1137" y="-316.5" font-family="Helvetica,sans-Serif" font-size="10.00">console::ge::printFmtVa</text>
</a>
</g>
</g>
<!-- Node15&#45;&gt;Node16 -->
<g id="edge15" class="edge">
<title>Node15&#45;&gt;Node16</title>
<path fill="none" stroke="midnightblue" d="M997.97,-480.44C1008.44,-469.21 1026.21,-449.96 1041,-433 1070.3,-399.4 1103.39,-359.14 1121.76,-336.57"/>
<polygon fill="midnightblue" stroke="midnightblue" points="1124.67,-338.55 1128.26,-328.58 1119.24,-334.13 1124.67,-338.55"/>
</g>
<!-- Node20 -->
<g id="node20" class="node">
<title>Node20</title>
<g id="a_node20"><a xlink:href="namespaceconsole_1_1out.html#ad9fc97dff4404c2d21aedbb24691e7cb" target="_top" xlink:title=" ">
<polygon fill="white" stroke="black" points="1395,-394.5 1395,-413.5 1505,-413.5 1505,-394.5 1395,-394.5"/>
<text text-anchor="middle" x="1450" y="-401.5" font-family="Helvetica,sans-Serif" font-size="10.00">console::out::putChar</text>
</a>
</g>
</g>
<!-- Node15&#45;&gt;Node20 -->
<g id="edge31" class="edge">
<title>Node15&#45;&gt;Node20</title>
<path fill="none" stroke="midnightblue" d="M1041.28,-495.16C1114.54,-500.5 1250.9,-503.51 1359,-466 1387.04,-456.27 1414.41,-435.29 1431.46,-420.43"/>
<polygon fill="midnightblue" stroke="midnightblue" points="1433.85,-422.99 1438.97,-413.71 1429.18,-417.78 1433.85,-422.99"/>
</g>
<!-- Node16&#45;&gt;Node2 -->
<g id="edge19" class="edge">
<title>Node16&#45;&gt;Node2</title>
<path fill="none" stroke="midnightblue" d="M1146.89,-309.32C1172.47,-281.45 1246.52,-200.8 1279.19,-165.22"/>
<polygon fill="midnightblue" stroke="midnightblue" points="1282.02,-167.31 1286.21,-157.58 1276.87,-162.58 1282.02,-167.31"/>
</g>
<!-- Node16&#45;&gt;Node12 -->
<g id="edge18" class="edge">
<title>Node16&#45;&gt;Node12</title>
<path fill="none" stroke="midnightblue" d="M1157.1,-309.42C1175.91,-300.46 1205.7,-287.51 1233,-281 1326.74,-258.64 1352.63,-262 1449,-262 1449,-262 1449,-262 1602,-262 1695.63,-262 1805.76,-262 1862.65,-262"/>
<polygon fill="midnightblue" stroke="midnightblue" points="1862.97,-265.5 1872.97,-262 1862.97,-258.5 1862.97,-265.5"/>
</g>
<!-- Node17 -->
<g id="node17" class="node">
<title>Node17</title>
<g id="a_node17"><a xlink:href="printfmt_8cc.html#a708ec6ee2b8bd2d7a453d8d9436ed3b3" target="_top" xlink:title=" ">
<polygon fill="white" stroke="black" points="1267,-366.5 1267,-385.5 1325,-385.5 1325,-366.5 1267,-366.5"/>
<text text-anchor="middle" x="1296" y="-373.5" font-family="Helvetica,sans-Serif" font-size="10.00">_getIntVa</text>
</a>
</g>
</g>
<!-- Node16&#45;&gt;Node17 -->
<g id="edge16" class="edge">
<title>Node16&#45;&gt;Node17</title>
<path fill="none" stroke="midnightblue" d="M1164.28,-328.54C1190.2,-337.95 1230.03,-352.41 1258.92,-362.9"/>
<polygon fill="midnightblue" stroke="midnightblue" points="1258.04,-366.31 1268.64,-366.43 1260.43,-359.73 1258.04,-366.31"/>
</g>
<!-- Node18 -->
<g id="node18" class="node">
<title>Node18</title>
<g id="a_node18"><a xlink:href="printfmt_8cc.html#af4b46892c76c8bfd27efdb20847eb7c8" target="_top" xlink:title=" ">
<polygon fill="white" stroke="black" points="1263.5,-290.5 1263.5,-309.5 1328.5,-309.5 1328.5,-290.5 1263.5,-290.5"/>
<text text-anchor="middle" x="1296" y="-297.5" font-family="Helvetica,sans-Serif" font-size="10.00">_getUIntVa</text>
</a>
</g>
</g>
<!-- Node16&#45;&gt;Node18 -->
<g id="edge17" class="edge">
<title>Node16&#45;&gt;Node18</title>
<path fill="none" stroke="midnightblue" d="M1197.35,-311.82C1215.91,-309.57 1235.98,-307.14 1253.07,-305.07"/>
<polygon fill="midnightblue" stroke="midnightblue" points="1253.78,-308.51 1263.29,-303.84 1252.94,-301.56 1253.78,-308.51"/>
</g>
<!-- Node19 -->
<g id="node19" class="node">
<title>Node19</title>
<g id="a_node19"><a xlink:href="namespaceconsole_1_1ge.html#a7e301813fd34fde772376afc5fdad95d" target="_top" xlink:title=" ">
<polygon fill="white" stroke="black" points="1233,-404.5 1233,-423.5 1359,-423.5 1359,-404.5 1233,-404.5"/>
<text text-anchor="middle" x="1296" y="-411.5" font-family="Helvetica,sans-Serif" font-size="10.00">console::ge::printNumber</text>
</a>
</g>
</g>
<!-- Node16&#45;&gt;Node19 -->
<g id="edge20" class="edge">
<title>Node16&#45;&gt;Node19</title>
<path fill="none" stroke="midnightblue" d="M1147.37,-328.57C1163.48,-344.5 1198.08,-376.55 1233,-395 1237.2,-397.22 1241.69,-399.22 1246.27,-401.02"/>
<polygon fill="midnightblue" stroke="midnightblue" points="1245.14,-404.33 1255.73,-404.42 1247.51,-397.74 1245.14,-404.33"/>
</g>
<!-- Node16&#45;&gt;Node20 -->
<g id="edge30" class="edge">
<title>Node16&#45;&gt;Node20</title>
<path fill="none" stroke="midnightblue" d="M1197.39,-324.15C1242.6,-329.28 1305.89,-339.06 1359,-357 1382.53,-364.95 1407.42,-378.39 1425.05,-388.86"/>
<polygon fill="midnightblue" stroke="midnightblue" points="1423.68,-392.12 1434.04,-394.32 1427.31,-386.14 1423.68,-392.12"/>
</g>
<!-- Node19&#45;&gt;Node20 -->
<g id="edge21" class="edge">
<title>Node19&#45;&gt;Node20</title>
<path fill="none" stroke="midnightblue" d="M1359.26,-409.9C1367.66,-409.35 1376.28,-408.78 1384.71,-408.23"/>
<polygon fill="midnightblue" stroke="midnightblue" points="1385.11,-411.71 1394.86,-407.56 1384.65,-404.73 1385.11,-411.71"/>
</g>
<!-- Node21 -->
<g id="node21" class="node">
<title>Node21</title>
<g id="a_node21"><a xlink:href="namespaceconsole_1_1serial.html#a3a7c1f95ae3c24136ea63bb31fdf0391" target="_top" xlink:title=" ">
<polygon fill="white" stroke="black" points="1541,-394.5 1541,-413.5 1661,-413.5 1661,-394.5 1541,-394.5"/>
<text text-anchor="middle" x="1601" y="-401.5" font-family="Helvetica,sans-Serif" font-size="10.00">console::serial::putChar</text>
</a>
</g>
</g>
<!-- Node20&#45;&gt;Node21 -->
<g id="edge22" class="edge">
<title>Node20&#45;&gt;Node21</title>
<path fill="none" stroke="midnightblue" d="M1505.21,-404C1513.53,-404 1522.2,-404 1530.79,-404"/>
<polygon fill="midnightblue" stroke="midnightblue" points="1530.79,-407.5 1540.79,-404 1530.79,-400.5 1530.79,-407.5"/>
</g>
<!-- Node24 -->
<g id="node24" class="node">
<title>Node24</title>
<g id="a_node24"><a xlink:href="namespaceconsole_1_1cga.html#afa19057ca041b39682d5d4831c43dfa0" target="_top" xlink:title=" ">
<polygon fill="white" stroke="black" points="1544.5,-356.5 1544.5,-375.5 1657.5,-375.5 1657.5,-356.5 1544.5,-356.5"/>
<text text-anchor="middle" x="1601" y="-363.5" font-family="Helvetica,sans-Serif" font-size="10.00">console::cga::putChar</text>
</a>
</g>
</g>
<!-- Node20&#45;&gt;Node24 -->
<g id="edge25" class="edge">
<title>Node20&#45;&gt;Node24</title>
<path fill="none" stroke="midnightblue" d="M1488.6,-394.41C1508.08,-389.44 1532.07,-383.32 1552.8,-378.04"/>
<polygon fill="midnightblue" stroke="midnightblue" points="1553.85,-381.38 1562.67,-375.52 1552.12,-374.6 1553.85,-381.38"/>
</g>
<!-- Node22 -->
<g id="node22" class="node">
<title>Node22</title>
<g id="a_node22"><a xlink:href="namespaceconsole_1_1serial.html#aa5605d4537106bb1c2bab72d7d1a5824" target="_top" xlink:title=" ">
<polygon fill="white" stroke="black" points="1715,-394.5 1715,-413.5 1819,-413.5 1819,-394.5 1715,-394.5"/>
<text text-anchor="middle" x="1767" y="-401.5" font-family="Helvetica,sans-Serif" font-size="10.00">console::serial::sout</text>
</a>
</g>
</g>
<!-- Node21&#45;&gt;Node22 -->
<g id="edge23" class="edge">
<title>Node21&#45;&gt;Node22</title>
<path fill="none" stroke="midnightblue" d="M1661.21,-404C1675.31,-404 1690.39,-404 1704.59,-404"/>
<polygon fill="midnightblue" stroke="midnightblue" points="1704.74,-407.5 1714.74,-404 1704.74,-400.5 1704.74,-407.5"/>
</g>
<!-- Node23 -->
<g id="node23" class="node">
<title>Node23</title>
<g id="a_node23"><a xlink:href="x86_8h.html#ade961b44e45ddacbc3c3b7609cf36dc6" target="_top" xlink:title=" ">
<polygon fill="white" stroke="black" points="1884.5,-375.5 1884.5,-394.5 1919.5,-394.5 1919.5,-375.5 1884.5,-375.5"/>
<text text-anchor="middle" x="1902" y="-382.5" font-family="Helvetica,sans-Serif" font-size="10.00">outb</text>
</a>
</g>
</g>
<!-- Node22&#45;&gt;Node23 -->
<g id="edge24" class="edge">
<title>Node22&#45;&gt;Node23</title>
<path fill="none" stroke="midnightblue" d="M1819.04,-396.71C1837.85,-394.02 1858.4,-391.09 1874.22,-388.83"/>
<polygon fill="midnightblue" stroke="midnightblue" points="1874.94,-392.26 1884.34,-387.38 1873.95,-385.33 1874.94,-392.26"/>
</g>
<!-- Node25 -->
<g id="node25" class="node">
<title>Node25</title>
<g id="a_node25"><a xlink:href="namespacemem.html#a64d9d05b439041901498c606de606431" target="_top" xlink:title=" ">
<polygon fill="white" stroke="black" points="1734.5,-309.5 1734.5,-328.5 1799.5,-328.5 1799.5,-309.5 1734.5,-309.5"/>
<text text-anchor="middle" x="1767" y="-316.5" font-family="Helvetica,sans-Serif" font-size="10.00">mem::copy</text>
</a>
</g>
</g>
<!-- Node24&#45;&gt;Node25 -->
<g id="edge26" class="edge">
<title>Node24&#45;&gt;Node25</title>
<path fill="none" stroke="midnightblue" d="M1635.19,-356.49C1660.95,-349.11 1696.81,-338.83 1724.47,-330.9"/>
<polygon fill="midnightblue" stroke="midnightblue" points="1725.61,-334.22 1734.25,-328.1 1723.68,-327.49 1725.61,-334.22"/>
</g>
<!-- Node26 -->
<g id="node26" class="node">
<title>Node26</title>
<g id="a_node26"><a xlink:href="namespaceconsole_1_1cga.html#a06463d4dc68819e30615ba299d02a78f" target="_top" xlink:title=" ">
<polygon fill="white" stroke="black" points="1697,-356.5 1697,-375.5 1837,-375.5 1837,-356.5 1697,-356.5"/>
<text text-anchor="middle" x="1767" y="-363.5" font-family="Helvetica,sans-Serif" font-size="10.00">console::cga::cursorRefresh</text>
</a>
</g>
</g>
<!-- Node24&#45;&gt;Node26 -->
<g id="edge28" class="edge">
<title>Node24&#45;&gt;Node26</title>
<path fill="none" stroke="midnightblue" d="M1657.52,-366C1666.9,-366 1676.8,-366 1686.65,-366"/>
<polygon fill="midnightblue" stroke="midnightblue" points="1686.87,-369.5 1696.87,-366 1686.87,-362.5 1686.87,-369.5"/>
</g>
<!-- Node25&#45;&gt;Node12 -->
<g id="edge27" class="edge">
<title>Node25&#45;&gt;Node12</title>
<path fill="none" stroke="midnightblue" d="M1790.26,-309.46C1811.94,-300.17 1845.08,-285.96 1869.47,-275.51"/>
<polygon fill="midnightblue" stroke="midnightblue" points="1870.85,-278.73 1878.67,-271.57 1868.1,-272.29 1870.85,-278.73"/>
</g>
<!-- Node26&#45;&gt;Node23 -->
<g id="edge29" class="edge">
<title>Node26&#45;&gt;Node23</title>
<path fill="none" stroke="midnightblue" d="M1834.89,-375.56C1848.81,-377.54 1862.71,-379.53 1874.15,-381.16"/>
<polygon fill="midnightblue" stroke="midnightblue" points="1873.88,-384.66 1884.28,-382.61 1874.87,-377.73 1873.88,-384.66"/>
</g>
<!-- Node28 -->
<g id="node28" class="node">
<title>Node28</title>
<g id="a_node28"><a xlink:href="namespaceconsole_1_1err.html#a4cd18e4c409b5b17ecec61ce83b05fba" target="_top" xlink:title=" ">
<polygon fill="white" stroke="black" points="936,-252.5 936,-271.5 1040,-271.5 1040,-252.5 936,-252.5"/>
<text text-anchor="middle" x="988" y="-259.5" font-family="Helvetica,sans-Serif" font-size="10.00">console::err::printVa</text>
</a>
</g>
</g>
<!-- Node27&#45;&gt;Node28 -->
<g id="edge33" class="edge">
<title>Node27&#45;&gt;Node28</title>
<path fill="none" stroke="midnightblue" d="M742.31,-250.19C791.55,-252.56 870.51,-256.38 925.36,-259.02"/>
<polygon fill="midnightblue" stroke="midnightblue" points="925.5,-262.53 935.65,-259.52 925.84,-255.54 925.5,-262.53"/>
</g>
<!-- Node28&#45;&gt;Node16 -->
<g id="edge34" class="edge">
<title>Node28&#45;&gt;Node16</title>
<path fill="none" stroke="midnightblue" d="M1013.6,-271.54C1037.77,-280.91 1074.85,-295.29 1101.86,-305.76"/>
<polygon fill="midnightblue" stroke="midnightblue" points="1100.73,-309.08 1111.32,-309.43 1103.26,-302.55 1100.73,-309.08"/>
</g>
<!-- Node28&#45;&gt;Node20 -->
<g id="edge35" class="edge">
<title>Node28&#45;&gt;Node20</title>
<path fill="none" stroke="midnightblue" d="M1040.07,-259.32C1128.4,-255.54 1305.38,-252.04 1359,-281 1401.51,-303.96 1429.16,-356.73 1441.53,-385.12"/>
<polygon fill="midnightblue" stroke="midnightblue" points="1438.31,-386.49 1445.39,-394.37 1444.77,-383.79 1438.31,-386.49"/>
</g>
<!-- Node30 -->
<g id="node30" class="node">
<title>Node30</title>
<g id="a_node30"><a xlink:href="namespaceconsole_1_1in.html#ac28354dad0498aa6bb0c178b10d62c8a" target="_top" xlink:title=" ">
<polygon fill="white" stroke="black" points="784,-414.5 784,-433.5 899,-433.5 899,-414.5 784,-414.5"/>
<text text-anchor="middle" x="841.5" y="-421.5" font-family="Helvetica,sans-Serif" font-size="10.00">console::in::readlineVa</text>
</a>
</g>
</g>
<!-- Node29&#45;&gt;Node30 -->
<g id="edge37" class="edge">
<title>Node29&#45;&gt;Node30</title>
<path fill="none" stroke="midnightblue" d="M717.64,-314.69C727.25,-319.6 738.6,-326.01 748,-333 778.07,-355.37 808.13,-387.1 825.48,-406.58"/>
<polygon fill="midnightblue" stroke="midnightblue" points="823.08,-409.15 832.31,-414.35 828.34,-404.53 823.08,-409.15"/>
</g>
<!-- Node30&#45;&gt;Node15 -->
<g id="edge39" class="edge">
<title>Node30&#45;&gt;Node15</title>
<path fill="none" stroke="midnightblue" d="M863.51,-433.6C888.02,-444.79 928.73,-463.38 956.66,-476.14"/>
<polygon fill="midnightblue" stroke="midnightblue" points="955.41,-479.42 965.96,-480.39 958.32,-473.05 955.41,-479.42"/>
</g>
<!-- Node30&#45;&gt;Node20 -->
<g id="edge40" class="edge">
<title>Node30&#45;&gt;Node20</title>
<path fill="none" stroke="midnightblue" d="M899.12,-431.33C994.63,-442.28 1193.55,-459 1359,-433 1378.66,-429.91 1399.88,-423.25 1416.77,-417.08"/>
<polygon fill="midnightblue" stroke="midnightblue" points="1418.05,-420.34 1426.17,-413.54 1415.58,-413.79 1418.05,-420.34"/>
</g>
<!-- Node31 -->
<g id="node31" class="node">
<title>Node31</title>
<g id="a_node31"><a xlink:href="namespaceconsole_1_1in.html#a6fc069f2bc57fda183e3b991c31ec5a7" target="_top" xlink:title=" ">
<polygon fill="white" stroke="black" points="936,-404.5 936,-423.5 1040,-423.5 1040,-404.5 936,-404.5"/>
<text text-anchor="middle" x="988" y="-411.5" font-family="Helvetica,sans-Serif" font-size="10.00">console::in::getChar</text>
</a>
</g>
</g>
<!-- Node30&#45;&gt;Node31 -->
<g id="edge38" class="edge">
<title>Node30&#45;&gt;Node31</title>
<path fill="none" stroke="midnightblue" d="M899.2,-420.08C907.83,-419.48 916.78,-418.86 925.52,-418.25"/>
<polygon fill="midnightblue" stroke="midnightblue" points="925.91,-421.74 935.64,-417.55 925.42,-414.75 925.91,-421.74"/>
</g>
<!-- Node32&#45;&gt;Node14 -->
<g id="edge49" class="edge">
<title>Node32&#45;&gt;Node14</title>
<path fill="none" stroke="midnightblue" d="M316.33,-342.58C334.88,-351.96 365.05,-365.59 393,-371 478.81,-387.61 580.64,-374.6 641.42,-363.46"/>
<polygon fill="midnightblue" stroke="midnightblue" points="642.37,-366.85 651.55,-361.55 641.08,-359.97 642.37,-366.85"/>
</g>
<!-- Node33 -->
<g id="node33" class="node">
<title>Node33</title>
<g id="a_node33"><a xlink:href="structtask_1_1_task.html#acc107ba9ef939a92f459873765fb73eb" target="_top" xlink:title=" ">
<polygon fill="white" stroke="black" points="394,-342.5 394,-361.5 495,-361.5 495,-342.5 394,-342.5"/>
<text text-anchor="middle" x="444.5" y="-349.5" font-family="Helvetica,sans-Serif" font-size="10.00">task::Task::destroy</text>
</a>
</g>
</g>
<!-- Node32&#45;&gt;Node33 -->
<g id="edge45" class="edge">
<title>Node32&#45;&gt;Node33</title>
<path fill="none" stroke="midnightblue" d="M357.06,-340.67C365.76,-341.81 374.74,-342.99 383.47,-344.13"/>
<polygon fill="midnightblue" stroke="midnightblue" points="383.2,-347.63 393.57,-345.46 384.11,-340.69 383.2,-347.63"/>
</g>
<!-- Node35 -->
<g id="node35" class="node">
<title>Node35</title>
<g id="a_node35"><a xlink:href="x86_8h.html#a3dc6d9821f5d1882b68147fd25aa11cd" target="_top" xlink:title=" ">
<polygon fill="white" stroke="black" points="428,-304.5 428,-323.5 461,-323.5 461,-304.5 428,-304.5"/>
<text text-anchor="middle" x="444.5" y="-311.5" font-family="Helvetica,sans-Serif" font-size="10.00">rcr2</text>
</a>
</g>
</g>
<!-- Node32&#45;&gt;Node35 -->
<g id="edge50" class="edge">
<title>Node32&#45;&gt;Node35</title>
<path fill="none" stroke="midnightblue" d="M357.06,-325.33C378.08,-322.57 400.72,-319.61 417.56,-317.4"/>
<polygon fill="midnightblue" stroke="midnightblue" points="418.25,-320.84 427.71,-316.07 417.34,-313.9 418.25,-320.84"/>
</g>
<!-- Node33&#45;&gt;Node7 -->
<g id="edge47" class="edge">
<title>Node33&#45;&gt;Node7</title>
<path fill="none" stroke="midnightblue" d="M480.73,-342.48C486.22,-339.98 491.54,-336.87 496,-333 532.17,-301.63 553.78,-247.75 563.27,-219.15"/>
<polygon fill="midnightblue" stroke="midnightblue" points="566.64,-220.11 566.32,-209.52 559.96,-218 566.64,-220.11"/>
</g>
<!-- Node33&#45;&gt;Node14 -->
<g id="edge48" class="edge">
<title>Node33&#45;&gt;Node14</title>
<path fill="none" stroke="midnightblue" d="M495.09,-352C536.4,-352 595.25,-352 638.4,-352"/>
<polygon fill="midnightblue" stroke="midnightblue" points="638.45,-355.5 648.45,-352 638.45,-348.5 638.45,-355.5"/>
</g>
<!-- Node34 -->
<g id="node34" class="node">
<title>Node34</title>
<g id="a_node34"><a xlink:href="x86_8h.html#ab3bac932074f6042165d3016b701900a" target="_top" xlink:title=" ">
<polygon fill="white" stroke="black" points="554,-304.5 554,-323.5 586,-323.5 586,-304.5 554,-304.5"/>
<text text-anchor="middle" x="570" y="-311.5" font-family="Helvetica,sans-Serif" font-size="10.00">lcr3</text>
</a>
</g>
</g>
<!-- Node33&#45;&gt;Node34 -->
<g id="edge46" class="edge">
<title>Node33&#45;&gt;Node34</title>
<path fill="none" stroke="midnightblue" d="M476.66,-342.41C497.62,-335.96 524.87,-327.58 544.32,-321.59"/>
<polygon fill="midnightblue" stroke="midnightblue" points="545.44,-324.91 553.97,-318.62 543.39,-318.22 545.44,-324.91"/>
</g>
</g>
</svg>
