<?xml version="1.0" encoding="UTF-8" standalone="no"?>
<!DOCTYPE svg PUBLIC "-//W3C//DTD SVG 1.1//EN"
 "http://www.w3.org/Graphics/SVG/1.1/DTD/svg11.dtd">
<!-- Generated by graphviz version 2.44.1 (20200629.0846)
 -->
<!-- Title: monitor::main Pages: 1 -->
<svg width="1407pt" height="334pt"
 viewBox="0.00 0.00 1407.00 333.62" xmlns="http://www.w3.org/2000/svg" xmlns:xlink="http://www.w3.org/1999/xlink">
<g id="graph0" class="graph" transform="scale(1 1) rotate(0) translate(4 329.62)">
<title>monitor::main</title>
<polygon fill="white" stroke="transparent" points="-4,4 -4,-329.62 1403,-329.62 1403,4 -4,4"/>
<!-- Node1 -->
<g id="node1" class="node">
<title>Node1</title>
<g id="a_node1"><a xlink:title=" ">
<polygon fill="#bfbfbf" stroke="black" points="0,-161.5 0,-180.5 76,-180.5 76,-161.5 0,-161.5"/>
<text text-anchor="middle" x="38" y="-168.5" font-family="Helvetica,sans-Serif" font-size="10.00">monitor::main</text>
</a>
</g>
</g>
<!-- Node2 -->
<g id="node2" class="node">
<title>Node2</title>
<g id="a_node2"><a xlink:href="namespacemonitor.html#a8b88ed0586263051a6af8dbff388e314" target="_top" xlink:title=" ">
<polygon fill="white" stroke="black" points="114,-99.5 114,-118.5 214,-118.5 214,-99.5 114,-99.5"/>
<text text-anchor="middle" x="164" y="-106.5" font-family="Helvetica,sans-Serif" font-size="10.00">monitor::parseCmd</text>
</a>
</g>
</g>
<!-- Node1&#45;&gt;Node2 -->
<g id="edge1" class="edge">
<title>Node1&#45;&gt;Node2</title>
<path fill="none" stroke="midnightblue" d="M56.9,-161.43C71.61,-153.62 93.05,-142.39 112,-133 118.75,-129.66 126.06,-126.15 132.97,-122.89"/>
<polygon fill="midnightblue" stroke="midnightblue" points="134.5,-126.04 142.07,-118.62 131.53,-119.7 134.5,-126.04"/>
</g>
<!-- Node8 -->
<g id="node8" class="node">
<title>Node8</title>
<g id="a_node8"><a xlink:href="namespaceconsole_1_1out.html#ac6f663e3971b66b8e130ee94755a150e" target="_top" xlink:title=" ">
<polygon fill="white" stroke="black" points="116.5,-180.5 116.5,-199.5 211.5,-199.5 211.5,-180.5 116.5,-180.5"/>
<text text-anchor="middle" x="164" y="-187.5" font-family="Helvetica,sans-Serif" font-size="10.00">console::out::print</text>
</a>
</g>
</g>
<!-- Node1&#45;&gt;Node8 -->
<g id="edge7" class="edge">
<title>Node1&#45;&gt;Node8</title>
<path fill="none" stroke="midnightblue" d="M76.2,-176.7C85.62,-178.14 95.95,-179.73 106.1,-181.28"/>
<polygon fill="midnightblue" stroke="midnightblue" points="105.73,-184.77 116.14,-182.82 106.79,-177.85 105.73,-184.77"/>
</g>
<!-- Node23 -->
<g id="node23" class="node">
<title>Node23</title>
<g id="a_node23"><a xlink:href="namespaceconsole_1_1err.html#a124c7e8527c0e3fd2b9636411aea7e82" target="_top" xlink:title=" ">
<polygon fill="white" stroke="black" points="118,-142.5 118,-161.5 210,-161.5 210,-142.5 118,-142.5"/>
<text text-anchor="middle" x="164" y="-149.5" font-family="Helvetica,sans-Serif" font-size="10.00">console::err::print</text>
</a>
</g>
</g>
<!-- Node1&#45;&gt;Node23 -->
<g id="edge27" class="edge">
<title>Node1&#45;&gt;Node23</title>
<path fill="none" stroke="midnightblue" d="M76.2,-165.3C86.15,-163.78 97.12,-162.09 107.81,-160.46"/>
<polygon fill="midnightblue" stroke="midnightblue" points="108.58,-163.88 117.94,-158.9 107.52,-156.96 108.58,-163.88"/>
</g>
<!-- Node25 -->
<g id="node25" class="node">
<title>Node25</title>
<g id="a_node25"><a xlink:href="namespaceconsole_1_1in.html#afa763e7729f2e6fbdcf4c14e44ad7a29" target="_top" xlink:title=" ">
<polygon fill="white" stroke="black" points="112,-218.5 112,-237.5 216,-237.5 216,-218.5 112,-218.5"/>
<text text-anchor="middle" x="164" y="-225.5" font-family="Helvetica,sans-Serif" font-size="10.00">console::in::readline</text>
</a>
</g>
</g>
<!-- Node1&#45;&gt;Node25 -->
<g id="edge31" class="edge">
<title>Node1&#45;&gt;Node25</title>
<path fill="none" stroke="midnightblue" d="M55.82,-180.51C70.43,-188.59 92.29,-200.24 112,-209 116.46,-210.98 121.2,-212.94 125.92,-214.8"/>
<polygon fill="midnightblue" stroke="midnightblue" points="124.9,-218.16 135.49,-218.46 127.4,-211.62 124.9,-218.16"/>
</g>
<!-- Node3 -->
<g id="node3" class="node">
<title>Node3</title>
<g id="a_node3"><a xlink:href="namespacestr.html#ace5edf7e67a558a1c4ead28a66faba41" target="_top" xlink:title=" ">
<polygon fill="white" stroke="black" points="271.5,-99.5 271.5,-118.5 347.5,-118.5 347.5,-99.5 271.5,-99.5"/>
<text text-anchor="middle" x="309.5" y="-106.5" font-family="Helvetica,sans-Serif" font-size="10.00">str::cmpCase</text>
</a>
</g>
</g>
<!-- Node2&#45;&gt;Node3 -->
<g id="edge2" class="edge">
<title>Node2&#45;&gt;Node3</title>
<path fill="none" stroke="midnightblue" d="M214.38,-109C229.54,-109 246.16,-109 261.17,-109"/>
<polygon fill="midnightblue" stroke="midnightblue" points="261.27,-112.5 271.27,-109 261.27,-105.5 261.27,-112.5"/>
</g>
<!-- Node4 -->
<g id="node4" class="node">
<title>Node4</title>
<g id="a_node4"><a xlink:href="namespacestr.html#a12522233f7d73122d76de5c82e44a183" target="_top" xlink:title=" ">
<polygon fill="white" stroke="black" points="276,-52.5 276,-71.5 343,-71.5 343,-52.5 276,-52.5"/>
<text text-anchor="middle" x="309.5" y="-59.5" font-family="Helvetica,sans-Serif" font-size="10.00">str::splitWs</text>
</a>
</g>
</g>
<!-- Node2&#45;&gt;Node4 -->
<g id="edge3" class="edge">
<title>Node2&#45;&gt;Node4</title>
<path fill="none" stroke="midnightblue" d="M194.04,-99.49C215.68,-92.4 245.47,-82.64 269.24,-74.86"/>
<polygon fill="midnightblue" stroke="midnightblue" points="270.6,-78.1 279.01,-71.66 268.42,-71.44 270.6,-78.1"/>
</g>
<!-- Node5 -->
<g id="node5" class="node">
<title>Node5</title>
<g id="a_node5"><a xlink:href="namespacestr.html#a0e183e333ba05550c6b206906dbf0f10" target="_top" xlink:title=" ">
<polygon fill="white" stroke="black" points="430,-47.5 430,-66.5 482,-66.5 482,-47.5 430,-47.5"/>
<text text-anchor="middle" x="456" y="-54.5" font-family="Helvetica,sans-Serif" font-size="10.00">str::split</text>
</a>
</g>
</g>
<!-- Node4&#45;&gt;Node5 -->
<g id="edge4" class="edge">
<title>Node4&#45;&gt;Node5</title>
<path fill="none" stroke="midnightblue" d="M343.29,-60.87C366.11,-60.08 396.5,-59.02 419.82,-58.22"/>
<polygon fill="midnightblue" stroke="midnightblue" points="420.12,-61.71 429.99,-57.87 419.87,-54.71 420.12,-61.71"/>
</g>
<!-- Node6 -->
<g id="node6" class="node">
<title>Node6</title>
<g id="a_node6"><a xlink:href="namespacestr.html#a062221f630647cf300f0dd982c4ed904" target="_top" xlink:title=" ">
<polygon fill="white" stroke="black" points="1341,-28.5 1341,-47.5 1399,-47.5 1399,-28.5 1341,-28.5"/>
<text text-anchor="middle" x="1370" y="-35.5" font-family="Helvetica,sans-Serif" font-size="10.00">str::count</text>
</a>
</g>
</g>
<!-- Node5&#45;&gt;Node6 -->
<g id="edge5" class="edge">
<title>Node5&#45;&gt;Node6</title>
<path fill="none" stroke="midnightblue" d="M482.09,-49.07C533.98,-33.41 657.08,0 763,0 763,0 763,0 1070,0 1164.34,0 1274.09,-18.84 1330.76,-29.99"/>
<polygon fill="midnightblue" stroke="midnightblue" points="1330.21,-33.45 1340.71,-31.98 1331.58,-26.59 1330.21,-33.45"/>
</g>
<!-- Node7 -->
<g id="node7" class="node">
<title>Node7</title>
<g id="a_node7"><a xlink:href="namespacestr.html#a4b4d986113337f946299cef82449cf52" target="_top" xlink:title=" ">
<polygon fill="white" stroke="black" points="580,-47.5 580,-66.5 630,-66.5 630,-47.5 580,-47.5"/>
<text text-anchor="middle" x="605" y="-54.5" font-family="Helvetica,sans-Serif" font-size="10.00">str::find</text>
</a>
</g>
</g>
<!-- Node5&#45;&gt;Node7 -->
<g id="edge6" class="edge">
<title>Node5&#45;&gt;Node7</title>
<path fill="none" stroke="midnightblue" d="M482.27,-57C506.33,-57 542.73,-57 569.47,-57"/>
<polygon fill="midnightblue" stroke="midnightblue" points="569.55,-60.5 579.55,-57 569.55,-53.5 569.55,-60.5"/>
</g>
<!-- Node9 -->
<g id="node9" class="node">
<title>Node9</title>
<g id="a_node9"><a xlink:href="namespaceconsole_1_1out.html#a8f791bfac54067cadb1b9f18117b987b" target="_top" xlink:title=" ">
<polygon fill="white" stroke="black" points="403,-180.5 403,-199.5 509,-199.5 509,-180.5 403,-180.5"/>
<text text-anchor="middle" x="456" y="-187.5" font-family="Helvetica,sans-Serif" font-size="10.00">console::out::printVa</text>
</a>
</g>
</g>
<!-- Node8&#45;&gt;Node9 -->
<g id="edge8" class="edge">
<title>Node8&#45;&gt;Node9</title>
<path fill="none" stroke="midnightblue" d="M211.59,-190C260.7,-190 338.33,-190 392.68,-190"/>
<polygon fill="midnightblue" stroke="midnightblue" points="392.89,-193.5 402.89,-190 392.89,-186.5 392.89,-193.5"/>
</g>
<!-- Node10 -->
<g id="node10" class="node">
<title>Node10</title>
<g id="a_node10"><a xlink:href="namespaceconsole_1_1ge.html#af642934cb833142f133285fdb75ef7b7" target="_top" xlink:title=" ">
<polygon fill="white" stroke="black" points="545,-161.5 545,-180.5 665,-180.5 665,-161.5 545,-161.5"/>
<text text-anchor="middle" x="605" y="-168.5" font-family="Helvetica,sans-Serif" font-size="10.00">console::ge::printFmtVa</text>
</a>
</g>
</g>
<!-- Node9&#45;&gt;Node10 -->
<g id="edge9" class="edge">
<title>Node9&#45;&gt;Node10</title>
<path fill="none" stroke="midnightblue" d="M509.24,-183.25C517.54,-182.17 526.24,-181.05 534.86,-179.94"/>
<polygon fill="midnightblue" stroke="midnightblue" points="535.45,-183.39 544.92,-178.64 534.55,-176.45 535.45,-183.39"/>
</g>
<!-- Node16 -->
<g id="node16" class="node">
<title>Node16</title>
<g id="a_node16"><a xlink:href="namespaceconsole_1_1out.html#ad9fc97dff4404c2d21aedbb24691e7cb" target="_top" xlink:title=" ">
<polygon fill="white" stroke="black" points="863,-218.5 863,-237.5 973,-237.5 973,-218.5 863,-218.5"/>
<text text-anchor="middle" x="918" y="-225.5" font-family="Helvetica,sans-Serif" font-size="10.00">console::out::putChar</text>
</a>
</g>
</g>
<!-- Node9&#45;&gt;Node16 -->
<g id="edge26" class="edge">
<title>Node9&#45;&gt;Node16</title>
<path fill="none" stroke="midnightblue" d="M483.5,-199.53C491.7,-202.52 500.74,-205.86 509,-209 594.77,-241.64 610.85,-267.81 701,-285 756.01,-295.49 773.22,-300.6 827,-285 854.23,-277.1 881.12,-258.23 898.31,-244.35"/>
<polygon fill="midnightblue" stroke="midnightblue" points="900.93,-246.73 906.37,-237.64 896.44,-241.35 900.93,-246.73"/>
</g>
<!-- Node10&#45;&gt;Node6 -->
<g id="edge12" class="edge">
<title>Node10&#45;&gt;Node6</title>
<path fill="none" stroke="midnightblue" d="M610.57,-161.48C622.08,-138.72 654.66,-81.24 701,-57 786.4,-12.34 820.63,-38 917,-38 917,-38 917,-38 1070,-38 1163.63,-38 1273.76,-38 1330.65,-38"/>
<polygon fill="midnightblue" stroke="midnightblue" points="1330.97,-41.5 1340.97,-38 1330.97,-34.5 1330.97,-41.5"/>
</g>
<!-- Node11 -->
<g id="node11" class="node">
<title>Node11</title>
<g id="a_node11"><a xlink:href="printfmt_8cc.html#a708ec6ee2b8bd2d7a453d8d9436ed3b3" target="_top" xlink:title=" ">
<polygon fill="white" stroke="black" points="735,-142.5 735,-161.5 793,-161.5 793,-142.5 735,-142.5"/>
<text text-anchor="middle" x="764" y="-149.5" font-family="Helvetica,sans-Serif" font-size="10.00">_getIntVa</text>
</a>
</g>
</g>
<!-- Node10&#45;&gt;Node11 -->
<g id="edge10" class="edge">
<title>Node10&#45;&gt;Node11</title>
<path fill="none" stroke="midnightblue" d="M665.35,-163.82C685.24,-161.41 706.88,-158.79 724.72,-156.63"/>
<polygon fill="midnightblue" stroke="midnightblue" points="725.23,-160.1 734.74,-155.42 724.39,-153.15 725.23,-160.1"/>
</g>
<!-- Node12 -->
<g id="node12" class="node">
<title>Node12</title>
<g id="a_node12"><a xlink:href="printfmt_8cc.html#af4b46892c76c8bfd27efdb20847eb7c8" target="_top" xlink:title=" ">
<polygon fill="white" stroke="black" points="731.5,-218.5 731.5,-237.5 796.5,-237.5 796.5,-218.5 731.5,-218.5"/>
<text text-anchor="middle" x="764" y="-225.5" font-family="Helvetica,sans-Serif" font-size="10.00">_getUIntVa</text>
</a>
</g>
</g>
<!-- Node10&#45;&gt;Node12 -->
<g id="edge11" class="edge">
<title>Node10&#45;&gt;Node12</title>
<path fill="none" stroke="midnightblue" d="M632.28,-180.54C658.2,-189.95 698.03,-204.41 726.92,-214.9"/>
<polygon fill="midnightblue" stroke="midnightblue" points="726.04,-218.31 736.64,-218.43 728.43,-211.73 726.04,-218.31"/>
</g>
<!-- Node13 -->
<g id="node13" class="node">
<title>Node13</title>
<g id="a_node13"><a xlink:href="printfmt_8cc.html#a0e3e484ece5e75b9f5fbe337f0ae8ae3" target="_top" xlink:title=" ">
<polygon fill="white" stroke="black" points="737.5,-66.5 737.5,-85.5 790.5,-85.5 790.5,-66.5 737.5,-66.5"/>
<text text-anchor="middle" x="764" y="-73.5" font-family="Helvetica,sans-Serif" font-size="10.00">describe</text>
</a>
</g>
</g>
<!-- Node10&#45;&gt;Node13 -->
<g id="edge13" class="edge">
<title>Node10&#45;&gt;Node13</title>
<path fill="none" stroke="midnightblue" d="M621.92,-161.37C649.31,-144.8 705.53,-110.77 738.13,-91.05"/>
<polygon fill="midnightblue" stroke="midnightblue" points="740.3,-93.83 747.04,-85.66 736.67,-87.84 740.3,-93.83"/>
</g>
<!-- Node15 -->
<g id="node15" class="node">
<title>Node15</title>
<g id="a_node15"><a xlink:href="namespaceconsole_1_1ge.html#a7e301813fd34fde772376afc5fdad95d" target="_top" xlink:title=" ">
<polygon fill="white" stroke="black" points="701,-256.5 701,-275.5 827,-275.5 827,-256.5 701,-256.5"/>
<text text-anchor="middle" x="764" y="-263.5" font-family="Helvetica,sans-Serif" font-size="10.00">console::ge::printNumber</text>
</a>
</g>
</g>
<!-- Node10&#45;&gt;Node15 -->
<g id="edge15" class="edge">
<title>Node10&#45;&gt;Node15</title>
<path fill="none" stroke="midnightblue" d="M615.37,-180.57C631.48,-196.5 666.08,-228.55 701,-247 705.2,-249.22 709.69,-251.22 714.27,-253.02"/>
<polygon fill="midnightblue" stroke="midnightblue" points="713.14,-256.33 723.73,-256.42 715.51,-249.74 713.14,-256.33"/>
</g>
<!-- Node10&#45;&gt;Node16 -->
<g id="edge25" class="edge">
<title>Node10&#45;&gt;Node16</title>
<path fill="none" stroke="midnightblue" d="M665.2,-180.56C709.77,-187.9 772.32,-198.53 827,-209 838.89,-211.28 851.62,-213.87 863.66,-216.39"/>
<polygon fill="midnightblue" stroke="midnightblue" points="863.07,-219.84 873.58,-218.49 864.52,-213 863.07,-219.84"/>
</g>
<!-- Node14 -->
<g id="node14" class="node">
<title>Node14</title>
<g id="a_node14"><a xlink:href="namespacemonitor.html#a318993193c866642f8389a1c1f285739" target="_top" xlink:title=" ">
<polygon fill="white" stroke="black" points="881,-66.5 881,-85.5 955,-85.5 955,-66.5 881,-66.5"/>
<text text-anchor="middle" x="918" y="-73.5" font-family="Helvetica,sans-Serif" font-size="10.00">monitor::fuck</text>
</a>
</g>
</g>
<!-- Node13&#45;&gt;Node14 -->
<g id="edge14" class="edge">
<title>Node13&#45;&gt;Node14</title>
<path fill="none" stroke="midnightblue" d="M790.78,-76C812.62,-76 844.46,-76 870.7,-76"/>
<polygon fill="midnightblue" stroke="midnightblue" points="870.82,-79.5 880.82,-76 870.82,-72.5 870.82,-79.5"/>
</g>
<!-- Node15&#45;&gt;Node16 -->
<g id="edge16" class="edge">
<title>Node15&#45;&gt;Node16</title>
<path fill="none" stroke="midnightblue" d="M803.36,-256.41C823.32,-251.42 847.93,-245.27 869.13,-239.97"/>
<polygon fill="midnightblue" stroke="midnightblue" points="870.07,-243.34 878.92,-237.52 868.37,-236.55 870.07,-243.34"/>
</g>
<!-- Node17 -->
<g id="node17" class="node">
<title>Node17</title>
<g id="a_node17"><a xlink:href="namespaceconsole_1_1serial.html#a3a7c1f95ae3c24136ea63bb31fdf0391" target="_top" xlink:title=" ">
<polygon fill="white" stroke="black" points="1009,-218.5 1009,-237.5 1129,-237.5 1129,-218.5 1009,-218.5"/>
<text text-anchor="middle" x="1069" y="-225.5" font-family="Helvetica,sans-Serif" font-size="10.00">console::serial::putChar</text>
</a>
</g>
</g>
<!-- Node16&#45;&gt;Node17 -->
<g id="edge17" class="edge">
<title>Node16&#45;&gt;Node17</title>
<path fill="none" stroke="midnightblue" d="M973.21,-228C981.53,-228 990.2,-228 998.79,-228"/>
<polygon fill="midnightblue" stroke="midnightblue" points="998.79,-231.5 1008.79,-228 998.79,-224.5 998.79,-231.5"/>
</g>
<!-- Node20 -->
<g id="node20" class="node">
<title>Node20</title>
<g id="a_node20"><a xlink:href="namespaceconsole_1_1cga.html#afa19057ca041b39682d5d4831c43dfa0" target="_top" xlink:title=" ">
<polygon fill="white" stroke="black" points="1012.5,-180.5 1012.5,-199.5 1125.5,-199.5 1125.5,-180.5 1012.5,-180.5"/>
<text text-anchor="middle" x="1069" y="-187.5" font-family="Helvetica,sans-Serif" font-size="10.00">console::cga::putChar</text>
</a>
</g>
</g>
<!-- Node16&#45;&gt;Node20 -->
<g id="edge20" class="edge">
<title>Node16&#45;&gt;Node20</title>
<path fill="none" stroke="midnightblue" d="M956.6,-218.41C976.08,-213.44 1000.07,-207.32 1020.8,-202.04"/>
<polygon fill="midnightblue" stroke="midnightblue" points="1021.85,-205.38 1030.67,-199.52 1020.12,-198.6 1021.85,-205.38"/>
</g>
<!-- Node18 -->
<g id="node18" class="node">
<title>Node18</title>
<g id="a_node18"><a xlink:href="namespaceconsole_1_1serial.html#aa5605d4537106bb1c2bab72d7d1a5824" target="_top" xlink:title=" ">
<polygon fill="white" stroke="black" points="1183,-218.5 1183,-237.5 1287,-237.5 1287,-218.5 1183,-218.5"/>
<text text-anchor="middle" x="1235" y="-225.5" font-family="Helvetica,sans-Serif" font-size="10.00">console::serial::sout</text>
</a>
</g>
</g>
<!-- Node17&#45;&gt;Node18 -->
<g id="edge18" class="edge">
<title>Node17&#45;&gt;Node18</title>
<path fill="none" stroke="midnightblue" d="M1129.21,-228C1143.31,-228 1158.39,-228 1172.59,-228"/>
<polygon fill="midnightblue" stroke="midnightblue" points="1172.74,-231.5 1182.74,-228 1172.74,-224.5 1172.74,-231.5"/>
</g>
<!-- Node19 -->
<g id="node19" class="node">
<title>Node19</title>
<g id="a_node19"><a xlink:href="x86_8h.html#ade961b44e45ddacbc3c3b7609cf36dc6" target="_top" xlink:title=" ">
<polygon fill="white" stroke="black" points="1352.5,-199.5 1352.5,-218.5 1387.5,-218.5 1387.5,-199.5 1352.5,-199.5"/>
<text text-anchor="middle" x="1370" y="-206.5" font-family="Helvetica,sans-Serif" font-size="10.00">outb</text>
</a>
</g>
</g>
<!-- Node18&#45;&gt;Node19 -->
<g id="edge19" class="edge">
<title>Node18&#45;&gt;Node19</title>
<path fill="none" stroke="midnightblue" d="M1287.04,-220.71C1305.85,-218.02 1326.4,-215.09 1342.22,-212.83"/>
<polygon fill="midnightblue" stroke="midnightblue" points="1342.94,-216.26 1352.34,-211.38 1341.95,-209.33 1342.94,-216.26"/>
</g>
<!-- Node21 -->
<g id="node21" class="node">
<title>Node21</title>
<g id="a_node21"><a xlink:href="namespacemem.html#a64d9d05b439041901498c606de606431" target="_top" xlink:title=" ">
<polygon fill="white" stroke="black" points="1202.5,-123.5 1202.5,-142.5 1267.5,-142.5 1267.5,-123.5 1202.5,-123.5"/>
<text text-anchor="middle" x="1235" y="-130.5" font-family="Helvetica,sans-Serif" font-size="10.00">mem::copy</text>
</a>
</g>
</g>
<!-- Node20&#45;&gt;Node21 -->
<g id="edge21" class="edge">
<title>Node20&#45;&gt;Node21</title>
<path fill="none" stroke="midnightblue" d="M1097.45,-180.46C1124.65,-171.01 1166.5,-156.46 1196.7,-145.96"/>
<polygon fill="midnightblue" stroke="midnightblue" points="1198.16,-149.16 1206.46,-142.57 1195.87,-142.55 1198.16,-149.16"/>
</g>
<!-- Node22 -->
<g id="node22" class="node">
<title>Node22</title>
<g id="a_node22"><a xlink:href="namespaceconsole_1_1cga.html#a06463d4dc68819e30615ba299d02a78f" target="_top" xlink:title=" ">
<polygon fill="white" stroke="black" points="1165,-180.5 1165,-199.5 1305,-199.5 1305,-180.5 1165,-180.5"/>
<text text-anchor="middle" x="1235" y="-187.5" font-family="Helvetica,sans-Serif" font-size="10.00">console::cga::cursorRefresh</text>
</a>
</g>
</g>
<!-- Node20&#45;&gt;Node22 -->
<g id="edge23" class="edge">
<title>Node20&#45;&gt;Node22</title>
<path fill="none" stroke="midnightblue" d="M1125.52,-190C1134.9,-190 1144.8,-190 1154.65,-190"/>
<polygon fill="midnightblue" stroke="midnightblue" points="1154.87,-193.5 1164.87,-190 1154.87,-186.5 1154.87,-193.5"/>
</g>
<!-- Node21&#45;&gt;Node6 -->
<g id="edge22" class="edge">
<title>Node21&#45;&gt;Node6</title>
<path fill="none" stroke="midnightblue" d="M1249.73,-123.19C1272.85,-106.68 1319.71,-73.21 1347.31,-53.49"/>
<polygon fill="midnightblue" stroke="midnightblue" points="1349.44,-56.27 1355.54,-47.61 1345.37,-50.58 1349.44,-56.27"/>
</g>
<!-- Node22&#45;&gt;Node19 -->
<g id="edge24" class="edge">
<title>Node22&#45;&gt;Node19</title>
<path fill="none" stroke="midnightblue" d="M1302.89,-199.56C1316.81,-201.54 1330.71,-203.53 1342.15,-205.16"/>
<polygon fill="midnightblue" stroke="midnightblue" points="1341.88,-208.66 1352.28,-206.61 1342.87,-201.73 1341.88,-208.66"/>
</g>
<!-- Node24 -->
<g id="node24" class="node">
<title>Node24</title>
<g id="a_node24"><a xlink:href="namespaceconsole_1_1err.html#a4cd18e4c409b5b17ecec61ce83b05fba" target="_top" xlink:title=" ">
<polygon fill="white" stroke="black" points="404,-142.5 404,-161.5 508,-161.5 508,-142.5 404,-142.5"/>
<text text-anchor="middle" x="456" y="-149.5" font-family="Helvetica,sans-Serif" font-size="10.00">console::err::printVa</text>
</a>
</g>
</g>
<!-- Node23&#45;&gt;Node24 -->
<g id="edge28" class="edge">
<title>Node23&#45;&gt;Node24</title>
<path fill="none" stroke="midnightblue" d="M210.31,-152C259.55,-152 338.51,-152 393.36,-152"/>
<polygon fill="midnightblue" stroke="midnightblue" points="393.65,-155.5 403.65,-152 393.65,-148.5 393.65,-155.5"/>
</g>
<!-- Node24&#45;&gt;Node10 -->
<g id="edge29" class="edge">
<title>Node24&#45;&gt;Node10</title>
<path fill="none" stroke="midnightblue" d="M508,-158.59C516.62,-159.71 525.69,-160.88 534.68,-162.04"/>
<polygon fill="midnightblue" stroke="midnightblue" points="534.4,-165.53 544.76,-163.34 535.29,-158.59 534.4,-165.53"/>
</g>
<!-- Node24&#45;&gt;Node16 -->
<g id="edge30" class="edge">
<title>Node24&#45;&gt;Node16</title>
<path fill="none" stroke="midnightblue" d="M485.4,-142.37C549.47,-122.36 708.83,-82.17 827,-133 863.16,-148.55 891.6,-186.56 906.2,-209.51"/>
<polygon fill="midnightblue" stroke="midnightblue" points="903.39,-211.62 911.6,-218.32 909.36,-207.96 903.39,-211.62"/>
</g>
<!-- Node26 -->
<g id="node26" class="node">
<title>Node26</title>
<g id="a_node26"><a xlink:href="namespaceconsole_1_1in.html#ac28354dad0498aa6bb0c178b10d62c8a" target="_top" xlink:title=" ">
<polygon fill="white" stroke="black" points="252,-218.5 252,-237.5 367,-237.5 367,-218.5 252,-218.5"/>
<text text-anchor="middle" x="309.5" y="-225.5" font-family="Helvetica,sans-Serif" font-size="10.00">console::in::readlineVa</text>
</a>
</g>
</g>
<!-- Node25&#45;&gt;Node26 -->
<g id="edge32" class="edge">
<title>Node25&#45;&gt;Node26</title>
<path fill="none" stroke="midnightblue" d="M216.4,-228C224.52,-228 233.02,-228 241.43,-228"/>
<polygon fill="midnightblue" stroke="midnightblue" points="241.62,-231.5 251.62,-228 241.62,-224.5 241.62,-231.5"/>
</g>
<!-- Node26&#45;&gt;Node9 -->
<g id="edge34" class="edge">
<title>Node26&#45;&gt;Node9</title>
<path fill="none" stroke="midnightblue" d="M346.96,-218.41C365.77,-213.46 388.91,-207.38 408.95,-202.11"/>
<polygon fill="midnightblue" stroke="midnightblue" points="410.02,-205.45 418.8,-199.52 408.24,-198.68 410.02,-205.45"/>
</g>
<!-- Node26&#45;&gt;Node16 -->
<g id="edge35" class="edge">
<title>Node26&#45;&gt;Node16</title>
<path fill="none" stroke="midnightblue" d="M330.42,-237.58C400.67,-269.97 642.55,-369.78 827,-303 858.51,-291.59 886.74,-263.8 902.86,-245.44"/>
<polygon fill="midnightblue" stroke="midnightblue" points="905.58,-247.65 909.38,-237.76 900.24,-243.12 905.58,-247.65"/>
</g>
<!-- Node27 -->
<g id="node27" class="node">
<title>Node27</title>
<g id="a_node27"><a xlink:href="namespaceconsole_1_1in.html#a6fc069f2bc57fda183e3b991c31ec5a7" target="_top" xlink:title=" ">
<polygon fill="white" stroke="black" points="404,-218.5 404,-237.5 508,-237.5 508,-218.5 404,-218.5"/>
<text text-anchor="middle" x="456" y="-225.5" font-family="Helvetica,sans-Serif" font-size="10.00">console::in::getChar</text>
</a>
</g>
</g>
<!-- Node26&#45;&gt;Node27 -->
<g id="edge33" class="edge">
<title>Node26&#45;&gt;Node27</title>
<path fill="none" stroke="midnightblue" d="M367.2,-228C375.83,-228 384.78,-228 393.52,-228"/>
<polygon fill="midnightblue" stroke="midnightblue" points="393.64,-231.5 403.64,-228 393.64,-224.5 393.64,-231.5"/>
</g>
</g>
</svg>
