<?xml version="1.0" encoding="UTF-8" standalone="no"?>
<!DOCTYPE svg PUBLIC "-//W3C//DTD SVG 1.1//EN"
 "http://www.w3.org/Graphics/SVG/1.1/DTD/svg11.dtd">
<!-- Generated by graphviz version 2.44.1 (20200629.0846)
 -->
<!-- Title: vmem::utils::dumpP Pages: 1 -->
<svg width="1275pt" height="204pt"
 viewBox="0.00 0.00 1275.00 203.69" xmlns="http://www.w3.org/2000/svg" xmlns:xlink="http://www.w3.org/1999/xlink">
<g id="graph0" class="graph" transform="scale(1 1) rotate(0) translate(4 199.69)">
<title>vmem::utils::dumpP</title>
<polygon fill="white" stroke="transparent" points="-4,4 -4,-199.69 1271,-199.69 1271,4 -4,4"/>
<!-- Node1 -->
<g id="node1" class="node">
<title>Node1</title>
<g id="a_node1"><a xlink:title=" ">
<polygon fill="#bfbfbf" stroke="black" points="0,-9.32 0,-28.32 104,-28.32 104,-9.32 0,-9.32"/>
<text text-anchor="middle" x="52" y="-16.32" font-family="Helvetica,sans-Serif" font-size="10.00">vmem::utils::dumpP</text>
</a>
</g>
</g>
<!-- Node2 -->
<g id="node2" class="node">
<title>Node2</title>
<g id="a_node2"><a xlink:href="namespaceconsole_1_1out.html#ac6f663e3971b66b8e130ee94755a150e" target="_top" xlink:title=" ">
<polygon fill="white" stroke="black" points="140,-9.32 140,-28.32 235,-28.32 235,-9.32 140,-9.32"/>
<text text-anchor="middle" x="187.5" y="-16.32" font-family="Helvetica,sans-Serif" font-size="10.00">console::out::print</text>
</a>
</g>
</g>
<!-- Node1&#45;&gt;Node2 -->
<g id="edge1" class="edge">
<title>Node1&#45;&gt;Node2</title>
<path fill="none" stroke="midnightblue" d="M104.23,-18.82C112.6,-18.82 121.31,-18.82 129.79,-18.82"/>
<polygon fill="midnightblue" stroke="midnightblue" points="130,-22.32 140,-18.82 130,-15.32 130,-22.32"/>
</g>
<!-- Node3 -->
<g id="node3" class="node">
<title>Node3</title>
<g id="a_node3"><a xlink:href="namespaceconsole_1_1out.html#a8f791bfac54067cadb1b9f18117b987b" target="_top" xlink:title=" ">
<polygon fill="white" stroke="black" points="271,-9.32 271,-28.32 377,-28.32 377,-9.32 271,-9.32"/>
<text text-anchor="middle" x="324" y="-16.32" font-family="Helvetica,sans-Serif" font-size="10.00">console::out::printVa</text>
</a>
</g>
</g>
<!-- Node2&#45;&gt;Node3 -->
<g id="edge2" class="edge">
<title>Node2&#45;&gt;Node3</title>
<path fill="none" stroke="midnightblue" d="M235.16,-18.82C243.45,-18.82 252.2,-18.82 260.84,-18.82"/>
<polygon fill="midnightblue" stroke="midnightblue" points="260.9,-22.32 270.9,-18.82 260.9,-15.32 260.9,-22.32"/>
</g>
<!-- Node4 -->
<g id="node4" class="node">
<title>Node4</title>
<g id="a_node4"><a xlink:href="namespaceconsole_1_1ge.html#af642934cb833142f133285fdb75ef7b7" target="_top" xlink:title=" ">
<polygon fill="white" stroke="black" points="413,-66.32 413,-85.32 533,-85.32 533,-66.32 413,-66.32"/>
<text text-anchor="middle" x="473" y="-73.32" font-family="Helvetica,sans-Serif" font-size="10.00">console::ge::printFmtVa</text>
</a>
</g>
</g>
<!-- Node3&#45;&gt;Node4 -->
<g id="edge3" class="edge">
<title>Node3&#45;&gt;Node4</title>
<path fill="none" stroke="midnightblue" d="M349.6,-28.36C373.77,-37.73 410.85,-52.11 437.86,-62.58"/>
<polygon fill="midnightblue" stroke="midnightblue" points="436.73,-65.9 447.32,-66.25 439.26,-59.37 436.73,-65.9"/>
</g>
<!-- Node11 -->
<g id="node11" class="node">
<title>Node11</title>
<g id="a_node11"><a xlink:href="namespaceconsole_1_1out.html#ad9fc97dff4404c2d21aedbb24691e7cb" target="_top" xlink:title=" ">
<polygon fill="white" stroke="black" points="731,-9.32 731,-28.32 841,-28.32 841,-9.32 731,-9.32"/>
<text text-anchor="middle" x="786" y="-16.32" font-family="Helvetica,sans-Serif" font-size="10.00">console::out::putChar</text>
</a>
</g>
</g>
<!-- Node3&#45;&gt;Node11 -->
<g id="edge20" class="edge">
<title>Node3&#45;&gt;Node11</title>
<path fill="none" stroke="midnightblue" d="M377.17,-12.67C448.89,-5.14 581.92,5.54 695,-3.82 705.29,-4.67 716.17,-6.06 726.68,-7.66"/>
<polygon fill="midnightblue" stroke="midnightblue" points="726.18,-11.13 736.61,-9.25 727.28,-4.22 726.18,-11.13"/>
</g>
<!-- Node5 -->
<g id="node5" class="node">
<title>Node5</title>
<g id="a_node5"><a xlink:href="printfmt_8cc.html#a708ec6ee2b8bd2d7a453d8d9436ed3b3" target="_top" xlink:title=" ">
<polygon fill="white" stroke="black" points="603,-142.32 603,-161.32 661,-161.32 661,-142.32 603,-142.32"/>
<text text-anchor="middle" x="632" y="-149.32" font-family="Helvetica,sans-Serif" font-size="10.00">_getIntVa</text>
</a>
</g>
</g>
<!-- Node4&#45;&gt;Node5 -->
<g id="edge4" class="edge">
<title>Node4&#45;&gt;Node5</title>
<path fill="none" stroke="midnightblue" d="M487.59,-85.43C505.53,-97.77 538.43,-119.21 569,-132.82 576.6,-136.21 584.99,-139.22 593.07,-141.8"/>
<polygon fill="midnightblue" stroke="midnightblue" points="592.11,-145.17 602.7,-144.72 594.14,-138.47 592.11,-145.17"/>
</g>
<!-- Node6 -->
<g id="node6" class="node">
<title>Node6</title>
<g id="a_node6"><a xlink:href="printfmt_8cc.html#af4b46892c76c8bfd27efdb20847eb7c8" target="_top" xlink:title=" ">
<polygon fill="white" stroke="black" points="599.5,-104.32 599.5,-123.32 664.5,-123.32 664.5,-104.32 599.5,-104.32"/>
<text text-anchor="middle" x="632" y="-111.32" font-family="Helvetica,sans-Serif" font-size="10.00">_getUIntVa</text>
</a>
</g>
</g>
<!-- Node4&#45;&gt;Node6 -->
<g id="edge5" class="edge">
<title>Node4&#45;&gt;Node6</title>
<path fill="none" stroke="midnightblue" d="M513.62,-85.41C536.72,-91 565.84,-98.05 589.3,-103.73"/>
<polygon fill="midnightblue" stroke="midnightblue" points="588.76,-107.2 599.3,-106.15 590.4,-100.4 588.76,-107.2"/>
</g>
<!-- Node7 -->
<g id="node7" class="node">
<title>Node7</title>
<g id="a_node7"><a xlink:href="namespacestr.html#a062221f630647cf300f0dd982c4ed904" target="_top" xlink:title=" ">
<polygon fill="white" stroke="black" points="1209,-99.32 1209,-118.32 1267,-118.32 1267,-99.32 1209,-99.32"/>
<text text-anchor="middle" x="1238" y="-106.32" font-family="Helvetica,sans-Serif" font-size="10.00">str::count</text>
</a>
</g>
</g>
<!-- Node4&#45;&gt;Node7 -->
<g id="edge6" class="edge">
<title>Node4&#45;&gt;Node7</title>
<path fill="none" stroke="midnightblue" d="M480.18,-85.54C493.55,-105.61 527.36,-151.39 569,-170.82 656.33,-211.57 688.63,-189.82 785,-189.82 785,-189.82 785,-189.82 938,-189.82 1039.55,-189.82 1153.97,-145.75 1207.02,-122.63"/>
<polygon fill="midnightblue" stroke="midnightblue" points="1208.77,-125.68 1216.5,-118.43 1205.93,-119.28 1208.77,-125.68"/>
</g>
<!-- Node8 -->
<g id="node8" class="node">
<title>Node8</title>
<g id="a_node8"><a xlink:href="printfmt_8cc.html#a0e3e484ece5e75b9f5fbe337f0ae8ae3" target="_top" xlink:title=" ">
<polygon fill="white" stroke="black" points="605.5,-66.32 605.5,-85.32 658.5,-85.32 658.5,-66.32 605.5,-66.32"/>
<text text-anchor="middle" x="632" y="-73.32" font-family="Helvetica,sans-Serif" font-size="10.00">describe</text>
</a>
</g>
</g>
<!-- Node4&#45;&gt;Node8 -->
<g id="edge7" class="edge">
<title>Node4&#45;&gt;Node8</title>
<path fill="none" stroke="midnightblue" d="M533.35,-75.82C554.12,-75.82 576.78,-75.82 595.04,-75.82"/>
<polygon fill="midnightblue" stroke="midnightblue" points="595.24,-79.32 605.24,-75.82 595.24,-72.32 595.24,-79.32"/>
</g>
<!-- Node10 -->
<g id="node10" class="node">
<title>Node10</title>
<g id="a_node10"><a xlink:href="namespaceconsole_1_1ge.html#a7e301813fd34fde772376afc5fdad95d" target="_top" xlink:title=" ">
<polygon fill="white" stroke="black" points="569,-28.32 569,-47.32 695,-47.32 695,-28.32 569,-28.32"/>
<text text-anchor="middle" x="632" y="-35.32" font-family="Helvetica,sans-Serif" font-size="10.00">console::ge::printNumber</text>
</a>
</g>
</g>
<!-- Node4&#45;&gt;Node10 -->
<g id="edge9" class="edge">
<title>Node4&#45;&gt;Node10</title>
<path fill="none" stroke="midnightblue" d="M513.62,-66.23C534.34,-61.22 559.89,-55.03 581.86,-49.72"/>
<polygon fill="midnightblue" stroke="midnightblue" points="582.77,-53.1 591.67,-47.34 581.12,-46.29 582.77,-53.1"/>
</g>
<!-- Node4&#45;&gt;Node11 -->
<g id="edge19" class="edge">
<title>Node4&#45;&gt;Node11</title>
<path fill="none" stroke="midnightblue" d="M485.33,-66.18C502.22,-52.49 535.63,-28.06 569,-18.82 618.52,-5.11 676.9,-6.07 720.48,-9.93"/>
<polygon fill="midnightblue" stroke="midnightblue" points="720.38,-13.44 730.66,-10.91 721.05,-6.47 720.38,-13.44"/>
</g>
<!-- Node9 -->
<g id="node9" class="node">
<title>Node9</title>
<g id="a_node9"><a xlink:href="namespacemonitor.html#a318993193c866642f8389a1c1f285739" target="_top" xlink:title=" ">
<polygon fill="white" stroke="black" points="749,-66.32 749,-85.32 823,-85.32 823,-66.32 749,-66.32"/>
<text text-anchor="middle" x="786" y="-73.32" font-family="Helvetica,sans-Serif" font-size="10.00">monitor::fuck</text>
</a>
</g>
</g>
<!-- Node8&#45;&gt;Node9 -->
<g id="edge8" class="edge">
<title>Node8&#45;&gt;Node9</title>
<path fill="none" stroke="midnightblue" d="M658.78,-75.82C680.62,-75.82 712.46,-75.82 738.7,-75.82"/>
<polygon fill="midnightblue" stroke="midnightblue" points="738.82,-79.32 748.82,-75.82 738.82,-72.32 738.82,-79.32"/>
</g>
<!-- Node10&#45;&gt;Node11 -->
<g id="edge10" class="edge">
<title>Node10&#45;&gt;Node11</title>
<path fill="none" stroke="midnightblue" d="M695.26,-30.04C703.66,-28.99 712.28,-27.91 720.71,-26.86"/>
<polygon fill="midnightblue" stroke="midnightblue" points="721.37,-30.3 730.86,-25.59 720.51,-23.36 721.37,-30.3"/>
</g>
<!-- Node12 -->
<g id="node12" class="node">
<title>Node12</title>
<g id="a_node12"><a xlink:href="namespaceconsole_1_1serial.html#a3a7c1f95ae3c24136ea63bb31fdf0391" target="_top" xlink:title=" ">
<polygon fill="white" stroke="black" points="877,-9.32 877,-28.32 997,-28.32 997,-9.32 877,-9.32"/>
<text text-anchor="middle" x="937" y="-16.32" font-family="Helvetica,sans-Serif" font-size="10.00">console::serial::putChar</text>
</a>
</g>
</g>
<!-- Node11&#45;&gt;Node12 -->
<g id="edge11" class="edge">
<title>Node11&#45;&gt;Node12</title>
<path fill="none" stroke="midnightblue" d="M841.21,-18.82C849.53,-18.82 858.2,-18.82 866.79,-18.82"/>
<polygon fill="midnightblue" stroke="midnightblue" points="866.79,-22.32 876.79,-18.82 866.79,-15.32 866.79,-22.32"/>
</g>
<!-- Node15 -->
<g id="node15" class="node">
<title>Node15</title>
<g id="a_node15"><a xlink:href="namespaceconsole_1_1cga.html#afa19057ca041b39682d5d4831c43dfa0" target="_top" xlink:title=" ">
<polygon fill="white" stroke="black" points="880.5,-47.32 880.5,-66.32 993.5,-66.32 993.5,-47.32 880.5,-47.32"/>
<text text-anchor="middle" x="937" y="-54.32" font-family="Helvetica,sans-Serif" font-size="10.00">console::cga::putChar</text>
</a>
</g>
</g>
<!-- Node11&#45;&gt;Node15 -->
<g id="edge14" class="edge">
<title>Node11&#45;&gt;Node15</title>
<path fill="none" stroke="midnightblue" d="M824.6,-28.41C844.08,-33.38 868.07,-39.5 888.8,-44.78"/>
<polygon fill="midnightblue" stroke="midnightblue" points="888.12,-48.22 898.67,-47.3 889.85,-41.44 888.12,-48.22"/>
</g>
<!-- Node13 -->
<g id="node13" class="node">
<title>Node13</title>
<g id="a_node13"><a xlink:href="namespaceconsole_1_1serial.html#aa5605d4537106bb1c2bab72d7d1a5824" target="_top" xlink:title=" ">
<polygon fill="white" stroke="black" points="1051,-9.32 1051,-28.32 1155,-28.32 1155,-9.32 1051,-9.32"/>
<text text-anchor="middle" x="1103" y="-16.32" font-family="Helvetica,sans-Serif" font-size="10.00">console::serial::sout</text>
</a>
</g>
</g>
<!-- Node12&#45;&gt;Node13 -->
<g id="edge12" class="edge">
<title>Node12&#45;&gt;Node13</title>
<path fill="none" stroke="midnightblue" d="M997.21,-18.82C1011.31,-18.82 1026.39,-18.82 1040.59,-18.82"/>
<polygon fill="midnightblue" stroke="midnightblue" points="1040.74,-22.32 1050.74,-18.82 1040.74,-15.32 1040.74,-22.32"/>
</g>
<!-- Node14 -->
<g id="node14" class="node">
<title>Node14</title>
<g id="a_node14"><a xlink:href="x86_8h.html#ade961b44e45ddacbc3c3b7609cf36dc6" target="_top" xlink:title=" ">
<polygon fill="white" stroke="black" points="1220.5,-42.32 1220.5,-61.32 1255.5,-61.32 1255.5,-42.32 1220.5,-42.32"/>
<text text-anchor="middle" x="1238" y="-49.32" font-family="Helvetica,sans-Serif" font-size="10.00">outb</text>
</a>
</g>
</g>
<!-- Node13&#45;&gt;Node14 -->
<g id="edge13" class="edge">
<title>Node13&#45;&gt;Node14</title>
<path fill="none" stroke="midnightblue" d="M1142.47,-28.37C1164.32,-33.79 1191.11,-40.44 1210.59,-45.27"/>
<polygon fill="midnightblue" stroke="midnightblue" points="1209.76,-48.67 1220.31,-47.68 1211.44,-41.88 1209.76,-48.67"/>
</g>
<!-- Node16 -->
<g id="node16" class="node">
<title>Node16</title>
<g id="a_node16"><a xlink:href="namespacemem.html#a64d9d05b439041901498c606de606431" target="_top" xlink:title=" ">
<polygon fill="white" stroke="black" points="1070.5,-90.32 1070.5,-109.32 1135.5,-109.32 1135.5,-90.32 1070.5,-90.32"/>
<text text-anchor="middle" x="1103" y="-97.32" font-family="Helvetica,sans-Serif" font-size="10.00">mem::copy</text>
</a>
</g>
</g>
<!-- Node15&#45;&gt;Node16 -->
<g id="edge15" class="edge">
<title>Node15&#45;&gt;Node16</title>
<path fill="none" stroke="midnightblue" d="M974.4,-66.37C999.92,-73.06 1034.08,-82.01 1060.64,-88.98"/>
<polygon fill="midnightblue" stroke="midnightblue" points="1059.85,-92.39 1070.41,-91.54 1061.62,-85.62 1059.85,-92.39"/>
</g>
<!-- Node17 -->
<g id="node17" class="node">
<title>Node17</title>
<g id="a_node17"><a xlink:href="namespaceconsole_1_1cga.html#a06463d4dc68819e30615ba299d02a78f" target="_top" xlink:title=" ">
<polygon fill="white" stroke="black" points="1033,-47.32 1033,-66.32 1173,-66.32 1173,-47.32 1033,-47.32"/>
<text text-anchor="middle" x="1103" y="-54.32" font-family="Helvetica,sans-Serif" font-size="10.00">console::cga::cursorRefresh</text>
</a>
</g>
</g>
<!-- Node15&#45;&gt;Node17 -->
<g id="edge17" class="edge">
<title>Node15&#45;&gt;Node17</title>
<path fill="none" stroke="midnightblue" d="M993.52,-56.82C1002.9,-56.82 1012.8,-56.82 1022.65,-56.82"/>
<polygon fill="midnightblue" stroke="midnightblue" points="1022.87,-60.32 1032.87,-56.82 1022.87,-53.32 1022.87,-60.32"/>
</g>
<!-- Node16&#45;&gt;Node7 -->
<g id="edge16" class="edge">
<title>Node16&#45;&gt;Node7</title>
<path fill="none" stroke="midnightblue" d="M1135.52,-101.96C1154.49,-103.24 1178.77,-104.88 1198.82,-106.24"/>
<polygon fill="midnightblue" stroke="midnightblue" points="1198.66,-109.74 1208.87,-106.92 1199.13,-102.75 1198.66,-109.74"/>
</g>
<!-- Node17&#45;&gt;Node14 -->
<g id="edge18" class="edge">
<title>Node17&#45;&gt;Node14</title>
<path fill="none" stroke="midnightblue" d="M1173.23,-54.22C1186.48,-53.72 1199.59,-53.23 1210.45,-52.82"/>
<polygon fill="midnightblue" stroke="midnightblue" points="1210.61,-56.32 1220.47,-52.44 1210.35,-49.32 1210.61,-56.32"/>
</g>
</g>
</svg>
