<?xml version="1.0" encoding="UTF-8" standalone="no"?>
<!DOCTYPE svg PUBLIC "-//W3C//DTD SVG 1.1//EN"
 "http://www.w3.org/Graphics/SVG/1.1/DTD/svg11.dtd">
<!-- Generated by graphviz version 2.44.1 (20200629.0846)
 -->
<!-- Title: task::allocArray Pages: 1 -->
<svg width="979pt" height="180pt"
 viewBox="0.00 0.00 979.00 180.00" xmlns="http://www.w3.org/2000/svg" xmlns:xlink="http://www.w3.org/1999/xlink">
<g id="graph0" class="graph" transform="scale(1 1) rotate(0) translate(4 176)">
<title>task::allocArray</title>
<polygon fill="white" stroke="transparent" points="-4,4 -4,-176 975,-176 975,4 -4,4"/>
<!-- Node1 -->
<g id="node1" class="node">
<title>Node1</title>
<g id="a_node1"><a xlink:title=" ">
<polygon fill="#bfbfbf" stroke="black" points="0,-133.5 0,-152.5 85,-152.5 85,-133.5 0,-133.5"/>
<text text-anchor="middle" x="42.5" y="-140.5" font-family="Helvetica,sans-Serif" font-size="10.00">task::allocArray</text>
</a>
</g>
</g>
<!-- Node2 -->
<g id="node2" class="node">
<title>Node2</title>
<g id="a_node2"><a xlink:href="namespacemem.html#a981dd0cb1408b798a79443c6245e9c55" target="_top" xlink:title=" ">
<polygon fill="white" stroke="black" points="623.5,-152.5 623.5,-171.5 688.5,-171.5 688.5,-152.5 623.5,-152.5"/>
<text text-anchor="middle" x="656" y="-159.5" font-family="Helvetica,sans-Serif" font-size="10.00">mem::clear</text>
</a>
</g>
</g>
<!-- Node1&#45;&gt;Node2 -->
<g id="edge1" class="edge">
<title>Node1&#45;&gt;Node2</title>
<path fill="none" stroke="midnightblue" d="M85.13,-146.53C154.36,-152.21 297.56,-163.12 419,-167 479.41,-168.93 494.57,-168.51 555,-167 574.17,-166.52 595.4,-165.53 613.34,-164.55"/>
<polygon fill="midnightblue" stroke="midnightblue" points="613.7,-168.03 623.49,-163.98 613.31,-161.05 613.7,-168.03"/>
</g>
<!-- Node5 -->
<g id="node5" class="node">
<title>Node5</title>
<g id="a_node5"><a xlink:href="namespacevmem_1_1pgdir.html#a07dd6afb36a9efd207d6372a0f0f36e8" target="_top" xlink:title=" ">
<polygon fill="white" stroke="black" points="121,-76.5 121,-95.5 240,-95.5 240,-76.5 121,-76.5"/>
<text text-anchor="middle" x="180.5" y="-83.5" font-family="Helvetica,sans-Serif" font-size="10.00">vmem::pgdir::staticMap</text>
</a>
</g>
</g>
<!-- Node1&#45;&gt;Node5 -->
<g id="edge5" class="edge">
<title>Node1&#45;&gt;Node5</title>
<path fill="none" stroke="midnightblue" d="M66.26,-133.46C88.43,-124.17 122.32,-109.96 147.26,-99.51"/>
<polygon fill="midnightblue" stroke="midnightblue" points="148.79,-102.67 156.66,-95.57 146.09,-96.21 148.79,-102.67"/>
</g>
<!-- Node3 -->
<g id="node3" class="node">
<title>Node3</title>
<g id="a_node3"><a xlink:href="namespacestr.html#a062221f630647cf300f0dd982c4ed904" target="_top" xlink:title=" ">
<polygon fill="white" stroke="black" points="913,-142.5 913,-161.5 971,-161.5 971,-142.5 913,-142.5"/>
<text text-anchor="middle" x="942" y="-149.5" font-family="Helvetica,sans-Serif" font-size="10.00">str::count</text>
</a>
</g>
</g>
<!-- Node2&#45;&gt;Node3 -->
<g id="edge2" class="edge">
<title>Node2&#45;&gt;Node3</title>
<path fill="none" stroke="midnightblue" d="M688.75,-160.88C741.24,-159.03 845.91,-155.35 902.52,-153.35"/>
<polygon fill="midnightblue" stroke="midnightblue" points="902.97,-156.84 912.84,-152.99 902.72,-149.85 902.97,-156.84"/>
</g>
<!-- Node4 -->
<g id="node4" class="node">
<title>Node4</title>
<g id="a_node4"><a xlink:href="namespacemem.html#adbaba9127c03fb914f752bfe19d6d089" target="_top" xlink:title=" ">
<polygon fill="white" stroke="black" points="788,-123.5 788,-142.5 846,-142.5 846,-123.5 788,-123.5"/>
<text text-anchor="middle" x="817" y="-130.5" font-family="Helvetica,sans-Serif" font-size="10.00">mem::set</text>
</a>
</g>
</g>
<!-- Node2&#45;&gt;Node4 -->
<g id="edge3" class="edge">
<title>Node2&#45;&gt;Node4</title>
<path fill="none" stroke="midnightblue" d="M688.79,-156.2C714.51,-151.51 750.79,-144.89 778.03,-139.93"/>
<polygon fill="midnightblue" stroke="midnightblue" points="778.78,-143.35 787.99,-138.11 777.52,-136.46 778.78,-143.35"/>
</g>
<!-- Node4&#45;&gt;Node3 -->
<g id="edge4" class="edge">
<title>Node4&#45;&gt;Node3</title>
<path fill="none" stroke="midnightblue" d="M846.22,-137.36C863.02,-139.95 884.55,-143.28 902.85,-146.11"/>
<polygon fill="midnightblue" stroke="midnightblue" points="902.5,-149.59 912.91,-147.66 903.56,-142.68 902.5,-149.59"/>
</g>
<!-- Node6 -->
<g id="node6" class="node">
<title>Node6</title>
<g id="a_node6"><a xlink:href="namespacevmem_1_1pgdir.html#a933a8f939084dabdb1a4b5401bebf8d7" target="_top" xlink:title=" ">
<polygon fill="white" stroke="black" points="276,-76.5 276,-95.5 383,-95.5 383,-76.5 276,-76.5"/>
<text text-anchor="middle" x="329.5" y="-83.5" font-family="Helvetica,sans-Serif" font-size="10.00">vmem::pgdir::findPte</text>
</a>
</g>
</g>
<!-- Node5&#45;&gt;Node6 -->
<g id="edge6" class="edge">
<title>Node5&#45;&gt;Node6</title>
<path fill="none" stroke="midnightblue" d="M240.02,-86C248.45,-86 257.14,-86 265.65,-86"/>
<polygon fill="midnightblue" stroke="midnightblue" points="265.89,-89.5 275.89,-86 265.89,-82.5 265.89,-89.5"/>
</g>
<!-- Node10 -->
<g id="node10" class="node">
<title>Node10</title>
<g id="a_node10"><a xlink:href="namespacevmem_1_1pgdir.html#a972bb045d4c58b0ea9c569e05831bbb6" target="_top" xlink:title=" ">
<polygon fill="white" stroke="black" points="419,-0.5 419,-19.5 555,-19.5 555,-0.5 419,-0.5"/>
<text text-anchor="middle" x="487" y="-7.5" font-family="Helvetica,sans-Serif" font-size="10.00">vmem::pgdir::invalidateTLB</text>
</a>
</g>
</g>
<!-- Node5&#45;&gt;Node10 -->
<g id="edge16" class="edge">
<title>Node5&#45;&gt;Node10</title>
<path fill="none" stroke="midnightblue" d="M219.76,-76.45C275.02,-62.66 377.17,-37.16 437.61,-22.08"/>
<polygon fill="midnightblue" stroke="midnightblue" points="438.81,-25.39 447.66,-19.57 437.11,-18.6 438.81,-25.39"/>
</g>
<!-- Node6&#45;&gt;Node2 -->
<g id="edge11" class="edge">
<title>Node6&#45;&gt;Node2</title>
<path fill="none" stroke="midnightblue" d="M341.29,-95.52C357.09,-108.83 388.01,-132.52 419,-143 484.29,-165.09 565.31,-166.39 613.44,-164.66"/>
<polygon fill="midnightblue" stroke="midnightblue" points="613.64,-168.16 623.48,-164.24 613.34,-161.16 613.64,-168.16"/>
</g>
<!-- Node7 -->
<g id="node7" class="node">
<title>Node7</title>
<g id="a_node7"><a xlink:href="structvmem_1_1_page_info.html#afcdcb7e941219a8ec999353658e3c2aa" target="_top" xlink:title=" ">
<polygon fill="white" stroke="black" points="429.5,-114.5 429.5,-133.5 544.5,-133.5 544.5,-114.5 429.5,-114.5"/>
<text text-anchor="middle" x="487" y="-121.5" font-family="Helvetica,sans-Serif" font-size="10.00">vmem::PageInfo::alloc</text>
</a>
</g>
</g>
<!-- Node6&#45;&gt;Node7 -->
<g id="edge7" class="edge">
<title>Node6&#45;&gt;Node7</title>
<path fill="none" stroke="midnightblue" d="M369.74,-95.59C390.26,-100.6 415.57,-106.79 437.33,-112.11"/>
<polygon fill="midnightblue" stroke="midnightblue" points="436.5,-115.51 447.04,-114.48 438.16,-108.71 436.5,-115.51"/>
</g>
<!-- Node8 -->
<g id="node8" class="node">
<title>Node8</title>
<g id="a_node8"><a xlink:href="structvmem_1_1_page_info.html#afc863f1d364462ddd2c20bf31f588337" target="_top" xlink:title=" ">
<polygon fill="white" stroke="black" points="591,-76.5 591,-95.5 721,-95.5 721,-76.5 591,-76.5"/>
<text text-anchor="middle" x="656" y="-83.5" font-family="Helvetica,sans-Serif" font-size="10.00">vmem::PageInfo::toKernV</text>
</a>
</g>
</g>
<!-- Node6&#45;&gt;Node8 -->
<g id="edge14" class="edge">
<title>Node6&#45;&gt;Node8</title>
<path fill="none" stroke="midnightblue" d="M383.36,-86C436.92,-86 520.26,-86 580.5,-86"/>
<polygon fill="midnightblue" stroke="midnightblue" points="580.72,-89.5 590.72,-86 580.72,-82.5 580.72,-89.5"/>
</g>
<!-- Node9 -->
<g id="node9" class="node">
<title>Node9</title>
<g id="a_node9"><a xlink:href="structvmem_1_1_page_info.html#accf2071c7875c29c9aa78a01ef5963a1" target="_top" xlink:title=" ">
<polygon fill="white" stroke="black" points="757,-66.5 757,-85.5 877,-85.5 877,-66.5 757,-66.5"/>
<text text-anchor="middle" x="817" y="-73.5" font-family="Helvetica,sans-Serif" font-size="10.00">vmem::PageInfo::toPhy</text>
</a>
</g>
</g>
<!-- Node6&#45;&gt;Node9 -->
<g id="edge15" class="edge">
<title>Node6&#45;&gt;Node9</title>
<path fill="none" stroke="midnightblue" d="M383.24,-80.23C458.27,-72.74 600.15,-61.29 721,-67 729.33,-67.39 738.05,-67.98 746.69,-68.67"/>
<polygon fill="midnightblue" stroke="midnightblue" points="746.51,-72.17 756.77,-69.52 747.1,-65.19 746.51,-72.17"/>
</g>
<!-- Node6&#45;&gt;Node10 -->
<g id="edge12" class="edge">
<title>Node6&#45;&gt;Node10</title>
<path fill="none" stroke="midnightblue" d="M344.76,-76.49C361.89,-65.34 391.72,-46.76 419,-34 427.55,-30 436.96,-26.25 445.96,-22.96"/>
<polygon fill="midnightblue" stroke="midnightblue" points="447.24,-26.22 455.5,-19.58 444.9,-19.62 447.24,-26.22"/>
</g>
<!-- Node7&#45;&gt;Node2 -->
<g id="edge8" class="edge">
<title>Node7&#45;&gt;Node2</title>
<path fill="none" stroke="midnightblue" d="M530.14,-133.59C555.62,-139.39 587.97,-146.75 613.36,-152.52"/>
<polygon fill="midnightblue" stroke="midnightblue" points="612.89,-156.01 623.42,-154.81 614.44,-149.18 612.89,-156.01"/>
</g>
<!-- Node7&#45;&gt;Node8 -->
<g id="edge9" class="edge">
<title>Node7&#45;&gt;Node8</title>
<path fill="none" stroke="midnightblue" d="M530.14,-114.41C552.38,-109.35 579.85,-103.1 603.36,-97.75"/>
<polygon fill="midnightblue" stroke="midnightblue" points="604.19,-101.15 613.16,-95.52 602.63,-94.33 604.19,-101.15"/>
</g>
<!-- Node8&#45;&gt;Node9 -->
<g id="edge10" class="edge">
<title>Node8&#45;&gt;Node9</title>
<path fill="none" stroke="midnightblue" d="M721.21,-81.96C729.61,-81.43 738.24,-80.89 746.71,-80.36"/>
<polygon fill="midnightblue" stroke="midnightblue" points="747.18,-83.84 756.94,-79.71 746.74,-76.85 747.18,-83.84"/>
</g>
<!-- Node11 -->
<g id="node11" class="node">
<title>Node11</title>
<g id="a_node11"><a xlink:href="x86_8h.html#a2c1c4c8523ed258a75c563a8f94d1686" target="_top" xlink:title=" ">
<polygon fill="white" stroke="black" points="635,-0.5 635,-19.5 677,-19.5 677,-0.5 635,-0.5"/>
<text text-anchor="middle" x="656" y="-7.5" font-family="Helvetica,sans-Serif" font-size="10.00">invlpg</text>
</a>
</g>
</g>
<!-- Node10&#45;&gt;Node11 -->
<g id="edge13" class="edge">
<title>Node10&#45;&gt;Node11</title>
<path fill="none" stroke="midnightblue" d="M555.44,-10C579.58,-10 605.58,-10 624.95,-10"/>
<polygon fill="midnightblue" stroke="midnightblue" points="624.98,-13.5 634.98,-10 624.98,-6.5 624.98,-13.5"/>
</g>
</g>
</svg>
