<?xml version="1.0" encoding="UTF-8" standalone="no"?>
<!DOCTYPE svg PUBLIC "-//W3C//DTD SVG 1.1//EN"
 "http://www.w3.org/Graphics/SVG/1.1/DTD/svg11.dtd">
<!-- Generated by graphviz version 2.44.1 (20200629.0846)
 -->
<!-- Title: console::ge::printNumber Pages: 1 -->
<svg width="706pt" height="104pt"
 viewBox="0.00 0.00 706.00 104.00" xmlns="http://www.w3.org/2000/svg" xmlns:xlink="http://www.w3.org/1999/xlink">
<g id="graph0" class="graph" transform="scale(1 1) rotate(0) translate(4 100)">
<title>console::ge::printNumber</title>
<polygon fill="white" stroke="transparent" points="-4,4 -4,-100 702,-100 702,4 -4,4"/>
<!-- Node1 -->
<g id="node1" class="node">
<title>Node1</title>
<g id="a_node1"><a xlink:title=" ">
<polygon fill="#bfbfbf" stroke="black" points="0,-57.5 0,-76.5 126,-76.5 126,-57.5 0,-57.5"/>
<text text-anchor="middle" x="63" y="-64.5" font-family="Helvetica,sans-Serif" font-size="10.00">console::ge::printNumber</text>
</a>
</g>
</g>
<!-- Node2 -->
<g id="node2" class="node">
<title>Node2</title>
<g id="a_node2"><a xlink:href="namespaceconsole_1_1out.html#ad9fc97dff4404c2d21aedbb24691e7cb" target="_top" xlink:title=" ">
<polygon fill="white" stroke="black" points="162,-57.5 162,-76.5 272,-76.5 272,-57.5 162,-57.5"/>
<text text-anchor="middle" x="217" y="-64.5" font-family="Helvetica,sans-Serif" font-size="10.00">console::out::putChar</text>
</a>
</g>
</g>
<!-- Node1&#45;&gt;Node2 -->
<g id="edge1" class="edge">
<title>Node1&#45;&gt;Node2</title>
<path fill="none" stroke="midnightblue" d="M126.26,-67C134.66,-67 143.28,-67 151.71,-67"/>
<polygon fill="midnightblue" stroke="midnightblue" points="151.86,-70.5 161.86,-67 151.86,-63.5 151.86,-70.5"/>
</g>
<!-- Node3 -->
<g id="node3" class="node">
<title>Node3</title>
<g id="a_node3"><a xlink:href="namespaceconsole_1_1serial.html#a3a7c1f95ae3c24136ea63bb31fdf0391" target="_top" xlink:title=" ">
<polygon fill="white" stroke="black" points="308,-76.5 308,-95.5 428,-95.5 428,-76.5 308,-76.5"/>
<text text-anchor="middle" x="368" y="-83.5" font-family="Helvetica,sans-Serif" font-size="10.00">console::serial::putChar</text>
</a>
</g>
</g>
<!-- Node2&#45;&gt;Node3 -->
<g id="edge2" class="edge">
<title>Node2&#45;&gt;Node3</title>
<path fill="none" stroke="midnightblue" d="M272.21,-73.91C280.53,-74.97 289.2,-76.08 297.79,-77.17"/>
<polygon fill="midnightblue" stroke="midnightblue" points="297.43,-80.66 307.79,-78.45 298.32,-73.71 297.43,-80.66"/>
</g>
<!-- Node6 -->
<g id="node6" class="node">
<title>Node6</title>
<g id="a_node6"><a xlink:href="namespaceconsole_1_1cga.html#afa19057ca041b39682d5d4831c43dfa0" target="_top" xlink:title=" ">
<polygon fill="white" stroke="black" points="311.5,-38.5 311.5,-57.5 424.5,-57.5 424.5,-38.5 311.5,-38.5"/>
<text text-anchor="middle" x="368" y="-45.5" font-family="Helvetica,sans-Serif" font-size="10.00">console::cga::putChar</text>
</a>
</g>
</g>
<!-- Node2&#45;&gt;Node6 -->
<g id="edge5" class="edge">
<title>Node2&#45;&gt;Node6</title>
<path fill="none" stroke="midnightblue" d="M272.21,-60.09C281.66,-58.88 291.58,-57.62 301.3,-56.38"/>
<polygon fill="midnightblue" stroke="midnightblue" points="301.85,-59.84 311.33,-55.1 300.96,-52.89 301.85,-59.84"/>
</g>
<!-- Node4 -->
<g id="node4" class="node">
<title>Node4</title>
<g id="a_node4"><a xlink:href="namespaceconsole_1_1serial.html#aa5605d4537106bb1c2bab72d7d1a5824" target="_top" xlink:title=" ">
<polygon fill="white" stroke="black" points="482,-76.5 482,-95.5 586,-95.5 586,-76.5 482,-76.5"/>
<text text-anchor="middle" x="534" y="-83.5" font-family="Helvetica,sans-Serif" font-size="10.00">console::serial::sout</text>
</a>
</g>
</g>
<!-- Node3&#45;&gt;Node4 -->
<g id="edge3" class="edge">
<title>Node3&#45;&gt;Node4</title>
<path fill="none" stroke="midnightblue" d="M428.21,-86C442.31,-86 457.39,-86 471.59,-86"/>
<polygon fill="midnightblue" stroke="midnightblue" points="471.74,-89.5 481.74,-86 471.74,-82.5 471.74,-89.5"/>
</g>
<!-- Node5 -->
<g id="node5" class="node">
<title>Node5</title>
<g id="a_node5"><a xlink:href="x86_8h.html#ade961b44e45ddacbc3c3b7609cf36dc6" target="_top" xlink:title=" ">
<polygon fill="white" stroke="black" points="651.5,-57.5 651.5,-76.5 686.5,-76.5 686.5,-57.5 651.5,-57.5"/>
<text text-anchor="middle" x="669" y="-64.5" font-family="Helvetica,sans-Serif" font-size="10.00">outb</text>
</a>
</g>
</g>
<!-- Node4&#45;&gt;Node5 -->
<g id="edge4" class="edge">
<title>Node4&#45;&gt;Node5</title>
<path fill="none" stroke="midnightblue" d="M586.04,-78.71C604.85,-76.02 625.4,-73.09 641.22,-70.83"/>
<polygon fill="midnightblue" stroke="midnightblue" points="641.94,-74.26 651.34,-69.38 640.95,-67.33 641.94,-74.26"/>
</g>
<!-- Node7 -->
<g id="node7" class="node">
<title>Node7</title>
<g id="a_node7"><a xlink:href="namespacemem.html#a64d9d05b439041901498c606de606431" target="_top" xlink:title=" ">
<polygon fill="white" stroke="black" points="501.5,-0.5 501.5,-19.5 566.5,-19.5 566.5,-0.5 501.5,-0.5"/>
<text text-anchor="middle" x="534" y="-7.5" font-family="Helvetica,sans-Serif" font-size="10.00">mem::copy</text>
</a>
</g>
</g>
<!-- Node6&#45;&gt;Node7 -->
<g id="edge6" class="edge">
<title>Node6&#45;&gt;Node7</title>
<path fill="none" stroke="midnightblue" d="M410.38,-38.41C435.24,-32.65 466.75,-25.35 491.6,-19.59"/>
<polygon fill="midnightblue" stroke="midnightblue" points="492.51,-22.97 501.46,-17.31 490.93,-16.15 492.51,-22.97"/>
</g>
<!-- Node9 -->
<g id="node9" class="node">
<title>Node9</title>
<g id="a_node9"><a xlink:href="namespaceconsole_1_1cga.html#a06463d4dc68819e30615ba299d02a78f" target="_top" xlink:title=" ">
<polygon fill="white" stroke="black" points="464,-38.5 464,-57.5 604,-57.5 604,-38.5 464,-38.5"/>
<text text-anchor="middle" x="534" y="-45.5" font-family="Helvetica,sans-Serif" font-size="10.00">console::cga::cursorRefresh</text>
</a>
</g>
</g>
<!-- Node6&#45;&gt;Node9 -->
<g id="edge8" class="edge">
<title>Node6&#45;&gt;Node9</title>
<path fill="none" stroke="midnightblue" d="M424.52,-48C433.9,-48 443.8,-48 453.65,-48"/>
<polygon fill="midnightblue" stroke="midnightblue" points="453.87,-51.5 463.87,-48 453.87,-44.5 453.87,-51.5"/>
</g>
<!-- Node8 -->
<g id="node8" class="node">
<title>Node8</title>
<g id="a_node8"><a xlink:href="namespacestr.html#a062221f630647cf300f0dd982c4ed904" target="_top" xlink:title=" ">
<polygon fill="white" stroke="black" points="640,-0.5 640,-19.5 698,-19.5 698,-0.5 640,-0.5"/>
<text text-anchor="middle" x="669" y="-7.5" font-family="Helvetica,sans-Serif" font-size="10.00">str::count</text>
</a>
</g>
</g>
<!-- Node7&#45;&gt;Node8 -->
<g id="edge7" class="edge">
<title>Node7&#45;&gt;Node8</title>
<path fill="none" stroke="midnightblue" d="M566.52,-10C585.49,-10 609.77,-10 629.82,-10"/>
<polygon fill="midnightblue" stroke="midnightblue" points="629.87,-13.5 639.87,-10 629.87,-6.5 629.87,-13.5"/>
</g>
<!-- Node9&#45;&gt;Node5 -->
<g id="edge9" class="edge">
<title>Node9&#45;&gt;Node5</title>
<path fill="none" stroke="midnightblue" d="M601.89,-57.56C615.81,-59.54 629.71,-61.53 641.15,-63.16"/>
<polygon fill="midnightblue" stroke="midnightblue" points="640.88,-66.66 651.28,-64.61 641.87,-59.73 640.88,-66.66"/>
</g>
</g>
</svg>
