<?xml version="1.0" encoding="UTF-8" standalone="no"?>
<!DOCTYPE svg PUBLIC "-//W3C//DTD SVG 1.1//EN"
 "http://www.w3.org/Graphics/SVG/1.1/DTD/svg11.dtd">
<!-- Generated by graphviz version 2.44.1 (20200629.0846)
 -->
<!-- Title: mp::searchFP Pages: 1 -->
<!--zoomable 291 -->
<svg id="main" version="1.1" xmlns="http://www.w3.org/2000/svg" xmlns:xlink="http://www.w3.org/1999/xlink" xml:space="preserve" onload="init(evt)">
<style type="text/css"><![CDATA[
.edge:hover path { stroke: red; }
.edge:hover polygon { stroke: red; fill: red; }
]]></style>
<script type="text/javascript"><![CDATA[
var edges = document.getElementsByTagName('g');
if (edges && edges.length) {
  for (var i=0;i<edges.length;i++) {
    if (edges[i].id.substr(0,4)=='edge') {
      edges[i].setAttribute('class','edge');
    }
  }
}
]]></script>
        <defs>
                <circle id="rim" cx="0" cy="0" r="7"/>
                <circle id="rim2" cx="0" cy="0" r="3.5"/>
                <g id="zoomPlus">
                        <use xlink:href="#rim" fill="#404040">
                                <set attributeName="fill" to="#808080" begin="zoomplus.mouseover" end="zoomplus.mouseout"/>
                        </use>
                        <path d="M-4,0h8M0,-4v8" fill="none" stroke="white" stroke-width="1.5" pointer-events="none"/>
                </g>
                <g id="zoomMin">
                        <use xlink:href="#rim" fill="#404040">
                                <set attributeName="fill" to="#808080" begin="zoomminus.mouseover" end="zoomminus.mouseout"/>
                        </use>
                        <path d="M-4,0h8" fill="none" stroke="white" stroke-width="1.5" pointer-events="none"/>
                </g>
                <g id="dirArrow">
                        <path fill="none" stroke="white" stroke-width="1.5" d="M0,-3.0v7 M-2.5,-0.5L0,-3.0L2.5,-0.5"/>
                </g>
               <g id="resetDef">
                       <use xlink:href="#rim2" fill="#404040">
                               <set attributeName="fill" to="#808080" begin="reset.mouseover" end="reset.mouseout"/>
                       </use>
               </g>
        </defs>

<script type="text/javascript">
var viewWidth = 1249;
var viewHeight = 291;
var sectionId = 'dynsection-1';
</script>
<script xlink:href="svgpan.js"/>
<svg id="graph" class="graph">
<g id="viewport">
<title>mp::searchFP</title>
<polygon fill="white" stroke="transparent" points="-4,4 -4,-287.27 1245,-287.27 1245,4 -4,4"/>
<!-- Node1 -->
<g id="node1" class="node">
<title>Node1</title>
<g id="a_node1"><a xlink:title=" ">
<polygon fill="#bfbfbf" stroke="black" points="0,-225.77 0,-244.77 78,-244.77 78,-225.77 0,-225.77"/>
<text text-anchor="middle" x="39" y="-232.77" font-family="Helvetica,sans-Serif" font-size="10.00">mp::searchFP</text>
</a>
</g>
</g>
<!-- Node2 -->
<g id="node2" class="node">
<title>Node2</title>
<g id="a_node2"><a xlink:href="namespacemp.html#a68789ab3ae0e30a2fc2c7e29ba165a83" target="_top" xlink:title=" ">
<polygon fill="white" stroke="black" points="114.5,-263.77 114.5,-282.77 208.5,-282.77 208.5,-263.77 114.5,-263.77"/>
<text text-anchor="middle" x="161.5" y="-270.77" font-family="Helvetica,sans-Serif" font-size="10.00">mp::checksumOk</text>
</a>
</g>
</g>
<!-- Node1&#45;&gt;Node2 -->
<g id="edge1" class="edge">
<title>Node1&#45;&gt;Node2</title>
<path fill="none" stroke="midnightblue" d="M70.41,-244.86C85.53,-249.63 104.02,-255.46 120.3,-260.59"/>
<polygon fill="midnightblue" stroke="midnightblue" points="119.51,-264.01 130.1,-263.68 121.62,-257.34 119.51,-264.01"/>
</g>
<!-- Node3 -->
<g id="node3" class="node">
<title>Node3</title>
<g id="a_node3"><a xlink:href="namespacemem.html#a568ab26b8411b4ea9a13ab993465184f" target="_top" xlink:title=" ">
<polygon fill="white" stroke="black" points="266.5,-239.77 266.5,-258.77 329.5,-258.77 329.5,-239.77 266.5,-239.77"/>
<text text-anchor="middle" x="298" y="-246.77" font-family="Helvetica,sans-Serif" font-size="10.00">mem::cmp</text>
</a>
</g>
</g>
<!-- Node1&#45;&gt;Node3 -->
<g id="edge2" class="edge">
<title>Node1&#45;&gt;Node3</title>
<path fill="none" stroke="midnightblue" d="M78.2,-237.35C125.88,-239.94 207.09,-244.37 256.03,-247.03"/>
<polygon fill="midnightblue" stroke="midnightblue" points="256.08,-250.54 266.26,-247.59 256.46,-243.55 256.08,-250.54"/>
</g>
<!-- Node5 -->
<g id="node5" class="node">
<title>Node5</title>
<g id="a_node5"><a xlink:href="namespaceconsole_1_1out.html#ac6f663e3971b66b8e130ee94755a150e" target="_top" xlink:title=" ">
<polygon fill="white" stroke="black" points="114,-159.77 114,-178.77 209,-178.77 209,-159.77 114,-159.77"/>
<text text-anchor="middle" x="161.5" y="-166.77" font-family="Helvetica,sans-Serif" font-size="10.00">console::out::print</text>
</a>
</g>
</g>
<!-- Node1&#45;&gt;Node5 -->
<g id="edge4" class="edge">
<title>Node1&#45;&gt;Node5</title>
<path fill="none" stroke="midnightblue" d="M57.52,-225.67C77.6,-214.67 110.73,-196.53 133.97,-183.8"/>
<polygon fill="midnightblue" stroke="midnightblue" points="135.87,-186.75 142.96,-178.88 132.51,-180.61 135.87,-186.75"/>
</g>
<!-- Node4 -->
<g id="node4" class="node">
<title>Node4</title>
<g id="a_node4"><a xlink:href="namespacestr.html#a062221f630647cf300f0dd982c4ed904" target="_top" xlink:title=" ">
<polygon fill="white" stroke="black" points="1183,-133.77 1183,-152.77 1241,-152.77 1241,-133.77 1183,-133.77"/>
<text text-anchor="middle" x="1212" y="-140.77" font-family="Helvetica,sans-Serif" font-size="10.00">str::count</text>
</a>
</g>
</g>
<!-- Node3&#45;&gt;Node4 -->
<g id="edge3" class="edge">
<title>Node3&#45;&gt;Node4</title>
<path fill="none" stroke="midnightblue" d="M329.83,-250.61C385.01,-252.88 504.29,-257.27 605,-257.27 605,-257.27 605,-257.27 912,-257.27 1021.86,-257.27 1140.41,-189.24 1188.67,-158.28"/>
<polygon fill="midnightblue" stroke="midnightblue" points="1190.64,-161.18 1197.1,-152.79 1186.82,-155.32 1190.64,-161.18"/>
</g>
<!-- Node6 -->
<g id="node6" class="node">
<title>Node6</title>
<g id="a_node6"><a xlink:href="namespaceconsole_1_1out.html#a8f791bfac54067cadb1b9f18117b987b" target="_top" xlink:title=" ">
<polygon fill="white" stroke="black" points="245,-102.77 245,-121.77 351,-121.77 351,-102.77 245,-102.77"/>
<text text-anchor="middle" x="298" y="-109.77" font-family="Helvetica,sans-Serif" font-size="10.00">console::out::printVa</text>
</a>
</g>
</g>
<!-- Node5&#45;&gt;Node6 -->
<g id="edge5" class="edge">
<title>Node5&#45;&gt;Node6</title>
<path fill="none" stroke="midnightblue" d="M185.01,-159.73C206.93,-150.44 240.45,-136.23 265.11,-125.78"/>
<polygon fill="midnightblue" stroke="midnightblue" points="266.57,-128.96 274.41,-121.84 263.84,-122.52 266.57,-128.96"/>
</g>
<!-- Node7 -->
<g id="node7" class="node">
<title>Node7</title>
<g id="a_node7"><a xlink:href="namespaceconsole_1_1ge.html#af642934cb833142f133285fdb75ef7b7" target="_top" xlink:title=" ">
<polygon fill="white" stroke="black" points="387,-102.77 387,-121.77 507,-121.77 507,-102.77 387,-102.77"/>
<text text-anchor="middle" x="447" y="-109.77" font-family="Helvetica,sans-Serif" font-size="10.00">console::ge::printFmtVa</text>
</a>
</g>
</g>
<!-- Node6&#45;&gt;Node7 -->
<g id="edge6" class="edge">
<title>Node6&#45;&gt;Node7</title>
<path fill="none" stroke="midnightblue" d="M351.24,-112.27C359.54,-112.27 368.24,-112.27 376.86,-112.27"/>
<polygon fill="midnightblue" stroke="midnightblue" points="376.92,-115.77 386.92,-112.27 376.92,-108.77 376.92,-115.77"/>
</g>
<!-- Node13 -->
<g id="node13" class="node">
<title>Node13</title>
<g id="a_node13"><a xlink:href="namespaceconsole_1_1out.html#ad9fc97dff4404c2d21aedbb24691e7cb" target="_top" xlink:title=" ">
<polygon fill="white" stroke="black" points="705,-57.77 705,-76.77 815,-76.77 815,-57.77 705,-57.77"/>
<text text-anchor="middle" x="760" y="-64.77" font-family="Helvetica,sans-Serif" font-size="10.00">console::out::putChar</text>
</a>
</g>
</g>
<!-- Node6&#45;&gt;Node13 -->
<g id="edge23" class="edge">
<title>Node6&#45;&gt;Node13</title>
<path fill="none" stroke="midnightblue" d="M315.42,-102.68C353.7,-80.95 452.52,-28.42 543,-10.27 597.91,0.75 615.22,5.33 669,-10.27 696.23,-18.16 723.12,-37.04 740.31,-50.91"/>
<polygon fill="midnightblue" stroke="midnightblue" points="738.44,-53.92 748.37,-57.63 742.93,-48.54 738.44,-53.92"/>
</g>
<!-- Node7&#45;&gt;Node4 -->
<g id="edge9" class="edge">
<title>Node7&#45;&gt;Node4</title>
<path fill="none" stroke="midnightblue" d="M507.16,-121.69C569.59,-130.81 670.96,-143.27 759,-143.27 759,-143.27 759,-143.27 912,-143.27 1005.63,-143.27 1115.76,-143.27 1172.65,-143.27"/>
<polygon fill="midnightblue" stroke="midnightblue" points="1172.97,-146.77 1182.97,-143.27 1172.97,-139.77 1172.97,-146.77"/>
</g>
<!-- Node8 -->
<g id="node8" class="node">
<title>Node8</title>
<g id="a_node8"><a xlink:href="printfmt_8cc.html#a708ec6ee2b8bd2d7a453d8d9436ed3b3" target="_top" xlink:title=" ">
<polygon fill="white" stroke="black" points="577,-19.77 577,-38.77 635,-38.77 635,-19.77 577,-19.77"/>
<text text-anchor="middle" x="606" y="-26.77" font-family="Helvetica,sans-Serif" font-size="10.00">_getIntVa</text>
</a>
</g>
</g>
<!-- Node7&#45;&gt;Node8 -->
<g id="edge7" class="edge">
<title>Node7&#45;&gt;Node8</title>
<path fill="none" stroke="midnightblue" d="M459.89,-102.54C477.23,-88.78 510.87,-63.59 543,-48.27 550.59,-44.65 559.02,-41.52 567.16,-38.91"/>
<polygon fill="midnightblue" stroke="midnightblue" points="568.31,-42.22 576.87,-35.99 566.29,-35.52 568.31,-42.22"/>
</g>
<!-- Node9 -->
<g id="node9" class="node">
<title>Node9</title>
<g id="a_node9"><a xlink:href="printfmt_8cc.html#af4b46892c76c8bfd27efdb20847eb7c8" target="_top" xlink:title=" ">
<polygon fill="white" stroke="black" points="573.5,-209.77 573.5,-228.77 638.5,-228.77 638.5,-209.77 573.5,-209.77"/>
<text text-anchor="middle" x="606" y="-216.77" font-family="Helvetica,sans-Serif" font-size="10.00">_getUIntVa</text>
</a>
</g>
</g>
<!-- Node7&#45;&gt;Node9 -->
<g id="edge8" class="edge">
<title>Node7&#45;&gt;Node9</title>
<path fill="none" stroke="midnightblue" d="M455.83,-121.98C470.86,-140 505.59,-178.73 543,-200.27 549.37,-203.93 556.53,-206.97 563.65,-209.45"/>
<polygon fill="midnightblue" stroke="midnightblue" points="562.69,-212.82 573.28,-212.5 564.8,-206.14 562.69,-212.82"/>
</g>
<!-- Node10 -->
<g id="node10" class="node">
<title>Node10</title>
<g id="a_node10"><a xlink:href="printfmt_8cc.html#a0e3e484ece5e75b9f5fbe337f0ae8ae3" target="_top" xlink:title=" ">
<polygon fill="white" stroke="black" points="579.5,-171.77 579.5,-190.77 632.5,-190.77 632.5,-171.77 579.5,-171.77"/>
<text text-anchor="middle" x="606" y="-178.77" font-family="Helvetica,sans-Serif" font-size="10.00">describe</text>
</a>
</g>
</g>
<!-- Node7&#45;&gt;Node10 -->
<g id="edge10" class="edge">
<title>Node7&#45;&gt;Node10</title>
<path fill="none" stroke="midnightblue" d="M467.1,-121.82C486.15,-131.23 516.34,-145.81 543,-157.27 551.72,-161.01 561.24,-164.83 570.14,-168.29"/>
<polygon fill="midnightblue" stroke="midnightblue" points="568.9,-171.56 579.49,-171.87 571.41,-165.02 568.9,-171.56"/>
</g>
<!-- Node12 -->
<g id="node12" class="node">
<title>Node12</title>
<g id="a_node12"><a xlink:href="namespaceconsole_1_1ge.html#a7e301813fd34fde772376afc5fdad95d" target="_top" xlink:title=" ">
<polygon fill="white" stroke="black" points="543,-57.77 543,-76.77 669,-76.77 669,-57.77 543,-57.77"/>
<text text-anchor="middle" x="606" y="-64.77" font-family="Helvetica,sans-Serif" font-size="10.00">console::ge::printNumber</text>
</a>
</g>
</g>
<!-- Node7&#45;&gt;Node12 -->
<g id="edge12" class="edge">
<title>Node7&#45;&gt;Node12</title>
<path fill="none" stroke="midnightblue" d="M481.3,-102.72C504.82,-95.98 536.55,-86.89 561.99,-79.59"/>
<polygon fill="midnightblue" stroke="midnightblue" points="563.1,-82.92 571.75,-76.8 561.18,-76.19 563.1,-82.92"/>
</g>
<!-- Node7&#45;&gt;Node13 -->
<g id="edge22" class="edge">
<title>Node7&#45;&gt;Node13</title>
<path fill="none" stroke="midnightblue" d="M507.3,-106.77C551.91,-102.27 614.48,-95.21 669,-86.27 681.56,-84.21 695.02,-81.59 707.61,-78.96"/>
<polygon fill="midnightblue" stroke="midnightblue" points="708.43,-82.36 717.48,-76.86 706.97,-75.52 708.43,-82.36"/>
</g>
<!-- Node11 -->
<g id="node11" class="node">
<title>Node11</title>
<g id="a_node11"><a xlink:href="namespacemonitor.html#a318993193c866642f8389a1c1f285739" target="_top" xlink:title=" ">
<polygon fill="white" stroke="black" points="723,-171.77 723,-190.77 797,-190.77 797,-171.77 723,-171.77"/>
<text text-anchor="middle" x="760" y="-178.77" font-family="Helvetica,sans-Serif" font-size="10.00">monitor::fuck</text>
</a>
</g>
</g>
<!-- Node10&#45;&gt;Node11 -->
<g id="edge11" class="edge">
<title>Node10&#45;&gt;Node11</title>
<path fill="none" stroke="midnightblue" d="M632.78,-181.27C654.62,-181.27 686.46,-181.27 712.7,-181.27"/>
<polygon fill="midnightblue" stroke="midnightblue" points="712.82,-184.77 722.82,-181.27 712.82,-177.77 712.82,-184.77"/>
</g>
<!-- Node12&#45;&gt;Node13 -->
<g id="edge13" class="edge">
<title>Node12&#45;&gt;Node13</title>
<path fill="none" stroke="midnightblue" d="M669.26,-67.27C677.66,-67.27 686.28,-67.27 694.71,-67.27"/>
<polygon fill="midnightblue" stroke="midnightblue" points="694.86,-70.77 704.86,-67.27 694.86,-63.77 694.86,-70.77"/>
</g>
<!-- Node14 -->
<g id="node14" class="node">
<title>Node14</title>
<g id="a_node14"><a xlink:href="namespaceconsole_1_1serial.html#a3a7c1f95ae3c24136ea63bb31fdf0391" target="_top" xlink:title=" ">
<polygon fill="white" stroke="black" points="851,-19.77 851,-38.77 971,-38.77 971,-19.77 851,-19.77"/>
<text text-anchor="middle" x="911" y="-26.77" font-family="Helvetica,sans-Serif" font-size="10.00">console::serial::putChar</text>
</a>
</g>
</g>
<!-- Node13&#45;&gt;Node14 -->
<g id="edge14" class="edge">
<title>Node13&#45;&gt;Node14</title>
<path fill="none" stroke="midnightblue" d="M798.6,-57.68C818.08,-52.71 842.07,-46.59 862.8,-41.31"/>
<polygon fill="midnightblue" stroke="midnightblue" points="863.85,-44.65 872.67,-38.79 862.12,-37.87 863.85,-44.65"/>
</g>
<!-- Node17 -->
<g id="node17" class="node">
<title>Node17</title>
<g id="a_node17"><a xlink:href="namespaceconsole_1_1cga.html#afa19057ca041b39682d5d4831c43dfa0" target="_top" xlink:title=" ">
<polygon fill="white" stroke="black" points="854.5,-57.77 854.5,-76.77 967.5,-76.77 967.5,-57.77 854.5,-57.77"/>
<text text-anchor="middle" x="911" y="-64.77" font-family="Helvetica,sans-Serif" font-size="10.00">console::cga::putChar</text>
</a>
</g>
</g>
<!-- Node13&#45;&gt;Node17 -->
<g id="edge17" class="edge">
<title>Node13&#45;&gt;Node17</title>
<path fill="none" stroke="midnightblue" d="M815.21,-67.27C824.66,-67.27 834.58,-67.27 844.3,-67.27"/>
<polygon fill="midnightblue" stroke="midnightblue" points="844.33,-70.77 854.33,-67.27 844.33,-63.77 844.33,-70.77"/>
</g>
<!-- Node15 -->
<g id="node15" class="node">
<title>Node15</title>
<g id="a_node15"><a xlink:href="namespaceconsole_1_1serial.html#aa5605d4537106bb1c2bab72d7d1a5824" target="_top" xlink:title=" ">
<polygon fill="white" stroke="black" points="1025,-19.77 1025,-38.77 1129,-38.77 1129,-19.77 1025,-19.77"/>
<text text-anchor="middle" x="1077" y="-26.77" font-family="Helvetica,sans-Serif" font-size="10.00">console::serial::sout</text>
</a>
</g>
</g>
<!-- Node14&#45;&gt;Node15 -->
<g id="edge15" class="edge">
<title>Node14&#45;&gt;Node15</title>
<path fill="none" stroke="midnightblue" d="M971.21,-29.27C985.31,-29.27 1000.39,-29.27 1014.59,-29.27"/>
<polygon fill="midnightblue" stroke="midnightblue" points="1014.74,-32.77 1024.74,-29.27 1014.74,-25.77 1014.74,-32.77"/>
</g>
<!-- Node16 -->
<g id="node16" class="node">
<title>Node16</title>
<g id="a_node16"><a xlink:href="x86_8h.html#ade961b44e45ddacbc3c3b7609cf36dc6" target="_top" xlink:title=" ">
<polygon fill="white" stroke="black" points="1194.5,-38.77 1194.5,-57.77 1229.5,-57.77 1229.5,-38.77 1194.5,-38.77"/>
<text text-anchor="middle" x="1212" y="-45.77" font-family="Helvetica,sans-Serif" font-size="10.00">outb</text>
</a>
</g>
</g>
<!-- Node15&#45;&gt;Node16 -->
<g id="edge16" class="edge">
<title>Node15&#45;&gt;Node16</title>
<path fill="none" stroke="midnightblue" d="M1129.04,-36.56C1147.85,-39.24 1168.4,-42.18 1184.22,-44.44"/>
<polygon fill="midnightblue" stroke="midnightblue" points="1183.95,-47.94 1194.34,-45.89 1184.94,-41.01 1183.95,-47.94"/>
</g>
<!-- Node18 -->
<g id="node18" class="node">
<title>Node18</title>
<g id="a_node18"><a xlink:href="namespacemem.html#a64d9d05b439041901498c606de606431" target="_top" xlink:title=" ">
<polygon fill="white" stroke="black" points="1044.5,-95.77 1044.5,-114.77 1109.5,-114.77 1109.5,-95.77 1044.5,-95.77"/>
<text text-anchor="middle" x="1077" y="-102.77" font-family="Helvetica,sans-Serif" font-size="10.00">mem::copy</text>
</a>
</g>
</g>
<!-- Node17&#45;&gt;Node18 -->
<g id="edge18" class="edge">
<title>Node17&#45;&gt;Node18</title>
<path fill="none" stroke="midnightblue" d="M953.38,-76.86C978.24,-82.61 1009.75,-89.92 1034.6,-95.67"/>
<polygon fill="midnightblue" stroke="midnightblue" points="1033.93,-99.11 1044.46,-97.96 1035.51,-92.29 1033.93,-99.11"/>
</g>
<!-- Node19 -->
<g id="node19" class="node">
<title>Node19</title>
<g id="a_node19"><a xlink:href="namespaceconsole_1_1cga.html#a06463d4dc68819e30615ba299d02a78f" target="_top" xlink:title=" ">
<polygon fill="white" stroke="black" points="1007,-57.77 1007,-76.77 1147,-76.77 1147,-57.77 1007,-57.77"/>
<text text-anchor="middle" x="1077" y="-64.77" font-family="Helvetica,sans-Serif" font-size="10.00">console::cga::cursorRefresh</text>
</a>
</g>
</g>
<!-- Node17&#45;&gt;Node19 -->
<g id="edge20" class="edge">
<title>Node17&#45;&gt;Node19</title>
<path fill="none" stroke="midnightblue" d="M967.52,-67.27C976.9,-67.27 986.8,-67.27 996.65,-67.27"/>
<polygon fill="midnightblue" stroke="midnightblue" points="996.87,-70.77 1006.87,-67.27 996.87,-63.77 996.87,-70.77"/>
</g>
<!-- Node18&#45;&gt;Node4 -->
<g id="edge19" class="edge">
<title>Node18&#45;&gt;Node4</title>
<path fill="none" stroke="midnightblue" d="M1109.52,-114.27C1128.58,-119.72 1152.99,-126.69 1173.1,-132.44"/>
<polygon fill="midnightblue" stroke="midnightblue" points="1172.3,-135.85 1182.87,-135.23 1174.22,-129.12 1172.3,-135.85"/>
</g>
<!-- Node19&#45;&gt;Node16 -->
<g id="edge21" class="edge">
<title>Node19&#45;&gt;Node16</title>
<path fill="none" stroke="midnightblue" d="M1144.89,-57.71C1158.81,-55.72 1172.71,-53.74 1184.15,-52.1"/>
<polygon fill="midnightblue" stroke="midnightblue" points="1184.87,-55.53 1194.28,-50.66 1183.88,-48.61 1184.87,-55.53"/>
</g>
</g>
</svg>
        <g id="navigator" transform="translate(0 0)" fill="#404254">
                <rect fill="#f2f5e9" fill-opacity="0.5" stroke="#606060" stroke-width=".5" x="0" y="0" width="60" height="60"/>
                <use id="zoomplus" xlink:href="#zoomPlus" x="17" y="9" onmousedown="handleZoom(evt,'in')"/>
                <use id="zoomminus" xlink:href="#zoomMin" x="42" y="9" onmousedown="handleZoom(evt,'out')"/>
                <use id="reset" xlink:href="#resetDef" x="30" y="36" onmousedown="handleReset()"/>
                <g id="arrowUp" xlink:href="#dirArrow" transform="translate(30 24)" onmousedown="handlePan(0,-1)">
                  <use xlink:href="#rim" fill="#404040">
                        <set attributeName="fill" to="#808080" begin="arrowUp.mouseover" end="arrowUp.mouseout"/>
                  </use>
                  <path fill="none" stroke="white" stroke-width="1.5" d="M0,-3.0v7 M-2.5,-0.5L0,-3.0L2.5,-0.5"/>
                </g>
                <g id="arrowRight" xlink:href="#dirArrow" transform="rotate(90) translate(36 -43)" onmousedown="handlePan(1,0)">
                  <use xlink:href="#rim" fill="#404040">
                        <set attributeName="fill" to="#808080" begin="arrowRight.mouseover" end="arrowRight.mouseout"/>
                  </use>
                  <path fill="none" stroke="white" stroke-width="1.5" d="M0,-3.0v7 M-2.5,-0.5L0,-3.0L2.5,-0.5"/>
                </g>
                <g id="arrowDown" xlink:href="#dirArrow" transform="rotate(180) translate(-30 -48)" onmousedown="handlePan(0,1)">
                  <use xlink:href="#rim" fill="#404040">
                        <set attributeName="fill" to="#808080" begin="arrowDown.mouseover" end="arrowDown.mouseout"/>
                  </use>
                  <path fill="none" stroke="white" stroke-width="1.5" d="M0,-3.0v7 M-2.5,-0.5L0,-3.0L2.5,-0.5"/>
                </g>
                <g id="arrowLeft" xlink:href="#dirArrow" transform="rotate(270) translate(-36 17)" onmousedown="handlePan(-1,0)">
                  <use xlink:href="#rim" fill="#404040">
                        <set attributeName="fill" to="#808080" begin="arrowLeft.mouseover" end="arrowLeft.mouseout"/>
                  </use>
                  <path fill="none" stroke="white" stroke-width="1.5" d="M0,-3.0v7 M-2.5,-0.5L0,-3.0L2.5,-0.5"/>
                </g>
        </g>
        <svg viewBox="0 0 15 15" width="100%" height="30px" preserveAspectRatio="xMaxYMin meet">
         <g id="arrow_out" transform="scale(0.3 0.3)">
          <a xlink:href="namespacemp_aee68d08a23f0a0d188f20f4cb0fbaa21_cgraph_org.svg" target="_base">
           <rect id="button" ry="5" rx="5" y="6" x="6" height="38" width="38"
                fill="#f2f5e9" fill-opacity="0.5" stroke="#606060" stroke-width="1.0"/>
           <path id="arrow"
             d="M 11.500037,31.436501 C 11.940474,20.09759 22.043105,11.32322 32.158766,21.979434 L 37.068811,17.246167 C 37.068811,17.246167 37.088388,32 37.088388,32 L 22.160133,31.978069 C 22.160133,31.978069 26.997745,27.140456 26.997745,27.140456 C 18.528582,18.264221 13.291696,25.230495 11.500037,31.436501 z"
             style="fill:#404040;"/>
          </a>
         </g>
        </svg>
</svg>
