<?xml version="1.0" encoding="UTF-8" standalone="no"?>
<!DOCTYPE svg PUBLIC "-//W3C//DTD SVG 1.1//EN"
 "http://www.w3.org/Graphics/SVG/1.1/DTD/svg11.dtd">
<!-- Generated by graphviz version 2.44.1 (20200629.0846)
 -->
<!-- Title: console::err::print Pages: 1 -->
<svg width="1130pt" height="204pt"
 viewBox="0.00 0.00 1130.00 203.67" xmlns="http://www.w3.org/2000/svg" xmlns:xlink="http://www.w3.org/1999/xlink">
<g id="graph0" class="graph" transform="scale(1 1) rotate(0) translate(4 199.67)">
<title>console::err::print</title>
<polygon fill="white" stroke="transparent" points="-4,4 -4,-199.67 1126,-199.67 1126,4 -4,4"/>
<!-- Node1 -->
<g id="node1" class="node">
<title>Node1</title>
<g id="a_node1"><a xlink:title=" ">
<polygon fill="#bfbfbf" stroke="black" points="0,-9.3 0,-28.3 92,-28.3 92,-9.3 0,-9.3"/>
<text text-anchor="middle" x="46" y="-16.3" font-family="Helvetica,sans-Serif" font-size="10.00">console::err::print</text>
</a>
</g>
</g>
<!-- Node2 -->
<g id="node2" class="node">
<title>Node2</title>
<g id="a_node2"><a xlink:href="namespaceconsole_1_1err.html#a4cd18e4c409b5b17ecec61ce83b05fba" target="_top" xlink:title=" ">
<polygon fill="white" stroke="black" points="128,-9.3 128,-28.3 232,-28.3 232,-9.3 128,-9.3"/>
<text text-anchor="middle" x="180" y="-16.3" font-family="Helvetica,sans-Serif" font-size="10.00">console::err::printVa</text>
</a>
</g>
</g>
<!-- Node1&#45;&gt;Node2 -->
<g id="edge1" class="edge">
<title>Node1&#45;&gt;Node2</title>
<path fill="none" stroke="midnightblue" d="M92.06,-18.8C100.32,-18.8 109.08,-18.8 117.73,-18.8"/>
<polygon fill="midnightblue" stroke="midnightblue" points="117.79,-22.3 127.79,-18.8 117.79,-15.3 117.79,-22.3"/>
</g>
<!-- Node3 -->
<g id="node3" class="node">
<title>Node3</title>
<g id="a_node3"><a xlink:href="namespaceconsole_1_1ge.html#af642934cb833142f133285fdb75ef7b7" target="_top" xlink:title=" ">
<polygon fill="white" stroke="black" points="268,-66.3 268,-85.3 388,-85.3 388,-66.3 268,-66.3"/>
<text text-anchor="middle" x="328" y="-73.3" font-family="Helvetica,sans-Serif" font-size="10.00">console::ge::printFmtVa</text>
</a>
</g>
</g>
<!-- Node2&#45;&gt;Node3 -->
<g id="edge2" class="edge">
<title>Node2&#45;&gt;Node3</title>
<path fill="none" stroke="midnightblue" d="M205.44,-28.34C229.44,-37.71 266.26,-52.09 293.09,-62.56"/>
<polygon fill="midnightblue" stroke="midnightblue" points="291.9,-65.85 302.48,-66.23 294.44,-59.33 291.9,-65.85"/>
</g>
<!-- Node10 -->
<g id="node10" class="node">
<title>Node10</title>
<g id="a_node10"><a xlink:href="namespaceconsole_1_1out.html#ad9fc97dff4404c2d21aedbb24691e7cb" target="_top" xlink:title=" ">
<polygon fill="white" stroke="black" points="586,-9.3 586,-28.3 696,-28.3 696,-9.3 586,-9.3"/>
<text text-anchor="middle" x="641" y="-16.3" font-family="Helvetica,sans-Serif" font-size="10.00">console::out::putChar</text>
</a>
</g>
</g>
<!-- Node2&#45;&gt;Node10 -->
<g id="edge19" class="edge">
<title>Node2&#45;&gt;Node10</title>
<path fill="none" stroke="midnightblue" d="M232.12,-12.76C303.42,-5.23 436.74,5.57 550,-3.8 560.29,-4.65 571.17,-6.04 581.68,-7.64"/>
<polygon fill="midnightblue" stroke="midnightblue" points="581.18,-11.11 591.61,-9.23 582.28,-4.2 581.18,-11.11"/>
</g>
<!-- Node4 -->
<g id="node4" class="node">
<title>Node4</title>
<g id="a_node4"><a xlink:href="printfmt_8cc.html#a708ec6ee2b8bd2d7a453d8d9436ed3b3" target="_top" xlink:title=" ">
<polygon fill="white" stroke="black" points="458,-142.3 458,-161.3 516,-161.3 516,-142.3 458,-142.3"/>
<text text-anchor="middle" x="487" y="-149.3" font-family="Helvetica,sans-Serif" font-size="10.00">_getIntVa</text>
</a>
</g>
</g>
<!-- Node3&#45;&gt;Node4 -->
<g id="edge3" class="edge">
<title>Node3&#45;&gt;Node4</title>
<path fill="none" stroke="midnightblue" d="M342.59,-85.41C360.53,-97.75 393.43,-119.19 424,-132.8 431.6,-136.19 439.99,-139.2 448.07,-141.78"/>
<polygon fill="midnightblue" stroke="midnightblue" points="447.11,-145.15 457.7,-144.7 449.14,-138.45 447.11,-145.15"/>
</g>
<!-- Node5 -->
<g id="node5" class="node">
<title>Node5</title>
<g id="a_node5"><a xlink:href="printfmt_8cc.html#af4b46892c76c8bfd27efdb20847eb7c8" target="_top" xlink:title=" ">
<polygon fill="white" stroke="black" points="454.5,-104.3 454.5,-123.3 519.5,-123.3 519.5,-104.3 454.5,-104.3"/>
<text text-anchor="middle" x="487" y="-111.3" font-family="Helvetica,sans-Serif" font-size="10.00">_getUIntVa</text>
</a>
</g>
</g>
<!-- Node3&#45;&gt;Node5 -->
<g id="edge4" class="edge">
<title>Node3&#45;&gt;Node5</title>
<path fill="none" stroke="midnightblue" d="M368.62,-85.39C391.72,-90.98 420.84,-98.03 444.3,-103.71"/>
<polygon fill="midnightblue" stroke="midnightblue" points="443.76,-107.18 454.3,-106.13 445.4,-100.38 443.76,-107.18"/>
</g>
<!-- Node6 -->
<g id="node6" class="node">
<title>Node6</title>
<g id="a_node6"><a xlink:href="namespacestr.html#a062221f630647cf300f0dd982c4ed904" target="_top" xlink:title=" ">
<polygon fill="white" stroke="black" points="1064,-99.3 1064,-118.3 1122,-118.3 1122,-99.3 1064,-99.3"/>
<text text-anchor="middle" x="1093" y="-106.3" font-family="Helvetica,sans-Serif" font-size="10.00">str::count</text>
</a>
</g>
</g>
<!-- Node3&#45;&gt;Node6 -->
<g id="edge5" class="edge">
<title>Node3&#45;&gt;Node6</title>
<path fill="none" stroke="midnightblue" d="M335.18,-85.52C348.55,-105.59 382.36,-151.37 424,-170.8 511.33,-211.55 543.63,-189.8 640,-189.8 640,-189.8 640,-189.8 793,-189.8 894.55,-189.8 1008.97,-145.73 1062.02,-122.61"/>
<polygon fill="midnightblue" stroke="midnightblue" points="1063.77,-125.66 1071.5,-118.41 1060.93,-119.26 1063.77,-125.66"/>
</g>
<!-- Node7 -->
<g id="node7" class="node">
<title>Node7</title>
<g id="a_node7"><a xlink:href="printfmt_8cc.html#a0e3e484ece5e75b9f5fbe337f0ae8ae3" target="_top" xlink:title=" ">
<polygon fill="white" stroke="black" points="460.5,-66.3 460.5,-85.3 513.5,-85.3 513.5,-66.3 460.5,-66.3"/>
<text text-anchor="middle" x="487" y="-73.3" font-family="Helvetica,sans-Serif" font-size="10.00">describe</text>
</a>
</g>
</g>
<!-- Node3&#45;&gt;Node7 -->
<g id="edge6" class="edge">
<title>Node3&#45;&gt;Node7</title>
<path fill="none" stroke="midnightblue" d="M388.35,-75.8C409.12,-75.8 431.78,-75.8 450.04,-75.8"/>
<polygon fill="midnightblue" stroke="midnightblue" points="450.24,-79.3 460.24,-75.8 450.24,-72.3 450.24,-79.3"/>
</g>
<!-- Node9 -->
<g id="node9" class="node">
<title>Node9</title>
<g id="a_node9"><a xlink:href="namespaceconsole_1_1ge.html#a7e301813fd34fde772376afc5fdad95d" target="_top" xlink:title=" ">
<polygon fill="white" stroke="black" points="424,-28.3 424,-47.3 550,-47.3 550,-28.3 424,-28.3"/>
<text text-anchor="middle" x="487" y="-35.3" font-family="Helvetica,sans-Serif" font-size="10.00">console::ge::printNumber</text>
</a>
</g>
</g>
<!-- Node3&#45;&gt;Node9 -->
<g id="edge8" class="edge">
<title>Node3&#45;&gt;Node9</title>
<path fill="none" stroke="midnightblue" d="M368.62,-66.21C389.34,-61.2 414.89,-55.01 436.86,-49.7"/>
<polygon fill="midnightblue" stroke="midnightblue" points="437.77,-53.08 446.67,-47.32 436.12,-46.27 437.77,-53.08"/>
</g>
<!-- Node3&#45;&gt;Node10 -->
<g id="edge18" class="edge">
<title>Node3&#45;&gt;Node10</title>
<path fill="none" stroke="midnightblue" d="M340.33,-66.16C357.22,-52.47 390.63,-28.04 424,-18.8 473.52,-5.09 531.9,-6.05 575.48,-9.91"/>
<polygon fill="midnightblue" stroke="midnightblue" points="575.38,-13.42 585.66,-10.89 576.05,-6.45 575.38,-13.42"/>
</g>
<!-- Node8 -->
<g id="node8" class="node">
<title>Node8</title>
<g id="a_node8"><a xlink:href="namespacemonitor.html#a318993193c866642f8389a1c1f285739" target="_top" xlink:title=" ">
<polygon fill="white" stroke="black" points="604,-66.3 604,-85.3 678,-85.3 678,-66.3 604,-66.3"/>
<text text-anchor="middle" x="641" y="-73.3" font-family="Helvetica,sans-Serif" font-size="10.00">monitor::fuck</text>
</a>
</g>
</g>
<!-- Node7&#45;&gt;Node8 -->
<g id="edge7" class="edge">
<title>Node7&#45;&gt;Node8</title>
<path fill="none" stroke="midnightblue" d="M513.78,-75.8C535.62,-75.8 567.46,-75.8 593.7,-75.8"/>
<polygon fill="midnightblue" stroke="midnightblue" points="593.82,-79.3 603.82,-75.8 593.82,-72.3 593.82,-79.3"/>
</g>
<!-- Node9&#45;&gt;Node10 -->
<g id="edge9" class="edge">
<title>Node9&#45;&gt;Node10</title>
<path fill="none" stroke="midnightblue" d="M550.26,-30.02C558.66,-28.97 567.28,-27.89 575.71,-26.84"/>
<polygon fill="midnightblue" stroke="midnightblue" points="576.37,-30.28 585.86,-25.57 575.51,-23.34 576.37,-30.28"/>
</g>
<!-- Node11 -->
<g id="node11" class="node">
<title>Node11</title>
<g id="a_node11"><a xlink:href="namespaceconsole_1_1serial.html#a3a7c1f95ae3c24136ea63bb31fdf0391" target="_top" xlink:title=" ">
<polygon fill="white" stroke="black" points="732,-9.3 732,-28.3 852,-28.3 852,-9.3 732,-9.3"/>
<text text-anchor="middle" x="792" y="-16.3" font-family="Helvetica,sans-Serif" font-size="10.00">console::serial::putChar</text>
</a>
</g>
</g>
<!-- Node10&#45;&gt;Node11 -->
<g id="edge10" class="edge">
<title>Node10&#45;&gt;Node11</title>
<path fill="none" stroke="midnightblue" d="M696.21,-18.8C704.53,-18.8 713.2,-18.8 721.79,-18.8"/>
<polygon fill="midnightblue" stroke="midnightblue" points="721.79,-22.3 731.79,-18.8 721.79,-15.3 721.79,-22.3"/>
</g>
<!-- Node14 -->
<g id="node14" class="node">
<title>Node14</title>
<g id="a_node14"><a xlink:href="namespaceconsole_1_1cga.html#afa19057ca041b39682d5d4831c43dfa0" target="_top" xlink:title=" ">
<polygon fill="white" stroke="black" points="735.5,-47.3 735.5,-66.3 848.5,-66.3 848.5,-47.3 735.5,-47.3"/>
<text text-anchor="middle" x="792" y="-54.3" font-family="Helvetica,sans-Serif" font-size="10.00">console::cga::putChar</text>
</a>
</g>
</g>
<!-- Node10&#45;&gt;Node14 -->
<g id="edge13" class="edge">
<title>Node10&#45;&gt;Node14</title>
<path fill="none" stroke="midnightblue" d="M679.6,-28.39C699.08,-33.36 723.07,-39.48 743.8,-44.76"/>
<polygon fill="midnightblue" stroke="midnightblue" points="743.12,-48.2 753.67,-47.28 744.85,-41.42 743.12,-48.2"/>
</g>
<!-- Node12 -->
<g id="node12" class="node">
<title>Node12</title>
<g id="a_node12"><a xlink:href="namespaceconsole_1_1serial.html#aa5605d4537106bb1c2bab72d7d1a5824" target="_top" xlink:title=" ">
<polygon fill="white" stroke="black" points="906,-9.3 906,-28.3 1010,-28.3 1010,-9.3 906,-9.3"/>
<text text-anchor="middle" x="958" y="-16.3" font-family="Helvetica,sans-Serif" font-size="10.00">console::serial::sout</text>
</a>
</g>
</g>
<!-- Node11&#45;&gt;Node12 -->
<g id="edge11" class="edge">
<title>Node11&#45;&gt;Node12</title>
<path fill="none" stroke="midnightblue" d="M852.21,-18.8C866.31,-18.8 881.39,-18.8 895.59,-18.8"/>
<polygon fill="midnightblue" stroke="midnightblue" points="895.74,-22.3 905.74,-18.8 895.74,-15.3 895.74,-22.3"/>
</g>
<!-- Node13 -->
<g id="node13" class="node">
<title>Node13</title>
<g id="a_node13"><a xlink:href="x86_8h.html#ade961b44e45ddacbc3c3b7609cf36dc6" target="_top" xlink:title=" ">
<polygon fill="white" stroke="black" points="1075.5,-42.3 1075.5,-61.3 1110.5,-61.3 1110.5,-42.3 1075.5,-42.3"/>
<text text-anchor="middle" x="1093" y="-49.3" font-family="Helvetica,sans-Serif" font-size="10.00">outb</text>
</a>
</g>
</g>
<!-- Node12&#45;&gt;Node13 -->
<g id="edge12" class="edge">
<title>Node12&#45;&gt;Node13</title>
<path fill="none" stroke="midnightblue" d="M997.47,-28.35C1019.32,-33.77 1046.11,-40.42 1065.59,-45.25"/>
<polygon fill="midnightblue" stroke="midnightblue" points="1064.76,-48.65 1075.31,-47.66 1066.44,-41.86 1064.76,-48.65"/>
</g>
<!-- Node15 -->
<g id="node15" class="node">
<title>Node15</title>
<g id="a_node15"><a xlink:href="namespacemem.html#a64d9d05b439041901498c606de606431" target="_top" xlink:title=" ">
<polygon fill="white" stroke="black" points="925.5,-90.3 925.5,-109.3 990.5,-109.3 990.5,-90.3 925.5,-90.3"/>
<text text-anchor="middle" x="958" y="-97.3" font-family="Helvetica,sans-Serif" font-size="10.00">mem::copy</text>
</a>
</g>
</g>
<!-- Node14&#45;&gt;Node15 -->
<g id="edge14" class="edge">
<title>Node14&#45;&gt;Node15</title>
<path fill="none" stroke="midnightblue" d="M829.4,-66.35C854.92,-73.04 889.08,-81.99 915.64,-88.96"/>
<polygon fill="midnightblue" stroke="midnightblue" points="914.85,-92.37 925.41,-91.52 916.62,-85.6 914.85,-92.37"/>
</g>
<!-- Node16 -->
<g id="node16" class="node">
<title>Node16</title>
<g id="a_node16"><a xlink:href="namespaceconsole_1_1cga.html#a06463d4dc68819e30615ba299d02a78f" target="_top" xlink:title=" ">
<polygon fill="white" stroke="black" points="888,-47.3 888,-66.3 1028,-66.3 1028,-47.3 888,-47.3"/>
<text text-anchor="middle" x="958" y="-54.3" font-family="Helvetica,sans-Serif" font-size="10.00">console::cga::cursorRefresh</text>
</a>
</g>
</g>
<!-- Node14&#45;&gt;Node16 -->
<g id="edge16" class="edge">
<title>Node14&#45;&gt;Node16</title>
<path fill="none" stroke="midnightblue" d="M848.52,-56.8C857.9,-56.8 867.8,-56.8 877.65,-56.8"/>
<polygon fill="midnightblue" stroke="midnightblue" points="877.87,-60.3 887.87,-56.8 877.87,-53.3 877.87,-60.3"/>
</g>
<!-- Node15&#45;&gt;Node6 -->
<g id="edge15" class="edge">
<title>Node15&#45;&gt;Node6</title>
<path fill="none" stroke="midnightblue" d="M990.52,-101.94C1009.49,-103.22 1033.77,-104.86 1053.82,-106.22"/>
<polygon fill="midnightblue" stroke="midnightblue" points="1053.66,-109.72 1063.87,-106.9 1054.13,-102.73 1053.66,-109.72"/>
</g>
<!-- Node16&#45;&gt;Node13 -->
<g id="edge17" class="edge">
<title>Node16&#45;&gt;Node13</title>
<path fill="none" stroke="midnightblue" d="M1028.23,-54.2C1041.48,-53.7 1054.59,-53.21 1065.45,-52.8"/>
<polygon fill="midnightblue" stroke="midnightblue" points="1065.61,-56.3 1075.47,-52.42 1065.35,-49.3 1065.61,-56.3"/>
</g>
</g>
</svg>
