<?xml version="1.0" encoding="UTF-8" standalone="no"?>
<!DOCTYPE svg PUBLIC "-//W3C//DTD SVG 1.1//EN"
 "http://www.w3.org/Graphics/SVG/1.1/DTD/svg11.dtd">
<!-- Generated by graphviz version 2.44.1 (20200629.0846)
 -->
<!-- Title: ksyscall::putChar Pages: 1 -->
<svg width="673pt" height="104pt"
 viewBox="0.00 0.00 673.00 104.00" xmlns="http://www.w3.org/2000/svg" xmlns:xlink="http://www.w3.org/1999/xlink">
<g id="graph0" class="graph" transform="scale(1 1) rotate(0) translate(4 100)">
<title>ksyscall::putChar</title>
<polygon fill="white" stroke="transparent" points="-4,4 -4,-100 669,-100 669,4 -4,4"/>
<!-- Node1 -->
<g id="node1" class="node">
<title>Node1</title>
<g id="a_node1"><a xlink:title=" ">
<polygon fill="#bfbfbf" stroke="black" points="0,-57.5 0,-76.5 93,-76.5 93,-57.5 0,-57.5"/>
<text text-anchor="middle" x="46.5" y="-64.5" font-family="Helvetica,sans-Serif" font-size="10.00">ksyscall::putChar</text>
</a>
</g>
</g>
<!-- Node2 -->
<g id="node2" class="node">
<title>Node2</title>
<g id="a_node2"><a xlink:href="namespaceconsole_1_1out.html#ad9fc97dff4404c2d21aedbb24691e7cb" target="_top" xlink:title=" ">
<polygon fill="white" stroke="black" points="129,-57.5 129,-76.5 239,-76.5 239,-57.5 129,-57.5"/>
<text text-anchor="middle" x="184" y="-64.5" font-family="Helvetica,sans-Serif" font-size="10.00">console::out::putChar</text>
</a>
</g>
</g>
<!-- Node1&#45;&gt;Node2 -->
<g id="edge1" class="edge">
<title>Node1&#45;&gt;Node2</title>
<path fill="none" stroke="midnightblue" d="M93.37,-67C101.45,-67 110,-67 118.47,-67"/>
<polygon fill="midnightblue" stroke="midnightblue" points="118.74,-70.5 128.74,-67 118.74,-63.5 118.74,-70.5"/>
</g>
<!-- Node3 -->
<g id="node3" class="node">
<title>Node3</title>
<g id="a_node3"><a xlink:href="namespaceconsole_1_1serial.html#a3a7c1f95ae3c24136ea63bb31fdf0391" target="_top" xlink:title=" ">
<polygon fill="white" stroke="black" points="275,-76.5 275,-95.5 395,-95.5 395,-76.5 275,-76.5"/>
<text text-anchor="middle" x="335" y="-83.5" font-family="Helvetica,sans-Serif" font-size="10.00">console::serial::putChar</text>
</a>
</g>
</g>
<!-- Node2&#45;&gt;Node3 -->
<g id="edge2" class="edge">
<title>Node2&#45;&gt;Node3</title>
<path fill="none" stroke="midnightblue" d="M239.21,-73.91C247.53,-74.97 256.2,-76.08 264.79,-77.17"/>
<polygon fill="midnightblue" stroke="midnightblue" points="264.43,-80.66 274.79,-78.45 265.32,-73.71 264.43,-80.66"/>
</g>
<!-- Node6 -->
<g id="node6" class="node">
<title>Node6</title>
<g id="a_node6"><a xlink:href="namespaceconsole_1_1cga.html#afa19057ca041b39682d5d4831c43dfa0" target="_top" xlink:title=" ">
<polygon fill="white" stroke="black" points="278.5,-38.5 278.5,-57.5 391.5,-57.5 391.5,-38.5 278.5,-38.5"/>
<text text-anchor="middle" x="335" y="-45.5" font-family="Helvetica,sans-Serif" font-size="10.00">console::cga::putChar</text>
</a>
</g>
</g>
<!-- Node2&#45;&gt;Node6 -->
<g id="edge5" class="edge">
<title>Node2&#45;&gt;Node6</title>
<path fill="none" stroke="midnightblue" d="M239.21,-60.09C248.66,-58.88 258.58,-57.62 268.3,-56.38"/>
<polygon fill="midnightblue" stroke="midnightblue" points="268.85,-59.84 278.33,-55.1 267.96,-52.89 268.85,-59.84"/>
</g>
<!-- Node4 -->
<g id="node4" class="node">
<title>Node4</title>
<g id="a_node4"><a xlink:href="namespaceconsole_1_1serial.html#aa5605d4537106bb1c2bab72d7d1a5824" target="_top" xlink:title=" ">
<polygon fill="white" stroke="black" points="449,-76.5 449,-95.5 553,-95.5 553,-76.5 449,-76.5"/>
<text text-anchor="middle" x="501" y="-83.5" font-family="Helvetica,sans-Serif" font-size="10.00">console::serial::sout</text>
</a>
</g>
</g>
<!-- Node3&#45;&gt;Node4 -->
<g id="edge3" class="edge">
<title>Node3&#45;&gt;Node4</title>
<path fill="none" stroke="midnightblue" d="M395.21,-86C409.31,-86 424.39,-86 438.59,-86"/>
<polygon fill="midnightblue" stroke="midnightblue" points="438.74,-89.5 448.74,-86 438.74,-82.5 438.74,-89.5"/>
</g>
<!-- Node5 -->
<g id="node5" class="node">
<title>Node5</title>
<g id="a_node5"><a xlink:href="x86_8h.html#ade961b44e45ddacbc3c3b7609cf36dc6" target="_top" xlink:title=" ">
<polygon fill="white" stroke="black" points="618.5,-57.5 618.5,-76.5 653.5,-76.5 653.5,-57.5 618.5,-57.5"/>
<text text-anchor="middle" x="636" y="-64.5" font-family="Helvetica,sans-Serif" font-size="10.00">outb</text>
</a>
</g>
</g>
<!-- Node4&#45;&gt;Node5 -->
<g id="edge4" class="edge">
<title>Node4&#45;&gt;Node5</title>
<path fill="none" stroke="midnightblue" d="M553.04,-78.71C571.85,-76.02 592.4,-73.09 608.22,-70.83"/>
<polygon fill="midnightblue" stroke="midnightblue" points="608.94,-74.26 618.34,-69.38 607.95,-67.33 608.94,-74.26"/>
</g>
<!-- Node7 -->
<g id="node7" class="node">
<title>Node7</title>
<g id="a_node7"><a xlink:href="namespacemem.html#a64d9d05b439041901498c606de606431" target="_top" xlink:title=" ">
<polygon fill="white" stroke="black" points="468.5,-0.5 468.5,-19.5 533.5,-19.5 533.5,-0.5 468.5,-0.5"/>
<text text-anchor="middle" x="501" y="-7.5" font-family="Helvetica,sans-Serif" font-size="10.00">mem::copy</text>
</a>
</g>
</g>
<!-- Node6&#45;&gt;Node7 -->
<g id="edge6" class="edge">
<title>Node6&#45;&gt;Node7</title>
<path fill="none" stroke="midnightblue" d="M377.38,-38.41C402.24,-32.65 433.75,-25.35 458.6,-19.59"/>
<polygon fill="midnightblue" stroke="midnightblue" points="459.51,-22.97 468.46,-17.31 457.93,-16.15 459.51,-22.97"/>
</g>
<!-- Node9 -->
<g id="node9" class="node">
<title>Node9</title>
<g id="a_node9"><a xlink:href="namespaceconsole_1_1cga.html#a06463d4dc68819e30615ba299d02a78f" target="_top" xlink:title=" ">
<polygon fill="white" stroke="black" points="431,-38.5 431,-57.5 571,-57.5 571,-38.5 431,-38.5"/>
<text text-anchor="middle" x="501" y="-45.5" font-family="Helvetica,sans-Serif" font-size="10.00">console::cga::cursorRefresh</text>
</a>
</g>
</g>
<!-- Node6&#45;&gt;Node9 -->
<g id="edge8" class="edge">
<title>Node6&#45;&gt;Node9</title>
<path fill="none" stroke="midnightblue" d="M391.52,-48C400.9,-48 410.8,-48 420.65,-48"/>
<polygon fill="midnightblue" stroke="midnightblue" points="420.87,-51.5 430.87,-48 420.87,-44.5 420.87,-51.5"/>
</g>
<!-- Node8 -->
<g id="node8" class="node">
<title>Node8</title>
<g id="a_node8"><a xlink:href="namespacestr.html#a062221f630647cf300f0dd982c4ed904" target="_top" xlink:title=" ">
<polygon fill="white" stroke="black" points="607,-0.5 607,-19.5 665,-19.5 665,-0.5 607,-0.5"/>
<text text-anchor="middle" x="636" y="-7.5" font-family="Helvetica,sans-Serif" font-size="10.00">str::count</text>
</a>
</g>
</g>
<!-- Node7&#45;&gt;Node8 -->
<g id="edge7" class="edge">
<title>Node7&#45;&gt;Node8</title>
<path fill="none" stroke="midnightblue" d="M533.52,-10C552.49,-10 576.77,-10 596.82,-10"/>
<polygon fill="midnightblue" stroke="midnightblue" points="596.87,-13.5 606.87,-10 596.87,-6.5 596.87,-13.5"/>
</g>
<!-- Node9&#45;&gt;Node5 -->
<g id="edge9" class="edge">
<title>Node9&#45;&gt;Node5</title>
<path fill="none" stroke="midnightblue" d="M568.89,-57.56C582.81,-59.54 596.71,-61.53 608.15,-63.16"/>
<polygon fill="midnightblue" stroke="midnightblue" points="607.88,-66.66 618.28,-64.61 608.87,-59.73 607.88,-66.66"/>
</g>
</g>
</svg>
