<?xml version="1.0" encoding="UTF-8" standalone="no"?>
<!DOCTYPE svg PUBLIC "-//W3C//DTD SVG 1.1//EN"
 "http://www.w3.org/Graphics/SVG/1.1/DTD/svg11.dtd">
<!-- Generated by graphviz version 2.44.1 (20200629.0846)
 -->
<!-- Title: vmem::utils::show Pages: 1 -->
<!--zoomable 463 -->
<svg id="main" version="1.1" xmlns="http://www.w3.org/2000/svg" xmlns:xlink="http://www.w3.org/1999/xlink" xml:space="preserve" onload="init(evt)">
<style type="text/css"><![CDATA[
.edge:hover path { stroke: red; }
.edge:hover polygon { stroke: red; fill: red; }
]]></style>
<script type="text/javascript"><![CDATA[
var edges = document.getElementsByTagName('g');
if (edges && edges.length) {
  for (var i=0;i<edges.length;i++) {
    if (edges[i].id.substr(0,4)=='edge') {
      edges[i].setAttribute('class','edge');
    }
  }
}
]]></script>
        <defs>
                <circle id="rim" cx="0" cy="0" r="7"/>
                <circle id="rim2" cx="0" cy="0" r="3.5"/>
                <g id="zoomPlus">
                        <use xlink:href="#rim" fill="#404040">
                                <set attributeName="fill" to="#808080" begin="zoomplus.mouseover" end="zoomplus.mouseout"/>
                        </use>
                        <path d="M-4,0h8M0,-4v8" fill="none" stroke="white" stroke-width="1.5" pointer-events="none"/>
                </g>
                <g id="zoomMin">
                        <use xlink:href="#rim" fill="#404040">
                                <set attributeName="fill" to="#808080" begin="zoomminus.mouseover" end="zoomminus.mouseout"/>
                        </use>
                        <path d="M-4,0h8" fill="none" stroke="white" stroke-width="1.5" pointer-events="none"/>
                </g>
                <g id="dirArrow">
                        <path fill="none" stroke="white" stroke-width="1.5" d="M0,-3.0v7 M-2.5,-0.5L0,-3.0L2.5,-0.5"/>
                </g>
               <g id="resetDef">
                       <use xlink:href="#rim2" fill="#404040">
                               <set attributeName="fill" to="#808080" begin="reset.mouseover" end="reset.mouseout"/>
                       </use>
               </g>
        </defs>

<script type="text/javascript">
var viewWidth = 1340;
var viewHeight = 463;
var sectionId = 'dynsection-2';
</script>
<script xlink:href="svgpan.js"/>
<svg id="graph" class="graph">
<g id="viewport">
<title>vmem::utils::show</title>
<polygon fill="white" stroke="transparent" points="-4,4 -4,-458.66 1336,-458.66 1336,4 -4,4"/>
<!-- Node1 -->
<g id="node1" class="node">
<title>Node1</title>
<g id="a_node1"><a xlink:title=" ">
<polygon fill="#bfbfbf" stroke="black" points="0,-110.23 0,-129.23 97,-129.23 97,-110.23 0,-110.23"/>
<text text-anchor="middle" x="48.5" y="-117.23" font-family="Helvetica,sans-Serif" font-size="10.00">vmem::utils::show</text>
</a>
</g>
</g>
<!-- Node2 -->
<g id="node2" class="node">
<title>Node2</title>
<g id="a_node2"><a xlink:href="namespacevmem_1_1pgdir.html#a933a8f939084dabdb1a4b5401bebf8d7" target="_top" xlink:title=" ">
<polygon fill="white" stroke="black" points="607.5,-357.23 607.5,-376.23 714.5,-376.23 714.5,-357.23 607.5,-357.23"/>
<text text-anchor="middle" x="661" y="-364.23" font-family="Helvetica,sans-Serif" font-size="10.00">vmem::pgdir::findPte</text>
</a>
</g>
</g>
<!-- Node1&#45;&gt;Node2 -->
<g id="edge1" class="edge">
<title>Node1&#45;&gt;Node2</title>
<path fill="none" stroke="midnightblue" d="M61.34,-129.25C77,-141.5 105.81,-162.83 133,-176.73 302.62,-263.43 521.18,-328.68 614.5,-354.56"/>
<polygon fill="midnightblue" stroke="midnightblue" points="613.62,-357.95 624.19,-357.23 615.48,-351.2 613.62,-357.95"/>
</g>
<!-- Node11 -->
<g id="node11" class="node">
<title>Node11</title>
<g id="a_node11"><a xlink:href="namespacevmem_1_1utils.html#aadd87370580c649ff15be061f87ad117" target="_top" xlink:title=" ">
<polygon fill="white" stroke="black" points="147.5,-72.23 147.5,-91.23 249.5,-91.23 249.5,-72.23 147.5,-72.23"/>
<text text-anchor="middle" x="198.5" y="-79.23" font-family="Helvetica,sans-Serif" font-size="10.00">vmem::utils::flagStr</text>
</a>
</g>
</g>
<!-- Node1&#45;&gt;Node11 -->
<g id="edge14" class="edge">
<title>Node1&#45;&gt;Node11</title>
<path fill="none" stroke="midnightblue" d="M86.85,-110.14C106.2,-105.18 130.03,-99.06 150.61,-93.77"/>
<polygon fill="midnightblue" stroke="midnightblue" points="151.61,-97.13 160.42,-91.25 149.87,-90.35 151.61,-97.13"/>
</g>
<!-- Node12 -->
<g id="node12" class="node">
<title>Node12</title>
<g id="a_node12"><a xlink:href="structvmem_1_1_page_info.html#a1e3111217d6a051c9d8b83200710a0b3" target="_top" xlink:title=" ">
<polygon fill="white" stroke="black" points="133,-34.23 133,-53.23 264,-53.23 264,-34.23 133,-34.23"/>
<text text-anchor="middle" x="198.5" y="-41.23" font-family="Helvetica,sans-Serif" font-size="10.00">vmem::PageInfo::fromPhy</text>
</a>
</g>
</g>
<!-- Node1&#45;&gt;Node12 -->
<g id="edge15" class="edge">
<title>Node1&#45;&gt;Node12</title>
<path fill="none" stroke="midnightblue" d="M60.95,-110.18C76.42,-97.7 105.25,-75.89 133,-62.73 137.88,-60.42 143.1,-58.32 148.38,-56.44"/>
<polygon fill="midnightblue" stroke="midnightblue" points="149.5,-59.75 157.89,-53.28 147.29,-53.11 149.5,-59.75"/>
</g>
<!-- Node13 -->
<g id="node13" class="node">
<title>Node13</title>
<g id="a_node13"><a xlink:href="namespaceconsole_1_1out.html#ac6f663e3971b66b8e130ee94755a150e" target="_top" xlink:title=" ">
<polygon fill="white" stroke="black" points="151,-148.23 151,-167.23 246,-167.23 246,-148.23 151,-148.23"/>
<text text-anchor="middle" x="198.5" y="-155.23" font-family="Helvetica,sans-Serif" font-size="10.00">console::out::print</text>
</a>
</g>
</g>
<!-- Node1&#45;&gt;Node13 -->
<g id="edge16" class="edge">
<title>Node1&#45;&gt;Node13</title>
<path fill="none" stroke="midnightblue" d="M86.85,-129.32C106.2,-134.29 130.03,-140.41 150.61,-145.7"/>
<polygon fill="midnightblue" stroke="midnightblue" points="149.87,-149.12 160.42,-148.21 151.61,-142.34 149.87,-149.12"/>
</g>
<!-- Node28 -->
<g id="node28" class="node">
<title>Node28</title>
<g id="a_node28"><a xlink:href="namespaceconsole_1_1err.html#a124c7e8527c0e3fd2b9636411aea7e82" target="_top" xlink:title=" ">
<polygon fill="white" stroke="black" points="152.5,-110.23 152.5,-129.23 244.5,-129.23 244.5,-110.23 152.5,-110.23"/>
<text text-anchor="middle" x="198.5" y="-117.23" font-family="Helvetica,sans-Serif" font-size="10.00">console::err::print</text>
</a>
</g>
</g>
<!-- Node1&#45;&gt;Node28 -->
<g id="edge36" class="edge">
<title>Node1&#45;&gt;Node28</title>
<path fill="none" stroke="midnightblue" d="M97.14,-119.73C111.56,-119.73 127.51,-119.73 142.38,-119.73"/>
<polygon fill="midnightblue" stroke="midnightblue" points="142.46,-123.23 152.46,-119.73 142.46,-116.23 142.46,-123.23"/>
</g>
<!-- Node3 -->
<g id="node3" class="node">
<title>Node3</title>
<g id="a_node3"><a xlink:href="structvmem_1_1_page_info.html#afcdcb7e941219a8ec999353658e3c2aa" target="_top" xlink:title=" ">
<polygon fill="white" stroke="black" points="770.5,-414.23 770.5,-433.23 885.5,-433.23 885.5,-414.23 770.5,-414.23"/>
<text text-anchor="middle" x="828" y="-421.23" font-family="Helvetica,sans-Serif" font-size="10.00">vmem::PageInfo::alloc</text>
</a>
</g>
</g>
<!-- Node2&#45;&gt;Node3 -->
<g id="edge2" class="edge">
<title>Node2&#45;&gt;Node3</title>
<path fill="none" stroke="midnightblue" d="M689.62,-376.27C716.98,-385.73 759.09,-400.27 789.48,-410.77"/>
<polygon fill="midnightblue" stroke="midnightblue" points="788.7,-414.21 799.29,-414.16 790.98,-407.59 788.7,-414.21"/>
</g>
<!-- Node4 -->
<g id="node4" class="node">
<title>Node4</title>
<g id="a_node4"><a xlink:href="namespacemem.html#a981dd0cb1408b798a79443c6245e9c55" target="_top" xlink:title=" ">
<polygon fill="white" stroke="black" points="964.5,-414.23 964.5,-433.23 1029.5,-433.23 1029.5,-414.23 964.5,-414.23"/>
<text text-anchor="middle" x="997" y="-421.23" font-family="Helvetica,sans-Serif" font-size="10.00">mem::clear</text>
</a>
</g>
</g>
<!-- Node2&#45;&gt;Node4 -->
<g id="edge9" class="edge">
<title>Node2&#45;&gt;Node4</title>
<path fill="none" stroke="midnightblue" d="M670.22,-376.37C685.69,-393.66 721.09,-429.42 760,-442.73 826.62,-465.54 909.76,-449.31 957.48,-436.08"/>
<polygon fill="midnightblue" stroke="midnightblue" points="958.46,-439.44 967.11,-433.32 956.53,-432.71 958.46,-439.44"/>
</g>
<!-- Node7 -->
<g id="node7" class="node">
<title>Node7</title>
<g id="a_node7"><a xlink:href="structvmem_1_1_page_info.html#afc863f1d364462ddd2c20bf31f588337" target="_top" xlink:title=" ">
<polygon fill="white" stroke="black" points="932,-376.23 932,-395.23 1062,-395.23 1062,-376.23 932,-376.23"/>
<text text-anchor="middle" x="997" y="-383.23" font-family="Helvetica,sans-Serif" font-size="10.00">vmem::PageInfo::toKernV</text>
</a>
</g>
</g>
<!-- Node2&#45;&gt;Node7 -->
<g id="edge12" class="edge">
<title>Node2&#45;&gt;Node7</title>
<path fill="none" stroke="midnightblue" d="M714.55,-369.72C770.24,-372.89 858.64,-377.92 921.5,-381.5"/>
<polygon fill="midnightblue" stroke="midnightblue" points="921.57,-385.01 931.75,-382.08 921.96,-378.02 921.57,-385.01"/>
</g>
<!-- Node8 -->
<g id="node8" class="node">
<title>Node8</title>
<g id="a_node8"><a xlink:href="structvmem_1_1_page_info.html#accf2071c7875c29c9aa78a01ef5963a1" target="_top" xlink:title=" ">
<polygon fill="white" stroke="black" points="1108,-319.23 1108,-338.23 1228,-338.23 1228,-319.23 1108,-319.23"/>
<text text-anchor="middle" x="1168" y="-326.23" font-family="Helvetica,sans-Serif" font-size="10.00">vmem::PageInfo::toPhy</text>
</a>
</g>
</g>
<!-- Node2&#45;&gt;Node8 -->
<g id="edge13" class="edge">
<title>Node2&#45;&gt;Node8</title>
<path fill="none" stroke="midnightblue" d="M680.54,-357.15C699.81,-347.77 731.12,-334.14 760,-328.73 876.89,-306.86 1016,-313.75 1097.59,-321.03"/>
<polygon fill="midnightblue" stroke="midnightblue" points="1097.46,-324.54 1107.74,-321.97 1098.1,-317.57 1097.46,-324.54"/>
</g>
<!-- Node9 -->
<g id="node9" class="node">
<title>Node9</title>
<g id="a_node9"><a xlink:href="namespacevmem_1_1pgdir.html#a972bb045d4c58b0ea9c569e05831bbb6" target="_top" xlink:title=" ">
<polygon fill="white" stroke="black" points="760,-338.23 760,-357.23 896,-357.23 896,-338.23 760,-338.23"/>
<text text-anchor="middle" x="828" y="-345.23" font-family="Helvetica,sans-Serif" font-size="10.00">vmem::pgdir::invalidateTLB</text>
</a>
</g>
</g>
<!-- Node2&#45;&gt;Node9 -->
<g id="edge10" class="edge">
<title>Node2&#45;&gt;Node9</title>
<path fill="none" stroke="midnightblue" d="M714.66,-360.67C725.86,-359.38 737.91,-357.99 749.81,-356.62"/>
<polygon fill="midnightblue" stroke="midnightblue" points="750.21,-360.1 759.75,-355.48 749.41,-353.15 750.21,-360.1"/>
</g>
<!-- Node3&#45;&gt;Node4 -->
<g id="edge3" class="edge">
<title>Node3&#45;&gt;Node4</title>
<path fill="none" stroke="midnightblue" d="M885.54,-423.73C908.04,-423.73 933.47,-423.73 954.26,-423.73"/>
<polygon fill="midnightblue" stroke="midnightblue" points="954.36,-427.23 964.36,-423.73 954.36,-420.23 954.36,-427.23"/>
</g>
<!-- Node3&#45;&gt;Node7 -->
<g id="edge7" class="edge">
<title>Node3&#45;&gt;Node7</title>
<path fill="none" stroke="midnightblue" d="M871.14,-414.14C893.38,-409.09 920.85,-402.83 944.36,-397.49"/>
<polygon fill="midnightblue" stroke="midnightblue" points="945.19,-400.89 954.16,-395.25 943.63,-394.06 945.19,-400.89"/>
</g>
<!-- Node5 -->
<g id="node5" class="node">
<title>Node5</title>
<g id="a_node5"><a xlink:href="namespacestr.html#a062221f630647cf300f0dd982c4ed904" target="_top" xlink:title=" ">
<polygon fill="white" stroke="black" points="1274,-300.23 1274,-319.23 1332,-319.23 1332,-300.23 1274,-300.23"/>
<text text-anchor="middle" x="1303" y="-307.23" font-family="Helvetica,sans-Serif" font-size="10.00">str::count</text>
</a>
</g>
</g>
<!-- Node4&#45;&gt;Node5 -->
<g id="edge4" class="edge">
<title>Node4&#45;&gt;Node5</title>
<path fill="none" stroke="midnightblue" d="M1029.55,-416.28C1076.29,-404.68 1166.11,-380.23 1238,-347.73 1252.26,-341.29 1267.36,-332.43 1279.3,-324.9"/>
<polygon fill="midnightblue" stroke="midnightblue" points="1281.25,-327.81 1287.76,-319.45 1277.45,-321.92 1281.25,-327.81"/>
</g>
<!-- Node6 -->
<g id="node6" class="node">
<title>Node6</title>
<g id="a_node6"><a xlink:href="namespacemem.html#adbaba9127c03fb914f752bfe19d6d089" target="_top" xlink:title=" ">
<polygon fill="white" stroke="black" points="1139,-409.23 1139,-428.23 1197,-428.23 1197,-409.23 1139,-409.23"/>
<text text-anchor="middle" x="1168" y="-416.23" font-family="Helvetica,sans-Serif" font-size="10.00">mem::set</text>
</a>
</g>
</g>
<!-- Node4&#45;&gt;Node6 -->
<g id="edge5" class="edge">
<title>Node4&#45;&gt;Node6</title>
<path fill="none" stroke="midnightblue" d="M1029.79,-422.79C1057.93,-421.96 1099.05,-420.74 1128.94,-419.86"/>
<polygon fill="midnightblue" stroke="midnightblue" points="1129.11,-423.36 1139,-419.56 1128.9,-416.36 1129.11,-423.36"/>
</g>
<!-- Node6&#45;&gt;Node5 -->
<g id="edge6" class="edge">
<title>Node6&#45;&gt;Node5</title>
<path fill="none" stroke="midnightblue" d="M1195.39,-409.22C1208.92,-403.61 1225.19,-395.65 1238,-385.73 1259.41,-369.17 1278.62,-344.35 1290.28,-327.63"/>
<polygon fill="midnightblue" stroke="midnightblue" points="1293.24,-329.51 1295.95,-319.27 1287.44,-325.58 1293.24,-329.51"/>
</g>
<!-- Node7&#45;&gt;Node8 -->
<g id="edge8" class="edge">
<title>Node7&#45;&gt;Node8</title>
<path fill="none" stroke="midnightblue" d="M1031.66,-376.14C1041.48,-373.24 1052.2,-369.96 1062,-366.73 1085.58,-358.97 1111.84,-349.47 1132.2,-341.91"/>
<polygon fill="midnightblue" stroke="midnightblue" points="1133.54,-345.14 1141.68,-338.37 1131.09,-338.59 1133.54,-345.14"/>
</g>
<!-- Node10 -->
<g id="node10" class="node">
<title>Node10</title>
<g id="a_node10"><a xlink:href="x86_8h.html#a2c1c4c8523ed258a75c563a8f94d1686" target="_top" xlink:title=" ">
<polygon fill="white" stroke="black" points="976,-338.23 976,-357.23 1018,-357.23 1018,-338.23 976,-338.23"/>
<text text-anchor="middle" x="997" y="-345.23" font-family="Helvetica,sans-Serif" font-size="10.00">invlpg</text>
</a>
</g>
</g>
<!-- Node9&#45;&gt;Node10 -->
<g id="edge11" class="edge">
<title>Node9&#45;&gt;Node10</title>
<path fill="none" stroke="midnightblue" d="M896.44,-347.73C920.58,-347.73 946.58,-347.73 965.95,-347.73"/>
<polygon fill="midnightblue" stroke="midnightblue" points="965.98,-351.23 975.98,-347.73 965.98,-344.23 965.98,-351.23"/>
</g>
<!-- Node14 -->
<g id="node14" class="node">
<title>Node14</title>
<g id="a_node14"><a xlink:href="namespaceconsole_1_1out.html#a8f791bfac54067cadb1b9f18117b987b" target="_top" xlink:title=" ">
<polygon fill="white" stroke="black" points="300,-148.23 300,-167.23 406,-167.23 406,-148.23 300,-148.23"/>
<text text-anchor="middle" x="353" y="-155.23" font-family="Helvetica,sans-Serif" font-size="10.00">console::out::printVa</text>
</a>
</g>
</g>
<!-- Node13&#45;&gt;Node14 -->
<g id="edge17" class="edge">
<title>Node13&#45;&gt;Node14</title>
<path fill="none" stroke="midnightblue" d="M246.08,-157.73C259.76,-157.73 274.94,-157.73 289.44,-157.73"/>
<polygon fill="midnightblue" stroke="midnightblue" points="289.84,-161.23 299.84,-157.73 289.84,-154.23 289.84,-161.23"/>
</g>
<!-- Node15 -->
<g id="node15" class="node">
<title>Node15</title>
<g id="a_node15"><a xlink:href="namespaceconsole_1_1ge.html#af642934cb833142f133285fdb75ef7b7" target="_top" xlink:title=" ">
<polygon fill="white" stroke="black" points="442,-148.23 442,-167.23 562,-167.23 562,-148.23 442,-148.23"/>
<text text-anchor="middle" x="502" y="-155.23" font-family="Helvetica,sans-Serif" font-size="10.00">console::ge::printFmtVa</text>
</a>
</g>
</g>
<!-- Node14&#45;&gt;Node15 -->
<g id="edge18" class="edge">
<title>Node14&#45;&gt;Node15</title>
<path fill="none" stroke="midnightblue" d="M406.24,-157.73C414.54,-157.73 423.24,-157.73 431.86,-157.73"/>
<polygon fill="midnightblue" stroke="midnightblue" points="431.92,-161.23 441.92,-157.73 431.92,-154.23 431.92,-161.23"/>
</g>
<!-- Node21 -->
<g id="node21" class="node">
<title>Node21</title>
<g id="a_node21"><a xlink:href="namespaceconsole_1_1out.html#ad9fc97dff4404c2d21aedbb24691e7cb" target="_top" xlink:title=" ">
<polygon fill="white" stroke="black" points="773,-72.23 773,-91.23 883,-91.23 883,-72.23 773,-72.23"/>
<text text-anchor="middle" x="828" y="-79.23" font-family="Helvetica,sans-Serif" font-size="10.00">console::out::putChar</text>
</a>
</g>
</g>
<!-- Node14&#45;&gt;Node21 -->
<g id="edge35" class="edge">
<title>Node14&#45;&gt;Node21</title>
<path fill="none" stroke="midnightblue" d="M380.5,-148.2C388.7,-145.22 397.74,-141.88 406,-138.73 491.77,-106.09 507.85,-79.93 598,-62.73 653.01,-52.24 668.23,-57.63 724,-62.73 740.8,-64.27 758.94,-67.19 775.25,-70.28"/>
<polygon fill="midnightblue" stroke="midnightblue" points="774.66,-73.73 785.15,-72.22 776.01,-66.86 774.66,-73.73"/>
</g>
<!-- Node15&#45;&gt;Node5 -->
<g id="edge21" class="edge">
<title>Node15&#45;&gt;Node5</title>
<path fill="none" stroke="midnightblue" d="M509.17,-167.47C522.53,-187.57 556.31,-233.41 598,-252.73 690.66,-295.69 724.87,-271.73 827,-271.73 827,-271.73 827,-271.73 998,-271.73 1094.14,-271.73 1206.07,-290.68 1263.56,-301.81"/>
<polygon fill="midnightblue" stroke="midnightblue" points="1263.16,-305.3 1273.65,-303.8 1264.51,-298.43 1263.16,-305.3"/>
</g>
<!-- Node16 -->
<g id="node16" class="node">
<title>Node16</title>
<g id="a_node16"><a xlink:href="printfmt_8cc.html#a708ec6ee2b8bd2d7a453d8d9436ed3b3" target="_top" xlink:title=" ">
<polygon fill="white" stroke="black" points="632,-186.23 632,-205.23 690,-205.23 690,-186.23 632,-186.23"/>
<text text-anchor="middle" x="661" y="-193.23" font-family="Helvetica,sans-Serif" font-size="10.00">_getIntVa</text>
</a>
</g>
</g>
<!-- Node15&#45;&gt;Node16 -->
<g id="edge19" class="edge">
<title>Node15&#45;&gt;Node16</title>
<path fill="none" stroke="midnightblue" d="M542.62,-167.32C566.94,-173.21 597.92,-180.71 621.95,-186.53"/>
<polygon fill="midnightblue" stroke="midnightblue" points="621.24,-189.95 631.78,-188.9 622.89,-183.15 621.24,-189.95"/>
</g>
<!-- Node17 -->
<g id="node17" class="node">
<title>Node17</title>
<g id="a_node17"><a xlink:href="printfmt_8cc.html#af4b46892c76c8bfd27efdb20847eb7c8" target="_top" xlink:title=" ">
<polygon fill="white" stroke="black" points="628.5,-148.23 628.5,-167.23 693.5,-167.23 693.5,-148.23 628.5,-148.23"/>
<text text-anchor="middle" x="661" y="-155.23" font-family="Helvetica,sans-Serif" font-size="10.00">_getUIntVa</text>
</a>
</g>
</g>
<!-- Node15&#45;&gt;Node17 -->
<g id="edge20" class="edge">
<title>Node15&#45;&gt;Node17</title>
<path fill="none" stroke="midnightblue" d="M562.35,-157.73C580.91,-157.73 600.98,-157.73 618.07,-157.73"/>
<polygon fill="midnightblue" stroke="midnightblue" points="618.29,-161.23 628.29,-157.73 618.29,-154.23 618.29,-161.23"/>
</g>
<!-- Node18 -->
<g id="node18" class="node">
<title>Node18</title>
<g id="a_node18"><a xlink:href="printfmt_8cc.html#a0e3e484ece5e75b9f5fbe337f0ae8ae3" target="_top" xlink:title=" ">
<polygon fill="white" stroke="black" points="634.5,-224.23 634.5,-243.23 687.5,-243.23 687.5,-224.23 634.5,-224.23"/>
<text text-anchor="middle" x="661" y="-231.23" font-family="Helvetica,sans-Serif" font-size="10.00">describe</text>
</a>
</g>
</g>
<!-- Node15&#45;&gt;Node18 -->
<g id="edge22" class="edge">
<title>Node15&#45;&gt;Node18</title>
<path fill="none" stroke="midnightblue" d="M516.59,-167.34C534.53,-179.68 567.43,-201.12 598,-214.73 606.44,-218.49 615.85,-221.8 624.73,-224.55"/>
<polygon fill="midnightblue" stroke="midnightblue" points="623.87,-227.94 634.45,-227.42 625.85,-221.23 623.87,-227.94"/>
</g>
<!-- Node20 -->
<g id="node20" class="node">
<title>Node20</title>
<g id="a_node20"><a xlink:href="namespaceconsole_1_1ge.html#a7e301813fd34fde772376afc5fdad95d" target="_top" xlink:title=" ">
<polygon fill="white" stroke="black" points="598,-72.23 598,-91.23 724,-91.23 724,-72.23 598,-72.23"/>
<text text-anchor="middle" x="661" y="-79.23" font-family="Helvetica,sans-Serif" font-size="10.00">console::ge::printNumber</text>
</a>
</g>
</g>
<!-- Node15&#45;&gt;Node20 -->
<g id="edge24" class="edge">
<title>Node15&#45;&gt;Node20</title>
<path fill="none" stroke="midnightblue" d="M519.14,-148.05C537.77,-137.06 569.53,-118.97 598,-105.73 606.21,-101.92 615.22,-98.18 623.75,-94.84"/>
<polygon fill="midnightblue" stroke="midnightblue" points="625.04,-98.1 633.13,-91.26 622.54,-91.56 625.04,-98.1"/>
</g>
<!-- Node15&#45;&gt;Node21 -->
<g id="edge34" class="edge">
<title>Node15&#45;&gt;Node21</title>
<path fill="none" stroke="midnightblue" d="M543.71,-148.19C602.83,-134.32 712.4,-108.62 776.57,-93.56"/>
<polygon fill="midnightblue" stroke="midnightblue" points="777.52,-96.93 786.46,-91.24 775.92,-90.12 777.52,-96.93"/>
</g>
<!-- Node19 -->
<g id="node19" class="node">
<title>Node19</title>
<g id="a_node19"><a xlink:href="namespacemonitor.html#a318993193c866642f8389a1c1f285739" target="_top" xlink:title=" ">
<polygon fill="white" stroke="black" points="791,-224.23 791,-243.23 865,-243.23 865,-224.23 791,-224.23"/>
<text text-anchor="middle" x="828" y="-231.23" font-family="Helvetica,sans-Serif" font-size="10.00">monitor::fuck</text>
</a>
</g>
</g>
<!-- Node18&#45;&gt;Node19 -->
<g id="edge23" class="edge">
<title>Node18&#45;&gt;Node19</title>
<path fill="none" stroke="midnightblue" d="M687.78,-233.73C712.59,-233.73 750.66,-233.73 780.73,-233.73"/>
<polygon fill="midnightblue" stroke="midnightblue" points="780.99,-237.23 790.99,-233.73 780.99,-230.23 780.99,-237.23"/>
</g>
<!-- Node20&#45;&gt;Node21 -->
<g id="edge25" class="edge">
<title>Node20&#45;&gt;Node21</title>
<path fill="none" stroke="midnightblue" d="M724.38,-81.73C736.86,-81.73 749.99,-81.73 762.53,-81.73"/>
<polygon fill="midnightblue" stroke="midnightblue" points="762.91,-85.23 772.91,-81.73 762.91,-78.23 762.91,-85.23"/>
</g>
<!-- Node22 -->
<g id="node22" class="node">
<title>Node22</title>
<g id="a_node22"><a xlink:href="namespaceconsole_1_1serial.html#a3a7c1f95ae3c24136ea63bb31fdf0391" target="_top" xlink:title=" ">
<polygon fill="white" stroke="black" points="937,-72.23 937,-91.23 1057,-91.23 1057,-72.23 937,-72.23"/>
<text text-anchor="middle" x="997" y="-79.23" font-family="Helvetica,sans-Serif" font-size="10.00">console::serial::putChar</text>
</a>
</g>
</g>
<!-- Node21&#45;&gt;Node22 -->
<g id="edge26" class="edge">
<title>Node21&#45;&gt;Node22</title>
<path fill="none" stroke="midnightblue" d="M883.22,-81.73C897.02,-81.73 912.03,-81.73 926.47,-81.73"/>
<polygon fill="midnightblue" stroke="midnightblue" points="926.86,-85.23 936.86,-81.73 926.86,-78.23 926.86,-85.23"/>
</g>
<!-- Node25 -->
<g id="node25" class="node">
<title>Node25</title>
<g id="a_node25"><a xlink:href="namespaceconsole_1_1cga.html#afa19057ca041b39682d5d4831c43dfa0" target="_top" xlink:title=" ">
<polygon fill="white" stroke="black" points="940.5,-110.23 940.5,-129.23 1053.5,-129.23 1053.5,-110.23 940.5,-110.23"/>
<text text-anchor="middle" x="997" y="-117.23" font-family="Helvetica,sans-Serif" font-size="10.00">console::cga::putChar</text>
</a>
</g>
</g>
<!-- Node21&#45;&gt;Node25 -->
<g id="edge29" class="edge">
<title>Node21&#45;&gt;Node25</title>
<path fill="none" stroke="midnightblue" d="M871.14,-91.32C893.38,-96.38 920.85,-102.63 944.36,-107.98"/>
<polygon fill="midnightblue" stroke="midnightblue" points="943.63,-111.41 954.16,-110.21 945.19,-104.58 943.63,-111.41"/>
</g>
<!-- Node23 -->
<g id="node23" class="node">
<title>Node23</title>
<g id="a_node23"><a xlink:href="namespaceconsole_1_1serial.html#aa5605d4537106bb1c2bab72d7d1a5824" target="_top" xlink:title=" ">
<polygon fill="white" stroke="black" points="1116,-72.23 1116,-91.23 1220,-91.23 1220,-72.23 1116,-72.23"/>
<text text-anchor="middle" x="1168" y="-79.23" font-family="Helvetica,sans-Serif" font-size="10.00">console::serial::sout</text>
</a>
</g>
</g>
<!-- Node22&#45;&gt;Node23 -->
<g id="edge27" class="edge">
<title>Node22&#45;&gt;Node23</title>
<path fill="none" stroke="midnightblue" d="M1057.11,-81.73C1072.8,-81.73 1089.79,-81.73 1105.6,-81.73"/>
<polygon fill="midnightblue" stroke="midnightblue" points="1105.8,-85.23 1115.8,-81.73 1105.8,-78.23 1105.8,-85.23"/>
</g>
<!-- Node24 -->
<g id="node24" class="node">
<title>Node24</title>
<g id="a_node24"><a xlink:href="x86_8h.html#ade961b44e45ddacbc3c3b7609cf36dc6" target="_top" xlink:title=" ">
<polygon fill="white" stroke="black" points="1285.5,-91.23 1285.5,-110.23 1320.5,-110.23 1320.5,-91.23 1285.5,-91.23"/>
<text text-anchor="middle" x="1303" y="-98.23" font-family="Helvetica,sans-Serif" font-size="10.00">outb</text>
</a>
</g>
</g>
<!-- Node23&#45;&gt;Node24 -->
<g id="edge28" class="edge">
<title>Node23&#45;&gt;Node24</title>
<path fill="none" stroke="midnightblue" d="M1220.04,-89.03C1238.85,-91.71 1259.4,-94.65 1275.22,-96.91"/>
<polygon fill="midnightblue" stroke="midnightblue" points="1274.95,-100.4 1285.34,-98.35 1275.94,-93.47 1274.95,-100.4"/>
</g>
<!-- Node26 -->
<g id="node26" class="node">
<title>Node26</title>
<g id="a_node26"><a xlink:href="namespacemem.html#a64d9d05b439041901498c606de606431" target="_top" xlink:title=" ">
<polygon fill="white" stroke="black" points="1135.5,-186.23 1135.5,-205.23 1200.5,-205.23 1200.5,-186.23 1135.5,-186.23"/>
<text text-anchor="middle" x="1168" y="-193.23" font-family="Helvetica,sans-Serif" font-size="10.00">mem::copy</text>
</a>
</g>
</g>
<!-- Node25&#45;&gt;Node26 -->
<g id="edge30" class="edge">
<title>Node25&#45;&gt;Node26</title>
<path fill="none" stroke="midnightblue" d="M1019.4,-129.36C1048.99,-142.66 1102.56,-166.75 1136.37,-181.96"/>
<polygon fill="midnightblue" stroke="midnightblue" points="1135.21,-185.28 1145.77,-186.19 1138.09,-178.89 1135.21,-185.28"/>
</g>
<!-- Node27 -->
<g id="node27" class="node">
<title>Node27</title>
<g id="a_node27"><a xlink:href="namespaceconsole_1_1cga.html#a06463d4dc68819e30615ba299d02a78f" target="_top" xlink:title=" ">
<polygon fill="white" stroke="black" points="1098,-110.23 1098,-129.23 1238,-129.23 1238,-110.23 1098,-110.23"/>
<text text-anchor="middle" x="1168" y="-117.23" font-family="Helvetica,sans-Serif" font-size="10.00">console::cga::cursorRefresh</text>
</a>
</g>
</g>
<!-- Node25&#45;&gt;Node27 -->
<g id="edge32" class="edge">
<title>Node25&#45;&gt;Node27</title>
<path fill="none" stroke="midnightblue" d="M1053.81,-119.73C1064.74,-119.73 1076.39,-119.73 1087.92,-119.73"/>
<polygon fill="midnightblue" stroke="midnightblue" points="1087.99,-123.23 1097.99,-119.73 1087.99,-116.23 1087.99,-123.23"/>
</g>
<!-- Node26&#45;&gt;Node5 -->
<g id="edge31" class="edge">
<title>Node26&#45;&gt;Node5</title>
<path fill="none" stroke="midnightblue" d="M1180.34,-205.45C1203.11,-224.97 1254.62,-269.13 1282.76,-293.25"/>
<polygon fill="midnightblue" stroke="midnightblue" points="1280.82,-296.19 1290.69,-300.04 1285.37,-290.87 1280.82,-296.19"/>
</g>
<!-- Node27&#45;&gt;Node24 -->
<g id="edge33" class="edge">
<title>Node27&#45;&gt;Node24</title>
<path fill="none" stroke="midnightblue" d="M1235.89,-110.18C1249.81,-108.19 1263.71,-106.2 1275.15,-104.57"/>
<polygon fill="midnightblue" stroke="midnightblue" points="1275.87,-108 1285.28,-103.12 1274.88,-101.07 1275.87,-108"/>
</g>
<!-- Node29 -->
<g id="node29" class="node">
<title>Node29</title>
<g id="a_node29"><a xlink:href="namespaceconsole_1_1err.html#a4cd18e4c409b5b17ecec61ce83b05fba" target="_top" xlink:title=" ">
<polygon fill="white" stroke="black" points="301,-110.23 301,-129.23 405,-129.23 405,-110.23 301,-110.23"/>
<text text-anchor="middle" x="353" y="-117.23" font-family="Helvetica,sans-Serif" font-size="10.00">console::err::printVa</text>
</a>
</g>
</g>
<!-- Node28&#45;&gt;Node29 -->
<g id="edge37" class="edge">
<title>Node28&#45;&gt;Node29</title>
<path fill="none" stroke="midnightblue" d="M244.84,-119.73C259.18,-119.73 275.27,-119.73 290.55,-119.73"/>
<polygon fill="midnightblue" stroke="midnightblue" points="290.95,-123.23 300.95,-119.73 290.95,-116.23 290.95,-123.23"/>
</g>
<!-- Node29&#45;&gt;Node15 -->
<g id="edge38" class="edge">
<title>Node29&#45;&gt;Node15</title>
<path fill="none" stroke="midnightblue" d="M391.09,-129.32C410.32,-134.29 433.99,-140.41 454.43,-145.7"/>
<polygon fill="midnightblue" stroke="midnightblue" points="453.61,-149.1 464.17,-148.21 455.37,-142.32 453.61,-149.1"/>
</g>
<!-- Node29&#45;&gt;Node21 -->
<g id="edge39" class="edge">
<title>Node29&#45;&gt;Node21</title>
<path fill="none" stroke="midnightblue" d="M359.73,-109.96C371.91,-90.28 402.52,-46.35 442,-29.73 557.52,18.88 602.08,-0.7 724,-29.73 753.74,-36.82 784.63,-53.94 804.73,-66.61"/>
<polygon fill="midnightblue" stroke="midnightblue" points="802.86,-69.57 813.16,-72.07 806.67,-63.69 802.86,-69.57"/>
</g>
</g>
</svg>
        <g id="navigator" transform="translate(0 0)" fill="#404254">
                <rect fill="#f2f5e9" fill-opacity="0.5" stroke="#606060" stroke-width=".5" x="0" y="0" width="60" height="60"/>
                <use id="zoomplus" xlink:href="#zoomPlus" x="17" y="9" onmousedown="handleZoom(evt,'in')"/>
                <use id="zoomminus" xlink:href="#zoomMin" x="42" y="9" onmousedown="handleZoom(evt,'out')"/>
                <use id="reset" xlink:href="#resetDef" x="30" y="36" onmousedown="handleReset()"/>
                <g id="arrowUp" xlink:href="#dirArrow" transform="translate(30 24)" onmousedown="handlePan(0,-1)">
                  <use xlink:href="#rim" fill="#404040">
                        <set attributeName="fill" to="#808080" begin="arrowUp.mouseover" end="arrowUp.mouseout"/>
                  </use>
                  <path fill="none" stroke="white" stroke-width="1.5" d="M0,-3.0v7 M-2.5,-0.5L0,-3.0L2.5,-0.5"/>
                </g>
                <g id="arrowRight" xlink:href="#dirArrow" transform="rotate(90) translate(36 -43)" onmousedown="handlePan(1,0)">
                  <use xlink:href="#rim" fill="#404040">
                        <set attributeName="fill" to="#808080" begin="arrowRight.mouseover" end="arrowRight.mouseout"/>
                  </use>
                  <path fill="none" stroke="white" stroke-width="1.5" d="M0,-3.0v7 M-2.5,-0.5L0,-3.0L2.5,-0.5"/>
                </g>
                <g id="arrowDown" xlink:href="#dirArrow" transform="rotate(180) translate(-30 -48)" onmousedown="handlePan(0,1)">
                  <use xlink:href="#rim" fill="#404040">
                        <set attributeName="fill" to="#808080" begin="arrowDown.mouseover" end="arrowDown.mouseout"/>
                  </use>
                  <path fill="none" stroke="white" stroke-width="1.5" d="M0,-3.0v7 M-2.5,-0.5L0,-3.0L2.5,-0.5"/>
                </g>
                <g id="arrowLeft" xlink:href="#dirArrow" transform="rotate(270) translate(-36 17)" onmousedown="handlePan(-1,0)">
                  <use xlink:href="#rim" fill="#404040">
                        <set attributeName="fill" to="#808080" begin="arrowLeft.mouseover" end="arrowLeft.mouseout"/>
                  </use>
                  <path fill="none" stroke="white" stroke-width="1.5" d="M0,-3.0v7 M-2.5,-0.5L0,-3.0L2.5,-0.5"/>
                </g>
        </g>
        <svg viewBox="0 0 15 15" width="100%" height="30px" preserveAspectRatio="xMaxYMin meet">
         <g id="arrow_out" transform="scale(0.3 0.3)">
          <a xlink:href="namespacevmem_1_1utils_a25776463c68cc6fffbd1bed90bc98f12_cgraph_org.svg" target="_base">
           <rect id="button" ry="5" rx="5" y="6" x="6" height="38" width="38"
                fill="#f2f5e9" fill-opacity="0.5" stroke="#606060" stroke-width="1.0"/>
           <path id="arrow"
             d="M 11.500037,31.436501 C 11.940474,20.09759 22.043105,11.32322 32.158766,21.979434 L 37.068811,17.246167 C 37.068811,17.246167 37.088388,32 37.088388,32 L 22.160133,31.978069 C 22.160133,31.978069 26.997745,27.140456 26.997745,27.140456 C 18.528582,18.264221 13.291696,25.230495 11.500037,31.436501 z"
             style="fill:#404040;"/>
          </a>
         </g>
        </svg>
</svg>
