<?xml version="1.0" encoding="UTF-8" standalone="no"?>
<!DOCTYPE svg PUBLIC "-//W3C//DTD SVG 1.1//EN"
 "http://www.w3.org/Graphics/SVG/1.1/DTD/svg11.dtd">
<!-- Generated by graphviz version 2.44.1 (20200629.0846)
 -->
<!-- Title: monitor::help Pages: 1 -->
<!--zoomable 204 -->
<svg id="main" version="1.1" xmlns="http://www.w3.org/2000/svg" xmlns:xlink="http://www.w3.org/1999/xlink" xml:space="preserve" onload="init(evt)">
<style type="text/css"><![CDATA[
.edge:hover path { stroke: red; }
.edge:hover polygon { stroke: red; fill: red; }
]]></style>
<script type="text/javascript"><![CDATA[
var edges = document.getElementsByTagName('g');
if (edges && edges.length) {
  for (var i=0;i<edges.length;i++) {
    if (edges[i].id.substr(0,4)=='edge') {
      edges[i].setAttribute('class','edge');
    }
  }
}
]]></script>
        <defs>
                <circle id="rim" cx="0" cy="0" r="7"/>
                <circle id="rim2" cx="0" cy="0" r="3.5"/>
                <g id="zoomPlus">
                        <use xlink:href="#rim" fill="#404040">
                                <set attributeName="fill" to="#808080" begin="zoomplus.mouseover" end="zoomplus.mouseout"/>
                        </use>
                        <path d="M-4,0h8M0,-4v8" fill="none" stroke="white" stroke-width="1.5" pointer-events="none"/>
                </g>
                <g id="zoomMin">
                        <use xlink:href="#rim" fill="#404040">
                                <set attributeName="fill" to="#808080" begin="zoomminus.mouseover" end="zoomminus.mouseout"/>
                        </use>
                        <path d="M-4,0h8" fill="none" stroke="white" stroke-width="1.5" pointer-events="none"/>
                </g>
                <g id="dirArrow">
                        <path fill="none" stroke="white" stroke-width="1.5" d="M0,-3.0v7 M-2.5,-0.5L0,-3.0L2.5,-0.5"/>
                </g>
               <g id="resetDef">
                       <use xlink:href="#rim2" fill="#404040">
                               <set attributeName="fill" to="#808080" begin="reset.mouseover" end="reset.mouseout"/>
                       </use>
               </g>
        </defs>

<script type="text/javascript">
var viewWidth = 1244;
var viewHeight = 204;
var sectionId = 'dynsection-3';
</script>
<script xlink:href="svgpan.js"/>
<svg id="graph" class="graph">
<g id="viewport">
<title>monitor::help</title>
<polygon fill="white" stroke="transparent" points="-4,4 -4,-199.69 1240,-199.69 1240,4 -4,4"/>
<!-- Node1 -->
<g id="node1" class="node">
<title>Node1</title>
<g id="a_node1"><a xlink:title=" ">
<polygon fill="#bfbfbf" stroke="black" points="0,-9.32 0,-28.32 73,-28.32 73,-9.32 0,-9.32"/>
<text text-anchor="middle" x="36.5" y="-16.32" font-family="Helvetica,sans-Serif" font-size="10.00">monitor::help</text>
</a>
</g>
</g>
<!-- Node2 -->
<g id="node2" class="node">
<title>Node2</title>
<g id="a_node2"><a xlink:href="namespaceconsole_1_1out.html#ac6f663e3971b66b8e130ee94755a150e" target="_top" xlink:title=" ">
<polygon fill="white" stroke="black" points="109,-9.32 109,-28.32 204,-28.32 204,-9.32 109,-9.32"/>
<text text-anchor="middle" x="156.5" y="-16.32" font-family="Helvetica,sans-Serif" font-size="10.00">console::out::print</text>
</a>
</g>
</g>
<!-- Node1&#45;&gt;Node2 -->
<g id="edge1" class="edge">
<title>Node1&#45;&gt;Node2</title>
<path fill="none" stroke="midnightblue" d="M73.22,-18.82C81.32,-18.82 90.11,-18.82 98.83,-18.82"/>
<polygon fill="midnightblue" stroke="midnightblue" points="98.99,-22.32 108.99,-18.82 98.99,-15.32 98.99,-22.32"/>
</g>
<!-- Node3 -->
<g id="node3" class="node">
<title>Node3</title>
<g id="a_node3"><a xlink:href="namespaceconsole_1_1out.html#a8f791bfac54067cadb1b9f18117b987b" target="_top" xlink:title=" ">
<polygon fill="white" stroke="black" points="240,-9.32 240,-28.32 346,-28.32 346,-9.32 240,-9.32"/>
<text text-anchor="middle" x="293" y="-16.32" font-family="Helvetica,sans-Serif" font-size="10.00">console::out::printVa</text>
</a>
</g>
</g>
<!-- Node2&#45;&gt;Node3 -->
<g id="edge2" class="edge">
<title>Node2&#45;&gt;Node3</title>
<path fill="none" stroke="midnightblue" d="M204.16,-18.82C212.45,-18.82 221.2,-18.82 229.84,-18.82"/>
<polygon fill="midnightblue" stroke="midnightblue" points="229.9,-22.32 239.9,-18.82 229.9,-15.32 229.9,-22.32"/>
</g>
<!-- Node4 -->
<g id="node4" class="node">
<title>Node4</title>
<g id="a_node4"><a xlink:href="namespaceconsole_1_1ge.html#af642934cb833142f133285fdb75ef7b7" target="_top" xlink:title=" ">
<polygon fill="white" stroke="black" points="382,-66.32 382,-85.32 502,-85.32 502,-66.32 382,-66.32"/>
<text text-anchor="middle" x="442" y="-73.32" font-family="Helvetica,sans-Serif" font-size="10.00">console::ge::printFmtVa</text>
</a>
</g>
</g>
<!-- Node3&#45;&gt;Node4 -->
<g id="edge3" class="edge">
<title>Node3&#45;&gt;Node4</title>
<path fill="none" stroke="midnightblue" d="M318.6,-28.36C342.77,-37.73 379.85,-52.11 406.86,-62.58"/>
<polygon fill="midnightblue" stroke="midnightblue" points="405.73,-65.9 416.32,-66.25 408.26,-59.37 405.73,-65.9"/>
</g>
<!-- Node11 -->
<g id="node11" class="node">
<title>Node11</title>
<g id="a_node11"><a xlink:href="namespaceconsole_1_1out.html#ad9fc97dff4404c2d21aedbb24691e7cb" target="_top" xlink:title=" ">
<polygon fill="white" stroke="black" points="700,-9.32 700,-28.32 810,-28.32 810,-9.32 700,-9.32"/>
<text text-anchor="middle" x="755" y="-16.32" font-family="Helvetica,sans-Serif" font-size="10.00">console::out::putChar</text>
</a>
</g>
</g>
<!-- Node3&#45;&gt;Node11 -->
<g id="edge20" class="edge">
<title>Node3&#45;&gt;Node11</title>
<path fill="none" stroke="midnightblue" d="M346.17,-12.67C417.89,-5.14 550.92,5.54 664,-3.82 674.29,-4.67 685.17,-6.06 695.68,-7.66"/>
<polygon fill="midnightblue" stroke="midnightblue" points="695.18,-11.13 705.61,-9.25 696.28,-4.22 695.18,-11.13"/>
</g>
<!-- Node5 -->
<g id="node5" class="node">
<title>Node5</title>
<g id="a_node5"><a xlink:href="printfmt_8cc.html#a708ec6ee2b8bd2d7a453d8d9436ed3b3" target="_top" xlink:title=" ">
<polygon fill="white" stroke="black" points="572,-142.32 572,-161.32 630,-161.32 630,-142.32 572,-142.32"/>
<text text-anchor="middle" x="601" y="-149.32" font-family="Helvetica,sans-Serif" font-size="10.00">_getIntVa</text>
</a>
</g>
</g>
<!-- Node4&#45;&gt;Node5 -->
<g id="edge4" class="edge">
<title>Node4&#45;&gt;Node5</title>
<path fill="none" stroke="midnightblue" d="M456.59,-85.43C474.53,-97.77 507.43,-119.21 538,-132.82 545.6,-136.21 553.99,-139.22 562.07,-141.8"/>
<polygon fill="midnightblue" stroke="midnightblue" points="561.11,-145.17 571.7,-144.72 563.14,-138.47 561.11,-145.17"/>
</g>
<!-- Node6 -->
<g id="node6" class="node">
<title>Node6</title>
<g id="a_node6"><a xlink:href="printfmt_8cc.html#af4b46892c76c8bfd27efdb20847eb7c8" target="_top" xlink:title=" ">
<polygon fill="white" stroke="black" points="568.5,-104.32 568.5,-123.32 633.5,-123.32 633.5,-104.32 568.5,-104.32"/>
<text text-anchor="middle" x="601" y="-111.32" font-family="Helvetica,sans-Serif" font-size="10.00">_getUIntVa</text>
</a>
</g>
</g>
<!-- Node4&#45;&gt;Node6 -->
<g id="edge5" class="edge">
<title>Node4&#45;&gt;Node6</title>
<path fill="none" stroke="midnightblue" d="M482.62,-85.41C505.72,-91 534.84,-98.05 558.3,-103.73"/>
<polygon fill="midnightblue" stroke="midnightblue" points="557.76,-107.2 568.3,-106.15 559.4,-100.4 557.76,-107.2"/>
</g>
<!-- Node7 -->
<g id="node7" class="node">
<title>Node7</title>
<g id="a_node7"><a xlink:href="namespacestr.html#a062221f630647cf300f0dd982c4ed904" target="_top" xlink:title=" ">
<polygon fill="white" stroke="black" points="1178,-99.32 1178,-118.32 1236,-118.32 1236,-99.32 1178,-99.32"/>
<text text-anchor="middle" x="1207" y="-106.32" font-family="Helvetica,sans-Serif" font-size="10.00">str::count</text>
</a>
</g>
</g>
<!-- Node4&#45;&gt;Node7 -->
<g id="edge6" class="edge">
<title>Node4&#45;&gt;Node7</title>
<path fill="none" stroke="midnightblue" d="M449.18,-85.54C462.55,-105.61 496.36,-151.39 538,-170.82 625.33,-211.57 657.63,-189.82 754,-189.82 754,-189.82 754,-189.82 907,-189.82 1008.55,-189.82 1122.97,-145.75 1176.02,-122.63"/>
<polygon fill="midnightblue" stroke="midnightblue" points="1177.77,-125.68 1185.5,-118.43 1174.93,-119.28 1177.77,-125.68"/>
</g>
<!-- Node8 -->
<g id="node8" class="node">
<title>Node8</title>
<g id="a_node8"><a xlink:href="printfmt_8cc.html#a0e3e484ece5e75b9f5fbe337f0ae8ae3" target="_top" xlink:title=" ">
<polygon fill="white" stroke="black" points="574.5,-66.32 574.5,-85.32 627.5,-85.32 627.5,-66.32 574.5,-66.32"/>
<text text-anchor="middle" x="601" y="-73.32" font-family="Helvetica,sans-Serif" font-size="10.00">describe</text>
</a>
</g>
</g>
<!-- Node4&#45;&gt;Node8 -->
<g id="edge7" class="edge">
<title>Node4&#45;&gt;Node8</title>
<path fill="none" stroke="midnightblue" d="M502.35,-75.82C523.12,-75.82 545.78,-75.82 564.04,-75.82"/>
<polygon fill="midnightblue" stroke="midnightblue" points="564.24,-79.32 574.24,-75.82 564.24,-72.32 564.24,-79.32"/>
</g>
<!-- Node10 -->
<g id="node10" class="node">
<title>Node10</title>
<g id="a_node10"><a xlink:href="namespaceconsole_1_1ge.html#a7e301813fd34fde772376afc5fdad95d" target="_top" xlink:title=" ">
<polygon fill="white" stroke="black" points="538,-28.32 538,-47.32 664,-47.32 664,-28.32 538,-28.32"/>
<text text-anchor="middle" x="601" y="-35.32" font-family="Helvetica,sans-Serif" font-size="10.00">console::ge::printNumber</text>
</a>
</g>
</g>
<!-- Node4&#45;&gt;Node10 -->
<g id="edge9" class="edge">
<title>Node4&#45;&gt;Node10</title>
<path fill="none" stroke="midnightblue" d="M482.62,-66.23C503.34,-61.22 528.89,-55.03 550.86,-49.72"/>
<polygon fill="midnightblue" stroke="midnightblue" points="551.77,-53.1 560.67,-47.34 550.12,-46.29 551.77,-53.1"/>
</g>
<!-- Node4&#45;&gt;Node11 -->
<g id="edge19" class="edge">
<title>Node4&#45;&gt;Node11</title>
<path fill="none" stroke="midnightblue" d="M454.33,-66.18C471.22,-52.49 504.63,-28.06 538,-18.82 587.52,-5.11 645.9,-6.07 689.48,-9.93"/>
<polygon fill="midnightblue" stroke="midnightblue" points="689.38,-13.44 699.66,-10.91 690.05,-6.47 689.38,-13.44"/>
</g>
<!-- Node9 -->
<g id="node9" class="node">
<title>Node9</title>
<g id="a_node9"><a xlink:href="namespacemonitor.html#a318993193c866642f8389a1c1f285739" target="_top" xlink:title=" ">
<polygon fill="white" stroke="black" points="718,-66.32 718,-85.32 792,-85.32 792,-66.32 718,-66.32"/>
<text text-anchor="middle" x="755" y="-73.32" font-family="Helvetica,sans-Serif" font-size="10.00">monitor::fuck</text>
</a>
</g>
</g>
<!-- Node8&#45;&gt;Node9 -->
<g id="edge8" class="edge">
<title>Node8&#45;&gt;Node9</title>
<path fill="none" stroke="midnightblue" d="M627.78,-75.82C649.62,-75.82 681.46,-75.82 707.7,-75.82"/>
<polygon fill="midnightblue" stroke="midnightblue" points="707.82,-79.32 717.82,-75.82 707.82,-72.32 707.82,-79.32"/>
</g>
<!-- Node10&#45;&gt;Node11 -->
<g id="edge10" class="edge">
<title>Node10&#45;&gt;Node11</title>
<path fill="none" stroke="midnightblue" d="M664.26,-30.04C672.66,-28.99 681.28,-27.91 689.71,-26.86"/>
<polygon fill="midnightblue" stroke="midnightblue" points="690.37,-30.3 699.86,-25.59 689.51,-23.36 690.37,-30.3"/>
</g>
<!-- Node12 -->
<g id="node12" class="node">
<title>Node12</title>
<g id="a_node12"><a xlink:href="namespaceconsole_1_1serial.html#a3a7c1f95ae3c24136ea63bb31fdf0391" target="_top" xlink:title=" ">
<polygon fill="white" stroke="black" points="846,-9.32 846,-28.32 966,-28.32 966,-9.32 846,-9.32"/>
<text text-anchor="middle" x="906" y="-16.32" font-family="Helvetica,sans-Serif" font-size="10.00">console::serial::putChar</text>
</a>
</g>
</g>
<!-- Node11&#45;&gt;Node12 -->
<g id="edge11" class="edge">
<title>Node11&#45;&gt;Node12</title>
<path fill="none" stroke="midnightblue" d="M810.21,-18.82C818.53,-18.82 827.2,-18.82 835.79,-18.82"/>
<polygon fill="midnightblue" stroke="midnightblue" points="835.79,-22.32 845.79,-18.82 835.79,-15.32 835.79,-22.32"/>
</g>
<!-- Node15 -->
<g id="node15" class="node">
<title>Node15</title>
<g id="a_node15"><a xlink:href="namespaceconsole_1_1cga.html#afa19057ca041b39682d5d4831c43dfa0" target="_top" xlink:title=" ">
<polygon fill="white" stroke="black" points="849.5,-47.32 849.5,-66.32 962.5,-66.32 962.5,-47.32 849.5,-47.32"/>
<text text-anchor="middle" x="906" y="-54.32" font-family="Helvetica,sans-Serif" font-size="10.00">console::cga::putChar</text>
</a>
</g>
</g>
<!-- Node11&#45;&gt;Node15 -->
<g id="edge14" class="edge">
<title>Node11&#45;&gt;Node15</title>
<path fill="none" stroke="midnightblue" d="M793.6,-28.41C813.08,-33.38 837.07,-39.5 857.8,-44.78"/>
<polygon fill="midnightblue" stroke="midnightblue" points="857.12,-48.22 867.67,-47.3 858.85,-41.44 857.12,-48.22"/>
</g>
<!-- Node13 -->
<g id="node13" class="node">
<title>Node13</title>
<g id="a_node13"><a xlink:href="namespaceconsole_1_1serial.html#aa5605d4537106bb1c2bab72d7d1a5824" target="_top" xlink:title=" ">
<polygon fill="white" stroke="black" points="1020,-9.32 1020,-28.32 1124,-28.32 1124,-9.32 1020,-9.32"/>
<text text-anchor="middle" x="1072" y="-16.32" font-family="Helvetica,sans-Serif" font-size="10.00">console::serial::sout</text>
</a>
</g>
</g>
<!-- Node12&#45;&gt;Node13 -->
<g id="edge12" class="edge">
<title>Node12&#45;&gt;Node13</title>
<path fill="none" stroke="midnightblue" d="M966.21,-18.82C980.31,-18.82 995.39,-18.82 1009.59,-18.82"/>
<polygon fill="midnightblue" stroke="midnightblue" points="1009.74,-22.32 1019.74,-18.82 1009.74,-15.32 1009.74,-22.32"/>
</g>
<!-- Node14 -->
<g id="node14" class="node">
<title>Node14</title>
<g id="a_node14"><a xlink:href="x86_8h.html#ade961b44e45ddacbc3c3b7609cf36dc6" target="_top" xlink:title=" ">
<polygon fill="white" stroke="black" points="1189.5,-42.32 1189.5,-61.32 1224.5,-61.32 1224.5,-42.32 1189.5,-42.32"/>
<text text-anchor="middle" x="1207" y="-49.32" font-family="Helvetica,sans-Serif" font-size="10.00">outb</text>
</a>
</g>
</g>
<!-- Node13&#45;&gt;Node14 -->
<g id="edge13" class="edge">
<title>Node13&#45;&gt;Node14</title>
<path fill="none" stroke="midnightblue" d="M1111.47,-28.37C1133.32,-33.79 1160.11,-40.44 1179.59,-45.27"/>
<polygon fill="midnightblue" stroke="midnightblue" points="1178.76,-48.67 1189.31,-47.68 1180.44,-41.88 1178.76,-48.67"/>
</g>
<!-- Node16 -->
<g id="node16" class="node">
<title>Node16</title>
<g id="a_node16"><a xlink:href="namespacemem.html#a64d9d05b439041901498c606de606431" target="_top" xlink:title=" ">
<polygon fill="white" stroke="black" points="1039.5,-90.32 1039.5,-109.32 1104.5,-109.32 1104.5,-90.32 1039.5,-90.32"/>
<text text-anchor="middle" x="1072" y="-97.32" font-family="Helvetica,sans-Serif" font-size="10.00">mem::copy</text>
</a>
</g>
</g>
<!-- Node15&#45;&gt;Node16 -->
<g id="edge15" class="edge">
<title>Node15&#45;&gt;Node16</title>
<path fill="none" stroke="midnightblue" d="M943.4,-66.37C968.92,-73.06 1003.08,-82.01 1029.64,-88.98"/>
<polygon fill="midnightblue" stroke="midnightblue" points="1028.85,-92.39 1039.41,-91.54 1030.62,-85.62 1028.85,-92.39"/>
</g>
<!-- Node17 -->
<g id="node17" class="node">
<title>Node17</title>
<g id="a_node17"><a xlink:href="namespaceconsole_1_1cga.html#a06463d4dc68819e30615ba299d02a78f" target="_top" xlink:title=" ">
<polygon fill="white" stroke="black" points="1002,-47.32 1002,-66.32 1142,-66.32 1142,-47.32 1002,-47.32"/>
<text text-anchor="middle" x="1072" y="-54.32" font-family="Helvetica,sans-Serif" font-size="10.00">console::cga::cursorRefresh</text>
</a>
</g>
</g>
<!-- Node15&#45;&gt;Node17 -->
<g id="edge17" class="edge">
<title>Node15&#45;&gt;Node17</title>
<path fill="none" stroke="midnightblue" d="M962.52,-56.82C971.9,-56.82 981.8,-56.82 991.65,-56.82"/>
<polygon fill="midnightblue" stroke="midnightblue" points="991.87,-60.32 1001.87,-56.82 991.87,-53.32 991.87,-60.32"/>
</g>
<!-- Node16&#45;&gt;Node7 -->
<g id="edge16" class="edge">
<title>Node16&#45;&gt;Node7</title>
<path fill="none" stroke="midnightblue" d="M1104.52,-101.96C1123.49,-103.24 1147.77,-104.88 1167.82,-106.24"/>
<polygon fill="midnightblue" stroke="midnightblue" points="1167.66,-109.74 1177.87,-106.92 1168.13,-102.75 1167.66,-109.74"/>
</g>
<!-- Node17&#45;&gt;Node14 -->
<g id="edge18" class="edge">
<title>Node17&#45;&gt;Node14</title>
<path fill="none" stroke="midnightblue" d="M1142.23,-54.22C1155.48,-53.72 1168.59,-53.23 1179.45,-52.82"/>
<polygon fill="midnightblue" stroke="midnightblue" points="1179.61,-56.32 1189.47,-52.44 1179.35,-49.32 1179.61,-56.32"/>
</g>
</g>
</svg>
        <g id="navigator" transform="translate(0 0)" fill="#404254">
                <rect fill="#f2f5e9" fill-opacity="0.5" stroke="#606060" stroke-width=".5" x="0" y="0" width="60" height="60"/>
                <use id="zoomplus" xlink:href="#zoomPlus" x="17" y="9" onmousedown="handleZoom(evt,'in')"/>
                <use id="zoomminus" xlink:href="#zoomMin" x="42" y="9" onmousedown="handleZoom(evt,'out')"/>
                <use id="reset" xlink:href="#resetDef" x="30" y="36" onmousedown="handleReset()"/>
                <g id="arrowUp" xlink:href="#dirArrow" transform="translate(30 24)" onmousedown="handlePan(0,-1)">
                  <use xlink:href="#rim" fill="#404040">
                        <set attributeName="fill" to="#808080" begin="arrowUp.mouseover" end="arrowUp.mouseout"/>
                  </use>
                  <path fill="none" stroke="white" stroke-width="1.5" d="M0,-3.0v7 M-2.5,-0.5L0,-3.0L2.5,-0.5"/>
                </g>
                <g id="arrowRight" xlink:href="#dirArrow" transform="rotate(90) translate(36 -43)" onmousedown="handlePan(1,0)">
                  <use xlink:href="#rim" fill="#404040">
                        <set attributeName="fill" to="#808080" begin="arrowRight.mouseover" end="arrowRight.mouseout"/>
                  </use>
                  <path fill="none" stroke="white" stroke-width="1.5" d="M0,-3.0v7 M-2.5,-0.5L0,-3.0L2.5,-0.5"/>
                </g>
                <g id="arrowDown" xlink:href="#dirArrow" transform="rotate(180) translate(-30 -48)" onmousedown="handlePan(0,1)">
                  <use xlink:href="#rim" fill="#404040">
                        <set attributeName="fill" to="#808080" begin="arrowDown.mouseover" end="arrowDown.mouseout"/>
                  </use>
                  <path fill="none" stroke="white" stroke-width="1.5" d="M0,-3.0v7 M-2.5,-0.5L0,-3.0L2.5,-0.5"/>
                </g>
                <g id="arrowLeft" xlink:href="#dirArrow" transform="rotate(270) translate(-36 17)" onmousedown="handlePan(-1,0)">
                  <use xlink:href="#rim" fill="#404040">
                        <set attributeName="fill" to="#808080" begin="arrowLeft.mouseover" end="arrowLeft.mouseout"/>
                  </use>
                  <path fill="none" stroke="white" stroke-width="1.5" d="M0,-3.0v7 M-2.5,-0.5L0,-3.0L2.5,-0.5"/>
                </g>
        </g>
        <svg viewBox="0 0 15 15" width="100%" height="30px" preserveAspectRatio="xMaxYMin meet">
         <g id="arrow_out" transform="scale(0.3 0.3)">
          <a xlink:href="namespacemonitor_ab16cdf37b48c2a007034952fc170c425_cgraph_org.svg" target="_base">
           <rect id="button" ry="5" rx="5" y="6" x="6" height="38" width="38"
                fill="#f2f5e9" fill-opacity="0.5" stroke="#606060" stroke-width="1.0"/>
           <path id="arrow"
             d="M 11.500037,31.436501 C 11.940474,20.09759 22.043105,11.32322 32.158766,21.979434 L 37.068811,17.246167 C 37.068811,17.246167 37.088388,32 37.088388,32 L 22.160133,31.978069 C 22.160133,31.978069 26.997745,27.140456 26.997745,27.140456 C 18.528582,18.264221 13.291696,25.230495 11.500037,31.436501 z"
             style="fill:#404040;"/>
          </a>
         </g>
        </svg>
</svg>
