<?xml version="1.0" encoding="UTF-8" standalone="no"?>
<!DOCTYPE svg PUBLIC "-//W3C//DTD SVG 1.1//EN"
 "http://www.w3.org/Graphics/SVG/1.1/DTD/svg11.dtd">
<!-- Generated by graphviz version 2.44.1 (20200629.0846)
 -->
<!-- Title: vmem::pgdir::mmioMap Pages: 1 -->
<svg width="1013pt" height="165pt"
 viewBox="0.00 0.00 1013.00 164.88" xmlns="http://www.w3.org/2000/svg" xmlns:xlink="http://www.w3.org/1999/xlink">
<g id="graph0" class="graph" transform="scale(1 1) rotate(0) translate(4 160.88)">
<title>vmem::pgdir::mmioMap</title>
<polygon fill="white" stroke="transparent" points="-4,4 -4,-160.88 1009,-160.88 1009,4 -4,4"/>
<!-- Node1 -->
<g id="node1" class="node">
<title>Node1</title>
<g id="a_node1"><a xlink:title=" ">
<polygon fill="#bfbfbf" stroke="black" points="0,-38.5 0,-57.5 119,-57.5 119,-38.5 0,-38.5"/>
<text text-anchor="middle" x="59.5" y="-45.5" font-family="Helvetica,sans-Serif" font-size="10.00">vmem::pgdir::mmioMap</text>
</a>
</g>
</g>
<!-- Node2 -->
<g id="node2" class="node">
<title>Node2</title>
<g id="a_node2"><a xlink:href="namespacevmem_1_1pgdir.html#a07dd6afb36a9efd207d6372a0f0f36e8" target="_top" xlink:title=" ">
<polygon fill="white" stroke="black" points="155,-38.5 155,-57.5 274,-57.5 274,-38.5 155,-38.5"/>
<text text-anchor="middle" x="214.5" y="-45.5" font-family="Helvetica,sans-Serif" font-size="10.00">vmem::pgdir::staticMap</text>
</a>
</g>
</g>
<!-- Node1&#45;&gt;Node2 -->
<g id="edge1" class="edge">
<title>Node1&#45;&gt;Node2</title>
<path fill="none" stroke="midnightblue" d="M119.22,-48C127.54,-48 136.17,-48 144.67,-48"/>
<polygon fill="midnightblue" stroke="midnightblue" points="144.94,-51.5 154.94,-48 144.94,-44.5 144.94,-51.5"/>
</g>
<!-- Node3 -->
<g id="node3" class="node">
<title>Node3</title>
<g id="a_node3"><a xlink:href="namespacevmem_1_1pgdir.html#a933a8f939084dabdb1a4b5401bebf8d7" target="_top" xlink:title=" ">
<polygon fill="white" stroke="black" points="310,-66.5 310,-85.5 417,-85.5 417,-66.5 310,-66.5"/>
<text text-anchor="middle" x="363.5" y="-73.5" font-family="Helvetica,sans-Serif" font-size="10.00">vmem::pgdir::findPte</text>
</a>
</g>
</g>
<!-- Node2&#45;&gt;Node3 -->
<g id="edge2" class="edge">
<title>Node2&#45;&gt;Node3</title>
<path fill="none" stroke="midnightblue" d="M265.68,-57.56C277.5,-59.81 290.23,-62.23 302.44,-64.56"/>
<polygon fill="midnightblue" stroke="midnightblue" points="302.07,-68.05 312.55,-66.49 303.38,-61.18 302.07,-68.05"/>
</g>
<!-- Node10 -->
<g id="node10" class="node">
<title>Node10</title>
<g id="a_node10"><a xlink:href="namespacevmem_1_1pgdir.html#a972bb045d4c58b0ea9c569e05831bbb6" target="_top" xlink:title=" ">
<polygon fill="white" stroke="black" points="453,-0.5 453,-19.5 589,-19.5 589,-0.5 453,-0.5"/>
<text text-anchor="middle" x="521" y="-7.5" font-family="Helvetica,sans-Serif" font-size="10.00">vmem::pgdir::invalidateTLB</text>
</a>
</g>
</g>
<!-- Node2&#45;&gt;Node10 -->
<g id="edge15" class="edge">
<title>Node2&#45;&gt;Node10</title>
<path fill="none" stroke="midnightblue" d="M274.21,-40.67C322.27,-34.68 390.63,-26.15 443.06,-19.6"/>
<polygon fill="midnightblue" stroke="midnightblue" points="443.5,-23.07 452.99,-18.36 442.63,-16.13 443.5,-23.07"/>
</g>
<!-- Node4 -->
<g id="node4" class="node">
<title>Node4</title>
<g id="a_node4"><a xlink:href="structvmem_1_1_page_info.html#afcdcb7e941219a8ec999353658e3c2aa" target="_top" xlink:title=" ">
<polygon fill="white" stroke="black" points="463.5,-114.5 463.5,-133.5 578.5,-133.5 578.5,-114.5 463.5,-114.5"/>
<text text-anchor="middle" x="521" y="-121.5" font-family="Helvetica,sans-Serif" font-size="10.00">vmem::PageInfo::alloc</text>
</a>
</g>
</g>
<!-- Node3&#45;&gt;Node4 -->
<g id="edge3" class="edge">
<title>Node3&#45;&gt;Node4</title>
<path fill="none" stroke="midnightblue" d="M395.59,-85.6C419.64,-93.02 453.14,-103.36 479.32,-111.44"/>
<polygon fill="midnightblue" stroke="midnightblue" points="478.37,-114.81 488.96,-114.42 480.44,-108.12 478.37,-114.81"/>
</g>
<!-- Node5 -->
<g id="node5" class="node">
<title>Node5</title>
<g id="a_node5"><a xlink:href="namespacemem.html#a981dd0cb1408b798a79443c6245e9c55" target="_top" xlink:title=" ">
<polygon fill="white" stroke="black" points="657.5,-128.5 657.5,-147.5 722.5,-147.5 722.5,-128.5 657.5,-128.5"/>
<text text-anchor="middle" x="690" y="-135.5" font-family="Helvetica,sans-Serif" font-size="10.00">mem::clear</text>
</a>
</g>
</g>
<!-- Node3&#45;&gt;Node5 -->
<g id="edge10" class="edge">
<title>Node3&#45;&gt;Node5</title>
<path fill="none" stroke="midnightblue" d="M373.11,-85.73C387.7,-101.39 419.02,-131.59 453,-143 518.15,-164.88 599.21,-155.95 647.39,-147.18"/>
<polygon fill="midnightblue" stroke="midnightblue" points="648.27,-150.58 657.44,-145.27 646.96,-143.7 648.27,-150.58"/>
</g>
<!-- Node8 -->
<g id="node8" class="node">
<title>Node8</title>
<g id="a_node8"><a xlink:href="structvmem_1_1_page_info.html#afc863f1d364462ddd2c20bf31f588337" target="_top" xlink:title=" ">
<polygon fill="white" stroke="black" points="625,-76.5 625,-95.5 755,-95.5 755,-76.5 625,-76.5"/>
<text text-anchor="middle" x="690" y="-83.5" font-family="Helvetica,sans-Serif" font-size="10.00">vmem::PageInfo::toKernV</text>
</a>
</g>
</g>
<!-- Node3&#45;&gt;Node8 -->
<g id="edge13" class="edge">
<title>Node3&#45;&gt;Node8</title>
<path fill="none" stroke="midnightblue" d="M417.36,-77.63C470.92,-79.28 554.26,-81.85 614.5,-83.7"/>
<polygon fill="midnightblue" stroke="midnightblue" points="614.61,-87.21 624.72,-84.02 614.83,-80.21 614.61,-87.21"/>
</g>
<!-- Node9 -->
<g id="node9" class="node">
<title>Node9</title>
<g id="a_node9"><a xlink:href="structvmem_1_1_page_info.html#accf2071c7875c29c9aa78a01ef5963a1" target="_top" xlink:title=" ">
<polygon fill="white" stroke="black" points="791,-57.5 791,-76.5 911,-76.5 911,-57.5 791,-57.5"/>
<text text-anchor="middle" x="851" y="-64.5" font-family="Helvetica,sans-Serif" font-size="10.00">vmem::PageInfo::toPhy</text>
</a>
</g>
</g>
<!-- Node3&#45;&gt;Node9 -->
<g id="edge14" class="edge">
<title>Node3&#45;&gt;Node9</title>
<path fill="none" stroke="midnightblue" d="M417.37,-73.64C469.99,-71.41 553.06,-68.24 625,-67 677.18,-66.1 736.17,-66.14 780.66,-66.38"/>
<polygon fill="midnightblue" stroke="midnightblue" points="780.76,-69.88 790.78,-66.44 780.8,-62.88 780.76,-69.88"/>
</g>
<!-- Node3&#45;&gt;Node10 -->
<g id="edge11" class="edge">
<title>Node3&#45;&gt;Node10</title>
<path fill="none" stroke="midnightblue" d="M383.25,-66.44C400.99,-57.54 428.5,-44.17 453,-34 462.23,-30.17 472.32,-26.36 481.8,-22.95"/>
<polygon fill="midnightblue" stroke="midnightblue" points="483.14,-26.18 491.4,-19.54 480.8,-19.58 483.14,-26.18"/>
</g>
<!-- Node4&#45;&gt;Node5 -->
<g id="edge4" class="edge">
<title>Node4&#45;&gt;Node5</title>
<path fill="none" stroke="midnightblue" d="M578.54,-128.74C601.04,-130.63 626.47,-132.76 647.26,-134.5"/>
<polygon fill="midnightblue" stroke="midnightblue" points="647.1,-138 657.36,-135.35 647.68,-131.02 647.1,-138"/>
</g>
<!-- Node4&#45;&gt;Node8 -->
<g id="edge8" class="edge">
<title>Node4&#45;&gt;Node8</title>
<path fill="none" stroke="midnightblue" d="M564.14,-114.41C586.38,-109.35 613.85,-103.1 637.36,-97.75"/>
<polygon fill="midnightblue" stroke="midnightblue" points="638.19,-101.15 647.16,-95.52 636.63,-94.33 638.19,-101.15"/>
</g>
<!-- Node6 -->
<g id="node6" class="node">
<title>Node6</title>
<g id="a_node6"><a xlink:href="namespacestr.html#a062221f630647cf300f0dd982c4ed904" target="_top" xlink:title=" ">
<polygon fill="white" stroke="black" points="947,-123.5 947,-142.5 1005,-142.5 1005,-123.5 947,-123.5"/>
<text text-anchor="middle" x="976" y="-130.5" font-family="Helvetica,sans-Serif" font-size="10.00">str::count</text>
</a>
</g>
</g>
<!-- Node5&#45;&gt;Node6 -->
<g id="edge5" class="edge">
<title>Node5&#45;&gt;Node6</title>
<path fill="none" stroke="midnightblue" d="M722.75,-137.44C775.24,-136.52 879.91,-134.67 936.52,-133.68"/>
<polygon fill="midnightblue" stroke="midnightblue" points="936.9,-137.17 946.84,-133.5 936.78,-130.17 936.9,-137.17"/>
</g>
<!-- Node7 -->
<g id="node7" class="node">
<title>Node7</title>
<g id="a_node7"><a xlink:href="namespacemem.html#adbaba9127c03fb914f752bfe19d6d089" target="_top" xlink:title=" ">
<polygon fill="white" stroke="black" points="822,-104.5 822,-123.5 880,-123.5 880,-104.5 822,-104.5"/>
<text text-anchor="middle" x="851" y="-111.5" font-family="Helvetica,sans-Serif" font-size="10.00">mem::set</text>
</a>
</g>
</g>
<!-- Node5&#45;&gt;Node7 -->
<g id="edge6" class="edge">
<title>Node5&#45;&gt;Node7</title>
<path fill="none" stroke="midnightblue" d="M722.79,-133.2C748.51,-129.32 784.79,-123.84 812.03,-119.73"/>
<polygon fill="midnightblue" stroke="midnightblue" points="812.62,-123.18 821.99,-118.23 811.58,-116.26 812.62,-123.18"/>
</g>
<!-- Node7&#45;&gt;Node6 -->
<g id="edge7" class="edge">
<title>Node7&#45;&gt;Node6</title>
<path fill="none" stroke="midnightblue" d="M880.22,-118.36C897.02,-120.95 918.55,-124.28 936.85,-127.11"/>
<polygon fill="midnightblue" stroke="midnightblue" points="936.5,-130.59 946.91,-128.66 937.56,-123.68 936.5,-130.59"/>
</g>
<!-- Node8&#45;&gt;Node9 -->
<g id="edge9" class="edge">
<title>Node8&#45;&gt;Node9</title>
<path fill="none" stroke="midnightblue" d="M755.21,-78.33C763.7,-77.31 772.43,-76.27 780.99,-75.25"/>
<polygon fill="midnightblue" stroke="midnightblue" points="781.43,-78.72 790.94,-74.06 780.6,-71.77 781.43,-78.72"/>
</g>
<!-- Node11 -->
<g id="node11" class="node">
<title>Node11</title>
<g id="a_node11"><a xlink:href="x86_8h.html#a2c1c4c8523ed258a75c563a8f94d1686" target="_top" xlink:title=" ">
<polygon fill="white" stroke="black" points="669,-0.5 669,-19.5 711,-19.5 711,-0.5 669,-0.5"/>
<text text-anchor="middle" x="690" y="-7.5" font-family="Helvetica,sans-Serif" font-size="10.00">invlpg</text>
</a>
</g>
</g>
<!-- Node10&#45;&gt;Node11 -->
<g id="edge12" class="edge">
<title>Node10&#45;&gt;Node11</title>
<path fill="none" stroke="midnightblue" d="M589.44,-10C613.58,-10 639.58,-10 658.95,-10"/>
<polygon fill="midnightblue" stroke="midnightblue" points="658.98,-13.5 668.98,-10 658.98,-6.5 658.98,-13.5"/>
</g>
</g>
</svg>
