<?xml version="1.0" encoding="UTF-8" standalone="no"?>
<!DOCTYPE svg PUBLIC "-//W3C//DTD SVG 1.1//EN"
 "http://www.w3.org/Graphics/SVG/1.1/DTD/svg11.dtd">
<!-- Generated by graphviz version 2.44.1 (20200629.0846)
 -->
<!-- Title: console::ge::printFmt Pages: 1 -->
<!--zoomable 204 -->
<svg id="main" version="1.1" xmlns="http://www.w3.org/2000/svg" xmlns:xlink="http://www.w3.org/1999/xlink" xml:space="preserve" onload="init(evt)">
<style type="text/css"><![CDATA[
.edge:hover path { stroke: red; }
.edge:hover polygon { stroke: red; fill: red; }
]]></style>
<script type="text/javascript"><![CDATA[
var edges = document.getElementsByTagName('g');
if (edges && edges.length) {
  for (var i=0;i<edges.length;i++) {
    if (edges[i].id.substr(0,4)=='edge') {
      edges[i].setAttribute('class','edge');
    }
  }
}
]]></script>
        <defs>
                <circle id="rim" cx="0" cy="0" r="7"/>
                <circle id="rim2" cx="0" cy="0" r="3.5"/>
                <g id="zoomPlus">
                        <use xlink:href="#rim" fill="#404040">
                                <set attributeName="fill" to="#808080" begin="zoomplus.mouseover" end="zoomplus.mouseout"/>
                        </use>
                        <path d="M-4,0h8M0,-4v8" fill="none" stroke="white" stroke-width="1.5" pointer-events="none"/>
                </g>
                <g id="zoomMin">
                        <use xlink:href="#rim" fill="#404040">
                                <set attributeName="fill" to="#808080" begin="zoomminus.mouseover" end="zoomminus.mouseout"/>
                        </use>
                        <path d="M-4,0h8" fill="none" stroke="white" stroke-width="1.5" pointer-events="none"/>
                </g>
                <g id="dirArrow">
                        <path fill="none" stroke="white" stroke-width="1.5" d="M0,-3.0v7 M-2.5,-0.5L0,-3.0L2.5,-0.5"/>
                </g>
               <g id="resetDef">
                       <use xlink:href="#rim2" fill="#404040">
                               <set attributeName="fill" to="#808080" begin="reset.mouseover" end="reset.mouseout"/>
                       </use>
               </g>
        </defs>

<script type="text/javascript">
var viewWidth = 1007;
var viewHeight = 204;
var sectionId = 'dynsection-0';
</script>
<script xlink:href="svgpan.js"/>
<svg id="graph" class="graph">
<g id="viewport">
<title>console::ge::printFmt</title>
<polygon fill="white" stroke="transparent" points="-4,4 -4,-199.72 1003,-199.72 1003,4 -4,4"/>
<!-- Node1 -->
<g id="node1" class="node">
<title>Node1</title>
<g id="a_node1"><a xlink:title=" ">
<polygon fill="#bfbfbf" stroke="black" points="0,-9.35 0,-28.35 109,-28.35 109,-9.35 0,-9.35"/>
<text text-anchor="middle" x="54.5" y="-16.35" font-family="Helvetica,sans-Serif" font-size="10.00">console::ge::printFmt</text>
</a>
</g>
</g>
<!-- Node2 -->
<g id="node2" class="node">
<title>Node2</title>
<g id="a_node2"><a xlink:href="namespaceconsole_1_1ge.html#af642934cb833142f133285fdb75ef7b7" target="_top" xlink:title=" ">
<polygon fill="white" stroke="black" points="145,-66.35 145,-85.35 265,-85.35 265,-66.35 145,-66.35"/>
<text text-anchor="middle" x="205" y="-73.35" font-family="Helvetica,sans-Serif" font-size="10.00">console::ge::printFmtVa</text>
</a>
</g>
</g>
<!-- Node1&#45;&gt;Node2 -->
<g id="edge1" class="edge">
<title>Node1&#45;&gt;Node2</title>
<path fill="none" stroke="midnightblue" d="M80.36,-28.39C104.77,-37.76 142.22,-52.14 169.51,-62.61"/>
<polygon fill="midnightblue" stroke="midnightblue" points="168.47,-65.96 179.06,-66.28 170.98,-59.43 168.47,-65.96"/>
</g>
<!-- Node9 -->
<g id="node9" class="node">
<title>Node9</title>
<g id="a_node9"><a xlink:href="namespaceconsole_1_1out.html#ad9fc97dff4404c2d21aedbb24691e7cb" target="_top" xlink:title=" ">
<polygon fill="white" stroke="black" points="463,-9.35 463,-28.35 573,-28.35 573,-9.35 463,-9.35"/>
<text text-anchor="middle" x="518" y="-16.35" font-family="Helvetica,sans-Serif" font-size="10.00">console::out::putChar</text>
</a>
</g>
</g>
<!-- Node1&#45;&gt;Node9 -->
<g id="edge18" class="edge">
<title>Node1&#45;&gt;Node9</title>
<path fill="none" stroke="midnightblue" d="M109.11,-12.56C181.4,-5.02 314.1,5.49 427,-3.85 437.29,-4.7 448.17,-6.09 458.68,-7.69"/>
<polygon fill="midnightblue" stroke="midnightblue" points="458.18,-11.16 468.61,-9.28 459.28,-4.24 458.18,-11.16"/>
</g>
<!-- Node3 -->
<g id="node3" class="node">
<title>Node3</title>
<g id="a_node3"><a xlink:href="printfmt_8cc.html#a708ec6ee2b8bd2d7a453d8d9436ed3b3" target="_top" xlink:title=" ">
<polygon fill="white" stroke="black" points="335,-142.35 335,-161.35 393,-161.35 393,-142.35 335,-142.35"/>
<text text-anchor="middle" x="364" y="-149.35" font-family="Helvetica,sans-Serif" font-size="10.00">_getIntVa</text>
</a>
</g>
</g>
<!-- Node2&#45;&gt;Node3 -->
<g id="edge2" class="edge">
<title>Node2&#45;&gt;Node3</title>
<path fill="none" stroke="midnightblue" d="M219.59,-85.46C237.53,-97.8 270.43,-119.24 301,-132.85 308.6,-136.24 316.99,-139.25 325.07,-141.83"/>
<polygon fill="midnightblue" stroke="midnightblue" points="324.11,-145.19 334.7,-144.75 326.14,-138.5 324.11,-145.19"/>
</g>
<!-- Node4 -->
<g id="node4" class="node">
<title>Node4</title>
<g id="a_node4"><a xlink:href="printfmt_8cc.html#af4b46892c76c8bfd27efdb20847eb7c8" target="_top" xlink:title=" ">
<polygon fill="white" stroke="black" points="331.5,-104.35 331.5,-123.35 396.5,-123.35 396.5,-104.35 331.5,-104.35"/>
<text text-anchor="middle" x="364" y="-111.35" font-family="Helvetica,sans-Serif" font-size="10.00">_getUIntVa</text>
</a>
</g>
</g>
<!-- Node2&#45;&gt;Node4 -->
<g id="edge3" class="edge">
<title>Node2&#45;&gt;Node4</title>
<path fill="none" stroke="midnightblue" d="M245.62,-85.44C268.72,-91.03 297.84,-98.08 321.3,-103.76"/>
<polygon fill="midnightblue" stroke="midnightblue" points="320.76,-107.23 331.3,-106.18 322.4,-100.42 320.76,-107.23"/>
</g>
<!-- Node5 -->
<g id="node5" class="node">
<title>Node5</title>
<g id="a_node5"><a xlink:href="namespacestr.html#a062221f630647cf300f0dd982c4ed904" target="_top" xlink:title=" ">
<polygon fill="white" stroke="black" points="941,-99.35 941,-118.35 999,-118.35 999,-99.35 941,-99.35"/>
<text text-anchor="middle" x="970" y="-106.35" font-family="Helvetica,sans-Serif" font-size="10.00">str::count</text>
</a>
</g>
</g>
<!-- Node2&#45;&gt;Node5 -->
<g id="edge4" class="edge">
<title>Node2&#45;&gt;Node5</title>
<path fill="none" stroke="midnightblue" d="M212.18,-85.57C225.55,-105.64 259.36,-151.42 301,-170.85 388.33,-211.6 420.63,-189.85 517,-189.85 517,-189.85 517,-189.85 670,-189.85 771.55,-189.85 885.97,-145.78 939.02,-122.65"/>
<polygon fill="midnightblue" stroke="midnightblue" points="940.77,-125.71 948.5,-118.46 937.93,-119.31 940.77,-125.71"/>
</g>
<!-- Node6 -->
<g id="node6" class="node">
<title>Node6</title>
<g id="a_node6"><a xlink:href="printfmt_8cc.html#a0e3e484ece5e75b9f5fbe337f0ae8ae3" target="_top" xlink:title=" ">
<polygon fill="white" stroke="black" points="337.5,-66.35 337.5,-85.35 390.5,-85.35 390.5,-66.35 337.5,-66.35"/>
<text text-anchor="middle" x="364" y="-73.35" font-family="Helvetica,sans-Serif" font-size="10.00">describe</text>
</a>
</g>
</g>
<!-- Node2&#45;&gt;Node6 -->
<g id="edge5" class="edge">
<title>Node2&#45;&gt;Node6</title>
<path fill="none" stroke="midnightblue" d="M265.35,-75.85C286.12,-75.85 308.78,-75.85 327.04,-75.85"/>
<polygon fill="midnightblue" stroke="midnightblue" points="327.24,-79.35 337.24,-75.85 327.24,-72.35 327.24,-79.35"/>
</g>
<!-- Node8 -->
<g id="node8" class="node">
<title>Node8</title>
<g id="a_node8"><a xlink:href="namespaceconsole_1_1ge.html#a7e301813fd34fde772376afc5fdad95d" target="_top" xlink:title=" ">
<polygon fill="white" stroke="black" points="301,-28.35 301,-47.35 427,-47.35 427,-28.35 301,-28.35"/>
<text text-anchor="middle" x="364" y="-35.35" font-family="Helvetica,sans-Serif" font-size="10.00">console::ge::printNumber</text>
</a>
</g>
</g>
<!-- Node2&#45;&gt;Node8 -->
<g id="edge7" class="edge">
<title>Node2&#45;&gt;Node8</title>
<path fill="none" stroke="midnightblue" d="M245.62,-66.26C266.34,-61.25 291.89,-55.06 313.86,-49.75"/>
<polygon fill="midnightblue" stroke="midnightblue" points="314.77,-53.13 323.67,-47.37 313.12,-46.32 314.77,-53.13"/>
</g>
<!-- Node2&#45;&gt;Node9 -->
<g id="edge17" class="edge">
<title>Node2&#45;&gt;Node9</title>
<path fill="none" stroke="midnightblue" d="M217.33,-66.21C234.22,-52.52 267.63,-28.09 301,-18.85 350.52,-5.14 408.9,-6.1 452.48,-9.96"/>
<polygon fill="midnightblue" stroke="midnightblue" points="452.38,-13.47 462.66,-10.94 453.05,-6.5 452.38,-13.47"/>
</g>
<!-- Node7 -->
<g id="node7" class="node">
<title>Node7</title>
<g id="a_node7"><a xlink:href="namespacemonitor.html#a318993193c866642f8389a1c1f285739" target="_top" xlink:title=" ">
<polygon fill="white" stroke="black" points="481,-66.35 481,-85.35 555,-85.35 555,-66.35 481,-66.35"/>
<text text-anchor="middle" x="518" y="-73.35" font-family="Helvetica,sans-Serif" font-size="10.00">monitor::fuck</text>
</a>
</g>
</g>
<!-- Node6&#45;&gt;Node7 -->
<g id="edge6" class="edge">
<title>Node6&#45;&gt;Node7</title>
<path fill="none" stroke="midnightblue" d="M390.78,-75.85C412.62,-75.85 444.46,-75.85 470.7,-75.85"/>
<polygon fill="midnightblue" stroke="midnightblue" points="470.82,-79.35 480.82,-75.85 470.82,-72.35 470.82,-79.35"/>
</g>
<!-- Node8&#45;&gt;Node9 -->
<g id="edge8" class="edge">
<title>Node8&#45;&gt;Node9</title>
<path fill="none" stroke="midnightblue" d="M427.26,-30.07C435.66,-29.02 444.28,-27.94 452.71,-26.89"/>
<polygon fill="midnightblue" stroke="midnightblue" points="453.37,-30.33 462.86,-25.62 452.51,-23.39 453.37,-30.33"/>
</g>
<!-- Node10 -->
<g id="node10" class="node">
<title>Node10</title>
<g id="a_node10"><a xlink:href="namespaceconsole_1_1serial.html#a3a7c1f95ae3c24136ea63bb31fdf0391" target="_top" xlink:title=" ">
<polygon fill="white" stroke="black" points="609,-9.35 609,-28.35 729,-28.35 729,-9.35 609,-9.35"/>
<text text-anchor="middle" x="669" y="-16.35" font-family="Helvetica,sans-Serif" font-size="10.00">console::serial::putChar</text>
</a>
</g>
</g>
<!-- Node9&#45;&gt;Node10 -->
<g id="edge9" class="edge">
<title>Node9&#45;&gt;Node10</title>
<path fill="none" stroke="midnightblue" d="M573.21,-18.85C581.53,-18.85 590.2,-18.85 598.79,-18.85"/>
<polygon fill="midnightblue" stroke="midnightblue" points="598.79,-22.35 608.79,-18.85 598.79,-15.35 598.79,-22.35"/>
</g>
<!-- Node13 -->
<g id="node13" class="node">
<title>Node13</title>
<g id="a_node13"><a xlink:href="namespaceconsole_1_1cga.html#afa19057ca041b39682d5d4831c43dfa0" target="_top" xlink:title=" ">
<polygon fill="white" stroke="black" points="612.5,-47.35 612.5,-66.35 725.5,-66.35 725.5,-47.35 612.5,-47.35"/>
<text text-anchor="middle" x="669" y="-54.35" font-family="Helvetica,sans-Serif" font-size="10.00">console::cga::putChar</text>
</a>
</g>
</g>
<!-- Node9&#45;&gt;Node13 -->
<g id="edge12" class="edge">
<title>Node9&#45;&gt;Node13</title>
<path fill="none" stroke="midnightblue" d="M556.6,-28.44C576.08,-33.41 600.07,-39.53 620.8,-44.81"/>
<polygon fill="midnightblue" stroke="midnightblue" points="620.12,-48.25 630.67,-47.33 621.85,-41.47 620.12,-48.25"/>
</g>
<!-- Node11 -->
<g id="node11" class="node">
<title>Node11</title>
<g id="a_node11"><a xlink:href="namespaceconsole_1_1serial.html#aa5605d4537106bb1c2bab72d7d1a5824" target="_top" xlink:title=" ">
<polygon fill="white" stroke="black" points="783,-9.35 783,-28.35 887,-28.35 887,-9.35 783,-9.35"/>
<text text-anchor="middle" x="835" y="-16.35" font-family="Helvetica,sans-Serif" font-size="10.00">console::serial::sout</text>
</a>
</g>
</g>
<!-- Node10&#45;&gt;Node11 -->
<g id="edge10" class="edge">
<title>Node10&#45;&gt;Node11</title>
<path fill="none" stroke="midnightblue" d="M729.21,-18.85C743.31,-18.85 758.39,-18.85 772.59,-18.85"/>
<polygon fill="midnightblue" stroke="midnightblue" points="772.74,-22.35 782.74,-18.85 772.74,-15.35 772.74,-22.35"/>
</g>
<!-- Node12 -->
<g id="node12" class="node">
<title>Node12</title>
<g id="a_node12"><a xlink:href="x86_8h.html#ade961b44e45ddacbc3c3b7609cf36dc6" target="_top" xlink:title=" ">
<polygon fill="white" stroke="black" points="952.5,-42.35 952.5,-61.35 987.5,-61.35 987.5,-42.35 952.5,-42.35"/>
<text text-anchor="middle" x="970" y="-49.35" font-family="Helvetica,sans-Serif" font-size="10.00">outb</text>
</a>
</g>
</g>
<!-- Node11&#45;&gt;Node12 -->
<g id="edge11" class="edge">
<title>Node11&#45;&gt;Node12</title>
<path fill="none" stroke="midnightblue" d="M874.47,-28.4C896.32,-33.82 923.11,-40.47 942.59,-45.3"/>
<polygon fill="midnightblue" stroke="midnightblue" points="941.76,-48.7 952.31,-47.71 943.44,-41.9 941.76,-48.7"/>
</g>
<!-- Node14 -->
<g id="node14" class="node">
<title>Node14</title>
<g id="a_node14"><a xlink:href="namespacemem.html#a64d9d05b439041901498c606de606431" target="_top" xlink:title=" ">
<polygon fill="white" stroke="black" points="802.5,-90.35 802.5,-109.35 867.5,-109.35 867.5,-90.35 802.5,-90.35"/>
<text text-anchor="middle" x="835" y="-97.35" font-family="Helvetica,sans-Serif" font-size="10.00">mem::copy</text>
</a>
</g>
</g>
<!-- Node13&#45;&gt;Node14 -->
<g id="edge13" class="edge">
<title>Node13&#45;&gt;Node14</title>
<path fill="none" stroke="midnightblue" d="M706.4,-66.39C731.92,-73.09 766.08,-82.04 792.64,-89.01"/>
<polygon fill="midnightblue" stroke="midnightblue" points="791.85,-92.42 802.41,-91.57 793.62,-85.65 791.85,-92.42"/>
</g>
<!-- Node15 -->
<g id="node15" class="node">
<title>Node15</title>
<g id="a_node15"><a xlink:href="namespaceconsole_1_1cga.html#a06463d4dc68819e30615ba299d02a78f" target="_top" xlink:title=" ">
<polygon fill="white" stroke="black" points="765,-47.35 765,-66.35 905,-66.35 905,-47.35 765,-47.35"/>
<text text-anchor="middle" x="835" y="-54.35" font-family="Helvetica,sans-Serif" font-size="10.00">console::cga::cursorRefresh</text>
</a>
</g>
</g>
<!-- Node13&#45;&gt;Node15 -->
<g id="edge15" class="edge">
<title>Node13&#45;&gt;Node15</title>
<path fill="none" stroke="midnightblue" d="M725.52,-56.85C734.9,-56.85 744.8,-56.85 754.65,-56.85"/>
<polygon fill="midnightblue" stroke="midnightblue" points="754.87,-60.35 764.87,-56.85 754.87,-53.35 754.87,-60.35"/>
</g>
<!-- Node14&#45;&gt;Node5 -->
<g id="edge14" class="edge">
<title>Node14&#45;&gt;Node5</title>
<path fill="none" stroke="midnightblue" d="M867.52,-101.98C886.49,-103.27 910.77,-104.91 930.82,-106.27"/>
<polygon fill="midnightblue" stroke="midnightblue" points="930.66,-109.76 940.87,-106.95 931.13,-102.78 930.66,-109.76"/>
</g>
<!-- Node15&#45;&gt;Node12 -->
<g id="edge16" class="edge">
<title>Node15&#45;&gt;Node12</title>
<path fill="none" stroke="midnightblue" d="M905.23,-54.25C918.48,-53.75 931.59,-53.26 942.45,-52.85"/>
<polygon fill="midnightblue" stroke="midnightblue" points="942.61,-56.35 952.47,-52.47 942.35,-49.35 942.61,-56.35"/>
</g>
</g>
</svg>
        <g id="navigator" transform="translate(0 0)" fill="#404254">
                <rect fill="#f2f5e9" fill-opacity="0.5" stroke="#606060" stroke-width=".5" x="0" y="0" width="60" height="60"/>
                <use id="zoomplus" xlink:href="#zoomPlus" x="17" y="9" onmousedown="handleZoom(evt,'in')"/>
                <use id="zoomminus" xlink:href="#zoomMin" x="42" y="9" onmousedown="handleZoom(evt,'out')"/>
                <use id="reset" xlink:href="#resetDef" x="30" y="36" onmousedown="handleReset()"/>
                <g id="arrowUp" xlink:href="#dirArrow" transform="translate(30 24)" onmousedown="handlePan(0,-1)">
                  <use xlink:href="#rim" fill="#404040">
                        <set attributeName="fill" to="#808080" begin="arrowUp.mouseover" end="arrowUp.mouseout"/>
                  </use>
                  <path fill="none" stroke="white" stroke-width="1.5" d="M0,-3.0v7 M-2.5,-0.5L0,-3.0L2.5,-0.5"/>
                </g>
                <g id="arrowRight" xlink:href="#dirArrow" transform="rotate(90) translate(36 -43)" onmousedown="handlePan(1,0)">
                  <use xlink:href="#rim" fill="#404040">
                        <set attributeName="fill" to="#808080" begin="arrowRight.mouseover" end="arrowRight.mouseout"/>
                  </use>
                  <path fill="none" stroke="white" stroke-width="1.5" d="M0,-3.0v7 M-2.5,-0.5L0,-3.0L2.5,-0.5"/>
                </g>
                <g id="arrowDown" xlink:href="#dirArrow" transform="rotate(180) translate(-30 -48)" onmousedown="handlePan(0,1)">
                  <use xlink:href="#rim" fill="#404040">
                        <set attributeName="fill" to="#808080" begin="arrowDown.mouseover" end="arrowDown.mouseout"/>
                  </use>
                  <path fill="none" stroke="white" stroke-width="1.5" d="M0,-3.0v7 M-2.5,-0.5L0,-3.0L2.5,-0.5"/>
                </g>
                <g id="arrowLeft" xlink:href="#dirArrow" transform="rotate(270) translate(-36 17)" onmousedown="handlePan(-1,0)">
                  <use xlink:href="#rim" fill="#404040">
                        <set attributeName="fill" to="#808080" begin="arrowLeft.mouseover" end="arrowLeft.mouseout"/>
                  </use>
                  <path fill="none" stroke="white" stroke-width="1.5" d="M0,-3.0v7 M-2.5,-0.5L0,-3.0L2.5,-0.5"/>
                </g>
        </g>
        <svg viewBox="0 0 15 15" width="100%" height="30px" preserveAspectRatio="xMaxYMin meet">
         <g id="arrow_out" transform="scale(0.3 0.3)">
          <a xlink:href="namespaceconsole_1_1ge_a24b923aed3bfed939d6fee4c54fd4408_cgraph_org.svg" target="_base">
           <rect id="button" ry="5" rx="5" y="6" x="6" height="38" width="38"
                fill="#f2f5e9" fill-opacity="0.5" stroke="#606060" stroke-width="1.0"/>
           <path id="arrow"
             d="M 11.500037,31.436501 C 11.940474,20.09759 22.043105,11.32322 32.158766,21.979434 L 37.068811,17.246167 C 37.068811,17.246167 37.088388,32 37.088388,32 L 22.160133,31.978069 C 22.160133,31.978069 26.997745,27.140456 26.997745,27.140456 C 18.528582,18.264221 13.291696,25.230495 11.500037,31.436501 z"
             style="fill:#404040;"/>
          </a>
         </g>
        </svg>
</svg>
