<?xml version="1.0" encoding="UTF-8" standalone="no"?>
<!DOCTYPE svg PUBLIC "-//W3C//DTD SVG 1.1//EN"
 "http://www.w3.org/Graphics/SVG/1.1/DTD/svg11.dtd">
<!-- Generated by graphviz version 2.44.1 (20200629.0846)
 -->
<!-- Title: vmem::pgdir::findPte Pages: 1 -->
<!--zoomable 163 -->
<svg id="main" version="1.1" xmlns="http://www.w3.org/2000/svg" xmlns:xlink="http://www.w3.org/1999/xlink" xml:space="preserve" onload="init(evt)">
<style type="text/css"><![CDATA[
.edge:hover path { stroke: red; }
.edge:hover polygon { stroke: red; fill: red; }
]]></style>
<script type="text/javascript"><![CDATA[
var edges = document.getElementsByTagName('g');
if (edges && edges.length) {
  for (var i=0;i<edges.length;i++) {
    if (edges[i].id.substr(0,4)=='edge') {
      edges[i].setAttribute('class','edge');
    }
  }
}
]]></script>
        <defs>
                <circle id="rim" cx="0" cy="0" r="7"/>
                <circle id="rim2" cx="0" cy="0" r="3.5"/>
                <g id="zoomPlus">
                        <use xlink:href="#rim" fill="#404040">
                                <set attributeName="fill" to="#808080" begin="zoomplus.mouseover" end="zoomplus.mouseout"/>
                        </use>
                        <path d="M-4,0h8M0,-4v8" fill="none" stroke="white" stroke-width="1.5" pointer-events="none"/>
                </g>
                <g id="zoomMin">
                        <use xlink:href="#rim" fill="#404040">
                                <set attributeName="fill" to="#808080" begin="zoomminus.mouseover" end="zoomminus.mouseout"/>
                        </use>
                        <path d="M-4,0h8" fill="none" stroke="white" stroke-width="1.5" pointer-events="none"/>
                </g>
                <g id="dirArrow">
                        <path fill="none" stroke="white" stroke-width="1.5" d="M0,-3.0v7 M-2.5,-0.5L0,-3.0L2.5,-0.5"/>
                </g>
               <g id="resetDef">
                       <use xlink:href="#rim2" fill="#404040">
                               <set attributeName="fill" to="#808080" begin="reset.mouseover" end="reset.mouseout"/>
                       </use>
               </g>
        </defs>

<script type="text/javascript">
var viewWidth = 703;
var viewHeight = 163;
var sectionId = 'dynsection-2';
</script>
<script xlink:href="svgpan.js"/>
<svg id="graph" class="graph">
<g id="viewport">
<title>vmem::pgdir::findPte</title>
<polygon fill="white" stroke="transparent" points="-4,4 -4,-159.2 699,-159.2 699,4 -4,4"/>
<!-- Node1 -->
<g id="node1" class="node">
<title>Node1</title>
<g id="a_node1"><a xlink:title=" ">
<polygon fill="#bfbfbf" stroke="black" points="0,-76.5 0,-95.5 107,-95.5 107,-76.5 0,-76.5"/>
<text text-anchor="middle" x="53.5" y="-83.5" font-family="Helvetica,sans-Serif" font-size="10.00">vmem::pgdir::findPte</text>
</a>
</g>
</g>
<!-- Node2 -->
<g id="node2" class="node">
<title>Node2</title>
<g id="a_node2"><a xlink:href="structvmem_1_1_page_info.html#afcdcb7e941219a8ec999353658e3c2aa" target="_top" xlink:title=" ">
<polygon fill="white" stroke="black" points="153.5,-114.5 153.5,-133.5 268.5,-133.5 268.5,-114.5 153.5,-114.5"/>
<text text-anchor="middle" x="211" y="-121.5" font-family="Helvetica,sans-Serif" font-size="10.00">vmem::PageInfo::alloc</text>
</a>
</g>
</g>
<!-- Node1&#45;&gt;Node2 -->
<g id="edge1" class="edge">
<title>Node1&#45;&gt;Node2</title>
<path fill="none" stroke="midnightblue" d="M93.74,-95.59C114.26,-100.6 139.57,-106.79 161.33,-112.11"/>
<polygon fill="midnightblue" stroke="midnightblue" points="160.5,-115.51 171.04,-114.48 162.16,-108.71 160.5,-115.51"/>
</g>
<!-- Node3 -->
<g id="node3" class="node">
<title>Node3</title>
<g id="a_node3"><a xlink:href="namespacemem.html#a981dd0cb1408b798a79443c6245e9c55" target="_top" xlink:title=" ">
<polygon fill="white" stroke="black" points="347.5,-128.5 347.5,-147.5 412.5,-147.5 412.5,-128.5 347.5,-128.5"/>
<text text-anchor="middle" x="380" y="-135.5" font-family="Helvetica,sans-Serif" font-size="10.00">mem::clear</text>
</a>
</g>
</g>
<!-- Node1&#45;&gt;Node3 -->
<g id="edge8" class="edge">
<title>Node1&#45;&gt;Node3</title>
<path fill="none" stroke="midnightblue" d="M64.92,-95.63C80.51,-109.31 111.44,-133.72 143,-143 208.75,-162.34 289.3,-154.28 337.27,-146.36"/>
<polygon fill="midnightblue" stroke="midnightblue" points="338.02,-149.79 347.28,-144.63 336.83,-142.89 338.02,-149.79"/>
</g>
<!-- Node6 -->
<g id="node6" class="node">
<title>Node6</title>
<g id="a_node6"><a xlink:href="structvmem_1_1_page_info.html#afc863f1d364462ddd2c20bf31f588337" target="_top" xlink:title=" ">
<polygon fill="white" stroke="black" points="315,-76.5 315,-95.5 445,-95.5 445,-76.5 315,-76.5"/>
<text text-anchor="middle" x="380" y="-83.5" font-family="Helvetica,sans-Serif" font-size="10.00">vmem::PageInfo::toKernV</text>
</a>
</g>
</g>
<!-- Node1&#45;&gt;Node6 -->
<g id="edge11" class="edge">
<title>Node1&#45;&gt;Node6</title>
<path fill="none" stroke="midnightblue" d="M107.36,-86C160.92,-86 244.26,-86 304.5,-86"/>
<polygon fill="midnightblue" stroke="midnightblue" points="304.72,-89.5 314.72,-86 304.72,-82.5 304.72,-89.5"/>
</g>
<!-- Node7 -->
<g id="node7" class="node">
<title>Node7</title>
<g id="a_node7"><a xlink:href="structvmem_1_1_page_info.html#accf2071c7875c29c9aa78a01ef5963a1" target="_top" xlink:title=" ">
<polygon fill="white" stroke="black" points="481,-57.5 481,-76.5 601,-76.5 601,-57.5 481,-57.5"/>
<text text-anchor="middle" x="541" y="-64.5" font-family="Helvetica,sans-Serif" font-size="10.00">vmem::PageInfo::toPhy</text>
</a>
</g>
</g>
<!-- Node1&#45;&gt;Node7 -->
<g id="edge12" class="edge">
<title>Node1&#45;&gt;Node7</title>
<path fill="none" stroke="midnightblue" d="M107.32,-81.01C159.91,-76.32 242.95,-69.62 315,-67 367.15,-65.1 426.15,-65.18 470.64,-65.7"/>
<polygon fill="midnightblue" stroke="midnightblue" points="470.72,-69.2 480.76,-65.82 470.81,-62.2 470.72,-69.2"/>
</g>
<!-- Node8 -->
<g id="node8" class="node">
<title>Node8</title>
<g id="a_node8"><a xlink:href="namespacevmem_1_1pgdir.html#a972bb045d4c58b0ea9c569e05831bbb6" target="_top" xlink:title=" ">
<polygon fill="white" stroke="black" points="143,-0.5 143,-19.5 279,-19.5 279,-0.5 143,-0.5"/>
<text text-anchor="middle" x="211" y="-7.5" font-family="Helvetica,sans-Serif" font-size="10.00">vmem::pgdir::invalidateTLB</text>
</a>
</g>
</g>
<!-- Node1&#45;&gt;Node8 -->
<g id="edge9" class="edge">
<title>Node1&#45;&gt;Node8</title>
<path fill="none" stroke="midnightblue" d="M68.76,-76.49C85.89,-65.34 115.72,-46.76 143,-34 151.55,-30 160.96,-26.25 169.96,-22.96"/>
<polygon fill="midnightblue" stroke="midnightblue" points="171.24,-26.22 179.5,-19.58 168.9,-19.62 171.24,-26.22"/>
</g>
<!-- Node2&#45;&gt;Node3 -->
<g id="edge2" class="edge">
<title>Node2&#45;&gt;Node3</title>
<path fill="none" stroke="midnightblue" d="M268.54,-128.74C291.04,-130.63 316.47,-132.76 337.26,-134.5"/>
<polygon fill="midnightblue" stroke="midnightblue" points="337.1,-138 347.36,-135.35 337.68,-131.02 337.1,-138"/>
</g>
<!-- Node2&#45;&gt;Node6 -->
<g id="edge6" class="edge">
<title>Node2&#45;&gt;Node6</title>
<path fill="none" stroke="midnightblue" d="M254.14,-114.41C276.38,-109.35 303.85,-103.1 327.36,-97.75"/>
<polygon fill="midnightblue" stroke="midnightblue" points="328.19,-101.15 337.16,-95.52 326.63,-94.33 328.19,-101.15"/>
</g>
<!-- Node4 -->
<g id="node4" class="node">
<title>Node4</title>
<g id="a_node4"><a xlink:href="namespacestr.html#a062221f630647cf300f0dd982c4ed904" target="_top" xlink:title=" ">
<polygon fill="white" stroke="black" points="637,-123.5 637,-142.5 695,-142.5 695,-123.5 637,-123.5"/>
<text text-anchor="middle" x="666" y="-130.5" font-family="Helvetica,sans-Serif" font-size="10.00">str::count</text>
</a>
</g>
</g>
<!-- Node3&#45;&gt;Node4 -->
<g id="edge3" class="edge">
<title>Node3&#45;&gt;Node4</title>
<path fill="none" stroke="midnightblue" d="M412.75,-137.44C465.24,-136.52 569.91,-134.67 626.52,-133.68"/>
<polygon fill="midnightblue" stroke="midnightblue" points="626.9,-137.17 636.84,-133.5 626.78,-130.17 626.9,-137.17"/>
</g>
<!-- Node5 -->
<g id="node5" class="node">
<title>Node5</title>
<g id="a_node5"><a xlink:href="namespacemem.html#adbaba9127c03fb914f752bfe19d6d089" target="_top" xlink:title=" ">
<polygon fill="white" stroke="black" points="512,-104.5 512,-123.5 570,-123.5 570,-104.5 512,-104.5"/>
<text text-anchor="middle" x="541" y="-111.5" font-family="Helvetica,sans-Serif" font-size="10.00">mem::set</text>
</a>
</g>
</g>
<!-- Node3&#45;&gt;Node5 -->
<g id="edge4" class="edge">
<title>Node3&#45;&gt;Node5</title>
<path fill="none" stroke="midnightblue" d="M412.79,-133.2C438.51,-129.32 474.79,-123.84 502.03,-119.73"/>
<polygon fill="midnightblue" stroke="midnightblue" points="502.62,-123.18 511.99,-118.23 501.58,-116.26 502.62,-123.18"/>
</g>
<!-- Node5&#45;&gt;Node4 -->
<g id="edge5" class="edge">
<title>Node5&#45;&gt;Node4</title>
<path fill="none" stroke="midnightblue" d="M570.22,-118.36C587.02,-120.95 608.55,-124.28 626.85,-127.11"/>
<polygon fill="midnightblue" stroke="midnightblue" points="626.5,-130.59 636.91,-128.66 627.56,-123.68 626.5,-130.59"/>
</g>
<!-- Node6&#45;&gt;Node7 -->
<g id="edge7" class="edge">
<title>Node6&#45;&gt;Node7</title>
<path fill="none" stroke="midnightblue" d="M445.21,-78.33C453.7,-77.31 462.43,-76.27 470.99,-75.25"/>
<polygon fill="midnightblue" stroke="midnightblue" points="471.43,-78.72 480.94,-74.06 470.6,-71.77 471.43,-78.72"/>
</g>
<!-- Node9 -->
<g id="node9" class="node">
<title>Node9</title>
<g id="a_node9"><a xlink:href="x86_8h.html#a2c1c4c8523ed258a75c563a8f94d1686" target="_top" xlink:title=" ">
<polygon fill="white" stroke="black" points="359,-0.5 359,-19.5 401,-19.5 401,-0.5 359,-0.5"/>
<text text-anchor="middle" x="380" y="-7.5" font-family="Helvetica,sans-Serif" font-size="10.00">invlpg</text>
</a>
</g>
</g>
<!-- Node8&#45;&gt;Node9 -->
<g id="edge10" class="edge">
<title>Node8&#45;&gt;Node9</title>
<path fill="none" stroke="midnightblue" d="M279.44,-10C303.58,-10 329.58,-10 348.95,-10"/>
<polygon fill="midnightblue" stroke="midnightblue" points="348.98,-13.5 358.98,-10 348.98,-6.5 348.98,-13.5"/>
</g>
</g>
</svg>
        <g id="navigator" transform="translate(0 0)" fill="#404254">
                <rect fill="#f2f5e9" fill-opacity="0.5" stroke="#606060" stroke-width=".5" x="0" y="0" width="60" height="60"/>
                <use id="zoomplus" xlink:href="#zoomPlus" x="17" y="9" onmousedown="handleZoom(evt,'in')"/>
                <use id="zoomminus" xlink:href="#zoomMin" x="42" y="9" onmousedown="handleZoom(evt,'out')"/>
                <use id="reset" xlink:href="#resetDef" x="30" y="36" onmousedown="handleReset()"/>
                <g id="arrowUp" xlink:href="#dirArrow" transform="translate(30 24)" onmousedown="handlePan(0,-1)">
                  <use xlink:href="#rim" fill="#404040">
                        <set attributeName="fill" to="#808080" begin="arrowUp.mouseover" end="arrowUp.mouseout"/>
                  </use>
                  <path fill="none" stroke="white" stroke-width="1.5" d="M0,-3.0v7 M-2.5,-0.5L0,-3.0L2.5,-0.5"/>
                </g>
                <g id="arrowRight" xlink:href="#dirArrow" transform="rotate(90) translate(36 -43)" onmousedown="handlePan(1,0)">
                  <use xlink:href="#rim" fill="#404040">
                        <set attributeName="fill" to="#808080" begin="arrowRight.mouseover" end="arrowRight.mouseout"/>
                  </use>
                  <path fill="none" stroke="white" stroke-width="1.5" d="M0,-3.0v7 M-2.5,-0.5L0,-3.0L2.5,-0.5"/>
                </g>
                <g id="arrowDown" xlink:href="#dirArrow" transform="rotate(180) translate(-30 -48)" onmousedown="handlePan(0,1)">
                  <use xlink:href="#rim" fill="#404040">
                        <set attributeName="fill" to="#808080" begin="arrowDown.mouseover" end="arrowDown.mouseout"/>
                  </use>
                  <path fill="none" stroke="white" stroke-width="1.5" d="M0,-3.0v7 M-2.5,-0.5L0,-3.0L2.5,-0.5"/>
                </g>
                <g id="arrowLeft" xlink:href="#dirArrow" transform="rotate(270) translate(-36 17)" onmousedown="handlePan(-1,0)">
                  <use xlink:href="#rim" fill="#404040">
                        <set attributeName="fill" to="#808080" begin="arrowLeft.mouseover" end="arrowLeft.mouseout"/>
                  </use>
                  <path fill="none" stroke="white" stroke-width="1.5" d="M0,-3.0v7 M-2.5,-0.5L0,-3.0L2.5,-0.5"/>
                </g>
        </g>
        <svg viewBox="0 0 15 15" width="100%" height="30px" preserveAspectRatio="xMaxYMin meet">
         <g id="arrow_out" transform="scale(0.3 0.3)">
          <a xlink:href="namespacevmem_1_1pgdir_a933a8f939084dabdb1a4b5401bebf8d7_cgraph_org.svg" target="_base">
           <rect id="button" ry="5" rx="5" y="6" x="6" height="38" width="38"
                fill="#f2f5e9" fill-opacity="0.5" stroke="#606060" stroke-width="1.0"/>
           <path id="arrow"
             d="M 11.500037,31.436501 C 11.940474,20.09759 22.043105,11.32322 32.158766,21.979434 L 37.068811,17.246167 C 37.068811,17.246167 37.088388,32 37.088388,32 L 22.160133,31.978069 C 22.160133,31.978069 26.997745,27.140456 26.997745,27.140456 C 18.528582,18.264221 13.291696,25.230495 11.500037,31.436501 z"
             style="fill:#404040;"/>
          </a>
         </g>
        </svg>
</svg>
