<?xml version="1.0" encoding="UTF-8" standalone="no"?>
<!DOCTYPE svg PUBLIC "-//W3C//DTD SVG 1.1//EN"
 "http://www.w3.org/Graphics/SVG/1.1/DTD/svg11.dtd">
<!-- Generated by graphviz version 2.44.1 (20200629.0846)
 -->
<!-- Title: monitor::vmdumpp Pages: 1 -->
<svg width="1409pt" height="233pt"
 viewBox="0.00 0.00 1409.00 232.87" xmlns="http://www.w3.org/2000/svg" xmlns:xlink="http://www.w3.org/1999/xlink">
<g id="graph0" class="graph" transform="scale(1 1) rotate(0) translate(4 228.87)">
<title>monitor::vmdumpp</title>
<polygon fill="white" stroke="transparent" points="-4,4 -4,-228.87 1405,-228.87 1405,4 -4,4"/>
<!-- Node1 -->
<g id="node1" class="node">
<title>Node1</title>
<g id="a_node1"><a xlink:title=" ">
<polygon fill="#bfbfbf" stroke="black" points="0,-19.5 0,-38.5 98,-38.5 98,-19.5 0,-19.5"/>
<text text-anchor="middle" x="49" y="-26.5" font-family="Helvetica,sans-Serif" font-size="10.00">monitor::vmdumpp</text>
</a>
</g>
</g>
<!-- Node2 -->
<g id="node2" class="node">
<title>Node2</title>
<g id="a_node2"><a xlink:href="namespacevmem_1_1utils.html#aa0849015074ec5d9f102fac5a054df22" target="_top" xlink:title=" ">
<polygon fill="white" stroke="black" points="134,-38.5 134,-57.5 238,-57.5 238,-38.5 134,-38.5"/>
<text text-anchor="middle" x="186" y="-45.5" font-family="Helvetica,sans-Serif" font-size="10.00">vmem::utils::dumpP</text>
</a>
</g>
</g>
<!-- Node1&#45;&gt;Node2 -->
<g id="edge1" class="edge">
<title>Node1&#45;&gt;Node2</title>
<path fill="none" stroke="midnightblue" d="M98.36,-35.81C106.62,-36.97 115.31,-38.19 123.85,-39.39"/>
<polygon fill="midnightblue" stroke="midnightblue" points="123.4,-42.86 133.79,-40.79 124.37,-35.93 123.4,-42.86"/>
</g>
<!-- Node19 -->
<g id="node19" class="node">
<title>Node19</title>
<g id="a_node19"><a xlink:href="namespacestr.html#a7bea2669afeb636a996a561e640d2ee8" target="_top" xlink:title=" ">
<polygon fill="white" stroke="black" points="154.5,-0.5 154.5,-19.5 217.5,-19.5 217.5,-0.5 154.5,-0.5"/>
<text text-anchor="middle" x="186" y="-7.5" font-family="Helvetica,sans-Serif" font-size="10.00">str::toLong</text>
</a>
</g>
</g>
<!-- Node1&#45;&gt;Node19 -->
<g id="edge22" class="edge">
<title>Node1&#45;&gt;Node19</title>
<path fill="none" stroke="midnightblue" d="M98.36,-22.19C113.33,-20.09 129.68,-17.79 144.1,-15.76"/>
<polygon fill="midnightblue" stroke="midnightblue" points="144.8,-19.19 154.21,-14.33 143.82,-12.26 144.8,-19.19"/>
</g>
<!-- Node3 -->
<g id="node3" class="node">
<title>Node3</title>
<g id="a_node3"><a xlink:href="namespaceconsole_1_1out.html#ac6f663e3971b66b8e130ee94755a150e" target="_top" xlink:title=" ">
<polygon fill="white" stroke="black" points="274,-38.5 274,-57.5 369,-57.5 369,-38.5 274,-38.5"/>
<text text-anchor="middle" x="321.5" y="-45.5" font-family="Helvetica,sans-Serif" font-size="10.00">console::out::print</text>
</a>
</g>
</g>
<!-- Node2&#45;&gt;Node3 -->
<g id="edge2" class="edge">
<title>Node2&#45;&gt;Node3</title>
<path fill="none" stroke="midnightblue" d="M238.23,-48C246.6,-48 255.31,-48 263.79,-48"/>
<polygon fill="midnightblue" stroke="midnightblue" points="264,-51.5 274,-48 264,-44.5 264,-51.5"/>
</g>
<!-- Node4 -->
<g id="node4" class="node">
<title>Node4</title>
<g id="a_node4"><a xlink:href="namespaceconsole_1_1out.html#a8f791bfac54067cadb1b9f18117b987b" target="_top" xlink:title=" ">
<polygon fill="white" stroke="black" points="405,-38.5 405,-57.5 511,-57.5 511,-38.5 405,-38.5"/>
<text text-anchor="middle" x="458" y="-45.5" font-family="Helvetica,sans-Serif" font-size="10.00">console::out::printVa</text>
</a>
</g>
</g>
<!-- Node3&#45;&gt;Node4 -->
<g id="edge3" class="edge">
<title>Node3&#45;&gt;Node4</title>
<path fill="none" stroke="midnightblue" d="M369.16,-48C377.45,-48 386.2,-48 394.84,-48"/>
<polygon fill="midnightblue" stroke="midnightblue" points="394.9,-51.5 404.9,-48 394.9,-44.5 394.9,-51.5"/>
</g>
<!-- Node5 -->
<g id="node5" class="node">
<title>Node5</title>
<g id="a_node5"><a xlink:href="namespaceconsole_1_1ge.html#af642934cb833142f133285fdb75ef7b7" target="_top" xlink:title=" ">
<polygon fill="white" stroke="black" points="547,-95.5 547,-114.5 667,-114.5 667,-95.5 547,-95.5"/>
<text text-anchor="middle" x="607" y="-102.5" font-family="Helvetica,sans-Serif" font-size="10.00">console::ge::printFmtVa</text>
</a>
</g>
</g>
<!-- Node4&#45;&gt;Node5 -->
<g id="edge4" class="edge">
<title>Node4&#45;&gt;Node5</title>
<path fill="none" stroke="midnightblue" d="M483.6,-57.54C507.77,-66.91 544.85,-81.29 571.86,-91.76"/>
<polygon fill="midnightblue" stroke="midnightblue" points="570.73,-95.08 581.32,-95.43 573.26,-88.55 570.73,-95.08"/>
</g>
<!-- Node12 -->
<g id="node12" class="node">
<title>Node12</title>
<g id="a_node12"><a xlink:href="namespaceconsole_1_1out.html#ad9fc97dff4404c2d21aedbb24691e7cb" target="_top" xlink:title=" ">
<polygon fill="white" stroke="black" points="865,-38.5 865,-57.5 975,-57.5 975,-38.5 865,-38.5"/>
<text text-anchor="middle" x="920" y="-45.5" font-family="Helvetica,sans-Serif" font-size="10.00">console::out::putChar</text>
</a>
</g>
</g>
<!-- Node4&#45;&gt;Node12 -->
<g id="edge21" class="edge">
<title>Node4&#45;&gt;Node12</title>
<path fill="none" stroke="midnightblue" d="M511.17,-41.85C582.89,-34.32 715.92,-23.64 829,-33 839.29,-33.85 850.17,-35.24 860.68,-36.84"/>
<polygon fill="midnightblue" stroke="midnightblue" points="860.18,-40.31 870.61,-38.43 861.28,-33.39 860.18,-40.31"/>
</g>
<!-- Node6 -->
<g id="node6" class="node">
<title>Node6</title>
<g id="a_node6"><a xlink:href="printfmt_8cc.html#a708ec6ee2b8bd2d7a453d8d9436ed3b3" target="_top" xlink:title=" ">
<polygon fill="white" stroke="black" points="737,-171.5 737,-190.5 795,-190.5 795,-171.5 737,-171.5"/>
<text text-anchor="middle" x="766" y="-178.5" font-family="Helvetica,sans-Serif" font-size="10.00">_getIntVa</text>
</a>
</g>
</g>
<!-- Node5&#45;&gt;Node6 -->
<g id="edge5" class="edge">
<title>Node5&#45;&gt;Node6</title>
<path fill="none" stroke="midnightblue" d="M621.59,-114.61C639.53,-126.95 672.43,-148.39 703,-162 710.6,-165.39 718.99,-168.4 727.07,-170.98"/>
<polygon fill="midnightblue" stroke="midnightblue" points="726.11,-174.34 736.7,-173.9 728.14,-167.65 726.11,-174.34"/>
</g>
<!-- Node7 -->
<g id="node7" class="node">
<title>Node7</title>
<g id="a_node7"><a xlink:href="printfmt_8cc.html#af4b46892c76c8bfd27efdb20847eb7c8" target="_top" xlink:title=" ">
<polygon fill="white" stroke="black" points="733.5,-133.5 733.5,-152.5 798.5,-152.5 798.5,-133.5 733.5,-133.5"/>
<text text-anchor="middle" x="766" y="-140.5" font-family="Helvetica,sans-Serif" font-size="10.00">_getUIntVa</text>
</a>
</g>
</g>
<!-- Node5&#45;&gt;Node7 -->
<g id="edge6" class="edge">
<title>Node5&#45;&gt;Node7</title>
<path fill="none" stroke="midnightblue" d="M647.62,-114.59C670.72,-120.18 699.84,-127.23 723.3,-132.91"/>
<polygon fill="midnightblue" stroke="midnightblue" points="722.76,-136.38 733.3,-135.33 724.4,-129.57 722.76,-136.38"/>
</g>
<!-- Node8 -->
<g id="node8" class="node">
<title>Node8</title>
<g id="a_node8"><a xlink:href="namespacestr.html#a062221f630647cf300f0dd982c4ed904" target="_top" xlink:title=" ">
<polygon fill="white" stroke="black" points="1343,-128.5 1343,-147.5 1401,-147.5 1401,-128.5 1343,-128.5"/>
<text text-anchor="middle" x="1372" y="-135.5" font-family="Helvetica,sans-Serif" font-size="10.00">str::count</text>
</a>
</g>
</g>
<!-- Node5&#45;&gt;Node8 -->
<g id="edge7" class="edge">
<title>Node5&#45;&gt;Node8</title>
<path fill="none" stroke="midnightblue" d="M614.18,-114.72C627.55,-134.79 661.36,-180.57 703,-200 790.33,-240.75 822.63,-219 919,-219 919,-219 919,-219 1072,-219 1173.55,-219 1287.97,-174.93 1341.02,-151.8"/>
<polygon fill="midnightblue" stroke="midnightblue" points="1342.77,-154.86 1350.5,-147.61 1339.93,-148.46 1342.77,-154.86"/>
</g>
<!-- Node9 -->
<g id="node9" class="node">
<title>Node9</title>
<g id="a_node9"><a xlink:href="printfmt_8cc.html#a0e3e484ece5e75b9f5fbe337f0ae8ae3" target="_top" xlink:title=" ">
<polygon fill="white" stroke="black" points="739.5,-95.5 739.5,-114.5 792.5,-114.5 792.5,-95.5 739.5,-95.5"/>
<text text-anchor="middle" x="766" y="-102.5" font-family="Helvetica,sans-Serif" font-size="10.00">describe</text>
</a>
</g>
</g>
<!-- Node5&#45;&gt;Node9 -->
<g id="edge8" class="edge">
<title>Node5&#45;&gt;Node9</title>
<path fill="none" stroke="midnightblue" d="M667.35,-105C688.12,-105 710.78,-105 729.04,-105"/>
<polygon fill="midnightblue" stroke="midnightblue" points="729.24,-108.5 739.24,-105 729.24,-101.5 729.24,-108.5"/>
</g>
<!-- Node11 -->
<g id="node11" class="node">
<title>Node11</title>
<g id="a_node11"><a xlink:href="namespaceconsole_1_1ge.html#a7e301813fd34fde772376afc5fdad95d" target="_top" xlink:title=" ">
<polygon fill="white" stroke="black" points="703,-57.5 703,-76.5 829,-76.5 829,-57.5 703,-57.5"/>
<text text-anchor="middle" x="766" y="-64.5" font-family="Helvetica,sans-Serif" font-size="10.00">console::ge::printNumber</text>
</a>
</g>
</g>
<!-- Node5&#45;&gt;Node11 -->
<g id="edge10" class="edge">
<title>Node5&#45;&gt;Node11</title>
<path fill="none" stroke="midnightblue" d="M647.62,-95.41C668.34,-90.4 693.89,-84.21 715.86,-78.89"/>
<polygon fill="midnightblue" stroke="midnightblue" points="716.77,-82.27 725.67,-76.52 715.12,-75.47 716.77,-82.27"/>
</g>
<!-- Node5&#45;&gt;Node12 -->
<g id="edge20" class="edge">
<title>Node5&#45;&gt;Node12</title>
<path fill="none" stroke="midnightblue" d="M619.33,-95.36C636.22,-81.67 669.63,-57.24 703,-48 752.52,-34.28 810.9,-35.25 854.48,-39.11"/>
<polygon fill="midnightblue" stroke="midnightblue" points="854.38,-42.62 864.66,-40.09 855.05,-35.65 854.38,-42.62"/>
</g>
<!-- Node10 -->
<g id="node10" class="node">
<title>Node10</title>
<g id="a_node10"><a xlink:href="namespacemonitor.html#a318993193c866642f8389a1c1f285739" target="_top" xlink:title=" ">
<polygon fill="white" stroke="black" points="883,-95.5 883,-114.5 957,-114.5 957,-95.5 883,-95.5"/>
<text text-anchor="middle" x="920" y="-102.5" font-family="Helvetica,sans-Serif" font-size="10.00">monitor::fuck</text>
</a>
</g>
</g>
<!-- Node9&#45;&gt;Node10 -->
<g id="edge9" class="edge">
<title>Node9&#45;&gt;Node10</title>
<path fill="none" stroke="midnightblue" d="M792.78,-105C814.62,-105 846.46,-105 872.7,-105"/>
<polygon fill="midnightblue" stroke="midnightblue" points="872.82,-108.5 882.82,-105 872.82,-101.5 872.82,-108.5"/>
</g>
<!-- Node11&#45;&gt;Node12 -->
<g id="edge11" class="edge">
<title>Node11&#45;&gt;Node12</title>
<path fill="none" stroke="midnightblue" d="M829.26,-59.22C837.66,-58.17 846.28,-57.09 854.71,-56.04"/>
<polygon fill="midnightblue" stroke="midnightblue" points="855.37,-59.48 864.86,-54.77 854.51,-52.53 855.37,-59.48"/>
</g>
<!-- Node13 -->
<g id="node13" class="node">
<title>Node13</title>
<g id="a_node13"><a xlink:href="namespaceconsole_1_1serial.html#a3a7c1f95ae3c24136ea63bb31fdf0391" target="_top" xlink:title=" ">
<polygon fill="white" stroke="black" points="1011,-38.5 1011,-57.5 1131,-57.5 1131,-38.5 1011,-38.5"/>
<text text-anchor="middle" x="1071" y="-45.5" font-family="Helvetica,sans-Serif" font-size="10.00">console::serial::putChar</text>
</a>
</g>
</g>
<!-- Node12&#45;&gt;Node13 -->
<g id="edge12" class="edge">
<title>Node12&#45;&gt;Node13</title>
<path fill="none" stroke="midnightblue" d="M975.21,-48C983.53,-48 992.2,-48 1000.79,-48"/>
<polygon fill="midnightblue" stroke="midnightblue" points="1000.79,-51.5 1010.79,-48 1000.79,-44.5 1000.79,-51.5"/>
</g>
<!-- Node16 -->
<g id="node16" class="node">
<title>Node16</title>
<g id="a_node16"><a xlink:href="namespaceconsole_1_1cga.html#afa19057ca041b39682d5d4831c43dfa0" target="_top" xlink:title=" ">
<polygon fill="white" stroke="black" points="1014.5,-76.5 1014.5,-95.5 1127.5,-95.5 1127.5,-76.5 1014.5,-76.5"/>
<text text-anchor="middle" x="1071" y="-83.5" font-family="Helvetica,sans-Serif" font-size="10.00">console::cga::putChar</text>
</a>
</g>
</g>
<!-- Node12&#45;&gt;Node16 -->
<g id="edge15" class="edge">
<title>Node12&#45;&gt;Node16</title>
<path fill="none" stroke="midnightblue" d="M958.6,-57.59C978.08,-62.56 1002.07,-68.68 1022.8,-73.96"/>
<polygon fill="midnightblue" stroke="midnightblue" points="1022.12,-77.4 1032.67,-76.48 1023.85,-70.62 1022.12,-77.4"/>
</g>
<!-- Node14 -->
<g id="node14" class="node">
<title>Node14</title>
<g id="a_node14"><a xlink:href="namespaceconsole_1_1serial.html#aa5605d4537106bb1c2bab72d7d1a5824" target="_top" xlink:title=" ">
<polygon fill="white" stroke="black" points="1185,-38.5 1185,-57.5 1289,-57.5 1289,-38.5 1185,-38.5"/>
<text text-anchor="middle" x="1237" y="-45.5" font-family="Helvetica,sans-Serif" font-size="10.00">console::serial::sout</text>
</a>
</g>
</g>
<!-- Node13&#45;&gt;Node14 -->
<g id="edge13" class="edge">
<title>Node13&#45;&gt;Node14</title>
<path fill="none" stroke="midnightblue" d="M1131.21,-48C1145.31,-48 1160.39,-48 1174.59,-48"/>
<polygon fill="midnightblue" stroke="midnightblue" points="1174.74,-51.5 1184.74,-48 1174.74,-44.5 1174.74,-51.5"/>
</g>
<!-- Node15 -->
<g id="node15" class="node">
<title>Node15</title>
<g id="a_node15"><a xlink:href="x86_8h.html#ade961b44e45ddacbc3c3b7609cf36dc6" target="_top" xlink:title=" ">
<polygon fill="white" stroke="black" points="1354.5,-71.5 1354.5,-90.5 1389.5,-90.5 1389.5,-71.5 1354.5,-71.5"/>
<text text-anchor="middle" x="1372" y="-78.5" font-family="Helvetica,sans-Serif" font-size="10.00">outb</text>
</a>
</g>
</g>
<!-- Node14&#45;&gt;Node15 -->
<g id="edge14" class="edge">
<title>Node14&#45;&gt;Node15</title>
<path fill="none" stroke="midnightblue" d="M1276.47,-57.54C1298.32,-62.97 1325.11,-69.61 1344.59,-74.45"/>
<polygon fill="midnightblue" stroke="midnightblue" points="1343.76,-77.85 1354.31,-76.86 1345.44,-71.05 1343.76,-77.85"/>
</g>
<!-- Node17 -->
<g id="node17" class="node">
<title>Node17</title>
<g id="a_node17"><a xlink:href="namespacemem.html#a64d9d05b439041901498c606de606431" target="_top" xlink:title=" ">
<polygon fill="white" stroke="black" points="1204.5,-119.5 1204.5,-138.5 1269.5,-138.5 1269.5,-119.5 1204.5,-119.5"/>
<text text-anchor="middle" x="1237" y="-126.5" font-family="Helvetica,sans-Serif" font-size="10.00">mem::copy</text>
</a>
</g>
</g>
<!-- Node16&#45;&gt;Node17 -->
<g id="edge16" class="edge">
<title>Node16&#45;&gt;Node17</title>
<path fill="none" stroke="midnightblue" d="M1108.4,-95.54C1133.92,-102.23 1168.08,-111.19 1194.64,-118.15"/>
<polygon fill="midnightblue" stroke="midnightblue" points="1193.85,-121.57 1204.41,-120.72 1195.62,-114.79 1193.85,-121.57"/>
</g>
<!-- Node18 -->
<g id="node18" class="node">
<title>Node18</title>
<g id="a_node18"><a xlink:href="namespaceconsole_1_1cga.html#a06463d4dc68819e30615ba299d02a78f" target="_top" xlink:title=" ">
<polygon fill="white" stroke="black" points="1167,-76.5 1167,-95.5 1307,-95.5 1307,-76.5 1167,-76.5"/>
<text text-anchor="middle" x="1237" y="-83.5" font-family="Helvetica,sans-Serif" font-size="10.00">console::cga::cursorRefresh</text>
</a>
</g>
</g>
<!-- Node16&#45;&gt;Node18 -->
<g id="edge18" class="edge">
<title>Node16&#45;&gt;Node18</title>
<path fill="none" stroke="midnightblue" d="M1127.52,-86C1136.9,-86 1146.8,-86 1156.65,-86"/>
<polygon fill="midnightblue" stroke="midnightblue" points="1156.87,-89.5 1166.87,-86 1156.87,-82.5 1156.87,-89.5"/>
</g>
<!-- Node17&#45;&gt;Node8 -->
<g id="edge17" class="edge">
<title>Node17&#45;&gt;Node8</title>
<path fill="none" stroke="midnightblue" d="M1269.52,-131.13C1288.49,-132.42 1312.77,-134.06 1332.82,-135.42"/>
<polygon fill="midnightblue" stroke="midnightblue" points="1332.66,-138.91 1342.87,-136.1 1333.13,-131.93 1332.66,-138.91"/>
</g>
<!-- Node18&#45;&gt;Node15 -->
<g id="edge19" class="edge">
<title>Node18&#45;&gt;Node15</title>
<path fill="none" stroke="midnightblue" d="M1307.23,-83.4C1320.48,-82.9 1333.59,-82.41 1344.45,-82"/>
<polygon fill="midnightblue" stroke="midnightblue" points="1344.61,-85.49 1354.47,-81.62 1344.35,-78.5 1344.61,-85.49"/>
</g>
<!-- Node20 -->
<g id="node20" class="node">
<title>Node20</title>
<g id="a_node20"><a xlink:href="ctype_8h.html#afa0dfddc51a97feb51f3ecfbe30125b1" target="_top" xlink:title=" ">
<polygon fill="white" stroke="black" points="283,-0.5 283,-19.5 360,-19.5 360,-0.5 283,-0.5"/>
<text text-anchor="middle" x="321.5" y="-7.5" font-family="Helvetica,sans-Serif" font-size="10.00">isWhiteSpace</text>
</a>
</g>
</g>
<!-- Node19&#45;&gt;Node20 -->
<g id="edge23" class="edge">
<title>Node19&#45;&gt;Node20</title>
<path fill="none" stroke="midnightblue" d="M217.63,-10C233.92,-10 254.32,-10 272.65,-10"/>
<polygon fill="midnightblue" stroke="midnightblue" points="272.87,-13.5 282.87,-10 272.87,-6.5 272.87,-13.5"/>
</g>
</g>
</svg>
