<?xml version="1.0" encoding="UTF-8" standalone="no"?>
<!DOCTYPE svg PUBLIC "-//W3C//DTD SVG 1.1//EN"
 "http://www.w3.org/Graphics/SVG/1.1/DTD/svg11.dtd">
<!-- Generated by graphviz version 2.44.1 (20200629.0846)
 -->
<!-- Title: vmem::init Pages: 1 -->
<!--zoomable 892 -->
<svg id="main" version="1.1" xmlns="http://www.w3.org/2000/svg" xmlns:xlink="http://www.w3.org/1999/xlink" xml:space="preserve" onload="init(evt)">
<style type="text/css"><![CDATA[
.edge:hover path { stroke: red; }
.edge:hover polygon { stroke: red; fill: red; }
]]></style>
<script type="text/javascript"><![CDATA[
var edges = document.getElementsByTagName('g');
if (edges && edges.length) {
  for (var i=0;i<edges.length;i++) {
    if (edges[i].id.substr(0,4)=='edge') {
      edges[i].setAttribute('class','edge');
    }
  }
}
]]></script>
        <defs>
                <circle id="rim" cx="0" cy="0" r="7"/>
                <circle id="rim2" cx="0" cy="0" r="3.5"/>
                <g id="zoomPlus">
                        <use xlink:href="#rim" fill="#404040">
                                <set attributeName="fill" to="#808080" begin="zoomplus.mouseover" end="zoomplus.mouseout"/>
                        </use>
                        <path d="M-4,0h8M0,-4v8" fill="none" stroke="white" stroke-width="1.5" pointer-events="none"/>
                </g>
                <g id="zoomMin">
                        <use xlink:href="#rim" fill="#404040">
                                <set attributeName="fill" to="#808080" begin="zoomminus.mouseover" end="zoomminus.mouseout"/>
                        </use>
                        <path d="M-4,0h8" fill="none" stroke="white" stroke-width="1.5" pointer-events="none"/>
                </g>
                <g id="dirArrow">
                        <path fill="none" stroke="white" stroke-width="1.5" d="M0,-3.0v7 M-2.5,-0.5L0,-3.0L2.5,-0.5"/>
                </g>
               <g id="resetDef">
                       <use xlink:href="#rim2" fill="#404040">
                               <set attributeName="fill" to="#808080" begin="reset.mouseover" end="reset.mouseout"/>
                       </use>
               </g>
        </defs>

<script type="text/javascript">
var viewWidth = 1428;
var viewHeight = 892;
var sectionId = 'dynsection-4';
</script>
<script xlink:href="svgpan.js"/>
<svg id="graph" class="graph">
<g id="viewport">
<title>vmem::init</title>
<polygon fill="white" stroke="transparent" points="-4,4 -4,-888 1424,-888 1424,4 -4,4"/>
<!-- Node1 -->
<g id="node1" class="node">
<title>Node1</title>
<g id="a_node1"><a xlink:title=" ">
<polygon fill="#bfbfbf" stroke="black" points="0,-522.5 0,-541.5 62,-541.5 62,-522.5 0,-522.5"/>
<text text-anchor="middle" x="31" y="-529.5" font-family="Helvetica,sans-Serif" font-size="10.00">vmem::init</text>
</a>
</g>
</g>
<!-- Node2 -->
<g id="node2" class="node">
<title>Node2</title>
<g id="a_node2"><a xlink:href="namespacevmem_1_1pgdir.html#a21f3c45c22787494739ad9d15464a67d" target="_top" xlink:title=" ">
<polygon fill="white" stroke="black" points="98,-560.5 98,-579.5 195,-579.5 195,-560.5 98,-560.5"/>
<text text-anchor="middle" x="146.5" y="-567.5" font-family="Helvetica,sans-Serif" font-size="10.00">vmem::pgdir::alloc</text>
</a>
</g>
</g>
<!-- Node1&#45;&gt;Node2 -->
<g id="edge1" class="edge">
<title>Node1&#45;&gt;Node2</title>
<path fill="none" stroke="midnightblue" d="M60.64,-541.59C74.75,-546.31 91.97,-552.08 107.2,-557.18"/>
<polygon fill="midnightblue" stroke="midnightblue" points="106.27,-560.56 116.87,-560.41 108.5,-553.92 106.27,-560.56"/>
</g>
<!-- Node3 -->
<g id="node3" class="node">
<title>Node3</title>
<g id="a_node3"><a xlink:href="namespacevmem.html#aba25132214a42a641dafb1b21a1ce2db" target="_top" xlink:title=" ">
<polygon fill="white" stroke="black" points="239,-522.5 239,-541.5 329,-541.5 329,-522.5 239,-522.5"/>
<text text-anchor="middle" x="284" y="-529.5" font-family="Helvetica,sans-Serif" font-size="10.00">vmem::bootAlloc</text>
</a>
</g>
</g>
<!-- Node1&#45;&gt;Node3 -->
<g id="edge21" class="edge">
<title>Node1&#45;&gt;Node3</title>
<path fill="none" stroke="midnightblue" d="M62.28,-532C103.38,-532 177.56,-532 228.49,-532"/>
<polygon fill="midnightblue" stroke="midnightblue" points="228.67,-535.5 238.67,-532 228.67,-528.5 228.67,-535.5"/>
</g>
<!-- Node7 -->
<g id="node7" class="node">
<title>Node7</title>
<g id="a_node7"><a xlink:href="namespacetask.html#a4b014bf8c26e9b49cb7a9d7d31889b4f" target="_top" xlink:title=" ">
<polygon fill="white" stroke="black" points="390.5,-370.5 390.5,-389.5 475.5,-389.5 475.5,-370.5 390.5,-370.5"/>
<text text-anchor="middle" x="433" y="-377.5" font-family="Helvetica,sans-Serif" font-size="10.00">task::allocArray</text>
</a>
</g>
</g>
<!-- Node1&#45;&gt;Node7 -->
<g id="edge7" class="edge">
<title>Node1&#45;&gt;Node7</title>
<path fill="none" stroke="midnightblue" d="M41.72,-522.38C54.12,-510.4 76.53,-489.73 98,-475 153.25,-437.09 167.08,-424.1 231,-404 280.14,-388.55 338.9,-382.93 380.16,-380.94"/>
<polygon fill="midnightblue" stroke="midnightblue" points="380.41,-384.43 390.26,-380.51 380.12,-377.44 380.41,-384.43"/>
</g>
<!-- Node15 -->
<g id="node15" class="node">
<title>Node15</title>
<g id="a_node15"><a xlink:href="namespacevmem.html#a18b5f085011286d242840949c48343b6" target="_top" xlink:title=" ">
<polygon fill="white" stroke="black" points="108,-745.5 108,-764.5 185,-764.5 185,-745.5 108,-745.5"/>
<text text-anchor="middle" x="146.5" y="-752.5" font-family="Helvetica,sans-Serif" font-size="10.00">vmem::detect</text>
</a>
</g>
</g>
<!-- Node1&#45;&gt;Node15 -->
<g id="edge22" class="edge">
<title>Node1&#45;&gt;Node15</title>
<path fill="none" stroke="midnightblue" d="M36.88,-541.58C54.19,-575.61 112.92,-691 136.04,-736.42"/>
<polygon fill="midnightblue" stroke="midnightblue" points="132.99,-738.13 140.64,-745.45 139.22,-734.95 132.99,-738.13"/>
</g>
<!-- Node20 -->
<g id="node20" class="node">
<title>Node20</title>
<g id="a_node20"><a xlink:href="namespacevmem_1_1page.html#a0e0d89ec339a2a0b1ad01b83f06d7e0b" target="_top" xlink:title=" ">
<polygon fill="white" stroke="black" points="102,-484.5 102,-503.5 191,-503.5 191,-484.5 102,-484.5"/>
<text text-anchor="middle" x="146.5" y="-491.5" font-family="Helvetica,sans-Serif" font-size="10.00">vmem::page::init</text>
</a>
</g>
</g>
<!-- Node1&#45;&gt;Node20 -->
<g id="edge27" class="edge">
<title>Node1&#45;&gt;Node20</title>
<path fill="none" stroke="midnightblue" d="M60.64,-522.41C74.75,-517.69 91.97,-511.92 107.2,-506.82"/>
<polygon fill="midnightblue" stroke="midnightblue" points="108.5,-510.08 116.87,-503.59 106.27,-503.44 108.5,-510.08"/>
</g>
<!-- Node22 -->
<g id="node22" class="node">
<title>Node22</title>
<g id="a_node22"><a xlink:href="namespacevmem_1_1pgdir.html#a1a38223c602b0a8117cac423efa0342d" target="_top" xlink:title=" ">
<polygon fill="white" stroke="black" points="102,-199.5 102,-218.5 191,-218.5 191,-199.5 102,-199.5"/>
<text text-anchor="middle" x="146.5" y="-206.5" font-family="Helvetica,sans-Serif" font-size="10.00">vmem::pgdir::init</text>
</a>
</g>
</g>
<!-- Node1&#45;&gt;Node22 -->
<g id="edge31" class="edge">
<title>Node1&#45;&gt;Node22</title>
<path fill="none" stroke="midnightblue" d="M35.4,-522.33C51.16,-477.48 117.31,-289.22 138.76,-228.19"/>
<polygon fill="midnightblue" stroke="midnightblue" points="142.1,-229.22 142.12,-218.63 135.5,-226.9 142.1,-229.22"/>
</g>
<!-- Node30 -->
<g id="node30" class="node">
<title>Node30</title>
<g id="a_node30"><a xlink:href="namespaceconsole_1_1out.html#ac6f663e3971b66b8e130ee94755a150e" target="_top" xlink:title=" ">
<polygon fill="white" stroke="black" points="99,-626.5 99,-645.5 194,-645.5 194,-626.5 99,-626.5"/>
<text text-anchor="middle" x="146.5" y="-633.5" font-family="Helvetica,sans-Serif" font-size="10.00">console::out::print</text>
</a>
</g>
</g>
<!-- Node1&#45;&gt;Node30 -->
<g id="edge50" class="edge">
<title>Node1&#45;&gt;Node30</title>
<path fill="none" stroke="midnightblue" d="M42.47,-541.6C61.9,-559.4 103.71,-597.71 127.67,-619.66"/>
<polygon fill="midnightblue" stroke="midnightblue" points="125.31,-622.25 135.05,-626.43 130.04,-617.09 125.31,-622.25"/>
</g>
<!-- Node2&#45;&gt;Node3 -->
<g id="edge2" class="edge">
<title>Node2&#45;&gt;Node3</title>
<path fill="none" stroke="midnightblue" d="M181.69,-560.41C199.1,-555.53 220.47,-549.54 239.09,-544.32"/>
<polygon fill="midnightblue" stroke="midnightblue" points="240.14,-547.66 248.82,-541.59 238.24,-540.92 240.14,-547.66"/>
</g>
<!-- Node4 -->
<g id="node4" class="node">
<title>Node4</title>
<g id="a_node4"><a xlink:href="namespacemem.html#a981dd0cb1408b798a79443c6245e9c55" target="_top" xlink:title=" ">
<polygon fill="white" stroke="black" points="1067.5,-437.5 1067.5,-456.5 1132.5,-456.5 1132.5,-437.5 1067.5,-437.5"/>
<text text-anchor="middle" x="1100" y="-444.5" font-family="Helvetica,sans-Serif" font-size="10.00">mem::clear</text>
</a>
</g>
</g>
<!-- Node2&#45;&gt;Node4 -->
<g id="edge3" class="edge">
<title>Node2&#45;&gt;Node4</title>
<path fill="none" stroke="midnightblue" d="M195.07,-570C251.57,-570 348.65,-570 432,-570 432,-570 432,-570 757.5,-570 883.53,-570 1021.06,-494.93 1075.21,-462.09"/>
<polygon fill="midnightblue" stroke="midnightblue" points="1077.36,-464.87 1084.04,-456.65 1073.69,-458.91 1077.36,-464.87"/>
</g>
<!-- Node5 -->
<g id="node5" class="node">
<title>Node5</title>
<g id="a_node5"><a xlink:href="namespacestr.html#a062221f630647cf300f0dd982c4ed904" target="_top" xlink:title=" ">
<polygon fill="white" stroke="black" points="1362,-569.5 1362,-588.5 1420,-588.5 1420,-569.5 1362,-569.5"/>
<text text-anchor="middle" x="1391" y="-576.5" font-family="Helvetica,sans-Serif" font-size="10.00">str::count</text>
</a>
</g>
</g>
<!-- Node4&#45;&gt;Node5 -->
<g id="edge4" class="edge">
<title>Node4&#45;&gt;Node5</title>
<path fill="none" stroke="midnightblue" d="M1122.25,-456.71C1173,-479.89 1301.39,-538.53 1359.99,-565.29"/>
<polygon fill="midnightblue" stroke="midnightblue" points="1358.56,-568.49 1369.11,-569.46 1361.47,-562.12 1358.56,-568.49"/>
</g>
<!-- Node6 -->
<g id="node6" class="node">
<title>Node6</title>
<g id="a_node6"><a xlink:href="namespacemem.html#adbaba9127c03fb914f752bfe19d6d089" target="_top" xlink:title=" ">
<polygon fill="white" stroke="black" points="1237,-437.5 1237,-456.5 1295,-456.5 1295,-437.5 1237,-437.5"/>
<text text-anchor="middle" x="1266" y="-444.5" font-family="Helvetica,sans-Serif" font-size="10.00">mem::set</text>
</a>
</g>
</g>
<!-- Node4&#45;&gt;Node6 -->
<g id="edge5" class="edge">
<title>Node4&#45;&gt;Node6</title>
<path fill="none" stroke="midnightblue" d="M1132.62,-447C1159.48,-447 1198.11,-447 1226.72,-447"/>
<polygon fill="midnightblue" stroke="midnightblue" points="1226.76,-450.5 1236.76,-447 1226.76,-443.5 1226.76,-450.5"/>
</g>
<!-- Node6&#45;&gt;Node5 -->
<g id="edge6" class="edge">
<title>Node6&#45;&gt;Node5</title>
<path fill="none" stroke="midnightblue" d="M1276.24,-456.92C1297.09,-479.3 1347.98,-533.9 1374.04,-561.87"/>
<polygon fill="midnightblue" stroke="midnightblue" points="1371.6,-564.39 1380.98,-569.32 1376.73,-559.62 1371.6,-564.39"/>
</g>
<!-- Node7&#45;&gt;Node4 -->
<g id="edge8" class="edge">
<title>Node7&#45;&gt;Node4</title>
<path fill="none" stroke="midnightblue" d="M475.6,-384.19C594.98,-396.22 937.73,-430.75 1057.27,-442.8"/>
<polygon fill="midnightblue" stroke="midnightblue" points="1057.17,-446.3 1067.47,-443.82 1057.87,-439.34 1057.17,-446.3"/>
</g>
<!-- Node8 -->
<g id="node8" class="node">
<title>Node8</title>
<g id="a_node8"><a xlink:href="namespacevmem_1_1pgdir.html#a07dd6afb36a9efd207d6372a0f0f36e8" target="_top" xlink:title=" ">
<polygon fill="white" stroke="black" points="532.5,-180.5 532.5,-199.5 651.5,-199.5 651.5,-180.5 532.5,-180.5"/>
<text text-anchor="middle" x="592" y="-187.5" font-family="Helvetica,sans-Serif" font-size="10.00">vmem::pgdir::staticMap</text>
</a>
</g>
</g>
<!-- Node7&#45;&gt;Node8 -->
<g id="edge9" class="edge">
<title>Node7&#45;&gt;Node8</title>
<path fill="none" stroke="midnightblue" d="M439.9,-370.46C450.76,-352.81 474.5,-313.77 493,-280 510,-248.97 501.93,-231.78 529,-209 531.04,-207.29 533.22,-205.73 535.52,-204.31"/>
<polygon fill="midnightblue" stroke="midnightblue" points="537.53,-207.21 544.8,-199.51 534.31,-201 537.53,-207.21"/>
</g>
<!-- Node9 -->
<g id="node9" class="node">
<title>Node9</title>
<g id="a_node9"><a xlink:href="namespacevmem_1_1pgdir.html#a933a8f939084dabdb1a4b5401bebf8d7" target="_top" xlink:title=" ">
<polygon fill="white" stroke="black" points="703,-218.5 703,-237.5 810,-237.5 810,-218.5 703,-218.5"/>
<text text-anchor="middle" x="756.5" y="-225.5" font-family="Helvetica,sans-Serif" font-size="10.00">vmem::pgdir::findPte</text>
</a>
</g>
</g>
<!-- Node8&#45;&gt;Node9 -->
<g id="edge10" class="edge">
<title>Node8&#45;&gt;Node9</title>
<path fill="none" stroke="midnightblue" d="M634.01,-199.59C655.55,-204.63 682.13,-210.84 704.94,-216.18"/>
<polygon fill="midnightblue" stroke="midnightblue" points="704.25,-219.61 714.79,-218.48 705.85,-212.79 704.25,-219.61"/>
</g>
<!-- Node13 -->
<g id="node13" class="node">
<title>Node13</title>
<g id="a_node13"><a xlink:href="namespacevmem_1_1pgdir.html#a972bb045d4c58b0ea9c569e05831bbb6" target="_top" xlink:title=" ">
<polygon fill="white" stroke="black" points="858,-142.5 858,-161.5 994,-161.5 994,-142.5 858,-142.5"/>
<text text-anchor="middle" x="926" y="-149.5" font-family="Helvetica,sans-Serif" font-size="10.00">vmem::pgdir::invalidateTLB</text>
</a>
</g>
</g>
<!-- Node8&#45;&gt;Node13 -->
<g id="edge20" class="edge">
<title>Node8&#45;&gt;Node13</title>
<path fill="none" stroke="midnightblue" d="M651.89,-184.33C698.17,-179.75 764.25,-172.95 822,-166 830.37,-164.99 839.12,-163.89 847.82,-162.75"/>
<polygon fill="midnightblue" stroke="midnightblue" points="848.54,-166.19 858,-161.41 847.63,-159.25 848.54,-166.19"/>
</g>
<!-- Node9&#45;&gt;Node4 -->
<g id="edge15" class="edge">
<title>Node9&#45;&gt;Node4</title>
<path fill="none" stroke="midnightblue" d="M810.25,-236.04C870.58,-246.03 964.79,-264.32 994,-285 1046.06,-321.86 1078.74,-393.45 1092.09,-427.76"/>
<polygon fill="midnightblue" stroke="midnightblue" points="1088.82,-429 1095.61,-437.13 1095.37,-426.54 1088.82,-429"/>
</g>
<!-- Node10 -->
<g id="node10" class="node">
<title>Node10</title>
<g id="a_node10"><a xlink:href="structvmem_1_1_page_info.html#afcdcb7e941219a8ec999353658e3c2aa" target="_top" xlink:title=" ">
<polygon fill="white" stroke="black" points="868.5,-294.5 868.5,-313.5 983.5,-313.5 983.5,-294.5 868.5,-294.5"/>
<text text-anchor="middle" x="926" y="-301.5" font-family="Helvetica,sans-Serif" font-size="10.00">vmem::PageInfo::alloc</text>
</a>
</g>
</g>
<!-- Node9&#45;&gt;Node10 -->
<g id="edge11" class="edge">
<title>Node9&#45;&gt;Node10</title>
<path fill="none" stroke="midnightblue" d="M800.26,-237.6C807.76,-240.11 815.29,-243.21 822,-247 840.9,-257.68 839.42,-268.79 858,-280 864.99,-284.22 872.85,-287.86 880.64,-290.94"/>
<polygon fill="midnightblue" stroke="midnightblue" points="879.47,-294.24 890.07,-294.42 881.9,-287.67 879.47,-294.24"/>
</g>
<!-- Node11 -->
<g id="node11" class="node">
<title>Node11</title>
<g id="a_node11"><a xlink:href="structvmem_1_1_page_info.html#afc863f1d364462ddd2c20bf31f588337" target="_top" xlink:title=" ">
<polygon fill="white" stroke="black" points="1035,-218.5 1035,-237.5 1165,-237.5 1165,-218.5 1035,-218.5"/>
<text text-anchor="middle" x="1100" y="-225.5" font-family="Helvetica,sans-Serif" font-size="10.00">vmem::PageInfo::toKernV</text>
</a>
</g>
</g>
<!-- Node9&#45;&gt;Node11 -->
<g id="edge18" class="edge">
<title>Node9&#45;&gt;Node11</title>
<path fill="none" stroke="midnightblue" d="M810.11,-228C867.56,-228 960.01,-228 1024.82,-228"/>
<polygon fill="midnightblue" stroke="midnightblue" points="1024.97,-231.5 1034.97,-228 1024.97,-224.5 1024.97,-231.5"/>
</g>
<!-- Node12 -->
<g id="node12" class="node">
<title>Node12</title>
<g id="a_node12"><a xlink:href="structvmem_1_1_page_info.html#accf2071c7875c29c9aa78a01ef5963a1" target="_top" xlink:title=" ">
<polygon fill="white" stroke="black" points="1206,-180.5 1206,-199.5 1326,-199.5 1326,-180.5 1206,-180.5"/>
<text text-anchor="middle" x="1266" y="-187.5" font-family="Helvetica,sans-Serif" font-size="10.00">vmem::PageInfo::toPhy</text>
</a>
</g>
</g>
<!-- Node9&#45;&gt;Node12 -->
<g id="edge19" class="edge">
<title>Node9&#45;&gt;Node12</title>
<path fill="none" stroke="midnightblue" d="M810.38,-224.04C902.54,-217.14 1092.57,-202.91 1195.34,-195.22"/>
<polygon fill="midnightblue" stroke="midnightblue" points="1195.91,-198.68 1205.62,-194.45 1195.38,-191.7 1195.91,-198.68"/>
</g>
<!-- Node9&#45;&gt;Node13 -->
<g id="edge16" class="edge">
<title>Node9&#45;&gt;Node13</title>
<path fill="none" stroke="midnightblue" d="M788.87,-218.49C799.68,-214.65 811.67,-209.76 822,-204 839.7,-194.13 840.24,-185.76 858,-176 865.55,-171.85 873.96,-168.18 882.19,-165.04"/>
<polygon fill="midnightblue" stroke="midnightblue" points="883.51,-168.29 891.72,-161.59 881.13,-161.7 883.51,-168.29"/>
</g>
<!-- Node10&#45;&gt;Node4 -->
<g id="edge12" class="edge">
<title>Node10&#45;&gt;Node4</title>
<path fill="none" stroke="midnightblue" d="M938.55,-313.6C967.56,-337.72 1043.71,-401.03 1079.67,-430.93"/>
<polygon fill="midnightblue" stroke="midnightblue" points="1077.57,-433.74 1087.5,-437.44 1082.05,-428.35 1077.57,-433.74"/>
</g>
<!-- Node10&#45;&gt;Node11 -->
<g id="edge13" class="edge">
<title>Node10&#45;&gt;Node11</title>
<path fill="none" stroke="midnightblue" d="M948.78,-294.37C978.9,-281.07 1033.41,-256.98 1067.83,-241.77"/>
<polygon fill="midnightblue" stroke="midnightblue" points="1069.66,-244.79 1077.39,-237.55 1066.83,-238.39 1069.66,-244.79"/>
</g>
<!-- Node11&#45;&gt;Node12 -->
<g id="edge14" class="edge">
<title>Node11&#45;&gt;Node12</title>
<path fill="none" stroke="midnightblue" d="M1142.38,-218.41C1164.12,-213.37 1190.96,-207.16 1213.97,-201.82"/>
<polygon fill="midnightblue" stroke="midnightblue" points="1214.96,-205.19 1223.91,-199.52 1213.38,-198.37 1214.96,-205.19"/>
</g>
<!-- Node14 -->
<g id="node14" class="node">
<title>Node14</title>
<g id="a_node14"><a xlink:href="x86_8h.html#a2c1c4c8523ed258a75c563a8f94d1686" target="_top" xlink:title=" ">
<polygon fill="white" stroke="black" points="1079,-142.5 1079,-161.5 1121,-161.5 1121,-142.5 1079,-142.5"/>
<text text-anchor="middle" x="1100" y="-149.5" font-family="Helvetica,sans-Serif" font-size="10.00">invlpg</text>
</a>
</g>
</g>
<!-- Node13&#45;&gt;Node14 -->
<g id="edge17" class="edge">
<title>Node13&#45;&gt;Node14</title>
<path fill="none" stroke="midnightblue" d="M994.49,-152C1020.13,-152 1048.08,-152 1068.62,-152"/>
<polygon fill="midnightblue" stroke="midnightblue" points="1068.64,-155.5 1078.64,-152 1068.64,-148.5 1068.64,-155.5"/>
</g>
<!-- Node16 -->
<g id="node16" class="node">
<title>Node16</title>
<g id="a_node16"><a xlink:href="namespacenvram.html#a44880d1bbe939e863adda0302febc9ef" target="_top" xlink:title=" ">
<polygon fill="white" stroke="black" points="250,-786.5 250,-805.5 318,-805.5 318,-786.5 250,-786.5"/>
<text text-anchor="middle" x="284" y="-793.5" font-family="Helvetica,sans-Serif" font-size="10.00">nvram::read</text>
</a>
</g>
</g>
<!-- Node15&#45;&gt;Node16 -->
<g id="edge23" class="edge">
<title>Node15&#45;&gt;Node16</title>
<path fill="none" stroke="midnightblue" d="M178.93,-764.51C197.6,-770.16 221.51,-777.39 241.7,-783.5"/>
<polygon fill="midnightblue" stroke="midnightblue" points="240.69,-786.85 251.27,-786.4 242.72,-780.15 240.69,-786.85"/>
</g>
<!-- Node17 -->
<g id="node17" class="node">
<title>Node17</title>
<g id="a_node17"><a xlink:href="namespacenvram.html#a15178b214d95c476ade1c8c83c918aa1" target="_top" xlink:title=" ">
<polygon fill="white" stroke="black" points="373.5,-826.5 373.5,-845.5 492.5,-845.5 492.5,-826.5 373.5,-826.5"/>
<text text-anchor="middle" x="433" y="-833.5" font-family="Helvetica,sans-Serif" font-size="10.00">nvram::mc146818_read</text>
</a>
</g>
</g>
<!-- Node16&#45;&gt;Node17 -->
<g id="edge24" class="edge">
<title>Node16&#45;&gt;Node17</title>
<path fill="none" stroke="midnightblue" d="M318.36,-805.08C338.7,-810.61 364.97,-817.76 387.13,-823.79"/>
<polygon fill="midnightblue" stroke="midnightblue" points="386.42,-827.22 396.98,-826.47 388.25,-820.47 386.42,-827.22"/>
</g>
<!-- Node18 -->
<g id="node18" class="node">
<title>Node18</title>
<g id="a_node18"><a xlink:href="x86_8h.html#afdc603aa210ab8fd9995ce74940f5d7f" target="_top" xlink:title=" ">
<polygon fill="white" stroke="black" points="577.5,-864.5 577.5,-883.5 606.5,-883.5 606.5,-864.5 577.5,-864.5"/>
<text text-anchor="middle" x="592" y="-871.5" font-family="Helvetica,sans-Serif" font-size="10.00">inb</text>
</a>
</g>
</g>
<!-- Node17&#45;&gt;Node18 -->
<g id="edge25" class="edge">
<title>Node17&#45;&gt;Node18</title>
<path fill="none" stroke="midnightblue" d="M473.62,-845.59C503.21,-852.75 542.67,-862.3 567.46,-868.3"/>
<polygon fill="midnightblue" stroke="midnightblue" points="566.88,-871.76 577.42,-870.71 568.52,-864.96 566.88,-871.76"/>
</g>
<!-- Node19 -->
<g id="node19" class="node">
<title>Node19</title>
<g id="a_node19"><a xlink:href="x86_8h.html#ade961b44e45ddacbc3c3b7609cf36dc6" target="_top" xlink:title=" ">
<polygon fill="white" stroke="black" points="1248.5,-779.5 1248.5,-798.5 1283.5,-798.5 1283.5,-779.5 1248.5,-779.5"/>
<text text-anchor="middle" x="1266" y="-786.5" font-family="Helvetica,sans-Serif" font-size="10.00">outb</text>
</a>
</g>
</g>
<!-- Node17&#45;&gt;Node19 -->
<g id="edge26" class="edge">
<title>Node17&#45;&gt;Node19</title>
<path fill="none" stroke="midnightblue" d="M492.67,-836C557.12,-836 663.68,-836 755.5,-836 755.5,-836 755.5,-836 927,-836 1043.88,-836 1181.35,-808.09 1238.26,-795.28"/>
<polygon fill="midnightblue" stroke="midnightblue" points="1239.26,-798.64 1248.23,-793.01 1237.71,-791.82 1239.26,-798.64"/>
</g>
<!-- Node20&#45;&gt;Node3 -->
<g id="edge28" class="edge">
<title>Node20&#45;&gt;Node3</title>
<path fill="none" stroke="midnightblue" d="M181.69,-503.59C199.1,-508.47 220.47,-514.46 239.09,-519.68"/>
<polygon fill="midnightblue" stroke="midnightblue" points="238.24,-523.08 248.82,-522.41 240.14,-516.34 238.24,-523.08"/>
</g>
<!-- Node20&#45;&gt;Node4 -->
<g id="edge29" class="edge">
<title>Node20&#45;&gt;Node4</title>
<path fill="none" stroke="midnightblue" d="M191.36,-494C247.24,-494 346.8,-494 432,-494 432,-494 432,-494 757.5,-494 866.35,-494 992.9,-470.28 1057.06,-456.54"/>
<polygon fill="midnightblue" stroke="midnightblue" points="1058.15,-459.88 1067.19,-454.34 1056.67,-453.04 1058.15,-459.88"/>
</g>
<!-- Node21 -->
<g id="node21" class="node">
<title>Node21</title>
<g id="a_node21"><a xlink:href="structvmem_1_1_page_info.html#a1e3111217d6a051c9d8b83200710a0b3" target="_top" xlink:title=" ">
<polygon fill="white" stroke="black" points="691,-256.5 691,-275.5 822,-275.5 822,-256.5 691,-256.5"/>
<text text-anchor="middle" x="756.5" y="-263.5" font-family="Helvetica,sans-Serif" font-size="10.00">vmem::PageInfo::fromPhy</text>
</a>
</g>
</g>
<!-- Node20&#45;&gt;Node21 -->
<g id="edge30" class="edge">
<title>Node20&#45;&gt;Node21</title>
<path fill="none" stroke="midnightblue" d="M191.22,-484.94C257.67,-470.52 387.53,-439.74 493,-399 583.76,-363.94 684.76,-307.43 730.54,-280.8"/>
<polygon fill="midnightblue" stroke="midnightblue" points="732.58,-283.66 739.44,-275.58 729.04,-277.62 732.58,-283.66"/>
</g>
<!-- Node22&#45;&gt;Node6 -->
<g id="edge47" class="edge">
<title>Node22&#45;&gt;Node6</title>
<path fill="none" stroke="midnightblue" d="M154.06,-218.62C166.74,-236.42 196.42,-274.46 231,-294 310.96,-339.19 340.15,-342 432,-342 432,-342 432,-342 927,-342 1047.86,-342 1182.53,-403.98 1238.44,-432.7"/>
<polygon fill="midnightblue" stroke="midnightblue" points="1237.16,-435.98 1247.64,-437.5 1240.39,-429.77 1237.16,-435.98"/>
</g>
<!-- Node22&#45;&gt;Node8 -->
<g id="edge48" class="edge">
<title>Node22&#45;&gt;Node8</title>
<path fill="none" stroke="midnightblue" d="M163.11,-218.57C179.37,-227.94 205.94,-241.57 231,-247 277.04,-256.98 290.18,-252.19 337,-247 412.85,-238.59 499.16,-216.48 549.12,-202.39"/>
<polygon fill="midnightblue" stroke="midnightblue" points="550.25,-205.71 558.91,-199.6 548.33,-198.98 550.25,-205.71"/>
</g>
<!-- Node22&#45;&gt;Node10 -->
<g id="edge32" class="edge">
<title>Node22&#45;&gt;Node10</title>
<path fill="none" stroke="midnightblue" d="M159.15,-218.58C174.61,-230.78 203.19,-251.65 231,-263 315.41,-297.46 340.83,-304 432,-304 432,-304 432,-304 593,-304 684.97,-304 791.27,-304 858.3,-304"/>
<polygon fill="midnightblue" stroke="midnightblue" points="858.31,-307.5 868.31,-304 858.31,-300.5 858.31,-307.5"/>
</g>
<!-- Node22&#45;&gt;Node11 -->
<g id="edge49" class="edge">
<title>Node22&#45;&gt;Node11</title>
<path fill="none" stroke="midnightblue" d="M149.5,-199.4C155.82,-171.76 178.16,-91.72 231,-57 305.99,-7.72 342.27,-38 432,-38 432,-38 432,-38 757.5,-38 870.77,-38 900.33,-69.3 994,-133 1013.24,-146.08 1013,-155.12 1030,-171 1045.61,-185.58 1064.35,-200.94 1078.36,-212.03"/>
<polygon fill="midnightblue" stroke="midnightblue" points="1076.37,-214.93 1086.4,-218.35 1080.7,-209.42 1076.37,-214.93"/>
</g>
<!-- Node23 -->
<g id="node23" class="node">
<title>Node23</title>
<g id="a_node23"><a xlink:href="namespacevmem_1_1pgdir.html#a92ee80fc1a93d347be69ce9efae61c10" target="_top" xlink:title=" ">
<polygon fill="white" stroke="black" points="233.5,-66.5 233.5,-85.5 334.5,-85.5 334.5,-66.5 233.5,-66.5"/>
<text text-anchor="middle" x="284" y="-73.5" font-family="Helvetica,sans-Serif" font-size="10.00">vmem::pgdir::insert</text>
</a>
</g>
</g>
<!-- Node22&#45;&gt;Node23 -->
<g id="edge33" class="edge">
<title>Node22&#45;&gt;Node23</title>
<path fill="none" stroke="midnightblue" d="M152.74,-199.29C164.35,-178.57 194.14,-129.49 231,-100 235.73,-96.22 241.14,-92.88 246.66,-89.99"/>
<polygon fill="midnightblue" stroke="midnightblue" points="248.42,-93.02 255.92,-85.54 245.39,-86.71 248.42,-93.02"/>
</g>
<!-- Node25 -->
<g id="node25" class="node">
<title>Node25</title>
<g id="a_node25"><a xlink:href="namespacevmem_1_1pgdir.html#a0fac039ba671f03a7cccf3f4af55cbf5" target="_top" xlink:title=" ">
<polygon fill="white" stroke="black" points="378.5,-142.5 378.5,-161.5 487.5,-161.5 487.5,-142.5 378.5,-142.5"/>
<text text-anchor="middle" x="433" y="-149.5" font-family="Helvetica,sans-Serif" font-size="10.00">vmem::pgdir::remove</text>
</a>
</g>
</g>
<!-- Node22&#45;&gt;Node25 -->
<g id="edge46" class="edge">
<title>Node22&#45;&gt;Node25</title>
<path fill="none" stroke="midnightblue" d="M154.16,-199.4C166.79,-182.17 196.08,-146.51 231,-133 286.11,-111.67 355.81,-126.68 396.98,-139.41"/>
<polygon fill="midnightblue" stroke="midnightblue" points="395.97,-142.76 406.56,-142.49 398.11,-136.1 395.97,-142.76"/>
</g>
<!-- Node27 -->
<g id="node27" class="node">
<title>Node27</title>
<g id="a_node27"><a xlink:href="x86_8h.html#ad685be9808d9929feec209f23627ec90" target="_top" xlink:title=" ">
<polygon fill="white" stroke="black" points="268,-218.5 268,-237.5 300,-237.5 300,-218.5 268,-218.5"/>
<text text-anchor="middle" x="284" y="-225.5" font-family="Helvetica,sans-Serif" font-size="10.00">lcr0</text>
</a>
</g>
</g>
<!-- Node22&#45;&gt;Node27 -->
<g id="edge43" class="edge">
<title>Node22&#45;&gt;Node27</title>
<path fill="none" stroke="midnightblue" d="M191.12,-215.12C213.11,-218.2 239,-221.83 257.68,-224.45"/>
<polygon fill="midnightblue" stroke="midnightblue" points="257.38,-227.94 267.76,-225.86 258.35,-221.01 257.38,-227.94"/>
</g>
<!-- Node28 -->
<g id="node28" class="node">
<title>Node28</title>
<g id="a_node28"><a xlink:href="x86_8h.html#ab3bac932074f6042165d3016b701900a" target="_top" xlink:title=" ">
<polygon fill="white" stroke="black" points="268,-180.5 268,-199.5 300,-199.5 300,-180.5 268,-180.5"/>
<text text-anchor="middle" x="284" y="-187.5" font-family="Helvetica,sans-Serif" font-size="10.00">lcr3</text>
</a>
</g>
</g>
<!-- Node22&#45;&gt;Node28 -->
<g id="edge44" class="edge">
<title>Node22&#45;&gt;Node28</title>
<path fill="none" stroke="midnightblue" d="M191.12,-202.88C213.11,-199.8 239,-196.17 257.68,-193.55"/>
<polygon fill="midnightblue" stroke="midnightblue" points="258.35,-196.99 267.76,-192.14 257.38,-190.06 258.35,-196.99"/>
</g>
<!-- Node29 -->
<g id="node29" class="node">
<title>Node29</title>
<g id="a_node29"><a xlink:href="x86_8h.html#a69d89f57ae905c2df6b747567b621921" target="_top" xlink:title=" ">
<polygon fill="white" stroke="black" points="267.5,-142.5 267.5,-161.5 300.5,-161.5 300.5,-142.5 267.5,-142.5"/>
<text text-anchor="middle" x="284" y="-149.5" font-family="Helvetica,sans-Serif" font-size="10.00">rcr0</text>
</a>
</g>
</g>
<!-- Node22&#45;&gt;Node29 -->
<g id="edge45" class="edge">
<title>Node22&#45;&gt;Node29</title>
<path fill="none" stroke="midnightblue" d="M167.56,-199.35C184.36,-191.39 209.04,-179.99 231,-171 239.69,-167.44 249.33,-163.83 257.92,-160.72"/>
<polygon fill="midnightblue" stroke="midnightblue" points="259.16,-164 267.41,-157.34 256.81,-157.4 259.16,-164"/>
</g>
<!-- Node23&#45;&gt;Node9 -->
<g id="edge34" class="edge">
<title>Node23&#45;&gt;Node9</title>
<path fill="none" stroke="midnightblue" d="M334.8,-84.44C407.12,-97.66 544.61,-126.44 655,-171 683.1,-182.34 713.04,-200.15 732.85,-212.84"/>
<polygon fill="midnightblue" stroke="midnightblue" points="731.17,-215.92 741.46,-218.44 734.99,-210.05 731.17,-215.92"/>
</g>
<!-- Node23&#45;&gt;Node12 -->
<g id="edge42" class="edge">
<title>Node23&#45;&gt;Node12</title>
<path fill="none" stroke="midnightblue" d="M307.55,-66.37C357.59,-45.92 482.07,0 591,0 591,0 591,0 927,0 1067.63,0 1203.83,-126.53 1249.18,-173.08"/>
<polygon fill="midnightblue" stroke="midnightblue" points="1246.67,-175.52 1256.12,-180.32 1251.72,-170.68 1246.67,-175.52"/>
</g>
<!-- Node23&#45;&gt;Node13 -->
<g id="edge36" class="edge">
<title>Node23&#45;&gt;Node13</title>
<path fill="none" stroke="midnightblue" d="M334.68,-78.29C376.88,-80.49 439.01,-84.32 493,-90 622.79,-103.66 773.5,-127.01 858.22,-140.82"/>
<polygon fill="midnightblue" stroke="midnightblue" points="857.78,-144.3 868.22,-142.46 858.91,-137.39 857.78,-144.3"/>
</g>
<!-- Node24 -->
<g id="node24" class="node">
<title>Node24</title>
<g id="a_node24"><a xlink:href="namespacemonitor.html#a318993193c866642f8389a1c1f285739" target="_top" xlink:title=" ">
<polygon fill="white" stroke="black" points="719.5,-446.5 719.5,-465.5 793.5,-465.5 793.5,-446.5 719.5,-446.5"/>
<text text-anchor="middle" x="756.5" y="-453.5" font-family="Helvetica,sans-Serif" font-size="10.00">monitor::fuck</text>
</a>
</g>
</g>
<!-- Node23&#45;&gt;Node24 -->
<g id="edge35" class="edge">
<title>Node23&#45;&gt;Node24</title>
<path fill="none" stroke="midnightblue" d="M297.63,-85.84C309.88,-96.17 327.93,-113.58 337,-133 387.49,-241.09 289.21,-314.08 373,-399 462.13,-489.33 628.16,-477.35 708.95,-464.89"/>
<polygon fill="midnightblue" stroke="midnightblue" points="709.98,-468.27 719.3,-463.22 708.87,-461.36 709.98,-468.27"/>
</g>
<!-- Node23&#45;&gt;Node25 -->
<g id="edge37" class="edge">
<title>Node23&#45;&gt;Node25</title>
<path fill="none" stroke="midnightblue" d="M308.62,-85.53C317.73,-89.56 328.08,-94.57 337,-100 354.32,-110.54 355.45,-117.86 373,-128 379.65,-131.84 387.03,-135.36 394.26,-138.46"/>
<polygon fill="midnightblue" stroke="midnightblue" points="393.36,-141.87 403.94,-142.4 396,-135.39 393.36,-141.87"/>
</g>
<!-- Node25&#45;&gt;Node13 -->
<g id="edge41" class="edge">
<title>Node25&#45;&gt;Node13</title>
<path fill="none" stroke="midnightblue" d="M487.95,-152C575.14,-152 747.34,-152 847.6,-152"/>
<polygon fill="midnightblue" stroke="midnightblue" points="847.66,-155.5 857.66,-152 847.66,-148.5 847.66,-155.5"/>
</g>
<!-- Node26 -->
<g id="node26" class="node">
<title>Node26</title>
<g id="a_node26"><a xlink:href="namespacevmem_1_1pgdir.html#a18669c6fe92ff279442cecceca1263cc" target="_top" xlink:title=" ">
<polygon fill="white" stroke="black" points="537.5,-218.5 537.5,-237.5 646.5,-237.5 646.5,-218.5 537.5,-218.5"/>
<text text-anchor="middle" x="592" y="-225.5" font-family="Helvetica,sans-Serif" font-size="10.00">vmem::pgdir::findInfo</text>
</a>
</g>
</g>
<!-- Node25&#45;&gt;Node26 -->
<g id="edge38" class="edge">
<title>Node25&#45;&gt;Node26</title>
<path fill="none" stroke="midnightblue" d="M447.59,-161.61C465.53,-173.95 498.43,-195.39 529,-209 534.08,-211.26 539.5,-213.36 544.95,-215.27"/>
<polygon fill="midnightblue" stroke="midnightblue" points="544.13,-218.68 554.72,-218.5 546.33,-212.03 544.13,-218.68"/>
</g>
<!-- Node26&#45;&gt;Node9 -->
<g id="edge39" class="edge">
<title>Node26&#45;&gt;Node9</title>
<path fill="none" stroke="midnightblue" d="M646.66,-228C661.31,-228 677.31,-228 692.43,-228"/>
<polygon fill="midnightblue" stroke="midnightblue" points="692.73,-231.5 702.73,-228 692.73,-224.5 692.73,-231.5"/>
</g>
<!-- Node26&#45;&gt;Node21 -->
<g id="edge40" class="edge">
<title>Node26&#45;&gt;Node21</title>
<path fill="none" stroke="midnightblue" d="M634.01,-237.59C655.55,-242.63 682.13,-248.84 704.94,-254.18"/>
<polygon fill="midnightblue" stroke="midnightblue" points="704.25,-257.61 714.79,-256.48 705.85,-250.79 704.25,-257.61"/>
</g>
<!-- Node31 -->
<g id="node31" class="node">
<title>Node31</title>
<g id="a_node31"><a xlink:href="namespaceconsole_1_1out.html#a8f791bfac54067cadb1b9f18117b987b" target="_top" xlink:title=" ">
<polygon fill="white" stroke="black" points="231,-655.5 231,-674.5 337,-674.5 337,-655.5 231,-655.5"/>
<text text-anchor="middle" x="284" y="-662.5" font-family="Helvetica,sans-Serif" font-size="10.00">console::out::printVa</text>
</a>
</g>
</g>
<!-- Node30&#45;&gt;Node31 -->
<g id="edge51" class="edge">
<title>Node30&#45;&gt;Node31</title>
<path fill="none" stroke="midnightblue" d="M192.24,-645.58C203.81,-648.05 216.38,-650.74 228.39,-653.31"/>
<polygon fill="midnightblue" stroke="midnightblue" points="227.79,-656.76 238.3,-655.43 229.26,-649.92 227.79,-656.76"/>
</g>
<!-- Node32 -->
<g id="node32" class="node">
<title>Node32</title>
<g id="a_node32"><a xlink:href="namespaceconsole_1_1ge.html#af642934cb833142f133285fdb75ef7b7" target="_top" xlink:title=" ">
<polygon fill="white" stroke="black" points="373,-655.5 373,-674.5 493,-674.5 493,-655.5 373,-655.5"/>
<text text-anchor="middle" x="433" y="-662.5" font-family="Helvetica,sans-Serif" font-size="10.00">console::ge::printFmtVa</text>
</a>
</g>
</g>
<!-- Node31&#45;&gt;Node32 -->
<g id="edge52" class="edge">
<title>Node31&#45;&gt;Node32</title>
<path fill="none" stroke="midnightblue" d="M337.24,-665C345.54,-665 354.24,-665 362.86,-665"/>
<polygon fill="midnightblue" stroke="midnightblue" points="362.92,-668.5 372.92,-665 362.92,-661.5 362.92,-668.5"/>
</g>
<!-- Node37 -->
<g id="node37" class="node">
<title>Node37</title>
<g id="a_node37"><a xlink:href="namespaceconsole_1_1out.html#ad9fc97dff4404c2d21aedbb24691e7cb" target="_top" xlink:title=" ">
<polygon fill="white" stroke="black" points="701.5,-750.5 701.5,-769.5 811.5,-769.5 811.5,-750.5 701.5,-750.5"/>
<text text-anchor="middle" x="756.5" y="-757.5" font-family="Helvetica,sans-Serif" font-size="10.00">console::out::putChar</text>
</a>
</g>
</g>
<!-- Node31&#45;&gt;Node37 -->
<g id="edge69" class="edge">
<title>Node31&#45;&gt;Node37</title>
<path fill="none" stroke="midnightblue" d="M299.59,-674.64C336.23,-698.21 435.89,-758.32 529,-779 590.6,-792.68 663.62,-781.86 709.76,-771.8"/>
<polygon fill="midnightblue" stroke="midnightblue" points="710.76,-775.16 719.75,-769.55 709.22,-768.34 710.76,-775.16"/>
</g>
<!-- Node32&#45;&gt;Node5 -->
<g id="edge55" class="edge">
<title>Node32&#45;&gt;Node5</title>
<path fill="none" stroke="midnightblue" d="M453.1,-655.4C471.9,-646.42 501.69,-633.46 529,-627 627.31,-603.76 654.48,-608 755.5,-608 755.5,-608 755.5,-608 1101,-608 1191.24,-608 1296.55,-593.83 1351.76,-585.3"/>
<polygon fill="midnightblue" stroke="midnightblue" points="1352.45,-588.73 1361.79,-583.72 1351.37,-581.82 1352.45,-588.73"/>
</g>
<!-- Node33 -->
<g id="node33" class="node">
<title>Node33</title>
<g id="a_node33"><a xlink:href="printfmt_8cc.html#a708ec6ee2b8bd2d7a453d8d9436ed3b3" target="_top" xlink:title=" ">
<polygon fill="white" stroke="black" points="563,-674.5 563,-693.5 621,-693.5 621,-674.5 563,-674.5"/>
<text text-anchor="middle" x="592" y="-681.5" font-family="Helvetica,sans-Serif" font-size="10.00">_getIntVa</text>
</a>
</g>
</g>
<!-- Node32&#45;&gt;Node33 -->
<g id="edge53" class="edge">
<title>Node32&#45;&gt;Node33</title>
<path fill="none" stroke="midnightblue" d="M493.35,-672.18C513.24,-674.59 534.88,-677.21 552.72,-679.37"/>
<polygon fill="midnightblue" stroke="midnightblue" points="552.39,-682.85 562.74,-680.58 553.23,-675.9 552.39,-682.85"/>
</g>
<!-- Node34 -->
<g id="node34" class="node">
<title>Node34</title>
<g id="a_node34"><a xlink:href="printfmt_8cc.html#af4b46892c76c8bfd27efdb20847eb7c8" target="_top" xlink:title=" ">
<polygon fill="white" stroke="black" points="559.5,-636.5 559.5,-655.5 624.5,-655.5 624.5,-636.5 559.5,-636.5"/>
<text text-anchor="middle" x="592" y="-643.5" font-family="Helvetica,sans-Serif" font-size="10.00">_getUIntVa</text>
</a>
</g>
</g>
<!-- Node32&#45;&gt;Node34 -->
<g id="edge54" class="edge">
<title>Node32&#45;&gt;Node34</title>
<path fill="none" stroke="midnightblue" d="M493.35,-657.82C511.91,-655.57 531.98,-653.14 549.07,-651.07"/>
<polygon fill="midnightblue" stroke="midnightblue" points="549.78,-654.51 559.29,-649.84 548.94,-647.56 549.78,-654.51"/>
</g>
<!-- Node35 -->
<g id="node35" class="node">
<title>Node35</title>
<g id="a_node35"><a xlink:href="printfmt_8cc.html#a0e3e484ece5e75b9f5fbe337f0ae8ae3" target="_top" xlink:title=" ">
<polygon fill="white" stroke="black" points="565.5,-522.5 565.5,-541.5 618.5,-541.5 618.5,-522.5 565.5,-522.5"/>
<text text-anchor="middle" x="592" y="-529.5" font-family="Helvetica,sans-Serif" font-size="10.00">describe</text>
</a>
</g>
</g>
<!-- Node32&#45;&gt;Node35 -->
<g id="edge56" class="edge">
<title>Node32&#45;&gt;Node35</title>
<path fill="none" stroke="midnightblue" d="M445.29,-655.43C471.87,-632.92 538.61,-576.38 571.74,-548.32"/>
<polygon fill="midnightblue" stroke="midnightblue" points="574.02,-550.97 579.39,-541.84 569.5,-545.63 574.02,-550.97"/>
</g>
<!-- Node36 -->
<g id="node36" class="node">
<title>Node36</title>
<g id="a_node36"><a xlink:href="namespaceconsole_1_1ge.html#a7e301813fd34fde772376afc5fdad95d" target="_top" xlink:title=" ">
<polygon fill="white" stroke="black" points="529,-750.5 529,-769.5 655,-769.5 655,-750.5 529,-750.5"/>
<text text-anchor="middle" x="592" y="-757.5" font-family="Helvetica,sans-Serif" font-size="10.00">console::ge::printNumber</text>
</a>
</g>
</g>
<!-- Node32&#45;&gt;Node36 -->
<g id="edge58" class="edge">
<title>Node32&#45;&gt;Node36</title>
<path fill="none" stroke="midnightblue" d="M444.73,-674.58C461.65,-689.31 496.03,-717.75 529,-736 536.25,-740.01 544.31,-743.66 552.16,-746.84"/>
<polygon fill="midnightblue" stroke="midnightblue" points="550.96,-750.13 561.55,-750.47 553.49,-743.6 550.96,-750.13"/>
</g>
<!-- Node32&#45;&gt;Node37 -->
<g id="edge68" class="edge">
<title>Node32&#45;&gt;Node37</title>
<path fill="none" stroke="midnightblue" d="M455.58,-674.6C474.64,-682.84 503.32,-694.67 529,-703 586.5,-721.64 653.83,-737.9 700.05,-748.23"/>
<polygon fill="midnightblue" stroke="midnightblue" points="699.35,-751.66 709.87,-750.41 700.86,-744.83 699.35,-751.66"/>
</g>
<!-- Node35&#45;&gt;Node24 -->
<g id="edge57" class="edge">
<title>Node35&#45;&gt;Node24</title>
<path fill="none" stroke="midnightblue" d="M613.58,-522.37C641.91,-509.13 693.09,-485.19 725.63,-469.97"/>
<polygon fill="midnightblue" stroke="midnightblue" points="727.51,-472.95 735.09,-465.55 724.55,-466.61 727.51,-472.95"/>
</g>
<!-- Node36&#45;&gt;Node37 -->
<g id="edge59" class="edge">
<title>Node36&#45;&gt;Node37</title>
<path fill="none" stroke="midnightblue" d="M655.36,-760C667.06,-760 679.31,-760 691.07,-760"/>
<polygon fill="midnightblue" stroke="midnightblue" points="691.26,-763.5 701.26,-760 691.26,-756.5 691.26,-763.5"/>
</g>
<!-- Node38 -->
<g id="node38" class="node">
<title>Node38</title>
<g id="a_node38"><a xlink:href="namespaceconsole_1_1serial.html#a3a7c1f95ae3c24136ea63bb31fdf0391" target="_top" xlink:title=" ">
<polygon fill="white" stroke="black" points="866,-779.5 866,-798.5 986,-798.5 986,-779.5 866,-779.5"/>
<text text-anchor="middle" x="926" y="-786.5" font-family="Helvetica,sans-Serif" font-size="10.00">console::serial::putChar</text>
</a>
</g>
</g>
<!-- Node37&#45;&gt;Node38 -->
<g id="edge60" class="edge">
<title>Node37&#45;&gt;Node38</title>
<path fill="none" stroke="midnightblue" d="M811.88,-769.42C827.16,-772.06 843.94,-774.97 859.78,-777.71"/>
<polygon fill="midnightblue" stroke="midnightblue" points="859.58,-781.23 870.03,-779.48 860.77,-774.33 859.58,-781.23"/>
</g>
<!-- Node40 -->
<g id="node40" class="node">
<title>Node40</title>
<g id="a_node40"><a xlink:href="namespaceconsole_1_1cga.html#afa19057ca041b39682d5d4831c43dfa0" target="_top" xlink:title=" ">
<polygon fill="white" stroke="black" points="869.5,-741.5 869.5,-760.5 982.5,-760.5 982.5,-741.5 869.5,-741.5"/>
<text text-anchor="middle" x="926" y="-748.5" font-family="Helvetica,sans-Serif" font-size="10.00">console::cga::putChar</text>
</a>
</g>
</g>
<!-- Node37&#45;&gt;Node40 -->
<g id="edge63" class="edge">
<title>Node37&#45;&gt;Node40</title>
<path fill="none" stroke="midnightblue" d="M811.88,-757.08C827.01,-756.27 843.59,-755.37 859.29,-754.53"/>
<polygon fill="midnightblue" stroke="midnightblue" points="859.66,-758.02 869.45,-753.98 859.28,-751.03 859.66,-758.02"/>
</g>
<!-- Node39 -->
<g id="node39" class="node">
<title>Node39</title>
<g id="a_node39"><a xlink:href="namespaceconsole_1_1serial.html#aa5605d4537106bb1c2bab72d7d1a5824" target="_top" xlink:title=" ">
<polygon fill="white" stroke="black" points="1048,-779.5 1048,-798.5 1152,-798.5 1152,-779.5 1048,-779.5"/>
<text text-anchor="middle" x="1100" y="-786.5" font-family="Helvetica,sans-Serif" font-size="10.00">console::serial::sout</text>
</a>
</g>
</g>
<!-- Node38&#45;&gt;Node39 -->
<g id="edge61" class="edge">
<title>Node38&#45;&gt;Node39</title>
<path fill="none" stroke="midnightblue" d="M986.19,-789C1002.77,-789 1020.82,-789 1037.53,-789"/>
<polygon fill="midnightblue" stroke="midnightblue" points="1037.73,-792.5 1047.73,-789 1037.73,-785.5 1037.73,-792.5"/>
</g>
<!-- Node39&#45;&gt;Node19 -->
<g id="edge62" class="edge">
<title>Node39&#45;&gt;Node19</title>
<path fill="none" stroke="midnightblue" d="M1152.44,-789C1180.82,-789 1214.91,-789 1238.08,-789"/>
<polygon fill="midnightblue" stroke="midnightblue" points="1238.2,-792.5 1248.2,-789 1238.2,-785.5 1238.2,-792.5"/>
</g>
<!-- Node41 -->
<g id="node41" class="node">
<title>Node41</title>
<g id="a_node41"><a xlink:href="namespacemem.html#a64d9d05b439041901498c606de606431" target="_top" xlink:title=" ">
<polygon fill="white" stroke="black" points="1233.5,-646.5 1233.5,-665.5 1298.5,-665.5 1298.5,-646.5 1233.5,-646.5"/>
<text text-anchor="middle" x="1266" y="-653.5" font-family="Helvetica,sans-Serif" font-size="10.00">mem::copy</text>
</a>
</g>
</g>
<!-- Node40&#45;&gt;Node41 -->
<g id="edge64" class="edge">
<title>Node40&#45;&gt;Node41</title>
<path fill="none" stroke="midnightblue" d="M960.96,-741.46C1023.22,-723.96 1155.45,-686.79 1223.15,-667.76"/>
<polygon fill="midnightblue" stroke="midnightblue" points="1224.37,-671.06 1233.05,-664.98 1222.48,-664.32 1224.37,-671.06"/>
</g>
<!-- Node42 -->
<g id="node42" class="node">
<title>Node42</title>
<g id="a_node42"><a xlink:href="namespaceconsole_1_1cga.html#a06463d4dc68819e30615ba299d02a78f" target="_top" xlink:title=" ">
<polygon fill="white" stroke="black" points="1030,-741.5 1030,-760.5 1170,-760.5 1170,-741.5 1030,-741.5"/>
<text text-anchor="middle" x="1100" y="-748.5" font-family="Helvetica,sans-Serif" font-size="10.00">console::cga::cursorRefresh</text>
</a>
</g>
</g>
<!-- Node40&#45;&gt;Node42 -->
<g id="edge66" class="edge">
<title>Node40&#45;&gt;Node42</title>
<path fill="none" stroke="midnightblue" d="M982.84,-751C994.57,-751 1007.15,-751 1019.55,-751"/>
<polygon fill="midnightblue" stroke="midnightblue" points="1019.9,-754.5 1029.9,-751 1019.9,-747.5 1019.9,-754.5"/>
</g>
<!-- Node41&#45;&gt;Node5 -->
<g id="edge65" class="edge">
<title>Node41&#45;&gt;Node5</title>
<path fill="none" stroke="midnightblue" d="M1284.22,-646.49C1296.09,-639.83 1312.15,-630.63 1326,-622 1340.26,-613.11 1355.93,-602.6 1368.19,-594.2"/>
<polygon fill="midnightblue" stroke="midnightblue" points="1370.2,-597.06 1376.45,-588.5 1366.23,-591.3 1370.2,-597.06"/>
</g>
<!-- Node42&#45;&gt;Node19 -->
<g id="edge67" class="edge">
<title>Node42&#45;&gt;Node19</title>
<path fill="none" stroke="midnightblue" d="M1142.38,-760.59C1172.57,-767.58 1212.59,-776.86 1238.57,-782.87"/>
<polygon fill="midnightblue" stroke="midnightblue" points="1237.91,-786.31 1248.44,-785.16 1239.49,-779.5 1237.91,-786.31"/>
</g>
</g>
</svg>
        <g id="navigator" transform="translate(0 0)" fill="#404254">
                <rect fill="#f2f5e9" fill-opacity="0.5" stroke="#606060" stroke-width=".5" x="0" y="0" width="60" height="60"/>
                <use id="zoomplus" xlink:href="#zoomPlus" x="17" y="9" onmousedown="handleZoom(evt,'in')"/>
                <use id="zoomminus" xlink:href="#zoomMin" x="42" y="9" onmousedown="handleZoom(evt,'out')"/>
                <use id="reset" xlink:href="#resetDef" x="30" y="36" onmousedown="handleReset()"/>
                <g id="arrowUp" xlink:href="#dirArrow" transform="translate(30 24)" onmousedown="handlePan(0,-1)">
                  <use xlink:href="#rim" fill="#404040">
                        <set attributeName="fill" to="#808080" begin="arrowUp.mouseover" end="arrowUp.mouseout"/>
                  </use>
                  <path fill="none" stroke="white" stroke-width="1.5" d="M0,-3.0v7 M-2.5,-0.5L0,-3.0L2.5,-0.5"/>
                </g>
                <g id="arrowRight" xlink:href="#dirArrow" transform="rotate(90) translate(36 -43)" onmousedown="handlePan(1,0)">
                  <use xlink:href="#rim" fill="#404040">
                        <set attributeName="fill" to="#808080" begin="arrowRight.mouseover" end="arrowRight.mouseout"/>
                  </use>
                  <path fill="none" stroke="white" stroke-width="1.5" d="M0,-3.0v7 M-2.5,-0.5L0,-3.0L2.5,-0.5"/>
                </g>
                <g id="arrowDown" xlink:href="#dirArrow" transform="rotate(180) translate(-30 -48)" onmousedown="handlePan(0,1)">
                  <use xlink:href="#rim" fill="#404040">
                        <set attributeName="fill" to="#808080" begin="arrowDown.mouseover" end="arrowDown.mouseout"/>
                  </use>
                  <path fill="none" stroke="white" stroke-width="1.5" d="M0,-3.0v7 M-2.5,-0.5L0,-3.0L2.5,-0.5"/>
                </g>
                <g id="arrowLeft" xlink:href="#dirArrow" transform="rotate(270) translate(-36 17)" onmousedown="handlePan(-1,0)">
                  <use xlink:href="#rim" fill="#404040">
                        <set attributeName="fill" to="#808080" begin="arrowLeft.mouseover" end="arrowLeft.mouseout"/>
                  </use>
                  <path fill="none" stroke="white" stroke-width="1.5" d="M0,-3.0v7 M-2.5,-0.5L0,-3.0L2.5,-0.5"/>
                </g>
        </g>
        <svg viewBox="0 0 15 15" width="100%" height="30px" preserveAspectRatio="xMaxYMin meet">
         <g id="arrow_out" transform="scale(0.3 0.3)">
          <a xlink:href="namespacevmem_a4251454df96debe89195bfce18dca4d5_cgraph_org.svg" target="_base">
           <rect id="button" ry="5" rx="5" y="6" x="6" height="38" width="38"
                fill="#f2f5e9" fill-opacity="0.5" stroke="#606060" stroke-width="1.0"/>
           <path id="arrow"
             d="M 11.500037,31.436501 C 11.940474,20.09759 22.043105,11.32322 32.158766,21.979434 L 37.068811,17.246167 C 37.068811,17.246167 37.088388,32 37.088388,32 L 22.160133,31.978069 C 22.160133,31.978069 26.997745,27.140456 26.997745,27.140456 C 18.528582,18.264221 13.291696,25.230495 11.500037,31.436501 z"
             style="fill:#404040;"/>
          </a>
         </g>
        </svg>
</svg>
