<?xml version="1.0" encoding="UTF-8" standalone="no"?>
<!DOCTYPE svg PUBLIC "-//W3C//DTD SVG 1.1//EN"
 "http://www.w3.org/Graphics/SVG/1.1/DTD/svg11.dtd">
<!-- Generated by graphviz version 2.44.1 (20200629.0846)
 -->
<!-- Title: nvram::read Pages: 1 -->
<svg width="302pt" height="66pt"
 viewBox="0.00 0.00 302.00 66.00" xmlns="http://www.w3.org/2000/svg" xmlns:xlink="http://www.w3.org/1999/xlink">
<g id="graph0" class="graph" transform="scale(1 1) rotate(0) translate(4 62)">
<title>nvram::read</title>
<polygon fill="white" stroke="transparent" points="-4,4 -4,-62 298,-62 298,4 -4,4"/>
<!-- Node1 -->
<g id="node1" class="node">
<title>Node1</title>
<g id="a_node1"><a xlink:title=" ">
<polygon fill="#bfbfbf" stroke="black" points="0,-19.5 0,-38.5 68,-38.5 68,-19.5 0,-19.5"/>
<text text-anchor="middle" x="34" y="-26.5" font-family="Helvetica,sans-Serif" font-size="10.00">nvram::read</text>
</a>
</g>
</g>
<!-- Node2 -->
<g id="node2" class="node">
<title>Node2</title>
<g id="a_node2"><a xlink:href="namespacenvram.html#a15178b214d95c476ade1c8c83c918aa1" target="_top" xlink:title=" ">
<polygon fill="white" stroke="black" points="104,-19.5 104,-38.5 223,-38.5 223,-19.5 104,-19.5"/>
<text text-anchor="middle" x="163.5" y="-26.5" font-family="Helvetica,sans-Serif" font-size="10.00">nvram::mc146818_read</text>
</a>
</g>
</g>
<!-- Node1&#45;&gt;Node2 -->
<g id="edge1" class="edge">
<title>Node1&#45;&gt;Node2</title>
<path fill="none" stroke="midnightblue" d="M68.17,-29C76.1,-29 84.86,-29 93.76,-29"/>
<polygon fill="midnightblue" stroke="midnightblue" points="93.81,-32.5 103.81,-29 93.81,-25.5 93.81,-32.5"/>
</g>
<!-- Node3 -->
<g id="node3" class="node">
<title>Node3</title>
<g id="a_node3"><a xlink:href="x86_8h.html#afdc603aa210ab8fd9995ce74940f5d7f" target="_top" xlink:title=" ">
<polygon fill="white" stroke="black" points="262,-38.5 262,-57.5 291,-57.5 291,-38.5 262,-38.5"/>
<text text-anchor="middle" x="276.5" y="-45.5" font-family="Helvetica,sans-Serif" font-size="10.00">inb</text>
</a>
</g>
</g>
<!-- Node2&#45;&gt;Node3 -->
<g id="edge2" class="edge">
<title>Node2&#45;&gt;Node3</title>
<path fill="none" stroke="midnightblue" d="M220.33,-38.56C231.5,-40.47 242.66,-42.38 251.99,-43.98"/>
<polygon fill="midnightblue" stroke="midnightblue" points="251.54,-47.45 261.99,-45.69 252.72,-40.55 251.54,-47.45"/>
</g>
<!-- Node4 -->
<g id="node4" class="node">
<title>Node4</title>
<g id="a_node4"><a xlink:href="x86_8h.html#ade961b44e45ddacbc3c3b7609cf36dc6" target="_top" xlink:title=" ">
<polygon fill="white" stroke="black" points="259,-0.5 259,-19.5 294,-19.5 294,-0.5 259,-0.5"/>
<text text-anchor="middle" x="276.5" y="-7.5" font-family="Helvetica,sans-Serif" font-size="10.00">outb</text>
</a>
</g>
</g>
<!-- Node2&#45;&gt;Node4 -->
<g id="edge3" class="edge">
<title>Node2&#45;&gt;Node4</title>
<path fill="none" stroke="midnightblue" d="M220.33,-19.44C230.19,-17.75 240.05,-16.07 248.64,-14.6"/>
<polygon fill="midnightblue" stroke="midnightblue" points="249.49,-18 258.76,-12.87 248.31,-11.1 249.49,-18"/>
</g>
</g>
</svg>
