<?xml version="1.0" encoding="UTF-8" standalone="no"?>
<!DOCTYPE svg PUBLIC "-//W3C//DTD SVG 1.1//EN"
 "http://www.w3.org/Graphics/SVG/1.1/DTD/svg11.dtd">
<!-- Generated by graphviz version 2.44.1 (20200629.0846)
 -->
<!-- Title: monitor::backtrace Pages: 1 -->
<svg width="1397pt" height="233pt"
 viewBox="0.00 0.00 1397.00 232.87" xmlns="http://www.w3.org/2000/svg" xmlns:xlink="http://www.w3.org/1999/xlink">
<g id="graph0" class="graph" transform="scale(1 1) rotate(0) translate(4 228.87)">
<title>monitor::backtrace</title>
<polygon fill="white" stroke="transparent" points="-4,4 -4,-228.87 1393,-228.87 1393,4 -4,4"/>
<!-- Node1 -->
<g id="node1" class="node">
<title>Node1</title>
<g id="a_node1"><a xlink:title=" ">
<polygon fill="#bfbfbf" stroke="black" points="0,-19.5 0,-38.5 98,-38.5 98,-19.5 0,-19.5"/>
<text text-anchor="middle" x="49" y="-26.5" font-family="Helvetica,sans-Serif" font-size="10.00">monitor::backtrace</text>
</a>
</g>
</g>
<!-- Node2 -->
<g id="node2" class="node">
<title>Node2</title>
<g id="a_node2"><a xlink:href="namespacekdebug.html#a1785ee01647af6842a8908a959087362" target="_top" xlink:title=" ">
<polygon fill="white" stroke="black" points="134,-19.5 134,-38.5 231,-38.5 231,-19.5 134,-19.5"/>
<text text-anchor="middle" x="182.5" y="-26.5" font-family="Helvetica,sans-Serif" font-size="10.00">kdebug::backtrace</text>
</a>
</g>
</g>
<!-- Node1&#45;&gt;Node2 -->
<g id="edge1" class="edge">
<title>Node1&#45;&gt;Node2</title>
<path fill="none" stroke="midnightblue" d="M98.22,-29C106.45,-29 115.08,-29 123.54,-29"/>
<polygon fill="midnightblue" stroke="midnightblue" points="123.73,-32.5 133.73,-29 123.73,-25.5 123.73,-32.5"/>
</g>
<!-- Node3 -->
<g id="node3" class="node">
<title>Node3</title>
<g id="a_node3"><a xlink:href="namespaceconsole_1_1err.html#a124c7e8527c0e3fd2b9636411aea7e82" target="_top" xlink:title=" ">
<polygon fill="white" stroke="black" points="267,-38.5 267,-57.5 359,-57.5 359,-38.5 267,-38.5"/>
<text text-anchor="middle" x="313" y="-45.5" font-family="Helvetica,sans-Serif" font-size="10.00">console::err::print</text>
</a>
</g>
</g>
<!-- Node2&#45;&gt;Node3 -->
<g id="edge2" class="edge">
<title>Node2&#45;&gt;Node3</title>
<path fill="none" stroke="midnightblue" d="M231.35,-36.07C239.57,-37.29 248.17,-38.56 256.57,-39.8"/>
<polygon fill="midnightblue" stroke="midnightblue" points="256.26,-43.3 266.67,-41.3 257.29,-36.37 256.26,-43.3"/>
</g>
<!-- Node19 -->
<g id="node19" class="node">
<title>Node19</title>
<g id="a_node19"><a xlink:href="x86_8h.html#a663bfaa6d51e77d46a366f2c55767add" target="_top" xlink:title=" ">
<polygon fill="white" stroke="black" points="285,-0.5 285,-19.5 341,-19.5 341,-0.5 285,-0.5"/>
<text text-anchor="middle" x="313" y="-7.5" font-family="Helvetica,sans-Serif" font-size="10.00">read_ebp</text>
</a>
</g>
</g>
<!-- Node2&#45;&gt;Node19 -->
<g id="edge22" class="edge">
<title>Node2&#45;&gt;Node19</title>
<path fill="none" stroke="midnightblue" d="M231.35,-21.93C245.68,-19.81 261.17,-17.52 274.72,-15.51"/>
<polygon fill="midnightblue" stroke="midnightblue" points="275.26,-18.97 284.64,-14.05 274.24,-12.05 275.26,-18.97"/>
</g>
<!-- Node4 -->
<g id="node4" class="node">
<title>Node4</title>
<g id="a_node4"><a xlink:href="namespaceconsole_1_1err.html#a4cd18e4c409b5b17ecec61ce83b05fba" target="_top" xlink:title=" ">
<polygon fill="white" stroke="black" points="395,-38.5 395,-57.5 499,-57.5 499,-38.5 395,-38.5"/>
<text text-anchor="middle" x="447" y="-45.5" font-family="Helvetica,sans-Serif" font-size="10.00">console::err::printVa</text>
</a>
</g>
</g>
<!-- Node3&#45;&gt;Node4 -->
<g id="edge3" class="edge">
<title>Node3&#45;&gt;Node4</title>
<path fill="none" stroke="midnightblue" d="M359.06,-48C367.32,-48 376.08,-48 384.73,-48"/>
<polygon fill="midnightblue" stroke="midnightblue" points="384.79,-51.5 394.79,-48 384.79,-44.5 384.79,-51.5"/>
</g>
<!-- Node5 -->
<g id="node5" class="node">
<title>Node5</title>
<g id="a_node5"><a xlink:href="namespaceconsole_1_1ge.html#af642934cb833142f133285fdb75ef7b7" target="_top" xlink:title=" ">
<polygon fill="white" stroke="black" points="535,-95.5 535,-114.5 655,-114.5 655,-95.5 535,-95.5"/>
<text text-anchor="middle" x="595" y="-102.5" font-family="Helvetica,sans-Serif" font-size="10.00">console::ge::printFmtVa</text>
</a>
</g>
</g>
<!-- Node4&#45;&gt;Node5 -->
<g id="edge4" class="edge">
<title>Node4&#45;&gt;Node5</title>
<path fill="none" stroke="midnightblue" d="M472.44,-57.54C496.44,-66.91 533.26,-81.29 560.09,-91.76"/>
<polygon fill="midnightblue" stroke="midnightblue" points="558.9,-95.05 569.48,-95.43 561.44,-88.53 558.9,-95.05"/>
</g>
<!-- Node12 -->
<g id="node12" class="node">
<title>Node12</title>
<g id="a_node12"><a xlink:href="namespaceconsole_1_1out.html#ad9fc97dff4404c2d21aedbb24691e7cb" target="_top" xlink:title=" ">
<polygon fill="white" stroke="black" points="853,-38.5 853,-57.5 963,-57.5 963,-38.5 853,-38.5"/>
<text text-anchor="middle" x="908" y="-45.5" font-family="Helvetica,sans-Serif" font-size="10.00">console::out::putChar</text>
</a>
</g>
</g>
<!-- Node4&#45;&gt;Node12 -->
<g id="edge21" class="edge">
<title>Node4&#45;&gt;Node12</title>
<path fill="none" stroke="midnightblue" d="M499.13,-41.55C570.45,-33.53 703.78,-22.01 817,-32 828.49,-33.01 840.72,-34.74 852.33,-36.7"/>
<polygon fill="midnightblue" stroke="midnightblue" points="851.89,-40.17 862.34,-38.46 853.1,-33.28 851.89,-40.17"/>
</g>
<!-- Node6 -->
<g id="node6" class="node">
<title>Node6</title>
<g id="a_node6"><a xlink:href="printfmt_8cc.html#a708ec6ee2b8bd2d7a453d8d9436ed3b3" target="_top" xlink:title=" ">
<polygon fill="white" stroke="black" points="725,-171.5 725,-190.5 783,-190.5 783,-171.5 725,-171.5"/>
<text text-anchor="middle" x="754" y="-178.5" font-family="Helvetica,sans-Serif" font-size="10.00">_getIntVa</text>
</a>
</g>
</g>
<!-- Node5&#45;&gt;Node6 -->
<g id="edge5" class="edge">
<title>Node5&#45;&gt;Node6</title>
<path fill="none" stroke="midnightblue" d="M609.59,-114.61C627.53,-126.95 660.43,-148.39 691,-162 698.6,-165.39 706.99,-168.4 715.07,-170.98"/>
<polygon fill="midnightblue" stroke="midnightblue" points="714.11,-174.34 724.7,-173.9 716.14,-167.65 714.11,-174.34"/>
</g>
<!-- Node7 -->
<g id="node7" class="node">
<title>Node7</title>
<g id="a_node7"><a xlink:href="printfmt_8cc.html#af4b46892c76c8bfd27efdb20847eb7c8" target="_top" xlink:title=" ">
<polygon fill="white" stroke="black" points="721.5,-133.5 721.5,-152.5 786.5,-152.5 786.5,-133.5 721.5,-133.5"/>
<text text-anchor="middle" x="754" y="-140.5" font-family="Helvetica,sans-Serif" font-size="10.00">_getUIntVa</text>
</a>
</g>
</g>
<!-- Node5&#45;&gt;Node7 -->
<g id="edge6" class="edge">
<title>Node5&#45;&gt;Node7</title>
<path fill="none" stroke="midnightblue" d="M635.62,-114.59C658.72,-120.18 687.84,-127.23 711.3,-132.91"/>
<polygon fill="midnightblue" stroke="midnightblue" points="710.76,-136.38 721.3,-135.33 712.4,-129.57 710.76,-136.38"/>
</g>
<!-- Node8 -->
<g id="node8" class="node">
<title>Node8</title>
<g id="a_node8"><a xlink:href="namespacestr.html#a062221f630647cf300f0dd982c4ed904" target="_top" xlink:title=" ">
<polygon fill="white" stroke="black" points="1331,-128.5 1331,-147.5 1389,-147.5 1389,-128.5 1331,-128.5"/>
<text text-anchor="middle" x="1360" y="-135.5" font-family="Helvetica,sans-Serif" font-size="10.00">str::count</text>
</a>
</g>
</g>
<!-- Node5&#45;&gt;Node8 -->
<g id="edge7" class="edge">
<title>Node5&#45;&gt;Node8</title>
<path fill="none" stroke="midnightblue" d="M602.18,-114.72C615.55,-134.79 649.36,-180.57 691,-200 778.33,-240.75 810.63,-219 907,-219 907,-219 907,-219 1060,-219 1161.55,-219 1275.97,-174.93 1329.02,-151.8"/>
<polygon fill="midnightblue" stroke="midnightblue" points="1330.77,-154.86 1338.5,-147.61 1327.93,-148.46 1330.77,-154.86"/>
</g>
<!-- Node9 -->
<g id="node9" class="node">
<title>Node9</title>
<g id="a_node9"><a xlink:href="printfmt_8cc.html#a0e3e484ece5e75b9f5fbe337f0ae8ae3" target="_top" xlink:title=" ">
<polygon fill="white" stroke="black" points="727.5,-95.5 727.5,-114.5 780.5,-114.5 780.5,-95.5 727.5,-95.5"/>
<text text-anchor="middle" x="754" y="-102.5" font-family="Helvetica,sans-Serif" font-size="10.00">describe</text>
</a>
</g>
</g>
<!-- Node5&#45;&gt;Node9 -->
<g id="edge8" class="edge">
<title>Node5&#45;&gt;Node9</title>
<path fill="none" stroke="midnightblue" d="M655.35,-105C676.12,-105 698.78,-105 717.04,-105"/>
<polygon fill="midnightblue" stroke="midnightblue" points="717.24,-108.5 727.24,-105 717.24,-101.5 717.24,-108.5"/>
</g>
<!-- Node11 -->
<g id="node11" class="node">
<title>Node11</title>
<g id="a_node11"><a xlink:href="namespaceconsole_1_1ge.html#a7e301813fd34fde772376afc5fdad95d" target="_top" xlink:title=" ">
<polygon fill="white" stroke="black" points="691,-57.5 691,-76.5 817,-76.5 817,-57.5 691,-57.5"/>
<text text-anchor="middle" x="754" y="-64.5" font-family="Helvetica,sans-Serif" font-size="10.00">console::ge::printNumber</text>
</a>
</g>
</g>
<!-- Node5&#45;&gt;Node11 -->
<g id="edge10" class="edge">
<title>Node5&#45;&gt;Node11</title>
<path fill="none" stroke="midnightblue" d="M635.62,-95.41C656.34,-90.4 681.89,-84.21 703.86,-78.89"/>
<polygon fill="midnightblue" stroke="midnightblue" points="704.77,-82.27 713.67,-76.52 703.12,-75.47 704.77,-82.27"/>
</g>
<!-- Node5&#45;&gt;Node12 -->
<g id="edge20" class="edge">
<title>Node5&#45;&gt;Node12</title>
<path fill="none" stroke="midnightblue" d="M607.33,-95.36C624.22,-81.67 657.63,-57.24 691,-48 740.52,-34.28 798.9,-35.25 842.48,-39.11"/>
<polygon fill="midnightblue" stroke="midnightblue" points="842.38,-42.62 852.66,-40.09 843.05,-35.65 842.38,-42.62"/>
</g>
<!-- Node10 -->
<g id="node10" class="node">
<title>Node10</title>
<g id="a_node10"><a xlink:href="namespacemonitor.html#a318993193c866642f8389a1c1f285739" target="_top" xlink:title=" ">
<polygon fill="white" stroke="black" points="871,-95.5 871,-114.5 945,-114.5 945,-95.5 871,-95.5"/>
<text text-anchor="middle" x="908" y="-102.5" font-family="Helvetica,sans-Serif" font-size="10.00">monitor::fuck</text>
</a>
</g>
</g>
<!-- Node9&#45;&gt;Node10 -->
<g id="edge9" class="edge">
<title>Node9&#45;&gt;Node10</title>
<path fill="none" stroke="midnightblue" d="M780.78,-105C802.62,-105 834.46,-105 860.7,-105"/>
<polygon fill="midnightblue" stroke="midnightblue" points="860.82,-108.5 870.82,-105 860.82,-101.5 860.82,-108.5"/>
</g>
<!-- Node11&#45;&gt;Node12 -->
<g id="edge11" class="edge">
<title>Node11&#45;&gt;Node12</title>
<path fill="none" stroke="midnightblue" d="M817.26,-59.22C825.66,-58.17 834.28,-57.09 842.71,-56.04"/>
<polygon fill="midnightblue" stroke="midnightblue" points="843.37,-59.48 852.86,-54.77 842.51,-52.53 843.37,-59.48"/>
</g>
<!-- Node13 -->
<g id="node13" class="node">
<title>Node13</title>
<g id="a_node13"><a xlink:href="namespaceconsole_1_1serial.html#a3a7c1f95ae3c24136ea63bb31fdf0391" target="_top" xlink:title=" ">
<polygon fill="white" stroke="black" points="999,-38.5 999,-57.5 1119,-57.5 1119,-38.5 999,-38.5"/>
<text text-anchor="middle" x="1059" y="-45.5" font-family="Helvetica,sans-Serif" font-size="10.00">console::serial::putChar</text>
</a>
</g>
</g>
<!-- Node12&#45;&gt;Node13 -->
<g id="edge12" class="edge">
<title>Node12&#45;&gt;Node13</title>
<path fill="none" stroke="midnightblue" d="M963.21,-48C971.53,-48 980.2,-48 988.79,-48"/>
<polygon fill="midnightblue" stroke="midnightblue" points="988.79,-51.5 998.79,-48 988.79,-44.5 988.79,-51.5"/>
</g>
<!-- Node16 -->
<g id="node16" class="node">
<title>Node16</title>
<g id="a_node16"><a xlink:href="namespaceconsole_1_1cga.html#afa19057ca041b39682d5d4831c43dfa0" target="_top" xlink:title=" ">
<polygon fill="white" stroke="black" points="1002.5,-76.5 1002.5,-95.5 1115.5,-95.5 1115.5,-76.5 1002.5,-76.5"/>
<text text-anchor="middle" x="1059" y="-83.5" font-family="Helvetica,sans-Serif" font-size="10.00">console::cga::putChar</text>
</a>
</g>
</g>
<!-- Node12&#45;&gt;Node16 -->
<g id="edge15" class="edge">
<title>Node12&#45;&gt;Node16</title>
<path fill="none" stroke="midnightblue" d="M946.6,-57.59C966.08,-62.56 990.07,-68.68 1010.8,-73.96"/>
<polygon fill="midnightblue" stroke="midnightblue" points="1010.12,-77.4 1020.67,-76.48 1011.85,-70.62 1010.12,-77.4"/>
</g>
<!-- Node14 -->
<g id="node14" class="node">
<title>Node14</title>
<g id="a_node14"><a xlink:href="namespaceconsole_1_1serial.html#aa5605d4537106bb1c2bab72d7d1a5824" target="_top" xlink:title=" ">
<polygon fill="white" stroke="black" points="1173,-38.5 1173,-57.5 1277,-57.5 1277,-38.5 1173,-38.5"/>
<text text-anchor="middle" x="1225" y="-45.5" font-family="Helvetica,sans-Serif" font-size="10.00">console::serial::sout</text>
</a>
</g>
</g>
<!-- Node13&#45;&gt;Node14 -->
<g id="edge13" class="edge">
<title>Node13&#45;&gt;Node14</title>
<path fill="none" stroke="midnightblue" d="M1119.21,-48C1133.31,-48 1148.39,-48 1162.59,-48"/>
<polygon fill="midnightblue" stroke="midnightblue" points="1162.74,-51.5 1172.74,-48 1162.74,-44.5 1162.74,-51.5"/>
</g>
<!-- Node15 -->
<g id="node15" class="node">
<title>Node15</title>
<g id="a_node15"><a xlink:href="x86_8h.html#ade961b44e45ddacbc3c3b7609cf36dc6" target="_top" xlink:title=" ">
<polygon fill="white" stroke="black" points="1342.5,-71.5 1342.5,-90.5 1377.5,-90.5 1377.5,-71.5 1342.5,-71.5"/>
<text text-anchor="middle" x="1360" y="-78.5" font-family="Helvetica,sans-Serif" font-size="10.00">outb</text>
</a>
</g>
</g>
<!-- Node14&#45;&gt;Node15 -->
<g id="edge14" class="edge">
<title>Node14&#45;&gt;Node15</title>
<path fill="none" stroke="midnightblue" d="M1264.47,-57.54C1286.32,-62.97 1313.11,-69.61 1332.59,-74.45"/>
<polygon fill="midnightblue" stroke="midnightblue" points="1331.76,-77.85 1342.31,-76.86 1333.44,-71.05 1331.76,-77.85"/>
</g>
<!-- Node17 -->
<g id="node17" class="node">
<title>Node17</title>
<g id="a_node17"><a xlink:href="namespacemem.html#a64d9d05b439041901498c606de606431" target="_top" xlink:title=" ">
<polygon fill="white" stroke="black" points="1192.5,-119.5 1192.5,-138.5 1257.5,-138.5 1257.5,-119.5 1192.5,-119.5"/>
<text text-anchor="middle" x="1225" y="-126.5" font-family="Helvetica,sans-Serif" font-size="10.00">mem::copy</text>
</a>
</g>
</g>
<!-- Node16&#45;&gt;Node17 -->
<g id="edge16" class="edge">
<title>Node16&#45;&gt;Node17</title>
<path fill="none" stroke="midnightblue" d="M1096.4,-95.54C1121.92,-102.23 1156.08,-111.19 1182.64,-118.15"/>
<polygon fill="midnightblue" stroke="midnightblue" points="1181.85,-121.57 1192.41,-120.72 1183.62,-114.79 1181.85,-121.57"/>
</g>
<!-- Node18 -->
<g id="node18" class="node">
<title>Node18</title>
<g id="a_node18"><a xlink:href="namespaceconsole_1_1cga.html#a06463d4dc68819e30615ba299d02a78f" target="_top" xlink:title=" ">
<polygon fill="white" stroke="black" points="1155,-76.5 1155,-95.5 1295,-95.5 1295,-76.5 1155,-76.5"/>
<text text-anchor="middle" x="1225" y="-83.5" font-family="Helvetica,sans-Serif" font-size="10.00">console::cga::cursorRefresh</text>
</a>
</g>
</g>
<!-- Node16&#45;&gt;Node18 -->
<g id="edge18" class="edge">
<title>Node16&#45;&gt;Node18</title>
<path fill="none" stroke="midnightblue" d="M1115.52,-86C1124.9,-86 1134.8,-86 1144.65,-86"/>
<polygon fill="midnightblue" stroke="midnightblue" points="1144.87,-89.5 1154.87,-86 1144.87,-82.5 1144.87,-89.5"/>
</g>
<!-- Node17&#45;&gt;Node8 -->
<g id="edge17" class="edge">
<title>Node17&#45;&gt;Node8</title>
<path fill="none" stroke="midnightblue" d="M1257.52,-131.13C1276.49,-132.42 1300.77,-134.06 1320.82,-135.42"/>
<polygon fill="midnightblue" stroke="midnightblue" points="1320.66,-138.91 1330.87,-136.1 1321.13,-131.93 1320.66,-138.91"/>
</g>
<!-- Node18&#45;&gt;Node15 -->
<g id="edge19" class="edge">
<title>Node18&#45;&gt;Node15</title>
<path fill="none" stroke="midnightblue" d="M1295.23,-83.4C1308.48,-82.9 1321.59,-82.41 1332.45,-82"/>
<polygon fill="midnightblue" stroke="midnightblue" points="1332.61,-85.49 1342.47,-81.62 1332.35,-78.5 1332.61,-85.49"/>
</g>
</g>
</svg>
