<?xml version="1.0" encoding="UTF-8" standalone="no"?>
<!DOCTYPE svg PUBLIC "-//W3C//DTD SVG 1.1//EN"
 "http://www.w3.org/Graphics/SVG/1.1/DTD/svg11.dtd">
<!-- Generated by graphviz version 2.44.1 (20200629.0846)
 -->
<!-- Title: console::in::readlineVa Pages: 1 -->
<svg width="1155pt" height="269pt"
 viewBox="0.00 0.00 1155.00 269.08" xmlns="http://www.w3.org/2000/svg" xmlns:xlink="http://www.w3.org/1999/xlink">
<g id="graph0" class="graph" transform="scale(1 1) rotate(0) translate(4 265.08)">
<title>console::in::readlineVa</title>
<polygon fill="white" stroke="transparent" points="-4,4 -4,-265.08 1151,-265.08 1151,4 -4,4"/>
<!-- Node1 -->
<g id="node1" class="node">
<title>Node1</title>
<g id="a_node1"><a xlink:title=" ">
<polygon fill="#bfbfbf" stroke="black" points="0,-13.58 0,-32.58 115,-32.58 115,-13.58 0,-13.58"/>
<text text-anchor="middle" x="57.5" y="-20.58" font-family="Helvetica,sans-Serif" font-size="10.00">console::in::readlineVa</text>
</a>
</g>
</g>
<!-- Node2 -->
<g id="node2" class="node">
<title>Node2</title>
<g id="a_node2"><a xlink:href="namespaceconsole_1_1in.html#a6fc069f2bc57fda183e3b991c31ec5a7" target="_top" xlink:title=" ">
<polygon fill="white" stroke="black" points="152,-51.58 152,-70.58 256,-70.58 256,-51.58 152,-51.58"/>
<text text-anchor="middle" x="204" y="-58.58" font-family="Helvetica,sans-Serif" font-size="10.00">console::in::getChar</text>
</a>
</g>
</g>
<!-- Node1&#45;&gt;Node2 -->
<g id="edge1" class="edge">
<title>Node1&#45;&gt;Node2</title>
<path fill="none" stroke="midnightblue" d="M94.96,-32.66C113.77,-37.61 136.91,-43.7 156.95,-48.97"/>
<polygon fill="midnightblue" stroke="midnightblue" points="156.24,-52.4 166.8,-51.56 158.02,-45.63 156.24,-52.4"/>
</g>
<!-- Node3 -->
<g id="node3" class="node">
<title>Node3</title>
<g id="a_node3"><a xlink:href="namespaceconsole_1_1out.html#a8f791bfac54067cadb1b9f18117b987b" target="_top" xlink:title=" ">
<polygon fill="white" stroke="black" points="151,-13.58 151,-32.58 257,-32.58 257,-13.58 151,-13.58"/>
<text text-anchor="middle" x="204" y="-20.58" font-family="Helvetica,sans-Serif" font-size="10.00">console::out::printVa</text>
</a>
</g>
</g>
<!-- Node1&#45;&gt;Node3 -->
<g id="edge2" class="edge">
<title>Node1&#45;&gt;Node3</title>
<path fill="none" stroke="midnightblue" d="M115.2,-23.08C123.51,-23.08 132.12,-23.08 140.55,-23.08"/>
<polygon fill="midnightblue" stroke="midnightblue" points="140.71,-26.58 150.71,-23.08 140.71,-19.58 140.71,-26.58"/>
</g>
<!-- Node11 -->
<g id="node11" class="node">
<title>Node11</title>
<g id="a_node11"><a xlink:href="namespaceconsole_1_1out.html#ad9fc97dff4404c2d21aedbb24691e7cb" target="_top" xlink:title=" ">
<polygon fill="white" stroke="black" points="611,-70.58 611,-89.58 721,-89.58 721,-70.58 611,-70.58"/>
<text text-anchor="middle" x="666" y="-77.58" font-family="Helvetica,sans-Serif" font-size="10.00">console::out::putChar</text>
</a>
</g>
</g>
<!-- Node1&#45;&gt;Node11 -->
<g id="edge21" class="edge">
<title>Node1&#45;&gt;Node11</title>
<path fill="none" stroke="midnightblue" d="M96.04,-13.57C112.74,-9.8 132.73,-5.93 151,-4.08 265.64,7.58 540.8,-8.78 575,-20.08 602.48,-29.16 629.5,-49.05 646.64,-63.45"/>
<polygon fill="midnightblue" stroke="midnightblue" points="644.81,-66.49 654.66,-70.39 649.39,-61.2 644.81,-66.49"/>
</g>
<!-- Node4 -->
<g id="node4" class="node">
<title>Node4</title>
<g id="a_node4"><a xlink:href="namespaceconsole_1_1ge.html#af642934cb833142f133285fdb75ef7b7" target="_top" xlink:title=" ">
<polygon fill="white" stroke="black" points="293,-127.58 293,-146.58 413,-146.58 413,-127.58 293,-127.58"/>
<text text-anchor="middle" x="353" y="-134.58" font-family="Helvetica,sans-Serif" font-size="10.00">console::ge::printFmtVa</text>
</a>
</g>
</g>
<!-- Node3&#45;&gt;Node4 -->
<g id="edge3" class="edge">
<title>Node3&#45;&gt;Node4</title>
<path fill="none" stroke="midnightblue" d="M237.93,-32.64C244.5,-35.22 251.17,-38.35 257,-42.08 290.38,-63.37 321.26,-98.19 338.28,-119.24"/>
<polygon fill="midnightblue" stroke="midnightblue" points="335.74,-121.67 344.7,-127.34 341.23,-117.33 335.74,-121.67"/>
</g>
<!-- Node3&#45;&gt;Node11 -->
<g id="edge20" class="edge">
<title>Node3&#45;&gt;Node11</title>
<path fill="none" stroke="midnightblue" d="M257.26,-20.12C329.64,-17.29 464.03,-16.63 575,-42.08 597.18,-47.16 620.83,-57.35 638.32,-65.9"/>
<polygon fill="midnightblue" stroke="midnightblue" points="636.84,-69.08 647.35,-70.44 639.98,-62.82 636.84,-69.08"/>
</g>
<!-- Node5 -->
<g id="node5" class="node">
<title>Node5</title>
<g id="a_node5"><a xlink:href="printfmt_8cc.html#a708ec6ee2b8bd2d7a453d8d9436ed3b3" target="_top" xlink:title=" ">
<polygon fill="white" stroke="black" points="483,-51.58 483,-70.58 541,-70.58 541,-51.58 483,-51.58"/>
<text text-anchor="middle" x="512" y="-58.58" font-family="Helvetica,sans-Serif" font-size="10.00">_getIntVa</text>
</a>
</g>
</g>
<!-- Node4&#45;&gt;Node5 -->
<g id="edge4" class="edge">
<title>Node4&#45;&gt;Node5</title>
<path fill="none" stroke="midnightblue" d="M367.59,-127.47C385.53,-115.13 418.43,-93.69 449,-80.08 456.6,-76.69 464.99,-73.68 473.07,-71.1"/>
<polygon fill="midnightblue" stroke="midnightblue" points="474.14,-74.43 482.7,-68.18 472.11,-67.73 474.14,-74.43"/>
</g>
<!-- Node6 -->
<g id="node6" class="node">
<title>Node6</title>
<g id="a_node6"><a xlink:href="printfmt_8cc.html#af4b46892c76c8bfd27efdb20847eb7c8" target="_top" xlink:title=" ">
<polygon fill="white" stroke="black" points="479.5,-241.58 479.5,-260.58 544.5,-260.58 544.5,-241.58 479.5,-241.58"/>
<text text-anchor="middle" x="512" y="-248.58" font-family="Helvetica,sans-Serif" font-size="10.00">_getUIntVa</text>
</a>
</g>
</g>
<!-- Node4&#45;&gt;Node6 -->
<g id="edge5" class="edge">
<title>Node4&#45;&gt;Node6</title>
<path fill="none" stroke="midnightblue" d="M360.97,-146.69C375.3,-165.79 410.02,-208.64 449,-232.08 455.37,-235.9 462.57,-239.02 469.76,-241.54"/>
<polygon fill="midnightblue" stroke="midnightblue" points="468.88,-244.93 479.47,-244.61 470.99,-238.26 468.88,-244.93"/>
</g>
<!-- Node7 -->
<g id="node7" class="node">
<title>Node7</title>
<g id="a_node7"><a xlink:href="namespacestr.html#a062221f630647cf300f0dd982c4ed904" target="_top" xlink:title=" ">
<polygon fill="white" stroke="black" points="1089,-136.58 1089,-155.58 1147,-155.58 1147,-136.58 1089,-136.58"/>
<text text-anchor="middle" x="1118" y="-143.58" font-family="Helvetica,sans-Serif" font-size="10.00">str::count</text>
</a>
</g>
</g>
<!-- Node4&#45;&gt;Node7 -->
<g id="edge6" class="edge">
<title>Node4&#45;&gt;Node7</title>
<path fill="none" stroke="midnightblue" d="M401.99,-146.62C462.9,-157.87 571.31,-175.08 665,-175.08 665,-175.08 665,-175.08 818,-175.08 922.79,-175.08 948.94,-168.39 1053,-156.08 1061.34,-155.09 1070.25,-153.83 1078.7,-152.54"/>
<polygon fill="midnightblue" stroke="midnightblue" points="1079.37,-155.97 1088.71,-150.96 1078.28,-149.06 1079.37,-155.97"/>
</g>
<!-- Node8 -->
<g id="node8" class="node">
<title>Node8</title>
<g id="a_node8"><a xlink:href="printfmt_8cc.html#a0e3e484ece5e75b9f5fbe337f0ae8ae3" target="_top" xlink:title=" ">
<polygon fill="white" stroke="black" points="485.5,-203.58 485.5,-222.58 538.5,-222.58 538.5,-203.58 485.5,-203.58"/>
<text text-anchor="middle" x="512" y="-210.58" font-family="Helvetica,sans-Serif" font-size="10.00">describe</text>
</a>
</g>
</g>
<!-- Node4&#45;&gt;Node8 -->
<g id="edge7" class="edge">
<title>Node4&#45;&gt;Node8</title>
<path fill="none" stroke="midnightblue" d="M370.14,-146.76C388.77,-157.75 420.53,-175.84 449,-189.08 457.61,-193.08 467.09,-196.98 475.98,-200.45"/>
<polygon fill="midnightblue" stroke="midnightblue" points="474.75,-203.72 485.35,-204.01 477.25,-197.18 474.75,-203.72"/>
</g>
<!-- Node10 -->
<g id="node10" class="node">
<title>Node10</title>
<g id="a_node10"><a xlink:href="namespaceconsole_1_1ge.html#a7e301813fd34fde772376afc5fdad95d" target="_top" xlink:title=" ">
<polygon fill="white" stroke="black" points="449,-89.58 449,-108.58 575,-108.58 575,-89.58 449,-89.58"/>
<text text-anchor="middle" x="512" y="-96.58" font-family="Helvetica,sans-Serif" font-size="10.00">console::ge::printNumber</text>
</a>
</g>
</g>
<!-- Node4&#45;&gt;Node10 -->
<g id="edge9" class="edge">
<title>Node4&#45;&gt;Node10</title>
<path fill="none" stroke="midnightblue" d="M393.62,-127.49C414.34,-122.47 439.89,-116.29 461.86,-110.97"/>
<polygon fill="midnightblue" stroke="midnightblue" points="462.77,-114.35 471.67,-108.6 461.12,-107.55 462.77,-114.35"/>
</g>
<!-- Node4&#45;&gt;Node11 -->
<g id="edge19" class="edge">
<title>Node4&#45;&gt;Node11</title>
<path fill="none" stroke="midnightblue" d="M413.45,-136.99C458.41,-135.72 521.36,-131.35 575,-118.08 596.95,-112.64 620.44,-102.56 637.92,-94.15"/>
<polygon fill="midnightblue" stroke="midnightblue" points="639.55,-97.25 646.97,-89.69 636.45,-90.97 639.55,-97.25"/>
</g>
<!-- Node9 -->
<g id="node9" class="node">
<title>Node9</title>
<g id="a_node9"><a xlink:href="namespacemonitor.html#a318993193c866642f8389a1c1f285739" target="_top" xlink:title=" ">
<polygon fill="white" stroke="black" points="629,-203.58 629,-222.58 703,-222.58 703,-203.58 629,-203.58"/>
<text text-anchor="middle" x="666" y="-210.58" font-family="Helvetica,sans-Serif" font-size="10.00">monitor::fuck</text>
</a>
</g>
</g>
<!-- Node8&#45;&gt;Node9 -->
<g id="edge8" class="edge">
<title>Node8&#45;&gt;Node9</title>
<path fill="none" stroke="midnightblue" d="M538.78,-213.08C560.62,-213.08 592.46,-213.08 618.7,-213.08"/>
<polygon fill="midnightblue" stroke="midnightblue" points="618.82,-216.58 628.82,-213.08 618.82,-209.58 618.82,-216.58"/>
</g>
<!-- Node10&#45;&gt;Node11 -->
<g id="edge10" class="edge">
<title>Node10&#45;&gt;Node11</title>
<path fill="none" stroke="midnightblue" d="M575.26,-91.29C583.66,-90.24 592.28,-89.17 600.71,-88.11"/>
<polygon fill="midnightblue" stroke="midnightblue" points="601.37,-91.56 610.86,-86.84 600.51,-84.61 601.37,-91.56"/>
</g>
<!-- Node12 -->
<g id="node12" class="node">
<title>Node12</title>
<g id="a_node12"><a xlink:href="namespaceconsole_1_1serial.html#a3a7c1f95ae3c24136ea63bb31fdf0391" target="_top" xlink:title=" ">
<polygon fill="white" stroke="black" points="757,-51.58 757,-70.58 877,-70.58 877,-51.58 757,-51.58"/>
<text text-anchor="middle" x="817" y="-58.58" font-family="Helvetica,sans-Serif" font-size="10.00">console::serial::putChar</text>
</a>
</g>
</g>
<!-- Node11&#45;&gt;Node12 -->
<g id="edge11" class="edge">
<title>Node11&#45;&gt;Node12</title>
<path fill="none" stroke="midnightblue" d="M721.21,-73.16C729.53,-72.1 738.2,-71 746.79,-69.9"/>
<polygon fill="midnightblue" stroke="midnightblue" points="747.32,-73.36 756.79,-68.63 746.43,-66.42 747.32,-73.36"/>
</g>
<!-- Node15 -->
<g id="node15" class="node">
<title>Node15</title>
<g id="a_node15"><a xlink:href="namespaceconsole_1_1cga.html#afa19057ca041b39682d5d4831c43dfa0" target="_top" xlink:title=" ">
<polygon fill="white" stroke="black" points="760.5,-89.58 760.5,-108.58 873.5,-108.58 873.5,-89.58 760.5,-89.58"/>
<text text-anchor="middle" x="817" y="-96.58" font-family="Helvetica,sans-Serif" font-size="10.00">console::cga::putChar</text>
</a>
</g>
</g>
<!-- Node11&#45;&gt;Node15 -->
<g id="edge14" class="edge">
<title>Node11&#45;&gt;Node15</title>
<path fill="none" stroke="midnightblue" d="M721.21,-86.99C730.66,-88.19 740.58,-89.46 750.3,-90.7"/>
<polygon fill="midnightblue" stroke="midnightblue" points="749.96,-94.18 760.33,-91.98 750.85,-87.24 749.96,-94.18"/>
</g>
<!-- Node13 -->
<g id="node13" class="node">
<title>Node13</title>
<g id="a_node13"><a xlink:href="namespaceconsole_1_1serial.html#aa5605d4537106bb1c2bab72d7d1a5824" target="_top" xlink:title=" ">
<polygon fill="white" stroke="black" points="931,-51.58 931,-70.58 1035,-70.58 1035,-51.58 931,-51.58"/>
<text text-anchor="middle" x="983" y="-58.58" font-family="Helvetica,sans-Serif" font-size="10.00">console::serial::sout</text>
</a>
</g>
</g>
<!-- Node12&#45;&gt;Node13 -->
<g id="edge12" class="edge">
<title>Node12&#45;&gt;Node13</title>
<path fill="none" stroke="midnightblue" d="M877.21,-61.08C891.31,-61.08 906.39,-61.08 920.59,-61.08"/>
<polygon fill="midnightblue" stroke="midnightblue" points="920.74,-64.58 930.74,-61.08 920.74,-57.58 920.74,-64.58"/>
</g>
<!-- Node14 -->
<g id="node14" class="node">
<title>Node14</title>
<g id="a_node14"><a xlink:href="x86_8h.html#ade961b44e45ddacbc3c3b7609cf36dc6" target="_top" xlink:title=" ">
<polygon fill="white" stroke="black" points="1100.5,-79.58 1100.5,-98.58 1135.5,-98.58 1135.5,-79.58 1100.5,-79.58"/>
<text text-anchor="middle" x="1118" y="-86.58" font-family="Helvetica,sans-Serif" font-size="10.00">outb</text>
</a>
</g>
</g>
<!-- Node13&#45;&gt;Node14 -->
<g id="edge13" class="edge">
<title>Node13&#45;&gt;Node14</title>
<path fill="none" stroke="midnightblue" d="M1029.4,-70.63C1049.71,-74.91 1072.96,-79.8 1090.4,-83.48"/>
<polygon fill="midnightblue" stroke="midnightblue" points="1089.92,-86.95 1100.43,-85.59 1091.37,-80.1 1089.92,-86.95"/>
</g>
<!-- Node16 -->
<g id="node16" class="node">
<title>Node16</title>
<g id="a_node16"><a xlink:href="namespacemem.html#a64d9d05b439041901498c606de606431" target="_top" xlink:title=" ">
<polygon fill="white" stroke="black" points="950.5,-127.58 950.5,-146.58 1015.5,-146.58 1015.5,-127.58 950.5,-127.58"/>
<text text-anchor="middle" x="983" y="-134.58" font-family="Helvetica,sans-Serif" font-size="10.00">mem::copy</text>
</a>
</g>
</g>
<!-- Node15&#45;&gt;Node16 -->
<g id="edge15" class="edge">
<title>Node15&#45;&gt;Node16</title>
<path fill="none" stroke="midnightblue" d="M859.38,-108.66C884.24,-114.42 915.75,-121.73 940.6,-127.48"/>
<polygon fill="midnightblue" stroke="midnightblue" points="939.93,-130.92 950.46,-129.77 941.51,-124.1 939.93,-130.92"/>
</g>
<!-- Node17 -->
<g id="node17" class="node">
<title>Node17</title>
<g id="a_node17"><a xlink:href="namespaceconsole_1_1cga.html#a06463d4dc68819e30615ba299d02a78f" target="_top" xlink:title=" ">
<polygon fill="white" stroke="black" points="913,-89.58 913,-108.58 1053,-108.58 1053,-89.58 913,-89.58"/>
<text text-anchor="middle" x="983" y="-96.58" font-family="Helvetica,sans-Serif" font-size="10.00">console::cga::cursorRefresh</text>
</a>
</g>
</g>
<!-- Node15&#45;&gt;Node17 -->
<g id="edge17" class="edge">
<title>Node15&#45;&gt;Node17</title>
<path fill="none" stroke="midnightblue" d="M873.52,-99.08C882.9,-99.08 892.8,-99.08 902.65,-99.08"/>
<polygon fill="midnightblue" stroke="midnightblue" points="902.87,-102.58 912.87,-99.08 902.87,-95.58 902.87,-102.58"/>
</g>
<!-- Node16&#45;&gt;Node7 -->
<g id="edge16" class="edge">
<title>Node16&#45;&gt;Node7</title>
<path fill="none" stroke="midnightblue" d="M1015.52,-139.21C1034.49,-140.49 1058.77,-142.14 1078.82,-143.49"/>
<polygon fill="midnightblue" stroke="midnightblue" points="1078.66,-146.99 1088.87,-144.17 1079.13,-140.01 1078.66,-146.99"/>
</g>
<!-- Node17&#45;&gt;Node14 -->
<g id="edge18" class="edge">
<title>Node17&#45;&gt;Node14</title>
<path fill="none" stroke="midnightblue" d="M1053.23,-93.87C1066.48,-92.87 1079.59,-91.89 1090.45,-91.07"/>
<polygon fill="midnightblue" stroke="midnightblue" points="1090.76,-94.56 1100.47,-90.32 1090.24,-87.58 1090.76,-94.56"/>
</g>
</g>
</svg>
