<?xml version="1.0" encoding="UTF-8" standalone="no"?>
<!DOCTYPE svg PUBLIC "-//W3C//DTD SVG 1.1//EN"
 "http://www.w3.org/Graphics/SVG/1.1/DTD/svg11.dtd">
<!-- Generated by graphviz version 2.44.1 (20200629.0846)
 -->
<!-- Title: _kernelPanic Pages: 1 -->
<svg width="1372pt" height="233pt"
 viewBox="0.00 0.00 1372.00 232.87" xmlns="http://www.w3.org/2000/svg" xmlns:xlink="http://www.w3.org/1999/xlink">
<g id="graph0" class="graph" transform="scale(1 1) rotate(0) translate(4 228.87)">
<title>_kernelPanic</title>
<polygon fill="white" stroke="transparent" points="-4,4 -4,-228.87 1368,-228.87 1368,4 -4,4"/>
<!-- Node1 -->
<g id="node1" class="node">
<title>Node1</title>
<g id="a_node1"><a xlink:title=" ">
<polygon fill="#bfbfbf" stroke="black" points="0,-38.5 0,-57.5 73,-57.5 73,-38.5 0,-38.5"/>
<text text-anchor="middle" x="36.5" y="-45.5" font-family="Helvetica,sans-Serif" font-size="10.00">_kernelPanic</text>
</a>
</g>
</g>
<!-- Node2 -->
<g id="node2" class="node">
<title>Node2</title>
<g id="a_node2"><a xlink:href="namespacekdebug.html#a1785ee01647af6842a8908a959087362" target="_top" xlink:title=" ">
<polygon fill="white" stroke="black" points="109,-38.5 109,-57.5 206,-57.5 206,-38.5 109,-38.5"/>
<text text-anchor="middle" x="157.5" y="-45.5" font-family="Helvetica,sans-Serif" font-size="10.00">kdebug::backtrace</text>
</a>
</g>
</g>
<!-- Node1&#45;&gt;Node2 -->
<g id="edge1" class="edge">
<title>Node1&#45;&gt;Node2</title>
<path fill="none" stroke="midnightblue" d="M73.2,-48C81.27,-48 90.04,-48 98.76,-48"/>
<polygon fill="midnightblue" stroke="midnightblue" points="98.93,-51.5 108.93,-48 98.93,-44.5 98.93,-51.5"/>
</g>
<!-- Node3 -->
<g id="node3" class="node">
<title>Node3</title>
<g id="a_node3"><a xlink:href="namespaceconsole_1_1err.html#a124c7e8527c0e3fd2b9636411aea7e82" target="_top" xlink:title=" ">
<polygon fill="white" stroke="black" points="242,-0.5 242,-19.5 334,-19.5 334,-0.5 242,-0.5"/>
<text text-anchor="middle" x="288" y="-7.5" font-family="Helvetica,sans-Serif" font-size="10.00">console::err::print</text>
</a>
</g>
</g>
<!-- Node1&#45;&gt;Node3 -->
<g id="edge23" class="edge">
<title>Node1&#45;&gt;Node3</title>
<path fill="none" stroke="midnightblue" d="M69.3,-38.43C81.6,-35.02 95.87,-31.43 109,-29 149.75,-21.46 196.34,-16.62 231.63,-13.71"/>
<polygon fill="midnightblue" stroke="midnightblue" points="232.04,-17.19 241.73,-12.91 231.49,-10.21 232.04,-17.19"/>
</g>
<!-- Node4 -->
<g id="node4" class="node">
<title>Node4</title>
<g id="a_node4"><a xlink:href="namespaceconsole_1_1err.html#a4cd18e4c409b5b17ecec61ce83b05fba" target="_top" xlink:title=" ">
<polygon fill="white" stroke="black" points="370,-38.5 370,-57.5 474,-57.5 474,-38.5 370,-38.5"/>
<text text-anchor="middle" x="422" y="-45.5" font-family="Helvetica,sans-Serif" font-size="10.00">console::err::printVa</text>
</a>
</g>
</g>
<!-- Node1&#45;&gt;Node4 -->
<g id="edge24" class="edge">
<title>Node1&#45;&gt;Node4</title>
<path fill="none" stroke="midnightblue" d="M66.38,-57.5C79.27,-61.27 94.74,-65.14 109,-67 208.16,-79.95 234.58,-77.73 334,-67 347.72,-65.52 362.45,-62.76 375.81,-59.8"/>
<polygon fill="midnightblue" stroke="midnightblue" points="376.77,-63.17 385.73,-57.51 375.2,-56.35 376.77,-63.17"/>
</g>
<!-- Node2&#45;&gt;Node3 -->
<g id="edge2" class="edge">
<title>Node2&#45;&gt;Node3</title>
<path fill="none" stroke="midnightblue" d="M190.93,-38.41C207.21,-33.6 227.14,-27.7 244.62,-22.53"/>
<polygon fill="midnightblue" stroke="midnightblue" points="245.99,-25.78 254.58,-19.59 244,-19.07 245.99,-25.78"/>
</g>
<!-- Node19 -->
<g id="node19" class="node">
<title>Node19</title>
<g id="a_node19"><a xlink:href="x86_8h.html#a663bfaa6d51e77d46a366f2c55767add" target="_top" xlink:title=" ">
<polygon fill="white" stroke="black" points="260,-38.5 260,-57.5 316,-57.5 316,-38.5 260,-38.5"/>
<text text-anchor="middle" x="288" y="-45.5" font-family="Helvetica,sans-Serif" font-size="10.00">read_ebp</text>
</a>
</g>
</g>
<!-- Node2&#45;&gt;Node19 -->
<g id="edge22" class="edge">
<title>Node2&#45;&gt;Node19</title>
<path fill="none" stroke="midnightblue" d="M206.35,-48C220.54,-48 235.87,-48 249.32,-48"/>
<polygon fill="midnightblue" stroke="midnightblue" points="249.64,-51.5 259.64,-48 249.64,-44.5 249.64,-51.5"/>
</g>
<!-- Node3&#45;&gt;Node4 -->
<g id="edge3" class="edge">
<title>Node3&#45;&gt;Node4</title>
<path fill="none" stroke="midnightblue" d="M322.31,-19.59C339.19,-24.45 359.89,-30.41 377.97,-35.61"/>
<polygon fill="midnightblue" stroke="midnightblue" points="377.12,-39.01 387.7,-38.41 379.06,-32.28 377.12,-39.01"/>
</g>
<!-- Node5 -->
<g id="node5" class="node">
<title>Node5</title>
<g id="a_node5"><a xlink:href="namespaceconsole_1_1ge.html#af642934cb833142f133285fdb75ef7b7" target="_top" xlink:title=" ">
<polygon fill="white" stroke="black" points="510,-95.5 510,-114.5 630,-114.5 630,-95.5 510,-95.5"/>
<text text-anchor="middle" x="570" y="-102.5" font-family="Helvetica,sans-Serif" font-size="10.00">console::ge::printFmtVa</text>
</a>
</g>
</g>
<!-- Node4&#45;&gt;Node5 -->
<g id="edge4" class="edge">
<title>Node4&#45;&gt;Node5</title>
<path fill="none" stroke="midnightblue" d="M447.44,-57.54C471.44,-66.91 508.26,-81.29 535.09,-91.76"/>
<polygon fill="midnightblue" stroke="midnightblue" points="533.9,-95.05 544.48,-95.43 536.44,-88.53 533.9,-95.05"/>
</g>
<!-- Node12 -->
<g id="node12" class="node">
<title>Node12</title>
<g id="a_node12"><a xlink:href="namespaceconsole_1_1out.html#ad9fc97dff4404c2d21aedbb24691e7cb" target="_top" xlink:title=" ">
<polygon fill="white" stroke="black" points="828,-38.5 828,-57.5 938,-57.5 938,-38.5 828,-38.5"/>
<text text-anchor="middle" x="883" y="-45.5" font-family="Helvetica,sans-Serif" font-size="10.00">console::out::putChar</text>
</a>
</g>
</g>
<!-- Node4&#45;&gt;Node12 -->
<g id="edge21" class="edge">
<title>Node4&#45;&gt;Node12</title>
<path fill="none" stroke="midnightblue" d="M474.13,-41.55C545.45,-33.53 678.78,-22.01 792,-32 803.49,-33.01 815.72,-34.74 827.33,-36.7"/>
<polygon fill="midnightblue" stroke="midnightblue" points="826.89,-40.17 837.34,-38.46 828.1,-33.28 826.89,-40.17"/>
</g>
<!-- Node6 -->
<g id="node6" class="node">
<title>Node6</title>
<g id="a_node6"><a xlink:href="printfmt_8cc.html#a708ec6ee2b8bd2d7a453d8d9436ed3b3" target="_top" xlink:title=" ">
<polygon fill="white" stroke="black" points="700,-171.5 700,-190.5 758,-190.5 758,-171.5 700,-171.5"/>
<text text-anchor="middle" x="729" y="-178.5" font-family="Helvetica,sans-Serif" font-size="10.00">_getIntVa</text>
</a>
</g>
</g>
<!-- Node5&#45;&gt;Node6 -->
<g id="edge5" class="edge">
<title>Node5&#45;&gt;Node6</title>
<path fill="none" stroke="midnightblue" d="M584.59,-114.61C602.53,-126.95 635.43,-148.39 666,-162 673.6,-165.39 681.99,-168.4 690.07,-170.98"/>
<polygon fill="midnightblue" stroke="midnightblue" points="689.11,-174.34 699.7,-173.9 691.14,-167.65 689.11,-174.34"/>
</g>
<!-- Node7 -->
<g id="node7" class="node">
<title>Node7</title>
<g id="a_node7"><a xlink:href="printfmt_8cc.html#af4b46892c76c8bfd27efdb20847eb7c8" target="_top" xlink:title=" ">
<polygon fill="white" stroke="black" points="696.5,-133.5 696.5,-152.5 761.5,-152.5 761.5,-133.5 696.5,-133.5"/>
<text text-anchor="middle" x="729" y="-140.5" font-family="Helvetica,sans-Serif" font-size="10.00">_getUIntVa</text>
</a>
</g>
</g>
<!-- Node5&#45;&gt;Node7 -->
<g id="edge6" class="edge">
<title>Node5&#45;&gt;Node7</title>
<path fill="none" stroke="midnightblue" d="M610.62,-114.59C633.72,-120.18 662.84,-127.23 686.3,-132.91"/>
<polygon fill="midnightblue" stroke="midnightblue" points="685.76,-136.38 696.3,-135.33 687.4,-129.57 685.76,-136.38"/>
</g>
<!-- Node8 -->
<g id="node8" class="node">
<title>Node8</title>
<g id="a_node8"><a xlink:href="namespacestr.html#a062221f630647cf300f0dd982c4ed904" target="_top" xlink:title=" ">
<polygon fill="white" stroke="black" points="1306,-128.5 1306,-147.5 1364,-147.5 1364,-128.5 1306,-128.5"/>
<text text-anchor="middle" x="1335" y="-135.5" font-family="Helvetica,sans-Serif" font-size="10.00">str::count</text>
</a>
</g>
</g>
<!-- Node5&#45;&gt;Node8 -->
<g id="edge7" class="edge">
<title>Node5&#45;&gt;Node8</title>
<path fill="none" stroke="midnightblue" d="M577.18,-114.72C590.55,-134.79 624.36,-180.57 666,-200 753.33,-240.75 785.63,-219 882,-219 882,-219 882,-219 1035,-219 1136.55,-219 1250.97,-174.93 1304.02,-151.8"/>
<polygon fill="midnightblue" stroke="midnightblue" points="1305.77,-154.86 1313.5,-147.61 1302.93,-148.46 1305.77,-154.86"/>
</g>
<!-- Node9 -->
<g id="node9" class="node">
<title>Node9</title>
<g id="a_node9"><a xlink:href="printfmt_8cc.html#a0e3e484ece5e75b9f5fbe337f0ae8ae3" target="_top" xlink:title=" ">
<polygon fill="white" stroke="black" points="702.5,-95.5 702.5,-114.5 755.5,-114.5 755.5,-95.5 702.5,-95.5"/>
<text text-anchor="middle" x="729" y="-102.5" font-family="Helvetica,sans-Serif" font-size="10.00">describe</text>
</a>
</g>
</g>
<!-- Node5&#45;&gt;Node9 -->
<g id="edge8" class="edge">
<title>Node5&#45;&gt;Node9</title>
<path fill="none" stroke="midnightblue" d="M630.35,-105C651.12,-105 673.78,-105 692.04,-105"/>
<polygon fill="midnightblue" stroke="midnightblue" points="692.24,-108.5 702.24,-105 692.24,-101.5 692.24,-108.5"/>
</g>
<!-- Node11 -->
<g id="node11" class="node">
<title>Node11</title>
<g id="a_node11"><a xlink:href="namespaceconsole_1_1ge.html#a7e301813fd34fde772376afc5fdad95d" target="_top" xlink:title=" ">
<polygon fill="white" stroke="black" points="666,-57.5 666,-76.5 792,-76.5 792,-57.5 666,-57.5"/>
<text text-anchor="middle" x="729" y="-64.5" font-family="Helvetica,sans-Serif" font-size="10.00">console::ge::printNumber</text>
</a>
</g>
</g>
<!-- Node5&#45;&gt;Node11 -->
<g id="edge10" class="edge">
<title>Node5&#45;&gt;Node11</title>
<path fill="none" stroke="midnightblue" d="M610.62,-95.41C631.34,-90.4 656.89,-84.21 678.86,-78.89"/>
<polygon fill="midnightblue" stroke="midnightblue" points="679.77,-82.27 688.67,-76.52 678.12,-75.47 679.77,-82.27"/>
</g>
<!-- Node5&#45;&gt;Node12 -->
<g id="edge20" class="edge">
<title>Node5&#45;&gt;Node12</title>
<path fill="none" stroke="midnightblue" d="M582.33,-95.36C599.22,-81.67 632.63,-57.24 666,-48 715.52,-34.28 773.9,-35.25 817.48,-39.11"/>
<polygon fill="midnightblue" stroke="midnightblue" points="817.38,-42.62 827.66,-40.09 818.05,-35.65 817.38,-42.62"/>
</g>
<!-- Node10 -->
<g id="node10" class="node">
<title>Node10</title>
<g id="a_node10"><a xlink:href="namespacemonitor.html#a318993193c866642f8389a1c1f285739" target="_top" xlink:title=" ">
<polygon fill="white" stroke="black" points="846,-95.5 846,-114.5 920,-114.5 920,-95.5 846,-95.5"/>
<text text-anchor="middle" x="883" y="-102.5" font-family="Helvetica,sans-Serif" font-size="10.00">monitor::fuck</text>
</a>
</g>
</g>
<!-- Node9&#45;&gt;Node10 -->
<g id="edge9" class="edge">
<title>Node9&#45;&gt;Node10</title>
<path fill="none" stroke="midnightblue" d="M755.78,-105C777.62,-105 809.46,-105 835.7,-105"/>
<polygon fill="midnightblue" stroke="midnightblue" points="835.82,-108.5 845.82,-105 835.82,-101.5 835.82,-108.5"/>
</g>
<!-- Node11&#45;&gt;Node12 -->
<g id="edge11" class="edge">
<title>Node11&#45;&gt;Node12</title>
<path fill="none" stroke="midnightblue" d="M792.26,-59.22C800.66,-58.17 809.28,-57.09 817.71,-56.04"/>
<polygon fill="midnightblue" stroke="midnightblue" points="818.37,-59.48 827.86,-54.77 817.51,-52.53 818.37,-59.48"/>
</g>
<!-- Node13 -->
<g id="node13" class="node">
<title>Node13</title>
<g id="a_node13"><a xlink:href="namespaceconsole_1_1serial.html#a3a7c1f95ae3c24136ea63bb31fdf0391" target="_top" xlink:title=" ">
<polygon fill="white" stroke="black" points="974,-38.5 974,-57.5 1094,-57.5 1094,-38.5 974,-38.5"/>
<text text-anchor="middle" x="1034" y="-45.5" font-family="Helvetica,sans-Serif" font-size="10.00">console::serial::putChar</text>
</a>
</g>
</g>
<!-- Node12&#45;&gt;Node13 -->
<g id="edge12" class="edge">
<title>Node12&#45;&gt;Node13</title>
<path fill="none" stroke="midnightblue" d="M938.21,-48C946.53,-48 955.2,-48 963.79,-48"/>
<polygon fill="midnightblue" stroke="midnightblue" points="963.79,-51.5 973.79,-48 963.79,-44.5 963.79,-51.5"/>
</g>
<!-- Node16 -->
<g id="node16" class="node">
<title>Node16</title>
<g id="a_node16"><a xlink:href="namespaceconsole_1_1cga.html#afa19057ca041b39682d5d4831c43dfa0" target="_top" xlink:title=" ">
<polygon fill="white" stroke="black" points="977.5,-76.5 977.5,-95.5 1090.5,-95.5 1090.5,-76.5 977.5,-76.5"/>
<text text-anchor="middle" x="1034" y="-83.5" font-family="Helvetica,sans-Serif" font-size="10.00">console::cga::putChar</text>
</a>
</g>
</g>
<!-- Node12&#45;&gt;Node16 -->
<g id="edge15" class="edge">
<title>Node12&#45;&gt;Node16</title>
<path fill="none" stroke="midnightblue" d="M921.6,-57.59C941.08,-62.56 965.07,-68.68 985.8,-73.96"/>
<polygon fill="midnightblue" stroke="midnightblue" points="985.12,-77.4 995.67,-76.48 986.85,-70.62 985.12,-77.4"/>
</g>
<!-- Node14 -->
<g id="node14" class="node">
<title>Node14</title>
<g id="a_node14"><a xlink:href="namespaceconsole_1_1serial.html#aa5605d4537106bb1c2bab72d7d1a5824" target="_top" xlink:title=" ">
<polygon fill="white" stroke="black" points="1148,-38.5 1148,-57.5 1252,-57.5 1252,-38.5 1148,-38.5"/>
<text text-anchor="middle" x="1200" y="-45.5" font-family="Helvetica,sans-Serif" font-size="10.00">console::serial::sout</text>
</a>
</g>
</g>
<!-- Node13&#45;&gt;Node14 -->
<g id="edge13" class="edge">
<title>Node13&#45;&gt;Node14</title>
<path fill="none" stroke="midnightblue" d="M1094.21,-48C1108.31,-48 1123.39,-48 1137.59,-48"/>
<polygon fill="midnightblue" stroke="midnightblue" points="1137.74,-51.5 1147.74,-48 1137.74,-44.5 1137.74,-51.5"/>
</g>
<!-- Node15 -->
<g id="node15" class="node">
<title>Node15</title>
<g id="a_node15"><a xlink:href="x86_8h.html#ade961b44e45ddacbc3c3b7609cf36dc6" target="_top" xlink:title=" ">
<polygon fill="white" stroke="black" points="1317.5,-71.5 1317.5,-90.5 1352.5,-90.5 1352.5,-71.5 1317.5,-71.5"/>
<text text-anchor="middle" x="1335" y="-78.5" font-family="Helvetica,sans-Serif" font-size="10.00">outb</text>
</a>
</g>
</g>
<!-- Node14&#45;&gt;Node15 -->
<g id="edge14" class="edge">
<title>Node14&#45;&gt;Node15</title>
<path fill="none" stroke="midnightblue" d="M1239.47,-57.54C1261.32,-62.97 1288.11,-69.61 1307.59,-74.45"/>
<polygon fill="midnightblue" stroke="midnightblue" points="1306.76,-77.85 1317.31,-76.86 1308.44,-71.05 1306.76,-77.85"/>
</g>
<!-- Node17 -->
<g id="node17" class="node">
<title>Node17</title>
<g id="a_node17"><a xlink:href="namespacemem.html#a64d9d05b439041901498c606de606431" target="_top" xlink:title=" ">
<polygon fill="white" stroke="black" points="1167.5,-119.5 1167.5,-138.5 1232.5,-138.5 1232.5,-119.5 1167.5,-119.5"/>
<text text-anchor="middle" x="1200" y="-126.5" font-family="Helvetica,sans-Serif" font-size="10.00">mem::copy</text>
</a>
</g>
</g>
<!-- Node16&#45;&gt;Node17 -->
<g id="edge16" class="edge">
<title>Node16&#45;&gt;Node17</title>
<path fill="none" stroke="midnightblue" d="M1071.4,-95.54C1096.92,-102.23 1131.08,-111.19 1157.64,-118.15"/>
<polygon fill="midnightblue" stroke="midnightblue" points="1156.85,-121.57 1167.41,-120.72 1158.62,-114.79 1156.85,-121.57"/>
</g>
<!-- Node18 -->
<g id="node18" class="node">
<title>Node18</title>
<g id="a_node18"><a xlink:href="namespaceconsole_1_1cga.html#a06463d4dc68819e30615ba299d02a78f" target="_top" xlink:title=" ">
<polygon fill="white" stroke="black" points="1130,-76.5 1130,-95.5 1270,-95.5 1270,-76.5 1130,-76.5"/>
<text text-anchor="middle" x="1200" y="-83.5" font-family="Helvetica,sans-Serif" font-size="10.00">console::cga::cursorRefresh</text>
</a>
</g>
</g>
<!-- Node16&#45;&gt;Node18 -->
<g id="edge18" class="edge">
<title>Node16&#45;&gt;Node18</title>
<path fill="none" stroke="midnightblue" d="M1090.52,-86C1099.9,-86 1109.8,-86 1119.65,-86"/>
<polygon fill="midnightblue" stroke="midnightblue" points="1119.87,-89.5 1129.87,-86 1119.87,-82.5 1119.87,-89.5"/>
</g>
<!-- Node17&#45;&gt;Node8 -->
<g id="edge17" class="edge">
<title>Node17&#45;&gt;Node8</title>
<path fill="none" stroke="midnightblue" d="M1232.52,-131.13C1251.49,-132.42 1275.77,-134.06 1295.82,-135.42"/>
<polygon fill="midnightblue" stroke="midnightblue" points="1295.66,-138.91 1305.87,-136.1 1296.13,-131.93 1295.66,-138.91"/>
</g>
<!-- Node18&#45;&gt;Node15 -->
<g id="edge19" class="edge">
<title>Node18&#45;&gt;Node15</title>
<path fill="none" stroke="midnightblue" d="M1270.23,-83.4C1283.48,-82.9 1296.59,-82.41 1307.45,-82"/>
<polygon fill="midnightblue" stroke="midnightblue" points="1307.61,-85.49 1317.47,-81.62 1307.35,-78.5 1307.61,-85.49"/>
</g>
</g>
</svg>
