<?xml version="1.0" encoding="UTF-8" standalone="no"?>
<!DOCTYPE svg PUBLIC "-//W3C//DTD SVG 1.1//EN"
 "http://www.w3.org/Graphics/SVG/1.1/DTD/svg11.dtd">
<!-- Generated by graphviz version 2.44.1 (20200629.0846)
 -->
<!-- Title: panic.hh Pages: 1 -->
<!--zoomable 252 -->
<svg id="main" version="1.1" xmlns="http://www.w3.org/2000/svg" xmlns:xlink="http://www.w3.org/1999/xlink" xml:space="preserve" onload="init(evt)">
<style type="text/css"><![CDATA[
.edge:hover path { stroke: red; }
.edge:hover polygon { stroke: red; fill: red; }
]]></style>
<script type="text/javascript"><![CDATA[
var edges = document.getElementsByTagName('g');
if (edges && edges.length) {
  for (var i=0;i<edges.length;i++) {
    if (edges[i].id.substr(0,4)=='edge') {
      edges[i].setAttribute('class','edge');
    }
  }
}
]]></script>
        <defs>
                <circle id="rim" cx="0" cy="0" r="7"/>
                <circle id="rim2" cx="0" cy="0" r="3.5"/>
                <g id="zoomPlus">
                        <use xlink:href="#rim" fill="#404040">
                                <set attributeName="fill" to="#808080" begin="zoomplus.mouseover" end="zoomplus.mouseout"/>
                        </use>
                        <path d="M-4,0h8M0,-4v8" fill="none" stroke="white" stroke-width="1.5" pointer-events="none"/>
                </g>
                <g id="zoomMin">
                        <use xlink:href="#rim" fill="#404040">
                                <set attributeName="fill" to="#808080" begin="zoomminus.mouseover" end="zoomminus.mouseout"/>
                        </use>
                        <path d="M-4,0h8" fill="none" stroke="white" stroke-width="1.5" pointer-events="none"/>
                </g>
                <g id="dirArrow">
                        <path fill="none" stroke="white" stroke-width="1.5" d="M0,-3.0v7 M-2.5,-0.5L0,-3.0L2.5,-0.5"/>
                </g>
               <g id="resetDef">
                       <use xlink:href="#rim2" fill="#404040">
                               <set attributeName="fill" to="#808080" begin="reset.mouseover" end="reset.mouseout"/>
                       </use>
               </g>
        </defs>

<script type="text/javascript">
var viewWidth = 533;
var viewHeight = 252;
var sectionId = 'dynsection-1';
</script>
<script xlink:href="svgpan.js"/>
<svg id="graph" class="graph">
<g id="viewport">
<title>panic.hh</title>
<polygon fill="white" stroke="transparent" points="-4,4 -4,-248 529,-248 529,4 -4,4"/>
<!-- Node1 -->
<g id="node1" class="node">
<title>Node1</title>
<g id="a_node1"><a xlink:title=" ">
<polygon fill="#bfbfbf" stroke="black" points="170.55,-224.5 170.55,-243.5 223.55,-243.5 223.55,-224.5 170.55,-224.5"/>
<text text-anchor="middle" x="197.05" y="-231.5" font-family="Helvetica,sans-Serif" font-size="10.00">panic.hh</text>
</a>
</g>
</g>
<!-- Node2 -->
<g id="node2" class="node">
<title>Node2</title>
<g id="a_node2"><a xlink:href="init_8cc.html" target="_top" xlink:title=" ">
<polygon fill="white" stroke="black" points="74.55,-0.5 74.55,-19.5 117.55,-19.5 117.55,-0.5 74.55,-0.5"/>
<text text-anchor="middle" x="96.05" y="-7.5" font-family="Helvetica,sans-Serif" font-size="10.00">init.cc</text>
</a>
</g>
</g>
<!-- Node1&#45;&gt;Node2 -->
<g id="edge1" class="edge">
<title>Node1&#45;&gt;Node2</title>
<path fill="none" stroke="midnightblue" d="M160.62,-223.98C137.33,-216.92 107.4,-205.36 85.05,-188 36.33,-150.15 22.22,-134.64 3.05,-76 0.29,-67.55 -1.67,-63.53 3.05,-56 18.58,-31.23 52.04,-19.76 74.3,-14.69"/>
<polygon fill="midnightblue" stroke="midnightblue" points="159.91,-227.41 170.49,-226.82 161.84,-220.69 159.91,-227.41"/>
</g>
<!-- Node3 -->
<g id="node3" class="node">
<title>Node3</title>
<g id="a_node3"><a xlink:href="panic_8cc.html" target="_top" xlink:title=" ">
<polygon fill="white" stroke="black" points="198.55,-168.5 198.55,-187.5 251.55,-187.5 251.55,-168.5 198.55,-168.5"/>
<text text-anchor="middle" x="225.05" y="-175.5" font-family="Helvetica,sans-Serif" font-size="10.00">panic.cc</text>
</a>
</g>
</g>
<!-- Node1&#45;&gt;Node3 -->
<g id="edge2" class="edge">
<title>Node1&#45;&gt;Node3</title>
<path fill="none" stroke="midnightblue" d="M206.39,-214.98C211.15,-205.82 216.71,-195.09 220.51,-187.75"/>
<polygon fill="midnightblue" stroke="midnightblue" points="203.17,-213.59 201.68,-224.08 209.39,-216.82 203.17,-213.59"/>
</g>
<!-- Node4 -->
<g id="node4" class="node">
<title>Node4</title>
<g id="a_node4"><a xlink:href="kernel_2readline_8cc.html" target="_top" xlink:title=" ">
<polygon fill="white" stroke="black" points="270.05,-168.5 270.05,-187.5 334.05,-187.5 334.05,-168.5 270.05,-168.5"/>
<text text-anchor="middle" x="302.05" y="-175.5" font-family="Helvetica,sans-Serif" font-size="10.00">readline.cc</text>
</a>
</g>
</g>
<!-- Node1&#45;&gt;Node4 -->
<g id="edge3" class="edge">
<title>Node1&#45;&gt;Node4</title>
<path fill="none" stroke="midnightblue" d="M222.86,-219.73C242.3,-209.73 268.4,-196.31 285.22,-187.65"/>
<polygon fill="midnightblue" stroke="midnightblue" points="221.21,-216.64 213.92,-224.32 224.42,-222.86 221.21,-216.64"/>
</g>
<!-- Node5 -->
<g id="node5" class="node">
<title>Node5</title>
<g id="a_node5"><a xlink:href="kernel_2printf_8cc.html" target="_top" xlink:title=" ">
<polygon fill="white" stroke="black" points="352.05,-168.5 352.05,-187.5 404.05,-187.5 404.05,-168.5 352.05,-168.5"/>
<text text-anchor="middle" x="378.05" y="-175.5" font-family="Helvetica,sans-Serif" font-size="10.00">printf.cc</text>
</a>
</g>
</g>
<!-- Node1&#45;&gt;Node5 -->
<g id="edge4" class="edge">
<title>Node1&#45;&gt;Node5</title>
<path fill="none" stroke="midnightblue" d="M233.61,-222.09C268.66,-211.64 320.71,-196.11 351.82,-186.83"/>
<polygon fill="midnightblue" stroke="midnightblue" points="232.34,-218.82 223.76,-225.03 234.34,-225.53 232.34,-218.82"/>
</g>
<!-- Node6 -->
<g id="node6" class="node">
<title>Node6</title>
<g id="a_node6"><a xlink:href="kernel_2trap_8hh.html" target="_top" xlink:title=" ">
<polygon fill="white" stroke="black" points="94.55,-168.5 94.55,-187.5 141.55,-187.5 141.55,-168.5 94.55,-168.5"/>
<text text-anchor="middle" x="118.05" y="-175.5" font-family="Helvetica,sans-Serif" font-size="10.00">trap.hh</text>
</a>
</g>
</g>
<!-- Node1&#45;&gt;Node6 -->
<g id="edge5" class="edge">
<title>Node1&#45;&gt;Node6</title>
<path fill="none" stroke="midnightblue" d="M176.02,-218.62C161.59,-208.76 142.91,-195.99 130.71,-187.65"/>
<polygon fill="midnightblue" stroke="midnightblue" points="174.13,-221.57 184.36,-224.32 178.08,-215.79 174.13,-221.57"/>
</g>
<!-- Node16 -->
<g id="node16" class="node">
<title>Node16</title>
<g id="a_node16"><a xlink:href="vmem_8hh.html" target="_top" xlink:title=" ">
<polygon fill="white" stroke="black" points="338.55,-112.5 338.55,-131.5 395.55,-131.5 395.55,-112.5 338.55,-112.5"/>
<text text-anchor="middle" x="367.05" y="-119.5" font-family="Helvetica,sans-Serif" font-size="10.00">vmem.hh</text>
</a>
</g>
</g>
<!-- Node1&#45;&gt;Node16 -->
<g id="edge22" class="edge">
<title>Node1&#45;&gt;Node16</title>
<path fill="none" stroke="midnightblue" d="M188.72,-214.74C183.62,-200.55 179.84,-181.14 190.05,-168 208.1,-144.78 292.93,-131.59 338.28,-126.08"/>
<polygon fill="midnightblue" stroke="midnightblue" points="185.63,-216.45 192.66,-224.38 192.11,-213.8 185.63,-216.45"/>
</g>
<!-- Node7 -->
<g id="node7" class="node">
<title>Node7</title>
<g id="a_node7"><a xlink:href="monitor_8hh.html" target="_top" xlink:title=" ">
<polygon fill="white" stroke="black" points="87.05,-112.5 87.05,-131.5 149.05,-131.5 149.05,-112.5 87.05,-112.5"/>
<text text-anchor="middle" x="118.05" y="-119.5" font-family="Helvetica,sans-Serif" font-size="10.00">monitor.hh</text>
</a>
</g>
</g>
<!-- Node6&#45;&gt;Node7 -->
<g id="edge6" class="edge">
<title>Node6&#45;&gt;Node7</title>
<path fill="none" stroke="midnightblue" d="M118.05,-157.8C118.05,-148.91 118.05,-138.78 118.05,-131.75"/>
<polygon fill="midnightblue" stroke="midnightblue" points="114.55,-158.08 118.05,-168.08 121.55,-158.08 114.55,-158.08"/>
</g>
<!-- Node10 -->
<g id="node10" class="node">
<title>Node10</title>
<g id="a_node10"><a xlink:href="trap_8cc.html" target="_top" xlink:title=" ">
<polygon fill="white" stroke="black" points="20.55,-56.5 20.55,-75.5 67.55,-75.5 67.55,-56.5 20.55,-56.5"/>
<text text-anchor="middle" x="44.05" y="-63.5" font-family="Helvetica,sans-Serif" font-size="10.00">trap.cc</text>
</a>
</g>
</g>
<!-- Node6&#45;&gt;Node10 -->
<g id="edge21" class="edge">
<title>Node6&#45;&gt;Node10</title>
<path fill="none" stroke="midnightblue" d="M101.92,-160.82C94.18,-152.59 85.09,-142.19 78.05,-132 65.03,-113.14 53.51,-88.66 47.82,-75.8"/>
<polygon fill="midnightblue" stroke="midnightblue" points="99.62,-163.47 109.08,-168.24 104.65,-158.61 99.62,-163.47"/>
</g>
<!-- Node11 -->
<g id="node11" class="node">
<title>Node11</title>
<g id="a_node11"><a xlink:href="kernel_2task_8hh.html" target="_top" xlink:title=" ">
<polygon fill="white" stroke="black" points="187.55,-112.5 187.55,-131.5 236.55,-131.5 236.55,-112.5 187.55,-112.5"/>
<text text-anchor="middle" x="212.05" y="-119.5" font-family="Helvetica,sans-Serif" font-size="10.00">task.hh</text>
</a>
</g>
</g>
<!-- Node6&#45;&gt;Node11 -->
<g id="edge11" class="edge">
<title>Node6&#45;&gt;Node11</title>
<path fill="none" stroke="midnightblue" d="M142.11,-163.18C159.41,-153.24 182.2,-140.15 196.99,-131.65"/>
<polygon fill="midnightblue" stroke="midnightblue" points="140.08,-160.31 133.15,-168.32 143.57,-166.38 140.08,-160.31"/>
</g>
<!-- Node7&#45;&gt;Node2 -->
<g id="edge7" class="edge">
<title>Node7&#45;&gt;Node2</title>
<path fill="none" stroke="midnightblue" d="M77.01,-115.05C53.44,-109.3 25.69,-98.03 11.05,-76 -7.71,-47.76 43.48,-26.75 74.42,-17.01"/>
<polygon fill="midnightblue" stroke="midnightblue" points="76.29,-118.48 86.81,-117.19 77.79,-111.64 76.29,-118.48"/>
</g>
<!-- Node8 -->
<g id="node8" class="node">
<title>Node8</title>
<g id="a_node8"><a xlink:href="monitor_8cc.html" target="_top" xlink:title=" ">
<polygon fill="white" stroke="black" points="186.05,-56.5 186.05,-75.5 248.05,-75.5 248.05,-56.5 186.05,-56.5"/>
<text text-anchor="middle" x="217.05" y="-63.5" font-family="Helvetica,sans-Serif" font-size="10.00">monitor.cc</text>
</a>
</g>
</g>
<!-- Node7&#45;&gt;Node8 -->
<g id="edge8" class="edge">
<title>Node7&#45;&gt;Node8</title>
<path fill="none" stroke="midnightblue" d="M142.89,-107.45C161.17,-97.48 185.47,-84.23 201.19,-75.65"/>
<polygon fill="midnightblue" stroke="midnightblue" points="141.06,-104.46 133.96,-112.32 144.41,-110.61 141.06,-104.46"/>
</g>
<!-- Node9 -->
<g id="node9" class="node">
<title>Node9</title>
<g id="a_node9"><a xlink:href="task_8cc.html" target="_top" xlink:title=" ">
<polygon fill="white" stroke="black" points="266.55,-56.5 266.55,-75.5 315.55,-75.5 315.55,-56.5 266.55,-56.5"/>
<text text-anchor="middle" x="291.05" y="-63.5" font-family="Helvetica,sans-Serif" font-size="10.00">task.cc</text>
</a>
</g>
</g>
<!-- Node7&#45;&gt;Node9 -->
<g id="edge9" class="edge">
<title>Node7&#45;&gt;Node9</title>
<path fill="none" stroke="midnightblue" d="M155.37,-109.35C188.93,-98.88 237.28,-83.78 266.29,-74.73"/>
<polygon fill="midnightblue" stroke="midnightblue" points="153.97,-106.12 145.46,-112.44 156.05,-112.8 153.97,-106.12"/>
</g>
<!-- Node7&#45;&gt;Node10 -->
<g id="edge10" class="edge">
<title>Node7&#45;&gt;Node10</title>
<path fill="none" stroke="midnightblue" d="M98.02,-106.38C84.64,-96.62 67.49,-84.11 56.16,-75.83"/>
<polygon fill="midnightblue" stroke="midnightblue" points="96.02,-109.26 106.16,-112.32 100.15,-103.6 96.02,-109.26"/>
</g>
<!-- Node11&#45;&gt;Node2 -->
<g id="edge12" class="edge">
<title>Node11&#45;&gt;Node2</title>
<path fill="none" stroke="midnightblue" d="M177.64,-112.81C156.78,-106.17 131.18,-94.75 115.05,-76 100.94,-59.6 97.3,-33.2 96.37,-19.64"/>
<polygon fill="midnightblue" stroke="midnightblue" points="176.85,-116.23 187.43,-115.7 178.83,-109.51 176.85,-116.23"/>
</g>
<!-- Node11&#45;&gt;Node8 -->
<g id="edge17" class="edge">
<title>Node11&#45;&gt;Node8</title>
<path fill="none" stroke="midnightblue" d="M213.8,-102.1C214.63,-93.14 215.58,-82.86 216.24,-75.75"/>
<polygon fill="midnightblue" stroke="midnightblue" points="210.31,-101.8 212.88,-112.08 217.28,-102.45 210.31,-101.8"/>
</g>
<!-- Node11&#45;&gt;Node9 -->
<g id="edge18" class="edge">
<title>Node11&#45;&gt;Node9</title>
<path fill="none" stroke="midnightblue" d="M233.09,-106.62C247.52,-96.76 266.19,-83.99 278.39,-75.65"/>
<polygon fill="midnightblue" stroke="midnightblue" points="231.02,-103.79 224.74,-112.32 234.98,-109.57 231.02,-103.79"/>
</g>
<!-- Node11&#45;&gt;Node10 -->
<g id="edge20" class="edge">
<title>Node11&#45;&gt;Node10</title>
<path fill="none" stroke="midnightblue" d="M177.62,-109.93C144.78,-99.38 96.21,-83.77 67.59,-74.56"/>
<polygon fill="midnightblue" stroke="midnightblue" points="176.67,-113.3 187.26,-113.03 178.81,-106.64 176.67,-113.3"/>
</g>
<!-- Node12 -->
<g id="node12" class="node">
<title>Node12</title>
<g id="a_node12"><a xlink:href="ksyscall_8cc.html" target="_top" xlink:title=" ">
<polygon fill="white" stroke="black" points="334.05,-56.5 334.05,-75.5 400.05,-75.5 400.05,-56.5 334.05,-56.5"/>
<text text-anchor="middle" x="367.05" y="-63.5" font-family="Helvetica,sans-Serif" font-size="10.00">ksyscall.cc</text>
</a>
</g>
</g>
<!-- Node11&#45;&gt;Node12 -->
<g id="edge13" class="edge">
<title>Node11&#45;&gt;Node12</title>
<path fill="none" stroke="midnightblue" d="M246.38,-109.04C275.55,-98.88 316.69,-84.55 342.61,-75.52"/>
<polygon fill="midnightblue" stroke="midnightblue" points="244.9,-105.85 236.61,-112.44 247.21,-112.46 244.9,-105.85"/>
</g>
<!-- Node13 -->
<g id="node13" class="node">
<title>Node13</title>
<g id="a_node13"><a xlink:href="mp_8hh.html" target="_top" xlink:title=" ">
<polygon fill="white" stroke="black" points="124.05,-56.5 124.05,-75.5 168.05,-75.5 168.05,-56.5 124.05,-56.5"/>
<text text-anchor="middle" x="146.05" y="-63.5" font-family="Helvetica,sans-Serif" font-size="10.00">mp.hh</text>
</a>
</g>
</g>
<!-- Node11&#45;&gt;Node13 -->
<g id="edge14" class="edge">
<title>Node11&#45;&gt;Node13</title>
<path fill="none" stroke="midnightblue" d="M193.5,-105.82C181.67,-96.15 166.77,-83.95 156.85,-75.83"/>
<polygon fill="midnightblue" stroke="midnightblue" points="191.49,-108.7 201.45,-112.32 195.92,-103.28 191.49,-108.7"/>
</g>
<!-- Node15 -->
<g id="node15" class="node">
<title>Node15</title>
<g id="a_node15"><a xlink:href="vmem_8cc.html" target="_top" xlink:title=" ">
<polygon fill="white" stroke="black" points="418.55,-56.5 418.55,-75.5 475.55,-75.5 475.55,-56.5 418.55,-56.5"/>
<text text-anchor="middle" x="447.05" y="-63.5" font-family="Helvetica,sans-Serif" font-size="10.00">vmem.cc</text>
</a>
</g>
</g>
<!-- Node11&#45;&gt;Node15 -->
<g id="edge19" class="edge">
<title>Node11&#45;&gt;Node15</title>
<path fill="none" stroke="midnightblue" d="M246.51,-113.22C285.85,-104.31 352.12,-89.24 409.05,-76 412.09,-75.29 415.26,-74.55 418.42,-73.81"/>
<polygon fill="midnightblue" stroke="midnightblue" points="245.62,-109.83 236.64,-115.45 247.16,-116.66 245.62,-109.83"/>
</g>
<!-- Node13&#45;&gt;Node2 -->
<g id="edge15" class="edge">
<title>Node13&#45;&gt;Node2</title>
<path fill="none" stroke="midnightblue" d="M130.98,-48.72C122.16,-39.2 111.39,-27.56 104.15,-19.75"/>
<polygon fill="midnightblue" stroke="midnightblue" points="128.43,-51.12 137.8,-56.08 133.57,-46.37 128.43,-51.12"/>
</g>
<!-- Node14 -->
<g id="node14" class="node">
<title>Node14</title>
<g id="a_node14"><a xlink:href="mp_8cc.html" target="_top" xlink:title=" ">
<polygon fill="white" stroke="black" points="328.05,-0.5 328.05,-19.5 372.05,-19.5 372.05,-0.5 328.05,-0.5"/>
<text text-anchor="middle" x="350.05" y="-7.5" font-family="Helvetica,sans-Serif" font-size="10.00">mp.cc</text>
</a>
</g>
</g>
<!-- Node13&#45;&gt;Node14 -->
<g id="edge16" class="edge">
<title>Node13&#45;&gt;Node14</title>
<path fill="none" stroke="midnightblue" d="M178.3,-55.71C237.71,-39.44 296.65,-24.43 327.88,-16.56"/>
<polygon fill="midnightblue" stroke="midnightblue" points="177.1,-52.41 168.38,-58.44 178.95,-59.16 177.1,-52.41"/>
</g>
<!-- Node16&#45;&gt;Node2 -->
<g id="edge23" class="edge">
<title>Node16&#45;&gt;Node2</title>
<path fill="none" stroke="midnightblue" d="M405.75,-114.24C449.61,-104.97 511.76,-85.97 485.05,-56 460.4,-28.34 195.65,-15.16 117.59,-11.85"/>
<polygon fill="midnightblue" stroke="midnightblue" points="405,-110.82 395.89,-116.23 406.38,-117.68 405,-110.82"/>
</g>
<!-- Node16&#45;&gt;Node8 -->
<g id="edge26" class="edge">
<title>Node16&#45;&gt;Node8</title>
<path fill="none" stroke="midnightblue" d="M333.83,-109.04C305.6,-98.88 265.79,-84.55 240.71,-75.52"/>
<polygon fill="midnightblue" stroke="midnightblue" points="332.69,-112.35 343.28,-112.44 335.06,-105.76 332.69,-112.35"/>
</g>
<!-- Node16&#45;&gt;Node9 -->
<g id="edge27" class="edge">
<title>Node16&#45;&gt;Node9</title>
<path fill="none" stroke="midnightblue" d="M346.48,-106.38C332.74,-96.62 315.13,-84.11 303.48,-75.83"/>
<polygon fill="midnightblue" stroke="midnightblue" points="344.66,-109.38 354.84,-112.32 348.72,-103.68 344.66,-109.38"/>
</g>
<!-- Node16&#45;&gt;Node12 -->
<g id="edge24" class="edge">
<title>Node16&#45;&gt;Node12</title>
<path fill="none" stroke="midnightblue" d="M367.05,-101.8C367.05,-92.91 367.05,-82.78 367.05,-75.75"/>
<polygon fill="midnightblue" stroke="midnightblue" points="363.55,-102.08 367.05,-112.08 370.55,-102.08 363.55,-102.08"/>
</g>
<!-- Node16&#45;&gt;Node14 -->
<g id="edge25" class="edge">
<title>Node16&#45;&gt;Node14</title>
<path fill="none" stroke="midnightblue" d="M405.73,-118.16C460.23,-112.64 549.64,-97.16 518.05,-56 500.31,-32.88 413.83,-19.05 372.34,-13.63"/>
<polygon fill="midnightblue" stroke="midnightblue" points="405.3,-114.68 395.67,-119.1 405.95,-121.65 405.3,-114.68"/>
</g>
<!-- Node16&#45;&gt;Node15 -->
<g id="edge28" class="edge">
<title>Node16&#45;&gt;Node15</title>
<path fill="none" stroke="midnightblue" d="M388.35,-106.62C402.97,-96.76 421.88,-83.99 434.23,-75.65"/>
<polygon fill="midnightblue" stroke="midnightblue" points="386.24,-103.83 379.91,-112.32 390.15,-109.63 386.24,-103.83"/>
</g>
</g>
</svg>
        <g id="navigator" transform="translate(0 0)" fill="#404254">
                <rect fill="#f2f5e9" fill-opacity="0.5" stroke="#606060" stroke-width=".5" x="0" y="0" width="60" height="60"/>
                <use id="zoomplus" xlink:href="#zoomPlus" x="17" y="9" onmousedown="handleZoom(evt,'in')"/>
                <use id="zoomminus" xlink:href="#zoomMin" x="42" y="9" onmousedown="handleZoom(evt,'out')"/>
                <use id="reset" xlink:href="#resetDef" x="30" y="36" onmousedown="handleReset()"/>
                <g id="arrowUp" xlink:href="#dirArrow" transform="translate(30 24)" onmousedown="handlePan(0,-1)">
                  <use xlink:href="#rim" fill="#404040">
                        <set attributeName="fill" to="#808080" begin="arrowUp.mouseover" end="arrowUp.mouseout"/>
                  </use>
                  <path fill="none" stroke="white" stroke-width="1.5" d="M0,-3.0v7 M-2.5,-0.5L0,-3.0L2.5,-0.5"/>
                </g>
                <g id="arrowRight" xlink:href="#dirArrow" transform="rotate(90) translate(36 -43)" onmousedown="handlePan(1,0)">
                  <use xlink:href="#rim" fill="#404040">
                        <set attributeName="fill" to="#808080" begin="arrowRight.mouseover" end="arrowRight.mouseout"/>
                  </use>
                  <path fill="none" stroke="white" stroke-width="1.5" d="M0,-3.0v7 M-2.5,-0.5L0,-3.0L2.5,-0.5"/>
                </g>
                <g id="arrowDown" xlink:href="#dirArrow" transform="rotate(180) translate(-30 -48)" onmousedown="handlePan(0,1)">
                  <use xlink:href="#rim" fill="#404040">
                        <set attributeName="fill" to="#808080" begin="arrowDown.mouseover" end="arrowDown.mouseout"/>
                  </use>
                  <path fill="none" stroke="white" stroke-width="1.5" d="M0,-3.0v7 M-2.5,-0.5L0,-3.0L2.5,-0.5"/>
                </g>
                <g id="arrowLeft" xlink:href="#dirArrow" transform="rotate(270) translate(-36 17)" onmousedown="handlePan(-1,0)">
                  <use xlink:href="#rim" fill="#404040">
                        <set attributeName="fill" to="#808080" begin="arrowLeft.mouseover" end="arrowLeft.mouseout"/>
                  </use>
                  <path fill="none" stroke="white" stroke-width="1.5" d="M0,-3.0v7 M-2.5,-0.5L0,-3.0L2.5,-0.5"/>
                </g>
        </g>
        <svg viewBox="0 0 15 15" width="100%" height="30px" preserveAspectRatio="xMaxYMin meet">
         <g id="arrow_out" transform="scale(0.3 0.3)">
          <a xlink:href="panic_8hh__dep__incl_org.svg" target="_base">
           <rect id="button" ry="5" rx="5" y="6" x="6" height="38" width="38"
                fill="#f2f5e9" fill-opacity="0.5" stroke="#606060" stroke-width="1.0"/>
           <path id="arrow"
             d="M 11.500037,31.436501 C 11.940474,20.09759 22.043105,11.32322 32.158766,21.979434 L 37.068811,17.246167 C 37.068811,17.246167 37.088388,32 37.088388,32 L 22.160133,31.978069 C 22.160133,31.978069 26.997745,27.140456 26.997745,27.140456 C 18.528582,18.264221 13.291696,25.230495 11.500037,31.436501 z"
             style="fill:#404040;"/>
          </a>
         </g>
        </svg>
</svg>
