<?xml version="1.0" encoding="UTF-8" standalone="no"?>
<!DOCTYPE svg PUBLIC "-//W3C//DTD SVG 1.1//EN"
 "http://www.w3.org/Graphics/SVG/1.1/DTD/svg11.dtd">
<!-- Generated by graphviz version 2.44.1 (20200629.0846)
 -->
<!-- Title: _kernelWarning Pages: 1 -->
<svg width="1249pt" height="205pt"
 viewBox="0.00 0.00 1249.00 204.91" xmlns="http://www.w3.org/2000/svg" xmlns:xlink="http://www.w3.org/1999/xlink">
<g id="graph0" class="graph" transform="scale(1 1) rotate(0) translate(4 200.91)">
<title>_kernelWarning</title>
<polygon fill="white" stroke="transparent" points="-4,4 -4,-200.91 1245,-200.91 1245,4 -4,4"/>
<!-- Node1 -->
<g id="node1" class="node">
<title>Node1</title>
<g id="a_node1"><a xlink:title=" ">
<polygon fill="#bfbfbf" stroke="black" points="0,-10.55 0,-29.55 83,-29.55 83,-10.55 0,-10.55"/>
<text text-anchor="middle" x="41.5" y="-17.55" font-family="Helvetica,sans-Serif" font-size="10.00">_kernelWarning</text>
</a>
</g>
</g>
<!-- Node2 -->
<g id="node2" class="node">
<title>Node2</title>
<g id="a_node2"><a xlink:href="namespaceconsole_1_1err.html#a124c7e8527c0e3fd2b9636411aea7e82" target="_top" xlink:title=" ">
<polygon fill="white" stroke="black" points="119,-29.55 119,-48.55 211,-48.55 211,-29.55 119,-29.55"/>
<text text-anchor="middle" x="165" y="-36.55" font-family="Helvetica,sans-Serif" font-size="10.00">console::err::print</text>
</a>
</g>
</g>
<!-- Node1&#45;&gt;Node2 -->
<g id="edge1" class="edge">
<title>Node1&#45;&gt;Node2</title>
<path fill="none" stroke="midnightblue" d="M83.3,-26.43C91.52,-27.71 100.3,-29.09 108.92,-30.43"/>
<polygon fill="midnightblue" stroke="midnightblue" points="108.5,-33.91 118.92,-32 109.58,-27 108.5,-33.91"/>
</g>
<!-- Node3 -->
<g id="node3" class="node">
<title>Node3</title>
<g id="a_node3"><a xlink:href="namespaceconsole_1_1err.html#a4cd18e4c409b5b17ecec61ce83b05fba" target="_top" xlink:title=" ">
<polygon fill="white" stroke="black" points="247,-10.55 247,-29.55 351,-29.55 351,-10.55 247,-10.55"/>
<text text-anchor="middle" x="299" y="-17.55" font-family="Helvetica,sans-Serif" font-size="10.00">console::err::printVa</text>
</a>
</g>
</g>
<!-- Node1&#45;&gt;Node3 -->
<g id="edge21" class="edge">
<title>Node1&#45;&gt;Node3</title>
<path fill="none" stroke="midnightblue" d="M83.27,-20.05C124.61,-20.05 189.11,-20.05 236.63,-20.05"/>
<polygon fill="midnightblue" stroke="midnightblue" points="236.8,-23.55 246.8,-20.05 236.8,-16.55 236.8,-23.55"/>
</g>
<!-- Node2&#45;&gt;Node3 -->
<g id="edge2" class="edge">
<title>Node2&#45;&gt;Node3</title>
<path fill="none" stroke="midnightblue" d="M211.06,-32.56C219.32,-31.37 228.08,-30.11 236.73,-28.87"/>
<polygon fill="midnightblue" stroke="midnightblue" points="237.39,-32.31 246.79,-27.42 236.4,-25.38 237.39,-32.31"/>
</g>
<!-- Node4 -->
<g id="node4" class="node">
<title>Node4</title>
<g id="a_node4"><a xlink:href="namespaceconsole_1_1ge.html#af642934cb833142f133285fdb75ef7b7" target="_top" xlink:title=" ">
<polygon fill="white" stroke="black" points="387,-67.55 387,-86.55 507,-86.55 507,-67.55 387,-67.55"/>
<text text-anchor="middle" x="447" y="-74.55" font-family="Helvetica,sans-Serif" font-size="10.00">console::ge::printFmtVa</text>
</a>
</g>
</g>
<!-- Node3&#45;&gt;Node4 -->
<g id="edge3" class="edge">
<title>Node3&#45;&gt;Node4</title>
<path fill="none" stroke="midnightblue" d="M324.44,-29.59C348.44,-38.96 385.26,-53.34 412.09,-63.81"/>
<polygon fill="midnightblue" stroke="midnightblue" points="410.9,-67.1 421.48,-67.48 413.44,-60.58 410.9,-67.1"/>
</g>
<!-- Node11 -->
<g id="node11" class="node">
<title>Node11</title>
<g id="a_node11"><a xlink:href="namespaceconsole_1_1out.html#ad9fc97dff4404c2d21aedbb24691e7cb" target="_top" xlink:title=" ">
<polygon fill="white" stroke="black" points="705,-10.55 705,-29.55 815,-29.55 815,-10.55 705,-10.55"/>
<text text-anchor="middle" x="760" y="-17.55" font-family="Helvetica,sans-Serif" font-size="10.00">console::out::putChar</text>
</a>
</g>
</g>
<!-- Node3&#45;&gt;Node11 -->
<g id="edge20" class="edge">
<title>Node3&#45;&gt;Node11</title>
<path fill="none" stroke="midnightblue" d="M351.13,-13.6C422.45,-5.57 555.78,5.94 669,-4.05 680.49,-5.06 692.72,-6.79 704.33,-8.75"/>
<polygon fill="midnightblue" stroke="midnightblue" points="703.89,-12.22 714.34,-10.51 705.1,-5.33 703.89,-12.22"/>
</g>
<!-- Node5 -->
<g id="node5" class="node">
<title>Node5</title>
<g id="a_node5"><a xlink:href="printfmt_8cc.html#a708ec6ee2b8bd2d7a453d8d9436ed3b3" target="_top" xlink:title=" ">
<polygon fill="white" stroke="black" points="577,-143.55 577,-162.55 635,-162.55 635,-143.55 577,-143.55"/>
<text text-anchor="middle" x="606" y="-150.55" font-family="Helvetica,sans-Serif" font-size="10.00">_getIntVa</text>
</a>
</g>
</g>
<!-- Node4&#45;&gt;Node5 -->
<g id="edge4" class="edge">
<title>Node4&#45;&gt;Node5</title>
<path fill="none" stroke="midnightblue" d="M461.59,-86.66C479.53,-98.99 512.43,-120.44 543,-134.05 550.6,-137.43 558.99,-140.45 567.07,-143.02"/>
<polygon fill="midnightblue" stroke="midnightblue" points="566.11,-146.39 576.7,-145.94 568.14,-139.69 566.11,-146.39"/>
</g>
<!-- Node6 -->
<g id="node6" class="node">
<title>Node6</title>
<g id="a_node6"><a xlink:href="printfmt_8cc.html#af4b46892c76c8bfd27efdb20847eb7c8" target="_top" xlink:title=" ">
<polygon fill="white" stroke="black" points="573.5,-105.55 573.5,-124.55 638.5,-124.55 638.5,-105.55 573.5,-105.55"/>
<text text-anchor="middle" x="606" y="-112.55" font-family="Helvetica,sans-Serif" font-size="10.00">_getUIntVa</text>
</a>
</g>
</g>
<!-- Node4&#45;&gt;Node6 -->
<g id="edge5" class="edge">
<title>Node4&#45;&gt;Node6</title>
<path fill="none" stroke="midnightblue" d="M487.62,-86.64C510.72,-92.23 539.84,-99.28 563.3,-104.95"/>
<polygon fill="midnightblue" stroke="midnightblue" points="562.76,-108.42 573.3,-107.38 564.4,-101.62 562.76,-108.42"/>
</g>
<!-- Node7 -->
<g id="node7" class="node">
<title>Node7</title>
<g id="a_node7"><a xlink:href="namespacestr.html#a062221f630647cf300f0dd982c4ed904" target="_top" xlink:title=" ">
<polygon fill="white" stroke="black" points="1183,-100.55 1183,-119.55 1241,-119.55 1241,-100.55 1183,-100.55"/>
<text text-anchor="middle" x="1212" y="-107.55" font-family="Helvetica,sans-Serif" font-size="10.00">str::count</text>
</a>
</g>
</g>
<!-- Node4&#45;&gt;Node7 -->
<g id="edge6" class="edge">
<title>Node4&#45;&gt;Node7</title>
<path fill="none" stroke="midnightblue" d="M454.18,-86.76C467.55,-106.84 501.36,-152.62 543,-172.05 630.33,-212.8 662.63,-191.05 759,-191.05 759,-191.05 759,-191.05 912,-191.05 1013.55,-191.05 1127.97,-146.98 1181.02,-123.85"/>
<polygon fill="midnightblue" stroke="midnightblue" points="1182.77,-126.91 1190.5,-119.66 1179.93,-120.51 1182.77,-126.91"/>
</g>
<!-- Node8 -->
<g id="node8" class="node">
<title>Node8</title>
<g id="a_node8"><a xlink:href="printfmt_8cc.html#a0e3e484ece5e75b9f5fbe337f0ae8ae3" target="_top" xlink:title=" ">
<polygon fill="white" stroke="black" points="579.5,-67.55 579.5,-86.55 632.5,-86.55 632.5,-67.55 579.5,-67.55"/>
<text text-anchor="middle" x="606" y="-74.55" font-family="Helvetica,sans-Serif" font-size="10.00">describe</text>
</a>
</g>
</g>
<!-- Node4&#45;&gt;Node8 -->
<g id="edge7" class="edge">
<title>Node4&#45;&gt;Node8</title>
<path fill="none" stroke="midnightblue" d="M507.35,-77.05C528.12,-77.05 550.78,-77.05 569.04,-77.05"/>
<polygon fill="midnightblue" stroke="midnightblue" points="569.24,-80.55 579.24,-77.05 569.24,-73.55 569.24,-80.55"/>
</g>
<!-- Node10 -->
<g id="node10" class="node">
<title>Node10</title>
<g id="a_node10"><a xlink:href="namespaceconsole_1_1ge.html#a7e301813fd34fde772376afc5fdad95d" target="_top" xlink:title=" ">
<polygon fill="white" stroke="black" points="543,-29.55 543,-48.55 669,-48.55 669,-29.55 543,-29.55"/>
<text text-anchor="middle" x="606" y="-36.55" font-family="Helvetica,sans-Serif" font-size="10.00">console::ge::printNumber</text>
</a>
</g>
</g>
<!-- Node4&#45;&gt;Node10 -->
<g id="edge9" class="edge">
<title>Node4&#45;&gt;Node10</title>
<path fill="none" stroke="midnightblue" d="M487.62,-67.46C508.34,-62.44 533.89,-56.26 555.86,-50.94"/>
<polygon fill="midnightblue" stroke="midnightblue" points="556.77,-54.32 565.67,-48.57 555.12,-47.52 556.77,-54.32"/>
</g>
<!-- Node4&#45;&gt;Node11 -->
<g id="edge19" class="edge">
<title>Node4&#45;&gt;Node11</title>
<path fill="none" stroke="midnightblue" d="M459.33,-67.4C476.22,-53.72 509.63,-29.29 543,-20.05 592.52,-6.33 650.9,-7.3 694.48,-11.16"/>
<polygon fill="midnightblue" stroke="midnightblue" points="694.38,-14.67 704.66,-12.14 695.05,-7.7 694.38,-14.67"/>
</g>
<!-- Node9 -->
<g id="node9" class="node">
<title>Node9</title>
<g id="a_node9"><a xlink:href="namespacemonitor.html#a318993193c866642f8389a1c1f285739" target="_top" xlink:title=" ">
<polygon fill="white" stroke="black" points="723,-67.55 723,-86.55 797,-86.55 797,-67.55 723,-67.55"/>
<text text-anchor="middle" x="760" y="-74.55" font-family="Helvetica,sans-Serif" font-size="10.00">monitor::fuck</text>
</a>
</g>
</g>
<!-- Node8&#45;&gt;Node9 -->
<g id="edge8" class="edge">
<title>Node8&#45;&gt;Node9</title>
<path fill="none" stroke="midnightblue" d="M632.78,-77.05C654.62,-77.05 686.46,-77.05 712.7,-77.05"/>
<polygon fill="midnightblue" stroke="midnightblue" points="712.82,-80.55 722.82,-77.05 712.82,-73.55 712.82,-80.55"/>
</g>
<!-- Node10&#45;&gt;Node11 -->
<g id="edge10" class="edge">
<title>Node10&#45;&gt;Node11</title>
<path fill="none" stroke="midnightblue" d="M669.26,-31.27C677.66,-30.22 686.28,-29.14 694.71,-28.08"/>
<polygon fill="midnightblue" stroke="midnightblue" points="695.37,-31.53 704.86,-26.82 694.51,-24.58 695.37,-31.53"/>
</g>
<!-- Node12 -->
<g id="node12" class="node">
<title>Node12</title>
<g id="a_node12"><a xlink:href="namespaceconsole_1_1serial.html#a3a7c1f95ae3c24136ea63bb31fdf0391" target="_top" xlink:title=" ">
<polygon fill="white" stroke="black" points="851,-10.55 851,-29.55 971,-29.55 971,-10.55 851,-10.55"/>
<text text-anchor="middle" x="911" y="-17.55" font-family="Helvetica,sans-Serif" font-size="10.00">console::serial::putChar</text>
</a>
</g>
</g>
<!-- Node11&#45;&gt;Node12 -->
<g id="edge11" class="edge">
<title>Node11&#45;&gt;Node12</title>
<path fill="none" stroke="midnightblue" d="M815.21,-20.05C823.53,-20.05 832.2,-20.05 840.79,-20.05"/>
<polygon fill="midnightblue" stroke="midnightblue" points="840.79,-23.55 850.79,-20.05 840.79,-16.55 840.79,-23.55"/>
</g>
<!-- Node15 -->
<g id="node15" class="node">
<title>Node15</title>
<g id="a_node15"><a xlink:href="namespaceconsole_1_1cga.html#afa19057ca041b39682d5d4831c43dfa0" target="_top" xlink:title=" ">
<polygon fill="white" stroke="black" points="854.5,-48.55 854.5,-67.55 967.5,-67.55 967.5,-48.55 854.5,-48.55"/>
<text text-anchor="middle" x="911" y="-55.55" font-family="Helvetica,sans-Serif" font-size="10.00">console::cga::putChar</text>
</a>
</g>
</g>
<!-- Node11&#45;&gt;Node15 -->
<g id="edge14" class="edge">
<title>Node11&#45;&gt;Node15</title>
<path fill="none" stroke="midnightblue" d="M798.6,-29.64C818.08,-34.61 842.07,-40.72 862.8,-46.01"/>
<polygon fill="midnightblue" stroke="midnightblue" points="862.12,-49.45 872.67,-48.53 863.85,-42.67 862.12,-49.45"/>
</g>
<!-- Node13 -->
<g id="node13" class="node">
<title>Node13</title>
<g id="a_node13"><a xlink:href="namespaceconsole_1_1serial.html#aa5605d4537106bb1c2bab72d7d1a5824" target="_top" xlink:title=" ">
<polygon fill="white" stroke="black" points="1025,-10.55 1025,-29.55 1129,-29.55 1129,-10.55 1025,-10.55"/>
<text text-anchor="middle" x="1077" y="-17.55" font-family="Helvetica,sans-Serif" font-size="10.00">console::serial::sout</text>
</a>
</g>
</g>
<!-- Node12&#45;&gt;Node13 -->
<g id="edge12" class="edge">
<title>Node12&#45;&gt;Node13</title>
<path fill="none" stroke="midnightblue" d="M971.21,-20.05C985.31,-20.05 1000.39,-20.05 1014.59,-20.05"/>
<polygon fill="midnightblue" stroke="midnightblue" points="1014.74,-23.55 1024.74,-20.05 1014.74,-16.55 1014.74,-23.55"/>
</g>
<!-- Node14 -->
<g id="node14" class="node">
<title>Node14</title>
<g id="a_node14"><a xlink:href="x86_8h.html#ade961b44e45ddacbc3c3b7609cf36dc6" target="_top" xlink:title=" ">
<polygon fill="white" stroke="black" points="1194.5,-43.55 1194.5,-62.55 1229.5,-62.55 1229.5,-43.55 1194.5,-43.55"/>
<text text-anchor="middle" x="1212" y="-50.55" font-family="Helvetica,sans-Serif" font-size="10.00">outb</text>
</a>
</g>
</g>
<!-- Node13&#45;&gt;Node14 -->
<g id="edge13" class="edge">
<title>Node13&#45;&gt;Node14</title>
<path fill="none" stroke="midnightblue" d="M1116.47,-29.59C1138.32,-35.01 1165.11,-41.66 1184.59,-46.49"/>
<polygon fill="midnightblue" stroke="midnightblue" points="1183.76,-49.89 1194.31,-48.91 1185.44,-43.1 1183.76,-49.89"/>
</g>
<!-- Node16 -->
<g id="node16" class="node">
<title>Node16</title>
<g id="a_node16"><a xlink:href="namespacemem.html#a64d9d05b439041901498c606de606431" target="_top" xlink:title=" ">
<polygon fill="white" stroke="black" points="1044.5,-91.55 1044.5,-110.55 1109.5,-110.55 1109.5,-91.55 1044.5,-91.55"/>
<text text-anchor="middle" x="1077" y="-98.55" font-family="Helvetica,sans-Serif" font-size="10.00">mem::copy</text>
</a>
</g>
</g>
<!-- Node15&#45;&gt;Node16 -->
<g id="edge15" class="edge">
<title>Node15&#45;&gt;Node16</title>
<path fill="none" stroke="midnightblue" d="M948.4,-67.59C973.92,-74.28 1008.08,-83.24 1034.64,-90.2"/>
<polygon fill="midnightblue" stroke="midnightblue" points="1033.85,-93.61 1044.41,-92.76 1035.62,-86.84 1033.85,-93.61"/>
</g>
<!-- Node17 -->
<g id="node17" class="node">
<title>Node17</title>
<g id="a_node17"><a xlink:href="namespaceconsole_1_1cga.html#a06463d4dc68819e30615ba299d02a78f" target="_top" xlink:title=" ">
<polygon fill="white" stroke="black" points="1007,-48.55 1007,-67.55 1147,-67.55 1147,-48.55 1007,-48.55"/>
<text text-anchor="middle" x="1077" y="-55.55" font-family="Helvetica,sans-Serif" font-size="10.00">console::cga::cursorRefresh</text>
</a>
</g>
</g>
<!-- Node15&#45;&gt;Node17 -->
<g id="edge17" class="edge">
<title>Node15&#45;&gt;Node17</title>
<path fill="none" stroke="midnightblue" d="M967.52,-58.05C976.9,-58.05 986.8,-58.05 996.65,-58.05"/>
<polygon fill="midnightblue" stroke="midnightblue" points="996.87,-61.55 1006.87,-58.05 996.87,-54.55 996.87,-61.55"/>
</g>
<!-- Node16&#45;&gt;Node7 -->
<g id="edge16" class="edge">
<title>Node16&#45;&gt;Node7</title>
<path fill="none" stroke="midnightblue" d="M1109.52,-103.18C1128.49,-104.46 1152.77,-106.11 1172.82,-107.46"/>
<polygon fill="midnightblue" stroke="midnightblue" points="1172.66,-110.96 1182.87,-108.14 1173.13,-103.98 1172.66,-110.96"/>
</g>
<!-- Node17&#45;&gt;Node14 -->
<g id="edge18" class="edge">
<title>Node17&#45;&gt;Node14</title>
<path fill="none" stroke="midnightblue" d="M1147.23,-55.45C1160.48,-54.95 1173.59,-54.45 1184.45,-54.05"/>
<polygon fill="midnightblue" stroke="midnightblue" points="1184.61,-57.54 1194.47,-53.67 1184.35,-50.55 1184.61,-57.54"/>
</g>
</g>
</svg>
