<?xml version="1.0" encoding="UTF-8" standalone="no"?>
<!DOCTYPE svg PUBLIC "-//W3C//DTD SVG 1.1//EN"
 "http://www.w3.org/Graphics/SVG/1.1/DTD/svg11.dtd">
<!-- Generated by graphviz version 2.44.1 (20200629.0846)
 -->
<!-- Title: kbdIntr Pages: 1 -->
<!--zoomable 280 -->
<svg id="main" version="1.1" xmlns="http://www.w3.org/2000/svg" xmlns:xlink="http://www.w3.org/1999/xlink" xml:space="preserve" onload="init(evt)">
<style type="text/css"><![CDATA[
.edge:hover path { stroke: red; }
.edge:hover polygon { stroke: red; fill: red; }
]]></style>
<script type="text/javascript"><![CDATA[
var edges = document.getElementsByTagName('g');
if (edges && edges.length) {
  for (var i=0;i<edges.length;i++) {
    if (edges[i].id.substr(0,4)=='edge') {
      edges[i].setAttribute('class','edge');
    }
  }
}
]]></script>
        <defs>
                <circle id="rim" cx="0" cy="0" r="7"/>
                <circle id="rim2" cx="0" cy="0" r="3.5"/>
                <g id="zoomPlus">
                        <use xlink:href="#rim" fill="#404040">
                                <set attributeName="fill" to="#808080" begin="zoomplus.mouseover" end="zoomplus.mouseout"/>
                        </use>
                        <path d="M-4,0h8M0,-4v8" fill="none" stroke="white" stroke-width="1.5" pointer-events="none"/>
                </g>
                <g id="zoomMin">
                        <use xlink:href="#rim" fill="#404040">
                                <set attributeName="fill" to="#808080" begin="zoomminus.mouseover" end="zoomminus.mouseout"/>
                        </use>
                        <path d="M-4,0h8" fill="none" stroke="white" stroke-width="1.5" pointer-events="none"/>
                </g>
                <g id="dirArrow">
                        <path fill="none" stroke="white" stroke-width="1.5" d="M0,-3.0v7 M-2.5,-0.5L0,-3.0L2.5,-0.5"/>
                </g>
               <g id="resetDef">
                       <use xlink:href="#rim2" fill="#404040">
                               <set attributeName="fill" to="#808080" begin="reset.mouseover" end="reset.mouseout"/>
                       </use>
               </g>
        </defs>

<script type="text/javascript">
var viewWidth = 1343;
var viewHeight = 280;
var sectionId = 'dynsection-4';
</script>
<script xlink:href="svgpan.js"/>
<svg id="graph" class="graph">
<g id="viewport">
<title>kbdIntr</title>
<polygon fill="white" stroke="transparent" points="-4,4 -4,-275.87 1339,-275.87 1339,4 -4,4"/>
<!-- Node1 -->
<g id="node1" class="node">
<title>Node1</title>
<g id="a_node1"><a xlink:title=" ">
<polygon fill="#bfbfbf" stroke="black" points="0,-224.37 0,-243.37 47,-243.37 47,-224.37 0,-224.37"/>
<text text-anchor="middle" x="23.5" y="-231.37" font-family="Helvetica,sans-Serif" font-size="10.00">kbdIntr</text>
</a>
</g>
</g>
<!-- Node2 -->
<g id="node2" class="node">
<title>Node2</title>
<g id="a_node2"><a xlink:href="pckbd_8c.html#a0db494f0bd07d8f429c8b4e345bd6c40" target="_top" xlink:title=" ">
<polygon fill="white" stroke="black" points="83,-224.37 83,-243.37 178,-243.37 178,-224.37 83,-224.37"/>
<text text-anchor="middle" x="130.5" y="-231.37" font-family="Helvetica,sans-Serif" font-size="10.00">_kbdProcessData</text>
</a>
</g>
</g>
<!-- Node1&#45;&gt;Node2 -->
<g id="edge1" class="edge">
<title>Node1&#45;&gt;Node2</title>
<path fill="none" stroke="midnightblue" d="M47.03,-233.87C54.64,-233.87 63.53,-233.87 72.59,-233.87"/>
<polygon fill="midnightblue" stroke="midnightblue" points="72.84,-237.37 82.84,-233.87 72.84,-230.37 72.84,-237.37"/>
</g>
<!-- Node3 -->
<g id="node3" class="node">
<title>Node3</title>
<g id="a_node3"><a xlink:href="cstdout_8h.html#aeb83fa8b17583cf31b5b47925ca68d39" target="_top" xlink:title=" ">
<polygon fill="white" stroke="black" points="214,-224.37 214,-243.37 305,-243.37 305,-224.37 214,-224.37"/>
<text text-anchor="middle" x="259.5" y="-231.37" font-family="Helvetica,sans-Serif" font-size="10.00">consoleErrPrintC</text>
</a>
</g>
</g>
<!-- Node2&#45;&gt;Node3 -->
<g id="edge2" class="edge">
<title>Node2&#45;&gt;Node3</title>
<path fill="none" stroke="midnightblue" d="M178.07,-233.87C186.32,-233.87 194.99,-233.87 203.45,-233.87"/>
<polygon fill="midnightblue" stroke="midnightblue" points="203.63,-237.37 213.63,-233.87 203.63,-230.37 203.63,-237.37"/>
</g>
<!-- Node15 -->
<g id="node15" class="node">
<title>Node15</title>
<g id="a_node15"><a xlink:href="x86_8h.html#ade961b44e45ddacbc3c3b7609cf36dc6" target="_top" xlink:title=" ">
<polygon fill="white" stroke="black" points="1288.5,-205.37 1288.5,-224.37 1323.5,-224.37 1323.5,-205.37 1288.5,-205.37"/>
<text text-anchor="middle" x="1306" y="-212.37" font-family="Helvetica,sans-Serif" font-size="10.00">outb</text>
</a>
</g>
</g>
<!-- Node2&#45;&gt;Node15 -->
<g id="edge23" class="edge">
<title>Node2&#45;&gt;Node15</title>
<path fill="none" stroke="midnightblue" d="M168.68,-243.43C182.8,-246.79 199.07,-250.36 214,-252.87 292.46,-266.04 312.44,-271.87 392,-271.87 392,-271.87 392,-271.87 1006,-271.87 1108.34,-271.87 1226.95,-239.25 1278.65,-223.36"/>
<polygon fill="midnightblue" stroke="midnightblue" points="1279.85,-226.65 1288.35,-220.33 1277.76,-219.97 1279.85,-226.65"/>
</g>
<!-- Node19 -->
<g id="node19" class="node">
<title>Node19</title>
<g id="a_node19"><a xlink:href="x86_8h.html#afdc603aa210ab8fd9995ce74940f5d7f" target="_top" xlink:title=" ">
<polygon fill="white" stroke="black" points="245,-186.37 245,-205.37 274,-205.37 274,-186.37 245,-186.37"/>
<text text-anchor="middle" x="259.5" y="-193.37" font-family="Helvetica,sans-Serif" font-size="10.00">inb</text>
</a>
</g>
</g>
<!-- Node2&#45;&gt;Node19 -->
<g id="edge22" class="edge">
<title>Node2&#45;&gt;Node19</title>
<path fill="none" stroke="midnightblue" d="M163.55,-224.28C185.82,-217.61 215.01,-208.88 235.11,-202.86"/>
<polygon fill="midnightblue" stroke="midnightblue" points="236.14,-206.21 244.71,-199.99 234.13,-199.51 236.14,-206.21"/>
</g>
<!-- Node4 -->
<g id="node4" class="node">
<title>Node4</title>
<g id="a_node4"><a xlink:href="namespaceconsole_1_1err.html#a4cd18e4c409b5b17ecec61ce83b05fba" target="_top" xlink:title=" ">
<polygon fill="white" stroke="black" points="341,-224.37 341,-243.37 445,-243.37 445,-224.37 341,-224.37"/>
<text text-anchor="middle" x="393" y="-231.37" font-family="Helvetica,sans-Serif" font-size="10.00">console::err::printVa</text>
</a>
</g>
</g>
<!-- Node3&#45;&gt;Node4 -->
<g id="edge3" class="edge">
<title>Node3&#45;&gt;Node4</title>
<path fill="none" stroke="midnightblue" d="M305.02,-233.87C313.27,-233.87 322.01,-233.87 330.66,-233.87"/>
<polygon fill="midnightblue" stroke="midnightblue" points="330.72,-237.37 340.72,-233.87 330.72,-230.37 330.72,-237.37"/>
</g>
<!-- Node5 -->
<g id="node5" class="node">
<title>Node5</title>
<g id="a_node5"><a xlink:href="namespaceconsole_1_1ge.html#af642934cb833142f133285fdb75ef7b7" target="_top" xlink:title=" ">
<polygon fill="white" stroke="black" points="481,-110.37 481,-129.37 601,-129.37 601,-110.37 481,-110.37"/>
<text text-anchor="middle" x="541" y="-117.37" font-family="Helvetica,sans-Serif" font-size="10.00">console::ge::printFmtVa</text>
</a>
</g>
</g>
<!-- Node4&#45;&gt;Node5 -->
<g id="edge4" class="edge">
<title>Node4&#45;&gt;Node5</title>
<path fill="none" stroke="midnightblue" d="M406.2,-224.34C431.25,-204.78 488.76,-159.88 519.59,-135.8"/>
<polygon fill="midnightblue" stroke="midnightblue" points="521.8,-138.52 527.53,-129.6 517.49,-133 521.8,-138.52"/>
</g>
<!-- Node12 -->
<g id="node12" class="node">
<title>Node12</title>
<g id="a_node12"><a xlink:href="namespaceconsole_1_1out.html#ad9fc97dff4404c2d21aedbb24691e7cb" target="_top" xlink:title=" ">
<polygon fill="white" stroke="black" points="799,-186.37 799,-205.37 909,-205.37 909,-186.37 799,-186.37"/>
<text text-anchor="middle" x="854" y="-193.37" font-family="Helvetica,sans-Serif" font-size="10.00">console::out::putChar</text>
</a>
</g>
</g>
<!-- Node4&#45;&gt;Node12 -->
<g id="edge21" class="edge">
<title>Node4&#45;&gt;Node12</title>
<path fill="none" stroke="midnightblue" d="M445.26,-233.76C516.74,-233.03 650.25,-229.58 763,-214.87 776.5,-213.1 790.99,-210.41 804.32,-207.6"/>
<polygon fill="midnightblue" stroke="midnightblue" points="805.22,-210.98 814.24,-205.44 803.73,-204.14 805.22,-210.98"/>
</g>
<!-- Node6 -->
<g id="node6" class="node">
<title>Node6</title>
<g id="a_node6"><a xlink:href="printfmt_8cc.html#a708ec6ee2b8bd2d7a453d8d9436ed3b3" target="_top" xlink:title=" ">
<polygon fill="white" stroke="black" points="671,-148.37 671,-167.37 729,-167.37 729,-148.37 671,-148.37"/>
<text text-anchor="middle" x="700" y="-155.37" font-family="Helvetica,sans-Serif" font-size="10.00">_getIntVa</text>
</a>
</g>
</g>
<!-- Node5&#45;&gt;Node6 -->
<g id="edge5" class="edge">
<title>Node5&#45;&gt;Node6</title>
<path fill="none" stroke="midnightblue" d="M581.62,-129.46C605.94,-135.34 636.92,-142.84 660.95,-148.66"/>
<polygon fill="midnightblue" stroke="midnightblue" points="660.24,-152.09 670.78,-151.04 661.89,-145.28 660.24,-152.09"/>
</g>
<!-- Node7 -->
<g id="node7" class="node">
<title>Node7</title>
<g id="a_node7"><a xlink:href="printfmt_8cc.html#af4b46892c76c8bfd27efdb20847eb7c8" target="_top" xlink:title=" ">
<polygon fill="white" stroke="black" points="667.5,-110.37 667.5,-129.37 732.5,-129.37 732.5,-110.37 667.5,-110.37"/>
<text text-anchor="middle" x="700" y="-117.37" font-family="Helvetica,sans-Serif" font-size="10.00">_getUIntVa</text>
</a>
</g>
</g>
<!-- Node5&#45;&gt;Node7 -->
<g id="edge6" class="edge">
<title>Node5&#45;&gt;Node7</title>
<path fill="none" stroke="midnightblue" d="M601.35,-119.87C619.91,-119.87 639.98,-119.87 657.07,-119.87"/>
<polygon fill="midnightblue" stroke="midnightblue" points="657.29,-123.37 667.29,-119.87 657.29,-116.37 657.29,-123.37"/>
</g>
<!-- Node8 -->
<g id="node8" class="node">
<title>Node8</title>
<g id="a_node8"><a xlink:href="namespacestr.html#a062221f630647cf300f0dd982c4ed904" target="_top" xlink:title=" ">
<polygon fill="white" stroke="black" points="1277,-25.37 1277,-44.37 1335,-44.37 1335,-25.37 1277,-25.37"/>
<text text-anchor="middle" x="1306" y="-32.37" font-family="Helvetica,sans-Serif" font-size="10.00">str::count</text>
</a>
</g>
</g>
<!-- Node5&#45;&gt;Node8 -->
<g id="edge7" class="edge">
<title>Node5&#45;&gt;Node8</title>
<path fill="none" stroke="midnightblue" d="M548.18,-110.15C561.55,-90.08 595.36,-44.3 637,-24.87 724.33,15.88 756.63,-5.87 853,-5.87 853,-5.87 853,-5.87 1006,-5.87 1100.02,-5.87 1209.9,-20.25 1266.68,-28.76"/>
<polygon fill="midnightblue" stroke="midnightblue" points="1266.23,-32.23 1276.64,-30.27 1267.28,-25.31 1266.23,-32.23"/>
</g>
<!-- Node9 -->
<g id="node9" class="node">
<title>Node9</title>
<g id="a_node9"><a xlink:href="printfmt_8cc.html#a0e3e484ece5e75b9f5fbe337f0ae8ae3" target="_top" xlink:title=" ">
<polygon fill="white" stroke="black" points="673.5,-34.37 673.5,-53.37 726.5,-53.37 726.5,-34.37 673.5,-34.37"/>
<text text-anchor="middle" x="700" y="-41.37" font-family="Helvetica,sans-Serif" font-size="10.00">describe</text>
</a>
</g>
</g>
<!-- Node5&#45;&gt;Node9 -->
<g id="edge8" class="edge">
<title>Node5&#45;&gt;Node9</title>
<path fill="none" stroke="midnightblue" d="M558.14,-110.18C576.77,-99.2 608.53,-81.1 637,-67.87 645.61,-63.87 655.09,-59.96 663.98,-56.5"/>
<polygon fill="midnightblue" stroke="midnightblue" points="665.25,-59.76 673.35,-52.93 662.75,-53.22 665.25,-59.76"/>
</g>
<!-- Node11 -->
<g id="node11" class="node">
<title>Node11</title>
<g id="a_node11"><a xlink:href="namespaceconsole_1_1ge.html#a7e301813fd34fde772376afc5fdad95d" target="_top" xlink:title=" ">
<polygon fill="white" stroke="black" points="637,-186.37 637,-205.37 763,-205.37 763,-186.37 637,-186.37"/>
<text text-anchor="middle" x="700" y="-193.37" font-family="Helvetica,sans-Serif" font-size="10.00">console::ge::printNumber</text>
</a>
</g>
</g>
<!-- Node5&#45;&gt;Node11 -->
<g id="edge10" class="edge">
<title>Node5&#45;&gt;Node11</title>
<path fill="none" stroke="midnightblue" d="M555.59,-129.47C573.53,-141.81 606.43,-163.25 637,-176.87 642.08,-179.13 647.5,-181.22 652.95,-183.13"/>
<polygon fill="midnightblue" stroke="midnightblue" points="652.13,-186.55 662.72,-186.37 654.33,-179.9 652.13,-186.55"/>
</g>
<!-- Node5&#45;&gt;Node12 -->
<g id="edge20" class="edge">
<title>Node5&#45;&gt;Node12</title>
<path fill="none" stroke="midnightblue" d="M567.09,-110.27C609.42,-95.67 696.85,-72.41 763,-100.87 799.16,-116.42 827.6,-154.43 842.2,-177.38"/>
<polygon fill="midnightblue" stroke="midnightblue" points="839.39,-179.49 847.6,-186.18 845.36,-175.83 839.39,-179.49"/>
</g>
<!-- Node10 -->
<g id="node10" class="node">
<title>Node10</title>
<g id="a_node10"><a xlink:href="namespacemonitor.html#a318993193c866642f8389a1c1f285739" target="_top" xlink:title=" ">
<polygon fill="white" stroke="black" points="817,-34.37 817,-53.37 891,-53.37 891,-34.37 817,-34.37"/>
<text text-anchor="middle" x="854" y="-41.37" font-family="Helvetica,sans-Serif" font-size="10.00">monitor::fuck</text>
</a>
</g>
</g>
<!-- Node9&#45;&gt;Node10 -->
<g id="edge9" class="edge">
<title>Node9&#45;&gt;Node10</title>
<path fill="none" stroke="midnightblue" d="M726.78,-43.87C748.62,-43.87 780.46,-43.87 806.7,-43.87"/>
<polygon fill="midnightblue" stroke="midnightblue" points="806.82,-47.37 816.82,-43.87 806.82,-40.37 806.82,-47.37"/>
</g>
<!-- Node11&#45;&gt;Node12 -->
<g id="edge11" class="edge">
<title>Node11&#45;&gt;Node12</title>
<path fill="none" stroke="midnightblue" d="M763.26,-195.87C771.66,-195.87 780.28,-195.87 788.71,-195.87"/>
<polygon fill="midnightblue" stroke="midnightblue" points="788.86,-199.37 798.86,-195.87 788.86,-192.37 788.86,-199.37"/>
</g>
<!-- Node13 -->
<g id="node13" class="node">
<title>Node13</title>
<g id="a_node13"><a xlink:href="namespaceconsole_1_1serial.html#a3a7c1f95ae3c24136ea63bb31fdf0391" target="_top" xlink:title=" ">
<polygon fill="white" stroke="black" points="945,-205.37 945,-224.37 1065,-224.37 1065,-205.37 945,-205.37"/>
<text text-anchor="middle" x="1005" y="-212.37" font-family="Helvetica,sans-Serif" font-size="10.00">console::serial::putChar</text>
</a>
</g>
</g>
<!-- Node12&#45;&gt;Node13 -->
<g id="edge12" class="edge">
<title>Node12&#45;&gt;Node13</title>
<path fill="none" stroke="midnightblue" d="M909.21,-202.78C917.53,-203.84 926.2,-204.95 934.79,-206.04"/>
<polygon fill="midnightblue" stroke="midnightblue" points="934.43,-209.52 944.79,-207.32 935.32,-202.58 934.43,-209.52"/>
</g>
<!-- Node16 -->
<g id="node16" class="node">
<title>Node16</title>
<g id="a_node16"><a xlink:href="namespaceconsole_1_1cga.html#afa19057ca041b39682d5d4831c43dfa0" target="_top" xlink:title=" ">
<polygon fill="white" stroke="black" points="948.5,-167.37 948.5,-186.37 1061.5,-186.37 1061.5,-167.37 948.5,-167.37"/>
<text text-anchor="middle" x="1005" y="-174.37" font-family="Helvetica,sans-Serif" font-size="10.00">console::cga::putChar</text>
</a>
</g>
</g>
<!-- Node12&#45;&gt;Node16 -->
<g id="edge15" class="edge">
<title>Node12&#45;&gt;Node16</title>
<path fill="none" stroke="midnightblue" d="M909.21,-188.95C918.66,-187.75 928.58,-186.48 938.3,-185.24"/>
<polygon fill="midnightblue" stroke="midnightblue" points="938.85,-188.7 948.33,-183.97 937.96,-181.76 938.85,-188.7"/>
</g>
<!-- Node14 -->
<g id="node14" class="node">
<title>Node14</title>
<g id="a_node14"><a xlink:href="namespaceconsole_1_1serial.html#aa5605d4537106bb1c2bab72d7d1a5824" target="_top" xlink:title=" ">
<polygon fill="white" stroke="black" points="1119,-205.37 1119,-224.37 1223,-224.37 1223,-205.37 1119,-205.37"/>
<text text-anchor="middle" x="1171" y="-212.37" font-family="Helvetica,sans-Serif" font-size="10.00">console::serial::sout</text>
</a>
</g>
</g>
<!-- Node13&#45;&gt;Node14 -->
<g id="edge13" class="edge">
<title>Node13&#45;&gt;Node14</title>
<path fill="none" stroke="midnightblue" d="M1065.21,-214.87C1079.31,-214.87 1094.39,-214.87 1108.59,-214.87"/>
<polygon fill="midnightblue" stroke="midnightblue" points="1108.74,-218.37 1118.74,-214.87 1108.74,-211.37 1108.74,-218.37"/>
</g>
<!-- Node14&#45;&gt;Node15 -->
<g id="edge14" class="edge">
<title>Node14&#45;&gt;Node15</title>
<path fill="none" stroke="midnightblue" d="M1223.04,-214.87C1241.85,-214.87 1262.4,-214.87 1278.22,-214.87"/>
<polygon fill="midnightblue" stroke="midnightblue" points="1278.34,-218.37 1288.34,-214.87 1278.34,-211.37 1278.34,-218.37"/>
</g>
<!-- Node17 -->
<g id="node17" class="node">
<title>Node17</title>
<g id="a_node17"><a xlink:href="namespacemem.html#a64d9d05b439041901498c606de606431" target="_top" xlink:title=" ">
<polygon fill="white" stroke="black" points="1138.5,-101.37 1138.5,-120.37 1203.5,-120.37 1203.5,-101.37 1138.5,-101.37"/>
<text text-anchor="middle" x="1171" y="-108.37" font-family="Helvetica,sans-Serif" font-size="10.00">mem::copy</text>
</a>
</g>
</g>
<!-- Node16&#45;&gt;Node17 -->
<g id="edge16" class="edge">
<title>Node16&#45;&gt;Node17</title>
<path fill="none" stroke="midnightblue" d="M1029.85,-167.27C1058.11,-155.9 1105.35,-136.88 1137.08,-124.12"/>
<polygon fill="midnightblue" stroke="midnightblue" points="1138.42,-127.35 1146.39,-120.37 1135.81,-120.85 1138.42,-127.35"/>
</g>
<!-- Node18 -->
<g id="node18" class="node">
<title>Node18</title>
<g id="a_node18"><a xlink:href="namespaceconsole_1_1cga.html#a06463d4dc68819e30615ba299d02a78f" target="_top" xlink:title=" ">
<polygon fill="white" stroke="black" points="1101,-167.37 1101,-186.37 1241,-186.37 1241,-167.37 1101,-167.37"/>
<text text-anchor="middle" x="1171" y="-174.37" font-family="Helvetica,sans-Serif" font-size="10.00">console::cga::cursorRefresh</text>
</a>
</g>
</g>
<!-- Node16&#45;&gt;Node18 -->
<g id="edge18" class="edge">
<title>Node16&#45;&gt;Node18</title>
<path fill="none" stroke="midnightblue" d="M1061.52,-176.87C1070.9,-176.87 1080.8,-176.87 1090.65,-176.87"/>
<polygon fill="midnightblue" stroke="midnightblue" points="1090.87,-180.37 1100.87,-176.87 1090.87,-173.37 1090.87,-180.37"/>
</g>
<!-- Node17&#45;&gt;Node8 -->
<g id="edge17" class="edge">
<title>Node17&#45;&gt;Node8</title>
<path fill="none" stroke="midnightblue" d="M1188.84,-101.24C1211.73,-88.16 1252.84,-64.67 1279.51,-49.43"/>
<polygon fill="midnightblue" stroke="midnightblue" points="1281.35,-52.41 1288.29,-44.41 1277.87,-46.34 1281.35,-52.41"/>
</g>
<!-- Node18&#45;&gt;Node15 -->
<g id="edge19" class="edge">
<title>Node18&#45;&gt;Node15</title>
<path fill="none" stroke="midnightblue" d="M1207.14,-186.4C1218.01,-189.38 1230.01,-192.72 1241,-195.87 1253.37,-199.41 1267.05,-203.45 1278.57,-206.89"/>
<polygon fill="midnightblue" stroke="midnightblue" points="1277.87,-210.33 1288.45,-209.86 1279.88,-203.63 1277.87,-210.33"/>
</g>
</g>
</svg>
        <g id="navigator" transform="translate(0 0)" fill="#404254">
                <rect fill="#f2f5e9" fill-opacity="0.5" stroke="#606060" stroke-width=".5" x="0" y="0" width="60" height="60"/>
                <use id="zoomplus" xlink:href="#zoomPlus" x="17" y="9" onmousedown="handleZoom(evt,'in')"/>
                <use id="zoomminus" xlink:href="#zoomMin" x="42" y="9" onmousedown="handleZoom(evt,'out')"/>
                <use id="reset" xlink:href="#resetDef" x="30" y="36" onmousedown="handleReset()"/>
                <g id="arrowUp" xlink:href="#dirArrow" transform="translate(30 24)" onmousedown="handlePan(0,-1)">
                  <use xlink:href="#rim" fill="#404040">
                        <set attributeName="fill" to="#808080" begin="arrowUp.mouseover" end="arrowUp.mouseout"/>
                  </use>
                  <path fill="none" stroke="white" stroke-width="1.5" d="M0,-3.0v7 M-2.5,-0.5L0,-3.0L2.5,-0.5"/>
                </g>
                <g id="arrowRight" xlink:href="#dirArrow" transform="rotate(90) translate(36 -43)" onmousedown="handlePan(1,0)">
                  <use xlink:href="#rim" fill="#404040">
                        <set attributeName="fill" to="#808080" begin="arrowRight.mouseover" end="arrowRight.mouseout"/>
                  </use>
                  <path fill="none" stroke="white" stroke-width="1.5" d="M0,-3.0v7 M-2.5,-0.5L0,-3.0L2.5,-0.5"/>
                </g>
                <g id="arrowDown" xlink:href="#dirArrow" transform="rotate(180) translate(-30 -48)" onmousedown="handlePan(0,1)">
                  <use xlink:href="#rim" fill="#404040">
                        <set attributeName="fill" to="#808080" begin="arrowDown.mouseover" end="arrowDown.mouseout"/>
                  </use>
                  <path fill="none" stroke="white" stroke-width="1.5" d="M0,-3.0v7 M-2.5,-0.5L0,-3.0L2.5,-0.5"/>
                </g>
                <g id="arrowLeft" xlink:href="#dirArrow" transform="rotate(270) translate(-36 17)" onmousedown="handlePan(-1,0)">
                  <use xlink:href="#rim" fill="#404040">
                        <set attributeName="fill" to="#808080" begin="arrowLeft.mouseover" end="arrowLeft.mouseout"/>
                  </use>
                  <path fill="none" stroke="white" stroke-width="1.5" d="M0,-3.0v7 M-2.5,-0.5L0,-3.0L2.5,-0.5"/>
                </g>
        </g>
        <svg viewBox="0 0 15 15" width="100%" height="30px" preserveAspectRatio="xMaxYMin meet">
         <g id="arrow_out" transform="scale(0.3 0.3)">
          <a xlink:href="pckbd_8c_a339cad5d366bbf57fa6af1defc073133_cgraph_org.svg" target="_base">
           <rect id="button" ry="5" rx="5" y="6" x="6" height="38" width="38"
                fill="#f2f5e9" fill-opacity="0.5" stroke="#606060" stroke-width="1.0"/>
           <path id="arrow"
             d="M 11.500037,31.436501 C 11.940474,20.09759 22.043105,11.32322 32.158766,21.979434 L 37.068811,17.246167 C 37.068811,17.246167 37.088388,32 37.088388,32 L 22.160133,31.978069 C 22.160133,31.978069 26.997745,27.140456 26.997745,27.140456 C 18.528582,18.264221 13.291696,25.230495 11.500037,31.436501 z"
             style="fill:#404040;"/>
          </a>
         </g>
        </svg>
</svg>
