<?xml version="1.0" encoding="UTF-8" standalone="no"?>
<!DOCTYPE svg PUBLIC "-//W3C//DTD SVG 1.1//EN"
 "http://www.w3.org/Graphics/SVG/1.1/DTD/svg11.dtd">
<!-- Generated by graphviz version 2.44.1 (20200629.0846)
 -->
<!-- Title: _kbdProcessData Pages: 1 -->
<svg width="1260pt" height="280pt"
 viewBox="0.00 0.00 1260.00 279.87" xmlns="http://www.w3.org/2000/svg" xmlns:xlink="http://www.w3.org/1999/xlink">
<g id="graph0" class="graph" transform="scale(1 1) rotate(0) translate(4 275.87)">
<title>_kbdProcessData</title>
<polygon fill="white" stroke="transparent" points="-4,4 -4,-275.87 1256,-275.87 1256,4 -4,4"/>
<!-- Node1 -->
<g id="node1" class="node">
<title>Node1</title>
<g id="a_node1"><a xlink:title=" ">
<polygon fill="#bfbfbf" stroke="black" points="0,-224.37 0,-243.37 95,-243.37 95,-224.37 0,-224.37"/>
<text text-anchor="middle" x="47.5" y="-231.37" font-family="Helvetica,sans-Serif" font-size="10.00">_kbdProcessData</text>
</a>
</g>
</g>
<!-- Node2 -->
<g id="node2" class="node">
<title>Node2</title>
<g id="a_node2"><a xlink:href="cstdout_8h.html#aeb83fa8b17583cf31b5b47925ca68d39" target="_top" xlink:title=" ">
<polygon fill="white" stroke="black" points="131,-224.37 131,-243.37 222,-243.37 222,-224.37 131,-224.37"/>
<text text-anchor="middle" x="176.5" y="-231.37" font-family="Helvetica,sans-Serif" font-size="10.00">consoleErrPrintC</text>
</a>
</g>
</g>
<!-- Node1&#45;&gt;Node2 -->
<g id="edge1" class="edge">
<title>Node1&#45;&gt;Node2</title>
<path fill="none" stroke="midnightblue" d="M95.07,-233.87C103.32,-233.87 111.99,-233.87 120.45,-233.87"/>
<polygon fill="midnightblue" stroke="midnightblue" points="120.63,-237.37 130.63,-233.87 120.63,-230.37 120.63,-237.37"/>
</g>
<!-- Node14 -->
<g id="node14" class="node">
<title>Node14</title>
<g id="a_node14"><a xlink:href="x86_8h.html#ade961b44e45ddacbc3c3b7609cf36dc6" target="_top" xlink:title=" ">
<polygon fill="white" stroke="black" points="1205.5,-205.37 1205.5,-224.37 1240.5,-224.37 1240.5,-205.37 1205.5,-205.37"/>
<text text-anchor="middle" x="1223" y="-212.37" font-family="Helvetica,sans-Serif" font-size="10.00">outb</text>
</a>
</g>
</g>
<!-- Node1&#45;&gt;Node14 -->
<g id="edge22" class="edge">
<title>Node1&#45;&gt;Node14</title>
<path fill="none" stroke="midnightblue" d="M85.68,-243.43C99.8,-246.79 116.07,-250.36 131,-252.87 209.46,-266.04 229.44,-271.87 309,-271.87 309,-271.87 309,-271.87 923,-271.87 1025.34,-271.87 1143.95,-239.25 1195.65,-223.36"/>
<polygon fill="midnightblue" stroke="midnightblue" points="1196.85,-226.65 1205.35,-220.33 1194.76,-219.97 1196.85,-226.65"/>
</g>
<!-- Node18 -->
<g id="node18" class="node">
<title>Node18</title>
<g id="a_node18"><a xlink:href="x86_8h.html#afdc603aa210ab8fd9995ce74940f5d7f" target="_top" xlink:title=" ">
<polygon fill="white" stroke="black" points="162,-186.37 162,-205.37 191,-205.37 191,-186.37 162,-186.37"/>
<text text-anchor="middle" x="176.5" y="-193.37" font-family="Helvetica,sans-Serif" font-size="10.00">inb</text>
</a>
</g>
</g>
<!-- Node1&#45;&gt;Node18 -->
<g id="edge21" class="edge">
<title>Node1&#45;&gt;Node18</title>
<path fill="none" stroke="midnightblue" d="M80.55,-224.28C102.82,-217.61 132.01,-208.88 152.11,-202.86"/>
<polygon fill="midnightblue" stroke="midnightblue" points="153.14,-206.21 161.71,-199.99 151.13,-199.51 153.14,-206.21"/>
</g>
<!-- Node3 -->
<g id="node3" class="node">
<title>Node3</title>
<g id="a_node3"><a xlink:href="namespaceconsole_1_1err.html#a4cd18e4c409b5b17ecec61ce83b05fba" target="_top" xlink:title=" ">
<polygon fill="white" stroke="black" points="258,-224.37 258,-243.37 362,-243.37 362,-224.37 258,-224.37"/>
<text text-anchor="middle" x="310" y="-231.37" font-family="Helvetica,sans-Serif" font-size="10.00">console::err::printVa</text>
</a>
</g>
</g>
<!-- Node2&#45;&gt;Node3 -->
<g id="edge2" class="edge">
<title>Node2&#45;&gt;Node3</title>
<path fill="none" stroke="midnightblue" d="M222.02,-233.87C230.27,-233.87 239.01,-233.87 247.66,-233.87"/>
<polygon fill="midnightblue" stroke="midnightblue" points="247.72,-237.37 257.72,-233.87 247.72,-230.37 247.72,-237.37"/>
</g>
<!-- Node4 -->
<g id="node4" class="node">
<title>Node4</title>
<g id="a_node4"><a xlink:href="namespaceconsole_1_1ge.html#af642934cb833142f133285fdb75ef7b7" target="_top" xlink:title=" ">
<polygon fill="white" stroke="black" points="398,-110.37 398,-129.37 518,-129.37 518,-110.37 398,-110.37"/>
<text text-anchor="middle" x="458" y="-117.37" font-family="Helvetica,sans-Serif" font-size="10.00">console::ge::printFmtVa</text>
</a>
</g>
</g>
<!-- Node3&#45;&gt;Node4 -->
<g id="edge3" class="edge">
<title>Node3&#45;&gt;Node4</title>
<path fill="none" stroke="midnightblue" d="M323.2,-224.34C348.25,-204.78 405.76,-159.88 436.59,-135.8"/>
<polygon fill="midnightblue" stroke="midnightblue" points="438.8,-138.52 444.53,-129.6 434.49,-133 438.8,-138.52"/>
</g>
<!-- Node11 -->
<g id="node11" class="node">
<title>Node11</title>
<g id="a_node11"><a xlink:href="namespaceconsole_1_1out.html#ad9fc97dff4404c2d21aedbb24691e7cb" target="_top" xlink:title=" ">
<polygon fill="white" stroke="black" points="716,-186.37 716,-205.37 826,-205.37 826,-186.37 716,-186.37"/>
<text text-anchor="middle" x="771" y="-193.37" font-family="Helvetica,sans-Serif" font-size="10.00">console::out::putChar</text>
</a>
</g>
</g>
<!-- Node3&#45;&gt;Node11 -->
<g id="edge20" class="edge">
<title>Node3&#45;&gt;Node11</title>
<path fill="none" stroke="midnightblue" d="M362.26,-233.76C433.74,-233.03 567.25,-229.58 680,-214.87 693.5,-213.1 707.99,-210.41 721.32,-207.6"/>
<polygon fill="midnightblue" stroke="midnightblue" points="722.22,-210.98 731.24,-205.44 720.73,-204.14 722.22,-210.98"/>
</g>
<!-- Node5 -->
<g id="node5" class="node">
<title>Node5</title>
<g id="a_node5"><a xlink:href="printfmt_8cc.html#a708ec6ee2b8bd2d7a453d8d9436ed3b3" target="_top" xlink:title=" ">
<polygon fill="white" stroke="black" points="588,-148.37 588,-167.37 646,-167.37 646,-148.37 588,-148.37"/>
<text text-anchor="middle" x="617" y="-155.37" font-family="Helvetica,sans-Serif" font-size="10.00">_getIntVa</text>
</a>
</g>
</g>
<!-- Node4&#45;&gt;Node5 -->
<g id="edge4" class="edge">
<title>Node4&#45;&gt;Node5</title>
<path fill="none" stroke="midnightblue" d="M498.62,-129.46C522.94,-135.34 553.92,-142.84 577.95,-148.66"/>
<polygon fill="midnightblue" stroke="midnightblue" points="577.24,-152.09 587.78,-151.04 578.89,-145.28 577.24,-152.09"/>
</g>
<!-- Node6 -->
<g id="node6" class="node">
<title>Node6</title>
<g id="a_node6"><a xlink:href="printfmt_8cc.html#af4b46892c76c8bfd27efdb20847eb7c8" target="_top" xlink:title=" ">
<polygon fill="white" stroke="black" points="584.5,-110.37 584.5,-129.37 649.5,-129.37 649.5,-110.37 584.5,-110.37"/>
<text text-anchor="middle" x="617" y="-117.37" font-family="Helvetica,sans-Serif" font-size="10.00">_getUIntVa</text>
</a>
</g>
</g>
<!-- Node4&#45;&gt;Node6 -->
<g id="edge5" class="edge">
<title>Node4&#45;&gt;Node6</title>
<path fill="none" stroke="midnightblue" d="M518.35,-119.87C536.91,-119.87 556.98,-119.87 574.07,-119.87"/>
<polygon fill="midnightblue" stroke="midnightblue" points="574.29,-123.37 584.29,-119.87 574.29,-116.37 574.29,-123.37"/>
</g>
<!-- Node7 -->
<g id="node7" class="node">
<title>Node7</title>
<g id="a_node7"><a xlink:href="namespacestr.html#a062221f630647cf300f0dd982c4ed904" target="_top" xlink:title=" ">
<polygon fill="white" stroke="black" points="1194,-25.37 1194,-44.37 1252,-44.37 1252,-25.37 1194,-25.37"/>
<text text-anchor="middle" x="1223" y="-32.37" font-family="Helvetica,sans-Serif" font-size="10.00">str::count</text>
</a>
</g>
</g>
<!-- Node4&#45;&gt;Node7 -->
<g id="edge6" class="edge">
<title>Node4&#45;&gt;Node7</title>
<path fill="none" stroke="midnightblue" d="M465.18,-110.15C478.55,-90.08 512.36,-44.3 554,-24.87 641.33,15.88 673.63,-5.87 770,-5.87 770,-5.87 770,-5.87 923,-5.87 1017.02,-5.87 1126.9,-20.25 1183.68,-28.76"/>
<polygon fill="midnightblue" stroke="midnightblue" points="1183.23,-32.23 1193.64,-30.27 1184.28,-25.31 1183.23,-32.23"/>
</g>
<!-- Node8 -->
<g id="node8" class="node">
<title>Node8</title>
<g id="a_node8"><a xlink:href="printfmt_8cc.html#a0e3e484ece5e75b9f5fbe337f0ae8ae3" target="_top" xlink:title=" ">
<polygon fill="white" stroke="black" points="590.5,-34.37 590.5,-53.37 643.5,-53.37 643.5,-34.37 590.5,-34.37"/>
<text text-anchor="middle" x="617" y="-41.37" font-family="Helvetica,sans-Serif" font-size="10.00">describe</text>
</a>
</g>
</g>
<!-- Node4&#45;&gt;Node8 -->
<g id="edge7" class="edge">
<title>Node4&#45;&gt;Node8</title>
<path fill="none" stroke="midnightblue" d="M475.14,-110.18C493.77,-99.2 525.53,-81.1 554,-67.87 562.61,-63.87 572.09,-59.96 580.98,-56.5"/>
<polygon fill="midnightblue" stroke="midnightblue" points="582.25,-59.76 590.35,-52.93 579.75,-53.22 582.25,-59.76"/>
</g>
<!-- Node10 -->
<g id="node10" class="node">
<title>Node10</title>
<g id="a_node10"><a xlink:href="namespaceconsole_1_1ge.html#a7e301813fd34fde772376afc5fdad95d" target="_top" xlink:title=" ">
<polygon fill="white" stroke="black" points="554,-186.37 554,-205.37 680,-205.37 680,-186.37 554,-186.37"/>
<text text-anchor="middle" x="617" y="-193.37" font-family="Helvetica,sans-Serif" font-size="10.00">console::ge::printNumber</text>
</a>
</g>
</g>
<!-- Node4&#45;&gt;Node10 -->
<g id="edge9" class="edge">
<title>Node4&#45;&gt;Node10</title>
<path fill="none" stroke="midnightblue" d="M472.59,-129.47C490.53,-141.81 523.43,-163.25 554,-176.87 559.08,-179.13 564.5,-181.22 569.95,-183.13"/>
<polygon fill="midnightblue" stroke="midnightblue" points="569.13,-186.55 579.72,-186.37 571.33,-179.9 569.13,-186.55"/>
</g>
<!-- Node4&#45;&gt;Node11 -->
<g id="edge19" class="edge">
<title>Node4&#45;&gt;Node11</title>
<path fill="none" stroke="midnightblue" d="M484.09,-110.27C526.42,-95.67 613.85,-72.41 680,-100.87 716.16,-116.42 744.6,-154.43 759.2,-177.38"/>
<polygon fill="midnightblue" stroke="midnightblue" points="756.39,-179.49 764.6,-186.18 762.36,-175.83 756.39,-179.49"/>
</g>
<!-- Node9 -->
<g id="node9" class="node">
<title>Node9</title>
<g id="a_node9"><a xlink:href="namespacemonitor.html#a318993193c866642f8389a1c1f285739" target="_top" xlink:title=" ">
<polygon fill="white" stroke="black" points="734,-34.37 734,-53.37 808,-53.37 808,-34.37 734,-34.37"/>
<text text-anchor="middle" x="771" y="-41.37" font-family="Helvetica,sans-Serif" font-size="10.00">monitor::fuck</text>
</a>
</g>
</g>
<!-- Node8&#45;&gt;Node9 -->
<g id="edge8" class="edge">
<title>Node8&#45;&gt;Node9</title>
<path fill="none" stroke="midnightblue" d="M643.78,-43.87C665.62,-43.87 697.46,-43.87 723.7,-43.87"/>
<polygon fill="midnightblue" stroke="midnightblue" points="723.82,-47.37 733.82,-43.87 723.82,-40.37 723.82,-47.37"/>
</g>
<!-- Node10&#45;&gt;Node11 -->
<g id="edge10" class="edge">
<title>Node10&#45;&gt;Node11</title>
<path fill="none" stroke="midnightblue" d="M680.26,-195.87C688.66,-195.87 697.28,-195.87 705.71,-195.87"/>
<polygon fill="midnightblue" stroke="midnightblue" points="705.86,-199.37 715.86,-195.87 705.86,-192.37 705.86,-199.37"/>
</g>
<!-- Node12 -->
<g id="node12" class="node">
<title>Node12</title>
<g id="a_node12"><a xlink:href="namespaceconsole_1_1serial.html#a3a7c1f95ae3c24136ea63bb31fdf0391" target="_top" xlink:title=" ">
<polygon fill="white" stroke="black" points="862,-205.37 862,-224.37 982,-224.37 982,-205.37 862,-205.37"/>
<text text-anchor="middle" x="922" y="-212.37" font-family="Helvetica,sans-Serif" font-size="10.00">console::serial::putChar</text>
</a>
</g>
</g>
<!-- Node11&#45;&gt;Node12 -->
<g id="edge11" class="edge">
<title>Node11&#45;&gt;Node12</title>
<path fill="none" stroke="midnightblue" d="M826.21,-202.78C834.53,-203.84 843.2,-204.95 851.79,-206.04"/>
<polygon fill="midnightblue" stroke="midnightblue" points="851.43,-209.52 861.79,-207.32 852.32,-202.58 851.43,-209.52"/>
</g>
<!-- Node15 -->
<g id="node15" class="node">
<title>Node15</title>
<g id="a_node15"><a xlink:href="namespaceconsole_1_1cga.html#afa19057ca041b39682d5d4831c43dfa0" target="_top" xlink:title=" ">
<polygon fill="white" stroke="black" points="865.5,-167.37 865.5,-186.37 978.5,-186.37 978.5,-167.37 865.5,-167.37"/>
<text text-anchor="middle" x="922" y="-174.37" font-family="Helvetica,sans-Serif" font-size="10.00">console::cga::putChar</text>
</a>
</g>
</g>
<!-- Node11&#45;&gt;Node15 -->
<g id="edge14" class="edge">
<title>Node11&#45;&gt;Node15</title>
<path fill="none" stroke="midnightblue" d="M826.21,-188.95C835.66,-187.75 845.58,-186.48 855.3,-185.24"/>
<polygon fill="midnightblue" stroke="midnightblue" points="855.85,-188.7 865.33,-183.97 854.96,-181.76 855.85,-188.7"/>
</g>
<!-- Node13 -->
<g id="node13" class="node">
<title>Node13</title>
<g id="a_node13"><a xlink:href="namespaceconsole_1_1serial.html#aa5605d4537106bb1c2bab72d7d1a5824" target="_top" xlink:title=" ">
<polygon fill="white" stroke="black" points="1036,-205.37 1036,-224.37 1140,-224.37 1140,-205.37 1036,-205.37"/>
<text text-anchor="middle" x="1088" y="-212.37" font-family="Helvetica,sans-Serif" font-size="10.00">console::serial::sout</text>
</a>
</g>
</g>
<!-- Node12&#45;&gt;Node13 -->
<g id="edge12" class="edge">
<title>Node12&#45;&gt;Node13</title>
<path fill="none" stroke="midnightblue" d="M982.21,-214.87C996.31,-214.87 1011.39,-214.87 1025.59,-214.87"/>
<polygon fill="midnightblue" stroke="midnightblue" points="1025.74,-218.37 1035.74,-214.87 1025.74,-211.37 1025.74,-218.37"/>
</g>
<!-- Node13&#45;&gt;Node14 -->
<g id="edge13" class="edge">
<title>Node13&#45;&gt;Node14</title>
<path fill="none" stroke="midnightblue" d="M1140.04,-214.87C1158.85,-214.87 1179.4,-214.87 1195.22,-214.87"/>
<polygon fill="midnightblue" stroke="midnightblue" points="1195.34,-218.37 1205.34,-214.87 1195.34,-211.37 1195.34,-218.37"/>
</g>
<!-- Node16 -->
<g id="node16" class="node">
<title>Node16</title>
<g id="a_node16"><a xlink:href="namespacemem.html#a64d9d05b439041901498c606de606431" target="_top" xlink:title=" ">
<polygon fill="white" stroke="black" points="1055.5,-101.37 1055.5,-120.37 1120.5,-120.37 1120.5,-101.37 1055.5,-101.37"/>
<text text-anchor="middle" x="1088" y="-108.37" font-family="Helvetica,sans-Serif" font-size="10.00">mem::copy</text>
</a>
</g>
</g>
<!-- Node15&#45;&gt;Node16 -->
<g id="edge15" class="edge">
<title>Node15&#45;&gt;Node16</title>
<path fill="none" stroke="midnightblue" d="M946.85,-167.27C975.11,-155.9 1022.35,-136.88 1054.08,-124.12"/>
<polygon fill="midnightblue" stroke="midnightblue" points="1055.42,-127.35 1063.39,-120.37 1052.81,-120.85 1055.42,-127.35"/>
</g>
<!-- Node17 -->
<g id="node17" class="node">
<title>Node17</title>
<g id="a_node17"><a xlink:href="namespaceconsole_1_1cga.html#a06463d4dc68819e30615ba299d02a78f" target="_top" xlink:title=" ">
<polygon fill="white" stroke="black" points="1018,-167.37 1018,-186.37 1158,-186.37 1158,-167.37 1018,-167.37"/>
<text text-anchor="middle" x="1088" y="-174.37" font-family="Helvetica,sans-Serif" font-size="10.00">console::cga::cursorRefresh</text>
</a>
</g>
</g>
<!-- Node15&#45;&gt;Node17 -->
<g id="edge17" class="edge">
<title>Node15&#45;&gt;Node17</title>
<path fill="none" stroke="midnightblue" d="M978.52,-176.87C987.9,-176.87 997.8,-176.87 1007.65,-176.87"/>
<polygon fill="midnightblue" stroke="midnightblue" points="1007.87,-180.37 1017.87,-176.87 1007.87,-173.37 1007.87,-180.37"/>
</g>
<!-- Node16&#45;&gt;Node7 -->
<g id="edge16" class="edge">
<title>Node16&#45;&gt;Node7</title>
<path fill="none" stroke="midnightblue" d="M1105.84,-101.24C1128.73,-88.16 1169.84,-64.67 1196.51,-49.43"/>
<polygon fill="midnightblue" stroke="midnightblue" points="1198.35,-52.41 1205.29,-44.41 1194.87,-46.34 1198.35,-52.41"/>
</g>
<!-- Node17&#45;&gt;Node14 -->
<g id="edge18" class="edge">
<title>Node17&#45;&gt;Node14</title>
<path fill="none" stroke="midnightblue" d="M1124.14,-186.4C1135.01,-189.38 1147.01,-192.72 1158,-195.87 1170.37,-199.41 1184.05,-203.45 1195.57,-206.89"/>
<polygon fill="midnightblue" stroke="midnightblue" points="1194.87,-210.33 1205.45,-209.86 1196.88,-203.63 1194.87,-210.33"/>
</g>
</g>
</svg>
