<?xml version="1.0" encoding="UTF-8" standalone="no"?>
<!DOCTYPE svg PUBLIC "-//W3C//DTD SVG 1.1//EN"
 "http://www.w3.org/Graphics/SVG/1.1/DTD/svg11.dtd">
<!-- Generated by graphviz version 2.44.1 (20200629.0846)
 -->
<!-- Title: kbdGetNextChar Pages: 1 -->
<!--zoomable 280 -->
<svg id="main" version="1.1" xmlns="http://www.w3.org/2000/svg" xmlns:xlink="http://www.w3.org/1999/xlink" xml:space="preserve" onload="init(evt)">
<style type="text/css"><![CDATA[
.edge:hover path { stroke: red; }
.edge:hover polygon { stroke: red; fill: red; }
]]></style>
<script type="text/javascript"><![CDATA[
var edges = document.getElementsByTagName('g');
if (edges && edges.length) {
  for (var i=0;i<edges.length;i++) {
    if (edges[i].id.substr(0,4)=='edge') {
      edges[i].setAttribute('class','edge');
    }
  }
}
]]></script>
        <defs>
                <circle id="rim" cx="0" cy="0" r="7"/>
                <circle id="rim2" cx="0" cy="0" r="3.5"/>
                <g id="zoomPlus">
                        <use xlink:href="#rim" fill="#404040">
                                <set attributeName="fill" to="#808080" begin="zoomplus.mouseover" end="zoomplus.mouseout"/>
                        </use>
                        <path d="M-4,0h8M0,-4v8" fill="none" stroke="white" stroke-width="1.5" pointer-events="none"/>
                </g>
                <g id="zoomMin">
                        <use xlink:href="#rim" fill="#404040">
                                <set attributeName="fill" to="#808080" begin="zoomminus.mouseover" end="zoomminus.mouseout"/>
                        </use>
                        <path d="M-4,0h8" fill="none" stroke="white" stroke-width="1.5" pointer-events="none"/>
                </g>
                <g id="dirArrow">
                        <path fill="none" stroke="white" stroke-width="1.5" d="M0,-3.0v7 M-2.5,-0.5L0,-3.0L2.5,-0.5"/>
                </g>
               <g id="resetDef">
                       <use xlink:href="#rim2" fill="#404040">
                               <set attributeName="fill" to="#808080" begin="reset.mouseover" end="reset.mouseout"/>
                       </use>
               </g>
        </defs>

<script type="text/javascript">
var viewWidth = 1469;
var viewHeight = 280;
var sectionId = 'dynsection-2';
</script>
<script xlink:href="svgpan.js"/>
<svg id="graph" class="graph">
<g id="viewport">
<title>kbdGetNextChar</title>
<polygon fill="white" stroke="transparent" points="-4,4 -4,-275.87 1465,-275.87 1465,4 -4,4"/>
<!-- Node1 -->
<g id="node1" class="node">
<title>Node1</title>
<g id="a_node1"><a xlink:title=" ">
<polygon fill="#bfbfbf" stroke="black" points="0,-224.37 0,-243.37 90,-243.37 90,-224.37 0,-224.37"/>
<text text-anchor="middle" x="45" y="-231.37" font-family="Helvetica,sans-Serif" font-size="10.00">kbdGetNextChar</text>
</a>
</g>
</g>
<!-- Node2 -->
<g id="node2" class="node">
<title>Node2</title>
<g id="a_node2"><a xlink:href="pckbd_8c.html#a339cad5d366bbf57fa6af1defc073133" target="_top" xlink:title=" ">
<polygon fill="white" stroke="black" points="126,-224.37 126,-243.37 173,-243.37 173,-224.37 126,-224.37"/>
<text text-anchor="middle" x="149.5" y="-231.37" font-family="Helvetica,sans-Serif" font-size="10.00">kbdIntr</text>
</a>
</g>
</g>
<!-- Node1&#45;&gt;Node2 -->
<g id="edge1" class="edge">
<title>Node1&#45;&gt;Node2</title>
<path fill="none" stroke="midnightblue" d="M90.06,-233.87C98.67,-233.87 107.54,-233.87 115.7,-233.87"/>
<polygon fill="midnightblue" stroke="midnightblue" points="115.93,-237.37 125.93,-233.87 115.93,-230.37 115.93,-237.37"/>
</g>
<!-- Node3 -->
<g id="node3" class="node">
<title>Node3</title>
<g id="a_node3"><a xlink:href="pckbd_8c.html#a0db494f0bd07d8f429c8b4e345bd6c40" target="_top" xlink:title=" ">
<polygon fill="white" stroke="black" points="209,-224.37 209,-243.37 304,-243.37 304,-224.37 209,-224.37"/>
<text text-anchor="middle" x="256.5" y="-231.37" font-family="Helvetica,sans-Serif" font-size="10.00">_kbdProcessData</text>
</a>
</g>
</g>
<!-- Node2&#45;&gt;Node3 -->
<g id="edge2" class="edge">
<title>Node2&#45;&gt;Node3</title>
<path fill="none" stroke="midnightblue" d="M173.03,-233.87C180.64,-233.87 189.53,-233.87 198.59,-233.87"/>
<polygon fill="midnightblue" stroke="midnightblue" points="198.84,-237.37 208.84,-233.87 198.84,-230.37 198.84,-237.37"/>
</g>
<!-- Node4 -->
<g id="node4" class="node">
<title>Node4</title>
<g id="a_node4"><a xlink:href="cstdout_8h.html#aeb83fa8b17583cf31b5b47925ca68d39" target="_top" xlink:title=" ">
<polygon fill="white" stroke="black" points="340,-224.37 340,-243.37 431,-243.37 431,-224.37 340,-224.37"/>
<text text-anchor="middle" x="385.5" y="-231.37" font-family="Helvetica,sans-Serif" font-size="10.00">consoleErrPrintC</text>
</a>
</g>
</g>
<!-- Node3&#45;&gt;Node4 -->
<g id="edge3" class="edge">
<title>Node3&#45;&gt;Node4</title>
<path fill="none" stroke="midnightblue" d="M304.07,-233.87C312.32,-233.87 320.99,-233.87 329.45,-233.87"/>
<polygon fill="midnightblue" stroke="midnightblue" points="329.63,-237.37 339.63,-233.87 329.63,-230.37 329.63,-237.37"/>
</g>
<!-- Node16 -->
<g id="node16" class="node">
<title>Node16</title>
<g id="a_node16"><a xlink:href="x86_8h.html#ade961b44e45ddacbc3c3b7609cf36dc6" target="_top" xlink:title=" ">
<polygon fill="white" stroke="black" points="1414.5,-205.37 1414.5,-224.37 1449.5,-224.37 1449.5,-205.37 1414.5,-205.37"/>
<text text-anchor="middle" x="1432" y="-212.37" font-family="Helvetica,sans-Serif" font-size="10.00">outb</text>
</a>
</g>
</g>
<!-- Node3&#45;&gt;Node16 -->
<g id="edge24" class="edge">
<title>Node3&#45;&gt;Node16</title>
<path fill="none" stroke="midnightblue" d="M294.68,-243.43C308.8,-246.79 325.07,-250.36 340,-252.87 418.46,-266.04 438.44,-271.87 518,-271.87 518,-271.87 518,-271.87 1132,-271.87 1234.34,-271.87 1352.95,-239.25 1404.65,-223.36"/>
<polygon fill="midnightblue" stroke="midnightblue" points="1405.85,-226.65 1414.35,-220.33 1403.76,-219.97 1405.85,-226.65"/>
</g>
<!-- Node20 -->
<g id="node20" class="node">
<title>Node20</title>
<g id="a_node20"><a xlink:href="x86_8h.html#afdc603aa210ab8fd9995ce74940f5d7f" target="_top" xlink:title=" ">
<polygon fill="white" stroke="black" points="371,-186.37 371,-205.37 400,-205.37 400,-186.37 371,-186.37"/>
<text text-anchor="middle" x="385.5" y="-193.37" font-family="Helvetica,sans-Serif" font-size="10.00">inb</text>
</a>
</g>
</g>
<!-- Node3&#45;&gt;Node20 -->
<g id="edge23" class="edge">
<title>Node3&#45;&gt;Node20</title>
<path fill="none" stroke="midnightblue" d="M289.55,-224.28C311.82,-217.61 341.01,-208.88 361.11,-202.86"/>
<polygon fill="midnightblue" stroke="midnightblue" points="362.14,-206.21 370.71,-199.99 360.13,-199.51 362.14,-206.21"/>
</g>
<!-- Node5 -->
<g id="node5" class="node">
<title>Node5</title>
<g id="a_node5"><a xlink:href="namespaceconsole_1_1err.html#a4cd18e4c409b5b17ecec61ce83b05fba" target="_top" xlink:title=" ">
<polygon fill="white" stroke="black" points="467,-224.37 467,-243.37 571,-243.37 571,-224.37 467,-224.37"/>
<text text-anchor="middle" x="519" y="-231.37" font-family="Helvetica,sans-Serif" font-size="10.00">console::err::printVa</text>
</a>
</g>
</g>
<!-- Node4&#45;&gt;Node5 -->
<g id="edge4" class="edge">
<title>Node4&#45;&gt;Node5</title>
<path fill="none" stroke="midnightblue" d="M431.02,-233.87C439.27,-233.87 448.01,-233.87 456.66,-233.87"/>
<polygon fill="midnightblue" stroke="midnightblue" points="456.72,-237.37 466.72,-233.87 456.72,-230.37 456.72,-237.37"/>
</g>
<!-- Node6 -->
<g id="node6" class="node">
<title>Node6</title>
<g id="a_node6"><a xlink:href="namespaceconsole_1_1ge.html#af642934cb833142f133285fdb75ef7b7" target="_top" xlink:title=" ">
<polygon fill="white" stroke="black" points="607,-110.37 607,-129.37 727,-129.37 727,-110.37 607,-110.37"/>
<text text-anchor="middle" x="667" y="-117.37" font-family="Helvetica,sans-Serif" font-size="10.00">console::ge::printFmtVa</text>
</a>
</g>
</g>
<!-- Node5&#45;&gt;Node6 -->
<g id="edge5" class="edge">
<title>Node5&#45;&gt;Node6</title>
<path fill="none" stroke="midnightblue" d="M532.2,-224.34C557.25,-204.78 614.76,-159.88 645.59,-135.8"/>
<polygon fill="midnightblue" stroke="midnightblue" points="647.8,-138.52 653.53,-129.6 643.49,-133 647.8,-138.52"/>
</g>
<!-- Node13 -->
<g id="node13" class="node">
<title>Node13</title>
<g id="a_node13"><a xlink:href="namespaceconsole_1_1out.html#ad9fc97dff4404c2d21aedbb24691e7cb" target="_top" xlink:title=" ">
<polygon fill="white" stroke="black" points="925,-186.37 925,-205.37 1035,-205.37 1035,-186.37 925,-186.37"/>
<text text-anchor="middle" x="980" y="-193.37" font-family="Helvetica,sans-Serif" font-size="10.00">console::out::putChar</text>
</a>
</g>
</g>
<!-- Node5&#45;&gt;Node13 -->
<g id="edge22" class="edge">
<title>Node5&#45;&gt;Node13</title>
<path fill="none" stroke="midnightblue" d="M571.26,-233.76C642.74,-233.03 776.25,-229.58 889,-214.87 902.5,-213.1 916.99,-210.41 930.32,-207.6"/>
<polygon fill="midnightblue" stroke="midnightblue" points="931.22,-210.98 940.24,-205.44 929.73,-204.14 931.22,-210.98"/>
</g>
<!-- Node7 -->
<g id="node7" class="node">
<title>Node7</title>
<g id="a_node7"><a xlink:href="printfmt_8cc.html#a708ec6ee2b8bd2d7a453d8d9436ed3b3" target="_top" xlink:title=" ">
<polygon fill="white" stroke="black" points="797,-148.37 797,-167.37 855,-167.37 855,-148.37 797,-148.37"/>
<text text-anchor="middle" x="826" y="-155.37" font-family="Helvetica,sans-Serif" font-size="10.00">_getIntVa</text>
</a>
</g>
</g>
<!-- Node6&#45;&gt;Node7 -->
<g id="edge6" class="edge">
<title>Node6&#45;&gt;Node7</title>
<path fill="none" stroke="midnightblue" d="M707.62,-129.46C731.94,-135.34 762.92,-142.84 786.95,-148.66"/>
<polygon fill="midnightblue" stroke="midnightblue" points="786.24,-152.09 796.78,-151.04 787.89,-145.28 786.24,-152.09"/>
</g>
<!-- Node8 -->
<g id="node8" class="node">
<title>Node8</title>
<g id="a_node8"><a xlink:href="printfmt_8cc.html#af4b46892c76c8bfd27efdb20847eb7c8" target="_top" xlink:title=" ">
<polygon fill="white" stroke="black" points="793.5,-110.37 793.5,-129.37 858.5,-129.37 858.5,-110.37 793.5,-110.37"/>
<text text-anchor="middle" x="826" y="-117.37" font-family="Helvetica,sans-Serif" font-size="10.00">_getUIntVa</text>
</a>
</g>
</g>
<!-- Node6&#45;&gt;Node8 -->
<g id="edge7" class="edge">
<title>Node6&#45;&gt;Node8</title>
<path fill="none" stroke="midnightblue" d="M727.35,-119.87C745.91,-119.87 765.98,-119.87 783.07,-119.87"/>
<polygon fill="midnightblue" stroke="midnightblue" points="783.29,-123.37 793.29,-119.87 783.29,-116.37 783.29,-123.37"/>
</g>
<!-- Node9 -->
<g id="node9" class="node">
<title>Node9</title>
<g id="a_node9"><a xlink:href="namespacestr.html#a062221f630647cf300f0dd982c4ed904" target="_top" xlink:title=" ">
<polygon fill="white" stroke="black" points="1403,-25.37 1403,-44.37 1461,-44.37 1461,-25.37 1403,-25.37"/>
<text text-anchor="middle" x="1432" y="-32.37" font-family="Helvetica,sans-Serif" font-size="10.00">str::count</text>
</a>
</g>
</g>
<!-- Node6&#45;&gt;Node9 -->
<g id="edge8" class="edge">
<title>Node6&#45;&gt;Node9</title>
<path fill="none" stroke="midnightblue" d="M674.18,-110.15C687.55,-90.08 721.36,-44.3 763,-24.87 850.33,15.88 882.63,-5.87 979,-5.87 979,-5.87 979,-5.87 1132,-5.87 1226.02,-5.87 1335.9,-20.25 1392.68,-28.76"/>
<polygon fill="midnightblue" stroke="midnightblue" points="1392.23,-32.23 1402.64,-30.27 1393.28,-25.31 1392.23,-32.23"/>
</g>
<!-- Node10 -->
<g id="node10" class="node">
<title>Node10</title>
<g id="a_node10"><a xlink:href="printfmt_8cc.html#a0e3e484ece5e75b9f5fbe337f0ae8ae3" target="_top" xlink:title=" ">
<polygon fill="white" stroke="black" points="799.5,-34.37 799.5,-53.37 852.5,-53.37 852.5,-34.37 799.5,-34.37"/>
<text text-anchor="middle" x="826" y="-41.37" font-family="Helvetica,sans-Serif" font-size="10.00">describe</text>
</a>
</g>
</g>
<!-- Node6&#45;&gt;Node10 -->
<g id="edge9" class="edge">
<title>Node6&#45;&gt;Node10</title>
<path fill="none" stroke="midnightblue" d="M684.14,-110.18C702.77,-99.2 734.53,-81.1 763,-67.87 771.61,-63.87 781.09,-59.96 789.98,-56.5"/>
<polygon fill="midnightblue" stroke="midnightblue" points="791.25,-59.76 799.35,-52.93 788.75,-53.22 791.25,-59.76"/>
</g>
<!-- Node12 -->
<g id="node12" class="node">
<title>Node12</title>
<g id="a_node12"><a xlink:href="namespaceconsole_1_1ge.html#a7e301813fd34fde772376afc5fdad95d" target="_top" xlink:title=" ">
<polygon fill="white" stroke="black" points="763,-186.37 763,-205.37 889,-205.37 889,-186.37 763,-186.37"/>
<text text-anchor="middle" x="826" y="-193.37" font-family="Helvetica,sans-Serif" font-size="10.00">console::ge::printNumber</text>
</a>
</g>
</g>
<!-- Node6&#45;&gt;Node12 -->
<g id="edge11" class="edge">
<title>Node6&#45;&gt;Node12</title>
<path fill="none" stroke="midnightblue" d="M681.59,-129.47C699.53,-141.81 732.43,-163.25 763,-176.87 768.08,-179.13 773.5,-181.22 778.95,-183.13"/>
<polygon fill="midnightblue" stroke="midnightblue" points="778.13,-186.55 788.72,-186.37 780.33,-179.9 778.13,-186.55"/>
</g>
<!-- Node6&#45;&gt;Node13 -->
<g id="edge21" class="edge">
<title>Node6&#45;&gt;Node13</title>
<path fill="none" stroke="midnightblue" d="M693.09,-110.27C735.42,-95.67 822.85,-72.41 889,-100.87 925.16,-116.42 953.6,-154.43 968.2,-177.38"/>
<polygon fill="midnightblue" stroke="midnightblue" points="965.39,-179.49 973.6,-186.18 971.36,-175.83 965.39,-179.49"/>
</g>
<!-- Node11 -->
<g id="node11" class="node">
<title>Node11</title>
<g id="a_node11"><a xlink:href="namespacemonitor.html#a318993193c866642f8389a1c1f285739" target="_top" xlink:title=" ">
<polygon fill="white" stroke="black" points="943,-34.37 943,-53.37 1017,-53.37 1017,-34.37 943,-34.37"/>
<text text-anchor="middle" x="980" y="-41.37" font-family="Helvetica,sans-Serif" font-size="10.00">monitor::fuck</text>
</a>
</g>
</g>
<!-- Node10&#45;&gt;Node11 -->
<g id="edge10" class="edge">
<title>Node10&#45;&gt;Node11</title>
<path fill="none" stroke="midnightblue" d="M852.78,-43.87C874.62,-43.87 906.46,-43.87 932.7,-43.87"/>
<polygon fill="midnightblue" stroke="midnightblue" points="932.82,-47.37 942.82,-43.87 932.82,-40.37 932.82,-47.37"/>
</g>
<!-- Node12&#45;&gt;Node13 -->
<g id="edge12" class="edge">
<title>Node12&#45;&gt;Node13</title>
<path fill="none" stroke="midnightblue" d="M889.26,-195.87C897.66,-195.87 906.28,-195.87 914.71,-195.87"/>
<polygon fill="midnightblue" stroke="midnightblue" points="914.86,-199.37 924.86,-195.87 914.86,-192.37 914.86,-199.37"/>
</g>
<!-- Node14 -->
<g id="node14" class="node">
<title>Node14</title>
<g id="a_node14"><a xlink:href="namespaceconsole_1_1serial.html#a3a7c1f95ae3c24136ea63bb31fdf0391" target="_top" xlink:title=" ">
<polygon fill="white" stroke="black" points="1071,-205.37 1071,-224.37 1191,-224.37 1191,-205.37 1071,-205.37"/>
<text text-anchor="middle" x="1131" y="-212.37" font-family="Helvetica,sans-Serif" font-size="10.00">console::serial::putChar</text>
</a>
</g>
</g>
<!-- Node13&#45;&gt;Node14 -->
<g id="edge13" class="edge">
<title>Node13&#45;&gt;Node14</title>
<path fill="none" stroke="midnightblue" d="M1035.21,-202.78C1043.53,-203.84 1052.2,-204.95 1060.79,-206.04"/>
<polygon fill="midnightblue" stroke="midnightblue" points="1060.43,-209.52 1070.79,-207.32 1061.32,-202.58 1060.43,-209.52"/>
</g>
<!-- Node17 -->
<g id="node17" class="node">
<title>Node17</title>
<g id="a_node17"><a xlink:href="namespaceconsole_1_1cga.html#afa19057ca041b39682d5d4831c43dfa0" target="_top" xlink:title=" ">
<polygon fill="white" stroke="black" points="1074.5,-167.37 1074.5,-186.37 1187.5,-186.37 1187.5,-167.37 1074.5,-167.37"/>
<text text-anchor="middle" x="1131" y="-174.37" font-family="Helvetica,sans-Serif" font-size="10.00">console::cga::putChar</text>
</a>
</g>
</g>
<!-- Node13&#45;&gt;Node17 -->
<g id="edge16" class="edge">
<title>Node13&#45;&gt;Node17</title>
<path fill="none" stroke="midnightblue" d="M1035.21,-188.95C1044.66,-187.75 1054.58,-186.48 1064.3,-185.24"/>
<polygon fill="midnightblue" stroke="midnightblue" points="1064.85,-188.7 1074.33,-183.97 1063.96,-181.76 1064.85,-188.7"/>
</g>
<!-- Node15 -->
<g id="node15" class="node">
<title>Node15</title>
<g id="a_node15"><a xlink:href="namespaceconsole_1_1serial.html#aa5605d4537106bb1c2bab72d7d1a5824" target="_top" xlink:title=" ">
<polygon fill="white" stroke="black" points="1245,-205.37 1245,-224.37 1349,-224.37 1349,-205.37 1245,-205.37"/>
<text text-anchor="middle" x="1297" y="-212.37" font-family="Helvetica,sans-Serif" font-size="10.00">console::serial::sout</text>
</a>
</g>
</g>
<!-- Node14&#45;&gt;Node15 -->
<g id="edge14" class="edge">
<title>Node14&#45;&gt;Node15</title>
<path fill="none" stroke="midnightblue" d="M1191.21,-214.87C1205.31,-214.87 1220.39,-214.87 1234.59,-214.87"/>
<polygon fill="midnightblue" stroke="midnightblue" points="1234.74,-218.37 1244.74,-214.87 1234.74,-211.37 1234.74,-218.37"/>
</g>
<!-- Node15&#45;&gt;Node16 -->
<g id="edge15" class="edge">
<title>Node15&#45;&gt;Node16</title>
<path fill="none" stroke="midnightblue" d="M1349.04,-214.87C1367.85,-214.87 1388.4,-214.87 1404.22,-214.87"/>
<polygon fill="midnightblue" stroke="midnightblue" points="1404.34,-218.37 1414.34,-214.87 1404.34,-211.37 1404.34,-218.37"/>
</g>
<!-- Node18 -->
<g id="node18" class="node">
<title>Node18</title>
<g id="a_node18"><a xlink:href="namespacemem.html#a64d9d05b439041901498c606de606431" target="_top" xlink:title=" ">
<polygon fill="white" stroke="black" points="1264.5,-101.37 1264.5,-120.37 1329.5,-120.37 1329.5,-101.37 1264.5,-101.37"/>
<text text-anchor="middle" x="1297" y="-108.37" font-family="Helvetica,sans-Serif" font-size="10.00">mem::copy</text>
</a>
</g>
</g>
<!-- Node17&#45;&gt;Node18 -->
<g id="edge17" class="edge">
<title>Node17&#45;&gt;Node18</title>
<path fill="none" stroke="midnightblue" d="M1155.85,-167.27C1184.11,-155.9 1231.35,-136.88 1263.08,-124.12"/>
<polygon fill="midnightblue" stroke="midnightblue" points="1264.42,-127.35 1272.39,-120.37 1261.81,-120.85 1264.42,-127.35"/>
</g>
<!-- Node19 -->
<g id="node19" class="node">
<title>Node19</title>
<g id="a_node19"><a xlink:href="namespaceconsole_1_1cga.html#a06463d4dc68819e30615ba299d02a78f" target="_top" xlink:title=" ">
<polygon fill="white" stroke="black" points="1227,-167.37 1227,-186.37 1367,-186.37 1367,-167.37 1227,-167.37"/>
<text text-anchor="middle" x="1297" y="-174.37" font-family="Helvetica,sans-Serif" font-size="10.00">console::cga::cursorRefresh</text>
</a>
</g>
</g>
<!-- Node17&#45;&gt;Node19 -->
<g id="edge19" class="edge">
<title>Node17&#45;&gt;Node19</title>
<path fill="none" stroke="midnightblue" d="M1187.52,-176.87C1196.9,-176.87 1206.8,-176.87 1216.65,-176.87"/>
<polygon fill="midnightblue" stroke="midnightblue" points="1216.87,-180.37 1226.87,-176.87 1216.87,-173.37 1216.87,-180.37"/>
</g>
<!-- Node18&#45;&gt;Node9 -->
<g id="edge18" class="edge">
<title>Node18&#45;&gt;Node9</title>
<path fill="none" stroke="midnightblue" d="M1314.84,-101.24C1337.73,-88.16 1378.84,-64.67 1405.51,-49.43"/>
<polygon fill="midnightblue" stroke="midnightblue" points="1407.35,-52.41 1414.29,-44.41 1403.87,-46.34 1407.35,-52.41"/>
</g>
<!-- Node19&#45;&gt;Node16 -->
<g id="edge20" class="edge">
<title>Node19&#45;&gt;Node16</title>
<path fill="none" stroke="midnightblue" d="M1333.14,-186.4C1344.01,-189.38 1356.01,-192.72 1367,-195.87 1379.37,-199.41 1393.05,-203.45 1404.57,-206.89"/>
<polygon fill="midnightblue" stroke="midnightblue" points="1403.87,-210.33 1414.45,-209.86 1405.88,-203.63 1403.87,-210.33"/>
</g>
</g>
</svg>
        <g id="navigator" transform="translate(0 0)" fill="#404254">
                <rect fill="#f2f5e9" fill-opacity="0.5" stroke="#606060" stroke-width=".5" x="0" y="0" width="60" height="60"/>
                <use id="zoomplus" xlink:href="#zoomPlus" x="17" y="9" onmousedown="handleZoom(evt,'in')"/>
                <use id="zoomminus" xlink:href="#zoomMin" x="42" y="9" onmousedown="handleZoom(evt,'out')"/>
                <use id="reset" xlink:href="#resetDef" x="30" y="36" onmousedown="handleReset()"/>
                <g id="arrowUp" xlink:href="#dirArrow" transform="translate(30 24)" onmousedown="handlePan(0,-1)">
                  <use xlink:href="#rim" fill="#404040">
                        <set attributeName="fill" to="#808080" begin="arrowUp.mouseover" end="arrowUp.mouseout"/>
                  </use>
                  <path fill="none" stroke="white" stroke-width="1.5" d="M0,-3.0v7 M-2.5,-0.5L0,-3.0L2.5,-0.5"/>
                </g>
                <g id="arrowRight" xlink:href="#dirArrow" transform="rotate(90) translate(36 -43)" onmousedown="handlePan(1,0)">
                  <use xlink:href="#rim" fill="#404040">
                        <set attributeName="fill" to="#808080" begin="arrowRight.mouseover" end="arrowRight.mouseout"/>
                  </use>
                  <path fill="none" stroke="white" stroke-width="1.5" d="M0,-3.0v7 M-2.5,-0.5L0,-3.0L2.5,-0.5"/>
                </g>
                <g id="arrowDown" xlink:href="#dirArrow" transform="rotate(180) translate(-30 -48)" onmousedown="handlePan(0,1)">
                  <use xlink:href="#rim" fill="#404040">
                        <set attributeName="fill" to="#808080" begin="arrowDown.mouseover" end="arrowDown.mouseout"/>
                  </use>
                  <path fill="none" stroke="white" stroke-width="1.5" d="M0,-3.0v7 M-2.5,-0.5L0,-3.0L2.5,-0.5"/>
                </g>
                <g id="arrowLeft" xlink:href="#dirArrow" transform="rotate(270) translate(-36 17)" onmousedown="handlePan(-1,0)">
                  <use xlink:href="#rim" fill="#404040">
                        <set attributeName="fill" to="#808080" begin="arrowLeft.mouseover" end="arrowLeft.mouseout"/>
                  </use>
                  <path fill="none" stroke="white" stroke-width="1.5" d="M0,-3.0v7 M-2.5,-0.5L0,-3.0L2.5,-0.5"/>
                </g>
        </g>
        <svg viewBox="0 0 15 15" width="100%" height="30px" preserveAspectRatio="xMaxYMin meet">
         <g id="arrow_out" transform="scale(0.3 0.3)">
          <a xlink:href="pckbd_8c_a536afae5a089a537a289b7d57d9c4a0b_cgraph_org.svg" target="_base">
           <rect id="button" ry="5" rx="5" y="6" x="6" height="38" width="38"
                fill="#f2f5e9" fill-opacity="0.5" stroke="#606060" stroke-width="1.0"/>
           <path id="arrow"
             d="M 11.500037,31.436501 C 11.940474,20.09759 22.043105,11.32322 32.158766,21.979434 L 37.068811,17.246167 C 37.068811,17.246167 37.088388,32 37.088388,32 L 22.160133,31.978069 C 22.160133,31.978069 26.997745,27.140456 26.997745,27.140456 C 18.528582,18.264221 13.291696,25.230495 11.500037,31.436501 z"
             style="fill:#404040;"/>
          </a>
         </g>
        </svg>
</svg>
