<?xml version="1.0" encoding="UTF-8" standalone="no"?>
<!DOCTYPE svg PUBLIC "-//W3C//DTD SVG 1.1//EN"
 "http://www.w3.org/Graphics/SVG/1.1/DTD/svg11.dtd">
<!-- Generated by graphviz version 2.44.1 (20200629.0846)
 -->
<!-- Title: pckbd.c Pages: 1 -->
<svg width="447pt" height="196pt"
 viewBox="0.00 0.00 446.50 196.00" xmlns="http://www.w3.org/2000/svg" xmlns:xlink="http://www.w3.org/1999/xlink">
<g id="graph0" class="graph" transform="scale(1 1) rotate(0) translate(4 192)">
<title>pckbd.c</title>
<polygon fill="white" stroke="transparent" points="-4,4 -4,-192 442.5,-192 442.5,4 -4,4"/>
<!-- Node1 -->
<g id="node1" class="node">
<title>Node1</title>
<g id="a_node1"><a xlink:title=" ">
<polygon fill="#bfbfbf" stroke="black" points="169.5,-168.5 169.5,-187.5 220.5,-187.5 220.5,-168.5 169.5,-168.5"/>
<text text-anchor="middle" x="195" y="-175.5" font-family="Helvetica,sans-Serif" font-size="10.00">pckbd.c</text>
</a>
</g>
</g>
<!-- Node2 -->
<g id="node2" class="node">
<title>Node2</title>
<g id="a_node2"><a xlink:href="pckbd_8h.html" target="_top" xlink:title=" ">
<polygon fill="white" stroke="black" points="22,-112.5 22,-131.5 102,-131.5 102,-112.5 22,-112.5"/>
<text text-anchor="middle" x="62" y="-119.5" font-family="Helvetica,sans-Serif" font-size="10.00">kernel/pckbd.h</text>
</a>
</g>
</g>
<!-- Node1&#45;&gt;Node2 -->
<g id="edge1" class="edge">
<title>Node1&#45;&gt;Node2</title>
<path fill="none" stroke="midnightblue" d="M173.93,-168.44C151.94,-159.52 117.27,-145.44 92.34,-135.32"/>
<polygon fill="midnightblue" stroke="midnightblue" points="93.56,-132.04 82.98,-131.52 90.92,-138.52 93.56,-132.04"/>
</g>
<!-- Node4 -->
<g id="node4" class="node">
<title>Node4</title>
<g id="a_node4"><a xlink:href="types_8h.html" target="_top" xlink:title=" ">
<polygon fill="white" stroke="black" points="106.5,-56.5 106.5,-75.5 189.5,-75.5 189.5,-56.5 106.5,-56.5"/>
<text text-anchor="middle" x="148" y="-63.5" font-family="Helvetica,sans-Serif" font-size="10.00">include/types.h</text>
</a>
</g>
</g>
<!-- Node1&#45;&gt;Node4 -->
<g id="edge12" class="edge">
<title>Node1&#45;&gt;Node4</title>
<path fill="none" stroke="midnightblue" d="M181.71,-168.48C170.66,-160.54 155.7,-147.6 149,-132 142.73,-117.42 143.05,-99.24 144.61,-85.82"/>
<polygon fill="midnightblue" stroke="midnightblue" points="148.08,-86.26 146.09,-75.85 141.16,-85.23 148.08,-86.26"/>
</g>
<!-- Node8 -->
<g id="node8" class="node">
<title>Node8</title>
<g id="a_node8"><a xlink:href="x86_8h.html" target="_top" xlink:title=" ">
<polygon fill="white" stroke="black" points="158,-112.5 158,-131.5 232,-131.5 232,-112.5 158,-112.5"/>
<text text-anchor="middle" x="195" y="-119.5" font-family="Helvetica,sans-Serif" font-size="10.00">include/x86.h</text>
</a>
</g>
</g>
<!-- Node1&#45;&gt;Node8 -->
<g id="edge8" class="edge">
<title>Node1&#45;&gt;Node8</title>
<path fill="none" stroke="midnightblue" d="M195,-168.08C195,-161.01 195,-150.86 195,-141.99"/>
<polygon fill="midnightblue" stroke="midnightblue" points="198.5,-141.75 195,-131.75 191.5,-141.75 198.5,-141.75"/>
</g>
<!-- Node9 -->
<g id="node9" class="node">
<title>Node9</title>
<g id="a_node9"><a xlink:href="cstdout_8h.html" target="_top" xlink:title=" ">
<polygon fill="white" stroke="black" points="250.5,-112.5 250.5,-131.5 341.5,-131.5 341.5,-112.5 250.5,-112.5"/>
<text text-anchor="middle" x="296" y="-119.5" font-family="Helvetica,sans-Serif" font-size="10.00">include/cstdout.h</text>
</a>
</g>
</g>
<!-- Node1&#45;&gt;Node9 -->
<g id="edge10" class="edge">
<title>Node1&#45;&gt;Node9</title>
<path fill="none" stroke="midnightblue" d="M211.23,-168.32C227.35,-159.7 252.3,-146.36 270.96,-136.39"/>
<polygon fill="midnightblue" stroke="midnightblue" points="272.64,-139.46 279.81,-131.65 269.34,-133.28 272.64,-139.46"/>
</g>
<!-- Node10 -->
<g id="node10" class="node">
<title>Node10</title>
<g id="a_node10"><a xlink:href="color_8h.html" target="_top" xlink:title=" ">
<polygon fill="white" stroke="black" points="359.5,-112.5 359.5,-131.5 438.5,-131.5 438.5,-112.5 359.5,-112.5"/>
<text text-anchor="middle" x="399" y="-119.5" font-family="Helvetica,sans-Serif" font-size="10.00">include/color.h</text>
</a>
</g>
</g>
<!-- Node1&#45;&gt;Node10 -->
<g id="edge11" class="edge">
<title>Node1&#45;&gt;Node10</title>
<path fill="none" stroke="midnightblue" d="M220.84,-170.16C255.11,-161.09 316.03,-144.96 356.97,-134.13"/>
<polygon fill="midnightblue" stroke="midnightblue" points="357.89,-137.5 366.66,-131.56 356.1,-130.74 357.89,-137.5"/>
</g>
<!-- Node3 -->
<g id="node3" class="node">
<title>Node3</title>
<g id="a_node3"><a xlink:href="knlast_8inc.html" target="_top" xlink:title=" ">
<polygon fill="white" stroke="black" points="0,-56.5 0,-75.5 88,-75.5 88,-56.5 0,-56.5"/>
<text text-anchor="middle" x="44" y="-63.5" font-family="Helvetica,sans-Serif" font-size="10.00">kernel/knlast.inc</text>
</a>
</g>
</g>
<!-- Node2&#45;&gt;Node3 -->
<g id="edge2" class="edge">
<title>Node2&#45;&gt;Node3</title>
<path fill="none" stroke="midnightblue" d="M59.03,-112.08C56.62,-104.85 53.14,-94.41 50.13,-85.4"/>
<polygon fill="midnightblue" stroke="midnightblue" points="53.4,-84.13 46.92,-75.75 46.76,-86.34 53.4,-84.13"/>
</g>
<!-- Node2&#45;&gt;Node4 -->
<g id="edge3" class="edge">
<title>Node2&#45;&gt;Node4</title>
<path fill="none" stroke="midnightblue" d="M75.82,-112.32C89.23,-103.9 109.82,-90.97 125.59,-81.07"/>
<polygon fill="midnightblue" stroke="midnightblue" points="127.61,-83.94 134.22,-75.65 123.89,-78.01 127.61,-83.94"/>
</g>
<!-- Node5 -->
<g id="node5" class="node">
<title>Node5</title>
<g id="a_node5"><a xlink:title=" ">
<polygon fill="white" stroke="#bfbfbf" points="20,-0.5 20,-19.5 72,-19.5 72,-0.5 20,-0.5"/>
<text text-anchor="middle" x="46" y="-7.5" font-family="Helvetica,sans-Serif" font-size="10.00">stddef.h</text>
</a>
</g>
</g>
<!-- Node4&#45;&gt;Node5 -->
<g id="edge4" class="edge">
<title>Node4&#45;&gt;Node5</title>
<path fill="none" stroke="midnightblue" d="M131.61,-56.32C115.33,-47.7 90.13,-34.36 71.28,-24.39"/>
<polygon fill="midnightblue" stroke="midnightblue" points="72.82,-21.24 62.35,-19.65 69.55,-27.43 72.82,-21.24"/>
</g>
<!-- Node6 -->
<g id="node6" class="node">
<title>Node6</title>
<g id="a_node6"><a xlink:title=" ">
<polygon fill="white" stroke="#bfbfbf" points="90.5,-0.5 90.5,-19.5 139.5,-19.5 139.5,-0.5 90.5,-0.5"/>
<text text-anchor="middle" x="115" y="-7.5" font-family="Helvetica,sans-Serif" font-size="10.00">stdint.h</text>
</a>
</g>
</g>
<!-- Node4&#45;&gt;Node6 -->
<g id="edge5" class="edge">
<title>Node4&#45;&gt;Node6</title>
<path fill="none" stroke="midnightblue" d="M142.55,-56.08C137.99,-48.61 131.33,-37.72 125.71,-28.52"/>
<polygon fill="midnightblue" stroke="midnightblue" points="128.55,-26.46 120.35,-19.75 122.58,-30.11 128.55,-26.46"/>
</g>
<!-- Node7 -->
<g id="node7" class="node">
<title>Node7</title>
<g id="a_node7"><a xlink:href="ctype_8h.html" target="_top" xlink:title=" ">
<polygon fill="white" stroke="black" points="157.5,-0.5 157.5,-19.5 206.5,-19.5 206.5,-0.5 157.5,-0.5"/>
<text text-anchor="middle" x="182" y="-7.5" font-family="Helvetica,sans-Serif" font-size="10.00">ctype.h</text>
</a>
</g>
</g>
<!-- Node4&#45;&gt;Node7 -->
<g id="edge6" class="edge">
<title>Node4&#45;&gt;Node7</title>
<path fill="none" stroke="midnightblue" d="M148.45,-56.08C151.67,-48.38 158.44,-37.03 165.23,-27.65"/>
<polygon fill="midnightblue" stroke="midnightblue" points="167.99,-29.8 171.36,-19.75 162.46,-25.5 167.99,-29.8"/>
</g>
<!-- Node7&#45;&gt;Node4 -->
<g id="edge7" class="edge">
<title>Node7&#45;&gt;Node4</title>
<path fill="none" stroke="midnightblue" d="M181.62,-19.75C178.45,-27.4 171.7,-38.74 164.92,-48.14"/>
<polygon fill="midnightblue" stroke="midnightblue" points="162.13,-46.03 158.78,-56.08 167.67,-50.31 162.13,-46.03"/>
</g>
<!-- Node8&#45;&gt;Node4 -->
<g id="edge9" class="edge">
<title>Node8&#45;&gt;Node4</title>
<path fill="none" stroke="midnightblue" d="M187.24,-112.08C180.46,-104.3 170.46,-92.8 162.24,-83.37"/>
<polygon fill="midnightblue" stroke="midnightblue" points="164.82,-81 155.62,-75.75 159.54,-85.59 164.82,-81"/>
</g>
</g>
</svg>
