<?xml version="1.0" encoding="UTF-8" standalone="no"?>
<!DOCTYPE svg PUBLIC "-//W3C//DTD SVG 1.1//EN"
 "http://www.w3.org/Graphics/SVG/1.1/DTD/svg11.dtd">
<!-- Generated by graphviz version 2.44.1 (20200629.0846)
 -->
<!-- Title: kbdInit Pages: 1 -->
<!--zoomable 323 -->
<svg id="main" version="1.1" xmlns="http://www.w3.org/2000/svg" xmlns:xlink="http://www.w3.org/1999/xlink" xml:space="preserve" onload="init(evt)">
<style type="text/css"><![CDATA[
.edge:hover path { stroke: red; }
.edge:hover polygon { stroke: red; fill: red; }
]]></style>
<script type="text/javascript"><![CDATA[
var edges = document.getElementsByTagName('g');
if (edges && edges.length) {
  for (var i=0;i<edges.length;i++) {
    if (edges[i].id.substr(0,4)=='edge') {
      edges[i].setAttribute('class','edge');
    }
  }
}
]]></script>
        <defs>
                <circle id="rim" cx="0" cy="0" r="7"/>
                <circle id="rim2" cx="0" cy="0" r="3.5"/>
                <g id="zoomPlus">
                        <use xlink:href="#rim" fill="#404040">
                                <set attributeName="fill" to="#808080" begin="zoomplus.mouseover" end="zoomplus.mouseout"/>
                        </use>
                        <path d="M-4,0h8M0,-4v8" fill="none" stroke="white" stroke-width="1.5" pointer-events="none"/>
                </g>
                <g id="zoomMin">
                        <use xlink:href="#rim" fill="#404040">
                                <set attributeName="fill" to="#808080" begin="zoomminus.mouseover" end="zoomminus.mouseout"/>
                        </use>
                        <path d="M-4,0h8" fill="none" stroke="white" stroke-width="1.5" pointer-events="none"/>
                </g>
                <g id="dirArrow">
                        <path fill="none" stroke="white" stroke-width="1.5" d="M0,-3.0v7 M-2.5,-0.5L0,-3.0L2.5,-0.5"/>
                </g>
               <g id="resetDef">
                       <use xlink:href="#rim2" fill="#404040">
                               <set attributeName="fill" to="#808080" begin="reset.mouseover" end="reset.mouseout"/>
                       </use>
               </g>
        </defs>

<script type="text/javascript">
var viewWidth = 1344;
var viewHeight = 323;
var sectionId = 'dynsection-3';
</script>
<script xlink:href="svgpan.js"/>
<svg id="graph" class="graph">
<g id="viewport">
<title>kbdInit</title>
<polygon fill="white" stroke="transparent" points="-4,4 -4,-318.56 1340,-318.56 1340,4 -4,4"/>
<!-- Node1 -->
<g id="node1" class="node">
<title>Node1</title>
<g id="a_node1"><a xlink:title=" ">
<polygon fill="#bfbfbf" stroke="black" points="0,-67.06 0,-86.06 46,-86.06 46,-67.06 0,-67.06"/>
<text text-anchor="middle" x="23" y="-74.06" font-family="Helvetica,sans-Serif" font-size="10.00">kbdInit</text>
</a>
</g>
</g>
<!-- Node2 -->
<g id="node2" class="node">
<title>Node2</title>
<g id="a_node2"><a xlink:href="pckbd_8c.html#a0db494f0bd07d8f429c8b4e345bd6c40" target="_top" xlink:title=" ">
<polygon fill="white" stroke="black" points="82,-48.06 82,-67.06 177,-67.06 177,-48.06 82,-48.06"/>
<text text-anchor="middle" x="129.5" y="-55.06" font-family="Helvetica,sans-Serif" font-size="10.00">_kbdProcessData</text>
</a>
</g>
</g>
<!-- Node1&#45;&gt;Node2 -->
<g id="edge1" class="edge">
<title>Node1&#45;&gt;Node2</title>
<path fill="none" stroke="midnightblue" d="M46.16,-72.53C53.82,-71.14 62.78,-69.51 71.92,-67.85"/>
<polygon fill="midnightblue" stroke="midnightblue" points="72.64,-71.27 81.86,-66.04 71.39,-64.39 72.64,-71.27"/>
</g>
<!-- Node20 -->
<g id="node20" class="node">
<title>Node20</title>
<g id="a_node20"><a xlink:href="cstdout_8h.html#abc6032173c444037318e3950bc1a835f" target="_top" xlink:title=" ">
<polygon fill="white" stroke="black" points="82.5,-95.06 82.5,-114.06 176.5,-114.06 176.5,-95.06 82.5,-95.06"/>
<text text-anchor="middle" x="129.5" y="-102.06" font-family="Helvetica,sans-Serif" font-size="10.00">consoleOutPrintC</text>
</a>
</g>
</g>
<!-- Node1&#45;&gt;Node20 -->
<g id="edge24" class="edge">
<title>Node1&#45;&gt;Node20</title>
<path fill="none" stroke="midnightblue" d="M46.16,-82.5C56.85,-85.36 70.08,-88.91 82.78,-92.31"/>
<polygon fill="midnightblue" stroke="midnightblue" points="82.24,-95.79 92.8,-94.99 84.05,-89.03 82.24,-95.79"/>
</g>
<!-- Node3 -->
<g id="node3" class="node">
<title>Node3</title>
<g id="a_node3"><a xlink:href="cstdout_8h.html#aeb83fa8b17583cf31b5b47925ca68d39" target="_top" xlink:title=" ">
<polygon fill="white" stroke="black" points="213,-67.06 213,-86.06 304,-86.06 304,-67.06 213,-67.06"/>
<text text-anchor="middle" x="258.5" y="-74.06" font-family="Helvetica,sans-Serif" font-size="10.00">consoleErrPrintC</text>
</a>
</g>
</g>
<!-- Node2&#45;&gt;Node3 -->
<g id="edge2" class="edge">
<title>Node2&#45;&gt;Node3</title>
<path fill="none" stroke="midnightblue" d="M177.07,-64.53C185.41,-65.78 194.18,-67.09 202.73,-68.37"/>
<polygon fill="midnightblue" stroke="midnightblue" points="202.22,-71.83 212.63,-69.85 203.26,-64.91 202.22,-71.83"/>
</g>
<!-- Node15 -->
<g id="node15" class="node">
<title>Node15</title>
<g id="a_node15"><a xlink:href="x86_8h.html#ade961b44e45ddacbc3c3b7609cf36dc6" target="_top" xlink:title=" ">
<polygon fill="white" stroke="black" points="1289.5,-60.06 1289.5,-79.06 1324.5,-79.06 1324.5,-60.06 1289.5,-60.06"/>
<text text-anchor="middle" x="1307" y="-67.06" font-family="Helvetica,sans-Serif" font-size="10.00">outb</text>
</a>
</g>
</g>
<!-- Node2&#45;&gt;Node15 -->
<g id="edge23" class="edge">
<title>Node2&#45;&gt;Node15</title>
<path fill="none" stroke="midnightblue" d="M146.95,-48.02C163.18,-39.1 188.98,-26.17 213,-19.56 290.13,1.68 312,-0.56 392,-0.56 392,-0.56 392,-0.56 1007,-0.56 1110.17,-0.56 1228.35,-40.05 1279.8,-59.28"/>
<polygon fill="midnightblue" stroke="midnightblue" points="1278.86,-62.67 1289.45,-62.94 1281.35,-56.12 1278.86,-62.67"/>
</g>
<!-- Node19 -->
<g id="node19" class="node">
<title>Node19</title>
<g id="a_node19"><a xlink:href="x86_8h.html#afdc603aa210ab8fd9995ce74940f5d7f" target="_top" xlink:title=" ">
<polygon fill="white" stroke="black" points="244,-29.06 244,-48.06 273,-48.06 273,-29.06 244,-29.06"/>
<text text-anchor="middle" x="258.5" y="-36.06" font-family="Helvetica,sans-Serif" font-size="10.00">inb</text>
</a>
</g>
</g>
<!-- Node2&#45;&gt;Node19 -->
<g id="edge22" class="edge">
<title>Node2&#45;&gt;Node19</title>
<path fill="none" stroke="midnightblue" d="M177.07,-50.59C196.4,-47.7 217.98,-44.47 233.92,-42.09"/>
<polygon fill="midnightblue" stroke="midnightblue" points="234.58,-45.53 243.95,-40.59 233.55,-38.6 234.58,-45.53"/>
</g>
<!-- Node4 -->
<g id="node4" class="node">
<title>Node4</title>
<g id="a_node4"><a xlink:href="namespaceconsole_1_1err.html#a4cd18e4c409b5b17ecec61ce83b05fba" target="_top" xlink:title=" ">
<polygon fill="white" stroke="black" points="341,-67.06 341,-86.06 445,-86.06 445,-67.06 341,-67.06"/>
<text text-anchor="middle" x="393" y="-74.06" font-family="Helvetica,sans-Serif" font-size="10.00">console::err::printVa</text>
</a>
</g>
</g>
<!-- Node3&#45;&gt;Node4 -->
<g id="edge3" class="edge">
<title>Node3&#45;&gt;Node4</title>
<path fill="none" stroke="midnightblue" d="M304.36,-76.56C312.78,-76.56 321.71,-76.56 330.53,-76.56"/>
<polygon fill="midnightblue" stroke="midnightblue" points="330.8,-80.06 340.8,-76.56 330.8,-73.06 330.8,-80.06"/>
</g>
<!-- Node5 -->
<g id="node5" class="node">
<title>Node5</title>
<g id="a_node5"><a xlink:href="namespaceconsole_1_1ge.html#af642934cb833142f133285fdb75ef7b7" target="_top" xlink:title=" ">
<polygon fill="white" stroke="black" points="482,-162.06 482,-181.06 602,-181.06 602,-162.06 482,-162.06"/>
<text text-anchor="middle" x="542" y="-169.06" font-family="Helvetica,sans-Serif" font-size="10.00">console::ge::printFmtVa</text>
</a>
</g>
</g>
<!-- Node4&#45;&gt;Node5 -->
<g id="edge4" class="edge">
<title>Node4&#45;&gt;Node5</title>
<path fill="none" stroke="midnightblue" d="M425.26,-86.11C432.28,-88.77 439.55,-91.93 446,-95.56 475.69,-112.27 505.68,-138.09 523.81,-154.91"/>
<polygon fill="midnightblue" stroke="midnightblue" points="521.58,-157.62 531.26,-161.94 526.38,-152.53 521.58,-157.62"/>
</g>
<!-- Node12 -->
<g id="node12" class="node">
<title>Node12</title>
<g id="a_node12"><a xlink:href="namespaceconsole_1_1out.html#ad9fc97dff4404c2d21aedbb24691e7cb" target="_top" xlink:title=" ">
<polygon fill="white" stroke="black" points="800,-79.06 800,-98.06 910,-98.06 910,-79.06 800,-79.06"/>
<text text-anchor="middle" x="855" y="-86.06" font-family="Helvetica,sans-Serif" font-size="10.00">console::out::putChar</text>
</a>
</g>
</g>
<!-- Node4&#45;&gt;Node12 -->
<g id="edge21" class="edge">
<title>Node4&#45;&gt;Node12</title>
<path fill="none" stroke="midnightblue" d="M445.02,-67.05C457.1,-65.18 469.97,-63.51 482,-62.56 606.94,-52.68 639.9,-44.99 764,-62.56 782.27,-65.15 802.02,-70.55 818.36,-75.76"/>
<polygon fill="midnightblue" stroke="midnightblue" points="817.45,-79.14 828.04,-78.95 819.64,-72.5 817.45,-79.14"/>
</g>
<!-- Node6 -->
<g id="node6" class="node">
<title>Node6</title>
<g id="a_node6"><a xlink:href="printfmt_8cc.html#a708ec6ee2b8bd2d7a453d8d9436ed3b3" target="_top" xlink:title=" ">
<polygon fill="white" stroke="black" points="672,-105.06 672,-124.06 730,-124.06 730,-105.06 672,-105.06"/>
<text text-anchor="middle" x="701" y="-112.06" font-family="Helvetica,sans-Serif" font-size="10.00">_getIntVa</text>
</a>
</g>
</g>
<!-- Node5&#45;&gt;Node6 -->
<g id="edge5" class="edge">
<title>Node5&#45;&gt;Node6</title>
<path fill="none" stroke="midnightblue" d="M565.45,-161.97C584.57,-153.94 612.87,-142.42 638,-133.56 645.69,-130.85 653.99,-128.15 661.94,-125.68"/>
<polygon fill="midnightblue" stroke="midnightblue" points="663.21,-128.95 671.75,-122.68 661.17,-122.25 663.21,-128.95"/>
</g>
<!-- Node7 -->
<g id="node7" class="node">
<title>Node7</title>
<g id="a_node7"><a xlink:href="printfmt_8cc.html#af4b46892c76c8bfd27efdb20847eb7c8" target="_top" xlink:title=" ">
<polygon fill="white" stroke="black" points="668.5,-257.06 668.5,-276.06 733.5,-276.06 733.5,-257.06 668.5,-257.06"/>
<text text-anchor="middle" x="701" y="-264.06" font-family="Helvetica,sans-Serif" font-size="10.00">_getUIntVa</text>
</a>
</g>
</g>
<!-- Node5&#45;&gt;Node7 -->
<g id="edge6" class="edge">
<title>Node5&#45;&gt;Node7</title>
<path fill="none" stroke="midnightblue" d="M553.73,-181.14C570.65,-195.87 605.03,-224.31 638,-242.56 645.25,-246.57 653.31,-250.22 661.16,-253.4"/>
<polygon fill="midnightblue" stroke="midnightblue" points="659.96,-256.69 670.55,-257.03 662.49,-250.16 659.96,-256.69"/>
</g>
<!-- Node8 -->
<g id="node8" class="node">
<title>Node8</title>
<g id="a_node8"><a xlink:href="namespacestr.html#a062221f630647cf300f0dd982c4ed904" target="_top" xlink:title=" ">
<polygon fill="white" stroke="black" points="1278,-207.06 1278,-226.06 1336,-226.06 1336,-207.06 1278,-207.06"/>
<text text-anchor="middle" x="1307" y="-214.06" font-family="Helvetica,sans-Serif" font-size="10.00">str::count</text>
</a>
</g>
</g>
<!-- Node5&#45;&gt;Node8 -->
<g id="edge7" class="edge">
<title>Node5&#45;&gt;Node8</title>
<path fill="none" stroke="midnightblue" d="M574,-181.1C629.55,-197.33 749.98,-228.56 854,-228.56 854,-228.56 854,-228.56 1007,-228.56 1100.71,-228.56 1210.8,-222.6 1267.67,-219.08"/>
<polygon fill="midnightblue" stroke="midnightblue" points="1268.22,-222.55 1277.98,-218.43 1267.78,-215.57 1268.22,-222.55"/>
</g>
<!-- Node9 -->
<g id="node9" class="node">
<title>Node9</title>
<g id="a_node9"><a xlink:href="printfmt_8cc.html#a0e3e484ece5e75b9f5fbe337f0ae8ae3" target="_top" xlink:title=" ">
<polygon fill="white" stroke="black" points="674.5,-295.06 674.5,-314.06 727.5,-314.06 727.5,-295.06 674.5,-295.06"/>
<text text-anchor="middle" x="701" y="-302.06" font-family="Helvetica,sans-Serif" font-size="10.00">describe</text>
</a>
</g>
</g>
<!-- Node5&#45;&gt;Node9 -->
<g id="edge8" class="edge">
<title>Node5&#45;&gt;Node9</title>
<path fill="none" stroke="midnightblue" d="M548.3,-181.11C560.91,-202.96 594.88,-256.89 638,-285.56 645.99,-290.87 655.52,-294.75 664.69,-297.56"/>
<polygon fill="midnightblue" stroke="midnightblue" points="663.84,-300.96 674.41,-300.21 665.69,-294.2 663.84,-300.96"/>
</g>
<!-- Node11 -->
<g id="node11" class="node">
<title>Node11</title>
<g id="a_node11"><a xlink:href="namespaceconsole_1_1ge.html#a7e301813fd34fde772376afc5fdad95d" target="_top" xlink:title=" ">
<polygon fill="white" stroke="black" points="638,-143.06 638,-162.06 764,-162.06 764,-143.06 638,-143.06"/>
<text text-anchor="middle" x="701" y="-150.06" font-family="Helvetica,sans-Serif" font-size="10.00">console::ge::printNumber</text>
</a>
</g>
</g>
<!-- Node5&#45;&gt;Node11 -->
<g id="edge10" class="edge">
<title>Node5&#45;&gt;Node11</title>
<path fill="none" stroke="midnightblue" d="M602.35,-164.38C610.72,-163.36 619.39,-162.31 627.96,-161.28"/>
<polygon fill="midnightblue" stroke="midnightblue" points="628.44,-164.75 637.95,-160.07 627.6,-157.8 628.44,-164.75"/>
</g>
<!-- Node5&#45;&gt;Node12 -->
<g id="edge20" class="edge">
<title>Node5&#45;&gt;Node12</title>
<path fill="none" stroke="midnightblue" d="M589.67,-181.12C635.69,-188.38 707.18,-193.76 764,-171.56 797.46,-158.49 825.96,-126.51 841.47,-106.28"/>
<polygon fill="midnightblue" stroke="midnightblue" points="844.34,-108.29 847.48,-98.17 838.71,-104.12 844.34,-108.29"/>
</g>
<!-- Node10 -->
<g id="node10" class="node">
<title>Node10</title>
<g id="a_node10"><a xlink:href="namespacemonitor.html#a318993193c866642f8389a1c1f285739" target="_top" xlink:title=" ">
<polygon fill="white" stroke="black" points="818,-295.06 818,-314.06 892,-314.06 892,-295.06 818,-295.06"/>
<text text-anchor="middle" x="855" y="-302.06" font-family="Helvetica,sans-Serif" font-size="10.00">monitor::fuck</text>
</a>
</g>
</g>
<!-- Node9&#45;&gt;Node10 -->
<g id="edge9" class="edge">
<title>Node9&#45;&gt;Node10</title>
<path fill="none" stroke="midnightblue" d="M727.78,-304.56C749.62,-304.56 781.46,-304.56 807.7,-304.56"/>
<polygon fill="midnightblue" stroke="midnightblue" points="807.82,-308.06 817.82,-304.56 807.82,-301.06 807.82,-308.06"/>
</g>
<!-- Node11&#45;&gt;Node12 -->
<g id="edge11" class="edge">
<title>Node11&#45;&gt;Node12</title>
<path fill="none" stroke="midnightblue" d="M736.79,-143.01C745.76,-140.25 755.32,-137.03 764,-133.56 786.03,-124.75 810.03,-112.62 827.69,-103.17"/>
<polygon fill="midnightblue" stroke="midnightblue" points="829.68,-106.07 836.81,-98.24 826.34,-99.92 829.68,-106.07"/>
</g>
<!-- Node13 -->
<g id="node13" class="node">
<title>Node13</title>
<g id="a_node13"><a xlink:href="namespaceconsole_1_1serial.html#a3a7c1f95ae3c24136ea63bb31fdf0391" target="_top" xlink:title=" ">
<polygon fill="white" stroke="black" points="946,-60.06 946,-79.06 1066,-79.06 1066,-60.06 946,-60.06"/>
<text text-anchor="middle" x="1006" y="-67.06" font-family="Helvetica,sans-Serif" font-size="10.00">console::serial::putChar</text>
</a>
</g>
</g>
<!-- Node12&#45;&gt;Node13 -->
<g id="edge12" class="edge">
<title>Node12&#45;&gt;Node13</title>
<path fill="none" stroke="midnightblue" d="M910.21,-81.65C918.53,-80.59 927.2,-79.48 935.79,-78.39"/>
<polygon fill="midnightblue" stroke="midnightblue" points="936.32,-81.85 945.79,-77.11 935.43,-74.9 936.32,-81.85"/>
</g>
<!-- Node16 -->
<g id="node16" class="node">
<title>Node16</title>
<g id="a_node16"><a xlink:href="namespaceconsole_1_1cga.html#afa19057ca041b39682d5d4831c43dfa0" target="_top" xlink:title=" ">
<polygon fill="white" stroke="black" points="949.5,-98.06 949.5,-117.06 1062.5,-117.06 1062.5,-98.06 949.5,-98.06"/>
<text text-anchor="middle" x="1006" y="-105.06" font-family="Helvetica,sans-Serif" font-size="10.00">console::cga::putChar</text>
</a>
</g>
</g>
<!-- Node12&#45;&gt;Node16 -->
<g id="edge15" class="edge">
<title>Node12&#45;&gt;Node16</title>
<path fill="none" stroke="midnightblue" d="M910.21,-95.47C919.66,-96.68 929.58,-97.94 939.3,-99.18"/>
<polygon fill="midnightblue" stroke="midnightblue" points="938.96,-102.67 949.33,-100.46 939.85,-95.72 938.96,-102.67"/>
</g>
<!-- Node14 -->
<g id="node14" class="node">
<title>Node14</title>
<g id="a_node14"><a xlink:href="namespaceconsole_1_1serial.html#aa5605d4537106bb1c2bab72d7d1a5824" target="_top" xlink:title=" ">
<polygon fill="white" stroke="black" points="1120,-60.06 1120,-79.06 1224,-79.06 1224,-60.06 1120,-60.06"/>
<text text-anchor="middle" x="1172" y="-67.06" font-family="Helvetica,sans-Serif" font-size="10.00">console::serial::sout</text>
</a>
</g>
</g>
<!-- Node13&#45;&gt;Node14 -->
<g id="edge13" class="edge">
<title>Node13&#45;&gt;Node14</title>
<path fill="none" stroke="midnightblue" d="M1066.21,-69.56C1080.31,-69.56 1095.39,-69.56 1109.59,-69.56"/>
<polygon fill="midnightblue" stroke="midnightblue" points="1109.74,-73.06 1119.74,-69.56 1109.74,-66.06 1109.74,-73.06"/>
</g>
<!-- Node14&#45;&gt;Node15 -->
<g id="edge14" class="edge">
<title>Node14&#45;&gt;Node15</title>
<path fill="none" stroke="midnightblue" d="M1224.04,-69.56C1242.85,-69.56 1263.4,-69.56 1279.22,-69.56"/>
<polygon fill="midnightblue" stroke="midnightblue" points="1279.34,-73.06 1289.34,-69.56 1279.34,-66.06 1279.34,-73.06"/>
</g>
<!-- Node17 -->
<g id="node17" class="node">
<title>Node17</title>
<g id="a_node17"><a xlink:href="namespacemem.html#a64d9d05b439041901498c606de606431" target="_top" xlink:title=" ">
<polygon fill="white" stroke="black" points="1139.5,-160.06 1139.5,-179.06 1204.5,-179.06 1204.5,-160.06 1139.5,-160.06"/>
<text text-anchor="middle" x="1172" y="-167.06" font-family="Helvetica,sans-Serif" font-size="10.00">mem::copy</text>
</a>
</g>
</g>
<!-- Node16&#45;&gt;Node17 -->
<g id="edge16" class="edge">
<title>Node16&#45;&gt;Node17</title>
<path fill="none" stroke="midnightblue" d="M1032.27,-117.11C1060.07,-127.62 1104.96,-144.59 1136.11,-156.37"/>
<polygon fill="midnightblue" stroke="midnightblue" points="1135.11,-159.73 1145.71,-160 1137.59,-153.19 1135.11,-159.73"/>
</g>
<!-- Node18 -->
<g id="node18" class="node">
<title>Node18</title>
<g id="a_node18"><a xlink:href="namespaceconsole_1_1cga.html#a06463d4dc68819e30615ba299d02a78f" target="_top" xlink:title=" ">
<polygon fill="white" stroke="black" points="1102,-98.06 1102,-117.06 1242,-117.06 1242,-98.06 1102,-98.06"/>
<text text-anchor="middle" x="1172" y="-105.06" font-family="Helvetica,sans-Serif" font-size="10.00">console::cga::cursorRefresh</text>
</a>
</g>
</g>
<!-- Node16&#45;&gt;Node18 -->
<g id="edge18" class="edge">
<title>Node16&#45;&gt;Node18</title>
<path fill="none" stroke="midnightblue" d="M1062.52,-107.56C1071.9,-107.56 1081.8,-107.56 1091.65,-107.56"/>
<polygon fill="midnightblue" stroke="midnightblue" points="1091.87,-111.06 1101.87,-107.56 1091.87,-104.06 1091.87,-111.06"/>
</g>
<!-- Node17&#45;&gt;Node8 -->
<g id="edge17" class="edge">
<title>Node17&#45;&gt;Node8</title>
<path fill="none" stroke="midnightblue" d="M1199.91,-179.07C1219.79,-186.1 1247.09,-195.74 1269.02,-203.49"/>
<polygon fill="midnightblue" stroke="midnightblue" points="1268.07,-206.87 1278.67,-206.9 1270.41,-200.27 1268.07,-206.87"/>
</g>
<!-- Node18&#45;&gt;Node15 -->
<g id="edge19" class="edge">
<title>Node18&#45;&gt;Node15</title>
<path fill="none" stroke="midnightblue" d="M1208.14,-98.03C1219.01,-95.04 1231.01,-91.7 1242,-88.56 1254.37,-85.02 1268.05,-80.98 1279.57,-77.53"/>
<polygon fill="midnightblue" stroke="midnightblue" points="1280.88,-80.8 1289.45,-74.57 1278.87,-74.09 1280.88,-80.8"/>
</g>
<!-- Node21 -->
<g id="node21" class="node">
<title>Node21</title>
<g id="a_node21"><a xlink:href="namespaceconsole_1_1out.html#a8f791bfac54067cadb1b9f18117b987b" target="_top" xlink:title=" ">
<polygon fill="white" stroke="black" points="340,-105.06 340,-124.06 446,-124.06 446,-105.06 340,-105.06"/>
<text text-anchor="middle" x="393" y="-112.06" font-family="Helvetica,sans-Serif" font-size="10.00">console::out::printVa</text>
</a>
</g>
</g>
<!-- Node20&#45;&gt;Node21 -->
<g id="edge25" class="edge">
<title>Node20&#45;&gt;Node21</title>
<path fill="none" stroke="midnightblue" d="M176.65,-106.32C219.13,-107.95 282.5,-110.37 329.51,-112.17"/>
<polygon fill="midnightblue" stroke="midnightblue" points="329.45,-115.67 339.57,-112.55 329.72,-108.68 329.45,-115.67"/>
</g>
<!-- Node21&#45;&gt;Node5 -->
<g id="edge26" class="edge">
<title>Node21&#45;&gt;Node5</title>
<path fill="none" stroke="midnightblue" d="M418.6,-124.1C442.77,-133.47 479.85,-147.85 506.86,-158.32"/>
<polygon fill="midnightblue" stroke="midnightblue" points="505.73,-161.64 516.32,-161.99 508.26,-155.11 505.73,-161.64"/>
</g>
<!-- Node21&#45;&gt;Node12 -->
<g id="edge27" class="edge">
<title>Node21&#45;&gt;Node12</title>
<path fill="none" stroke="midnightblue" d="M446.31,-109.8C495.69,-105.46 571.82,-99.21 638,-95.56 688.98,-92.75 746.8,-90.95 789.78,-89.88"/>
<polygon fill="midnightblue" stroke="midnightblue" points="789.91,-93.38 799.82,-89.64 789.74,-86.38 789.91,-93.38"/>
</g>
</g>
</svg>
        <g id="navigator" transform="translate(0 0)" fill="#404254">
                <rect fill="#f2f5e9" fill-opacity="0.5" stroke="#606060" stroke-width=".5" x="0" y="0" width="60" height="60"/>
                <use id="zoomplus" xlink:href="#zoomPlus" x="17" y="9" onmousedown="handleZoom(evt,'in')"/>
                <use id="zoomminus" xlink:href="#zoomMin" x="42" y="9" onmousedown="handleZoom(evt,'out')"/>
                <use id="reset" xlink:href="#resetDef" x="30" y="36" onmousedown="handleReset()"/>
                <g id="arrowUp" xlink:href="#dirArrow" transform="translate(30 24)" onmousedown="handlePan(0,-1)">
                  <use xlink:href="#rim" fill="#404040">
                        <set attributeName="fill" to="#808080" begin="arrowUp.mouseover" end="arrowUp.mouseout"/>
                  </use>
                  <path fill="none" stroke="white" stroke-width="1.5" d="M0,-3.0v7 M-2.5,-0.5L0,-3.0L2.5,-0.5"/>
                </g>
                <g id="arrowRight" xlink:href="#dirArrow" transform="rotate(90) translate(36 -43)" onmousedown="handlePan(1,0)">
                  <use xlink:href="#rim" fill="#404040">
                        <set attributeName="fill" to="#808080" begin="arrowRight.mouseover" end="arrowRight.mouseout"/>
                  </use>
                  <path fill="none" stroke="white" stroke-width="1.5" d="M0,-3.0v7 M-2.5,-0.5L0,-3.0L2.5,-0.5"/>
                </g>
                <g id="arrowDown" xlink:href="#dirArrow" transform="rotate(180) translate(-30 -48)" onmousedown="handlePan(0,1)">
                  <use xlink:href="#rim" fill="#404040">
                        <set attributeName="fill" to="#808080" begin="arrowDown.mouseover" end="arrowDown.mouseout"/>
                  </use>
                  <path fill="none" stroke="white" stroke-width="1.5" d="M0,-3.0v7 M-2.5,-0.5L0,-3.0L2.5,-0.5"/>
                </g>
                <g id="arrowLeft" xlink:href="#dirArrow" transform="rotate(270) translate(-36 17)" onmousedown="handlePan(-1,0)">
                  <use xlink:href="#rim" fill="#404040">
                        <set attributeName="fill" to="#808080" begin="arrowLeft.mouseover" end="arrowLeft.mouseout"/>
                  </use>
                  <path fill="none" stroke="white" stroke-width="1.5" d="M0,-3.0v7 M-2.5,-0.5L0,-3.0L2.5,-0.5"/>
                </g>
        </g>
        <svg viewBox="0 0 15 15" width="100%" height="30px" preserveAspectRatio="xMaxYMin meet">
         <g id="arrow_out" transform="scale(0.3 0.3)">
          <a xlink:href="pckbd_8h_ab9c20ea86737ea42fe7a03513a2973e5_cgraph_org.svg" target="_base">
           <rect id="button" ry="5" rx="5" y="6" x="6" height="38" width="38"
                fill="#f2f5e9" fill-opacity="0.5" stroke="#606060" stroke-width="1.0"/>
           <path id="arrow"
             d="M 11.500037,31.436501 C 11.940474,20.09759 22.043105,11.32322 32.158766,21.979434 L 37.068811,17.246167 C 37.068811,17.246167 37.088388,32 37.088388,32 L 22.160133,31.978069 C 22.160133,31.978069 26.997745,27.140456 26.997745,27.140456 C 18.528582,18.264221 13.291696,25.230495 11.500037,31.436501 z"
             style="fill:#404040;"/>
          </a>
         </g>
        </svg>
</svg>
