<?xml version="1.0" encoding="UTF-8" standalone="no"?>
<!DOCTYPE svg PUBLIC "-//W3C//DTD SVG 1.1//EN"
 "http://www.w3.org/Graphics/SVG/1.1/DTD/svg11.dtd">
<!-- Generated by graphviz version 2.44.1 (20200629.0846)
 -->
<!-- Title: random.hh Pages: 1 -->
<svg width="138pt" height="84pt"
 viewBox="0.00 0.00 137.50 84.00" xmlns="http://www.w3.org/2000/svg" xmlns:xlink="http://www.w3.org/1999/xlink">
<g id="graph0" class="graph" transform="scale(1 1) rotate(0) translate(4 80)">
<title>random.hh</title>
<polygon fill="white" stroke="transparent" points="-4,4 -4,-80 133.5,-80 133.5,4 -4,4"/>
<!-- Node1 -->
<g id="node1" class="node">
<title>Node1</title>
<g id="a_node1"><a xlink:title=" ">
<polygon fill="#bfbfbf" stroke="black" points="30.5,-56.5 30.5,-75.5 92.5,-75.5 92.5,-56.5 30.5,-56.5"/>
<text text-anchor="middle" x="61.5" y="-63.5" font-family="Helvetica,sans-Serif" font-size="10.00">random.hh</text>
</a>
</g>
</g>
<!-- Node2 -->
<g id="node2" class="node">
<title>Node2</title>
<g id="a_node2"><a xlink:href="task_8cc.html" target="_top" xlink:title=" ">
<polygon fill="white" stroke="black" points="0,-0.5 0,-19.5 49,-19.5 49,-0.5 0,-0.5"/>
<text text-anchor="middle" x="24.5" y="-7.5" font-family="Helvetica,sans-Serif" font-size="10.00">task.cc</text>
</a>
</g>
</g>
<!-- Node1&#45;&gt;Node2 -->
<g id="edge1" class="edge">
<title>Node1&#45;&gt;Node2</title>
<path fill="none" stroke="midnightblue" d="M49.55,-47.57C43.19,-38.27 35.63,-27.25 30.5,-19.75"/>
<polygon fill="midnightblue" stroke="midnightblue" points="46.85,-49.81 55.39,-56.08 52.63,-45.86 46.85,-49.81"/>
</g>
<!-- Node3 -->
<g id="node3" class="node">
<title>Node3</title>
<g id="a_node3"><a xlink:href="random_8cc.html" target="_top" xlink:title=" ">
<polygon fill="white" stroke="black" points="67.5,-0.5 67.5,-19.5 129.5,-19.5 129.5,-0.5 67.5,-0.5"/>
<text text-anchor="middle" x="98.5" y="-7.5" font-family="Helvetica,sans-Serif" font-size="10.00">random.cc</text>
</a>
</g>
</g>
<!-- Node1&#45;&gt;Node3 -->
<g id="edge2" class="edge">
<title>Node1&#45;&gt;Node3</title>
<path fill="none" stroke="midnightblue" d="M73.45,-47.57C79.81,-38.27 87.37,-27.25 92.5,-19.75"/>
<polygon fill="midnightblue" stroke="midnightblue" points="70.37,-45.86 67.61,-56.08 76.15,-49.81 70.37,-45.86"/>
</g>
</g>
</svg>
