<?xml version="1.0" encoding="UTF-8" standalone="no"?>
<!DOCTYPE svg PUBLIC "-//W3C//DTD SVG 1.1//EN"
 "http://www.w3.org/Graphics/SVG/1.1/DTD/svg11.dtd">
<!-- Generated by graphviz version 2.44.1 (20200629.0846)
 -->
<!-- Title: result.hh Pages: 1 -->
<svg width="525pt" height="196pt"
 viewBox="0.00 0.00 525.35 196.00" xmlns="http://www.w3.org/2000/svg" xmlns:xlink="http://www.w3.org/1999/xlink">
<g id="graph0" class="graph" transform="scale(1 1) rotate(0) translate(4 192)">
<title>result.hh</title>
<polygon fill="white" stroke="transparent" points="-4,4 -4,-192 521.35,-192 521.35,4 -4,4"/>
<!-- Node1 -->
<g id="node1" class="node">
<title>Node1</title>
<g id="a_node1"><a xlink:title=" ">
<polygon fill="#bfbfbf" stroke="black" points="235.38,-168.5 235.38,-187.5 289.38,-187.5 289.38,-168.5 235.38,-168.5"/>
<text text-anchor="middle" x="262.38" y="-175.5" font-family="Helvetica,sans-Serif" font-size="10.00">result.hh</text>
</a>
</g>
</g>
<!-- Node2 -->
<g id="node2" class="node">
<title>Node2</title>
<g id="a_node2"><a xlink:href="monitor_8hh.html" target="_top" xlink:title=" ">
<polygon fill="white" stroke="black" points="73.38,-112.5 73.38,-131.5 135.38,-131.5 135.38,-112.5 73.38,-112.5"/>
<text text-anchor="middle" x="104.38" y="-119.5" font-family="Helvetica,sans-Serif" font-size="10.00">monitor.hh</text>
</a>
</g>
</g>
<!-- Node1&#45;&gt;Node2 -->
<g id="edge1" class="edge">
<title>Node1&#45;&gt;Node2</title>
<path fill="none" stroke="midnightblue" d="M227.77,-165.17C198.02,-155 155.83,-140.59 129.29,-131.52"/>
<polygon fill="midnightblue" stroke="midnightblue" points="226.75,-168.52 237.34,-168.44 229.01,-161.9 226.75,-168.52"/>
</g>
<!-- Node7 -->
<g id="node7" class="node">
<title>Node7</title>
<g id="a_node7"><a xlink:href="kernel_2task_8hh.html" target="_top" xlink:title=" ">
<polygon fill="white" stroke="black" points="202.88,-112.5 202.88,-131.5 251.88,-131.5 251.88,-112.5 202.88,-112.5"/>
<text text-anchor="middle" x="227.38" y="-119.5" font-family="Helvetica,sans-Serif" font-size="10.00">task.hh</text>
</a>
</g>
</g>
<!-- Node1&#45;&gt;Node7 -->
<g id="edge6" class="edge">
<title>Node1&#45;&gt;Node7</title>
<path fill="none" stroke="midnightblue" d="M251.08,-159.57C245.05,-150.27 237.91,-139.25 233.05,-131.75"/>
<polygon fill="midnightblue" stroke="midnightblue" points="248.22,-161.6 256.6,-168.08 254.09,-157.79 248.22,-161.6"/>
</g>
<!-- Node12 -->
<g id="node12" class="node">
<title>Node12</title>
<g id="a_node12"><a xlink:href="vmem_8hh.html" target="_top" xlink:title=" ">
<polygon fill="white" stroke="black" points="310.88,-112.5 310.88,-131.5 367.88,-131.5 367.88,-112.5 310.88,-112.5"/>
<text text-anchor="middle" x="339.38" y="-119.5" font-family="Helvetica,sans-Serif" font-size="10.00">vmem.hh</text>
</a>
</g>
</g>
<!-- Node1&#45;&gt;Node12 -->
<g id="edge16" class="edge">
<title>Node1&#45;&gt;Node12</title>
<path fill="none" stroke="midnightblue" d="M283.28,-162.34C297.29,-152.52 315.26,-139.91 327.04,-131.65"/>
<polygon fill="midnightblue" stroke="midnightblue" points="280.93,-159.72 274.75,-168.32 284.94,-165.45 280.93,-159.72"/>
</g>
<!-- Node13 -->
<g id="node13" class="node">
<title>Node13</title>
<g id="a_node13"><a xlink:href="printfmt_8cc.html" target="_top" xlink:title=" ">
<polygon fill="white" stroke="black" points="385.88,-112.5 385.88,-131.5 448.88,-131.5 448.88,-112.5 385.88,-112.5"/>
<text text-anchor="middle" x="417.38" y="-119.5" font-family="Helvetica,sans-Serif" font-size="10.00">printfmt.cc</text>
</a>
</g>
</g>
<!-- Node1&#45;&gt;Node13 -->
<g id="edge23" class="edge">
<title>Node1&#45;&gt;Node13</title>
<path fill="none" stroke="midnightblue" d="M296.71,-165.04C325.87,-154.88 367.01,-140.55 392.93,-131.52"/>
<polygon fill="midnightblue" stroke="midnightblue" points="295.23,-161.85 286.94,-168.44 297.53,-168.46 295.23,-161.85"/>
</g>
<!-- Node3 -->
<g id="node3" class="node">
<title>Node3</title>
<g id="a_node3"><a xlink:href="init_8cc.html" target="_top" xlink:title=" ">
<polygon fill="white" stroke="black" points="160.88,-0.5 160.88,-19.5 203.88,-19.5 203.88,-0.5 160.88,-0.5"/>
<text text-anchor="middle" x="182.38" y="-7.5" font-family="Helvetica,sans-Serif" font-size="10.00">init.cc</text>
</a>
</g>
</g>
<!-- Node2&#45;&gt;Node3 -->
<g id="edge2" class="edge">
<title>Node2&#45;&gt;Node3</title>
<path fill="none" stroke="midnightblue" d="M63.59,-111.11C28.14,-100.53 -14.64,-81.74 5.38,-56 24.4,-31.53 117.59,-18.19 160.58,-13.25"/>
<polygon fill="midnightblue" stroke="midnightblue" points="62.76,-114.51 73.34,-113.87 64.67,-107.78 62.76,-114.51"/>
</g>
<!-- Node4 -->
<g id="node4" class="node">
<title>Node4</title>
<g id="a_node4"><a xlink:href="monitor_8cc.html" target="_top" xlink:title=" ">
<polygon fill="white" stroke="black" points="247.38,-56.5 247.38,-75.5 309.38,-75.5 309.38,-56.5 247.38,-56.5"/>
<text text-anchor="middle" x="278.38" y="-63.5" font-family="Helvetica,sans-Serif" font-size="10.00">monitor.cc</text>
</a>
</g>
</g>
<!-- Node2&#45;&gt;Node4 -->
<g id="edge3" class="edge">
<title>Node2&#45;&gt;Node4</title>
<path fill="none" stroke="midnightblue" d="M141.64,-109.44C174.44,-99.26 221.46,-84.66 250.93,-75.52"/>
<polygon fill="midnightblue" stroke="midnightblue" points="140.46,-106.14 131.95,-112.44 142.54,-112.82 140.46,-106.14"/>
</g>
<!-- Node5 -->
<g id="node5" class="node">
<title>Node5</title>
<g id="a_node5"><a xlink:href="task_8cc.html" target="_top" xlink:title=" ">
<polygon fill="white" stroke="black" points="79.88,-56.5 79.88,-75.5 128.88,-75.5 128.88,-56.5 79.88,-56.5"/>
<text text-anchor="middle" x="104.38" y="-63.5" font-family="Helvetica,sans-Serif" font-size="10.00">task.cc</text>
</a>
</g>
</g>
<!-- Node2&#45;&gt;Node5 -->
<g id="edge4" class="edge">
<title>Node2&#45;&gt;Node5</title>
<path fill="none" stroke="midnightblue" d="M104.38,-101.8C104.38,-92.91 104.38,-82.78 104.38,-75.75"/>
<polygon fill="midnightblue" stroke="midnightblue" points="100.88,-102.08 104.38,-112.08 107.88,-102.08 100.88,-102.08"/>
</g>
<!-- Node6 -->
<g id="node6" class="node">
<title>Node6</title>
<g id="a_node6"><a xlink:href="trap_8cc.html" target="_top" xlink:title=" ">
<polygon fill="white" stroke="black" points="14.88,-56.5 14.88,-75.5 61.88,-75.5 61.88,-56.5 14.88,-56.5"/>
<text text-anchor="middle" x="38.38" y="-63.5" font-family="Helvetica,sans-Serif" font-size="10.00">trap.cc</text>
</a>
</g>
</g>
<!-- Node2&#45;&gt;Node6 -->
<g id="edge5" class="edge">
<title>Node2&#45;&gt;Node6</title>
<path fill="none" stroke="midnightblue" d="M85.82,-105.82C74,-96.15 59.09,-83.95 49.17,-75.83"/>
<polygon fill="midnightblue" stroke="midnightblue" points="83.82,-108.7 93.77,-112.32 88.25,-103.28 83.82,-108.7"/>
</g>
<!-- Node7&#45;&gt;Node3 -->
<g id="edge7" class="edge">
<title>Node7&#45;&gt;Node3</title>
<path fill="none" stroke="midnightblue" d="M203.26,-106.47C192.94,-98.83 181.99,-88.44 176.38,-76 167.99,-57.41 174.36,-32.83 178.89,-19.87"/>
<polygon fill="midnightblue" stroke="midnightblue" points="201.42,-109.46 211.64,-112.24 205.38,-103.69 201.42,-109.46"/>
</g>
<!-- Node7&#45;&gt;Node4 -->
<g id="edge12" class="edge">
<title>Node7&#45;&gt;Node4</title>
<path fill="none" stroke="midnightblue" d="M242.75,-104.72C251.74,-95.2 262.74,-83.56 270.11,-75.75"/>
<polygon fill="midnightblue" stroke="midnightblue" points="240.12,-102.41 235.8,-112.08 245.21,-107.22 240.12,-102.41"/>
</g>
<!-- Node7&#45;&gt;Node5 -->
<g id="edge13" class="edge">
<title>Node7&#45;&gt;Node5</title>
<path fill="none" stroke="midnightblue" d="M198.6,-108.37C175.57,-98.26 143.89,-84.35 123.77,-75.52"/>
<polygon fill="midnightblue" stroke="midnightblue" points="197.32,-111.63 207.89,-112.44 200.14,-105.22 197.32,-111.63"/>
</g>
<!-- Node7&#45;&gt;Node6 -->
<g id="edge15" class="edge">
<title>Node7&#45;&gt;Node6</title>
<path fill="none" stroke="midnightblue" d="M192.57,-111.05C154.56,-100.2 94.74,-83.1 61.9,-73.72"/>
<polygon fill="midnightblue" stroke="midnightblue" points="192.09,-114.56 202.67,-113.94 194.01,-107.83 192.09,-114.56"/>
</g>
<!-- Node8 -->
<g id="node8" class="node">
<title>Node8</title>
<g id="a_node8"><a xlink:href="ksyscall_8cc.html" target="_top" xlink:title=" ">
<polygon fill="white" stroke="black" points="327.38,-56.5 327.38,-75.5 393.38,-75.5 393.38,-56.5 327.38,-56.5"/>
<text text-anchor="middle" x="360.38" y="-63.5" font-family="Helvetica,sans-Serif" font-size="10.00">ksyscall.cc</text>
</a>
</g>
</g>
<!-- Node7&#45;&gt;Node8 -->
<g id="edge8" class="edge">
<title>Node7&#45;&gt;Node8</title>
<path fill="none" stroke="midnightblue" d="M257.82,-108.64C282.78,-98.5 317.45,-84.43 339.4,-75.52"/>
<polygon fill="midnightblue" stroke="midnightblue" points="256.4,-105.44 248.45,-112.44 259.03,-111.92 256.4,-105.44"/>
</g>
<!-- Node9 -->
<g id="node9" class="node">
<title>Node9</title>
<g id="a_node9"><a xlink:href="mp_8hh.html" target="_top" xlink:title=" ">
<polygon fill="white" stroke="black" points="185.38,-56.5 185.38,-75.5 229.38,-75.5 229.38,-56.5 185.38,-56.5"/>
<text text-anchor="middle" x="207.38" y="-63.5" font-family="Helvetica,sans-Serif" font-size="10.00">mp.hh</text>
</a>
</g>
</g>
<!-- Node7&#45;&gt;Node9 -->
<g id="edge9" class="edge">
<title>Node7&#45;&gt;Node9</title>
<path fill="none" stroke="midnightblue" d="M220.59,-102.69C217.22,-93.59 213.31,-83.01 210.62,-75.75"/>
<polygon fill="midnightblue" stroke="midnightblue" points="217.32,-103.92 224.07,-112.08 223.88,-101.49 217.32,-103.92"/>
</g>
<!-- Node11 -->
<g id="node11" class="node">
<title>Node11</title>
<g id="a_node11"><a xlink:href="vmem_8cc.html" target="_top" xlink:title=" ">
<polygon fill="white" stroke="black" points="411.88,-56.5 411.88,-75.5 468.88,-75.5 468.88,-56.5 411.88,-56.5"/>
<text text-anchor="middle" x="440.38" y="-63.5" font-family="Helvetica,sans-Serif" font-size="10.00">vmem.cc</text>
</a>
</g>
</g>
<!-- Node7&#45;&gt;Node11 -->
<g id="edge14" class="edge">
<title>Node7&#45;&gt;Node11</title>
<path fill="none" stroke="midnightblue" d="M261.93,-112.24C303.57,-101.68 372.76,-84.14 411.62,-74.29"/>
<polygon fill="midnightblue" stroke="midnightblue" points="261.06,-108.85 252.23,-114.7 262.78,-115.63 261.06,-108.85"/>
</g>
<!-- Node9&#45;&gt;Node3 -->
<g id="edge10" class="edge">
<title>Node9&#45;&gt;Node3</title>
<path fill="none" stroke="midnightblue" d="M199.03,-46.98C194.79,-37.82 189.83,-27.09 186.43,-19.75"/>
<polygon fill="midnightblue" stroke="midnightblue" points="195.87,-48.48 203.25,-56.08 202.22,-45.54 195.87,-48.48"/>
</g>
<!-- Node10 -->
<g id="node10" class="node">
<title>Node10</title>
<g id="a_node10"><a xlink:href="mp_8cc.html" target="_top" xlink:title=" ">
<polygon fill="white" stroke="black" points="367.38,-0.5 367.38,-19.5 411.38,-19.5 411.38,-0.5 367.38,-0.5"/>
<text text-anchor="middle" x="389.38" y="-7.5" font-family="Helvetica,sans-Serif" font-size="10.00">mp.cc</text>
</a>
</g>
</g>
<!-- Node9&#45;&gt;Node10 -->
<g id="edge11" class="edge">
<title>Node9&#45;&gt;Node10</title>
<path fill="none" stroke="midnightblue" d="M239.4,-55.5C276.08,-44.62 335.2,-27.07 367.16,-17.59"/>
<polygon fill="midnightblue" stroke="midnightblue" points="238.28,-52.18 229.69,-58.38 240.28,-58.89 238.28,-52.18"/>
</g>
<!-- Node12&#45;&gt;Node3 -->
<g id="edge17" class="edge">
<title>Node12&#45;&gt;Node3</title>
<path fill="none" stroke="midnightblue" d="M378.06,-110.97C417.03,-100.48 472.26,-84.4 478.38,-76 483.6,-68.81 484.17,-62.74 478.38,-56 460.42,-35.11 269.21,-17.96 204.01,-12.68"/>
<polygon fill="midnightblue" stroke="midnightblue" points="376.81,-107.68 368.05,-113.64 378.61,-114.45 376.81,-107.68"/>
</g>
<!-- Node12&#45;&gt;Node4 -->
<g id="edge20" class="edge">
<title>Node12&#45;&gt;Node4</title>
<path fill="none" stroke="midnightblue" d="M321.91,-105.54C311.03,-95.91 297.43,-83.87 288.36,-75.83"/>
<polygon fill="midnightblue" stroke="midnightblue" points="319.77,-108.32 329.58,-112.32 324.41,-103.07 319.77,-108.32"/>
</g>
<!-- Node12&#45;&gt;Node5 -->
<g id="edge21" class="edge">
<title>Node12&#45;&gt;Node5</title>
<path fill="none" stroke="midnightblue" d="M300.72,-112.12C252.11,-100.95 170.06,-82.09 129.14,-72.69"/>
<polygon fill="midnightblue" stroke="midnightblue" points="300.03,-115.55 310.56,-114.38 301.6,-108.73 300.03,-115.55"/>
</g>
<!-- Node12&#45;&gt;Node8 -->
<g id="edge18" class="edge">
<title>Node12&#45;&gt;Node8</title>
<path fill="none" stroke="midnightblue" d="M346.5,-102.69C350.04,-93.59 354.15,-83.01 356.97,-75.75"/>
<polygon fill="midnightblue" stroke="midnightblue" points="343.21,-101.49 342.84,-112.08 349.73,-104.03 343.21,-101.49"/>
</g>
<!-- Node12&#45;&gt;Node10 -->
<g id="edge19" class="edge">
<title>Node12&#45;&gt;Node10</title>
<path fill="none" stroke="midnightblue" d="M377.96,-111.52C428.03,-99.14 509.29,-78.7 511.38,-76 540.05,-38.86 453.78,-20.54 411.4,-13.95"/>
<polygon fill="midnightblue" stroke="midnightblue" points="376.97,-108.16 368.1,-113.96 378.64,-114.96 376.97,-108.16"/>
</g>
<!-- Node12&#45;&gt;Node11 -->
<g id="edge22" class="edge">
<title>Node12&#45;&gt;Node11</title>
<path fill="none" stroke="midnightblue" d="M364.46,-107.59C383.13,-97.61 408.08,-84.27 424.19,-75.65"/>
<polygon fill="midnightblue" stroke="midnightblue" points="362.77,-104.52 355.6,-112.32 366.07,-110.7 362.77,-104.52"/>
</g>
</g>
</svg>
