<?xml version="1.0" encoding="UTF-8" standalone="no"?>
<!DOCTYPE svg PUBLIC "-//W3C//DTD SVG 1.1//EN"
 "http://www.w3.org/Graphics/SVG/1.1/DTD/svg11.dtd">
<!-- Generated by graphviz version 2.44.1 (20200629.0846)
 -->
<!-- Title: stdio.hh Pages: 1 -->
<svg width="1192pt" height="84pt"
 viewBox="0.00 0.00 1192.00 84.00" xmlns="http://www.w3.org/2000/svg" xmlns:xlink="http://www.w3.org/1999/xlink">
<g id="graph0" class="graph" transform="scale(1 1) rotate(0) translate(4 80)">
<title>stdio.hh</title>
<polygon fill="white" stroke="transparent" points="-4,4 -4,-80 1188,-80 1188,4 -4,4"/>
<!-- Node1 -->
<g id="node1" class="node">
<title>Node1</title>
<g id="a_node1"><a xlink:title=" ">
<polygon fill="#bfbfbf" stroke="black" points="557.5,-56.5 557.5,-75.5 608.5,-75.5 608.5,-56.5 557.5,-56.5"/>
<text text-anchor="middle" x="583" y="-63.5" font-family="Helvetica,sans-Serif" font-size="10.00">stdio.hh</text>
</a>
</g>
</g>
<!-- Node2 -->
<g id="node2" class="node">
<title>Node2</title>
<g id="a_node2"><a xlink:href="kdebug_8cc.html" target="_top" xlink:title=" ">
<polygon fill="white" stroke="black" points="0,-0.5 0,-19.5 62,-19.5 62,-0.5 0,-0.5"/>
<text text-anchor="middle" x="31" y="-7.5" font-family="Helvetica,sans-Serif" font-size="10.00">kdebug.cc</text>
</a>
</g>
</g>
<!-- Node1&#45;&gt;Node2 -->
<g id="edge1" class="edge">
<title>Node1&#45;&gt;Node2</title>
<path fill="none" stroke="midnightblue" d="M547.28,-63.51C463.61,-59.65 248.56,-47.65 71,-20 68.19,-19.56 65.28,-19.04 62.37,-18.47"/>
<polygon fill="midnightblue" stroke="midnightblue" points="547.13,-67 557.28,-63.96 547.45,-60.01 547.13,-67"/>
</g>
<!-- Node3 -->
<g id="node3" class="node">
<title>Node3</title>
<g id="a_node3"><a xlink:href="init_8cc.html" target="_top" xlink:title=" ">
<polygon fill="white" stroke="black" points="80.5,-0.5 80.5,-19.5 123.5,-19.5 123.5,-0.5 80.5,-0.5"/>
<text text-anchor="middle" x="102" y="-7.5" font-family="Helvetica,sans-Serif" font-size="10.00">init.cc</text>
</a>
</g>
</g>
<!-- Node1&#45;&gt;Node3 -->
<g id="edge2" class="edge">
<title>Node1&#45;&gt;Node3</title>
<path fill="none" stroke="midnightblue" d="M547.33,-63.65C470.79,-60.27 285.4,-49.48 133,-20 129.92,-19.4 126.7,-18.64 123.56,-17.8"/>
<polygon fill="midnightblue" stroke="midnightblue" points="547.25,-67.15 557.39,-64.08 547.55,-60.16 547.25,-67.15"/>
</g>
<!-- Node4 -->
<g id="node4" class="node">
<title>Node4</title>
<g id="a_node4"><a xlink:href="ksyscall_8cc.html" target="_top" xlink:title=" ">
<polygon fill="white" stroke="black" points="142,-0.5 142,-19.5 208,-19.5 208,-0.5 142,-0.5"/>
<text text-anchor="middle" x="175" y="-7.5" font-family="Helvetica,sans-Serif" font-size="10.00">ksyscall.cc</text>
</a>
</g>
</g>
<!-- Node1&#45;&gt;Node4 -->
<g id="edge3" class="edge">
<title>Node1&#45;&gt;Node4</title>
<path fill="none" stroke="midnightblue" d="M546.9,-61.63C481.06,-55.26 337.2,-40.23 217,-20 214.21,-19.53 211.32,-19 208.42,-18.44"/>
<polygon fill="midnightblue" stroke="midnightblue" points="546.86,-65.15 557.15,-62.62 547.53,-58.18 546.86,-65.15"/>
</g>
<!-- Node5 -->
<g id="node5" class="node">
<title>Node5</title>
<g id="a_node5"><a xlink:href="mp_8cc.html" target="_top" xlink:title=" ">
<polygon fill="white" stroke="black" points="226,-0.5 226,-19.5 270,-19.5 270,-0.5 226,-0.5"/>
<text text-anchor="middle" x="248" y="-7.5" font-family="Helvetica,sans-Serif" font-size="10.00">mp.cc</text>
</a>
</g>
</g>
<!-- Node1&#45;&gt;Node5 -->
<g id="edge4" class="edge">
<title>Node1&#45;&gt;Node5</title>
<path fill="none" stroke="midnightblue" d="M547.19,-61.29C490.05,-55.02 374.94,-40.93 279,-20 276.15,-19.38 273.18,-18.64 270.26,-17.85"/>
<polygon fill="midnightblue" stroke="midnightblue" points="546.85,-64.78 557.16,-62.37 547.6,-57.82 546.85,-64.78"/>
</g>
<!-- Node6 -->
<g id="node6" class="node">
<title>Node6</title>
<g id="a_node6"><a xlink:href="panic_8cc.html" target="_top" xlink:title=" ">
<polygon fill="white" stroke="black" points="288.5,-0.5 288.5,-19.5 341.5,-19.5 341.5,-0.5 288.5,-0.5"/>
<text text-anchor="middle" x="315" y="-7.5" font-family="Helvetica,sans-Serif" font-size="10.00">panic.cc</text>
</a>
</g>
</g>
<!-- Node1&#45;&gt;Node6 -->
<g id="edge5" class="edge">
<title>Node1&#45;&gt;Node6</title>
<path fill="none" stroke="midnightblue" d="M547.15,-58.66C501.47,-50.44 420.12,-35.33 351,-20 347.98,-19.33 344.83,-18.6 341.7,-17.84"/>
<polygon fill="midnightblue" stroke="midnightblue" points="546.7,-62.13 557.16,-60.45 547.93,-55.24 546.7,-62.13"/>
</g>
<!-- Node7 -->
<g id="node7" class="node">
<title>Node7</title>
<g id="a_node7"><a xlink:href="kernel_2readline_8cc.html" target="_top" xlink:title=" ">
<polygon fill="white" stroke="black" points="360,-0.5 360,-19.5 424,-19.5 424,-0.5 360,-0.5"/>
<text text-anchor="middle" x="392" y="-7.5" font-family="Helvetica,sans-Serif" font-size="10.00">readline.cc</text>
</a>
</g>
</g>
<!-- Node1&#45;&gt;Node7 -->
<g id="edge6" class="edge">
<title>Node1&#45;&gt;Node7</title>
<path fill="none" stroke="midnightblue" d="M547.17,-54.87C511.18,-44.69 456.31,-29.18 422.38,-19.59"/>
<polygon fill="midnightblue" stroke="midnightblue" points="546.67,-58.36 557.24,-57.72 548.57,-51.63 546.67,-58.36"/>
</g>
<!-- Node8 -->
<g id="node8" class="node">
<title>Node8</title>
<g id="a_node8"><a xlink:href="kernel_2printf_8cc.html" target="_top" xlink:title=" ">
<polygon fill="white" stroke="black" points="442,-0.5 442,-19.5 494,-19.5 494,-0.5 442,-0.5"/>
<text text-anchor="middle" x="468" y="-7.5" font-family="Helvetica,sans-Serif" font-size="10.00">printf.cc</text>
</a>
</g>
</g>
<!-- Node1&#45;&gt;Node8 -->
<g id="edge7" class="edge">
<title>Node1&#45;&gt;Node8</title>
<path fill="none" stroke="midnightblue" d="M555.52,-52.1C534.03,-42.01 504.78,-28.27 486.14,-19.52"/>
<polygon fill="midnightblue" stroke="midnightblue" points="554.24,-55.36 564.78,-56.44 557.21,-49.02 554.24,-55.36"/>
</g>
<!-- Node9 -->
<g id="node9" class="node">
<title>Node9</title>
<g id="a_node9"><a xlink:href="system_8cc.html" target="_top" xlink:title=" ">
<polygon fill="white" stroke="black" points="512,-0.5 512,-19.5 574,-19.5 574,-0.5 512,-0.5"/>
<text text-anchor="middle" x="543" y="-7.5" font-family="Helvetica,sans-Serif" font-size="10.00">system.cc</text>
</a>
</g>
</g>
<!-- Node1&#45;&gt;Node9 -->
<g id="edge8" class="edge">
<title>Node1&#45;&gt;Node9</title>
<path fill="none" stroke="midnightblue" d="M570.3,-47.86C563.37,-38.5 555.09,-27.33 549.48,-19.75"/>
<polygon fill="midnightblue" stroke="midnightblue" points="567.63,-50.13 576.39,-56.08 573.25,-45.96 567.63,-50.13"/>
</g>
<!-- Node10 -->
<g id="node10" class="node">
<title>Node10</title>
<g id="a_node10"><a xlink:href="monitor_8cc.html" target="_top" xlink:title=" ">
<polygon fill="white" stroke="black" points="592,-0.5 592,-19.5 654,-19.5 654,-0.5 592,-0.5"/>
<text text-anchor="middle" x="623" y="-7.5" font-family="Helvetica,sans-Serif" font-size="10.00">monitor.cc</text>
</a>
</g>
</g>
<!-- Node1&#45;&gt;Node10 -->
<g id="edge9" class="edge">
<title>Node1&#45;&gt;Node10</title>
<path fill="none" stroke="midnightblue" d="M595.7,-47.86C602.63,-38.5 610.91,-27.33 616.52,-19.75"/>
<polygon fill="midnightblue" stroke="midnightblue" points="592.75,-45.96 589.61,-56.08 598.37,-50.13 592.75,-45.96"/>
</g>
<!-- Node11 -->
<g id="node11" class="node">
<title>Node11</title>
<g id="a_node11"><a xlink:href="task_8cc.html" target="_top" xlink:title=" ">
<polygon fill="white" stroke="black" points="672.5,-0.5 672.5,-19.5 721.5,-19.5 721.5,-0.5 672.5,-0.5"/>
<text text-anchor="middle" x="697" y="-7.5" font-family="Helvetica,sans-Serif" font-size="10.00">task.cc</text>
</a>
</g>
</g>
<!-- Node1&#45;&gt;Node11 -->
<g id="edge10" class="edge">
<title>Node1&#45;&gt;Node11</title>
<path fill="none" stroke="midnightblue" d="M610.24,-52.1C631.54,-42.01 660.54,-28.27 679.02,-19.52"/>
<polygon fill="midnightblue" stroke="midnightblue" points="608.6,-49 601.06,-56.44 611.6,-55.33 608.6,-49"/>
</g>
<!-- Node12 -->
<g id="node12" class="node">
<title>Node12</title>
<g id="a_node12"><a xlink:href="vmem_8cc.html" target="_top" xlink:title=" ">
<polygon fill="white" stroke="black" points="739.5,-0.5 739.5,-19.5 796.5,-19.5 796.5,-0.5 739.5,-0.5"/>
<text text-anchor="middle" x="768" y="-7.5" font-family="Helvetica,sans-Serif" font-size="10.00">vmem.cc</text>
</a>
</g>
</g>
<!-- Node1&#45;&gt;Node12 -->
<g id="edge11" class="edge">
<title>Node1&#45;&gt;Node12</title>
<path fill="none" stroke="midnightblue" d="M618.58,-54.61C653.77,-44.34 706.95,-28.82 739.46,-19.33"/>
<polygon fill="midnightblue" stroke="midnightblue" points="617.34,-51.33 608.72,-57.49 619.3,-58.05 617.34,-51.33"/>
</g>
<!-- Node13 -->
<g id="node13" class="node">
<title>Node13</title>
<g id="a_node13"><a xlink:href="exception_8cc.html" target="_top" xlink:title=" ">
<polygon fill="white" stroke="black" points="815,-0.5 815,-19.5 887,-19.5 887,-0.5 815,-0.5"/>
<text text-anchor="middle" x="851" y="-7.5" font-family="Helvetica,sans-Serif" font-size="10.00">exception.cc</text>
</a>
</g>
</g>
<!-- Node1&#45;&gt;Node13 -->
<g id="edge12" class="edge">
<title>Node1&#45;&gt;Node13</title>
<path fill="none" stroke="midnightblue" d="M618.63,-57.82C669.75,-47.52 763.4,-28.65 814.83,-18.29"/>
<polygon fill="midnightblue" stroke="midnightblue" points="617.81,-54.42 608.7,-59.82 619.19,-61.28 617.81,-54.42"/>
</g>
<!-- Node14 -->
<g id="node14" class="node">
<title>Node14</title>
<g id="a_node14"><a xlink:href="printfmt_8cc.html" target="_top" xlink:title=" ">
<polygon fill="white" stroke="black" points="905.5,-0.5 905.5,-19.5 968.5,-19.5 968.5,-0.5 905.5,-0.5"/>
<text text-anchor="middle" x="937" y="-7.5" font-family="Helvetica,sans-Serif" font-size="10.00">printfmt.cc</text>
</a>
</g>
</g>
<!-- Node1&#45;&gt;Node14 -->
<g id="edge13" class="edge">
<title>Node1&#45;&gt;Node14</title>
<path fill="none" stroke="midnightblue" d="M618.83,-60.72C677.13,-53.55 796.07,-38.13 896,-20 899.01,-19.45 902.14,-18.84 905.26,-18.21"/>
<polygon fill="midnightblue" stroke="midnightblue" points="618.17,-57.27 608.66,-61.96 619.01,-64.22 618.17,-57.27"/>
</g>
<!-- Node15 -->
<g id="node15" class="node">
<title>Node15</title>
<g id="a_node15"><a xlink:href="trap_8cc.html" target="_top" xlink:title=" ">
<polygon fill="white" stroke="black" points="986.5,-0.5 986.5,-19.5 1033.5,-19.5 1033.5,-0.5 986.5,-0.5"/>
<text text-anchor="middle" x="1010" y="-7.5" font-family="Helvetica,sans-Serif" font-size="10.00">trap.cc</text>
</a>
</g>
</g>
<!-- Node1&#45;&gt;Node15 -->
<g id="edge14" class="edge">
<title>Node1&#45;&gt;Node15</title>
<path fill="none" stroke="midnightblue" d="M618.63,-62.87C688.23,-58.28 846.9,-45.73 978,-20 980.72,-19.47 983.54,-18.82 986.34,-18.11"/>
<polygon fill="midnightblue" stroke="midnightblue" points="618.39,-59.38 608.63,-63.51 618.84,-66.36 618.39,-59.38"/>
</g>
<!-- Node16 -->
<g id="node16" class="node">
<title>Node16</title>
<g id="a_node16"><a xlink:href="hello_8cc.html" target="_top" xlink:title=" ">
<polygon fill="white" stroke="black" points="1052,-0.5 1052,-19.5 1102,-19.5 1102,-0.5 1052,-0.5"/>
<text text-anchor="middle" x="1077" y="-7.5" font-family="Helvetica,sans-Serif" font-size="10.00">hello.cc</text>
</a>
</g>
</g>
<!-- Node1&#45;&gt;Node16 -->
<g id="edge15" class="edge">
<title>Node1&#45;&gt;Node16</title>
<path fill="none" stroke="midnightblue" d="M618.85,-63.46C696.63,-59.7 886.49,-48.18 1043,-20 1045.88,-19.48 1048.88,-18.84 1051.85,-18.14"/>
<polygon fill="midnightblue" stroke="midnightblue" points="618.46,-59.98 608.63,-63.94 618.78,-66.97 618.46,-59.98"/>
</g>
<!-- Node17 -->
<g id="node17" class="node">
<title>Node17</title>
<g id="a_node17"><a xlink:href="user_2lib_2readline_8cc.html" target="_top" xlink:title=" ">
<polygon fill="white" stroke="black" points="1120,-0.5 1120,-19.5 1184,-19.5 1184,-0.5 1120,-0.5"/>
<text text-anchor="middle" x="1152" y="-7.5" font-family="Helvetica,sans-Serif" font-size="10.00">readline.cc</text>
</a>
</g>
</g>
<!-- Node1&#45;&gt;Node17 -->
<g id="edge16" class="edge">
<title>Node1&#45;&gt;Node17</title>
<path fill="none" stroke="midnightblue" d="M618.91,-63.56C704.51,-59.79 927.17,-47.89 1111,-20 1113.88,-19.56 1116.86,-19.04 1119.85,-18.48"/>
<polygon fill="midnightblue" stroke="midnightblue" points="618.53,-60.08 608.69,-64 618.83,-67.07 618.53,-60.08"/>
</g>
</g>
</svg>
