<?xml version="1.0" encoding="UTF-8" standalone="no"?>
<!DOCTYPE svg PUBLIC "-//W3C//DTD SVG 1.1//EN"
 "http://www.w3.org/Graphics/SVG/1.1/DTD/svg11.dtd">
<!-- Generated by graphviz version 2.44.1 (20200629.0846)
 -->
<!-- Title: stdin.hh Pages: 1 -->
<svg width="96pt" height="140pt"
 viewBox="0.00 0.00 96.00 140.00" xmlns="http://www.w3.org/2000/svg" xmlns:xlink="http://www.w3.org/1999/xlink">
<g id="graph0" class="graph" transform="scale(1 1) rotate(0) translate(4 136)">
<title>stdin.hh</title>
<polygon fill="white" stroke="transparent" points="-4,4 -4,-136 92,-136 92,4 -4,4"/>
<!-- Node1 -->
<g id="node1" class="node">
<title>Node1</title>
<g id="a_node1"><a xlink:title=" ">
<polygon fill="#bfbfbf" stroke="black" points="18.5,-112.5 18.5,-131.5 69.5,-131.5 69.5,-112.5 18.5,-112.5"/>
<text text-anchor="middle" x="44" y="-119.5" font-family="Helvetica,sans-Serif" font-size="10.00">stdin.hh</text>
</a>
</g>
</g>
<!-- Node2 -->
<g id="node2" class="node">
<title>Node2</title>
<g id="a_node2"><a xlink:href="vargs_8hh.html" target="_top" xlink:title=" ">
<polygon fill="white" stroke="black" points="0,-56.5 0,-75.5 88,-75.5 88,-56.5 0,-56.5"/>
<text text-anchor="middle" x="44" y="-63.5" font-family="Helvetica,sans-Serif" font-size="10.00">include/vargs.hh</text>
</a>
</g>
</g>
<!-- Node1&#45;&gt;Node2 -->
<g id="edge1" class="edge">
<title>Node1&#45;&gt;Node2</title>
<path fill="none" stroke="midnightblue" d="M44,-112.08C44,-105.01 44,-94.86 44,-85.99"/>
<polygon fill="midnightblue" stroke="midnightblue" points="47.5,-85.75 44,-75.75 40.5,-85.75 47.5,-85.75"/>
</g>
<!-- Node3 -->
<g id="node3" class="node">
<title>Node3</title>
<g id="a_node3"><a xlink:title=" ">
<polygon fill="white" stroke="#bfbfbf" points="19.5,-0.5 19.5,-19.5 68.5,-19.5 68.5,-0.5 19.5,-0.5"/>
<text text-anchor="middle" x="44" y="-7.5" font-family="Helvetica,sans-Serif" font-size="10.00">cstdarg</text>
</a>
</g>
</g>
<!-- Node2&#45;&gt;Node3 -->
<g id="edge2" class="edge">
<title>Node2&#45;&gt;Node3</title>
<path fill="none" stroke="midnightblue" d="M44,-56.08C44,-49.01 44,-38.86 44,-29.99"/>
<polygon fill="midnightblue" stroke="midnightblue" points="47.5,-29.75 44,-19.75 40.5,-29.75 47.5,-29.75"/>
</g>
</g>
</svg>
