<?xml version="1.0" encoding="UTF-8" standalone="no"?>
<!DOCTYPE svg PUBLIC "-//W3C//DTD SVG 1.1//EN"
 "http://www.w3.org/Graphics/SVG/1.1/DTD/svg11.dtd">
<!-- Generated by graphviz version 2.44.1 (20200629.0846)
 -->
<!-- Title: stdlib.hh Pages: 1 -->
<svg width="284pt" height="84pt"
 viewBox="0.00 0.00 284.00 84.00" xmlns="http://www.w3.org/2000/svg" xmlns:xlink="http://www.w3.org/1999/xlink">
<g id="graph0" class="graph" transform="scale(1 1) rotate(0) translate(4 80)">
<title>stdlib.hh</title>
<polygon fill="white" stroke="transparent" points="-4,4 -4,-80 280,-80 280,4 -4,4"/>
<!-- Node1 -->
<g id="node1" class="node">
<title>Node1</title>
<g id="a_node1"><a xlink:title=" ">
<polygon fill="#bfbfbf" stroke="black" points="106.5,-56.5 106.5,-75.5 159.5,-75.5 159.5,-56.5 106.5,-56.5"/>
<text text-anchor="middle" x="133" y="-63.5" font-family="Helvetica,sans-Serif" font-size="10.00">stdlib.hh</text>
</a>
</g>
</g>
<!-- Node2 -->
<g id="node2" class="node">
<title>Node2</title>
<g id="a_node2"><a xlink:href="umain_8cc.html" target="_top" xlink:title=" ">
<polygon fill="white" stroke="black" points="0,-0.5 0,-19.5 56,-19.5 56,-0.5 0,-0.5"/>
<text text-anchor="middle" x="28" y="-7.5" font-family="Helvetica,sans-Serif" font-size="10.00">umain.cc</text>
</a>
</g>
</g>
<!-- Node1&#45;&gt;Node2 -->
<g id="edge1" class="edge">
<title>Node1&#45;&gt;Node2</title>
<path fill="none" stroke="midnightblue" d="M107.19,-51.73C87.75,-41.73 61.65,-28.31 44.83,-19.65"/>
<polygon fill="midnightblue" stroke="midnightblue" points="105.64,-54.86 116.13,-56.32 108.84,-48.64 105.64,-54.86"/>
</g>
<!-- Node3 -->
<g id="node3" class="node">
<title>Node3</title>
<g id="a_node3"><a xlink:href="hello_8cc.html" target="_top" xlink:title=" ">
<polygon fill="white" stroke="black" points="74,-0.5 74,-19.5 124,-19.5 124,-0.5 74,-0.5"/>
<text text-anchor="middle" x="99" y="-7.5" font-family="Helvetica,sans-Serif" font-size="10.00">hello.cc</text>
</a>
</g>
</g>
<!-- Node1&#45;&gt;Node3 -->
<g id="edge2" class="edge">
<title>Node1&#45;&gt;Node3</title>
<path fill="none" stroke="midnightblue" d="M122.02,-47.57C116.17,-38.27 109.23,-27.25 104.51,-19.75"/>
<polygon fill="midnightblue" stroke="midnightblue" points="119.1,-49.49 127.39,-56.08 125.02,-45.76 119.1,-49.49"/>
</g>
<!-- Node4 -->
<g id="node4" class="node">
<title>Node4</title>
<g id="a_node4"><a xlink:href="user_2lib_2printf_8cc.html" target="_top" xlink:title=" ">
<polygon fill="white" stroke="black" points="142,-0.5 142,-19.5 194,-19.5 194,-0.5 142,-0.5"/>
<text text-anchor="middle" x="168" y="-7.5" font-family="Helvetica,sans-Serif" font-size="10.00">printf.cc</text>
</a>
</g>
</g>
<!-- Node1&#45;&gt;Node4 -->
<g id="edge3" class="edge">
<title>Node1&#45;&gt;Node4</title>
<path fill="none" stroke="midnightblue" d="M144.3,-47.57C150.32,-38.27 157.47,-27.25 162.33,-19.75"/>
<polygon fill="midnightblue" stroke="midnightblue" points="141.28,-45.79 138.78,-56.08 147.16,-49.6 141.28,-45.79"/>
</g>
<!-- Node5 -->
<g id="node5" class="node">
<title>Node5</title>
<g id="a_node5"><a xlink:href="user_2lib_2readline_8cc.html" target="_top" xlink:title=" ">
<polygon fill="white" stroke="black" points="212,-0.5 212,-19.5 276,-19.5 276,-0.5 212,-0.5"/>
<text text-anchor="middle" x="244" y="-7.5" font-family="Helvetica,sans-Serif" font-size="10.00">readline.cc</text>
</a>
</g>
</g>
<!-- Node1&#45;&gt;Node5 -->
<g id="edge4" class="edge">
<title>Node1&#45;&gt;Node5</title>
<path fill="none" stroke="midnightblue" d="M160.01,-51.86C180.59,-41.85 208.34,-28.35 226.21,-19.65"/>
<polygon fill="midnightblue" stroke="midnightblue" points="158.3,-48.8 150.83,-56.32 161.36,-55.1 158.3,-48.8"/>
</g>
</g>
</svg>
