<?xml version="1.0" encoding="UTF-8" standalone="no"?>
<!DOCTYPE svg PUBLIC "-//W3C//DTD SVG 1.1//EN"
 "http://www.w3.org/Graphics/SVG/1.1/DTD/svg11.dtd">
<!-- Generated by graphviz version 2.44.1 (20200629.0846)
 -->
<!-- Title: __builtin_memmove Pages: 1 -->
<svg width="411pt" height="85pt"
 viewBox="0.00 0.00 411.00 85.00" xmlns="http://www.w3.org/2000/svg" xmlns:xlink="http://www.w3.org/1999/xlink">
<g id="graph0" class="graph" transform="scale(1 1) rotate(0) translate(4 81)">
<title>__builtin_memmove</title>
<polygon fill="white" stroke="transparent" points="-4,4 -4,-81 407,-81 407,4 -4,4"/>
<!-- Node1 -->
<g id="node1" class="node">
<title>Node1</title>
<g id="a_node1"><a xlink:title=" ">
<polygon fill="#bfbfbf" stroke="black" points="0,-57.5 0,-76.5 104,-76.5 104,-57.5 0,-57.5"/>
<text text-anchor="middle" x="52" y="-64.5" font-family="Helvetica,sans-Serif" font-size="10.00">__builtin_memmove</text>
</a>
</g>
</g>
<!-- Node2 -->
<g id="node2" class="node">
<title>Node2</title>
<g id="a_node2"><a xlink:href="namespacestr.html#a062221f630647cf300f0dd982c4ed904" target="_top" xlink:title=" ">
<polygon fill="white" stroke="black" points="345,-38.5 345,-57.5 403,-57.5 403,-38.5 345,-38.5"/>
<text text-anchor="middle" x="374" y="-45.5" font-family="Helvetica,sans-Serif" font-size="10.00">str::count</text>
</a>
</g>
</g>
<!-- Node1&#45;&gt;Node2 -->
<g id="edge1" class="edge">
<title>Node1&#45;&gt;Node2</title>
<path fill="none" stroke="midnightblue" d="M104.26,-69.38C156.12,-71 238.5,-71.39 309,-62 317.42,-60.88 326.37,-59.22 334.82,-57.44"/>
<polygon fill="midnightblue" stroke="midnightblue" points="335.82,-60.8 344.82,-55.22 334.3,-53.97 335.82,-60.8"/>
</g>
<!-- Node3 -->
<g id="node3" class="node">
<title>Node3</title>
<g id="a_node3"><a xlink:href="namespacemem.html#af76c5f7ce2bc545fac3b10698f0c8753" target="_top" xlink:title=" ">
<polygon fill="white" stroke="black" points="140,-38.5 140,-57.5 208,-57.5 208,-38.5 140,-38.5"/>
<text text-anchor="middle" x="174" y="-45.5" font-family="Helvetica,sans-Serif" font-size="10.00">mem::move</text>
</a>
</g>
</g>
<!-- Node1&#45;&gt;Node3 -->
<g id="edge2" class="edge">
<title>Node1&#45;&gt;Node3</title>
<path fill="none" stroke="midnightblue" d="M104.24,-58.89C112.84,-57.52 121.69,-56.12 130.06,-54.8"/>
<polygon fill="midnightblue" stroke="midnightblue" points="130.65,-58.25 139.98,-53.23 129.56,-51.34 130.65,-58.25"/>
</g>
<!-- Node3&#45;&gt;Node2 -->
<g id="edge5" class="edge">
<title>Node3&#45;&gt;Node2</title>
<path fill="none" stroke="midnightblue" d="M208.14,-48C243.01,-48 297.83,-48 334.57,-48"/>
<polygon fill="midnightblue" stroke="midnightblue" points="334.88,-51.5 344.88,-48 334.88,-44.5 334.88,-51.5"/>
</g>
<!-- Node4 -->
<g id="node4" class="node">
<title>Node4</title>
<g id="a_node4"><a xlink:href="namespacemem.html#a64d9d05b439041901498c606de606431" target="_top" xlink:title=" ">
<polygon fill="white" stroke="black" points="244,-0.5 244,-19.5 309,-19.5 309,-0.5 244,-0.5"/>
<text text-anchor="middle" x="276.5" y="-7.5" font-family="Helvetica,sans-Serif" font-size="10.00">mem::copy</text>
</a>
</g>
</g>
<!-- Node3&#45;&gt;Node4 -->
<g id="edge3" class="edge">
<title>Node3&#45;&gt;Node4</title>
<path fill="none" stroke="midnightblue" d="M200.36,-38.41C212.5,-33.82 227.23,-28.25 240.43,-23.26"/>
<polygon fill="midnightblue" stroke="midnightblue" points="242.03,-26.4 250.15,-19.59 239.56,-19.85 242.03,-26.4"/>
</g>
<!-- Node4&#45;&gt;Node2 -->
<g id="edge4" class="edge">
<title>Node4&#45;&gt;Node2</title>
<path fill="none" stroke="midnightblue" d="M301.6,-19.59C313.02,-24.13 326.86,-29.64 339.3,-34.59"/>
<polygon fill="midnightblue" stroke="midnightblue" points="338.32,-37.97 348.91,-38.41 340.91,-31.46 338.32,-37.97"/>
</g>
</g>
</svg>
