<?xml version="1.0" encoding="UTF-8" standalone="no"?>
<!DOCTYPE svg PUBLIC "-//W3C//DTD SVG 1.1//EN"
 "http://www.w3.org/Graphics/SVG/1.1/DTD/svg11.dtd">
<!-- Generated by graphviz version 2.44.1 (20200629.0846)
 -->
<!-- Title: string.cc Pages: 1 -->
<svg width="195pt" height="196pt"
 viewBox="0.00 0.00 194.50 196.00" xmlns="http://www.w3.org/2000/svg" xmlns:xlink="http://www.w3.org/1999/xlink">
<g id="graph0" class="graph" transform="scale(1 1) rotate(0) translate(4 192)">
<title>string.cc</title>
<polygon fill="white" stroke="transparent" points="-4,4 -4,-192 190.5,-192 190.5,4 -4,4"/>
<!-- Node1 -->
<g id="node1" class="node">
<title>Node1</title>
<g id="a_node1"><a xlink:title=" ">
<polygon fill="#bfbfbf" stroke="black" points="100,-168.5 100,-187.5 154,-187.5 154,-168.5 100,-168.5"/>
<text text-anchor="middle" x="127" y="-175.5" font-family="Helvetica,sans-Serif" font-size="10.00">string.cc</text>
</a>
</g>
</g>
<!-- Node2 -->
<g id="node2" class="node">
<title>Node2</title>
<g id="a_node2"><a xlink:href="string_8hh.html" target="_top" xlink:title=" ">
<polygon fill="white" stroke="black" points="11,-112.5 11,-131.5 99,-131.5 99,-112.5 11,-112.5"/>
<text text-anchor="middle" x="55" y="-119.5" font-family="Helvetica,sans-Serif" font-size="10.00">include/string.hh</text>
</a>
</g>
</g>
<!-- Node1&#45;&gt;Node2 -->
<g id="edge1" class="edge">
<title>Node1&#45;&gt;Node2</title>
<path fill="none" stroke="midnightblue" d="M115.43,-168.32C104.58,-160.18 88.12,-147.84 75.12,-138.09"/>
<polygon fill="midnightblue" stroke="midnightblue" points="76.88,-135.03 66.78,-131.83 72.68,-140.63 76.88,-135.03"/>
</g>
<!-- Node3 -->
<g id="node3" class="node">
<title>Node3</title>
<g id="a_node3"><a xlink:href="types_8h.html" target="_top" xlink:title=" ">
<polygon fill="white" stroke="black" points="53.5,-56.5 53.5,-75.5 136.5,-75.5 136.5,-56.5 53.5,-56.5"/>
<text text-anchor="middle" x="95" y="-63.5" font-family="Helvetica,sans-Serif" font-size="10.00">include/types.h</text>
</a>
</g>
</g>
<!-- Node1&#45;&gt;Node3 -->
<g id="edge7" class="edge">
<title>Node1&#45;&gt;Node3</title>
<path fill="none" stroke="midnightblue" d="M124.49,-168.37C119.3,-150.54 107.3,-109.3 100.32,-85.27"/>
<polygon fill="midnightblue" stroke="midnightblue" points="103.65,-84.22 97.5,-75.59 96.93,-86.17 103.65,-84.22"/>
</g>
<!-- Node6 -->
<g id="node6" class="node">
<title>Node6</title>
<g id="a_node6"><a xlink:href="ctype_8h.html" target="_top" xlink:title=" ">
<polygon fill="white" stroke="black" points="137.5,-0.5 137.5,-19.5 186.5,-19.5 186.5,-0.5 137.5,-0.5"/>
<text text-anchor="middle" x="162" y="-7.5" font-family="Helvetica,sans-Serif" font-size="10.00">ctype.h</text>
</a>
</g>
</g>
<!-- Node1&#45;&gt;Node6 -->
<g id="edge8" class="edge">
<title>Node1&#45;&gt;Node6</title>
<path fill="none" stroke="midnightblue" d="M128.88,-168.08C134.39,-141.95 150.57,-65.21 158.08,-29.58"/>
<polygon fill="midnightblue" stroke="midnightblue" points="161.56,-30.08 160.19,-19.57 154.71,-28.63 161.56,-30.08"/>
</g>
<!-- Node2&#45;&gt;Node3 -->
<g id="edge2" class="edge">
<title>Node2&#45;&gt;Node3</title>
<path fill="none" stroke="midnightblue" d="M61.61,-112.08C67.26,-104.46 75.54,-93.26 82.45,-83.94"/>
<polygon fill="midnightblue" stroke="midnightblue" points="85.38,-85.87 88.52,-75.75 79.75,-81.7 85.38,-85.87"/>
</g>
<!-- Node4 -->
<g id="node4" class="node">
<title>Node4</title>
<g id="a_node4"><a xlink:title=" ">
<polygon fill="white" stroke="#bfbfbf" points="0,-0.5 0,-19.5 52,-19.5 52,-0.5 0,-0.5"/>
<text text-anchor="middle" x="26" y="-7.5" font-family="Helvetica,sans-Serif" font-size="10.00">stddef.h</text>
</a>
</g>
</g>
<!-- Node3&#45;&gt;Node4 -->
<g id="edge3" class="edge">
<title>Node3&#45;&gt;Node4</title>
<path fill="none" stroke="midnightblue" d="M83.91,-56.32C73.51,-48.18 57.74,-35.84 45.28,-26.09"/>
<polygon fill="midnightblue" stroke="midnightblue" points="47.32,-23.24 37.29,-19.83 43.01,-28.75 47.32,-23.24"/>
</g>
<!-- Node5 -->
<g id="node5" class="node">
<title>Node5</title>
<g id="a_node5"><a xlink:title=" ">
<polygon fill="white" stroke="#bfbfbf" points="70.5,-0.5 70.5,-19.5 119.5,-19.5 119.5,-0.5 70.5,-0.5"/>
<text text-anchor="middle" x="95" y="-7.5" font-family="Helvetica,sans-Serif" font-size="10.00">stdint.h</text>
</a>
</g>
</g>
<!-- Node3&#45;&gt;Node5 -->
<g id="edge4" class="edge">
<title>Node3&#45;&gt;Node5</title>
<path fill="none" stroke="midnightblue" d="M95,-56.08C95,-49.01 95,-38.86 95,-29.99"/>
<polygon fill="midnightblue" stroke="midnightblue" points="98.5,-29.75 95,-19.75 91.5,-29.75 98.5,-29.75"/>
</g>
<!-- Node3&#45;&gt;Node6 -->
<g id="edge5" class="edge">
<title>Node3&#45;&gt;Node6</title>
<path fill="none" stroke="midnightblue" d="M100.65,-56.32C109.12,-48.06 124.44,-35.45 137.77,-25.63"/>
<polygon fill="midnightblue" stroke="midnightblue" points="140.04,-28.31 146.15,-19.65 135.98,-22.61 140.04,-28.31"/>
</g>
<!-- Node6&#45;&gt;Node3 -->
<g id="edge6" class="edge">
<title>Node6&#45;&gt;Node3</title>
<path fill="none" stroke="midnightblue" d="M156.19,-19.83C147.69,-28.11 132.47,-40.62 119.21,-50.38"/>
<polygon fill="midnightblue" stroke="midnightblue" points="116.99,-47.67 110.88,-56.32 121.05,-53.37 116.99,-47.67"/>
</g>
</g>
</svg>
