<?xml version="1.0" encoding="UTF-8" standalone="no"?>
<!DOCTYPE svg PUBLIC "-//W3C//DTD SVG 1.1//EN"
 "http://www.w3.org/Graphics/SVG/1.1/DTD/svg11.dtd">
<!-- Generated by graphviz version 2.44.1 (20200629.0846)
 -->
<!-- Title: string.hh Pages: 1 -->
<svg width="1056pt" height="308pt"
 viewBox="0.00 0.00 1056.00 308.00" xmlns="http://www.w3.org/2000/svg" xmlns:xlink="http://www.w3.org/1999/xlink">
<g id="graph0" class="graph" transform="scale(1 1) rotate(0) translate(4 304)">
<title>string.hh</title>
<polygon fill="white" stroke="transparent" points="-4,4 -4,-304 1052,-304 1052,4 -4,4"/>
<!-- Node1 -->
<g id="node1" class="node">
<title>Node1</title>
<g id="a_node1"><a xlink:title=" ">
<polygon fill="#bfbfbf" stroke="black" points="686,-280.5 686,-299.5 740,-299.5 740,-280.5 686,-280.5"/>
<text text-anchor="middle" x="713" y="-287.5" font-family="Helvetica,sans-Serif" font-size="10.00">string.hh</text>
</a>
</g>
</g>
<!-- Node2 -->
<g id="node2" class="node">
<title>Node2</title>
<g id="a_node2"><a xlink:href="include_2trap_8hh.html" target="_top" xlink:title=" ">
<polygon fill="white" stroke="black" points="412.5,-224.5 412.5,-243.5 459.5,-243.5 459.5,-224.5 412.5,-224.5"/>
<text text-anchor="middle" x="436" y="-231.5" font-family="Helvetica,sans-Serif" font-size="10.00">trap.hh</text>
</a>
</g>
</g>
<!-- Node1&#45;&gt;Node2 -->
<g id="edge1" class="edge">
<title>Node1&#45;&gt;Node2</title>
<path fill="none" stroke="midnightblue" d="M675.63,-282.52C628.5,-274.22 545.03,-259.09 474,-244 469.36,-243.01 464.41,-241.89 459.68,-240.79"/>
<polygon fill="midnightblue" stroke="midnightblue" points="675.22,-286 685.68,-284.28 676.43,-279.11 675.22,-286"/>
</g>
<!-- Node3 -->
<g id="node3" class="node">
<title>Node3</title>
<g id="a_node3"><a xlink:href="mp_8cc.html" target="_top" xlink:title=" ">
<polygon fill="white" stroke="black" points="615,-0.5 615,-19.5 659,-19.5 659,-0.5 615,-0.5"/>
<text text-anchor="middle" x="637" y="-7.5" font-family="Helvetica,sans-Serif" font-size="10.00">mp.cc</text>
</a>
</g>
</g>
<!-- Node1&#45;&gt;Node3 -->
<g id="edge27" class="edge">
<title>Node1&#45;&gt;Node3</title>
<path fill="none" stroke="midnightblue" d="M721.3,-270.88C739.04,-229.23 775.62,-124.92 732,-56 716.09,-30.86 681.93,-19.49 659.21,-14.55"/>
<polygon fill="midnightblue" stroke="midnightblue" points="718.09,-269.5 717.26,-280.06 724.49,-272.32 718.09,-269.5"/>
</g>
<!-- Node6 -->
<g id="node6" class="node">
<title>Node6</title>
<g id="a_node6"><a xlink:href="init_8cc.html" target="_top" xlink:title=" ">
<polygon fill="white" stroke="black" points="381.5,-0.5 381.5,-19.5 424.5,-19.5 424.5,-0.5 381.5,-0.5"/>
<text text-anchor="middle" x="403" y="-7.5" font-family="Helvetica,sans-Serif" font-size="10.00">init.cc</text>
</a>
</g>
</g>
<!-- Node1&#45;&gt;Node6 -->
<g id="edge26" class="edge">
<title>Node1&#45;&gt;Node6</title>
<path fill="none" stroke="midnightblue" d="M675.63,-287.22C528.88,-279.75 0,-248.04 0,-179 0,-179 0,-179 0,-121 0,-41.22 297.63,-17.32 381.33,-12.18"/>
<polygon fill="midnightblue" stroke="midnightblue" points="675.76,-290.73 685.92,-287.74 676.11,-283.74 675.76,-290.73"/>
</g>
<!-- Node7 -->
<g id="node7" class="node">
<title>Node7</title>
<g id="a_node7"><a xlink:href="monitor_8cc.html" target="_top" xlink:title=" ">
<polygon fill="white" stroke="black" points="363,-56.5 363,-75.5 425,-75.5 425,-56.5 363,-56.5"/>
<text text-anchor="middle" x="394" y="-63.5" font-family="Helvetica,sans-Serif" font-size="10.00">monitor.cc</text>
</a>
</g>
</g>
<!-- Node1&#45;&gt;Node7 -->
<g id="edge28" class="edge">
<title>Node1&#45;&gt;Node7</title>
<path fill="none" stroke="midnightblue" d="M692.04,-274.42C631.03,-231.96 454.81,-109.32 406.42,-75.64"/>
<polygon fill="midnightblue" stroke="midnightblue" points="690.29,-277.46 700.49,-280.3 694.29,-271.71 690.29,-277.46"/>
</g>
<!-- Node8 -->
<g id="node8" class="node">
<title>Node8</title>
<g id="a_node8"><a xlink:href="task_8cc.html" target="_top" xlink:title=" ">
<polygon fill="white" stroke="black" points="191.5,-56.5 191.5,-75.5 240.5,-75.5 240.5,-56.5 191.5,-56.5"/>
<text text-anchor="middle" x="216" y="-63.5" font-family="Helvetica,sans-Serif" font-size="10.00">task.cc</text>
</a>
</g>
</g>
<!-- Node1&#45;&gt;Node8 -->
<g id="edge29" class="edge">
<title>Node1&#45;&gt;Node8</title>
<path fill="none" stroke="midnightblue" d="M675.59,-286.3C547.39,-276.18 129.72,-235.6 57,-132 22.82,-83.31 138.47,-71.03 191.19,-67.99"/>
<polygon fill="midnightblue" stroke="midnightblue" points="675.46,-289.81 685.7,-287.09 676,-282.83 675.46,-289.81"/>
</g>
<!-- Node13 -->
<g id="node13" class="node">
<title>Node13</title>
<g id="a_node13"><a xlink:href="vmem_8cc.html" target="_top" xlink:title=" ">
<polygon fill="white" stroke="black" points="665.5,-56.5 665.5,-75.5 722.5,-75.5 722.5,-56.5 665.5,-56.5"/>
<text text-anchor="middle" x="694" y="-63.5" font-family="Helvetica,sans-Serif" font-size="10.00">vmem.cc</text>
</a>
</g>
</g>
<!-- Node1&#45;&gt;Node13 -->
<g id="edge30" class="edge">
<title>Node1&#45;&gt;Node13</title>
<path fill="none" stroke="midnightblue" d="M711.4,-270.3C707.49,-224.64 697.58,-108.85 694.76,-75.88"/>
<polygon fill="midnightblue" stroke="midnightblue" points="707.92,-270.63 712.26,-280.3 714.89,-270.04 707.92,-270.63"/>
</g>
<!-- Node19 -->
<g id="node19" class="node">
<title>Node19</title>
<g id="a_node19"><a xlink:href="console_8cc.html" target="_top" xlink:title=" ">
<polygon fill="white" stroke="black" points="760,-224.5 760,-243.5 824,-243.5 824,-224.5 760,-224.5"/>
<text text-anchor="middle" x="792" y="-231.5" font-family="Helvetica,sans-Serif" font-size="10.00">console.cc</text>
</a>
</g>
</g>
<!-- Node1&#45;&gt;Node19 -->
<g id="edge25" class="edge">
<title>Node1&#45;&gt;Node19</title>
<path fill="none" stroke="midnightblue" d="M734.03,-274.62C748.47,-264.76 767.14,-251.99 779.34,-243.65"/>
<polygon fill="midnightblue" stroke="midnightblue" points="731.97,-271.79 725.69,-280.32 735.92,-277.57 731.97,-271.79"/>
</g>
<!-- Node20 -->
<g id="node20" class="node">
<title>Node20</title>
<g id="a_node20"><a xlink:href="printfmt_8cc.html" target="_top" xlink:title=" ">
<polygon fill="white" stroke="black" points="842.5,-224.5 842.5,-243.5 905.5,-243.5 905.5,-224.5 842.5,-224.5"/>
<text text-anchor="middle" x="874" y="-231.5" font-family="Helvetica,sans-Serif" font-size="10.00">printfmt.cc</text>
</a>
</g>
</g>
<!-- Node1&#45;&gt;Node20 -->
<g id="edge31" class="edge">
<title>Node1&#45;&gt;Node20</title>
<path fill="none" stroke="midnightblue" d="M748.26,-277.17C778.58,-267 821.57,-252.59 848.61,-243.52"/>
<polygon fill="midnightblue" stroke="midnightblue" points="746.88,-273.95 738.51,-280.44 749.1,-280.58 746.88,-273.95"/>
</g>
<!-- Node21 -->
<g id="node21" class="node">
<title>Node21</title>
<g id="a_node21"><a xlink:href="strtol_8cc.html" target="_top" xlink:title=" ">
<polygon fill="white" stroke="black" points="924,-224.5 924,-243.5 976,-243.5 976,-224.5 924,-224.5"/>
<text text-anchor="middle" x="950" y="-231.5" font-family="Helvetica,sans-Serif" font-size="10.00">strtol.cc</text>
</a>
</g>
</g>
<!-- Node1&#45;&gt;Node21 -->
<g id="edge32" class="edge">
<title>Node1&#45;&gt;Node21</title>
<path fill="none" stroke="midnightblue" d="M750.16,-281.1C790.75,-272.38 857.63,-257.76 915,-244 917.81,-243.33 920.73,-242.6 923.65,-241.87"/>
<polygon fill="midnightblue" stroke="midnightblue" points="749.23,-277.72 740.18,-283.24 750.69,-284.57 749.23,-277.72"/>
</g>
<!-- Node22 -->
<g id="node22" class="node">
<title>Node22</title>
<g id="a_node22"><a xlink:href="string_8cc.html" target="_top" xlink:title=" ">
<polygon fill="white" stroke="black" points="994,-224.5 994,-243.5 1048,-243.5 1048,-224.5 994,-224.5"/>
<text text-anchor="middle" x="1021" y="-231.5" font-family="Helvetica,sans-Serif" font-size="10.00">string.cc</text>
</a>
</g>
</g>
<!-- Node1&#45;&gt;Node22 -->
<g id="edge33" class="edge">
<title>Node1&#45;&gt;Node22</title>
<path fill="none" stroke="midnightblue" d="M750.35,-283.8C802.94,-276.26 901.69,-261.28 985,-244 987.9,-243.4 990.92,-242.72 993.93,-242.02"/>
<polygon fill="midnightblue" stroke="midnightblue" points="749.57,-280.38 740.16,-285.25 750.55,-287.31 749.57,-280.38"/>
</g>
<!-- Node2&#45;&gt;Node3 -->
<g id="edge2" class="edge">
<title>Node2&#45;&gt;Node3</title>
<path fill="none" stroke="midnightblue" d="M461.8,-219.56C503.11,-196.48 582.96,-145.05 618,-76 627.58,-57.13 633.08,-32.66 635.5,-19.8"/>
<polygon fill="midnightblue" stroke="midnightblue" points="459.99,-216.56 452.89,-224.43 463.35,-222.71 459.99,-216.56"/>
</g>
<!-- Node4 -->
<g id="node4" class="node">
<title>Node4</title>
<g id="a_node4"><a xlink:href="kernel_2trap_8hh.html" target="_top" xlink:title=" ">
<polygon fill="white" stroke="black" points="412.5,-168.5 412.5,-187.5 459.5,-187.5 459.5,-168.5 412.5,-168.5"/>
<text text-anchor="middle" x="436" y="-175.5" font-family="Helvetica,sans-Serif" font-size="10.00">trap.hh</text>
</a>
</g>
</g>
<!-- Node2&#45;&gt;Node4 -->
<g id="edge3" class="edge">
<title>Node2&#45;&gt;Node4</title>
<path fill="none" stroke="midnightblue" d="M436,-213.8C436,-204.91 436,-194.78 436,-187.75"/>
<polygon fill="midnightblue" stroke="midnightblue" points="432.5,-214.08 436,-224.08 439.5,-214.08 432.5,-214.08"/>
</g>
<!-- Node14 -->
<g id="node14" class="node">
<title>Node14</title>
<g id="a_node14"><a xlink:href="stdlib_8hh.html" target="_top" xlink:title=" ">
<polygon fill="white" stroke="black" points="220.5,-168.5 220.5,-187.5 273.5,-187.5 273.5,-168.5 220.5,-168.5"/>
<text text-anchor="middle" x="247" y="-175.5" font-family="Helvetica,sans-Serif" font-size="10.00">stdlib.hh</text>
</a>
</g>
</g>
<!-- Node2&#45;&gt;Node14 -->
<g id="edge20" class="edge">
<title>Node2&#45;&gt;Node14</title>
<path fill="none" stroke="midnightblue" d="M402.69,-223.48C365.91,-212.97 307.44,-196.27 273.59,-186.6"/>
<polygon fill="midnightblue" stroke="midnightblue" points="401.87,-226.89 412.45,-226.27 403.79,-220.16 401.87,-226.89"/>
</g>
<!-- Node5 -->
<g id="node5" class="node">
<title>Node5</title>
<g id="a_node5"><a xlink:href="monitor_8hh.html" target="_top" xlink:title=" ">
<polygon fill="white" stroke="black" points="360,-112.5 360,-131.5 422,-131.5 422,-112.5 360,-112.5"/>
<text text-anchor="middle" x="391" y="-119.5" font-family="Helvetica,sans-Serif" font-size="10.00">monitor.hh</text>
</a>
</g>
</g>
<!-- Node4&#45;&gt;Node5 -->
<g id="edge4" class="edge">
<title>Node4&#45;&gt;Node5</title>
<path fill="none" stroke="midnightblue" d="M421.95,-160.14C414.11,-150.74 404.67,-139.4 398.29,-131.75"/>
<polygon fill="midnightblue" stroke="midnightblue" points="419.48,-162.64 428.57,-168.08 424.86,-158.16 419.48,-162.64"/>
</g>
<!-- Node9 -->
<g id="node9" class="node">
<title>Node9</title>
<g id="a_node9"><a xlink:href="trap_8cc.html" target="_top" xlink:title=" ">
<polygon fill="white" stroke="black" points="297.5,-56.5 297.5,-75.5 344.5,-75.5 344.5,-56.5 297.5,-56.5"/>
<text text-anchor="middle" x="321" y="-63.5" font-family="Helvetica,sans-Serif" font-size="10.00">trap.cc</text>
</a>
</g>
</g>
<!-- Node4&#45;&gt;Node9 -->
<g id="edge19" class="edge">
<title>Node4&#45;&gt;Node9</title>
<path fill="none" stroke="midnightblue" d="M439.44,-158.47C440.99,-144.41 440.68,-125.28 431,-112 420.46,-97.53 373.68,-82.01 344.63,-73.5"/>
<polygon fill="midnightblue" stroke="midnightblue" points="435.96,-158.05 437.95,-168.46 442.89,-159.09 435.96,-158.05"/>
</g>
<!-- Node10 -->
<g id="node10" class="node">
<title>Node10</title>
<g id="a_node10"><a xlink:href="kernel_2task_8hh.html" target="_top" xlink:title=" ">
<polygon fill="white" stroke="black" points="516.5,-112.5 516.5,-131.5 565.5,-131.5 565.5,-112.5 516.5,-112.5"/>
<text text-anchor="middle" x="541" y="-119.5" font-family="Helvetica,sans-Serif" font-size="10.00">task.hh</text>
</a>
</g>
</g>
<!-- Node4&#45;&gt;Node10 -->
<g id="edge9" class="edge">
<title>Node4&#45;&gt;Node10</title>
<path fill="none" stroke="midnightblue" d="M461.81,-163.73C481.25,-153.73 507.35,-140.31 524.17,-131.65"/>
<polygon fill="midnightblue" stroke="midnightblue" points="460.16,-160.64 452.87,-168.32 463.36,-166.86 460.16,-160.64"/>
</g>
<!-- Node5&#45;&gt;Node6 -->
<g id="edge5" class="edge">
<title>Node5&#45;&gt;Node6</title>
<path fill="none" stroke="midnightblue" d="M353.45,-109.25C327.59,-100.31 296.57,-87.61 289,-76 284.15,-68.55 284,-63.35 289,-56 309.71,-25.57 354.49,-15.71 381.35,-12.53"/>
<polygon fill="midnightblue" stroke="midnightblue" points="352.46,-112.61 363.05,-112.48 354.69,-105.98 352.46,-112.61"/>
</g>
<!-- Node5&#45;&gt;Node7 -->
<g id="edge6" class="edge">
<title>Node5&#45;&gt;Node7</title>
<path fill="none" stroke="midnightblue" d="M392.07,-101.8C392.56,-92.91 393.12,-82.78 393.51,-75.75"/>
<polygon fill="midnightblue" stroke="midnightblue" points="388.56,-101.9 391.5,-112.08 395.54,-102.29 388.56,-101.9"/>
</g>
<!-- Node5&#45;&gt;Node8 -->
<g id="edge7" class="edge">
<title>Node5&#45;&gt;Node8</title>
<path fill="none" stroke="midnightblue" d="M353.66,-109.48C319.59,-98.97 270.2,-83.72 240.77,-74.64"/>
<polygon fill="midnightblue" stroke="midnightblue" points="352.68,-112.84 363.27,-112.44 354.75,-106.15 352.68,-112.84"/>
</g>
<!-- Node5&#45;&gt;Node9 -->
<g id="edge8" class="edge">
<title>Node5&#45;&gt;Node9</title>
<path fill="none" stroke="midnightblue" d="M371.69,-106.1C359.09,-96.38 343.07,-84.03 332.45,-75.83"/>
<polygon fill="midnightblue" stroke="midnightblue" points="369.7,-108.99 379.75,-112.32 373.97,-103.44 369.7,-108.99"/>
</g>
<!-- Node10&#45;&gt;Node6 -->
<g id="edge10" class="edge">
<title>Node10&#45;&gt;Node6</title>
<path fill="none" stroke="midnightblue" d="M538.6,-102.03C535.86,-87.72 530.09,-68.49 518,-56 492.66,-29.81 450.26,-18.56 424.63,-13.96"/>
<polygon fill="midnightblue" stroke="midnightblue" points="535.19,-102.89 540.2,-112.22 542.1,-101.8 535.19,-102.89"/>
</g>
<!-- Node10&#45;&gt;Node7 -->
<g id="edge15" class="edge">
<title>Node10&#45;&gt;Node7</title>
<path fill="none" stroke="midnightblue" d="M508.08,-108.91C480.44,-98.75 441.66,-84.51 417.18,-75.52"/>
<polygon fill="midnightblue" stroke="midnightblue" points="507.11,-112.28 517.71,-112.44 509.53,-105.71 507.11,-112.28"/>
</g>
<!-- Node10&#45;&gt;Node8 -->
<g id="edge16" class="edge">
<title>Node10&#45;&gt;Node8</title>
<path fill="none" stroke="midnightblue" d="M506.39,-115.25C440.39,-104.28 297.99,-80.62 240.66,-71.1"/>
<polygon fill="midnightblue" stroke="midnightblue" points="505.87,-118.71 516.31,-116.9 507.01,-111.81 505.87,-118.71"/>
</g>
<!-- Node10&#45;&gt;Node9 -->
<g id="edge18" class="edge">
<title>Node10&#45;&gt;Node9</title>
<path fill="none" stroke="midnightblue" d="M506.51,-113.03C468.93,-104.27 407.07,-89.62 354,-76 351.01,-75.23 347.87,-74.41 344.77,-73.57"/>
<polygon fill="midnightblue" stroke="midnightblue" points="505.9,-116.48 516.44,-115.34 507.49,-109.66 505.9,-116.48"/>
</g>
<!-- Node11 -->
<g id="node11" class="node">
<title>Node11</title>
<g id="a_node11"><a xlink:href="ksyscall_8cc.html" target="_top" xlink:title=" ">
<polygon fill="white" stroke="black" points="443,-56.5 443,-75.5 509,-75.5 509,-56.5 443,-56.5"/>
<text text-anchor="middle" x="476" y="-63.5" font-family="Helvetica,sans-Serif" font-size="10.00">ksyscall.cc</text>
</a>
</g>
</g>
<!-- Node10&#45;&gt;Node11 -->
<g id="edge11" class="edge">
<title>Node10&#45;&gt;Node11</title>
<path fill="none" stroke="midnightblue" d="M522.73,-105.82C511.08,-96.15 496.4,-83.95 486.63,-75.83"/>
<polygon fill="midnightblue" stroke="midnightblue" points="520.63,-108.63 530.56,-112.32 525.1,-103.24 520.63,-108.63"/>
</g>
<!-- Node12 -->
<g id="node12" class="node">
<title>Node12</title>
<g id="a_node12"><a xlink:href="mp_8hh.html" target="_top" xlink:title=" ">
<polygon fill="white" stroke="black" points="565,-56.5 565,-75.5 609,-75.5 609,-56.5 565,-56.5"/>
<text text-anchor="middle" x="587" y="-63.5" font-family="Helvetica,sans-Serif" font-size="10.00">mp.hh</text>
</a>
</g>
</g>
<!-- Node10&#45;&gt;Node12 -->
<g id="edge12" class="edge">
<title>Node10&#45;&gt;Node12</title>
<path fill="none" stroke="midnightblue" d="M555.11,-104.43C563.18,-94.97 572.96,-83.48 579.55,-75.75"/>
<polygon fill="midnightblue" stroke="midnightblue" points="552.42,-102.2 548.6,-112.08 557.75,-106.74 552.42,-102.2"/>
</g>
<!-- Node10&#45;&gt;Node13 -->
<g id="edge17" class="edge">
<title>Node10&#45;&gt;Node13</title>
<path fill="none" stroke="midnightblue" d="M574.89,-109.04C603.68,-98.88 644.29,-84.55 669.87,-75.52"/>
<polygon fill="midnightblue" stroke="midnightblue" points="573.51,-105.81 565.24,-112.44 575.84,-112.42 573.51,-105.81"/>
</g>
<!-- Node12&#45;&gt;Node3 -->
<g id="edge14" class="edge">
<title>Node12&#45;&gt;Node3</title>
<path fill="none" stroke="midnightblue" d="M602.08,-48.72C610.89,-39.2 621.67,-27.56 628.9,-19.75"/>
<polygon fill="midnightblue" stroke="midnightblue" points="599.48,-46.37 595.26,-56.08 604.62,-51.12 599.48,-46.37"/>
</g>
<!-- Node12&#45;&gt;Node6 -->
<g id="edge13" class="edge">
<title>Node12&#45;&gt;Node6</title>
<path fill="none" stroke="midnightblue" d="M554.93,-55.59C517.59,-44.63 456.92,-26.82 424.7,-17.37"/>
<polygon fill="midnightblue" stroke="midnightblue" points="554.22,-59.03 564.81,-58.49 556.2,-52.31 554.22,-59.03"/>
</g>
<!-- Node15 -->
<g id="node15" class="node">
<title>Node15</title>
<g id="a_node15"><a xlink:href="umain_8cc.html" target="_top" xlink:title=" ">
<polygon fill="white" stroke="black" points="148,-112.5 148,-131.5 204,-131.5 204,-112.5 148,-112.5"/>
<text text-anchor="middle" x="176" y="-119.5" font-family="Helvetica,sans-Serif" font-size="10.00">umain.cc</text>
</a>
</g>
</g>
<!-- Node14&#45;&gt;Node15 -->
<g id="edge21" class="edge">
<title>Node14&#45;&gt;Node15</title>
<path fill="none" stroke="midnightblue" d="M227.41,-162.1C214.63,-152.38 198.39,-140.03 187.61,-131.83"/>
<polygon fill="midnightblue" stroke="midnightblue" points="225.51,-165.06 235.59,-168.32 229.75,-159.48 225.51,-165.06"/>
</g>
<!-- Node16 -->
<g id="node16" class="node">
<title>Node16</title>
<g id="a_node16"><a xlink:href="hello_8cc.html" target="_top" xlink:title=" ">
<polygon fill="white" stroke="black" points="222,-112.5 222,-131.5 272,-131.5 272,-112.5 222,-112.5"/>
<text text-anchor="middle" x="247" y="-119.5" font-family="Helvetica,sans-Serif" font-size="10.00">hello.cc</text>
</a>
</g>
</g>
<!-- Node14&#45;&gt;Node16 -->
<g id="edge22" class="edge">
<title>Node14&#45;&gt;Node16</title>
<path fill="none" stroke="midnightblue" d="M247,-157.8C247,-148.91 247,-138.78 247,-131.75"/>
<polygon fill="midnightblue" stroke="midnightblue" points="243.5,-158.08 247,-168.08 250.5,-158.08 243.5,-158.08"/>
</g>
<!-- Node17 -->
<g id="node17" class="node">
<title>Node17</title>
<g id="a_node17"><a xlink:href="user_2lib_2printf_8cc.html" target="_top" xlink:title=" ">
<polygon fill="white" stroke="black" points="290,-112.5 290,-131.5 342,-131.5 342,-112.5 290,-112.5"/>
<text text-anchor="middle" x="316" y="-119.5" font-family="Helvetica,sans-Serif" font-size="10.00">printf.cc</text>
</a>
</g>
</g>
<!-- Node14&#45;&gt;Node17 -->
<g id="edge23" class="edge">
<title>Node14&#45;&gt;Node17</title>
<path fill="none" stroke="midnightblue" d="M266.04,-162.1C278.46,-152.38 294.24,-140.03 304.71,-131.83"/>
<polygon fill="midnightblue" stroke="midnightblue" points="263.8,-159.4 258.09,-168.32 268.12,-164.92 263.8,-159.4"/>
</g>
<!-- Node18 -->
<g id="node18" class="node">
<title>Node18</title>
<g id="a_node18"><a xlink:href="user_2lib_2readline_8cc.html" target="_top" xlink:title=" ">
<polygon fill="white" stroke="black" points="66,-112.5 66,-131.5 130,-131.5 130,-112.5 66,-112.5"/>
<text text-anchor="middle" x="98" y="-119.5" font-family="Helvetica,sans-Serif" font-size="10.00">readline.cc</text>
</a>
</g>
</g>
<!-- Node14&#45;&gt;Node18 -->
<g id="edge24" class="edge">
<title>Node14&#45;&gt;Node18</title>
<path fill="none" stroke="midnightblue" d="M213.63,-164.91C185.62,-154.75 146.3,-140.51 121.5,-131.52"/>
<polygon fill="midnightblue" stroke="midnightblue" points="212.8,-168.33 223.39,-168.44 215.18,-161.75 212.8,-168.33"/>
</g>
</g>
</svg>
