<?xml version="1.0" encoding="UTF-8" standalone="no"?>
<!DOCTYPE svg PUBLIC "-//W3C//DTD SVG 1.1//EN"
 "http://www.w3.org/Graphics/SVG/1.1/DTD/svg11.dtd">
<!-- Generated by graphviz version 2.44.1 (20200629.0846)
 -->
<!-- Title: strtol.cc Pages: 1 -->
<svg width="195pt" height="196pt"
 viewBox="0.00 0.00 194.50 196.00" xmlns="http://www.w3.org/2000/svg" xmlns:xlink="http://www.w3.org/1999/xlink">
<g id="graph0" class="graph" transform="scale(1 1) rotate(0) translate(4 192)">
<title>strtol.cc</title>
<polygon fill="white" stroke="transparent" points="-4,4 -4,-192 190.5,-192 190.5,4 -4,4"/>
<!-- Node1 -->
<g id="node1" class="node">
<title>Node1</title>
<g id="a_node1"><a xlink:title=" ">
<polygon fill="#bfbfbf" stroke="black" points="104,-168.5 104,-187.5 156,-187.5 156,-168.5 104,-168.5"/>
<text text-anchor="middle" x="130" y="-175.5" font-family="Helvetica,sans-Serif" font-size="10.00">strtol.cc</text>
</a>
</g>
</g>
<!-- Node2 -->
<g id="node2" class="node">
<title>Node2</title>
<g id="a_node2"><a xlink:href="string_8hh.html" target="_top" xlink:title=" ">
<polygon fill="white" stroke="black" points="50,-112.5 50,-131.5 138,-131.5 138,-112.5 50,-112.5"/>
<text text-anchor="middle" x="94" y="-119.5" font-family="Helvetica,sans-Serif" font-size="10.00">include/string.hh</text>
</a>
</g>
</g>
<!-- Node1&#45;&gt;Node2 -->
<g id="edge1" class="edge">
<title>Node1&#45;&gt;Node2</title>
<path fill="none" stroke="midnightblue" d="M124.06,-168.08C119.02,-160.53 111.66,-149.49 105.49,-140.23"/>
<polygon fill="midnightblue" stroke="midnightblue" points="108.29,-138.13 99.83,-131.75 102.47,-142.01 108.29,-138.13"/>
</g>
<!-- Node6 -->
<g id="node6" class="node">
<title>Node6</title>
<g id="a_node6"><a xlink:href="ctype_8h.html" target="_top" xlink:title=" ">
<polygon fill="white" stroke="black" points="137.5,-0.5 137.5,-19.5 186.5,-19.5 186.5,-0.5 137.5,-0.5"/>
<text text-anchor="middle" x="162" y="-7.5" font-family="Helvetica,sans-Serif" font-size="10.00">ctype.h</text>
</a>
</g>
</g>
<!-- Node1&#45;&gt;Node6 -->
<g id="edge7" class="edge">
<title>Node1&#45;&gt;Node6</title>
<path fill="none" stroke="midnightblue" d="M134.03,-168.23C137.96,-159.31 143.79,-144.97 147,-132 155.77,-96.5 159.54,-53.82 161.06,-29.81"/>
<polygon fill="midnightblue" stroke="midnightblue" points="164.56,-29.82 161.63,-19.64 157.57,-29.42 164.56,-29.82"/>
</g>
<!-- Node3 -->
<g id="node3" class="node">
<title>Node3</title>
<g id="a_node3"><a xlink:href="types_8h.html" target="_top" xlink:title=" ">
<polygon fill="white" stroke="black" points="53.5,-56.5 53.5,-75.5 136.5,-75.5 136.5,-56.5 53.5,-56.5"/>
<text text-anchor="middle" x="95" y="-63.5" font-family="Helvetica,sans-Serif" font-size="10.00">include/types.h</text>
</a>
</g>
</g>
<!-- Node2&#45;&gt;Node3 -->
<g id="edge2" class="edge">
<title>Node2&#45;&gt;Node3</title>
<path fill="none" stroke="midnightblue" d="M94.17,-112.08C94.3,-105.01 94.48,-94.86 94.65,-85.99"/>
<polygon fill="midnightblue" stroke="midnightblue" points="98.15,-85.81 94.84,-75.75 91.15,-85.68 98.15,-85.81"/>
</g>
<!-- Node4 -->
<g id="node4" class="node">
<title>Node4</title>
<g id="a_node4"><a xlink:title=" ">
<polygon fill="white" stroke="#bfbfbf" points="0,-0.5 0,-19.5 52,-19.5 52,-0.5 0,-0.5"/>
<text text-anchor="middle" x="26" y="-7.5" font-family="Helvetica,sans-Serif" font-size="10.00">stddef.h</text>
</a>
</g>
</g>
<!-- Node3&#45;&gt;Node4 -->
<g id="edge3" class="edge">
<title>Node3&#45;&gt;Node4</title>
<path fill="none" stroke="midnightblue" d="M83.91,-56.32C73.51,-48.18 57.74,-35.84 45.28,-26.09"/>
<polygon fill="midnightblue" stroke="midnightblue" points="47.32,-23.24 37.29,-19.83 43.01,-28.75 47.32,-23.24"/>
</g>
<!-- Node5 -->
<g id="node5" class="node">
<title>Node5</title>
<g id="a_node5"><a xlink:title=" ">
<polygon fill="white" stroke="#bfbfbf" points="70.5,-0.5 70.5,-19.5 119.5,-19.5 119.5,-0.5 70.5,-0.5"/>
<text text-anchor="middle" x="95" y="-7.5" font-family="Helvetica,sans-Serif" font-size="10.00">stdint.h</text>
</a>
</g>
</g>
<!-- Node3&#45;&gt;Node5 -->
<g id="edge4" class="edge">
<title>Node3&#45;&gt;Node5</title>
<path fill="none" stroke="midnightblue" d="M95,-56.08C95,-49.01 95,-38.86 95,-29.99"/>
<polygon fill="midnightblue" stroke="midnightblue" points="98.5,-29.75 95,-19.75 91.5,-29.75 98.5,-29.75"/>
</g>
<!-- Node3&#45;&gt;Node6 -->
<g id="edge5" class="edge">
<title>Node3&#45;&gt;Node6</title>
<path fill="none" stroke="midnightblue" d="M100.65,-56.32C109.12,-48.06 124.44,-35.45 137.77,-25.63"/>
<polygon fill="midnightblue" stroke="midnightblue" points="140.04,-28.31 146.15,-19.65 135.98,-22.61 140.04,-28.31"/>
</g>
<!-- Node6&#45;&gt;Node3 -->
<g id="edge6" class="edge">
<title>Node6&#45;&gt;Node3</title>
<path fill="none" stroke="midnightblue" d="M156.19,-19.83C147.69,-28.11 132.47,-40.62 119.21,-50.38"/>
<polygon fill="midnightblue" stroke="midnightblue" points="116.99,-47.67 110.88,-56.32 121.05,-53.37 116.99,-47.67"/>
</g>
</g>
</svg>
