<?xml version="1.0" encoding="UTF-8" standalone="no"?>
<!DOCTYPE svg PUBLIC "-//W3C//DTD SVG 1.1//EN"
 "http://www.w3.org/Graphics/SVG/1.1/DTD/svg11.dtd">
<!-- Generated by graphviz version 2.44.1 (20200629.0846)
 -->
<!-- Title: SegDesc Pages: 1 -->
<svg width="106pt" height="205pt"
 viewBox="0.00 0.00 105.50 205.00" xmlns="http://www.w3.org/2000/svg" xmlns:xlink="http://www.w3.org/1999/xlink">
<g id="graph0" class="graph" transform="scale(1 1) rotate(0) translate(4 201)">
<title>SegDesc</title>
<polygon fill="white" stroke="transparent" points="-4,4 -4,-201 101.5,-201 101.5,4 -4,4"/>
<!-- Node1 -->
<g id="node1" class="node">
<title>Node1</title>
<g id="a_node1"><a xlink:title=" ">
<polygon fill="#bfbfbf" stroke="black" points="0,-0.5 0,-19.5 57,-19.5 57,-0.5 0,-0.5"/>
<text text-anchor="middle" x="28.5" y="-7.5" font-family="Helvetica,sans-Serif" font-size="10.00">SegDesc</text>
</a>
</g>
</g>
<!-- Node2 -->
<g id="node2" class="node">
<title>Node2</title>
<g id="a_node2"><a xlink:title=" ">
<polygon fill="white" stroke="#bfbfbf" points="0.5,-177.5 0.5,-196.5 56.5,-196.5 56.5,-177.5 0.5,-177.5"/>
<text text-anchor="middle" x="28.5" y="-184.5" font-family="Helvetica,sans-Serif" font-size="10.00">unsigned</text>
</a>
</g>
</g>
<!-- Node2&#45;&gt;Node1 -->
<g id="edge1" class="edge">
<title>Node2&#45;&gt;Node1</title>
<path fill="none" stroke="#9a32cd" stroke-dasharray="5,2" d="M28.5,-166.95C28.5,-129.3 28.5,-46.65 28.5,-19.69"/>
<polygon fill="#9a32cd" stroke="#9a32cd" points="25,-167.08 28.5,-177.08 32,-167.08 25,-167.08"/>
<text text-anchor="middle" x="63" y="-151" font-family="Helvetica,sans-Serif" font-size="10.00"> sd_avl</text>
<text text-anchor="middle" x="63" y="-140" font-family="Helvetica,sans-Serif" font-size="10.00">sd_base_15_0</text>
<text text-anchor="middle" x="63" y="-129" font-family="Helvetica,sans-Serif" font-size="10.00">sd_base_23_16</text>
<text text-anchor="middle" x="63" y="-118" font-family="Helvetica,sans-Serif" font-size="10.00">sd_base_31_24</text>
<text text-anchor="middle" x="63" y="-107" font-family="Helvetica,sans-Serif" font-size="10.00">sd_db</text>
<text text-anchor="middle" x="63" y="-96" font-family="Helvetica,sans-Serif" font-size="10.00">sd_dpl</text>
<text text-anchor="middle" x="63" y="-85" font-family="Helvetica,sans-Serif" font-size="10.00">sd_g</text>
<text text-anchor="middle" x="63" y="-74" font-family="Helvetica,sans-Serif" font-size="10.00">sd_lim_15_0</text>
<text text-anchor="middle" x="63" y="-63" font-family="Helvetica,sans-Serif" font-size="10.00">sd_lim_19_16</text>
<text text-anchor="middle" x="63" y="-52" font-family="Helvetica,sans-Serif" font-size="10.00">sd_p</text>
<text text-anchor="middle" x="63" y="-41" font-family="Helvetica,sans-Serif" font-size="10.00">...</text>
</g>
</g>
</svg>
