<?xml version="1.0" encoding="UTF-8" standalone="no"?>
<!DOCTYPE svg PUBLIC "-//W3C//DTD SVG 1.1//EN"
 "http://www.w3.org/Graphics/SVG/1.1/DTD/svg11.dtd">
<!-- Generated by graphviz version 2.44.1 (20200629.0846)
 -->
<!-- Title: task::Task::destroy Pages: 1 -->
<!--zoomable 334 -->
<svg id="main" version="1.1" xmlns="http://www.w3.org/2000/svg" xmlns:xlink="http://www.w3.org/1999/xlink" xml:space="preserve" onload="init(evt)">
<style type="text/css"><![CDATA[
.edge:hover path { stroke: red; }
.edge:hover polygon { stroke: red; fill: red; }
]]></style>
<script type="text/javascript"><![CDATA[
var edges = document.getElementsByTagName('g');
if (edges && edges.length) {
  for (var i=0;i<edges.length;i++) {
    if (edges[i].id.substr(0,4)=='edge') {
      edges[i].setAttribute('class','edge');
    }
  }
}
]]></script>
        <defs>
                <circle id="rim" cx="0" cy="0" r="7"/>
                <circle id="rim2" cx="0" cy="0" r="3.5"/>
                <g id="zoomPlus">
                        <use xlink:href="#rim" fill="#404040">
                                <set attributeName="fill" to="#808080" begin="zoomplus.mouseover" end="zoomplus.mouseout"/>
                        </use>
                        <path d="M-4,0h8M0,-4v8" fill="none" stroke="white" stroke-width="1.5" pointer-events="none"/>
                </g>
                <g id="zoomMin">
                        <use xlink:href="#rim" fill="#404040">
                                <set attributeName="fill" to="#808080" begin="zoomminus.mouseover" end="zoomminus.mouseout"/>
                        </use>
                        <path d="M-4,0h8" fill="none" stroke="white" stroke-width="1.5" pointer-events="none"/>
                </g>
                <g id="dirArrow">
                        <path fill="none" stroke="white" stroke-width="1.5" d="M0,-3.0v7 M-2.5,-0.5L0,-3.0L2.5,-0.5"/>
                </g>
               <g id="resetDef">
                       <use xlink:href="#rim2" fill="#404040">
                               <set attributeName="fill" to="#808080" begin="reset.mouseover" end="reset.mouseout"/>
                       </use>
               </g>
        </defs>

<script type="text/javascript">
var viewWidth = 1544;
var viewHeight = 334;
var sectionId = 'dynsection-3';
</script>
<script xlink:href="svgpan.js"/>
<svg id="graph" class="graph">
<g id="viewport">
<title>task::Task::destroy</title>
<polygon fill="white" stroke="transparent" points="-4,4 -4,-330.05 1540,-330.05 1540,4 -4,4"/>
<!-- Node1 -->
<g id="node1" class="node">
<title>Node1</title>
<g id="a_node1"><a xlink:title=" ">
<polygon fill="#bfbfbf" stroke="black" points="0,-256.5 0,-275.5 101,-275.5 101,-256.5 0,-256.5"/>
<text text-anchor="middle" x="50.5" y="-263.5" font-family="Helvetica,sans-Serif" font-size="10.00">task::Task::destroy</text>
</a>
</g>
</g>
<!-- Node2 -->
<g id="node2" class="node">
<title>Node2</title>
<g id="a_node2"><a xlink:href="x86_8h.html#ab3bac932074f6042165d3016b701900a" target="_top" xlink:title=" ">
<polygon fill="white" stroke="black" points="159,-294.5 159,-313.5 191,-313.5 191,-294.5 159,-294.5"/>
<text text-anchor="middle" x="175" y="-301.5" font-family="Helvetica,sans-Serif" font-size="10.00">lcr3</text>
</a>
</g>
</g>
<!-- Node1&#45;&gt;Node2 -->
<g id="edge1" class="edge">
<title>Node1&#45;&gt;Node2</title>
<path fill="none" stroke="midnightblue" d="M82.41,-275.59C103.08,-282 129.91,-290.32 149.19,-296.3"/>
<polygon fill="midnightblue" stroke="midnightblue" points="148.18,-299.65 158.76,-299.27 150.25,-292.97 148.18,-299.65"/>
</g>
<!-- Node3 -->
<g id="node3" class="node">
<title>Node3</title>
<g id="a_node3"><a xlink:href="namespacemonitor.html#ac02f947e274eb7d38cdfa803c21ef579" target="_top" xlink:title=" ">
<polygon fill="white" stroke="black" points="137,-218.5 137,-237.5 213,-237.5 213,-218.5 137,-218.5"/>
<text text-anchor="middle" x="175" y="-225.5" font-family="Helvetica,sans-Serif" font-size="10.00">monitor::main</text>
</a>
</g>
</g>
<!-- Node1&#45;&gt;Node3 -->
<g id="edge2" class="edge">
<title>Node1&#45;&gt;Node3</title>
<path fill="none" stroke="midnightblue" d="M82.41,-256.41C97.79,-251.64 116.58,-245.81 133.13,-240.68"/>
<polygon fill="midnightblue" stroke="midnightblue" points="134.58,-243.89 143.1,-237.59 132.51,-237.21 134.58,-243.89"/>
</g>
<!-- Node10 -->
<g id="node10" class="node">
<title>Node10</title>
<g id="a_node10"><a xlink:href="namespaceconsole_1_1out.html#ac6f663e3971b66b8e130ee94755a150e" target="_top" xlink:title=" ">
<polygon fill="white" stroke="black" points="253.5,-256.5 253.5,-275.5 348.5,-275.5 348.5,-256.5 253.5,-256.5"/>
<text text-anchor="middle" x="301" y="-263.5" font-family="Helvetica,sans-Serif" font-size="10.00">console::out::print</text>
</a>
</g>
</g>
<!-- Node1&#45;&gt;Node10 -->
<g id="edge38" class="edge">
<title>Node1&#45;&gt;Node10</title>
<path fill="none" stroke="midnightblue" d="M101.19,-266C142.15,-266 200.25,-266 243.08,-266"/>
<polygon fill="midnightblue" stroke="midnightblue" points="243.34,-269.5 253.34,-266 243.34,-262.5 243.34,-269.5"/>
</g>
<!-- Node4 -->
<g id="node4" class="node">
<title>Node4</title>
<g id="a_node4"><a xlink:href="namespacemonitor.html#a8b88ed0586263051a6af8dbff388e314" target="_top" xlink:title=" ">
<polygon fill="white" stroke="black" points="251,-218.5 251,-237.5 351,-237.5 351,-218.5 251,-218.5"/>
<text text-anchor="middle" x="301" y="-225.5" font-family="Helvetica,sans-Serif" font-size="10.00">monitor::parseCmd</text>
</a>
</g>
</g>
<!-- Node3&#45;&gt;Node4 -->
<g id="edge3" class="edge">
<title>Node3&#45;&gt;Node4</title>
<path fill="none" stroke="midnightblue" d="M213.2,-228C221.9,-228 231.38,-228 240.77,-228"/>
<polygon fill="midnightblue" stroke="midnightblue" points="240.88,-231.5 250.88,-228 240.88,-224.5 240.88,-231.5"/>
</g>
<!-- Node3&#45;&gt;Node10 -->
<g id="edge9" class="edge">
<title>Node3&#45;&gt;Node10</title>
<path fill="none" stroke="midnightblue" d="M207.29,-237.59C223,-242.4 242.24,-248.3 259.11,-253.47"/>
<polygon fill="midnightblue" stroke="midnightblue" points="258.13,-256.83 268.72,-256.41 260.18,-250.14 258.13,-256.83"/>
</g>
<!-- Node25 -->
<g id="node25" class="node">
<title>Node25</title>
<g id="a_node25"><a xlink:href="namespaceconsole_1_1err.html#a124c7e8527c0e3fd2b9636411aea7e82" target="_top" xlink:title=" ">
<polygon fill="white" stroke="black" points="255,-161.5 255,-180.5 347,-180.5 347,-161.5 255,-161.5"/>
<text text-anchor="middle" x="301" y="-168.5" font-family="Helvetica,sans-Serif" font-size="10.00">console::err::print</text>
</a>
</g>
</g>
<!-- Node3&#45;&gt;Node25 -->
<g id="edge29" class="edge">
<title>Node3&#45;&gt;Node25</title>
<path fill="none" stroke="midnightblue" d="M196.75,-218.46C216.78,-209.25 247.32,-195.22 270,-184.79"/>
<polygon fill="midnightblue" stroke="midnightblue" points="271.55,-187.93 279.18,-180.57 268.63,-181.57 271.55,-187.93"/>
</g>
<!-- Node27 -->
<g id="node27" class="node">
<title>Node27</title>
<g id="a_node27"><a xlink:href="namespaceconsole_1_1in.html#afa763e7729f2e6fbdcf4c14e44ad7a29" target="_top" xlink:title=" ">
<polygon fill="white" stroke="black" points="249,-294.5 249,-313.5 353,-313.5 353,-294.5 249,-294.5"/>
<text text-anchor="middle" x="301" y="-301.5" font-family="Helvetica,sans-Serif" font-size="10.00">console::in::readline</text>
</a>
</g>
</g>
<!-- Node3&#45;&gt;Node27 -->
<g id="edge33" class="edge">
<title>Node3&#45;&gt;Node27</title>
<path fill="none" stroke="midnightblue" d="M186.15,-237.6C199.63,-249.92 224.58,-271.35 249,-285 252.52,-286.97 256.28,-288.81 260.11,-290.5"/>
<polygon fill="midnightblue" stroke="midnightblue" points="259.07,-293.86 269.65,-294.43 261.73,-287.39 259.07,-293.86"/>
</g>
<!-- Node5 -->
<g id="node5" class="node">
<title>Node5</title>
<g id="a_node5"><a xlink:href="namespacestr.html#ace5edf7e67a558a1c4ead28a66faba41" target="_top" xlink:title=" ">
<polygon fill="white" stroke="black" points="408.5,-218.5 408.5,-237.5 484.5,-237.5 484.5,-218.5 408.5,-218.5"/>
<text text-anchor="middle" x="446.5" y="-225.5" font-family="Helvetica,sans-Serif" font-size="10.00">str::cmpCase</text>
</a>
</g>
</g>
<!-- Node4&#45;&gt;Node5 -->
<g id="edge4" class="edge">
<title>Node4&#45;&gt;Node5</title>
<path fill="none" stroke="midnightblue" d="M351.38,-228C366.54,-228 383.16,-228 398.17,-228"/>
<polygon fill="midnightblue" stroke="midnightblue" points="398.27,-231.5 408.27,-228 398.27,-224.5 398.27,-231.5"/>
</g>
<!-- Node6 -->
<g id="node6" class="node">
<title>Node6</title>
<g id="a_node6"><a xlink:href="namespacestr.html#a12522233f7d73122d76de5c82e44a183" target="_top" xlink:title=" ">
<polygon fill="white" stroke="black" points="413,-180.5 413,-199.5 480,-199.5 480,-180.5 413,-180.5"/>
<text text-anchor="middle" x="446.5" y="-187.5" font-family="Helvetica,sans-Serif" font-size="10.00">str::splitWs</text>
</a>
</g>
</g>
<!-- Node4&#45;&gt;Node6 -->
<g id="edge5" class="edge">
<title>Node4&#45;&gt;Node6</title>
<path fill="none" stroke="midnightblue" d="M338.21,-218.41C357.9,-213.2 382.38,-206.72 402.97,-201.26"/>
<polygon fill="midnightblue" stroke="midnightblue" points="403.96,-204.62 412.74,-198.68 402.17,-197.85 403.96,-204.62"/>
</g>
<!-- Node7 -->
<g id="node7" class="node">
<title>Node7</title>
<g id="a_node7"><a xlink:href="namespacestr.html#a0e183e333ba05550c6b206906dbf0f10" target="_top" xlink:title=" ">
<polygon fill="white" stroke="black" points="567,-66.5 567,-85.5 619,-85.5 619,-66.5 567,-66.5"/>
<text text-anchor="middle" x="593" y="-73.5" font-family="Helvetica,sans-Serif" font-size="10.00">str::split</text>
</a>
</g>
</g>
<!-- Node6&#45;&gt;Node7 -->
<g id="edge6" class="edge">
<title>Node6&#45;&gt;Node7</title>
<path fill="none" stroke="midnightblue" d="M459.82,-180.28C484.67,-160.68 541.01,-116.23 571.49,-92.18"/>
<polygon fill="midnightblue" stroke="midnightblue" points="574.03,-94.64 579.71,-85.69 569.69,-89.14 574.03,-94.64"/>
</g>
<!-- Node8 -->
<g id="node8" class="node">
<title>Node8</title>
<g id="a_node8"><a xlink:href="namespacestr.html#a062221f630647cf300f0dd982c4ed904" target="_top" xlink:title=" ">
<polygon fill="white" stroke="black" points="1478,-28.5 1478,-47.5 1536,-47.5 1536,-28.5 1478,-28.5"/>
<text text-anchor="middle" x="1507" y="-35.5" font-family="Helvetica,sans-Serif" font-size="10.00">str::count</text>
</a>
</g>
</g>
<!-- Node7&#45;&gt;Node8 -->
<g id="edge7" class="edge">
<title>Node7&#45;&gt;Node8</title>
<path fill="none" stroke="midnightblue" d="M616.55,-66.37C666.59,-45.92 791.07,0 900,0 900,0 900,0 1207,0 1301.34,0 1411.09,-18.84 1467.76,-29.99"/>
<polygon fill="midnightblue" stroke="midnightblue" points="1467.21,-33.45 1477.71,-31.98 1468.58,-26.59 1467.21,-33.45"/>
</g>
<!-- Node9 -->
<g id="node9" class="node">
<title>Node9</title>
<g id="a_node9"><a xlink:href="namespacestr.html#a4b4d986113337f946299cef82449cf52" target="_top" xlink:title=" ">
<polygon fill="white" stroke="black" points="717,-66.5 717,-85.5 767,-85.5 767,-66.5 717,-66.5"/>
<text text-anchor="middle" x="742" y="-73.5" font-family="Helvetica,sans-Serif" font-size="10.00">str::find</text>
</a>
</g>
</g>
<!-- Node7&#45;&gt;Node9 -->
<g id="edge8" class="edge">
<title>Node7&#45;&gt;Node9</title>
<path fill="none" stroke="midnightblue" d="M619.27,-76C643.33,-76 679.73,-76 706.47,-76"/>
<polygon fill="midnightblue" stroke="midnightblue" points="706.55,-79.5 716.55,-76 706.55,-72.5 706.55,-79.5"/>
</g>
<!-- Node11 -->
<g id="node11" class="node">
<title>Node11</title>
<g id="a_node11"><a xlink:href="namespaceconsole_1_1out.html#a8f791bfac54067cadb1b9f18117b987b" target="_top" xlink:title=" ">
<polygon fill="white" stroke="black" points="540,-256.5 540,-275.5 646,-275.5 646,-256.5 540,-256.5"/>
<text text-anchor="middle" x="593" y="-263.5" font-family="Helvetica,sans-Serif" font-size="10.00">console::out::printVa</text>
</a>
</g>
</g>
<!-- Node10&#45;&gt;Node11 -->
<g id="edge10" class="edge">
<title>Node10&#45;&gt;Node11</title>
<path fill="none" stroke="midnightblue" d="M348.59,-266C397.7,-266 475.33,-266 529.68,-266"/>
<polygon fill="midnightblue" stroke="midnightblue" points="529.89,-269.5 539.89,-266 529.89,-262.5 529.89,-269.5"/>
</g>
<!-- Node12 -->
<g id="node12" class="node">
<title>Node12</title>
<g id="a_node12"><a xlink:href="namespaceconsole_1_1ge.html#af642934cb833142f133285fdb75ef7b7" target="_top" xlink:title=" ">
<polygon fill="white" stroke="black" points="682,-142.5 682,-161.5 802,-161.5 802,-142.5 682,-142.5"/>
<text text-anchor="middle" x="742" y="-149.5" font-family="Helvetica,sans-Serif" font-size="10.00">console::ge::printFmtVa</text>
</a>
</g>
</g>
<!-- Node11&#45;&gt;Node12 -->
<g id="edge11" class="edge">
<title>Node11&#45;&gt;Node12</title>
<path fill="none" stroke="midnightblue" d="M606.28,-256.48C631.51,-236.91 689.41,-192.01 720.45,-167.94"/>
<polygon fill="midnightblue" stroke="midnightblue" points="722.69,-170.63 728.44,-161.74 718.4,-165.1 722.69,-170.63"/>
</g>
<!-- Node18 -->
<g id="node18" class="node">
<title>Node18</title>
<g id="a_node18"><a xlink:href="namespaceconsole_1_1out.html#ad9fc97dff4404c2d21aedbb24691e7cb" target="_top" xlink:title=" ">
<polygon fill="white" stroke="black" points="1000,-237.5 1000,-256.5 1110,-256.5 1110,-237.5 1000,-237.5"/>
<text text-anchor="middle" x="1055" y="-244.5" font-family="Helvetica,sans-Serif" font-size="10.00">console::out::putChar</text>
</a>
</g>
</g>
<!-- Node11&#45;&gt;Node18 -->
<g id="edge28" class="edge">
<title>Node11&#45;&gt;Node18</title>
<path fill="none" stroke="midnightblue" d="M645.02,-275.51C657.1,-277.38 669.97,-279.05 682,-280 806.94,-289.88 840.6,-301.91 964,-280 984.96,-276.28 1007.44,-268.04 1024.69,-260.72"/>
<polygon fill="midnightblue" stroke="midnightblue" points="1026.43,-263.78 1034.19,-256.57 1023.63,-257.37 1026.43,-263.78"/>
</g>
<!-- Node12&#45;&gt;Node8 -->
<g id="edge14" class="edge">
<title>Node12&#45;&gt;Node8</title>
<path fill="none" stroke="midnightblue" d="M753.15,-142.45C765.02,-131.24 785.16,-112 802,-95 818.37,-78.47 817.05,-67.12 838,-57 924.77,-15.08 957.63,-38 1054,-38 1054,-38 1054,-38 1207,-38 1300.63,-38 1410.76,-38 1467.65,-38"/>
<polygon fill="midnightblue" stroke="midnightblue" points="1467.97,-41.5 1477.97,-38 1467.97,-34.5 1467.97,-41.5"/>
</g>
<!-- Node13 -->
<g id="node13" class="node">
<title>Node13</title>
<g id="a_node13"><a xlink:href="printfmt_8cc.html#a708ec6ee2b8bd2d7a453d8d9436ed3b3" target="_top" xlink:title=" ">
<polygon fill="white" stroke="black" points="872,-142.5 872,-161.5 930,-161.5 930,-142.5 872,-142.5"/>
<text text-anchor="middle" x="901" y="-149.5" font-family="Helvetica,sans-Serif" font-size="10.00">_getIntVa</text>
</a>
</g>
</g>
<!-- Node12&#45;&gt;Node13 -->
<g id="edge12" class="edge">
<title>Node12&#45;&gt;Node13</title>
<path fill="none" stroke="midnightblue" d="M802.35,-152C822.24,-152 843.88,-152 861.72,-152"/>
<polygon fill="midnightblue" stroke="midnightblue" points="861.74,-155.5 871.74,-152 861.74,-148.5 861.74,-155.5"/>
</g>
<!-- Node14 -->
<g id="node14" class="node">
<title>Node14</title>
<g id="a_node14"><a xlink:href="printfmt_8cc.html#af4b46892c76c8bfd27efdb20847eb7c8" target="_top" xlink:title=" ">
<polygon fill="white" stroke="black" points="868.5,-104.5 868.5,-123.5 933.5,-123.5 933.5,-104.5 868.5,-104.5"/>
<text text-anchor="middle" x="901" y="-111.5" font-family="Helvetica,sans-Serif" font-size="10.00">_getUIntVa</text>
</a>
</g>
</g>
<!-- Node12&#45;&gt;Node14 -->
<g id="edge13" class="edge">
<title>Node12&#45;&gt;Node14</title>
<path fill="none" stroke="midnightblue" d="M782.62,-142.41C805.72,-136.82 834.84,-129.77 858.3,-124.09"/>
<polygon fill="midnightblue" stroke="midnightblue" points="859.4,-127.43 868.3,-121.67 857.76,-120.62 859.4,-127.43"/>
</g>
<!-- Node15 -->
<g id="node15" class="node">
<title>Node15</title>
<g id="a_node15"><a xlink:href="printfmt_8cc.html#a0e3e484ece5e75b9f5fbe337f0ae8ae3" target="_top" xlink:title=" ">
<polygon fill="white" stroke="black" points="874.5,-66.5 874.5,-85.5 927.5,-85.5 927.5,-66.5 874.5,-66.5"/>
<text text-anchor="middle" x="901" y="-73.5" font-family="Helvetica,sans-Serif" font-size="10.00">describe</text>
</a>
</g>
</g>
<!-- Node12&#45;&gt;Node15 -->
<g id="edge15" class="edge">
<title>Node12&#45;&gt;Node15</title>
<path fill="none" stroke="midnightblue" d="M756.59,-142.39C774.53,-130.05 807.43,-108.61 838,-95 846.44,-91.24 855.85,-87.94 864.73,-85.19"/>
<polygon fill="midnightblue" stroke="midnightblue" points="865.85,-88.5 874.45,-82.32 863.87,-81.79 865.85,-88.5"/>
</g>
<!-- Node17 -->
<g id="node17" class="node">
<title>Node17</title>
<g id="a_node17"><a xlink:href="namespaceconsole_1_1ge.html#a7e301813fd34fde772376afc5fdad95d" target="_top" xlink:title=" ">
<polygon fill="white" stroke="black" points="838,-218.5 838,-237.5 964,-237.5 964,-218.5 838,-218.5"/>
<text text-anchor="middle" x="901" y="-225.5" font-family="Helvetica,sans-Serif" font-size="10.00">console::ge::printNumber</text>
</a>
</g>
</g>
<!-- Node12&#45;&gt;Node17 -->
<g id="edge17" class="edge">
<title>Node12&#45;&gt;Node17</title>
<path fill="none" stroke="midnightblue" d="M759.14,-161.69C777.77,-172.67 809.53,-190.77 838,-204 846.21,-207.82 855.22,-211.55 863.75,-214.89"/>
<polygon fill="midnightblue" stroke="midnightblue" points="862.54,-218.17 873.13,-218.48 865.04,-211.63 862.54,-218.17"/>
</g>
<!-- Node12&#45;&gt;Node18 -->
<g id="edge27" class="edge">
<title>Node12&#45;&gt;Node18</title>
<path fill="none" stroke="midnightblue" d="M788.01,-161.56C833.07,-171.62 904.13,-188.76 964,-209 984.42,-215.9 1006.74,-225.31 1024.04,-233.04"/>
<polygon fill="midnightblue" stroke="midnightblue" points="1023.05,-236.43 1033.6,-237.37 1025.93,-230.06 1023.05,-236.43"/>
</g>
<!-- Node16 -->
<g id="node16" class="node">
<title>Node16</title>
<g id="a_node16"><a xlink:href="namespacemonitor.html#a318993193c866642f8389a1c1f285739" target="_top" xlink:title=" ">
<polygon fill="white" stroke="black" points="1018,-66.5 1018,-85.5 1092,-85.5 1092,-66.5 1018,-66.5"/>
<text text-anchor="middle" x="1055" y="-73.5" font-family="Helvetica,sans-Serif" font-size="10.00">monitor::fuck</text>
</a>
</g>
</g>
<!-- Node15&#45;&gt;Node16 -->
<g id="edge16" class="edge">
<title>Node15&#45;&gt;Node16</title>
<path fill="none" stroke="midnightblue" d="M927.78,-76C949.62,-76 981.46,-76 1007.7,-76"/>
<polygon fill="midnightblue" stroke="midnightblue" points="1007.82,-79.5 1017.82,-76 1007.82,-72.5 1007.82,-79.5"/>
</g>
<!-- Node17&#45;&gt;Node18 -->
<g id="edge18" class="edge">
<title>Node17&#45;&gt;Node18</title>
<path fill="none" stroke="midnightblue" d="M964.26,-235.78C972.66,-236.83 981.28,-237.91 989.71,-238.96"/>
<polygon fill="midnightblue" stroke="midnightblue" points="989.51,-242.47 999.86,-240.23 990.37,-235.52 989.51,-242.47"/>
</g>
<!-- Node19 -->
<g id="node19" class="node">
<title>Node19</title>
<g id="a_node19"><a xlink:href="namespaceconsole_1_1serial.html#a3a7c1f95ae3c24136ea63bb31fdf0391" target="_top" xlink:title=" ">
<polygon fill="white" stroke="black" points="1146,-237.5 1146,-256.5 1266,-256.5 1266,-237.5 1146,-237.5"/>
<text text-anchor="middle" x="1206" y="-244.5" font-family="Helvetica,sans-Serif" font-size="10.00">console::serial::putChar</text>
</a>
</g>
</g>
<!-- Node18&#45;&gt;Node19 -->
<g id="edge19" class="edge">
<title>Node18&#45;&gt;Node19</title>
<path fill="none" stroke="midnightblue" d="M1110.21,-247C1118.53,-247 1127.2,-247 1135.79,-247"/>
<polygon fill="midnightblue" stroke="midnightblue" points="1135.79,-250.5 1145.79,-247 1135.79,-243.5 1135.79,-250.5"/>
</g>
<!-- Node22 -->
<g id="node22" class="node">
<title>Node22</title>
<g id="a_node22"><a xlink:href="namespaceconsole_1_1cga.html#afa19057ca041b39682d5d4831c43dfa0" target="_top" xlink:title=" ">
<polygon fill="white" stroke="black" points="1149.5,-199.5 1149.5,-218.5 1262.5,-218.5 1262.5,-199.5 1149.5,-199.5"/>
<text text-anchor="middle" x="1206" y="-206.5" font-family="Helvetica,sans-Serif" font-size="10.00">console::cga::putChar</text>
</a>
</g>
</g>
<!-- Node18&#45;&gt;Node22 -->
<g id="edge22" class="edge">
<title>Node18&#45;&gt;Node22</title>
<path fill="none" stroke="midnightblue" d="M1093.6,-237.41C1113.08,-232.44 1137.07,-226.32 1157.8,-221.04"/>
<polygon fill="midnightblue" stroke="midnightblue" points="1158.85,-224.38 1167.67,-218.52 1157.12,-217.6 1158.85,-224.38"/>
</g>
<!-- Node20 -->
<g id="node20" class="node">
<title>Node20</title>
<g id="a_node20"><a xlink:href="namespaceconsole_1_1serial.html#aa5605d4537106bb1c2bab72d7d1a5824" target="_top" xlink:title=" ">
<polygon fill="white" stroke="black" points="1320,-237.5 1320,-256.5 1424,-256.5 1424,-237.5 1320,-237.5"/>
<text text-anchor="middle" x="1372" y="-244.5" font-family="Helvetica,sans-Serif" font-size="10.00">console::serial::sout</text>
</a>
</g>
</g>
<!-- Node19&#45;&gt;Node20 -->
<g id="edge20" class="edge">
<title>Node19&#45;&gt;Node20</title>
<path fill="none" stroke="midnightblue" d="M1266.21,-247C1280.31,-247 1295.39,-247 1309.59,-247"/>
<polygon fill="midnightblue" stroke="midnightblue" points="1309.74,-250.5 1319.74,-247 1309.74,-243.5 1309.74,-250.5"/>
</g>
<!-- Node21 -->
<g id="node21" class="node">
<title>Node21</title>
<g id="a_node21"><a xlink:href="x86_8h.html#ade961b44e45ddacbc3c3b7609cf36dc6" target="_top" xlink:title=" ">
<polygon fill="white" stroke="black" points="1489.5,-218.5 1489.5,-237.5 1524.5,-237.5 1524.5,-218.5 1489.5,-218.5"/>
<text text-anchor="middle" x="1507" y="-225.5" font-family="Helvetica,sans-Serif" font-size="10.00">outb</text>
</a>
</g>
</g>
<!-- Node20&#45;&gt;Node21 -->
<g id="edge21" class="edge">
<title>Node20&#45;&gt;Node21</title>
<path fill="none" stroke="midnightblue" d="M1424.04,-239.71C1442.85,-237.02 1463.4,-234.09 1479.22,-231.83"/>
<polygon fill="midnightblue" stroke="midnightblue" points="1479.94,-235.26 1489.34,-230.38 1478.95,-228.33 1479.94,-235.26"/>
</g>
<!-- Node23 -->
<g id="node23" class="node">
<title>Node23</title>
<g id="a_node23"><a xlink:href="namespacemem.html#a64d9d05b439041901498c606de606431" target="_top" xlink:title=" ">
<polygon fill="white" stroke="black" points="1339.5,-114.5 1339.5,-133.5 1404.5,-133.5 1404.5,-114.5 1339.5,-114.5"/>
<text text-anchor="middle" x="1372" y="-121.5" font-family="Helvetica,sans-Serif" font-size="10.00">mem::copy</text>
</a>
</g>
</g>
<!-- Node22&#45;&gt;Node23 -->
<g id="edge23" class="edge">
<title>Node22&#45;&gt;Node23</title>
<path fill="none" stroke="midnightblue" d="M1225.49,-199.41C1254.16,-184.56 1309.51,-155.87 1343.07,-138.48"/>
<polygon fill="midnightblue" stroke="midnightblue" points="1345.05,-141.39 1352.32,-133.68 1341.83,-135.17 1345.05,-141.39"/>
</g>
<!-- Node24 -->
<g id="node24" class="node">
<title>Node24</title>
<g id="a_node24"><a xlink:href="namespaceconsole_1_1cga.html#a06463d4dc68819e30615ba299d02a78f" target="_top" xlink:title=" ">
<polygon fill="white" stroke="black" points="1302,-199.5 1302,-218.5 1442,-218.5 1442,-199.5 1302,-199.5"/>
<text text-anchor="middle" x="1372" y="-206.5" font-family="Helvetica,sans-Serif" font-size="10.00">console::cga::cursorRefresh</text>
</a>
</g>
</g>
<!-- Node22&#45;&gt;Node24 -->
<g id="edge25" class="edge">
<title>Node22&#45;&gt;Node24</title>
<path fill="none" stroke="midnightblue" d="M1262.52,-209C1271.9,-209 1281.8,-209 1291.65,-209"/>
<polygon fill="midnightblue" stroke="midnightblue" points="1291.87,-212.5 1301.87,-209 1291.87,-205.5 1291.87,-212.5"/>
</g>
<!-- Node23&#45;&gt;Node8 -->
<g id="edge24" class="edge">
<title>Node23&#45;&gt;Node8</title>
<path fill="none" stroke="midnightblue" d="M1387.74,-114.47C1410.71,-99.62 1455.24,-70.82 1482.62,-53.12"/>
<polygon fill="midnightblue" stroke="midnightblue" points="1484.7,-55.94 1491.19,-47.57 1480.89,-50.07 1484.7,-55.94"/>
</g>
<!-- Node24&#45;&gt;Node21 -->
<g id="edge26" class="edge">
<title>Node24&#45;&gt;Node21</title>
<path fill="none" stroke="midnightblue" d="M1439.89,-218.56C1453.81,-220.54 1467.71,-222.53 1479.15,-224.16"/>
<polygon fill="midnightblue" stroke="midnightblue" points="1478.88,-227.66 1489.28,-225.61 1479.87,-220.73 1478.88,-227.66"/>
</g>
<!-- Node26 -->
<g id="node26" class="node">
<title>Node26</title>
<g id="a_node26"><a xlink:href="namespaceconsole_1_1err.html#a4cd18e4c409b5b17ecec61ce83b05fba" target="_top" xlink:title=" ">
<polygon fill="white" stroke="black" points="541,-142.5 541,-161.5 645,-161.5 645,-142.5 541,-142.5"/>
<text text-anchor="middle" x="593" y="-149.5" font-family="Helvetica,sans-Serif" font-size="10.00">console::err::printVa</text>
</a>
</g>
</g>
<!-- Node25&#45;&gt;Node26 -->
<g id="edge30" class="edge">
<title>Node25&#45;&gt;Node26</title>
<path fill="none" stroke="midnightblue" d="M347.31,-168.03C396.55,-164.81 475.51,-159.63 530.36,-156.04"/>
<polygon fill="midnightblue" stroke="midnightblue" points="530.91,-159.51 540.65,-155.36 530.45,-152.53 530.91,-159.51"/>
</g>
<!-- Node26&#45;&gt;Node12 -->
<g id="edge31" class="edge">
<title>Node26&#45;&gt;Node12</title>
<path fill="none" stroke="midnightblue" d="M645,-152C653.62,-152 662.69,-152 671.68,-152"/>
<polygon fill="midnightblue" stroke="midnightblue" points="671.76,-155.5 681.76,-152 671.76,-148.5 671.76,-155.5"/>
</g>
<!-- Node26&#45;&gt;Node18 -->
<g id="edge32" class="edge">
<title>Node26&#45;&gt;Node18</title>
<path fill="none" stroke="midnightblue" d="M611.68,-161.55C650.97,-182.16 749.09,-230.3 838,-247 888.33,-256.45 946.42,-255.82 989.68,-253.17"/>
<polygon fill="midnightblue" stroke="midnightblue" points="990.04,-256.66 999.78,-252.5 989.57,-249.67 990.04,-256.66"/>
</g>
<!-- Node28 -->
<g id="node28" class="node">
<title>Node28</title>
<g id="a_node28"><a xlink:href="namespaceconsole_1_1in.html#ac28354dad0498aa6bb0c178b10d62c8a" target="_top" xlink:title=" ">
<polygon fill="white" stroke="black" points="389,-294.5 389,-313.5 504,-313.5 504,-294.5 389,-294.5"/>
<text text-anchor="middle" x="446.5" y="-301.5" font-family="Helvetica,sans-Serif" font-size="10.00">console::in::readlineVa</text>
</a>
</g>
</g>
<!-- Node27&#45;&gt;Node28 -->
<g id="edge34" class="edge">
<title>Node27&#45;&gt;Node28</title>
<path fill="none" stroke="midnightblue" d="M353.4,-304C361.52,-304 370.02,-304 378.43,-304"/>
<polygon fill="midnightblue" stroke="midnightblue" points="378.62,-307.5 388.62,-304 378.62,-300.5 378.62,-307.5"/>
</g>
<!-- Node28&#45;&gt;Node11 -->
<g id="edge36" class="edge">
<title>Node28&#45;&gt;Node11</title>
<path fill="none" stroke="midnightblue" d="M483.96,-294.41C502.77,-289.46 525.91,-283.38 545.95,-278.11"/>
<polygon fill="midnightblue" stroke="midnightblue" points="547.02,-281.45 555.8,-275.52 545.24,-274.68 547.02,-281.45"/>
</g>
<!-- Node28&#45;&gt;Node18 -->
<g id="edge37" class="edge">
<title>Node28&#45;&gt;Node18</title>
<path fill="none" stroke="midnightblue" d="M485.04,-313.51C501.74,-317.27 521.73,-321.14 540,-323 662.76,-335.48 952.89,-303.46 964,-300 989.95,-291.91 1016.36,-275.13 1033.8,-262.6"/>
<polygon fill="midnightblue" stroke="midnightblue" points="1036.09,-265.27 1042.05,-256.51 1031.93,-259.63 1036.09,-265.27"/>
</g>
<!-- Node29 -->
<g id="node29" class="node">
<title>Node29</title>
<g id="a_node29"><a xlink:href="namespaceconsole_1_1in.html#a6fc069f2bc57fda183e3b991c31ec5a7" target="_top" xlink:title=" ">
<polygon fill="white" stroke="black" points="541,-294.5 541,-313.5 645,-313.5 645,-294.5 541,-294.5"/>
<text text-anchor="middle" x="593" y="-301.5" font-family="Helvetica,sans-Serif" font-size="10.00">console::in::getChar</text>
</a>
</g>
</g>
<!-- Node28&#45;&gt;Node29 -->
<g id="edge35" class="edge">
<title>Node28&#45;&gt;Node29</title>
<path fill="none" stroke="midnightblue" d="M504.2,-304C512.83,-304 521.78,-304 530.52,-304"/>
<polygon fill="midnightblue" stroke="midnightblue" points="530.64,-307.5 540.64,-304 530.64,-300.5 530.64,-307.5"/>
</g>
</g>
</svg>
        <g id="navigator" transform="translate(0 0)" fill="#404254">
                <rect fill="#f2f5e9" fill-opacity="0.5" stroke="#606060" stroke-width=".5" x="0" y="0" width="60" height="60"/>
                <use id="zoomplus" xlink:href="#zoomPlus" x="17" y="9" onmousedown="handleZoom(evt,'in')"/>
                <use id="zoomminus" xlink:href="#zoomMin" x="42" y="9" onmousedown="handleZoom(evt,'out')"/>
                <use id="reset" xlink:href="#resetDef" x="30" y="36" onmousedown="handleReset()"/>
                <g id="arrowUp" xlink:href="#dirArrow" transform="translate(30 24)" onmousedown="handlePan(0,-1)">
                  <use xlink:href="#rim" fill="#404040">
                        <set attributeName="fill" to="#808080" begin="arrowUp.mouseover" end="arrowUp.mouseout"/>
                  </use>
                  <path fill="none" stroke="white" stroke-width="1.5" d="M0,-3.0v7 M-2.5,-0.5L0,-3.0L2.5,-0.5"/>
                </g>
                <g id="arrowRight" xlink:href="#dirArrow" transform="rotate(90) translate(36 -43)" onmousedown="handlePan(1,0)">
                  <use xlink:href="#rim" fill="#404040">
                        <set attributeName="fill" to="#808080" begin="arrowRight.mouseover" end="arrowRight.mouseout"/>
                  </use>
                  <path fill="none" stroke="white" stroke-width="1.5" d="M0,-3.0v7 M-2.5,-0.5L0,-3.0L2.5,-0.5"/>
                </g>
                <g id="arrowDown" xlink:href="#dirArrow" transform="rotate(180) translate(-30 -48)" onmousedown="handlePan(0,1)">
                  <use xlink:href="#rim" fill="#404040">
                        <set attributeName="fill" to="#808080" begin="arrowDown.mouseover" end="arrowDown.mouseout"/>
                  </use>
                  <path fill="none" stroke="white" stroke-width="1.5" d="M0,-3.0v7 M-2.5,-0.5L0,-3.0L2.5,-0.5"/>
                </g>
                <g id="arrowLeft" xlink:href="#dirArrow" transform="rotate(270) translate(-36 17)" onmousedown="handlePan(-1,0)">
                  <use xlink:href="#rim" fill="#404040">
                        <set attributeName="fill" to="#808080" begin="arrowLeft.mouseover" end="arrowLeft.mouseout"/>
                  </use>
                  <path fill="none" stroke="white" stroke-width="1.5" d="M0,-3.0v7 M-2.5,-0.5L0,-3.0L2.5,-0.5"/>
                </g>
        </g>
        <svg viewBox="0 0 15 15" width="100%" height="30px" preserveAspectRatio="xMaxYMin meet">
         <g id="arrow_out" transform="scale(0.3 0.3)">
          <a xlink:href="structtask_1_1_task_acc107ba9ef939a92f459873765fb73eb_cgraph_org.svg" target="_base">
           <rect id="button" ry="5" rx="5" y="6" x="6" height="38" width="38"
                fill="#f2f5e9" fill-opacity="0.5" stroke="#606060" stroke-width="1.0"/>
           <path id="arrow"
             d="M 11.500037,31.436501 C 11.940474,20.09759 22.043105,11.32322 32.158766,21.979434 L 37.068811,17.246167 C 37.068811,17.246167 37.088388,32 37.088388,32 L 22.160133,31.978069 C 22.160133,31.978069 26.997745,27.140456 26.997745,27.140456 C 18.528582,18.264221 13.291696,25.230495 11.500037,31.436501 z"
             style="fill:#404040;"/>
          </a>
         </g>
        </svg>
</svg>
