<?xml version="1.0" encoding="UTF-8" standalone="no"?>
<!DOCTYPE svg PUBLIC "-//W3C//DTD SVG 1.1//EN"
 "http://www.w3.org/Graphics/SVG/1.1/DTD/svg11.dtd">
<!-- Generated by graphviz version 2.44.1 (20200629.0846)
 -->
<!-- Title: trap::Frame::clear Pages: 1 -->
<svg width="391pt" height="47pt"
 viewBox="0.00 0.00 391.00 47.00" xmlns="http://www.w3.org/2000/svg" xmlns:xlink="http://www.w3.org/1999/xlink">
<g id="graph0" class="graph" transform="scale(1 1) rotate(0) translate(4 43)">
<title>trap::Frame::clear</title>
<polygon fill="white" stroke="transparent" points="-4,4 -4,-43 387,-43 387,4 -4,4"/>
<!-- Node1 -->
<g id="node1" class="node">
<title>Node1</title>
<g id="a_node1"><a xlink:title=" ">
<polygon fill="#bfbfbf" stroke="black" points="0,-19.5 0,-38.5 94,-38.5 94,-19.5 0,-19.5"/>
<text text-anchor="middle" x="47" y="-26.5" font-family="Helvetica,sans-Serif" font-size="10.00">trap::Frame::clear</text>
</a>
</g>
</g>
<!-- Node2 -->
<g id="node2" class="node">
<title>Node2</title>
<g id="a_node2"><a xlink:href="namespacemem.html#a981dd0cb1408b798a79443c6245e9c55" target="_top" xlink:title=" ">
<polygon fill="white" stroke="black" points="130,-19.5 130,-38.5 195,-38.5 195,-19.5 130,-19.5"/>
<text text-anchor="middle" x="162.5" y="-26.5" font-family="Helvetica,sans-Serif" font-size="10.00">mem::clear</text>
</a>
</g>
</g>
<!-- Node1&#45;&gt;Node2 -->
<g id="edge1" class="edge">
<title>Node1&#45;&gt;Node2</title>
<path fill="none" stroke="midnightblue" d="M94.16,-29C102.62,-29 111.41,-29 119.73,-29"/>
<polygon fill="midnightblue" stroke="midnightblue" points="119.96,-32.5 129.96,-29 119.96,-25.5 119.96,-32.5"/>
</g>
<!-- Node3 -->
<g id="node3" class="node">
<title>Node3</title>
<g id="a_node3"><a xlink:href="namespacestr.html#a062221f630647cf300f0dd982c4ed904" target="_top" xlink:title=" ">
<polygon fill="white" stroke="black" points="325,-19.5 325,-38.5 383,-38.5 383,-19.5 325,-19.5"/>
<text text-anchor="middle" x="354" y="-26.5" font-family="Helvetica,sans-Serif" font-size="10.00">str::count</text>
</a>
</g>
</g>
<!-- Node2&#45;&gt;Node3 -->
<g id="edge2" class="edge">
<title>Node2&#45;&gt;Node3</title>
<path fill="none" stroke="midnightblue" d="M195.22,-29C228.07,-29 279.41,-29 314.55,-29"/>
<polygon fill="midnightblue" stroke="midnightblue" points="314.89,-32.5 324.89,-29 314.89,-25.5 314.89,-32.5"/>
</g>
<!-- Node4 -->
<g id="node4" class="node">
<title>Node4</title>
<g id="a_node4"><a xlink:href="namespacemem.html#adbaba9127c03fb914f752bfe19d6d089" target="_top" xlink:title=" ">
<polygon fill="white" stroke="black" points="231,-0.5 231,-19.5 289,-19.5 289,-0.5 231,-0.5"/>
<text text-anchor="middle" x="260" y="-7.5" font-family="Helvetica,sans-Serif" font-size="10.00">mem::set</text>
</a>
</g>
</g>
<!-- Node2&#45;&gt;Node4 -->
<g id="edge3" class="edge">
<title>Node2&#45;&gt;Node4</title>
<path fill="none" stroke="midnightblue" d="M195.03,-22.73C203.22,-21.1 212.13,-19.32 220.63,-17.63"/>
<polygon fill="midnightblue" stroke="midnightblue" points="221.59,-21.01 230.72,-15.63 220.23,-14.15 221.59,-21.01"/>
</g>
<!-- Node4&#45;&gt;Node3 -->
<g id="edge4" class="edge">
<title>Node4&#45;&gt;Node3</title>
<path fill="none" stroke="midnightblue" d="M289.1,-15.8C297.23,-17.48 306.24,-19.34 314.87,-21.13"/>
<polygon fill="midnightblue" stroke="midnightblue" points="314.25,-24.57 324.75,-23.17 315.67,-17.72 314.25,-24.57"/>
</g>
</g>
</svg>
