<?xml version="1.0" encoding="UTF-8" standalone="no"?>
<!DOCTYPE svg PUBLIC "-//W3C//DTD SVG 1.1//EN"
 "http://www.w3.org/Graphics/SVG/1.1/DTD/svg11.dtd">
<!-- Generated by graphviz version 2.44.1 (20200629.0846)
 -->
<!-- Title: mp::ProcessorAPIC Pages: 1 -->
<svg width="321pt" height="117pt"
 viewBox="0.00 0.00 320.50 117.00" xmlns="http://www.w3.org/2000/svg" xmlns:xlink="http://www.w3.org/1999/xlink">
<g id="graph0" class="graph" transform="scale(1 1) rotate(0) translate(4 113)">
<title>mp::ProcessorAPIC</title>
<polygon fill="white" stroke="transparent" points="-4,4 -4,-113 316.5,-113 316.5,4 -4,4"/>
<!-- Node1 -->
<g id="node1" class="node">
<title>Node1</title>
<g id="a_node1"><a xlink:title=" ">
<polygon fill="#bfbfbf" stroke="black" points="83.5,-0.5 83.5,-19.5 187.5,-19.5 187.5,-0.5 83.5,-0.5"/>
<text text-anchor="middle" x="135.5" y="-7.5" font-family="Helvetica,sans-Serif" font-size="10.00">mp::ProcessorAPIC</text>
</a>
</g>
</g>
<!-- Node2 -->
<g id="node2" class="node">
<title>Node2</title>
<g id="a_node2"><a xlink:title=" ">
<polygon fill="white" stroke="#bfbfbf" points="0,-89.5 0,-108.5 51,-108.5 51,-89.5 0,-89.5"/>
<text text-anchor="middle" x="25.5" y="-96.5" font-family="Helvetica,sans-Serif" font-size="10.00">uint64_t</text>
</a>
</g>
</g>
<!-- Node2&#45;&gt;Node1 -->
<g id="edge1" class="edge">
<title>Node2&#45;&gt;Node1</title>
<path fill="none" stroke="#9a32cd" stroke-dasharray="5,2" d="M26.91,-79.02C28.88,-65.84 33.53,-48.78 44.5,-38 54.97,-27.72 69.15,-21.33 83.21,-17.36"/>
<polygon fill="#9a32cd" stroke="#9a32cd" points="23.39,-79.03 25.79,-89.35 30.35,-79.79 23.39,-79.03"/>
<text text-anchor="middle" x="65" y="-52" font-family="Helvetica,sans-Serif" font-size="10.00"> reserved</text>
</g>
<!-- Node3 -->
<g id="node3" class="node">
<title>Node3</title>
<g id="a_node3"><a xlink:title=" ">
<polygon fill="white" stroke="#bfbfbf" points="69,-89.5 69,-108.5 120,-108.5 120,-89.5 69,-89.5"/>
<text text-anchor="middle" x="94.5" y="-96.5" font-family="Helvetica,sans-Serif" font-size="10.00">uint32_t</text>
</a>
</g>
</g>
<!-- Node3&#45;&gt;Node1 -->
<g id="edge2" class="edge">
<title>Node3&#45;&gt;Node1</title>
<path fill="none" stroke="#9a32cd" stroke-dasharray="5,2" d="M90.51,-79.1C88.89,-66.68 88.73,-50.48 95.5,-38 99.81,-30.05 107.61,-24 115.18,-19.66"/>
<polygon fill="#9a32cd" stroke="#9a32cd" points="87.11,-79.97 92.26,-89.22 94.01,-78.77 87.11,-79.97"/>
<text text-anchor="middle" x="125.5" y="-57.5" font-family="Helvetica,sans-Serif" font-size="10.00"> feature_flags</text>
<text text-anchor="middle" x="125.5" y="-46.5" font-family="Helvetica,sans-Serif" font-size="10.00">signature</text>
</g>
<!-- Node4 -->
<g id="node4" class="node">
<title>Node4</title>
<g id="a_node4"><a xlink:title=" ">
<polygon fill="white" stroke="#bfbfbf" points="154.5,-89.5 154.5,-108.5 200.5,-108.5 200.5,-89.5 154.5,-89.5"/>
<text text-anchor="middle" x="177.5" y="-96.5" font-family="Helvetica,sans-Serif" font-size="10.00">uint8_t</text>
</a>
</g>
</g>
<!-- Node4&#45;&gt;Node1 -->
<g id="edge3" class="edge">
<title>Node4&#45;&gt;Node1</title>
<path fill="none" stroke="#9a32cd" stroke-dasharray="5,2" d="M172.14,-79.23C168.32,-67.09 162.6,-51.16 155.5,-38 151.96,-31.43 146.96,-24.68 142.84,-19.57"/>
<polygon fill="#9a32cd" stroke="#9a32cd" points="168.89,-80.55 175.11,-89.12 175.59,-78.54 168.89,-80.55"/>
<text text-anchor="middle" x="209" y="-63" font-family="Helvetica,sans-Serif" font-size="10.00"> flags</text>
<text text-anchor="middle" x="209" y="-52" font-family="Helvetica,sans-Serif" font-size="10.00">local_apic_id</text>
<text text-anchor="middle" x="209" y="-41" font-family="Helvetica,sans-Serif" font-size="10.00">local_apic_version</text>
</g>
<!-- Node5 -->
<g id="node5" class="node">
<title>Node5</title>
<g id="a_node5"><a xlink:title=" ">
<polygon fill="white" stroke="#bfbfbf" points="250.5,-89.5 250.5,-108.5 312.5,-108.5 312.5,-89.5 250.5,-89.5"/>
<text text-anchor="middle" x="281.5" y="-96.5" font-family="Helvetica,sans-Serif" font-size="10.00">APICType</text>
</a>
</g>
</g>
<!-- Node5&#45;&gt;Node1 -->
<g id="edge4" class="edge">
<title>Node5&#45;&gt;Node1</title>
<path fill="none" stroke="#9a32cd" stroke-dasharray="5,2" d="M277.36,-79.06C273.44,-65.64 266.21,-48.27 253.5,-38 235.03,-23.08 209.87,-16.07 187.53,-12.89"/>
<polygon fill="#9a32cd" stroke="#9a32cd" points="274.07,-80.32 279.91,-89.15 280.85,-78.6 274.07,-80.32"/>
<text text-anchor="middle" x="284.5" y="-52" font-family="Helvetica,sans-Serif" font-size="10.00"> type</text>
</g>
</g>
</svg>
