<?xml version="1.0" encoding="UTF-8" standalone="no"?>
<!DOCTYPE svg PUBLIC "-//W3C//DTD SVG 1.1//EN"
 "http://www.w3.org/Graphics/SVG/1.1/DTD/svg11.dtd">
<!-- Generated by graphviz version 2.44.1 (20200629.0846)
 -->
<!-- Title: task::Task::create Pages: 1 -->
<svg width="1266pt" height="328pt"
 viewBox="0.00 0.00 1266.00 328.34" xmlns="http://www.w3.org/2000/svg" xmlns:xlink="http://www.w3.org/1999/xlink">
<g id="graph0" class="graph" transform="scale(1 1) rotate(0) translate(4 324.34)">
<title>task::Task::create</title>
<polygon fill="white" stroke="transparent" points="-4,4 -4,-324.34 1262,-324.34 1262,4 -4,4"/>
<!-- Node1 -->
<g id="node1" class="node">
<title>Node1</title>
<g id="a_node1"><a xlink:title=" ">
<polygon fill="#bfbfbf" stroke="black" points="0,-224.84 0,-243.84 95,-243.84 95,-224.84 0,-224.84"/>
<text text-anchor="middle" x="47.5" y="-231.84" font-family="Helvetica,sans-Serif" font-size="10.00">task::Task::create</text>
</a>
</g>
</g>
<!-- Node2 -->
<g id="node2" class="node">
<title>Node2</title>
<g id="a_node2"><a xlink:href="namespacevmem_1_1pgdir.html#a21f3c45c22787494739ad9d15464a67d" target="_top" xlink:title=" ">
<polygon fill="white" stroke="black" points="728.5,-262.84 728.5,-281.84 825.5,-281.84 825.5,-262.84 728.5,-262.84"/>
<text text-anchor="middle" x="777" y="-269.84" font-family="Helvetica,sans-Serif" font-size="10.00">vmem::pgdir::alloc</text>
</a>
</g>
</g>
<!-- Node1&#45;&gt;Node2 -->
<g id="edge1" class="edge">
<title>Node1&#45;&gt;Node2</title>
<path fill="none" stroke="midnightblue" d="M89.63,-243.93C141.59,-255.19 233.91,-272.34 314,-272.34 314,-272.34 314,-272.34 465,-272.34 553.35,-272.34 655.83,-272.34 718.27,-272.34"/>
<polygon fill="midnightblue" stroke="midnightblue" points="718.32,-275.84 728.32,-272.34 718.32,-268.84 718.32,-275.84"/>
</g>
<!-- Node7 -->
<g id="node7" class="node">
<title>Node7</title>
<g id="a_node7"><a xlink:href="namespacestr.html#a2820551f04098e6bf07c04489c8a855c" target="_top" xlink:title=" ">
<polygon fill="white" stroke="black" points="287.5,-224.84 287.5,-243.84 342.5,-243.84 342.5,-224.84 287.5,-224.84"/>
<text text-anchor="middle" x="315" y="-231.84" font-family="Helvetica,sans-Serif" font-size="10.00">str::copy</text>
</a>
</g>
</g>
<!-- Node1&#45;&gt;Node7 -->
<g id="edge7" class="edge">
<title>Node1&#45;&gt;Node7</title>
<path fill="none" stroke="midnightblue" d="M95.05,-234.34C146.9,-234.34 229.66,-234.34 277.19,-234.34"/>
<polygon fill="midnightblue" stroke="midnightblue" points="277.34,-237.84 287.34,-234.34 277.34,-230.84 277.34,-237.84"/>
</g>
<!-- Node8 -->
<g id="node8" class="node">
<title>Node8</title>
<g id="a_node8"><a xlink:href="namespaceconsole_1_1out.html#ac6f663e3971b66b8e130ee94755a150e" target="_top" xlink:title=" ">
<polygon fill="white" stroke="black" points="131,-129.84 131,-148.84 226,-148.84 226,-129.84 131,-129.84"/>
<text text-anchor="middle" x="178.5" y="-136.84" font-family="Helvetica,sans-Serif" font-size="10.00">console::out::print</text>
</a>
</g>
</g>
<!-- Node1&#45;&gt;Node8 -->
<g id="edge9" class="edge">
<title>Node1&#45;&gt;Node8</title>
<path fill="none" stroke="midnightblue" d="M61.82,-224.53C84.14,-208.09 129.3,-174.84 156.11,-155.09"/>
<polygon fill="midnightblue" stroke="midnightblue" points="158.47,-157.7 164.45,-148.95 154.32,-152.07 158.47,-157.7"/>
</g>
<!-- Node3 -->
<g id="node3" class="node">
<title>Node3</title>
<g id="a_node3"><a xlink:href="namespacevmem.html#aba25132214a42a641dafb1b21a1ce2db" target="_top" xlink:title=" ">
<polygon fill="white" stroke="black" points="883,-300.84 883,-319.84 973,-319.84 973,-300.84 883,-300.84"/>
<text text-anchor="middle" x="928" y="-307.84" font-family="Helvetica,sans-Serif" font-size="10.00">vmem::bootAlloc</text>
</a>
</g>
</g>
<!-- Node2&#45;&gt;Node3 -->
<g id="edge2" class="edge">
<title>Node2&#45;&gt;Node3</title>
<path fill="none" stroke="midnightblue" d="M815.6,-281.93C835.08,-286.9 859.07,-293.02 879.8,-298.3"/>
<polygon fill="midnightblue" stroke="midnightblue" points="879.12,-301.74 889.67,-300.82 880.85,-294.96 879.12,-301.74"/>
</g>
<!-- Node4 -->
<g id="node4" class="node">
<title>Node4</title>
<g id="a_node4"><a xlink:href="namespacemem.html#a981dd0cb1408b798a79443c6245e9c55" target="_top" xlink:title=" ">
<polygon fill="white" stroke="black" points="895.5,-262.84 895.5,-281.84 960.5,-281.84 960.5,-262.84 895.5,-262.84"/>
<text text-anchor="middle" x="928" y="-269.84" font-family="Helvetica,sans-Serif" font-size="10.00">mem::clear</text>
</a>
</g>
</g>
<!-- Node2&#45;&gt;Node4 -->
<g id="edge3" class="edge">
<title>Node2&#45;&gt;Node4</title>
<path fill="none" stroke="midnightblue" d="M825.55,-272.34C844.72,-272.34 866.64,-272.34 885.19,-272.34"/>
<polygon fill="midnightblue" stroke="midnightblue" points="885.39,-275.84 895.39,-272.34 885.39,-268.84 885.39,-275.84"/>
</g>
<!-- Node5 -->
<g id="node5" class="node">
<title>Node5</title>
<g id="a_node5"><a xlink:href="namespacestr.html#a062221f630647cf300f0dd982c4ed904" target="_top" xlink:title=" ">
<polygon fill="white" stroke="black" points="1200,-224.84 1200,-243.84 1258,-243.84 1258,-224.84 1200,-224.84"/>
<text text-anchor="middle" x="1229" y="-231.84" font-family="Helvetica,sans-Serif" font-size="10.00">str::count</text>
</a>
</g>
</g>
<!-- Node4&#45;&gt;Node5 -->
<g id="edge4" class="edge">
<title>Node4&#45;&gt;Node5</title>
<path fill="none" stroke="midnightblue" d="M960.7,-270.25C1005.98,-267.01 1091.71,-259.9 1164,-248.34 1172.38,-247 1181.32,-245.25 1189.77,-243.44"/>
<polygon fill="midnightblue" stroke="midnightblue" points="1190.77,-246.81 1199.78,-241.24 1189.26,-239.97 1190.77,-246.81"/>
</g>
<!-- Node6 -->
<g id="node6" class="node">
<title>Node6</title>
<g id="a_node6"><a xlink:href="namespacemem.html#adbaba9127c03fb914f752bfe19d6d089" target="_top" xlink:title=" ">
<polygon fill="white" stroke="black" points="1065,-300.84 1065,-319.84 1123,-319.84 1123,-300.84 1065,-300.84"/>
<text text-anchor="middle" x="1094" y="-307.84" font-family="Helvetica,sans-Serif" font-size="10.00">mem::set</text>
</a>
</g>
</g>
<!-- Node4&#45;&gt;Node6 -->
<g id="edge5" class="edge">
<title>Node4&#45;&gt;Node6</title>
<path fill="none" stroke="midnightblue" d="M960.62,-279.67C987.48,-285.89 1026.11,-294.84 1054.72,-301.47"/>
<polygon fill="midnightblue" stroke="midnightblue" points="1054.23,-304.95 1064.76,-303.8 1055.81,-298.13 1054.23,-304.95"/>
</g>
<!-- Node6&#45;&gt;Node5 -->
<g id="edge6" class="edge">
<title>Node6&#45;&gt;Node5</title>
<path fill="none" stroke="midnightblue" d="M1123.14,-302.98C1136.04,-299.01 1151.26,-293.44 1164,-286.34 1181.27,-276.71 1198.54,-262.34 1210.77,-251.14"/>
<polygon fill="midnightblue" stroke="midnightblue" points="1213.49,-253.39 1218.38,-243.99 1208.7,-248.29 1213.49,-253.39"/>
</g>
<!-- Node7&#45;&gt;Node5 -->
<g id="edge8" class="edge">
<title>Node7&#45;&gt;Node5</title>
<path fill="none" stroke="midnightblue" d="M342.61,-234.34C395.72,-234.34 518.67,-234.34 622,-234.34 622,-234.34 622,-234.34 929,-234.34 1022.63,-234.34 1132.76,-234.34 1189.65,-234.34"/>
<polygon fill="midnightblue" stroke="midnightblue" points="1189.97,-237.84 1199.97,-234.34 1189.97,-230.84 1189.97,-237.84"/>
</g>
<!-- Node9 -->
<g id="node9" class="node">
<title>Node9</title>
<g id="a_node9"><a xlink:href="namespaceconsole_1_1out.html#a8f791bfac54067cadb1b9f18117b987b" target="_top" xlink:title=" ">
<polygon fill="white" stroke="black" points="262,-91.84 262,-110.84 368,-110.84 368,-91.84 262,-91.84"/>
<text text-anchor="middle" x="315" y="-98.84" font-family="Helvetica,sans-Serif" font-size="10.00">console::out::printVa</text>
</a>
</g>
</g>
<!-- Node8&#45;&gt;Node9 -->
<g id="edge10" class="edge">
<title>Node8&#45;&gt;Node9</title>
<path fill="none" stroke="midnightblue" d="M213.44,-129.75C230.72,-124.87 251.93,-118.88 270.41,-113.65"/>
<polygon fill="midnightblue" stroke="midnightblue" points="271.4,-117.01 280.07,-110.93 269.5,-110.28 271.4,-117.01"/>
</g>
<!-- Node10 -->
<g id="node10" class="node">
<title>Node10</title>
<g id="a_node10"><a xlink:href="namespaceconsole_1_1ge.html#af642934cb833142f133285fdb75ef7b7" target="_top" xlink:title=" ">
<polygon fill="white" stroke="black" points="404,-91.84 404,-110.84 524,-110.84 524,-91.84 404,-91.84"/>
<text text-anchor="middle" x="464" y="-98.84" font-family="Helvetica,sans-Serif" font-size="10.00">console::ge::printFmtVa</text>
</a>
</g>
</g>
<!-- Node9&#45;&gt;Node10 -->
<g id="edge11" class="edge">
<title>Node9&#45;&gt;Node10</title>
<path fill="none" stroke="midnightblue" d="M368.24,-101.34C376.54,-101.34 385.24,-101.34 393.86,-101.34"/>
<polygon fill="midnightblue" stroke="midnightblue" points="393.92,-104.84 403.92,-101.34 393.92,-97.84 393.92,-104.84"/>
</g>
<!-- Node16 -->
<g id="node16" class="node">
<title>Node16</title>
<g id="a_node16"><a xlink:href="namespaceconsole_1_1out.html#ad9fc97dff4404c2d21aedbb24691e7cb" target="_top" xlink:title=" ">
<polygon fill="white" stroke="black" points="722,-15.84 722,-34.84 832,-34.84 832,-15.84 722,-15.84"/>
<text text-anchor="middle" x="777" y="-22.84" font-family="Helvetica,sans-Serif" font-size="10.00">console::out::putChar</text>
</a>
</g>
</g>
<!-- Node9&#45;&gt;Node16 -->
<g id="edge28" class="edge">
<title>Node9&#45;&gt;Node16</title>
<path fill="none" stroke="midnightblue" d="M333.68,-91.79C372.97,-71.18 471.09,-23.04 560,-6.34 615.04,4 630.3,-0.52 686,-6.34 700.31,-7.83 715.7,-10.63 729.64,-13.63"/>
<polygon fill="midnightblue" stroke="midnightblue" points="728.97,-17.06 739.49,-15.83 730.5,-10.23 728.97,-17.06"/>
</g>
<!-- Node10&#45;&gt;Node5 -->
<g id="edge14" class="edge">
<title>Node10&#45;&gt;Node5</title>
<path fill="none" stroke="midnightblue" d="M473.26,-110.91C488.46,-127.78 522.75,-162.41 560,-177.34 649.45,-213.2 679.63,-196.34 776,-196.34 776,-196.34 776,-196.34 929,-196.34 1033.99,-196.34 1060.33,-203.76 1164,-220.34 1172.38,-221.68 1181.32,-223.43 1189.77,-225.23"/>
<polygon fill="midnightblue" stroke="midnightblue" points="1189.26,-228.7 1199.78,-227.44 1190.77,-221.87 1189.26,-228.7"/>
</g>
<!-- Node11 -->
<g id="node11" class="node">
<title>Node11</title>
<g id="a_node11"><a xlink:href="printfmt_8cc.html#a708ec6ee2b8bd2d7a453d8d9436ed3b3" target="_top" xlink:title=" ">
<polygon fill="white" stroke="black" points="594,-148.84 594,-167.84 652,-167.84 652,-148.84 594,-148.84"/>
<text text-anchor="middle" x="623" y="-155.84" font-family="Helvetica,sans-Serif" font-size="10.00">_getIntVa</text>
</a>
</g>
</g>
<!-- Node10&#45;&gt;Node11 -->
<g id="edge12" class="edge">
<title>Node10&#45;&gt;Node11</title>
<path fill="none" stroke="midnightblue" d="M487.45,-110.93C506.57,-118.96 534.87,-130.48 560,-139.34 567.69,-142.05 575.99,-144.75 583.94,-147.22"/>
<polygon fill="midnightblue" stroke="midnightblue" points="583.17,-150.65 593.75,-150.22 585.21,-143.95 583.17,-150.65"/>
</g>
<!-- Node12 -->
<g id="node12" class="node">
<title>Node12</title>
<g id="a_node12"><a xlink:href="printfmt_8cc.html#af4b46892c76c8bfd27efdb20847eb7c8" target="_top" xlink:title=" ">
<polygon fill="white" stroke="black" points="590.5,-110.84 590.5,-129.84 655.5,-129.84 655.5,-110.84 590.5,-110.84"/>
<text text-anchor="middle" x="623" y="-117.84" font-family="Helvetica,sans-Serif" font-size="10.00">_getUIntVa</text>
</a>
</g>
</g>
<!-- Node10&#45;&gt;Node12 -->
<g id="edge13" class="edge">
<title>Node10&#45;&gt;Node12</title>
<path fill="none" stroke="midnightblue" d="M524.35,-108.52C542.91,-110.77 562.98,-113.2 580.07,-115.27"/>
<polygon fill="midnightblue" stroke="midnightblue" points="579.94,-118.78 590.29,-116.5 580.78,-111.83 579.94,-118.78"/>
</g>
<!-- Node13 -->
<g id="node13" class="node">
<title>Node13</title>
<g id="a_node13"><a xlink:href="printfmt_8cc.html#a0e3e484ece5e75b9f5fbe337f0ae8ae3" target="_top" xlink:title=" ">
<polygon fill="white" stroke="black" points="596.5,-72.84 596.5,-91.84 649.5,-91.84 649.5,-72.84 596.5,-72.84"/>
<text text-anchor="middle" x="623" y="-79.84" font-family="Helvetica,sans-Serif" font-size="10.00">describe</text>
</a>
</g>
</g>
<!-- Node10&#45;&gt;Node13 -->
<g id="edge15" class="edge">
<title>Node10&#45;&gt;Node13</title>
<path fill="none" stroke="midnightblue" d="M524.35,-94.16C545.21,-91.63 567.99,-88.88 586.3,-86.66"/>
<polygon fill="midnightblue" stroke="midnightblue" points="586.73,-90.13 596.24,-85.46 585.89,-83.18 586.73,-90.13"/>
</g>
<!-- Node15 -->
<g id="node15" class="node">
<title>Node15</title>
<g id="a_node15"><a xlink:href="namespaceconsole_1_1ge.html#a7e301813fd34fde772376afc5fdad95d" target="_top" xlink:title=" ">
<polygon fill="white" stroke="black" points="560,-34.84 560,-53.84 686,-53.84 686,-34.84 560,-34.84"/>
<text text-anchor="middle" x="623" y="-41.84" font-family="Helvetica,sans-Serif" font-size="10.00">console::ge::printNumber</text>
</a>
</g>
</g>
<!-- Node10&#45;&gt;Node15 -->
<g id="edge17" class="edge">
<title>Node10&#45;&gt;Node15</title>
<path fill="none" stroke="midnightblue" d="M487.45,-91.75C506.57,-83.72 534.87,-72.2 560,-63.34 566.13,-61.18 572.65,-59.02 579.07,-56.99"/>
<polygon fill="midnightblue" stroke="midnightblue" points="580.51,-60.21 589.01,-53.89 578.42,-53.52 580.51,-60.21"/>
</g>
<!-- Node10&#45;&gt;Node16 -->
<g id="edge27" class="edge">
<title>Node10&#45;&gt;Node16</title>
<path fill="none" stroke="midnightblue" d="M472.9,-91.71C487.79,-74.43 521.93,-38.69 560,-25.34 609.41,-8.01 669.17,-9.58 713.3,-14.59"/>
<polygon fill="midnightblue" stroke="midnightblue" points="712.97,-18.08 723.32,-15.82 713.82,-11.13 712.97,-18.08"/>
</g>
<!-- Node14 -->
<g id="node14" class="node">
<title>Node14</title>
<g id="a_node14"><a xlink:href="namespacemonitor.html#a318993193c866642f8389a1c1f285739" target="_top" xlink:title=" ">
<polygon fill="white" stroke="black" points="740,-72.84 740,-91.84 814,-91.84 814,-72.84 740,-72.84"/>
<text text-anchor="middle" x="777" y="-79.84" font-family="Helvetica,sans-Serif" font-size="10.00">monitor::fuck</text>
</a>
</g>
</g>
<!-- Node13&#45;&gt;Node14 -->
<g id="edge16" class="edge">
<title>Node13&#45;&gt;Node14</title>
<path fill="none" stroke="midnightblue" d="M649.78,-82.34C671.62,-82.34 703.46,-82.34 729.7,-82.34"/>
<polygon fill="midnightblue" stroke="midnightblue" points="729.82,-85.84 739.82,-82.34 729.82,-78.84 729.82,-85.84"/>
</g>
<!-- Node15&#45;&gt;Node16 -->
<g id="edge18" class="edge">
<title>Node15&#45;&gt;Node16</title>
<path fill="none" stroke="midnightblue" d="M686.26,-36.56C694.66,-35.51 703.28,-34.43 711.71,-33.38"/>
<polygon fill="midnightblue" stroke="midnightblue" points="712.37,-36.82 721.86,-32.11 711.51,-29.87 712.37,-36.82"/>
</g>
<!-- Node17 -->
<g id="node17" class="node">
<title>Node17</title>
<g id="a_node17"><a xlink:href="namespaceconsole_1_1serial.html#a3a7c1f95ae3c24136ea63bb31fdf0391" target="_top" xlink:title=" ">
<polygon fill="white" stroke="black" points="868,-15.84 868,-34.84 988,-34.84 988,-15.84 868,-15.84"/>
<text text-anchor="middle" x="928" y="-22.84" font-family="Helvetica,sans-Serif" font-size="10.00">console::serial::putChar</text>
</a>
</g>
</g>
<!-- Node16&#45;&gt;Node17 -->
<g id="edge19" class="edge">
<title>Node16&#45;&gt;Node17</title>
<path fill="none" stroke="midnightblue" d="M832.21,-25.34C840.53,-25.34 849.2,-25.34 857.79,-25.34"/>
<polygon fill="midnightblue" stroke="midnightblue" points="857.79,-28.84 867.79,-25.34 857.79,-21.84 857.79,-28.84"/>
</g>
<!-- Node20 -->
<g id="node20" class="node">
<title>Node20</title>
<g id="a_node20"><a xlink:href="namespaceconsole_1_1cga.html#afa19057ca041b39682d5d4831c43dfa0" target="_top" xlink:title=" ">
<polygon fill="white" stroke="black" points="871.5,-53.84 871.5,-72.84 984.5,-72.84 984.5,-53.84 871.5,-53.84"/>
<text text-anchor="middle" x="928" y="-60.84" font-family="Helvetica,sans-Serif" font-size="10.00">console::cga::putChar</text>
</a>
</g>
</g>
<!-- Node16&#45;&gt;Node20 -->
<g id="edge22" class="edge">
<title>Node16&#45;&gt;Node20</title>
<path fill="none" stroke="midnightblue" d="M815.6,-34.93C835.08,-39.9 859.07,-46.02 879.8,-51.3"/>
<polygon fill="midnightblue" stroke="midnightblue" points="879.12,-54.74 889.67,-53.82 880.85,-47.96 879.12,-54.74"/>
</g>
<!-- Node18 -->
<g id="node18" class="node">
<title>Node18</title>
<g id="a_node18"><a xlink:href="namespaceconsole_1_1serial.html#aa5605d4537106bb1c2bab72d7d1a5824" target="_top" xlink:title=" ">
<polygon fill="white" stroke="black" points="1042,-15.84 1042,-34.84 1146,-34.84 1146,-15.84 1042,-15.84"/>
<text text-anchor="middle" x="1094" y="-22.84" font-family="Helvetica,sans-Serif" font-size="10.00">console::serial::sout</text>
</a>
</g>
</g>
<!-- Node17&#45;&gt;Node18 -->
<g id="edge20" class="edge">
<title>Node17&#45;&gt;Node18</title>
<path fill="none" stroke="midnightblue" d="M988.21,-25.34C1002.31,-25.34 1017.39,-25.34 1031.59,-25.34"/>
<polygon fill="midnightblue" stroke="midnightblue" points="1031.74,-28.84 1041.74,-25.34 1031.74,-21.84 1031.74,-28.84"/>
</g>
<!-- Node19 -->
<g id="node19" class="node">
<title>Node19</title>
<g id="a_node19"><a xlink:href="x86_8h.html#ade961b44e45ddacbc3c3b7609cf36dc6" target="_top" xlink:title=" ">
<polygon fill="white" stroke="black" points="1211.5,-34.84 1211.5,-53.84 1246.5,-53.84 1246.5,-34.84 1211.5,-34.84"/>
<text text-anchor="middle" x="1229" y="-41.84" font-family="Helvetica,sans-Serif" font-size="10.00">outb</text>
</a>
</g>
</g>
<!-- Node18&#45;&gt;Node19 -->
<g id="edge21" class="edge">
<title>Node18&#45;&gt;Node19</title>
<path fill="none" stroke="midnightblue" d="M1146.04,-32.63C1164.85,-35.32 1185.4,-38.25 1201.22,-40.51"/>
<polygon fill="midnightblue" stroke="midnightblue" points="1200.95,-44.01 1211.34,-41.96 1201.94,-37.08 1200.95,-44.01"/>
</g>
<!-- Node21 -->
<g id="node21" class="node">
<title>Node21</title>
<g id="a_node21"><a xlink:href="namespacemem.html#a64d9d05b439041901498c606de606431" target="_top" xlink:title=" ">
<polygon fill="white" stroke="black" points="1061.5,-120.84 1061.5,-139.84 1126.5,-139.84 1126.5,-120.84 1061.5,-120.84"/>
<text text-anchor="middle" x="1094" y="-127.84" font-family="Helvetica,sans-Serif" font-size="10.00">mem::copy</text>
</a>
</g>
</g>
<!-- Node20&#45;&gt;Node21 -->
<g id="edge23" class="edge">
<title>Node20&#45;&gt;Node21</title>
<path fill="none" stroke="midnightblue" d="M952.5,-72.94C980.75,-84.48 1028.34,-103.92 1060.2,-116.94"/>
<polygon fill="midnightblue" stroke="midnightblue" points="1058.97,-120.22 1069.55,-120.76 1061.61,-113.74 1058.97,-120.22"/>
</g>
<!-- Node22 -->
<g id="node22" class="node">
<title>Node22</title>
<g id="a_node22"><a xlink:href="namespaceconsole_1_1cga.html#a06463d4dc68819e30615ba299d02a78f" target="_top" xlink:title=" ">
<polygon fill="white" stroke="black" points="1024,-53.84 1024,-72.84 1164,-72.84 1164,-53.84 1024,-53.84"/>
<text text-anchor="middle" x="1094" y="-60.84" font-family="Helvetica,sans-Serif" font-size="10.00">console::cga::cursorRefresh</text>
</a>
</g>
</g>
<!-- Node20&#45;&gt;Node22 -->
<g id="edge25" class="edge">
<title>Node20&#45;&gt;Node22</title>
<path fill="none" stroke="midnightblue" d="M984.52,-63.34C993.9,-63.34 1003.8,-63.34 1013.65,-63.34"/>
<polygon fill="midnightblue" stroke="midnightblue" points="1013.87,-66.84 1023.87,-63.34 1013.87,-59.84 1013.87,-66.84"/>
</g>
<!-- Node21&#45;&gt;Node5 -->
<g id="edge24" class="edge">
<title>Node21&#45;&gt;Node5</title>
<path fill="none" stroke="midnightblue" d="M1108.08,-139.97C1122.04,-150.31 1144.75,-167.27 1164,-182.34 1179.02,-194.1 1195.75,-207.7 1208.33,-218.05"/>
<polygon fill="midnightblue" stroke="midnightblue" points="1206.37,-220.96 1216.31,-224.63 1210.82,-215.56 1206.37,-220.96"/>
</g>
<!-- Node22&#45;&gt;Node19 -->
<g id="edge26" class="edge">
<title>Node22&#45;&gt;Node19</title>
<path fill="none" stroke="midnightblue" d="M1161.89,-53.78C1175.81,-51.79 1189.71,-49.81 1201.15,-48.18"/>
<polygon fill="midnightblue" stroke="midnightblue" points="1201.87,-51.61 1211.28,-46.73 1200.88,-44.68 1201.87,-51.61"/>
</g>
</g>
</svg>
