<?xml version="1.0" encoding="UTF-8" standalone="no"?>
<!DOCTYPE svg PUBLIC "-//W3C//DTD SVG 1.1//EN"
 "http://www.w3.org/Graphics/SVG/1.1/DTD/svg11.dtd">
<!-- Generated by graphviz version 2.44.1 (20200629.0846)
 -->
<!-- Title: mp::ConfTable Pages: 1 -->
<svg width="423pt" height="128pt"
 viewBox="0.00 0.00 422.50 128.00" xmlns="http://www.w3.org/2000/svg" xmlns:xlink="http://www.w3.org/1999/xlink">
<g id="graph0" class="graph" transform="scale(1 1) rotate(0) translate(4 124)">
<title>mp::ConfTable</title>
<polygon fill="white" stroke="transparent" points="-4,4 -4,-124 418.5,-124 418.5,4 -4,4"/>
<!-- Node1 -->
<g id="node1" class="node">
<title>Node1</title>
<g id="a_node1"><a xlink:title=" ">
<polygon fill="#bfbfbf" stroke="black" points="140.5,-0.5 140.5,-19.5 220.5,-19.5 220.5,-0.5 140.5,-0.5"/>
<text text-anchor="middle" x="180.5" y="-7.5" font-family="Helvetica,sans-Serif" font-size="10.00">mp::ConfTable</text>
</a>
</g>
</g>
<!-- Node2 -->
<g id="node2" class="node">
<title>Node2</title>
<g id="a_node2"><a xlink:title=" ">
<polygon fill="white" stroke="#bfbfbf" points="0,-100.5 0,-119.5 51,-119.5 51,-100.5 0,-100.5"/>
<text text-anchor="middle" x="25.5" y="-107.5" font-family="Helvetica,sans-Serif" font-size="10.00">uint16_t</text>
</a>
</g>
</g>
<!-- Node2&#45;&gt;Node1 -->
<g id="edge1" class="edge">
<title>Node2&#45;&gt;Node1</title>
<path fill="none" stroke="#9a32cd" stroke-dasharray="5,2" d="M23.54,-89.83C23.03,-73.8 25.14,-51.45 38.5,-38 52.51,-23.89 103.61,-16.9 140.5,-13.63"/>
<polygon fill="#9a32cd" stroke="#9a32cd" points="20.07,-90.43 24.25,-100.17 27.06,-89.95 20.07,-90.43"/>
<text text-anchor="middle" x="87.5" y="-74" font-family="Helvetica,sans-Serif" font-size="10.00"> entry_count</text>
<text text-anchor="middle" x="87.5" y="-63" font-family="Helvetica,sans-Serif" font-size="10.00">extended_table_length</text>
<text text-anchor="middle" x="87.5" y="-52" font-family="Helvetica,sans-Serif" font-size="10.00">length</text>
<text text-anchor="middle" x="87.5" y="-41" font-family="Helvetica,sans-Serif" font-size="10.00">oem_table_size</text>
</g>
<!-- Node3 -->
<g id="node3" class="node">
<title>Node3</title>
<g id="a_node3"><a xlink:title=" ">
<polygon fill="white" stroke="#bfbfbf" points="129,-100.5 129,-119.5 164,-119.5 164,-100.5 129,-100.5"/>
<text text-anchor="middle" x="146.5" y="-107.5" font-family="Helvetica,sans-Serif" font-size="10.00">char</text>
</a>
</g>
</g>
<!-- Node3&#45;&gt;Node1 -->
<g id="edge2" class="edge">
<title>Node3&#45;&gt;Node1</title>
<path fill="none" stroke="#9a32cd" stroke-dasharray="5,2" d="M142.59,-90.11C140.46,-75.2 139.64,-54.28 147.5,-38 151.17,-30.4 158.11,-24.21 164.69,-19.69"/>
<polygon fill="#9a32cd" stroke="#9a32cd" points="139.18,-90.91 144.35,-100.16 146.07,-89.7 139.18,-90.91"/>
<text text-anchor="middle" x="170.5" y="-68.5" font-family="Helvetica,sans-Serif" font-size="10.00"> oem_id</text>
<text text-anchor="middle" x="170.5" y="-57.5" font-family="Helvetica,sans-Serif" font-size="10.00">product_id</text>
<text text-anchor="middle" x="170.5" y="-46.5" font-family="Helvetica,sans-Serif" font-size="10.00">signature</text>
</g>
<!-- Node4 -->
<g id="node4" class="node">
<title>Node4</title>
<g id="a_node4"><a xlink:title=" ">
<polygon fill="white" stroke="#bfbfbf" points="190,-100.5 190,-119.5 241,-119.5 241,-100.5 190,-100.5"/>
<text text-anchor="middle" x="215.5" y="-107.5" font-family="Helvetica,sans-Serif" font-size="10.00">uint32_t</text>
</a>
</g>
</g>
<!-- Node4&#45;&gt;Node1 -->
<g id="edge3" class="edge">
<title>Node4&#45;&gt;Node1</title>
<path fill="none" stroke="#9a32cd" stroke-dasharray="5,2" d="M210.54,-90.36C206.5,-75.89 200.35,-55.42 193.5,-38 191.06,-31.8 187.81,-25.05 185.17,-19.85"/>
<polygon fill="#9a32cd" stroke="#9a32cd" points="207.19,-91.38 213.2,-100.11 213.95,-89.54 207.19,-91.38"/>
<text text-anchor="middle" x="239.5" y="-63" font-family="Helvetica,sans-Serif" font-size="10.00"> lapic_address</text>
<text text-anchor="middle" x="239.5" y="-52" font-family="Helvetica,sans-Serif" font-size="10.00">oem_table</text>
</g>
<!-- Node5 -->
<g id="node5" class="node">
<title>Node5</title>
<g id="a_node5"><a xlink:title=" ">
<polygon fill="white" stroke="#bfbfbf" points="279.5,-100.5 279.5,-119.5 325.5,-119.5 325.5,-100.5 279.5,-100.5"/>
<text text-anchor="middle" x="302.5" y="-107.5" font-family="Helvetica,sans-Serif" font-size="10.00">uint8_t</text>
</a>
</g>
</g>
<!-- Node5&#45;&gt;Node1 -->
<g id="edge4" class="edge">
<title>Node5&#45;&gt;Node1</title>
<path fill="none" stroke="#9a32cd" stroke-dasharray="5,2" d="M300.02,-89.85C296.96,-73.83 290.2,-51.48 275.5,-38 260.59,-24.33 239.24,-17.52 220.56,-14.16"/>
<polygon fill="#9a32cd" stroke="#9a32cd" points="296.64,-90.85 301.66,-100.18 303.55,-89.75 296.64,-90.85"/>
<text text-anchor="middle" x="356" y="-74" font-family="Helvetica,sans-Serif" font-size="10.00"> checksum</text>
<text text-anchor="middle" x="356" y="-63" font-family="Helvetica,sans-Serif" font-size="10.00">extended_table_checksum</text>
<text text-anchor="middle" x="356" y="-52" font-family="Helvetica,sans-Serif" font-size="10.00">mp_specification_revision</text>
<text text-anchor="middle" x="356" y="-41" font-family="Helvetica,sans-Serif" font-size="10.00">reserved</text>
</g>
</g>
</svg>
