<?xml version="1.0" encoding="UTF-8" standalone="no"?>
<!DOCTYPE svg PUBLIC "-//W3C//DTD SVG 1.1//EN"
 "http://www.w3.org/Graphics/SVG/1.1/DTD/svg11.dtd">
<!-- Generated by graphviz version 2.44.1 (20200629.0846)
 -->
<!-- Title: GateDesc Pages: 1 -->
<svg width="98pt" height="183pt"
 viewBox="0.00 0.00 97.50 183.00" xmlns="http://www.w3.org/2000/svg" xmlns:xlink="http://www.w3.org/1999/xlink">
<g id="graph0" class="graph" transform="scale(1 1) rotate(0) translate(4 179)">
<title>GateDesc</title>
<polygon fill="white" stroke="transparent" points="-4,4 -4,-179 93.5,-179 93.5,4 -4,4"/>
<!-- Node1 -->
<g id="node1" class="node">
<title>Node1</title>
<g id="a_node1"><a xlink:title=" ">
<polygon fill="#bfbfbf" stroke="black" points="0,-0.5 0,-19.5 61,-19.5 61,-0.5 0,-0.5"/>
<text text-anchor="middle" x="30.5" y="-7.5" font-family="Helvetica,sans-Serif" font-size="10.00">GateDesc</text>
</a>
</g>
</g>
<!-- Node2 -->
<g id="node2" class="node">
<title>Node2</title>
<g id="a_node2"><a xlink:title=" ">
<polygon fill="white" stroke="#bfbfbf" points="2.5,-155.5 2.5,-174.5 58.5,-174.5 58.5,-155.5 2.5,-155.5"/>
<text text-anchor="middle" x="30.5" y="-162.5" font-family="Helvetica,sans-Serif" font-size="10.00">unsigned</text>
</a>
</g>
</g>
<!-- Node2&#45;&gt;Node1 -->
<g id="edge1" class="edge">
<title>Node2&#45;&gt;Node1</title>
<path fill="none" stroke="#9a32cd" stroke-dasharray="5,2" d="M30.5,-145.11C30.5,-111.72 30.5,-43.54 30.5,-19.57"/>
<polygon fill="#9a32cd" stroke="#9a32cd" points="27,-145.34 30.5,-155.34 34,-145.34 27,-145.34"/>
<text text-anchor="middle" x="60" y="-129" font-family="Helvetica,sans-Serif" font-size="10.00"> gd_args</text>
<text text-anchor="middle" x="60" y="-118" font-family="Helvetica,sans-Serif" font-size="10.00">gd_dpl</text>
<text text-anchor="middle" x="60" y="-107" font-family="Helvetica,sans-Serif" font-size="10.00">gd_off_15_0</text>
<text text-anchor="middle" x="60" y="-96" font-family="Helvetica,sans-Serif" font-size="10.00">gd_off_31_16</text>
<text text-anchor="middle" x="60" y="-85" font-family="Helvetica,sans-Serif" font-size="10.00">gd_p</text>
<text text-anchor="middle" x="60" y="-74" font-family="Helvetica,sans-Serif" font-size="10.00">gd_rsv1</text>
<text text-anchor="middle" x="60" y="-63" font-family="Helvetica,sans-Serif" font-size="10.00">gd_s</text>
<text text-anchor="middle" x="60" y="-52" font-family="Helvetica,sans-Serif" font-size="10.00">gd_sel</text>
<text text-anchor="middle" x="60" y="-41" font-family="Helvetica,sans-Serif" font-size="10.00">gd_type</text>
</g>
</g>
</svg>
