<?xml version="1.0" encoding="UTF-8" standalone="no"?>
<!DOCTYPE svg PUBLIC "-//W3C//DTD SVG 1.1//EN"
 "http://www.w3.org/Graphics/SVG/1.1/DTD/svg11.dtd">
<!-- Generated by graphviz version 2.44.1 (20200629.0846)
 -->
<!-- Title: task::Task::setupMemory Pages: 1 -->
<svg width="1457pt" height="468pt"
 viewBox="0.00 0.00 1457.00 468.12" xmlns="http://www.w3.org/2000/svg" xmlns:xlink="http://www.w3.org/1999/xlink">
<g id="graph0" class="graph" transform="scale(1 1) rotate(0) translate(4 464.12)">
<title>task::Task::setupMemory</title>
<polygon fill="white" stroke="transparent" points="-4,4 -4,-464.12 1453,-464.12 1453,4 -4,4"/>
<!-- Node1 -->
<g id="node1" class="node">
<title>Node1</title>
<g id="a_node1"><a xlink:title=" ">
<polygon fill="#bfbfbf" stroke="black" points="0,-76.5 0,-95.5 128,-95.5 128,-76.5 0,-76.5"/>
<text text-anchor="middle" x="64" y="-83.5" font-family="Helvetica,sans-Serif" font-size="10.00">task::Task::setupMemory</text>
</a>
</g>
</g>
<!-- Node2 -->
<g id="node2" class="node">
<title>Node2</title>
<g id="a_node2"><a xlink:href="structvmem_1_1_page_info.html#afcdcb7e941219a8ec999353658e3c2aa" target="_top" xlink:title=" ">
<polygon fill="white" stroke="black" points="898,-38.5 898,-57.5 1013,-57.5 1013,-38.5 898,-38.5"/>
<text text-anchor="middle" x="955.5" y="-45.5" font-family="Helvetica,sans-Serif" font-size="10.00">vmem::PageInfo::alloc</text>
</a>
</g>
</g>
<!-- Node1&#45;&gt;Node2 -->
<g id="edge1" class="edge">
<title>Node1&#45;&gt;Node2</title>
<path fill="none" stroke="midnightblue" d="M104.87,-76.41C155.25,-65.15 244.77,-48 322.5,-48 322.5,-48 322.5,-48 641,-48 726.07,-48 824.12,-48 887.59,-48"/>
<polygon fill="midnightblue" stroke="midnightblue" points="887.87,-51.5 897.87,-48 887.87,-44.5 887.87,-51.5"/>
</g>
<!-- Node8 -->
<g id="node8" class="node">
<title>Node8</title>
<g id="a_node8"><a xlink:href="namespacemem.html#a64d9d05b439041901498c606de606431" target="_top" xlink:title=" ">
<polygon fill="white" stroke="black" points="1252.5,-190.5 1252.5,-209.5 1317.5,-209.5 1317.5,-190.5 1252.5,-190.5"/>
<text text-anchor="middle" x="1285" y="-197.5" font-family="Helvetica,sans-Serif" font-size="10.00">mem::copy</text>
</a>
</g>
</g>
<!-- Node1&#45;&gt;Node8 -->
<g id="edge8" class="edge">
<title>Node1&#45;&gt;Node8</title>
<path fill="none" stroke="midnightblue" d="M128.23,-86C180.36,-86 256.23,-86 322.5,-86 322.5,-86 322.5,-86 956.5,-86 1076.05,-86 1207.19,-154.59 1260,-185.37"/>
<polygon fill="midnightblue" stroke="midnightblue" points="1258.26,-188.4 1268.65,-190.48 1261.82,-182.38 1258.26,-188.4"/>
</g>
<!-- Node9 -->
<g id="node9" class="node">
<title>Node9</title>
<g id="a_node9"><a xlink:href="namespacemonitor.html#a4b5d3ce92dd6d48ccbb57e3286d8499b" target="_top" xlink:title=" ">
<polygon fill="white" stroke="black" points="164,-133.5 164,-152.5 240,-152.5 240,-133.5 164,-133.5"/>
<text text-anchor="middle" x="202" y="-140.5" font-family="Helvetica,sans-Serif" font-size="10.00">monitor::page</text>
</a>
</g>
</g>
<!-- Node1&#45;&gt;Node9 -->
<g id="edge10" class="edge">
<title>Node1&#45;&gt;Node9</title>
<path fill="none" stroke="midnightblue" d="M87.76,-95.54C109.93,-104.83 143.82,-119.04 168.76,-129.49"/>
<polygon fill="midnightblue" stroke="midnightblue" points="167.59,-132.79 178.16,-133.43 170.29,-126.33 167.59,-132.79"/>
</g>
<!-- Node3 -->
<g id="node3" class="node">
<title>Node3</title>
<g id="a_node3"><a xlink:href="namespacemem.html#a981dd0cb1408b798a79443c6245e9c55" target="_top" xlink:title=" ">
<polygon fill="white" stroke="black" points="1081.5,-38.5 1081.5,-57.5 1146.5,-57.5 1146.5,-38.5 1081.5,-38.5"/>
<text text-anchor="middle" x="1114" y="-45.5" font-family="Helvetica,sans-Serif" font-size="10.00">mem::clear</text>
</a>
</g>
</g>
<!-- Node2&#45;&gt;Node3 -->
<g id="edge2" class="edge">
<title>Node2&#45;&gt;Node3</title>
<path fill="none" stroke="midnightblue" d="M1013,-48C1032.18,-48 1053.24,-48 1071.08,-48"/>
<polygon fill="midnightblue" stroke="midnightblue" points="1071.16,-51.5 1081.16,-48 1071.16,-44.5 1071.16,-51.5"/>
</g>
<!-- Node6 -->
<g id="node6" class="node">
<title>Node6</title>
<g id="a_node6"><a xlink:href="structvmem_1_1_page_info.html#afc863f1d364462ddd2c20bf31f588337" target="_top" xlink:title=" ">
<polygon fill="white" stroke="black" points="1049,-0.5 1049,-19.5 1179,-19.5 1179,-0.5 1049,-0.5"/>
<text text-anchor="middle" x="1114" y="-7.5" font-family="Helvetica,sans-Serif" font-size="10.00">vmem::PageInfo::toKernV</text>
</a>
</g>
</g>
<!-- Node2&#45;&gt;Node6 -->
<g id="edge6" class="edge">
<title>Node2&#45;&gt;Node6</title>
<path fill="none" stroke="midnightblue" d="M995.99,-38.41C1016.64,-33.4 1042.11,-27.21 1064.01,-21.89"/>
<polygon fill="midnightblue" stroke="midnightblue" points="1064.9,-25.28 1073.79,-19.52 1063.25,-18.48 1064.9,-25.28"/>
</g>
<!-- Node4 -->
<g id="node4" class="node">
<title>Node4</title>
<g id="a_node4"><a xlink:href="namespacestr.html#a062221f630647cf300f0dd982c4ed904" target="_top" xlink:title=" ">
<polygon fill="white" stroke="black" points="1391,-133.5 1391,-152.5 1449,-152.5 1449,-133.5 1391,-133.5"/>
<text text-anchor="middle" x="1420" y="-140.5" font-family="Helvetica,sans-Serif" font-size="10.00">str::count</text>
</a>
</g>
</g>
<!-- Node3&#45;&gt;Node4 -->
<g id="edge3" class="edge">
<title>Node3&#45;&gt;Node4</title>
<path fill="none" stroke="midnightblue" d="M1146.61,-43.12C1194.59,-37.29 1287.35,-32.21 1355,-67 1379.59,-79.65 1398.48,-106.26 1409.17,-124.38"/>
<polygon fill="midnightblue" stroke="midnightblue" points="1406.3,-126.43 1414.24,-133.44 1412.41,-123 1406.3,-126.43"/>
</g>
<!-- Node5 -->
<g id="node5" class="node">
<title>Node5</title>
<g id="a_node5"><a xlink:href="namespacemem.html#adbaba9127c03fb914f752bfe19d6d089" target="_top" xlink:title=" ">
<polygon fill="white" stroke="black" points="1256,-76.5 1256,-95.5 1314,-95.5 1314,-76.5 1256,-76.5"/>
<text text-anchor="middle" x="1285" y="-83.5" font-family="Helvetica,sans-Serif" font-size="10.00">mem::set</text>
</a>
</g>
</g>
<!-- Node3&#45;&gt;Node5 -->
<g id="edge4" class="edge">
<title>Node3&#45;&gt;Node5</title>
<path fill="none" stroke="midnightblue" d="M1146.79,-55.15C1174.93,-61.47 1216.05,-70.72 1245.94,-77.44"/>
<polygon fill="midnightblue" stroke="midnightblue" points="1245.48,-80.93 1256,-79.7 1247.01,-74.1 1245.48,-80.93"/>
</g>
<!-- Node5&#45;&gt;Node4 -->
<g id="edge5" class="edge">
<title>Node5&#45;&gt;Node4</title>
<path fill="none" stroke="midnightblue" d="M1314.21,-94.81C1326.84,-99.01 1341.83,-104.35 1355,-110 1367.74,-115.47 1381.46,-122.4 1392.92,-128.49"/>
<polygon fill="midnightblue" stroke="midnightblue" points="1391.47,-131.69 1401.93,-133.36 1394.8,-125.53 1391.47,-131.69"/>
</g>
<!-- Node7 -->
<g id="node7" class="node">
<title>Node7</title>
<g id="a_node7"><a xlink:href="structvmem_1_1_page_info.html#accf2071c7875c29c9aa78a01ef5963a1" target="_top" xlink:title=" ">
<polygon fill="white" stroke="black" points="1225,-0.5 1225,-19.5 1345,-19.5 1345,-0.5 1225,-0.5"/>
<text text-anchor="middle" x="1285" y="-7.5" font-family="Helvetica,sans-Serif" font-size="10.00">vmem::PageInfo::toPhy</text>
</a>
</g>
</g>
<!-- Node6&#45;&gt;Node7 -->
<g id="edge7" class="edge">
<title>Node6&#45;&gt;Node7</title>
<path fill="none" stroke="midnightblue" d="M1179.37,-10C1190.92,-10 1202.99,-10 1214.67,-10"/>
<polygon fill="midnightblue" stroke="midnightblue" points="1214.8,-13.5 1224.8,-10 1214.8,-6.5 1214.8,-13.5"/>
</g>
<!-- Node8&#45;&gt;Node4 -->
<g id="edge9" class="edge">
<title>Node8&#45;&gt;Node4</title>
<path fill="none" stroke="midnightblue" d="M1316.58,-190.4C1328.69,-186.33 1342.65,-181.3 1355,-176 1367.74,-170.53 1381.46,-163.6 1392.92,-157.51"/>
<polygon fill="midnightblue" stroke="midnightblue" points="1394.8,-160.47 1401.93,-152.64 1391.47,-154.31 1394.8,-160.47"/>
</g>
<!-- Node9&#45;&gt;Node4 -->
<g id="edge11" class="edge">
<title>Node9&#45;&gt;Node4</title>
<path fill="none" stroke="midnightblue" d="M240.27,-138.74C292.54,-133.13 390.63,-124 474.5,-124 474.5,-124 474.5,-124 1115,-124 1210.83,-124 1323.32,-133.52 1380.87,-139.08"/>
<polygon fill="midnightblue" stroke="midnightblue" points="1380.66,-142.58 1390.96,-140.07 1381.35,-135.61 1380.66,-142.58"/>
</g>
<!-- Node10 -->
<g id="node10" class="node">
<title>Node10</title>
<g id="a_node10"><a xlink:href="structvmem_1_1_page_info.html#ab46edf3eef912a8556363c2beb310f35" target="_top" xlink:title=" ">
<polygon fill="white" stroke="black" points="407,-152.5 407,-171.5 544,-171.5 544,-152.5 407,-152.5"/>
<text text-anchor="middle" x="475.5" y="-159.5" font-family="Helvetica,sans-Serif" font-size="10.00">vmem::PageInfo::freeCount</text>
</a>
</g>
</g>
<!-- Node9&#45;&gt;Node10 -->
<g id="edge12" class="edge">
<title>Node9&#45;&gt;Node10</title>
<path fill="none" stroke="midnightblue" d="M240.18,-145.6C280.35,-148.41 345.49,-152.97 396.9,-156.57"/>
<polygon fill="midnightblue" stroke="midnightblue" points="396.77,-160.07 406.99,-157.28 397.26,-153.09 396.77,-160.07"/>
</g>
<!-- Node11 -->
<g id="node11" class="node">
<title>Node11</title>
<g id="a_node11"><a xlink:href="namespaceconsole_1_1out.html#ac6f663e3971b66b8e130ee94755a150e" target="_top" xlink:title=" ">
<polygon fill="white" stroke="black" points="276,-247.5 276,-266.5 371,-266.5 371,-247.5 276,-247.5"/>
<text text-anchor="middle" x="323.5" y="-254.5" font-family="Helvetica,sans-Serif" font-size="10.00">console::out::print</text>
</a>
</g>
</g>
<!-- Node9&#45;&gt;Node11 -->
<g id="edge14" class="edge">
<title>Node9&#45;&gt;Node11</title>
<path fill="none" stroke="midnightblue" d="M213.19,-152.72C233.56,-172.15 279.53,-216.01 304.89,-240.2"/>
<polygon fill="midnightblue" stroke="midnightblue" points="302.69,-242.93 312.34,-247.31 307.52,-237.87 302.69,-242.93"/>
</g>
<!-- Node10&#45;&gt;Node4 -->
<g id="edge13" class="edge">
<title>Node10&#45;&gt;Node4</title>
<path fill="none" stroke="midnightblue" d="M544.24,-162C609.3,-162 710.37,-162 798,-162 798,-162 798,-162 1115,-162 1210.83,-162 1323.32,-152.48 1380.87,-146.92"/>
<polygon fill="midnightblue" stroke="midnightblue" points="1381.35,-150.39 1390.96,-145.93 1380.66,-143.42 1381.35,-150.39"/>
</g>
<!-- Node12 -->
<g id="node12" class="node">
<title>Node12</title>
<g id="a_node12"><a xlink:href="namespaceconsole_1_1out.html#a8f791bfac54067cadb1b9f18117b987b" target="_top" xlink:title=" ">
<polygon fill="white" stroke="black" points="422.5,-323.5 422.5,-342.5 528.5,-342.5 528.5,-323.5 422.5,-323.5"/>
<text text-anchor="middle" x="475.5" y="-330.5" font-family="Helvetica,sans-Serif" font-size="10.00">console::out::printVa</text>
</a>
</g>
</g>
<!-- Node11&#45;&gt;Node12 -->
<g id="edge15" class="edge">
<title>Node11&#45;&gt;Node12</title>
<path fill="none" stroke="midnightblue" d="M343.5,-266.63C369.53,-279.82 416.49,-303.61 446.54,-318.83"/>
<polygon fill="midnightblue" stroke="midnightblue" points="445.15,-322.06 455.66,-323.45 448.32,-315.81 445.15,-322.06"/>
</g>
<!-- Node13 -->
<g id="node13" class="node">
<title>Node13</title>
<g id="a_node13"><a xlink:href="namespaceconsole_1_1ge.html#af642934cb833142f133285fdb75ef7b7" target="_top" xlink:title=" ">
<polygon fill="white" stroke="black" points="580,-323.5 580,-342.5 700,-342.5 700,-323.5 580,-323.5"/>
<text text-anchor="middle" x="640" y="-330.5" font-family="Helvetica,sans-Serif" font-size="10.00">console::ge::printFmtVa</text>
</a>
</g>
</g>
<!-- Node12&#45;&gt;Node13 -->
<g id="edge16" class="edge">
<title>Node12&#45;&gt;Node13</title>
<path fill="none" stroke="midnightblue" d="M528.81,-333C541.75,-333 555.81,-333 569.43,-333"/>
<polygon fill="midnightblue" stroke="midnightblue" points="569.73,-336.5 579.73,-333 569.73,-329.5 569.73,-336.5"/>
</g>
<!-- Node19 -->
<g id="node19" class="node">
<title>Node19</title>
<g id="a_node19"><a xlink:href="namespaceconsole_1_1out.html#ad9fc97dff4404c2d21aedbb24691e7cb" target="_top" xlink:title=" ">
<polygon fill="white" stroke="black" points="900.5,-342.5 900.5,-361.5 1010.5,-361.5 1010.5,-342.5 900.5,-342.5"/>
<text text-anchor="middle" x="955.5" y="-349.5" font-family="Helvetica,sans-Serif" font-size="10.00">console::out::putChar</text>
</a>
</g>
</g>
<!-- Node12&#45;&gt;Node19 -->
<g id="edge32" class="edge">
<title>Node12&#45;&gt;Node19</title>
<path fill="none" stroke="midnightblue" d="M492.11,-342.65C531.3,-366.23 637.76,-426.37 736,-447 790.8,-458.51 810.41,-468.77 862,-447 898.91,-431.42 928.38,-393.12 943.47,-370.19"/>
<polygon fill="midnightblue" stroke="midnightblue" points="946.47,-372.01 948.87,-361.69 940.56,-368.26 946.47,-372.01"/>
</g>
<!-- Node13&#45;&gt;Node4 -->
<g id="edge19" class="edge">
<title>Node13&#45;&gt;Node4</title>
<path fill="none" stroke="midnightblue" d="M649.26,-323.42C664.46,-306.55 698.74,-271.91 736,-257 826.5,-220.78 857.02,-238 954.5,-238 954.5,-238 954.5,-238 1115,-238 1222,-238 1259.84,-267.93 1355,-219 1379.59,-206.35 1398.48,-179.74 1409.17,-161.62"/>
<polygon fill="midnightblue" stroke="midnightblue" points="1412.41,-163 1414.24,-152.56 1406.3,-159.57 1412.41,-163"/>
</g>
<!-- Node14 -->
<g id="node14" class="node">
<title>Node14</title>
<g id="a_node14"><a xlink:href="printfmt_8cc.html#a708ec6ee2b8bd2d7a453d8d9436ed3b3" target="_top" xlink:title=" ">
<polygon fill="white" stroke="black" points="770,-342.5 770,-361.5 828,-361.5 828,-342.5 770,-342.5"/>
<text text-anchor="middle" x="799" y="-349.5" font-family="Helvetica,sans-Serif" font-size="10.00">_getIntVa</text>
</a>
</g>
</g>
<!-- Node13&#45;&gt;Node14 -->
<g id="edge17" class="edge">
<title>Node13&#45;&gt;Node14</title>
<path fill="none" stroke="midnightblue" d="M700.35,-340.18C720.24,-342.59 741.88,-345.21 759.72,-347.37"/>
<polygon fill="midnightblue" stroke="midnightblue" points="759.39,-350.85 769.74,-348.58 760.23,-343.9 759.39,-350.85"/>
</g>
<!-- Node15 -->
<g id="node15" class="node">
<title>Node15</title>
<g id="a_node15"><a xlink:href="printfmt_8cc.html#af4b46892c76c8bfd27efdb20847eb7c8" target="_top" xlink:title=" ">
<polygon fill="white" stroke="black" points="766.5,-418.5 766.5,-437.5 831.5,-437.5 831.5,-418.5 766.5,-418.5"/>
<text text-anchor="middle" x="799" y="-425.5" font-family="Helvetica,sans-Serif" font-size="10.00">_getUIntVa</text>
</a>
</g>
</g>
<!-- Node13&#45;&gt;Node15 -->
<g id="edge18" class="edge">
<title>Node13&#45;&gt;Node15</title>
<path fill="none" stroke="midnightblue" d="M650.37,-342.57C666.48,-358.5 701.08,-390.55 736,-409 742.5,-412.43 749.72,-415.35 756.87,-417.8"/>
<polygon fill="midnightblue" stroke="midnightblue" points="755.91,-421.16 766.5,-420.84 758.02,-414.49 755.91,-421.16"/>
</g>
<!-- Node16 -->
<g id="node16" class="node">
<title>Node16</title>
<g id="a_node16"><a xlink:href="printfmt_8cc.html#a0e3e484ece5e75b9f5fbe337f0ae8ae3" target="_top" xlink:title=" ">
<polygon fill="white" stroke="black" points="772.5,-266.5 772.5,-285.5 825.5,-285.5 825.5,-266.5 772.5,-266.5"/>
<text text-anchor="middle" x="799" y="-273.5" font-family="Helvetica,sans-Serif" font-size="10.00">describe</text>
</a>
</g>
</g>
<!-- Node13&#45;&gt;Node16 -->
<g id="edge20" class="edge">
<title>Node13&#45;&gt;Node16</title>
<path fill="none" stroke="midnightblue" d="M667.28,-323.46C693.44,-313.96 733.76,-299.32 762.7,-288.82"/>
<polygon fill="midnightblue" stroke="midnightblue" points="764.21,-291.99 772.42,-285.29 761.82,-285.41 764.21,-291.99"/>
</g>
<!-- Node18 -->
<g id="node18" class="node">
<title>Node18</title>
<g id="a_node18"><a xlink:href="namespaceconsole_1_1ge.html#a7e301813fd34fde772376afc5fdad95d" target="_top" xlink:title=" ">
<polygon fill="white" stroke="black" points="736,-380.5 736,-399.5 862,-399.5 862,-380.5 736,-380.5"/>
<text text-anchor="middle" x="799" y="-387.5" font-family="Helvetica,sans-Serif" font-size="10.00">console::ge::printNumber</text>
</a>
</g>
</g>
<!-- Node13&#45;&gt;Node18 -->
<g id="edge22" class="edge">
<title>Node13&#45;&gt;Node18</title>
<path fill="none" stroke="midnightblue" d="M663.45,-342.59C682.57,-350.62 710.87,-362.14 736,-371 742.13,-373.16 748.65,-375.31 755.07,-377.35"/>
<polygon fill="midnightblue" stroke="midnightblue" points="754.42,-380.82 765.01,-380.45 756.51,-374.13 754.42,-380.82"/>
</g>
<!-- Node13&#45;&gt;Node19 -->
<g id="edge31" class="edge">
<title>Node13&#45;&gt;Node19</title>
<path fill="none" stroke="midnightblue" d="M700.26,-329.76C744.85,-328.1 807.41,-327.45 862,-333 876.7,-334.49 892.51,-337.29 906.84,-340.29"/>
<polygon fill="midnightblue" stroke="midnightblue" points="906.45,-343.79 916.96,-342.49 907.94,-336.95 906.45,-343.79"/>
</g>
<!-- Node17 -->
<g id="node17" class="node">
<title>Node17</title>
<g id="a_node17"><a xlink:href="namespacemonitor.html#a318993193c866642f8389a1c1f285739" target="_top" xlink:title=" ">
<polygon fill="white" stroke="black" points="918.5,-266.5 918.5,-285.5 992.5,-285.5 992.5,-266.5 918.5,-266.5"/>
<text text-anchor="middle" x="955.5" y="-273.5" font-family="Helvetica,sans-Serif" font-size="10.00">monitor::fuck</text>
</a>
</g>
</g>
<!-- Node16&#45;&gt;Node17 -->
<g id="edge21" class="edge">
<title>Node16&#45;&gt;Node17</title>
<path fill="none" stroke="midnightblue" d="M825.51,-276C847.93,-276 881.11,-276 908.2,-276"/>
<polygon fill="midnightblue" stroke="midnightblue" points="908.26,-279.5 918.26,-276 908.26,-272.5 908.26,-279.5"/>
</g>
<!-- Node18&#45;&gt;Node19 -->
<g id="edge23" class="edge">
<title>Node18&#45;&gt;Node19</title>
<path fill="none" stroke="midnightblue" d="M838.99,-380.41C859.28,-375.42 884.29,-369.27 905.85,-363.97"/>
<polygon fill="midnightblue" stroke="midnightblue" points="906.92,-367.31 915.79,-361.52 905.25,-360.51 906.92,-367.31"/>
</g>
<!-- Node20 -->
<g id="node20" class="node">
<title>Node20</title>
<g id="a_node20"><a xlink:href="namespaceconsole_1_1serial.html#a3a7c1f95ae3c24136ea63bb31fdf0391" target="_top" xlink:title=" ">
<polygon fill="white" stroke="black" points="1054,-342.5 1054,-361.5 1174,-361.5 1174,-342.5 1054,-342.5"/>
<text text-anchor="middle" x="1114" y="-349.5" font-family="Helvetica,sans-Serif" font-size="10.00">console::serial::putChar</text>
</a>
</g>
</g>
<!-- Node19&#45;&gt;Node20 -->
<g id="edge24" class="edge">
<title>Node19&#45;&gt;Node20</title>
<path fill="none" stroke="midnightblue" d="M1010.8,-352C1021.48,-352 1032.81,-352 1043.9,-352"/>
<polygon fill="midnightblue" stroke="midnightblue" points="1043.99,-355.5 1053.99,-352 1043.99,-348.5 1043.99,-355.5"/>
</g>
<!-- Node23 -->
<g id="node23" class="node">
<title>Node23</title>
<g id="a_node23"><a xlink:href="namespaceconsole_1_1cga.html#afa19057ca041b39682d5d4831c43dfa0" target="_top" xlink:title=" ">
<polygon fill="white" stroke="black" points="1057.5,-304.5 1057.5,-323.5 1170.5,-323.5 1170.5,-304.5 1057.5,-304.5"/>
<text text-anchor="middle" x="1114" y="-311.5" font-family="Helvetica,sans-Serif" font-size="10.00">console::cga::putChar</text>
</a>
</g>
</g>
<!-- Node19&#45;&gt;Node23 -->
<g id="edge27" class="edge">
<title>Node19&#45;&gt;Node23</title>
<path fill="none" stroke="midnightblue" d="M995.99,-342.41C1016.64,-337.4 1042.11,-331.21 1064.01,-325.89"/>
<polygon fill="midnightblue" stroke="midnightblue" points="1064.9,-329.28 1073.79,-323.52 1063.25,-322.48 1064.9,-329.28"/>
</g>
<!-- Node21 -->
<g id="node21" class="node">
<title>Node21</title>
<g id="a_node21"><a xlink:href="namespaceconsole_1_1serial.html#aa5605d4537106bb1c2bab72d7d1a5824" target="_top" xlink:title=" ">
<polygon fill="white" stroke="black" points="1233,-342.5 1233,-361.5 1337,-361.5 1337,-342.5 1233,-342.5"/>
<text text-anchor="middle" x="1285" y="-349.5" font-family="Helvetica,sans-Serif" font-size="10.00">console::serial::sout</text>
</a>
</g>
</g>
<!-- Node20&#45;&gt;Node21 -->
<g id="edge25" class="edge">
<title>Node20&#45;&gt;Node21</title>
<path fill="none" stroke="midnightblue" d="M1174.11,-352C1189.8,-352 1206.79,-352 1222.6,-352"/>
<polygon fill="midnightblue" stroke="midnightblue" points="1222.8,-355.5 1232.8,-352 1222.8,-348.5 1222.8,-355.5"/>
</g>
<!-- Node22 -->
<g id="node22" class="node">
<title>Node22</title>
<g id="a_node22"><a xlink:href="x86_8h.html#ade961b44e45ddacbc3c3b7609cf36dc6" target="_top" xlink:title=" ">
<polygon fill="white" stroke="black" points="1402.5,-323.5 1402.5,-342.5 1437.5,-342.5 1437.5,-323.5 1402.5,-323.5"/>
<text text-anchor="middle" x="1420" y="-330.5" font-family="Helvetica,sans-Serif" font-size="10.00">outb</text>
</a>
</g>
</g>
<!-- Node21&#45;&gt;Node22 -->
<g id="edge26" class="edge">
<title>Node21&#45;&gt;Node22</title>
<path fill="none" stroke="midnightblue" d="M1337.04,-344.71C1355.85,-342.02 1376.4,-339.09 1392.22,-336.83"/>
<polygon fill="midnightblue" stroke="midnightblue" points="1392.94,-340.26 1402.34,-335.38 1391.95,-333.33 1392.94,-340.26"/>
</g>
<!-- Node23&#45;&gt;Node8 -->
<g id="edge28" class="edge">
<title>Node23&#45;&gt;Node8</title>
<path fill="none" stroke="midnightblue" d="M1129.12,-304.48C1158.25,-284.83 1225.26,-239.63 1260.83,-215.63"/>
<polygon fill="midnightblue" stroke="midnightblue" points="1263.23,-218.23 1269.56,-209.74 1259.32,-212.43 1263.23,-218.23"/>
</g>
<!-- Node24 -->
<g id="node24" class="node">
<title>Node24</title>
<g id="a_node24"><a xlink:href="namespaceconsole_1_1cga.html#a06463d4dc68819e30615ba299d02a78f" target="_top" xlink:title=" ">
<polygon fill="white" stroke="black" points="1215,-304.5 1215,-323.5 1355,-323.5 1355,-304.5 1215,-304.5"/>
<text text-anchor="middle" x="1285" y="-311.5" font-family="Helvetica,sans-Serif" font-size="10.00">console::cga::cursorRefresh</text>
</a>
</g>
</g>
<!-- Node23&#45;&gt;Node24 -->
<g id="edge29" class="edge">
<title>Node23&#45;&gt;Node24</title>
<path fill="none" stroke="midnightblue" d="M1170.81,-314C1181.74,-314 1193.39,-314 1204.92,-314"/>
<polygon fill="midnightblue" stroke="midnightblue" points="1204.99,-317.5 1214.99,-314 1204.99,-310.5 1204.99,-317.5"/>
</g>
<!-- Node24&#45;&gt;Node22 -->
<g id="edge30" class="edge">
<title>Node24&#45;&gt;Node22</title>
<path fill="none" stroke="midnightblue" d="M1352.89,-323.56C1366.81,-325.54 1380.71,-327.53 1392.15,-329.16"/>
<polygon fill="midnightblue" stroke="midnightblue" points="1391.88,-332.66 1402.28,-330.61 1392.87,-325.73 1391.88,-332.66"/>
</g>
</g>
</svg>
