<?xml version="1.0" encoding="UTF-8" standalone="no"?>
<!DOCTYPE svg PUBLIC "-//W3C//DTD SVG 1.1//EN"
 "http://www.w3.org/Graphics/SVG/1.1/DTD/svg11.dtd">
<!-- Generated by graphviz version 2.44.1 (20200629.0846)
 -->
<!-- Title: mp::FPStruct Pages: 1 -->
<svg width="290pt" height="139pt"
 viewBox="0.00 0.00 289.50 139.00" xmlns="http://www.w3.org/2000/svg" xmlns:xlink="http://www.w3.org/1999/xlink">
<g id="graph0" class="graph" transform="scale(1 1) rotate(0) translate(4 135)">
<title>mp::FPStruct</title>
<polygon fill="white" stroke="transparent" points="-4,4 -4,-135 285.5,-135 285.5,4 -4,4"/>
<!-- Node1 -->
<g id="node1" class="node">
<title>Node1</title>
<g id="a_node1"><a xlink:title=" ">
<polygon fill="#bfbfbf" stroke="black" points="46,-0.5 46,-19.5 121,-19.5 121,-0.5 46,-0.5"/>
<text text-anchor="middle" x="83.5" y="-7.5" font-family="Helvetica,sans-Serif" font-size="10.00">mp::FPStruct</text>
</a>
</g>
</g>
<!-- Node2 -->
<g id="node2" class="node">
<title>Node2</title>
<g id="a_node2"><a xlink:title=" ">
<polygon fill="white" stroke="#bfbfbf" points="0,-111.5 0,-130.5 35,-130.5 35,-111.5 0,-111.5"/>
<text text-anchor="middle" x="17.5" y="-118.5" font-family="Helvetica,sans-Serif" font-size="10.00">char</text>
</a>
</g>
</g>
<!-- Node2&#45;&gt;Node1 -->
<g id="edge1" class="edge">
<title>Node2&#45;&gt;Node1</title>
<path fill="none" stroke="#9a32cd" stroke-dasharray="5,2" d="M17.67,-101.39C18.71,-83.52 22.72,-56.57 36.5,-38 42.45,-29.99 51.53,-23.98 60.12,-19.7"/>
<polygon fill="#9a32cd" stroke="#9a32cd" points="14.17,-101.3 17.33,-111.41 21.16,-101.53 14.17,-101.3"/>
<text text-anchor="middle" x="58" y="-63" font-family="Helvetica,sans-Serif" font-size="10.00"> signature</text>
</g>
<!-- Node3 -->
<g id="node3" class="node">
<title>Node3</title>
<g id="a_node3"><a xlink:title=" ">
<polygon fill="white" stroke="#bfbfbf" points="58,-111.5 58,-130.5 109,-130.5 109,-111.5 58,-111.5"/>
<text text-anchor="middle" x="83.5" y="-118.5" font-family="Helvetica,sans-Serif" font-size="10.00">uint32_t</text>
</a>
</g>
</g>
<!-- Node3&#45;&gt;Node1 -->
<g id="edge2" class="edge">
<title>Node3&#45;&gt;Node1</title>
<path fill="none" stroke="#9a32cd" stroke-dasharray="5,2" d="M83.5,-101.19C83.5,-77.28 83.5,-36.99 83.5,-19.51"/>
<polygon fill="#9a32cd" stroke="#9a32cd" points="80,-101.45 83.5,-111.45 87,-101.45 80,-101.45"/>
<text text-anchor="middle" x="126" y="-68.5" font-family="Helvetica,sans-Serif" font-size="10.00"> configuration_table</text>
<text text-anchor="middle" x="126" y="-57.5" font-family="Helvetica,sans-Serif" font-size="10.00">features</text>
</g>
<!-- Node4 -->
<g id="node4" class="node">
<title>Node4</title>
<g id="a_node4"><a xlink:title=" ">
<polygon fill="white" stroke="#bfbfbf" points="168.5,-111.5 168.5,-130.5 214.5,-130.5 214.5,-111.5 168.5,-111.5"/>
<text text-anchor="middle" x="191.5" y="-118.5" font-family="Helvetica,sans-Serif" font-size="10.00">uint8_t</text>
</a>
</g>
</g>
<!-- Node4&#45;&gt;Node1 -->
<g id="edge3" class="edge">
<title>Node4&#45;&gt;Node1</title>
<path fill="none" stroke="#9a32cd" stroke-dasharray="5,2" d="M191.42,-101.18C190.33,-82.74 185.8,-55 169.5,-38 156.94,-24.9 138.1,-18.12 121.26,-14.64"/>
<polygon fill="#9a32cd" stroke="#9a32cd" points="187.93,-101.39 191.74,-111.28 194.92,-101.17 187.93,-101.39"/>
<text text-anchor="middle" x="236" y="-85" font-family="Helvetica,sans-Serif" font-size="10.00"> checksum</text>
<text text-anchor="middle" x="236" y="-74" font-family="Helvetica,sans-Serif" font-size="10.00">default_configuration</text>
<text text-anchor="middle" x="236" y="-63" font-family="Helvetica,sans-Serif" font-size="10.00">length</text>
<text text-anchor="start" x="190.5" y="-52" font-family="Helvetica,sans-Serif" font-size="10.00">mp_specification</text>
<text text-anchor="middle" x="236" y="-41" font-family="Helvetica,sans-Serif" font-size="10.00">_revision</text>
</g>
</g>
</svg>
