<?xml version="1.0" encoding="UTF-8" standalone="no"?>
<!DOCTYPE svg PUBLIC "-//W3C//DTD SVG 1.1//EN"
 "http://www.w3.org/Graphics/SVG/1.1/DTD/svg11.dtd">
<!-- Generated by graphviz version 2.44.1 (20200629.0846)
 -->
<!-- Title: task::Task::regionAlloc Pages: 1 -->
<svg width="1477pt" height="620pt"
 viewBox="0.00 0.00 1477.00 619.77" xmlns="http://www.w3.org/2000/svg" xmlns:xlink="http://www.w3.org/1999/xlink">
<g id="graph0" class="graph" transform="scale(1 1) rotate(0) translate(4 615.77)">
<title>task::Task::regionAlloc</title>
<polygon fill="white" stroke="transparent" points="-4,4 -4,-615.77 1473,-615.77 1473,4 -4,4"/>
<!-- Node1 -->
<g id="node1" class="node">
<title>Node1</title>
<g id="a_node1"><a xlink:title=" ">
<polygon fill="#bfbfbf" stroke="black" points="0,-380.5 0,-399.5 116,-399.5 116,-380.5 0,-380.5"/>
<text text-anchor="middle" x="58" y="-387.5" font-family="Helvetica,sans-Serif" font-size="10.00">task::Task::regionAlloc</text>
</a>
</g>
</g>
<!-- Node2 -->
<g id="node2" class="node">
<title>Node2</title>
<g id="a_node2"><a xlink:href="structvmem_1_1_page_info.html#afcdcb7e941219a8ec999353658e3c2aa" target="_top" xlink:title=" ">
<polygon fill="white" stroke="black" points="907.5,-380.5 907.5,-399.5 1022.5,-399.5 1022.5,-380.5 907.5,-380.5"/>
<text text-anchor="middle" x="965" y="-387.5" font-family="Helvetica,sans-Serif" font-size="10.00">vmem::PageInfo::alloc</text>
</a>
</g>
</g>
<!-- Node1&#45;&gt;Node2 -->
<g id="edge1" class="edge">
<title>Node1&#45;&gt;Node2</title>
<path fill="none" stroke="midnightblue" d="M116.11,-390C167.69,-390 245.68,-390 313.5,-390 313.5,-390 313.5,-390 635,-390 725.68,-390 830.42,-390 896.9,-390"/>
<polygon fill="midnightblue" stroke="midnightblue" points="897.24,-393.5 907.24,-390 897.24,-386.5 897.24,-393.5"/>
</g>
<!-- Node8 -->
<g id="node8" class="node">
<title>Node8</title>
<g id="a_node8"><a xlink:href="namespacevmem_1_1pgdir.html#a92ee80fc1a93d347be69ce9efae61c10" target="_top" xlink:title=" ">
<polygon fill="white" stroke="black" points="264,-475.5 264,-494.5 365,-494.5 365,-475.5 264,-475.5"/>
<text text-anchor="middle" x="314.5" y="-482.5" font-family="Helvetica,sans-Serif" font-size="10.00">vmem::pgdir::insert</text>
</a>
</g>
</g>
<!-- Node1&#45;&gt;Node8 -->
<g id="edge8" class="edge">
<title>Node1&#45;&gt;Node8</title>
<path fill="none" stroke="midnightblue" d="M84.8,-399.63C130.75,-416.78 226.76,-452.62 278.57,-471.96"/>
<polygon fill="midnightblue" stroke="midnightblue" points="277.41,-475.27 288.01,-475.48 279.86,-468.71 277.41,-475.27"/>
</g>
<!-- Node16 -->
<g id="node16" class="node">
<title>Node16</title>
<g id="a_node16"><a xlink:href="namespacemonitor.html#a4b5d3ce92dd6d48ccbb57e3286d8499b" target="_top" xlink:title=" ">
<polygon fill="white" stroke="black" points="152,-295.5 152,-314.5 228,-314.5 228,-295.5 152,-295.5"/>
<text text-anchor="middle" x="190" y="-302.5" font-family="Helvetica,sans-Serif" font-size="10.00">monitor::page</text>
</a>
</g>
</g>
<!-- Node1&#45;&gt;Node16 -->
<g id="edge24" class="edge">
<title>Node1&#45;&gt;Node16</title>
<path fill="none" stroke="midnightblue" d="M73.66,-380.41C96.09,-365.75 139.13,-337.61 165.82,-320.15"/>
<polygon fill="midnightblue" stroke="midnightblue" points="167.74,-323.08 174.19,-314.68 163.91,-317.22 167.74,-323.08"/>
</g>
<!-- Node3 -->
<g id="node3" class="node">
<title>Node3</title>
<g id="a_node3"><a xlink:href="namespacemem.html#a981dd0cb1408b798a79443c6245e9c55" target="_top" xlink:title=" ">
<polygon fill="white" stroke="black" points="1101.5,-399.5 1101.5,-418.5 1166.5,-418.5 1166.5,-399.5 1101.5,-399.5"/>
<text text-anchor="middle" x="1134" y="-406.5" font-family="Helvetica,sans-Serif" font-size="10.00">mem::clear</text>
</a>
</g>
</g>
<!-- Node2&#45;&gt;Node3 -->
<g id="edge2" class="edge">
<title>Node2&#45;&gt;Node3</title>
<path fill="none" stroke="midnightblue" d="M1022.54,-396.43C1045.04,-398.99 1070.47,-401.89 1091.26,-404.25"/>
<polygon fill="midnightblue" stroke="midnightblue" points="1091.02,-407.75 1101.36,-405.4 1091.82,-400.79 1091.02,-407.75"/>
</g>
<!-- Node6 -->
<g id="node6" class="node">
<title>Node6</title>
<g id="a_node6"><a xlink:href="structvmem_1_1_page_info.html#afc863f1d364462ddd2c20bf31f588337" target="_top" xlink:title=" ">
<polygon fill="white" stroke="black" points="1069,-456.5 1069,-475.5 1199,-475.5 1199,-456.5 1069,-456.5"/>
<text text-anchor="middle" x="1134" y="-463.5" font-family="Helvetica,sans-Serif" font-size="10.00">vmem::PageInfo::toKernV</text>
</a>
</g>
</g>
<!-- Node2&#45;&gt;Node6 -->
<g id="edge6" class="edge">
<title>Node2&#45;&gt;Node6</title>
<path fill="none" stroke="midnightblue" d="M987.15,-399.63C1016.39,-412.93 1069.32,-437.02 1102.74,-452.23"/>
<polygon fill="midnightblue" stroke="midnightblue" points="1101.47,-455.5 1112.02,-456.45 1104.37,-449.12 1101.47,-455.5"/>
</g>
<!-- Node4 -->
<g id="node4" class="node">
<title>Node4</title>
<g id="a_node4"><a xlink:href="namespacestr.html#a062221f630647cf300f0dd982c4ed904" target="_top" xlink:title=" ">
<polygon fill="white" stroke="black" points="1411,-304.5 1411,-323.5 1469,-323.5 1469,-304.5 1411,-304.5"/>
<text text-anchor="middle" x="1440" y="-311.5" font-family="Helvetica,sans-Serif" font-size="10.00">str::count</text>
</a>
</g>
</g>
<!-- Node3&#45;&gt;Node4 -->
<g id="edge3" class="edge">
<title>Node3&#45;&gt;Node4</title>
<path fill="none" stroke="midnightblue" d="M1166.79,-408.31C1214.22,-406.2 1305.35,-397.93 1375,-366 1393.36,-357.58 1410.92,-342.65 1422.99,-330.94"/>
<polygon fill="midnightblue" stroke="midnightblue" points="1425.51,-333.37 1430.08,-323.81 1420.55,-328.43 1425.51,-333.37"/>
</g>
<!-- Node5 -->
<g id="node5" class="node">
<title>Node5</title>
<g id="a_node5"><a xlink:href="namespacemem.html#adbaba9127c03fb914f752bfe19d6d089" target="_top" xlink:title=" ">
<polygon fill="white" stroke="black" points="1276,-418.5 1276,-437.5 1334,-437.5 1334,-418.5 1276,-418.5"/>
<text text-anchor="middle" x="1305" y="-425.5" font-family="Helvetica,sans-Serif" font-size="10.00">mem::set</text>
</a>
</g>
</g>
<!-- Node3&#45;&gt;Node5 -->
<g id="edge4" class="edge">
<title>Node3&#45;&gt;Node5</title>
<path fill="none" stroke="midnightblue" d="M1166.79,-412.57C1194.93,-415.74 1236.05,-420.36 1265.94,-423.72"/>
<polygon fill="midnightblue" stroke="midnightblue" points="1265.67,-427.21 1276,-424.85 1266.45,-420.26 1265.67,-427.21"/>
</g>
<!-- Node5&#45;&gt;Node4 -->
<g id="edge5" class="edge">
<title>Node5&#45;&gt;Node4</title>
<path fill="none" stroke="midnightblue" d="M1334.1,-422.43C1347.43,-418.78 1363.03,-412.98 1375,-404 1400.32,-385 1419.6,-353.07 1430.1,-332.8"/>
<polygon fill="midnightblue" stroke="midnightblue" points="1433.34,-334.15 1434.66,-323.63 1427.07,-331.03 1433.34,-334.15"/>
</g>
<!-- Node7 -->
<g id="node7" class="node">
<title>Node7</title>
<g id="a_node7"><a xlink:href="structvmem_1_1_page_info.html#accf2071c7875c29c9aa78a01ef5963a1" target="_top" xlink:title=" ">
<polygon fill="white" stroke="black" points="1245,-494.5 1245,-513.5 1365,-513.5 1365,-494.5 1245,-494.5"/>
<text text-anchor="middle" x="1305" y="-501.5" font-family="Helvetica,sans-Serif" font-size="10.00">vmem::PageInfo::toPhy</text>
</a>
</g>
</g>
<!-- Node6&#45;&gt;Node7 -->
<g id="edge7" class="edge">
<title>Node6&#45;&gt;Node7</title>
<path fill="none" stroke="midnightblue" d="M1177.65,-475.59C1200.15,-480.65 1227.95,-486.9 1251.74,-492.25"/>
<polygon fill="midnightblue" stroke="midnightblue" points="1251.14,-495.7 1261.66,-494.48 1252.67,-488.87 1251.14,-495.7"/>
</g>
<!-- Node8&#45;&gt;Node7 -->
<g id="edge23" class="edge">
<title>Node8&#45;&gt;Node7</title>
<path fill="none" stroke="midnightblue" d="M365.22,-488.15C376.95,-488.82 389.41,-489.49 401,-490 697.73,-503.12 772.01,-505.56 1069,-510 1126.77,-510.86 1141.25,-511.65 1199,-510 1210.5,-509.67 1222.71,-509.14 1234.57,-508.53"/>
<polygon fill="midnightblue" stroke="midnightblue" points="1235.09,-512.01 1244.88,-507.97 1234.71,-505.02 1235.09,-512.01"/>
</g>
<!-- Node9 -->
<g id="node9" class="node">
<title>Node9</title>
<g id="a_node9"><a xlink:href="namespacevmem_1_1pgdir.html#a933a8f939084dabdb1a4b5401bebf8d7" target="_top" xlink:title=" ">
<polygon fill="white" stroke="black" points="742,-456.5 742,-475.5 849,-475.5 849,-456.5 742,-456.5"/>
<text text-anchor="middle" x="795.5" y="-463.5" font-family="Helvetica,sans-Serif" font-size="10.00">vmem::pgdir::findPte</text>
</a>
</g>
</g>
<!-- Node8&#45;&gt;Node9 -->
<g id="edge9" class="edge">
<title>Node8&#45;&gt;Node9</title>
<path fill="none" stroke="midnightblue" d="M365.41,-483.02C453.26,-479.54 635.33,-472.31 731.62,-468.49"/>
<polygon fill="midnightblue" stroke="midnightblue" points="731.95,-471.98 741.8,-468.09 731.67,-464.99 731.95,-471.98"/>
</g>
<!-- Node10 -->
<g id="node10" class="node">
<title>Node10</title>
<g id="a_node10"><a xlink:href="namespacevmem_1_1pgdir.html#a972bb045d4c58b0ea9c569e05831bbb6" target="_top" xlink:title=" ">
<polygon fill="white" stroke="black" points="897,-570.5 897,-589.5 1033,-589.5 1033,-570.5 897,-570.5"/>
<text text-anchor="middle" x="965" y="-577.5" font-family="Helvetica,sans-Serif" font-size="10.00">vmem::pgdir::invalidateTLB</text>
</a>
</g>
</g>
<!-- Node8&#45;&gt;Node10 -->
<g id="edge17" class="edge">
<title>Node8&#45;&gt;Node10</title>
<path fill="none" stroke="midnightblue" d="M322.95,-494.76C336.44,-511.6 366.7,-545.76 401,-561 572.48,-637.17 803.16,-609.84 907.98,-591.36"/>
<polygon fill="midnightblue" stroke="midnightblue" points="908.81,-594.77 918.03,-589.55 907.56,-587.88 908.81,-594.77"/>
</g>
<!-- Node12 -->
<g id="node12" class="node">
<title>Node12</title>
<g id="a_node12"><a xlink:href="namespacemonitor.html#a318993193c866642f8389a1c1f285739" target="_top" xlink:title=" ">
<polygon fill="white" stroke="black" points="928,-304.5 928,-323.5 1002,-323.5 1002,-304.5 928,-304.5"/>
<text text-anchor="middle" x="965" y="-311.5" font-family="Helvetica,sans-Serif" font-size="10.00">monitor::fuck</text>
</a>
</g>
</g>
<!-- Node8&#45;&gt;Node12 -->
<g id="edge16" class="edge">
<title>Node8&#45;&gt;Node12</title>
<path fill="none" stroke="midnightblue" d="M351.76,-475.44C462.41,-446.26 795.67,-358.38 918.18,-326.08"/>
<polygon fill="midnightblue" stroke="midnightblue" points="919.22,-329.43 928,-323.49 917.44,-322.66 919.22,-329.43"/>
</g>
<!-- Node13 -->
<g id="node13" class="node">
<title>Node13</title>
<g id="a_node13"><a xlink:href="namespacevmem_1_1pgdir.html#a0fac039ba671f03a7cccf3f4af55cbf5" target="_top" xlink:title=" ">
<polygon fill="white" stroke="black" points="415,-532.5 415,-551.5 524,-551.5 524,-532.5 415,-532.5"/>
<text text-anchor="middle" x="469.5" y="-539.5" font-family="Helvetica,sans-Serif" font-size="10.00">vmem::pgdir::remove</text>
</a>
</g>
</g>
<!-- Node8&#45;&gt;Node13 -->
<g id="edge18" class="edge">
<title>Node8&#45;&gt;Node13</title>
<path fill="none" stroke="midnightblue" d="M339.76,-494.56C356.84,-501.24 380.26,-510.31 401,-518 410.88,-521.66 421.62,-525.53 431.56,-529.07"/>
<polygon fill="midnightblue" stroke="midnightblue" points="430.59,-532.43 441.18,-532.47 432.92,-525.84 430.59,-532.43"/>
</g>
<!-- Node9&#45;&gt;Node2 -->
<g id="edge10" class="edge">
<title>Node9&#45;&gt;Node2</title>
<path fill="none" stroke="midnightblue" d="M827.87,-456.49C838.68,-452.65 850.67,-447.76 861,-442 878.7,-432.13 879.24,-423.76 897,-414 904.55,-409.85 912.96,-406.18 921.19,-403.04"/>
<polygon fill="midnightblue" stroke="midnightblue" points="922.51,-406.29 930.72,-399.59 920.13,-399.7 922.51,-406.29"/>
</g>
<!-- Node9&#45;&gt;Node3 -->
<g id="edge11" class="edge">
<title>Node9&#45;&gt;Node3</title>
<path fill="none" stroke="midnightblue" d="M849.08,-457.09C916,-445.76 1030.25,-426.4 1091.43,-416.04"/>
<polygon fill="midnightblue" stroke="midnightblue" points="1092.22,-419.46 1101.49,-414.34 1091.05,-412.56 1092.22,-419.46"/>
</g>
<!-- Node9&#45;&gt;Node6 -->
<g id="edge14" class="edge">
<title>Node9&#45;&gt;Node6</title>
<path fill="none" stroke="midnightblue" d="M849.08,-466C905.28,-466 994.87,-466 1058.37,-466"/>
<polygon fill="midnightblue" stroke="midnightblue" points="1058.72,-469.5 1068.72,-466 1058.72,-462.5 1058.72,-469.5"/>
</g>
<!-- Node9&#45;&gt;Node7 -->
<g id="edge15" class="edge">
<title>Node9&#45;&gt;Node7</title>
<path fill="none" stroke="midnightblue" d="M849.09,-474.13C864.5,-476.29 881.4,-478.46 897,-480 1015.38,-491.72 1153.74,-498.39 1234.82,-501.6"/>
<polygon fill="midnightblue" stroke="midnightblue" points="1234.78,-505.1 1244.91,-501.99 1235.05,-498.1 1234.78,-505.1"/>
</g>
<!-- Node9&#45;&gt;Node10 -->
<g id="edge12" class="edge">
<title>Node9&#45;&gt;Node10</title>
<path fill="none" stroke="midnightblue" d="M810.49,-475.52C839.36,-495.17 905.78,-540.37 941.04,-564.37"/>
<polygon fill="midnightblue" stroke="midnightblue" points="939.46,-567.53 949.69,-570.26 943.39,-561.74 939.46,-567.53"/>
</g>
<!-- Node11 -->
<g id="node11" class="node">
<title>Node11</title>
<g id="a_node11"><a xlink:href="x86_8h.html#a2c1c4c8523ed258a75c563a8f94d1686" target="_top" xlink:title=" ">
<polygon fill="white" stroke="black" points="1113,-570.5 1113,-589.5 1155,-589.5 1155,-570.5 1113,-570.5"/>
<text text-anchor="middle" x="1134" y="-577.5" font-family="Helvetica,sans-Serif" font-size="10.00">invlpg</text>
</a>
</g>
</g>
<!-- Node10&#45;&gt;Node11 -->
<g id="edge13" class="edge">
<title>Node10&#45;&gt;Node11</title>
<path fill="none" stroke="midnightblue" d="M1033.44,-580C1057.58,-580 1083.58,-580 1102.95,-580"/>
<polygon fill="midnightblue" stroke="midnightblue" points="1102.98,-583.5 1112.98,-580 1102.98,-576.5 1102.98,-583.5"/>
</g>
<!-- Node13&#45;&gt;Node10 -->
<g id="edge22" class="edge">
<title>Node13&#45;&gt;Node10</title>
<path fill="none" stroke="midnightblue" d="M515.14,-551.54C533.31,-555.07 554.58,-558.75 574,-561 681.95,-573.48 807.63,-577.78 886.5,-579.25"/>
<polygon fill="midnightblue" stroke="midnightblue" points="886.78,-582.76 896.84,-579.43 886.9,-575.76 886.78,-582.76"/>
</g>
<!-- Node14 -->
<g id="node14" class="node">
<title>Node14</title>
<g id="a_node14"><a xlink:href="namespacevmem_1_1pgdir.html#a18669c6fe92ff279442cecceca1263cc" target="_top" xlink:title=" ">
<polygon fill="white" stroke="black" points="579.5,-532.5 579.5,-551.5 688.5,-551.5 688.5,-532.5 579.5,-532.5"/>
<text text-anchor="middle" x="634" y="-539.5" font-family="Helvetica,sans-Serif" font-size="10.00">vmem::pgdir::findInfo</text>
</a>
</g>
</g>
<!-- Node13&#45;&gt;Node14 -->
<g id="edge19" class="edge">
<title>Node13&#45;&gt;Node14</title>
<path fill="none" stroke="midnightblue" d="M524.16,-542C538.58,-542 554.32,-542 569.23,-542"/>
<polygon fill="midnightblue" stroke="midnightblue" points="569.4,-545.5 579.4,-542 569.4,-538.5 569.4,-545.5"/>
</g>
<!-- Node14&#45;&gt;Node9 -->
<g id="edge20" class="edge">
<title>Node14&#45;&gt;Node9</title>
<path fill="none" stroke="midnightblue" d="M655.2,-532.37C683.01,-519.13 733.25,-495.19 765.18,-479.97"/>
<polygon fill="midnightblue" stroke="midnightblue" points="766.94,-483.01 774.46,-475.55 763.93,-476.69 766.94,-483.01"/>
</g>
<!-- Node15 -->
<g id="node15" class="node">
<title>Node15</title>
<g id="a_node15"><a xlink:href="structvmem_1_1_page_info.html#a1e3111217d6a051c9d8b83200710a0b3" target="_top" xlink:title=" ">
<polygon fill="white" stroke="black" points="730,-532.5 730,-551.5 861,-551.5 861,-532.5 730,-532.5"/>
<text text-anchor="middle" x="795.5" y="-539.5" font-family="Helvetica,sans-Serif" font-size="10.00">vmem::PageInfo::fromPhy</text>
</a>
</g>
</g>
<!-- Node14&#45;&gt;Node15 -->
<g id="edge21" class="edge">
<title>Node14&#45;&gt;Node15</title>
<path fill="none" stroke="midnightblue" d="M688.55,-542C698.57,-542 709.2,-542 719.72,-542"/>
<polygon fill="midnightblue" stroke="midnightblue" points="719.74,-545.5 729.74,-542 719.74,-538.5 719.74,-545.5"/>
</g>
<!-- Node16&#45;&gt;Node4 -->
<g id="edge25" class="edge">
<title>Node16&#45;&gt;Node4</title>
<path fill="none" stroke="midnightblue" d="M224.86,-314.51C276.83,-328.24 379.57,-352 468.5,-352 468.5,-352 468.5,-352 1135,-352 1231.14,-352 1343.07,-333.06 1400.56,-321.92"/>
<polygon fill="midnightblue" stroke="midnightblue" points="1401.51,-325.3 1410.65,-319.94 1400.16,-318.43 1401.51,-325.3"/>
</g>
<!-- Node17 -->
<g id="node17" class="node">
<title>Node17</title>
<g id="a_node17"><a xlink:href="structvmem_1_1_page_info.html#ab46edf3eef912a8556363c2beb310f35" target="_top" xlink:title=" ">
<polygon fill="white" stroke="black" points="401,-95.5 401,-114.5 538,-114.5 538,-95.5 401,-95.5"/>
<text text-anchor="middle" x="469.5" y="-102.5" font-family="Helvetica,sans-Serif" font-size="10.00">vmem::PageInfo::freeCount</text>
</a>
</g>
</g>
<!-- Node16&#45;&gt;Node17 -->
<g id="edge26" class="edge">
<title>Node16&#45;&gt;Node17</title>
<path fill="none" stroke="midnightblue" d="M200.46,-295.36C213.96,-281.83 239.8,-256.76 264,-238 325.19,-190.55 403.29,-143.03 442.94,-119.75"/>
<polygon fill="midnightblue" stroke="midnightblue" points="444.83,-122.7 451.7,-114.63 441.3,-116.65 444.83,-122.7"/>
</g>
<!-- Node18 -->
<g id="node18" class="node">
<title>Node18</title>
<g id="a_node18"><a xlink:href="namespaceconsole_1_1out.html#ac6f663e3971b66b8e130ee94755a150e" target="_top" xlink:title=" ">
<polygon fill="white" stroke="black" points="267,-247.5 267,-266.5 362,-266.5 362,-247.5 267,-247.5"/>
<text text-anchor="middle" x="314.5" y="-254.5" font-family="Helvetica,sans-Serif" font-size="10.00">console::out::print</text>
</a>
</g>
</g>
<!-- Node16&#45;&gt;Node18 -->
<g id="edge28" class="edge">
<title>Node16&#45;&gt;Node18</title>
<path fill="none" stroke="midnightblue" d="M215.5,-295.4C233.86,-288.21 259.21,-278.27 279.53,-270.31"/>
<polygon fill="midnightblue" stroke="midnightblue" points="281.01,-273.49 289.05,-266.58 278.46,-266.97 281.01,-273.49"/>
</g>
<!-- Node17&#45;&gt;Node4 -->
<g id="edge27" class="edge">
<title>Node17&#45;&gt;Node4</title>
<path fill="none" stroke="midnightblue" d="M502.82,-95.46C560.74,-79.23 686.27,-48 794.5,-48 794.5,-48 794.5,-48 1135,-48 1243,-48 1294.31,-14.22 1375,-86 1406.56,-114.08 1428.69,-243.99 1436.19,-294.16"/>
<polygon fill="midnightblue" stroke="midnightblue" points="1432.77,-294.95 1437.68,-304.34 1439.7,-293.94 1432.77,-294.95"/>
</g>
<!-- Node19 -->
<g id="node19" class="node">
<title>Node19</title>
<g id="a_node19"><a xlink:href="namespaceconsole_1_1out.html#a8f791bfac54067cadb1b9f18117b987b" target="_top" xlink:title=" ">
<polygon fill="white" stroke="black" points="416.5,-209.5 416.5,-228.5 522.5,-228.5 522.5,-209.5 416.5,-209.5"/>
<text text-anchor="middle" x="469.5" y="-216.5" font-family="Helvetica,sans-Serif" font-size="10.00">console::out::printVa</text>
</a>
</g>
</g>
<!-- Node18&#45;&gt;Node19 -->
<g id="edge29" class="edge">
<title>Node18&#45;&gt;Node19</title>
<path fill="none" stroke="midnightblue" d="M354.11,-247.41C374.21,-242.42 398.98,-236.27 420.32,-230.97"/>
<polygon fill="midnightblue" stroke="midnightblue" points="421.31,-234.33 430.17,-228.52 419.62,-227.53 421.31,-234.33"/>
</g>
<!-- Node20 -->
<g id="node20" class="node">
<title>Node20</title>
<g id="a_node20"><a xlink:href="namespaceconsole_1_1ge.html#af642934cb833142f133285fdb75ef7b7" target="_top" xlink:title=" ">
<polygon fill="white" stroke="black" points="574,-209.5 574,-228.5 694,-228.5 694,-209.5 574,-209.5"/>
<text text-anchor="middle" x="634" y="-216.5" font-family="Helvetica,sans-Serif" font-size="10.00">console::ge::printFmtVa</text>
</a>
</g>
</g>
<!-- Node19&#45;&gt;Node20 -->
<g id="edge30" class="edge">
<title>Node19&#45;&gt;Node20</title>
<path fill="none" stroke="midnightblue" d="M522.81,-219C535.75,-219 549.81,-219 563.43,-219"/>
<polygon fill="midnightblue" stroke="midnightblue" points="563.73,-222.5 573.73,-219 563.73,-215.5 563.73,-222.5"/>
</g>
<!-- Node25 -->
<g id="node25" class="node">
<title>Node25</title>
<g id="a_node25"><a xlink:href="namespaceconsole_1_1out.html#ad9fc97dff4404c2d21aedbb24691e7cb" target="_top" xlink:title=" ">
<polygon fill="white" stroke="black" points="910,-114.5 910,-133.5 1020,-133.5 1020,-114.5 910,-114.5"/>
<text text-anchor="middle" x="965" y="-121.5" font-family="Helvetica,sans-Serif" font-size="10.00">console::out::putChar</text>
</a>
</g>
</g>
<!-- Node19&#45;&gt;Node25 -->
<g id="edge47" class="edge">
<title>Node19&#45;&gt;Node25</title>
<path fill="none" stroke="midnightblue" d="M487.72,-209.39C528.34,-187.32 633.97,-133.53 730,-115 787.17,-103.97 802.83,-112.46 861,-115 873.52,-115.55 886.88,-116.46 899.68,-117.51"/>
<polygon fill="midnightblue" stroke="midnightblue" points="899.54,-121.01 909.8,-118.37 900.13,-114.04 899.54,-121.01"/>
</g>
<!-- Node20&#45;&gt;Node4 -->
<g id="edge33" class="edge">
<title>Node20&#45;&gt;Node4</title>
<path fill="none" stroke="midnightblue" d="M654.09,-228.62C672.89,-237.61 702.68,-250.58 730,-257 831.58,-280.87 859.66,-276 964,-276 964,-276 964,-276 1135,-276 1231.14,-276 1343.07,-294.94 1400.56,-306.08"/>
<polygon fill="midnightblue" stroke="midnightblue" points="1400.16,-309.57 1410.65,-308.06 1401.51,-302.7 1400.16,-309.57"/>
</g>
<!-- Node21 -->
<g id="node21" class="node">
<title>Node21</title>
<g id="a_node21"><a xlink:href="printfmt_8cc.html#a708ec6ee2b8bd2d7a453d8d9436ed3b3" target="_top" xlink:title=" ">
<polygon fill="white" stroke="black" points="766.5,-190.5 766.5,-209.5 824.5,-209.5 824.5,-190.5 766.5,-190.5"/>
<text text-anchor="middle" x="795.5" y="-197.5" font-family="Helvetica,sans-Serif" font-size="10.00">_getIntVa</text>
</a>
</g>
</g>
<!-- Node20&#45;&gt;Node21 -->
<g id="edge31" class="edge">
<title>Node20&#45;&gt;Node21</title>
<path fill="none" stroke="midnightblue" d="M694.39,-211.93C715.07,-209.46 737.71,-206.77 756.22,-204.56"/>
<polygon fill="midnightblue" stroke="midnightblue" points="756.8,-208.02 766.31,-203.36 755.97,-201.07 756.8,-208.02"/>
</g>
<!-- Node22 -->
<g id="node22" class="node">
<title>Node22</title>
<g id="a_node22"><a xlink:href="printfmt_8cc.html#af4b46892c76c8bfd27efdb20847eb7c8" target="_top" xlink:title=" ">
<polygon fill="white" stroke="black" points="763,-152.5 763,-171.5 828,-171.5 828,-152.5 763,-152.5"/>
<text text-anchor="middle" x="795.5" y="-159.5" font-family="Helvetica,sans-Serif" font-size="10.00">_getUIntVa</text>
</a>
</g>
</g>
<!-- Node20&#45;&gt;Node22 -->
<g id="edge32" class="edge">
<title>Node20&#45;&gt;Node22</title>
<path fill="none" stroke="midnightblue" d="M657.04,-209.5C676.16,-201.42 704.65,-189.78 730,-181 737.45,-178.42 745.45,-175.88 753.2,-173.54"/>
<polygon fill="midnightblue" stroke="midnightblue" points="754.22,-176.89 762.82,-170.69 752.24,-170.17 754.22,-176.89"/>
</g>
<!-- Node23 -->
<g id="node23" class="node">
<title>Node23</title>
<g id="a_node23"><a xlink:href="printfmt_8cc.html#a0e3e484ece5e75b9f5fbe337f0ae8ae3" target="_top" xlink:title=" ">
<polygon fill="white" stroke="black" points="769,-304.5 769,-323.5 822,-323.5 822,-304.5 769,-304.5"/>
<text text-anchor="middle" x="795.5" y="-311.5" font-family="Helvetica,sans-Serif" font-size="10.00">describe</text>
</a>
</g>
</g>
<!-- Node20&#45;&gt;Node23 -->
<g id="edge34" class="edge">
<title>Node20&#45;&gt;Node23</title>
<path fill="none" stroke="midnightblue" d="M645.7,-228.63C662.59,-243.43 696.91,-271.97 730,-290 739.21,-295.02 749.68,-299.42 759.47,-303.03"/>
<polygon fill="midnightblue" stroke="midnightblue" points="758.36,-306.35 768.96,-306.37 760.69,-299.75 758.36,-306.35"/>
</g>
<!-- Node24 -->
<g id="node24" class="node">
<title>Node24</title>
<g id="a_node24"><a xlink:href="namespaceconsole_1_1ge.html#a7e301813fd34fde772376afc5fdad95d" target="_top" xlink:title=" ">
<polygon fill="white" stroke="black" points="732.5,-228.5 732.5,-247.5 858.5,-247.5 858.5,-228.5 732.5,-228.5"/>
<text text-anchor="middle" x="795.5" y="-235.5" font-family="Helvetica,sans-Serif" font-size="10.00">console::ge::printNumber</text>
</a>
</g>
</g>
<!-- Node20&#45;&gt;Node24 -->
<g id="edge36" class="edge">
<title>Node20&#45;&gt;Node24</title>
<path fill="none" stroke="midnightblue" d="M694.39,-226.07C703.5,-227.16 712.98,-228.29 722.33,-229.4"/>
<polygon fill="midnightblue" stroke="midnightblue" points="722.05,-232.89 732.39,-230.6 722.87,-225.94 722.05,-232.89"/>
</g>
<!-- Node20&#45;&gt;Node25 -->
<g id="edge46" class="edge">
<title>Node20&#45;&gt;Node25</title>
<path fill="none" stroke="midnightblue" d="M643.25,-209.4C658.44,-192.5 692.7,-157.81 730,-143 784.47,-121.38 851.56,-118.05 899.92,-119.29"/>
<polygon fill="midnightblue" stroke="midnightblue" points="899.83,-122.79 909.94,-119.62 900.06,-115.79 899.83,-122.79"/>
</g>
<!-- Node23&#45;&gt;Node12 -->
<g id="edge35" class="edge">
<title>Node23&#45;&gt;Node12</title>
<path fill="none" stroke="midnightblue" d="M822.3,-314C847.7,-314 887.03,-314 917.82,-314"/>
<polygon fill="midnightblue" stroke="midnightblue" points="917.9,-317.5 927.9,-314 917.9,-310.5 917.9,-317.5"/>
</g>
<!-- Node24&#45;&gt;Node25 -->
<g id="edge37" class="edge">
<title>Node24&#45;&gt;Node25</title>
<path fill="none" stroke="midnightblue" d="M839.27,-228.42C846.76,-225.9 854.3,-222.8 861,-219 897.27,-198.44 931.14,-162.83 949.57,-141.54"/>
<polygon fill="midnightblue" stroke="midnightblue" points="952.48,-143.52 956.27,-133.63 947.14,-138.99 952.48,-143.52"/>
</g>
<!-- Node26 -->
<g id="node26" class="node">
<title>Node26</title>
<g id="a_node26"><a xlink:href="namespaceconsole_1_1serial.html#a3a7c1f95ae3c24136ea63bb31fdf0391" target="_top" xlink:title=" ">
<polygon fill="white" stroke="black" points="1074,-76.5 1074,-95.5 1194,-95.5 1194,-76.5 1074,-76.5"/>
<text text-anchor="middle" x="1134" y="-83.5" font-family="Helvetica,sans-Serif" font-size="10.00">console::serial::putChar</text>
</a>
</g>
</g>
<!-- Node25&#45;&gt;Node26 -->
<g id="edge38" class="edge">
<title>Node25&#45;&gt;Node26</title>
<path fill="none" stroke="midnightblue" d="M1008.14,-114.41C1030.38,-109.35 1057.85,-103.1 1081.36,-97.75"/>
<polygon fill="midnightblue" stroke="midnightblue" points="1082.19,-101.15 1091.16,-95.52 1080.63,-94.33 1082.19,-101.15"/>
</g>
<!-- Node29 -->
<g id="node29" class="node">
<title>Node29</title>
<g id="a_node29"><a xlink:href="namespaceconsole_1_1cga.html#afa19057ca041b39682d5d4831c43dfa0" target="_top" xlink:title=" ">
<polygon fill="white" stroke="black" points="1077.5,-114.5 1077.5,-133.5 1190.5,-133.5 1190.5,-114.5 1077.5,-114.5"/>
<text text-anchor="middle" x="1134" y="-121.5" font-family="Helvetica,sans-Serif" font-size="10.00">console::cga::putChar</text>
</a>
</g>
</g>
<!-- Node25&#45;&gt;Node29 -->
<g id="edge41" class="edge">
<title>Node25&#45;&gt;Node29</title>
<path fill="none" stroke="midnightblue" d="M1020.22,-124C1035.22,-124 1051.66,-124 1067.24,-124"/>
<polygon fill="midnightblue" stroke="midnightblue" points="1067.33,-127.5 1077.33,-124 1067.33,-120.5 1067.33,-127.5"/>
</g>
<!-- Node27 -->
<g id="node27" class="node">
<title>Node27</title>
<g id="a_node27"><a xlink:href="namespaceconsole_1_1serial.html#aa5605d4537106bb1c2bab72d7d1a5824" target="_top" xlink:title=" ">
<polygon fill="white" stroke="black" points="1253,-0.5 1253,-19.5 1357,-19.5 1357,-0.5 1253,-0.5"/>
<text text-anchor="middle" x="1305" y="-7.5" font-family="Helvetica,sans-Serif" font-size="10.00">console::serial::sout</text>
</a>
</g>
</g>
<!-- Node26&#45;&gt;Node27 -->
<g id="edge39" class="edge">
<title>Node26&#45;&gt;Node27</title>
<path fill="none" stroke="midnightblue" d="M1156.4,-76.37C1185.99,-63.07 1239.56,-38.98 1273.37,-23.77"/>
<polygon fill="midnightblue" stroke="midnightblue" points="1275.09,-26.84 1282.77,-19.55 1272.21,-20.46 1275.09,-26.84"/>
</g>
<!-- Node28 -->
<g id="node28" class="node">
<title>Node28</title>
<g id="a_node28"><a xlink:href="x86_8h.html#ade961b44e45ddacbc3c3b7609cf36dc6" target="_top" xlink:title=" ">
<polygon fill="white" stroke="black" points="1422.5,-48.5 1422.5,-67.5 1457.5,-67.5 1457.5,-48.5 1422.5,-48.5"/>
<text text-anchor="middle" x="1440" y="-55.5" font-family="Helvetica,sans-Serif" font-size="10.00">outb</text>
</a>
</g>
</g>
<!-- Node27&#45;&gt;Node28 -->
<g id="edge40" class="edge">
<title>Node27&#45;&gt;Node28</title>
<path fill="none" stroke="midnightblue" d="M1333.92,-19.54C1346.5,-23.88 1361.52,-29.13 1375,-34 1387.52,-38.52 1401.35,-43.69 1412.94,-48.07"/>
<polygon fill="midnightblue" stroke="midnightblue" points="1411.87,-51.4 1422.46,-51.67 1414.35,-44.86 1411.87,-51.4"/>
</g>
<!-- Node30 -->
<g id="node30" class="node">
<title>Node30</title>
<g id="a_node30"><a xlink:href="namespacemem.html#a64d9d05b439041901498c606de606431" target="_top" xlink:title=" ">
<polygon fill="white" stroke="black" points="1272.5,-180.5 1272.5,-199.5 1337.5,-199.5 1337.5,-180.5 1272.5,-180.5"/>
<text text-anchor="middle" x="1305" y="-187.5" font-family="Helvetica,sans-Serif" font-size="10.00">mem::copy</text>
</a>
</g>
</g>
<!-- Node29&#45;&gt;Node30 -->
<g id="edge42" class="edge">
<title>Node29&#45;&gt;Node30</title>
<path fill="none" stroke="midnightblue" d="M1159.57,-133.6C1188.69,-144.97 1237.38,-163.98 1270.08,-176.75"/>
<polygon fill="midnightblue" stroke="midnightblue" points="1269.08,-180.12 1279.67,-180.5 1271.63,-173.6 1269.08,-180.12"/>
</g>
<!-- Node31 -->
<g id="node31" class="node">
<title>Node31</title>
<g id="a_node31"><a xlink:href="namespaceconsole_1_1cga.html#a06463d4dc68819e30615ba299d02a78f" target="_top" xlink:title=" ">
<polygon fill="white" stroke="black" points="1235,-95.5 1235,-114.5 1375,-114.5 1375,-95.5 1235,-95.5"/>
<text text-anchor="middle" x="1305" y="-102.5" font-family="Helvetica,sans-Serif" font-size="10.00">console::cga::cursorRefresh</text>
</a>
</g>
</g>
<!-- Node29&#45;&gt;Node31 -->
<g id="edge44" class="edge">
<title>Node29&#45;&gt;Node31</title>
<path fill="none" stroke="midnightblue" d="M1190.81,-117.73C1201.74,-116.5 1213.39,-115.19 1224.92,-113.89"/>
<polygon fill="midnightblue" stroke="midnightblue" points="1225.44,-117.35 1234.99,-112.76 1224.66,-110.4 1225.44,-117.35"/>
</g>
<!-- Node30&#45;&gt;Node4 -->
<g id="edge43" class="edge">
<title>Node30&#45;&gt;Node4</title>
<path fill="none" stroke="midnightblue" d="M1316.44,-199.73C1339.06,-220.83 1392.87,-270.99 1421.07,-297.28"/>
<polygon fill="midnightblue" stroke="midnightblue" points="1418.91,-300.06 1428.61,-304.32 1423.68,-294.94 1418.91,-300.06"/>
</g>
<!-- Node31&#45;&gt;Node28 -->
<g id="edge45" class="edge">
<title>Node31&#45;&gt;Node28</title>
<path fill="none" stroke="midnightblue" d="M1332.91,-95.49C1356.19,-87.26 1389.63,-75.45 1412.72,-67.29"/>
<polygon fill="midnightblue" stroke="midnightblue" points="1413.96,-70.56 1422.22,-63.93 1411.63,-63.96 1413.96,-70.56"/>
</g>
</g>
</svg>
