<?xml version="1.0" encoding="UTF-8" standalone="no"?>
<!DOCTYPE svg PUBLIC "-//W3C//DTD SVG 1.1//EN"
 "http://www.w3.org/Graphics/SVG/1.1/DTD/svg11.dtd">
<!-- Generated by graphviz version 2.44.1 (20200629.0846)
 -->
<!-- Title: TaskState Pages: 1 -->
<svg width="154pt" height="205pt"
 viewBox="0.00 0.00 153.50 205.00" xmlns="http://www.w3.org/2000/svg" xmlns:xlink="http://www.w3.org/1999/xlink">
<g id="graph0" class="graph" transform="scale(1 1) rotate(0) translate(4 201)">
<title>TaskState</title>
<polygon fill="white" stroke="transparent" points="-4,4 -4,-201 149.5,-201 149.5,4 -4,4"/>
<!-- Node1 -->
<g id="node1" class="node">
<title>Node1</title>
<g id="a_node1"><a xlink:title=" ">
<polygon fill="#bfbfbf" stroke="black" points="35,-0.5 35,-19.5 96,-19.5 96,-0.5 35,-0.5"/>
<text text-anchor="middle" x="65.5" y="-7.5" font-family="Helvetica,sans-Serif" font-size="10.00">TaskState</text>
</a>
</g>
</g>
<!-- Node2 -->
<g id="node2" class="node">
<title>Node2</title>
<g id="a_node2"><a xlink:title=" ">
<polygon fill="white" stroke="#bfbfbf" points="0,-177.5 0,-196.5 51,-196.5 51,-177.5 0,-177.5"/>
<text text-anchor="middle" x="25.5" y="-184.5" font-family="Helvetica,sans-Serif" font-size="10.00">uint16_t</text>
</a>
</g>
</g>
<!-- Node2&#45;&gt;Node1 -->
<g id="edge1" class="edge">
<title>Node2&#45;&gt;Node1</title>
<path fill="none" stroke="#9a32cd" stroke-dasharray="5,2" d="M20.5,-167.59C13.6,-138.25 4.36,-79.9 26.5,-38 30.73,-29.99 38.53,-23.88 46.04,-19.51"/>
<polygon fill="#9a32cd" stroke="#9a32cd" points="17.12,-168.49 22.96,-177.33 23.9,-166.77 17.12,-168.49"/>
<text text-anchor="middle" x="55.5" y="-151" font-family="Helvetica,sans-Serif" font-size="10.00"> ts_cs</text>
<text text-anchor="middle" x="55.5" y="-140" font-family="Helvetica,sans-Serif" font-size="10.00">ts_ds</text>
<text text-anchor="middle" x="55.5" y="-129" font-family="Helvetica,sans-Serif" font-size="10.00">ts_es</text>
<text text-anchor="middle" x="55.5" y="-118" font-family="Helvetica,sans-Serif" font-size="10.00">ts_fs</text>
<text text-anchor="middle" x="55.5" y="-107" font-family="Helvetica,sans-Serif" font-size="10.00">ts_gs</text>
<text text-anchor="middle" x="55.5" y="-96" font-family="Helvetica,sans-Serif" font-size="10.00">ts_iomb</text>
<text text-anchor="middle" x="55.5" y="-85" font-family="Helvetica,sans-Serif" font-size="10.00">ts_ldt</text>
<text text-anchor="middle" x="55.5" y="-74" font-family="Helvetica,sans-Serif" font-size="10.00">ts_padding1</text>
<text text-anchor="middle" x="55.5" y="-63" font-family="Helvetica,sans-Serif" font-size="10.00">ts_padding10</text>
<text text-anchor="middle" x="55.5" y="-52" font-family="Helvetica,sans-Serif" font-size="10.00">ts_padding2</text>
<text text-anchor="middle" x="55.5" y="-41" font-family="Helvetica,sans-Serif" font-size="10.00">...</text>
</g>
<!-- Node3 -->
<g id="node3" class="node">
<title>Node3</title>
<g id="a_node3"><a xlink:title=" ">
<polygon fill="white" stroke="#bfbfbf" points="81,-177.5 81,-196.5 132,-196.5 132,-177.5 81,-177.5"/>
<text text-anchor="middle" x="106.5" y="-184.5" font-family="Helvetica,sans-Serif" font-size="10.00">uint32_t</text>
</a>
</g>
</g>
<!-- Node3&#45;&gt;Node1 -->
<g id="edge2" class="edge">
<title>Node3&#45;&gt;Node1</title>
<path fill="none" stroke="#9a32cd" stroke-dasharray="5,2" d="M106.45,-167.02C105.76,-138.14 102.05,-81.88 84.5,-38 81.86,-31.4 77.32,-24.86 73.34,-19.87"/>
<polygon fill="#9a32cd" stroke="#9a32cd" points="102.95,-167.34 106.58,-177.3 109.95,-167.25 102.95,-167.34"/>
<text text-anchor="middle" x="125.5" y="-151" font-family="Helvetica,sans-Serif" font-size="10.00"> ts_cr3</text>
<text text-anchor="middle" x="125.5" y="-140" font-family="Helvetica,sans-Serif" font-size="10.00">ts_eax</text>
<text text-anchor="middle" x="125.5" y="-129" font-family="Helvetica,sans-Serif" font-size="10.00">ts_ebp</text>
<text text-anchor="middle" x="125.5" y="-118" font-family="Helvetica,sans-Serif" font-size="10.00">ts_ebx</text>
<text text-anchor="middle" x="125.5" y="-107" font-family="Helvetica,sans-Serif" font-size="10.00">ts_ecx</text>
<text text-anchor="middle" x="125.5" y="-96" font-family="Helvetica,sans-Serif" font-size="10.00">ts_edi</text>
<text text-anchor="middle" x="125.5" y="-85" font-family="Helvetica,sans-Serif" font-size="10.00">ts_edx</text>
<text text-anchor="middle" x="125.5" y="-74" font-family="Helvetica,sans-Serif" font-size="10.00">ts_eflags</text>
<text text-anchor="middle" x="125.5" y="-63" font-family="Helvetica,sans-Serif" font-size="10.00">ts_eip</text>
<text text-anchor="middle" x="125.5" y="-52" font-family="Helvetica,sans-Serif" font-size="10.00">ts_esi</text>
<text text-anchor="middle" x="125.5" y="-41" font-family="Helvetica,sans-Serif" font-size="10.00">...</text>
</g>
</g>
</svg>
