<?xml version="1.0" encoding="UTF-8" standalone="no"?>
<!DOCTYPE svg PUBLIC "-//W3C//DTD SVG 1.1//EN"
 "http://www.w3.org/Graphics/SVG/1.1/DTD/svg11.dtd">
<!-- Generated by graphviz version 2.44.1 (20200629.0846)
 -->
<!-- Title: mp::CPUInfo Pages: 1 -->
<svg width="772pt" height="619pt"
 viewBox="0.00 0.00 772.00 619.00" xmlns="http://www.w3.org/2000/svg" xmlns:xlink="http://www.w3.org/1999/xlink">
<g id="graph0" class="graph" transform="scale(1 1) rotate(0) translate(4 615)">
<title>mp::CPUInfo</title>
<polygon fill="white" stroke="transparent" points="-4,4 -4,-615 768,-615 768,4 -4,4"/>
<!-- Node1 -->
<g id="node1" class="node">
<title>Node1</title>
<g id="a_node1"><a xlink:title=" ">
<polygon fill="#bfbfbf" stroke="black" points="576,-0.5 576,-19.5 650,-19.5 650,-0.5 576,-0.5"/>
<text text-anchor="middle" x="613" y="-7.5" font-family="Helvetica,sans-Serif" font-size="10.00">mp::CPUInfo</text>
</a>
</g>
</g>
<!-- Node2 -->
<g id="node2" class="node">
<title>Node2</title>
<g id="a_node2"><a xlink:href="structtask_1_1_task.html" target="_top" xlink:title=" ">
<polygon fill="white" stroke="black" points="290,-79.5 290,-98.5 352,-98.5 352,-79.5 290,-79.5"/>
<text text-anchor="middle" x="321" y="-86.5" font-family="Helvetica,sans-Serif" font-size="10.00">task::Task</text>
</a>
</g>
</g>
<!-- Node2&#45;&gt;Node1 -->
<g id="edge1" class="edge">
<title>Node2&#45;&gt;Node1</title>
<path fill="none" stroke="#9a32cd" stroke-dasharray="5,2" d="M361.92,-77.21C420.53,-61.75 527.19,-33.63 580.64,-19.53"/>
<polygon fill="#9a32cd" stroke="#9a32cd" points="361.03,-73.83 352.25,-79.76 362.81,-80.59 361.03,-73.83"/>
<text text-anchor="middle" x="528" y="-41" font-family="Helvetica,sans-Serif" font-size="10.00"> current</text>
</g>
<!-- Node2&#45;&gt;Node2 -->
<g id="edge5" class="edge">
<title>Node2&#45;&gt;Node2</title>
<path fill="none" stroke="#9a32cd" stroke-dasharray="5,2" d="M362.15,-96.03C366.91,-94.73 370,-92.38 370,-89 370,-83.59 362.09,-80.84 352.1,-80.75"/>
<polygon fill="#9a32cd" stroke="#9a32cd" points="361.61,-92.57 352.1,-97.25 362.45,-99.52 361.61,-92.57"/>
<text text-anchor="middle" x="389.5" y="-103" font-family="Helvetica,sans-Serif" font-size="10.00"> array</text>
<text text-anchor="middle" x="389.5" y="-92" font-family="Helvetica,sans-Serif" font-size="10.00">current</text>
<text text-anchor="middle" x="389.5" y="-81" font-family="Helvetica,sans-Serif" font-size="10.00">freeList</text>
<text text-anchor="middle" x="389.5" y="-70" font-family="Helvetica,sans-Serif" font-size="10.00">nextFree</text>
</g>
<!-- Node3 -->
<g id="node3" class="node">
<title>Node3</title>
<g id="a_node3"><a xlink:title=" ">
<polygon fill="white" stroke="#bfbfbf" points="486.5,-169.5 486.5,-188.5 545.5,-188.5 545.5,-169.5 486.5,-169.5"/>
<text text-anchor="middle" x="516" y="-176.5" font-family="Helvetica,sans-Serif" font-size="10.00">TaskType</text>
</a>
</g>
</g>
<!-- Node3&#45;&gt;Node2 -->
<g id="edge2" class="edge">
<title>Node3&#45;&gt;Node2</title>
<path fill="none" stroke="#9a32cd" stroke-dasharray="5,2" d="M498.86,-162.38C486.37,-151.7 468.62,-137.92 451,-129 419.05,-112.82 379.21,-102.11 352.11,-96.07"/>
<polygon fill="#9a32cd" stroke="#9a32cd" points="496.78,-165.21 506.6,-169.18 501.4,-159.95 496.78,-165.21"/>
<text text-anchor="middle" x="496" y="-137.5" font-family="Helvetica,sans-Serif" font-size="10.00"> type</text>
</g>
<!-- Node4 -->
<g id="node4" class="node">
<title>Node4</title>
<g id="a_node4"><a xlink:title=" ">
<polygon fill="white" stroke="#bfbfbf" points="0,-169.5 0,-188.5 116,-188.5 116,-169.5 0,-169.5"/>
<text text-anchor="middle" x="58" y="-176.5" font-family="Helvetica,sans-Serif" font-size="10.00">static constexpr size_t</text>
</a>
</g>
</g>
<!-- Node4&#45;&gt;Node2 -->
<g id="edge3" class="edge">
<title>Node4&#45;&gt;Node2</title>
<path fill="none" stroke="#9a32cd" stroke-dasharray="5,2" d="M76.02,-162.97C90.14,-151.96 110.71,-137.5 131,-129 184.26,-106.68 251.43,-96.76 289.97,-92.65"/>
<polygon fill="#9a32cd" stroke="#9a32cd" points="73.74,-160.31 68.13,-169.3 78.12,-165.77 73.74,-160.31"/>
<text text-anchor="middle" x="158" y="-143" font-family="Helvetica,sans-Serif" font-size="10.00"> maxCount</text>
<text text-anchor="middle" x="158" y="-132" font-family="Helvetica,sans-Serif" font-size="10.00">nameLength</text>
</g>
<!-- Node5 -->
<g id="node5" class="node">
<title>Node5</title>
<g id="a_node5"><a xlink:title=" ">
<polygon fill="white" stroke="#bfbfbf" points="134,-169.5 134,-188.5 200,-188.5 200,-169.5 134,-169.5"/>
<text text-anchor="middle" x="167" y="-176.5" font-family="Helvetica,sans-Serif" font-size="10.00">TaskStatus</text>
</a>
</g>
</g>
<!-- Node5&#45;&gt;Node2 -->
<g id="edge4" class="edge">
<title>Node5&#45;&gt;Node2</title>
<path fill="none" stroke="#9a32cd" stroke-dasharray="5,2" d="M179.41,-161.16C187.88,-150.69 199.9,-137.62 213,-129 236.65,-113.45 267.29,-103.15 289.89,-97.06"/>
<polygon fill="#9a32cd" stroke="#9a32cd" points="176.55,-159.15 173.19,-169.2 182.08,-163.43 176.55,-159.15"/>
<text text-anchor="middle" x="228.5" y="-137.5" font-family="Helvetica,sans-Serif" font-size="10.00"> status</text>
</g>
<!-- Node6 -->
<g id="node6" class="node">
<title>Node6</title>
<g id="a_node6"><a xlink:title=" ">
<polygon fill="white" stroke="#bfbfbf" points="218.5,-169.5 218.5,-188.5 253.5,-188.5 253.5,-169.5 218.5,-169.5"/>
<text text-anchor="middle" x="236" y="-176.5" font-family="Helvetica,sans-Serif" font-size="10.00">char</text>
</a>
</g>
</g>
<!-- Node6&#45;&gt;Node2 -->
<g id="edge6" class="edge">
<title>Node6&#45;&gt;Node2</title>
<path fill="none" stroke="#9a32cd" stroke-dasharray="5,2" d="M242.55,-159.88C246.75,-149.98 252.94,-137.95 261,-129 272.81,-115.89 289.97,-105.32 302.93,-98.51"/>
<polygon fill="#9a32cd" stroke="#9a32cd" points="239.28,-158.62 238.89,-169.21 245.8,-161.18 239.28,-158.62"/>
<text text-anchor="middle" x="275" y="-137.5" font-family="Helvetica,sans-Serif" font-size="10.00"> name</text>
</g>
<!-- Node7 -->
<g id="node7" class="node">
<title>Node7</title>
<g id="a_node7"><a xlink:title=" ">
<polygon fill="white" stroke="#bfbfbf" points="272,-169.5 272,-188.5 318,-188.5 318,-169.5 272,-169.5"/>
<text text-anchor="middle" x="295" y="-176.5" font-family="Helvetica,sans-Serif" font-size="10.00">int32_t</text>
</a>
</g>
</g>
<!-- Node7&#45;&gt;Node2 -->
<g id="edge7" class="edge">
<title>Node7&#45;&gt;Node2</title>
<path fill="none" stroke="#9a32cd" stroke-dasharray="5,2" d="M293.03,-159.35C292.63,-150.04 293.04,-138.72 296,-129 299.51,-117.46 307.49,-106.05 313.5,-98.59"/>
<polygon fill="#9a32cd" stroke="#9a32cd" points="289.55,-159.75 293.8,-169.46 296.53,-159.22 289.55,-159.75"/>
<text text-anchor="middle" x="314" y="-143" font-family="Helvetica,sans-Serif" font-size="10.00"> id</text>
<text text-anchor="middle" x="314" y="-132" font-family="Helvetica,sans-Serif" font-size="10.00">parentId</text>
</g>
<!-- Node8 -->
<g id="node8" class="node">
<title>Node8</title>
<g id="a_node8"><a xlink:title=" ">
<polygon fill="white" stroke="#bfbfbf" points="502.5,-591.5 502.5,-610.5 553.5,-610.5 553.5,-591.5 502.5,-591.5"/>
<text text-anchor="middle" x="528" y="-598.5" font-family="Helvetica,sans-Serif" font-size="10.00">uint32_t</text>
</a>
</g>
</g>
<!-- Node8&#45;&gt;Node2 -->
<g id="edge8" class="edge">
<title>Node8&#45;&gt;Node2</title>
<path fill="none" stroke="#9a32cd" stroke-dasharray="5,2" d="M500.62,-586.88C462.5,-566.96 394.77,-525.14 365,-467 336.68,-411.69 356.13,-389.83 350,-328 341.24,-239.63 348.12,-216.33 332,-129 330.03,-118.35 326.45,-106.4 323.91,-98.57"/>
<polygon fill="#9a32cd" stroke="#9a32cd" points="499.13,-590.05 509.63,-591.47 502.31,-583.82 499.13,-590.05"/>
<text text-anchor="middle" x="368.5" y="-265" font-family="Helvetica,sans-Serif" font-size="10.00"> pageDir</text>
</g>
<!-- Node9 -->
<g id="node9" class="node">
<title>Node9</title>
<g id="a_node9"><a xlink:href="structtrap_1_1_frame.html" target="_top" xlink:title=" ">
<polygon fill="white" stroke="black" points="401.5,-169.5 401.5,-188.5 468.5,-188.5 468.5,-169.5 401.5,-169.5"/>
<text text-anchor="middle" x="435" y="-176.5" font-family="Helvetica,sans-Serif" font-size="10.00">trap::Frame</text>
</a>
</g>
</g>
<!-- Node8&#45;&gt;Node9 -->
<g id="edge11" class="edge">
<title>Node8&#45;&gt;Node9</title>
<path fill="none" stroke="#9a32cd" stroke-dasharray="5,2" d="M532.71,-581.61C547.14,-520.7 584.5,-322.83 494,-207 487.41,-198.57 477.59,-192.68 467.84,-188.6"/>
<polygon fill="#9a32cd" stroke="#9a32cd" points="529.31,-580.79 530.32,-591.34 536.11,-582.46 529.31,-580.79"/>
<text text-anchor="middle" x="568" y="-420.5" font-family="Helvetica,sans-Serif" font-size="10.00"> eflags</text>
<text text-anchor="middle" x="568" y="-409.5" font-family="Helvetica,sans-Serif" font-size="10.00">eip</text>
<text text-anchor="middle" x="568" y="-398.5" font-family="Helvetica,sans-Serif" font-size="10.00">err</text>
<text text-anchor="middle" x="568" y="-387.5" font-family="Helvetica,sans-Serif" font-size="10.00">esp</text>
</g>
<!-- Node12 -->
<g id="node12" class="node">
<title>Node12</title>
<g id="a_node12"><a xlink:href="structtrap_1_1_registers.html" target="_top" xlink:title=" ">
<polygon fill="white" stroke="black" points="430.5,-397 430.5,-416 511.5,-416 511.5,-397 430.5,-397"/>
<text text-anchor="middle" x="471" y="-404" font-family="Helvetica,sans-Serif" font-size="10.00">trap::Registers</text>
</a>
</g>
</g>
<!-- Node8&#45;&gt;Node12 -->
<g id="edge14" class="edge">
<title>Node8&#45;&gt;Node12</title>
<path fill="none" stroke="#9a32cd" stroke-dasharray="5,2" d="M516.73,-582.66C514.98,-579.53 513.32,-576.23 512,-573 488.43,-515.48 475.94,-440.96 472.21,-416.04"/>
<polygon fill="#9a32cd" stroke="#9a32cd" points="513.81,-584.6 521.98,-591.34 519.8,-580.97 513.81,-584.6"/>
<text text-anchor="middle" x="523" y="-565" font-family="Helvetica,sans-Serif" font-size="10.00"> eax</text>
<text text-anchor="middle" x="523" y="-554" font-family="Helvetica,sans-Serif" font-size="10.00">ebp</text>
<text text-anchor="middle" x="523" y="-543" font-family="Helvetica,sans-Serif" font-size="10.00">ebx</text>
<text text-anchor="middle" x="523" y="-532" font-family="Helvetica,sans-Serif" font-size="10.00">ecx</text>
<text text-anchor="middle" x="523" y="-521" font-family="Helvetica,sans-Serif" font-size="10.00">edi</text>
<text text-anchor="middle" x="523" y="-510" font-family="Helvetica,sans-Serif" font-size="10.00">edx</text>
<text text-anchor="middle" x="523" y="-499" font-family="Helvetica,sans-Serif" font-size="10.00">esi</text>
<text text-anchor="middle" x="523" y="-488" font-family="Helvetica,sans-Serif" font-size="10.00">oesp</text>
</g>
<!-- Node13 -->
<g id="node13" class="node">
<title>Node13</title>
<g id="a_node13"><a xlink:href="struct_task_state.html" target="_top" xlink:title=" ">
<polygon fill="white" stroke="black" points="607.5,-169.5 607.5,-188.5 668.5,-188.5 668.5,-169.5 607.5,-169.5"/>
<text text-anchor="middle" x="638" y="-176.5" font-family="Helvetica,sans-Serif" font-size="10.00">TaskState</text>
</a>
</g>
</g>
<!-- Node8&#45;&gt;Node13 -->
<g id="edge17" class="edge">
<title>Node8&#45;&gt;Node13</title>
<path fill="none" stroke="#9a32cd" stroke-dasharray="5,2" d="M550.29,-585.48C581.79,-563.71 638.74,-519.51 668,-467 724.59,-365.43 759.82,-304.84 697,-207 690.61,-197.05 679.54,-190.72 668.7,-186.71"/>
<polygon fill="#9a32cd" stroke="#9a32cd" points="548.08,-582.75 541.76,-591.26 552,-588.55 548.08,-582.75"/>
<text text-anchor="middle" x="744" y="-459" font-family="Helvetica,sans-Serif" font-size="10.00"> ts_cr3</text>
<text text-anchor="middle" x="744" y="-448" font-family="Helvetica,sans-Serif" font-size="10.00">ts_eax</text>
<text text-anchor="middle" x="744" y="-437" font-family="Helvetica,sans-Serif" font-size="10.00">ts_ebp</text>
<text text-anchor="middle" x="744" y="-426" font-family="Helvetica,sans-Serif" font-size="10.00">ts_ebx</text>
<text text-anchor="middle" x="744" y="-415" font-family="Helvetica,sans-Serif" font-size="10.00">ts_ecx</text>
<text text-anchor="middle" x="744" y="-404" font-family="Helvetica,sans-Serif" font-size="10.00">ts_edi</text>
<text text-anchor="middle" x="744" y="-393" font-family="Helvetica,sans-Serif" font-size="10.00">ts_edx</text>
<text text-anchor="middle" x="744" y="-382" font-family="Helvetica,sans-Serif" font-size="10.00">ts_eflags</text>
<text text-anchor="middle" x="744" y="-371" font-family="Helvetica,sans-Serif" font-size="10.00">ts_eip</text>
<text text-anchor="middle" x="744" y="-360" font-family="Helvetica,sans-Serif" font-size="10.00">ts_esi</text>
<text text-anchor="middle" x="744" y="-349" font-family="Helvetica,sans-Serif" font-size="10.00">...</text>
</g>
<!-- Node9&#45;&gt;Node2 -->
<g id="edge9" class="edge">
<title>Node9&#45;&gt;Node2</title>
<path fill="none" stroke="#9a32cd" stroke-dasharray="5,2" d="M415.62,-163.04C391.68,-144.56 351.73,-113.72 332.3,-98.72"/>
<polygon fill="#9a32cd" stroke="#9a32cd" points="413.6,-165.9 423.65,-169.24 417.88,-160.36 413.6,-165.9"/>
<text text-anchor="middle" x="423" y="-137.5" font-family="Helvetica,sans-Serif" font-size="10.00"> trapFrame</text>
</g>
<!-- Node10 -->
<g id="node10" class="node">
<title>Node10</title>
<g id="a_node10"><a xlink:title=" ">
<polygon fill="white" stroke="#bfbfbf" points="607.5,-397 607.5,-416 658.5,-416 658.5,-397 607.5,-397"/>
<text text-anchor="middle" x="633" y="-404" font-family="Helvetica,sans-Serif" font-size="10.00">uint16_t</text>
</a>
</g>
</g>
<!-- Node10&#45;&gt;Node9 -->
<g id="edge10" class="edge">
<title>Node10&#45;&gt;Node9</title>
<path fill="none" stroke="#9a32cd" stroke-dasharray="5,2" d="M621.81,-387.86C612.4,-372.49 599.08,-349.38 590,-328 568.02,-276.24 594.17,-245.31 553,-207 551.41,-205.52 502.85,-194.73 468.53,-187.25"/>
<polygon fill="#9a32cd" stroke="#9a32cd" points="619.08,-390.1 627.34,-396.74 625.02,-386.4 619.08,-390.1"/>
<text text-anchor="middle" x="610" y="-303.5" font-family="Helvetica,sans-Serif" font-size="10.00"> cs</text>
<text text-anchor="middle" x="610" y="-292.5" font-family="Helvetica,sans-Serif" font-size="10.00">ds</text>
<text text-anchor="middle" x="610" y="-281.5" font-family="Helvetica,sans-Serif" font-size="10.00">es</text>
<text text-anchor="middle" x="610" y="-270.5" font-family="Helvetica,sans-Serif" font-size="10.00">padding1</text>
<text text-anchor="middle" x="610" y="-259.5" font-family="Helvetica,sans-Serif" font-size="10.00">padding2</text>
<text text-anchor="middle" x="610" y="-248.5" font-family="Helvetica,sans-Serif" font-size="10.00">padding3</text>
<text text-anchor="middle" x="610" y="-237.5" font-family="Helvetica,sans-Serif" font-size="10.00">padding4</text>
<text text-anchor="middle" x="610" y="-226.5" font-family="Helvetica,sans-Serif" font-size="10.00">ss</text>
</g>
<!-- Node10&#45;&gt;Node13 -->
<g id="edge16" class="edge">
<title>Node10&#45;&gt;Node13</title>
<path fill="none" stroke="#9a32cd" stroke-dasharray="5,2" d="M633.41,-386.81C634.44,-340.44 637.08,-221.52 637.81,-188.57"/>
<polygon fill="#9a32cd" stroke="#9a32cd" points="629.91,-386.86 633.19,-396.94 636.91,-387.02 629.91,-386.86"/>
<text text-anchor="middle" x="666" y="-320" font-family="Helvetica,sans-Serif" font-size="10.00"> ts_cs</text>
<text text-anchor="middle" x="666" y="-309" font-family="Helvetica,sans-Serif" font-size="10.00">ts_ds</text>
<text text-anchor="middle" x="666" y="-298" font-family="Helvetica,sans-Serif" font-size="10.00">ts_es</text>
<text text-anchor="middle" x="666" y="-287" font-family="Helvetica,sans-Serif" font-size="10.00">ts_fs</text>
<text text-anchor="middle" x="666" y="-276" font-family="Helvetica,sans-Serif" font-size="10.00">ts_gs</text>
<text text-anchor="middle" x="666" y="-265" font-family="Helvetica,sans-Serif" font-size="10.00">ts_iomb</text>
<text text-anchor="middle" x="666" y="-254" font-family="Helvetica,sans-Serif" font-size="10.00">ts_ldt</text>
<text text-anchor="middle" x="666" y="-243" font-family="Helvetica,sans-Serif" font-size="10.00">ts_padding1</text>
<text text-anchor="middle" x="666" y="-232" font-family="Helvetica,sans-Serif" font-size="10.00">ts_padding10</text>
<text text-anchor="middle" x="666" y="-221" font-family="Helvetica,sans-Serif" font-size="10.00">ts_padding2</text>
<text text-anchor="middle" x="666" y="-210" font-family="Helvetica,sans-Serif" font-size="10.00">...</text>
</g>
<!-- Node11 -->
<g id="node11" class="node">
<title>Node11</title>
<g id="a_node11"><a xlink:title=" ">
<polygon fill="white" stroke="#bfbfbf" points="374,-397 374,-416 412,-416 412,-397 374,-397"/>
<text text-anchor="middle" x="393" y="-404" font-family="Helvetica,sans-Serif" font-size="10.00">Type</text>
</a>
</g>
</g>
<!-- Node11&#45;&gt;Node9 -->
<g id="edge12" class="edge">
<title>Node11&#45;&gt;Node9</title>
<path fill="none" stroke="#9a32cd" stroke-dasharray="5,2" d="M392.07,-386.59C390.23,-343.27 387.56,-238.15 403,-207 406.74,-199.45 413.67,-193.19 420.12,-188.61"/>
<polygon fill="#9a32cd" stroke="#9a32cd" points="388.58,-387.02 392.54,-396.85 395.58,-386.7 388.58,-387.02"/>
<text text-anchor="middle" x="423.5" y="-265" font-family="Helvetica,sans-Serif" font-size="10.00"> trapType</text>
</g>
<!-- Node12&#45;&gt;Node9 -->
<g id="edge13" class="edge">
<title>Node12&#45;&gt;Node9</title>
<path fill="none" stroke="#9a32cd" stroke-dasharray="5,2" d="M470.88,-386.63C470.22,-350.87 466.56,-271.07 448,-207 446.15,-200.6 442.9,-193.85 440.11,-188.7"/>
<polygon fill="#9a32cd" stroke="#9a32cd" points="467.39,-387.03 471.01,-396.98 474.39,-386.94 467.39,-387.03"/>
<text text-anchor="middle" x="479" y="-265" font-family="Helvetica,sans-Serif" font-size="10.00"> regs</text>
</g>
<!-- Node13&#45;&gt;Node1 -->
<g id="edge15" class="edge">
<title>Node13&#45;&gt;Node1</title>
<path fill="none" stroke="#9a32cd" stroke-dasharray="5,2" d="M623.85,-161.39C613.89,-148.56 601.42,-129.87 596,-111 586.51,-78 601.34,-37.25 608.95,-19.71"/>
<polygon fill="#9a32cd" stroke="#9a32cd" points="621.2,-163.69 630.21,-169.26 626.65,-159.29 621.2,-163.69"/>
<text text-anchor="middle" x="602" y="-86.5" font-family="Helvetica,sans-Serif" font-size="10.00"> ts</text>
</g>
<!-- Node14 -->
<g id="node14" class="node">
<title>Node14</title>
<g id="a_node14"><a xlink:title=" ">
<polygon fill="white" stroke="#bfbfbf" points="617,-79.5 617,-98.5 663,-98.5 663,-79.5 617,-79.5"/>
<text text-anchor="middle" x="640" y="-86.5" font-family="Helvetica,sans-Serif" font-size="10.00">uint8_t</text>
</a>
</g>
</g>
<!-- Node14&#45;&gt;Node1 -->
<g id="edge18" class="edge">
<title>Node14&#45;&gt;Node1</title>
<path fill="none" stroke="#9a32cd" stroke-dasharray="5,2" d="M633.61,-69.77C628.08,-54.02 620.34,-31.92 616.09,-19.81"/>
<polygon fill="#9a32cd" stroke="#9a32cd" points="630.4,-71.19 637.01,-79.47 637,-68.87 630.4,-71.19"/>
<text text-anchor="middle" x="630.5" y="-41" font-family="Helvetica,sans-Serif" font-size="10.00"> id</text>
</g>
<!-- Node15 -->
<g id="node15" class="node">
<title>Node15</title>
<g id="a_node15"><a xlink:title=" ">
<polygon fill="white" stroke="#bfbfbf" points="681.5,-79.5 681.5,-98.5 760.5,-98.5 760.5,-79.5 681.5,-79.5"/>
<text text-anchor="middle" x="721" y="-86.5" font-family="Helvetica,sans-Serif" font-size="10.00">volatile Status</text>
</a>
</g>
</g>
<!-- Node15&#45;&gt;Node1 -->
<g id="edge19" class="edge">
<title>Node15&#45;&gt;Node1</title>
<path fill="none" stroke="#9a32cd" stroke-dasharray="5,2" d="M700.61,-73.46C678.31,-57.56 643.3,-32.6 625.02,-19.57"/>
<polygon fill="#9a32cd" stroke="#9a32cd" points="698.86,-76.51 709.03,-79.47 702.92,-70.81 698.86,-76.51"/>
<text text-anchor="middle" x="678.5" y="-41" font-family="Helvetica,sans-Serif" font-size="10.00"> status</text>
</g>
</g>
</svg>
