<?xml version="1.0" encoding="UTF-8" standalone="no"?>
<!DOCTYPE svg PUBLIC "-//W3C//DTD SVG 1.1//EN"
 "http://www.w3.org/Graphics/SVG/1.1/DTD/svg11.dtd">
<!-- Generated by graphviz version 2.44.1 (20200629.0846)
 -->
<!-- Title: task::Task::free Pages: 1 -->
<svg width="1333pt" height="429pt"
 viewBox="0.00 0.00 1333.00 429.00" xmlns="http://www.w3.org/2000/svg" xmlns:xlink="http://www.w3.org/1999/xlink">
<g id="graph0" class="graph" transform="scale(1 1) rotate(0) translate(4 425)">
<title>task::Task::free</title>
<polygon fill="white" stroke="transparent" points="-4,4 -4,-425 1329,-425 1329,4 -4,4"/>
<!-- Node1 -->
<g id="node1" class="node">
<title>Node1</title>
<g id="a_node1"><a xlink:title=" ">
<polygon fill="#bfbfbf" stroke="black" points="0,-198.5 0,-217.5 85,-217.5 85,-198.5 0,-198.5"/>
<text text-anchor="middle" x="42.5" y="-205.5" font-family="Helvetica,sans-Serif" font-size="10.00">task::Task::free</text>
</a>
</g>
</g>
<!-- Node2 -->
<g id="node2" class="node">
<title>Node2</title>
<g id="a_node2"><a xlink:href="structvmem_1_1_page_info.html#ab39513ff9c9514fd1b59ce0e6a7595bb" target="_top" xlink:title=" ">
<polygon fill="white" stroke="black" points="121,-290.5 121,-309.5 247,-309.5 247,-290.5 121,-290.5"/>
<text text-anchor="middle" x="184" y="-297.5" font-family="Helvetica,sans-Serif" font-size="10.00">vmem::PageInfo::decRef</text>
</a>
</g>
</g>
<!-- Node1&#45;&gt;Node2 -->
<g id="edge1" class="edge">
<title>Node1&#45;&gt;Node2</title>
<path fill="none" stroke="midnightblue" d="M52.2,-217.53C65.72,-231.87 93.14,-259.12 121,-276 127.73,-280.08 135.28,-283.69 142.73,-286.79"/>
<polygon fill="midnightblue" stroke="midnightblue" points="141.45,-290.05 152.04,-290.44 144.01,-283.53 141.45,-290.05"/>
</g>
<!-- Node4 -->
<g id="node4" class="node">
<title>Node4</title>
<g id="a_node4"><a xlink:href="structvmem_1_1_page_info.html#a1e3111217d6a051c9d8b83200710a0b3" target="_top" xlink:title=" ">
<polygon fill="white" stroke="black" points="430,-117.5 430,-136.5 561,-136.5 561,-117.5 430,-117.5"/>
<text text-anchor="middle" x="495.5" y="-124.5" font-family="Helvetica,sans-Serif" font-size="10.00">vmem::PageInfo::fromPhy</text>
</a>
</g>
</g>
<!-- Node1&#45;&gt;Node4 -->
<g id="edge3" class="edge">
<title>Node1&#45;&gt;Node4</title>
<path fill="none" stroke="midnightblue" d="M80.03,-198.44C92.93,-195.22 107.57,-191.76 121,-189 224.06,-167.84 344.26,-148.91 419.87,-137.68"/>
<polygon fill="midnightblue" stroke="midnightblue" points="420.4,-141.14 429.78,-136.22 419.38,-134.22 420.4,-141.14"/>
</g>
<!-- Node5 -->
<g id="node5" class="node">
<title>Node5</title>
<g id="a_node5"><a xlink:href="x86_8h.html#ab3bac932074f6042165d3016b701900a" target="_top" xlink:title=" ">
<polygon fill="white" stroke="black" points="168,-198.5 168,-217.5 200,-217.5 200,-198.5 168,-198.5"/>
<text text-anchor="middle" x="184" y="-205.5" font-family="Helvetica,sans-Serif" font-size="10.00">lcr3</text>
</a>
</g>
</g>
<!-- Node1&#45;&gt;Node5 -->
<g id="edge4" class="edge">
<title>Node1&#45;&gt;Node5</title>
<path fill="none" stroke="midnightblue" d="M85.35,-208C108.92,-208 137.57,-208 157.72,-208"/>
<polygon fill="midnightblue" stroke="midnightblue" points="157.96,-211.5 167.96,-208 157.96,-204.5 157.96,-211.5"/>
</g>
<!-- Node6 -->
<g id="node6" class="node">
<title>Node6</title>
<g id="a_node6"><a xlink:href="namespaceconsole_1_1out.html#ac6f663e3971b66b8e130ee94755a150e" target="_top" xlink:title=" ">
<polygon fill="white" stroke="black" points="136.5,-247.5 136.5,-266.5 231.5,-266.5 231.5,-247.5 136.5,-247.5"/>
<text text-anchor="middle" x="184" y="-254.5" font-family="Helvetica,sans-Serif" font-size="10.00">console::out::print</text>
</a>
</g>
</g>
<!-- Node1&#45;&gt;Node6 -->
<g id="edge5" class="edge">
<title>Node1&#45;&gt;Node6</title>
<path fill="none" stroke="midnightblue" d="M70.73,-217.56C92.24,-225.12 122.47,-235.74 146.14,-244.05"/>
<polygon fill="midnightblue" stroke="midnightblue" points="145.25,-247.45 155.84,-247.46 147.57,-240.84 145.25,-247.45"/>
</g>
<!-- Node22 -->
<g id="node22" class="node">
<title>Node22</title>
<g id="a_node22"><a xlink:href="namespacevmem_1_1pgdir.html#a0fac039ba671f03a7cccf3f4af55cbf5" target="_top" xlink:title=" ">
<polygon fill="white" stroke="black" points="129.5,-98.5 129.5,-117.5 238.5,-117.5 238.5,-98.5 129.5,-98.5"/>
<text text-anchor="middle" x="184" y="-105.5" font-family="Helvetica,sans-Serif" font-size="10.00">vmem::pgdir::remove</text>
</a>
</g>
</g>
<!-- Node1&#45;&gt;Node22 -->
<g id="edge25" class="edge">
<title>Node1&#45;&gt;Node22</title>
<path fill="none" stroke="midnightblue" d="M52.26,-198.26C65.87,-183.56 93.4,-155.47 121,-137 129.67,-131.2 139.68,-125.97 149.09,-121.6"/>
<polygon fill="midnightblue" stroke="midnightblue" points="150.52,-124.79 158.23,-117.53 147.68,-118.4 150.52,-124.79"/>
</g>
<!-- Node3 -->
<g id="node3" class="node">
<title>Node3</title>
<g id="a_node3"><a xlink:href="structvmem_1_1_page_info.html#ad45803083cb13e7139232db4ab20b5ab" target="_top" xlink:title=" ">
<polygon fill="white" stroke="black" points="283,-294.5 283,-313.5 394,-313.5 394,-294.5 283,-294.5"/>
<text text-anchor="middle" x="338.5" y="-301.5" font-family="Helvetica,sans-Serif" font-size="10.00">vmem::PageInfo::free</text>
</a>
</g>
</g>
<!-- Node2&#45;&gt;Node3 -->
<g id="edge2" class="edge">
<title>Node2&#45;&gt;Node3</title>
<path fill="none" stroke="midnightblue" d="M247.03,-301.63C255.47,-301.85 264.15,-302.08 272.64,-302.3"/>
<polygon fill="midnightblue" stroke="midnightblue" points="272.79,-305.8 282.87,-302.57 272.97,-298.81 272.79,-305.8"/>
</g>
<!-- Node7 -->
<g id="node7" class="node">
<title>Node7</title>
<g id="a_node7"><a xlink:href="namespaceconsole_1_1out.html#a8f791bfac54067cadb1b9f18117b987b" target="_top" xlink:title=" ">
<polygon fill="white" stroke="black" points="285.5,-256.5 285.5,-275.5 391.5,-275.5 391.5,-256.5 285.5,-256.5"/>
<text text-anchor="middle" x="338.5" y="-263.5" font-family="Helvetica,sans-Serif" font-size="10.00">console::out::printVa</text>
</a>
</g>
</g>
<!-- Node6&#45;&gt;Node7 -->
<g id="edge6" class="edge">
<title>Node6&#45;&gt;Node7</title>
<path fill="none" stroke="midnightblue" d="M231.58,-259.75C245.39,-260.56 260.73,-261.47 275.36,-262.33"/>
<polygon fill="midnightblue" stroke="midnightblue" points="275.16,-265.83 285.34,-262.92 275.57,-258.84 275.16,-265.83"/>
</g>
<!-- Node8 -->
<g id="node8" class="node">
<title>Node8</title>
<g id="a_node8"><a xlink:href="namespaceconsole_1_1ge.html#af642934cb833142f133285fdb75ef7b7" target="_top" xlink:title=" ">
<polygon fill="white" stroke="black" points="435.5,-266.5 435.5,-285.5 555.5,-285.5 555.5,-266.5 435.5,-266.5"/>
<text text-anchor="middle" x="495.5" y="-273.5" font-family="Helvetica,sans-Serif" font-size="10.00">console::ge::printFmtVa</text>
</a>
</g>
</g>
<!-- Node7&#45;&gt;Node8 -->
<g id="edge7" class="edge">
<title>Node7&#45;&gt;Node8</title>
<path fill="none" stroke="midnightblue" d="M391.54,-269.36C402.32,-270.05 413.83,-270.8 425.11,-271.52"/>
<polygon fill="midnightblue" stroke="midnightblue" points="425.17,-275.03 435.38,-272.19 425.62,-268.05 425.17,-275.03"/>
</g>
<!-- Node15 -->
<g id="node15" class="node">
<title>Node15</title>
<g id="a_node15"><a xlink:href="namespaceconsole_1_1out.html#ad9fc97dff4404c2d21aedbb24691e7cb" target="_top" xlink:title=" ">
<polygon fill="white" stroke="black" points="779,-342.5 779,-361.5 889,-361.5 889,-342.5 779,-342.5"/>
<text text-anchor="middle" x="834" y="-349.5" font-family="Helvetica,sans-Serif" font-size="10.00">console::out::putChar</text>
</a>
</g>
</g>
<!-- Node7&#45;&gt;Node15 -->
<g id="edge24" class="edge">
<title>Node7&#45;&gt;Node15</title>
<path fill="none" stroke="midnightblue" d="M370.51,-275.53C378.31,-278.27 386.57,-281.49 394,-285 489.57,-330.21 495.23,-380.38 597,-409 655.19,-425.37 674.57,-424.48 733,-409 763.02,-401.05 793.44,-381.75 812.71,-367.81"/>
<polygon fill="midnightblue" stroke="midnightblue" points="815.05,-370.43 820.99,-361.65 810.87,-364.81 815.05,-370.43"/>
</g>
<!-- Node9 -->
<g id="node9" class="node">
<title>Node9</title>
<g id="a_node9"><a xlink:href="printfmt_8cc.html#a708ec6ee2b8bd2d7a453d8d9436ed3b3" target="_top" xlink:title=" ">
<polygon fill="white" stroke="black" points="636,-190.5 636,-209.5 694,-209.5 694,-190.5 636,-190.5"/>
<text text-anchor="middle" x="665" y="-197.5" font-family="Helvetica,sans-Serif" font-size="10.00">_getIntVa</text>
</a>
</g>
</g>
<!-- Node8&#45;&gt;Node9 -->
<g id="edge8" class="edge">
<title>Node8&#45;&gt;Node9</title>
<path fill="none" stroke="midnightblue" d="M513.24,-266.46C532.92,-255.45 566.74,-237.18 597,-224 606.43,-219.89 616.81,-215.92 626.53,-212.43"/>
<polygon fill="midnightblue" stroke="midnightblue" points="627.7,-215.73 635.97,-209.11 625.37,-209.12 627.7,-215.73"/>
</g>
<!-- Node10 -->
<g id="node10" class="node">
<title>Node10</title>
<g id="a_node10"><a xlink:href="printfmt_8cc.html#af4b46892c76c8bfd27efdb20847eb7c8" target="_top" xlink:title=" ">
<polygon fill="white" stroke="black" points="632.5,-380.5 632.5,-399.5 697.5,-399.5 697.5,-380.5 632.5,-380.5"/>
<text text-anchor="middle" x="665" y="-387.5" font-family="Helvetica,sans-Serif" font-size="10.00">_getUIntVa</text>
</a>
</g>
</g>
<!-- Node8&#45;&gt;Node10 -->
<g id="edge9" class="edge">
<title>Node8&#45;&gt;Node10</title>
<path fill="none" stroke="midnightblue" d="M503.97,-285.67C519.29,-304.86 556.3,-347.87 597,-371 604.87,-375.47 613.86,-378.95 622.65,-381.64"/>
<polygon fill="midnightblue" stroke="midnightblue" points="621.84,-385.05 632.41,-384.35 623.71,-378.3 621.84,-385.05"/>
</g>
<!-- Node11 -->
<g id="node11" class="node">
<title>Node11</title>
<g id="a_node11"><a xlink:href="namespacestr.html#a062221f630647cf300f0dd982c4ed904" target="_top" xlink:title=" ">
<polygon fill="white" stroke="black" points="1267,-209.5 1267,-228.5 1325,-228.5 1325,-209.5 1267,-209.5"/>
<text text-anchor="middle" x="1296" y="-216.5" font-family="Helvetica,sans-Serif" font-size="10.00">str::count</text>
</a>
</g>
</g>
<!-- Node8&#45;&gt;Node11 -->
<g id="edge10" class="edge">
<title>Node8&#45;&gt;Node11</title>
<path fill="none" stroke="midnightblue" d="M541.36,-266.46C558.68,-263.06 578.7,-259.46 597,-257 701.29,-242.98 727.77,-238 833,-238 833,-238 833,-238 996,-238 1089.77,-238 1199.75,-228.58 1256.61,-223"/>
<polygon fill="midnightblue" stroke="midnightblue" points="1256.99,-226.48 1266.59,-222.01 1256.29,-219.52 1256.99,-226.48"/>
</g>
<!-- Node12 -->
<g id="node12" class="node">
<title>Node12</title>
<g id="a_node12"><a xlink:href="printfmt_8cc.html#a0e3e484ece5e75b9f5fbe337f0ae8ae3" target="_top" xlink:title=" ">
<polygon fill="white" stroke="black" points="638.5,-266.5 638.5,-285.5 691.5,-285.5 691.5,-266.5 638.5,-266.5"/>
<text text-anchor="middle" x="665" y="-273.5" font-family="Helvetica,sans-Serif" font-size="10.00">describe</text>
</a>
</g>
</g>
<!-- Node8&#45;&gt;Node12 -->
<g id="edge11" class="edge">
<title>Node8&#45;&gt;Node12</title>
<path fill="none" stroke="midnightblue" d="M555.55,-276C579.73,-276 606.91,-276 628.02,-276"/>
<polygon fill="midnightblue" stroke="midnightblue" points="628.15,-279.5 638.15,-276 628.15,-272.5 628.15,-279.5"/>
</g>
<!-- Node14 -->
<g id="node14" class="node">
<title>Node14</title>
<g id="a_node14"><a xlink:href="namespaceconsole_1_1ge.html#a7e301813fd34fde772376afc5fdad95d" target="_top" xlink:title=" ">
<polygon fill="white" stroke="black" points="602,-342.5 602,-361.5 728,-361.5 728,-342.5 602,-342.5"/>
<text text-anchor="middle" x="665" y="-349.5" font-family="Helvetica,sans-Serif" font-size="10.00">console::ge::printNumber</text>
</a>
</g>
</g>
<!-- Node8&#45;&gt;Node14 -->
<g id="edge13" class="edge">
<title>Node8&#45;&gt;Node14</title>
<path fill="none" stroke="midnightblue" d="M513.24,-285.54C532.92,-296.55 566.74,-314.82 597,-328 606,-331.92 615.86,-335.71 625.18,-339.09"/>
<polygon fill="midnightblue" stroke="midnightblue" points="624.05,-342.4 634.65,-342.44 626.39,-335.8 624.05,-342.4"/>
</g>
<!-- Node8&#45;&gt;Node15 -->
<g id="edge23" class="edge">
<title>Node8&#45;&gt;Node15</title>
<path fill="none" stroke="midnightblue" d="M538.78,-285.55C600.31,-299.45 714.45,-325.22 781.03,-340.26"/>
<polygon fill="midnightblue" stroke="midnightblue" points="780.37,-343.7 790.9,-342.49 781.91,-336.87 780.37,-343.7"/>
</g>
<!-- Node13 -->
<g id="node13" class="node">
<title>Node13</title>
<g id="a_node13"><a xlink:href="namespacemonitor.html#a318993193c866642f8389a1c1f285739" target="_top" xlink:title=" ">
<polygon fill="white" stroke="black" points="797,-266.5 797,-285.5 871,-285.5 871,-266.5 797,-266.5"/>
<text text-anchor="middle" x="834" y="-273.5" font-family="Helvetica,sans-Serif" font-size="10.00">monitor::fuck</text>
</a>
</g>
</g>
<!-- Node12&#45;&gt;Node13 -->
<g id="edge12" class="edge">
<title>Node12&#45;&gt;Node13</title>
<path fill="none" stroke="midnightblue" d="M691.73,-276C716.96,-276 756.01,-276 786.66,-276"/>
<polygon fill="midnightblue" stroke="midnightblue" points="786.7,-279.5 796.7,-276 786.7,-272.5 786.7,-279.5"/>
</g>
<!-- Node14&#45;&gt;Node15 -->
<g id="edge14" class="edge">
<title>Node14&#45;&gt;Node15</title>
<path fill="none" stroke="midnightblue" d="M728.18,-352C741.49,-352 755.56,-352 768.93,-352"/>
<polygon fill="midnightblue" stroke="midnightblue" points="769,-355.5 779,-352 769,-348.5 769,-355.5"/>
</g>
<!-- Node16 -->
<g id="node16" class="node">
<title>Node16</title>
<g id="a_node16"><a xlink:href="namespaceconsole_1_1serial.html#a3a7c1f95ae3c24136ea63bb31fdf0391" target="_top" xlink:title=" ">
<polygon fill="white" stroke="black" points="935,-342.5 935,-361.5 1055,-361.5 1055,-342.5 935,-342.5"/>
<text text-anchor="middle" x="995" y="-349.5" font-family="Helvetica,sans-Serif" font-size="10.00">console::serial::putChar</text>
</a>
</g>
</g>
<!-- Node15&#45;&gt;Node16 -->
<g id="edge15" class="edge">
<title>Node15&#45;&gt;Node16</title>
<path fill="none" stroke="midnightblue" d="M889.27,-352C900.62,-352 912.72,-352 924.53,-352"/>
<polygon fill="midnightblue" stroke="midnightblue" points="924.8,-355.5 934.8,-352 924.8,-348.5 924.8,-355.5"/>
</g>
<!-- Node19 -->
<g id="node19" class="node">
<title>Node19</title>
<g id="a_node19"><a xlink:href="namespaceconsole_1_1cga.html#afa19057ca041b39682d5d4831c43dfa0" target="_top" xlink:title=" ">
<polygon fill="white" stroke="black" points="938.5,-304.5 938.5,-323.5 1051.5,-323.5 1051.5,-304.5 938.5,-304.5"/>
<text text-anchor="middle" x="995" y="-311.5" font-family="Helvetica,sans-Serif" font-size="10.00">console::cga::putChar</text>
</a>
</g>
</g>
<!-- Node15&#45;&gt;Node19 -->
<g id="edge18" class="edge">
<title>Node15&#45;&gt;Node19</title>
<path fill="none" stroke="midnightblue" d="M875.12,-342.41C896.1,-337.4 921.98,-331.21 944.23,-325.89"/>
<polygon fill="midnightblue" stroke="midnightblue" points="945.25,-329.25 954.17,-323.52 943.63,-322.44 945.25,-329.25"/>
</g>
<!-- Node17 -->
<g id="node17" class="node">
<title>Node17</title>
<g id="a_node17"><a xlink:href="namespaceconsole_1_1serial.html#aa5605d4537106bb1c2bab72d7d1a5824" target="_top" xlink:title=" ">
<polygon fill="white" stroke="black" points="1109,-342.5 1109,-361.5 1213,-361.5 1213,-342.5 1109,-342.5"/>
<text text-anchor="middle" x="1161" y="-349.5" font-family="Helvetica,sans-Serif" font-size="10.00">console::serial::sout</text>
</a>
</g>
</g>
<!-- Node16&#45;&gt;Node17 -->
<g id="edge16" class="edge">
<title>Node16&#45;&gt;Node17</title>
<path fill="none" stroke="midnightblue" d="M1055.21,-352C1069.31,-352 1084.39,-352 1098.59,-352"/>
<polygon fill="midnightblue" stroke="midnightblue" points="1098.74,-355.5 1108.74,-352 1098.74,-348.5 1098.74,-355.5"/>
</g>
<!-- Node18 -->
<g id="node18" class="node">
<title>Node18</title>
<g id="a_node18"><a xlink:href="x86_8h.html#ade961b44e45ddacbc3c3b7609cf36dc6" target="_top" xlink:title=" ">
<polygon fill="white" stroke="black" points="1278.5,-323.5 1278.5,-342.5 1313.5,-342.5 1313.5,-323.5 1278.5,-323.5"/>
<text text-anchor="middle" x="1296" y="-330.5" font-family="Helvetica,sans-Serif" font-size="10.00">outb</text>
</a>
</g>
</g>
<!-- Node17&#45;&gt;Node18 -->
<g id="edge17" class="edge">
<title>Node17&#45;&gt;Node18</title>
<path fill="none" stroke="midnightblue" d="M1213.04,-344.71C1231.85,-342.02 1252.4,-339.09 1268.22,-336.83"/>
<polygon fill="midnightblue" stroke="midnightblue" points="1268.94,-340.26 1278.34,-335.38 1267.95,-333.33 1268.94,-340.26"/>
</g>
<!-- Node20 -->
<g id="node20" class="node">
<title>Node20</title>
<g id="a_node20"><a xlink:href="namespacemem.html#a64d9d05b439041901498c606de606431" target="_top" xlink:title=" ">
<polygon fill="white" stroke="black" points="1128.5,-266.5 1128.5,-285.5 1193.5,-285.5 1193.5,-266.5 1128.5,-266.5"/>
<text text-anchor="middle" x="1161" y="-273.5" font-family="Helvetica,sans-Serif" font-size="10.00">mem::copy</text>
</a>
</g>
</g>
<!-- Node19&#45;&gt;Node20 -->
<g id="edge19" class="edge">
<title>Node19&#45;&gt;Node20</title>
<path fill="none" stroke="midnightblue" d="M1037.38,-304.41C1062.24,-298.65 1093.75,-291.35 1118.6,-285.59"/>
<polygon fill="midnightblue" stroke="midnightblue" points="1119.51,-288.97 1128.46,-283.31 1117.93,-282.15 1119.51,-288.97"/>
</g>
<!-- Node21 -->
<g id="node21" class="node">
<title>Node21</title>
<g id="a_node21"><a xlink:href="namespaceconsole_1_1cga.html#a06463d4dc68819e30615ba299d02a78f" target="_top" xlink:title=" ">
<polygon fill="white" stroke="black" points="1091,-304.5 1091,-323.5 1231,-323.5 1231,-304.5 1091,-304.5"/>
<text text-anchor="middle" x="1161" y="-311.5" font-family="Helvetica,sans-Serif" font-size="10.00">console::cga::cursorRefresh</text>
</a>
</g>
</g>
<!-- Node19&#45;&gt;Node21 -->
<g id="edge21" class="edge">
<title>Node19&#45;&gt;Node21</title>
<path fill="none" stroke="midnightblue" d="M1051.52,-314C1060.9,-314 1070.8,-314 1080.65,-314"/>
<polygon fill="midnightblue" stroke="midnightblue" points="1080.87,-317.5 1090.87,-314 1080.87,-310.5 1080.87,-317.5"/>
</g>
<!-- Node20&#45;&gt;Node11 -->
<g id="edge20" class="edge">
<title>Node20&#45;&gt;Node11</title>
<path fill="none" stroke="midnightblue" d="M1192.58,-266.4C1204.69,-262.33 1218.65,-257.3 1231,-252 1243.74,-246.53 1257.46,-239.6 1268.92,-233.51"/>
<polygon fill="midnightblue" stroke="midnightblue" points="1270.8,-236.47 1277.93,-228.64 1267.47,-230.31 1270.8,-236.47"/>
</g>
<!-- Node21&#45;&gt;Node18 -->
<g id="edge22" class="edge">
<title>Node21&#45;&gt;Node18</title>
<path fill="none" stroke="midnightblue" d="M1228.89,-323.56C1242.81,-325.54 1256.71,-327.53 1268.15,-329.16"/>
<polygon fill="midnightblue" stroke="midnightblue" points="1267.88,-332.66 1278.28,-330.61 1268.87,-325.73 1267.88,-332.66"/>
</g>
<!-- Node23 -->
<g id="node23" class="node">
<title>Node23</title>
<g id="a_node23"><a xlink:href="namespacevmem_1_1pgdir.html#a18669c6fe92ff279442cecceca1263cc" target="_top" xlink:title=" ">
<polygon fill="white" stroke="black" points="284,-98.5 284,-117.5 393,-117.5 393,-98.5 284,-98.5"/>
<text text-anchor="middle" x="338.5" y="-105.5" font-family="Helvetica,sans-Serif" font-size="10.00">vmem::pgdir::findInfo</text>
</a>
</g>
</g>
<!-- Node22&#45;&gt;Node23 -->
<g id="edge26" class="edge">
<title>Node22&#45;&gt;Node23</title>
<path fill="none" stroke="midnightblue" d="M238.77,-108C250.11,-108 262.18,-108 273.84,-108"/>
<polygon fill="midnightblue" stroke="midnightblue" points="273.96,-111.5 283.96,-108 273.96,-104.5 273.96,-111.5"/>
</g>
<!-- Node30 -->
<g id="node30" class="node">
<title>Node30</title>
<g id="a_node30"><a xlink:href="namespacevmem_1_1pgdir.html#a972bb045d4c58b0ea9c569e05831bbb6" target="_top" xlink:title=" ">
<polygon fill="white" stroke="black" points="597,-0.5 597,-19.5 733,-19.5 733,-0.5 597,-0.5"/>
<text text-anchor="middle" x="665" y="-7.5" font-family="Helvetica,sans-Serif" font-size="10.00">vmem::pgdir::invalidateTLB</text>
</a>
</g>
</g>
<!-- Node22&#45;&gt;Node30 -->
<g id="edge41" class="edge">
<title>Node22&#45;&gt;Node30</title>
<path fill="none" stroke="midnightblue" d="M231.8,-98.42C320.27,-80.33 511.71,-41.16 607.3,-21.6"/>
<polygon fill="midnightblue" stroke="midnightblue" points="608.27,-24.98 617.36,-19.54 606.86,-18.12 608.27,-24.98"/>
</g>
<!-- Node23&#45;&gt;Node4 -->
<g id="edge40" class="edge">
<title>Node23&#45;&gt;Node4</title>
<path fill="none" stroke="midnightblue" d="M393.28,-114.59C401.85,-115.64 410.86,-116.75 419.81,-117.84"/>
<polygon fill="midnightblue" stroke="midnightblue" points="419.53,-121.34 429.88,-119.08 420.38,-114.39 419.53,-121.34"/>
</g>
<!-- Node24 -->
<g id="node24" class="node">
<title>Node24</title>
<g id="a_node24"><a xlink:href="namespacevmem_1_1pgdir.html#a933a8f939084dabdb1a4b5401bebf8d7" target="_top" xlink:title=" ">
<polygon fill="white" stroke="black" points="442,-78.5 442,-97.5 549,-97.5 549,-78.5 442,-78.5"/>
<text text-anchor="middle" x="495.5" y="-85.5" font-family="Helvetica,sans-Serif" font-size="10.00">vmem::pgdir::findPte</text>
</a>
</g>
</g>
<!-- Node23&#45;&gt;Node24 -->
<g id="edge27" class="edge">
<title>Node23&#45;&gt;Node24</title>
<path fill="none" stroke="midnightblue" d="M393.28,-101.06C405.7,-99.46 419.01,-97.74 431.78,-96.09"/>
<polygon fill="midnightblue" stroke="midnightblue" points="432.4,-99.54 441.87,-94.79 431.5,-92.6 432.4,-99.54"/>
</g>
<!-- Node25 -->
<g id="node25" class="node">
<title>Node25</title>
<g id="a_node25"><a xlink:href="structvmem_1_1_page_info.html#afcdcb7e941219a8ec999353658e3c2aa" target="_top" xlink:title=" ">
<polygon fill="white" stroke="black" points="607.5,-114.5 607.5,-133.5 722.5,-133.5 722.5,-114.5 607.5,-114.5"/>
<text text-anchor="middle" x="665" y="-121.5" font-family="Helvetica,sans-Serif" font-size="10.00">vmem::PageInfo::alloc</text>
</a>
</g>
</g>
<!-- Node24&#45;&gt;Node25 -->
<g id="edge28" class="edge">
<title>Node24&#45;&gt;Node25</title>
<path fill="none" stroke="midnightblue" d="M540.95,-97.55C562.04,-102.09 587.44,-107.55 609.67,-112.32"/>
<polygon fill="midnightblue" stroke="midnightblue" points="609.12,-115.79 619.64,-114.47 610.59,-108.94 609.12,-115.79"/>
</g>
<!-- Node26 -->
<g id="node26" class="node">
<title>Node26</title>
<g id="a_node26"><a xlink:href="namespacemem.html#a981dd0cb1408b798a79443c6245e9c55" target="_top" xlink:title=" ">
<polygon fill="white" stroke="black" points="801.5,-152.5 801.5,-171.5 866.5,-171.5 866.5,-152.5 801.5,-152.5"/>
<text text-anchor="middle" x="834" y="-159.5" font-family="Helvetica,sans-Serif" font-size="10.00">mem::clear</text>
</a>
</g>
</g>
<!-- Node24&#45;&gt;Node26 -->
<g id="edge35" class="edge">
<title>Node24&#45;&gt;Node26</title>
<path fill="none" stroke="midnightblue" d="M537.66,-97.58C545.7,-100.32 553.84,-103.75 561,-108 580.19,-119.4 576.68,-133.78 597,-143 659.95,-171.55 742.03,-170.79 790.95,-166.91"/>
<polygon fill="midnightblue" stroke="midnightblue" points="791.5,-170.37 801.16,-166.01 790.89,-163.4 791.5,-170.37"/>
</g>
<!-- Node28 -->
<g id="node28" class="node">
<title>Node28</title>
<g id="a_node28"><a xlink:href="structvmem_1_1_page_info.html#afc863f1d364462ddd2c20bf31f588337" target="_top" xlink:title=" ">
<polygon fill="white" stroke="black" points="769,-76.5 769,-95.5 899,-95.5 899,-76.5 769,-76.5"/>
<text text-anchor="middle" x="834" y="-83.5" font-family="Helvetica,sans-Serif" font-size="10.00">vmem::PageInfo::toKernV</text>
</a>
</g>
</g>
<!-- Node24&#45;&gt;Node28 -->
<g id="edge38" class="edge">
<title>Node24&#45;&gt;Node28</title>
<path fill="none" stroke="midnightblue" d="M549.08,-87.69C605.28,-87.35 694.87,-86.82 758.37,-86.44"/>
<polygon fill="midnightblue" stroke="midnightblue" points="758.74,-89.94 768.72,-86.38 758.7,-82.94 758.74,-89.94"/>
</g>
<!-- Node29 -->
<g id="node29" class="node">
<title>Node29</title>
<g id="a_node29"><a xlink:href="structvmem_1_1_page_info.html#accf2071c7875c29c9aa78a01ef5963a1" target="_top" xlink:title=" ">
<polygon fill="white" stroke="black" points="935,-57.5 935,-76.5 1055,-76.5 1055,-57.5 935,-57.5"/>
<text text-anchor="middle" x="995" y="-64.5" font-family="Helvetica,sans-Serif" font-size="10.00">vmem::PageInfo::toPhy</text>
</a>
</g>
</g>
<!-- Node24&#45;&gt;Node29 -->
<g id="edge39" class="edge">
<title>Node24&#45;&gt;Node29</title>
<path fill="none" stroke="midnightblue" d="M549.18,-82.73C604.02,-77.53 692.43,-69.95 769,-67 821.15,-64.99 880.14,-65.08 924.64,-65.62"/>
<polygon fill="midnightblue" stroke="midnightblue" points="924.71,-69.13 934.76,-65.76 924.81,-62.13 924.71,-69.13"/>
</g>
<!-- Node24&#45;&gt;Node30 -->
<g id="edge36" class="edge">
<title>Node24&#45;&gt;Node30</title>
<path fill="none" stroke="midnightblue" d="M512.49,-78.45C532.01,-67.01 566.23,-47.68 597,-34 605.79,-30.09 615.43,-26.34 624.59,-23.01"/>
<polygon fill="midnightblue" stroke="midnightblue" points="626.02,-26.22 634.27,-19.58 623.68,-19.62 626.02,-26.22"/>
</g>
<!-- Node25&#45;&gt;Node26 -->
<g id="edge29" class="edge">
<title>Node25&#45;&gt;Node26</title>
<path fill="none" stroke="midnightblue" d="M708.14,-133.59C733.62,-139.39 765.97,-146.75 791.36,-152.52"/>
<polygon fill="midnightblue" stroke="midnightblue" points="790.89,-156.01 801.42,-154.81 792.44,-149.18 790.89,-156.01"/>
</g>
<!-- Node25&#45;&gt;Node28 -->
<g id="edge33" class="edge">
<title>Node25&#45;&gt;Node28</title>
<path fill="none" stroke="midnightblue" d="M708.14,-114.41C730.38,-109.35 757.85,-103.1 781.36,-97.75"/>
<polygon fill="midnightblue" stroke="midnightblue" points="782.19,-101.15 791.16,-95.52 780.63,-94.33 782.19,-101.15"/>
</g>
<!-- Node26&#45;&gt;Node11 -->
<g id="edge30" class="edge">
<title>Node26&#45;&gt;Node11</title>
<path fill="none" stroke="midnightblue" d="M866.5,-166.58C886.18,-169.39 912.05,-173.02 935,-176 1052.08,-191.19 1190.84,-207.2 1256.67,-214.68"/>
<polygon fill="midnightblue" stroke="midnightblue" points="1256.64,-218.2 1266.97,-215.85 1257.43,-211.24 1256.64,-218.2"/>
</g>
<!-- Node27 -->
<g id="node27" class="node">
<title>Node27</title>
<g id="a_node27"><a xlink:href="namespacemem.html#adbaba9127c03fb914f752bfe19d6d089" target="_top" xlink:title=" ">
<polygon fill="white" stroke="black" points="1132,-152.5 1132,-171.5 1190,-171.5 1190,-152.5 1132,-152.5"/>
<text text-anchor="middle" x="1161" y="-159.5" font-family="Helvetica,sans-Serif" font-size="10.00">mem::set</text>
</a>
</g>
</g>
<!-- Node26&#45;&gt;Node27 -->
<g id="edge31" class="edge">
<title>Node26&#45;&gt;Node27</title>
<path fill="none" stroke="midnightblue" d="M866.75,-162C926.82,-162 1056.85,-162 1121.67,-162"/>
<polygon fill="midnightblue" stroke="midnightblue" points="1121.86,-165.5 1131.86,-162 1121.86,-158.5 1121.86,-165.5"/>
</g>
<!-- Node27&#45;&gt;Node11 -->
<g id="edge32" class="edge">
<title>Node27&#45;&gt;Node11</title>
<path fill="none" stroke="midnightblue" d="M1190.21,-170.81C1202.84,-175.01 1217.83,-180.35 1231,-186 1243.74,-191.47 1257.46,-198.4 1268.92,-204.49"/>
<polygon fill="midnightblue" stroke="midnightblue" points="1267.47,-207.69 1277.93,-209.36 1270.8,-201.53 1267.47,-207.69"/>
</g>
<!-- Node28&#45;&gt;Node29 -->
<g id="edge34" class="edge">
<title>Node28&#45;&gt;Node29</title>
<path fill="none" stroke="midnightblue" d="M899.21,-78.33C907.7,-77.31 916.43,-76.27 924.99,-75.25"/>
<polygon fill="midnightblue" stroke="midnightblue" points="925.43,-78.72 934.94,-74.06 924.6,-71.77 925.43,-78.72"/>
</g>
<!-- Node31 -->
<g id="node31" class="node">
<title>Node31</title>
<g id="a_node31"><a xlink:href="x86_8h.html#a2c1c4c8523ed258a75c563a8f94d1686" target="_top" xlink:title=" ">
<polygon fill="white" stroke="black" points="813,-0.5 813,-19.5 855,-19.5 855,-0.5 813,-0.5"/>
<text text-anchor="middle" x="834" y="-7.5" font-family="Helvetica,sans-Serif" font-size="10.00">invlpg</text>
</a>
</g>
</g>
<!-- Node30&#45;&gt;Node31 -->
<g id="edge37" class="edge">
<title>Node30&#45;&gt;Node31</title>
<path fill="none" stroke="midnightblue" d="M733.44,-10C757.58,-10 783.58,-10 802.95,-10"/>
<polygon fill="midnightblue" stroke="midnightblue" points="802.98,-13.5 812.98,-10 802.98,-6.5 802.98,-13.5"/>
</g>
</g>
</svg>
