<?xml version="1.0" encoding="UTF-8" standalone="no"?>
<!DOCTYPE svg PUBLIC "-//W3C//DTD SVG 1.1//EN"
 "http://www.w3.org/Graphics/SVG/1.1/DTD/svg11.dtd">
<!-- Generated by graphviz version 2.44.1 (20200629.0846)
 -->
<!-- Title: trap::Frame::dispatch Pages: 1 -->
<!--zoomable 421 -->
<svg id="main" version="1.1" xmlns="http://www.w3.org/2000/svg" xmlns:xlink="http://www.w3.org/1999/xlink" xml:space="preserve" onload="init(evt)">
<style type="text/css"><![CDATA[
.edge:hover path { stroke: red; }
.edge:hover polygon { stroke: red; fill: red; }
]]></style>
<script type="text/javascript"><![CDATA[
var edges = document.getElementsByTagName('g');
if (edges && edges.length) {
  for (var i=0;i<edges.length;i++) {
    if (edges[i].id.substr(0,4)=='edge') {
      edges[i].setAttribute('class','edge');
    }
  }
}
]]></script>
        <defs>
                <circle id="rim" cx="0" cy="0" r="7"/>
                <circle id="rim2" cx="0" cy="0" r="3.5"/>
                <g id="zoomPlus">
                        <use xlink:href="#rim" fill="#404040">
                                <set attributeName="fill" to="#808080" begin="zoomplus.mouseover" end="zoomplus.mouseout"/>
                        </use>
                        <path d="M-4,0h8M0,-4v8" fill="none" stroke="white" stroke-width="1.5" pointer-events="none"/>
                </g>
                <g id="zoomMin">
                        <use xlink:href="#rim" fill="#404040">
                                <set attributeName="fill" to="#808080" begin="zoomminus.mouseover" end="zoomminus.mouseout"/>
                        </use>
                        <path d="M-4,0h8" fill="none" stroke="white" stroke-width="1.5" pointer-events="none"/>
                </g>
                <g id="dirArrow">
                        <path fill="none" stroke="white" stroke-width="1.5" d="M0,-3.0v7 M-2.5,-0.5L0,-3.0L2.5,-0.5"/>
                </g>
               <g id="resetDef">
                       <use xlink:href="#rim2" fill="#404040">
                               <set attributeName="fill" to="#808080" begin="reset.mouseover" end="reset.mouseout"/>
                       </use>
               </g>
        </defs>

<script type="text/javascript">
var viewWidth = 1847;
var viewHeight = 421;
var sectionId = 'dynsection-2';
</script>
<script xlink:href="svgpan.js"/>
<svg id="graph" class="graph">
<g id="viewport">
<title>trap::Frame::dispatch</title>
<polygon fill="white" stroke="transparent" points="-4,4 -4,-416.58 1843,-416.58 1843,4 -4,4"/>
<!-- Node1 -->
<g id="node1" class="node">
<title>Node1</title>
<g id="a_node1"><a xlink:title=" ">
<polygon fill="#bfbfbf" stroke="black" points="0,-190.5 0,-209.5 110,-209.5 110,-190.5 0,-190.5"/>
<text text-anchor="middle" x="55" y="-197.5" font-family="Helvetica,sans-Serif" font-size="10.00">trap::Frame::dispatch</text>
</a>
</g>
</g>
<!-- Node2 -->
<g id="node2" class="node">
<title>Node2</title>
<g id="a_node2"><a xlink:href="x86_8h.html#a7212dae3820e33d3e65b624a9fee1b04" target="_top" xlink:title=" ">
<polygon fill="white" stroke="black" points="174.5,-304.5 174.5,-323.5 236.5,-323.5 236.5,-304.5 174.5,-304.5"/>
<text text-anchor="middle" x="205.5" y="-311.5" font-family="Helvetica,sans-Serif" font-size="10.00">breakpoint</text>
</a>
</g>
</g>
<!-- Node1&#45;&gt;Node2 -->
<g id="edge1" class="edge">
<title>Node1&#45;&gt;Node2</title>
<path fill="none" stroke="midnightblue" d="M63.44,-209.65C77.72,-227.62 110.68,-266.49 146,-290 151.89,-293.92 158.53,-297.39 165.16,-300.39"/>
<polygon fill="midnightblue" stroke="midnightblue" points="164.22,-303.79 174.79,-304.44 166.93,-297.33 164.22,-303.79"/>
</g>
<!-- Node3 -->
<g id="node3" class="node">
<title>Node3</title>
<g id="a_node3"><a xlink:href="namespacetrap_1_1handler.html#aa067cfbe3cae2802d8b48a14d125daa3" target="_top" xlink:title=" ">
<polygon fill="white" stroke="black" points="301,-228.5 301,-247.5 404,-247.5 404,-228.5 301,-228.5"/>
<text text-anchor="middle" x="352.5" y="-235.5" font-family="Helvetica,sans-Serif" font-size="10.00">trap::handler::debug</text>
</a>
</g>
</g>
<!-- Node1&#45;&gt;Node3 -->
<g id="edge2" class="edge">
<title>Node1&#45;&gt;Node3</title>
<path fill="none" stroke="midnightblue" d="M110.21,-208.77C121.99,-210.59 134.41,-212.42 146,-214 194.56,-220.61 249.73,-226.99 290.67,-231.51"/>
<polygon fill="midnightblue" stroke="midnightblue" points="290.44,-235.01 300.76,-232.62 291.2,-228.05 290.44,-235.01"/>
</g>
<!-- Node4 -->
<g id="node4" class="node">
<title>Node4</title>
<g id="a_node4"><a xlink:href="namespacemonitor.html#ac02f947e274eb7d38cdfa803c21ef579" target="_top" xlink:title=" ">
<polygon fill="white" stroke="black" points="440,-266.5 440,-285.5 516,-285.5 516,-266.5 440,-266.5"/>
<text text-anchor="middle" x="478" y="-273.5" font-family="Helvetica,sans-Serif" font-size="10.00">monitor::main</text>
</a>
</g>
</g>
<!-- Node1&#45;&gt;Node4 -->
<g id="edge41" class="edge">
<title>Node1&#45;&gt;Node4</title>
<path fill="none" stroke="midnightblue" d="M76.64,-209.6C94.6,-217.57 121.51,-228.59 146,-235 244.7,-260.83 364.33,-270.52 429.33,-274.06"/>
<polygon fill="midnightblue" stroke="midnightblue" points="429.49,-277.57 439.66,-274.6 429.85,-270.58 429.49,-277.57"/>
</g>
<!-- Node11 -->
<g id="node11" class="node">
<title>Node11</title>
<g id="a_node11"><a xlink:href="namespaceconsole_1_1out.html#ac6f663e3971b66b8e130ee94755a150e" target="_top" xlink:title=" ">
<polygon fill="white" stroke="black" points="556.5,-180.5 556.5,-199.5 651.5,-199.5 651.5,-180.5 556.5,-180.5"/>
<text text-anchor="middle" x="604" y="-187.5" font-family="Helvetica,sans-Serif" font-size="10.00">console::out::print</text>
</a>
</g>
</g>
<!-- Node1&#45;&gt;Node11 -->
<g id="edge49" class="edge">
<title>Node1&#45;&gt;Node11</title>
<path fill="none" stroke="midnightblue" d="M110.2,-199.01C214.02,-197.11 440.03,-192.98 546,-191.04"/>
<polygon fill="midnightblue" stroke="midnightblue" points="546.25,-194.54 556.18,-190.86 546.12,-187.54 546.25,-194.54"/>
</g>
<!-- Node16 -->
<g id="node16" class="node">
<title>Node16</title>
<g id="a_node16"><a xlink:href="printfmt_8cc.html#a0e3e484ece5e75b9f5fbe337f0ae8ae3" target="_top" xlink:title=" ">
<polygon fill="white" stroke="black" points="1177.5,-114.5 1177.5,-133.5 1230.5,-133.5 1230.5,-114.5 1177.5,-114.5"/>
<text text-anchor="middle" x="1204" y="-121.5" font-family="Helvetica,sans-Serif" font-size="10.00">describe</text>
</a>
</g>
</g>
<!-- Node1&#45;&gt;Node16 -->
<g id="edge40" class="edge">
<title>Node1&#45;&gt;Node16</title>
<path fill="none" stroke="midnightblue" d="M65.14,-190.36C80.52,-174.6 113.14,-143.16 146,-124 230.13,-74.96 254.12,-48 351.5,-48 351.5,-48 351.5,-48 897,-48 999.55,-48 1115.88,-88.7 1170.9,-110.53"/>
<polygon fill="midnightblue" stroke="midnightblue" points="1169.86,-113.89 1180.45,-114.37 1172.48,-107.39 1169.86,-113.89"/>
</g>
<!-- Node31 -->
<g id="node31" class="node">
<title>Node31</title>
<g id="a_node31"><a xlink:href="namespacetrap_1_1handler.html#a65cff701e96f1293ec6f8dcb105724a5" target="_top" xlink:title=" ">
<polygon fill="white" stroke="black" points="146,-133.5 146,-152.5 265,-152.5 265,-133.5 146,-133.5"/>
<text text-anchor="middle" x="205.5" y="-140.5" font-family="Helvetica,sans-Serif" font-size="10.00">trap::handler::pageFault</text>
</a>
</g>
</g>
<!-- Node1&#45;&gt;Node31 -->
<g id="edge42" class="edge">
<title>Node1&#45;&gt;Node31</title>
<path fill="none" stroke="midnightblue" d="M80.86,-190.46C105.27,-181.09 142.72,-166.71 170.01,-156.24"/>
<polygon fill="midnightblue" stroke="midnightblue" points="171.48,-159.42 179.56,-152.57 168.97,-152.89 171.48,-159.42"/>
</g>
<!-- Node35 -->
<g id="node35" class="node">
<title>Node35</title>
<g id="a_node35"><a xlink:href="stdlib_8hh.html#ab9656f5950c15e0f988c0cde1c3c07dd" target="_top" xlink:title=" ">
<polygon fill="white" stroke="black" points="182,-0.5 182,-19.5 229,-19.5 229,-0.5 182,-0.5"/>
<text text-anchor="middle" x="205.5" y="-7.5" font-family="Helvetica,sans-Serif" font-size="10.00">syscall</text>
</a>
</g>
</g>
<!-- Node1&#45;&gt;Node35 -->
<g id="edge50" class="edge">
<title>Node1&#45;&gt;Node35</title>
<path fill="none" stroke="midnightblue" d="M58.71,-190.3C67.03,-162.23 94.78,-79.99 146,-34 153.52,-27.25 163.19,-22.25 172.5,-18.62"/>
<polygon fill="midnightblue" stroke="midnightblue" points="173.67,-21.91 181.96,-15.31 171.36,-15.31 173.67,-21.91"/>
</g>
<!-- Node3&#45;&gt;Node4 -->
<g id="edge3" class="edge">
<title>Node3&#45;&gt;Node4</title>
<path fill="none" stroke="midnightblue" d="M384.66,-247.59C400.31,-252.4 419.47,-258.3 436.27,-263.47"/>
<polygon fill="midnightblue" stroke="midnightblue" points="435.26,-266.82 445.85,-266.41 437.32,-260.13 435.26,-266.82"/>
</g>
<!-- Node3&#45;&gt;Node11 -->
<g id="edge39" class="edge">
<title>Node3&#45;&gt;Node11</title>
<path fill="none" stroke="midnightblue" d="M404.29,-232.12C436.48,-228 478.89,-221.83 516,-214 531.2,-210.79 547.67,-206.47 562.15,-202.38"/>
<polygon fill="midnightblue" stroke="midnightblue" points="563.17,-205.73 571.82,-199.6 561.24,-199 563.17,-205.73"/>
</g>
<!-- Node5 -->
<g id="node5" class="node">
<title>Node5</title>
<g id="a_node5"><a xlink:href="namespacemonitor.html#a8b88ed0586263051a6af8dbff388e314" target="_top" xlink:title=" ">
<polygon fill="white" stroke="black" points="554,-237.5 554,-256.5 654,-256.5 654,-237.5 554,-237.5"/>
<text text-anchor="middle" x="604" y="-244.5" font-family="Helvetica,sans-Serif" font-size="10.00">monitor::parseCmd</text>
</a>
</g>
</g>
<!-- Node4&#45;&gt;Node5 -->
<g id="edge4" class="edge">
<title>Node4&#45;&gt;Node5</title>
<path fill="none" stroke="midnightblue" d="M516.2,-267.3C527.57,-264.64 540.27,-261.67 552.38,-258.84"/>
<polygon fill="midnightblue" stroke="midnightblue" points="553.42,-262.19 562.36,-256.5 551.83,-255.37 553.42,-262.19"/>
</g>
<!-- Node4&#45;&gt;Node11 -->
<g id="edge10" class="edge">
<title>Node4&#45;&gt;Node11</title>
<path fill="none" stroke="midnightblue" d="M494.22,-266.34C500.94,-262.02 508.91,-256.82 516,-252 538.59,-236.63 563.99,-218.42 581.49,-205.73"/>
<polygon fill="midnightblue" stroke="midnightblue" points="583.83,-208.35 589.86,-199.64 579.72,-202.69 583.83,-208.35"/>
</g>
<!-- Node26 -->
<g id="node26" class="node">
<title>Node26</title>
<g id="a_node26"><a xlink:href="namespaceconsole_1_1err.html#a124c7e8527c0e3fd2b9636411aea7e82" target="_top" xlink:title=" ">
<polygon fill="white" stroke="black" points="558,-275.5 558,-294.5 650,-294.5 650,-275.5 558,-275.5"/>
<text text-anchor="middle" x="604" y="-282.5" font-family="Helvetica,sans-Serif" font-size="10.00">console::err::print</text>
</a>
</g>
</g>
<!-- Node4&#45;&gt;Node26 -->
<g id="edge30" class="edge">
<title>Node4&#45;&gt;Node26</title>
<path fill="none" stroke="midnightblue" d="M516.2,-278.7C526.15,-279.42 537.12,-280.22 547.81,-280.99"/>
<polygon fill="midnightblue" stroke="midnightblue" points="547.71,-284.5 557.94,-281.73 548.22,-277.51 547.71,-284.5"/>
</g>
<!-- Node28 -->
<g id="node28" class="node">
<title>Node28</title>
<g id="a_node28"><a xlink:href="namespaceconsole_1_1in.html#afa763e7729f2e6fbdcf4c14e44ad7a29" target="_top" xlink:title=" ">
<polygon fill="white" stroke="black" points="552,-313.5 552,-332.5 656,-332.5 656,-313.5 552,-313.5"/>
<text text-anchor="middle" x="604" y="-320.5" font-family="Helvetica,sans-Serif" font-size="10.00">console::in::readline</text>
</a>
</g>
</g>
<!-- Node4&#45;&gt;Node28 -->
<g id="edge34" class="edge">
<title>Node4&#45;&gt;Node28</title>
<path fill="none" stroke="midnightblue" d="M503.64,-285.52C517.78,-290.97 535.87,-297.9 552,-304 557.14,-305.94 562.57,-307.98 567.9,-309.97"/>
<polygon fill="midnightblue" stroke="midnightblue" points="566.71,-313.26 577.3,-313.48 569.15,-306.71 566.71,-313.26"/>
</g>
<!-- Node6 -->
<g id="node6" class="node">
<title>Node6</title>
<g id="a_node6"><a xlink:href="namespacestr.html#ace5edf7e67a558a1c4ead28a66faba41" target="_top" xlink:title=" ">
<polygon fill="white" stroke="black" points="711.5,-237.5 711.5,-256.5 787.5,-256.5 787.5,-237.5 711.5,-237.5"/>
<text text-anchor="middle" x="749.5" y="-244.5" font-family="Helvetica,sans-Serif" font-size="10.00">str::cmpCase</text>
</a>
</g>
</g>
<!-- Node5&#45;&gt;Node6 -->
<g id="edge5" class="edge">
<title>Node5&#45;&gt;Node6</title>
<path fill="none" stroke="midnightblue" d="M654.38,-247C669.54,-247 686.16,-247 701.17,-247"/>
<polygon fill="midnightblue" stroke="midnightblue" points="701.27,-250.5 711.27,-247 701.27,-243.5 701.27,-250.5"/>
</g>
<!-- Node7 -->
<g id="node7" class="node">
<title>Node7</title>
<g id="a_node7"><a xlink:href="namespacestr.html#a12522233f7d73122d76de5c82e44a183" target="_top" xlink:title=" ">
<polygon fill="white" stroke="black" points="716,-199.5 716,-218.5 783,-218.5 783,-199.5 716,-199.5"/>
<text text-anchor="middle" x="749.5" y="-206.5" font-family="Helvetica,sans-Serif" font-size="10.00">str::splitWs</text>
</a>
</g>
</g>
<!-- Node5&#45;&gt;Node7 -->
<g id="edge6" class="edge">
<title>Node5&#45;&gt;Node7</title>
<path fill="none" stroke="midnightblue" d="M641.21,-237.41C660.9,-232.2 685.38,-225.72 705.97,-220.26"/>
<polygon fill="midnightblue" stroke="midnightblue" points="706.96,-223.62 715.74,-217.68 705.17,-216.85 706.96,-223.62"/>
</g>
<!-- Node8 -->
<g id="node8" class="node">
<title>Node8</title>
<g id="a_node8"><a xlink:href="namespacestr.html#a0e183e333ba05550c6b206906dbf0f10" target="_top" xlink:title=" ">
<polygon fill="white" stroke="black" points="870,-114.5 870,-133.5 922,-133.5 922,-114.5 870,-114.5"/>
<text text-anchor="middle" x="896" y="-121.5" font-family="Helvetica,sans-Serif" font-size="10.00">str::split</text>
</a>
</g>
</g>
<!-- Node7&#45;&gt;Node8 -->
<g id="edge7" class="edge">
<title>Node7&#45;&gt;Node8</title>
<path fill="none" stroke="midnightblue" d="M766.8,-199.41C791.84,-184.68 839.99,-156.36 869.62,-138.93"/>
<polygon fill="midnightblue" stroke="midnightblue" points="871.7,-141.77 878.54,-133.68 868.15,-135.73 871.7,-141.77"/>
</g>
<!-- Node9 -->
<g id="node9" class="node">
<title>Node9</title>
<g id="a_node9"><a xlink:href="namespacestr.html#a062221f630647cf300f0dd982c4ed904" target="_top" xlink:title=" ">
<polygon fill="white" stroke="black" points="1781,-190.5 1781,-209.5 1839,-209.5 1839,-190.5 1781,-190.5"/>
<text text-anchor="middle" x="1810" y="-197.5" font-family="Helvetica,sans-Serif" font-size="10.00">str::count</text>
</a>
</g>
</g>
<!-- Node8&#45;&gt;Node9 -->
<g id="edge8" class="edge">
<title>Node8&#45;&gt;Node9</title>
<path fill="none" stroke="midnightblue" d="M922.26,-117.66C939.77,-113.49 963.67,-108.22 985,-105 1081.17,-90.49 1105.74,-86 1203,-86 1203,-86 1203,-86 1510,-86 1619.86,-86 1738.41,-154.03 1786.67,-184.98"/>
<polygon fill="midnightblue" stroke="midnightblue" points="1784.82,-187.95 1795.1,-190.48 1788.64,-182.08 1784.82,-187.95"/>
</g>
<!-- Node10 -->
<g id="node10" class="node">
<title>Node10</title>
<g id="a_node10"><a xlink:href="namespacestr.html#a4b4d986113337f946299cef82449cf52" target="_top" xlink:title=" ">
<polygon fill="white" stroke="black" points="1020,-114.5 1020,-133.5 1070,-133.5 1070,-114.5 1020,-114.5"/>
<text text-anchor="middle" x="1045" y="-121.5" font-family="Helvetica,sans-Serif" font-size="10.00">str::find</text>
</a>
</g>
</g>
<!-- Node8&#45;&gt;Node10 -->
<g id="edge9" class="edge">
<title>Node8&#45;&gt;Node10</title>
<path fill="none" stroke="midnightblue" d="M922.27,-124C946.33,-124 982.73,-124 1009.47,-124"/>
<polygon fill="midnightblue" stroke="midnightblue" points="1009.55,-127.5 1019.55,-124 1009.55,-120.5 1009.55,-127.5"/>
</g>
<!-- Node12 -->
<g id="node12" class="node">
<title>Node12</title>
<g id="a_node12"><a xlink:href="namespaceconsole_1_1out.html#a8f791bfac54067cadb1b9f18117b987b" target="_top" xlink:title=" ">
<polygon fill="white" stroke="black" points="843,-214.5 843,-233.5 949,-233.5 949,-214.5 843,-214.5"/>
<text text-anchor="middle" x="896" y="-221.5" font-family="Helvetica,sans-Serif" font-size="10.00">console::out::printVa</text>
</a>
</g>
</g>
<!-- Node11&#45;&gt;Node12 -->
<g id="edge11" class="edge">
<title>Node11&#45;&gt;Node12</title>
<path fill="none" stroke="midnightblue" d="M651.58,-185.19C692.81,-182.07 754.43,-180.2 807,-190 827.86,-193.89 850.15,-202.55 867.07,-210.16"/>
<polygon fill="midnightblue" stroke="midnightblue" points="865.82,-213.44 876.37,-214.47 868.77,-207.09 865.82,-213.44"/>
</g>
<!-- Node13 -->
<g id="node13" class="node">
<title>Node13</title>
<g id="a_node13"><a xlink:href="namespaceconsole_1_1ge.html#af642934cb833142f133285fdb75ef7b7" target="_top" xlink:title=" ">
<polygon fill="white" stroke="black" points="985,-247.5 985,-266.5 1105,-266.5 1105,-247.5 985,-247.5"/>
<text text-anchor="middle" x="1045" y="-254.5" font-family="Helvetica,sans-Serif" font-size="10.00">console::ge::printFmtVa</text>
</a>
</g>
</g>
<!-- Node12&#45;&gt;Node13 -->
<g id="edge12" class="edge">
<title>Node12&#45;&gt;Node13</title>
<path fill="none" stroke="midnightblue" d="M939.52,-233.54C955.82,-237.2 974.61,-241.42 991.73,-245.27"/>
<polygon fill="midnightblue" stroke="midnightblue" points="991.05,-248.7 1001.58,-247.48 992.59,-241.87 991.05,-248.7"/>
</g>
<!-- Node19 -->
<g id="node19" class="node">
<title>Node19</title>
<g id="a_node19"><a xlink:href="namespaceconsole_1_1out.html#ad9fc97dff4404c2d21aedbb24691e7cb" target="_top" xlink:title=" ">
<polygon fill="white" stroke="black" points="1303,-304.5 1303,-323.5 1413,-323.5 1413,-304.5 1303,-304.5"/>
<text text-anchor="middle" x="1358" y="-311.5" font-family="Helvetica,sans-Serif" font-size="10.00">console::out::putChar</text>
</a>
</g>
</g>
<!-- Node12&#45;&gt;Node19 -->
<g id="edge29" class="edge">
<title>Node12&#45;&gt;Node19</title>
<path fill="none" stroke="midnightblue" d="M949.04,-216.19C1022.6,-207.35 1159.97,-199.02 1267,-240 1297.68,-251.75 1325.66,-278.38 1342.01,-296.27"/>
<polygon fill="midnightblue" stroke="midnightblue" points="1339.82,-299.08 1349.07,-304.26 1345.07,-294.45 1339.82,-299.08"/>
</g>
<!-- Node13&#45;&gt;Node9 -->
<g id="edge15" class="edge">
<title>Node13&#45;&gt;Node9</title>
<path fill="none" stroke="midnightblue" d="M1077,-247.46C1132.55,-231.23 1252.98,-200 1357,-200 1357,-200 1357,-200 1510,-200 1603.63,-200 1713.76,-200 1770.65,-200"/>
<polygon fill="midnightblue" stroke="midnightblue" points="1770.97,-203.5 1780.97,-200 1770.97,-196.5 1770.97,-203.5"/>
</g>
<!-- Node14 -->
<g id="node14" class="node">
<title>Node14</title>
<g id="a_node14"><a xlink:href="printfmt_8cc.html#a708ec6ee2b8bd2d7a453d8d9436ed3b3" target="_top" xlink:title=" ">
<polygon fill="white" stroke="black" points="1175,-304.5 1175,-323.5 1233,-323.5 1233,-304.5 1175,-304.5"/>
<text text-anchor="middle" x="1204" y="-311.5" font-family="Helvetica,sans-Serif" font-size="10.00">_getIntVa</text>
</a>
</g>
</g>
<!-- Node13&#45;&gt;Node14 -->
<g id="edge13" class="edge">
<title>Node13&#45;&gt;Node14</title>
<path fill="none" stroke="midnightblue" d="M1068.45,-266.59C1087.57,-274.62 1115.87,-286.14 1141,-295 1148.69,-297.71 1156.99,-300.41 1164.94,-302.88"/>
<polygon fill="midnightblue" stroke="midnightblue" points="1164.17,-306.31 1174.75,-305.88 1166.21,-299.61 1164.17,-306.31"/>
</g>
<!-- Node15 -->
<g id="node15" class="node">
<title>Node15</title>
<g id="a_node15"><a xlink:href="printfmt_8cc.html#af4b46892c76c8bfd27efdb20847eb7c8" target="_top" xlink:title=" ">
<polygon fill="white" stroke="black" points="1171.5,-266.5 1171.5,-285.5 1236.5,-285.5 1236.5,-266.5 1171.5,-266.5"/>
<text text-anchor="middle" x="1204" y="-273.5" font-family="Helvetica,sans-Serif" font-size="10.00">_getUIntVa</text>
</a>
</g>
</g>
<!-- Node13&#45;&gt;Node15 -->
<g id="edge14" class="edge">
<title>Node13&#45;&gt;Node15</title>
<path fill="none" stroke="midnightblue" d="M1105.35,-264.18C1123.91,-266.43 1143.98,-268.86 1161.07,-270.93"/>
<polygon fill="midnightblue" stroke="midnightblue" points="1160.94,-274.44 1171.29,-272.16 1161.78,-267.49 1160.94,-274.44"/>
</g>
<!-- Node13&#45;&gt;Node16 -->
<g id="edge16" class="edge">
<title>Node13&#45;&gt;Node16</title>
<path fill="none" stroke="midnightblue" d="M1057.29,-247.43C1083.87,-224.92 1150.61,-168.38 1183.74,-140.32"/>
<polygon fill="midnightblue" stroke="midnightblue" points="1186.02,-142.97 1191.39,-133.84 1181.5,-137.63 1186.02,-142.97"/>
</g>
<!-- Node18 -->
<g id="node18" class="node">
<title>Node18</title>
<g id="a_node18"><a xlink:href="namespaceconsole_1_1ge.html#a7e301813fd34fde772376afc5fdad95d" target="_top" xlink:title=" ">
<polygon fill="white" stroke="black" points="1141,-342.5 1141,-361.5 1267,-361.5 1267,-342.5 1141,-342.5"/>
<text text-anchor="middle" x="1204" y="-349.5" font-family="Helvetica,sans-Serif" font-size="10.00">console::ge::printNumber</text>
</a>
</g>
</g>
<!-- Node13&#45;&gt;Node18 -->
<g id="edge18" class="edge">
<title>Node13&#45;&gt;Node18</title>
<path fill="none" stroke="midnightblue" d="M1055.37,-266.57C1071.48,-282.5 1106.08,-314.55 1141,-333 1145.2,-335.22 1149.69,-337.22 1154.27,-339.02"/>
<polygon fill="midnightblue" stroke="midnightblue" points="1153.14,-342.33 1163.73,-342.42 1155.51,-335.74 1153.14,-342.33"/>
</g>
<!-- Node13&#45;&gt;Node19 -->
<g id="edge28" class="edge">
<title>Node13&#45;&gt;Node19</title>
<path fill="none" stroke="midnightblue" d="M1105.42,-248.16C1150.64,-243.53 1213.94,-241.61 1267,-257 1294.23,-264.9 1321.12,-283.77 1338.31,-297.65"/>
<polygon fill="midnightblue" stroke="midnightblue" points="1336.44,-300.65 1346.37,-304.36 1340.93,-295.27 1336.44,-300.65"/>
</g>
<!-- Node17 -->
<g id="node17" class="node">
<title>Node17</title>
<g id="a_node17"><a xlink:href="namespacemonitor.html#a318993193c866642f8389a1c1f285739" target="_top" xlink:title=" ">
<polygon fill="white" stroke="black" points="1321,-114.5 1321,-133.5 1395,-133.5 1395,-114.5 1321,-114.5"/>
<text text-anchor="middle" x="1358" y="-121.5" font-family="Helvetica,sans-Serif" font-size="10.00">monitor::fuck</text>
</a>
</g>
</g>
<!-- Node16&#45;&gt;Node17 -->
<g id="edge17" class="edge">
<title>Node16&#45;&gt;Node17</title>
<path fill="none" stroke="midnightblue" d="M1230.78,-124C1252.62,-124 1284.46,-124 1310.7,-124"/>
<polygon fill="midnightblue" stroke="midnightblue" points="1310.82,-127.5 1320.82,-124 1310.82,-120.5 1310.82,-127.5"/>
</g>
<!-- Node18&#45;&gt;Node19 -->
<g id="edge19" class="edge">
<title>Node18&#45;&gt;Node19</title>
<path fill="none" stroke="midnightblue" d="M1243.36,-342.41C1263.32,-337.42 1287.93,-331.27 1309.13,-325.97"/>
<polygon fill="midnightblue" stroke="midnightblue" points="1310.07,-329.34 1318.92,-323.52 1308.37,-322.55 1310.07,-329.34"/>
</g>
<!-- Node20 -->
<g id="node20" class="node">
<title>Node20</title>
<g id="a_node20"><a xlink:href="namespaceconsole_1_1serial.html#a3a7c1f95ae3c24136ea63bb31fdf0391" target="_top" xlink:title=" ">
<polygon fill="white" stroke="black" points="1449,-247.5 1449,-266.5 1569,-266.5 1569,-247.5 1449,-247.5"/>
<text text-anchor="middle" x="1509" y="-254.5" font-family="Helvetica,sans-Serif" font-size="10.00">console::serial::putChar</text>
</a>
</g>
</g>
<!-- Node19&#45;&gt;Node20 -->
<g id="edge20" class="edge">
<title>Node19&#45;&gt;Node20</title>
<path fill="none" stroke="midnightblue" d="M1383.94,-304.46C1408.44,-295.09 1446.01,-280.71 1473.4,-270.24"/>
<polygon fill="midnightblue" stroke="midnightblue" points="1474.89,-273.41 1482.98,-266.57 1472.39,-266.88 1474.89,-273.41"/>
</g>
<!-- Node23 -->
<g id="node23" class="node">
<title>Node23</title>
<g id="a_node23"><a xlink:href="namespaceconsole_1_1cga.html#afa19057ca041b39682d5d4831c43dfa0" target="_top" xlink:title=" ">
<polygon fill="white" stroke="black" points="1452.5,-304.5 1452.5,-323.5 1565.5,-323.5 1565.5,-304.5 1452.5,-304.5"/>
<text text-anchor="middle" x="1509" y="-311.5" font-family="Helvetica,sans-Serif" font-size="10.00">console::cga::putChar</text>
</a>
</g>
</g>
<!-- Node19&#45;&gt;Node23 -->
<g id="edge23" class="edge">
<title>Node19&#45;&gt;Node23</title>
<path fill="none" stroke="midnightblue" d="M1413.21,-314C1422.66,-314 1432.58,-314 1442.3,-314"/>
<polygon fill="midnightblue" stroke="midnightblue" points="1442.33,-317.5 1452.33,-314 1442.33,-310.5 1442.33,-317.5"/>
</g>
<!-- Node21 -->
<g id="node21" class="node">
<title>Node21</title>
<g id="a_node21"><a xlink:href="namespaceconsole_1_1serial.html#aa5605d4537106bb1c2bab72d7d1a5824" target="_top" xlink:title=" ">
<polygon fill="white" stroke="black" points="1623,-247.5 1623,-266.5 1727,-266.5 1727,-247.5 1623,-247.5"/>
<text text-anchor="middle" x="1675" y="-254.5" font-family="Helvetica,sans-Serif" font-size="10.00">console::serial::sout</text>
</a>
</g>
</g>
<!-- Node20&#45;&gt;Node21 -->
<g id="edge21" class="edge">
<title>Node20&#45;&gt;Node21</title>
<path fill="none" stroke="midnightblue" d="M1569.21,-257C1583.31,-257 1598.39,-257 1612.59,-257"/>
<polygon fill="midnightblue" stroke="midnightblue" points="1612.74,-260.5 1622.74,-257 1612.74,-253.5 1612.74,-260.5"/>
</g>
<!-- Node22 -->
<g id="node22" class="node">
<title>Node22</title>
<g id="a_node22"><a xlink:href="x86_8h.html#ade961b44e45ddacbc3c3b7609cf36dc6" target="_top" xlink:title=" ">
<polygon fill="white" stroke="black" points="1792.5,-266.5 1792.5,-285.5 1827.5,-285.5 1827.5,-266.5 1792.5,-266.5"/>
<text text-anchor="middle" x="1810" y="-273.5" font-family="Helvetica,sans-Serif" font-size="10.00">outb</text>
</a>
</g>
</g>
<!-- Node21&#45;&gt;Node22 -->
<g id="edge22" class="edge">
<title>Node21&#45;&gt;Node22</title>
<path fill="none" stroke="midnightblue" d="M1727.04,-264.29C1745.85,-266.98 1766.4,-269.91 1782.22,-272.17"/>
<polygon fill="midnightblue" stroke="midnightblue" points="1781.95,-275.67 1792.34,-273.62 1782.94,-268.74 1781.95,-275.67"/>
</g>
<!-- Node24 -->
<g id="node24" class="node">
<title>Node24</title>
<g id="a_node24"><a xlink:href="namespacemem.html#a64d9d05b439041901498c606de606431" target="_top" xlink:title=" ">
<polygon fill="white" stroke="black" points="1642.5,-285.5 1642.5,-304.5 1707.5,-304.5 1707.5,-285.5 1642.5,-285.5"/>
<text text-anchor="middle" x="1675" y="-292.5" font-family="Helvetica,sans-Serif" font-size="10.00">mem::copy</text>
</a>
</g>
</g>
<!-- Node23&#45;&gt;Node24 -->
<g id="edge24" class="edge">
<title>Node23&#45;&gt;Node24</title>
<path fill="none" stroke="midnightblue" d="M1565.52,-307.57C1587.36,-305.04 1612.01,-302.18 1632.29,-299.83"/>
<polygon fill="midnightblue" stroke="midnightblue" points="1632.92,-303.28 1642.45,-298.65 1632.12,-296.33 1632.92,-303.28"/>
</g>
<!-- Node25 -->
<g id="node25" class="node">
<title>Node25</title>
<g id="a_node25"><a xlink:href="namespaceconsole_1_1cga.html#a06463d4dc68819e30615ba299d02a78f" target="_top" xlink:title=" ">
<polygon fill="white" stroke="black" points="1605,-323.5 1605,-342.5 1745,-342.5 1745,-323.5 1605,-323.5"/>
<text text-anchor="middle" x="1675" y="-330.5" font-family="Helvetica,sans-Serif" font-size="10.00">console::cga::cursorRefresh</text>
</a>
</g>
</g>
<!-- Node23&#45;&gt;Node25 -->
<g id="edge26" class="edge">
<title>Node23&#45;&gt;Node25</title>
<path fill="none" stroke="midnightblue" d="M1565.52,-320.43C1574.9,-321.52 1584.8,-322.67 1594.65,-323.81"/>
<polygon fill="midnightblue" stroke="midnightblue" points="1594.53,-327.32 1604.87,-324.99 1595.33,-320.36 1594.53,-327.32"/>
</g>
<!-- Node24&#45;&gt;Node9 -->
<g id="edge25" class="edge">
<title>Node24&#45;&gt;Node9</title>
<path fill="none" stroke="midnightblue" d="M1707.54,-290.47C1719.91,-287.67 1733.81,-283.17 1745,-276 1768.04,-261.24 1787.1,-235.59 1798.27,-218.22"/>
<polygon fill="midnightblue" stroke="midnightblue" points="1801.35,-219.88 1803.63,-209.54 1795.4,-216.2 1801.35,-219.88"/>
</g>
<!-- Node25&#45;&gt;Node22 -->
<g id="edge27" class="edge">
<title>Node25&#45;&gt;Node22</title>
<path fill="none" stroke="midnightblue" d="M1717.84,-323.41C1726.95,-320.79 1736.43,-317.65 1745,-314 1759.59,-307.79 1774.9,-298.8 1786.89,-291.13"/>
<polygon fill="midnightblue" stroke="midnightblue" points="1788.9,-293.99 1795.34,-285.58 1785.06,-288.14 1788.9,-293.99"/>
</g>
<!-- Node27 -->
<g id="node27" class="node">
<title>Node27</title>
<g id="a_node27"><a xlink:href="namespaceconsole_1_1err.html#a4cd18e4c409b5b17ecec61ce83b05fba" target="_top" xlink:title=" ">
<polygon fill="white" stroke="black" points="844,-275.5 844,-294.5 948,-294.5 948,-275.5 844,-275.5"/>
<text text-anchor="middle" x="896" y="-282.5" font-family="Helvetica,sans-Serif" font-size="10.00">console::err::printVa</text>
</a>
</g>
</g>
<!-- Node26&#45;&gt;Node27 -->
<g id="edge31" class="edge">
<title>Node26&#45;&gt;Node27</title>
<path fill="none" stroke="midnightblue" d="M650.31,-285C699.55,-285 778.51,-285 833.36,-285"/>
<polygon fill="midnightblue" stroke="midnightblue" points="833.65,-288.5 843.65,-285 833.65,-281.5 833.65,-288.5"/>
</g>
<!-- Node27&#45;&gt;Node13 -->
<g id="edge32" class="edge">
<title>Node27&#45;&gt;Node13</title>
<path fill="none" stroke="midnightblue" d="M947.18,-275.44C959,-273.19 971.73,-270.77 983.94,-268.44"/>
<polygon fill="midnightblue" stroke="midnightblue" points="984.88,-271.82 994.05,-266.51 983.57,-264.95 984.88,-271.82"/>
</g>
<!-- Node27&#45;&gt;Node19 -->
<g id="edge33" class="edge">
<title>Node27&#45;&gt;Node19</title>
<path fill="none" stroke="midnightblue" d="M923.5,-294.61C984.36,-316.65 1129.82,-369.09 1141,-371 1196.2,-380.44 1213.22,-386.6 1267,-371 1294.23,-363.1 1321.12,-344.23 1338.31,-330.35"/>
<polygon fill="midnightblue" stroke="midnightblue" points="1340.93,-332.73 1346.37,-323.64 1336.44,-327.35 1340.93,-332.73"/>
</g>
<!-- Node29 -->
<g id="node29" class="node">
<title>Node29</title>
<g id="a_node29"><a xlink:href="namespaceconsole_1_1in.html#ac28354dad0498aa6bb0c178b10d62c8a" target="_top" xlink:title=" ">
<polygon fill="white" stroke="black" points="692,-313.5 692,-332.5 807,-332.5 807,-313.5 692,-313.5"/>
<text text-anchor="middle" x="749.5" y="-320.5" font-family="Helvetica,sans-Serif" font-size="10.00">console::in::readlineVa</text>
</a>
</g>
</g>
<!-- Node28&#45;&gt;Node29 -->
<g id="edge35" class="edge">
<title>Node28&#45;&gt;Node29</title>
<path fill="none" stroke="midnightblue" d="M656.4,-323C664.52,-323 673.02,-323 681.43,-323"/>
<polygon fill="midnightblue" stroke="midnightblue" points="681.62,-326.5 691.62,-323 681.62,-319.5 681.62,-326.5"/>
</g>
<!-- Node29&#45;&gt;Node12 -->
<g id="edge37" class="edge">
<title>Node29&#45;&gt;Node12</title>
<path fill="none" stroke="midnightblue" d="M764.62,-313.33C789.72,-296.13 842.29,-260.11 872.45,-239.45"/>
<polygon fill="midnightblue" stroke="midnightblue" points="874.77,-242.11 881.04,-233.57 870.81,-236.33 874.77,-242.11"/>
</g>
<!-- Node29&#45;&gt;Node19 -->
<g id="edge38" class="edge">
<title>Node29&#45;&gt;Node19</title>
<path fill="none" stroke="midnightblue" d="M771.69,-332.52C843.6,-363.43 1084.04,-455.24 1267,-389 1298.51,-377.59 1326.74,-349.8 1342.86,-331.44"/>
<polygon fill="midnightblue" stroke="midnightblue" points="1345.58,-333.65 1349.38,-323.76 1340.24,-329.12 1345.58,-333.65"/>
</g>
<!-- Node30 -->
<g id="node30" class="node">
<title>Node30</title>
<g id="a_node30"><a xlink:href="namespaceconsole_1_1in.html#a6fc069f2bc57fda183e3b991c31ec5a7" target="_top" xlink:title=" ">
<polygon fill="white" stroke="black" points="844,-313.5 844,-332.5 948,-332.5 948,-313.5 844,-313.5"/>
<text text-anchor="middle" x="896" y="-320.5" font-family="Helvetica,sans-Serif" font-size="10.00">console::in::getChar</text>
</a>
</g>
</g>
<!-- Node29&#45;&gt;Node30 -->
<g id="edge36" class="edge">
<title>Node29&#45;&gt;Node30</title>
<path fill="none" stroke="midnightblue" d="M807.2,-323C815.83,-323 824.78,-323 833.52,-323"/>
<polygon fill="midnightblue" stroke="midnightblue" points="833.64,-326.5 843.64,-323 833.64,-319.5 833.64,-326.5"/>
</g>
<!-- Node31&#45;&gt;Node11 -->
<g id="edge47" class="edge">
<title>Node31&#45;&gt;Node11</title>
<path fill="none" stroke="midnightblue" d="M224.33,-133.42C242.88,-124.04 273.05,-110.41 301,-105 395.18,-86.77 427.97,-85.89 516,-124 543.11,-135.74 569.46,-157.64 585.92,-172.99"/>
<polygon fill="midnightblue" stroke="midnightblue" points="583.94,-175.93 593.58,-180.32 588.78,-170.88 583.94,-175.93"/>
</g>
<!-- Node32 -->
<g id="node32" class="node">
<title>Node32</title>
<g id="a_node32"><a xlink:href="structtask_1_1_task.html#acc107ba9ef939a92f459873765fb73eb" target="_top" xlink:title=" ">
<polygon fill="white" stroke="black" points="302,-114.5 302,-133.5 403,-133.5 403,-114.5 302,-114.5"/>
<text text-anchor="middle" x="352.5" y="-121.5" font-family="Helvetica,sans-Serif" font-size="10.00">task::Task::destroy</text>
</a>
</g>
</g>
<!-- Node31&#45;&gt;Node32 -->
<g id="edge43" class="edge">
<title>Node31&#45;&gt;Node32</title>
<path fill="none" stroke="midnightblue" d="M265.06,-135.33C273.76,-134.19 282.74,-133.01 291.47,-131.87"/>
<polygon fill="midnightblue" stroke="midnightblue" points="292.11,-135.31 301.57,-130.54 291.2,-128.37 292.11,-135.31"/>
</g>
<!-- Node34 -->
<g id="node34" class="node">
<title>Node34</title>
<g id="a_node34"><a xlink:href="x86_8h.html#a3dc6d9821f5d1882b68147fd25aa11cd" target="_top" xlink:title=" ">
<polygon fill="white" stroke="black" points="336,-152.5 336,-171.5 369,-171.5 369,-152.5 336,-152.5"/>
<text text-anchor="middle" x="352.5" y="-159.5" font-family="Helvetica,sans-Serif" font-size="10.00">rcr2</text>
</a>
</g>
</g>
<!-- Node31&#45;&gt;Node34 -->
<g id="edge48" class="edge">
<title>Node31&#45;&gt;Node34</title>
<path fill="none" stroke="midnightblue" d="M265.06,-150.67C286.08,-153.43 308.72,-156.39 325.56,-158.6"/>
<polygon fill="midnightblue" stroke="midnightblue" points="325.34,-162.1 335.71,-159.93 326.25,-155.16 325.34,-162.1"/>
</g>
<!-- Node32&#45;&gt;Node4 -->
<g id="edge45" class="edge">
<title>Node32&#45;&gt;Node4</title>
<path fill="none" stroke="midnightblue" d="M388.73,-133.52C394.22,-136.02 399.54,-139.13 404,-143 440.17,-174.37 461.78,-228.25 471.27,-256.85"/>
<polygon fill="midnightblue" stroke="midnightblue" points="467.96,-258 474.32,-266.48 474.64,-255.89 467.96,-258"/>
</g>
<!-- Node32&#45;&gt;Node11 -->
<g id="edge46" class="edge">
<title>Node32&#45;&gt;Node11</title>
<path fill="none" stroke="midnightblue" d="M403.22,-124.96C435.92,-126.77 479.3,-131.41 516,-143 539.34,-150.37 563.67,-164.11 580.65,-174.84"/>
<polygon fill="midnightblue" stroke="midnightblue" points="578.98,-177.93 589.27,-180.43 582.79,-172.05 578.98,-177.93"/>
</g>
<!-- Node33 -->
<g id="node33" class="node">
<title>Node33</title>
<g id="a_node33"><a xlink:href="x86_8h.html#ab3bac932074f6042165d3016b701900a" target="_top" xlink:title=" ">
<polygon fill="white" stroke="black" points="462,-152.5 462,-171.5 494,-171.5 494,-152.5 462,-152.5"/>
<text text-anchor="middle" x="478" y="-159.5" font-family="Helvetica,sans-Serif" font-size="10.00">lcr3</text>
</a>
</g>
</g>
<!-- Node32&#45;&gt;Node33 -->
<g id="edge44" class="edge">
<title>Node32&#45;&gt;Node33</title>
<path fill="none" stroke="midnightblue" d="M384.66,-133.59C405.62,-140.04 432.87,-148.42 452.32,-154.41"/>
<polygon fill="midnightblue" stroke="midnightblue" points="451.39,-157.78 461.97,-157.38 453.44,-151.09 451.39,-157.78"/>
</g>
</g>
</svg>
        <g id="navigator" transform="translate(0 0)" fill="#404254">
                <rect fill="#f2f5e9" fill-opacity="0.5" stroke="#606060" stroke-width=".5" x="0" y="0" width="60" height="60"/>
                <use id="zoomplus" xlink:href="#zoomPlus" x="17" y="9" onmousedown="handleZoom(evt,'in')"/>
                <use id="zoomminus" xlink:href="#zoomMin" x="42" y="9" onmousedown="handleZoom(evt,'out')"/>
                <use id="reset" xlink:href="#resetDef" x="30" y="36" onmousedown="handleReset()"/>
                <g id="arrowUp" xlink:href="#dirArrow" transform="translate(30 24)" onmousedown="handlePan(0,-1)">
                  <use xlink:href="#rim" fill="#404040">
                        <set attributeName="fill" to="#808080" begin="arrowUp.mouseover" end="arrowUp.mouseout"/>
                  </use>
                  <path fill="none" stroke="white" stroke-width="1.5" d="M0,-3.0v7 M-2.5,-0.5L0,-3.0L2.5,-0.5"/>
                </g>
                <g id="arrowRight" xlink:href="#dirArrow" transform="rotate(90) translate(36 -43)" onmousedown="handlePan(1,0)">
                  <use xlink:href="#rim" fill="#404040">
                        <set attributeName="fill" to="#808080" begin="arrowRight.mouseover" end="arrowRight.mouseout"/>
                  </use>
                  <path fill="none" stroke="white" stroke-width="1.5" d="M0,-3.0v7 M-2.5,-0.5L0,-3.0L2.5,-0.5"/>
                </g>
                <g id="arrowDown" xlink:href="#dirArrow" transform="rotate(180) translate(-30 -48)" onmousedown="handlePan(0,1)">
                  <use xlink:href="#rim" fill="#404040">
                        <set attributeName="fill" to="#808080" begin="arrowDown.mouseover" end="arrowDown.mouseout"/>
                  </use>
                  <path fill="none" stroke="white" stroke-width="1.5" d="M0,-3.0v7 M-2.5,-0.5L0,-3.0L2.5,-0.5"/>
                </g>
                <g id="arrowLeft" xlink:href="#dirArrow" transform="rotate(270) translate(-36 17)" onmousedown="handlePan(-1,0)">
                  <use xlink:href="#rim" fill="#404040">
                        <set attributeName="fill" to="#808080" begin="arrowLeft.mouseover" end="arrowLeft.mouseout"/>
                  </use>
                  <path fill="none" stroke="white" stroke-width="1.5" d="M0,-3.0v7 M-2.5,-0.5L0,-3.0L2.5,-0.5"/>
                </g>
        </g>
        <svg viewBox="0 0 15 15" width="100%" height="30px" preserveAspectRatio="xMaxYMin meet">
         <g id="arrow_out" transform="scale(0.3 0.3)">
          <a xlink:href="structtrap_1_1_frame_ad4d384926899741046177043bbe75c27_cgraph_org.svg" target="_base">
           <rect id="button" ry="5" rx="5" y="6" x="6" height="38" width="38"
                fill="#f2f5e9" fill-opacity="0.5" stroke="#606060" stroke-width="1.0"/>
           <path id="arrow"
             d="M 11.500037,31.436501 C 11.940474,20.09759 22.043105,11.32322 32.158766,21.979434 L 37.068811,17.246167 C 37.068811,17.246167 37.088388,32 37.088388,32 L 22.160133,31.978069 C 22.160133,31.978069 26.997745,27.140456 26.997745,27.140456 C 18.528582,18.264221 13.291696,25.230495 11.500037,31.436501 z"
             style="fill:#404040;"/>
          </a>
         </g>
        </svg>
</svg>
