<?xml version="1.0" encoding="UTF-8" standalone="no"?>
<!DOCTYPE svg PUBLIC "-//W3C//DTD SVG 1.1//EN"
 "http://www.w3.org/Graphics/SVG/1.1/DTD/svg11.dtd">
<!-- Generated by graphviz version 2.44.1 (20200629.0846)
 -->
<!-- Title: Elf Pages: 1 -->
<svg width="202pt" height="172pt"
 viewBox="0.00 0.00 201.50 172.00" xmlns="http://www.w3.org/2000/svg" xmlns:xlink="http://www.w3.org/1999/xlink">
<g id="graph0" class="graph" transform="scale(1 1) rotate(0) translate(4 168)">
<title>Elf</title>
<polygon fill="white" stroke="transparent" points="-4,4 -4,-168 197.5,-168 197.5,4 -4,4"/>
<!-- Node1 -->
<g id="node1" class="node">
<title>Node1</title>
<g id="a_node1"><a xlink:title=" ">
<polygon fill="#bfbfbf" stroke="black" points="87,-0.5 87,-19.5 116,-19.5 116,-0.5 87,-0.5"/>
<text text-anchor="middle" x="101.5" y="-7.5" font-family="Helvetica,sans-Serif" font-size="10.00">Elf</text>
</a>
</g>
</g>
<!-- Node2 -->
<g id="node2" class="node">
<title>Node2</title>
<g id="a_node2"><a xlink:title=" ">
<polygon fill="white" stroke="#bfbfbf" points="0,-144.5 0,-163.5 51,-163.5 51,-144.5 0,-144.5"/>
<text text-anchor="middle" x="25.5" y="-151.5" font-family="Helvetica,sans-Serif" font-size="10.00">uint16_t</text>
</a>
</g>
</g>
<!-- Node2&#45;&gt;Node1 -->
<g id="edge1" class="edge">
<title>Node2&#45;&gt;Node1</title>
<path fill="none" stroke="#9a32cd" stroke-dasharray="5,2" d="M23.61,-134.34C22.13,-109.75 23.15,-66.32 44.5,-38 54.78,-24.36 73.7,-17.32 86.91,-13.9"/>
<polygon fill="#9a32cd" stroke="#9a32cd" points="20.13,-134.79 24.43,-144.47 27.11,-134.22 20.13,-134.79"/>
<text text-anchor="middle" x="71" y="-118" font-family="Helvetica,sans-Serif" font-size="10.00"> e_ehsize</text>
<text text-anchor="middle" x="71" y="-107" font-family="Helvetica,sans-Serif" font-size="10.00">e_machine</text>
<text text-anchor="middle" x="71" y="-96" font-family="Helvetica,sans-Serif" font-size="10.00">e_phentsize</text>
<text text-anchor="middle" x="71" y="-85" font-family="Helvetica,sans-Serif" font-size="10.00">e_phnum</text>
<text text-anchor="middle" x="71" y="-74" font-family="Helvetica,sans-Serif" font-size="10.00">e_shentsize</text>
<text text-anchor="middle" x="71" y="-63" font-family="Helvetica,sans-Serif" font-size="10.00">e_shnum</text>
<text text-anchor="middle" x="71" y="-52" font-family="Helvetica,sans-Serif" font-size="10.00">e_shstrndx</text>
<text text-anchor="middle" x="71" y="-41" font-family="Helvetica,sans-Serif" font-size="10.00">e_type</text>
</g>
<!-- Node3 -->
<g id="node3" class="node">
<title>Node3</title>
<g id="a_node3"><a xlink:title=" ">
<polygon fill="white" stroke="#bfbfbf" points="76,-144.5 76,-163.5 127,-163.5 127,-144.5 76,-144.5"/>
<text text-anchor="middle" x="101.5" y="-151.5" font-family="Helvetica,sans-Serif" font-size="10.00">uint32_t</text>
</a>
</g>
</g>
<!-- Node3&#45;&gt;Node1 -->
<g id="edge2" class="edge">
<title>Node3&#45;&gt;Node1</title>
<path fill="none" stroke="#9a32cd" stroke-dasharray="5,2" d="M101.5,-134.11C101.5,-102.93 101.5,-41.93 101.5,-19.52"/>
<polygon fill="#9a32cd" stroke="#9a32cd" points="98,-134.12 101.5,-144.12 105,-134.12 98,-134.12"/>
<text text-anchor="middle" x="123" y="-107" font-family="Helvetica,sans-Serif" font-size="10.00"> e_entry</text>
<text text-anchor="middle" x="123" y="-96" font-family="Helvetica,sans-Serif" font-size="10.00">e_flags</text>
<text text-anchor="middle" x="123" y="-85" font-family="Helvetica,sans-Serif" font-size="10.00">e_magic</text>
<text text-anchor="middle" x="123" y="-74" font-family="Helvetica,sans-Serif" font-size="10.00">e_phoff</text>
<text text-anchor="middle" x="123" y="-63" font-family="Helvetica,sans-Serif" font-size="10.00">e_shoff</text>
<text text-anchor="middle" x="123" y="-52" font-family="Helvetica,sans-Serif" font-size="10.00">e_version</text>
</g>
<!-- Node4 -->
<g id="node4" class="node">
<title>Node4</title>
<g id="a_node4"><a xlink:title=" ">
<polygon fill="white" stroke="#bfbfbf" points="145.5,-144.5 145.5,-163.5 191.5,-163.5 191.5,-144.5 145.5,-144.5"/>
<text text-anchor="middle" x="168.5" y="-151.5" font-family="Helvetica,sans-Serif" font-size="10.00">uint8_t</text>
</a>
</g>
</g>
<!-- Node4&#45;&gt;Node1 -->
<g id="edge3" class="edge">
<title>Node4&#45;&gt;Node1</title>
<path fill="none" stroke="#9a32cd" stroke-dasharray="5,2" d="M169.41,-134.25C169.65,-109.89 166.8,-67.06 146.5,-38 139.2,-27.54 126.42,-20.45 116.35,-16.17"/>
<polygon fill="#9a32cd" stroke="#9a32cd" points="165.91,-134.2 169.11,-144.3 172.9,-134.41 165.91,-134.2"/>
<text text-anchor="middle" x="181" y="-79.5" font-family="Helvetica,sans-Serif" font-size="10.00"> e_elf</text>
</g>
</g>
</svg>
