<?xml version="1.0" encoding="UTF-8" standalone="no"?>
<!DOCTYPE svg PUBLIC "-//W3C//DTD SVG 1.1//EN"
 "http://www.w3.org/Graphics/SVG/1.1/DTD/svg11.dtd">
<!-- Generated by graphviz version 2.44.1 (20200629.0846)
 -->
<!-- Title: task::Task::run Pages: 1 -->
<svg width="1253pt" height="204pt"
 viewBox="0.00 0.00 1253.00 203.69" xmlns="http://www.w3.org/2000/svg" xmlns:xlink="http://www.w3.org/1999/xlink">
<g id="graph0" class="graph" transform="scale(1 1) rotate(0) translate(4 199.69)">
<title>task::Task::run</title>
<polygon fill="white" stroke="transparent" points="-4,4 -4,-199.69 1249,-199.69 1249,4 -4,4"/>
<!-- Node1 -->
<g id="node1" class="node">
<title>Node1</title>
<g id="a_node1"><a xlink:title=" ">
<polygon fill="#bfbfbf" stroke="black" points="0,-28.32 0,-47.32 82,-47.32 82,-28.32 0,-28.32"/>
<text text-anchor="middle" x="41" y="-35.32" font-family="Helvetica,sans-Serif" font-size="10.00">task::Task::run</text>
</a>
</g>
</g>
<!-- Node2 -->
<g id="node2" class="node">
<title>Node2</title>
<g id="a_node2"><a xlink:href="x86_8h.html#ab3bac932074f6042165d3016b701900a" target="_top" xlink:title=" ">
<polygon fill="white" stroke="black" points="149.5,-47.32 149.5,-66.32 181.5,-66.32 181.5,-47.32 149.5,-47.32"/>
<text text-anchor="middle" x="165.5" y="-54.32" font-family="Helvetica,sans-Serif" font-size="10.00">lcr3</text>
</a>
</g>
</g>
<!-- Node1&#45;&gt;Node2 -->
<g id="edge1" class="edge">
<title>Node1&#45;&gt;Node2</title>
<path fill="none" stroke="midnightblue" d="M82.11,-44.04C101,-46.97 122.95,-50.38 139.44,-52.93"/>
<polygon fill="midnightblue" stroke="midnightblue" points="138.98,-56.41 149.4,-54.48 140.05,-49.49 138.98,-56.41"/>
</g>
<!-- Node3 -->
<g id="node3" class="node">
<title>Node3</title>
<g id="a_node3"><a xlink:href="namespaceconsole_1_1out.html#ac6f663e3971b66b8e130ee94755a150e" target="_top" xlink:title=" ">
<polygon fill="white" stroke="black" points="118,-9.32 118,-28.32 213,-28.32 213,-9.32 118,-9.32"/>
<text text-anchor="middle" x="165.5" y="-16.32" font-family="Helvetica,sans-Serif" font-size="10.00">console::out::print</text>
</a>
</g>
</g>
<!-- Node1&#45;&gt;Node3 -->
<g id="edge2" class="edge">
<title>Node1&#45;&gt;Node3</title>
<path fill="none" stroke="midnightblue" d="M82.11,-31.6C90.34,-30.33 99.14,-28.96 107.82,-27.61"/>
<polygon fill="midnightblue" stroke="midnightblue" points="108.57,-31.04 117.92,-26.05 107.5,-24.12 108.57,-31.04"/>
</g>
<!-- Node4 -->
<g id="node4" class="node">
<title>Node4</title>
<g id="a_node4"><a xlink:href="namespaceconsole_1_1out.html#a8f791bfac54067cadb1b9f18117b987b" target="_top" xlink:title=" ">
<polygon fill="white" stroke="black" points="249,-9.32 249,-28.32 355,-28.32 355,-9.32 249,-9.32"/>
<text text-anchor="middle" x="302" y="-16.32" font-family="Helvetica,sans-Serif" font-size="10.00">console::out::printVa</text>
</a>
</g>
</g>
<!-- Node3&#45;&gt;Node4 -->
<g id="edge3" class="edge">
<title>Node3&#45;&gt;Node4</title>
<path fill="none" stroke="midnightblue" d="M213.16,-18.82C221.45,-18.82 230.2,-18.82 238.84,-18.82"/>
<polygon fill="midnightblue" stroke="midnightblue" points="238.9,-22.32 248.9,-18.82 238.9,-15.32 238.9,-22.32"/>
</g>
<!-- Node5 -->
<g id="node5" class="node">
<title>Node5</title>
<g id="a_node5"><a xlink:href="namespaceconsole_1_1ge.html#af642934cb833142f133285fdb75ef7b7" target="_top" xlink:title=" ">
<polygon fill="white" stroke="black" points="391,-66.32 391,-85.32 511,-85.32 511,-66.32 391,-66.32"/>
<text text-anchor="middle" x="451" y="-73.32" font-family="Helvetica,sans-Serif" font-size="10.00">console::ge::printFmtVa</text>
</a>
</g>
</g>
<!-- Node4&#45;&gt;Node5 -->
<g id="edge4" class="edge">
<title>Node4&#45;&gt;Node5</title>
<path fill="none" stroke="midnightblue" d="M327.6,-28.36C351.77,-37.73 388.85,-52.11 415.86,-62.58"/>
<polygon fill="midnightblue" stroke="midnightblue" points="414.73,-65.9 425.32,-66.25 417.26,-59.37 414.73,-65.9"/>
</g>
<!-- Node12 -->
<g id="node12" class="node">
<title>Node12</title>
<g id="a_node12"><a xlink:href="namespaceconsole_1_1out.html#ad9fc97dff4404c2d21aedbb24691e7cb" target="_top" xlink:title=" ">
<polygon fill="white" stroke="black" points="709,-9.32 709,-28.32 819,-28.32 819,-9.32 709,-9.32"/>
<text text-anchor="middle" x="764" y="-16.32" font-family="Helvetica,sans-Serif" font-size="10.00">console::out::putChar</text>
</a>
</g>
</g>
<!-- Node4&#45;&gt;Node12 -->
<g id="edge21" class="edge">
<title>Node4&#45;&gt;Node12</title>
<path fill="none" stroke="midnightblue" d="M355.17,-12.67C426.89,-5.14 559.92,5.54 673,-3.82 683.29,-4.67 694.17,-6.06 704.68,-7.66"/>
<polygon fill="midnightblue" stroke="midnightblue" points="704.18,-11.13 714.61,-9.25 705.28,-4.22 704.18,-11.13"/>
</g>
<!-- Node6 -->
<g id="node6" class="node">
<title>Node6</title>
<g id="a_node6"><a xlink:href="printfmt_8cc.html#a708ec6ee2b8bd2d7a453d8d9436ed3b3" target="_top" xlink:title=" ">
<polygon fill="white" stroke="black" points="581,-142.32 581,-161.32 639,-161.32 639,-142.32 581,-142.32"/>
<text text-anchor="middle" x="610" y="-149.32" font-family="Helvetica,sans-Serif" font-size="10.00">_getIntVa</text>
</a>
</g>
</g>
<!-- Node5&#45;&gt;Node6 -->
<g id="edge5" class="edge">
<title>Node5&#45;&gt;Node6</title>
<path fill="none" stroke="midnightblue" d="M465.59,-85.43C483.53,-97.77 516.43,-119.21 547,-132.82 554.6,-136.21 562.99,-139.22 571.07,-141.8"/>
<polygon fill="midnightblue" stroke="midnightblue" points="570.11,-145.17 580.7,-144.72 572.14,-138.47 570.11,-145.17"/>
</g>
<!-- Node7 -->
<g id="node7" class="node">
<title>Node7</title>
<g id="a_node7"><a xlink:href="printfmt_8cc.html#af4b46892c76c8bfd27efdb20847eb7c8" target="_top" xlink:title=" ">
<polygon fill="white" stroke="black" points="577.5,-104.32 577.5,-123.32 642.5,-123.32 642.5,-104.32 577.5,-104.32"/>
<text text-anchor="middle" x="610" y="-111.32" font-family="Helvetica,sans-Serif" font-size="10.00">_getUIntVa</text>
</a>
</g>
</g>
<!-- Node5&#45;&gt;Node7 -->
<g id="edge6" class="edge">
<title>Node5&#45;&gt;Node7</title>
<path fill="none" stroke="midnightblue" d="M491.62,-85.41C514.72,-91 543.84,-98.05 567.3,-103.73"/>
<polygon fill="midnightblue" stroke="midnightblue" points="566.76,-107.2 577.3,-106.15 568.4,-100.4 566.76,-107.2"/>
</g>
<!-- Node8 -->
<g id="node8" class="node">
<title>Node8</title>
<g id="a_node8"><a xlink:href="namespacestr.html#a062221f630647cf300f0dd982c4ed904" target="_top" xlink:title=" ">
<polygon fill="white" stroke="black" points="1187,-99.32 1187,-118.32 1245,-118.32 1245,-99.32 1187,-99.32"/>
<text text-anchor="middle" x="1216" y="-106.32" font-family="Helvetica,sans-Serif" font-size="10.00">str::count</text>
</a>
</g>
</g>
<!-- Node5&#45;&gt;Node8 -->
<g id="edge7" class="edge">
<title>Node5&#45;&gt;Node8</title>
<path fill="none" stroke="midnightblue" d="M458.18,-85.54C471.55,-105.61 505.36,-151.39 547,-170.82 634.33,-211.57 666.63,-189.82 763,-189.82 763,-189.82 763,-189.82 916,-189.82 1017.55,-189.82 1131.97,-145.75 1185.02,-122.63"/>
<polygon fill="midnightblue" stroke="midnightblue" points="1186.77,-125.68 1194.5,-118.43 1183.93,-119.28 1186.77,-125.68"/>
</g>
<!-- Node9 -->
<g id="node9" class="node">
<title>Node9</title>
<g id="a_node9"><a xlink:href="printfmt_8cc.html#a0e3e484ece5e75b9f5fbe337f0ae8ae3" target="_top" xlink:title=" ">
<polygon fill="white" stroke="black" points="583.5,-66.32 583.5,-85.32 636.5,-85.32 636.5,-66.32 583.5,-66.32"/>
<text text-anchor="middle" x="610" y="-73.32" font-family="Helvetica,sans-Serif" font-size="10.00">describe</text>
</a>
</g>
</g>
<!-- Node5&#45;&gt;Node9 -->
<g id="edge8" class="edge">
<title>Node5&#45;&gt;Node9</title>
<path fill="none" stroke="midnightblue" d="M511.35,-75.82C532.12,-75.82 554.78,-75.82 573.04,-75.82"/>
<polygon fill="midnightblue" stroke="midnightblue" points="573.24,-79.32 583.24,-75.82 573.24,-72.32 573.24,-79.32"/>
</g>
<!-- Node11 -->
<g id="node11" class="node">
<title>Node11</title>
<g id="a_node11"><a xlink:href="namespaceconsole_1_1ge.html#a7e301813fd34fde772376afc5fdad95d" target="_top" xlink:title=" ">
<polygon fill="white" stroke="black" points="547,-28.32 547,-47.32 673,-47.32 673,-28.32 547,-28.32"/>
<text text-anchor="middle" x="610" y="-35.32" font-family="Helvetica,sans-Serif" font-size="10.00">console::ge::printNumber</text>
</a>
</g>
</g>
<!-- Node5&#45;&gt;Node11 -->
<g id="edge10" class="edge">
<title>Node5&#45;&gt;Node11</title>
<path fill="none" stroke="midnightblue" d="M491.62,-66.23C512.34,-61.22 537.89,-55.03 559.86,-49.72"/>
<polygon fill="midnightblue" stroke="midnightblue" points="560.77,-53.1 569.67,-47.34 559.12,-46.29 560.77,-53.1"/>
</g>
<!-- Node5&#45;&gt;Node12 -->
<g id="edge20" class="edge">
<title>Node5&#45;&gt;Node12</title>
<path fill="none" stroke="midnightblue" d="M463.33,-66.18C480.22,-52.49 513.63,-28.06 547,-18.82 596.52,-5.11 654.9,-6.07 698.48,-9.93"/>
<polygon fill="midnightblue" stroke="midnightblue" points="698.38,-13.44 708.66,-10.91 699.05,-6.47 698.38,-13.44"/>
</g>
<!-- Node10 -->
<g id="node10" class="node">
<title>Node10</title>
<g id="a_node10"><a xlink:href="namespacemonitor.html#a318993193c866642f8389a1c1f285739" target="_top" xlink:title=" ">
<polygon fill="white" stroke="black" points="727,-66.32 727,-85.32 801,-85.32 801,-66.32 727,-66.32"/>
<text text-anchor="middle" x="764" y="-73.32" font-family="Helvetica,sans-Serif" font-size="10.00">monitor::fuck</text>
</a>
</g>
</g>
<!-- Node9&#45;&gt;Node10 -->
<g id="edge9" class="edge">
<title>Node9&#45;&gt;Node10</title>
<path fill="none" stroke="midnightblue" d="M636.78,-75.82C658.62,-75.82 690.46,-75.82 716.7,-75.82"/>
<polygon fill="midnightblue" stroke="midnightblue" points="716.82,-79.32 726.82,-75.82 716.82,-72.32 716.82,-79.32"/>
</g>
<!-- Node11&#45;&gt;Node12 -->
<g id="edge11" class="edge">
<title>Node11&#45;&gt;Node12</title>
<path fill="none" stroke="midnightblue" d="M673.26,-30.04C681.66,-28.99 690.28,-27.91 698.71,-26.86"/>
<polygon fill="midnightblue" stroke="midnightblue" points="699.37,-30.3 708.86,-25.59 698.51,-23.36 699.37,-30.3"/>
</g>
<!-- Node13 -->
<g id="node13" class="node">
<title>Node13</title>
<g id="a_node13"><a xlink:href="namespaceconsole_1_1serial.html#a3a7c1f95ae3c24136ea63bb31fdf0391" target="_top" xlink:title=" ">
<polygon fill="white" stroke="black" points="855,-9.32 855,-28.32 975,-28.32 975,-9.32 855,-9.32"/>
<text text-anchor="middle" x="915" y="-16.32" font-family="Helvetica,sans-Serif" font-size="10.00">console::serial::putChar</text>
</a>
</g>
</g>
<!-- Node12&#45;&gt;Node13 -->
<g id="edge12" class="edge">
<title>Node12&#45;&gt;Node13</title>
<path fill="none" stroke="midnightblue" d="M819.21,-18.82C827.53,-18.82 836.2,-18.82 844.79,-18.82"/>
<polygon fill="midnightblue" stroke="midnightblue" points="844.79,-22.32 854.79,-18.82 844.79,-15.32 844.79,-22.32"/>
</g>
<!-- Node16 -->
<g id="node16" class="node">
<title>Node16</title>
<g id="a_node16"><a xlink:href="namespaceconsole_1_1cga.html#afa19057ca041b39682d5d4831c43dfa0" target="_top" xlink:title=" ">
<polygon fill="white" stroke="black" points="858.5,-47.32 858.5,-66.32 971.5,-66.32 971.5,-47.32 858.5,-47.32"/>
<text text-anchor="middle" x="915" y="-54.32" font-family="Helvetica,sans-Serif" font-size="10.00">console::cga::putChar</text>
</a>
</g>
</g>
<!-- Node12&#45;&gt;Node16 -->
<g id="edge15" class="edge">
<title>Node12&#45;&gt;Node16</title>
<path fill="none" stroke="midnightblue" d="M802.6,-28.41C822.08,-33.38 846.07,-39.5 866.8,-44.78"/>
<polygon fill="midnightblue" stroke="midnightblue" points="866.12,-48.22 876.67,-47.3 867.85,-41.44 866.12,-48.22"/>
</g>
<!-- Node14 -->
<g id="node14" class="node">
<title>Node14</title>
<g id="a_node14"><a xlink:href="namespaceconsole_1_1serial.html#aa5605d4537106bb1c2bab72d7d1a5824" target="_top" xlink:title=" ">
<polygon fill="white" stroke="black" points="1029,-9.32 1029,-28.32 1133,-28.32 1133,-9.32 1029,-9.32"/>
<text text-anchor="middle" x="1081" y="-16.32" font-family="Helvetica,sans-Serif" font-size="10.00">console::serial::sout</text>
</a>
</g>
</g>
<!-- Node13&#45;&gt;Node14 -->
<g id="edge13" class="edge">
<title>Node13&#45;&gt;Node14</title>
<path fill="none" stroke="midnightblue" d="M975.21,-18.82C989.31,-18.82 1004.39,-18.82 1018.59,-18.82"/>
<polygon fill="midnightblue" stroke="midnightblue" points="1018.74,-22.32 1028.74,-18.82 1018.74,-15.32 1018.74,-22.32"/>
</g>
<!-- Node15 -->
<g id="node15" class="node">
<title>Node15</title>
<g id="a_node15"><a xlink:href="x86_8h.html#ade961b44e45ddacbc3c3b7609cf36dc6" target="_top" xlink:title=" ">
<polygon fill="white" stroke="black" points="1198.5,-42.32 1198.5,-61.32 1233.5,-61.32 1233.5,-42.32 1198.5,-42.32"/>
<text text-anchor="middle" x="1216" y="-49.32" font-family="Helvetica,sans-Serif" font-size="10.00">outb</text>
</a>
</g>
</g>
<!-- Node14&#45;&gt;Node15 -->
<g id="edge14" class="edge">
<title>Node14&#45;&gt;Node15</title>
<path fill="none" stroke="midnightblue" d="M1120.47,-28.37C1142.32,-33.79 1169.11,-40.44 1188.59,-45.27"/>
<polygon fill="midnightblue" stroke="midnightblue" points="1187.76,-48.67 1198.31,-47.68 1189.44,-41.88 1187.76,-48.67"/>
</g>
<!-- Node17 -->
<g id="node17" class="node">
<title>Node17</title>
<g id="a_node17"><a xlink:href="namespacemem.html#a64d9d05b439041901498c606de606431" target="_top" xlink:title=" ">
<polygon fill="white" stroke="black" points="1048.5,-90.32 1048.5,-109.32 1113.5,-109.32 1113.5,-90.32 1048.5,-90.32"/>
<text text-anchor="middle" x="1081" y="-97.32" font-family="Helvetica,sans-Serif" font-size="10.00">mem::copy</text>
</a>
</g>
</g>
<!-- Node16&#45;&gt;Node17 -->
<g id="edge16" class="edge">
<title>Node16&#45;&gt;Node17</title>
<path fill="none" stroke="midnightblue" d="M952.4,-66.37C977.92,-73.06 1012.08,-82.01 1038.64,-88.98"/>
<polygon fill="midnightblue" stroke="midnightblue" points="1037.85,-92.39 1048.41,-91.54 1039.62,-85.62 1037.85,-92.39"/>
</g>
<!-- Node18 -->
<g id="node18" class="node">
<title>Node18</title>
<g id="a_node18"><a xlink:href="namespaceconsole_1_1cga.html#a06463d4dc68819e30615ba299d02a78f" target="_top" xlink:title=" ">
<polygon fill="white" stroke="black" points="1011,-47.32 1011,-66.32 1151,-66.32 1151,-47.32 1011,-47.32"/>
<text text-anchor="middle" x="1081" y="-54.32" font-family="Helvetica,sans-Serif" font-size="10.00">console::cga::cursorRefresh</text>
</a>
</g>
</g>
<!-- Node16&#45;&gt;Node18 -->
<g id="edge18" class="edge">
<title>Node16&#45;&gt;Node18</title>
<path fill="none" stroke="midnightblue" d="M971.52,-56.82C980.9,-56.82 990.8,-56.82 1000.65,-56.82"/>
<polygon fill="midnightblue" stroke="midnightblue" points="1000.87,-60.32 1010.87,-56.82 1000.87,-53.32 1000.87,-60.32"/>
</g>
<!-- Node17&#45;&gt;Node8 -->
<g id="edge17" class="edge">
<title>Node17&#45;&gt;Node8</title>
<path fill="none" stroke="midnightblue" d="M1113.52,-101.96C1132.49,-103.24 1156.77,-104.88 1176.82,-106.24"/>
<polygon fill="midnightblue" stroke="midnightblue" points="1176.66,-109.74 1186.87,-106.92 1177.13,-102.75 1176.66,-109.74"/>
</g>
<!-- Node18&#45;&gt;Node15 -->
<g id="edge19" class="edge">
<title>Node18&#45;&gt;Node15</title>
<path fill="none" stroke="midnightblue" d="M1151.23,-54.22C1164.48,-53.72 1177.59,-53.23 1188.45,-52.82"/>
<polygon fill="midnightblue" stroke="midnightblue" points="1188.61,-56.32 1198.47,-52.44 1188.35,-49.32 1188.61,-56.32"/>
</g>
</g>
</svg>
