<?xml version="1.0" encoding="UTF-8" standalone="no"?>
<!DOCTYPE svg PUBLIC "-//W3C//DTD SVG 1.1//EN"
 "http://www.w3.org/Graphics/SVG/1.1/DTD/svg11.dtd">
<!-- Generated by graphviz version 2.44.1 (20200629.0846)
 -->
<!-- Title: Proghdr Pages: 1 -->
<svg width="77pt" height="172pt"
 viewBox="0.00 0.00 76.50 172.00" xmlns="http://www.w3.org/2000/svg" xmlns:xlink="http://www.w3.org/1999/xlink">
<g id="graph0" class="graph" transform="scale(1 1) rotate(0) translate(4 168)">
<title>Proghdr</title>
<polygon fill="white" stroke="transparent" points="-4,4 -4,-168 72.5,-168 72.5,4 -4,4"/>
<!-- Node1 -->
<g id="node1" class="node">
<title>Node1</title>
<g id="a_node1"><a xlink:title=" ">
<polygon fill="#bfbfbf" stroke="black" points="0.5,-0.5 0.5,-19.5 50.5,-19.5 50.5,-0.5 0.5,-0.5"/>
<text text-anchor="middle" x="25.5" y="-7.5" font-family="Helvetica,sans-Serif" font-size="10.00">Proghdr</text>
</a>
</g>
</g>
<!-- Node2 -->
<g id="node2" class="node">
<title>Node2</title>
<g id="a_node2"><a xlink:title=" ">
<polygon fill="white" stroke="#bfbfbf" points="0,-144.5 0,-163.5 51,-163.5 51,-144.5 0,-144.5"/>
<text text-anchor="middle" x="25.5" y="-151.5" font-family="Helvetica,sans-Serif" font-size="10.00">uint32_t</text>
</a>
</g>
</g>
<!-- Node2&#45;&gt;Node1 -->
<g id="edge1" class="edge">
<title>Node2&#45;&gt;Node1</title>
<path fill="none" stroke="#9a32cd" stroke-dasharray="5,2" d="M25.5,-134.11C25.5,-102.93 25.5,-41.93 25.5,-19.52"/>
<polygon fill="#9a32cd" stroke="#9a32cd" points="22,-134.12 25.5,-144.12 29,-134.12 22,-134.12"/>
<text text-anchor="middle" x="47" y="-118" font-family="Helvetica,sans-Serif" font-size="10.00"> p_align</text>
<text text-anchor="middle" x="47" y="-107" font-family="Helvetica,sans-Serif" font-size="10.00">p_filesz</text>
<text text-anchor="middle" x="47" y="-96" font-family="Helvetica,sans-Serif" font-size="10.00">p_flags</text>
<text text-anchor="middle" x="47" y="-85" font-family="Helvetica,sans-Serif" font-size="10.00">p_memsz</text>
<text text-anchor="middle" x="47" y="-74" font-family="Helvetica,sans-Serif" font-size="10.00">p_offset</text>
<text text-anchor="middle" x="47" y="-63" font-family="Helvetica,sans-Serif" font-size="10.00">p_pa</text>
<text text-anchor="middle" x="47" y="-52" font-family="Helvetica,sans-Serif" font-size="10.00">p_type</text>
<text text-anchor="middle" x="47" y="-41" font-family="Helvetica,sans-Serif" font-size="10.00">p_va</text>
</g>
</g>
</svg>
