<?xml version="1.0" encoding="UTF-8" standalone="no"?>
<!DOCTYPE svg PUBLIC "-//W3C//DTD SVG 1.1//EN"
 "http://www.w3.org/Graphics/SVG/1.1/DTD/svg11.dtd">
<!-- Generated by graphviz version 2.44.1 (20200629.0846)
 -->
<!-- Title: console::PrintBuf::putChar Pages: 1 -->
<svg width="2005pt" height="631pt"
 viewBox="0.00 0.00 2005.00 631.38" xmlns="http://www.w3.org/2000/svg" xmlns:xlink="http://www.w3.org/1999/xlink">
<g id="graph0" class="graph" transform="scale(1 1) rotate(0) translate(4 627.38)">
<title>console::PrintBuf::putChar</title>
<polygon fill="white" stroke="transparent" points="-4,4 -4,-627.38 2001,-627.38 2001,4 -4,4"/>
<!-- Node1 -->
<g id="node1" class="node">
<title>Node1</title>
<g id="a_node1"><a xlink:title=" ">
<polygon fill="#bfbfbf" stroke="black" points="0,-251 0,-281 98,-281 98,-251 0,-251"/>
<text text-anchor="start" x="8" y="-269" font-family="Helvetica,sans-Serif" font-size="10.00">console::PrintBuf::</text>
<text text-anchor="middle" x="49" y="-258" font-family="Helvetica,sans-Serif" font-size="10.00">putChar</text>
</a>
</g>
</g>
<!-- Node2 -->
<g id="node2" class="node">
<title>Node2</title>
<g id="a_node2"><a xlink:href="structconsole_1_1_print_buf.html#a956b11aeb8472c86c9fb4996bda4edaa" target="_top" xlink:title=" ">
<polygon fill="white" stroke="black" points="134,-251 134,-281 232,-281 232,-251 134,-251"/>
<text text-anchor="start" x="142" y="-269" font-family="Helvetica,sans-Serif" font-size="10.00">console::PrintBuf::</text>
<text text-anchor="middle" x="183" y="-258" font-family="Helvetica,sans-Serif" font-size="10.00">flush</text>
</a>
</g>
</g>
<!-- Node1&#45;&gt;Node2 -->
<g id="edge1" class="edge">
<title>Node1&#45;&gt;Node2</title>
<path fill="none" stroke="midnightblue" d="M98.03,-266C106.31,-266 115,-266 123.52,-266"/>
<polygon fill="midnightblue" stroke="midnightblue" points="123.79,-269.5 133.79,-266 123.79,-262.5 123.79,-269.5"/>
</g>
<!-- Node3 -->
<g id="node3" class="node">
<title>Node3</title>
<g id="a_node3"><a xlink:href="namespaceksyscall.html#a20b510ff748ce75bc0860b4ff4e15a60" target="_top" xlink:title=" ">
<polygon fill="white" stroke="black" points="268,-256.5 268,-275.5 366,-275.5 366,-256.5 268,-256.5"/>
<text text-anchor="middle" x="317" y="-263.5" font-family="Helvetica,sans-Serif" font-size="10.00">ksyscall::putString</text>
</a>
</g>
</g>
<!-- Node2&#45;&gt;Node3 -->
<g id="edge2" class="edge">
<title>Node2&#45;&gt;Node3</title>
<path fill="none" stroke="midnightblue" d="M232.03,-266C240.31,-266 249,-266 257.52,-266"/>
<polygon fill="midnightblue" stroke="midnightblue" points="257.79,-269.5 267.79,-266 257.79,-262.5 257.79,-269.5"/>
</g>
<!-- Node4 -->
<g id="node4" class="node">
<title>Node4</title>
<g id="a_node4"><a xlink:href="namespacestr.html#a062221f630647cf300f0dd982c4ed904" target="_top" xlink:title=" ">
<polygon fill="white" stroke="black" points="1939,-209.5 1939,-228.5 1997,-228.5 1997,-209.5 1939,-209.5"/>
<text text-anchor="middle" x="1968" y="-216.5" font-family="Helvetica,sans-Serif" font-size="10.00">str::count</text>
</a>
</g>
</g>
<!-- Node3&#45;&gt;Node4 -->
<g id="edge3" class="edge">
<title>Node3&#45;&gt;Node4</title>
<path fill="none" stroke="midnightblue" d="M341.98,-256.4C389.96,-238.1 501.53,-200 599,-200 599,-200 599,-200 1663,-200 1758.83,-200 1871.32,-209.52 1928.87,-215.08"/>
<polygon fill="midnightblue" stroke="midnightblue" points="1928.66,-218.58 1938.96,-216.07 1929.35,-211.61 1928.66,-218.58"/>
</g>
<!-- Node5 -->
<g id="node5" class="node">
<title>Node5</title>
<g id="a_node5"><a xlink:href="structtask_1_1_task.html#acc107ba9ef939a92f459873765fb73eb" target="_top" xlink:title=" ">
<polygon fill="white" stroke="black" points="413.5,-313.5 413.5,-332.5 514.5,-332.5 514.5,-313.5 413.5,-313.5"/>
<text text-anchor="middle" x="464" y="-320.5" font-family="Helvetica,sans-Serif" font-size="10.00">task::Task::destroy</text>
</a>
</g>
</g>
<!-- Node3&#45;&gt;Node5 -->
<g id="edge4" class="edge">
<title>Node3&#45;&gt;Node5</title>
<path fill="none" stroke="midnightblue" d="M342.27,-275.54C366.11,-284.91 402.68,-299.29 429.33,-309.76"/>
<polygon fill="midnightblue" stroke="midnightblue" points="428.06,-313.03 438.65,-313.43 430.62,-306.51 428.06,-313.03"/>
</g>
<!-- Node13 -->
<g id="node13" class="node">
<title>Node13</title>
<g id="a_node13"><a xlink:href="namespaceconsole_1_1out.html#ac6f663e3971b66b8e130ee94755a150e" target="_top" xlink:title=" ">
<polygon fill="white" stroke="black" points="678.5,-294.5 678.5,-313.5 773.5,-313.5 773.5,-294.5 678.5,-294.5"/>
<text text-anchor="middle" x="726" y="-301.5" font-family="Helvetica,sans-Serif" font-size="10.00">console::out::print</text>
</a>
</g>
</g>
<!-- Node3&#45;&gt;Node13 -->
<g id="edge43" class="edge">
<title>Node3&#45;&gt;Node13</title>
<path fill="none" stroke="midnightblue" d="M366.29,-270.51C441.76,-277.55 587.34,-291.15 667.9,-298.67"/>
<polygon fill="midnightblue" stroke="midnightblue" points="668.06,-302.2 678.34,-299.64 668.71,-295.23 668.06,-302.2"/>
</g>
<!-- Node21 -->
<g id="node21" class="node">
<title>Node21</title>
<g id="a_node21"><a xlink:href="namespaceconsole_1_1out.html#ad9fc97dff4404c2d21aedbb24691e7cb" target="_top" xlink:title=" ">
<polygon fill="white" stroke="black" points="1438,-418.5 1438,-437.5 1548,-437.5 1548,-418.5 1438,-418.5"/>
<text text-anchor="middle" x="1493" y="-425.5" font-family="Helvetica,sans-Serif" font-size="10.00">console::out::putChar</text>
</a>
</g>
</g>
<!-- Node3&#45;&gt;Node21 -->
<g id="edge44" class="edge">
<title>Node3&#45;&gt;Node21</title>
<path fill="none" stroke="midnightblue" d="M320.44,-275.78C335.29,-332.63 418.76,-618 599,-618 599,-618 599,-618 1168,-618 1267.12,-618 1305.38,-641.23 1389,-588 1442.06,-554.22 1473.17,-482.19 1485.63,-447.48"/>
<polygon fill="midnightblue" stroke="midnightblue" points="1489.08,-448.22 1489.02,-437.62 1482.46,-445.94 1489.08,-448.22"/>
</g>
<!-- Node33 -->
<g id="node33" class="node">
<title>Node33</title>
<g id="a_node33"><a xlink:href="namespacevmem_1_1pgdir.html#ac95ef4d1250d2d48baf0c3f907025f45" target="_top" xlink:title=" ">
<polygon fill="white" stroke="black" points="402,-114.5 402,-133.5 526,-133.5 526,-114.5 402,-114.5"/>
<text text-anchor="middle" x="464" y="-121.5" font-family="Helvetica,sans-Serif" font-size="10.00">vmem::pgdir::userCheck</text>
</a>
</g>
</g>
<!-- Node3&#45;&gt;Node33 -->
<g id="edge45" class="edge">
<title>Node3&#45;&gt;Node33</title>
<path fill="none" stroke="midnightblue" d="M327.97,-256.24C352.28,-232.43 414.9,-171.11 445.56,-141.08"/>
<polygon fill="midnightblue" stroke="midnightblue" points="448.27,-143.33 452.96,-133.83 443.37,-138.32 448.27,-143.33"/>
</g>
<!-- Node6 -->
<g id="node6" class="node">
<title>Node6</title>
<g id="a_node6"><a xlink:href="x86_8h.html#ab3bac932074f6042165d3016b701900a" target="_top" xlink:title=" ">
<polygon fill="white" stroke="black" points="584,-332.5 584,-351.5 616,-351.5 616,-332.5 584,-332.5"/>
<text text-anchor="middle" x="600" y="-339.5" font-family="Helvetica,sans-Serif" font-size="10.00">lcr3</text>
</a>
</g>
</g>
<!-- Node5&#45;&gt;Node6 -->
<g id="edge5" class="edge">
<title>Node5&#45;&gt;Node6</title>
<path fill="none" stroke="midnightblue" d="M514.52,-330.02C534.7,-332.88 557.16,-336.07 573.84,-338.43"/>
<polygon fill="midnightblue" stroke="midnightblue" points="573.5,-341.92 583.89,-339.86 574.48,-334.99 573.5,-341.92"/>
</g>
<!-- Node7 -->
<g id="node7" class="node">
<title>Node7</title>
<g id="a_node7"><a xlink:href="namespacemonitor.html#ac02f947e274eb7d38cdfa803c21ef579" target="_top" xlink:title=" ">
<polygon fill="white" stroke="black" points="562,-370.5 562,-389.5 638,-389.5 638,-370.5 562,-370.5"/>
<text text-anchor="middle" x="600" y="-377.5" font-family="Helvetica,sans-Serif" font-size="10.00">monitor::main</text>
</a>
</g>
</g>
<!-- Node5&#45;&gt;Node7 -->
<g id="edge6" class="edge">
<title>Node5&#45;&gt;Node7</title>
<path fill="none" stroke="midnightblue" d="M487.43,-332.54C509.27,-341.83 542.66,-356.04 567.23,-366.49"/>
<polygon fill="midnightblue" stroke="midnightblue" points="565.93,-369.73 576.5,-370.43 568.67,-363.29 565.93,-369.73"/>
</g>
<!-- Node5&#45;&gt;Node13 -->
<g id="edge42" class="edge">
<title>Node5&#45;&gt;Node13</title>
<path fill="none" stroke="midnightblue" d="M514.52,-319.38C558.35,-316.18 622.31,-311.5 668.2,-308.15"/>
<polygon fill="midnightblue" stroke="midnightblue" points="668.57,-311.63 678.29,-307.41 668.06,-304.65 668.57,-311.63"/>
</g>
<!-- Node8 -->
<g id="node8" class="node">
<title>Node8</title>
<g id="a_node8"><a xlink:href="namespacemonitor.html#a8b88ed0586263051a6af8dbff388e314" target="_top" xlink:title=" ">
<polygon fill="white" stroke="black" points="676,-370.5 676,-389.5 776,-389.5 776,-370.5 676,-370.5"/>
<text text-anchor="middle" x="726" y="-377.5" font-family="Helvetica,sans-Serif" font-size="10.00">monitor::parseCmd</text>
</a>
</g>
</g>
<!-- Node7&#45;&gt;Node8 -->
<g id="edge7" class="edge">
<title>Node7&#45;&gt;Node8</title>
<path fill="none" stroke="midnightblue" d="M638.2,-380C646.9,-380 656.38,-380 665.77,-380"/>
<polygon fill="midnightblue" stroke="midnightblue" points="665.88,-383.5 675.88,-380 665.88,-376.5 665.88,-383.5"/>
</g>
<!-- Node7&#45;&gt;Node13 -->
<g id="edge13" class="edge">
<title>Node7&#45;&gt;Node13</title>
<path fill="none" stroke="midnightblue" d="M620.79,-370.32C626.42,-367.44 632.51,-364.2 638,-361 660.72,-347.77 685.75,-331.15 703.1,-319.27"/>
<polygon fill="midnightblue" stroke="midnightblue" points="705.17,-322.1 711.42,-313.54 701.2,-316.33 705.17,-322.1"/>
</g>
<!-- Node28 -->
<g id="node28" class="node">
<title>Node28</title>
<g id="a_node28"><a xlink:href="namespaceconsole_1_1err.html#a124c7e8527c0e3fd2b9636411aea7e82" target="_top" xlink:title=" ">
<polygon fill="white" stroke="black" points="680,-522.5 680,-541.5 772,-541.5 772,-522.5 680,-522.5"/>
<text text-anchor="middle" x="726" y="-529.5" font-family="Helvetica,sans-Serif" font-size="10.00">console::err::print</text>
</a>
</g>
</g>
<!-- Node7&#45;&gt;Node28 -->
<g id="edge33" class="edge">
<title>Node7&#45;&gt;Node28</title>
<path fill="none" stroke="midnightblue" d="M608.76,-389.51C629.11,-414.46 684.3,-482.11 710.64,-514.39"/>
<polygon fill="midnightblue" stroke="midnightblue" points="708.21,-516.96 717.25,-522.5 713.64,-512.53 708.21,-516.96"/>
</g>
<!-- Node30 -->
<g id="node30" class="node">
<title>Node30</title>
<g id="a_node30"><a xlink:href="namespaceconsole_1_1in.html#afa763e7729f2e6fbdcf4c14e44ad7a29" target="_top" xlink:title=" ">
<polygon fill="white" stroke="black" points="674,-408.5 674,-427.5 778,-427.5 778,-408.5 674,-408.5"/>
<text text-anchor="middle" x="726" y="-415.5" font-family="Helvetica,sans-Serif" font-size="10.00">console::in::readline</text>
</a>
</g>
</g>
<!-- Node7&#45;&gt;Node30 -->
<g id="edge37" class="edge">
<title>Node7&#45;&gt;Node30</title>
<path fill="none" stroke="midnightblue" d="M632.29,-389.59C648,-394.4 667.24,-400.3 684.11,-405.47"/>
<polygon fill="midnightblue" stroke="midnightblue" points="683.13,-408.83 693.72,-408.41 685.18,-402.14 683.13,-408.83"/>
</g>
<!-- Node9 -->
<g id="node9" class="node">
<title>Node9</title>
<g id="a_node9"><a xlink:href="namespacestr.html#ace5edf7e67a558a1c4ead28a66faba41" target="_top" xlink:title=" ">
<polygon fill="white" stroke="black" points="833.5,-370.5 833.5,-389.5 909.5,-389.5 909.5,-370.5 833.5,-370.5"/>
<text text-anchor="middle" x="871.5" y="-377.5" font-family="Helvetica,sans-Serif" font-size="10.00">str::cmpCase</text>
</a>
</g>
</g>
<!-- Node8&#45;&gt;Node9 -->
<g id="edge8" class="edge">
<title>Node8&#45;&gt;Node9</title>
<path fill="none" stroke="midnightblue" d="M776.38,-380C791.54,-380 808.16,-380 823.17,-380"/>
<polygon fill="midnightblue" stroke="midnightblue" points="823.27,-383.5 833.27,-380 823.27,-376.5 823.27,-383.5"/>
</g>
<!-- Node10 -->
<g id="node10" class="node">
<title>Node10</title>
<g id="a_node10"><a xlink:href="namespacestr.html#a12522233f7d73122d76de5c82e44a183" target="_top" xlink:title=" ">
<polygon fill="white" stroke="black" points="838,-332.5 838,-351.5 905,-351.5 905,-332.5 838,-332.5"/>
<text text-anchor="middle" x="871.5" y="-339.5" font-family="Helvetica,sans-Serif" font-size="10.00">str::splitWs</text>
</a>
</g>
</g>
<!-- Node8&#45;&gt;Node10 -->
<g id="edge9" class="edge">
<title>Node8&#45;&gt;Node10</title>
<path fill="none" stroke="midnightblue" d="M763.21,-370.41C782.9,-365.2 807.38,-358.72 827.97,-353.26"/>
<polygon fill="midnightblue" stroke="midnightblue" points="828.96,-356.62 837.74,-350.68 827.17,-349.85 828.96,-356.62"/>
</g>
<!-- Node11 -->
<g id="node11" class="node">
<title>Node11</title>
<g id="a_node11"><a xlink:href="namespacestr.html#a0e183e333ba05550c6b206906dbf0f10" target="_top" xlink:title=" ">
<polygon fill="white" stroke="black" points="992,-266.5 992,-285.5 1044,-285.5 1044,-266.5 992,-266.5"/>
<text text-anchor="middle" x="1018" y="-273.5" font-family="Helvetica,sans-Serif" font-size="10.00">str::split</text>
</a>
</g>
</g>
<!-- Node10&#45;&gt;Node11 -->
<g id="edge10" class="edge">
<title>Node10&#45;&gt;Node11</title>
<path fill="none" stroke="midnightblue" d="M893.51,-332.4C918.02,-321.21 958.73,-302.62 986.66,-289.86"/>
<polygon fill="midnightblue" stroke="midnightblue" points="988.32,-292.95 995.96,-285.61 985.41,-286.58 988.32,-292.95"/>
</g>
<!-- Node11&#45;&gt;Node4 -->
<g id="edge11" class="edge">
<title>Node11&#45;&gt;Node4</title>
<path fill="none" stroke="midnightblue" d="M1044.26,-269.66C1061.77,-265.49 1085.67,-260.22 1107,-257 1203.17,-242.49 1227.74,-238 1325,-238 1325,-238 1325,-238 1663,-238 1758.83,-238 1871.32,-228.48 1928.87,-222.92"/>
<polygon fill="midnightblue" stroke="midnightblue" points="1929.35,-226.39 1938.96,-221.93 1928.66,-219.42 1929.35,-226.39"/>
</g>
<!-- Node12 -->
<g id="node12" class="node">
<title>Node12</title>
<g id="a_node12"><a xlink:href="namespacestr.html#a4b4d986113337f946299cef82449cf52" target="_top" xlink:title=" ">
<polygon fill="white" stroke="black" points="1142,-266.5 1142,-285.5 1192,-285.5 1192,-266.5 1142,-266.5"/>
<text text-anchor="middle" x="1167" y="-273.5" font-family="Helvetica,sans-Serif" font-size="10.00">str::find</text>
</a>
</g>
</g>
<!-- Node11&#45;&gt;Node12 -->
<g id="edge12" class="edge">
<title>Node11&#45;&gt;Node12</title>
<path fill="none" stroke="midnightblue" d="M1044.27,-276C1068.33,-276 1104.73,-276 1131.47,-276"/>
<polygon fill="midnightblue" stroke="midnightblue" points="1131.55,-279.5 1141.55,-276 1131.55,-272.5 1131.55,-279.5"/>
</g>
<!-- Node14 -->
<g id="node14" class="node">
<title>Node14</title>
<g id="a_node14"><a xlink:href="namespaceconsole_1_1out.html#a8f791bfac54067cadb1b9f18117b987b" target="_top" xlink:title=" ">
<polygon fill="white" stroke="black" points="965,-323.5 965,-342.5 1071,-342.5 1071,-323.5 965,-323.5"/>
<text text-anchor="middle" x="1018" y="-330.5" font-family="Helvetica,sans-Serif" font-size="10.00">console::out::printVa</text>
</a>
</g>
</g>
<!-- Node13&#45;&gt;Node14 -->
<g id="edge14" class="edge">
<title>Node13&#45;&gt;Node14</title>
<path fill="none" stroke="midnightblue" d="M773.56,-308.12C814.52,-311.81 875.75,-317.47 929,-323 937.35,-323.87 946.15,-324.82 954.82,-325.78"/>
<polygon fill="midnightblue" stroke="midnightblue" points="954.57,-329.28 964.9,-326.91 955.35,-322.32 954.57,-329.28"/>
</g>
<!-- Node15 -->
<g id="node15" class="node">
<title>Node15</title>
<g id="a_node15"><a xlink:href="namespaceconsole_1_1ge.html#af642934cb833142f133285fdb75ef7b7" target="_top" xlink:title=" ">
<polygon fill="white" stroke="black" points="1107,-399.5 1107,-418.5 1227,-418.5 1227,-399.5 1107,-399.5"/>
<text text-anchor="middle" x="1167" y="-406.5" font-family="Helvetica,sans-Serif" font-size="10.00">console::ge::printFmtVa</text>
</a>
</g>
</g>
<!-- Node14&#45;&gt;Node15 -->
<g id="edge15" class="edge">
<title>Node14&#45;&gt;Node15</title>
<path fill="none" stroke="midnightblue" d="M1037.62,-342.63C1063.13,-355.82 1109.15,-379.61 1138.6,-394.83"/>
<polygon fill="midnightblue" stroke="midnightblue" points="1137.04,-397.97 1147.53,-399.45 1140.26,-391.75 1137.04,-397.97"/>
</g>
<!-- Node14&#45;&gt;Node21 -->
<g id="edge32" class="edge">
<title>Node14&#45;&gt;Node21</title>
<path fill="none" stroke="midnightblue" d="M1057.47,-323.44C1126.98,-308.2 1276.74,-284.71 1389,-333 1410.37,-342.19 1408.12,-355 1425,-371 1440.24,-385.44 1458.43,-400.81 1472.01,-411.95"/>
<polygon fill="midnightblue" stroke="midnightblue" points="1469.84,-414.69 1479.8,-418.29 1474.25,-409.26 1469.84,-414.69"/>
</g>
<!-- Node15&#45;&gt;Node4 -->
<g id="edge18" class="edge">
<title>Node15&#45;&gt;Node4</title>
<path fill="none" stroke="midnightblue" d="M1176.25,-399.41C1191.44,-382.52 1225.71,-347.84 1263,-333 1357.89,-295.24 1389.87,-314 1492,-314 1492,-314 1492,-314 1663,-314 1773.17,-314 1800.07,-291.27 1903,-252 1916.23,-246.95 1930.28,-239.91 1941.84,-233.63"/>
<polygon fill="midnightblue" stroke="midnightblue" points="1943.86,-236.51 1950.89,-228.59 1940.45,-230.4 1943.86,-236.51"/>
</g>
<!-- Node16 -->
<g id="node16" class="node">
<title>Node16</title>
<g id="a_node16"><a xlink:href="printfmt_8cc.html#a708ec6ee2b8bd2d7a453d8d9436ed3b3" target="_top" xlink:title=" ">
<polygon fill="white" stroke="black" points="1297,-494.5 1297,-513.5 1355,-513.5 1355,-494.5 1297,-494.5"/>
<text text-anchor="middle" x="1326" y="-501.5" font-family="Helvetica,sans-Serif" font-size="10.00">_getIntVa</text>
</a>
</g>
</g>
<!-- Node15&#45;&gt;Node16 -->
<g id="edge16" class="edge">
<title>Node15&#45;&gt;Node16</title>
<path fill="none" stroke="midnightblue" d="M1177.37,-418.57C1193.48,-434.5 1228.08,-466.55 1263,-485 1270.5,-488.96 1278.96,-492.24 1287.16,-494.89"/>
<polygon fill="midnightblue" stroke="midnightblue" points="1286.37,-498.31 1296.95,-497.82 1288.37,-491.6 1286.37,-498.31"/>
</g>
<!-- Node17 -->
<g id="node17" class="node">
<title>Node17</title>
<g id="a_node17"><a xlink:href="printfmt_8cc.html#af4b46892c76c8bfd27efdb20847eb7c8" target="_top" xlink:title=" ">
<polygon fill="white" stroke="black" points="1293.5,-456.5 1293.5,-475.5 1358.5,-475.5 1358.5,-456.5 1293.5,-456.5"/>
<text text-anchor="middle" x="1326" y="-463.5" font-family="Helvetica,sans-Serif" font-size="10.00">_getUIntVa</text>
</a>
</g>
</g>
<!-- Node15&#45;&gt;Node17 -->
<g id="edge17" class="edge">
<title>Node15&#45;&gt;Node17</title>
<path fill="none" stroke="midnightblue" d="M1190.45,-418.59C1209.57,-426.62 1237.87,-438.14 1263,-447 1269.56,-449.31 1276.57,-451.62 1283.43,-453.78"/>
<polygon fill="midnightblue" stroke="midnightblue" points="1282.71,-457.22 1293.29,-456.84 1284.78,-450.54 1282.71,-457.22"/>
</g>
<!-- Node18 -->
<g id="node18" class="node">
<title>Node18</title>
<g id="a_node18"><a xlink:href="printfmt_8cc.html#a0e3e484ece5e75b9f5fbe337f0ae8ae3" target="_top" xlink:title=" ">
<polygon fill="white" stroke="black" points="1299.5,-342.5 1299.5,-361.5 1352.5,-361.5 1352.5,-342.5 1299.5,-342.5"/>
<text text-anchor="middle" x="1326" y="-349.5" font-family="Helvetica,sans-Serif" font-size="10.00">describe</text>
</a>
</g>
</g>
<!-- Node15&#45;&gt;Node18 -->
<g id="edge19" class="edge">
<title>Node15&#45;&gt;Node18</title>
<path fill="none" stroke="midnightblue" d="M1194.28,-399.46C1220.44,-389.96 1260.76,-375.32 1289.7,-364.82"/>
<polygon fill="midnightblue" stroke="midnightblue" points="1291.21,-367.99 1299.42,-361.29 1288.82,-361.41 1291.21,-367.99"/>
</g>
<!-- Node20 -->
<g id="node20" class="node">
<title>Node20</title>
<g id="a_node20"><a xlink:href="namespaceconsole_1_1ge.html#a7e301813fd34fde772376afc5fdad95d" target="_top" xlink:title=" ">
<polygon fill="white" stroke="black" points="1263,-418.5 1263,-437.5 1389,-437.5 1389,-418.5 1263,-418.5"/>
<text text-anchor="middle" x="1326" y="-425.5" font-family="Helvetica,sans-Serif" font-size="10.00">console::ge::printNumber</text>
</a>
</g>
</g>
<!-- Node15&#45;&gt;Node20 -->
<g id="edge21" class="edge">
<title>Node15&#45;&gt;Node20</title>
<path fill="none" stroke="midnightblue" d="M1227.35,-416.18C1235.72,-417.2 1244.39,-418.24 1252.96,-419.28"/>
<polygon fill="midnightblue" stroke="midnightblue" points="1252.6,-422.76 1262.95,-420.49 1253.44,-415.81 1252.6,-422.76"/>
</g>
<!-- Node15&#45;&gt;Node21 -->
<g id="edge31" class="edge">
<title>Node15&#45;&gt;Node21</title>
<path fill="none" stroke="midnightblue" d="M1227.23,-406.08C1271.81,-404.59 1334.36,-404 1389,-409 1405.8,-410.54 1423.94,-413.45 1440.25,-416.55"/>
<polygon fill="midnightblue" stroke="midnightblue" points="1439.66,-420 1450.15,-418.49 1441.01,-413.13 1439.66,-420"/>
</g>
<!-- Node19 -->
<g id="node19" class="node">
<title>Node19</title>
<g id="a_node19"><a xlink:href="namespacemonitor.html#a318993193c866642f8389a1c1f285739" target="_top" xlink:title=" ">
<polygon fill="white" stroke="black" points="1456,-342.5 1456,-361.5 1530,-361.5 1530,-342.5 1456,-342.5"/>
<text text-anchor="middle" x="1493" y="-349.5" font-family="Helvetica,sans-Serif" font-size="10.00">monitor::fuck</text>
</a>
</g>
</g>
<!-- Node18&#45;&gt;Node19 -->
<g id="edge20" class="edge">
<title>Node18&#45;&gt;Node19</title>
<path fill="none" stroke="midnightblue" d="M1352.78,-352C1377.59,-352 1415.66,-352 1445.73,-352"/>
<polygon fill="midnightblue" stroke="midnightblue" points="1445.99,-355.5 1455.99,-352 1445.99,-348.5 1445.99,-355.5"/>
</g>
<!-- Node20&#45;&gt;Node21 -->
<g id="edge22" class="edge">
<title>Node20&#45;&gt;Node21</title>
<path fill="none" stroke="midnightblue" d="M1389.38,-428C1401.86,-428 1414.99,-428 1427.53,-428"/>
<polygon fill="midnightblue" stroke="midnightblue" points="1427.91,-431.5 1437.91,-428 1427.91,-424.5 1427.91,-431.5"/>
</g>
<!-- Node22 -->
<g id="node22" class="node">
<title>Node22</title>
<g id="a_node22"><a xlink:href="namespaceconsole_1_1serial.html#a3a7c1f95ae3c24136ea63bb31fdf0391" target="_top" xlink:title=" ">
<polygon fill="white" stroke="black" points="1602,-418.5 1602,-437.5 1722,-437.5 1722,-418.5 1602,-418.5"/>
<text text-anchor="middle" x="1662" y="-425.5" font-family="Helvetica,sans-Serif" font-size="10.00">console::serial::putChar</text>
</a>
</g>
</g>
<!-- Node21&#45;&gt;Node22 -->
<g id="edge23" class="edge">
<title>Node21&#45;&gt;Node22</title>
<path fill="none" stroke="midnightblue" d="M1548.22,-428C1562.02,-428 1577.03,-428 1591.47,-428"/>
<polygon fill="midnightblue" stroke="midnightblue" points="1591.86,-431.5 1601.86,-428 1591.86,-424.5 1591.86,-431.5"/>
</g>
<!-- Node25 -->
<g id="node25" class="node">
<title>Node25</title>
<g id="a_node25"><a xlink:href="namespaceconsole_1_1cga.html#afa19057ca041b39682d5d4831c43dfa0" target="_top" xlink:title=" ">
<polygon fill="white" stroke="black" points="1605.5,-380.5 1605.5,-399.5 1718.5,-399.5 1718.5,-380.5 1605.5,-380.5"/>
<text text-anchor="middle" x="1662" y="-387.5" font-family="Helvetica,sans-Serif" font-size="10.00">console::cga::putChar</text>
</a>
</g>
</g>
<!-- Node21&#45;&gt;Node25 -->
<g id="edge26" class="edge">
<title>Node21&#45;&gt;Node25</title>
<path fill="none" stroke="midnightblue" d="M1536.14,-418.41C1558.38,-413.35 1585.85,-407.1 1609.36,-401.75"/>
<polygon fill="midnightblue" stroke="midnightblue" points="1610.19,-405.15 1619.16,-399.52 1608.63,-398.33 1610.19,-405.15"/>
</g>
<!-- Node23 -->
<g id="node23" class="node">
<title>Node23</title>
<g id="a_node23"><a xlink:href="namespaceconsole_1_1serial.html#aa5605d4537106bb1c2bab72d7d1a5824" target="_top" xlink:title=" ">
<polygon fill="white" stroke="black" points="1781,-418.5 1781,-437.5 1885,-437.5 1885,-418.5 1781,-418.5"/>
<text text-anchor="middle" x="1833" y="-425.5" font-family="Helvetica,sans-Serif" font-size="10.00">console::serial::sout</text>
</a>
</g>
</g>
<!-- Node22&#45;&gt;Node23 -->
<g id="edge24" class="edge">
<title>Node22&#45;&gt;Node23</title>
<path fill="none" stroke="midnightblue" d="M1722.11,-428C1737.8,-428 1754.79,-428 1770.6,-428"/>
<polygon fill="midnightblue" stroke="midnightblue" points="1770.8,-431.5 1780.8,-428 1770.8,-424.5 1770.8,-431.5"/>
</g>
<!-- Node24 -->
<g id="node24" class="node">
<title>Node24</title>
<g id="a_node24"><a xlink:href="x86_8h.html#ade961b44e45ddacbc3c3b7609cf36dc6" target="_top" xlink:title=" ">
<polygon fill="white" stroke="black" points="1950.5,-399.5 1950.5,-418.5 1985.5,-418.5 1985.5,-399.5 1950.5,-399.5"/>
<text text-anchor="middle" x="1968" y="-406.5" font-family="Helvetica,sans-Serif" font-size="10.00">outb</text>
</a>
</g>
</g>
<!-- Node23&#45;&gt;Node24 -->
<g id="edge25" class="edge">
<title>Node23&#45;&gt;Node24</title>
<path fill="none" stroke="midnightblue" d="M1885.04,-420.71C1903.85,-418.02 1924.4,-415.09 1940.22,-412.83"/>
<polygon fill="midnightblue" stroke="midnightblue" points="1940.94,-416.26 1950.34,-411.38 1939.95,-409.33 1940.94,-416.26"/>
</g>
<!-- Node26 -->
<g id="node26" class="node">
<title>Node26</title>
<g id="a_node26"><a xlink:href="namespacemem.html#a64d9d05b439041901498c606de606431" target="_top" xlink:title=" ">
<polygon fill="white" stroke="black" points="1800.5,-342.5 1800.5,-361.5 1865.5,-361.5 1865.5,-342.5 1800.5,-342.5"/>
<text text-anchor="middle" x="1833" y="-349.5" font-family="Helvetica,sans-Serif" font-size="10.00">mem::copy</text>
</a>
</g>
</g>
<!-- Node25&#45;&gt;Node26 -->
<g id="edge27" class="edge">
<title>Node25&#45;&gt;Node26</title>
<path fill="none" stroke="midnightblue" d="M1705.65,-380.41C1731.63,-374.57 1764.68,-367.14 1790.46,-361.34"/>
<polygon fill="midnightblue" stroke="midnightblue" points="1791.32,-364.74 1800.31,-359.13 1789.78,-357.91 1791.32,-364.74"/>
</g>
<!-- Node27 -->
<g id="node27" class="node">
<title>Node27</title>
<g id="a_node27"><a xlink:href="namespaceconsole_1_1cga.html#a06463d4dc68819e30615ba299d02a78f" target="_top" xlink:title=" ">
<polygon fill="white" stroke="black" points="1763,-380.5 1763,-399.5 1903,-399.5 1903,-380.5 1763,-380.5"/>
<text text-anchor="middle" x="1833" y="-387.5" font-family="Helvetica,sans-Serif" font-size="10.00">console::cga::cursorRefresh</text>
</a>
</g>
</g>
<!-- Node25&#45;&gt;Node27 -->
<g id="edge29" class="edge">
<title>Node25&#45;&gt;Node27</title>
<path fill="none" stroke="midnightblue" d="M1718.81,-390C1729.74,-390 1741.39,-390 1752.92,-390"/>
<polygon fill="midnightblue" stroke="midnightblue" points="1752.99,-393.5 1762.99,-390 1752.99,-386.5 1752.99,-393.5"/>
</g>
<!-- Node26&#45;&gt;Node4 -->
<g id="edge28" class="edge">
<title>Node26&#45;&gt;Node4</title>
<path fill="none" stroke="midnightblue" d="M1865.55,-346.02C1878.22,-342.42 1892.31,-336.77 1903,-328 1932.4,-303.87 1951.33,-262.44 1960.49,-238.2"/>
<polygon fill="midnightblue" stroke="midnightblue" points="1963.82,-239.28 1963.91,-228.68 1957.23,-236.91 1963.82,-239.28"/>
</g>
<!-- Node27&#45;&gt;Node24 -->
<g id="edge30" class="edge">
<title>Node27&#45;&gt;Node24</title>
<path fill="none" stroke="midnightblue" d="M1900.89,-399.56C1914.81,-401.54 1928.71,-403.53 1940.15,-405.16"/>
<polygon fill="midnightblue" stroke="midnightblue" points="1939.88,-408.66 1950.28,-406.61 1940.87,-401.73 1939.88,-408.66"/>
</g>
<!-- Node29 -->
<g id="node29" class="node">
<title>Node29</title>
<g id="a_node29"><a xlink:href="namespaceconsole_1_1err.html#a4cd18e4c409b5b17ecec61ce83b05fba" target="_top" xlink:title=" ">
<polygon fill="white" stroke="black" points="966,-570.5 966,-589.5 1070,-589.5 1070,-570.5 966,-570.5"/>
<text text-anchor="middle" x="1018" y="-577.5" font-family="Helvetica,sans-Serif" font-size="10.00">console::err::printVa</text>
</a>
</g>
</g>
<!-- Node28&#45;&gt;Node29 -->
<g id="edge34" class="edge">
<title>Node28&#45;&gt;Node29</title>
<path fill="none" stroke="midnightblue" d="M772.31,-539.5C821.65,-547.67 900.84,-560.77 955.71,-569.85"/>
<polygon fill="midnightblue" stroke="midnightblue" points="955.22,-573.32 965.65,-571.5 956.36,-566.42 955.22,-573.32"/>
</g>
<!-- Node29&#45;&gt;Node15 -->
<g id="edge35" class="edge">
<title>Node29&#45;&gt;Node15</title>
<path fill="none" stroke="midnightblue" d="M1027.32,-570.32C1051.28,-542.45 1120.61,-461.8 1151.2,-426.22"/>
<polygon fill="midnightblue" stroke="midnightblue" points="1153.9,-428.44 1157.77,-418.58 1148.59,-423.88 1153.9,-428.44"/>
</g>
<!-- Node29&#45;&gt;Node21 -->
<g id="edge36" class="edge">
<title>Node29&#45;&gt;Node21</title>
<path fill="none" stroke="midnightblue" d="M1070.28,-589.03C1145.02,-599.57 1286.17,-609.4 1389,-556 1435.65,-531.78 1468.51,-476.1 1483.26,-446.81"/>
<polygon fill="midnightblue" stroke="midnightblue" points="1486.49,-448.17 1487.72,-437.64 1480.2,-445.11 1486.49,-448.17"/>
</g>
<!-- Node31 -->
<g id="node31" class="node">
<title>Node31</title>
<g id="a_node31"><a xlink:href="namespaceconsole_1_1in.html#ac28354dad0498aa6bb0c178b10d62c8a" target="_top" xlink:title=" ">
<polygon fill="white" stroke="black" points="814,-408.5 814,-427.5 929,-427.5 929,-408.5 814,-408.5"/>
<text text-anchor="middle" x="871.5" y="-415.5" font-family="Helvetica,sans-Serif" font-size="10.00">console::in::readlineVa</text>
</a>
</g>
</g>
<!-- Node30&#45;&gt;Node31 -->
<g id="edge38" class="edge">
<title>Node30&#45;&gt;Node31</title>
<path fill="none" stroke="midnightblue" d="M778.4,-418C786.52,-418 795.02,-418 803.43,-418"/>
<polygon fill="midnightblue" stroke="midnightblue" points="803.62,-421.5 813.62,-418 803.62,-414.5 803.62,-421.5"/>
</g>
<!-- Node31&#45;&gt;Node14 -->
<g id="edge40" class="edge">
<title>Node31&#45;&gt;Node14</title>
<path fill="none" stroke="midnightblue" d="M906.69,-408.46C914.23,-405.82 922.04,-402.66 929,-399 955.05,-385.3 981.64,-364.18 998.66,-349.53"/>
<polygon fill="midnightblue" stroke="midnightblue" points="1001.43,-351.76 1006.64,-342.53 996.82,-346.49 1001.43,-351.76"/>
</g>
<!-- Node31&#45;&gt;Node21 -->
<g id="edge41" class="edge">
<title>Node31&#45;&gt;Node21</title>
<path fill="none" stroke="midnightblue" d="M888.7,-427.73C953.69,-465.47 1201.07,-596.43 1389,-523 1428.61,-507.52 1462.15,-468.89 1479.44,-445.94"/>
<polygon fill="midnightblue" stroke="midnightblue" points="1482.37,-447.86 1485.44,-437.72 1476.72,-443.73 1482.37,-447.86"/>
</g>
<!-- Node32 -->
<g id="node32" class="node">
<title>Node32</title>
<g id="a_node32"><a xlink:href="namespaceconsole_1_1in.html#a6fc069f2bc57fda183e3b991c31ec5a7" target="_top" xlink:title=" ">
<polygon fill="white" stroke="black" points="966,-408.5 966,-427.5 1070,-427.5 1070,-408.5 966,-408.5"/>
<text text-anchor="middle" x="1018" y="-415.5" font-family="Helvetica,sans-Serif" font-size="10.00">console::in::getChar</text>
</a>
</g>
</g>
<!-- Node31&#45;&gt;Node32 -->
<g id="edge39" class="edge">
<title>Node31&#45;&gt;Node32</title>
<path fill="none" stroke="midnightblue" d="M929.2,-418C937.83,-418 946.78,-418 955.52,-418"/>
<polygon fill="midnightblue" stroke="midnightblue" points="955.64,-421.5 965.64,-418 955.64,-414.5 955.64,-421.5"/>
</g>
<!-- Node34 -->
<g id="node34" class="node">
<title>Node34</title>
<g id="a_node34"><a xlink:href="namespacevmem_1_1pgdir.html#a933a8f939084dabdb1a4b5401bebf8d7" target="_top" xlink:title=" ">
<polygon fill="white" stroke="black" points="1272.5,-85.5 1272.5,-104.5 1379.5,-104.5 1379.5,-85.5 1272.5,-85.5"/>
<text text-anchor="middle" x="1326" y="-92.5" font-family="Helvetica,sans-Serif" font-size="10.00">vmem::pgdir::findPte</text>
</a>
</g>
</g>
<!-- Node33&#45;&gt;Node34 -->
<g id="edge46" class="edge">
<title>Node33&#45;&gt;Node34</title>
<path fill="none" stroke="midnightblue" d="M526.18,-120.32C578.85,-117.47 656.9,-114 725,-114 725,-114 725,-114 1019,-114 1103.33,-114 1200.48,-106.72 1262.28,-101.18"/>
<polygon fill="midnightblue" stroke="midnightblue" points="1262.62,-104.66 1272.27,-100.27 1261.99,-97.69 1262.62,-104.66"/>
</g>
<!-- Node35 -->
<g id="node35" class="node">
<title>Node35</title>
<g id="a_node35"><a xlink:href="structvmem_1_1_page_info.html#afcdcb7e941219a8ec999353658e3c2aa" target="_top" xlink:title=" ">
<polygon fill="white" stroke="black" points="1435.5,-114.5 1435.5,-133.5 1550.5,-133.5 1550.5,-114.5 1435.5,-114.5"/>
<text text-anchor="middle" x="1493" y="-121.5" font-family="Helvetica,sans-Serif" font-size="10.00">vmem::PageInfo::alloc</text>
</a>
</g>
</g>
<!-- Node34&#45;&gt;Node35 -->
<g id="edge47" class="edge">
<title>Node34&#45;&gt;Node35</title>
<path fill="none" stroke="midnightblue" d="M1379.66,-104.26C1394.9,-106.93 1411.71,-109.89 1427.59,-112.68"/>
<polygon fill="midnightblue" stroke="midnightblue" points="1427.4,-116.2 1437.85,-114.48 1428.61,-109.31 1427.4,-116.2"/>
</g>
<!-- Node36 -->
<g id="node36" class="node">
<title>Node36</title>
<g id="a_node36"><a xlink:href="namespacemem.html#a981dd0cb1408b798a79443c6245e9c55" target="_top" xlink:title=" ">
<polygon fill="white" stroke="black" points="1629.5,-133.5 1629.5,-152.5 1694.5,-152.5 1694.5,-133.5 1629.5,-133.5"/>
<text text-anchor="middle" x="1662" y="-140.5" font-family="Helvetica,sans-Serif" font-size="10.00">mem::clear</text>
</a>
</g>
</g>
<!-- Node34&#45;&gt;Node36 -->
<g id="edge54" class="edge">
<title>Node34&#45;&gt;Node36</title>
<path fill="none" stroke="midnightblue" d="M1341.16,-104.53C1359.54,-116.28 1393.07,-135.6 1425,-143 1491.56,-158.43 1571.55,-153.75 1619.23,-148.62"/>
<polygon fill="midnightblue" stroke="midnightblue" points="1619.64,-152.1 1629.18,-147.49 1618.85,-145.14 1619.64,-152.1"/>
</g>
<!-- Node38 -->
<g id="node38" class="node">
<title>Node38</title>
<g id="a_node38"><a xlink:href="structvmem_1_1_page_info.html#afc863f1d364462ddd2c20bf31f588337" target="_top" xlink:title=" ">
<polygon fill="white" stroke="black" points="1597,-76.5 1597,-95.5 1727,-95.5 1727,-76.5 1597,-76.5"/>
<text text-anchor="middle" x="1662" y="-83.5" font-family="Helvetica,sans-Serif" font-size="10.00">vmem::PageInfo::toKernV</text>
</a>
</g>
</g>
<!-- Node34&#45;&gt;Node38 -->
<g id="edge57" class="edge">
<title>Node34&#45;&gt;Node38</title>
<path fill="none" stroke="midnightblue" d="M1379.55,-93.58C1435.24,-92.08 1523.64,-89.7 1586.5,-88.01"/>
<polygon fill="midnightblue" stroke="midnightblue" points="1586.85,-91.5 1596.75,-87.73 1586.66,-84.5 1586.85,-91.5"/>
</g>
<!-- Node39 -->
<g id="node39" class="node">
<title>Node39</title>
<g id="a_node39"><a xlink:href="structvmem_1_1_page_info.html#accf2071c7875c29c9aa78a01ef5963a1" target="_top" xlink:title=" ">
<polygon fill="white" stroke="black" points="1773,-57.5 1773,-76.5 1893,-76.5 1893,-57.5 1773,-57.5"/>
<text text-anchor="middle" x="1833" y="-64.5" font-family="Helvetica,sans-Serif" font-size="10.00">vmem::PageInfo::toPhy</text>
</a>
</g>
</g>
<!-- Node34&#45;&gt;Node39 -->
<g id="edge58" class="edge">
<title>Node34&#45;&gt;Node39</title>
<path fill="none" stroke="midnightblue" d="M1379.65,-87.91C1433.97,-80.98 1521.23,-70.92 1597,-67 1652.61,-64.12 1715.72,-64.31 1762.53,-65.12"/>
<polygon fill="midnightblue" stroke="midnightblue" points="1762.5,-68.62 1772.56,-65.31 1762.63,-61.62 1762.5,-68.62"/>
</g>
<!-- Node40 -->
<g id="node40" class="node">
<title>Node40</title>
<g id="a_node40"><a xlink:href="namespacevmem_1_1pgdir.html#a972bb045d4c58b0ea9c569e05831bbb6" target="_top" xlink:title=" ">
<polygon fill="white" stroke="black" points="1425,-0.5 1425,-19.5 1561,-19.5 1561,-0.5 1425,-0.5"/>
<text text-anchor="middle" x="1493" y="-7.5" font-family="Helvetica,sans-Serif" font-size="10.00">vmem::pgdir::invalidateTLB</text>
</a>
</g>
</g>
<!-- Node34&#45;&gt;Node40 -->
<g id="edge55" class="edge">
<title>Node34&#45;&gt;Node40</title>
<path fill="none" stroke="midnightblue" d="M1340.43,-85.35C1358.83,-72.43 1393.25,-49.35 1425,-34 1433.41,-29.93 1442.71,-26.17 1451.62,-22.89"/>
<polygon fill="midnightblue" stroke="midnightblue" points="1452.83,-26.18 1461.09,-19.53 1450.49,-19.58 1452.83,-26.18"/>
</g>
<!-- Node35&#45;&gt;Node36 -->
<g id="edge48" class="edge">
<title>Node35&#45;&gt;Node36</title>
<path fill="none" stroke="midnightblue" d="M1550.54,-130.43C1573.04,-132.99 1598.47,-135.89 1619.26,-138.25"/>
<polygon fill="midnightblue" stroke="midnightblue" points="1619.02,-141.75 1629.36,-139.4 1619.82,-134.79 1619.02,-141.75"/>
</g>
<!-- Node35&#45;&gt;Node38 -->
<g id="edge52" class="edge">
<title>Node35&#45;&gt;Node38</title>
<path fill="none" stroke="midnightblue" d="M1536.14,-114.41C1558.38,-109.35 1585.85,-103.1 1609.36,-97.75"/>
<polygon fill="midnightblue" stroke="midnightblue" points="1610.19,-101.15 1619.16,-95.52 1608.63,-94.33 1610.19,-101.15"/>
</g>
<!-- Node36&#45;&gt;Node4 -->
<g id="edge49" class="edge">
<title>Node36&#45;&gt;Node4</title>
<path fill="none" stroke="midnightblue" d="M1694.82,-145.65C1741.5,-150.22 1830.84,-161.55 1903,-186 1916.73,-190.65 1931.16,-197.86 1942.83,-204.36"/>
<polygon fill="midnightblue" stroke="midnightblue" points="1941.12,-207.41 1951.54,-209.35 1944.61,-201.34 1941.12,-207.41"/>
</g>
<!-- Node37 -->
<g id="node37" class="node">
<title>Node37</title>
<g id="a_node37"><a xlink:href="namespacemem.html#adbaba9127c03fb914f752bfe19d6d089" target="_top" xlink:title=" ">
<polygon fill="white" stroke="black" points="1804,-114.5 1804,-133.5 1862,-133.5 1862,-114.5 1804,-114.5"/>
<text text-anchor="middle" x="1833" y="-121.5" font-family="Helvetica,sans-Serif" font-size="10.00">mem::set</text>
</a>
</g>
</g>
<!-- Node36&#45;&gt;Node37 -->
<g id="edge50" class="edge">
<title>Node36&#45;&gt;Node37</title>
<path fill="none" stroke="midnightblue" d="M1694.79,-139.43C1722.93,-136.26 1764.05,-131.64 1793.94,-128.28"/>
<polygon fill="midnightblue" stroke="midnightblue" points="1794.45,-131.74 1804,-127.15 1793.67,-124.79 1794.45,-131.74"/>
</g>
<!-- Node37&#45;&gt;Node4 -->
<g id="edge51" class="edge">
<title>Node37&#45;&gt;Node4</title>
<path fill="none" stroke="midnightblue" d="M1862,-130.29C1875.16,-134.08 1890.64,-139.79 1903,-148 1924.27,-162.12 1943.08,-184.9 1954.71,-200.84"/>
<polygon fill="midnightblue" stroke="midnightblue" points="1952.07,-203.17 1960.7,-209.32 1957.79,-199.13 1952.07,-203.17"/>
</g>
<!-- Node38&#45;&gt;Node39 -->
<g id="edge53" class="edge">
<title>Node38&#45;&gt;Node39</title>
<path fill="none" stroke="midnightblue" d="M1727.37,-78.76C1738.92,-77.46 1750.99,-76.11 1762.67,-74.79"/>
<polygon fill="midnightblue" stroke="midnightblue" points="1763.26,-78.25 1772.8,-73.66 1762.47,-71.29 1763.26,-78.25"/>
</g>
<!-- Node41 -->
<g id="node41" class="node">
<title>Node41</title>
<g id="a_node41"><a xlink:href="x86_8h.html#a2c1c4c8523ed258a75c563a8f94d1686" target="_top" xlink:title=" ">
<polygon fill="white" stroke="black" points="1641,-0.5 1641,-19.5 1683,-19.5 1683,-0.5 1641,-0.5"/>
<text text-anchor="middle" x="1662" y="-7.5" font-family="Helvetica,sans-Serif" font-size="10.00">invlpg</text>
</a>
</g>
</g>
<!-- Node40&#45;&gt;Node41 -->
<g id="edge56" class="edge">
<title>Node40&#45;&gt;Node41</title>
<path fill="none" stroke="midnightblue" d="M1561.44,-10C1585.58,-10 1611.58,-10 1630.95,-10"/>
<polygon fill="midnightblue" stroke="midnightblue" points="1630.98,-13.5 1640.98,-10 1630.98,-6.5 1630.98,-13.5"/>
</g>
</g>
</svg>
