<?xml version="1.0" encoding="UTF-8" standalone="no"?>
<!DOCTYPE svg PUBLIC "-//W3C//DTD SVG 1.1//EN"
 "http://www.w3.org/Graphics/SVG/1.1/DTD/svg11.dtd">
<!-- Generated by graphviz version 2.44.1 (20200629.0846)
 -->
<!-- Title: task::Task::loadElf Pages: 1 -->
<!--zoomable 268 -->
<svg id="main" version="1.1" xmlns="http://www.w3.org/2000/svg" xmlns:xlink="http://www.w3.org/1999/xlink" xml:space="preserve" onload="init(evt)">
<style type="text/css"><![CDATA[
.edge:hover path { stroke: red; }
.edge:hover polygon { stroke: red; fill: red; }
]]></style>
<script type="text/javascript"><![CDATA[
var edges = document.getElementsByTagName('g');
if (edges && edges.length) {
  for (var i=0;i<edges.length;i++) {
    if (edges[i].id.substr(0,4)=='edge') {
      edges[i].setAttribute('class','edge');
    }
  }
}
]]></script>
        <defs>
                <circle id="rim" cx="0" cy="0" r="7"/>
                <circle id="rim2" cx="0" cy="0" r="3.5"/>
                <g id="zoomPlus">
                        <use xlink:href="#rim" fill="#404040">
                                <set attributeName="fill" to="#808080" begin="zoomplus.mouseover" end="zoomplus.mouseout"/>
                        </use>
                        <path d="M-4,0h8M0,-4v8" fill="none" stroke="white" stroke-width="1.5" pointer-events="none"/>
                </g>
                <g id="zoomMin">
                        <use xlink:href="#rim" fill="#404040">
                                <set attributeName="fill" to="#808080" begin="zoomminus.mouseover" end="zoomminus.mouseout"/>
                        </use>
                        <path d="M-4,0h8" fill="none" stroke="white" stroke-width="1.5" pointer-events="none"/>
                </g>
                <g id="dirArrow">
                        <path fill="none" stroke="white" stroke-width="1.5" d="M0,-3.0v7 M-2.5,-0.5L0,-3.0L2.5,-0.5"/>
                </g>
               <g id="resetDef">
                       <use xlink:href="#rim2" fill="#404040">
                               <set attributeName="fill" to="#808080" begin="reset.mouseover" end="reset.mouseout"/>
                       </use>
               </g>
        </defs>

<script type="text/javascript">
var viewWidth = 1269;
var viewHeight = 268;
var sectionId = 'dynsection-5';
</script>
<script xlink:href="svgpan.js"/>
<svg id="graph" class="graph">
<g id="viewport">
<title>task::Task::loadElf</title>
<polygon fill="white" stroke="transparent" points="-4,4 -4,-264.47 1265,-264.47 1265,4 -4,4"/>
<!-- Node1 -->
<g id="node1" class="node">
<title>Node1</title>
<g id="a_node1"><a xlink:title=" ">
<polygon fill="#bfbfbf" stroke="black" points="0,-165.97 0,-184.97 98,-184.97 98,-165.97 0,-165.97"/>
<text text-anchor="middle" x="49" y="-172.97" font-family="Helvetica,sans-Serif" font-size="10.00">task::Task::loadElf</text>
</a>
</g>
</g>
<!-- Node2 -->
<g id="node2" class="node">
<title>Node2</title>
<g id="a_node2"><a xlink:href="namespacemem.html#a64d9d05b439041901498c606de606431" target="_top" xlink:title=" ">
<polygon fill="white" stroke="black" points="1064.5,-174.97 1064.5,-193.97 1129.5,-193.97 1129.5,-174.97 1064.5,-174.97"/>
<text text-anchor="middle" x="1097" y="-181.97" font-family="Helvetica,sans-Serif" font-size="10.00">mem::copy</text>
</a>
</g>
</g>
<!-- Node1&#45;&gt;Node2 -->
<g id="edge1" class="edge">
<title>Node1&#45;&gt;Node2</title>
<path fill="none" stroke="midnightblue" d="M67.2,-185.06C108.76,-207.29 218.49,-260.47 317,-260.47 317,-260.47 317,-260.47 781,-260.47 886.61,-260.47 1006.72,-219.61 1063.27,-197.81"/>
<polygon fill="midnightblue" stroke="midnightblue" points="1064.72,-201 1072.76,-194.1 1062.17,-194.48 1064.72,-201"/>
</g>
<!-- Node4 -->
<g id="node4" class="node">
<title>Node4</title>
<g id="a_node4"><a xlink:href="x86_8h.html#ab3bac932074f6042165d3016b701900a" target="_top" xlink:title=" ">
<polygon fill="white" stroke="black" points="165.5,-127.97 165.5,-146.97 197.5,-146.97 197.5,-127.97 165.5,-127.97"/>
<text text-anchor="middle" x="181.5" y="-134.97" font-family="Helvetica,sans-Serif" font-size="10.00">lcr3</text>
</a>
</g>
</g>
<!-- Node1&#45;&gt;Node4 -->
<g id="edge3" class="edge">
<title>Node1&#45;&gt;Node4</title>
<path fill="none" stroke="midnightblue" d="M82.93,-165.89C105.54,-159.3 135.07,-150.7 155.7,-144.7"/>
<polygon fill="midnightblue" stroke="midnightblue" points="156.69,-148.05 165.31,-141.9 154.73,-141.33 156.69,-148.05"/>
</g>
<!-- Node5 -->
<g id="node5" class="node">
<title>Node5</title>
<g id="a_node5"><a xlink:href="namespaceconsole_1_1out.html#ac6f663e3971b66b8e130ee94755a150e" target="_top" xlink:title=" ">
<polygon fill="white" stroke="black" points="134,-165.97 134,-184.97 229,-184.97 229,-165.97 134,-165.97"/>
<text text-anchor="middle" x="181.5" y="-172.97" font-family="Helvetica,sans-Serif" font-size="10.00">console::out::print</text>
</a>
</g>
</g>
<!-- Node1&#45;&gt;Node5 -->
<g id="edge4" class="edge">
<title>Node1&#45;&gt;Node5</title>
<path fill="none" stroke="midnightblue" d="M98.22,-175.47C106.48,-175.47 115.13,-175.47 123.59,-175.47"/>
<polygon fill="midnightblue" stroke="midnightblue" points="123.78,-178.97 133.78,-175.47 123.78,-171.97 123.78,-178.97"/>
</g>
<!-- Node3 -->
<g id="node3" class="node">
<title>Node3</title>
<g id="a_node3"><a xlink:href="namespacestr.html#a062221f630647cf300f0dd982c4ed904" target="_top" xlink:title=" ">
<polygon fill="white" stroke="black" points="1203,-183.97 1203,-202.97 1261,-202.97 1261,-183.97 1203,-183.97"/>
<text text-anchor="middle" x="1232" y="-190.97" font-family="Helvetica,sans-Serif" font-size="10.00">str::count</text>
</a>
</g>
</g>
<!-- Node2&#45;&gt;Node3 -->
<g id="edge2" class="edge">
<title>Node2&#45;&gt;Node3</title>
<path fill="none" stroke="midnightblue" d="M1129.52,-186.61C1148.49,-187.89 1172.77,-189.53 1192.82,-190.89"/>
<polygon fill="midnightblue" stroke="midnightblue" points="1192.66,-194.39 1202.87,-191.57 1193.13,-187.4 1192.66,-194.39"/>
</g>
<!-- Node6 -->
<g id="node6" class="node">
<title>Node6</title>
<g id="a_node6"><a xlink:href="namespaceconsole_1_1out.html#a8f791bfac54067cadb1b9f18117b987b" target="_top" xlink:title=" ">
<polygon fill="white" stroke="black" points="265,-117.97 265,-136.97 371,-136.97 371,-117.97 265,-117.97"/>
<text text-anchor="middle" x="318" y="-124.97" font-family="Helvetica,sans-Serif" font-size="10.00">console::out::printVa</text>
</a>
</g>
</g>
<!-- Node5&#45;&gt;Node6 -->
<g id="edge5" class="edge">
<title>Node5&#45;&gt;Node6</title>
<path fill="none" stroke="midnightblue" d="M209.39,-165.88C229.83,-158.58 258.15,-148.48 280.61,-140.46"/>
<polygon fill="midnightblue" stroke="midnightblue" points="281.91,-143.71 290.15,-137.06 279.56,-137.12 281.91,-143.71"/>
</g>
<!-- Node7 -->
<g id="node7" class="node">
<title>Node7</title>
<g id="a_node7"><a xlink:href="namespaceconsole_1_1ge.html#af642934cb833142f133285fdb75ef7b7" target="_top" xlink:title=" ">
<polygon fill="white" stroke="black" points="407,-117.97 407,-136.97 527,-136.97 527,-117.97 407,-117.97"/>
<text text-anchor="middle" x="467" y="-124.97" font-family="Helvetica,sans-Serif" font-size="10.00">console::ge::printFmtVa</text>
</a>
</g>
</g>
<!-- Node6&#45;&gt;Node7 -->
<g id="edge6" class="edge">
<title>Node6&#45;&gt;Node7</title>
<path fill="none" stroke="midnightblue" d="M371.24,-127.47C379.54,-127.47 388.24,-127.47 396.86,-127.47"/>
<polygon fill="midnightblue" stroke="midnightblue" points="396.92,-130.97 406.92,-127.47 396.92,-123.97 396.92,-130.97"/>
</g>
<!-- Node13 -->
<g id="node13" class="node">
<title>Node13</title>
<g id="a_node13"><a xlink:href="namespaceconsole_1_1out.html#ad9fc97dff4404c2d21aedbb24691e7cb" target="_top" xlink:title=" ">
<polygon fill="white" stroke="black" points="725,-98.97 725,-117.97 835,-117.97 835,-98.97 725,-98.97"/>
<text text-anchor="middle" x="780" y="-105.97" font-family="Helvetica,sans-Serif" font-size="10.00">console::out::putChar</text>
</a>
</g>
</g>
<!-- Node6&#45;&gt;Node13 -->
<g id="edge22" class="edge">
<title>Node6&#45;&gt;Node13</title>
<path fill="none" stroke="midnightblue" d="M333.59,-117.83C370.23,-94.27 469.89,-34.15 563,-13.47 617.67,-1.33 637.56,8.65 689,-13.47 725.16,-29.03 753.6,-67.04 768.2,-89.99"/>
<polygon fill="midnightblue" stroke="midnightblue" points="765.39,-92.09 773.6,-98.79 771.36,-88.44 765.39,-92.09"/>
</g>
<!-- Node7&#45;&gt;Node3 -->
<g id="edge9" class="edge">
<title>Node7&#45;&gt;Node3</title>
<path fill="none" stroke="midnightblue" d="M476.26,-137.05C491.46,-153.91 525.75,-188.54 563,-203.47 652.45,-239.33 682.63,-222.47 779,-222.47 779,-222.47 779,-222.47 932,-222.47 1036.79,-222.47 1062.94,-215.79 1167,-203.47 1175.34,-202.49 1184.25,-201.23 1192.7,-199.93"/>
<polygon fill="midnightblue" stroke="midnightblue" points="1193.37,-203.37 1202.71,-198.36 1192.28,-196.46 1193.37,-203.37"/>
</g>
<!-- Node8 -->
<g id="node8" class="node">
<title>Node8</title>
<g id="a_node8"><a xlink:href="printfmt_8cc.html#a708ec6ee2b8bd2d7a453d8d9436ed3b3" target="_top" xlink:title=" ">
<polygon fill="white" stroke="black" points="597,-136.97 597,-155.97 655,-155.97 655,-136.97 597,-136.97"/>
<text text-anchor="middle" x="626" y="-143.97" font-family="Helvetica,sans-Serif" font-size="10.00">_getIntVa</text>
</a>
</g>
</g>
<!-- Node7&#45;&gt;Node8 -->
<g id="edge7" class="edge">
<title>Node7&#45;&gt;Node8</title>
<path fill="none" stroke="midnightblue" d="M527.35,-134.66C547.24,-137.06 568.88,-139.68 586.72,-141.84"/>
<polygon fill="midnightblue" stroke="midnightblue" points="586.39,-145.33 596.74,-143.05 587.23,-138.38 586.39,-145.33"/>
</g>
<!-- Node9 -->
<g id="node9" class="node">
<title>Node9</title>
<g id="a_node9"><a xlink:href="printfmt_8cc.html#af4b46892c76c8bfd27efdb20847eb7c8" target="_top" xlink:title=" ">
<polygon fill="white" stroke="black" points="593.5,-60.97 593.5,-79.97 658.5,-79.97 658.5,-60.97 593.5,-60.97"/>
<text text-anchor="middle" x="626" y="-67.97" font-family="Helvetica,sans-Serif" font-size="10.00">_getUIntVa</text>
</a>
</g>
</g>
<!-- Node7&#45;&gt;Node9 -->
<g id="edge8" class="edge">
<title>Node7&#45;&gt;Node9</title>
<path fill="none" stroke="midnightblue" d="M494.28,-117.93C520.2,-108.52 560.03,-94.06 588.92,-83.57"/>
<polygon fill="midnightblue" stroke="midnightblue" points="590.43,-86.75 598.64,-80.05 588.04,-80.17 590.43,-86.75"/>
</g>
<!-- Node10 -->
<g id="node10" class="node">
<title>Node10</title>
<g id="a_node10"><a xlink:href="printfmt_8cc.html#a0e3e484ece5e75b9f5fbe337f0ae8ae3" target="_top" xlink:title=" ">
<polygon fill="white" stroke="black" points="599.5,-174.97 599.5,-193.97 652.5,-193.97 652.5,-174.97 599.5,-174.97"/>
<text text-anchor="middle" x="626" y="-181.97" font-family="Helvetica,sans-Serif" font-size="10.00">describe</text>
</a>
</g>
</g>
<!-- Node7&#45;&gt;Node10 -->
<g id="edge10" class="edge">
<title>Node7&#45;&gt;Node10</title>
<path fill="none" stroke="midnightblue" d="M490.45,-137.07C509.57,-145.09 537.87,-156.62 563,-165.47 571.47,-168.46 580.68,-171.43 589.35,-174.11"/>
<polygon fill="midnightblue" stroke="midnightblue" points="588.62,-177.54 599.2,-177.09 590.65,-170.84 588.62,-177.54"/>
</g>
<!-- Node12 -->
<g id="node12" class="node">
<title>Node12</title>
<g id="a_node12"><a xlink:href="namespaceconsole_1_1ge.html#a7e301813fd34fde772376afc5fdad95d" target="_top" xlink:title=" ">
<polygon fill="white" stroke="black" points="563,-22.97 563,-41.97 689,-41.97 689,-22.97 563,-22.97"/>
<text text-anchor="middle" x="626" y="-29.97" font-family="Helvetica,sans-Serif" font-size="10.00">console::ge::printNumber</text>
</a>
</g>
</g>
<!-- Node7&#45;&gt;Node12 -->
<g id="edge12" class="edge">
<title>Node7&#45;&gt;Node12</title>
<path fill="none" stroke="midnightblue" d="M477.37,-117.91C493.48,-101.97 528.08,-69.93 563,-51.47 567.2,-49.26 571.69,-47.26 576.27,-45.46"/>
<polygon fill="midnightblue" stroke="midnightblue" points="577.51,-48.73 585.73,-42.05 575.14,-42.15 577.51,-48.73"/>
</g>
<!-- Node7&#45;&gt;Node13 -->
<g id="edge21" class="edge">
<title>Node7&#45;&gt;Node13</title>
<path fill="none" stroke="midnightblue" d="M527.23,-123.86C580.9,-120.58 659.8,-115.76 714.93,-112.39"/>
<polygon fill="midnightblue" stroke="midnightblue" points="715.16,-115.88 724.93,-111.78 714.74,-108.89 715.16,-115.88"/>
</g>
<!-- Node11 -->
<g id="node11" class="node">
<title>Node11</title>
<g id="a_node11"><a xlink:href="namespacemonitor.html#a318993193c866642f8389a1c1f285739" target="_top" xlink:title=" ">
<polygon fill="white" stroke="black" points="743,-174.97 743,-193.97 817,-193.97 817,-174.97 743,-174.97"/>
<text text-anchor="middle" x="780" y="-181.97" font-family="Helvetica,sans-Serif" font-size="10.00">monitor::fuck</text>
</a>
</g>
</g>
<!-- Node10&#45;&gt;Node11 -->
<g id="edge11" class="edge">
<title>Node10&#45;&gt;Node11</title>
<path fill="none" stroke="midnightblue" d="M652.78,-184.47C674.62,-184.47 706.46,-184.47 732.7,-184.47"/>
<polygon fill="midnightblue" stroke="midnightblue" points="732.82,-187.97 742.82,-184.47 732.82,-180.97 732.82,-187.97"/>
</g>
<!-- Node12&#45;&gt;Node13 -->
<g id="edge13" class="edge">
<title>Node12&#45;&gt;Node13</title>
<path fill="none" stroke="midnightblue" d="M664,-42.04C672.38,-44.69 681.12,-47.85 689,-51.47 713.9,-62.92 740.13,-80.21 757.8,-92.75"/>
<polygon fill="midnightblue" stroke="midnightblue" points="756.05,-95.8 766.21,-98.81 760.15,-90.13 756.05,-95.8"/>
</g>
<!-- Node14 -->
<g id="node14" class="node">
<title>Node14</title>
<g id="a_node14"><a xlink:href="namespaceconsole_1_1serial.html#a3a7c1f95ae3c24136ea63bb31fdf0391" target="_top" xlink:title=" ">
<polygon fill="white" stroke="black" points="871,-98.97 871,-117.97 991,-117.97 991,-98.97 871,-98.97"/>
<text text-anchor="middle" x="931" y="-105.97" font-family="Helvetica,sans-Serif" font-size="10.00">console::serial::putChar</text>
</a>
</g>
</g>
<!-- Node13&#45;&gt;Node14 -->
<g id="edge14" class="edge">
<title>Node13&#45;&gt;Node14</title>
<path fill="none" stroke="midnightblue" d="M835.21,-108.47C843.53,-108.47 852.2,-108.47 860.79,-108.47"/>
<polygon fill="midnightblue" stroke="midnightblue" points="860.79,-111.97 870.79,-108.47 860.79,-104.97 860.79,-111.97"/>
</g>
<!-- Node17 -->
<g id="node17" class="node">
<title>Node17</title>
<g id="a_node17"><a xlink:href="namespaceconsole_1_1cga.html#afa19057ca041b39682d5d4831c43dfa0" target="_top" xlink:title=" ">
<polygon fill="white" stroke="black" points="874.5,-136.97 874.5,-155.97 987.5,-155.97 987.5,-136.97 874.5,-136.97"/>
<text text-anchor="middle" x="931" y="-143.97" font-family="Helvetica,sans-Serif" font-size="10.00">console::cga::putChar</text>
</a>
</g>
</g>
<!-- Node13&#45;&gt;Node17 -->
<g id="edge17" class="edge">
<title>Node13&#45;&gt;Node17</title>
<path fill="none" stroke="midnightblue" d="M818.6,-118.06C838.08,-123.03 862.07,-129.15 882.8,-134.44"/>
<polygon fill="midnightblue" stroke="midnightblue" points="882.12,-137.87 892.67,-136.95 883.85,-131.09 882.12,-137.87"/>
</g>
<!-- Node15 -->
<g id="node15" class="node">
<title>Node15</title>
<g id="a_node15"><a xlink:href="namespaceconsole_1_1serial.html#aa5605d4537106bb1c2bab72d7d1a5824" target="_top" xlink:title=" ">
<polygon fill="white" stroke="black" points="1045,-98.97 1045,-117.97 1149,-117.97 1149,-98.97 1045,-98.97"/>
<text text-anchor="middle" x="1097" y="-105.97" font-family="Helvetica,sans-Serif" font-size="10.00">console::serial::sout</text>
</a>
</g>
</g>
<!-- Node14&#45;&gt;Node15 -->
<g id="edge15" class="edge">
<title>Node14&#45;&gt;Node15</title>
<path fill="none" stroke="midnightblue" d="M991.21,-108.47C1005.31,-108.47 1020.39,-108.47 1034.59,-108.47"/>
<polygon fill="midnightblue" stroke="midnightblue" points="1034.74,-111.97 1044.74,-108.47 1034.74,-104.97 1034.74,-111.97"/>
</g>
<!-- Node16 -->
<g id="node16" class="node">
<title>Node16</title>
<g id="a_node16"><a xlink:href="x86_8h.html#ade961b44e45ddacbc3c3b7609cf36dc6" target="_top" xlink:title=" ">
<polygon fill="white" stroke="black" points="1214.5,-126.97 1214.5,-145.97 1249.5,-145.97 1249.5,-126.97 1214.5,-126.97"/>
<text text-anchor="middle" x="1232" y="-133.97" font-family="Helvetica,sans-Serif" font-size="10.00">outb</text>
</a>
</g>
</g>
<!-- Node15&#45;&gt;Node16 -->
<g id="edge16" class="edge">
<title>Node15&#45;&gt;Node16</title>
<path fill="none" stroke="midnightblue" d="M1143.4,-118.03C1163.71,-122.31 1186.96,-127.2 1204.4,-130.87"/>
<polygon fill="midnightblue" stroke="midnightblue" points="1203.92,-134.35 1214.43,-132.99 1205.37,-127.5 1203.92,-134.35"/>
</g>
<!-- Node17&#45;&gt;Node2 -->
<g id="edge18" class="edge">
<title>Node17&#45;&gt;Node2</title>
<path fill="none" stroke="midnightblue" d="M973.38,-156.06C998.24,-161.82 1029.75,-169.12 1054.6,-174.88"/>
<polygon fill="midnightblue" stroke="midnightblue" points="1053.93,-178.32 1064.46,-177.17 1055.51,-171.5 1053.93,-178.32"/>
</g>
<!-- Node18 -->
<g id="node18" class="node">
<title>Node18</title>
<g id="a_node18"><a xlink:href="namespaceconsole_1_1cga.html#a06463d4dc68819e30615ba299d02a78f" target="_top" xlink:title=" ">
<polygon fill="white" stroke="black" points="1027,-136.97 1027,-155.97 1167,-155.97 1167,-136.97 1027,-136.97"/>
<text text-anchor="middle" x="1097" y="-143.97" font-family="Helvetica,sans-Serif" font-size="10.00">console::cga::cursorRefresh</text>
</a>
</g>
</g>
<!-- Node17&#45;&gt;Node18 -->
<g id="edge19" class="edge">
<title>Node17&#45;&gt;Node18</title>
<path fill="none" stroke="midnightblue" d="M987.52,-146.47C996.9,-146.47 1006.8,-146.47 1016.65,-146.47"/>
<polygon fill="midnightblue" stroke="midnightblue" points="1016.87,-149.97 1026.87,-146.47 1016.87,-142.97 1016.87,-149.97"/>
</g>
<!-- Node18&#45;&gt;Node16 -->
<g id="edge20" class="edge">
<title>Node18&#45;&gt;Node16</title>
<path fill="none" stroke="midnightblue" d="M1167.23,-141.27C1180.48,-140.27 1193.59,-139.29 1204.45,-138.47"/>
<polygon fill="midnightblue" stroke="midnightblue" points="1204.76,-141.96 1214.47,-137.72 1204.24,-134.98 1204.76,-141.96"/>
</g>
</g>
</svg>
        <g id="navigator" transform="translate(0 0)" fill="#404254">
                <rect fill="#f2f5e9" fill-opacity="0.5" stroke="#606060" stroke-width=".5" x="0" y="0" width="60" height="60"/>
                <use id="zoomplus" xlink:href="#zoomPlus" x="17" y="9" onmousedown="handleZoom(evt,'in')"/>
                <use id="zoomminus" xlink:href="#zoomMin" x="42" y="9" onmousedown="handleZoom(evt,'out')"/>
                <use id="reset" xlink:href="#resetDef" x="30" y="36" onmousedown="handleReset()"/>
                <g id="arrowUp" xlink:href="#dirArrow" transform="translate(30 24)" onmousedown="handlePan(0,-1)">
                  <use xlink:href="#rim" fill="#404040">
                        <set attributeName="fill" to="#808080" begin="arrowUp.mouseover" end="arrowUp.mouseout"/>
                  </use>
                  <path fill="none" stroke="white" stroke-width="1.5" d="M0,-3.0v7 M-2.5,-0.5L0,-3.0L2.5,-0.5"/>
                </g>
                <g id="arrowRight" xlink:href="#dirArrow" transform="rotate(90) translate(36 -43)" onmousedown="handlePan(1,0)">
                  <use xlink:href="#rim" fill="#404040">
                        <set attributeName="fill" to="#808080" begin="arrowRight.mouseover" end="arrowRight.mouseout"/>
                  </use>
                  <path fill="none" stroke="white" stroke-width="1.5" d="M0,-3.0v7 M-2.5,-0.5L0,-3.0L2.5,-0.5"/>
                </g>
                <g id="arrowDown" xlink:href="#dirArrow" transform="rotate(180) translate(-30 -48)" onmousedown="handlePan(0,1)">
                  <use xlink:href="#rim" fill="#404040">
                        <set attributeName="fill" to="#808080" begin="arrowDown.mouseover" end="arrowDown.mouseout"/>
                  </use>
                  <path fill="none" stroke="white" stroke-width="1.5" d="M0,-3.0v7 M-2.5,-0.5L0,-3.0L2.5,-0.5"/>
                </g>
                <g id="arrowLeft" xlink:href="#dirArrow" transform="rotate(270) translate(-36 17)" onmousedown="handlePan(-1,0)">
                  <use xlink:href="#rim" fill="#404040">
                        <set attributeName="fill" to="#808080" begin="arrowLeft.mouseover" end="arrowLeft.mouseout"/>
                  </use>
                  <path fill="none" stroke="white" stroke-width="1.5" d="M0,-3.0v7 M-2.5,-0.5L0,-3.0L2.5,-0.5"/>
                </g>
        </g>
        <svg viewBox="0 0 15 15" width="100%" height="30px" preserveAspectRatio="xMaxYMin meet">
         <g id="arrow_out" transform="scale(0.3 0.3)">
          <a xlink:href="structtask_1_1_task_a81a5f892fee6b2a8cbd02e54fdd55db7_cgraph_org.svg" target="_base">
           <rect id="button" ry="5" rx="5" y="6" x="6" height="38" width="38"
                fill="#f2f5e9" fill-opacity="0.5" stroke="#606060" stroke-width="1.0"/>
           <path id="arrow"
             d="M 11.500037,31.436501 C 11.940474,20.09759 22.043105,11.32322 32.158766,21.979434 L 37.068811,17.246167 C 37.068811,17.246167 37.088388,32 37.088388,32 L 22.160133,31.978069 C 22.160133,31.978069 26.997745,27.140456 26.997745,27.140456 C 18.528582,18.264221 13.291696,25.230495 11.500037,31.436501 z"
             style="fill:#404040;"/>
          </a>
         </g>
        </svg>
</svg>
