<?xml version="1.0" encoding="UTF-8" standalone="no"?>
<!DOCTYPE svg PUBLIC "-//W3C//DTD SVG 1.1//EN"
 "http://www.w3.org/Graphics/SVG/1.1/DTD/svg11.dtd">
<!-- Generated by graphviz version 2.44.1 (20200629.0846)
 -->
<!-- Title: vmem::PageInfo Pages: 1 -->
<svg width="154pt" height="108pt"
 viewBox="0.00 0.00 154.00 108.00" xmlns="http://www.w3.org/2000/svg" xmlns:xlink="http://www.w3.org/1999/xlink">
<g id="graph0" class="graph" transform="scale(1 1) rotate(0) translate(4 104)">
<title>vmem::PageInfo</title>
<polygon fill="white" stroke="transparent" points="-4,4 -4,-104 150,-104 150,4 -4,4"/>
<!-- Node1 -->
<g id="node1" class="node">
<title>Node1</title>
<g id="a_node1"><a xlink:title=" ">
<polygon fill="#bfbfbf" stroke="black" points="0,-7 0,-26 89,-26 89,-7 0,-7"/>
<text text-anchor="middle" x="44.5" y="-14" font-family="Helvetica,sans-Serif" font-size="10.00">vmem::PageInfo</text>
</a>
</g>
</g>
<!-- Node1&#45;&gt;Node1 -->
<g id="edge2" class="edge">
<title>Node1&#45;&gt;Node1</title>
<path fill="none" stroke="#9a32cd" stroke-dasharray="5,2" d="M99.33,-22.36C104.05,-21.11 107,-19.16 107,-16.5 107,-12.24 99.45,-9.8 89.16,-9.17"/>
<polygon fill="#9a32cd" stroke="#9a32cd" points="98.56,-18.93 89.16,-23.83 99.56,-25.86 98.56,-18.93"/>
<text text-anchor="middle" x="126.5" y="-25" font-family="Helvetica,sans-Serif" font-size="10.00"> array</text>
<text text-anchor="middle" x="126.5" y="-14" font-family="Helvetica,sans-Serif" font-size="10.00">freeList</text>
<text text-anchor="middle" x="126.5" y="-3" font-family="Helvetica,sans-Serif" font-size="10.00">nextFree</text>
</g>
<!-- Node2 -->
<g id="node2" class="node">
<title>Node2</title>
<g id="a_node2"><a xlink:title=" ">
<polygon fill="white" stroke="#bfbfbf" points="19,-80.5 19,-99.5 70,-99.5 70,-80.5 19,-80.5"/>
<text text-anchor="middle" x="44.5" y="-87.5" font-family="Helvetica,sans-Serif" font-size="10.00">uint16_t</text>
</a>
</g>
</g>
<!-- Node2&#45;&gt;Node1 -->
<g id="edge1" class="edge">
<title>Node2&#45;&gt;Node1</title>
<path fill="none" stroke="#9a32cd" stroke-dasharray="5,2" d="M44.5,-70.09C44.5,-55.93 44.5,-37.2 44.5,-26.34"/>
<polygon fill="#9a32cd" stroke="#9a32cd" points="41,-70.23 44.5,-80.23 48,-70.23 41,-70.23"/>
<text text-anchor="middle" x="65" y="-54" font-family="Helvetica,sans-Serif" font-size="10.00"> refCount</text>
</g>
</g>
</svg>
