<?xml version="1.0" encoding="UTF-8" standalone="no"?>
<!DOCTYPE svg PUBLIC "-//W3C//DTD SVG 1.1//EN"
 "http://www.w3.org/Graphics/SVG/1.1/DTD/svg11.dtd">
<!-- Generated by graphviz version 2.44.1 (20200629.0846)
 -->
<!-- Title: console::PrintBuf Pages: 1 -->
<svg width="225pt" height="106pt"
 viewBox="0.00 0.00 224.50 106.00" xmlns="http://www.w3.org/2000/svg" xmlns:xlink="http://www.w3.org/1999/xlink">
<g id="graph0" class="graph" transform="scale(1 1) rotate(0) translate(4 102)">
<title>console::PrintBuf</title>
<polygon fill="white" stroke="transparent" points="-4,4 -4,-102 220.5,-102 220.5,4 -4,4"/>
<!-- Node1 -->
<g id="node1" class="node">
<title>Node1</title>
<g id="a_node1"><a xlink:title=" ">
<polygon fill="#bfbfbf" stroke="black" points="98,-0.5 98,-19.5 190,-19.5 190,-0.5 98,-0.5"/>
<text text-anchor="middle" x="144" y="-7.5" font-family="Helvetica,sans-Serif" font-size="10.00">console::PrintBuf</text>
</a>
</g>
</g>
<!-- Node2 -->
<g id="node2" class="node">
<title>Node2</title>
<g id="a_node2"><a xlink:title=" ">
<polygon fill="white" stroke="#bfbfbf" points="0,-78.5 0,-97.5 100,-97.5 100,-78.5 0,-78.5"/>
<text text-anchor="middle" x="50" y="-85.5" font-family="Helvetica,sans-Serif" font-size="10.00">static constexpr int</text>
</a>
</g>
</g>
<!-- Node2&#45;&gt;Node1 -->
<g id="edge1" class="edge">
<title>Node2&#45;&gt;Node1</title>
<path fill="none" stroke="#9a32cd" stroke-dasharray="5,2" d="M61.3,-70.31C68.84,-60.06 79.46,-47.19 91,-38 100.45,-30.47 112.33,-24.19 122.45,-19.58"/>
<polygon fill="#9a32cd" stroke="#9a32cd" points="58.44,-68.29 55.53,-78.47 64.16,-72.33 58.44,-68.29"/>
<text text-anchor="middle" x="115.5" y="-46.5" font-family="Helvetica,sans-Serif" font-size="10.00"> maxCount</text>
</g>
<!-- Node3 -->
<g id="node3" class="node">
<title>Node3</title>
<g id="a_node3"><a xlink:title=" ">
<polygon fill="white" stroke="#bfbfbf" points="118.5,-78.5 118.5,-97.5 169.5,-97.5 169.5,-78.5 118.5,-78.5"/>
<text text-anchor="middle" x="144" y="-85.5" font-family="Helvetica,sans-Serif" font-size="10.00">uint16_t</text>
</a>
</g>
</g>
<!-- Node3&#45;&gt;Node1 -->
<g id="edge2" class="edge">
<title>Node3&#45;&gt;Node1</title>
<path fill="none" stroke="#9a32cd" stroke-dasharray="5,2" d="M144,-68.22C144,-52.7 144,-31.36 144,-19.62"/>
<polygon fill="#9a32cd" stroke="#9a32cd" points="140.5,-68.28 144,-78.28 147.5,-68.28 140.5,-68.28"/>
<text text-anchor="middle" x="152.5" y="-46.5" font-family="Helvetica,sans-Serif" font-size="10.00"> buf</text>
</g>
<!-- Node4 -->
<g id="node4" class="node">
<title>Node4</title>
<g id="a_node4"><a xlink:title=" ">
<polygon fill="white" stroke="#bfbfbf" points="187.5,-78.5 187.5,-97.5 216.5,-97.5 216.5,-78.5 187.5,-78.5"/>
<text text-anchor="middle" x="202" y="-85.5" font-family="Helvetica,sans-Serif" font-size="10.00">int</text>
</a>
</g>
</g>
<!-- Node4&#45;&gt;Node1 -->
<g id="edge3" class="edge">
<title>Node4&#45;&gt;Node1</title>
<path fill="none" stroke="#9a32cd" stroke-dasharray="5,2" d="M189.35,-70.13C182.23,-60.66 173.16,-48.64 165,-38 160.38,-31.97 155.13,-25.22 151.03,-19.98"/>
<polygon fill="#9a32cd" stroke="#9a32cd" points="186.68,-72.4 195.49,-78.3 192.28,-68.2 186.68,-72.4"/>
<text text-anchor="middle" x="195" y="-52" font-family="Helvetica,sans-Serif" font-size="10.00"> count</text>
<text text-anchor="middle" x="195" y="-41" font-family="Helvetica,sans-Serif" font-size="10.00">idx</text>
</g>
</g>
</svg>
