<?xml version="1.0" encoding="UTF-8" standalone="no"?>
<!DOCTYPE svg PUBLIC "-//W3C//DTD SVG 1.1//EN"
 "http://www.w3.org/Graphics/SVG/1.1/DTD/svg11.dtd">
<!-- Generated by graphviz version 2.44.1 (20200629.0846)
 -->
<!-- Title: monitor::Command Pages: 1 -->
<svg width="187pt" height="106pt"
 viewBox="0.00 0.00 187.00 106.00" xmlns="http://www.w3.org/2000/svg" xmlns:xlink="http://www.w3.org/1999/xlink">
<g id="graph0" class="graph" transform="scale(1 1) rotate(0) translate(4 102)">
<title>monitor::Command</title>
<polygon fill="white" stroke="transparent" points="-4,4 -4,-102 183,-102 183,4 -4,4"/>
<!-- Node1 -->
<g id="node1" class="node">
<title>Node1</title>
<g id="a_node1"><a xlink:title=" ">
<polygon fill="#bfbfbf" stroke="black" points="42.5,-0.5 42.5,-19.5 142.5,-19.5 142.5,-0.5 42.5,-0.5"/>
<text text-anchor="middle" x="92.5" y="-7.5" font-family="Helvetica,sans-Serif" font-size="10.00">monitor::Command</text>
</a>
</g>
</g>
<!-- Node2 -->
<g id="node2" class="node">
<title>Node2</title>
<g id="a_node2"><a xlink:title=" ">
<polygon fill="white" stroke="#bfbfbf" points="0,-78.5 0,-97.5 41,-97.5 41,-78.5 0,-78.5"/>
<text text-anchor="middle" x="20.5" y="-85.5" font-family="Helvetica,sans-Serif" font-size="10.00">_Bool</text>
</a>
</g>
</g>
<!-- Node2&#45;&gt;Node1 -->
<g id="edge1" class="edge">
<title>Node2&#45;&gt;Node1</title>
<path fill="none" stroke="#9a32cd" stroke-dasharray="5,2" d="M35.7,-70.71C44.64,-61.15 56.18,-48.86 66.5,-38 72.24,-31.96 78.74,-25.21 83.8,-19.97"/>
<polygon fill="#9a32cd" stroke="#9a32cd" points="32.88,-68.6 28.61,-78.29 37.99,-73.38 32.88,-68.6"/>
<text text-anchor="middle" x="77.5" y="-46.5" font-family="Helvetica,sans-Serif" font-size="10.00"> hide</text>
</g>
<!-- Node3 -->
<g id="node3" class="node">
<title>Node3</title>
<g id="a_node3"><a xlink:title=" ">
<polygon fill="white" stroke="#bfbfbf" points="59.5,-78.5 59.5,-97.5 125.5,-97.5 125.5,-78.5 59.5,-78.5"/>
<text text-anchor="middle" x="92.5" y="-85.5" font-family="Helvetica,sans-Serif" font-size="10.00">FuncType *</text>
</a>
</g>
</g>
<!-- Node3&#45;&gt;Node1 -->
<g id="edge2" class="edge">
<title>Node3&#45;&gt;Node1</title>
<path fill="none" stroke="#9a32cd" stroke-dasharray="5,2" d="M92.5,-68.22C92.5,-52.7 92.5,-31.36 92.5,-19.62"/>
<polygon fill="#9a32cd" stroke="#9a32cd" points="89,-68.28 92.5,-78.28 96,-68.28 89,-68.28"/>
<text text-anchor="middle" x="103.5" y="-46.5" font-family="Helvetica,sans-Serif" font-size="10.00"> func</text>
</g>
<!-- Node4 -->
<g id="node4" class="node">
<title>Node4</title>
<g id="a_node4"><a xlink:title=" ">
<polygon fill="white" stroke="#bfbfbf" points="144,-78.5 144,-97.5 179,-97.5 179,-78.5 144,-78.5"/>
<text text-anchor="middle" x="161.5" y="-85.5" font-family="Helvetica,sans-Serif" font-size="10.00">char</text>
</a>
</g>
</g>
<!-- Node4&#45;&gt;Node1 -->
<g id="edge3" class="edge">
<title>Node4&#45;&gt;Node1</title>
<path fill="none" stroke="#9a32cd" stroke-dasharray="5,2" d="M147.43,-70.59C139.12,-60.99 128.33,-48.7 118.5,-38 112.86,-31.87 106.36,-25.12 101.27,-19.9"/>
<polygon fill="#9a32cd" stroke="#9a32cd" points="144.83,-72.93 154.01,-78.22 150.13,-68.36 144.83,-72.93"/>
<text text-anchor="middle" x="148.5" y="-52" font-family="Helvetica,sans-Serif" font-size="10.00"> cmd</text>
<text text-anchor="middle" x="148.5" y="-41" font-family="Helvetica,sans-Serif" font-size="10.00">desc</text>
</g>
</g>
</svg>
