<?xml version="1.0" encoding="UTF-8" standalone="no"?>
<!DOCTYPE svg PUBLIC "-//W3C//DTD SVG 1.1//EN"
 "http://www.w3.org/Graphics/SVG/1.1/DTD/svg11.dtd">
<!-- Generated by graphviz version 2.44.1 (20200629.0846)
 -->
<!-- Title: trap::Frame Pages: 1 -->
<svg width="290pt" height="340pt"
 viewBox="0.00 0.00 289.50 340.00" xmlns="http://www.w3.org/2000/svg" xmlns:xlink="http://www.w3.org/1999/xlink">
<g id="graph0" class="graph" transform="scale(1 1) rotate(0) translate(4 336)">
<title>trap::Frame</title>
<polygon fill="white" stroke="transparent" points="-4,4 -4,-336 285.5,-336 285.5,4 -4,4"/>
<!-- Node1 -->
<g id="node1" class="node">
<title>Node1</title>
<g id="a_node1"><a xlink:title=" ">
<polygon fill="#bfbfbf" stroke="black" points="84,-0.5 84,-19.5 151,-19.5 151,-0.5 84,-0.5"/>
<text text-anchor="middle" x="117.5" y="-7.5" font-family="Helvetica,sans-Serif" font-size="10.00">trap::Frame</text>
</a>
</g>
</g>
<!-- Node2 -->
<g id="node2" class="node">
<title>Node2</title>
<g id="a_node2"><a xlink:title=" ">
<polygon fill="white" stroke="#bfbfbf" points="0,-156.5 0,-175.5 51,-175.5 51,-156.5 0,-156.5"/>
<text text-anchor="middle" x="25.5" y="-163.5" font-family="Helvetica,sans-Serif" font-size="10.00">uint16_t</text>
</a>
</g>
</g>
<!-- Node2&#45;&gt;Node1 -->
<g id="edge1" class="edge">
<title>Node2&#45;&gt;Node1</title>
<path fill="none" stroke="#9a32cd" stroke-dasharray="5,2" d="M20.76,-146.48C15.06,-119.56 9.04,-69.43 33.5,-38 45.35,-22.77 65.89,-15.99 83.69,-13.03"/>
<polygon fill="#9a32cd" stroke="#9a32cd" points="17.41,-147.53 23.1,-156.47 24.23,-145.93 17.41,-147.53"/>
<text text-anchor="middle" x="53.5" y="-118" font-family="Helvetica,sans-Serif" font-size="10.00"> cs</text>
<text text-anchor="middle" x="53.5" y="-107" font-family="Helvetica,sans-Serif" font-size="10.00">ds</text>
<text text-anchor="middle" x="53.5" y="-96" font-family="Helvetica,sans-Serif" font-size="10.00">es</text>
<text text-anchor="middle" x="53.5" y="-85" font-family="Helvetica,sans-Serif" font-size="10.00">padding1</text>
<text text-anchor="middle" x="53.5" y="-74" font-family="Helvetica,sans-Serif" font-size="10.00">padding2</text>
<text text-anchor="middle" x="53.5" y="-63" font-family="Helvetica,sans-Serif" font-size="10.00">padding3</text>
<text text-anchor="middle" x="53.5" y="-52" font-family="Helvetica,sans-Serif" font-size="10.00">padding4</text>
<text text-anchor="middle" x="53.5" y="-41" font-family="Helvetica,sans-Serif" font-size="10.00">ss</text>
</g>
<!-- Node3 -->
<g id="node3" class="node">
<title>Node3</title>
<g id="a_node3"><a xlink:title=" ">
<polygon fill="white" stroke="#bfbfbf" points="78,-312.5 78,-331.5 129,-331.5 129,-312.5 78,-312.5"/>
<text text-anchor="middle" x="103.5" y="-319.5" font-family="Helvetica,sans-Serif" font-size="10.00">uint32_t</text>
</a>
</g>
</g>
<!-- Node3&#45;&gt;Node1 -->
<g id="edge2" class="edge">
<title>Node3&#45;&gt;Node1</title>
<path fill="none" stroke="#9a32cd" stroke-dasharray="5,2" d="M101.49,-301.87C98.39,-269.38 93.21,-201.35 97.5,-144 101.03,-96.73 111.54,-40.8 115.74,-19.66"/>
<polygon fill="#9a32cd" stroke="#9a32cd" points="98.04,-302.54 102.52,-312.15 105.01,-301.85 98.04,-302.54"/>
<text text-anchor="middle" x="112.5" y="-180" font-family="Helvetica,sans-Serif" font-size="10.00"> eflags</text>
<text text-anchor="middle" x="112.5" y="-169" font-family="Helvetica,sans-Serif" font-size="10.00">eip</text>
<text text-anchor="middle" x="112.5" y="-158" font-family="Helvetica,sans-Serif" font-size="10.00">err</text>
<text text-anchor="middle" x="112.5" y="-147" font-family="Helvetica,sans-Serif" font-size="10.00">esp</text>
</g>
<!-- Node5 -->
<g id="node5" class="node">
<title>Node5</title>
<g id="a_node5"><a xlink:href="structtrap_1_1_registers.html" target="_top" xlink:title=" ">
<polygon fill="white" stroke="black" points="136,-156.5 136,-175.5 217,-175.5 217,-156.5 136,-156.5"/>
<text text-anchor="middle" x="176.5" y="-163.5" font-family="Helvetica,sans-Serif" font-size="10.00">trap::Registers</text>
</a>
</g>
</g>
<!-- Node3&#45;&gt;Node5 -->
<g id="edge5" class="edge">
<title>Node3&#45;&gt;Node5</title>
<path fill="none" stroke="#9a32cd" stroke-dasharray="5,2" d="M112.1,-302.85C127.88,-269.58 160.87,-199.97 172.41,-175.63"/>
<polygon fill="#9a32cd" stroke="#9a32cd" points="108.75,-301.74 107.63,-312.28 115.08,-304.74 108.75,-301.74"/>
<text text-anchor="middle" x="167.5" y="-286" font-family="Helvetica,sans-Serif" font-size="10.00"> eax</text>
<text text-anchor="middle" x="167.5" y="-275" font-family="Helvetica,sans-Serif" font-size="10.00">ebp</text>
<text text-anchor="middle" x="167.5" y="-264" font-family="Helvetica,sans-Serif" font-size="10.00">ebx</text>
<text text-anchor="middle" x="167.5" y="-253" font-family="Helvetica,sans-Serif" font-size="10.00">ecx</text>
<text text-anchor="middle" x="167.5" y="-242" font-family="Helvetica,sans-Serif" font-size="10.00">edi</text>
<text text-anchor="middle" x="167.5" y="-231" font-family="Helvetica,sans-Serif" font-size="10.00">edx</text>
<text text-anchor="middle" x="167.5" y="-220" font-family="Helvetica,sans-Serif" font-size="10.00">esi</text>
<text text-anchor="middle" x="167.5" y="-209" font-family="Helvetica,sans-Serif" font-size="10.00">oesp</text>
</g>
<!-- Node4 -->
<g id="node4" class="node">
<title>Node4</title>
<g id="a_node4"><a xlink:title=" ">
<polygon fill="white" stroke="#bfbfbf" points="235.5,-156.5 235.5,-175.5 273.5,-175.5 273.5,-156.5 235.5,-156.5"/>
<text text-anchor="middle" x="254.5" y="-163.5" font-family="Helvetica,sans-Serif" font-size="10.00">Type</text>
</a>
</g>
</g>
<!-- Node4&#45;&gt;Node1 -->
<g id="edge3" class="edge">
<title>Node4&#45;&gt;Node1</title>
<path fill="none" stroke="#9a32cd" stroke-dasharray="5,2" d="M249.13,-146.45C240.34,-119.13 220.36,-68.07 186.5,-38 176.5,-29.12 163.23,-23 151.01,-18.86"/>
<polygon fill="#9a32cd" stroke="#9a32cd" points="245.87,-147.73 252.14,-156.27 252.56,-145.69 245.87,-147.73"/>
<text text-anchor="middle" x="261" y="-79.5" font-family="Helvetica,sans-Serif" font-size="10.00"> trapType</text>
</g>
<!-- Node5&#45;&gt;Node1 -->
<g id="edge4" class="edge">
<title>Node5&#45;&gt;Node1</title>
<path fill="none" stroke="#9a32cd" stroke-dasharray="5,2" d="M169.55,-146.85C156.8,-113.58 130.13,-43.97 120.8,-19.63"/>
<polygon fill="#9a32cd" stroke="#9a32cd" points="166.31,-148.19 173.16,-156.28 172.85,-145.69 166.31,-148.19"/>
<text text-anchor="middle" x="171.5" y="-79.5" font-family="Helvetica,sans-Serif" font-size="10.00"> regs</text>
</g>
</g>
</svg>
