<?xml version="1.0" encoding="UTF-8" standalone="no"?>
<!DOCTYPE svg PUBLIC "-//W3C//DTD SVG 1.1//EN"
 "http://www.w3.org/Graphics/SVG/1.1/DTD/svg11.dtd">
<!-- Generated by graphviz version 2.44.1 (20200629.0846)
 -->
<!-- Title: task::Task Pages: 1 -->
<svg width="760pt" height="442pt"
 viewBox="0.00 0.00 759.50 442.00" xmlns="http://www.w3.org/2000/svg" xmlns:xlink="http://www.w3.org/1999/xlink">
<g id="graph0" class="graph" transform="scale(1 1) rotate(0) translate(4 438)">
<title>task::Task</title>
<polygon fill="white" stroke="transparent" points="-4,4 -4,-438 755.5,-438 755.5,4 -4,4"/>
<!-- Node1 -->
<g id="node1" class="node">
<title>Node1</title>
<g id="a_node1"><a xlink:title=" ">
<polygon fill="#bfbfbf" stroke="black" points="282.5,-12.5 282.5,-31.5 344.5,-31.5 344.5,-12.5 282.5,-12.5"/>
<text text-anchor="middle" x="313.5" y="-19.5" font-family="Helvetica,sans-Serif" font-size="10.00">task::Task</text>
</a>
</g>
</g>
<!-- Node1&#45;&gt;Node1 -->
<g id="edge4" class="edge">
<title>Node1&#45;&gt;Node1</title>
<path fill="none" stroke="#9a32cd" stroke-dasharray="5,2" d="M354.65,-29.99C359.41,-28.51 362.5,-25.85 362.5,-22 362.5,-15.85 354.59,-12.72 344.6,-12.63"/>
<polygon fill="#9a32cd" stroke="#9a32cd" points="354.03,-26.54 344.6,-31.37 354.99,-33.47 354.03,-26.54"/>
<text text-anchor="middle" x="382" y="-36" font-family="Helvetica,sans-Serif" font-size="10.00"> array</text>
<text text-anchor="middle" x="382" y="-25" font-family="Helvetica,sans-Serif" font-size="10.00">current</text>
<text text-anchor="middle" x="382" y="-14" font-family="Helvetica,sans-Serif" font-size="10.00">freeList</text>
<text text-anchor="middle" x="382" y="-3" font-family="Helvetica,sans-Serif" font-size="10.00">nextFree</text>
</g>
<!-- Node2 -->
<g id="node2" class="node">
<title>Node2</title>
<g id="a_node2"><a xlink:title=" ">
<polygon fill="white" stroke="#bfbfbf" points="0,-102.5 0,-121.5 59,-121.5 59,-102.5 0,-102.5"/>
<text text-anchor="middle" x="29.5" y="-109.5" font-family="Helvetica,sans-Serif" font-size="10.00">TaskType</text>
</a>
</g>
</g>
<!-- Node2&#45;&gt;Node1 -->
<g id="edge1" class="edge">
<title>Node2&#45;&gt;Node1</title>
<path fill="none" stroke="#9a32cd" stroke-dasharray="5,2" d="M56.67,-98.09C80.07,-87.35 114.97,-72.21 146.5,-62 192.96,-46.96 248.43,-35.19 282.3,-28.66"/>
<polygon fill="#9a32cd" stroke="#9a32cd" points="54.98,-95.02 47.38,-102.4 57.93,-101.37 54.98,-95.02"/>
<text text-anchor="middle" x="157.5" y="-70.5" font-family="Helvetica,sans-Serif" font-size="10.00"> type</text>
</g>
<!-- Node3 -->
<g id="node3" class="node">
<title>Node3</title>
<g id="a_node3"><a xlink:title=" ">
<polygon fill="white" stroke="#bfbfbf" points="77.5,-102.5 77.5,-121.5 193.5,-121.5 193.5,-102.5 77.5,-102.5"/>
<text text-anchor="middle" x="135.5" y="-109.5" font-family="Helvetica,sans-Serif" font-size="10.00">static constexpr size_t</text>
</a>
</g>
</g>
<!-- Node3&#45;&gt;Node1 -->
<g id="edge2" class="edge">
<title>Node3&#45;&gt;Node1</title>
<path fill="none" stroke="#9a32cd" stroke-dasharray="5,2" d="M153.92,-96.07C167.56,-85.54 186.92,-71.64 205.5,-62 230.63,-48.96 261.11,-38.39 283.27,-31.56"/>
<polygon fill="#9a32cd" stroke="#9a32cd" points="151.54,-93.49 145.85,-102.43 155.87,-98.99 151.54,-93.49"/>
<text text-anchor="middle" x="232.5" y="-76" font-family="Helvetica,sans-Serif" font-size="10.00"> maxCount</text>
<text text-anchor="middle" x="232.5" y="-65" font-family="Helvetica,sans-Serif" font-size="10.00">nameLength</text>
</g>
<!-- Node4 -->
<g id="node4" class="node">
<title>Node4</title>
<g id="a_node4"><a xlink:title=" ">
<polygon fill="white" stroke="#bfbfbf" points="211.5,-102.5 211.5,-121.5 277.5,-121.5 277.5,-102.5 211.5,-102.5"/>
<text text-anchor="middle" x="244.5" y="-109.5" font-family="Helvetica,sans-Serif" font-size="10.00">TaskStatus</text>
</a>
</g>
</g>
<!-- Node4&#45;&gt;Node1 -->
<g id="edge3" class="edge">
<title>Node4&#45;&gt;Node1</title>
<path fill="none" stroke="#9a32cd" stroke-dasharray="5,2" d="M255.64,-93.84C262.05,-84.26 270.41,-72.23 278.5,-62 287.08,-51.15 297.81,-39.44 305.11,-31.71"/>
<polygon fill="#9a32cd" stroke="#9a32cd" points="252.55,-92.17 249.97,-102.45 258.39,-96.03 252.55,-92.17"/>
<text text-anchor="middle" x="294" y="-70.5" font-family="Helvetica,sans-Serif" font-size="10.00"> status</text>
</g>
<!-- Node5 -->
<g id="node5" class="node">
<title>Node5</title>
<g id="a_node5"><a xlink:title=" ">
<polygon fill="white" stroke="#bfbfbf" points="296,-102.5 296,-121.5 331,-121.5 331,-102.5 296,-102.5"/>
<text text-anchor="middle" x="313.5" y="-109.5" font-family="Helvetica,sans-Serif" font-size="10.00">char</text>
</a>
</g>
</g>
<!-- Node5&#45;&gt;Node1 -->
<g id="edge5" class="edge">
<title>Node5&#45;&gt;Node1</title>
<path fill="none" stroke="#9a32cd" stroke-dasharray="5,2" d="M313.5,-91.98C313.5,-73.31 313.5,-45.67 313.5,-31.72"/>
<polygon fill="#9a32cd" stroke="#9a32cd" points="310,-92.24 313.5,-102.24 317,-92.24 310,-92.24"/>
<text text-anchor="middle" x="327.5" y="-70.5" font-family="Helvetica,sans-Serif" font-size="10.00"> name</text>
</g>
<!-- Node6 -->
<g id="node6" class="node">
<title>Node6</title>
<g id="a_node6"><a xlink:title=" ">
<polygon fill="white" stroke="#bfbfbf" points="349.5,-102.5 349.5,-121.5 395.5,-121.5 395.5,-102.5 349.5,-102.5"/>
<text text-anchor="middle" x="372.5" y="-109.5" font-family="Helvetica,sans-Serif" font-size="10.00">int32_t</text>
</a>
</g>
</g>
<!-- Node6&#45;&gt;Node1 -->
<g id="edge6" class="edge">
<title>Node6&#45;&gt;Node1</title>
<path fill="none" stroke="#9a32cd" stroke-dasharray="5,2" d="M363.84,-93.46C358.87,-83.91 352.29,-72.03 345.5,-62 338.03,-50.98 328.15,-39.3 321.36,-31.62"/>
<polygon fill="#9a32cd" stroke="#9a32cd" points="360.72,-95.06 368.37,-102.4 366.97,-91.9 360.72,-95.06"/>
<text text-anchor="middle" x="376.5" y="-76" font-family="Helvetica,sans-Serif" font-size="10.00"> id</text>
<text text-anchor="middle" x="376.5" y="-65" font-family="Helvetica,sans-Serif" font-size="10.00">parentId</text>
</g>
<!-- Node7 -->
<g id="node7" class="node">
<title>Node7</title>
<g id="a_node7"><a xlink:title=" ">
<polygon fill="white" stroke="#bfbfbf" points="450,-414.5 450,-433.5 501,-433.5 501,-414.5 450,-414.5"/>
<text text-anchor="middle" x="475.5" y="-421.5" font-family="Helvetica,sans-Serif" font-size="10.00">uint32_t</text>
</a>
</g>
</g>
<!-- Node7&#45;&gt;Node1 -->
<g id="edge7" class="edge">
<title>Node7&#45;&gt;Node1</title>
<path fill="none" stroke="#9a32cd" stroke-dasharray="5,2" d="M469.78,-404.47C468.98,-401.64 468.19,-398.75 467.5,-396 449.05,-322.49 445.69,-121.3 398.5,-62 385.15,-45.23 362.97,-35.39 344.62,-29.78"/>
<polygon fill="#9a32cd" stroke="#9a32cd" points="466.43,-405.47 472.64,-414.05 473.14,-403.47 466.43,-405.47"/>
<text text-anchor="middle" x="463" y="-181.5" font-family="Helvetica,sans-Serif" font-size="10.00"> pageDir</text>
</g>
<!-- Node8 -->
<g id="node8" class="node">
<title>Node8</title>
<g id="a_node8"><a xlink:href="structtrap_1_1_frame.html" target="_top" xlink:title=" ">
<polygon fill="white" stroke="black" points="531,-102.5 531,-121.5 598,-121.5 598,-102.5 531,-102.5"/>
<text text-anchor="middle" x="564.5" y="-109.5" font-family="Helvetica,sans-Serif" font-size="10.00">trap::Frame</text>
</a>
</g>
</g>
<!-- Node7&#45;&gt;Node8 -->
<g id="edge10" class="edge">
<title>Node7&#45;&gt;Node8</title>
<path fill="none" stroke="#9a32cd" stroke-dasharray="5,2" d="M473.53,-404.27C470.7,-371.4 467.55,-301.55 484.5,-246 500.31,-194.2 540.61,-141.75 557.2,-121.61"/>
<polygon fill="#9a32cd" stroke="#9a32cd" points="470.05,-404.65 474.48,-414.27 477.02,-403.98 470.05,-404.65"/>
<text text-anchor="middle" x="499.5" y="-282" font-family="Helvetica,sans-Serif" font-size="10.00"> eflags</text>
<text text-anchor="middle" x="499.5" y="-271" font-family="Helvetica,sans-Serif" font-size="10.00">eip</text>
<text text-anchor="middle" x="499.5" y="-260" font-family="Helvetica,sans-Serif" font-size="10.00">err</text>
<text text-anchor="middle" x="499.5" y="-249" font-family="Helvetica,sans-Serif" font-size="10.00">esp</text>
</g>
<!-- Node11 -->
<g id="node11" class="node">
<title>Node11</title>
<g id="a_node11"><a xlink:href="structtrap_1_1_registers.html" target="_top" xlink:title=" ">
<polygon fill="white" stroke="black" points="524,-258.5 524,-277.5 605,-277.5 605,-258.5 524,-258.5"/>
<text text-anchor="middle" x="564.5" y="-265.5" font-family="Helvetica,sans-Serif" font-size="10.00">trap::Registers</text>
</a>
</g>
</g>
<!-- Node7&#45;&gt;Node11 -->
<g id="edge13" class="edge">
<title>Node7&#45;&gt;Node11</title>
<path fill="none" stroke="#9a32cd" stroke-dasharray="5,2" d="M485.74,-405.28C504.87,-372.18 545.39,-302.07 559.52,-277.63"/>
<polygon fill="#9a32cd" stroke="#9a32cd" points="482.51,-403.87 480.54,-414.28 488.57,-407.37 482.51,-403.87"/>
<text text-anchor="middle" x="552.5" y="-388" font-family="Helvetica,sans-Serif" font-size="10.00"> eax</text>
<text text-anchor="middle" x="552.5" y="-377" font-family="Helvetica,sans-Serif" font-size="10.00">ebp</text>
<text text-anchor="middle" x="552.5" y="-366" font-family="Helvetica,sans-Serif" font-size="10.00">ebx</text>
<text text-anchor="middle" x="552.5" y="-355" font-family="Helvetica,sans-Serif" font-size="10.00">ecx</text>
<text text-anchor="middle" x="552.5" y="-344" font-family="Helvetica,sans-Serif" font-size="10.00">edi</text>
<text text-anchor="middle" x="552.5" y="-333" font-family="Helvetica,sans-Serif" font-size="10.00">edx</text>
<text text-anchor="middle" x="552.5" y="-322" font-family="Helvetica,sans-Serif" font-size="10.00">esi</text>
<text text-anchor="middle" x="552.5" y="-311" font-family="Helvetica,sans-Serif" font-size="10.00">oesp</text>
</g>
<!-- Node8&#45;&gt;Node1 -->
<g id="edge8" class="edge">
<title>Node8&#45;&gt;Node1</title>
<path fill="none" stroke="#9a32cd" stroke-dasharray="5,2" d="M534.01,-98.61C508.41,-88.36 470.78,-73.64 437.5,-62 405.23,-50.71 367.72,-39.13 342.48,-31.55"/>
<polygon fill="#9a32cd" stroke="#9a32cd" points="532.94,-101.95 543.53,-102.44 535.56,-95.46 532.94,-101.95"/>
<text text-anchor="middle" x="518.5" y="-70.5" font-family="Helvetica,sans-Serif" font-size="10.00"> trapFrame</text>
</g>
<!-- Node9 -->
<g id="node9" class="node">
<title>Node9</title>
<g id="a_node9"><a xlink:title=" ">
<polygon fill="white" stroke="#bfbfbf" points="623,-258.5 623,-277.5 674,-277.5 674,-258.5 623,-258.5"/>
<text text-anchor="middle" x="648.5" y="-265.5" font-family="Helvetica,sans-Serif" font-size="10.00">uint16_t</text>
</a>
</g>
</g>
<!-- Node9&#45;&gt;Node8 -->
<g id="edge9" class="edge">
<title>Node9&#45;&gt;Node8</title>
<path fill="none" stroke="#9a32cd" stroke-dasharray="5,2" d="M642.46,-248.96C633.44,-223.4 614.84,-175.77 590.5,-140 585.89,-133.22 579.52,-126.57 574.24,-121.57"/>
<polygon fill="#9a32cd" stroke="#9a32cd" points="639.17,-250.15 645.74,-258.47 645.79,-247.87 639.17,-250.15"/>
<text text-anchor="middle" x="653.5" y="-220" font-family="Helvetica,sans-Serif" font-size="10.00"> cs</text>
<text text-anchor="middle" x="653.5" y="-209" font-family="Helvetica,sans-Serif" font-size="10.00">ds</text>
<text text-anchor="middle" x="653.5" y="-198" font-family="Helvetica,sans-Serif" font-size="10.00">es</text>
<text text-anchor="middle" x="653.5" y="-187" font-family="Helvetica,sans-Serif" font-size="10.00">padding1</text>
<text text-anchor="middle" x="653.5" y="-176" font-family="Helvetica,sans-Serif" font-size="10.00">padding2</text>
<text text-anchor="middle" x="653.5" y="-165" font-family="Helvetica,sans-Serif" font-size="10.00">padding3</text>
<text text-anchor="middle" x="653.5" y="-154" font-family="Helvetica,sans-Serif" font-size="10.00">padding4</text>
<text text-anchor="middle" x="653.5" y="-143" font-family="Helvetica,sans-Serif" font-size="10.00">ss</text>
</g>
<!-- Node10 -->
<g id="node10" class="node">
<title>Node10</title>
<g id="a_node10"><a xlink:title=" ">
<polygon fill="white" stroke="#bfbfbf" points="692.5,-258.5 692.5,-277.5 730.5,-277.5 730.5,-258.5 692.5,-258.5"/>
<text text-anchor="middle" x="711.5" y="-265.5" font-family="Helvetica,sans-Serif" font-size="10.00">Type</text>
</a>
</g>
</g>
<!-- Node10&#45;&gt;Node8 -->
<g id="edge11" class="edge">
<title>Node10&#45;&gt;Node8</title>
<path fill="none" stroke="#9a32cd" stroke-dasharray="5,2" d="M712.08,-248.16C711.85,-220.44 707.13,-168.84 677.5,-140 666.3,-129.1 627.24,-121.5 598.16,-117.2"/>
<polygon fill="#9a32cd" stroke="#9a32cd" points="708.58,-248.41 711.96,-258.44 715.58,-248.49 708.58,-248.41"/>
<text text-anchor="middle" x="731" y="-181.5" font-family="Helvetica,sans-Serif" font-size="10.00"> trapType</text>
</g>
<!-- Node11&#45;&gt;Node8 -->
<g id="edge12" class="edge">
<title>Node11&#45;&gt;Node8</title>
<path fill="none" stroke="#9a32cd" stroke-dasharray="5,2" d="M564.5,-247.98C564.5,-214.37 564.5,-145.76 564.5,-121.63"/>
<polygon fill="#9a32cd" stroke="#9a32cd" points="561,-248.28 564.5,-258.28 568,-248.28 561,-248.28"/>
<text text-anchor="middle" x="575.5" y="-181.5" font-family="Helvetica,sans-Serif" font-size="10.00"> regs</text>
</g>
</g>
</svg>
