<?xml version="1.0" encoding="UTF-8" standalone="no"?>
<!DOCTYPE svg PUBLIC "-//W3C//DTD SVG 1.1//EN"
 "http://www.w3.org/Graphics/SVG/1.1/DTD/svg11.dtd">
<!-- Generated by graphviz version 2.44.1 (20200629.0846)
 -->
<!-- Title: trap::Registers Pages: 1 -->
<svg width="89pt" height="172pt"
 viewBox="0.00 0.00 89.00 172.00" xmlns="http://www.w3.org/2000/svg" xmlns:xlink="http://www.w3.org/1999/xlink">
<g id="graph0" class="graph" transform="scale(1 1) rotate(0) translate(4 168)">
<title>trap::Registers</title>
<polygon fill="white" stroke="transparent" points="-4,4 -4,-168 85,-168 85,4 -4,4"/>
<!-- Node1 -->
<g id="node1" class="node">
<title>Node1</title>
<g id="a_node1"><a xlink:title=" ">
<polygon fill="#bfbfbf" stroke="black" points="0,-0.5 0,-19.5 81,-19.5 81,-0.5 0,-0.5"/>
<text text-anchor="middle" x="40.5" y="-7.5" font-family="Helvetica,sans-Serif" font-size="10.00">trap::Registers</text>
</a>
</g>
</g>
<!-- Node2 -->
<g id="node2" class="node">
<title>Node2</title>
<g id="a_node2"><a xlink:title=" ">
<polygon fill="white" stroke="#bfbfbf" points="15,-144.5 15,-163.5 66,-163.5 66,-144.5 15,-144.5"/>
<text text-anchor="middle" x="40.5" y="-151.5" font-family="Helvetica,sans-Serif" font-size="10.00">uint32_t</text>
</a>
</g>
</g>
<!-- Node2&#45;&gt;Node1 -->
<g id="edge1" class="edge">
<title>Node2&#45;&gt;Node1</title>
<path fill="none" stroke="#9a32cd" stroke-dasharray="5,2" d="M40.5,-134.11C40.5,-102.93 40.5,-41.93 40.5,-19.52"/>
<polygon fill="#9a32cd" stroke="#9a32cd" points="37,-134.12 40.5,-144.12 44,-134.12 37,-134.12"/>
<text text-anchor="middle" x="51.5" y="-118" font-family="Helvetica,sans-Serif" font-size="10.00"> eax</text>
<text text-anchor="middle" x="51.5" y="-107" font-family="Helvetica,sans-Serif" font-size="10.00">ebp</text>
<text text-anchor="middle" x="51.5" y="-96" font-family="Helvetica,sans-Serif" font-size="10.00">ebx</text>
<text text-anchor="middle" x="51.5" y="-85" font-family="Helvetica,sans-Serif" font-size="10.00">ecx</text>
<text text-anchor="middle" x="51.5" y="-74" font-family="Helvetica,sans-Serif" font-size="10.00">edi</text>
<text text-anchor="middle" x="51.5" y="-63" font-family="Helvetica,sans-Serif" font-size="10.00">edx</text>
<text text-anchor="middle" x="51.5" y="-52" font-family="Helvetica,sans-Serif" font-size="10.00">esi</text>
<text text-anchor="middle" x="51.5" y="-41" font-family="Helvetica,sans-Serif" font-size="10.00">oesp</text>
</g>
</g>
</svg>
