<?xml version="1.0" encoding="UTF-8" standalone="no"?>
<!DOCTYPE svg PUBLIC "-//W3C//DTD SVG 1.1//EN"
 "http://www.w3.org/Graphics/SVG/1.1/DTD/svg11.dtd">
<!-- Generated by graphviz version 2.44.1 (20200629.0846)
 -->
<!-- Title: console::PrintBuf::flush Pages: 1 -->
<!--zoomable 631 -->
<svg id="main" version="1.1" xmlns="http://www.w3.org/2000/svg" xmlns:xlink="http://www.w3.org/1999/xlink" xml:space="preserve" onload="init(evt)">
<style type="text/css"><![CDATA[
.edge:hover path { stroke: red; }
.edge:hover polygon { stroke: red; fill: red; }
]]></style>
<script type="text/javascript"><![CDATA[
var edges = document.getElementsByTagName('g');
if (edges && edges.length) {
  for (var i=0;i<edges.length;i++) {
    if (edges[i].id.substr(0,4)=='edge') {
      edges[i].setAttribute('class','edge');
    }
  }
}
]]></script>
        <defs>
                <circle id="rim" cx="0" cy="0" r="7"/>
                <circle id="rim2" cx="0" cy="0" r="3.5"/>
                <g id="zoomPlus">
                        <use xlink:href="#rim" fill="#404040">
                                <set attributeName="fill" to="#808080" begin="zoomplus.mouseover" end="zoomplus.mouseout"/>
                        </use>
                        <path d="M-4,0h8M0,-4v8" fill="none" stroke="white" stroke-width="1.5" pointer-events="none"/>
                </g>
                <g id="zoomMin">
                        <use xlink:href="#rim" fill="#404040">
                                <set attributeName="fill" to="#808080" begin="zoomminus.mouseover" end="zoomminus.mouseout"/>
                        </use>
                        <path d="M-4,0h8" fill="none" stroke="white" stroke-width="1.5" pointer-events="none"/>
                </g>
                <g id="dirArrow">
                        <path fill="none" stroke="white" stroke-width="1.5" d="M0,-3.0v7 M-2.5,-0.5L0,-3.0L2.5,-0.5"/>
                </g>
               <g id="resetDef">
                       <use xlink:href="#rim2" fill="#404040">
                               <set attributeName="fill" to="#808080" begin="reset.mouseover" end="reset.mouseout"/>
                       </use>
               </g>
        </defs>

<script type="text/javascript">
var viewWidth = 1871;
var viewHeight = 631;
var sectionId = 'dynsection-1';
</script>
<script xlink:href="svgpan.js"/>
<svg id="graph" class="graph">
<g id="viewport">
<title>console::PrintBuf::flush</title>
<polygon fill="white" stroke="transparent" points="-4,4 -4,-627.38 1867,-627.38 1867,4 -4,4"/>
<!-- Node1 -->
<g id="node1" class="node">
<title>Node1</title>
<g id="a_node1"><a xlink:title=" ">
<polygon fill="#bfbfbf" stroke="black" points="0,-251 0,-281 98,-281 98,-251 0,-251"/>
<text text-anchor="start" x="8" y="-269" font-family="Helvetica,sans-Serif" font-size="10.00">console::PrintBuf::</text>
<text text-anchor="middle" x="49" y="-258" font-family="Helvetica,sans-Serif" font-size="10.00">flush</text>
</a>
</g>
</g>
<!-- Node2 -->
<g id="node2" class="node">
<title>Node2</title>
<g id="a_node2"><a xlink:href="namespaceksyscall.html#a20b510ff748ce75bc0860b4ff4e15a60" target="_top" xlink:title=" ">
<polygon fill="white" stroke="black" points="134,-256.5 134,-275.5 232,-275.5 232,-256.5 134,-256.5"/>
<text text-anchor="middle" x="183" y="-263.5" font-family="Helvetica,sans-Serif" font-size="10.00">ksyscall::putString</text>
</a>
</g>
</g>
<!-- Node1&#45;&gt;Node2 -->
<g id="edge1" class="edge">
<title>Node1&#45;&gt;Node2</title>
<path fill="none" stroke="midnightblue" d="M98.03,-266C106.31,-266 115,-266 123.52,-266"/>
<polygon fill="midnightblue" stroke="midnightblue" points="123.79,-269.5 133.79,-266 123.79,-262.5 123.79,-269.5"/>
</g>
<!-- Node3 -->
<g id="node3" class="node">
<title>Node3</title>
<g id="a_node3"><a xlink:href="namespacestr.html#a062221f630647cf300f0dd982c4ed904" target="_top" xlink:title=" ">
<polygon fill="white" stroke="black" points="1805,-209.5 1805,-228.5 1863,-228.5 1863,-209.5 1805,-209.5"/>
<text text-anchor="middle" x="1834" y="-216.5" font-family="Helvetica,sans-Serif" font-size="10.00">str::count</text>
</a>
</g>
</g>
<!-- Node2&#45;&gt;Node3 -->
<g id="edge2" class="edge">
<title>Node2&#45;&gt;Node3</title>
<path fill="none" stroke="midnightblue" d="M207.98,-256.4C255.96,-238.1 367.53,-200 465,-200 465,-200 465,-200 1529,-200 1624.83,-200 1737.32,-209.52 1794.87,-215.08"/>
<polygon fill="midnightblue" stroke="midnightblue" points="1794.66,-218.58 1804.96,-216.07 1795.35,-211.61 1794.66,-218.58"/>
</g>
<!-- Node4 -->
<g id="node4" class="node">
<title>Node4</title>
<g id="a_node4"><a xlink:href="structtask_1_1_task.html#acc107ba9ef939a92f459873765fb73eb" target="_top" xlink:title=" ">
<polygon fill="white" stroke="black" points="279.5,-313.5 279.5,-332.5 380.5,-332.5 380.5,-313.5 279.5,-313.5"/>
<text text-anchor="middle" x="330" y="-320.5" font-family="Helvetica,sans-Serif" font-size="10.00">task::Task::destroy</text>
</a>
</g>
</g>
<!-- Node2&#45;&gt;Node4 -->
<g id="edge3" class="edge">
<title>Node2&#45;&gt;Node4</title>
<path fill="none" stroke="midnightblue" d="M208.27,-275.54C232.11,-284.91 268.68,-299.29 295.33,-309.76"/>
<polygon fill="midnightblue" stroke="midnightblue" points="294.06,-313.03 304.65,-313.43 296.62,-306.51 294.06,-313.03"/>
</g>
<!-- Node12 -->
<g id="node12" class="node">
<title>Node12</title>
<g id="a_node12"><a xlink:href="namespaceconsole_1_1out.html#ac6f663e3971b66b8e130ee94755a150e" target="_top" xlink:title=" ">
<polygon fill="white" stroke="black" points="544.5,-294.5 544.5,-313.5 639.5,-313.5 639.5,-294.5 544.5,-294.5"/>
<text text-anchor="middle" x="592" y="-301.5" font-family="Helvetica,sans-Serif" font-size="10.00">console::out::print</text>
</a>
</g>
</g>
<!-- Node2&#45;&gt;Node12 -->
<g id="edge42" class="edge">
<title>Node2&#45;&gt;Node12</title>
<path fill="none" stroke="midnightblue" d="M232.29,-270.51C307.76,-277.55 453.34,-291.15 533.9,-298.67"/>
<polygon fill="midnightblue" stroke="midnightblue" points="534.06,-302.2 544.34,-299.64 534.71,-295.23 534.06,-302.2"/>
</g>
<!-- Node20 -->
<g id="node20" class="node">
<title>Node20</title>
<g id="a_node20"><a xlink:href="namespaceconsole_1_1out.html#ad9fc97dff4404c2d21aedbb24691e7cb" target="_top" xlink:title=" ">
<polygon fill="white" stroke="black" points="1304,-418.5 1304,-437.5 1414,-437.5 1414,-418.5 1304,-418.5"/>
<text text-anchor="middle" x="1359" y="-425.5" font-family="Helvetica,sans-Serif" font-size="10.00">console::out::putChar</text>
</a>
</g>
</g>
<!-- Node2&#45;&gt;Node20 -->
<g id="edge43" class="edge">
<title>Node2&#45;&gt;Node20</title>
<path fill="none" stroke="midnightblue" d="M186.44,-275.78C201.29,-332.63 284.76,-618 465,-618 465,-618 465,-618 1034,-618 1133.12,-618 1171.38,-641.23 1255,-588 1308.06,-554.22 1339.17,-482.19 1351.63,-447.48"/>
<polygon fill="midnightblue" stroke="midnightblue" points="1355.08,-448.22 1355.02,-437.62 1348.46,-445.94 1355.08,-448.22"/>
</g>
<!-- Node32 -->
<g id="node32" class="node">
<title>Node32</title>
<g id="a_node32"><a xlink:href="namespacevmem_1_1pgdir.html#ac95ef4d1250d2d48baf0c3f907025f45" target="_top" xlink:title=" ">
<polygon fill="white" stroke="black" points="268,-114.5 268,-133.5 392,-133.5 392,-114.5 268,-114.5"/>
<text text-anchor="middle" x="330" y="-121.5" font-family="Helvetica,sans-Serif" font-size="10.00">vmem::pgdir::userCheck</text>
</a>
</g>
</g>
<!-- Node2&#45;&gt;Node32 -->
<g id="edge44" class="edge">
<title>Node2&#45;&gt;Node32</title>
<path fill="none" stroke="midnightblue" d="M193.97,-256.24C218.28,-232.43 280.9,-171.11 311.56,-141.08"/>
<polygon fill="midnightblue" stroke="midnightblue" points="314.27,-143.33 318.96,-133.83 309.37,-138.32 314.27,-143.33"/>
</g>
<!-- Node5 -->
<g id="node5" class="node">
<title>Node5</title>
<g id="a_node5"><a xlink:href="x86_8h.html#ab3bac932074f6042165d3016b701900a" target="_top" xlink:title=" ">
<polygon fill="white" stroke="black" points="450,-332.5 450,-351.5 482,-351.5 482,-332.5 450,-332.5"/>
<text text-anchor="middle" x="466" y="-339.5" font-family="Helvetica,sans-Serif" font-size="10.00">lcr3</text>
</a>
</g>
</g>
<!-- Node4&#45;&gt;Node5 -->
<g id="edge4" class="edge">
<title>Node4&#45;&gt;Node5</title>
<path fill="none" stroke="midnightblue" d="M380.52,-330.02C400.7,-332.88 423.16,-336.07 439.84,-338.43"/>
<polygon fill="midnightblue" stroke="midnightblue" points="439.5,-341.92 449.89,-339.86 440.48,-334.99 439.5,-341.92"/>
</g>
<!-- Node6 -->
<g id="node6" class="node">
<title>Node6</title>
<g id="a_node6"><a xlink:href="namespacemonitor.html#ac02f947e274eb7d38cdfa803c21ef579" target="_top" xlink:title=" ">
<polygon fill="white" stroke="black" points="428,-370.5 428,-389.5 504,-389.5 504,-370.5 428,-370.5"/>
<text text-anchor="middle" x="466" y="-377.5" font-family="Helvetica,sans-Serif" font-size="10.00">monitor::main</text>
</a>
</g>
</g>
<!-- Node4&#45;&gt;Node6 -->
<g id="edge5" class="edge">
<title>Node4&#45;&gt;Node6</title>
<path fill="none" stroke="midnightblue" d="M353.43,-332.54C375.27,-341.83 408.66,-356.04 433.23,-366.49"/>
<polygon fill="midnightblue" stroke="midnightblue" points="431.93,-369.73 442.5,-370.43 434.67,-363.29 431.93,-369.73"/>
</g>
<!-- Node4&#45;&gt;Node12 -->
<g id="edge41" class="edge">
<title>Node4&#45;&gt;Node12</title>
<path fill="none" stroke="midnightblue" d="M380.52,-319.38C424.35,-316.18 488.31,-311.5 534.2,-308.15"/>
<polygon fill="midnightblue" stroke="midnightblue" points="534.57,-311.63 544.29,-307.41 534.06,-304.65 534.57,-311.63"/>
</g>
<!-- Node7 -->
<g id="node7" class="node">
<title>Node7</title>
<g id="a_node7"><a xlink:href="namespacemonitor.html#a8b88ed0586263051a6af8dbff388e314" target="_top" xlink:title=" ">
<polygon fill="white" stroke="black" points="542,-370.5 542,-389.5 642,-389.5 642,-370.5 542,-370.5"/>
<text text-anchor="middle" x="592" y="-377.5" font-family="Helvetica,sans-Serif" font-size="10.00">monitor::parseCmd</text>
</a>
</g>
</g>
<!-- Node6&#45;&gt;Node7 -->
<g id="edge6" class="edge">
<title>Node6&#45;&gt;Node7</title>
<path fill="none" stroke="midnightblue" d="M504.2,-380C512.9,-380 522.38,-380 531.77,-380"/>
<polygon fill="midnightblue" stroke="midnightblue" points="531.88,-383.5 541.88,-380 531.88,-376.5 531.88,-383.5"/>
</g>
<!-- Node6&#45;&gt;Node12 -->
<g id="edge12" class="edge">
<title>Node6&#45;&gt;Node12</title>
<path fill="none" stroke="midnightblue" d="M486.79,-370.32C492.42,-367.44 498.51,-364.2 504,-361 526.72,-347.77 551.75,-331.15 569.1,-319.27"/>
<polygon fill="midnightblue" stroke="midnightblue" points="571.17,-322.1 577.42,-313.54 567.2,-316.33 571.17,-322.1"/>
</g>
<!-- Node27 -->
<g id="node27" class="node">
<title>Node27</title>
<g id="a_node27"><a xlink:href="namespaceconsole_1_1err.html#a124c7e8527c0e3fd2b9636411aea7e82" target="_top" xlink:title=" ">
<polygon fill="white" stroke="black" points="546,-522.5 546,-541.5 638,-541.5 638,-522.5 546,-522.5"/>
<text text-anchor="middle" x="592" y="-529.5" font-family="Helvetica,sans-Serif" font-size="10.00">console::err::print</text>
</a>
</g>
</g>
<!-- Node6&#45;&gt;Node27 -->
<g id="edge32" class="edge">
<title>Node6&#45;&gt;Node27</title>
<path fill="none" stroke="midnightblue" d="M474.76,-389.51C495.11,-414.46 550.3,-482.11 576.64,-514.39"/>
<polygon fill="midnightblue" stroke="midnightblue" points="574.21,-516.96 583.25,-522.5 579.64,-512.53 574.21,-516.96"/>
</g>
<!-- Node29 -->
<g id="node29" class="node">
<title>Node29</title>
<g id="a_node29"><a xlink:href="namespaceconsole_1_1in.html#afa763e7729f2e6fbdcf4c14e44ad7a29" target="_top" xlink:title=" ">
<polygon fill="white" stroke="black" points="540,-408.5 540,-427.5 644,-427.5 644,-408.5 540,-408.5"/>
<text text-anchor="middle" x="592" y="-415.5" font-family="Helvetica,sans-Serif" font-size="10.00">console::in::readline</text>
</a>
</g>
</g>
<!-- Node6&#45;&gt;Node29 -->
<g id="edge36" class="edge">
<title>Node6&#45;&gt;Node29</title>
<path fill="none" stroke="midnightblue" d="M498.29,-389.59C514,-394.4 533.24,-400.3 550.11,-405.47"/>
<polygon fill="midnightblue" stroke="midnightblue" points="549.13,-408.83 559.72,-408.41 551.18,-402.14 549.13,-408.83"/>
</g>
<!-- Node8 -->
<g id="node8" class="node">
<title>Node8</title>
<g id="a_node8"><a xlink:href="namespacestr.html#ace5edf7e67a558a1c4ead28a66faba41" target="_top" xlink:title=" ">
<polygon fill="white" stroke="black" points="699.5,-370.5 699.5,-389.5 775.5,-389.5 775.5,-370.5 699.5,-370.5"/>
<text text-anchor="middle" x="737.5" y="-377.5" font-family="Helvetica,sans-Serif" font-size="10.00">str::cmpCase</text>
</a>
</g>
</g>
<!-- Node7&#45;&gt;Node8 -->
<g id="edge7" class="edge">
<title>Node7&#45;&gt;Node8</title>
<path fill="none" stroke="midnightblue" d="M642.38,-380C657.54,-380 674.16,-380 689.17,-380"/>
<polygon fill="midnightblue" stroke="midnightblue" points="689.27,-383.5 699.27,-380 689.27,-376.5 689.27,-383.5"/>
</g>
<!-- Node9 -->
<g id="node9" class="node">
<title>Node9</title>
<g id="a_node9"><a xlink:href="namespacestr.html#a12522233f7d73122d76de5c82e44a183" target="_top" xlink:title=" ">
<polygon fill="white" stroke="black" points="704,-332.5 704,-351.5 771,-351.5 771,-332.5 704,-332.5"/>
<text text-anchor="middle" x="737.5" y="-339.5" font-family="Helvetica,sans-Serif" font-size="10.00">str::splitWs</text>
</a>
</g>
</g>
<!-- Node7&#45;&gt;Node9 -->
<g id="edge8" class="edge">
<title>Node7&#45;&gt;Node9</title>
<path fill="none" stroke="midnightblue" d="M629.21,-370.41C648.9,-365.2 673.38,-358.72 693.97,-353.26"/>
<polygon fill="midnightblue" stroke="midnightblue" points="694.96,-356.62 703.74,-350.68 693.17,-349.85 694.96,-356.62"/>
</g>
<!-- Node10 -->
<g id="node10" class="node">
<title>Node10</title>
<g id="a_node10"><a xlink:href="namespacestr.html#a0e183e333ba05550c6b206906dbf0f10" target="_top" xlink:title=" ">
<polygon fill="white" stroke="black" points="858,-266.5 858,-285.5 910,-285.5 910,-266.5 858,-266.5"/>
<text text-anchor="middle" x="884" y="-273.5" font-family="Helvetica,sans-Serif" font-size="10.00">str::split</text>
</a>
</g>
</g>
<!-- Node9&#45;&gt;Node10 -->
<g id="edge9" class="edge">
<title>Node9&#45;&gt;Node10</title>
<path fill="none" stroke="midnightblue" d="M759.51,-332.4C784.02,-321.21 824.73,-302.62 852.66,-289.86"/>
<polygon fill="midnightblue" stroke="midnightblue" points="854.32,-292.95 861.96,-285.61 851.41,-286.58 854.32,-292.95"/>
</g>
<!-- Node10&#45;&gt;Node3 -->
<g id="edge10" class="edge">
<title>Node10&#45;&gt;Node3</title>
<path fill="none" stroke="midnightblue" d="M910.26,-269.66C927.77,-265.49 951.67,-260.22 973,-257 1069.17,-242.49 1093.74,-238 1191,-238 1191,-238 1191,-238 1529,-238 1624.83,-238 1737.32,-228.48 1794.87,-222.92"/>
<polygon fill="midnightblue" stroke="midnightblue" points="1795.35,-226.39 1804.96,-221.93 1794.66,-219.42 1795.35,-226.39"/>
</g>
<!-- Node11 -->
<g id="node11" class="node">
<title>Node11</title>
<g id="a_node11"><a xlink:href="namespacestr.html#a4b4d986113337f946299cef82449cf52" target="_top" xlink:title=" ">
<polygon fill="white" stroke="black" points="1008,-266.5 1008,-285.5 1058,-285.5 1058,-266.5 1008,-266.5"/>
<text text-anchor="middle" x="1033" y="-273.5" font-family="Helvetica,sans-Serif" font-size="10.00">str::find</text>
</a>
</g>
</g>
<!-- Node10&#45;&gt;Node11 -->
<g id="edge11" class="edge">
<title>Node10&#45;&gt;Node11</title>
<path fill="none" stroke="midnightblue" d="M910.27,-276C934.33,-276 970.73,-276 997.47,-276"/>
<polygon fill="midnightblue" stroke="midnightblue" points="997.55,-279.5 1007.55,-276 997.55,-272.5 997.55,-279.5"/>
</g>
<!-- Node13 -->
<g id="node13" class="node">
<title>Node13</title>
<g id="a_node13"><a xlink:href="namespaceconsole_1_1out.html#a8f791bfac54067cadb1b9f18117b987b" target="_top" xlink:title=" ">
<polygon fill="white" stroke="black" points="831,-323.5 831,-342.5 937,-342.5 937,-323.5 831,-323.5"/>
<text text-anchor="middle" x="884" y="-330.5" font-family="Helvetica,sans-Serif" font-size="10.00">console::out::printVa</text>
</a>
</g>
</g>
<!-- Node12&#45;&gt;Node13 -->
<g id="edge13" class="edge">
<title>Node12&#45;&gt;Node13</title>
<path fill="none" stroke="midnightblue" d="M639.56,-308.12C680.52,-311.81 741.75,-317.47 795,-323 803.35,-323.87 812.15,-324.82 820.82,-325.78"/>
<polygon fill="midnightblue" stroke="midnightblue" points="820.57,-329.28 830.9,-326.91 821.35,-322.32 820.57,-329.28"/>
</g>
<!-- Node14 -->
<g id="node14" class="node">
<title>Node14</title>
<g id="a_node14"><a xlink:href="namespaceconsole_1_1ge.html#af642934cb833142f133285fdb75ef7b7" target="_top" xlink:title=" ">
<polygon fill="white" stroke="black" points="973,-399.5 973,-418.5 1093,-418.5 1093,-399.5 973,-399.5"/>
<text text-anchor="middle" x="1033" y="-406.5" font-family="Helvetica,sans-Serif" font-size="10.00">console::ge::printFmtVa</text>
</a>
</g>
</g>
<!-- Node13&#45;&gt;Node14 -->
<g id="edge14" class="edge">
<title>Node13&#45;&gt;Node14</title>
<path fill="none" stroke="midnightblue" d="M903.62,-342.63C929.13,-355.82 975.15,-379.61 1004.6,-394.83"/>
<polygon fill="midnightblue" stroke="midnightblue" points="1003.04,-397.97 1013.53,-399.45 1006.26,-391.75 1003.04,-397.97"/>
</g>
<!-- Node13&#45;&gt;Node20 -->
<g id="edge31" class="edge">
<title>Node13&#45;&gt;Node20</title>
<path fill="none" stroke="midnightblue" d="M923.47,-323.44C992.98,-308.2 1142.74,-284.71 1255,-333 1276.37,-342.19 1274.12,-355 1291,-371 1306.24,-385.44 1324.43,-400.81 1338.01,-411.95"/>
<polygon fill="midnightblue" stroke="midnightblue" points="1335.84,-414.69 1345.8,-418.29 1340.25,-409.26 1335.84,-414.69"/>
</g>
<!-- Node14&#45;&gt;Node3 -->
<g id="edge17" class="edge">
<title>Node14&#45;&gt;Node3</title>
<path fill="none" stroke="midnightblue" d="M1042.25,-399.41C1057.44,-382.52 1091.71,-347.84 1129,-333 1223.89,-295.24 1255.87,-314 1358,-314 1358,-314 1358,-314 1529,-314 1639.17,-314 1666.07,-291.27 1769,-252 1782.23,-246.95 1796.28,-239.91 1807.84,-233.63"/>
<polygon fill="midnightblue" stroke="midnightblue" points="1809.86,-236.51 1816.89,-228.59 1806.45,-230.4 1809.86,-236.51"/>
</g>
<!-- Node15 -->
<g id="node15" class="node">
<title>Node15</title>
<g id="a_node15"><a xlink:href="printfmt_8cc.html#a708ec6ee2b8bd2d7a453d8d9436ed3b3" target="_top" xlink:title=" ">
<polygon fill="white" stroke="black" points="1163,-494.5 1163,-513.5 1221,-513.5 1221,-494.5 1163,-494.5"/>
<text text-anchor="middle" x="1192" y="-501.5" font-family="Helvetica,sans-Serif" font-size="10.00">_getIntVa</text>
</a>
</g>
</g>
<!-- Node14&#45;&gt;Node15 -->
<g id="edge15" class="edge">
<title>Node14&#45;&gt;Node15</title>
<path fill="none" stroke="midnightblue" d="M1043.37,-418.57C1059.48,-434.5 1094.08,-466.55 1129,-485 1136.5,-488.96 1144.96,-492.24 1153.16,-494.89"/>
<polygon fill="midnightblue" stroke="midnightblue" points="1152.37,-498.31 1162.95,-497.82 1154.37,-491.6 1152.37,-498.31"/>
</g>
<!-- Node16 -->
<g id="node16" class="node">
<title>Node16</title>
<g id="a_node16"><a xlink:href="printfmt_8cc.html#af4b46892c76c8bfd27efdb20847eb7c8" target="_top" xlink:title=" ">
<polygon fill="white" stroke="black" points="1159.5,-456.5 1159.5,-475.5 1224.5,-475.5 1224.5,-456.5 1159.5,-456.5"/>
<text text-anchor="middle" x="1192" y="-463.5" font-family="Helvetica,sans-Serif" font-size="10.00">_getUIntVa</text>
</a>
</g>
</g>
<!-- Node14&#45;&gt;Node16 -->
<g id="edge16" class="edge">
<title>Node14&#45;&gt;Node16</title>
<path fill="none" stroke="midnightblue" d="M1056.45,-418.59C1075.57,-426.62 1103.87,-438.14 1129,-447 1135.56,-449.31 1142.57,-451.62 1149.43,-453.78"/>
<polygon fill="midnightblue" stroke="midnightblue" points="1148.71,-457.22 1159.29,-456.84 1150.78,-450.54 1148.71,-457.22"/>
</g>
<!-- Node17 -->
<g id="node17" class="node">
<title>Node17</title>
<g id="a_node17"><a xlink:href="printfmt_8cc.html#a0e3e484ece5e75b9f5fbe337f0ae8ae3" target="_top" xlink:title=" ">
<polygon fill="white" stroke="black" points="1165.5,-342.5 1165.5,-361.5 1218.5,-361.5 1218.5,-342.5 1165.5,-342.5"/>
<text text-anchor="middle" x="1192" y="-349.5" font-family="Helvetica,sans-Serif" font-size="10.00">describe</text>
</a>
</g>
</g>
<!-- Node14&#45;&gt;Node17 -->
<g id="edge18" class="edge">
<title>Node14&#45;&gt;Node17</title>
<path fill="none" stroke="midnightblue" d="M1060.28,-399.46C1086.44,-389.96 1126.76,-375.32 1155.7,-364.82"/>
<polygon fill="midnightblue" stroke="midnightblue" points="1157.21,-367.99 1165.42,-361.29 1154.82,-361.41 1157.21,-367.99"/>
</g>
<!-- Node19 -->
<g id="node19" class="node">
<title>Node19</title>
<g id="a_node19"><a xlink:href="namespaceconsole_1_1ge.html#a7e301813fd34fde772376afc5fdad95d" target="_top" xlink:title=" ">
<polygon fill="white" stroke="black" points="1129,-418.5 1129,-437.5 1255,-437.5 1255,-418.5 1129,-418.5"/>
<text text-anchor="middle" x="1192" y="-425.5" font-family="Helvetica,sans-Serif" font-size="10.00">console::ge::printNumber</text>
</a>
</g>
</g>
<!-- Node14&#45;&gt;Node19 -->
<g id="edge20" class="edge">
<title>Node14&#45;&gt;Node19</title>
<path fill="none" stroke="midnightblue" d="M1093.35,-416.18C1101.72,-417.2 1110.39,-418.24 1118.96,-419.28"/>
<polygon fill="midnightblue" stroke="midnightblue" points="1118.6,-422.76 1128.95,-420.49 1119.44,-415.81 1118.6,-422.76"/>
</g>
<!-- Node14&#45;&gt;Node20 -->
<g id="edge30" class="edge">
<title>Node14&#45;&gt;Node20</title>
<path fill="none" stroke="midnightblue" d="M1093.23,-406.08C1137.81,-404.59 1200.36,-404 1255,-409 1271.8,-410.54 1289.94,-413.45 1306.25,-416.55"/>
<polygon fill="midnightblue" stroke="midnightblue" points="1305.66,-420 1316.15,-418.49 1307.01,-413.13 1305.66,-420"/>
</g>
<!-- Node18 -->
<g id="node18" class="node">
<title>Node18</title>
<g id="a_node18"><a xlink:href="namespacemonitor.html#a318993193c866642f8389a1c1f285739" target="_top" xlink:title=" ">
<polygon fill="white" stroke="black" points="1322,-342.5 1322,-361.5 1396,-361.5 1396,-342.5 1322,-342.5"/>
<text text-anchor="middle" x="1359" y="-349.5" font-family="Helvetica,sans-Serif" font-size="10.00">monitor::fuck</text>
</a>
</g>
</g>
<!-- Node17&#45;&gt;Node18 -->
<g id="edge19" class="edge">
<title>Node17&#45;&gt;Node18</title>
<path fill="none" stroke="midnightblue" d="M1218.78,-352C1243.59,-352 1281.66,-352 1311.73,-352"/>
<polygon fill="midnightblue" stroke="midnightblue" points="1311.99,-355.5 1321.99,-352 1311.99,-348.5 1311.99,-355.5"/>
</g>
<!-- Node19&#45;&gt;Node20 -->
<g id="edge21" class="edge">
<title>Node19&#45;&gt;Node20</title>
<path fill="none" stroke="midnightblue" d="M1255.38,-428C1267.86,-428 1280.99,-428 1293.53,-428"/>
<polygon fill="midnightblue" stroke="midnightblue" points="1293.91,-431.5 1303.91,-428 1293.91,-424.5 1293.91,-431.5"/>
</g>
<!-- Node21 -->
<g id="node21" class="node">
<title>Node21</title>
<g id="a_node21"><a xlink:href="namespaceconsole_1_1serial.html#a3a7c1f95ae3c24136ea63bb31fdf0391" target="_top" xlink:title=" ">
<polygon fill="white" stroke="black" points="1468,-418.5 1468,-437.5 1588,-437.5 1588,-418.5 1468,-418.5"/>
<text text-anchor="middle" x="1528" y="-425.5" font-family="Helvetica,sans-Serif" font-size="10.00">console::serial::putChar</text>
</a>
</g>
</g>
<!-- Node20&#45;&gt;Node21 -->
<g id="edge22" class="edge">
<title>Node20&#45;&gt;Node21</title>
<path fill="none" stroke="midnightblue" d="M1414.22,-428C1428.02,-428 1443.03,-428 1457.47,-428"/>
<polygon fill="midnightblue" stroke="midnightblue" points="1457.86,-431.5 1467.86,-428 1457.86,-424.5 1457.86,-431.5"/>
</g>
<!-- Node24 -->
<g id="node24" class="node">
<title>Node24</title>
<g id="a_node24"><a xlink:href="namespaceconsole_1_1cga.html#afa19057ca041b39682d5d4831c43dfa0" target="_top" xlink:title=" ">
<polygon fill="white" stroke="black" points="1471.5,-380.5 1471.5,-399.5 1584.5,-399.5 1584.5,-380.5 1471.5,-380.5"/>
<text text-anchor="middle" x="1528" y="-387.5" font-family="Helvetica,sans-Serif" font-size="10.00">console::cga::putChar</text>
</a>
</g>
</g>
<!-- Node20&#45;&gt;Node24 -->
<g id="edge25" class="edge">
<title>Node20&#45;&gt;Node24</title>
<path fill="none" stroke="midnightblue" d="M1402.14,-418.41C1424.38,-413.35 1451.85,-407.1 1475.36,-401.75"/>
<polygon fill="midnightblue" stroke="midnightblue" points="1476.19,-405.15 1485.16,-399.52 1474.63,-398.33 1476.19,-405.15"/>
</g>
<!-- Node22 -->
<g id="node22" class="node">
<title>Node22</title>
<g id="a_node22"><a xlink:href="namespaceconsole_1_1serial.html#aa5605d4537106bb1c2bab72d7d1a5824" target="_top" xlink:title=" ">
<polygon fill="white" stroke="black" points="1647,-418.5 1647,-437.5 1751,-437.5 1751,-418.5 1647,-418.5"/>
<text text-anchor="middle" x="1699" y="-425.5" font-family="Helvetica,sans-Serif" font-size="10.00">console::serial::sout</text>
</a>
</g>
</g>
<!-- Node21&#45;&gt;Node22 -->
<g id="edge23" class="edge">
<title>Node21&#45;&gt;Node22</title>
<path fill="none" stroke="midnightblue" d="M1588.11,-428C1603.8,-428 1620.79,-428 1636.6,-428"/>
<polygon fill="midnightblue" stroke="midnightblue" points="1636.8,-431.5 1646.8,-428 1636.8,-424.5 1636.8,-431.5"/>
</g>
<!-- Node23 -->
<g id="node23" class="node">
<title>Node23</title>
<g id="a_node23"><a xlink:href="x86_8h.html#ade961b44e45ddacbc3c3b7609cf36dc6" target="_top" xlink:title=" ">
<polygon fill="white" stroke="black" points="1816.5,-399.5 1816.5,-418.5 1851.5,-418.5 1851.5,-399.5 1816.5,-399.5"/>
<text text-anchor="middle" x="1834" y="-406.5" font-family="Helvetica,sans-Serif" font-size="10.00">outb</text>
</a>
</g>
</g>
<!-- Node22&#45;&gt;Node23 -->
<g id="edge24" class="edge">
<title>Node22&#45;&gt;Node23</title>
<path fill="none" stroke="midnightblue" d="M1751.04,-420.71C1769.85,-418.02 1790.4,-415.09 1806.22,-412.83"/>
<polygon fill="midnightblue" stroke="midnightblue" points="1806.94,-416.26 1816.34,-411.38 1805.95,-409.33 1806.94,-416.26"/>
</g>
<!-- Node25 -->
<g id="node25" class="node">
<title>Node25</title>
<g id="a_node25"><a xlink:href="namespacemem.html#a64d9d05b439041901498c606de606431" target="_top" xlink:title=" ">
<polygon fill="white" stroke="black" points="1666.5,-342.5 1666.5,-361.5 1731.5,-361.5 1731.5,-342.5 1666.5,-342.5"/>
<text text-anchor="middle" x="1699" y="-349.5" font-family="Helvetica,sans-Serif" font-size="10.00">mem::copy</text>
</a>
</g>
</g>
<!-- Node24&#45;&gt;Node25 -->
<g id="edge26" class="edge">
<title>Node24&#45;&gt;Node25</title>
<path fill="none" stroke="midnightblue" d="M1571.65,-380.41C1597.63,-374.57 1630.68,-367.14 1656.46,-361.34"/>
<polygon fill="midnightblue" stroke="midnightblue" points="1657.32,-364.74 1666.31,-359.13 1655.78,-357.91 1657.32,-364.74"/>
</g>
<!-- Node26 -->
<g id="node26" class="node">
<title>Node26</title>
<g id="a_node26"><a xlink:href="namespaceconsole_1_1cga.html#a06463d4dc68819e30615ba299d02a78f" target="_top" xlink:title=" ">
<polygon fill="white" stroke="black" points="1629,-380.5 1629,-399.5 1769,-399.5 1769,-380.5 1629,-380.5"/>
<text text-anchor="middle" x="1699" y="-387.5" font-family="Helvetica,sans-Serif" font-size="10.00">console::cga::cursorRefresh</text>
</a>
</g>
</g>
<!-- Node24&#45;&gt;Node26 -->
<g id="edge28" class="edge">
<title>Node24&#45;&gt;Node26</title>
<path fill="none" stroke="midnightblue" d="M1584.81,-390C1595.74,-390 1607.39,-390 1618.92,-390"/>
<polygon fill="midnightblue" stroke="midnightblue" points="1618.99,-393.5 1628.99,-390 1618.99,-386.5 1618.99,-393.5"/>
</g>
<!-- Node25&#45;&gt;Node3 -->
<g id="edge27" class="edge">
<title>Node25&#45;&gt;Node3</title>
<path fill="none" stroke="midnightblue" d="M1731.55,-346.02C1744.22,-342.42 1758.31,-336.77 1769,-328 1798.4,-303.87 1817.33,-262.44 1826.49,-238.2"/>
<polygon fill="midnightblue" stroke="midnightblue" points="1829.82,-239.28 1829.91,-228.68 1823.23,-236.91 1829.82,-239.28"/>
</g>
<!-- Node26&#45;&gt;Node23 -->
<g id="edge29" class="edge">
<title>Node26&#45;&gt;Node23</title>
<path fill="none" stroke="midnightblue" d="M1766.89,-399.56C1780.81,-401.54 1794.71,-403.53 1806.15,-405.16"/>
<polygon fill="midnightblue" stroke="midnightblue" points="1805.88,-408.66 1816.28,-406.61 1806.87,-401.73 1805.88,-408.66"/>
</g>
<!-- Node28 -->
<g id="node28" class="node">
<title>Node28</title>
<g id="a_node28"><a xlink:href="namespaceconsole_1_1err.html#a4cd18e4c409b5b17ecec61ce83b05fba" target="_top" xlink:title=" ">
<polygon fill="white" stroke="black" points="832,-570.5 832,-589.5 936,-589.5 936,-570.5 832,-570.5"/>
<text text-anchor="middle" x="884" y="-577.5" font-family="Helvetica,sans-Serif" font-size="10.00">console::err::printVa</text>
</a>
</g>
</g>
<!-- Node27&#45;&gt;Node28 -->
<g id="edge33" class="edge">
<title>Node27&#45;&gt;Node28</title>
<path fill="none" stroke="midnightblue" d="M638.31,-539.5C687.65,-547.67 766.84,-560.77 821.71,-569.85"/>
<polygon fill="midnightblue" stroke="midnightblue" points="821.22,-573.32 831.65,-571.5 822.36,-566.42 821.22,-573.32"/>
</g>
<!-- Node28&#45;&gt;Node14 -->
<g id="edge34" class="edge">
<title>Node28&#45;&gt;Node14</title>
<path fill="none" stroke="midnightblue" d="M893.32,-570.32C917.28,-542.45 986.61,-461.8 1017.2,-426.22"/>
<polygon fill="midnightblue" stroke="midnightblue" points="1019.9,-428.44 1023.77,-418.58 1014.59,-423.88 1019.9,-428.44"/>
</g>
<!-- Node28&#45;&gt;Node20 -->
<g id="edge35" class="edge">
<title>Node28&#45;&gt;Node20</title>
<path fill="none" stroke="midnightblue" d="M936.28,-589.03C1011.02,-599.57 1152.17,-609.4 1255,-556 1301.65,-531.78 1334.51,-476.1 1349.26,-446.81"/>
<polygon fill="midnightblue" stroke="midnightblue" points="1352.49,-448.17 1353.72,-437.64 1346.2,-445.11 1352.49,-448.17"/>
</g>
<!-- Node30 -->
<g id="node30" class="node">
<title>Node30</title>
<g id="a_node30"><a xlink:href="namespaceconsole_1_1in.html#ac28354dad0498aa6bb0c178b10d62c8a" target="_top" xlink:title=" ">
<polygon fill="white" stroke="black" points="680,-408.5 680,-427.5 795,-427.5 795,-408.5 680,-408.5"/>
<text text-anchor="middle" x="737.5" y="-415.5" font-family="Helvetica,sans-Serif" font-size="10.00">console::in::readlineVa</text>
</a>
</g>
</g>
<!-- Node29&#45;&gt;Node30 -->
<g id="edge37" class="edge">
<title>Node29&#45;&gt;Node30</title>
<path fill="none" stroke="midnightblue" d="M644.4,-418C652.52,-418 661.02,-418 669.43,-418"/>
<polygon fill="midnightblue" stroke="midnightblue" points="669.62,-421.5 679.62,-418 669.62,-414.5 669.62,-421.5"/>
</g>
<!-- Node30&#45;&gt;Node13 -->
<g id="edge39" class="edge">
<title>Node30&#45;&gt;Node13</title>
<path fill="none" stroke="midnightblue" d="M772.69,-408.46C780.23,-405.82 788.04,-402.66 795,-399 821.05,-385.3 847.64,-364.18 864.66,-349.53"/>
<polygon fill="midnightblue" stroke="midnightblue" points="867.43,-351.76 872.64,-342.53 862.82,-346.49 867.43,-351.76"/>
</g>
<!-- Node30&#45;&gt;Node20 -->
<g id="edge40" class="edge">
<title>Node30&#45;&gt;Node20</title>
<path fill="none" stroke="midnightblue" d="M754.7,-427.73C819.69,-465.47 1067.07,-596.43 1255,-523 1294.61,-507.52 1328.15,-468.89 1345.44,-445.94"/>
<polygon fill="midnightblue" stroke="midnightblue" points="1348.37,-447.86 1351.44,-437.72 1342.72,-443.73 1348.37,-447.86"/>
</g>
<!-- Node31 -->
<g id="node31" class="node">
<title>Node31</title>
<g id="a_node31"><a xlink:href="namespaceconsole_1_1in.html#a6fc069f2bc57fda183e3b991c31ec5a7" target="_top" xlink:title=" ">
<polygon fill="white" stroke="black" points="832,-408.5 832,-427.5 936,-427.5 936,-408.5 832,-408.5"/>
<text text-anchor="middle" x="884" y="-415.5" font-family="Helvetica,sans-Serif" font-size="10.00">console::in::getChar</text>
</a>
</g>
</g>
<!-- Node30&#45;&gt;Node31 -->
<g id="edge38" class="edge">
<title>Node30&#45;&gt;Node31</title>
<path fill="none" stroke="midnightblue" d="M795.2,-418C803.83,-418 812.78,-418 821.52,-418"/>
<polygon fill="midnightblue" stroke="midnightblue" points="821.64,-421.5 831.64,-418 821.64,-414.5 821.64,-421.5"/>
</g>
<!-- Node33 -->
<g id="node33" class="node">
<title>Node33</title>
<g id="a_node33"><a xlink:href="namespacevmem_1_1pgdir.html#a933a8f939084dabdb1a4b5401bebf8d7" target="_top" xlink:title=" ">
<polygon fill="white" stroke="black" points="1138.5,-85.5 1138.5,-104.5 1245.5,-104.5 1245.5,-85.5 1138.5,-85.5"/>
<text text-anchor="middle" x="1192" y="-92.5" font-family="Helvetica,sans-Serif" font-size="10.00">vmem::pgdir::findPte</text>
</a>
</g>
</g>
<!-- Node32&#45;&gt;Node33 -->
<g id="edge45" class="edge">
<title>Node32&#45;&gt;Node33</title>
<path fill="none" stroke="midnightblue" d="M392.18,-120.32C444.85,-117.47 522.9,-114 591,-114 591,-114 591,-114 885,-114 969.33,-114 1066.48,-106.72 1128.28,-101.18"/>
<polygon fill="midnightblue" stroke="midnightblue" points="1128.62,-104.66 1138.27,-100.27 1127.99,-97.69 1128.62,-104.66"/>
</g>
<!-- Node34 -->
<g id="node34" class="node">
<title>Node34</title>
<g id="a_node34"><a xlink:href="structvmem_1_1_page_info.html#afcdcb7e941219a8ec999353658e3c2aa" target="_top" xlink:title=" ">
<polygon fill="white" stroke="black" points="1301.5,-114.5 1301.5,-133.5 1416.5,-133.5 1416.5,-114.5 1301.5,-114.5"/>
<text text-anchor="middle" x="1359" y="-121.5" font-family="Helvetica,sans-Serif" font-size="10.00">vmem::PageInfo::alloc</text>
</a>
</g>
</g>
<!-- Node33&#45;&gt;Node34 -->
<g id="edge46" class="edge">
<title>Node33&#45;&gt;Node34</title>
<path fill="none" stroke="midnightblue" d="M1245.66,-104.26C1260.9,-106.93 1277.71,-109.89 1293.59,-112.68"/>
<polygon fill="midnightblue" stroke="midnightblue" points="1293.4,-116.2 1303.85,-114.48 1294.61,-109.31 1293.4,-116.2"/>
</g>
<!-- Node35 -->
<g id="node35" class="node">
<title>Node35</title>
<g id="a_node35"><a xlink:href="namespacemem.html#a981dd0cb1408b798a79443c6245e9c55" target="_top" xlink:title=" ">
<polygon fill="white" stroke="black" points="1495.5,-133.5 1495.5,-152.5 1560.5,-152.5 1560.5,-133.5 1495.5,-133.5"/>
<text text-anchor="middle" x="1528" y="-140.5" font-family="Helvetica,sans-Serif" font-size="10.00">mem::clear</text>
</a>
</g>
</g>
<!-- Node33&#45;&gt;Node35 -->
<g id="edge53" class="edge">
<title>Node33&#45;&gt;Node35</title>
<path fill="none" stroke="midnightblue" d="M1207.16,-104.53C1225.54,-116.28 1259.07,-135.6 1291,-143 1357.56,-158.43 1437.55,-153.75 1485.23,-148.62"/>
<polygon fill="midnightblue" stroke="midnightblue" points="1485.64,-152.1 1495.18,-147.49 1484.85,-145.14 1485.64,-152.1"/>
</g>
<!-- Node37 -->
<g id="node37" class="node">
<title>Node37</title>
<g id="a_node37"><a xlink:href="structvmem_1_1_page_info.html#afc863f1d364462ddd2c20bf31f588337" target="_top" xlink:title=" ">
<polygon fill="white" stroke="black" points="1463,-76.5 1463,-95.5 1593,-95.5 1593,-76.5 1463,-76.5"/>
<text text-anchor="middle" x="1528" y="-83.5" font-family="Helvetica,sans-Serif" font-size="10.00">vmem::PageInfo::toKernV</text>
</a>
</g>
</g>
<!-- Node33&#45;&gt;Node37 -->
<g id="edge56" class="edge">
<title>Node33&#45;&gt;Node37</title>
<path fill="none" stroke="midnightblue" d="M1245.55,-93.58C1301.24,-92.08 1389.64,-89.7 1452.5,-88.01"/>
<polygon fill="midnightblue" stroke="midnightblue" points="1452.85,-91.5 1462.75,-87.73 1452.66,-84.5 1452.85,-91.5"/>
</g>
<!-- Node38 -->
<g id="node38" class="node">
<title>Node38</title>
<g id="a_node38"><a xlink:href="structvmem_1_1_page_info.html#accf2071c7875c29c9aa78a01ef5963a1" target="_top" xlink:title=" ">
<polygon fill="white" stroke="black" points="1639,-57.5 1639,-76.5 1759,-76.5 1759,-57.5 1639,-57.5"/>
<text text-anchor="middle" x="1699" y="-64.5" font-family="Helvetica,sans-Serif" font-size="10.00">vmem::PageInfo::toPhy</text>
</a>
</g>
</g>
<!-- Node33&#45;&gt;Node38 -->
<g id="edge57" class="edge">
<title>Node33&#45;&gt;Node38</title>
<path fill="none" stroke="midnightblue" d="M1245.65,-87.91C1299.97,-80.98 1387.23,-70.92 1463,-67 1518.61,-64.12 1581.72,-64.31 1628.53,-65.12"/>
<polygon fill="midnightblue" stroke="midnightblue" points="1628.5,-68.62 1638.56,-65.31 1628.63,-61.62 1628.5,-68.62"/>
</g>
<!-- Node39 -->
<g id="node39" class="node">
<title>Node39</title>
<g id="a_node39"><a xlink:href="namespacevmem_1_1pgdir.html#a972bb045d4c58b0ea9c569e05831bbb6" target="_top" xlink:title=" ">
<polygon fill="white" stroke="black" points="1291,-0.5 1291,-19.5 1427,-19.5 1427,-0.5 1291,-0.5"/>
<text text-anchor="middle" x="1359" y="-7.5" font-family="Helvetica,sans-Serif" font-size="10.00">vmem::pgdir::invalidateTLB</text>
</a>
</g>
</g>
<!-- Node33&#45;&gt;Node39 -->
<g id="edge54" class="edge">
<title>Node33&#45;&gt;Node39</title>
<path fill="none" stroke="midnightblue" d="M1206.43,-85.35C1224.83,-72.43 1259.25,-49.35 1291,-34 1299.41,-29.93 1308.71,-26.17 1317.62,-22.89"/>
<polygon fill="midnightblue" stroke="midnightblue" points="1318.83,-26.18 1327.09,-19.53 1316.49,-19.58 1318.83,-26.18"/>
</g>
<!-- Node34&#45;&gt;Node35 -->
<g id="edge47" class="edge">
<title>Node34&#45;&gt;Node35</title>
<path fill="none" stroke="midnightblue" d="M1416.54,-130.43C1439.04,-132.99 1464.47,-135.89 1485.26,-138.25"/>
<polygon fill="midnightblue" stroke="midnightblue" points="1485.02,-141.75 1495.36,-139.4 1485.82,-134.79 1485.02,-141.75"/>
</g>
<!-- Node34&#45;&gt;Node37 -->
<g id="edge51" class="edge">
<title>Node34&#45;&gt;Node37</title>
<path fill="none" stroke="midnightblue" d="M1402.14,-114.41C1424.38,-109.35 1451.85,-103.1 1475.36,-97.75"/>
<polygon fill="midnightblue" stroke="midnightblue" points="1476.19,-101.15 1485.16,-95.52 1474.63,-94.33 1476.19,-101.15"/>
</g>
<!-- Node35&#45;&gt;Node3 -->
<g id="edge48" class="edge">
<title>Node35&#45;&gt;Node3</title>
<path fill="none" stroke="midnightblue" d="M1560.82,-145.65C1607.5,-150.22 1696.84,-161.55 1769,-186 1782.73,-190.65 1797.16,-197.86 1808.83,-204.36"/>
<polygon fill="midnightblue" stroke="midnightblue" points="1807.12,-207.41 1817.54,-209.35 1810.61,-201.34 1807.12,-207.41"/>
</g>
<!-- Node36 -->
<g id="node36" class="node">
<title>Node36</title>
<g id="a_node36"><a xlink:href="namespacemem.html#adbaba9127c03fb914f752bfe19d6d089" target="_top" xlink:title=" ">
<polygon fill="white" stroke="black" points="1670,-114.5 1670,-133.5 1728,-133.5 1728,-114.5 1670,-114.5"/>
<text text-anchor="middle" x="1699" y="-121.5" font-family="Helvetica,sans-Serif" font-size="10.00">mem::set</text>
</a>
</g>
</g>
<!-- Node35&#45;&gt;Node36 -->
<g id="edge49" class="edge">
<title>Node35&#45;&gt;Node36</title>
<path fill="none" stroke="midnightblue" d="M1560.79,-139.43C1588.93,-136.26 1630.05,-131.64 1659.94,-128.28"/>
<polygon fill="midnightblue" stroke="midnightblue" points="1660.45,-131.74 1670,-127.15 1659.67,-124.79 1660.45,-131.74"/>
</g>
<!-- Node36&#45;&gt;Node3 -->
<g id="edge50" class="edge">
<title>Node36&#45;&gt;Node3</title>
<path fill="none" stroke="midnightblue" d="M1728,-130.29C1741.16,-134.08 1756.64,-139.79 1769,-148 1790.27,-162.12 1809.08,-184.9 1820.71,-200.84"/>
<polygon fill="midnightblue" stroke="midnightblue" points="1818.07,-203.17 1826.7,-209.32 1823.79,-199.13 1818.07,-203.17"/>
</g>
<!-- Node37&#45;&gt;Node38 -->
<g id="edge52" class="edge">
<title>Node37&#45;&gt;Node38</title>
<path fill="none" stroke="midnightblue" d="M1593.37,-78.76C1604.92,-77.46 1616.99,-76.11 1628.67,-74.79"/>
<polygon fill="midnightblue" stroke="midnightblue" points="1629.26,-78.25 1638.8,-73.66 1628.47,-71.29 1629.26,-78.25"/>
</g>
<!-- Node40 -->
<g id="node40" class="node">
<title>Node40</title>
<g id="a_node40"><a xlink:href="x86_8h.html#a2c1c4c8523ed258a75c563a8f94d1686" target="_top" xlink:title=" ">
<polygon fill="white" stroke="black" points="1507,-0.5 1507,-19.5 1549,-19.5 1549,-0.5 1507,-0.5"/>
<text text-anchor="middle" x="1528" y="-7.5" font-family="Helvetica,sans-Serif" font-size="10.00">invlpg</text>
</a>
</g>
</g>
<!-- Node39&#45;&gt;Node40 -->
<g id="edge55" class="edge">
<title>Node39&#45;&gt;Node40</title>
<path fill="none" stroke="midnightblue" d="M1427.44,-10C1451.58,-10 1477.58,-10 1496.95,-10"/>
<polygon fill="midnightblue" stroke="midnightblue" points="1496.98,-13.5 1506.98,-10 1496.98,-6.5 1496.98,-13.5"/>
</g>
</g>
</svg>
        <g id="navigator" transform="translate(0 0)" fill="#404254">
                <rect fill="#f2f5e9" fill-opacity="0.5" stroke="#606060" stroke-width=".5" x="0" y="0" width="60" height="60"/>
                <use id="zoomplus" xlink:href="#zoomPlus" x="17" y="9" onmousedown="handleZoom(evt,'in')"/>
                <use id="zoomminus" xlink:href="#zoomMin" x="42" y="9" onmousedown="handleZoom(evt,'out')"/>
                <use id="reset" xlink:href="#resetDef" x="30" y="36" onmousedown="handleReset()"/>
                <g id="arrowUp" xlink:href="#dirArrow" transform="translate(30 24)" onmousedown="handlePan(0,-1)">
                  <use xlink:href="#rim" fill="#404040">
                        <set attributeName="fill" to="#808080" begin="arrowUp.mouseover" end="arrowUp.mouseout"/>
                  </use>
                  <path fill="none" stroke="white" stroke-width="1.5" d="M0,-3.0v7 M-2.5,-0.5L0,-3.0L2.5,-0.5"/>
                </g>
                <g id="arrowRight" xlink:href="#dirArrow" transform="rotate(90) translate(36 -43)" onmousedown="handlePan(1,0)">
                  <use xlink:href="#rim" fill="#404040">
                        <set attributeName="fill" to="#808080" begin="arrowRight.mouseover" end="arrowRight.mouseout"/>
                  </use>
                  <path fill="none" stroke="white" stroke-width="1.5" d="M0,-3.0v7 M-2.5,-0.5L0,-3.0L2.5,-0.5"/>
                </g>
                <g id="arrowDown" xlink:href="#dirArrow" transform="rotate(180) translate(-30 -48)" onmousedown="handlePan(0,1)">
                  <use xlink:href="#rim" fill="#404040">
                        <set attributeName="fill" to="#808080" begin="arrowDown.mouseover" end="arrowDown.mouseout"/>
                  </use>
                  <path fill="none" stroke="white" stroke-width="1.5" d="M0,-3.0v7 M-2.5,-0.5L0,-3.0L2.5,-0.5"/>
                </g>
                <g id="arrowLeft" xlink:href="#dirArrow" transform="rotate(270) translate(-36 17)" onmousedown="handlePan(-1,0)">
                  <use xlink:href="#rim" fill="#404040">
                        <set attributeName="fill" to="#808080" begin="arrowLeft.mouseover" end="arrowLeft.mouseout"/>
                  </use>
                  <path fill="none" stroke="white" stroke-width="1.5" d="M0,-3.0v7 M-2.5,-0.5L0,-3.0L2.5,-0.5"/>
                </g>
        </g>
        <svg viewBox="0 0 15 15" width="100%" height="30px" preserveAspectRatio="xMaxYMin meet">
         <g id="arrow_out" transform="scale(0.3 0.3)">
          <a xlink:href="structconsole_1_1_print_buf_a956b11aeb8472c86c9fb4996bda4edaa_cgraph_org.svg" target="_base">
           <rect id="button" ry="5" rx="5" y="6" x="6" height="38" width="38"
                fill="#f2f5e9" fill-opacity="0.5" stroke="#606060" stroke-width="1.0"/>
           <path id="arrow"
             d="M 11.500037,31.436501 C 11.940474,20.09759 22.043105,11.32322 32.158766,21.979434 L 37.068811,17.246167 C 37.068811,17.246167 37.088388,32 37.088388,32 L 22.160133,31.978069 C 22.160133,31.978069 26.997745,27.140456 26.997745,27.140456 C 18.528582,18.264221 13.291696,25.230495 11.500037,31.436501 z"
             style="fill:#404040;"/>
          </a>
         </g>
        </svg>
</svg>
