<?xml version="1.0" encoding="UTF-8" standalone="no"?>
<!DOCTYPE svg PUBLIC "-//W3C//DTD SVG 1.1//EN"
 "http://www.w3.org/Graphics/SVG/1.1/DTD/svg11.dtd">
<!-- Generated by graphviz version 2.44.1 (20200629.0846)
 -->
<!-- Title: system.hh Pages: 1 -->
<svg width="150pt" height="84pt"
 viewBox="0.00 0.00 150.00 84.00" xmlns="http://www.w3.org/2000/svg" xmlns:xlink="http://www.w3.org/1999/xlink">
<g id="graph0" class="graph" transform="scale(1 1) rotate(0) translate(4 80)">
<title>system.hh</title>
<polygon fill="white" stroke="transparent" points="-4,4 -4,-80 146,-80 146,4 -4,4"/>
<!-- Node1 -->
<g id="node1" class="node">
<title>Node1</title>
<g id="a_node1"><a xlink:title=" ">
<polygon fill="#bfbfbf" stroke="black" points="40,-56.5 40,-75.5 102,-75.5 102,-56.5 40,-56.5"/>
<text text-anchor="middle" x="71" y="-63.5" font-family="Helvetica,sans-Serif" font-size="10.00">system.hh</text>
</a>
</g>
</g>
<!-- Node2 -->
<g id="node2" class="node">
<title>Node2</title>
<g id="a_node2"><a xlink:href="system_8cc.html" target="_top" xlink:title=" ">
<polygon fill="white" stroke="black" points="0,-0.5 0,-19.5 62,-19.5 62,-0.5 0,-0.5"/>
<text text-anchor="middle" x="31" y="-7.5" font-family="Helvetica,sans-Serif" font-size="10.00">system.cc</text>
</a>
</g>
</g>
<!-- Node1&#45;&gt;Node2 -->
<g id="edge1" class="edge">
<title>Node1&#45;&gt;Node2</title>
<path fill="none" stroke="midnightblue" d="M58.3,-47.86C51.37,-38.5 43.09,-27.33 37.48,-19.75"/>
<polygon fill="midnightblue" stroke="midnightblue" points="55.63,-50.13 64.39,-56.08 61.25,-45.96 55.63,-50.13"/>
</g>
<!-- Node3 -->
<g id="node3" class="node">
<title>Node3</title>
<g id="a_node3"><a xlink:href="monitor_8cc.html" target="_top" xlink:title=" ">
<polygon fill="white" stroke="black" points="80,-0.5 80,-19.5 142,-19.5 142,-0.5 80,-0.5"/>
<text text-anchor="middle" x="111" y="-7.5" font-family="Helvetica,sans-Serif" font-size="10.00">monitor.cc</text>
</a>
</g>
</g>
<!-- Node1&#45;&gt;Node3 -->
<g id="edge2" class="edge">
<title>Node1&#45;&gt;Node3</title>
<path fill="none" stroke="midnightblue" d="M83.7,-47.86C90.63,-38.5 98.91,-27.33 104.52,-19.75"/>
<polygon fill="midnightblue" stroke="midnightblue" points="80.75,-45.96 77.61,-56.08 86.37,-50.13 80.75,-45.96"/>
</g>
</g>
</svg>
