<?xml version="1.0" encoding="UTF-8" standalone="no"?>
<!DOCTYPE svg PUBLIC "-//W3C//DTD SVG 1.1//EN"
 "http://www.w3.org/Graphics/SVG/1.1/DTD/svg11.dtd">
<!-- Generated by graphviz version 2.44.1 (20200629.0846)
 -->
<!-- Title: system.cc Pages: 1 -->
<!--zoomable 252 -->
<svg id="main" version="1.1" xmlns="http://www.w3.org/2000/svg" xmlns:xlink="http://www.w3.org/1999/xlink" xml:space="preserve" onload="init(evt)">
<style type="text/css"><![CDATA[
.edge:hover path { stroke: red; }
.edge:hover polygon { stroke: red; fill: red; }
]]></style>
<script type="text/javascript"><![CDATA[
var edges = document.getElementsByTagName('g');
if (edges && edges.length) {
  for (var i=0;i<edges.length;i++) {
    if (edges[i].id.substr(0,4)=='edge') {
      edges[i].setAttribute('class','edge');
    }
  }
}
]]></script>
        <defs>
                <circle id="rim" cx="0" cy="0" r="7"/>
                <circle id="rim2" cx="0" cy="0" r="3.5"/>
                <g id="zoomPlus">
                        <use xlink:href="#rim" fill="#404040">
                                <set attributeName="fill" to="#808080" begin="zoomplus.mouseover" end="zoomplus.mouseout"/>
                        </use>
                        <path d="M-4,0h8M0,-4v8" fill="none" stroke="white" stroke-width="1.5" pointer-events="none"/>
                </g>
                <g id="zoomMin">
                        <use xlink:href="#rim" fill="#404040">
                                <set attributeName="fill" to="#808080" begin="zoomminus.mouseover" end="zoomminus.mouseout"/>
                        </use>
                        <path d="M-4,0h8" fill="none" stroke="white" stroke-width="1.5" pointer-events="none"/>
                </g>
                <g id="dirArrow">
                        <path fill="none" stroke="white" stroke-width="1.5" d="M0,-3.0v7 M-2.5,-0.5L0,-3.0L2.5,-0.5"/>
                </g>
               <g id="resetDef">
                       <use xlink:href="#rim2" fill="#404040">
                               <set attributeName="fill" to="#808080" begin="reset.mouseover" end="reset.mouseout"/>
                       </use>
               </g>
        </defs>

<script type="text/javascript">
var viewWidth = 508;
var viewHeight = 252;
var sectionId = 'dynsection-0';
</script>
<script xlink:href="svgpan.js"/>
<svg id="graph" class="graph">
<g id="viewport">
<title>system.cc</title>
<polygon fill="white" stroke="transparent" points="-4,4 -4,-248 504,-248 504,4 -4,4"/>
<!-- Node1 -->
<g id="node1" class="node">
<title>Node1</title>
<g id="a_node1"><a xlink:title=" ">
<polygon fill="#bfbfbf" stroke="black" points="202,-224.5 202,-243.5 264,-243.5 264,-224.5 202,-224.5"/>
<text text-anchor="middle" x="233" y="-231.5" font-family="Helvetica,sans-Serif" font-size="10.00">system.cc</text>
</a>
</g>
</g>
<!-- Node2 -->
<g id="node2" class="node">
<title>Node2</title>
<g id="a_node2"><a xlink:title=" ">
<polygon fill="white" stroke="#bfbfbf" points="132,-168.5 132,-187.5 170,-187.5 170,-168.5 132,-168.5"/>
<text text-anchor="middle" x="151" y="-175.5" font-family="Helvetica,sans-Serif" font-size="10.00">tuple</text>
</a>
</g>
</g>
<!-- Node1&#45;&gt;Node2 -->
<g id="edge1" class="edge">
<title>Node1&#45;&gt;Node2</title>
<path fill="none" stroke="midnightblue" d="M219.83,-224.32C207.15,-215.98 187.77,-203.21 172.79,-193.35"/>
<polygon fill="midnightblue" stroke="midnightblue" points="174.42,-190.23 164.14,-187.65 170.57,-196.08 174.42,-190.23"/>
</g>
<!-- Node3 -->
<g id="node3" class="node">
<title>Node3</title>
<g id="a_node3"><a xlink:href="x86_8h.html" target="_top" xlink:title=" ">
<polygon fill="white" stroke="black" points="107,-112.5 107,-131.5 181,-131.5 181,-112.5 107,-112.5"/>
<text text-anchor="middle" x="144" y="-119.5" font-family="Helvetica,sans-Serif" font-size="10.00">include/x86.h</text>
</a>
</g>
</g>
<!-- Node1&#45;&gt;Node3 -->
<g id="edge2" class="edge">
<title>Node1&#45;&gt;Node3</title>
<path fill="none" stroke="midnightblue" d="M226.02,-224.37C211.26,-206.14 176.71,-163.43 157.49,-139.68"/>
<polygon fill="midnightblue" stroke="midnightblue" points="159.96,-137.16 150.95,-131.59 154.52,-141.57 159.96,-137.16"/>
</g>
<!-- Node8 -->
<g id="node8" class="node">
<title>Node8</title>
<g id="a_node8"><a xlink:href="stdio_8hh.html" target="_top" xlink:title=" ">
<polygon fill="white" stroke="black" points="226.5,-168.5 226.5,-187.5 311.5,-187.5 311.5,-168.5 226.5,-168.5"/>
<text text-anchor="middle" x="269" y="-175.5" font-family="Helvetica,sans-Serif" font-size="10.00">include/stdio.hh</text>
</a>
</g>
</g>
<!-- Node1&#45;&gt;Node8 -->
<g id="edge8" class="edge">
<title>Node1&#45;&gt;Node8</title>
<path fill="none" stroke="midnightblue" d="M238.94,-224.08C243.98,-216.53 251.34,-205.49 257.51,-196.23"/>
<polygon fill="midnightblue" stroke="midnightblue" points="260.53,-198.01 263.17,-187.75 254.71,-194.13 260.53,-198.01"/>
</g>
<!-- Node15 -->
<g id="node15" class="node">
<title>Node15</title>
<g id="a_node15"><a xlink:href="system_8hh.html" target="_top" xlink:title=" ">
<polygon fill="white" stroke="black" points="383,-168.5 383,-187.5 475,-187.5 475,-168.5 383,-168.5"/>
<text text-anchor="middle" x="429" y="-175.5" font-family="Helvetica,sans-Serif" font-size="10.00">kernel/system.hh</text>
</a>
</g>
</g>
<!-- Node1&#45;&gt;Node15 -->
<g id="edge17" class="edge">
<title>Node1&#45;&gt;Node15</title>
<path fill="none" stroke="midnightblue" d="M264.06,-224.44C297.6,-215.2 351.2,-200.44 388.14,-190.26"/>
<polygon fill="midnightblue" stroke="midnightblue" points="389.38,-193.55 398.09,-187.52 387.52,-186.8 389.38,-193.55"/>
</g>
<!-- Node4 -->
<g id="node4" class="node">
<title>Node4</title>
<g id="a_node4"><a xlink:href="types_8h.html" target="_top" xlink:title=" ">
<polygon fill="white" stroke="black" points="101.5,-56.5 101.5,-75.5 184.5,-75.5 184.5,-56.5 101.5,-56.5"/>
<text text-anchor="middle" x="143" y="-63.5" font-family="Helvetica,sans-Serif" font-size="10.00">include/types.h</text>
</a>
</g>
</g>
<!-- Node3&#45;&gt;Node4 -->
<g id="edge3" class="edge">
<title>Node3&#45;&gt;Node4</title>
<path fill="none" stroke="midnightblue" d="M143.83,-112.08C143.7,-105.01 143.52,-94.86 143.35,-85.99"/>
<polygon fill="midnightblue" stroke="midnightblue" points="146.85,-85.68 143.16,-75.75 139.85,-85.81 146.85,-85.68"/>
</g>
<!-- Node5 -->
<g id="node5" class="node">
<title>Node5</title>
<g id="a_node5"><a xlink:title=" ">
<polygon fill="white" stroke="#bfbfbf" points="0,-0.5 0,-19.5 52,-19.5 52,-0.5 0,-0.5"/>
<text text-anchor="middle" x="26" y="-7.5" font-family="Helvetica,sans-Serif" font-size="10.00">stddef.h</text>
</a>
</g>
</g>
<!-- Node4&#45;&gt;Node5 -->
<g id="edge4" class="edge">
<title>Node4&#45;&gt;Node5</title>
<path fill="none" stroke="midnightblue" d="M124.46,-56.44C105.38,-47.64 75.43,-33.81 53.56,-23.72"/>
<polygon fill="midnightblue" stroke="midnightblue" points="55,-20.53 44.45,-19.52 52.07,-26.88 55,-20.53"/>
</g>
<!-- Node6 -->
<g id="node6" class="node">
<title>Node6</title>
<g id="a_node6"><a xlink:title=" ">
<polygon fill="white" stroke="#bfbfbf" points="70.5,-0.5 70.5,-19.5 119.5,-19.5 119.5,-0.5 70.5,-0.5"/>
<text text-anchor="middle" x="95" y="-7.5" font-family="Helvetica,sans-Serif" font-size="10.00">stdint.h</text>
</a>
</g>
</g>
<!-- Node4&#45;&gt;Node6 -->
<g id="edge5" class="edge">
<title>Node4&#45;&gt;Node6</title>
<path fill="none" stroke="midnightblue" d="M135.07,-56.08C128.15,-48.3 117.93,-36.8 109.55,-27.37"/>
<polygon fill="midnightblue" stroke="midnightblue" points="112.04,-24.9 102.78,-19.75 106.81,-29.55 112.04,-24.9"/>
</g>
<!-- Node7 -->
<g id="node7" class="node">
<title>Node7</title>
<g id="a_node7"><a xlink:href="ctype_8h.html" target="_top" xlink:title=" ">
<polygon fill="white" stroke="black" points="137.5,-0.5 137.5,-19.5 186.5,-19.5 186.5,-0.5 137.5,-0.5"/>
<text text-anchor="middle" x="162" y="-7.5" font-family="Helvetica,sans-Serif" font-size="10.00">ctype.h</text>
</a>
</g>
</g>
<!-- Node4&#45;&gt;Node7 -->
<g id="edge6" class="edge">
<title>Node4&#45;&gt;Node7</title>
<path fill="none" stroke="midnightblue" d="M140.97,-56.08C142.01,-48.69 145.38,-37.95 149.34,-28.81"/>
<polygon fill="midnightblue" stroke="midnightblue" points="152.53,-30.27 153.79,-19.75 146.24,-27.19 152.53,-30.27"/>
</g>
<!-- Node7&#45;&gt;Node4 -->
<g id="edge7" class="edge">
<title>Node7&#45;&gt;Node4</title>
<path fill="none" stroke="midnightblue" d="M164.05,-19.75C163.05,-27.09 159.7,-37.82 155.75,-46.98"/>
<polygon fill="midnightblue" stroke="midnightblue" points="152.55,-45.56 151.3,-56.08 158.84,-48.63 152.55,-45.56"/>
</g>
<!-- Node9 -->
<g id="node9" class="node">
<title>Node9</title>
<g id="a_node9"><a xlink:href="stdin_8hh.html" target="_top" xlink:title=" ">
<polygon fill="white" stroke="black" points="199.5,-112.5 199.5,-131.5 284.5,-131.5 284.5,-112.5 199.5,-112.5"/>
<text text-anchor="middle" x="242" y="-119.5" font-family="Helvetica,sans-Serif" font-size="10.00">include/stdin.hh</text>
</a>
</g>
</g>
<!-- Node8&#45;&gt;Node9 -->
<g id="edge9" class="edge">
<title>Node8&#45;&gt;Node9</title>
<path fill="none" stroke="midnightblue" d="M264.54,-168.08C260.85,-160.69 255.48,-149.95 250.91,-140.81"/>
<polygon fill="midnightblue" stroke="midnightblue" points="253.98,-139.13 246.38,-131.75 247.72,-142.26 253.98,-139.13"/>
</g>
<!-- Node12 -->
<g id="node12" class="node">
<title>Node12</title>
<g id="a_node12"><a xlink:href="stdout_8hh.html" target="_top" xlink:title=" ">
<polygon fill="white" stroke="black" points="302.5,-112.5 302.5,-131.5 393.5,-131.5 393.5,-112.5 302.5,-112.5"/>
<text text-anchor="middle" x="348" y="-119.5" font-family="Helvetica,sans-Serif" font-size="10.00">include/stdout.hh</text>
</a>
</g>
</g>
<!-- Node8&#45;&gt;Node12 -->
<g id="edge12" class="edge">
<title>Node8&#45;&gt;Node12</title>
<path fill="none" stroke="midnightblue" d="M281.69,-168.32C293.9,-159.98 312.58,-147.21 327,-137.35"/>
<polygon fill="midnightblue" stroke="midnightblue" points="329.06,-140.19 335.34,-131.65 325.11,-134.41 329.06,-140.19"/>
</g>
<!-- Node10 -->
<g id="node10" class="node">
<title>Node10</title>
<g id="a_node10"><a xlink:href="vargs_8hh.html" target="_top" xlink:title=" ">
<polygon fill="white" stroke="black" points="203,-56.5 203,-75.5 291,-75.5 291,-56.5 203,-56.5"/>
<text text-anchor="middle" x="247" y="-63.5" font-family="Helvetica,sans-Serif" font-size="10.00">include/vargs.hh</text>
</a>
</g>
</g>
<!-- Node9&#45;&gt;Node10 -->
<g id="edge10" class="edge">
<title>Node9&#45;&gt;Node10</title>
<path fill="none" stroke="midnightblue" d="M242.83,-112.08C243.48,-105.01 244.42,-94.86 245.24,-85.99"/>
<polygon fill="midnightblue" stroke="midnightblue" points="248.75,-86.03 246.19,-75.75 241.78,-85.39 248.75,-86.03"/>
</g>
<!-- Node11 -->
<g id="node11" class="node">
<title>Node11</title>
<g id="a_node11"><a xlink:title=" ">
<polygon fill="white" stroke="#bfbfbf" points="222.5,-0.5 222.5,-19.5 271.5,-19.5 271.5,-0.5 222.5,-0.5"/>
<text text-anchor="middle" x="247" y="-7.5" font-family="Helvetica,sans-Serif" font-size="10.00">cstdarg</text>
</a>
</g>
</g>
<!-- Node10&#45;&gt;Node11 -->
<g id="edge11" class="edge">
<title>Node10&#45;&gt;Node11</title>
<path fill="none" stroke="midnightblue" d="M247,-56.08C247,-49.01 247,-38.86 247,-29.99"/>
<polygon fill="midnightblue" stroke="midnightblue" points="250.5,-29.75 247,-19.75 243.5,-29.75 250.5,-29.75"/>
</g>
<!-- Node12&#45;&gt;Node4 -->
<g id="edge13" class="edge">
<title>Node12&#45;&gt;Node4</title>
<path fill="none" stroke="midnightblue" d="M315.52,-112.44C280.28,-103.16 223.9,-88.31 185.24,-78.13"/>
<polygon fill="midnightblue" stroke="midnightblue" points="185.89,-74.68 175.33,-75.52 184.11,-81.45 185.89,-74.68"/>
</g>
<!-- Node12&#45;&gt;Node10 -->
<g id="edge14" class="edge">
<title>Node12&#45;&gt;Node10</title>
<path fill="none" stroke="midnightblue" d="M331.77,-112.32C315.65,-103.7 290.7,-90.36 272.04,-80.39"/>
<polygon fill="midnightblue" stroke="midnightblue" points="273.66,-77.28 263.19,-75.65 270.36,-83.46 273.66,-77.28"/>
</g>
<!-- Node13 -->
<g id="node13" class="node">
<title>Node13</title>
<g id="a_node13"><a xlink:href="color_8h.html" target="_top" xlink:title=" ">
<polygon fill="white" stroke="black" points="309.5,-56.5 309.5,-75.5 388.5,-75.5 388.5,-56.5 309.5,-56.5"/>
<text text-anchor="middle" x="349" y="-63.5" font-family="Helvetica,sans-Serif" font-size="10.00">include/color.h</text>
</a>
</g>
</g>
<!-- Node12&#45;&gt;Node13 -->
<g id="edge15" class="edge">
<title>Node12&#45;&gt;Node13</title>
<path fill="none" stroke="midnightblue" d="M348.17,-112.08C348.3,-105.01 348.48,-94.86 348.65,-85.99"/>
<polygon fill="midnightblue" stroke="midnightblue" points="352.15,-85.81 348.84,-75.75 345.15,-85.68 352.15,-85.81"/>
</g>
<!-- Node14 -->
<g id="node14" class="node">
<title>Node14</title>
<g id="a_node14"><a xlink:title=" ">
<polygon fill="white" stroke="#bfbfbf" points="406.5,-56.5 406.5,-75.5 465.5,-75.5 465.5,-56.5 406.5,-56.5"/>
<text text-anchor="middle" x="436" y="-63.5" font-family="Helvetica,sans-Serif" font-size="10.00">functional</text>
</a>
</g>
</g>
<!-- Node12&#45;&gt;Node14 -->
<g id="edge16" class="edge">
<title>Node12&#45;&gt;Node14</title>
<path fill="none" stroke="midnightblue" d="M362.14,-112.32C375.87,-103.9 396.94,-90.97 413.06,-81.07"/>
<polygon fill="midnightblue" stroke="midnightblue" points="415.2,-83.87 421.9,-75.65 411.54,-77.9 415.2,-83.87"/>
</g>
<!-- Node16 -->
<g id="node16" class="node">
<title>Node16</title>
<g id="a_node16"><a xlink:href="knlast_8inc.html" target="_top" xlink:title=" ">
<polygon fill="white" stroke="black" points="412,-112.5 412,-131.5 500,-131.5 500,-112.5 412,-112.5"/>
<text text-anchor="middle" x="456" y="-119.5" font-family="Helvetica,sans-Serif" font-size="10.00">kernel/knlast.inc</text>
</a>
</g>
</g>
<!-- Node15&#45;&gt;Node16 -->
<g id="edge18" class="edge">
<title>Node15&#45;&gt;Node16</title>
<path fill="none" stroke="midnightblue" d="M433.46,-168.08C437.15,-160.69 442.52,-149.95 447.09,-140.81"/>
<polygon fill="midnightblue" stroke="midnightblue" points="450.28,-142.26 451.62,-131.75 444.02,-139.13 450.28,-142.26"/>
</g>
</g>
</svg>
        <g id="navigator" transform="translate(0 0)" fill="#404254">
                <rect fill="#f2f5e9" fill-opacity="0.5" stroke="#606060" stroke-width=".5" x="0" y="0" width="60" height="60"/>
                <use id="zoomplus" xlink:href="#zoomPlus" x="17" y="9" onmousedown="handleZoom(evt,'in')"/>
                <use id="zoomminus" xlink:href="#zoomMin" x="42" y="9" onmousedown="handleZoom(evt,'out')"/>
                <use id="reset" xlink:href="#resetDef" x="30" y="36" onmousedown="handleReset()"/>
                <g id="arrowUp" xlink:href="#dirArrow" transform="translate(30 24)" onmousedown="handlePan(0,-1)">
                  <use xlink:href="#rim" fill="#404040">
                        <set attributeName="fill" to="#808080" begin="arrowUp.mouseover" end="arrowUp.mouseout"/>
                  </use>
                  <path fill="none" stroke="white" stroke-width="1.5" d="M0,-3.0v7 M-2.5,-0.5L0,-3.0L2.5,-0.5"/>
                </g>
                <g id="arrowRight" xlink:href="#dirArrow" transform="rotate(90) translate(36 -43)" onmousedown="handlePan(1,0)">
                  <use xlink:href="#rim" fill="#404040">
                        <set attributeName="fill" to="#808080" begin="arrowRight.mouseover" end="arrowRight.mouseout"/>
                  </use>
                  <path fill="none" stroke="white" stroke-width="1.5" d="M0,-3.0v7 M-2.5,-0.5L0,-3.0L2.5,-0.5"/>
                </g>
                <g id="arrowDown" xlink:href="#dirArrow" transform="rotate(180) translate(-30 -48)" onmousedown="handlePan(0,1)">
                  <use xlink:href="#rim" fill="#404040">
                        <set attributeName="fill" to="#808080" begin="arrowDown.mouseover" end="arrowDown.mouseout"/>
                  </use>
                  <path fill="none" stroke="white" stroke-width="1.5" d="M0,-3.0v7 M-2.5,-0.5L0,-3.0L2.5,-0.5"/>
                </g>
                <g id="arrowLeft" xlink:href="#dirArrow" transform="rotate(270) translate(-36 17)" onmousedown="handlePan(-1,0)">
                  <use xlink:href="#rim" fill="#404040">
                        <set attributeName="fill" to="#808080" begin="arrowLeft.mouseover" end="arrowLeft.mouseout"/>
                  </use>
                  <path fill="none" stroke="white" stroke-width="1.5" d="M0,-3.0v7 M-2.5,-0.5L0,-3.0L2.5,-0.5"/>
                </g>
        </g>
        <svg viewBox="0 0 15 15" width="100%" height="30px" preserveAspectRatio="xMaxYMin meet">
         <g id="arrow_out" transform="scale(0.3 0.3)">
          <a xlink:href="system_8cc__incl_org.svg" target="_base">
           <rect id="button" ry="5" rx="5" y="6" x="6" height="38" width="38"
                fill="#f2f5e9" fill-opacity="0.5" stroke="#606060" stroke-width="1.0"/>
           <path id="arrow"
             d="M 11.500037,31.436501 C 11.940474,20.09759 22.043105,11.32322 32.158766,21.979434 L 37.068811,17.246167 C 37.068811,17.246167 37.088388,32 37.088388,32 L 22.160133,31.978069 C 22.160133,31.978069 26.997745,27.140456 26.997745,27.140456 C 18.528582,18.264221 13.291696,25.230495 11.500037,31.436501 z"
             style="fill:#404040;"/>
          </a>
         </g>
        </svg>
</svg>
