<?xml version="1.0" encoding="UTF-8" standalone="no"?>
<!DOCTYPE svg PUBLIC "-//W3C//DTD SVG 1.1//EN"
 "http://www.w3.org/Graphics/SVG/1.1/DTD/svg11.dtd">
<!-- Generated by graphviz version 2.44.1 (20200629.0846)
 -->
<!-- Title: task.cc Pages: 1 -->
<!--zoomable 420 -->
<svg id="main" version="1.1" xmlns="http://www.w3.org/2000/svg" xmlns:xlink="http://www.w3.org/1999/xlink" xml:space="preserve" onload="init(evt)">
<style type="text/css"><![CDATA[
.edge:hover path { stroke: red; }
.edge:hover polygon { stroke: red; fill: red; }
]]></style>
<script type="text/javascript"><![CDATA[
var edges = document.getElementsByTagName('g');
if (edges && edges.length) {
  for (var i=0;i<edges.length;i++) {
    if (edges[i].id.substr(0,4)=='edge') {
      edges[i].setAttribute('class','edge');
    }
  }
}
]]></script>
        <defs>
                <circle id="rim" cx="0" cy="0" r="7"/>
                <circle id="rim2" cx="0" cy="0" r="3.5"/>
                <g id="zoomPlus">
                        <use xlink:href="#rim" fill="#404040">
                                <set attributeName="fill" to="#808080" begin="zoomplus.mouseover" end="zoomplus.mouseout"/>
                        </use>
                        <path d="M-4,0h8M0,-4v8" fill="none" stroke="white" stroke-width="1.5" pointer-events="none"/>
                </g>
                <g id="zoomMin">
                        <use xlink:href="#rim" fill="#404040">
                                <set attributeName="fill" to="#808080" begin="zoomminus.mouseover" end="zoomminus.mouseout"/>
                        </use>
                        <path d="M-4,0h8" fill="none" stroke="white" stroke-width="1.5" pointer-events="none"/>
                </g>
                <g id="dirArrow">
                        <path fill="none" stroke="white" stroke-width="1.5" d="M0,-3.0v7 M-2.5,-0.5L0,-3.0L2.5,-0.5"/>
                </g>
               <g id="resetDef">
                       <use xlink:href="#rim2" fill="#404040">
                               <set attributeName="fill" to="#808080" begin="reset.mouseover" end="reset.mouseout"/>
                       </use>
               </g>
        </defs>

<script type="text/javascript">
var viewWidth = 971;
var viewHeight = 420;
var sectionId = 'dynsection-0';
</script>
<script xlink:href="svgpan.js"/>
<svg id="graph" class="graph">
<g id="viewport">
<title>task.cc</title>
<polygon fill="white" stroke="transparent" points="-4,4 -4,-416 966.95,-416 966.95,4 -4,4"/>
<!-- Node1 -->
<g id="node1" class="node">
<title>Node1</title>
<g id="a_node1"><a xlink:title=" ">
<polygon fill="#bfbfbf" stroke="black" points="495.5,-392.5 495.5,-411.5 544.5,-411.5 544.5,-392.5 495.5,-392.5"/>
<text text-anchor="middle" x="520" y="-399.5" font-family="Helvetica,sans-Serif" font-size="10.00">task.cc</text>
</a>
</g>
</g>
<!-- Node2 -->
<g id="node2" class="node">
<title>Node2</title>
<g id="a_node2"><a xlink:href="stdio_8hh.html" target="_top" xlink:title=" ">
<polygon fill="white" stroke="black" points="140.5,-336.5 140.5,-355.5 225.5,-355.5 225.5,-336.5 140.5,-336.5"/>
<text text-anchor="middle" x="183" y="-343.5" font-family="Helvetica,sans-Serif" font-size="10.00">include/stdio.hh</text>
</a>
</g>
</g>
<!-- Node1&#45;&gt;Node2 -->
<g id="edge1" class="edge">
<title>Node1&#45;&gt;Node2</title>
<path fill="none" stroke="midnightblue" d="M495.49,-397.07C441.17,-388.37 309.63,-367.29 235.7,-355.44"/>
<polygon fill="midnightblue" stroke="midnightblue" points="236.09,-351.96 225.66,-353.84 234.98,-358.87 236.09,-351.96"/>
</g>
<!-- Node13 -->
<g id="node13" class="node">
<title>Node13</title>
<g id="a_node13"><a xlink:href="string_8hh.html" target="_top" xlink:title=" ">
<polygon fill="white" stroke="black" points="396,-168.5 396,-187.5 484,-187.5 484,-168.5 396,-168.5"/>
<text text-anchor="middle" x="440" y="-175.5" font-family="Helvetica,sans-Serif" font-size="10.00">include/string.hh</text>
</a>
</g>
</g>
<!-- Node1&#45;&gt;Node13 -->
<g id="edge14" class="edge">
<title>Node1&#45;&gt;Node13</title>
<path fill="none" stroke="midnightblue" d="M505.11,-392.3C493.06,-384.41 476.7,-371.65 468,-356 439.34,-304.43 437.78,-232.13 438.89,-198.12"/>
<polygon fill="midnightblue" stroke="midnightblue" points="442.4,-197.93 439.36,-187.78 435.41,-197.61 442.4,-197.93"/>
</g>
<!-- Node14 -->
<g id="node14" class="node">
<title>Node14</title>
<g id="a_node14"><a xlink:href="random_8hh.html" target="_top" xlink:title=" ">
<polygon fill="white" stroke="black" points="229,-112.5 229,-131.5 325,-131.5 325,-112.5 229,-112.5"/>
<text text-anchor="middle" x="277" y="-119.5" font-family="Helvetica,sans-Serif" font-size="10.00">include/random.hh</text>
</a>
</g>
</g>
<!-- Node1&#45;&gt;Node14 -->
<g id="edge16" class="edge">
<title>Node1&#45;&gt;Node14</title>
<path fill="none" stroke="midnightblue" d="M495.16,-398.24C443.66,-391 330,-366.47 330,-291 330,-291 330,-291 330,-233 330,-196.99 306.67,-160.34 290.96,-139.75"/>
<polygon fill="midnightblue" stroke="midnightblue" points="293.55,-137.38 284.59,-131.72 288.07,-141.73 293.55,-137.38"/>
</g>
<!-- Node15 -->
<g id="node15" class="node">
<title>Node15</title>
<g id="a_node15"><a xlink:href="elf_8h.html" target="_top" xlink:title=" ">
<polygon fill="white" stroke="black" points="833.5,-336.5 833.5,-355.5 902.5,-355.5 902.5,-336.5 833.5,-336.5"/>
<text text-anchor="middle" x="868" y="-343.5" font-family="Helvetica,sans-Serif" font-size="10.00">include/elf.h</text>
</a>
</g>
</g>
<!-- Node1&#45;&gt;Node15 -->
<g id="edge18" class="edge">
<title>Node1&#45;&gt;Node15</title>
<path fill="none" stroke="midnightblue" d="M544.59,-397.88C595.02,-391.37 713.95,-375.47 823.42,-356.2"/>
<polygon fill="midnightblue" stroke="midnightblue" points="824.07,-359.64 833.3,-354.45 822.84,-352.75 824.07,-359.64"/>
</g>
<!-- Node16 -->
<g id="node16" class="node">
<title>Node16</title>
<g id="a_node16"><a xlink:href="vmem_8hh.html" target="_top" xlink:title=" ">
<polygon fill="white" stroke="black" points="477,-336.5 477,-355.5 563,-355.5 563,-336.5 477,-336.5"/>
<text text-anchor="middle" x="520" y="-343.5" font-family="Helvetica,sans-Serif" font-size="10.00">kernel/vmem.hh</text>
</a>
</g>
</g>
<!-- Node1&#45;&gt;Node16 -->
<g id="edge19" class="edge">
<title>Node1&#45;&gt;Node16</title>
<path fill="none" stroke="midnightblue" d="M520,-392.08C520,-385.01 520,-374.86 520,-365.99"/>
<polygon fill="midnightblue" stroke="midnightblue" points="523.5,-365.75 520,-355.75 516.5,-365.75 523.5,-365.75"/>
</g>
<!-- Node24 -->
<g id="node24" class="node">
<title>Node24</title>
<g id="a_node24"><a xlink:href="kernel_2task_8hh.html" target="_top" xlink:title=" ">
<polygon fill="white" stroke="black" points="628,-336.5 628,-355.5 706,-355.5 706,-336.5 628,-336.5"/>
<text text-anchor="middle" x="667" y="-343.5" font-family="Helvetica,sans-Serif" font-size="10.00">kernel/task.hh</text>
</a>
</g>
</g>
<!-- Node1&#45;&gt;Node24 -->
<g id="edge31" class="edge">
<title>Node1&#45;&gt;Node24</title>
<path fill="none" stroke="midnightblue" d="M543.29,-392.44C567.81,-383.44 606.6,-369.19 634.2,-359.05"/>
<polygon fill="midnightblue" stroke="midnightblue" points="635.64,-362.25 643.82,-355.52 633.22,-355.68 635.64,-362.25"/>
</g>
<!-- Node28 -->
<g id="node28" class="node">
<title>Node28</title>
<g id="a_node28"><a xlink:href="monitor_8hh.html" target="_top" xlink:title=" ">
<polygon fill="white" stroke="black" points="724.5,-336.5 724.5,-355.5 815.5,-355.5 815.5,-336.5 724.5,-336.5"/>
<text text-anchor="middle" x="770" y="-343.5" font-family="Helvetica,sans-Serif" font-size="10.00">kernel/monitor.hh</text>
</a>
</g>
</g>
<!-- Node1&#45;&gt;Node28 -->
<g id="edge43" class="edge">
<title>Node1&#45;&gt;Node28</title>
<path fill="none" stroke="midnightblue" d="M544.88,-395.62C585.73,-386.8 667.72,-369.09 720.67,-357.66"/>
<polygon fill="midnightblue" stroke="midnightblue" points="721.49,-361.06 730.52,-355.53 720.01,-354.22 721.49,-361.06"/>
</g>
<!-- Node3 -->
<g id="node3" class="node">
<title>Node3</title>
<g id="a_node3"><a xlink:href="stdin_8hh.html" target="_top" xlink:title=" ">
<polygon fill="white" stroke="black" points="12.5,-280.5 12.5,-299.5 97.5,-299.5 97.5,-280.5 12.5,-280.5"/>
<text text-anchor="middle" x="55" y="-287.5" font-family="Helvetica,sans-Serif" font-size="10.00">include/stdin.hh</text>
</a>
</g>
</g>
<!-- Node2&#45;&gt;Node3 -->
<g id="edge2" class="edge">
<title>Node2&#45;&gt;Node3</title>
<path fill="none" stroke="midnightblue" d="M162.72,-336.44C141.65,-327.56 108.48,-313.56 84.51,-303.45"/>
<polygon fill="midnightblue" stroke="midnightblue" points="85.76,-300.18 75.19,-299.52 83.04,-306.63 85.76,-300.18"/>
</g>
<!-- Node6 -->
<g id="node6" class="node">
<title>Node6</title>
<g id="a_node6"><a xlink:href="stdout_8hh.html" target="_top" xlink:title=" ">
<polygon fill="white" stroke="black" points="137.5,-280.5 137.5,-299.5 228.5,-299.5 228.5,-280.5 137.5,-280.5"/>
<text text-anchor="middle" x="183" y="-287.5" font-family="Helvetica,sans-Serif" font-size="10.00">include/stdout.hh</text>
</a>
</g>
</g>
<!-- Node2&#45;&gt;Node6 -->
<g id="edge5" class="edge">
<title>Node2&#45;&gt;Node6</title>
<path fill="none" stroke="midnightblue" d="M183,-336.08C183,-329.01 183,-318.86 183,-309.99"/>
<polygon fill="midnightblue" stroke="midnightblue" points="186.5,-309.75 183,-299.75 179.5,-309.75 186.5,-309.75"/>
</g>
<!-- Node4 -->
<g id="node4" class="node">
<title>Node4</title>
<g id="a_node4"><a xlink:href="vargs_8hh.html" target="_top" xlink:title=" ">
<polygon fill="white" stroke="black" points="0,-224.5 0,-243.5 88,-243.5 88,-224.5 0,-224.5"/>
<text text-anchor="middle" x="44" y="-231.5" font-family="Helvetica,sans-Serif" font-size="10.00">include/vargs.hh</text>
</a>
</g>
</g>
<!-- Node3&#45;&gt;Node4 -->
<g id="edge3" class="edge">
<title>Node3&#45;&gt;Node4</title>
<path fill="none" stroke="midnightblue" d="M53.18,-280.08C51.73,-272.93 49.63,-262.64 47.81,-253.69"/>
<polygon fill="midnightblue" stroke="midnightblue" points="51.21,-252.85 45.78,-243.75 44.35,-254.25 51.21,-252.85"/>
</g>
<!-- Node5 -->
<g id="node5" class="node">
<title>Node5</title>
<g id="a_node5"><a xlink:title=" ">
<polygon fill="white" stroke="#bfbfbf" points="19.5,-168.5 19.5,-187.5 68.5,-187.5 68.5,-168.5 19.5,-168.5"/>
<text text-anchor="middle" x="44" y="-175.5" font-family="Helvetica,sans-Serif" font-size="10.00">cstdarg</text>
</a>
</g>
</g>
<!-- Node4&#45;&gt;Node5 -->
<g id="edge4" class="edge">
<title>Node4&#45;&gt;Node5</title>
<path fill="none" stroke="midnightblue" d="M44,-224.08C44,-217.01 44,-206.86 44,-197.99"/>
<polygon fill="midnightblue" stroke="midnightblue" points="47.5,-197.75 44,-187.75 40.5,-197.75 47.5,-197.75"/>
</g>
<!-- Node6&#45;&gt;Node4 -->
<g id="edge11" class="edge">
<title>Node6&#45;&gt;Node4</title>
<path fill="none" stroke="midnightblue" d="M160.98,-280.44C137.9,-271.48 101.44,-257.31 75.36,-247.18"/>
<polygon fill="midnightblue" stroke="midnightblue" points="76.51,-243.88 65.92,-243.52 73.98,-250.4 76.51,-243.88"/>
</g>
<!-- Node7 -->
<g id="node7" class="node">
<title>Node7</title>
<g id="a_node7"><a xlink:href="types_8h.html" target="_top" xlink:title=" ">
<polygon fill="white" stroke="black" points="370.5,-56.5 370.5,-75.5 453.5,-75.5 453.5,-56.5 370.5,-56.5"/>
<text text-anchor="middle" x="412" y="-63.5" font-family="Helvetica,sans-Serif" font-size="10.00">include/types.h</text>
</a>
</g>
</g>
<!-- Node6&#45;&gt;Node7 -->
<g id="edge6" class="edge">
<title>Node6&#45;&gt;Node7</title>
<path fill="none" stroke="midnightblue" d="M181.87,-280.15C178.75,-251.46 173.07,-160.07 220,-112 239.24,-92.29 310.15,-79.58 360.18,-72.85"/>
<polygon fill="midnightblue" stroke="midnightblue" points="360.73,-76.31 370.19,-71.55 359.83,-69.37 360.73,-76.31"/>
</g>
<!-- Node11 -->
<g id="node11" class="node">
<title>Node11</title>
<g id="a_node11"><a xlink:href="color_8h.html" target="_top" xlink:title=" ">
<polygon fill="white" stroke="black" points="222.5,-224.5 222.5,-243.5 301.5,-243.5 301.5,-224.5 222.5,-224.5"/>
<text text-anchor="middle" x="262" y="-231.5" font-family="Helvetica,sans-Serif" font-size="10.00">include/color.h</text>
</a>
</g>
</g>
<!-- Node6&#45;&gt;Node11 -->
<g id="edge12" class="edge">
<title>Node6&#45;&gt;Node11</title>
<path fill="none" stroke="midnightblue" d="M195.69,-280.32C207.9,-271.98 226.58,-259.21 241,-249.35"/>
<polygon fill="midnightblue" stroke="midnightblue" points="243.06,-252.19 249.34,-243.65 239.11,-246.41 243.06,-252.19"/>
</g>
<!-- Node12 -->
<g id="node12" class="node">
<title>Node12</title>
<g id="a_node12"><a xlink:title=" ">
<polygon fill="white" stroke="#bfbfbf" points="106.5,-224.5 106.5,-243.5 165.5,-243.5 165.5,-224.5 106.5,-224.5"/>
<text text-anchor="middle" x="136" y="-231.5" font-family="Helvetica,sans-Serif" font-size="10.00">functional</text>
</a>
</g>
</g>
<!-- Node6&#45;&gt;Node12 -->
<g id="edge13" class="edge">
<title>Node6&#45;&gt;Node12</title>
<path fill="none" stroke="midnightblue" d="M175.24,-280.08C168.46,-272.3 158.46,-260.8 150.24,-251.37"/>
<polygon fill="midnightblue" stroke="midnightblue" points="152.82,-249 143.62,-243.75 147.54,-253.59 152.82,-249"/>
</g>
<!-- Node8 -->
<g id="node8" class="node">
<title>Node8</title>
<g id="a_node8"><a xlink:title=" ">
<polygon fill="white" stroke="#bfbfbf" points="284,-0.5 284,-19.5 336,-19.5 336,-0.5 284,-0.5"/>
<text text-anchor="middle" x="310" y="-7.5" font-family="Helvetica,sans-Serif" font-size="10.00">stddef.h</text>
</a>
</g>
</g>
<!-- Node7&#45;&gt;Node8 -->
<g id="edge7" class="edge">
<title>Node7&#45;&gt;Node8</title>
<path fill="none" stroke="midnightblue" d="M395.61,-56.32C379.33,-47.7 354.13,-34.36 335.28,-24.39"/>
<polygon fill="midnightblue" stroke="midnightblue" points="336.82,-21.24 326.35,-19.65 333.55,-27.43 336.82,-21.24"/>
</g>
<!-- Node9 -->
<g id="node9" class="node">
<title>Node9</title>
<g id="a_node9"><a xlink:title=" ">
<polygon fill="white" stroke="#bfbfbf" points="354.5,-0.5 354.5,-19.5 403.5,-19.5 403.5,-0.5 354.5,-0.5"/>
<text text-anchor="middle" x="379" y="-7.5" font-family="Helvetica,sans-Serif" font-size="10.00">stdint.h</text>
</a>
</g>
</g>
<!-- Node7&#45;&gt;Node9 -->
<g id="edge8" class="edge">
<title>Node7&#45;&gt;Node9</title>
<path fill="none" stroke="midnightblue" d="M406.55,-56.08C401.99,-48.61 395.33,-37.72 389.71,-28.52"/>
<polygon fill="midnightblue" stroke="midnightblue" points="392.55,-26.46 384.35,-19.75 386.58,-30.11 392.55,-26.46"/>
</g>
<!-- Node10 -->
<g id="node10" class="node">
<title>Node10</title>
<g id="a_node10"><a xlink:href="ctype_8h.html" target="_top" xlink:title=" ">
<polygon fill="white" stroke="black" points="421.5,-0.5 421.5,-19.5 470.5,-19.5 470.5,-0.5 421.5,-0.5"/>
<text text-anchor="middle" x="446" y="-7.5" font-family="Helvetica,sans-Serif" font-size="10.00">ctype.h</text>
</a>
</g>
</g>
<!-- Node7&#45;&gt;Node10 -->
<g id="edge9" class="edge">
<title>Node7&#45;&gt;Node10</title>
<path fill="none" stroke="midnightblue" d="M412.45,-56.08C415.67,-48.38 422.44,-37.03 429.23,-27.65"/>
<polygon fill="midnightblue" stroke="midnightblue" points="431.99,-29.8 435.36,-19.75 426.46,-25.5 431.99,-29.8"/>
</g>
<!-- Node10&#45;&gt;Node7 -->
<g id="edge10" class="edge">
<title>Node10&#45;&gt;Node7</title>
<path fill="none" stroke="midnightblue" d="M445.62,-19.75C442.45,-27.4 435.7,-38.74 428.92,-48.14"/>
<polygon fill="midnightblue" stroke="midnightblue" points="426.13,-46.03 422.78,-56.08 431.67,-50.31 426.13,-46.03"/>
</g>
<!-- Node13&#45;&gt;Node7 -->
<g id="edge15" class="edge">
<title>Node13&#45;&gt;Node7</title>
<path fill="none" stroke="midnightblue" d="M438.35,-168.11C435.95,-155.54 431.22,-131.87 426,-112 423.66,-103.09 420.67,-93.3 418.05,-85.14"/>
<polygon fill="midnightblue" stroke="midnightblue" points="421.35,-83.98 414.91,-75.56 414.7,-86.15 421.35,-83.98"/>
</g>
<!-- Node14&#45;&gt;Node7 -->
<g id="edge17" class="edge">
<title>Node14&#45;&gt;Node7</title>
<path fill="none" stroke="midnightblue" d="M298.39,-112.44C320.71,-103.52 355.9,-89.44 381.21,-79.32"/>
<polygon fill="midnightblue" stroke="midnightblue" points="382.72,-82.48 390.71,-75.52 380.12,-75.98 382.72,-82.48"/>
</g>
<!-- Node17 -->
<g id="node17" class="node">
<title>Node17</title>
<g id="a_node17"><a xlink:href="knlast_8inc.html" target="_top" xlink:title=" ">
<polygon fill="white" stroke="black" points="779,-168.5 779,-187.5 867,-187.5 867,-168.5 779,-168.5"/>
<text text-anchor="middle" x="823" y="-175.5" font-family="Helvetica,sans-Serif" font-size="10.00">kernel/knlast.inc</text>
</a>
</g>
</g>
<!-- Node16&#45;&gt;Node17 -->
<g id="edge20" class="edge">
<title>Node16&#45;&gt;Node17</title>
<path fill="none" stroke="midnightblue" d="M519.52,-336.24C519.26,-322.51 520.79,-295.88 535,-280 567.49,-243.71 701.85,-207.45 775.01,-189.9"/>
<polygon fill="midnightblue" stroke="midnightblue" points="775.99,-193.26 784.91,-187.55 774.37,-186.45 775.99,-193.26"/>
</g>
<!-- Node18 -->
<g id="node18" class="node">
<title>Node18</title>
<g id="a_node18"><a xlink:title=" ">
<polygon fill="white" stroke="#bfbfbf" points="567,-280.5 567,-299.5 605,-299.5 605,-280.5 567,-280.5"/>
<text text-anchor="middle" x="586" y="-287.5" font-family="Helvetica,sans-Serif" font-size="10.00">tuple</text>
</a>
</g>
</g>
<!-- Node16&#45;&gt;Node18 -->
<g id="edge21" class="edge">
<title>Node16&#45;&gt;Node18</title>
<path fill="none" stroke="midnightblue" d="M530.6,-336.32C540.46,-328.26 555.35,-316.08 567.22,-306.37"/>
<polygon fill="midnightblue" stroke="midnightblue" points="569.68,-308.88 575.2,-299.83 565.25,-303.46 569.68,-308.88"/>
</g>
<!-- Node19 -->
<g id="node19" class="node">
<title>Node19</title>
<g id="a_node19"><a xlink:href="x86_8h.html" target="_top" xlink:title=" ">
<polygon fill="white" stroke="black" points="343,-112.5 343,-131.5 417,-131.5 417,-112.5 343,-112.5"/>
<text text-anchor="middle" x="380" y="-119.5" font-family="Helvetica,sans-Serif" font-size="10.00">include/x86.h</text>
</a>
</g>
</g>
<!-- Node16&#45;&gt;Node19 -->
<g id="edge22" class="edge">
<title>Node16&#45;&gt;Node19</title>
<path fill="none" stroke="midnightblue" d="M508.77,-336.23C481.95,-314.53 414.34,-255.16 387,-188 381.04,-173.37 379.49,-155.42 379.32,-142.1"/>
<polygon fill="midnightblue" stroke="midnightblue" points="382.83,-141.82 379.45,-131.78 375.83,-141.74 382.83,-141.82"/>
</g>
<!-- Node20 -->
<g id="node20" class="node">
<title>Node20</title>
<g id="a_node20"><a xlink:href="memlayout_8h.html" target="_top" xlink:title=" ">
<polygon fill="white" stroke="black" points="502.5,-168.5 502.5,-187.5 609.5,-187.5 609.5,-168.5 502.5,-168.5"/>
<text text-anchor="middle" x="556" y="-175.5" font-family="Helvetica,sans-Serif" font-size="10.00">include/memlayout.h</text>
</a>
</g>
</g>
<!-- Node16&#45;&gt;Node20 -->
<g id="edge24" class="edge">
<title>Node16&#45;&gt;Node20</title>
<path fill="none" stroke="midnightblue" d="M511.27,-336.24C503.42,-327.76 492.34,-314.14 487,-300 475.05,-268.33 465.41,-253.51 482,-224 490.22,-209.38 505.33,-198.95 519.76,-191.85"/>
<polygon fill="midnightblue" stroke="midnightblue" points="521.4,-194.95 529.07,-187.64 518.52,-188.57 521.4,-194.95"/>
</g>
<!-- Node22 -->
<g id="node22" class="node">
<title>Node22</title>
<g id="a_node22"><a xlink:href="result_8hh.html" target="_top" xlink:title=" ">
<polygon fill="white" stroke="black" points="623,-280.5 623,-299.5 711,-299.5 711,-280.5 623,-280.5"/>
<text text-anchor="middle" x="667" y="-287.5" font-family="Helvetica,sans-Serif" font-size="10.00">include/result.hh</text>
</a>
</g>
</g>
<!-- Node16&#45;&gt;Node22 -->
<g id="edge28" class="edge">
<title>Node16&#45;&gt;Node22</title>
<path fill="none" stroke="midnightblue" d="M543.29,-336.44C567.81,-327.44 606.6,-313.19 634.2,-303.05"/>
<polygon fill="midnightblue" stroke="midnightblue" points="635.64,-306.25 643.82,-299.52 633.22,-299.68 635.64,-306.25"/>
</g>
<!-- Node23 -->
<g id="node23" class="node">
<title>Node23</title>
<g id="a_node23"><a xlink:href="panic_8hh.html" target="_top" xlink:title=" ">
<polygon fill="white" stroke="black" points="781.5,-224.5 781.5,-243.5 864.5,-243.5 864.5,-224.5 781.5,-224.5"/>
<text text-anchor="middle" x="823" y="-231.5" font-family="Helvetica,sans-Serif" font-size="10.00">kernel/panic.hh</text>
</a>
</g>
</g>
<!-- Node16&#45;&gt;Node23 -->
<g id="edge29" class="edge">
<title>Node16&#45;&gt;Node23</title>
<path fill="none" stroke="midnightblue" d="M522.48,-336.18C527,-321.88 538,-293.83 558,-280 591.7,-256.7 703.86,-244.19 770.98,-238.63"/>
<polygon fill="midnightblue" stroke="midnightblue" points="771.66,-242.09 781.35,-237.8 771.1,-235.11 771.66,-242.09"/>
</g>
<!-- Node19&#45;&gt;Node7 -->
<g id="edge23" class="edge">
<title>Node19&#45;&gt;Node7</title>
<path fill="none" stroke="midnightblue" d="M385.28,-112.08C389.71,-104.61 396.16,-93.72 401.62,-84.52"/>
<polygon fill="midnightblue" stroke="midnightblue" points="404.73,-86.14 406.81,-75.75 398.71,-82.57 404.73,-86.14"/>
</g>
<!-- Node20&#45;&gt;Node7 -->
<g id="edge25" class="edge">
<title>Node20&#45;&gt;Node7</title>
<path fill="none" stroke="midnightblue" d="M544.7,-168.37C520.2,-149.65 461.94,-105.15 431.42,-81.83"/>
<polygon fill="midnightblue" stroke="midnightblue" points="433.32,-78.88 423.25,-75.59 429.07,-84.44 433.32,-78.88"/>
</g>
<!-- Node21 -->
<g id="node21" class="node">
<title>Node21</title>
<g id="a_node21"><a xlink:href="mmu_8h.html" target="_top" xlink:title=" ">
<polygon fill="white" stroke="black" points="516,-112.5 516,-131.5 596,-131.5 596,-112.5 516,-112.5"/>
<text text-anchor="middle" x="556" y="-119.5" font-family="Helvetica,sans-Serif" font-size="10.00">include/mmu.h</text>
</a>
</g>
</g>
<!-- Node20&#45;&gt;Node21 -->
<g id="edge26" class="edge">
<title>Node20&#45;&gt;Node21</title>
<path fill="none" stroke="midnightblue" d="M556,-168.08C556,-161.01 556,-150.86 556,-141.99"/>
<polygon fill="midnightblue" stroke="midnightblue" points="559.5,-141.75 556,-131.75 552.5,-141.75 559.5,-141.75"/>
</g>
<!-- Node21&#45;&gt;Node7 -->
<g id="edge27" class="edge">
<title>Node21&#45;&gt;Node7</title>
<path fill="none" stroke="midnightblue" d="M533.18,-112.44C509.17,-103.44 471.17,-89.19 444.13,-79.05"/>
<polygon fill="midnightblue" stroke="midnightblue" points="445.3,-75.75 434.71,-75.52 442.84,-82.3 445.3,-75.75"/>
</g>
<!-- Node23&#45;&gt;Node17 -->
<g id="edge30" class="edge">
<title>Node23&#45;&gt;Node17</title>
<path fill="none" stroke="midnightblue" d="M823,-224.08C823,-217.01 823,-206.86 823,-197.99"/>
<polygon fill="midnightblue" stroke="midnightblue" points="826.5,-197.75 823,-187.75 819.5,-197.75 826.5,-197.75"/>
</g>
<!-- Node24&#45;&gt;Node17 -->
<g id="edge32" class="edge">
<title>Node24&#45;&gt;Node17</title>
<path fill="none" stroke="midnightblue" d="M678.71,-336.47C689.99,-327.94 707.17,-314.11 720,-300 747.7,-269.53 745.74,-254.87 773,-224 782.45,-213.3 794.27,-202.56 804.04,-194.26"/>
<polygon fill="midnightblue" stroke="midnightblue" points="806.54,-196.74 812,-187.65 802.07,-191.35 806.54,-196.74"/>
</g>
<!-- Node24&#45;&gt;Node18 -->
<g id="edge33" class="edge">
<title>Node24&#45;&gt;Node18</title>
<path fill="none" stroke="midnightblue" d="M653.99,-336.32C641.47,-327.98 622.32,-315.21 607.53,-305.35"/>
<polygon fill="midnightblue" stroke="midnightblue" points="609.24,-302.29 598.98,-299.65 605.36,-308.11 609.24,-302.29"/>
</g>
<!-- Node24&#45;&gt;Node22 -->
<g id="edge35" class="edge">
<title>Node24&#45;&gt;Node22</title>
<path fill="none" stroke="midnightblue" d="M667,-336.08C667,-329.01 667,-318.86 667,-309.99"/>
<polygon fill="midnightblue" stroke="midnightblue" points="670.5,-309.75 667,-299.75 663.5,-309.75 670.5,-309.75"/>
</g>
<!-- Node25 -->
<g id="node25" class="node">
<title>Node25</title>
<g id="a_node25"><a xlink:href="include_2task_8hh.html" target="_top" xlink:title=" ">
<polygon fill="white" stroke="black" points="767.5,-280.5 767.5,-299.5 850.5,-299.5 850.5,-280.5 767.5,-280.5"/>
<text text-anchor="middle" x="809" y="-287.5" font-family="Helvetica,sans-Serif" font-size="10.00">include/task.hh</text>
</a>
</g>
</g>
<!-- Node24&#45;&gt;Node25 -->
<g id="edge34" class="edge">
<title>Node24&#45;&gt;Node25</title>
<path fill="none" stroke="midnightblue" d="M689.5,-336.44C713.08,-327.48 750.32,-313.31 776.96,-303.18"/>
<polygon fill="midnightblue" stroke="midnightblue" points="778.5,-306.34 786.6,-299.52 776.01,-299.8 778.5,-306.34"/>
</g>
<!-- Node26 -->
<g id="node26" class="node">
<title>Node26</title>
<g id="a_node26"><a xlink:href="kernel_2trap_8hh.html" target="_top" xlink:title=" ">
<polygon fill="white" stroke="black" points="869,-280.5 869,-299.5 945,-299.5 945,-280.5 869,-280.5"/>
<text text-anchor="middle" x="907" y="-287.5" font-family="Helvetica,sans-Serif" font-size="10.00">kernel/trap.hh</text>
</a>
</g>
</g>
<!-- Node24&#45;&gt;Node26 -->
<g id="edge36" class="edge">
<title>Node24&#45;&gt;Node26</title>
<path fill="none" stroke="midnightblue" d="M705.03,-336.44C746.81,-327.04 813.98,-311.93 859.27,-301.74"/>
<polygon fill="midnightblue" stroke="midnightblue" points="860.16,-305.13 869.15,-299.52 858.62,-298.3 860.16,-305.13"/>
</g>
<!-- Node26&#45;&gt;Node17 -->
<g id="edge41" class="edge">
<title>Node26&#45;&gt;Node17</title>
<path fill="none" stroke="midnightblue" d="M903.86,-280.41C898.83,-267.38 888.1,-242.21 874,-224 865.19,-212.62 853.21,-201.88 843.07,-193.74"/>
<polygon fill="midnightblue" stroke="midnightblue" points="845.15,-190.93 835.1,-187.57 840.87,-196.46 845.15,-190.93"/>
</g>
<!-- Node26&#45;&gt;Node23 -->
<g id="edge42" class="edge">
<title>Node26&#45;&gt;Node23</title>
<path fill="none" stroke="midnightblue" d="M893.5,-280.32C880.4,-271.9 860.29,-258.97 844.89,-249.07"/>
<polygon fill="midnightblue" stroke="midnightblue" points="846.77,-246.12 836.46,-243.65 842.98,-252.01 846.77,-246.12"/>
</g>
<!-- Node27 -->
<g id="node27" class="node">
<title>Node27</title>
<g id="a_node27"><a xlink:href="include_2trap_8hh.html" target="_top" xlink:title=" ">
<polygon fill="white" stroke="black" points="491,-224.5 491,-243.5 571,-243.5 571,-224.5 491,-224.5"/>
<text text-anchor="middle" x="531" y="-231.5" font-family="Helvetica,sans-Serif" font-size="10.00">include/trap.hh</text>
</a>
</g>
</g>
<!-- Node26&#45;&gt;Node27 -->
<g id="edge37" class="edge">
<title>Node26&#45;&gt;Node27</title>
<path fill="none" stroke="midnightblue" d="M868.81,-281.51C865.83,-280.98 862.87,-280.47 860,-280 761.65,-263.87 646.1,-249 581.43,-241.05"/>
<polygon fill="midnightblue" stroke="midnightblue" points="581.46,-237.53 571.11,-239.79 580.61,-244.48 581.46,-237.53"/>
</g>
<!-- Node27&#45;&gt;Node13 -->
<g id="edge38" class="edge">
<title>Node27&#45;&gt;Node13</title>
<path fill="none" stroke="midnightblue" d="M516.38,-224.32C502.05,-215.82 479.99,-202.73 463.25,-192.8"/>
<polygon fill="midnightblue" stroke="midnightblue" points="464.97,-189.75 454.58,-187.65 461.4,-195.77 464.97,-189.75"/>
</g>
<!-- Node27&#45;&gt;Node20 -->
<g id="edge40" class="edge">
<title>Node27&#45;&gt;Node20</title>
<path fill="none" stroke="midnightblue" d="M535.13,-224.08C538.51,-216.77 543.42,-206.18 547.62,-197.1"/>
<polygon fill="midnightblue" stroke="midnightblue" points="550.92,-198.3 551.95,-187.75 544.57,-195.36 550.92,-198.3"/>
</g>
<!-- Node27&#45;&gt;Node21 -->
<g id="edge39" class="edge">
<title>Node27&#45;&gt;Node21</title>
<path fill="none" stroke="midnightblue" d="M566.85,-224.4C585.88,-217.81 607.63,-206.59 619,-188 631.49,-167.59 606.84,-148.47 584.81,-136.32"/>
<polygon fill="midnightblue" stroke="midnightblue" points="586.13,-133.06 575.64,-131.56 582.9,-139.27 586.13,-133.06"/>
</g>
<!-- Node28&#45;&gt;Node17 -->
<g id="edge44" class="edge">
<title>Node28&#45;&gt;Node17</title>
<path fill="none" stroke="midnightblue" d="M815.88,-336.81C867.52,-327.14 945.4,-310.96 954,-300 989.39,-254.91 905.06,-211.75 855.68,-191.31"/>
<polygon fill="midnightblue" stroke="midnightblue" points="856.89,-188.03 846.31,-187.53 854.27,-194.52 856.89,-188.03"/>
</g>
<!-- Node28&#45;&gt;Node22 -->
<g id="edge46" class="edge">
<title>Node28&#45;&gt;Node22</title>
<path fill="none" stroke="midnightblue" d="M753.45,-336.32C737.01,-327.7 711.57,-314.36 692.53,-304.39"/>
<polygon fill="midnightblue" stroke="midnightblue" points="693.99,-301.2 683.51,-299.65 690.74,-307.4 693.99,-301.2"/>
</g>
<!-- Node28&#45;&gt;Node26 -->
<g id="edge45" class="edge">
<title>Node28&#45;&gt;Node26</title>
<path fill="none" stroke="midnightblue" d="M791.71,-336.44C814.35,-327.52 850.07,-313.44 875.75,-303.32"/>
<polygon fill="midnightblue" stroke="midnightblue" points="877.37,-306.44 885.39,-299.52 874.81,-299.93 877.37,-306.44"/>
</g>
</g>
</svg>
        <g id="navigator" transform="translate(0 0)" fill="#404254">
                <rect fill="#f2f5e9" fill-opacity="0.5" stroke="#606060" stroke-width=".5" x="0" y="0" width="60" height="60"/>
                <use id="zoomplus" xlink:href="#zoomPlus" x="17" y="9" onmousedown="handleZoom(evt,'in')"/>
                <use id="zoomminus" xlink:href="#zoomMin" x="42" y="9" onmousedown="handleZoom(evt,'out')"/>
                <use id="reset" xlink:href="#resetDef" x="30" y="36" onmousedown="handleReset()"/>
                <g id="arrowUp" xlink:href="#dirArrow" transform="translate(30 24)" onmousedown="handlePan(0,-1)">
                  <use xlink:href="#rim" fill="#404040">
                        <set attributeName="fill" to="#808080" begin="arrowUp.mouseover" end="arrowUp.mouseout"/>
                  </use>
                  <path fill="none" stroke="white" stroke-width="1.5" d="M0,-3.0v7 M-2.5,-0.5L0,-3.0L2.5,-0.5"/>
                </g>
                <g id="arrowRight" xlink:href="#dirArrow" transform="rotate(90) translate(36 -43)" onmousedown="handlePan(1,0)">
                  <use xlink:href="#rim" fill="#404040">
                        <set attributeName="fill" to="#808080" begin="arrowRight.mouseover" end="arrowRight.mouseout"/>
                  </use>
                  <path fill="none" stroke="white" stroke-width="1.5" d="M0,-3.0v7 M-2.5,-0.5L0,-3.0L2.5,-0.5"/>
                </g>
                <g id="arrowDown" xlink:href="#dirArrow" transform="rotate(180) translate(-30 -48)" onmousedown="handlePan(0,1)">
                  <use xlink:href="#rim" fill="#404040">
                        <set attributeName="fill" to="#808080" begin="arrowDown.mouseover" end="arrowDown.mouseout"/>
                  </use>
                  <path fill="none" stroke="white" stroke-width="1.5" d="M0,-3.0v7 M-2.5,-0.5L0,-3.0L2.5,-0.5"/>
                </g>
                <g id="arrowLeft" xlink:href="#dirArrow" transform="rotate(270) translate(-36 17)" onmousedown="handlePan(-1,0)">
                  <use xlink:href="#rim" fill="#404040">
                        <set attributeName="fill" to="#808080" begin="arrowLeft.mouseover" end="arrowLeft.mouseout"/>
                  </use>
                  <path fill="none" stroke="white" stroke-width="1.5" d="M0,-3.0v7 M-2.5,-0.5L0,-3.0L2.5,-0.5"/>
                </g>
        </g>
        <svg viewBox="0 0 15 15" width="100%" height="30px" preserveAspectRatio="xMaxYMin meet">
         <g id="arrow_out" transform="scale(0.3 0.3)">
          <a xlink:href="task_8cc__incl_org.svg" target="_base">
           <rect id="button" ry="5" rx="5" y="6" x="6" height="38" width="38"
                fill="#f2f5e9" fill-opacity="0.5" stroke="#606060" stroke-width="1.0"/>
           <path id="arrow"
             d="M 11.500037,31.436501 C 11.940474,20.09759 22.043105,11.32322 32.158766,21.979434 L 37.068811,17.246167 C 37.068811,17.246167 37.088388,32 37.088388,32 L 22.160133,31.978069 C 22.160133,31.978069 26.997745,27.140456 26.997745,27.140456 C 18.528582,18.264221 13.291696,25.230495 11.500037,31.436501 z"
             style="fill:#404040;"/>
          </a>
         </g>
        </svg>
</svg>
