<?xml version="1.0" encoding="UTF-8" standalone="no"?>
<!DOCTYPE svg PUBLIC "-//W3C//DTD SVG 1.1//EN"
 "http://www.w3.org/Graphics/SVG/1.1/DTD/svg11.dtd">
<!-- Generated by graphviz version 2.44.1 (20200629.0846)
 -->
<!-- Title: trap.cc Pages: 1 -->
<!--zoomable 420 -->
<svg id="main" version="1.1" xmlns="http://www.w3.org/2000/svg" xmlns:xlink="http://www.w3.org/1999/xlink" xml:space="preserve" onload="init(evt)">
<style type="text/css"><![CDATA[
.edge:hover path { stroke: red; }
.edge:hover polygon { stroke: red; fill: red; }
]]></style>
<script type="text/javascript"><![CDATA[
var edges = document.getElementsByTagName('g');
if (edges && edges.length) {
  for (var i=0;i<edges.length;i++) {
    if (edges[i].id.substr(0,4)=='edge') {
      edges[i].setAttribute('class','edge');
    }
  }
}
]]></script>
        <defs>
                <circle id="rim" cx="0" cy="0" r="7"/>
                <circle id="rim2" cx="0" cy="0" r="3.5"/>
                <g id="zoomPlus">
                        <use xlink:href="#rim" fill="#404040">
                                <set attributeName="fill" to="#808080" begin="zoomplus.mouseover" end="zoomplus.mouseout"/>
                        </use>
                        <path d="M-4,0h8M0,-4v8" fill="none" stroke="white" stroke-width="1.5" pointer-events="none"/>
                </g>
                <g id="zoomMin">
                        <use xlink:href="#rim" fill="#404040">
                                <set attributeName="fill" to="#808080" begin="zoomminus.mouseover" end="zoomminus.mouseout"/>
                        </use>
                        <path d="M-4,0h8" fill="none" stroke="white" stroke-width="1.5" pointer-events="none"/>
                </g>
                <g id="dirArrow">
                        <path fill="none" stroke="white" stroke-width="1.5" d="M0,-3.0v7 M-2.5,-0.5L0,-3.0L2.5,-0.5"/>
                </g>
               <g id="resetDef">
                       <use xlink:href="#rim2" fill="#404040">
                               <set attributeName="fill" to="#808080" begin="reset.mouseover" end="reset.mouseout"/>
                       </use>
               </g>
        </defs>

<script type="text/javascript">
var viewWidth = 849;
var viewHeight = 420;
var sectionId = 'dynsection-0';
</script>
<script xlink:href="svgpan.js"/>
<svg id="graph" class="graph">
<g id="viewport">
<title>trap.cc</title>
<polygon fill="white" stroke="transparent" points="-4,4 -4,-416 844.75,-416 844.75,4 -4,4"/>
<!-- Node1 -->
<g id="node1" class="node">
<title>Node1</title>
<g id="a_node1"><a xlink:title=" ">
<polygon fill="#bfbfbf" stroke="black" points="458.5,-392.5 458.5,-411.5 505.5,-411.5 505.5,-392.5 458.5,-392.5"/>
<text text-anchor="middle" x="482" y="-399.5" font-family="Helvetica,sans-Serif" font-size="10.00">trap.cc</text>
</a>
</g>
</g>
<!-- Node2 -->
<g id="node2" class="node">
<title>Node2</title>
<g id="a_node2"><a xlink:href="stdio_8hh.html" target="_top" xlink:title=" ">
<polygon fill="white" stroke="black" points="133.5,-336.5 133.5,-355.5 218.5,-355.5 218.5,-336.5 133.5,-336.5"/>
<text text-anchor="middle" x="176" y="-343.5" font-family="Helvetica,sans-Serif" font-size="10.00">include/stdio.hh</text>
</a>
</g>
</g>
<!-- Node1&#45;&gt;Node2 -->
<g id="edge1" class="edge">
<title>Node1&#45;&gt;Node2</title>
<path fill="none" stroke="midnightblue" d="M458.5,-396.85C409.58,-388.22 295.78,-368.14 228.49,-356.26"/>
<polygon fill="midnightblue" stroke="midnightblue" points="228.97,-352.79 218.51,-354.5 227.75,-359.69 228.97,-352.79"/>
</g>
<!-- Node13 -->
<g id="node13" class="node">
<title>Node13</title>
<g id="a_node13"><a xlink:href="x86_8h.html" target="_top" xlink:title=" ">
<polygon fill="white" stroke="black" points="232,-112.5 232,-131.5 306,-131.5 306,-112.5 232,-112.5"/>
<text text-anchor="middle" x="269" y="-119.5" font-family="Helvetica,sans-Serif" font-size="10.00">include/x86.h</text>
</a>
</g>
</g>
<!-- Node1&#45;&gt;Node13 -->
<g id="edge14" class="edge">
<title>Node1&#45;&gt;Node13</title>
<path fill="none" stroke="midnightblue" d="M458.43,-395.68C415.51,-384.44 329,-353.98 329,-291 329,-291 329,-291 329,-233 329,-195.88 302.35,-159.38 284.57,-139.16"/>
<polygon fill="midnightblue" stroke="midnightblue" points="286.93,-136.55 277.6,-131.53 281.76,-141.28 286.93,-136.55"/>
</g>
<!-- Node14 -->
<g id="node14" class="node">
<title>Node14</title>
<g id="a_node14"><a xlink:href="kernel_2trap_8hh.html" target="_top" xlink:title=" ">
<polygon fill="white" stroke="black" points="411,-280.5 411,-299.5 487,-299.5 487,-280.5 411,-280.5"/>
<text text-anchor="middle" x="449" y="-287.5" font-family="Helvetica,sans-Serif" font-size="10.00">kernel/trap.hh</text>
</a>
</g>
</g>
<!-- Node1&#45;&gt;Node14 -->
<g id="edge16" class="edge">
<title>Node1&#45;&gt;Node14</title>
<path fill="none" stroke="midnightblue" d="M478,-392.18C474.05,-383.21 468.03,-368.85 464,-356 459.18,-340.61 455.17,-322.74 452.51,-309.63"/>
<polygon fill="midnightblue" stroke="midnightblue" points="455.88,-308.67 450.53,-299.53 449.01,-310.01 455.88,-308.67"/>
</g>
<!-- Node21 -->
<g id="node21" class="node">
<title>Node21</title>
<g id="a_node21"><a xlink:href="monitor_8hh.html" target="_top" xlink:title=" ">
<polygon fill="white" stroke="black" points="473.5,-336.5 473.5,-355.5 564.5,-355.5 564.5,-336.5 473.5,-336.5"/>
<text text-anchor="middle" x="519" y="-343.5" font-family="Helvetica,sans-Serif" font-size="10.00">kernel/monitor.hh</text>
</a>
</g>
</g>
<!-- Node1&#45;&gt;Node21 -->
<g id="edge28" class="edge">
<title>Node1&#45;&gt;Node21</title>
<path fill="none" stroke="midnightblue" d="M488.11,-392.08C493.28,-384.53 500.85,-373.49 507.19,-364.23"/>
<polygon fill="midnightblue" stroke="midnightblue" points="510.24,-365.98 513,-355.75 504.46,-362.02 510.24,-365.98"/>
</g>
<!-- Node23 -->
<g id="node23" class="node">
<title>Node23</title>
<g id="a_node23"><a xlink:href="kernel_2task_8hh.html" target="_top" xlink:title=" ">
<polygon fill="white" stroke="black" points="603,-336.5 603,-355.5 681,-355.5 681,-336.5 603,-336.5"/>
<text text-anchor="middle" x="642" y="-343.5" font-family="Helvetica,sans-Serif" font-size="10.00">kernel/task.hh</text>
</a>
</g>
</g>
<!-- Node1&#45;&gt;Node23 -->
<g id="edge32" class="edge">
<title>Node1&#45;&gt;Node23</title>
<path fill="none" stroke="midnightblue" d="M505.61,-393.03C532.43,-383.98 576.47,-369.12 607.23,-358.74"/>
<polygon fill="midnightblue" stroke="midnightblue" points="608.35,-362.05 616.71,-355.54 606.11,-355.42 608.35,-362.05"/>
</g>
<!-- Node26 -->
<g id="node26" class="node">
<title>Node26</title>
<g id="a_node26"><a xlink:href="ksyscall_8hh.html" target="_top" xlink:title=" ">
<polygon fill="white" stroke="black" points="687.5,-224.5 687.5,-243.5 782.5,-243.5 782.5,-224.5 687.5,-224.5"/>
<text text-anchor="middle" x="735" y="-231.5" font-family="Helvetica,sans-Serif" font-size="10.00">kernel/ksyscall.hh</text>
</a>
</g>
</g>
<!-- Node1&#45;&gt;Node26 -->
<g id="edge38" class="edge">
<title>Node1&#45;&gt;Node26</title>
<path fill="none" stroke="midnightblue" d="M505.6,-398.12C578.5,-388.69 797.49,-356.02 836,-300 853.47,-274.59 817.04,-256.84 783.16,-246.39"/>
<polygon fill="midnightblue" stroke="midnightblue" points="783.84,-242.94 773.26,-243.5 781.88,-249.66 783.84,-242.94"/>
</g>
<!-- Node3 -->
<g id="node3" class="node">
<title>Node3</title>
<g id="a_node3"><a xlink:href="stdin_8hh.html" target="_top" xlink:title=" ">
<polygon fill="white" stroke="black" points="10.5,-280.5 10.5,-299.5 95.5,-299.5 95.5,-280.5 10.5,-280.5"/>
<text text-anchor="middle" x="53" y="-287.5" font-family="Helvetica,sans-Serif" font-size="10.00">include/stdin.hh</text>
</a>
</g>
</g>
<!-- Node2&#45;&gt;Node3 -->
<g id="edge2" class="edge">
<title>Node2&#45;&gt;Node3</title>
<path fill="none" stroke="midnightblue" d="M156.51,-336.44C136.36,-327.6 104.68,-313.69 81.67,-303.59"/>
<polygon fill="midnightblue" stroke="midnightblue" points="82.96,-300.33 72.4,-299.52 80.15,-306.74 82.96,-300.33"/>
</g>
<!-- Node6 -->
<g id="node6" class="node">
<title>Node6</title>
<g id="a_node6"><a xlink:href="stdout_8hh.html" target="_top" xlink:title=" ">
<polygon fill="white" stroke="black" points="130.5,-280.5 130.5,-299.5 221.5,-299.5 221.5,-280.5 130.5,-280.5"/>
<text text-anchor="middle" x="176" y="-287.5" font-family="Helvetica,sans-Serif" font-size="10.00">include/stdout.hh</text>
</a>
</g>
</g>
<!-- Node2&#45;&gt;Node6 -->
<g id="edge5" class="edge">
<title>Node2&#45;&gt;Node6</title>
<path fill="none" stroke="midnightblue" d="M176,-336.08C176,-329.01 176,-318.86 176,-309.99"/>
<polygon fill="midnightblue" stroke="midnightblue" points="179.5,-309.75 176,-299.75 172.5,-309.75 179.5,-309.75"/>
</g>
<!-- Node4 -->
<g id="node4" class="node">
<title>Node4</title>
<g id="a_node4"><a xlink:href="vargs_8hh.html" target="_top" xlink:title=" ">
<polygon fill="white" stroke="black" points="0,-224.5 0,-243.5 88,-243.5 88,-224.5 0,-224.5"/>
<text text-anchor="middle" x="44" y="-231.5" font-family="Helvetica,sans-Serif" font-size="10.00">include/vargs.hh</text>
</a>
</g>
</g>
<!-- Node3&#45;&gt;Node4 -->
<g id="edge3" class="edge">
<title>Node3&#45;&gt;Node4</title>
<path fill="none" stroke="midnightblue" d="M51.51,-280.08C50.32,-272.93 48.61,-262.64 47.12,-253.69"/>
<polygon fill="midnightblue" stroke="midnightblue" points="50.55,-253.04 45.46,-243.75 43.65,-254.19 50.55,-253.04"/>
</g>
<!-- Node5 -->
<g id="node5" class="node">
<title>Node5</title>
<g id="a_node5"><a xlink:title=" ">
<polygon fill="white" stroke="#bfbfbf" points="19.5,-168.5 19.5,-187.5 68.5,-187.5 68.5,-168.5 19.5,-168.5"/>
<text text-anchor="middle" x="44" y="-175.5" font-family="Helvetica,sans-Serif" font-size="10.00">cstdarg</text>
</a>
</g>
</g>
<!-- Node4&#45;&gt;Node5 -->
<g id="edge4" class="edge">
<title>Node4&#45;&gt;Node5</title>
<path fill="none" stroke="midnightblue" d="M44,-224.08C44,-217.01 44,-206.86 44,-197.99"/>
<polygon fill="midnightblue" stroke="midnightblue" points="47.5,-197.75 44,-187.75 40.5,-197.75 47.5,-197.75"/>
</g>
<!-- Node6&#45;&gt;Node4 -->
<g id="edge11" class="edge">
<title>Node6&#45;&gt;Node4</title>
<path fill="none" stroke="midnightblue" d="M155.08,-280.44C133.26,-271.52 98.85,-257.44 74.11,-247.32"/>
<polygon fill="midnightblue" stroke="midnightblue" points="75.4,-244.06 64.82,-243.52 72.75,-250.54 75.4,-244.06"/>
</g>
<!-- Node7 -->
<g id="node7" class="node">
<title>Node7</title>
<g id="a_node7"><a xlink:href="types_8h.html" target="_top" xlink:title=" ">
<polygon fill="white" stroke="black" points="377.5,-56.5 377.5,-75.5 460.5,-75.5 460.5,-56.5 377.5,-56.5"/>
<text text-anchor="middle" x="419" y="-63.5" font-family="Helvetica,sans-Serif" font-size="10.00">include/types.h</text>
</a>
</g>
</g>
<!-- Node6&#45;&gt;Node7 -->
<g id="edge6" class="edge">
<title>Node6&#45;&gt;Node7</title>
<path fill="none" stroke="midnightblue" d="M164.46,-280.49C154.52,-272.38 140.88,-259.18 135,-244 131.79,-235.71 132.09,-232.4 135,-224 155.69,-164.17 169.54,-145.91 223,-112 266.71,-84.27 325.54,-73.57 367.31,-69.47"/>
<polygon fill="midnightblue" stroke="midnightblue" points="367.63,-72.95 377.28,-68.58 367.01,-65.98 367.63,-72.95"/>
</g>
<!-- Node11 -->
<g id="node11" class="node">
<title>Node11</title>
<g id="a_node11"><a xlink:href="color_8h.html" target="_top" xlink:title=" ">
<polygon fill="white" stroke="black" points="144.5,-224.5 144.5,-243.5 223.5,-243.5 223.5,-224.5 144.5,-224.5"/>
<text text-anchor="middle" x="184" y="-231.5" font-family="Helvetica,sans-Serif" font-size="10.00">include/color.h</text>
</a>
</g>
</g>
<!-- Node6&#45;&gt;Node11 -->
<g id="edge12" class="edge">
<title>Node6&#45;&gt;Node11</title>
<path fill="none" stroke="midnightblue" d="M177.32,-280.08C178.38,-272.93 179.91,-262.64 181.23,-253.69"/>
<polygon fill="midnightblue" stroke="midnightblue" points="184.7,-254.16 182.7,-243.75 177.78,-253.13 184.7,-254.16"/>
</g>
<!-- Node12 -->
<g id="node12" class="node">
<title>Node12</title>
<g id="a_node12"><a xlink:title=" ">
<polygon fill="white" stroke="#bfbfbf" points="241.5,-224.5 241.5,-243.5 300.5,-243.5 300.5,-224.5 241.5,-224.5"/>
<text text-anchor="middle" x="271" y="-231.5" font-family="Helvetica,sans-Serif" font-size="10.00">functional</text>
</a>
</g>
</g>
<!-- Node6&#45;&gt;Node12 -->
<g id="edge13" class="edge">
<title>Node6&#45;&gt;Node12</title>
<path fill="none" stroke="midnightblue" d="M191.26,-280.32C206.22,-271.82 229.25,-258.73 246.73,-248.8"/>
<polygon fill="midnightblue" stroke="midnightblue" points="248.81,-251.64 255.77,-243.65 245.35,-245.55 248.81,-251.64"/>
</g>
<!-- Node8 -->
<g id="node8" class="node">
<title>Node8</title>
<g id="a_node8"><a xlink:title=" ">
<polygon fill="white" stroke="#bfbfbf" points="291,-0.5 291,-19.5 343,-19.5 343,-0.5 291,-0.5"/>
<text text-anchor="middle" x="317" y="-7.5" font-family="Helvetica,sans-Serif" font-size="10.00">stddef.h</text>
</a>
</g>
</g>
<!-- Node7&#45;&gt;Node8 -->
<g id="edge7" class="edge">
<title>Node7&#45;&gt;Node8</title>
<path fill="none" stroke="midnightblue" d="M402.61,-56.32C386.33,-47.7 361.13,-34.36 342.28,-24.39"/>
<polygon fill="midnightblue" stroke="midnightblue" points="343.82,-21.24 333.35,-19.65 340.55,-27.43 343.82,-21.24"/>
</g>
<!-- Node9 -->
<g id="node9" class="node">
<title>Node9</title>
<g id="a_node9"><a xlink:title=" ">
<polygon fill="white" stroke="#bfbfbf" points="361.5,-0.5 361.5,-19.5 410.5,-19.5 410.5,-0.5 361.5,-0.5"/>
<text text-anchor="middle" x="386" y="-7.5" font-family="Helvetica,sans-Serif" font-size="10.00">stdint.h</text>
</a>
</g>
</g>
<!-- Node7&#45;&gt;Node9 -->
<g id="edge8" class="edge">
<title>Node7&#45;&gt;Node9</title>
<path fill="none" stroke="midnightblue" d="M413.55,-56.08C408.99,-48.61 402.33,-37.72 396.71,-28.52"/>
<polygon fill="midnightblue" stroke="midnightblue" points="399.55,-26.46 391.35,-19.75 393.58,-30.11 399.55,-26.46"/>
</g>
<!-- Node10 -->
<g id="node10" class="node">
<title>Node10</title>
<g id="a_node10"><a xlink:href="ctype_8h.html" target="_top" xlink:title=" ">
<polygon fill="white" stroke="black" points="428.5,-0.5 428.5,-19.5 477.5,-19.5 477.5,-0.5 428.5,-0.5"/>
<text text-anchor="middle" x="453" y="-7.5" font-family="Helvetica,sans-Serif" font-size="10.00">ctype.h</text>
</a>
</g>
</g>
<!-- Node7&#45;&gt;Node10 -->
<g id="edge9" class="edge">
<title>Node7&#45;&gt;Node10</title>
<path fill="none" stroke="midnightblue" d="M419.45,-56.08C422.67,-48.38 429.44,-37.03 436.23,-27.65"/>
<polygon fill="midnightblue" stroke="midnightblue" points="438.99,-29.8 442.36,-19.75 433.46,-25.5 438.99,-29.8"/>
</g>
<!-- Node10&#45;&gt;Node7 -->
<g id="edge10" class="edge">
<title>Node10&#45;&gt;Node7</title>
<path fill="none" stroke="midnightblue" d="M452.62,-19.75C449.45,-27.4 442.7,-38.74 435.92,-48.14"/>
<polygon fill="midnightblue" stroke="midnightblue" points="433.13,-46.03 429.78,-56.08 438.67,-50.31 433.13,-46.03"/>
</g>
<!-- Node13&#45;&gt;Node7 -->
<g id="edge15" class="edge">
<title>Node13&#45;&gt;Node7</title>
<path fill="none" stroke="midnightblue" d="M292.77,-112.44C317.89,-103.4 357.71,-89.06 385.9,-78.92"/>
<polygon fill="midnightblue" stroke="midnightblue" points="387.12,-82.2 395.34,-75.52 384.75,-75.61 387.12,-82.2"/>
</g>
<!-- Node15 -->
<g id="node15" class="node">
<title>Node15</title>
<g id="a_node15"><a xlink:href="include_2trap_8hh.html" target="_top" xlink:title=" ">
<polygon fill="white" stroke="black" points="357,-224.5 357,-243.5 437,-243.5 437,-224.5 357,-224.5"/>
<text text-anchor="middle" x="397" y="-231.5" font-family="Helvetica,sans-Serif" font-size="10.00">include/trap.hh</text>
</a>
</g>
</g>
<!-- Node14&#45;&gt;Node15 -->
<g id="edge17" class="edge">
<title>Node14&#45;&gt;Node15</title>
<path fill="none" stroke="midnightblue" d="M440.41,-280.08C432.84,-272.22 421.62,-260.57 412.49,-251.08"/>
<polygon fill="midnightblue" stroke="midnightblue" points="414.88,-248.53 405.43,-243.75 409.84,-253.38 414.88,-248.53"/>
</g>
<!-- Node19 -->
<g id="node19" class="node">
<title>Node19</title>
<g id="a_node19"><a xlink:href="knlast_8inc.html" target="_top" xlink:title=" ">
<polygon fill="white" stroke="black" points="561,-168.5 561,-187.5 649,-187.5 649,-168.5 561,-168.5"/>
<text text-anchor="middle" x="605" y="-175.5" font-family="Helvetica,sans-Serif" font-size="10.00">kernel/knlast.inc</text>
</a>
</g>
</g>
<!-- Node14&#45;&gt;Node19 -->
<g id="edge25" class="edge">
<title>Node14&#45;&gt;Node19</title>
<path fill="none" stroke="midnightblue" d="M451.53,-280.14C455.92,-266.29 466.22,-239.49 484,-224 502.85,-207.59 528.23,-196.94 550.88,-190.14"/>
<polygon fill="midnightblue" stroke="midnightblue" points="552.05,-193.45 560.73,-187.37 550.15,-186.71 552.05,-193.45"/>
</g>
<!-- Node20 -->
<g id="node20" class="node">
<title>Node20</title>
<g id="a_node20"><a xlink:href="panic_8hh.html" target="_top" xlink:title=" ">
<polygon fill="white" stroke="black" points="493.5,-224.5 493.5,-243.5 576.5,-243.5 576.5,-224.5 493.5,-224.5"/>
<text text-anchor="middle" x="535" y="-231.5" font-family="Helvetica,sans-Serif" font-size="10.00">kernel/panic.hh</text>
</a>
</g>
</g>
<!-- Node14&#45;&gt;Node20 -->
<g id="edge26" class="edge">
<title>Node14&#45;&gt;Node20</title>
<path fill="none" stroke="midnightblue" d="M462.82,-280.32C476.23,-271.9 496.82,-258.97 512.59,-249.07"/>
<polygon fill="midnightblue" stroke="midnightblue" points="514.61,-251.94 521.22,-243.65 510.89,-246.01 514.61,-251.94"/>
</g>
<!-- Node16 -->
<g id="node16" class="node">
<title>Node16</title>
<g id="a_node16"><a xlink:href="string_8hh.html" target="_top" xlink:title=" ">
<polygon fill="white" stroke="black" points="324,-112.5 324,-131.5 412,-131.5 412,-112.5 324,-112.5"/>
<text text-anchor="middle" x="368" y="-119.5" font-family="Helvetica,sans-Serif" font-size="10.00">include/string.hh</text>
</a>
</g>
</g>
<!-- Node15&#45;&gt;Node16 -->
<g id="edge18" class="edge">
<title>Node15&#45;&gt;Node16</title>
<path fill="none" stroke="midnightblue" d="M394.72,-224.37C390.02,-206.54 379.15,-165.3 372.82,-141.27"/>
<polygon fill="midnightblue" stroke="midnightblue" points="376.2,-140.37 370.27,-131.59 369.43,-142.15 376.2,-140.37"/>
</g>
<!-- Node17 -->
<g id="node17" class="node">
<title>Node17</title>
<g id="a_node17"><a xlink:href="mmu_8h.html" target="_top" xlink:title=" ">
<polygon fill="white" stroke="black" points="430,-112.5 430,-131.5 510,-131.5 510,-112.5 430,-112.5"/>
<text text-anchor="middle" x="470" y="-119.5" font-family="Helvetica,sans-Serif" font-size="10.00">include/mmu.h</text>
</a>
</g>
</g>
<!-- Node15&#45;&gt;Node17 -->
<g id="edge20" class="edge">
<title>Node15&#45;&gt;Node17</title>
<path fill="none" stroke="midnightblue" d="M399.52,-224.49C403.59,-211.55 412.45,-186.51 425,-168 432.41,-157.08 442.7,-146.55 451.57,-138.43"/>
<polygon fill="midnightblue" stroke="midnightblue" points="454.01,-140.95 459.19,-131.71 449.38,-135.7 454.01,-140.95"/>
</g>
<!-- Node18 -->
<g id="node18" class="node">
<title>Node18</title>
<g id="a_node18"><a xlink:href="memlayout_8h.html" target="_top" xlink:title=" ">
<polygon fill="white" stroke="black" points="434.5,-168.5 434.5,-187.5 541.5,-187.5 541.5,-168.5 434.5,-168.5"/>
<text text-anchor="middle" x="488" y="-175.5" font-family="Helvetica,sans-Serif" font-size="10.00">include/memlayout.h</text>
</a>
</g>
</g>
<!-- Node15&#45;&gt;Node18 -->
<g id="edge22" class="edge">
<title>Node15&#45;&gt;Node18</title>
<path fill="none" stroke="midnightblue" d="M411.62,-224.32C425.95,-215.82 448.01,-202.73 464.75,-192.8"/>
<polygon fill="midnightblue" stroke="midnightblue" points="466.6,-195.77 473.42,-187.65 463.03,-189.75 466.6,-195.77"/>
</g>
<!-- Node16&#45;&gt;Node7 -->
<g id="edge19" class="edge">
<title>Node16&#45;&gt;Node7</title>
<path fill="none" stroke="midnightblue" d="M376.42,-112.08C383.85,-104.22 394.85,-92.57 403.81,-83.08"/>
<polygon fill="midnightblue" stroke="midnightblue" points="406.41,-85.42 410.74,-75.75 401.32,-80.62 406.41,-85.42"/>
</g>
<!-- Node17&#45;&gt;Node7 -->
<g id="edge21" class="edge">
<title>Node17&#45;&gt;Node7</title>
<path fill="none" stroke="midnightblue" d="M461.58,-112.08C454.15,-104.22 443.15,-92.57 434.19,-83.08"/>
<polygon fill="midnightblue" stroke="midnightblue" points="436.68,-80.62 427.26,-75.75 431.59,-85.42 436.68,-80.62"/>
</g>
<!-- Node18&#45;&gt;Node7 -->
<g id="edge23" class="edge">
<title>Node18&#45;&gt;Node7</title>
<path fill="none" stroke="midnightblue" d="M497.81,-168.21C510.93,-155.36 531.22,-130.9 519,-112 508,-94.98 488.85,-84.34 470.24,-77.71"/>
<polygon fill="midnightblue" stroke="midnightblue" points="471.2,-74.34 460.61,-74.59 469.05,-81 471.2,-74.34"/>
</g>
<!-- Node18&#45;&gt;Node17 -->
<g id="edge24" class="edge">
<title>Node18&#45;&gt;Node17</title>
<path fill="none" stroke="midnightblue" d="M485.03,-168.08C482.62,-160.85 479.14,-150.41 476.13,-141.4"/>
<polygon fill="midnightblue" stroke="midnightblue" points="479.4,-140.13 472.92,-131.75 472.76,-142.34 479.4,-140.13"/>
</g>
<!-- Node20&#45;&gt;Node19 -->
<g id="edge27" class="edge">
<title>Node20&#45;&gt;Node19</title>
<path fill="none" stroke="midnightblue" d="M546.25,-224.32C556.8,-216.18 572.8,-203.84 585.44,-194.09"/>
<polygon fill="midnightblue" stroke="midnightblue" points="587.77,-196.71 593.55,-187.83 583.49,-191.17 587.77,-196.71"/>
</g>
<!-- Node21&#45;&gt;Node14 -->
<g id="edge30" class="edge">
<title>Node21&#45;&gt;Node14</title>
<path fill="none" stroke="midnightblue" d="M507.75,-336.32C497.2,-328.18 481.2,-315.84 468.56,-306.09"/>
<polygon fill="midnightblue" stroke="midnightblue" points="470.51,-303.17 460.45,-299.83 466.23,-308.71 470.51,-303.17"/>
</g>
<!-- Node21&#45;&gt;Node19 -->
<g id="edge29" class="edge">
<title>Node21&#45;&gt;Node19</title>
<path fill="none" stroke="midnightblue" d="M519.09,-336.23C519.62,-322.97 522.25,-297.5 534,-280 549.47,-256.97 568.71,-266.46 585,-244 594.85,-230.41 599.93,-211.86 602.5,-198.06"/>
<polygon fill="midnightblue" stroke="midnightblue" points="606.02,-198.22 604.11,-187.79 599.1,-197.13 606.02,-198.22"/>
</g>
<!-- Node22 -->
<g id="node22" class="node">
<title>Node22</title>
<g id="a_node22"><a xlink:href="result_8hh.html" target="_top" xlink:title=" ">
<polygon fill="white" stroke="black" points="543,-280.5 543,-299.5 631,-299.5 631,-280.5 543,-280.5"/>
<text text-anchor="middle" x="587" y="-287.5" font-family="Helvetica,sans-Serif" font-size="10.00">include/result.hh</text>
</a>
</g>
</g>
<!-- Node21&#45;&gt;Node22 -->
<g id="edge31" class="edge">
<title>Node21&#45;&gt;Node22</title>
<path fill="none" stroke="midnightblue" d="M529.93,-336.32C540.17,-328.18 555.72,-315.84 568,-306.09"/>
<polygon fill="midnightblue" stroke="midnightblue" points="570.22,-308.79 575.88,-299.83 565.87,-303.31 570.22,-308.79"/>
</g>
<!-- Node23&#45;&gt;Node14 -->
<g id="edge37" class="edge">
<title>Node23&#45;&gt;Node14</title>
<path fill="none" stroke="midnightblue" d="M611.42,-336.44C578.39,-327.2 525.61,-312.44 489.23,-302.26"/>
<polygon fill="midnightblue" stroke="midnightblue" points="490.01,-298.84 479.44,-299.52 488.13,-305.58 490.01,-298.84"/>
</g>
<!-- Node23&#45;&gt;Node19 -->
<g id="edge33" class="edge">
<title>Node23&#45;&gt;Node19</title>
<path fill="none" stroke="midnightblue" d="M642.55,-336.5C643.17,-324 643.68,-299.99 640,-280 634.47,-249.99 621.6,-216.86 613.11,-197"/>
<polygon fill="midnightblue" stroke="midnightblue" points="616.24,-195.43 609.02,-187.67 609.83,-198.24 616.24,-195.43"/>
</g>
<!-- Node23&#45;&gt;Node22 -->
<g id="edge36" class="edge">
<title>Node23&#45;&gt;Node22</title>
<path fill="none" stroke="midnightblue" d="M632.92,-336.08C624.83,-328.14 612.8,-316.34 603.09,-306.8"/>
<polygon fill="midnightblue" stroke="midnightblue" points="605.5,-304.26 595.91,-299.75 600.6,-309.25 605.5,-304.26"/>
</g>
<!-- Node24 -->
<g id="node24" class="node">
<title>Node24</title>
<g id="a_node24"><a xlink:title=" ">
<polygon fill="white" stroke="#bfbfbf" points="687,-280.5 687,-299.5 725,-299.5 725,-280.5 687,-280.5"/>
<text text-anchor="middle" x="706" y="-287.5" font-family="Helvetica,sans-Serif" font-size="10.00">tuple</text>
</a>
</g>
</g>
<!-- Node23&#45;&gt;Node24 -->
<g id="edge34" class="edge">
<title>Node23&#45;&gt;Node24</title>
<path fill="none" stroke="midnightblue" d="M652.28,-336.32C661.84,-328.26 676.28,-316.08 687.78,-306.37"/>
<polygon fill="midnightblue" stroke="midnightblue" points="690.14,-308.96 695.53,-299.83 685.63,-303.61 690.14,-308.96"/>
</g>
<!-- Node25 -->
<g id="node25" class="node">
<title>Node25</title>
<g id="a_node25"><a xlink:href="include_2task_8hh.html" target="_top" xlink:title=" ">
<polygon fill="white" stroke="black" points="743.5,-280.5 743.5,-299.5 826.5,-299.5 826.5,-280.5 743.5,-280.5"/>
<text text-anchor="middle" x="785" y="-287.5" font-family="Helvetica,sans-Serif" font-size="10.00">include/task.hh</text>
</a>
</g>
</g>
<!-- Node23&#45;&gt;Node25 -->
<g id="edge35" class="edge">
<title>Node23&#45;&gt;Node25</title>
<path fill="none" stroke="midnightblue" d="M664.66,-336.44C688.4,-327.48 725.91,-313.31 752.74,-303.18"/>
<polygon fill="midnightblue" stroke="midnightblue" points="754.33,-306.32 762.45,-299.52 751.86,-299.77 754.33,-306.32"/>
</g>
<!-- Node26&#45;&gt;Node19 -->
<g id="edge39" class="edge">
<title>Node26&#45;&gt;Node19</title>
<path fill="none" stroke="midnightblue" d="M714.4,-224.44C693.01,-215.56 659.32,-201.56 634.98,-191.45"/>
<polygon fill="midnightblue" stroke="midnightblue" points="636.08,-188.12 625.5,-187.52 633.39,-194.58 636.08,-188.12"/>
</g>
<!-- Node27 -->
<g id="node27" class="node">
<title>Node27</title>
<g id="a_node27"><a xlink:href="syscall_8hh.html" target="_top" xlink:title=" ">
<polygon fill="white" stroke="black" points="608.5,-112.5 608.5,-131.5 703.5,-131.5 703.5,-112.5 608.5,-112.5"/>
<text text-anchor="middle" x="656" y="-119.5" font-family="Helvetica,sans-Serif" font-size="10.00">include/syscall.hh</text>
</a>
</g>
</g>
<!-- Node26&#45;&gt;Node27 -->
<g id="edge40" class="edge">
<title>Node26&#45;&gt;Node27</title>
<path fill="none" stroke="midnightblue" d="M728.8,-224.37C715.76,-206.22 685.3,-163.8 668.2,-139.99"/>
<polygon fill="midnightblue" stroke="midnightblue" points="670.85,-137.67 662.17,-131.59 665.16,-141.76 670.85,-137.67"/>
</g>
<!-- Node27&#45;&gt;Node7 -->
<g id="edge41" class="edge">
<title>Node27&#45;&gt;Node7</title>
<path fill="none" stroke="midnightblue" d="M618.45,-112.44C577.19,-103.04 510.86,-87.93 466.13,-77.74"/>
<polygon fill="midnightblue" stroke="midnightblue" points="466.91,-74.33 456.38,-75.52 465.35,-81.15 466.91,-74.33"/>
</g>
</g>
</svg>
        <g id="navigator" transform="translate(0 0)" fill="#404254">
                <rect fill="#f2f5e9" fill-opacity="0.5" stroke="#606060" stroke-width=".5" x="0" y="0" width="60" height="60"/>
                <use id="zoomplus" xlink:href="#zoomPlus" x="17" y="9" onmousedown="handleZoom(evt,'in')"/>
                <use id="zoomminus" xlink:href="#zoomMin" x="42" y="9" onmousedown="handleZoom(evt,'out')"/>
                <use id="reset" xlink:href="#resetDef" x="30" y="36" onmousedown="handleReset()"/>
                <g id="arrowUp" xlink:href="#dirArrow" transform="translate(30 24)" onmousedown="handlePan(0,-1)">
                  <use xlink:href="#rim" fill="#404040">
                        <set attributeName="fill" to="#808080" begin="arrowUp.mouseover" end="arrowUp.mouseout"/>
                  </use>
                  <path fill="none" stroke="white" stroke-width="1.5" d="M0,-3.0v7 M-2.5,-0.5L0,-3.0L2.5,-0.5"/>
                </g>
                <g id="arrowRight" xlink:href="#dirArrow" transform="rotate(90) translate(36 -43)" onmousedown="handlePan(1,0)">
                  <use xlink:href="#rim" fill="#404040">
                        <set attributeName="fill" to="#808080" begin="arrowRight.mouseover" end="arrowRight.mouseout"/>
                  </use>
                  <path fill="none" stroke="white" stroke-width="1.5" d="M0,-3.0v7 M-2.5,-0.5L0,-3.0L2.5,-0.5"/>
                </g>
                <g id="arrowDown" xlink:href="#dirArrow" transform="rotate(180) translate(-30 -48)" onmousedown="handlePan(0,1)">
                  <use xlink:href="#rim" fill="#404040">
                        <set attributeName="fill" to="#808080" begin="arrowDown.mouseover" end="arrowDown.mouseout"/>
                  </use>
                  <path fill="none" stroke="white" stroke-width="1.5" d="M0,-3.0v7 M-2.5,-0.5L0,-3.0L2.5,-0.5"/>
                </g>
                <g id="arrowLeft" xlink:href="#dirArrow" transform="rotate(270) translate(-36 17)" onmousedown="handlePan(-1,0)">
                  <use xlink:href="#rim" fill="#404040">
                        <set attributeName="fill" to="#808080" begin="arrowLeft.mouseover" end="arrowLeft.mouseout"/>
                  </use>
                  <path fill="none" stroke="white" stroke-width="1.5" d="M0,-3.0v7 M-2.5,-0.5L0,-3.0L2.5,-0.5"/>
                </g>
        </g>
        <svg viewBox="0 0 15 15" width="100%" height="30px" preserveAspectRatio="xMaxYMin meet">
         <g id="arrow_out" transform="scale(0.3 0.3)">
          <a xlink:href="trap_8cc__incl_org.svg" target="_base">
           <rect id="button" ry="5" rx="5" y="6" x="6" height="38" width="38"
                fill="#f2f5e9" fill-opacity="0.5" stroke="#606060" stroke-width="1.0"/>
           <path id="arrow"
             d="M 11.500037,31.436501 C 11.940474,20.09759 22.043105,11.32322 32.158766,21.979434 L 37.068811,17.246167 C 37.068811,17.246167 37.088388,32 37.088388,32 L 22.160133,31.978069 C 22.160133,31.978069 26.997745,27.140456 26.997745,27.140456 C 18.528582,18.264221 13.291696,25.230495 11.500037,31.436501 z"
             style="fill:#404040;"/>
          </a>
         </g>
        </svg>
</svg>
