<?xml version="1.0" encoding="UTF-8" standalone="no"?>
<!DOCTYPE svg PUBLIC "-//W3C//DTD SVG 1.1//EN"
 "http://www.w3.org/Graphics/SVG/1.1/DTD/svg11.dtd">
<!-- Generated by graphviz version 2.44.1 (20200629.0846)
 -->
<!-- Title: umain Pages: 1 -->
<!--zoomable 332 -->
<svg id="main" version="1.1" xmlns="http://www.w3.org/2000/svg" xmlns:xlink="http://www.w3.org/1999/xlink" xml:space="preserve" onload="init(evt)">
<style type="text/css"><![CDATA[
.edge:hover path { stroke: red; }
.edge:hover polygon { stroke: red; fill: red; }
]]></style>
<script type="text/javascript"><![CDATA[
var edges = document.getElementsByTagName('g');
if (edges && edges.length) {
  for (var i=0;i<edges.length;i++) {
    if (edges[i].id.substr(0,4)=='edge') {
      edges[i].setAttribute('class','edge');
    }
  }
}
]]></script>
        <defs>
                <circle id="rim" cx="0" cy="0" r="7"/>
                <circle id="rim2" cx="0" cy="0" r="3.5"/>
                <g id="zoomPlus">
                        <use xlink:href="#rim" fill="#404040">
                                <set attributeName="fill" to="#808080" begin="zoomplus.mouseover" end="zoomplus.mouseout"/>
                        </use>
                        <path d="M-4,0h8M0,-4v8" fill="none" stroke="white" stroke-width="1.5" pointer-events="none"/>
                </g>
                <g id="zoomMin">
                        <use xlink:href="#rim" fill="#404040">
                                <set attributeName="fill" to="#808080" begin="zoomminus.mouseover" end="zoomminus.mouseout"/>
                        </use>
                        <path d="M-4,0h8" fill="none" stroke="white" stroke-width="1.5" pointer-events="none"/>
                </g>
                <g id="dirArrow">
                        <path fill="none" stroke="white" stroke-width="1.5" d="M0,-3.0v7 M-2.5,-0.5L0,-3.0L2.5,-0.5"/>
                </g>
               <g id="resetDef">
                       <use xlink:href="#rim2" fill="#404040">
                               <set attributeName="fill" to="#808080" begin="reset.mouseover" end="reset.mouseout"/>
                       </use>
               </g>
        </defs>

<script type="text/javascript">
var viewWidth = 1457;
var viewHeight = 332;
var sectionId = 'dynsection-2';
</script>
<script xlink:href="svgpan.js"/>
<svg id="graph" class="graph">
<g id="viewport">
<title>umain</title>
<polygon fill="white" stroke="transparent" points="-4,4 -4,-328 1453,-328 1453,4 -4,4"/>
<!-- Node1 -->
<g id="node1" class="node">
<title>Node1</title>
<g id="a_node1"><a xlink:title=" ">
<polygon fill="#bfbfbf" stroke="black" points="0,-208.5 0,-227.5 43,-227.5 43,-208.5 0,-208.5"/>
<text text-anchor="middle" x="21.5" y="-215.5" font-family="Helvetica,sans-Serif" font-size="10.00">umain</text>
</a>
</g>
</g>
<!-- Node2 -->
<g id="node2" class="node">
<title>Node2</title>
<g id="a_node2"><a xlink:href="umain_8cc.html#a3c04138a5bfe5d72780bb7e82a18e627" target="_top" xlink:title=" ">
<polygon fill="white" stroke="black" points="83.5,-227.5 83.5,-246.5 121.5,-246.5 121.5,-227.5 83.5,-227.5"/>
<text text-anchor="middle" x="102.5" y="-234.5" font-family="Helvetica,sans-Serif" font-size="10.00">main</text>
</a>
</g>
</g>
<!-- Node1&#45;&gt;Node2 -->
<g id="edge1" class="edge">
<title>Node1&#45;&gt;Node2</title>
<path fill="none" stroke="midnightblue" d="M43.26,-222.99C52.49,-225.21 63.49,-227.86 73.44,-230.25"/>
<polygon fill="midnightblue" stroke="midnightblue" points="72.76,-233.69 83.3,-232.62 74.4,-226.88 72.76,-233.69"/>
</g>
<!-- Node24 -->
<g id="node24" class="node">
<title>Node24</title>
<g id="a_node24"><a xlink:href="stdlib_8hh.html#ab9656f5950c15e0f988c0cde1c3c07dd" target="_top" xlink:title=" ">
<polygon fill="white" stroke="black" points="79,-189.5 79,-208.5 126,-208.5 126,-189.5 79,-189.5"/>
<text text-anchor="middle" x="102.5" y="-196.5" font-family="Helvetica,sans-Serif" font-size="10.00">syscall</text>
</a>
</g>
</g>
<!-- Node1&#45;&gt;Node24 -->
<g id="edge31" class="edge">
<title>Node1&#45;&gt;Node24</title>
<path fill="none" stroke="midnightblue" d="M43.26,-213.01C51.14,-211.11 60.33,-208.9 69.04,-206.81"/>
<polygon fill="midnightblue" stroke="midnightblue" points="70.04,-210.17 78.94,-204.43 68.4,-203.36 70.04,-210.17"/>
</g>
<!-- Node3 -->
<g id="node3" class="node">
<title>Node3</title>
<g id="a_node3"><a xlink:href="namespaceconsole_1_1out.html#ac6f663e3971b66b8e130ee94755a150e" target="_top" xlink:title=" ">
<polygon fill="white" stroke="black" points="166.5,-187.5 166.5,-206.5 261.5,-206.5 261.5,-187.5 166.5,-187.5"/>
<text text-anchor="middle" x="214" y="-194.5" font-family="Helvetica,sans-Serif" font-size="10.00">console::out::print</text>
</a>
</g>
</g>
<!-- Node2&#45;&gt;Node3 -->
<g id="edge2" class="edge">
<title>Node2&#45;&gt;Node3</title>
<path fill="none" stroke="midnightblue" d="M121.58,-230.39C136.62,-224.9 158.48,-216.92 177.06,-210.13"/>
<polygon fill="midnightblue" stroke="midnightblue" points="178.5,-213.33 186.69,-206.61 176.1,-206.75 178.5,-213.33"/>
</g>
<!-- Node19 -->
<g id="node19" class="node">
<title>Node19</title>
<g id="a_node19"><a xlink:href="namespaceconsole_1_1err.html#a124c7e8527c0e3fd2b9636411aea7e82" target="_top" xlink:title=" ">
<polygon fill="white" stroke="black" points="168,-284.5 168,-303.5 260,-303.5 260,-284.5 168,-284.5"/>
<text text-anchor="middle" x="214" y="-291.5" font-family="Helvetica,sans-Serif" font-size="10.00">console::err::print</text>
</a>
</g>
</g>
<!-- Node2&#45;&gt;Node19 -->
<g id="edge22" class="edge">
<title>Node2&#45;&gt;Node19</title>
<path fill="none" stroke="midnightblue" d="M121.58,-246.41C138.99,-255.48 165.56,-269.3 185.57,-279.72"/>
<polygon fill="midnightblue" stroke="midnightblue" points="184.04,-282.87 194.53,-284.38 187.27,-276.66 184.04,-282.87"/>
</g>
<!-- Node21 -->
<g id="node21" class="node">
<title>Node21</title>
<g id="a_node21"><a xlink:href="namespaceconsole_1_1in.html#afa763e7729f2e6fbdcf4c14e44ad7a29" target="_top" xlink:title=" ">
<polygon fill="white" stroke="black" points="162,-227.5 162,-246.5 266,-246.5 266,-227.5 162,-227.5"/>
<text text-anchor="middle" x="214" y="-234.5" font-family="Helvetica,sans-Serif" font-size="10.00">console::in::readline</text>
</a>
</g>
</g>
<!-- Node2&#45;&gt;Node21 -->
<g id="edge26" class="edge">
<title>Node2&#45;&gt;Node21</title>
<path fill="none" stroke="midnightblue" d="M121.58,-237C130.05,-237 140.67,-237 151.66,-237"/>
<polygon fill="midnightblue" stroke="midnightblue" points="151.8,-240.5 161.8,-237 151.8,-233.5 151.8,-240.5"/>
</g>
<!-- Node4 -->
<g id="node4" class="node">
<title>Node4</title>
<g id="a_node4"><a xlink:href="namespaceconsole_1_1out.html#a8f791bfac54067cadb1b9f18117b987b" target="_top" xlink:title=" ">
<polygon fill="white" stroke="black" points="453,-159.5 453,-178.5 559,-178.5 559,-159.5 453,-159.5"/>
<text text-anchor="middle" x="506" y="-166.5" font-family="Helvetica,sans-Serif" font-size="10.00">console::out::printVa</text>
</a>
</g>
</g>
<!-- Node3&#45;&gt;Node4 -->
<g id="edge3" class="edge">
<title>Node3&#45;&gt;Node4</title>
<path fill="none" stroke="midnightblue" d="M261.59,-192.5C310.7,-187.76 388.33,-180.26 442.68,-175.02"/>
<polygon fill="midnightblue" stroke="midnightblue" points="443.27,-178.48 452.89,-174.03 442.6,-171.51 443.27,-178.48"/>
</g>
<!-- Node5 -->
<g id="node5" class="node">
<title>Node5</title>
<g id="a_node5"><a xlink:href="namespaceconsole_1_1ge.html#af642934cb833142f133285fdb75ef7b7" target="_top" xlink:title=" ">
<polygon fill="white" stroke="black" points="595,-154.5 595,-173.5 715,-173.5 715,-154.5 595,-154.5"/>
<text text-anchor="middle" x="655" y="-161.5" font-family="Helvetica,sans-Serif" font-size="10.00">console::ge::printFmtVa</text>
</a>
</g>
</g>
<!-- Node4&#45;&gt;Node5 -->
<g id="edge4" class="edge">
<title>Node4&#45;&gt;Node5</title>
<path fill="none" stroke="midnightblue" d="M559.24,-167.22C567.54,-166.94 576.24,-166.64 584.86,-166.35"/>
<polygon fill="midnightblue" stroke="midnightblue" points="585.04,-169.85 594.92,-166.01 584.8,-162.85 585.04,-169.85"/>
</g>
<!-- Node12 -->
<g id="node12" class="node">
<title>Node12</title>
<g id="a_node12"><a xlink:href="namespaceconsole_1_1out.html#ad9fc97dff4404c2d21aedbb24691e7cb" target="_top" xlink:title=" ">
<polygon fill="white" stroke="black" points="913,-214.5 913,-233.5 1023,-233.5 1023,-214.5 913,-214.5"/>
<text text-anchor="middle" x="968" y="-221.5" font-family="Helvetica,sans-Serif" font-size="10.00">console::out::putChar</text>
</a>
</g>
</g>
<!-- Node4&#45;&gt;Node12 -->
<g id="edge21" class="edge">
<title>Node4&#45;&gt;Node12</title>
<path fill="none" stroke="midnightblue" d="M523.52,-159.38C577.46,-129.33 752.1,-42.86 877,-105 918.95,-125.87 946.55,-176.66 959.14,-204.67"/>
<polygon fill="midnightblue" stroke="midnightblue" points="956.06,-206.37 963.22,-214.18 962.49,-203.61 956.06,-206.37"/>
</g>
<!-- Node6 -->
<g id="node6" class="node">
<title>Node6</title>
<g id="a_node6"><a xlink:href="printfmt_8cc.html#a708ec6ee2b8bd2d7a453d8d9436ed3b3" target="_top" xlink:title=" ">
<polygon fill="white" stroke="black" points="785,-152.5 785,-171.5 843,-171.5 843,-152.5 785,-152.5"/>
<text text-anchor="middle" x="814" y="-159.5" font-family="Helvetica,sans-Serif" font-size="10.00">_getIntVa</text>
</a>
</g>
</g>
<!-- Node5&#45;&gt;Node6 -->
<g id="edge5" class="edge">
<title>Node5&#45;&gt;Node6</title>
<path fill="none" stroke="midnightblue" d="M715.35,-163.24C735.24,-162.99 756.88,-162.71 774.72,-162.49"/>
<polygon fill="midnightblue" stroke="midnightblue" points="774.79,-165.99 784.74,-162.36 774.7,-158.99 774.79,-165.99"/>
</g>
<!-- Node7 -->
<g id="node7" class="node">
<title>Node7</title>
<g id="a_node7"><a xlink:href="printfmt_8cc.html#af4b46892c76c8bfd27efdb20847eb7c8" target="_top" xlink:title=" ">
<polygon fill="white" stroke="black" points="781.5,-114.5 781.5,-133.5 846.5,-133.5 846.5,-114.5 781.5,-114.5"/>
<text text-anchor="middle" x="814" y="-121.5" font-family="Helvetica,sans-Serif" font-size="10.00">_getUIntVa</text>
</a>
</g>
</g>
<!-- Node5&#45;&gt;Node7 -->
<g id="edge6" class="edge">
<title>Node5&#45;&gt;Node7</title>
<path fill="none" stroke="midnightblue" d="M693.61,-154.42C717.02,-148.45 747.17,-140.77 771.32,-134.62"/>
<polygon fill="midnightblue" stroke="midnightblue" points="772.43,-137.95 781.26,-132.09 770.71,-131.16 772.43,-137.95"/>
</g>
<!-- Node8 -->
<g id="node8" class="node">
<title>Node8</title>
<g id="a_node8"><a xlink:href="namespacestr.html#a062221f630647cf300f0dd982c4ed904" target="_top" xlink:title=" ">
<polygon fill="white" stroke="black" points="1391,-128.5 1391,-147.5 1449,-147.5 1449,-128.5 1391,-128.5"/>
<text text-anchor="middle" x="1420" y="-135.5" font-family="Helvetica,sans-Serif" font-size="10.00">str::count</text>
</a>
</g>
</g>
<!-- Node5&#45;&gt;Node8 -->
<g id="edge7" class="edge">
<title>Node5&#45;&gt;Node8</title>
<path fill="none" stroke="midnightblue" d="M667.38,-154.41C684.35,-140.73 717.85,-116.05 751,-105 842.43,-74.53 870.63,-86 967,-86 967,-86 967,-86 1120,-86 1214.99,-86 1324.47,-111.79 1380.93,-127.04"/>
<polygon fill="midnightblue" stroke="midnightblue" points="1380.27,-130.49 1390.84,-129.76 1382.12,-123.74 1380.27,-130.49"/>
</g>
<!-- Node9 -->
<g id="node9" class="node">
<title>Node9</title>
<g id="a_node9"><a xlink:href="printfmt_8cc.html#a0e3e484ece5e75b9f5fbe337f0ae8ae3" target="_top" xlink:title=" ">
<polygon fill="white" stroke="black" points="787.5,-0.5 787.5,-19.5 840.5,-19.5 840.5,-0.5 787.5,-0.5"/>
<text text-anchor="middle" x="814" y="-7.5" font-family="Helvetica,sans-Serif" font-size="10.00">describe</text>
</a>
</g>
</g>
<!-- Node5&#45;&gt;Node9 -->
<g id="edge8" class="edge">
<title>Node5&#45;&gt;Node9</title>
<path fill="none" stroke="midnightblue" d="M665.82,-154.37C691.81,-128.87 762.66,-59.38 795.66,-27.01"/>
<polygon fill="midnightblue" stroke="midnightblue" points="798.49,-29.13 803.18,-19.63 793.59,-24.13 798.49,-29.13"/>
</g>
<!-- Node11 -->
<g id="node11" class="node">
<title>Node11</title>
<g id="a_node11"><a xlink:href="namespaceconsole_1_1ge.html#a7e301813fd34fde772376afc5fdad95d" target="_top" xlink:title=" ">
<polygon fill="white" stroke="black" points="751,-228.5 751,-247.5 877,-247.5 877,-228.5 751,-228.5"/>
<text text-anchor="middle" x="814" y="-235.5" font-family="Helvetica,sans-Serif" font-size="10.00">console::ge::printNumber</text>
</a>
</g>
</g>
<!-- Node5&#45;&gt;Node11 -->
<g id="edge10" class="edge">
<title>Node5&#45;&gt;Node11</title>
<path fill="none" stroke="midnightblue" d="M672.87,-173.64C691.63,-184.18 723.01,-201.27 751,-214 759.24,-217.75 768.26,-221.46 776.8,-224.79"/>
<polygon fill="midnightblue" stroke="midnightblue" points="775.58,-228.07 786.17,-228.39 778.09,-221.54 775.58,-228.07"/>
</g>
<!-- Node5&#45;&gt;Node12 -->
<g id="edge20" class="edge">
<title>Node5&#45;&gt;Node12</title>
<path fill="none" stroke="midnightblue" d="M705.28,-173.51C760.25,-184.11 849.14,-201.26 907.83,-212.58"/>
<polygon fill="midnightblue" stroke="midnightblue" points="907.21,-216.03 917.69,-214.49 908.54,-209.16 907.21,-216.03"/>
</g>
<!-- Node10 -->
<g id="node10" class="node">
<title>Node10</title>
<g id="a_node10"><a xlink:href="namespacemonitor.html#a318993193c866642f8389a1c1f285739" target="_top" xlink:title=" ">
<polygon fill="white" stroke="black" points="931,-0.5 931,-19.5 1005,-19.5 1005,-0.5 931,-0.5"/>
<text text-anchor="middle" x="968" y="-7.5" font-family="Helvetica,sans-Serif" font-size="10.00">monitor::fuck</text>
</a>
</g>
</g>
<!-- Node9&#45;&gt;Node10 -->
<g id="edge9" class="edge">
<title>Node9&#45;&gt;Node10</title>
<path fill="none" stroke="midnightblue" d="M840.78,-10C862.62,-10 894.46,-10 920.7,-10"/>
<polygon fill="midnightblue" stroke="midnightblue" points="920.82,-13.5 930.82,-10 920.82,-6.5 920.82,-13.5"/>
</g>
<!-- Node11&#45;&gt;Node12 -->
<g id="edge11" class="edge">
<title>Node11&#45;&gt;Node12</title>
<path fill="none" stroke="midnightblue" d="M877.26,-232.27C885.66,-231.49 894.28,-230.7 902.71,-229.92"/>
<polygon fill="midnightblue" stroke="midnightblue" points="903.23,-233.39 912.86,-228.99 902.58,-226.42 903.23,-233.39"/>
</g>
<!-- Node13 -->
<g id="node13" class="node">
<title>Node13</title>
<g id="a_node13"><a xlink:href="namespaceconsole_1_1serial.html#a3a7c1f95ae3c24136ea63bb31fdf0391" target="_top" xlink:title=" ">
<polygon fill="white" stroke="black" points="1059,-214.5 1059,-233.5 1179,-233.5 1179,-214.5 1059,-214.5"/>
<text text-anchor="middle" x="1119" y="-221.5" font-family="Helvetica,sans-Serif" font-size="10.00">console::serial::putChar</text>
</a>
</g>
</g>
<!-- Node12&#45;&gt;Node13 -->
<g id="edge12" class="edge">
<title>Node12&#45;&gt;Node13</title>
<path fill="none" stroke="midnightblue" d="M1023.21,-224C1031.53,-224 1040.2,-224 1048.79,-224"/>
<polygon fill="midnightblue" stroke="midnightblue" points="1048.79,-227.5 1058.79,-224 1048.79,-220.5 1048.79,-227.5"/>
</g>
<!-- Node16 -->
<g id="node16" class="node">
<title>Node16</title>
<g id="a_node16"><a xlink:href="namespaceconsole_1_1cga.html#afa19057ca041b39682d5d4831c43dfa0" target="_top" xlink:title=" ">
<polygon fill="white" stroke="black" points="1062.5,-176.5 1062.5,-195.5 1175.5,-195.5 1175.5,-176.5 1062.5,-176.5"/>
<text text-anchor="middle" x="1119" y="-183.5" font-family="Helvetica,sans-Serif" font-size="10.00">console::cga::putChar</text>
</a>
</g>
</g>
<!-- Node12&#45;&gt;Node16 -->
<g id="edge15" class="edge">
<title>Node12&#45;&gt;Node16</title>
<path fill="none" stroke="midnightblue" d="M1006.6,-214.41C1026.08,-209.44 1050.07,-203.32 1070.8,-198.04"/>
<polygon fill="midnightblue" stroke="midnightblue" points="1071.85,-201.38 1080.67,-195.52 1070.12,-194.6 1071.85,-201.38"/>
</g>
<!-- Node14 -->
<g id="node14" class="node">
<title>Node14</title>
<g id="a_node14"><a xlink:href="namespaceconsole_1_1serial.html#aa5605d4537106bb1c2bab72d7d1a5824" target="_top" xlink:title=" ">
<polygon fill="white" stroke="black" points="1233,-214.5 1233,-233.5 1337,-233.5 1337,-214.5 1233,-214.5"/>
<text text-anchor="middle" x="1285" y="-221.5" font-family="Helvetica,sans-Serif" font-size="10.00">console::serial::sout</text>
</a>
</g>
</g>
<!-- Node13&#45;&gt;Node14 -->
<g id="edge13" class="edge">
<title>Node13&#45;&gt;Node14</title>
<path fill="none" stroke="midnightblue" d="M1179.21,-224C1193.31,-224 1208.39,-224 1222.59,-224"/>
<polygon fill="midnightblue" stroke="midnightblue" points="1222.74,-227.5 1232.74,-224 1222.74,-220.5 1222.74,-227.5"/>
</g>
<!-- Node15 -->
<g id="node15" class="node">
<title>Node15</title>
<g id="a_node15"><a xlink:href="x86_8h.html#ade961b44e45ddacbc3c3b7609cf36dc6" target="_top" xlink:title=" ">
<polygon fill="white" stroke="black" points="1402.5,-185.5 1402.5,-204.5 1437.5,-204.5 1437.5,-185.5 1402.5,-185.5"/>
<text text-anchor="middle" x="1420" y="-192.5" font-family="Helvetica,sans-Serif" font-size="10.00">outb</text>
</a>
</g>
</g>
<!-- Node14&#45;&gt;Node15 -->
<g id="edge14" class="edge">
<title>Node14&#45;&gt;Node15</title>
<path fill="none" stroke="midnightblue" d="M1329.92,-214.42C1350.57,-209.92 1374.51,-204.7 1392.37,-200.81"/>
<polygon fill="midnightblue" stroke="midnightblue" points="1393.35,-204.18 1402.37,-198.63 1391.85,-197.34 1393.35,-204.18"/>
</g>
<!-- Node17 -->
<g id="node17" class="node">
<title>Node17</title>
<g id="a_node17"><a xlink:href="namespacemem.html#a64d9d05b439041901498c606de606431" target="_top" xlink:title=" ">
<polygon fill="white" stroke="black" points="1252.5,-133.5 1252.5,-152.5 1317.5,-152.5 1317.5,-133.5 1252.5,-133.5"/>
<text text-anchor="middle" x="1285" y="-140.5" font-family="Helvetica,sans-Serif" font-size="10.00">mem::copy</text>
</a>
</g>
</g>
<!-- Node16&#45;&gt;Node17 -->
<g id="edge16" class="edge">
<title>Node16&#45;&gt;Node17</title>
<path fill="none" stroke="midnightblue" d="M1156.4,-176.46C1181.92,-169.77 1216.08,-160.81 1242.64,-153.85"/>
<polygon fill="midnightblue" stroke="midnightblue" points="1243.62,-157.21 1252.41,-151.28 1241.85,-150.43 1243.62,-157.21"/>
</g>
<!-- Node18 -->
<g id="node18" class="node">
<title>Node18</title>
<g id="a_node18"><a xlink:href="namespaceconsole_1_1cga.html#a06463d4dc68819e30615ba299d02a78f" target="_top" xlink:title=" ">
<polygon fill="white" stroke="black" points="1215,-176.5 1215,-195.5 1355,-195.5 1355,-176.5 1215,-176.5"/>
<text text-anchor="middle" x="1285" y="-183.5" font-family="Helvetica,sans-Serif" font-size="10.00">console::cga::cursorRefresh</text>
</a>
</g>
</g>
<!-- Node16&#45;&gt;Node18 -->
<g id="edge18" class="edge">
<title>Node16&#45;&gt;Node18</title>
<path fill="none" stroke="midnightblue" d="M1175.52,-186C1184.9,-186 1194.8,-186 1204.65,-186"/>
<polygon fill="midnightblue" stroke="midnightblue" points="1204.87,-189.5 1214.87,-186 1204.87,-182.5 1204.87,-189.5"/>
</g>
<!-- Node17&#45;&gt;Node8 -->
<g id="edge17" class="edge">
<title>Node17&#45;&gt;Node8</title>
<path fill="none" stroke="midnightblue" d="M1317.52,-141.82C1336.49,-141.1 1360.77,-140.19 1380.82,-139.44"/>
<polygon fill="midnightblue" stroke="midnightblue" points="1381.01,-142.93 1390.87,-139.06 1380.75,-135.94 1381.01,-142.93"/>
</g>
<!-- Node18&#45;&gt;Node15 -->
<g id="edge19" class="edge">
<title>Node18&#45;&gt;Node15</title>
<path fill="none" stroke="midnightblue" d="M1355.23,-190.68C1368.48,-191.58 1381.59,-192.47 1392.45,-193.2"/>
<polygon fill="midnightblue" stroke="midnightblue" points="1392.26,-196.7 1402.47,-193.88 1392.73,-189.71 1392.26,-196.7"/>
</g>
<!-- Node20 -->
<g id="node20" class="node">
<title>Node20</title>
<g id="a_node20"><a xlink:href="namespaceconsole_1_1err.html#a4cd18e4c409b5b17ecec61ce83b05fba" target="_top" xlink:title=" ">
<polygon fill="white" stroke="black" points="454,-304.5 454,-323.5 558,-323.5 558,-304.5 454,-304.5"/>
<text text-anchor="middle" x="506" y="-311.5" font-family="Helvetica,sans-Serif" font-size="10.00">console::err::printVa</text>
</a>
</g>
</g>
<!-- Node19&#45;&gt;Node20 -->
<g id="edge23" class="edge">
<title>Node19&#45;&gt;Node20</title>
<path fill="none" stroke="midnightblue" d="M260.31,-297.12C309.55,-300.52 388.51,-305.97 443.36,-309.75"/>
<polygon fill="midnightblue" stroke="midnightblue" points="443.44,-313.26 453.65,-310.46 443.92,-306.28 443.44,-313.26"/>
</g>
<!-- Node20&#45;&gt;Node5 -->
<g id="edge24" class="edge">
<title>Node20&#45;&gt;Node5</title>
<path fill="none" stroke="midnightblue" d="M516.65,-304.16C541.26,-279.04 606.63,-212.34 637.46,-180.88"/>
<polygon fill="midnightblue" stroke="midnightblue" points="640.01,-183.28 644.51,-173.68 635.01,-178.38 640.01,-183.28"/>
</g>
<!-- Node20&#45;&gt;Node12 -->
<g id="edge25" class="edge">
<title>Node20&#45;&gt;Node12</title>
<path fill="none" stroke="midnightblue" d="M558.2,-319.5C631.35,-325.43 768.86,-329.32 877,-290 905.79,-279.53 933.35,-256.81 950.22,-240.97"/>
<polygon fill="midnightblue" stroke="midnightblue" points="952.85,-243.3 957.6,-233.83 947.98,-238.27 952.85,-243.3"/>
</g>
<!-- Node22 -->
<g id="node22" class="node">
<title>Node22</title>
<g id="a_node22"><a xlink:href="namespaceconsole_1_1in.html#ac28354dad0498aa6bb0c178b10d62c8a" target="_top" xlink:title=" ">
<polygon fill="white" stroke="black" points="302,-227.5 302,-246.5 417,-246.5 417,-227.5 302,-227.5"/>
<text text-anchor="middle" x="359.5" y="-234.5" font-family="Helvetica,sans-Serif" font-size="10.00">console::in::readlineVa</text>
</a>
</g>
</g>
<!-- Node21&#45;&gt;Node22 -->
<g id="edge27" class="edge">
<title>Node21&#45;&gt;Node22</title>
<path fill="none" stroke="midnightblue" d="M266.4,-237C274.52,-237 283.02,-237 291.43,-237"/>
<polygon fill="midnightblue" stroke="midnightblue" points="291.62,-240.5 301.62,-237 291.62,-233.5 291.62,-240.5"/>
</g>
<!-- Node22&#45;&gt;Node4 -->
<g id="edge29" class="edge">
<title>Node22&#45;&gt;Node4</title>
<path fill="none" stroke="midnightblue" d="M380.9,-227.4C405.53,-215.81 447.17,-196.22 475.35,-182.95"/>
<polygon fill="midnightblue" stroke="midnightblue" points="477.15,-185.97 484.71,-178.55 474.17,-179.64 477.15,-185.97"/>
</g>
<!-- Node22&#45;&gt;Node12 -->
<g id="edge30" class="edge">
<title>Node22&#45;&gt;Node12</title>
<path fill="none" stroke="midnightblue" d="M398.49,-246.58C415.1,-250.31 434.9,-254.13 453,-256 640.45,-275.37 691.46,-289.94 877,-257 897.96,-253.28 920.44,-245.04 937.69,-237.72"/>
<polygon fill="midnightblue" stroke="midnightblue" points="939.43,-240.78 947.19,-233.57 936.63,-234.37 939.43,-240.78"/>
</g>
<!-- Node23 -->
<g id="node23" class="node">
<title>Node23</title>
<g id="a_node23"><a xlink:href="namespaceconsole_1_1in.html#a6fc069f2bc57fda183e3b991c31ec5a7" target="_top" xlink:title=" ">
<polygon fill="white" stroke="black" points="454,-227.5 454,-246.5 558,-246.5 558,-227.5 454,-227.5"/>
<text text-anchor="middle" x="506" y="-234.5" font-family="Helvetica,sans-Serif" font-size="10.00">console::in::getChar</text>
</a>
</g>
</g>
<!-- Node22&#45;&gt;Node23 -->
<g id="edge28" class="edge">
<title>Node22&#45;&gt;Node23</title>
<path fill="none" stroke="midnightblue" d="M417.2,-237C425.83,-237 434.78,-237 443.52,-237"/>
<polygon fill="midnightblue" stroke="midnightblue" points="443.64,-240.5 453.64,-237 443.64,-233.5 443.64,-240.5"/>
</g>
</g>
</svg>
        <g id="navigator" transform="translate(0 0)" fill="#404254">
                <rect fill="#f2f5e9" fill-opacity="0.5" stroke="#606060" stroke-width=".5" x="0" y="0" width="60" height="60"/>
                <use id="zoomplus" xlink:href="#zoomPlus" x="17" y="9" onmousedown="handleZoom(evt,'in')"/>
                <use id="zoomminus" xlink:href="#zoomMin" x="42" y="9" onmousedown="handleZoom(evt,'out')"/>
                <use id="reset" xlink:href="#resetDef" x="30" y="36" onmousedown="handleReset()"/>
                <g id="arrowUp" xlink:href="#dirArrow" transform="translate(30 24)" onmousedown="handlePan(0,-1)">
                  <use xlink:href="#rim" fill="#404040">
                        <set attributeName="fill" to="#808080" begin="arrowUp.mouseover" end="arrowUp.mouseout"/>
                  </use>
                  <path fill="none" stroke="white" stroke-width="1.5" d="M0,-3.0v7 M-2.5,-0.5L0,-3.0L2.5,-0.5"/>
                </g>
                <g id="arrowRight" xlink:href="#dirArrow" transform="rotate(90) translate(36 -43)" onmousedown="handlePan(1,0)">
                  <use xlink:href="#rim" fill="#404040">
                        <set attributeName="fill" to="#808080" begin="arrowRight.mouseover" end="arrowRight.mouseout"/>
                  </use>
                  <path fill="none" stroke="white" stroke-width="1.5" d="M0,-3.0v7 M-2.5,-0.5L0,-3.0L2.5,-0.5"/>
                </g>
                <g id="arrowDown" xlink:href="#dirArrow" transform="rotate(180) translate(-30 -48)" onmousedown="handlePan(0,1)">
                  <use xlink:href="#rim" fill="#404040">
                        <set attributeName="fill" to="#808080" begin="arrowDown.mouseover" end="arrowDown.mouseout"/>
                  </use>
                  <path fill="none" stroke="white" stroke-width="1.5" d="M0,-3.0v7 M-2.5,-0.5L0,-3.0L2.5,-0.5"/>
                </g>
                <g id="arrowLeft" xlink:href="#dirArrow" transform="rotate(270) translate(-36 17)" onmousedown="handlePan(-1,0)">
                  <use xlink:href="#rim" fill="#404040">
                        <set attributeName="fill" to="#808080" begin="arrowLeft.mouseover" end="arrowLeft.mouseout"/>
                  </use>
                  <path fill="none" stroke="white" stroke-width="1.5" d="M0,-3.0v7 M-2.5,-0.5L0,-3.0L2.5,-0.5"/>
                </g>
        </g>
        <svg viewBox="0 0 15 15" width="100%" height="30px" preserveAspectRatio="xMaxYMin meet">
         <g id="arrow_out" transform="scale(0.3 0.3)">
          <a xlink:href="umain_8cc_a12093e98bb774fc08f967c7518af7c0f_cgraph_org.svg" target="_base">
           <rect id="button" ry="5" rx="5" y="6" x="6" height="38" width="38"
                fill="#f2f5e9" fill-opacity="0.5" stroke="#606060" stroke-width="1.0"/>
           <path id="arrow"
             d="M 11.500037,31.436501 C 11.940474,20.09759 22.043105,11.32322 32.158766,21.979434 L 37.068811,17.246167 C 37.068811,17.246167 37.088388,32 37.088388,32 L 22.160133,31.978069 C 22.160133,31.978069 26.997745,27.140456 26.997745,27.140456 C 18.528582,18.264221 13.291696,25.230495 11.500037,31.436501 z"
             style="fill:#404040;"/>
          </a>
         </g>
        </svg>
</svg>
