<?xml version="1.0" encoding="UTF-8" standalone="no"?>
<!DOCTYPE svg PUBLIC "-//W3C//DTD SVG 1.1//EN"
 "http://www.w3.org/Graphics/SVG/1.1/DTD/svg11.dtd">
<!-- Generated by graphviz version 2.44.1 (20200629.0846)
 -->
<!-- Title: main Pages: 1 -->
<!--zoomable 332 -->
<svg id="main" version="1.1" xmlns="http://www.w3.org/2000/svg" xmlns:xlink="http://www.w3.org/1999/xlink" xml:space="preserve" onload="init(evt)">
<style type="text/css"><![CDATA[
.edge:hover path { stroke: red; }
.edge:hover polygon { stroke: red; fill: red; }
]]></style>
<script type="text/javascript"><![CDATA[
var edges = document.getElementsByTagName('g');
if (edges && edges.length) {
  for (var i=0;i<edges.length;i++) {
    if (edges[i].id.substr(0,4)=='edge') {
      edges[i].setAttribute('class','edge');
    }
  }
}
]]></script>
        <defs>
                <circle id="rim" cx="0" cy="0" r="7"/>
                <circle id="rim2" cx="0" cy="0" r="3.5"/>
                <g id="zoomPlus">
                        <use xlink:href="#rim" fill="#404040">
                                <set attributeName="fill" to="#808080" begin="zoomplus.mouseover" end="zoomplus.mouseout"/>
                        </use>
                        <path d="M-4,0h8M0,-4v8" fill="none" stroke="white" stroke-width="1.5" pointer-events="none"/>
                </g>
                <g id="zoomMin">
                        <use xlink:href="#rim" fill="#404040">
                                <set attributeName="fill" to="#808080" begin="zoomminus.mouseover" end="zoomminus.mouseout"/>
                        </use>
                        <path d="M-4,0h8" fill="none" stroke="white" stroke-width="1.5" pointer-events="none"/>
                </g>
                <g id="dirArrow">
                        <path fill="none" stroke="white" stroke-width="1.5" d="M0,-3.0v7 M-2.5,-0.5L0,-3.0L2.5,-0.5"/>
                </g>
               <g id="resetDef">
                       <use xlink:href="#rim2" fill="#404040">
                               <set attributeName="fill" to="#808080" begin="reset.mouseover" end="reset.mouseout"/>
                       </use>
               </g>
        </defs>

<script type="text/javascript">
var viewWidth = 1369;
var viewHeight = 332;
var sectionId = 'dynsection-1';
</script>
<script xlink:href="svgpan.js"/>
<svg id="graph" class="graph">
<g id="viewport">
<title>main</title>
<polygon fill="white" stroke="transparent" points="-4,4 -4,-328 1365,-328 1365,4 -4,4"/>
<!-- Node1 -->
<g id="node1" class="node">
<title>Node1</title>
<g id="a_node1"><a xlink:title=" ">
<polygon fill="#bfbfbf" stroke="black" points="0,-227.5 0,-246.5 38,-246.5 38,-227.5 0,-227.5"/>
<text text-anchor="middle" x="19" y="-234.5" font-family="Helvetica,sans-Serif" font-size="10.00">main</text>
</a>
</g>
</g>
<!-- Node2 -->
<g id="node2" class="node">
<title>Node2</title>
<g id="a_node2"><a xlink:href="namespaceconsole_1_1out.html#ac6f663e3971b66b8e130ee94755a150e" target="_top" xlink:title=" ">
<polygon fill="white" stroke="black" points="78.5,-187.5 78.5,-206.5 173.5,-206.5 173.5,-187.5 78.5,-187.5"/>
<text text-anchor="middle" x="126" y="-194.5" font-family="Helvetica,sans-Serif" font-size="10.00">console::out::print</text>
</a>
</g>
</g>
<!-- Node1&#45;&gt;Node2 -->
<g id="edge1" class="edge">
<title>Node1&#45;&gt;Node2</title>
<path fill="none" stroke="midnightblue" d="M38.29,-230.03C52.53,-224.61 72.73,-216.91 90.04,-210.32"/>
<polygon fill="midnightblue" stroke="midnightblue" points="91.74,-213.41 99.84,-206.58 89.25,-206.87 91.74,-213.41"/>
</g>
<!-- Node18 -->
<g id="node18" class="node">
<title>Node18</title>
<g id="a_node18"><a xlink:href="namespaceconsole_1_1err.html#a124c7e8527c0e3fd2b9636411aea7e82" target="_top" xlink:title=" ">
<polygon fill="white" stroke="black" points="80,-284.5 80,-303.5 172,-303.5 172,-284.5 80,-284.5"/>
<text text-anchor="middle" x="126" y="-291.5" font-family="Helvetica,sans-Serif" font-size="10.00">console::err::print</text>
</a>
</g>
</g>
<!-- Node1&#45;&gt;Node18 -->
<g id="edge21" class="edge">
<title>Node1&#45;&gt;Node18</title>
<path fill="none" stroke="midnightblue" d="M37.81,-246.67C54.43,-255.69 79.44,-269.27 98.42,-279.57"/>
<polygon fill="midnightblue" stroke="midnightblue" points="96.99,-282.78 107.45,-284.47 100.33,-276.63 96.99,-282.78"/>
</g>
<!-- Node20 -->
<g id="node20" class="node">
<title>Node20</title>
<g id="a_node20"><a xlink:href="namespaceconsole_1_1in.html#afa763e7729f2e6fbdcf4c14e44ad7a29" target="_top" xlink:title=" ">
<polygon fill="white" stroke="black" points="74,-227.5 74,-246.5 178,-246.5 178,-227.5 74,-227.5"/>
<text text-anchor="middle" x="126" y="-234.5" font-family="Helvetica,sans-Serif" font-size="10.00">console::in::readline</text>
</a>
</g>
</g>
<!-- Node1&#45;&gt;Node20 -->
<g id="edge25" class="edge">
<title>Node1&#45;&gt;Node20</title>
<path fill="none" stroke="midnightblue" d="M38.29,-237C45.62,-237 54.54,-237 63.82,-237"/>
<polygon fill="midnightblue" stroke="midnightblue" points="63.99,-240.5 73.99,-237 63.99,-233.5 63.99,-240.5"/>
</g>
<!-- Node3 -->
<g id="node3" class="node">
<title>Node3</title>
<g id="a_node3"><a xlink:href="namespaceconsole_1_1out.html#a8f791bfac54067cadb1b9f18117b987b" target="_top" xlink:title=" ">
<polygon fill="white" stroke="black" points="365,-159.5 365,-178.5 471,-178.5 471,-159.5 365,-159.5"/>
<text text-anchor="middle" x="418" y="-166.5" font-family="Helvetica,sans-Serif" font-size="10.00">console::out::printVa</text>
</a>
</g>
</g>
<!-- Node2&#45;&gt;Node3 -->
<g id="edge2" class="edge">
<title>Node2&#45;&gt;Node3</title>
<path fill="none" stroke="midnightblue" d="M173.59,-192.5C222.7,-187.76 300.33,-180.26 354.68,-175.02"/>
<polygon fill="midnightblue" stroke="midnightblue" points="355.27,-178.48 364.89,-174.03 354.6,-171.51 355.27,-178.48"/>
</g>
<!-- Node4 -->
<g id="node4" class="node">
<title>Node4</title>
<g id="a_node4"><a xlink:href="namespaceconsole_1_1ge.html#af642934cb833142f133285fdb75ef7b7" target="_top" xlink:title=" ">
<polygon fill="white" stroke="black" points="507,-154.5 507,-173.5 627,-173.5 627,-154.5 507,-154.5"/>
<text text-anchor="middle" x="567" y="-161.5" font-family="Helvetica,sans-Serif" font-size="10.00">console::ge::printFmtVa</text>
</a>
</g>
</g>
<!-- Node3&#45;&gt;Node4 -->
<g id="edge3" class="edge">
<title>Node3&#45;&gt;Node4</title>
<path fill="none" stroke="midnightblue" d="M471.24,-167.22C479.54,-166.94 488.24,-166.64 496.86,-166.35"/>
<polygon fill="midnightblue" stroke="midnightblue" points="497.04,-169.85 506.92,-166.01 496.8,-162.85 497.04,-169.85"/>
</g>
<!-- Node11 -->
<g id="node11" class="node">
<title>Node11</title>
<g id="a_node11"><a xlink:href="namespaceconsole_1_1out.html#ad9fc97dff4404c2d21aedbb24691e7cb" target="_top" xlink:title=" ">
<polygon fill="white" stroke="black" points="825,-214.5 825,-233.5 935,-233.5 935,-214.5 825,-214.5"/>
<text text-anchor="middle" x="880" y="-221.5" font-family="Helvetica,sans-Serif" font-size="10.00">console::out::putChar</text>
</a>
</g>
</g>
<!-- Node3&#45;&gt;Node11 -->
<g id="edge20" class="edge">
<title>Node3&#45;&gt;Node11</title>
<path fill="none" stroke="midnightblue" d="M435.52,-159.38C489.46,-129.33 664.1,-42.86 789,-105 830.95,-125.87 858.55,-176.66 871.14,-204.67"/>
<polygon fill="midnightblue" stroke="midnightblue" points="868.06,-206.37 875.22,-214.18 874.49,-203.61 868.06,-206.37"/>
</g>
<!-- Node5 -->
<g id="node5" class="node">
<title>Node5</title>
<g id="a_node5"><a xlink:href="printfmt_8cc.html#a708ec6ee2b8bd2d7a453d8d9436ed3b3" target="_top" xlink:title=" ">
<polygon fill="white" stroke="black" points="697,-152.5 697,-171.5 755,-171.5 755,-152.5 697,-152.5"/>
<text text-anchor="middle" x="726" y="-159.5" font-family="Helvetica,sans-Serif" font-size="10.00">_getIntVa</text>
</a>
</g>
</g>
<!-- Node4&#45;&gt;Node5 -->
<g id="edge4" class="edge">
<title>Node4&#45;&gt;Node5</title>
<path fill="none" stroke="midnightblue" d="M627.35,-163.24C647.24,-162.99 668.88,-162.71 686.72,-162.49"/>
<polygon fill="midnightblue" stroke="midnightblue" points="686.79,-165.99 696.74,-162.36 686.7,-158.99 686.79,-165.99"/>
</g>
<!-- Node6 -->
<g id="node6" class="node">
<title>Node6</title>
<g id="a_node6"><a xlink:href="printfmt_8cc.html#af4b46892c76c8bfd27efdb20847eb7c8" target="_top" xlink:title=" ">
<polygon fill="white" stroke="black" points="693.5,-114.5 693.5,-133.5 758.5,-133.5 758.5,-114.5 693.5,-114.5"/>
<text text-anchor="middle" x="726" y="-121.5" font-family="Helvetica,sans-Serif" font-size="10.00">_getUIntVa</text>
</a>
</g>
</g>
<!-- Node4&#45;&gt;Node6 -->
<g id="edge5" class="edge">
<title>Node4&#45;&gt;Node6</title>
<path fill="none" stroke="midnightblue" d="M605.61,-154.42C629.02,-148.45 659.17,-140.77 683.32,-134.62"/>
<polygon fill="midnightblue" stroke="midnightblue" points="684.43,-137.95 693.26,-132.09 682.71,-131.16 684.43,-137.95"/>
</g>
<!-- Node7 -->
<g id="node7" class="node">
<title>Node7</title>
<g id="a_node7"><a xlink:href="namespacestr.html#a062221f630647cf300f0dd982c4ed904" target="_top" xlink:title=" ">
<polygon fill="white" stroke="black" points="1303,-128.5 1303,-147.5 1361,-147.5 1361,-128.5 1303,-128.5"/>
<text text-anchor="middle" x="1332" y="-135.5" font-family="Helvetica,sans-Serif" font-size="10.00">str::count</text>
</a>
</g>
</g>
<!-- Node4&#45;&gt;Node7 -->
<g id="edge6" class="edge">
<title>Node4&#45;&gt;Node7</title>
<path fill="none" stroke="midnightblue" d="M579.38,-154.41C596.35,-140.73 629.85,-116.05 663,-105 754.43,-74.53 782.63,-86 879,-86 879,-86 879,-86 1032,-86 1126.99,-86 1236.47,-111.79 1292.93,-127.04"/>
<polygon fill="midnightblue" stroke="midnightblue" points="1292.27,-130.49 1302.84,-129.76 1294.12,-123.74 1292.27,-130.49"/>
</g>
<!-- Node8 -->
<g id="node8" class="node">
<title>Node8</title>
<g id="a_node8"><a xlink:href="printfmt_8cc.html#a0e3e484ece5e75b9f5fbe337f0ae8ae3" target="_top" xlink:title=" ">
<polygon fill="white" stroke="black" points="699.5,-0.5 699.5,-19.5 752.5,-19.5 752.5,-0.5 699.5,-0.5"/>
<text text-anchor="middle" x="726" y="-7.5" font-family="Helvetica,sans-Serif" font-size="10.00">describe</text>
</a>
</g>
</g>
<!-- Node4&#45;&gt;Node8 -->
<g id="edge7" class="edge">
<title>Node4&#45;&gt;Node8</title>
<path fill="none" stroke="midnightblue" d="M577.82,-154.37C603.81,-128.87 674.66,-59.38 707.66,-27.01"/>
<polygon fill="midnightblue" stroke="midnightblue" points="710.49,-29.13 715.18,-19.63 705.59,-24.13 710.49,-29.13"/>
</g>
<!-- Node10 -->
<g id="node10" class="node">
<title>Node10</title>
<g id="a_node10"><a xlink:href="namespaceconsole_1_1ge.html#a7e301813fd34fde772376afc5fdad95d" target="_top" xlink:title=" ">
<polygon fill="white" stroke="black" points="663,-228.5 663,-247.5 789,-247.5 789,-228.5 663,-228.5"/>
<text text-anchor="middle" x="726" y="-235.5" font-family="Helvetica,sans-Serif" font-size="10.00">console::ge::printNumber</text>
</a>
</g>
</g>
<!-- Node4&#45;&gt;Node10 -->
<g id="edge9" class="edge">
<title>Node4&#45;&gt;Node10</title>
<path fill="none" stroke="midnightblue" d="M584.87,-173.64C603.63,-184.18 635.01,-201.27 663,-214 671.24,-217.75 680.26,-221.46 688.8,-224.79"/>
<polygon fill="midnightblue" stroke="midnightblue" points="687.58,-228.07 698.17,-228.39 690.09,-221.54 687.58,-228.07"/>
</g>
<!-- Node4&#45;&gt;Node11 -->
<g id="edge19" class="edge">
<title>Node4&#45;&gt;Node11</title>
<path fill="none" stroke="midnightblue" d="M617.28,-173.51C672.25,-184.11 761.14,-201.26 819.83,-212.58"/>
<polygon fill="midnightblue" stroke="midnightblue" points="819.21,-216.03 829.69,-214.49 820.54,-209.16 819.21,-216.03"/>
</g>
<!-- Node9 -->
<g id="node9" class="node">
<title>Node9</title>
<g id="a_node9"><a xlink:href="namespacemonitor.html#a318993193c866642f8389a1c1f285739" target="_top" xlink:title=" ">
<polygon fill="white" stroke="black" points="843,-0.5 843,-19.5 917,-19.5 917,-0.5 843,-0.5"/>
<text text-anchor="middle" x="880" y="-7.5" font-family="Helvetica,sans-Serif" font-size="10.00">monitor::fuck</text>
</a>
</g>
</g>
<!-- Node8&#45;&gt;Node9 -->
<g id="edge8" class="edge">
<title>Node8&#45;&gt;Node9</title>
<path fill="none" stroke="midnightblue" d="M752.78,-10C774.62,-10 806.46,-10 832.7,-10"/>
<polygon fill="midnightblue" stroke="midnightblue" points="832.82,-13.5 842.82,-10 832.82,-6.5 832.82,-13.5"/>
</g>
<!-- Node10&#45;&gt;Node11 -->
<g id="edge10" class="edge">
<title>Node10&#45;&gt;Node11</title>
<path fill="none" stroke="midnightblue" d="M789.26,-232.27C797.66,-231.49 806.28,-230.7 814.71,-229.92"/>
<polygon fill="midnightblue" stroke="midnightblue" points="815.23,-233.39 824.86,-228.99 814.58,-226.42 815.23,-233.39"/>
</g>
<!-- Node12 -->
<g id="node12" class="node">
<title>Node12</title>
<g id="a_node12"><a xlink:href="namespaceconsole_1_1serial.html#a3a7c1f95ae3c24136ea63bb31fdf0391" target="_top" xlink:title=" ">
<polygon fill="white" stroke="black" points="971,-214.5 971,-233.5 1091,-233.5 1091,-214.5 971,-214.5"/>
<text text-anchor="middle" x="1031" y="-221.5" font-family="Helvetica,sans-Serif" font-size="10.00">console::serial::putChar</text>
</a>
</g>
</g>
<!-- Node11&#45;&gt;Node12 -->
<g id="edge11" class="edge">
<title>Node11&#45;&gt;Node12</title>
<path fill="none" stroke="midnightblue" d="M935.21,-224C943.53,-224 952.2,-224 960.79,-224"/>
<polygon fill="midnightblue" stroke="midnightblue" points="960.79,-227.5 970.79,-224 960.79,-220.5 960.79,-227.5"/>
</g>
<!-- Node15 -->
<g id="node15" class="node">
<title>Node15</title>
<g id="a_node15"><a xlink:href="namespaceconsole_1_1cga.html#afa19057ca041b39682d5d4831c43dfa0" target="_top" xlink:title=" ">
<polygon fill="white" stroke="black" points="974.5,-176.5 974.5,-195.5 1087.5,-195.5 1087.5,-176.5 974.5,-176.5"/>
<text text-anchor="middle" x="1031" y="-183.5" font-family="Helvetica,sans-Serif" font-size="10.00">console::cga::putChar</text>
</a>
</g>
</g>
<!-- Node11&#45;&gt;Node15 -->
<g id="edge14" class="edge">
<title>Node11&#45;&gt;Node15</title>
<path fill="none" stroke="midnightblue" d="M918.6,-214.41C938.08,-209.44 962.07,-203.32 982.8,-198.04"/>
<polygon fill="midnightblue" stroke="midnightblue" points="983.85,-201.38 992.67,-195.52 982.12,-194.6 983.85,-201.38"/>
</g>
<!-- Node13 -->
<g id="node13" class="node">
<title>Node13</title>
<g id="a_node13"><a xlink:href="namespaceconsole_1_1serial.html#aa5605d4537106bb1c2bab72d7d1a5824" target="_top" xlink:title=" ">
<polygon fill="white" stroke="black" points="1145,-214.5 1145,-233.5 1249,-233.5 1249,-214.5 1145,-214.5"/>
<text text-anchor="middle" x="1197" y="-221.5" font-family="Helvetica,sans-Serif" font-size="10.00">console::serial::sout</text>
</a>
</g>
</g>
<!-- Node12&#45;&gt;Node13 -->
<g id="edge12" class="edge">
<title>Node12&#45;&gt;Node13</title>
<path fill="none" stroke="midnightblue" d="M1091.21,-224C1105.31,-224 1120.39,-224 1134.59,-224"/>
<polygon fill="midnightblue" stroke="midnightblue" points="1134.74,-227.5 1144.74,-224 1134.74,-220.5 1134.74,-227.5"/>
</g>
<!-- Node14 -->
<g id="node14" class="node">
<title>Node14</title>
<g id="a_node14"><a xlink:href="x86_8h.html#ade961b44e45ddacbc3c3b7609cf36dc6" target="_top" xlink:title=" ">
<polygon fill="white" stroke="black" points="1314.5,-185.5 1314.5,-204.5 1349.5,-204.5 1349.5,-185.5 1314.5,-185.5"/>
<text text-anchor="middle" x="1332" y="-192.5" font-family="Helvetica,sans-Serif" font-size="10.00">outb</text>
</a>
</g>
</g>
<!-- Node13&#45;&gt;Node14 -->
<g id="edge13" class="edge">
<title>Node13&#45;&gt;Node14</title>
<path fill="none" stroke="midnightblue" d="M1241.92,-214.42C1262.57,-209.92 1286.51,-204.7 1304.37,-200.81"/>
<polygon fill="midnightblue" stroke="midnightblue" points="1305.35,-204.18 1314.37,-198.63 1303.85,-197.34 1305.35,-204.18"/>
</g>
<!-- Node16 -->
<g id="node16" class="node">
<title>Node16</title>
<g id="a_node16"><a xlink:href="namespacemem.html#a64d9d05b439041901498c606de606431" target="_top" xlink:title=" ">
<polygon fill="white" stroke="black" points="1164.5,-133.5 1164.5,-152.5 1229.5,-152.5 1229.5,-133.5 1164.5,-133.5"/>
<text text-anchor="middle" x="1197" y="-140.5" font-family="Helvetica,sans-Serif" font-size="10.00">mem::copy</text>
</a>
</g>
</g>
<!-- Node15&#45;&gt;Node16 -->
<g id="edge15" class="edge">
<title>Node15&#45;&gt;Node16</title>
<path fill="none" stroke="midnightblue" d="M1068.4,-176.46C1093.92,-169.77 1128.08,-160.81 1154.64,-153.85"/>
<polygon fill="midnightblue" stroke="midnightblue" points="1155.62,-157.21 1164.41,-151.28 1153.85,-150.43 1155.62,-157.21"/>
</g>
<!-- Node17 -->
<g id="node17" class="node">
<title>Node17</title>
<g id="a_node17"><a xlink:href="namespaceconsole_1_1cga.html#a06463d4dc68819e30615ba299d02a78f" target="_top" xlink:title=" ">
<polygon fill="white" stroke="black" points="1127,-176.5 1127,-195.5 1267,-195.5 1267,-176.5 1127,-176.5"/>
<text text-anchor="middle" x="1197" y="-183.5" font-family="Helvetica,sans-Serif" font-size="10.00">console::cga::cursorRefresh</text>
</a>
</g>
</g>
<!-- Node15&#45;&gt;Node17 -->
<g id="edge17" class="edge">
<title>Node15&#45;&gt;Node17</title>
<path fill="none" stroke="midnightblue" d="M1087.52,-186C1096.9,-186 1106.8,-186 1116.65,-186"/>
<polygon fill="midnightblue" stroke="midnightblue" points="1116.87,-189.5 1126.87,-186 1116.87,-182.5 1116.87,-189.5"/>
</g>
<!-- Node16&#45;&gt;Node7 -->
<g id="edge16" class="edge">
<title>Node16&#45;&gt;Node7</title>
<path fill="none" stroke="midnightblue" d="M1229.52,-141.82C1248.49,-141.1 1272.77,-140.19 1292.82,-139.44"/>
<polygon fill="midnightblue" stroke="midnightblue" points="1293.01,-142.93 1302.87,-139.06 1292.75,-135.94 1293.01,-142.93"/>
</g>
<!-- Node17&#45;&gt;Node14 -->
<g id="edge18" class="edge">
<title>Node17&#45;&gt;Node14</title>
<path fill="none" stroke="midnightblue" d="M1267.23,-190.68C1280.48,-191.58 1293.59,-192.47 1304.45,-193.2"/>
<polygon fill="midnightblue" stroke="midnightblue" points="1304.26,-196.7 1314.47,-193.88 1304.73,-189.71 1304.26,-196.7"/>
</g>
<!-- Node19 -->
<g id="node19" class="node">
<title>Node19</title>
<g id="a_node19"><a xlink:href="namespaceconsole_1_1err.html#a4cd18e4c409b5b17ecec61ce83b05fba" target="_top" xlink:title=" ">
<polygon fill="white" stroke="black" points="366,-304.5 366,-323.5 470,-323.5 470,-304.5 366,-304.5"/>
<text text-anchor="middle" x="418" y="-311.5" font-family="Helvetica,sans-Serif" font-size="10.00">console::err::printVa</text>
</a>
</g>
</g>
<!-- Node18&#45;&gt;Node19 -->
<g id="edge22" class="edge">
<title>Node18&#45;&gt;Node19</title>
<path fill="none" stroke="midnightblue" d="M172.31,-297.12C221.55,-300.52 300.51,-305.97 355.36,-309.75"/>
<polygon fill="midnightblue" stroke="midnightblue" points="355.44,-313.26 365.65,-310.46 355.92,-306.28 355.44,-313.26"/>
</g>
<!-- Node19&#45;&gt;Node4 -->
<g id="edge23" class="edge">
<title>Node19&#45;&gt;Node4</title>
<path fill="none" stroke="midnightblue" d="M428.65,-304.16C453.26,-279.04 518.63,-212.34 549.46,-180.88"/>
<polygon fill="midnightblue" stroke="midnightblue" points="552.01,-183.28 556.51,-173.68 547.01,-178.38 552.01,-183.28"/>
</g>
<!-- Node19&#45;&gt;Node11 -->
<g id="edge24" class="edge">
<title>Node19&#45;&gt;Node11</title>
<path fill="none" stroke="midnightblue" d="M470.2,-319.5C543.35,-325.43 680.86,-329.32 789,-290 817.79,-279.53 845.35,-256.81 862.22,-240.97"/>
<polygon fill="midnightblue" stroke="midnightblue" points="864.85,-243.3 869.6,-233.83 859.98,-238.27 864.85,-243.3"/>
</g>
<!-- Node21 -->
<g id="node21" class="node">
<title>Node21</title>
<g id="a_node21"><a xlink:href="namespaceconsole_1_1in.html#ac28354dad0498aa6bb0c178b10d62c8a" target="_top" xlink:title=" ">
<polygon fill="white" stroke="black" points="214,-227.5 214,-246.5 329,-246.5 329,-227.5 214,-227.5"/>
<text text-anchor="middle" x="271.5" y="-234.5" font-family="Helvetica,sans-Serif" font-size="10.00">console::in::readlineVa</text>
</a>
</g>
</g>
<!-- Node20&#45;&gt;Node21 -->
<g id="edge26" class="edge">
<title>Node20&#45;&gt;Node21</title>
<path fill="none" stroke="midnightblue" d="M178.4,-237C186.52,-237 195.02,-237 203.43,-237"/>
<polygon fill="midnightblue" stroke="midnightblue" points="203.62,-240.5 213.62,-237 203.62,-233.5 203.62,-240.5"/>
</g>
<!-- Node21&#45;&gt;Node3 -->
<g id="edge28" class="edge">
<title>Node21&#45;&gt;Node3</title>
<path fill="none" stroke="midnightblue" d="M292.9,-227.4C317.53,-215.81 359.17,-196.22 387.35,-182.95"/>
<polygon fill="midnightblue" stroke="midnightblue" points="389.15,-185.97 396.71,-178.55 386.17,-179.64 389.15,-185.97"/>
</g>
<!-- Node21&#45;&gt;Node11 -->
<g id="edge29" class="edge">
<title>Node21&#45;&gt;Node11</title>
<path fill="none" stroke="midnightblue" d="M310.49,-246.58C327.1,-250.31 346.9,-254.13 365,-256 552.45,-275.37 603.46,-289.94 789,-257 809.96,-253.28 832.44,-245.04 849.69,-237.72"/>
<polygon fill="midnightblue" stroke="midnightblue" points="851.43,-240.78 859.19,-233.57 848.63,-234.37 851.43,-240.78"/>
</g>
<!-- Node22 -->
<g id="node22" class="node">
<title>Node22</title>
<g id="a_node22"><a xlink:href="namespaceconsole_1_1in.html#a6fc069f2bc57fda183e3b991c31ec5a7" target="_top" xlink:title=" ">
<polygon fill="white" stroke="black" points="366,-227.5 366,-246.5 470,-246.5 470,-227.5 366,-227.5"/>
<text text-anchor="middle" x="418" y="-234.5" font-family="Helvetica,sans-Serif" font-size="10.00">console::in::getChar</text>
</a>
</g>
</g>
<!-- Node21&#45;&gt;Node22 -->
<g id="edge27" class="edge">
<title>Node21&#45;&gt;Node22</title>
<path fill="none" stroke="midnightblue" d="M329.2,-237C337.83,-237 346.78,-237 355.52,-237"/>
<polygon fill="midnightblue" stroke="midnightblue" points="355.64,-240.5 365.64,-237 355.64,-233.5 355.64,-240.5"/>
</g>
</g>
</svg>
        <g id="navigator" transform="translate(0 0)" fill="#404254">
                <rect fill="#f2f5e9" fill-opacity="0.5" stroke="#606060" stroke-width=".5" x="0" y="0" width="60" height="60"/>
                <use id="zoomplus" xlink:href="#zoomPlus" x="17" y="9" onmousedown="handleZoom(evt,'in')"/>
                <use id="zoomminus" xlink:href="#zoomMin" x="42" y="9" onmousedown="handleZoom(evt,'out')"/>
                <use id="reset" xlink:href="#resetDef" x="30" y="36" onmousedown="handleReset()"/>
                <g id="arrowUp" xlink:href="#dirArrow" transform="translate(30 24)" onmousedown="handlePan(0,-1)">
                  <use xlink:href="#rim" fill="#404040">
                        <set attributeName="fill" to="#808080" begin="arrowUp.mouseover" end="arrowUp.mouseout"/>
                  </use>
                  <path fill="none" stroke="white" stroke-width="1.5" d="M0,-3.0v7 M-2.5,-0.5L0,-3.0L2.5,-0.5"/>
                </g>
                <g id="arrowRight" xlink:href="#dirArrow" transform="rotate(90) translate(36 -43)" onmousedown="handlePan(1,0)">
                  <use xlink:href="#rim" fill="#404040">
                        <set attributeName="fill" to="#808080" begin="arrowRight.mouseover" end="arrowRight.mouseout"/>
                  </use>
                  <path fill="none" stroke="white" stroke-width="1.5" d="M0,-3.0v7 M-2.5,-0.5L0,-3.0L2.5,-0.5"/>
                </g>
                <g id="arrowDown" xlink:href="#dirArrow" transform="rotate(180) translate(-30 -48)" onmousedown="handlePan(0,1)">
                  <use xlink:href="#rim" fill="#404040">
                        <set attributeName="fill" to="#808080" begin="arrowDown.mouseover" end="arrowDown.mouseout"/>
                  </use>
                  <path fill="none" stroke="white" stroke-width="1.5" d="M0,-3.0v7 M-2.5,-0.5L0,-3.0L2.5,-0.5"/>
                </g>
                <g id="arrowLeft" xlink:href="#dirArrow" transform="rotate(270) translate(-36 17)" onmousedown="handlePan(-1,0)">
                  <use xlink:href="#rim" fill="#404040">
                        <set attributeName="fill" to="#808080" begin="arrowLeft.mouseover" end="arrowLeft.mouseout"/>
                  </use>
                  <path fill="none" stroke="white" stroke-width="1.5" d="M0,-3.0v7 M-2.5,-0.5L0,-3.0L2.5,-0.5"/>
                </g>
        </g>
        <svg viewBox="0 0 15 15" width="100%" height="30px" preserveAspectRatio="xMaxYMin meet">
         <g id="arrow_out" transform="scale(0.3 0.3)">
          <a xlink:href="umain_8cc_a3c04138a5bfe5d72780bb7e82a18e627_cgraph_org.svg" target="_base">
           <rect id="button" ry="5" rx="5" y="6" x="6" height="38" width="38"
                fill="#f2f5e9" fill-opacity="0.5" stroke="#606060" stroke-width="1.0"/>
           <path id="arrow"
             d="M 11.500037,31.436501 C 11.940474,20.09759 22.043105,11.32322 32.158766,21.979434 L 37.068811,17.246167 C 37.068811,17.246167 37.088388,32 37.088388,32 L 22.160133,31.978069 C 22.160133,31.978069 26.997745,27.140456 26.997745,27.140456 C 18.528582,18.264221 13.291696,25.230495 11.500037,31.436501 z"
             style="fill:#404040;"/>
          </a>
         </g>
        </svg>
</svg>
