<?xml version="1.0" encoding="UTF-8" standalone="no"?>
<!DOCTYPE svg PUBLIC "-//W3C//DTD SVG 1.1//EN"
 "http://www.w3.org/Graphics/SVG/1.1/DTD/svg11.dtd">
<!-- Generated by graphviz version 2.44.1 (20200629.0846)
 -->
<!-- Title: umain.cc Pages: 1 -->
<svg width="354pt" height="364pt"
 viewBox="0.00 0.00 353.64 364.00" xmlns="http://www.w3.org/2000/svg" xmlns:xlink="http://www.w3.org/1999/xlink">
<g id="graph0" class="graph" transform="scale(1 1) rotate(0) translate(4 360)">
<title>umain.cc</title>
<polygon fill="white" stroke="transparent" points="-4,4 -4,-360 349.64,-360 349.64,4 -4,4"/>
<!-- Node1 -->
<g id="node1" class="node">
<title>Node1</title>
<g id="a_node1"><a xlink:title=" ">
<polygon fill="#bfbfbf" stroke="black" points="38.14,-336.5 38.14,-355.5 94.14,-355.5 94.14,-336.5 38.14,-336.5"/>
<text text-anchor="middle" x="66.14" y="-343.5" font-family="Helvetica,sans-Serif" font-size="10.00">umain.cc</text>
</a>
</g>
</g>
<!-- Node2 -->
<g id="node2" class="node">
<title>Node2</title>
<g id="a_node2"><a xlink:href="stdlib_8hh.html" target="_top" xlink:title=" ">
<polygon fill="white" stroke="black" points="11.64,-280.5 11.64,-299.5 120.64,-299.5 120.64,-280.5 11.64,-280.5"/>
<text text-anchor="middle" x="66.14" y="-287.5" font-family="Helvetica,sans-Serif" font-size="10.00">user/include/stdlib.hh</text>
</a>
</g>
</g>
<!-- Node1&#45;&gt;Node2 -->
<g id="edge1" class="edge">
<title>Node1&#45;&gt;Node2</title>
<path fill="none" stroke="midnightblue" d="M66.14,-336.08C66.14,-329.01 66.14,-318.86 66.14,-309.99"/>
<polygon fill="midnightblue" stroke="midnightblue" points="69.64,-309.75 66.14,-299.75 62.64,-309.75 69.64,-309.75"/>
</g>
<!-- Node3 -->
<g id="node3" class="node">
<title>Node3</title>
<g id="a_node3"><a xlink:href="types_8h.html" target="_top" xlink:title=" ">
<polygon fill="white" stroke="black" points="104.64,-56.5 104.64,-75.5 187.64,-75.5 187.64,-56.5 104.64,-56.5"/>
<text text-anchor="middle" x="146.14" y="-63.5" font-family="Helvetica,sans-Serif" font-size="10.00">include/types.h</text>
</a>
</g>
</g>
<!-- Node2&#45;&gt;Node3 -->
<g id="edge2" class="edge">
<title>Node2&#45;&gt;Node3</title>
<path fill="none" stroke="midnightblue" d="M58.79,-280.4C36.46,-253.18 -26.68,-167.52 13.14,-112 31.57,-86.31 65.47,-75.1 94.43,-70.29"/>
<polygon fill="midnightblue" stroke="midnightblue" points="95.04,-73.74 104.43,-68.85 94.04,-66.81 95.04,-73.74"/>
</g>
<!-- Node7 -->
<g id="node7" class="node">
<title>Node7</title>
<g id="a_node7"><a xlink:href="syscall_8hh.html" target="_top" xlink:title=" ">
<polygon fill="white" stroke="black" points="22.64,-112.5 22.64,-131.5 117.64,-131.5 117.64,-112.5 22.64,-112.5"/>
<text text-anchor="middle" x="70.14" y="-119.5" font-family="Helvetica,sans-Serif" font-size="10.00">include/syscall.hh</text>
</a>
</g>
</g>
<!-- Node2&#45;&gt;Node7 -->
<g id="edge7" class="edge">
<title>Node2&#45;&gt;Node7</title>
<path fill="none" stroke="midnightblue" d="M66.36,-280.08C66.99,-253.95 68.84,-177.21 69.7,-141.58"/>
<polygon fill="midnightblue" stroke="midnightblue" points="73.2,-141.65 69.94,-131.57 66.2,-141.48 73.2,-141.65"/>
</g>
<!-- Node8 -->
<g id="node8" class="node">
<title>Node8</title>
<g id="a_node8"><a xlink:href="include_2trap_8hh.html" target="_top" xlink:title=" ">
<polygon fill="white" stroke="black" points="134.14,-224.5 134.14,-243.5 214.14,-243.5 214.14,-224.5 134.14,-224.5"/>
<text text-anchor="middle" x="174.14" y="-231.5" font-family="Helvetica,sans-Serif" font-size="10.00">include/trap.hh</text>
</a>
</g>
</g>
<!-- Node2&#45;&gt;Node8 -->
<g id="edge9" class="edge">
<title>Node2&#45;&gt;Node8</title>
<path fill="none" stroke="midnightblue" d="M83.5,-280.32C100.82,-271.66 127.66,-258.24 147.65,-248.25"/>
<polygon fill="midnightblue" stroke="midnightblue" points="149.46,-251.26 156.83,-243.65 146.33,-245 149.46,-251.26"/>
</g>
<!-- Node4 -->
<g id="node4" class="node">
<title>Node4</title>
<g id="a_node4"><a xlink:title=" ">
<polygon fill="white" stroke="#bfbfbf" points="18.14,-0.5 18.14,-19.5 70.14,-19.5 70.14,-0.5 18.14,-0.5"/>
<text text-anchor="middle" x="44.14" y="-7.5" font-family="Helvetica,sans-Serif" font-size="10.00">stddef.h</text>
</a>
</g>
</g>
<!-- Node3&#45;&gt;Node4 -->
<g id="edge3" class="edge">
<title>Node3&#45;&gt;Node4</title>
<path fill="none" stroke="midnightblue" d="M129.76,-56.32C113.47,-47.7 88.28,-34.36 69.43,-24.39"/>
<polygon fill="midnightblue" stroke="midnightblue" points="70.97,-21.24 60.49,-19.65 67.69,-27.43 70.97,-21.24"/>
</g>
<!-- Node5 -->
<g id="node5" class="node">
<title>Node5</title>
<g id="a_node5"><a xlink:title=" ">
<polygon fill="white" stroke="#bfbfbf" points="88.64,-0.5 88.64,-19.5 137.64,-19.5 137.64,-0.5 88.64,-0.5"/>
<text text-anchor="middle" x="113.14" y="-7.5" font-family="Helvetica,sans-Serif" font-size="10.00">stdint.h</text>
</a>
</g>
</g>
<!-- Node3&#45;&gt;Node5 -->
<g id="edge4" class="edge">
<title>Node3&#45;&gt;Node5</title>
<path fill="none" stroke="midnightblue" d="M140.69,-56.08C136.13,-48.61 129.48,-37.72 123.85,-28.52"/>
<polygon fill="midnightblue" stroke="midnightblue" points="126.69,-26.46 118.49,-19.75 120.72,-30.11 126.69,-26.46"/>
</g>
<!-- Node6 -->
<g id="node6" class="node">
<title>Node6</title>
<g id="a_node6"><a xlink:href="ctype_8h.html" target="_top" xlink:title=" ">
<polygon fill="white" stroke="black" points="155.64,-0.5 155.64,-19.5 204.64,-19.5 204.64,-0.5 155.64,-0.5"/>
<text text-anchor="middle" x="180.14" y="-7.5" font-family="Helvetica,sans-Serif" font-size="10.00">ctype.h</text>
</a>
</g>
</g>
<!-- Node3&#45;&gt;Node6 -->
<g id="edge5" class="edge">
<title>Node3&#45;&gt;Node6</title>
<path fill="none" stroke="midnightblue" d="M146.59,-56.08C149.82,-48.38 156.59,-37.03 163.37,-27.65"/>
<polygon fill="midnightblue" stroke="midnightblue" points="166.14,-29.8 169.5,-19.75 160.61,-25.5 166.14,-29.8"/>
</g>
<!-- Node6&#45;&gt;Node3 -->
<g id="edge6" class="edge">
<title>Node6&#45;&gt;Node3</title>
<path fill="none" stroke="midnightblue" d="M179.76,-19.75C176.59,-27.4 169.85,-38.74 163.06,-48.14"/>
<polygon fill="midnightblue" stroke="midnightblue" points="160.27,-46.03 156.92,-56.08 165.81,-50.31 160.27,-46.03"/>
</g>
<!-- Node7&#45;&gt;Node3 -->
<g id="edge8" class="edge">
<title>Node7&#45;&gt;Node3</title>
<path fill="none" stroke="midnightblue" d="M82.35,-112.32C93.92,-104.11 111.52,-91.6 125.3,-81.81"/>
<polygon fill="midnightblue" stroke="midnightblue" points="127.59,-84.48 133.71,-75.83 123.53,-78.77 127.59,-84.48"/>
</g>
<!-- Node9 -->
<g id="node9" class="node">
<title>Node9</title>
<g id="a_node9"><a xlink:href="string_8hh.html" target="_top" xlink:title=" ">
<polygon fill="white" stroke="black" points="94.14,-168.5 94.14,-187.5 182.14,-187.5 182.14,-168.5 94.14,-168.5"/>
<text text-anchor="middle" x="138.14" y="-175.5" font-family="Helvetica,sans-Serif" font-size="10.00">include/string.hh</text>
</a>
</g>
</g>
<!-- Node8&#45;&gt;Node9 -->
<g id="edge10" class="edge">
<title>Node8&#45;&gt;Node9</title>
<path fill="none" stroke="midnightblue" d="M168.2,-224.08C163.17,-216.53 155.81,-205.49 149.63,-196.23"/>
<polygon fill="midnightblue" stroke="midnightblue" points="152.44,-194.13 143.98,-187.75 146.61,-198.01 152.44,-194.13"/>
</g>
<!-- Node10 -->
<g id="node10" class="node">
<title>Node10</title>
<g id="a_node10"><a xlink:href="mmu_8h.html" target="_top" xlink:title=" ">
<polygon fill="white" stroke="black" points="174.14,-112.5 174.14,-131.5 254.14,-131.5 254.14,-112.5 174.14,-112.5"/>
<text text-anchor="middle" x="214.14" y="-119.5" font-family="Helvetica,sans-Serif" font-size="10.00">include/mmu.h</text>
</a>
</g>
</g>
<!-- Node8&#45;&gt;Node10 -->
<g id="edge12" class="edge">
<title>Node8&#45;&gt;Node10</title>
<path fill="none" stroke="midnightblue" d="M177.46,-224.39C180.92,-215.35 186.5,-200.71 191.14,-188 196.86,-172.37 203.15,-154.54 207.71,-141.51"/>
<polygon fill="midnightblue" stroke="midnightblue" points="211.09,-142.45 211.08,-131.85 204.48,-140.14 211.09,-142.45"/>
</g>
<!-- Node11 -->
<g id="node11" class="node">
<title>Node11</title>
<g id="a_node11"><a xlink:href="memlayout_8h.html" target="_top" xlink:title=" ">
<polygon fill="white" stroke="black" points="238.64,-168.5 238.64,-187.5 345.64,-187.5 345.64,-168.5 238.64,-168.5"/>
<text text-anchor="middle" x="292.14" y="-175.5" font-family="Helvetica,sans-Serif" font-size="10.00">include/memlayout.h</text>
</a>
</g>
</g>
<!-- Node8&#45;&gt;Node11 -->
<g id="edge14" class="edge">
<title>Node8&#45;&gt;Node11</title>
<path fill="none" stroke="midnightblue" d="M192.84,-224.44C212.09,-215.64 242.3,-201.81 264.34,-191.72"/>
<polygon fill="midnightblue" stroke="midnightblue" points="265.9,-194.86 273.53,-187.52 262.98,-188.5 265.9,-194.86"/>
</g>
<!-- Node9&#45;&gt;Node3 -->
<g id="edge11" class="edge">
<title>Node9&#45;&gt;Node3</title>
<path fill="none" stroke="midnightblue" d="M138.77,-168.37C140.06,-150.62 143.04,-109.67 144.79,-85.6"/>
<polygon fill="midnightblue" stroke="midnightblue" points="148.28,-85.82 145.52,-75.59 141.3,-85.31 148.28,-85.82"/>
</g>
<!-- Node10&#45;&gt;Node3 -->
<g id="edge13" class="edge">
<title>Node10&#45;&gt;Node3</title>
<path fill="none" stroke="midnightblue" d="M203.22,-112.32C192.97,-104.18 177.42,-91.84 165.14,-82.09"/>
<polygon fill="midnightblue" stroke="midnightblue" points="167.28,-79.31 157.27,-75.83 162.92,-84.79 167.28,-79.31"/>
</g>
<!-- Node11&#45;&gt;Node3 -->
<g id="edge15" class="edge">
<title>Node11&#45;&gt;Node3</title>
<path fill="none" stroke="midnightblue" d="M290.47,-168.18C287.4,-154.38 279.64,-127.65 263.14,-112 245.13,-94.91 219.93,-84.11 197.52,-77.39"/>
<polygon fill="midnightblue" stroke="midnightblue" points="198.37,-74 187.79,-74.67 196.48,-80.74 198.37,-74"/>
</g>
<!-- Node11&#45;&gt;Node10 -->
<g id="edge16" class="edge">
<title>Node11&#45;&gt;Node10</title>
<path fill="none" stroke="midnightblue" d="M279.61,-168.32C267.56,-159.98 249.12,-147.21 234.87,-137.35"/>
<polygon fill="midnightblue" stroke="midnightblue" points="236.86,-134.47 226.64,-131.65 232.87,-140.22 236.86,-134.47"/>
</g>
</g>
</svg>
