<?xml version="1.0" encoding="UTF-8" standalone="no"?>
<!DOCTYPE svg PUBLIC "-//W3C//DTD SVG 1.1//EN"
 "http://www.w3.org/Graphics/SVG/1.1/DTD/svg11.dtd">
<!-- Generated by graphviz version 2.44.1 (20200629.0846)
 -->
<!-- Title: readline.cc Pages: 1 -->
<svg width="731pt" height="364pt"
 viewBox="0.00 0.00 731.00 364.00" xmlns="http://www.w3.org/2000/svg" xmlns:xlink="http://www.w3.org/1999/xlink">
<g id="graph0" class="graph" transform="scale(1 1) rotate(0) translate(4 360)">
<title>readline.cc</title>
<polygon fill="white" stroke="transparent" points="-4,4 -4,-360 727,-360 727,4 -4,4"/>
<!-- Node1 -->
<g id="node1" class="node">
<title>Node1</title>
<g id="a_node1"><a xlink:title=" ">
<polygon fill="#bfbfbf" stroke="black" points="373,-336.5 373,-355.5 437,-355.5 437,-336.5 373,-336.5"/>
<text text-anchor="middle" x="405" y="-343.5" font-family="Helvetica,sans-Serif" font-size="10.00">readline.cc</text>
</a>
</g>
</g>
<!-- Node2 -->
<g id="node2" class="node">
<title>Node2</title>
<g id="a_node2"><a xlink:href="stdio_8hh.html" target="_top" xlink:title=" ">
<polygon fill="white" stroke="black" points="124.5,-280.5 124.5,-299.5 209.5,-299.5 209.5,-280.5 124.5,-280.5"/>
<text text-anchor="middle" x="167" y="-287.5" font-family="Helvetica,sans-Serif" font-size="10.00">include/stdio.hh</text>
</a>
</g>
</g>
<!-- Node1&#45;&gt;Node2 -->
<g id="edge1" class="edge">
<title>Node1&#45;&gt;Node2</title>
<path fill="none" stroke="midnightblue" d="M372.9,-337.72C332.24,-328.49 261.81,-312.51 214.81,-301.85"/>
<polygon fill="midnightblue" stroke="midnightblue" points="215.39,-298.39 204.86,-299.59 213.84,-305.22 215.39,-298.39"/>
</g>
<!-- Node10 -->
<g id="node10" class="node">
<title>Node10</title>
<g id="a_node10"><a xlink:href="ctype_8h.html" target="_top" xlink:title=" ">
<polygon fill="white" stroke="black" points="557.5,-0.5 557.5,-19.5 606.5,-19.5 606.5,-0.5 557.5,-0.5"/>
<text text-anchor="middle" x="582" y="-7.5" font-family="Helvetica,sans-Serif" font-size="10.00">ctype.h</text>
</a>
</g>
</g>
<!-- Node1&#45;&gt;Node10 -->
<g id="edge26" class="edge">
<title>Node1&#45;&gt;Node10</title>
<path fill="none" stroke="midnightblue" d="M437.24,-340.85C518.09,-329.56 723,-295.02 723,-235 723,-235 723,-235 723,-121 723,-66.96 657.83,-35.56 616.1,-20.99"/>
<polygon fill="midnightblue" stroke="midnightblue" points="617.15,-17.65 606.56,-17.81 614.94,-24.29 617.15,-17.65"/>
</g>
<!-- Node13 -->
<g id="node13" class="node">
<title>Node13</title>
<g id="a_node13"><a xlink:href="stdlib_8hh.html" target="_top" xlink:title=" ">
<polygon fill="white" stroke="black" points="350.5,-280.5 350.5,-299.5 459.5,-299.5 459.5,-280.5 350.5,-280.5"/>
<text text-anchor="middle" x="405" y="-287.5" font-family="Helvetica,sans-Serif" font-size="10.00">user/include/stdlib.hh</text>
</a>
</g>
</g>
<!-- Node1&#45;&gt;Node13 -->
<g id="edge14" class="edge">
<title>Node1&#45;&gt;Node13</title>
<path fill="none" stroke="midnightblue" d="M405,-336.08C405,-329.01 405,-318.86 405,-309.99"/>
<polygon fill="midnightblue" stroke="midnightblue" points="408.5,-309.75 405,-299.75 401.5,-309.75 408.5,-309.75"/>
</g>
<!-- Node3 -->
<g id="node3" class="node">
<title>Node3</title>
<g id="a_node3"><a xlink:href="stdin_8hh.html" target="_top" xlink:title=" ">
<polygon fill="white" stroke="black" points="10.5,-224.5 10.5,-243.5 95.5,-243.5 95.5,-224.5 10.5,-224.5"/>
<text text-anchor="middle" x="53" y="-231.5" font-family="Helvetica,sans-Serif" font-size="10.00">include/stdin.hh</text>
</a>
</g>
</g>
<!-- Node2&#45;&gt;Node3 -->
<g id="edge2" class="edge">
<title>Node2&#45;&gt;Node3</title>
<path fill="none" stroke="midnightblue" d="M148.94,-280.44C130.43,-271.68 101.42,-257.94 80.14,-247.86"/>
<polygon fill="midnightblue" stroke="midnightblue" points="81.51,-244.63 70.98,-243.52 78.52,-250.96 81.51,-244.63"/>
</g>
<!-- Node6 -->
<g id="node6" class="node">
<title>Node6</title>
<g id="a_node6"><a xlink:href="stdout_8hh.html" target="_top" xlink:title=" ">
<polygon fill="white" stroke="black" points="121.5,-224.5 121.5,-243.5 212.5,-243.5 212.5,-224.5 121.5,-224.5"/>
<text text-anchor="middle" x="167" y="-231.5" font-family="Helvetica,sans-Serif" font-size="10.00">include/stdout.hh</text>
</a>
</g>
</g>
<!-- Node2&#45;&gt;Node6 -->
<g id="edge5" class="edge">
<title>Node2&#45;&gt;Node6</title>
<path fill="none" stroke="midnightblue" d="M167,-280.08C167,-273.01 167,-262.86 167,-253.99"/>
<polygon fill="midnightblue" stroke="midnightblue" points="170.5,-253.75 167,-243.75 163.5,-253.75 170.5,-253.75"/>
</g>
<!-- Node4 -->
<g id="node4" class="node">
<title>Node4</title>
<g id="a_node4"><a xlink:href="vargs_8hh.html" target="_top" xlink:title=" ">
<polygon fill="white" stroke="black" points="0,-168.5 0,-187.5 88,-187.5 88,-168.5 0,-168.5"/>
<text text-anchor="middle" x="44" y="-175.5" font-family="Helvetica,sans-Serif" font-size="10.00">include/vargs.hh</text>
</a>
</g>
</g>
<!-- Node3&#45;&gt;Node4 -->
<g id="edge3" class="edge">
<title>Node3&#45;&gt;Node4</title>
<path fill="none" stroke="midnightblue" d="M51.51,-224.08C50.32,-216.93 48.61,-206.64 47.12,-197.69"/>
<polygon fill="midnightblue" stroke="midnightblue" points="50.55,-197.04 45.46,-187.75 43.65,-198.19 50.55,-197.04"/>
</g>
<!-- Node5 -->
<g id="node5" class="node">
<title>Node5</title>
<g id="a_node5"><a xlink:title=" ">
<polygon fill="white" stroke="#bfbfbf" points="19.5,-112.5 19.5,-131.5 68.5,-131.5 68.5,-112.5 19.5,-112.5"/>
<text text-anchor="middle" x="44" y="-119.5" font-family="Helvetica,sans-Serif" font-size="10.00">cstdarg</text>
</a>
</g>
</g>
<!-- Node4&#45;&gt;Node5 -->
<g id="edge4" class="edge">
<title>Node4&#45;&gt;Node5</title>
<path fill="none" stroke="midnightblue" d="M44,-168.08C44,-161.01 44,-150.86 44,-141.99"/>
<polygon fill="midnightblue" stroke="midnightblue" points="47.5,-141.75 44,-131.75 40.5,-141.75 47.5,-141.75"/>
</g>
<!-- Node6&#45;&gt;Node4 -->
<g id="edge11" class="edge">
<title>Node6&#45;&gt;Node4</title>
<path fill="none" stroke="midnightblue" d="M147.51,-224.44C127.36,-215.6 95.68,-201.69 72.67,-191.59"/>
<polygon fill="midnightblue" stroke="midnightblue" points="73.96,-188.33 63.4,-187.52 71.15,-194.74 73.96,-188.33"/>
</g>
<!-- Node7 -->
<g id="node7" class="node">
<title>Node7</title>
<g id="a_node7"><a xlink:href="types_8h.html" target="_top" xlink:title=" ">
<polygon fill="white" stroke="black" points="473.5,-56.5 473.5,-75.5 556.5,-75.5 556.5,-56.5 473.5,-56.5"/>
<text text-anchor="middle" x="515" y="-63.5" font-family="Helvetica,sans-Serif" font-size="10.00">include/types.h</text>
</a>
</g>
</g>
<!-- Node6&#45;&gt;Node7 -->
<g id="edge6" class="edge">
<title>Node6&#45;&gt;Node7</title>
<path fill="none" stroke="midnightblue" d="M157.12,-224.47C143.33,-211.51 121.43,-186.44 135,-168 173.9,-115.16 368.67,-84.72 463.27,-72.84"/>
<polygon fill="midnightblue" stroke="midnightblue" points="463.71,-76.31 473.2,-71.62 462.85,-69.37 463.71,-76.31"/>
</g>
<!-- Node11 -->
<g id="node11" class="node">
<title>Node11</title>
<g id="a_node11"><a xlink:href="color_8h.html" target="_top" xlink:title=" ">
<polygon fill="white" stroke="black" points="144.5,-168.5 144.5,-187.5 223.5,-187.5 223.5,-168.5 144.5,-168.5"/>
<text text-anchor="middle" x="184" y="-175.5" font-family="Helvetica,sans-Serif" font-size="10.00">include/color.h</text>
</a>
</g>
</g>
<!-- Node6&#45;&gt;Node11 -->
<g id="edge12" class="edge">
<title>Node6&#45;&gt;Node11</title>
<path fill="none" stroke="midnightblue" d="M169.81,-224.08C172.08,-216.85 175.37,-206.41 178.21,-197.4"/>
<polygon fill="midnightblue" stroke="midnightblue" points="181.58,-198.34 181.25,-187.75 174.9,-196.24 181.58,-198.34"/>
</g>
<!-- Node12 -->
<g id="node12" class="node">
<title>Node12</title>
<g id="a_node12"><a xlink:title=" ">
<polygon fill="white" stroke="#bfbfbf" points="241.5,-168.5 241.5,-187.5 300.5,-187.5 300.5,-168.5 241.5,-168.5"/>
<text text-anchor="middle" x="271" y="-175.5" font-family="Helvetica,sans-Serif" font-size="10.00">functional</text>
</a>
</g>
</g>
<!-- Node6&#45;&gt;Node12 -->
<g id="edge13" class="edge">
<title>Node6&#45;&gt;Node12</title>
<path fill="none" stroke="midnightblue" d="M183.71,-224.32C200.31,-215.7 226,-202.36 245.22,-192.39"/>
<polygon fill="midnightblue" stroke="midnightblue" points="247.07,-195.37 254.33,-187.65 243.84,-189.16 247.07,-195.37"/>
</g>
<!-- Node8 -->
<g id="node8" class="node">
<title>Node8</title>
<g id="a_node8"><a xlink:title=" ">
<polygon fill="white" stroke="#bfbfbf" points="420,-0.5 420,-19.5 472,-19.5 472,-0.5 420,-0.5"/>
<text text-anchor="middle" x="446" y="-7.5" font-family="Helvetica,sans-Serif" font-size="10.00">stddef.h</text>
</a>
</g>
</g>
<!-- Node7&#45;&gt;Node8 -->
<g id="edge7" class="edge">
<title>Node7&#45;&gt;Node8</title>
<path fill="none" stroke="midnightblue" d="M503.91,-56.32C493.51,-48.18 477.74,-35.84 465.28,-26.09"/>
<polygon fill="midnightblue" stroke="midnightblue" points="467.32,-23.24 457.29,-19.83 463.01,-28.75 467.32,-23.24"/>
</g>
<!-- Node9 -->
<g id="node9" class="node">
<title>Node9</title>
<g id="a_node9"><a xlink:title=" ">
<polygon fill="white" stroke="#bfbfbf" points="490.5,-0.5 490.5,-19.5 539.5,-19.5 539.5,-0.5 490.5,-0.5"/>
<text text-anchor="middle" x="515" y="-7.5" font-family="Helvetica,sans-Serif" font-size="10.00">stdint.h</text>
</a>
</g>
</g>
<!-- Node7&#45;&gt;Node9 -->
<g id="edge8" class="edge">
<title>Node7&#45;&gt;Node9</title>
<path fill="none" stroke="midnightblue" d="M515,-56.08C515,-49.01 515,-38.86 515,-29.99"/>
<polygon fill="midnightblue" stroke="midnightblue" points="518.5,-29.75 515,-19.75 511.5,-29.75 518.5,-29.75"/>
</g>
<!-- Node7&#45;&gt;Node10 -->
<g id="edge9" class="edge">
<title>Node7&#45;&gt;Node10</title>
<path fill="none" stroke="midnightblue" d="M520.65,-56.32C529.12,-48.06 544.44,-35.45 557.77,-25.63"/>
<polygon fill="midnightblue" stroke="midnightblue" points="560.04,-28.31 566.15,-19.65 555.98,-22.61 560.04,-28.31"/>
</g>
<!-- Node10&#45;&gt;Node7 -->
<g id="edge10" class="edge">
<title>Node10&#45;&gt;Node7</title>
<path fill="none" stroke="midnightblue" d="M576.19,-19.83C567.69,-28.11 552.47,-40.62 539.21,-50.38"/>
<polygon fill="midnightblue" stroke="midnightblue" points="536.99,-47.67 530.88,-56.32 541.05,-53.37 536.99,-47.67"/>
</g>
<!-- Node13&#45;&gt;Node7 -->
<g id="edge15" class="edge">
<title>Node13&#45;&gt;Node7</title>
<path fill="none" stroke="midnightblue" d="M397.18,-280.32C373.41,-252.87 306.18,-166.58 348,-112 362.06,-93.65 419.64,-81.09 463.29,-74"/>
<polygon fill="midnightblue" stroke="midnightblue" points="463.88,-77.45 473.21,-72.44 462.79,-70.53 463.88,-77.45"/>
</g>
<!-- Node14 -->
<g id="node14" class="node">
<title>Node14</title>
<g id="a_node14"><a xlink:href="syscall_8hh.html" target="_top" xlink:title=" ">
<polygon fill="white" stroke="black" points="357.5,-112.5 357.5,-131.5 452.5,-131.5 452.5,-112.5 357.5,-112.5"/>
<text text-anchor="middle" x="405" y="-119.5" font-family="Helvetica,sans-Serif" font-size="10.00">include/syscall.hh</text>
</a>
</g>
</g>
<!-- Node13&#45;&gt;Node14 -->
<g id="edge16" class="edge">
<title>Node13&#45;&gt;Node14</title>
<path fill="none" stroke="midnightblue" d="M405,-280.08C405,-253.95 405,-177.21 405,-141.58"/>
<polygon fill="midnightblue" stroke="midnightblue" points="408.5,-141.57 405,-131.57 401.5,-141.57 408.5,-141.57"/>
</g>
<!-- Node15 -->
<g id="node15" class="node">
<title>Node15</title>
<g id="a_node15"><a xlink:href="include_2trap_8hh.html" target="_top" xlink:title=" ">
<polygon fill="white" stroke="black" points="494,-224.5 494,-243.5 574,-243.5 574,-224.5 494,-224.5"/>
<text text-anchor="middle" x="534" y="-231.5" font-family="Helvetica,sans-Serif" font-size="10.00">include/trap.hh</text>
</a>
</g>
</g>
<!-- Node13&#45;&gt;Node15 -->
<g id="edge18" class="edge">
<title>Node13&#45;&gt;Node15</title>
<path fill="none" stroke="midnightblue" d="M425.44,-280.44C446.67,-271.56 480.1,-257.56 504.25,-247.45"/>
<polygon fill="midnightblue" stroke="midnightblue" points="505.78,-250.61 513.66,-243.52 503.08,-244.15 505.78,-250.61"/>
</g>
<!-- Node14&#45;&gt;Node7 -->
<g id="edge17" class="edge">
<title>Node14&#45;&gt;Node7</title>
<path fill="none" stroke="midnightblue" d="M422.67,-112.32C440.39,-103.62 467.9,-90.12 488.29,-80.11"/>
<polygon fill="midnightblue" stroke="midnightblue" points="489.94,-83.2 497.37,-75.65 486.85,-76.92 489.94,-83.2"/>
</g>
<!-- Node16 -->
<g id="node16" class="node">
<title>Node16</title>
<g id="a_node16"><a xlink:href="string_8hh.html" target="_top" xlink:title=" ">
<polygon fill="white" stroke="black" points="471,-112.5 471,-131.5 559,-131.5 559,-112.5 471,-112.5"/>
<text text-anchor="middle" x="515" y="-119.5" font-family="Helvetica,sans-Serif" font-size="10.00">include/string.hh</text>
</a>
</g>
</g>
<!-- Node15&#45;&gt;Node16 -->
<g id="edge19" class="edge">
<title>Node15&#45;&gt;Node16</title>
<path fill="none" stroke="midnightblue" d="M532.51,-224.37C529.44,-206.62 522.37,-165.67 518.21,-141.6"/>
<polygon fill="midnightblue" stroke="midnightblue" points="521.64,-140.85 516.48,-131.59 514.74,-142.04 521.64,-140.85"/>
</g>
<!-- Node17 -->
<g id="node17" class="node">
<title>Node17</title>
<g id="a_node17"><a xlink:href="mmu_8h.html" target="_top" xlink:title=" ">
<polygon fill="white" stroke="black" points="577,-112.5 577,-131.5 657,-131.5 657,-112.5 577,-112.5"/>
<text text-anchor="middle" x="617" y="-119.5" font-family="Helvetica,sans-Serif" font-size="10.00">include/mmu.h</text>
</a>
</g>
</g>
<!-- Node15&#45;&gt;Node17 -->
<g id="edge21" class="edge">
<title>Node15&#45;&gt;Node17</title>
<path fill="none" stroke="midnightblue" d="M538.26,-224.14C544.68,-211.2 557.63,-186.63 572,-168 580.17,-157.42 590.66,-146.79 599.46,-138.52"/>
<polygon fill="midnightblue" stroke="midnightblue" points="601.94,-140.99 606.95,-131.66 597.22,-135.83 601.94,-140.99"/>
</g>
<!-- Node18 -->
<g id="node18" class="node">
<title>Node18</title>
<g id="a_node18"><a xlink:href="memlayout_8h.html" target="_top" xlink:title=" ">
<polygon fill="white" stroke="black" points="581.5,-168.5 581.5,-187.5 688.5,-187.5 688.5,-168.5 581.5,-168.5"/>
<text text-anchor="middle" x="635" y="-175.5" font-family="Helvetica,sans-Serif" font-size="10.00">include/memlayout.h</text>
</a>
</g>
</g>
<!-- Node15&#45;&gt;Node18 -->
<g id="edge23" class="edge">
<title>Node15&#45;&gt;Node18</title>
<path fill="none" stroke="midnightblue" d="M550.23,-224.32C566.35,-215.7 591.3,-202.36 609.96,-192.39"/>
<polygon fill="midnightblue" stroke="midnightblue" points="611.64,-195.46 618.81,-187.65 608.34,-189.28 611.64,-195.46"/>
</g>
<!-- Node16&#45;&gt;Node7 -->
<g id="edge20" class="edge">
<title>Node16&#45;&gt;Node7</title>
<path fill="none" stroke="midnightblue" d="M515,-112.08C515,-105.01 515,-94.86 515,-85.99"/>
<polygon fill="midnightblue" stroke="midnightblue" points="518.5,-85.75 515,-75.75 511.5,-85.75 518.5,-85.75"/>
</g>
<!-- Node17&#45;&gt;Node7 -->
<g id="edge22" class="edge">
<title>Node17&#45;&gt;Node7</title>
<path fill="none" stroke="midnightblue" d="M600.61,-112.32C584.33,-103.7 559.13,-90.36 540.28,-80.39"/>
<polygon fill="midnightblue" stroke="midnightblue" points="541.82,-77.24 531.35,-75.65 538.55,-83.43 541.82,-77.24"/>
</g>
<!-- Node18&#45;&gt;Node7 -->
<g id="edge24" class="edge">
<title>Node18&#45;&gt;Node7</title>
<path fill="none" stroke="midnightblue" d="M644.68,-168.42C658.19,-155.4 679.6,-130.24 666,-112 643.33,-81.59 600.92,-70.92 566.8,-67.53"/>
<polygon fill="midnightblue" stroke="midnightblue" points="566.76,-64.01 556.51,-66.7 566.2,-70.99 566.76,-64.01"/>
</g>
<!-- Node18&#45;&gt;Node17 -->
<g id="edge25" class="edge">
<title>Node18&#45;&gt;Node17</title>
<path fill="none" stroke="midnightblue" d="M632.03,-168.08C629.62,-160.85 626.14,-150.41 623.13,-141.4"/>
<polygon fill="midnightblue" stroke="midnightblue" points="626.4,-140.13 619.92,-131.75 619.76,-142.34 626.4,-140.13"/>
</g>
</g>
</svg>
