<?xml version="1.0" encoding="UTF-8" standalone="no"?>
<!DOCTYPE svg PUBLIC "-//W3C//DTD SVG 1.1//EN"
 "http://www.w3.org/Graphics/SVG/1.1/DTD/svg11.dtd">
<!-- Generated by graphviz version 2.44.1 (20200629.0846)
 -->
<!-- Title: printf.cc Pages: 1 -->
<!--zoomable 364 -->
<svg id="main" version="1.1" xmlns="http://www.w3.org/2000/svg" xmlns:xlink="http://www.w3.org/1999/xlink" xml:space="preserve" onload="init(evt)">
<style type="text/css"><![CDATA[
.edge:hover path { stroke: red; }
.edge:hover polygon { stroke: red; fill: red; }
]]></style>
<script type="text/javascript"><![CDATA[
var edges = document.getElementsByTagName('g');
if (edges && edges.length) {
  for (var i=0;i<edges.length;i++) {
    if (edges[i].id.substr(0,4)=='edge') {
      edges[i].setAttribute('class','edge');
    }
  }
}
]]></script>
        <defs>
                <circle id="rim" cx="0" cy="0" r="7"/>
                <circle id="rim2" cx="0" cy="0" r="3.5"/>
                <g id="zoomPlus">
                        <use xlink:href="#rim" fill="#404040">
                                <set attributeName="fill" to="#808080" begin="zoomplus.mouseover" end="zoomplus.mouseout"/>
                        </use>
                        <path d="M-4,0h8M0,-4v8" fill="none" stroke="white" stroke-width="1.5" pointer-events="none"/>
                </g>
                <g id="zoomMin">
                        <use xlink:href="#rim" fill="#404040">
                                <set attributeName="fill" to="#808080" begin="zoomminus.mouseover" end="zoomminus.mouseout"/>
                        </use>
                        <path d="M-4,0h8" fill="none" stroke="white" stroke-width="1.5" pointer-events="none"/>
                </g>
                <g id="dirArrow">
                        <path fill="none" stroke="white" stroke-width="1.5" d="M0,-3.0v7 M-2.5,-0.5L0,-3.0L2.5,-0.5"/>
                </g>
               <g id="resetDef">
                       <use xlink:href="#rim2" fill="#404040">
                               <set attributeName="fill" to="#808080" begin="reset.mouseover" end="reset.mouseout"/>
                       </use>
               </g>
        </defs>

<script type="text/javascript">
var viewWidth = 673;
var viewHeight = 364;
var sectionId = 'dynsection-0';
</script>
<script xlink:href="svgpan.js"/>
<svg id="graph" class="graph">
<g id="viewport">
<title>printf.cc</title>
<polygon fill="white" stroke="transparent" points="-4,4 -4,-360 669.13,-360 669.13,4 -4,4"/>
<!-- Node1 -->
<g id="node1" class="node">
<title>Node1</title>
<g id="a_node1"><a xlink:title=" ">
<polygon fill="#bfbfbf" stroke="black" points="206.63,-336.5 206.63,-355.5 258.63,-355.5 258.63,-336.5 206.63,-336.5"/>
<text text-anchor="middle" x="232.63" y="-343.5" font-family="Helvetica,sans-Serif" font-size="10.00">printf.cc</text>
</a>
</g>
</g>
<!-- Node2 -->
<g id="node2" class="node">
<title>Node2</title>
<g id="a_node2"><a xlink:href="stdout_8hh.html" target="_top" xlink:title=" ">
<polygon fill="white" stroke="black" points="115.13,-280.5 115.13,-299.5 206.13,-299.5 206.13,-280.5 115.13,-280.5"/>
<text text-anchor="middle" x="160.63" y="-287.5" font-family="Helvetica,sans-Serif" font-size="10.00">include/stdout.hh</text>
</a>
</g>
</g>
<!-- Node1&#45;&gt;Node2 -->
<g id="edge1" class="edge">
<title>Node1&#45;&gt;Node2</title>
<path fill="none" stroke="midnightblue" d="M221.06,-336.32C210.21,-328.18 193.75,-315.84 180.74,-306.09"/>
<polygon fill="midnightblue" stroke="midnightblue" points="182.51,-303.03 172.41,-299.83 178.31,-308.63 182.51,-303.03"/>
</g>
<!-- Node11 -->
<g id="node11" class="node">
<title>Node11</title>
<g id="a_node11"><a xlink:href="stdlib_8hh.html" target="_top" xlink:title=" ">
<polygon fill="white" stroke="black" points="289.13,-280.5 289.13,-299.5 398.13,-299.5 398.13,-280.5 289.13,-280.5"/>
<text text-anchor="middle" x="343.63" y="-287.5" font-family="Helvetica,sans-Serif" font-size="10.00">user/include/stdlib.hh</text>
</a>
</g>
</g>
<!-- Node1&#45;&gt;Node11 -->
<g id="edge11" class="edge">
<title>Node1&#45;&gt;Node11</title>
<path fill="none" stroke="midnightblue" d="M250.46,-336.32C268.34,-327.62 296.1,-314.12 316.67,-304.11"/>
<polygon fill="midnightblue" stroke="midnightblue" points="318.38,-307.18 325.84,-299.65 315.31,-300.88 318.38,-307.18"/>
</g>
<!-- Node3 -->
<g id="node3" class="node">
<title>Node3</title>
<g id="a_node3"><a xlink:href="types_8h.html" target="_top" xlink:title=" ">
<polygon fill="white" stroke="black" points="395.13,-56.5 395.13,-75.5 478.13,-75.5 478.13,-56.5 395.13,-56.5"/>
<text text-anchor="middle" x="436.63" y="-63.5" font-family="Helvetica,sans-Serif" font-size="10.00">include/types.h</text>
</a>
</g>
</g>
<!-- Node2&#45;&gt;Node3 -->
<g id="edge2" class="edge">
<title>Node2&#45;&gt;Node3</title>
<path fill="none" stroke="midnightblue" d="M114.94,-281.91C74.14,-274.53 18.84,-261.59 5.63,-244 -9.67,-223.64 9.81,-182.28 25.63,-168 78.5,-120.27 287.04,-86.9 385.12,-73.52"/>
<polygon fill="midnightblue" stroke="midnightblue" points="385.67,-76.98 395.11,-72.18 384.73,-70.04 385.67,-76.98"/>
</g>
<!-- Node7 -->
<g id="node7" class="node">
<title>Node7</title>
<g id="a_node7"><a xlink:href="vargs_8hh.html" target="_top" xlink:title=" ">
<polygon fill="white" stroke="black" points="14.63,-224.5 14.63,-243.5 102.63,-243.5 102.63,-224.5 14.63,-224.5"/>
<text text-anchor="middle" x="58.63" y="-231.5" font-family="Helvetica,sans-Serif" font-size="10.00">include/vargs.hh</text>
</a>
</g>
</g>
<!-- Node2&#45;&gt;Node7 -->
<g id="edge7" class="edge">
<title>Node2&#45;&gt;Node7</title>
<path fill="none" stroke="midnightblue" d="M144.24,-280.32C127.96,-271.7 102.76,-258.36 83.91,-248.39"/>
<polygon fill="midnightblue" stroke="midnightblue" points="85.45,-245.24 74.98,-243.65 82.18,-251.43 85.45,-245.24"/>
</g>
<!-- Node9 -->
<g id="node9" class="node">
<title>Node9</title>
<g id="a_node9"><a xlink:href="color_8h.html" target="_top" xlink:title=" ">
<polygon fill="white" stroke="black" points="121.13,-224.5 121.13,-243.5 200.13,-243.5 200.13,-224.5 121.13,-224.5"/>
<text text-anchor="middle" x="160.63" y="-231.5" font-family="Helvetica,sans-Serif" font-size="10.00">include/color.h</text>
</a>
</g>
</g>
<!-- Node2&#45;&gt;Node9 -->
<g id="edge9" class="edge">
<title>Node2&#45;&gt;Node9</title>
<path fill="none" stroke="midnightblue" d="M160.63,-280.08C160.63,-273.01 160.63,-262.86 160.63,-253.99"/>
<polygon fill="midnightblue" stroke="midnightblue" points="164.13,-253.75 160.63,-243.75 157.13,-253.75 164.13,-253.75"/>
</g>
<!-- Node10 -->
<g id="node10" class="node">
<title>Node10</title>
<g id="a_node10"><a xlink:title=" ">
<polygon fill="white" stroke="#bfbfbf" points="218.13,-224.5 218.13,-243.5 277.13,-243.5 277.13,-224.5 218.13,-224.5"/>
<text text-anchor="middle" x="247.63" y="-231.5" font-family="Helvetica,sans-Serif" font-size="10.00">functional</text>
</a>
</g>
</g>
<!-- Node2&#45;&gt;Node10 -->
<g id="edge10" class="edge">
<title>Node2&#45;&gt;Node10</title>
<path fill="none" stroke="midnightblue" d="M174.61,-280.32C188.18,-271.9 209.01,-258.97 224.95,-249.07"/>
<polygon fill="midnightblue" stroke="midnightblue" points="227.03,-251.9 233.68,-243.65 223.34,-245.95 227.03,-251.9"/>
</g>
<!-- Node4 -->
<g id="node4" class="node">
<title>Node4</title>
<g id="a_node4"><a xlink:title=" ">
<polygon fill="white" stroke="#bfbfbf" points="308.63,-0.5 308.63,-19.5 360.63,-19.5 360.63,-0.5 308.63,-0.5"/>
<text text-anchor="middle" x="334.63" y="-7.5" font-family="Helvetica,sans-Serif" font-size="10.00">stddef.h</text>
</a>
</g>
</g>
<!-- Node3&#45;&gt;Node4 -->
<g id="edge3" class="edge">
<title>Node3&#45;&gt;Node4</title>
<path fill="none" stroke="midnightblue" d="M420.24,-56.32C403.96,-47.7 378.76,-34.36 359.91,-24.39"/>
<polygon fill="midnightblue" stroke="midnightblue" points="361.45,-21.24 350.98,-19.65 358.18,-27.43 361.45,-21.24"/>
</g>
<!-- Node5 -->
<g id="node5" class="node">
<title>Node5</title>
<g id="a_node5"><a xlink:title=" ">
<polygon fill="white" stroke="#bfbfbf" points="379.13,-0.5 379.13,-19.5 428.13,-19.5 428.13,-0.5 379.13,-0.5"/>
<text text-anchor="middle" x="403.63" y="-7.5" font-family="Helvetica,sans-Serif" font-size="10.00">stdint.h</text>
</a>
</g>
</g>
<!-- Node3&#45;&gt;Node5 -->
<g id="edge4" class="edge">
<title>Node3&#45;&gt;Node5</title>
<path fill="none" stroke="midnightblue" d="M431.18,-56.08C426.61,-48.61 419.96,-37.72 414.33,-28.52"/>
<polygon fill="midnightblue" stroke="midnightblue" points="417.18,-26.46 408.98,-19.75 411.2,-30.11 417.18,-26.46"/>
</g>
<!-- Node6 -->
<g id="node6" class="node">
<title>Node6</title>
<g id="a_node6"><a xlink:href="ctype_8h.html" target="_top" xlink:title=" ">
<polygon fill="white" stroke="black" points="446.13,-0.5 446.13,-19.5 495.13,-19.5 495.13,-0.5 446.13,-0.5"/>
<text text-anchor="middle" x="470.63" y="-7.5" font-family="Helvetica,sans-Serif" font-size="10.00">ctype.h</text>
</a>
</g>
</g>
<!-- Node3&#45;&gt;Node6 -->
<g id="edge5" class="edge">
<title>Node3&#45;&gt;Node6</title>
<path fill="none" stroke="midnightblue" d="M437.08,-56.08C440.3,-48.38 447.07,-37.03 453.85,-27.65"/>
<polygon fill="midnightblue" stroke="midnightblue" points="456.62,-29.8 459.99,-19.75 451.09,-25.5 456.62,-29.8"/>
</g>
<!-- Node6&#45;&gt;Node3 -->
<g id="edge6" class="edge">
<title>Node6&#45;&gt;Node3</title>
<path fill="none" stroke="midnightblue" d="M470.25,-19.75C467.07,-27.4 460.33,-38.74 453.55,-48.14"/>
<polygon fill="midnightblue" stroke="midnightblue" points="450.76,-46.03 447.41,-56.08 456.3,-50.31 450.76,-46.03"/>
</g>
<!-- Node8 -->
<g id="node8" class="node">
<title>Node8</title>
<g id="a_node8"><a xlink:title=" ">
<polygon fill="white" stroke="#bfbfbf" points="34.13,-168.5 34.13,-187.5 83.13,-187.5 83.13,-168.5 34.13,-168.5"/>
<text text-anchor="middle" x="58.63" y="-175.5" font-family="Helvetica,sans-Serif" font-size="10.00">cstdarg</text>
</a>
</g>
</g>
<!-- Node7&#45;&gt;Node8 -->
<g id="edge8" class="edge">
<title>Node7&#45;&gt;Node8</title>
<path fill="none" stroke="midnightblue" d="M58.63,-224.08C58.63,-217.01 58.63,-206.86 58.63,-197.99"/>
<polygon fill="midnightblue" stroke="midnightblue" points="62.13,-197.75 58.63,-187.75 55.13,-197.75 62.13,-197.75"/>
</g>
<!-- Node11&#45;&gt;Node3 -->
<g id="edge12" class="edge">
<title>Node11&#45;&gt;Node3</title>
<path fill="none" stroke="midnightblue" d="M339.16,-280.31C325.74,-252.86 288.87,-166.56 325.63,-112 339.09,-92.02 363.1,-80.91 385.35,-74.73"/>
<polygon fill="midnightblue" stroke="midnightblue" points="386.23,-78.12 395.08,-72.3 384.53,-71.33 386.23,-78.12"/>
</g>
<!-- Node12 -->
<g id="node12" class="node">
<title>Node12</title>
<g id="a_node12"><a xlink:href="syscall_8hh.html" target="_top" xlink:title=" ">
<polygon fill="white" stroke="black" points="334.13,-112.5 334.13,-131.5 429.13,-131.5 429.13,-112.5 334.13,-112.5"/>
<text text-anchor="middle" x="381.63" y="-119.5" font-family="Helvetica,sans-Serif" font-size="10.00">include/syscall.hh</text>
</a>
</g>
</g>
<!-- Node11&#45;&gt;Node12 -->
<g id="edge13" class="edge">
<title>Node11&#45;&gt;Node12</title>
<path fill="none" stroke="midnightblue" d="M345.67,-280.08C351.65,-253.95 369.22,-177.21 377.38,-141.58"/>
<polygon fill="midnightblue" stroke="midnightblue" points="380.85,-142.1 379.67,-131.57 374.02,-140.53 380.85,-142.1"/>
</g>
<!-- Node13 -->
<g id="node13" class="node">
<title>Node13</title>
<g id="a_node13"><a xlink:href="include_2trap_8hh.html" target="_top" xlink:title=" ">
<polygon fill="white" stroke="black" points="470.63,-224.5 470.63,-243.5 550.63,-243.5 550.63,-224.5 470.63,-224.5"/>
<text text-anchor="middle" x="510.63" y="-231.5" font-family="Helvetica,sans-Serif" font-size="10.00">include/trap.hh</text>
</a>
</g>
</g>
<!-- Node11&#45;&gt;Node13 -->
<g id="edge15" class="edge">
<title>Node11&#45;&gt;Node13</title>
<path fill="none" stroke="midnightblue" d="M370.09,-280.44C398.31,-271.32 443.17,-256.81 474.6,-246.65"/>
<polygon fill="midnightblue" stroke="midnightblue" points="475.85,-249.92 484.29,-243.52 473.7,-243.26 475.85,-249.92"/>
</g>
<!-- Node12&#45;&gt;Node3 -->
<g id="edge14" class="edge">
<title>Node12&#45;&gt;Node3</title>
<path fill="none" stroke="midnightblue" d="M390.71,-112.08C398.8,-104.14 410.82,-92.34 420.54,-82.8"/>
<polygon fill="midnightblue" stroke="midnightblue" points="423.03,-85.25 427.71,-75.75 418.13,-80.26 423.03,-85.25"/>
</g>
<!-- Node14 -->
<g id="node14" class="node">
<title>Node14</title>
<g id="a_node14"><a xlink:href="string_8hh.html" target="_top" xlink:title=" ">
<polygon fill="white" stroke="black" points="447.63,-112.5 447.63,-131.5 535.63,-131.5 535.63,-112.5 447.63,-112.5"/>
<text text-anchor="middle" x="491.63" y="-119.5" font-family="Helvetica,sans-Serif" font-size="10.00">include/string.hh</text>
</a>
</g>
</g>
<!-- Node13&#45;&gt;Node14 -->
<g id="edge16" class="edge">
<title>Node13&#45;&gt;Node14</title>
<path fill="none" stroke="midnightblue" d="M509.14,-224.37C506.07,-206.62 499,-165.67 494.84,-141.6"/>
<polygon fill="midnightblue" stroke="midnightblue" points="498.26,-140.85 493.11,-131.59 491.37,-142.04 498.26,-140.85"/>
</g>
<!-- Node15 -->
<g id="node15" class="node">
<title>Node15</title>
<g id="a_node15"><a xlink:href="mmu_8h.html" target="_top" xlink:title=" ">
<polygon fill="white" stroke="black" points="553.63,-112.5 553.63,-131.5 633.63,-131.5 633.63,-112.5 553.63,-112.5"/>
<text text-anchor="middle" x="593.63" y="-119.5" font-family="Helvetica,sans-Serif" font-size="10.00">include/mmu.h</text>
</a>
</g>
</g>
<!-- Node13&#45;&gt;Node15 -->
<g id="edge18" class="edge">
<title>Node13&#45;&gt;Node15</title>
<path fill="none" stroke="midnightblue" d="M515.07,-224.17C521.75,-211.27 535.16,-186.75 549.63,-168 557.7,-157.54 567.97,-146.91 576.56,-138.62"/>
<polygon fill="midnightblue" stroke="midnightblue" points="578.99,-141.14 583.86,-131.73 574.18,-136.05 578.99,-141.14"/>
</g>
<!-- Node16 -->
<g id="node16" class="node">
<title>Node16</title>
<g id="a_node16"><a xlink:href="memlayout_8h.html" target="_top" xlink:title=" ">
<polygon fill="white" stroke="black" points="558.13,-168.5 558.13,-187.5 665.13,-187.5 665.13,-168.5 558.13,-168.5"/>
<text text-anchor="middle" x="611.63" y="-175.5" font-family="Helvetica,sans-Serif" font-size="10.00">include/memlayout.h</text>
</a>
</g>
</g>
<!-- Node13&#45;&gt;Node16 -->
<g id="edge20" class="edge">
<title>Node13&#45;&gt;Node16</title>
<path fill="none" stroke="midnightblue" d="M526.86,-224.32C542.98,-215.7 567.93,-202.36 586.59,-192.39"/>
<polygon fill="midnightblue" stroke="midnightblue" points="588.27,-195.46 595.44,-187.65 584.97,-189.28 588.27,-195.46"/>
</g>
<!-- Node14&#45;&gt;Node3 -->
<g id="edge17" class="edge">
<title>Node14&#45;&gt;Node3</title>
<path fill="none" stroke="midnightblue" d="M482.55,-112.08C474.46,-104.14 462.43,-92.34 452.72,-82.8"/>
<polygon fill="midnightblue" stroke="midnightblue" points="455.13,-80.26 445.54,-75.75 450.22,-85.25 455.13,-80.26"/>
</g>
<!-- Node15&#45;&gt;Node3 -->
<g id="edge19" class="edge">
<title>Node15&#45;&gt;Node3</title>
<path fill="none" stroke="midnightblue" d="M568.75,-112.44C542.34,-103.36 500.41,-88.94 470.89,-78.78"/>
<polygon fill="midnightblue" stroke="midnightblue" points="471.98,-75.46 461.39,-75.52 469.71,-82.08 471.98,-75.46"/>
</g>
<!-- Node16&#45;&gt;Node3 -->
<g id="edge21" class="edge">
<title>Node16&#45;&gt;Node3</title>
<path fill="none" stroke="midnightblue" d="M621.48,-168.29C635.21,-155.1 656.9,-129.72 642.63,-112 623.65,-88.43 543.25,-76.53 488.69,-71.06"/>
<polygon fill="midnightblue" stroke="midnightblue" points="488.78,-67.56 478.49,-70.09 488.11,-74.52 488.78,-67.56"/>
</g>
<!-- Node16&#45;&gt;Node15 -->
<g id="edge22" class="edge">
<title>Node16&#45;&gt;Node15</title>
<path fill="none" stroke="midnightblue" d="M608.66,-168.08C606.24,-160.85 602.76,-150.41 599.76,-141.4"/>
<polygon fill="midnightblue" stroke="midnightblue" points="603.03,-140.13 596.55,-131.75 596.39,-142.34 603.03,-140.13"/>
</g>
</g>
</svg>
        <g id="navigator" transform="translate(0 0)" fill="#404254">
                <rect fill="#f2f5e9" fill-opacity="0.5" stroke="#606060" stroke-width=".5" x="0" y="0" width="60" height="60"/>
                <use id="zoomplus" xlink:href="#zoomPlus" x="17" y="9" onmousedown="handleZoom(evt,'in')"/>
                <use id="zoomminus" xlink:href="#zoomMin" x="42" y="9" onmousedown="handleZoom(evt,'out')"/>
                <use id="reset" xlink:href="#resetDef" x="30" y="36" onmousedown="handleReset()"/>
                <g id="arrowUp" xlink:href="#dirArrow" transform="translate(30 24)" onmousedown="handlePan(0,-1)">
                  <use xlink:href="#rim" fill="#404040">
                        <set attributeName="fill" to="#808080" begin="arrowUp.mouseover" end="arrowUp.mouseout"/>
                  </use>
                  <path fill="none" stroke="white" stroke-width="1.5" d="M0,-3.0v7 M-2.5,-0.5L0,-3.0L2.5,-0.5"/>
                </g>
                <g id="arrowRight" xlink:href="#dirArrow" transform="rotate(90) translate(36 -43)" onmousedown="handlePan(1,0)">
                  <use xlink:href="#rim" fill="#404040">
                        <set attributeName="fill" to="#808080" begin="arrowRight.mouseover" end="arrowRight.mouseout"/>
                  </use>
                  <path fill="none" stroke="white" stroke-width="1.5" d="M0,-3.0v7 M-2.5,-0.5L0,-3.0L2.5,-0.5"/>
                </g>
                <g id="arrowDown" xlink:href="#dirArrow" transform="rotate(180) translate(-30 -48)" onmousedown="handlePan(0,1)">
                  <use xlink:href="#rim" fill="#404040">
                        <set attributeName="fill" to="#808080" begin="arrowDown.mouseover" end="arrowDown.mouseout"/>
                  </use>
                  <path fill="none" stroke="white" stroke-width="1.5" d="M0,-3.0v7 M-2.5,-0.5L0,-3.0L2.5,-0.5"/>
                </g>
                <g id="arrowLeft" xlink:href="#dirArrow" transform="rotate(270) translate(-36 17)" onmousedown="handlePan(-1,0)">
                  <use xlink:href="#rim" fill="#404040">
                        <set attributeName="fill" to="#808080" begin="arrowLeft.mouseover" end="arrowLeft.mouseout"/>
                  </use>
                  <path fill="none" stroke="white" stroke-width="1.5" d="M0,-3.0v7 M-2.5,-0.5L0,-3.0L2.5,-0.5"/>
                </g>
        </g>
        <svg viewBox="0 0 15 15" width="100%" height="30px" preserveAspectRatio="xMaxYMin meet">
         <g id="arrow_out" transform="scale(0.3 0.3)">
          <a xlink:href="user_2lib_2printf_8cc__incl_org.svg" target="_base">
           <rect id="button" ry="5" rx="5" y="6" x="6" height="38" width="38"
                fill="#f2f5e9" fill-opacity="0.5" stroke="#606060" stroke-width="1.0"/>
           <path id="arrow"
             d="M 11.500037,31.436501 C 11.940474,20.09759 22.043105,11.32322 32.158766,21.979434 L 37.068811,17.246167 C 37.068811,17.246167 37.088388,32 37.088388,32 L 22.160133,31.978069 C 22.160133,31.978069 26.997745,27.140456 26.997745,27.140456 C 18.528582,18.264221 13.291696,25.230495 11.500037,31.436501 z"
             style="fill:#404040;"/>
          </a>
         </g>
        </svg>
</svg>
