<?xml version="1.0" encoding="UTF-8" standalone="no"?>
<!DOCTYPE svg PUBLIC "-//W3C//DTD SVG 1.1//EN"
 "http://www.w3.org/Graphics/SVG/1.1/DTD/svg11.dtd">
<!-- Generated by graphviz version 2.44.1 (20200629.0846)
 -->
<!-- Title: vargs.hh Pages: 1 -->
<svg width="1192pt" height="196pt"
 viewBox="0.00 0.00 1191.50 196.00" xmlns="http://www.w3.org/2000/svg" xmlns:xlink="http://www.w3.org/1999/xlink">
<g id="graph0" class="graph" transform="scale(1 1) rotate(0) translate(4 192)">
<title>vargs.hh</title>
<polygon fill="white" stroke="transparent" points="-4,4 -4,-192 1187.5,-192 1187.5,4 -4,4"/>
<!-- Node1 -->
<g id="node1" class="node">
<title>Node1</title>
<g id="a_node1"><a xlink:title=" ">
<polygon fill="#bfbfbf" stroke="black" points="295.5,-168.5 295.5,-187.5 349.5,-187.5 349.5,-168.5 295.5,-168.5"/>
<text text-anchor="middle" x="322.5" y="-175.5" font-family="Helvetica,sans-Serif" font-size="10.00">vargs.hh</text>
</a>
</g>
</g>
<!-- Node2 -->
<g id="node2" class="node">
<title>Node2</title>
<g id="a_node2"><a xlink:href="stdin_8hh.html" target="_top" xlink:title=" ">
<polygon fill="white" stroke="black" points="356,-112.5 356,-131.5 407,-131.5 407,-112.5 356,-112.5"/>
<text text-anchor="middle" x="381.5" y="-119.5" font-family="Helvetica,sans-Serif" font-size="10.00">stdin.hh</text>
</a>
</g>
</g>
<!-- Node1&#45;&gt;Node2 -->
<g id="edge1" class="edge">
<title>Node1&#45;&gt;Node2</title>
<path fill="none" stroke="midnightblue" d="M339.39,-161.54C349.91,-151.91 363.07,-139.87 371.85,-131.83"/>
<polygon fill="midnightblue" stroke="midnightblue" points="336.99,-158.99 331.98,-168.32 341.72,-164.15 336.99,-158.99"/>
</g>
<!-- Node8 -->
<g id="node8" class="node">
<title>Node8</title>
<g id="a_node8"><a xlink:href="panic_8cc.html" target="_top" xlink:title=" ">
<polygon fill="white" stroke="black" points="0,-0.5 0,-19.5 53,-19.5 53,-0.5 0,-0.5"/>
<text text-anchor="middle" x="26.5" y="-7.5" font-family="Helvetica,sans-Serif" font-size="10.00">panic.cc</text>
</a>
</g>
</g>
<!-- Node1&#45;&gt;Node8 -->
<g id="edge22" class="edge">
<title>Node1&#45;&gt;Node8</title>
<path fill="none" stroke="midnightblue" d="M296.56,-163.56C279.66,-154.73 257.18,-142.85 237.5,-132 162.98,-90.92 75.05,-39.55 40.99,-19.53"/>
<polygon fill="midnightblue" stroke="midnightblue" points="295.31,-166.85 305.8,-168.37 298.55,-160.65 295.31,-166.85"/>
</g>
<!-- Node9 -->
<g id="node9" class="node">
<title>Node9</title>
<g id="a_node9"><a xlink:href="kernel_2readline_8cc.html" target="_top" xlink:title=" ">
<polygon fill="white" stroke="black" points="71.5,-0.5 71.5,-19.5 135.5,-19.5 135.5,-0.5 71.5,-0.5"/>
<text text-anchor="middle" x="103.5" y="-7.5" font-family="Helvetica,sans-Serif" font-size="10.00">readline.cc</text>
</a>
</g>
</g>
<!-- Node1&#45;&gt;Node9 -->
<g id="edge23" class="edge">
<title>Node1&#45;&gt;Node9</title>
<path fill="none" stroke="midnightblue" d="M303.01,-162.23C258.43,-128.44 150.18,-46.38 114.85,-19.61"/>
<polygon fill="midnightblue" stroke="midnightblue" points="300.95,-165.06 311.03,-168.31 305.18,-159.48 300.95,-165.06"/>
</g>
<!-- Node20 -->
<g id="node20" class="node">
<title>Node20</title>
<g id="a_node20"><a xlink:href="stdout_8hh.html" target="_top" xlink:title=" ">
<polygon fill="white" stroke="black" points="506,-112.5 506,-131.5 563,-131.5 563,-112.5 506,-112.5"/>
<text text-anchor="middle" x="534.5" y="-119.5" font-family="Helvetica,sans-Serif" font-size="10.00">stdout.hh</text>
</a>
</g>
</g>
<!-- Node1&#45;&gt;Node20 -->
<g id="edge19" class="edge">
<title>Node1&#45;&gt;Node20</title>
<path fill="none" stroke="midnightblue" d="M359.55,-167.56C401.26,-156.94 468.13,-139.91 505.97,-130.27"/>
<polygon fill="midnightblue" stroke="midnightblue" points="358.61,-164.19 349.78,-170.05 360.34,-170.97 358.61,-164.19"/>
</g>
<!-- Node3 -->
<g id="node3" class="node">
<title>Node3</title>
<g id="a_node3"><a xlink:href="stdio_8hh.html" target="_top" xlink:title=" ">
<polygon fill="white" stroke="black" points="509,-56.5 509,-75.5 560,-75.5 560,-56.5 509,-56.5"/>
<text text-anchor="middle" x="534.5" y="-63.5" font-family="Helvetica,sans-Serif" font-size="10.00">stdio.hh</text>
</a>
</g>
</g>
<!-- Node2&#45;&gt;Node3 -->
<g id="edge2" class="edge">
<title>Node2&#45;&gt;Node3</title>
<path fill="none" stroke="midnightblue" d="M415.39,-109.04C444.18,-98.88 484.79,-84.55 510.37,-75.52"/>
<polygon fill="midnightblue" stroke="midnightblue" points="414.01,-105.81 405.74,-112.44 416.34,-112.42 414.01,-105.81"/>
</g>
<!-- Node4 -->
<g id="node4" class="node">
<title>Node4</title>
<g id="a_node4"><a xlink:href="kdebug_8cc.html" target="_top" xlink:title=" ">
<polygon fill="white" stroke="black" points="763.5,-0.5 763.5,-19.5 825.5,-19.5 825.5,-0.5 763.5,-0.5"/>
<text text-anchor="middle" x="794.5" y="-7.5" font-family="Helvetica,sans-Serif" font-size="10.00">kdebug.cc</text>
</a>
</g>
</g>
<!-- Node3&#45;&gt;Node4 -->
<g id="edge3" class="edge">
<title>Node3&#45;&gt;Node4</title>
<path fill="none" stroke="midnightblue" d="M569.94,-56.02C652.88,-37.51 675.56,-36.56 754.5,-20 757.29,-19.42 760.18,-18.79 763.08,-18.16"/>
<polygon fill="midnightblue" stroke="midnightblue" points="569.06,-52.63 560.07,-58.24 570.6,-59.46 569.06,-52.63"/>
</g>
<!-- Node5 -->
<g id="node5" class="node">
<title>Node5</title>
<g id="a_node5"><a xlink:href="init_8cc.html" target="_top" xlink:title=" ">
<polygon fill="white" stroke="black" points="844,-0.5 844,-19.5 887,-19.5 887,-0.5 844,-0.5"/>
<text text-anchor="middle" x="865.5" y="-7.5" font-family="Helvetica,sans-Serif" font-size="10.00">init.cc</text>
</a>
</g>
</g>
<!-- Node3&#45;&gt;Node5 -->
<g id="edge4" class="edge">
<title>Node3&#45;&gt;Node5</title>
<path fill="none" stroke="midnightblue" d="M570.17,-56.1C687.96,-33.76 721.4,-43.96 834.5,-20 837.57,-19.35 840.78,-18.55 843.92,-17.71"/>
<polygon fill="midnightblue" stroke="midnightblue" points="569.19,-52.73 560.04,-58.07 570.52,-59.6 569.19,-52.73"/>
</g>
<!-- Node6 -->
<g id="node6" class="node">
<title>Node6</title>
<g id="a_node6"><a xlink:href="ksyscall_8cc.html" target="_top" xlink:title=" ">
<polygon fill="white" stroke="black" points="905.5,-0.5 905.5,-19.5 971.5,-19.5 971.5,-0.5 905.5,-0.5"/>
<text text-anchor="middle" x="938.5" y="-7.5" font-family="Helvetica,sans-Serif" font-size="10.00">ksyscall.cc</text>
</a>
</g>
</g>
<!-- Node3&#45;&gt;Node6 -->
<g id="edge5" class="edge">
<title>Node3&#45;&gt;Node6</title>
<path fill="none" stroke="midnightblue" d="M570.18,-56.15C715.13,-30.32 755.41,-42.82 896.5,-20 899.3,-19.55 902.19,-19.03 905.09,-18.48"/>
<polygon fill="midnightblue" stroke="midnightblue" points="569.24,-52.76 560.02,-57.99 570.49,-59.65 569.24,-52.76"/>
</g>
<!-- Node7 -->
<g id="node7" class="node">
<title>Node7</title>
<g id="a_node7"><a xlink:href="mp_8cc.html" target="_top" xlink:title=" ">
<polygon fill="white" stroke="black" points="989.5,-0.5 989.5,-19.5 1033.5,-19.5 1033.5,-0.5 989.5,-0.5"/>
<text text-anchor="middle" x="1011.5" y="-7.5" font-family="Helvetica,sans-Serif" font-size="10.00">mp.cc</text>
</a>
</g>
</g>
<!-- Node3&#45;&gt;Node7 -->
<g id="edge6" class="edge">
<title>Node3&#45;&gt;Node7</title>
<path fill="none" stroke="midnightblue" d="M569.91,-56.25C752.04,-26.05 803.43,-53.13 980.5,-20 983.36,-19.46 986.34,-18.77 989.27,-18.02"/>
<polygon fill="midnightblue" stroke="midnightblue" points="569.29,-52.8 560.01,-57.92 570.45,-59.71 569.29,-52.8"/>
</g>
<!-- Node3&#45;&gt;Node8 -->
<g id="edge7" class="edge">
<title>Node3&#45;&gt;Node8</title>
<path fill="none" stroke="midnightblue" d="M498.61,-63.42C419.4,-59.52 223.86,-47.7 62.5,-20 59.45,-19.48 56.28,-18.83 53.14,-18.13"/>
<polygon fill="midnightblue" stroke="midnightblue" points="498.84,-66.93 509,-63.91 499.17,-59.94 498.84,-66.93"/>
</g>
<!-- Node3&#45;&gt;Node9 -->
<g id="edge8" class="edge">
<title>Node3&#45;&gt;Node9</title>
<path fill="none" stroke="midnightblue" d="M498.51,-62.07C429.53,-56.2 274.04,-41.63 144.5,-20 141.62,-19.52 138.65,-18.97 135.67,-18.38"/>
<polygon fill="midnightblue" stroke="midnightblue" points="498.56,-65.59 508.82,-62.94 499.15,-58.62 498.56,-65.59"/>
</g>
<!-- Node10 -->
<g id="node10" class="node">
<title>Node10</title>
<g id="a_node10"><a xlink:href="kernel_2printf_8cc.html" target="_top" xlink:title=" ">
<polygon fill="white" stroke="black" points="1051.5,-0.5 1051.5,-19.5 1103.5,-19.5 1103.5,-0.5 1051.5,-0.5"/>
<text text-anchor="middle" x="1077.5" y="-7.5" font-family="Helvetica,sans-Serif" font-size="10.00">printf.cc</text>
</a>
</g>
</g>
<!-- Node3&#45;&gt;Node10 -->
<g id="edge9" class="edge">
<title>Node3&#45;&gt;Node10</title>
<path fill="none" stroke="midnightblue" d="M570.08,-56.24C779.32,-22.62 837.74,-53.85 1042.5,-20 1045.35,-19.53 1048.3,-18.94 1051.23,-18.28"/>
<polygon fill="midnightblue" stroke="midnightblue" points="569.31,-52.82 560,-57.89 570.44,-59.73 569.31,-52.82"/>
</g>
<!-- Node11 -->
<g id="node11" class="node">
<title>Node11</title>
<g id="a_node11"><a xlink:href="system_8cc.html" target="_top" xlink:title=" ">
<polygon fill="white" stroke="black" points="1121.5,-0.5 1121.5,-19.5 1183.5,-19.5 1183.5,-0.5 1121.5,-0.5"/>
<text text-anchor="middle" x="1152.5" y="-7.5" font-family="Helvetica,sans-Serif" font-size="10.00">system.cc</text>
</a>
</g>
</g>
<!-- Node3&#45;&gt;Node11 -->
<g id="edge10" class="edge">
<title>Node3&#45;&gt;Node11</title>
<path fill="none" stroke="midnightblue" d="M570.45,-56.17C810.12,-18.72 876.4,-54.18 1112.5,-20 1115.32,-19.59 1118.23,-19.09 1121.14,-18.54"/>
<polygon fill="midnightblue" stroke="midnightblue" points="569.71,-52.75 560.38,-57.77 570.81,-59.66 569.71,-52.75"/>
</g>
<!-- Node12 -->
<g id="node12" class="node">
<title>Node12</title>
<g id="a_node12"><a xlink:href="monitor_8cc.html" target="_top" xlink:title=" ">
<polygon fill="white" stroke="black" points="153.5,-0.5 153.5,-19.5 215.5,-19.5 215.5,-0.5 153.5,-0.5"/>
<text text-anchor="middle" x="184.5" y="-7.5" font-family="Helvetica,sans-Serif" font-size="10.00">monitor.cc</text>
</a>
</g>
</g>
<!-- Node3&#45;&gt;Node12 -->
<g id="edge11" class="edge">
<title>Node3&#45;&gt;Node12</title>
<path fill="none" stroke="midnightblue" d="M498.57,-60.7C440.65,-53.56 323.18,-38.23 224.5,-20 221.7,-19.48 218.8,-18.91 215.9,-18.3"/>
<polygon fill="midnightblue" stroke="midnightblue" points="498.32,-64.19 508.67,-61.93 499.17,-57.25 498.32,-64.19"/>
</g>
<!-- Node13 -->
<g id="node13" class="node">
<title>Node13</title>
<g id="a_node13"><a xlink:href="task_8cc.html" target="_top" xlink:title=" ">
<polygon fill="white" stroke="black" points="234,-0.5 234,-19.5 283,-19.5 283,-0.5 234,-0.5"/>
<text text-anchor="middle" x="258.5" y="-7.5" font-family="Helvetica,sans-Serif" font-size="10.00">task.cc</text>
</a>
</g>
</g>
<!-- Node3&#45;&gt;Node13 -->
<g id="edge12" class="edge">
<title>Node3&#45;&gt;Node13</title>
<path fill="none" stroke="midnightblue" d="M498.72,-59.33C451.16,-51.58 364.6,-36.71 291.5,-20 288.84,-19.39 286.07,-18.71 283.31,-18"/>
<polygon fill="midnightblue" stroke="midnightblue" points="498.39,-62.82 508.82,-60.97 499.5,-55.91 498.39,-62.82"/>
</g>
<!-- Node14 -->
<g id="node14" class="node">
<title>Node14</title>
<g id="a_node14"><a xlink:href="vmem_8cc.html" target="_top" xlink:title=" ">
<polygon fill="white" stroke="black" points="301,-0.5 301,-19.5 358,-19.5 358,-0.5 301,-0.5"/>
<text text-anchor="middle" x="329.5" y="-7.5" font-family="Helvetica,sans-Serif" font-size="10.00">vmem.cc</text>
</a>
</g>
</g>
<!-- Node3&#45;&gt;Node14 -->
<g id="edge13" class="edge">
<title>Node3&#45;&gt;Node14</title>
<path fill="none" stroke="midnightblue" d="M499.1,-55.68C459.13,-45.15 394.89,-28.22 358.01,-18.51"/>
<polygon fill="midnightblue" stroke="midnightblue" points="498.39,-59.11 508.95,-58.27 500.17,-52.34 498.39,-59.11"/>
</g>
<!-- Node15 -->
<g id="node15" class="node">
<title>Node15</title>
<g id="a_node15"><a xlink:href="exception_8cc.html" target="_top" xlink:title=" ">
<polygon fill="white" stroke="black" points="376.5,-0.5 376.5,-19.5 448.5,-19.5 448.5,-0.5 376.5,-0.5"/>
<text text-anchor="middle" x="412.5" y="-7.5" font-family="Helvetica,sans-Serif" font-size="10.00">exception.cc</text>
</a>
</g>
</g>
<!-- Node3&#45;&gt;Node15 -->
<g id="edge14" class="edge">
<title>Node3&#45;&gt;Node15</title>
<path fill="none" stroke="midnightblue" d="M505.96,-52.37C483.11,-42.26 451.69,-28.35 431.74,-19.52"/>
<polygon fill="midnightblue" stroke="midnightblue" points="504.61,-55.6 515.17,-56.44 507.44,-49.2 504.61,-55.6"/>
</g>
<!-- Node16 -->
<g id="node16" class="node">
<title>Node16</title>
<g id="a_node16"><a xlink:href="printfmt_8cc.html" target="_top" xlink:title=" ">
<polygon fill="white" stroke="black" points="467,-0.5 467,-19.5 530,-19.5 530,-0.5 467,-0.5"/>
<text text-anchor="middle" x="498.5" y="-7.5" font-family="Helvetica,sans-Serif" font-size="10.00">printfmt.cc</text>
</a>
</g>
</g>
<!-- Node3&#45;&gt;Node16 -->
<g id="edge15" class="edge">
<title>Node3&#45;&gt;Node16</title>
<path fill="none" stroke="midnightblue" d="M522.88,-47.57C516.68,-38.27 509.33,-27.25 504.33,-19.75"/>
<polygon fill="midnightblue" stroke="midnightblue" points="520.1,-49.7 528.56,-56.08 525.92,-45.82 520.1,-49.7"/>
</g>
<!-- Node17 -->
<g id="node17" class="node">
<title>Node17</title>
<g id="a_node17"><a xlink:href="trap_8cc.html" target="_top" xlink:title=" ">
<polygon fill="white" stroke="black" points="548,-0.5 548,-19.5 595,-19.5 595,-0.5 548,-0.5"/>
<text text-anchor="middle" x="571.5" y="-7.5" font-family="Helvetica,sans-Serif" font-size="10.00">trap.cc</text>
</a>
</g>
</g>
<!-- Node3&#45;&gt;Node17 -->
<g id="edge16" class="edge">
<title>Node3&#45;&gt;Node17</title>
<path fill="none" stroke="midnightblue" d="M546.45,-47.57C552.81,-38.27 560.37,-27.25 565.5,-19.75"/>
<polygon fill="midnightblue" stroke="midnightblue" points="543.37,-45.86 540.61,-56.08 549.15,-49.81 543.37,-45.86"/>
</g>
<!-- Node18 -->
<g id="node18" class="node">
<title>Node18</title>
<g id="a_node18"><a xlink:href="hello_8cc.html" target="_top" xlink:title=" ">
<polygon fill="white" stroke="black" points="613.5,-0.5 613.5,-19.5 663.5,-19.5 663.5,-0.5 613.5,-0.5"/>
<text text-anchor="middle" x="638.5" y="-7.5" font-family="Helvetica,sans-Serif" font-size="10.00">hello.cc</text>
</a>
</g>
</g>
<!-- Node3&#45;&gt;Node18 -->
<g id="edge17" class="edge">
<title>Node3&#45;&gt;Node18</title>
<path fill="none" stroke="midnightblue" d="M560.33,-51.59C579.56,-41.61 605.24,-28.27 621.83,-19.65"/>
<polygon fill="midnightblue" stroke="midnightblue" points="558.47,-48.61 551.21,-56.32 561.7,-54.82 558.47,-48.61"/>
</g>
<!-- Node19 -->
<g id="node19" class="node">
<title>Node19</title>
<g id="a_node19"><a xlink:href="user_2lib_2readline_8cc.html" target="_top" xlink:title=" ">
<polygon fill="white" stroke="black" points="681.5,-0.5 681.5,-19.5 745.5,-19.5 745.5,-0.5 681.5,-0.5"/>
<text text-anchor="middle" x="713.5" y="-7.5" font-family="Helvetica,sans-Serif" font-size="10.00">readline.cc</text>
</a>
</g>
</g>
<!-- Node3&#45;&gt;Node19 -->
<g id="edge18" class="edge">
<title>Node3&#45;&gt;Node19</title>
<path fill="none" stroke="midnightblue" d="M570.08,-54.27C603.89,-44.07 654.08,-28.92 685.24,-19.52"/>
<polygon fill="midnightblue" stroke="midnightblue" points="568.71,-51.02 560.15,-57.26 570.73,-57.73 568.71,-51.02"/>
</g>
<!-- Node20&#45;&gt;Node3 -->
<g id="edge20" class="edge">
<title>Node20&#45;&gt;Node3</title>
<path fill="none" stroke="midnightblue" d="M534.5,-101.8C534.5,-92.91 534.5,-82.78 534.5,-75.75"/>
<polygon fill="midnightblue" stroke="midnightblue" points="531,-102.08 534.5,-112.08 538,-102.08 531,-102.08"/>
</g>
<!-- Node21 -->
<g id="node21" class="node">
<title>Node21</title>
<g id="a_node21"><a xlink:href="user_2lib_2printf_8cc.html" target="_top" xlink:title=" ">
<polygon fill="white" stroke="black" points="578.5,-56.5 578.5,-75.5 630.5,-75.5 630.5,-56.5 578.5,-56.5"/>
<text text-anchor="middle" x="604.5" y="-63.5" font-family="Helvetica,sans-Serif" font-size="10.00">printf.cc</text>
</a>
</g>
</g>
<!-- Node20&#45;&gt;Node21 -->
<g id="edge21" class="edge">
<title>Node20&#45;&gt;Node21</title>
<path fill="none" stroke="midnightblue" d="M553.81,-106.1C566.41,-96.38 582.43,-84.03 593.05,-75.83"/>
<polygon fill="midnightblue" stroke="midnightblue" points="551.53,-103.44 545.75,-112.32 555.8,-108.99 551.53,-103.44"/>
</g>
</g>
</svg>
