<?xml version="1.0" encoding="UTF-8" standalone="no"?>
<!DOCTYPE svg PUBLIC "-//W3C//DTD SVG 1.1//EN"
 "http://www.w3.org/Graphics/SVG/1.1/DTD/svg11.dtd">
<!-- Generated by graphviz version 2.44.1 (20200629.0846)
 -->
<!-- Title: vmem.hh Pages: 1 -->
<svg width="470pt" height="252pt"
 viewBox="0.00 0.00 469.50 252.00" xmlns="http://www.w3.org/2000/svg" xmlns:xlink="http://www.w3.org/1999/xlink">
<g id="graph0" class="graph" transform="scale(1 1) rotate(0) translate(4 248)">
<title>vmem.hh</title>
<polygon fill="white" stroke="transparent" points="-4,4 -4,-248 465.5,-248 465.5,4 -4,4"/>
<!-- Node1 -->
<g id="node1" class="node">
<title>Node1</title>
<g id="a_node1"><a xlink:title=" ">
<polygon fill="#bfbfbf" stroke="black" points="180,-224.5 180,-243.5 237,-243.5 237,-224.5 180,-224.5"/>
<text text-anchor="middle" x="208.5" y="-231.5" font-family="Helvetica,sans-Serif" font-size="10.00">vmem.hh</text>
</a>
</g>
</g>
<!-- Node2 -->
<g id="node2" class="node">
<title>Node2</title>
<g id="a_node2"><a xlink:href="knlast_8inc.html" target="_top" xlink:title=" ">
<polygon fill="white" stroke="black" points="60.5,-112.5 60.5,-131.5 148.5,-131.5 148.5,-112.5 60.5,-112.5"/>
<text text-anchor="middle" x="104.5" y="-119.5" font-family="Helvetica,sans-Serif" font-size="10.00">kernel/knlast.inc</text>
</a>
</g>
</g>
<!-- Node1&#45;&gt;Node2 -->
<g id="edge1" class="edge">
<title>Node1&#45;&gt;Node2</title>
<path fill="none" stroke="midnightblue" d="M200.43,-224.09C188.98,-211.5 167.33,-187.82 148.5,-168 139.17,-158.17 128.55,-147.31 120.08,-138.71"/>
<polygon fill="midnightblue" stroke="midnightblue" points="122.53,-136.21 113.01,-131.56 117.55,-141.13 122.53,-136.21"/>
</g>
<!-- Node3 -->
<g id="node3" class="node">
<title>Node3</title>
<g id="a_node3"><a xlink:title=" ">
<polygon fill="white" stroke="#bfbfbf" points="101.5,-168.5 101.5,-187.5 139.5,-187.5 139.5,-168.5 101.5,-168.5"/>
<text text-anchor="middle" x="120.5" y="-175.5" font-family="Helvetica,sans-Serif" font-size="10.00">tuple</text>
</a>
</g>
</g>
<!-- Node1&#45;&gt;Node3 -->
<g id="edge2" class="edge">
<title>Node1&#45;&gt;Node3</title>
<path fill="none" stroke="midnightblue" d="M194.36,-224.32C180.63,-215.9 159.56,-202.97 143.44,-193.07"/>
<polygon fill="midnightblue" stroke="midnightblue" points="144.96,-189.9 134.6,-187.65 141.3,-195.87 144.96,-189.9"/>
</g>
<!-- Node4 -->
<g id="node4" class="node">
<title>Node4</title>
<g id="a_node4"><a xlink:href="x86_8h.html" target="_top" xlink:title=" ">
<polygon fill="white" stroke="black" points="387.5,-112.5 387.5,-131.5 461.5,-131.5 461.5,-112.5 387.5,-112.5"/>
<text text-anchor="middle" x="424.5" y="-119.5" font-family="Helvetica,sans-Serif" font-size="10.00">include/x86.h</text>
</a>
</g>
</g>
<!-- Node1&#45;&gt;Node4 -->
<g id="edge3" class="edge">
<title>Node1&#45;&gt;Node4</title>
<path fill="none" stroke="midnightblue" d="M237.26,-230.95C289.05,-226.64 394.8,-214.7 418.5,-188 429.42,-175.69 429.89,-156.44 428.24,-142.08"/>
<polygon fill="midnightblue" stroke="midnightblue" points="431.64,-141.17 426.63,-131.83 424.72,-142.25 431.64,-141.17"/>
</g>
<!-- Node9 -->
<g id="node9" class="node">
<title>Node9</title>
<g id="a_node9"><a xlink:href="memlayout_8h.html" target="_top" xlink:title=" ">
<polygon fill="white" stroke="black" points="196,-168.5 196,-187.5 303,-187.5 303,-168.5 196,-168.5"/>
<text text-anchor="middle" x="249.5" y="-175.5" font-family="Helvetica,sans-Serif" font-size="10.00">include/memlayout.h</text>
</a>
</g>
</g>
<!-- Node1&#45;&gt;Node9 -->
<g id="edge9" class="edge">
<title>Node1&#45;&gt;Node9</title>
<path fill="none" stroke="midnightblue" d="M215.27,-224.08C221.06,-216.46 229.56,-205.26 236.64,-195.94"/>
<polygon fill="midnightblue" stroke="midnightblue" points="239.6,-197.83 242.86,-187.75 234.02,-193.6 239.6,-197.83"/>
</g>
<!-- Node11 -->
<g id="node11" class="node">
<title>Node11</title>
<g id="a_node11"><a xlink:href="result_8hh.html" target="_top" xlink:title=" ">
<polygon fill="white" stroke="black" points="321.5,-168.5 321.5,-187.5 409.5,-187.5 409.5,-168.5 321.5,-168.5"/>
<text text-anchor="middle" x="365.5" y="-175.5" font-family="Helvetica,sans-Serif" font-size="10.00">include/result.hh</text>
</a>
</g>
</g>
<!-- Node1&#45;&gt;Node11 -->
<g id="edge13" class="edge">
<title>Node1&#45;&gt;Node11</title>
<path fill="none" stroke="midnightblue" d="M233.38,-224.44C259.79,-215.36 301.72,-200.94 331.24,-190.78"/>
<polygon fill="midnightblue" stroke="midnightblue" points="332.42,-194.08 340.74,-187.52 330.14,-187.46 332.42,-194.08"/>
</g>
<!-- Node12 -->
<g id="node12" class="node">
<title>Node12</title>
<g id="a_node12"><a xlink:href="panic_8hh.html" target="_top" xlink:title=" ">
<polygon fill="white" stroke="black" points="0,-168.5 0,-187.5 83,-187.5 83,-168.5 0,-168.5"/>
<text text-anchor="middle" x="41.5" y="-175.5" font-family="Helvetica,sans-Serif" font-size="10.00">kernel/panic.hh</text>
</a>
</g>
</g>
<!-- Node1&#45;&gt;Node12 -->
<g id="edge14" class="edge">
<title>Node1&#45;&gt;Node12</title>
<path fill="none" stroke="midnightblue" d="M182.04,-224.44C153.82,-215.32 108.96,-200.81 77.53,-190.65"/>
<polygon fill="midnightblue" stroke="midnightblue" points="78.43,-187.26 67.84,-187.52 76.28,-193.92 78.43,-187.26"/>
</g>
<!-- Node5 -->
<g id="node5" class="node">
<title>Node5</title>
<g id="a_node5"><a xlink:href="types_8h.html" target="_top" xlink:title=" ">
<polygon fill="white" stroke="black" points="276,-56.5 276,-75.5 359,-75.5 359,-56.5 276,-56.5"/>
<text text-anchor="middle" x="317.5" y="-63.5" font-family="Helvetica,sans-Serif" font-size="10.00">include/types.h</text>
</a>
</g>
</g>
<!-- Node4&#45;&gt;Node5 -->
<g id="edge4" class="edge">
<title>Node4&#45;&gt;Node5</title>
<path fill="none" stroke="midnightblue" d="M407.31,-112.32C390.15,-103.66 363.55,-90.24 343.75,-80.25"/>
<polygon fill="midnightblue" stroke="midnightblue" points="345.15,-77.04 334.65,-75.65 342,-83.28 345.15,-77.04"/>
</g>
<!-- Node6 -->
<g id="node6" class="node">
<title>Node6</title>
<g id="a_node6"><a xlink:title=" ">
<polygon fill="white" stroke="#bfbfbf" points="189.5,-0.5 189.5,-19.5 241.5,-19.5 241.5,-0.5 189.5,-0.5"/>
<text text-anchor="middle" x="215.5" y="-7.5" font-family="Helvetica,sans-Serif" font-size="10.00">stddef.h</text>
</a>
</g>
</g>
<!-- Node5&#45;&gt;Node6 -->
<g id="edge5" class="edge">
<title>Node5&#45;&gt;Node6</title>
<path fill="none" stroke="midnightblue" d="M301.11,-56.32C284.83,-47.7 259.63,-34.36 240.78,-24.39"/>
<polygon fill="midnightblue" stroke="midnightblue" points="242.32,-21.24 231.85,-19.65 239.05,-27.43 242.32,-21.24"/>
</g>
<!-- Node7 -->
<g id="node7" class="node">
<title>Node7</title>
<g id="a_node7"><a xlink:title=" ">
<polygon fill="white" stroke="#bfbfbf" points="260,-0.5 260,-19.5 309,-19.5 309,-0.5 260,-0.5"/>
<text text-anchor="middle" x="284.5" y="-7.5" font-family="Helvetica,sans-Serif" font-size="10.00">stdint.h</text>
</a>
</g>
</g>
<!-- Node5&#45;&gt;Node7 -->
<g id="edge6" class="edge">
<title>Node5&#45;&gt;Node7</title>
<path fill="none" stroke="midnightblue" d="M312.05,-56.08C307.49,-48.61 300.83,-37.72 295.21,-28.52"/>
<polygon fill="midnightblue" stroke="midnightblue" points="298.05,-26.46 289.85,-19.75 292.08,-30.11 298.05,-26.46"/>
</g>
<!-- Node8 -->
<g id="node8" class="node">
<title>Node8</title>
<g id="a_node8"><a xlink:href="ctype_8h.html" target="_top" xlink:title=" ">
<polygon fill="white" stroke="black" points="327,-0.5 327,-19.5 376,-19.5 376,-0.5 327,-0.5"/>
<text text-anchor="middle" x="351.5" y="-7.5" font-family="Helvetica,sans-Serif" font-size="10.00">ctype.h</text>
</a>
</g>
</g>
<!-- Node5&#45;&gt;Node8 -->
<g id="edge7" class="edge">
<title>Node5&#45;&gt;Node8</title>
<path fill="none" stroke="midnightblue" d="M317.95,-56.08C321.17,-48.38 327.94,-37.03 334.73,-27.65"/>
<polygon fill="midnightblue" stroke="midnightblue" points="337.49,-29.8 340.86,-19.75 331.96,-25.5 337.49,-29.8"/>
</g>
<!-- Node8&#45;&gt;Node5 -->
<g id="edge8" class="edge">
<title>Node8&#45;&gt;Node5</title>
<path fill="none" stroke="midnightblue" d="M351.12,-19.75C347.95,-27.4 341.2,-38.74 334.42,-48.14"/>
<polygon fill="midnightblue" stroke="midnightblue" points="331.63,-46.03 328.28,-56.08 337.17,-50.31 331.63,-46.03"/>
</g>
<!-- Node9&#45;&gt;Node5 -->
<g id="edge10" class="edge">
<title>Node9&#45;&gt;Node5</title>
<path fill="none" stroke="midnightblue" d="M250.51,-168.4C252.37,-155.36 257.2,-130.17 268.5,-112 275.76,-100.32 286.87,-89.76 296.68,-81.82"/>
<polygon fill="midnightblue" stroke="midnightblue" points="299.04,-84.42 304.83,-75.54 294.77,-78.87 299.04,-84.42"/>
</g>
<!-- Node10 -->
<g id="node10" class="node">
<title>Node10</title>
<g id="a_node10"><a xlink:href="mmu_8h.html" target="_top" xlink:title=" ">
<polygon fill="white" stroke="black" points="277.5,-112.5 277.5,-131.5 357.5,-131.5 357.5,-112.5 277.5,-112.5"/>
<text text-anchor="middle" x="317.5" y="-119.5" font-family="Helvetica,sans-Serif" font-size="10.00">include/mmu.h</text>
</a>
</g>
</g>
<!-- Node9&#45;&gt;Node10 -->
<g id="edge11" class="edge">
<title>Node9&#45;&gt;Node10</title>
<path fill="none" stroke="midnightblue" d="M260.43,-168.32C270.67,-160.18 286.22,-147.84 298.5,-138.09"/>
<polygon fill="midnightblue" stroke="midnightblue" points="300.72,-140.79 306.38,-131.83 296.37,-135.31 300.72,-140.79"/>
</g>
<!-- Node10&#45;&gt;Node5 -->
<g id="edge12" class="edge">
<title>Node10&#45;&gt;Node5</title>
<path fill="none" stroke="midnightblue" d="M317.5,-112.08C317.5,-105.01 317.5,-94.86 317.5,-85.99"/>
<polygon fill="midnightblue" stroke="midnightblue" points="321,-85.75 317.5,-75.75 314,-85.75 321,-85.75"/>
</g>
<!-- Node12&#45;&gt;Node2 -->
<g id="edge15" class="edge">
<title>Node12&#45;&gt;Node2</title>
<path fill="none" stroke="midnightblue" d="M51.62,-168.32C61.03,-160.26 75.24,-148.08 86.57,-138.37"/>
<polygon fill="midnightblue" stroke="midnightblue" points="88.88,-141 94.19,-131.83 84.32,-135.68 88.88,-141"/>
</g>
</g>
</svg>
