<?xml version="1.0" encoding="UTF-8" standalone="no"?>
<!DOCTYPE svg PUBLIC "-//W3C//DTD SVG 1.1//EN"
 "http://www.w3.org/Graphics/SVG/1.1/DTD/svg11.dtd">
<!-- Generated by graphviz version 2.44.1 (20200629.0846)
 -->
<!-- Title: vmem.cc Pages: 1 -->
<!--zoomable 420 -->
<svg id="main" version="1.1" xmlns="http://www.w3.org/2000/svg" xmlns:xlink="http://www.w3.org/1999/xlink" xml:space="preserve" onload="init(evt)">
<style type="text/css"><![CDATA[
.edge:hover path { stroke: red; }
.edge:hover polygon { stroke: red; fill: red; }
]]></style>
<script type="text/javascript"><![CDATA[
var edges = document.getElementsByTagName('g');
if (edges && edges.length) {
  for (var i=0;i<edges.length;i++) {
    if (edges[i].id.substr(0,4)=='edge') {
      edges[i].setAttribute('class','edge');
    }
  }
}
]]></script>
        <defs>
                <circle id="rim" cx="0" cy="0" r="7"/>
                <circle id="rim2" cx="0" cy="0" r="3.5"/>
                <g id="zoomPlus">
                        <use xlink:href="#rim" fill="#404040">
                                <set attributeName="fill" to="#808080" begin="zoomplus.mouseover" end="zoomplus.mouseout"/>
                        </use>
                        <path d="M-4,0h8M0,-4v8" fill="none" stroke="white" stroke-width="1.5" pointer-events="none"/>
                </g>
                <g id="zoomMin">
                        <use xlink:href="#rim" fill="#404040">
                                <set attributeName="fill" to="#808080" begin="zoomminus.mouseover" end="zoomminus.mouseout"/>
                        </use>
                        <path d="M-4,0h8" fill="none" stroke="white" stroke-width="1.5" pointer-events="none"/>
                </g>
                <g id="dirArrow">
                        <path fill="none" stroke="white" stroke-width="1.5" d="M0,-3.0v7 M-2.5,-0.5L0,-3.0L2.5,-0.5"/>
                </g>
               <g id="resetDef">
                       <use xlink:href="#rim2" fill="#404040">
                               <set attributeName="fill" to="#808080" begin="reset.mouseover" end="reset.mouseout"/>
                       </use>
               </g>
        </defs>

<script type="text/javascript">
var viewWidth = 952;
var viewHeight = 420;
var sectionId = 'dynsection-0';
</script>
<script xlink:href="svgpan.js"/>
<svg id="graph" class="graph">
<g id="viewport">
<title>vmem.cc</title>
<polygon fill="white" stroke="transparent" points="-4,4 -4,-416 948.26,-416 948.26,4 -4,4"/>
<!-- Node1 -->
<g id="node1" class="node">
<title>Node1</title>
<g id="a_node1"><a xlink:title=" ">
<polygon fill="#bfbfbf" stroke="black" points="376.5,-392.5 376.5,-411.5 433.5,-411.5 433.5,-392.5 376.5,-392.5"/>
<text text-anchor="middle" x="405" y="-399.5" font-family="Helvetica,sans-Serif" font-size="10.00">vmem.cc</text>
</a>
</g>
</g>
<!-- Node2 -->
<g id="node2" class="node">
<title>Node2</title>
<g id="a_node2"><a xlink:href="mmu_8h.html" target="_top" xlink:title=" ">
<polygon fill="white" stroke="black" points="357,-112.5 357,-131.5 437,-131.5 437,-112.5 357,-112.5"/>
<text text-anchor="middle" x="397" y="-119.5" font-family="Helvetica,sans-Serif" font-size="10.00">include/mmu.h</text>
</a>
</g>
</g>
<!-- Node1&#45;&gt;Node2 -->
<g id="edge1" class="edge">
<title>Node1&#45;&gt;Node2</title>
<path fill="none" stroke="midnightblue" d="M399.72,-392.23C389.27,-374.04 367,-330.6 367,-291 367,-291 367,-291 367,-233 367,-199.64 380,-162.53 388.89,-141.07"/>
<polygon fill="midnightblue" stroke="midnightblue" points="392.21,-142.19 392.95,-131.62 385.78,-139.42 392.21,-142.19"/>
</g>
<!-- Node7 -->
<g id="node7" class="node">
<title>Node7</title>
<g id="a_node7"><a xlink:href="stdio_8hh.html" target="_top" xlink:title=" ">
<polygon fill="white" stroke="black" points="145.5,-336.5 145.5,-355.5 230.5,-355.5 230.5,-336.5 145.5,-336.5"/>
<text text-anchor="middle" x="188" y="-343.5" font-family="Helvetica,sans-Serif" font-size="10.00">include/stdio.hh</text>
</a>
</g>
</g>
<!-- Node1&#45;&gt;Node7 -->
<g id="edge7" class="edge">
<title>Node1&#45;&gt;Node7</title>
<path fill="none" stroke="midnightblue" d="M376.18,-393.83C339.36,-384.67 275.25,-368.71 232.22,-358"/>
<polygon fill="midnightblue" stroke="midnightblue" points="232.86,-354.56 222.31,-355.54 231.17,-361.35 232.86,-354.56"/>
</g>
<!-- Node14 -->
<g id="node14" class="node">
<title>Node14</title>
<g id="a_node14"><a xlink:href="x86_8h.html" target="_top" xlink:title=" ">
<polygon fill="white" stroke="black" points="265,-280.5 265,-299.5 339,-299.5 339,-280.5 265,-280.5"/>
<text text-anchor="middle" x="302" y="-287.5" font-family="Helvetica,sans-Serif" font-size="10.00">include/x86.h</text>
</a>
</g>
</g>
<!-- Node1&#45;&gt;Node14 -->
<g id="edge16" class="edge">
<title>Node1&#45;&gt;Node14</title>
<path fill="none" stroke="midnightblue" d="M393.69,-392.27C382.77,-383.6 366.01,-369.66 353,-356 338.53,-340.81 323.95,-321.77 314.1,-308.22"/>
<polygon fill="midnightblue" stroke="midnightblue" points="316.77,-305.94 308.11,-299.84 311.08,-310.01 316.77,-305.94"/>
</g>
<!-- Node15 -->
<g id="node15" class="node">
<title>Node15</title>
<g id="a_node15"><a xlink:href="memlayout_8h.html" target="_top" xlink:title=" ">
<polygon fill="white" stroke="black" points="395.5,-168.5 395.5,-187.5 502.5,-187.5 502.5,-168.5 395.5,-168.5"/>
<text text-anchor="middle" x="449" y="-175.5" font-family="Helvetica,sans-Serif" font-size="10.00">include/memlayout.h</text>
</a>
</g>
</g>
<!-- Node1&#45;&gt;Node15 -->
<g id="edge18" class="edge">
<title>Node1&#45;&gt;Node15</title>
<path fill="none" stroke="midnightblue" d="M406.72,-392.3C413.2,-359.63 436.14,-243.87 445.24,-197.96"/>
<polygon fill="midnightblue" stroke="midnightblue" points="448.73,-198.37 447.24,-187.88 441.86,-197.01 448.73,-198.37"/>
</g>
<!-- Node16 -->
<g id="node16" class="node">
<title>Node16</title>
<g id="a_node16"><a xlink:href="string_8hh.html" target="_top" xlink:title=" ">
<polygon fill="white" stroke="black" points="559,-168.5 559,-187.5 647,-187.5 647,-168.5 559,-168.5"/>
<text text-anchor="middle" x="603" y="-175.5" font-family="Helvetica,sans-Serif" font-size="10.00">include/string.hh</text>
</a>
</g>
</g>
<!-- Node1&#45;&gt;Node16 -->
<g id="edge21" class="edge">
<title>Node1&#45;&gt;Node16</title>
<path fill="none" stroke="midnightblue" d="M412.87,-392.43C424.49,-379.84 447.02,-355.72 467,-336 488.37,-314.9 547.36,-267.54 566,-244 577.69,-229.24 588.01,-210.34 594.76,-196.73"/>
<polygon fill="midnightblue" stroke="midnightblue" points="598.01,-198.04 599.19,-187.51 591.7,-195.01 598.01,-198.04"/>
</g>
<!-- Node17 -->
<g id="node17" class="node">
<title>Node17</title>
<g id="a_node17"><a xlink:href="vmem_8hh.html" target="_top" xlink:title=" ">
<polygon fill="white" stroke="black" points="476,-336.5 476,-355.5 562,-355.5 562,-336.5 476,-336.5"/>
<text text-anchor="middle" x="519" y="-343.5" font-family="Helvetica,sans-Serif" font-size="10.00">kernel/vmem.hh</text>
</a>
</g>
</g>
<!-- Node1&#45;&gt;Node17 -->
<g id="edge23" class="edge">
<title>Node1&#45;&gt;Node17</title>
<path fill="none" stroke="midnightblue" d="M423.06,-392.44C441.57,-383.68 470.58,-369.94 491.86,-359.86"/>
<polygon fill="midnightblue" stroke="midnightblue" points="493.48,-362.96 501.02,-355.52 490.49,-356.63 493.48,-362.96"/>
</g>
<!-- Node22 -->
<g id="node22" class="node">
<title>Node22</title>
<g id="a_node22"><a xlink:href="kernel_2task_8hh.html" target="_top" xlink:title=" ">
<polygon fill="white" stroke="black" points="708,-336.5 708,-355.5 786,-355.5 786,-336.5 708,-336.5"/>
<text text-anchor="middle" x="747" y="-343.5" font-family="Helvetica,sans-Serif" font-size="10.00">kernel/task.hh</text>
</a>
</g>
</g>
<!-- Node1&#45;&gt;Node22 -->
<g id="edge31" class="edge">
<title>Node1&#45;&gt;Node22</title>
<path fill="none" stroke="midnightblue" d="M433.57,-396.49C491.87,-387.28 625.14,-366.24 697.71,-354.78"/>
<polygon fill="midnightblue" stroke="midnightblue" points="698.63,-358.18 707.96,-353.16 697.53,-351.27 698.63,-358.18"/>
</g>
<!-- Node3 -->
<g id="node3" class="node">
<title>Node3</title>
<g id="a_node3"><a xlink:href="types_8h.html" target="_top" xlink:title=" ">
<polygon fill="white" stroke="black" points="355.5,-56.5 355.5,-75.5 438.5,-75.5 438.5,-56.5 355.5,-56.5"/>
<text text-anchor="middle" x="397" y="-63.5" font-family="Helvetica,sans-Serif" font-size="10.00">include/types.h</text>
</a>
</g>
</g>
<!-- Node2&#45;&gt;Node3 -->
<g id="edge2" class="edge">
<title>Node2&#45;&gt;Node3</title>
<path fill="none" stroke="midnightblue" d="M397,-112.08C397,-105.01 397,-94.86 397,-85.99"/>
<polygon fill="midnightblue" stroke="midnightblue" points="400.5,-85.75 397,-75.75 393.5,-85.75 400.5,-85.75"/>
</g>
<!-- Node4 -->
<g id="node4" class="node">
<title>Node4</title>
<g id="a_node4"><a xlink:title=" ">
<polygon fill="white" stroke="#bfbfbf" points="269,-0.5 269,-19.5 321,-19.5 321,-0.5 269,-0.5"/>
<text text-anchor="middle" x="295" y="-7.5" font-family="Helvetica,sans-Serif" font-size="10.00">stddef.h</text>
</a>
</g>
</g>
<!-- Node3&#45;&gt;Node4 -->
<g id="edge3" class="edge">
<title>Node3&#45;&gt;Node4</title>
<path fill="none" stroke="midnightblue" d="M380.61,-56.32C364.33,-47.7 339.13,-34.36 320.28,-24.39"/>
<polygon fill="midnightblue" stroke="midnightblue" points="321.82,-21.24 311.35,-19.65 318.55,-27.43 321.82,-21.24"/>
</g>
<!-- Node5 -->
<g id="node5" class="node">
<title>Node5</title>
<g id="a_node5"><a xlink:title=" ">
<polygon fill="white" stroke="#bfbfbf" points="339.5,-0.5 339.5,-19.5 388.5,-19.5 388.5,-0.5 339.5,-0.5"/>
<text text-anchor="middle" x="364" y="-7.5" font-family="Helvetica,sans-Serif" font-size="10.00">stdint.h</text>
</a>
</g>
</g>
<!-- Node3&#45;&gt;Node5 -->
<g id="edge4" class="edge">
<title>Node3&#45;&gt;Node5</title>
<path fill="none" stroke="midnightblue" d="M391.55,-56.08C386.99,-48.61 380.33,-37.72 374.71,-28.52"/>
<polygon fill="midnightblue" stroke="midnightblue" points="377.55,-26.46 369.35,-19.75 371.58,-30.11 377.55,-26.46"/>
</g>
<!-- Node6 -->
<g id="node6" class="node">
<title>Node6</title>
<g id="a_node6"><a xlink:href="ctype_8h.html" target="_top" xlink:title=" ">
<polygon fill="white" stroke="black" points="406.5,-0.5 406.5,-19.5 455.5,-19.5 455.5,-0.5 406.5,-0.5"/>
<text text-anchor="middle" x="431" y="-7.5" font-family="Helvetica,sans-Serif" font-size="10.00">ctype.h</text>
</a>
</g>
</g>
<!-- Node3&#45;&gt;Node6 -->
<g id="edge5" class="edge">
<title>Node3&#45;&gt;Node6</title>
<path fill="none" stroke="midnightblue" d="M397.45,-56.08C400.67,-48.38 407.44,-37.03 414.23,-27.65"/>
<polygon fill="midnightblue" stroke="midnightblue" points="416.99,-29.8 420.36,-19.75 411.46,-25.5 416.99,-29.8"/>
</g>
<!-- Node6&#45;&gt;Node3 -->
<g id="edge6" class="edge">
<title>Node6&#45;&gt;Node3</title>
<path fill="none" stroke="midnightblue" d="M430.62,-19.75C427.45,-27.4 420.7,-38.74 413.92,-48.14"/>
<polygon fill="midnightblue" stroke="midnightblue" points="411.13,-46.03 407.78,-56.08 416.67,-50.31 411.13,-46.03"/>
</g>
<!-- Node8 -->
<g id="node8" class="node">
<title>Node8</title>
<g id="a_node8"><a xlink:href="stdin_8hh.html" target="_top" xlink:title=" ">
<polygon fill="white" stroke="black" points="14.5,-280.5 14.5,-299.5 99.5,-299.5 99.5,-280.5 14.5,-280.5"/>
<text text-anchor="middle" x="57" y="-287.5" font-family="Helvetica,sans-Serif" font-size="10.00">include/stdin.hh</text>
</a>
</g>
</g>
<!-- Node7&#45;&gt;Node8 -->
<g id="edge8" class="edge">
<title>Node7&#45;&gt;Node8</title>
<path fill="none" stroke="midnightblue" d="M167.24,-336.44C145.68,-327.56 111.74,-313.56 87.21,-303.45"/>
<polygon fill="midnightblue" stroke="midnightblue" points="88.24,-300.09 77.66,-299.52 85.57,-306.56 88.24,-300.09"/>
</g>
<!-- Node11 -->
<g id="node11" class="node">
<title>Node11</title>
<g id="a_node11"><a xlink:href="stdout_8hh.html" target="_top" xlink:title=" ">
<polygon fill="white" stroke="black" points="142.5,-280.5 142.5,-299.5 233.5,-299.5 233.5,-280.5 142.5,-280.5"/>
<text text-anchor="middle" x="188" y="-287.5" font-family="Helvetica,sans-Serif" font-size="10.00">include/stdout.hh</text>
</a>
</g>
</g>
<!-- Node7&#45;&gt;Node11 -->
<g id="edge11" class="edge">
<title>Node7&#45;&gt;Node11</title>
<path fill="none" stroke="midnightblue" d="M188,-336.08C188,-329.01 188,-318.86 188,-309.99"/>
<polygon fill="midnightblue" stroke="midnightblue" points="191.5,-309.75 188,-299.75 184.5,-309.75 191.5,-309.75"/>
</g>
<!-- Node9 -->
<g id="node9" class="node">
<title>Node9</title>
<g id="a_node9"><a xlink:href="vargs_8hh.html" target="_top" xlink:title=" ">
<polygon fill="white" stroke="black" points="0,-224.5 0,-243.5 88,-243.5 88,-224.5 0,-224.5"/>
<text text-anchor="middle" x="44" y="-231.5" font-family="Helvetica,sans-Serif" font-size="10.00">include/vargs.hh</text>
</a>
</g>
</g>
<!-- Node8&#45;&gt;Node9 -->
<g id="edge9" class="edge">
<title>Node8&#45;&gt;Node9</title>
<path fill="none" stroke="midnightblue" d="M54.85,-280.08C53.13,-272.93 50.65,-262.64 48.5,-253.69"/>
<polygon fill="midnightblue" stroke="midnightblue" points="51.85,-252.65 46.11,-243.75 45.04,-254.29 51.85,-252.65"/>
</g>
<!-- Node10 -->
<g id="node10" class="node">
<title>Node10</title>
<g id="a_node10"><a xlink:title=" ">
<polygon fill="white" stroke="#bfbfbf" points="19.5,-168.5 19.5,-187.5 68.5,-187.5 68.5,-168.5 19.5,-168.5"/>
<text text-anchor="middle" x="44" y="-175.5" font-family="Helvetica,sans-Serif" font-size="10.00">cstdarg</text>
</a>
</g>
</g>
<!-- Node9&#45;&gt;Node10 -->
<g id="edge10" class="edge">
<title>Node9&#45;&gt;Node10</title>
<path fill="none" stroke="midnightblue" d="M44,-224.08C44,-217.01 44,-206.86 44,-197.99"/>
<polygon fill="midnightblue" stroke="midnightblue" points="47.5,-197.75 44,-187.75 40.5,-197.75 47.5,-197.75"/>
</g>
<!-- Node11&#45;&gt;Node3 -->
<g id="edge12" class="edge">
<title>Node11&#45;&gt;Node3</title>
<path fill="none" stroke="midnightblue" d="M212.8,-280.37C230.85,-273.05 254.86,-261 271,-244 315.77,-196.87 292.23,-161.81 334,-112 344.5,-99.49 359.22,-88.71 371.8,-80.85"/>
<polygon fill="midnightblue" stroke="midnightblue" points="373.7,-83.79 380.48,-75.65 370.1,-77.78 373.7,-83.79"/>
</g>
<!-- Node11&#45;&gt;Node9 -->
<g id="edge13" class="edge">
<title>Node11&#45;&gt;Node9</title>
<path fill="none" stroke="midnightblue" d="M165.18,-280.44C141.17,-271.44 103.17,-257.19 76.13,-247.05"/>
<polygon fill="midnightblue" stroke="midnightblue" points="77.3,-243.75 66.71,-243.52 74.84,-250.3 77.3,-243.75"/>
</g>
<!-- Node12 -->
<g id="node12" class="node">
<title>Node12</title>
<g id="a_node12"><a xlink:href="color_8h.html" target="_top" xlink:title=" ">
<polygon fill="white" stroke="black" points="183.5,-224.5 183.5,-243.5 262.5,-243.5 262.5,-224.5 183.5,-224.5"/>
<text text-anchor="middle" x="223" y="-231.5" font-family="Helvetica,sans-Serif" font-size="10.00">include/color.h</text>
</a>
</g>
</g>
<!-- Node11&#45;&gt;Node12 -->
<g id="edge14" class="edge">
<title>Node11&#45;&gt;Node12</title>
<path fill="none" stroke="midnightblue" d="M193.78,-280.08C198.67,-272.53 205.83,-261.49 211.83,-252.23"/>
<polygon fill="midnightblue" stroke="midnightblue" points="214.83,-254.05 217.33,-243.75 208.95,-250.24 214.83,-254.05"/>
</g>
<!-- Node13 -->
<g id="node13" class="node">
<title>Node13</title>
<g id="a_node13"><a xlink:title=" ">
<polygon fill="white" stroke="#bfbfbf" points="106.5,-224.5 106.5,-243.5 165.5,-243.5 165.5,-224.5 106.5,-224.5"/>
<text text-anchor="middle" x="136" y="-231.5" font-family="Helvetica,sans-Serif" font-size="10.00">functional</text>
</a>
</g>
</g>
<!-- Node11&#45;&gt;Node13 -->
<g id="edge15" class="edge">
<title>Node11&#45;&gt;Node13</title>
<path fill="none" stroke="midnightblue" d="M179.41,-280.08C171.84,-272.22 160.62,-260.57 151.49,-251.08"/>
<polygon fill="midnightblue" stroke="midnightblue" points="153.88,-248.53 144.43,-243.75 148.84,-253.38 153.88,-248.53"/>
</g>
<!-- Node14&#45;&gt;Node3 -->
<g id="edge17" class="edge">
<title>Node14&#45;&gt;Node3</title>
<path fill="none" stroke="midnightblue" d="M302.54,-280.22C304.54,-253.22 313.33,-169.69 348,-112 354.99,-100.36 365.9,-89.92 375.65,-82.04"/>
<polygon fill="midnightblue" stroke="midnightblue" points="377.98,-84.66 383.79,-75.8 373.72,-79.1 377.98,-84.66"/>
</g>
<!-- Node15&#45;&gt;Node2 -->
<g id="edge20" class="edge">
<title>Node15&#45;&gt;Node2</title>
<path fill="none" stroke="midnightblue" d="M440.41,-168.08C432.84,-160.22 421.62,-148.57 412.49,-139.08"/>
<polygon fill="midnightblue" stroke="midnightblue" points="414.88,-136.53 405.43,-131.75 409.84,-141.38 414.88,-136.53"/>
</g>
<!-- Node15&#45;&gt;Node3 -->
<g id="edge19" class="edge">
<title>Node15&#45;&gt;Node3</title>
<path fill="none" stroke="midnightblue" d="M450.64,-168.09C452.59,-155.07 454.61,-130.42 446,-112 440.33,-99.86 429.73,-89.48 419.84,-81.76"/>
<polygon fill="midnightblue" stroke="midnightblue" points="421.62,-78.73 411.47,-75.68 417.51,-84.39 421.62,-78.73"/>
</g>
<!-- Node16&#45;&gt;Node3 -->
<g id="edge22" class="edge">
<title>Node16&#45;&gt;Node3</title>
<path fill="none" stroke="midnightblue" d="M586.84,-168.37C551.03,-149.25 464.85,-103.23 422.02,-80.36"/>
<polygon fill="midnightblue" stroke="midnightblue" points="423.56,-77.21 413.09,-75.59 420.26,-83.39 423.56,-77.21"/>
</g>
<!-- Node17&#45;&gt;Node14 -->
<g id="edge26" class="edge">
<title>Node17&#45;&gt;Node14</title>
<path fill="none" stroke="midnightblue" d="M484.62,-336.44C447.08,-327.1 386.87,-312.12 345.93,-301.93"/>
<polygon fill="midnightblue" stroke="midnightblue" points="346.77,-298.53 336.22,-299.52 345.08,-305.33 346.77,-298.53"/>
</g>
<!-- Node17&#45;&gt;Node15 -->
<g id="edge27" class="edge">
<title>Node17&#45;&gt;Node15</title>
<path fill="none" stroke="midnightblue" d="M513.94,-336.33C504.07,-319.17 481.99,-279.45 468,-244 461.93,-228.62 456.79,-210.52 453.4,-197.34"/>
<polygon fill="midnightblue" stroke="midnightblue" points="456.78,-196.44 450.97,-187.58 449.99,-198.13 456.78,-196.44"/>
</g>
<!-- Node18 -->
<g id="node18" class="node">
<title>Node18</title>
<g id="a_node18"><a xlink:href="knlast_8inc.html" target="_top" xlink:title=" ">
<polygon fill="white" stroke="black" points="706,-168.5 706,-187.5 794,-187.5 794,-168.5 706,-168.5"/>
<text text-anchor="middle" x="750" y="-175.5" font-family="Helvetica,sans-Serif" font-size="10.00">kernel/knlast.inc</text>
</a>
</g>
</g>
<!-- Node17&#45;&gt;Node18 -->
<g id="edge24" class="edge">
<title>Node17&#45;&gt;Node18</title>
<path fill="none" stroke="midnightblue" d="M521.01,-336.37C524.56,-322.82 533.1,-296.44 549,-280 574.33,-253.82 669.49,-212.16 719.25,-191.48"/>
<polygon fill="midnightblue" stroke="midnightblue" points="720.65,-194.69 728.56,-187.64 717.98,-188.22 720.65,-194.69"/>
</g>
<!-- Node19 -->
<g id="node19" class="node">
<title>Node19</title>
<g id="a_node19"><a xlink:title=" ">
<polygon fill="white" stroke="#bfbfbf" points="691,-280.5 691,-299.5 729,-299.5 729,-280.5 691,-280.5"/>
<text text-anchor="middle" x="710" y="-287.5" font-family="Helvetica,sans-Serif" font-size="10.00">tuple</text>
</a>
</g>
</g>
<!-- Node17&#45;&gt;Node19 -->
<g id="edge25" class="edge">
<title>Node17&#45;&gt;Node19</title>
<path fill="none" stroke="midnightblue" d="M551.59,-336.43C582.58,-328.19 630.72,-315.14 681.01,-300.21"/>
<polygon fill="midnightblue" stroke="midnightblue" points="682.17,-303.52 690.75,-297.3 680.17,-296.81 682.17,-303.52"/>
</g>
<!-- Node20 -->
<g id="node20" class="node">
<title>Node20</title>
<g id="a_node20"><a xlink:href="result_8hh.html" target="_top" xlink:title=" ">
<polygon fill="white" stroke="black" points="585,-280.5 585,-299.5 673,-299.5 673,-280.5 585,-280.5"/>
<text text-anchor="middle" x="629" y="-287.5" font-family="Helvetica,sans-Serif" font-size="10.00">include/result.hh</text>
</a>
</g>
</g>
<!-- Node17&#45;&gt;Node20 -->
<g id="edge28" class="edge">
<title>Node17&#45;&gt;Node20</title>
<path fill="none" stroke="midnightblue" d="M536.67,-336.32C554.39,-327.62 581.9,-314.12 602.29,-304.11"/>
<polygon fill="midnightblue" stroke="midnightblue" points="603.94,-307.2 611.37,-299.65 600.85,-300.92 603.94,-307.2"/>
</g>
<!-- Node21 -->
<g id="node21" class="node">
<title>Node21</title>
<g id="a_node21"><a xlink:href="panic_8hh.html" target="_top" xlink:title=" ">
<polygon fill="white" stroke="black" points="673.5,-224.5 673.5,-243.5 756.5,-243.5 756.5,-224.5 673.5,-224.5"/>
<text text-anchor="middle" x="715" y="-231.5" font-family="Helvetica,sans-Serif" font-size="10.00">kernel/panic.hh</text>
</a>
</g>
</g>
<!-- Node17&#45;&gt;Node21 -->
<g id="edge29" class="edge">
<title>Node17&#45;&gt;Node21</title>
<path fill="none" stroke="midnightblue" d="M524.52,-336.07C533.58,-322.12 552.93,-295.18 576,-280 602.33,-262.68 635.84,-251.57 663.36,-244.72"/>
<polygon fill="midnightblue" stroke="midnightblue" points="664.28,-248.1 673.21,-242.39 662.67,-241.29 664.28,-248.1"/>
</g>
<!-- Node21&#45;&gt;Node18 -->
<g id="edge30" class="edge">
<title>Node21&#45;&gt;Node18</title>
<path fill="none" stroke="midnightblue" d="M720.78,-224.08C725.67,-216.53 732.83,-205.49 738.83,-196.23"/>
<polygon fill="midnightblue" stroke="midnightblue" points="741.83,-198.05 744.33,-187.75 735.95,-194.24 741.83,-198.05"/>
</g>
<!-- Node22&#45;&gt;Node18 -->
<g id="edge32" class="edge">
<title>Node22&#45;&gt;Node18</title>
<path fill="none" stroke="midnightblue" d="M786.31,-341.18C835.63,-335.48 915.97,-322.88 934,-300 976.82,-245.66 867.16,-207.68 799.2,-190.09"/>
<polygon fill="midnightblue" stroke="midnightblue" points="799.64,-186.59 789.09,-187.54 797.93,-193.38 799.64,-186.59"/>
</g>
<!-- Node22&#45;&gt;Node19 -->
<g id="edge33" class="edge">
<title>Node22&#45;&gt;Node19</title>
<path fill="none" stroke="midnightblue" d="M740.89,-336.08C735.72,-328.53 728.15,-317.49 721.81,-308.23"/>
<polygon fill="midnightblue" stroke="midnightblue" points="724.54,-306.02 716,-299.75 718.76,-309.98 724.54,-306.02"/>
</g>
<!-- Node22&#45;&gt;Node20 -->
<g id="edge35" class="edge">
<title>Node22&#45;&gt;Node20</title>
<path fill="none" stroke="midnightblue" d="M728.3,-336.44C709.06,-327.64 678.85,-313.81 656.8,-303.72"/>
<polygon fill="midnightblue" stroke="midnightblue" points="658.16,-300.5 647.61,-299.52 655.25,-306.86 658.16,-300.5"/>
</g>
<!-- Node23 -->
<g id="node23" class="node">
<title>Node23</title>
<g id="a_node23"><a xlink:href="include_2task_8hh.html" target="_top" xlink:title=" ">
<polygon fill="white" stroke="black" points="841.5,-280.5 841.5,-299.5 924.5,-299.5 924.5,-280.5 841.5,-280.5"/>
<text text-anchor="middle" x="883" y="-287.5" font-family="Helvetica,sans-Serif" font-size="10.00">include/task.hh</text>
</a>
</g>
</g>
<!-- Node22&#45;&gt;Node23 -->
<g id="edge34" class="edge">
<title>Node22&#45;&gt;Node23</title>
<path fill="none" stroke="midnightblue" d="M768.55,-336.44C791.03,-327.52 826.49,-313.44 851.98,-303.32"/>
<polygon fill="midnightblue" stroke="midnightblue" points="853.55,-306.46 861.55,-299.52 850.97,-299.95 853.55,-306.46"/>
</g>
<!-- Node24 -->
<g id="node24" class="node">
<title>Node24</title>
<g id="a_node24"><a xlink:href="kernel_2trap_8hh.html" target="_top" xlink:title=" ">
<polygon fill="white" stroke="black" points="747,-280.5 747,-299.5 823,-299.5 823,-280.5 747,-280.5"/>
<text text-anchor="middle" x="785" y="-287.5" font-family="Helvetica,sans-Serif" font-size="10.00">kernel/trap.hh</text>
</a>
</g>
</g>
<!-- Node22&#45;&gt;Node24 -->
<g id="edge36" class="edge">
<title>Node22&#45;&gt;Node24</title>
<path fill="none" stroke="midnightblue" d="M753.27,-336.08C758.64,-328.46 766.52,-317.26 773.08,-307.94"/>
<polygon fill="midnightblue" stroke="midnightblue" points="775.95,-309.94 778.84,-299.75 770.22,-305.91 775.95,-309.94"/>
</g>
<!-- Node24&#45;&gt;Node18 -->
<g id="edge41" class="edge">
<title>Node24&#45;&gt;Node18</title>
<path fill="none" stroke="midnightblue" d="M782.58,-280.12C779.11,-267.56 772.44,-243.91 766,-224 763.12,-215.11 759.68,-205.34 756.73,-197.17"/>
<polygon fill="midnightblue" stroke="midnightblue" points="759.94,-195.76 753.21,-187.58 753.37,-198.17 759.94,-195.76"/>
</g>
<!-- Node24&#45;&gt;Node21 -->
<g id="edge42" class="edge">
<title>Node24&#45;&gt;Node21</title>
<path fill="none" stroke="midnightblue" d="M773.75,-280.32C763.2,-272.18 747.2,-259.84 734.56,-250.09"/>
<polygon fill="midnightblue" stroke="midnightblue" points="736.51,-247.17 726.45,-243.83 732.23,-252.71 736.51,-247.17"/>
</g>
<!-- Node25 -->
<g id="node25" class="node">
<title>Node25</title>
<g id="a_node25"><a xlink:href="include_2trap_8hh.html" target="_top" xlink:title=" ">
<polygon fill="white" stroke="black" points="477,-224.5 477,-243.5 557,-243.5 557,-224.5 477,-224.5"/>
<text text-anchor="middle" x="517" y="-231.5" font-family="Helvetica,sans-Serif" font-size="10.00">include/trap.hh</text>
</a>
</g>
</g>
<!-- Node24&#45;&gt;Node25 -->
<g id="edge37" class="edge">
<title>Node24&#45;&gt;Node25</title>
<path fill="none" stroke="midnightblue" d="M746.89,-281.32C699.74,-271.82 619.34,-255.62 567.2,-245.12"/>
<polygon fill="midnightblue" stroke="midnightblue" points="567.66,-241.64 557.17,-243.09 566.28,-248.5 567.66,-241.64"/>
</g>
<!-- Node25&#45;&gt;Node2 -->
<g id="edge39" class="edge">
<title>Node25&#45;&gt;Node2</title>
<path fill="none" stroke="midnightblue" d="M518.81,-224.43C521.14,-210.96 523.51,-184.68 511,-168 495.81,-147.74 470.11,-136.59 446.95,-130.46"/>
<polygon fill="midnightblue" stroke="midnightblue" points="447.76,-127.06 437.22,-128.13 446.13,-133.87 447.76,-127.06"/>
</g>
<!-- Node25&#45;&gt;Node15 -->
<g id="edge40" class="edge">
<title>Node25&#45;&gt;Node15</title>
<path fill="none" stroke="midnightblue" d="M506.07,-224.32C495.83,-216.18 480.28,-203.84 468,-194.09"/>
<polygon fill="midnightblue" stroke="midnightblue" points="470.13,-191.31 460.12,-187.83 465.78,-196.79 470.13,-191.31"/>
</g>
<!-- Node25&#45;&gt;Node16 -->
<g id="edge38" class="edge">
<title>Node25&#45;&gt;Node16</title>
<path fill="none" stroke="midnightblue" d="M530.82,-224.32C544.23,-215.9 564.82,-202.97 580.59,-193.07"/>
<polygon fill="midnightblue" stroke="midnightblue" points="582.61,-195.94 589.22,-187.65 578.89,-190.01 582.61,-195.94"/>
</g>
</g>
</svg>
        <g id="navigator" transform="translate(0 0)" fill="#404254">
                <rect fill="#f2f5e9" fill-opacity="0.5" stroke="#606060" stroke-width=".5" x="0" y="0" width="60" height="60"/>
                <use id="zoomplus" xlink:href="#zoomPlus" x="17" y="9" onmousedown="handleZoom(evt,'in')"/>
                <use id="zoomminus" xlink:href="#zoomMin" x="42" y="9" onmousedown="handleZoom(evt,'out')"/>
                <use id="reset" xlink:href="#resetDef" x="30" y="36" onmousedown="handleReset()"/>
                <g id="arrowUp" xlink:href="#dirArrow" transform="translate(30 24)" onmousedown="handlePan(0,-1)">
                  <use xlink:href="#rim" fill="#404040">
                        <set attributeName="fill" to="#808080" begin="arrowUp.mouseover" end="arrowUp.mouseout"/>
                  </use>
                  <path fill="none" stroke="white" stroke-width="1.5" d="M0,-3.0v7 M-2.5,-0.5L0,-3.0L2.5,-0.5"/>
                </g>
                <g id="arrowRight" xlink:href="#dirArrow" transform="rotate(90) translate(36 -43)" onmousedown="handlePan(1,0)">
                  <use xlink:href="#rim" fill="#404040">
                        <set attributeName="fill" to="#808080" begin="arrowRight.mouseover" end="arrowRight.mouseout"/>
                  </use>
                  <path fill="none" stroke="white" stroke-width="1.5" d="M0,-3.0v7 M-2.5,-0.5L0,-3.0L2.5,-0.5"/>
                </g>
                <g id="arrowDown" xlink:href="#dirArrow" transform="rotate(180) translate(-30 -48)" onmousedown="handlePan(0,1)">
                  <use xlink:href="#rim" fill="#404040">
                        <set attributeName="fill" to="#808080" begin="arrowDown.mouseover" end="arrowDown.mouseout"/>
                  </use>
                  <path fill="none" stroke="white" stroke-width="1.5" d="M0,-3.0v7 M-2.5,-0.5L0,-3.0L2.5,-0.5"/>
                </g>
                <g id="arrowLeft" xlink:href="#dirArrow" transform="rotate(270) translate(-36 17)" onmousedown="handlePan(-1,0)">
                  <use xlink:href="#rim" fill="#404040">
                        <set attributeName="fill" to="#808080" begin="arrowLeft.mouseover" end="arrowLeft.mouseout"/>
                  </use>
                  <path fill="none" stroke="white" stroke-width="1.5" d="M0,-3.0v7 M-2.5,-0.5L0,-3.0L2.5,-0.5"/>
                </g>
        </g>
        <svg viewBox="0 0 15 15" width="100%" height="30px" preserveAspectRatio="xMaxYMin meet">
         <g id="arrow_out" transform="scale(0.3 0.3)">
          <a xlink:href="vmem_8cc__incl_org.svg" target="_base">
           <rect id="button" ry="5" rx="5" y="6" x="6" height="38" width="38"
                fill="#f2f5e9" fill-opacity="0.5" stroke="#606060" stroke-width="1.0"/>
           <path id="arrow"
             d="M 11.500037,31.436501 C 11.940474,20.09759 22.043105,11.32322 32.158766,21.979434 L 37.068811,17.246167 C 37.068811,17.246167 37.088388,32 37.088388,32 L 22.160133,31.978069 C 22.160133,31.978069 26.997745,27.140456 26.997745,27.140456 C 18.528582,18.264221 13.291696,25.230495 11.500037,31.436501 z"
             style="fill:#404040;"/>
          </a>
         </g>
        </svg>
</svg>
